<REAPER_UNDO_HISTORY 1701112571
  CURPOS 109 
  <UINF 1
    <REAPER_PROJECT 0.1 "6.67/win64" 0
      PANMODE 3
      CLEAR_COMP_GROUP
      TEMPO 120 4 4
      PLAYRATE 1 0 0.25 4
      SELECTION 1 0
      SELECTION2 1 0
      MASTER_SEL 0
      <EXTENSIONS
        <SWSAUTOCOLOR
          {00000000-0000-0000-0000-000000000000} 0 "" "" ""
          {901882B6-222A-4AD2-8F36-AD31D35BE5C2} 25132927 "" "" ""
          {D3A472DB-9153-4446-91D3-9DB0525E5E4E} 16842496 "" "" ""
          {C11D002C-F0F0-4D5E-9781-EDB846A46007} 33554431 "" "" ""
          {A5678F31-C014-4D18-8F56-99370EBED686} 33554431 "" "" ""
          {58BDB1D7-016D-490B-8909-CB25FC3F5902} 25132927 "" "" ""
          {5847A0CA-FE18-400B-BE05-413CEF896DB8} 16842496 "" "" ""
          {1D455C00-599A-4B56-BE14-CC1718C711D2} 32334866 "" "" ""
          {786E2DFD-D52E-474E-80B4-C9EA4B4F8F49} 32334866 "" "" ""
          {1BF2D52A-E1A6-420A-AECA-267DE1ED5B3B} 33554431 "" "" ""
          {B317100A-A6B9-4648-88BF-3212AA6B1FD2} 29409472 "" "" ""
          {BA582802-FFA8-48A1-8011-E2F1FE5F4FC5} 16842496 "" "" ""
          {9B7BC0D9-8E1A-4A39-917E-F9AB8A189698} 32334866 "" "" ""
          {05F4A8E4-720E-4786-89A1-083D393B8CED} 32334866 "" "" ""
          {374BB5AA-8B32-4B1F-904F-0CF7524030C8} 32334866 "" "" ""
          {366EF5EC-5D90-41FC-99A1-C30B43BD3006} 32334866 "" "" ""
          {2E9E266A-8C84-49CF-91D6-A4D281474AFB} 32334866 "" "" ""
          {6390B51A-B19F-4B03-B559-469D91379CDD} 32334866 "" "" ""
          {33CCFD28-1698-435D-98B7-23680E5E8E37} 32334866 "" "" ""
          {7C653324-610F-4400-817A-05859A1C709C} 32334866 "" "" ""
          {5B159F1A-7CFA-40EB-9485-292B08785429} 32334866 "" "" ""
        >
      >
    >
  >
  <UINF 2
    <REAPER_PROJECT 0.1 /U/
      MASTERAUTOMODE 0
      MASTERTRACKHEIGHT 0 0
      MASTERPEAKCOL 16576
      MASTERMUTESOLO 0
      MASTERTRACKVIEW 0 0.6667 0.5 0.5 -1 -1 -1 0 0 0 -1 -1 0
      MASTERHWOUT 0 0 1 0 0 0 0 -1
      MASTER_NCH 2 2
      MASTER_VOLUME 0.24448276984837 0 -1 -1 1
      MASTER_PANMODE 3
      MASTER_FX 1
      MASTER_SEL 0
    >
  >
  <UINF 3
  >
  <UINF 4
    <ITEM {5E393E2E-4438-4F06-AA2A-36F47DB01EFC}
      POSITION 0
      SNAPOFFS 0
      LENGTH 175.00897916666668
      LOOP 1
      ALLTAKES 0
      FADEIN 1 0.001 0 1 0 0 0
      FADEOUT 1 0.001 0 1 0 0 0
      MUTE 0 0
      SEL 0
      IGUID {5E393E2E-4438-4F06-AA2A-36F47DB01EFC}
      IID 9
      NAME beethoven_fur_elise.mp3
      VOLPAN 1 0 1 -1
      SOFFS 0
      PLAYRATE 1 1 0 -1 0 0.0025
      CHANMODE 0
      GUID {51D7055D-DDD7-4CE7-AB0E-B939C0D3D8EF}
      <SOURCE MP3
        FILE "C:\_AlexFiles\Coding\Python\FALL2023_IndependentStudy\audio_to_midi_vst\independent_study\daw_project_example\beethoven_fur_elise.mp3" 1
      >
    >
  >
  <UINF 5
    <ITEM {1C4EDF5F-37F8-4D0C-AB37-3B2803683674}
      POSITION 0
      SNAPOFFS 0
      LENGTH 174
      LOOP 1
      ALLTAKES 0
      FADEIN 1 0 0 1 0 0 0
      FADEOUT 1 0 0 1 0 0 0
      MUTE 0 0
      SEL 0
      IGUID {1C4EDF5F-37F8-4D0C-AB37-3B2803683674}
      IID 12
      NAME beethoven_fur_elise_basic_pitch.mid
      VOLPAN 1 0 1 -1
      SOFFS 0 0
      PLAYRATE 1 1 0 -1 0 0.0025
      CHANMODE 0
      GUID {E73C174A-B081-4CBA-B641-F3ACDF34A2C7}
      <SOURCE MIDI
        HASDATA 1 220 QN
        CCINTERP 32
        POOLEDEVTS {366235B7-B2E3-4029-B62D-6FA54FC72A66}
        E 0 c0 04 00
        E 204 e0 00 40
        E 0 90 1b 34
        E 6 e0 00 40
        E 5 e0 00 60
        E 5 e0 55 4a
        E 6 e0 55 4a
        E 5 e0 55 4a
        E 5 e0 55 4a
        E 6 e0 55 4a
        E 5 e0 55 4a
        E 5 e0 55 4a
        E 6 e0 55 4a
        E 5 e0 2b 55
        E 5 e0 2b 55
        E 6 e0 2b 55
        E 5 e0 2b 55
        E 5 e0 2b 55
        E 6 e0 2b 55
        E 5 e0 2b 55
        E 5 e0 2b 55
        E 6 e0 2b 55
        E 5 e0 2b 55
        E 5 e0 2b 55
        E 6 e0 2b 55
        E 5 e0 2b 55
        E 0 90 1b 00
        E 465 e0 55 4a
        E 0 90 1b 2f
        E 5 e0 55 4a
        E 5 e0 55 4a
        E 5 e0 55 4a
        E 5 e0 2b 55
        E 5 e0 2b 55
        E 6 e0 2b 55
        E 5 e0 2b 55
        E 5 e0 2b 55
        E 5 e0 2b 55
        E 5 e0 2b 55
        E 5 e0 2b 55
        E 5 e0 2b 55
        E 6 e0 2b 55
        E 5 e0 2b 55
        E 5 e0 2b 55
        E 5 e0 2b 55
        E 5 e0 2b 55
        E 5 e0 2b 55
        E 5 e0 2b 55
        E 6 e0 2b 55
        E 5 e0 2b 55
        E 0 90 1b 00
        E 449 e0 2b 55
        E 0 90 1b 31
        E 6 e0 00 40
        E 5 e0 00 40
        E 5 e0 00 40
        E 6 e0 00 40
        E 5 e0 00 40
        E 6 e0 00 40
        E 5 e0 55 4a
        E 5 e0 55 4a
        E 6 e0 55 4a
        E 5 e0 55 4a
        E 6 e0 55 4a
        E 5 e0 55 4a
        E 5 e0 55 4a
        E 6 e0 2b 55
        E 5 e0 2b 55
        E 6 e0 2b 55
        E 5 e0 2b 55
        E 0 90 1b 00
        E 527 e0 2b 55
        E 0 90 1b 2c
        E 5 e0 2b 55
        E 6 e0 2b 55
        E 6 e0 2b 55
        E 5 e0 2b 55
        E 6 e0 2b 55
        E 5 e0 2b 55
        E 6 e0 2b 55
        E 5 e0 2b 55
        E 6 e0 2b 55
        E 6 e0 2b 55
        E 5 e0 2b 55
        E 0 90 1b 00
        E 240 e0 55 4a
        E 0 90 4c 45
        E 6 e0 55 4a
        E 5 e0 55 4a
        E 5 e0 2b 55
        E 6 e0 2b 55
        E 5 e0 55 4a
        E 6 e0 55 4a
        E 5 e0 55 4a
        E 6 e0 55 4a
        E 5 e0 55 4a
        E 5 e0 55 4a
        E 6 e0 2b 55
        E 5 e0 2b 55
        E 6 e0 2b 55
        E 5 e0 2b 55
        E 5 e0 2b 55
        E 6 e0 2b 55
        E 5 e0 55 4a
        E 0 90 4b 53
        E 0 90 4c 00
        E 6 e0 55 4a
        E 5 e0 55 4a
        E 6 e0 55 4a
        E 5 e0 55 4a
        E 6 e0 55 4a
        E 5 e0 55 4a
        E 6 e0 55 4a
        E 5 e0 55 4a
        E 5 e0 55 4a
        E 6 e0 55 4a
        E 5 e0 55 4a
        E 6 e0 55 4a
        E 5 e0 55 4a
        E 6 e0 55 4a
        E 0 90 4b 00
        E 0 90 4b 42
        E 5 e0 55 4a
        E 6 e0 55 4a
        E 5 e0 55 4a
        E 6 e0 55 4a
        E 5 e0 55 4a
        E 6 e0 55 6a
        E 5 e0 55 4a
        E 6 e0 55 4a
        E 5 e0 55 4a
        E 6 e0 55 4a
        E 5 e0 55 4a
        E 6 e0 55 4a
        E 5 e0 55 4a
        E 0 90 4b 00
        E 0 90 4b 59
        E 6 e0 55 4a
        E 5 e0 55 4a
        E 6 e0 55 4a
        E 5 e0 55 4a
        E 6 e0 55 4a
        E 6 e0 55 4a
        E 5 e0 55 4a
        E 6 e0 55 4a
        E 5 e0 55 4a
        E 6 e0 55 4a
        E 5 e0 55 4a
        E 6 e0 55 4a
        E 0 90 4b 00
        E 0 90 4b 40
        E 102 90 47 53
        E 21 90 4b 00
        E 0 90 4c 32
        E 10 90 4a 43
        E 51 90 4c 00
        E 16 90 4a 00
        E 5 90 47 00
        E 0 90 48 48
        E 71 90 51 24
        E 5 90 2d 5c
        E 0 90 39 2c
        E 0 90 45 3f
        E 11 90 48 00
        E 56 90 51 00
        E 15 90 2d 00
        E 0 90 2d 5b
        E 0 90 34 4c
        E 56 90 45 00
        E 21 90 2d 00
        E 0 90 2d 45
        E 0 90 39 00
        E 0 90 39 47
        E 71 90 3c 4b
        E 72 90 34 00
        E 0 90 34 3c
        E 0 90 40 3f
        E 61 90 34 00
        E 5 90 28 2a
        E 5 90 45 51
        E 36 90 2d 00
        E 0 90 40 00
        E 5 90 3c 00
        E 5 90 39 00
        E 21 90 28 00
        E 0 90 28 55
        E 0 90 34 40
        E 5 90 3b 28
        E 0 90 47 38
        E 35 90 45 00
        E 31 90 3b 00
        E 10 90 34 00
        E 0 90 34 40
        E 77 90 38 54
        E 62 90 40 3e
        E 0 90 47 00
        E 76 90 38 00
        E 0 90 38 3c
        E 0 90 44 4d
        E 77 90 47 48
        E 56 90 40 00
        E 21 90 28 00
        E 0 90 2d 54
        E 0 90 34 00
        E 5 90 44 00
        E 0 90 47 00
        E 0 90 48 41
        E 41 90 38 00
        E 35 90 34 48
        E 77 90 39 42
        E 0 90 48 00
        E 5 90 2d 00
        E 0 90 2d 44
        E 82 90 34 00
        E 0 90 34 3b
        E 0 90 40 39
        E 71 90 4c 4c
        E 77 90 4b 3e
        E 0 90 4c 00
        E 20 90 40 00
        E 62 90 4b 00
        E 0 90 4b 2e
        E 66 90 4b 00
        E 0 90 4b 4c
        E 72 90 4b 00
        E 0 90 4c 39
        E 46 90 2d 00
        E 0 90 39 00
        E 26 90 47 44
        E 0 90 4c 00
        E 66 90 4a 3b
        E 36 90 4c 24
        E 10 90 47 00
        E 16 90 4a 00
        E 10 90 48 43
        E 15 90 34 00
        E 20 90 4c 00
        E 36 90 2d 51
        E 5 90 39 37
        E 0 90 45 3c
        E 5 90 48 00
        E 72 90 34 40
        E 41 90 45 00
        E 36 90 39 00
        E 0 90 39 4e
        E 5 90 2d 00
        E 0 90 2d 43
        E 61 90 3c 47
        E 72 90 34 00
        E 0 90 34 2b
        E 5 90 40 41
        E 66 90 28 2b
        E 5 90 39 00
        E 0 90 39 3a
        E 0 90 45 4e
        E 46 90 3c 00
        E 5 90 2d 00
        E 5 90 40 00
        E 16 90 28 00
        E 0 90 28 53
        E 0 90 34 00
        E 0 90 34 47
        E 5 90 47 3a
        E 5 90 39 00
        E 10 90 45 00
        E 67 90 34 00
        E 0 90 34 49
        E 77 90 38 4e
        E 35 90 47 00
        E 46 90 34 00
        E 0 90 34 3b
        E 0 90 40 41
        E 82 90 48 47
        E 77 90 40 00
        E 5 90 47 33
        E 0 90 48 00
        E 87 90 47 00
        E 5 90 2d 53
        E 0 90 34 00
        E 0 90 38 00
        E 0 90 39 35
        E 0 90 45 3e
        E 71 90 28 00
        E 26 90 45 00
        E 15 90 34 49
        E 113 90 34 00
        E 0 90 34 44
        E 0 90 39 00
        E 0 90 39 52
        E 5 90 2d 00
        E 0 90 2d 44
        E 230 90 4c 42
        E 72 90 34 00
        E 5 90 4c 00
        E 5 90 4b 42
        E 61 90 2d 00
        E 0 90 39 00
        E 10 e0 55 4a
        E 0 90 4b 00
        E 0 90 4c 32
        E 6 e0 55 4a
        E 5 e0 55 4a
        E 6 e0 55 4a
        E 6 e0 55 4a
        E 5 e0 55 4a
        E 6 e0 55 4a
        E 5 e0 55 2a
        E 6 e0 55 2a
        E 5 e0 55 2a
        E 6 e0 55 4a
        E 5 e0 55 4a
        E 6 e0 55 4a
        E 0 90 4c 00
        E 10 e0 55 4a
        E 0 90 4b 50
        E 6 e0 55 4a
        E 5 e0 55 4a
        E 5 e0 55 4a
        E 6 e0 55 4a
        E 5 e0 55 4a
        E 6 e0 55 4a
        E 5 e0 55 4a
        E 6 e0 55 4a
        E 5 e0 55 4a
        E 6 e0 55 4a
        E 5 e0 55 4a
        E 6 e0 55 4a
        E 5 e0 55 4a
        E 6 e0 55 4a
        E 0 90 4b 00
        E 0 90 4b 3c
        E 56 90 34 3a
        E 10 90 47 4f
        E 41 90 4b 00
        E 26 90 4a 4a
        E 51 90 47 00
        E 20 90 48 44
        E 5 90 4a 00
        E 10 90 34 00
        E 57 90 2d 49
        E 5 90 39 2b
        E 0 90 45 37
        E 10 90 48 00
        E 66 90 34 3e
        E 10 90 39 00
        E 0 90 39 3d
        E 77 90 39 00
        E 0 90 39 4f
        E 0 90 45 00
        E 72 90 3c 4b
        E 71 90 40 42
        E 62 90 34 00
        E 5 90 39 00
        E 0 90 39 41
        E 0 90 45 56
        E 36 90 3c 00
        E 15 90 2d 00
        E 0 90 40 00
        E 21 90 28 56
        E 0 90 34 43
        E 5 90 39 00
        E 0 90 3b 20
        E 0 90 47 33
        E 10 90 45 00
        E 56 90 3b 00
        E 10 90 34 00
        E 0 90 34 45
        E 82 90 38 55
        E 61 90 47 00
        E 16 90 40 47
        E 0 90 4c 2e
        E 71 90 38 00
        E 0 90 38 3c
        E 0 90 4c 00
        E 5 90 44 4a
        E 67 90 34 00
        E 0 90 34 3c
        E 0 90 47 4a
        E 46 90 40 00
        E 36 90 34 00
        E 0 90 47 00
        E 0 90 48 42
        E 5 90 28 00
        E 5 90 44 00
        E 15 90 2d 56
        E 31 90 38 00
        E 30 90 2d 00
        E 0 90 2d 45
        E 5 90 34 54
        E 72 90 48 00
        E 10 90 39 46
        E 82 90 40 3c
        E 5 90 34 00
        E 0 90 34 4b
        E 0 90 39 00
        E 0 90 39 3f
        E 67 90 34 00
        E 0 90 34 37
        E 0 90 4c 44
        E 77 90 4b 3c
        E 0 90 4c 00
        E 5 90 40 00
        E 71 90 4b 00
        E 0 90 4c 36
        E 67 90 4c 00
        E 10 90 4b 4d
        E 56 90 2d 00
        E 5 90 4b 00
        E 0 90 4c 39
        E 77 90 47 4a
        E 5 90 39 00
        E 56 90 4c 00
        E 15 90 4a 40
        E 41 90 47 00
        E 26 90 48 47
        E 46 90 34 00
        E 0 90 4a 00
        E 30 90 39 31
        E 0 90 45 46
        E 6 90 2d 5a
        E 0 90 48 00
        E 71 90 45 00
        E 5 90 2d 00
        E 0 90 2d 4b
        E 0 90 34 3b
        E 82 90 39 00
        E 0 90 39 47
        E 77 90 3c 49
        E 72 90 40 44
        E 71 90 28 38
        E 5 90 45 4c
        E 41 90 3c 00
        E 10 90 2d 00
        E 5 90 40 00
        E 11 90 39 00
        E 0 90 47 33
        E 5 90 28 00
        E 0 90 28 59
        E 0 90 34 00
        E 0 90 34 44
        E 36 90 45 00
        E 35 90 28 00
        E 0 90 28 4f
        E 5 90 34 00
        E 0 90 34 4d
        E 87 90 38 4c
        E 62 90 47 00
        E 15 90 34 00
        E 0 90 34 42
        E 0 90 40 39
        E 77 90 48 45
        E 76 90 40 00
        E 5 90 47 2c
        E 0 90 48 00
        E 72 90 47 00
        E 5 90 38 00
        E 5 90 45 42
        E 5 90 39 32
        E 10 90 34 00
        E 21 90 28 00
        E 10 90 2d 48
        E 36 90 45 00
        E 15 90 34 51
        E 92 90 39 00
        E 0 90 39 31
        E 0 90 45 26
        E 62 90 34 00
        E 0 90 34 4b
        E 5 90 47 48
        E 10 90 45 00
        E 67 90 47 00
        E 0 90 48 3b
        E 76 90 4a 44
        E 10 90 2d 00
        E 57 90 48 00
        E 10 90 4c 2f
        E 5 90 4a 00
        E 10 90 34 00
        E 0 90 58 2c
        E 5 90 3c 32
        E 16 90 30 5d
        E 15 90 39 00
        E 25 90 4c 00
        E 21 90 30 00
        E 0 90 30 54
        E 0 90 37 48
        E 0 90 58 00
        E 71 90 3c 00
        E 0 90 3c 45
        E 87 90 43 39
        E 72 90 3c 00
        E 0 90 4d 3c
        E 82 90 2b 39
        E 10 90 43 00
        E 20 90 4d 00
        E 36 90 2b 00
        E 5 90 2b 5c
        E 0 90 37 00
        E 0 90 37 30
        E 5 90 4a 41
        E 21 90 30 00
        E 51 90 37 00
        E 0 90 37 41
        E 10 90 2b 00
        E 0 90 2b 47
        E 15 90 4a 00
        E 47 90 3b 4f
        E 51 90 1f 31
        E 36 90 41 3e
        E 76 90 4c 32
        E 21 90 1f 00
        E 15 90 37 00
        E 36 90 4c 00
        E 5 90 41 00
        E 46 90 2b 00
        E 36 90 2d 4f
        E 5 90 48 39
        E 5 90 3b 00
        E 71 90 34 4b
        E 82 90 48 00
        E 5 90 39 44
        E 77 90 34 00
        E 0 90 34 38
        E 5 90 40 3a
        E 71 90 4a 47
        E 77 90 40 00
        E 5 90 48 44
        E 0 90 4a 00
        E 10 90 28 43
        E 51 90 2d 00
        E 6 90 39 00
        E 10 90 34 00
        E 0 90 34 3c
        E 0 90 48 00
        E 5 90 3b 2e
        E 0 90 47 2e
        E 31 90 28 00
        E 0 90 28 46
        E 46 90 34 00
        E 0 90 34 4a
        E 5 90 3b 00
        E 5 90 47 00
        E 82 90 4c 24
        E 5 90 40 42
        E 77 90 40 00
        E 0 90 40 43
        E 0 90 4c 00
        E 0 90 4c 38
        E 81 90 4c 00
        E 0 90 4c 3f
        E 72 90 40 00
        E 0 90 40 46
        E 5 90 34 00
        E 0 90 34 32
        E 36 90 4c 00
        E 51 90 3b 2d
        E 5 90 4c 28
        E 56 90 3b 00
        E 36 90 4c 00
        E 0 90 4c 33
        E 97 90 40 00
        E 5 90 58 39
        E 87 90 4b 3c
        E 0 90 4c 00
        E 87 90 4b 00
        E 0 90 4c 44
        E 82 90 3b 26
        E 0 90 58 00
        E 5 90 4b 43
        E 0 90 4c 00
        E 67 90 28 00
        E 5 90 3b 00
        E 5 90 3b 36
        E 5 90 4b 00
        E 0 90 4b 34
        E 0 90 58 37
        E 31 90 34 00
        E 35 90 4b 00
        E 0 90 4b 59
        E 0 90 58 00
        E 21 90 34 29
        E 56 90 4b 00
        E 0 90 4c 48
        E 77 90 4b 52
        E 0 90 4c 00
        E 76 90 4b 00
        E 0 90 4b 44
        E 36 90 34 00
        E 31 90 4b 00
        E 0 90 4b 63
        E 66 90 3b 00
        E 0 90 3b 37
        E 0 90 4b 00
        E 0 90 4b 56
        E 72 90 4b 00
        E 0 90 4b 5e
        E 81 90 4b 00
        E 0 90 4b 3d
        E 72 90 3b 00
        E 0 90 3b 38
        E 5 90 47 4f
        E 56 90 4b 00
        E 21 90 4a 40
        E 46 90 47 00
        E 15 90 4a 00
        E 6 90 48 45
        E 10 90 3b 00
        E 51 90 2d 4d
        E 10 90 39 2f
        E 0 90 45 36
        E 0 90 51 28
        E 26 90 48 00
        E 51 90 51 00
        E 5 90 34 40
        E 76 90 39 00
        E 0 90 39 4d
        E 11 90 45 00
        E 66 90 3c 4b
        E 72 90 40 3a
        E 56 90 34 00
        E 10 90 28 2b
        E 0 90 39 00
        E 0 90 39 3d
        E 5 90 45 54
        E 36 90 2d 00
        E 5 90 3c 00
        E 0 90 40 00
        E 26 90 34 49
        E 5 90 28 00
        E 0 90 28 54
        E 0 90 3b 26
        E 0 90 47 37
        E 10 90 39 00
        E 0 90 45 00
        E 61 90 34 00
        E 0 90 34 37
        E 15 90 3b 00
        E 72 90 38 55
        E 5 90 3b 30
        E 67 90 40 47
        E 10 90 47 00
        E 10 90 3b 00
        E 51 90 38 00
        E 0 90 38 3e
        E 0 90 44 4a
        E 67 90 47 4c
        E 41 90 40 00
        E 25 90 2d 4e
        E 16 90 34 00
        E 0 90 47 00
        E 0 90 48 40
        E 20 90 28 00
        E 10 90 44 00
        E 21 90 2d 00
        E 0 90 2d 47
        E 0 90 38 00
        E 36 90 34 46
        E 15 90 39 2f
        E 61 90 39 00
        E 0 90 48 00
        E 5 90 39 41
        E 82 90 34 00
        E 0 90 34 3a
        E 0 90 40 36
        E 77 90 4c 3d
        E 66 90 4c 00
        E 10 90 4b 43
        E 87 90 4b 00
        E 0 90 4b 31
        E 46 90 40 00
        E 21 90 4b 00
        E 0 90 4b 4c
        E 76 90 4b 00
        E 0 90 4b 31
        E 36 90 2d 00
        E 31 90 39 00
        E 0 90 47 48
        E 15 90 4b 00
        E 52 90 4a 45
        E 51 90 47 00
        E 25 90 48 48
        E 41 90 34 00
        E 10 90 4a 00
        E 26 90 39 36
        E 0 90 45 3e
        E 5 90 2d 56
        E 5 90 48 00
        E 66 90 34 42
        E 21 90 45 00
        E 61 90 39 00
        E 0 90 39 4d
        E 0 90 45 23
        E 5 90 2d 00
        E 0 90 2d 3f
        E 62 90 3c 47
        E 20 90 45 00
        E 61 90 40 3c
        E 67 90 34 00
        E 5 90 28 32
        E 5 90 39 00
        E 0 90 39 3b
        E 0 90 45 3b
        E 31 90 3c 00
        E 10 90 40 00
        E 5 90 2d 00
        E 15 90 28 00
        E 0 90 28 55
        E 5 90 34 3e
        E 5 90 47 38
        E 6 90 39 00
        E 71 90 34 00
        E 0 90 34 46
        E 26 90 47 00
        E 30 90 45 00
        E 31 90 38 4b
        E 67 90 34 00
        E 0 90 34 3a
        E 0 90 40 3f
        E 77 90 48 44
        E 81 90 47 33
        E 0 90 48 00
        E 10 90 40 00
        E 77 90 38 00
        E 0 90 39 35
        E 0 90 45 36
        E 5 90 47 00
        E 10 90 34 00
        E 11 90 28 00
        E 10 90 2d 4c
        E 71 90 34 4c
        E 62 90 45 00
        E 25 90 39 00
        E 0 90 39 43
        E 77 90 34 00
        E 0 90 34 49
        E 0 90 47 44
        E 76 90 47 00
        E 0 90 48 40
        E 77 90 4a 39
        E 36 90 48 00
        E 10 90 39 00
        E 10 90 2d 00
        E 11 90 34 00
        E 10 90 4c 34
        E 0 90 58 32
        E 5 90 3c 34
        E 20 90 30 62
        E 26 90 4a 00
        E 36 90 37 54
        E 5 90 30 00
        E 0 90 30 58
        E 15 90 58 00
        E 36 90 4c 00
        E 21 90 3c 00
        E 0 90 3c 4a
        E 76 90 37 00
        E 0 90 37 40
        E 0 90 43 3d
        E 5 90 30 00
        E 0 90 30 50
        E 0 90 3c 00
        E 0 90 3c 37
        E 67 90 4d 42
        E 10 90 30 00
        E 0 90 30 4c
        E 46 90 3c 00
        E 21 90 4c 2e
        E 0 90 4d 00
        E 46 90 43 00
        E 20 90 4c 00
        E 10 90 2b 5f
        E 0 90 37 00
        E 0 90 37 39
        E 0 90 4a 3e
        E 5 90 30 00
        E 72 90 2b 00
        E 0 90 2b 48
        E 0 90 37 00
        E 0 90 37 3d
        E 56 90 4a 00
        E 26 90 3b 51
        E 45 90 4a 29
        E 31 90 41 37
        E 46 90 4a 00
        E 31 90 4c 34
        E 10 90 37 00
        E 56 90 37 3b
        E 0 90 4c 00
        E 10 90 4a 44
        E 36 90 41 00
        E 21 90 2b 00
        E 10 90 37 00
        E 0 90 4a 00
        E 10 90 48 3b
        E 10 90 3b 00
        E 10 90 2d 56
        E 57 90 34 47
        E 5 90 2d 00
        E 0 90 2d 4b
        E 62 90 48 00
        E 25 90 39 45
        E 77 90 40 37
        E 5 90 34 00
        E 0 90 34 39
        E 71 90 4a 3a
        E 72 90 40 00
        E 5 90 48 45
        E 10 90 28 4d
        E 21 90 2d 00
        E 10 90 4a 00
        E 10 90 39 00
        E 21 90 34 00
        E 0 90 34 40
        E 5 90 3b 28
        E 0 90 47 3a
        E 0 90 48 00
        E 25 90 28 00
        E 0 90 28 45
        E 51 90 34 00
        E 0 90 34 4d
        E 5 90 3b 00
        E 21 90 47 00
        E 66 90 34 00
        E 0 90 34 3d
        E 5 90 40 53
        E 77 90 40 00
        E 0 90 40 55
        E 0 90 4c 24
        E 71 90 4c 00
        E 6 90 4c 32
        E 76 90 40 00
        E 0 90 40 43
        E 88 90 4c 00
        E 0 90 4c 3a
        E 30 90 3b 27
        E 51 90 4c 00
        E 0 90 4c 34
        E 16 90 3b 00
        E 81 90 58 35
        E 57 90 40 00
        E 25 90 4b 39
        E 0 90 4c 00
        E 87 90 4b 00
        E 5 90 4c 4f
        E 5 90 3b 34
        E 26 90 34 00
        E 0 90 34 34
        E 0 90 58 00
        E 0 90 58 42
        E 61 90 4b 58
        E 0 90 4c 00
        E 10 90 58 00
        E 46 90 28 00
        E 21 90 4b 00
        E 0 90 4b 3d
        E 66 90 3b 00
        E 5 90 3b 32
        E 0 90 4b 00
        E 0 90 4b 56
        E 77 90 34 00
        E 0 90 34 2e
        E 0 90 4b 00
        E 0 90 4c 50
        E 76 90 4c 00
        E 0 90 4c 4e
        E 77 90 4b 42
        E 0 90 4c 00
        E 52 90 34 00
        E 10 90 4b 00
        E 0 90 4b 61
        E 71 90 4b 00
        E 0 90 4b 5a
        E 77 90 3b 00
        E 0 90 3b 2a
        E 0 90 4b 00
        E 0 90 4b 62
        E 77 90 4b 00
        E 0 90 4c 3c
        E 81 90 3b 00
        E 0 90 3b 3c
        E 0 90 47 50
        E 72 90 4a 3e
        E 0 90 4c 00
        E 46 90 3b 00
        E 10 90 47 00
        E 15 90 48 46
        E 52 90 4a 00
        E 20 90 2d 5a
        E 5 90 39 31
        E 5 90 48 00
        E 77 90 34 4a
        E 76 90 2d 00
        E 0 90 2d 45
        E 6 90 39 00
        E 0 90 39 4a
        E 61 90 3c 4b
        E 77 90 40 4b
        E 5 90 34 00
        E 0 90 34 35
        E 61 90 28 3e
        E 0 90 34 00
        E 0 90 39 00
        E 0 90 39 3a
        E 0 90 45 52
        E 52 90 3c 00
        E 5 90 2d 00
        E 10 90 40 00
        E 10 90 34 45
        E 5 90 47 32
        E 21 90 28 00
        E 0 90 28 52
        E 0 90 45 00
        E 5 90 39 00
        E 51 90 34 00
        E 0 90 34 48
        E 87 90 38 51
        E 61 90 47 00
        E 10 90 40 41
        E 5 90 34 00
        E 0 90 34 33
        E 67 90 38 00
        E 0 90 38 36
        E 0 90 44 53
        E 76 90 3b 2d
        E 0 90 47 46
        E 41 90 40 00
        E 26 90 34 00
        E 0 90 3b 00
        E 15 90 47 00
        E 0 90 48 3f
        E 15 90 44 00
        E 6 90 28 00
        E 10 90 2d 54
        E 20 90 38 00
        E 36 90 34 4a
        E 66 90 48 00
        E 11 90 39 45
        E 81 90 2d 00
        E 0 90 2d 42
        E 0 90 34 00
        E 0 90 34 36
        E 0 90 40 40
        E 0 90 4c 1f
        E 67 90 4c 00
        E 0 90 4c 48
        E 5 90 40 00
        E 0 90 40 39
        E 77 90 4b 3f
        E 0 90 4c 00
        E 26 90 40 00
        E 51 90 4b 00
        E 0 90 4c 37
        E 71 90 4c 00
        E 5 90 4b 43
        E 36 90 39 00
        E 31 90 4b 00
        E 0 90 4c 3f
        E 61 90 2d 00
        E 15 90 47 46
        E 77 90 4a 3e
        E 0 90 4c 00
        E 51 90 47 00
        E 26 90 48 42
        E 30 90 34 00
        E 16 90 4a 00
        E 30 90 2d 56
        E 0 90 39 2e
        E 0 90 45 41
        E 15 90 48 00
        E 62 90 34 3d
        E 71 90 45 00
        E 11 90 2d 00
        E 0 90 2d 42
        E 0 90 39 00
        E 0 90 39 4b
        E 66 90 3c 4b
        E 72 90 34 00
        E 0 90 34 34
        E 0 90 40 44
        E 72 90 34 00
        E 0 90 45 52
        E 5 90 28 3a
        E 0 90 39 00
        E 0 90 39 3b
        E 35 90 3c 00
        E 6 90 2d 00
        E 10 90 40 00
        E 10 90 28 00
        E 0 90 28 58
        E 5 90 39 00
        E 5 90 34 3f
        E 0 90 3b 26
        E 0 90 47 37
        E 21 90 45 00
        E 56 90 34 00
        E 0 90 34 43
        E 15 90 3b 00
        E 67 90 38 4c
        E 61 90 47 00
        E 15 90 40 32
        E 0 90 4c 2b
        E 77 90 44 29
        E 0 90 48 46
        E 15 90 4c 00
        E 46 90 40 00
        E 20 90 44 00
        E 0 90 47 2d
        E 0 90 48 00
        E 77 90 47 00
        E 10 90 38 00
        E 0 90 39 36
        E 0 90 45 3b
        E 16 90 28 00
        E 5 90 2d 53
        E 5 90 34 00
        E 66 90 34 51
        E 98 90 45 00
        E 5 90 34 00
        E 0 90 34 4a
        E 0 90 39 00
        E 0 90 39 48
        E 199 90 2d 00
        E 0 90 2d 36
        E 5 90 3c 49
        E 0 90 40 41
        E 0 90 48 32
        E 5 90 34 00
        E 0 90 34 2f
        E 0 90 39 00
        E 0 90 3a 2f
        E 82 90 3a 00
        E 21 90 40 00
        E 0 90 41 3d
        E 5 90 39 4b
        E 0 90 3c 00
        E 0 90 3c 49
        E 25 90 48 00
        E 36 90 34 00
        E 20 90 2d 00
        E 11 90 41 00
        E 5 90 3c 00
        E 0 90 3c 3b
        E 0 90 40 3f
        E 5 90 37 3d
        E 0 90 39 00
        E 0 90 3a 2c
        E 66 90 3a 00
        E 11 90 40 00
        E 0 90 41 37
        E 30 90 37 00
        E 5 90 3c 00
        E 5 90 39 25
        E 0 90 45 41
        E 16 90 35 4d
        E 30 90 48 3b
        E 21 90 41 00
        E 41 90 39 00
        E 0 90 39 54
        E 0 90 45 00
        E 56 90 48 00
        E 31 90 3c 52
        E 81 90 39 00
        E 0 90 39 58
        E 83 90 3c 00
        E 0 90 3c 47
        E 5 90 39 00
        E 0 90 39 53
        E 0 90 4d 3f
        E 81 90 39 00
        E 0 90 39 55
        E 11 90 4d 00
        E 56 90 3c 00
        E 20 90 35 00
        E 0 90 35 4a
        E 0 90 3c 2a
        E 0 90 4c 32
        E 0 90 58 35
        E 5 90 39 00
        E 0 90 39 42
        E 62 90 3c 00
        E 10 90 58 00
        E 10 90 4c 00
        E 5 90 39 00
        E 0 90 3a 4b
        E 77 90 4a 27
        E 15 90 3e 54
        E 87 90 4a 00
        E 36 90 3a 00
        E 0 90 3a 42
        E 51 90 3e 00
        E 0 90 3e 4c
        E 20 90 52 45
        E 62 90 3a 00
        E 0 90 3a 44
        E 5 90 35 00
        E 0 90 35 46
        E 15 90 52 00
        E 61 90 35 00
        E 0 90 35 5e
        E 5 90 51 30
        E 16 90 3e 00
        E 41 90 3a 00
        E 30 90 35 00
        E 0 90 35 48
        E 0 90 40 46
        E 0 90 4f 40
        E 16 90 51 00
        E 56 90 4f 00
        E 5 90 35 00
        E 0 90 35 38
        E 0 90 37 49
        E 0 90 3a 3c
        E 16 90 40 00
        E 0 90 40 3e
        E 76 90 40 00
        E 0 90 40 4b
        E 87 90 3a 00
        E 0 90 3a 3f
        E 5 90 37 00
        E 0 90 37 44
        E 5 90 35 00
        E 0 90 35 39
        E 82 90 35 00
        E 0 90 35 39
        E 0 90 48 3f
        E 5 90 3a 00
        E 0 90 3a 36
        E 0 90 40 00
        E 0 90 40 46
        E 72 90 37 00
        E 0 90 3a 00
        E 0 90 40 00
        E 10 90 35 00
        E 0 90 35 41
        E 5 90 46 49
        E 0 90 48 00
        E 87 90 39 56
        E 87 90 39 00
        E 0 90 39 54
        E 5 90 3c 4d
        E 5 90 46 00
        E 0 90 46 2f
        E 82 90 39 00
        E 0 90 39 5a
        E 30 90 46 00
        E 0 90 46 34
        E 46 90 39 00
        E 0 90 39 49
        E 41 90 43 42
        E 5 90 3c 00
        E 0 90 3c 39
        E 41 90 39 00
        E 0 90 39 3c
        E 21 90 35 00
        E 31 90 3c 00
        E 25 90 35 44
        E 6 90 43 00
        E 15 90 46 00
        E 0 90 48 3f
        E 82 90 39 00
        E 0 90 39 55
        E 40 90 48 00
        E 36 90 3c 5f
        E 82 90 39 00
        E 0 90 39 51
        E 0 90 3c 00
        E 0 90 3c 4f
        E 87 90 3c 00
        E 0 90 3c 41
        E 5 90 4a 43
        E 71 90 4a 00
        E 11 90 4b 3b
        E 5 90 39 00
        E 0 90 39 4a
        E 30 90 35 00
        E 26 90 3c 00
        E 10 90 4b 00
        E 21 90 34 4a
        E 0 90 4c 42
        E 10 90 58 37
        E 71 90 58 00
        E 11 90 39 00
        E 0 90 39 58
        E 5 90 4c 00
        E 81 90 3c 4c
        E 82 90 34 00
        E 0 90 34 32
        E 5 90 39 00
        E 0 90 39 4e
        E 56 90 34 00
        E 6 90 3c 00
        E 10 90 26 20
        E 0 90 4d 42
        E 5 90 59 33
        E 6 90 3e 43
        E 0 90 60 33
        E 5 90 39 00
        E 15 90 32 4f
        E 46 90 59 00
        E 0 90 60 00
        E 10 90 26 00
        E 5 90 32 00
        E 0 90 32 45
        E 0 90 35 47
        E 0 90 45 45
        E 67 90 4d 00
        E 5 90 3e 00
        E 5 90 45 00
        E 10 90 37 58
        E 0 90 43 2d
        E 5 90 32 00
        E 5 90 35 00
        E 0 90 48 42
        E 87 90 40 4f
        E 26 90 43 00
        E 61 90 37 00
        E 0 90 37 5a
        E 92 90 40 00
        E 0 90 41 43
        E 10 90 48 00
        E 82 90 37 00
        E 0 90 37 4c
        E 0 90 43 31
        E 0 90 4a 3c
        E 87 90 41 00
        E 0 90 41 42
        E 30 90 43 00
        E 0 90 47 4e
        E 57 90 4a 00
        E 5 90 3c 4a
        E 0 90 47 00
        E 5 90 40 3d
        E 0 90 41 00
        E 15 90 48 36
        E 21 90 37 00
        E 20 90 4f 2b
        E 20 90 48 00
        E 21 90 3c 00
        E 0 90 43 4b
        E 25 90 40 00
        E 21 90 4f 00
        E 0 90 4f 3a
        E 41 90 43 00
        E 5 90 45 53
        E 51 90 4f 00
        E 0 90 4f 2a
        E 16 90 45 00
        E 20 90 41 36
        E 0 90 43 47
        E 5 90 47 46
        E 57 90 41 00
        E 0 90 4f 00
        E 0 90 4f 31
        E 10 90 47 00
        E 30 90 40 4a
        E 0 90 43 00
        E 0 90 43 4b
        E 6 90 48 40
        E 76 90 40 00
        E 0 90 48 00
        E 15 90 4f 00
        E 6 90 3e 4a
        E 0 90 43 00
        E 0 90 43 4b
        E 0 90 4a 2f
        E 66 90 4a 00
        E 10 90 3e 00
        E 26 90 3c 4f
        E 0 90 40 48
        E 0 90 4c 38
        E 0 90 4f 21
        E 51 90 43 00
        E 20 90 4c 00
        E 0 90 4f 00
        E 92 90 3c 00
        E 16 90 40 00
        E 15 90 35 50
        E 0 90 39 4c
        E 194 90 35 00
        E 0 90 39 00
        E 5 90 3b 52
        E 5 90 37 48
        E 210 90 40 3c
        E 5 90 3b 00
        E 0 90 3c 4c
        E 56 90 4f 32
        E 36 90 3c 00
        E 16 90 43 4d
        E 20 90 40 00
        E 26 90 37 00
        E 5 90 4f 00
        E 0 90 4f 42
        E 41 90 43 00
        E 5 90 45 50
        E 56 90 4f 00
        E 0 90 4f 42
        E 15 90 45 00
        E 31 90 41 35
        E 0 90 47 40
        E 5 90 43 49
        E 56 90 41 00
        E 0 90 4f 00
        E 0 90 4f 34
        E 21 90 47 00
        E 20 90 40 46
        E 5 90 43 00
        E 0 90 43 4a
        E 0 90 48 49
        E 72 90 40 00
        E 10 90 48 00
        E 15 90 3e 43
        E 0 90 43 00
        E 0 90 43 48
        E 5 90 4f 00
        E 67 90 3e 00
        E 30 90 43 00
        E 5 90 3c 59
        E 0 90 40 4c
        E 0 90 4c 38
        E 83 90 4c 00
        E 87 90 40 00
        E 20 90 3c 00
        E 10 90 35 50
        E 5 90 39 4b
        E 194 90 35 00
        E 0 90 39 00
        E 11 90 37 51
        E 0 90 3b 4d
        E 168 90 4a 2a
        E 62 90 37 00
        E 0 90 38 47
        E 0 90 4a 00
        E 51 90 4d 36
        E 61 90 4d 00
        E 138 90 4c 32
        E 5 90 3b 00
        E 0 90 3b 3f
        E 57 90 47 50
        E 5 90 3b 00
        E 0 90 3b 3f
        E 82 90 4c 00
        E 0 90 4c 42
        E 30 90 47 00
        E 41 90 4c 00
        E 10 90 4b 4c
        E 87 90 4b 00
        E 0 90 4c 43
        E 67 90 38 00
        E 25 90 3b 00
        E 0 90 3b 30
        E 5 90 47 54
        E 102 90 4c 00
        E 0 90 4c 4a
        E 36 90 47 00
        E 56 90 3b 00
        E 21 90 4c 00
        E 5 90 4b 56
        E 61 90 3b 33
        E 61 90 3b 00
        E 31 e0 55 4a
        E 0 90 4b 00
        E 0 90 4c 4c
        E 5 e0 55 4a
        E 5 e0 55 4a
        E 5 e0 55 4a
        E 6 e0 55 4a
        E 5 e0 55 4a
        E 5 e0 55 4a
        E 5 e0 55 4a
        E 5 e0 55 4a
        E 5 e0 55 4a
        E 5 e0 55 4a
        E 5 e0 55 4a
        E 6 e0 55 4a
        E 5 e0 55 4a
        E 5 e0 55 4a
        E 5 e0 55 4a
        E 5 e0 55 4a
        E 5 e0 55 4a
        E 5 e0 55 4a
        E 5 e0 55 4a
        E 5 e0 55 4a
        E 6 e0 55 4a
        E 5 e0 55 4a
        E 5 e0 55 4a
        E 5 e0 55 4a
        E 5 e0 55 4a
        E 5 e0 55 4a
        E 5 e0 55 4a
        E 5 e0 55 4a
        E 6 e0 55 4a
        E 5 e0 55 4a
        E 5 e0 55 4a
        E 5 e0 55 4a
        E 5 e0 55 4a
        E 5 e0 55 4a
        E 5 e0 55 4a
        E 5 e0 55 4a
        E 5 e0 55 4a
        E 6 e0 55 4a
        E 5 e0 55 4a
        E 5 e0 55 4a
        E 5 e0 55 4a
        E 5 e0 55 4a
        E 5 e0 55 4a
        E 5 e0 55 4a
        E 5 e0 55 4a
        E 6 e0 55 4a
        E 5 e0 55 4a
        E 5 e0 55 4a
        E 5 e0 55 4a
        E 5 e0 55 4a
        E 5 e0 55 4a
        E 5 e0 55 4a
        E 5 e0 55 4a
        E 5 e0 55 4a
        E 6 e0 55 4a
        E 5 e0 55 4a
        E 5 e0 55 4a
        E 5 e0 55 4a
        E 5 e0 55 4a
        E 5 e0 55 4a
        E 5 e0 55 4a
        E 5 e0 55 4a
        E 0 90 4c 00
        E 246 90 47 48
        E 117 90 4c 4e
        E 153 90 4b 54
        E 0 90 4c 00
        E 103 90 47 00
        E 77 90 4b 00
        E 5 e0 55 4a
        E 0 90 4c 4c
        E 5 e0 55 4a
        E 5 e0 55 4a
        E 5 e0 55 4a
        E 6 e0 55 4a
        E 5 e0 2b 55
        E 5 e0 2b 55
        E 5 e0 2b 55
        E 5 e0 2b 55
        E 5 e0 2b 55
        E 6 e0 55 4a
        E 5 e0 55 4a
        E 5 e0 55 4a
        E 5 e0 55 4a
        E 5 e0 55 4a
        E 6 e0 55 4a
        E 5 e0 55 4a
        E 5 e0 55 4a
        E 5 e0 55 4a
        E 5 e0 55 4a
        E 6 e0 55 4a
        E 5 e0 55 4a
        E 5 e0 55 4a
        E 5 e0 55 4a
        E 5 e0 55 4a
        E 5 e0 55 4a
        E 6 e0 55 4a
        E 5 e0 55 4a
        E 5 e0 55 4a
        E 5 e0 55 4a
        E 5 e0 55 4a
        E 6 e0 55 4a
        E 5 e0 55 4a
        E 5 e0 55 4a
        E 5 e0 55 4a
        E 5 e0 55 4a
        E 6 e0 55 4a
        E 5 e0 55 4a
        E 5 e0 55 4a
        E 5 e0 55 4a
        E 5 e0 55 4a
        E 5 e0 55 4a
        E 6 e0 55 4a
        E 5 e0 55 4a
        E 5 e0 55 4a
        E 5 e0 55 4a
        E 5 e0 55 4a
        E 6 e0 55 4a
        E 5 e0 55 4a
        E 5 e0 55 4a
        E 5 e0 55 4a
        E 5 e0 55 4a
        E 6 e0 55 4a
        E 5 e0 55 4a
        E 5 e0 55 4a
        E 5 e0 55 4a
        E 5 e0 55 4a
        E 5 e0 55 4a
        E 6 e0 55 4a
        E 5 e0 55 4a
        E 5 e0 55 4a
        E 5 e0 55 4a
        E 5 e0 55 4a
        E 6 e0 55 4a
        E 5 e0 55 4a
        E 5 e0 55 4a
        E 0 90 4c 00
        E 266 e0 55 4a
        E 0 90 47 6d
        E 5 e0 55 4a
        E 5 e0 55 4a
        E 6 e0 55 4a
        E 5 e0 55 4a
        E 5 e0 55 4a
        E 6 e0 55 4a
        E 5 e0 55 4a
        E 5 e0 55 4a
        E 6 e0 55 4a
        E 5 e0 55 4a
        E 5 e0 55 4a
        E 6 e0 55 4a
        E 5 e0 55 4a
        E 6 e0 55 4a
        E 5 e0 55 4a
        E 5 e0 55 4a
        E 6 e0 55 4a
        E 5 e0 55 4a
        E 5 e0 55 4a
        E 6 e0 55 4a
        E 5 e0 55 4a
        E 0 90 47 00
        E 0 90 47 48
        E 0 90 4c 4d
        E 92 90 3b 2c
        E 0 90 4b 5b
        E 0 90 4c 00
        E 5 90 47 00
        E 0 90 47 3e
        E 57 90 3b 00
        E 25 90 4b 00
        E 0 90 4b 51
        E 41 90 47 00
        E 31 e0 55 4a
        E 0 90 4b 00
        E 0 90 4b 5d
        E 5 e0 55 4a
        E 6 e0 55 4a
        E 5 e0 55 4a
        E 6 e0 55 4a
        E 5 e0 55 4a
        E 6 e0 55 4a
        E 5 e0 55 4a
        E 6 e0 55 4a
        E 5 e0 55 4a
        E 6 e0 55 4a
        E 5 e0 55 4a
        E 6 e0 55 4a
        E 5 e0 55 4a
        E 0 90 4b 00
        E 0 90 4b 4a
        E 6 e0 55 4a
        E 5 e0 55 4a
        E 6 e0 55 4a
        E 6 e0 55 4a
        E 5 e0 55 4a
        E 6 e0 55 4a
        E 5 e0 55 4a
        E 6 e0 55 4a
        E 5 e0 55 4a
        E 6 e0 55 4a
        E 5 e0 55 4a
        E 6 e0 55 4a
        E 0 90 4b 00
        E 0 90 4b 63
        E 5 e0 55 4a
        E 6 e0 55 4a
        E 5 e0 55 4a
        E 6 e0 55 4a
        E 5 e0 55 4a
        E 6 e0 55 4a
        E 5 e0 55 4a
        E 6 e0 55 4a
        E 5 e0 55 4a
        E 6 e0 55 4a
        E 5 e0 55 4a
        E 6 e0 55 4a
        E 5 e0 55 4a
        E 0 90 4b 00
        E 0 90 4b 53
        E 6 e0 55 4a
        E 5 e0 55 4a
        E 6 e0 55 4a
        E 5 e0 55 4a
        E 6 e0 55 4a
        E 5 e0 55 4a
        E 6 e0 55 4a
        E 5 e0 55 4a
        E 6 e0 55 4a
        E 5 e0 55 4a
        E 6 e0 55 4a
        E 5 e0 55 4a
        E 6 e0 55 4a
        E 0 90 4b 00
        E 0 90 4b 63
        E 5 e0 55 4a
        E 6 e0 55 4a
        E 5 e0 55 4a
        E 6 e0 55 4a
        E 5 e0 55 4a
        E 6 e0 55 4a
        E 6 e0 55 4a
        E 5 e0 55 4a
        E 6 e0 55 4a
        E 5 e0 55 4a
        E 6 e0 55 4a
        E 5 e0 55 4a
        E 0 90 4b 00
        E 0 90 4c 41
        E 6 e0 55 2a
        E 5 e0 55 2a
        E 6 e0 55 2a
        E 5 e0 55 2a
        E 6 e0 55 2a
        E 5 e0 55 2a
        E 6 e0 55 4a
        E 5 e0 55 4a
        E 6 e0 55 2a
        E 5 e0 55 2a
        E 6 e0 55 4a
        E 5 e0 55 4a
        E 6 e0 2b 55
        E 0 90 4b 63
        E 0 90 4c 00
        E 5 e0 2b 55
        E 6 e0 55 4a
        E 5 e0 55 4a
        E 6 e0 55 4a
        E 5 e0 55 4a
        E 6 e0 55 4a
        E 5 e0 55 4a
        E 6 e0 55 4a
        E 5 e0 55 4a
        E 6 e0 55 4a
        E 5 e0 55 4a
        E 6 e0 55 4a
        E 5 e0 55 4a
        E 0 90 4b 00
        E 0 90 4c 43
        E 87 90 47 55
        E 67 90 4c 00
        E 5 90 4a 4b
        E 56 90 47 00
        E 10 90 48 4c
        E 15 90 4a 00
        E 52 90 2d 48
        E 5 90 39 32
        E 0 90 45 4c
        E 5 90 48 00
        E 67 90 34 3d
        E 66 90 45 00
        E 10 90 39 00
        E 0 90 39 45
        E 67 90 3c 47
        E 66 90 40 42
        E 41 90 34 00
        E 25 90 28 33
        E 6 90 45 56
        E 40 90 2d 00
        E 6 90 3c 00
        E 0 90 40 00
        E 5 90 39 00
        E 5 90 28 00
        E 0 90 28 55
        E 10 90 34 45
        E 0 90 47 36
        E 20 90 45 00
        E 52 90 34 00
        E 0 90 34 3f
        E 81 90 38 56
        E 62 90 47 00
        E 10 90 34 00
        E 0 90 34 38
        E 0 90 40 47
        E 76 90 38 00
        E 0 90 38 3f
        E 0 90 44 53
        E 77 90 47 48
        E 41 90 40 00
        E 20 90 38 00
        E 1 90 28 00
        E 10 90 44 00
        E 10 90 2d 40
        E 0 90 34 00
        E 0 90 47 00
        E 0 90 48 3f
        E 77 90 34 48
        E 77 90 48 00
        E 5 90 39 33
        E 76 90 34 00
        E 0 90 34 37
        E 0 90 40 56
        E 0 90 4c 26
        E 72 90 40 00
        E 0 90 40 37
        E 0 90 4c 00
        E 0 90 4c 48
        E 76 90 4b 45
        E 0 90 4c 00
        E 77 90 4b 00
        E 0 90 4b 3f
        E 41 90 34 00
        E 0 90 40 00
        E 20 90 4b 00
        E 0 90 4b 4e
        E 72 90 4b 00
        E 0 90 4c 49
        E 0 90 58 2d
        E 36 90 2d 00
        E 30 90 39 00
        E 5 90 34 40
        E 0 90 47 45
        E 31 90 58 00
        E 36 90 4a 44
        E 5 90 4c 00
        E 41 90 47 00
        E 20 90 34 00
        E 0 90 4a 00
        E 5 90 48 4a
        E 57 90 2d 4a
        E 5 90 39 2f
        E 5 90 45 3c
        E 0 90 48 00
        E 72 90 34 3e
        E 51 90 45 00
        E 25 90 39 00
        E 0 90 39 50
        E 62 90 3c 4b
        E 71 90 39 00
        E 0 90 39 43
        E 0 90 40 49
        E 51 90 28 29
        E 5 90 34 00
        E 16 90 39 00
        E 0 90 39 3c
        E 0 90 45 58
        E 15 90 3c 00
        E 31 90 40 00
        E 25 90 28 00
        E 0 90 28 5a
        E 0 90 34 45
        E 0 90 39 00
        E 5 90 3b 27
        E 0 90 47 3e
        E 0 90 53 27
        E 6 90 2d 00
        E 10 90 45 00
        E 46 90 28 00
        E 0 90 28 53
        E 0 90 3b 00
        E 10 90 34 00
        E 0 90 34 33
        E 20 90 53 00
        E 57 90 38 49
        E 51 90 47 00
        E 20 90 40 47
        E 72 90 48 3a
        E 127 90 40 00
        E 21 90 48 00
        E 0 90 51 2e
        E 5 90 2d 4d
        E 0 90 38 00
        E 0 90 39 3c
        E 0 90 45 32
        E 6 90 34 00
        E 35 90 28 00
        E 41 90 51 00
        E 5 90 34 4e
        E 77 90 45 00
        E 5 90 39 00
        E 0 90 39 4a
        E 61 90 2d 00
        E 16 90 47 3d
        E 71 90 47 00
        E 0 90 48 3d
        E 72 90 4a 2f
        E 30 90 48 00
        E 36 90 30 5e
        E 0 90 34 00
        E 0 90 39 00
        E 5 90 4c 2f
        E 61 90 4a 00
        E 11 90 3c 2d
        E 0 90 4c 00
        E 10 90 37 4e
        E 5 90 30 00
        E 0 90 30 4e
        E 66 90 3c 00
        E 6 90 3c 49
        E 71 90 43 39
        E 5 90 37 00
        E 0 90 37 3c
        E 5 90 3c 00
        E 0 90 3c 3b
        E 62 90 4d 45
        E 15 90 3c 00
        E 56 90 4c 2a
        E 0 90 4d 00
        E 31 90 43 00
        E 26 90 4c 00
        E 10 90 2b 5f
        E 0 90 30 00
        E 0 90 37 00
        E 0 90 37 3b
        E 5 90 4a 33
        E 82 90 2b 00
        E 0 90 2b 46
        E 0 90 37 00
        E 0 90 37 3d
        E 77 90 3b 4c
        E 71 90 41 3c
        E 10 90 4a 00
        E 51 90 37 00
        E 11 90 4c 39
        E 71 90 4a 43
        E 0 90 4c 00
        E 5 90 41 00
        E 31 90 2b 00
        E 30 90 4a 00
        E 16 90 2d 53
        E 0 90 3b 00
        E 0 90 48 43
        E 71 90 34 48
        E 0 90 48 00
        E 5 90 2d 00
        E 0 90 2d 4a
        E 82 90 39 41
        E 72 90 34 00
        E 0 90 34 3b
        E 0 90 40 3e
        E 87 90 4a 46
        E 61 90 48 44
        E 6 90 28 44
        E 0 90 40 00
        E 10 90 4a 00
        E 25 90 2d 00
        E 16 90 39 00
        E 15 90 3b 24
        E 0 90 48 00
        E 5 90 28 00
        E 0 90 28 4e
        E 0 90 34 00
        E 0 90 34 33
        E 0 90 47 28
        E 66 90 3b 00
        E 6 90 34 00
        E 0 90 34 3d
        E 10 90 47 00
        E 76 90 40 45
        E 67 90 4c 2b
        E 87 90 4c 00
        E 5 90 4c 3e
        E 5 90 34 00
        E 0 90 34 30
        E 0 90 40 00
        E 0 90 40 3a
        E 66 90 40 00
        E 0 90 40 3e
        E 87 90 4c 00
        E 0 90 4c 31
        E 87 90 4c 00
        E 0 90 4c 3a
        E 92 90 58 38
        E 46 90 40 00
        E 41 90 4b 44
        E 0 90 4c 00
        E 77 90 4b 00
        E 0 90 4c 3f
        E 71 90 58 00
        E 16 90 4b 4e
        E 0 90 4c 00
        E 61 90 34 00
        E 10 90 3b 2e
        E 0 90 4b 00
        E 0 90 4c 47
        E 67 90 28 00
        E 15 90 4c 00
        E 0 90 4c 35
        E 77 90 4b 48
        E 0 90 4c 00
        E 61 90 3b 00
        E 5 90 3b 33
        E 5 90 4b 00
        E 0 90 4b 5c
        E 67 90 4b 00
        E 0 90 4b 40
        E 76 90 4b 00
        E 0 90 4b 52
        E 77 90 4b 00
        E 0 90 4b 47
        E 66 90 4b 00
        E 0 90 4b 54
        E 72 90 4b 00
        E 0 90 4c 2f
        E 87 90 3b 00
        E 0 90 3b 37
        E 5 90 47 4e
        E 87 90 4c 00
        E 26 90 47 00
        E 5 90 3b 00
        E 15 e0 55 4a
        E 0 90 48 45
        E 6 e0 55 4a
        E 5 e0 55 4a
        E 6 e0 55 4a
        E 5 e0 55 4a
        E 6 e0 55 4a
        E 5 e0 55 4a
        E 6 e0 55 4a
        E 5 e0 55 4a
        E 6 e0 55 4a
        E 5 e0 55 4a
        E 6 e0 55 4a
        E 5 e0 55 4a
        E 6 e0 55 4a
        E 0 90 39 30
        E 0 90 45 44
        E 0 90 48 00
        E 10 90 2d 4c
        E 66 90 34 3f
        E 77 90 39 00
        E 0 90 39 48
        E 0 90 45 00
        E 66 90 3c 48
        E 72 90 40 4b
        E 46 90 34 00
        E 25 90 45 55
        E 26 90 3c 00
        E 5 90 40 00
        E 15 90 2d 00
        E 5 90 28 4d
        E 11 90 39 00
        E 10 90 34 44
        E 5 90 47 40
        E 10 90 45 00
        E 72 90 34 00
        E 0 90 34 3d
        E 66 90 38 56
        E 5 90 47 00
        E 77 90 40 3b
        E 62 90 38 00
        E 0 90 38 3b
        E 0 90 44 46
        E 76 90 47 45
        E 41 90 40 00
        E 21 90 38 00
        E 15 90 47 00
        E 0 90 48 44
        E 5 90 2d 56
        E 0 90 34 00
        E 15 90 44 00
        E 57 90 2d 00
        E 0 90 2d 4f
        E 0 90 34 50
        E 20 90 28 00
        E 61 90 2d 00
        E 0 90 2d 40
        E 0 90 39 3b
        E 51 90 48 00
        E 26 90 34 00
        E 0 90 34 39
        E 0 90 40 49
        E 66 90 40 00
        E 0 90 40 44
        E 0 90 4c 3a
        E 0 90 58 2c
        E 77 90 40 00
        E 0 90 40 34
        E 0 90 4c 00
        E 0 90 4c 3a
        E 10 90 58 00
        E 67 90 4b 2b
        E 0 90 4c 00
        E 46 90 40 00
        E 5 90 39 00
        E 15 90 4b 00
        E 0 90 4b 4a
        E 107 90 4b 00
        E 0 90 4c 37
        E 31 90 2d 00
        E 0 90 34 00
        E 0 90 34 42
        E 10 90 47 47
        E 47 90 4c 00
        E 20 90 4a 49
        E 56 90 47 00
        E 21 90 48 45
        E 5 90 4a 00
        E 20 90 34 00
        E 51 90 2d 53
        E 0 90 39 34
        E 0 90 45 43
        E 0 90 48 00
        E 67 90 45 00
        E 10 90 34 40
        E 71 90 2d 00
        E 0 90 2d 3f
        E 0 90 39 00
        E 0 90 39 49
        E 77 90 3c 48
        E 67 90 40 45
        E 45 90 34 00
        E 16 90 28 36
        E 10 90 45 55
        E 20 90 3c 00
        E 26 90 2d 00
        E 0 90 40 00
        E 10 90 39 00
        E 16 90 28 00
        E 0 90 28 52
        E 0 90 34 3e
        E 0 90 47 32
        E 5 90 3b 25
        E 10 90 45 00
        E 56 90 34 00
        E 0 90 34 3b
        E 36 90 3b 00
        E 51 90 38 4a
        E 25 90 34 00
        E 16 90 47 00
        E 26 90 40 3c
        E 77 90 48 43
        E 51 90 40 00
        E 25 90 47 41
        E 0 90 48 00
        E 41 90 38 00
        E 10 90 28 00
        E 21 90 45 3b
        E 10 90 2d 4f
        E 10 90 47 00
        E 41 90 45 00
        E 5 90 39 31
        E 26 90 2d 00
        E 0 90 2d 53
        E 86 90 2d 00
        E 0 90 2d 52
        E 159 90 39 00
        E 5 90 2d 00
        E 0 90 2d 54
        E 174 90 46 2f
        E 0 90 49 3d
        E 5 90 2d 00
        E 0 90 2d 5e
        E 0 90 40 2f
        E 0 90 43 3c
        E 92 90 40 00
        E 41 90 39 31
        E 21 90 49 00
        E 5 90 43 00
        E 56 90 39 00
        E 25 90 2d 00
        E 0 90 2d 5d
        E 149 90 46 00
        E 15 90 39 27
        E 5 90 2d 00
        E 0 90 2d 5a
        E 87 90 39 00
        E 0 90 39 37
        E 0 90 41 36
        E 0 90 4a 3f
        E 25 90 2d 00
        E 0 90 2d 54
        E 77 90 2d 00
        E 0 90 2d 4e
        E 5 90 41 00
        E 72 90 39 00
        E 0 90 39 3b
        E 81 90 2d 00
        E 0 90 2d 55
        E 5 90 4a 00
        E 77 90 2d 00
        E 0 90 2d 4e
        E 0 90 39 00
        E 0 90 39 3d
        E 0 90 49 3f
        E 82 90 39 00
        E 0 90 39 2d
        E 0 90 49 00
        E 0 90 4d 48
        E 5 90 4a 34
        E 56 90 39 00
        E 21 90 4a 00
        E 0 90 4a 3c
        E 0 90 4d 00
        E 0 90 4d 37
        E 5 90 2d 00
        E 0 90 2d 44
        E 0 90 44 4b
        E 92 90 2d 00
        E 0 90 2d 4c
        E 72 90 4d 00
        E 5 90 2d 00
        E 0 90 2d 53
        E 56 90 44 00
        E 112 90 4d 45
        E 5 90 44 4c
        E 36 90 4a 00
        E 62 90 2d 00
        E 0 90 2d 57
        E 76 90 4d 00
        E 5 90 39 30
        E 0 90 44 00
        E 5 90 2d 00
        E 0 90 2d 4b
        E 0 90 48 2d
        E 82 90 2d 00
        E 0 90 2d 57
        E 36 90 39 00
        E 71 90 48 00
        E 62 90 39 32
        E 81 90 2d 00
        E 0 90 2d 59
        E 47 90 39 00
        E 128 90 2d 00
        E 0 90 2d 37
        E 5 90 41 24
        E 0 90 4a 3d
        E 5 90 26 39
        E 5 90 4d 2c
        E 56 90 41 00
        E 26 90 26 00
        E 0 90 26 41
        E 0 90 2d 00
        E 0 90 2d 4e
        E 15 90 4d 00
        E 72 90 2d 00
        E 0 90 2d 54
        E 76 90 26 00
        E 0 90 26 47
        E 10 90 4a 00
        E 72 90 2d 00
        E 0 90 2d 41
        E 0 90 40 2e
        E 5 90 26 00
        E 0 90 26 37
        E 0 90 48 43
        E 66 90 40 00
        E 11 90 3e 41
        E 0 90 47 39
        E 0 90 48 00
        E 5 90 26 00
        E 0 90 26 33
        E 61 90 26 00
        E 0 90 47 00
        E 10 90 3e 00
        E 10 90 39 2a
        E 0 90 45 30
        E 6 90 3c 32
        E 0 90 42 44
        E 81 90 39 00
        E 5 90 27 4d
        E 0 90 45 00
        E 87 90 27 00
        E 0 90 27 4e
        E 21 90 42 00
        E 56 90 27 00
        E 0 90 27 58
        E 11 90 2d 00
        E 0 90 2d 3f
        E 71 90 45 34
        E 5 90 39 26
        E 5 90 3c 00
        E 0 90 3c 40
        E 16 90 27 00
        E 0 90 27 51
        E 36 90 45 00
        E 117 90 27 00
        E 5 90 45 38
        E 5 90 3c 00
        E 0 90 3c 35
        E 26 90 28 4f
        E 10 90 39 00
        E 46 90 45 00
        E 5 90 28 00
        E 0 90 28 4f
        E 87 90 2d 00
        E 0 90 2d 48
        E 5 90 28 00
        E 0 90 28 4c
        E 5 90 48 2a
        E 77 90 48 00
        E 10 90 28 00
        E 0 90 28 49
        E 31 90 3c 00
        E 51 90 3e 3e
        E 0 90 47 3e
        E 5 90 28 00
        E 0 90 28 4c
        E 0 90 2c 3d
        E 0 90 2d 00
        E 0 90 3b 2c
        E 5 90 34 2c
        E 66 90 28 00
        E 0 90 28 38
        E 0 90 34 00
        E 5 90 2c 00
        E 0 90 2c 3e
        E 26 90 47 00
        E 41 90 3b 00
        E 10 90 3e 00
        E 15 90 3c 36
        E 5 90 45 38
        E 6 90 34 2b
        E 5 90 2c 00
        E 0 90 2d 35
        E 46 90 21 31
        E 10 90 34 00
        E 6 90 2d 00
        E 0 90 2d 41
        E 5 90 28 00
        E 41 90 45 00
        E 30 90 34 2c
        E 10 90 2d 00
        E 0 90 2d 4c
        E 16 90 21 00
        E 117 90 21 32
        E 16 90 34 00
        E 0 90 3c 00
        E 199 90 21 00
        E 25 90 2d 00
        E 0 90 2d 41
        E 0 90 39 27
        E 0 90 40 2a
        E 0 90 49 3a
        E 5 90 43 2d
        E 0 90 46 2a
        E 57 90 39 00
        E 15 90 21 30
        E 5 90 2d 00
        E 0 90 2d 50
        E 5 90 40 00
        E 31 90 46 00
        E 15 90 43 00
        E 46 90 49 00
        E 5 90 2d 00
        E 0 90 2d 59
        E 77 90 2d 00
        E 0 90 2d 5c
        E 97 90 21 00
        E 82 90 2d 00
        E 0 90 2d 55
        E 82 90 39 26
        E 5 90 41 36
        E 0 90 45 38
        E 0 90 4a 40
        E 20 90 2d 00
        E 0 90 2d 4d
        E 62 90 45 00
        E 10 90 2d 00
        E 0 90 2d 4e
        E 5 90 39 00
        E 0 90 39 2d
        E 41 90 41 00
        E 36 90 39 00
        E 0 90 39 38
        E 81 90 2d 00
        E 0 90 2d 51
        E 67 90 4a 00
        E 25 90 2d 00
        E 0 90 2d 47
        E 0 90 39 00
        E 0 90 39 3a
        E 0 90 49 3d
        E 72 90 39 00
        E 10 90 4d 41
        E 5 90 49 00
        E 0 90 4a 36
        E 16 90 2d 00
        E 0 90 2d 53
        E 66 90 4d 00
        E 0 90 4d 36
        E 5 90 4a 00
        E 0 90 4a 3e
        E 15 90 2d 00
        E 0 90 2d 55
        E 92 90 4d 00
        E 16 90 2d 00
        E 0 90 2d 4d
        E 41 90 39 3d
        E 184 90 4a 00
        E 0 90 4a 3a
        E 0 90 4d 36
        E 5 90 2d 00
        E 0 90 2d 54
        E 5 90 39 00
        E 210 90 4a 00
        E 0 90 4a 35
        E 0 90 4d 00
        E 0 90 4d 3b
        E 5 90 2d 00
        E 0 90 2e 4a
        E 107 90 2e 00
        E 0 90 2e 57
        E 15 90 4d 00
        E 57 90 4a 00
        E 15 e0 55 4a
        E 0 90 2e 00
        E 0 90 2e 5e
        E 5 e0 55 4a
        E 6 e0 55 4a
        E 5 e0 55 4a
        E 6 e0 55 4a
        E 5 e0 55 4a
        E 6 e0 55 4a
        E 5 e0 55 4a
        E 5 e0 55 4a
        E 6 e0 55 4a
        E 5 e0 55 4a
        E 6 e0 55 4a
        E 5 e0 55 4a
        E 6 e0 55 4a
        E 5 e0 55 4a
        E 5 e0 55 4a
        E 6 e0 55 4a
        E 0 90 2e 00
        E 0 90 2e 60
        E 5 e0 55 4a
        E 6 e0 55 4a
        E 5 e0 55 4a
        E 5 e0 55 4a
        E 6 e0 55 4a
        E 5 e0 55 4a
        E 6 e0 55 4a
        E 5 e0 55 4a
        E 6 e0 55 4a
        E 5 e0 55 4a
        E 5 e0 55 4a
        E 6 e0 55 4a
        E 5 e0 55 4a
        E 6 e0 55 4a
        E 5 e0 55 4a
        E 6 e0 55 4a
        E 0 90 2e 00
        E 0 90 2e 5d
        E 5 e0 55 4a
        E 6 e0 55 4a
        E 5 e0 55 4a
        E 5 e0 55 4a
        E 6 e0 55 4a
        E 5 e0 55 4a
        E 6 e0 55 4a
        E 5 e0 55 4a
        E 6 e0 55 4a
        E 5 e0 55 4a
        E 6 e0 55 4a
        E 5 e0 55 4a
        E 5 e0 55 4a
        E 6 e0 55 4a
        E 5 e0 55 4a
        E 0 90 2e 00
        E 0 90 2e 58
        E 93 90 4b 40
        E 5 90 2e 00
        E 0 90 2e 44
        E 5 90 43 49
        E 92 90 2e 00
        E 0 90 2e 54
        E 77 90 4b 00
        E 10 90 2e 00
        E 0 90 2e 5f
        E 15 90 43 00
        E 72 e0 55 4a
        E 0 90 2e 00
        E 0 90 2e 62
        E 5 e0 55 4a
        E 6 e0 55 4a
        E 5 e0 55 4a
        E 6 e0 55 4a
        E 5 e0 55 4a
        E 5 e0 55 4a
        E 6 e0 55 4a
        E 5 e0 55 4a
        E 6 e0 55 4a
        E 5 e0 55 4a
        E 6 e0 55 4a
        E 5 e0 55 4a
        E 6 e0 55 4a
        E 5 e0 55 4a
        E 5 e0 55 4a
        E 0 90 2e 00
        E 0 90 2e 58
        E 0 90 4a 39
        E 62 90 4a 00
        E 25 90 3f 47
        E 5 90 48 3a
        E 62 90 48 00
        E 15 90 46 3f
        E 5 90 2e 00
        E 0 90 2e 53
        E 0 90 3f 00
        E 5 90 3e 46
        E 67 90 3a 2a
        E 51 90 2e 00
        E 0 90 2e 5b
        E 81 90 3a 00
        E 46 90 46 00
        E 88 90 3e 00
        E 0 90 3e 4e
        E 0 90 45 39
        E 5 90 2e 00
        E 0 90 2e 53
        E 0 90 41 2a
        E 66 90 41 00
        E 36 90 45 00
        E 72 90 3e 00
        E 0 90 3e 3e
        E 0 90 44 40
        E 5 90 2e 00
        E 0 90 2f 43
        E 0 90 41 2b
        E 112 90 2f 00
        E 0 90 2f 4f
        E 31 90 41 00
        E 36 90 2f 00
        E 0 90 2f 56
        E 92 90 2f 00
        E 0 90 2f 59
        E 97 90 2f 00
        E 0 90 2f 52
        E 0 90 3e 00
        E 0 90 3e 42
        E 0 90 41 2e
        E 0 90 44 00
        E 0 90 44 49
        E 122 90 41 00
        E 72 90 3e 00
        E 5 90 2f 00
        E 0 90 44 00
        E 5 90 45 36
        E 5 90 40 41
        E 31 90 30 50
        E 0 90 3c 34
        E 67 90 30 00
        E 0 90 30 48
        E 199 90 3c 00
        E 36 90 40 00
        E 56 90 40 2b
        E 82 90 40 00
        E 5 90 45 00
        E 41 90 30 00
        E 71 90 40 3e
        E 0 90 47 3a
        E 10 90 34 52
        E 0 90 38 4d
        E 256 90 40 00
        E 82 90 44 2e
        E 61 90 44 00
        E 97 90 38 00
        E 31 90 47 00
        E 31 90 21 39
        E 5 90 2d 40
        E 0 90 39 3a
        E 30 90 34 00
        E 36 90 3c 38
        E 46 90 39 00
        E 56 90 34 39
        E 31 90 3c 00
        E 153 90 3c 40
        E 5 90 2d 00
        E 0 90 2d 3a
        E 0 90 39 35
        E 164 90 2d 00
        E 0 90 2d 2f
        E 0 90 39 00
        E 0 90 39 34
        E 0 90 3c 00
        E 0 90 3c 3d
        E 0 90 40 30
        E 102 90 40 00
        E 5 90 2d 00
        E 57 90 51 35
        E 102 90 51 00
        E 0 90 58 46
        E 51 90 21 00
        E 0 90 34 00
        E 5 90 2d 27
        E 0 90 34 30
        E 0 90 39 00
        E 0 90 39 3f
        E 0 90 3c 00
        E 0 90 3c 3e
        E 0 90 40 3f
        E 0 90 48 1e
        E 10 90 58 00
        E 57 90 48 00
        E 35 90 2d 00
        E 46 90 51 25
        E 11 90 40 00
        E 0 90 40 43
        E 5 90 39 00
        E 0 90 39 3a
        E 0 90 3c 00
        E 0 90 3c 45
        E 51 90 34 00
        E 5 90 51 00
        E 97 90 51 33
        E 0 90 5d 4a
        E 25 90 21 2d
        E 31 90 60 3b
        E 5 90 40 00
        E 0 90 51 00
        E 36 90 21 00
        E 0 90 5d 00
        E 51 90 60 00
        E 26 90 39 00
        E 0 90 39 4c
        E 0 90 40 45
        E 51 90 60 3a
        E 10 90 3c 00
        E 0 90 3c 45
        E 87 90 60 00
        E 36 90 39 00
        E 0 90 39 43
        E 0 90 3c 00
        E 0 90 3c 52
        E 0 90 40 00
        E 0 90 40 40
        E 0 90 5e 35
        E 112 90 5e 00
        E 21 90 40 00
        E 0 90 40 42
        E 0 90 5c 4d
        E 66 90 3c 00
        E 0 90 3c 3b
        E 0 90 5b 3e
        E 0 90 5c 00
        E 41 90 40 00
        E 21 90 5a 38
        E 0 90 5b 00
        E 61 90 5a 00
        E 92 90 3c 00
        E 0 90 3c 3b
        E 0 90 58 36
        E 66 90 58 00
        E 16 90 57 3a
        E 61 90 39 00
        E 0 90 3c 00
        E 20 90 34 30
        E 16 90 57 00
        E 25 90 3c 2f
        E 10 90 39 34
        E 51 90 34 00
        E 26 90 39 00
        E 31 90 54 3e
        E 71 90 54 00
        E 16 90 34 35
        E 0 90 40 31
        E 0 90 53 38
        E 51 90 3c 00
        E 21 90 40 00
        E 5 90 34 00
        E 0 90 53 00
        E 15 e0 55 4a
        E 0 90 52 4a
        E 5 e0 55 4a
        E 6 e0 55 4a
        E 5 e0 55 4a
        E 6 e0 55 4a
        E 5 e0 55 4a
        E 5 e0 55 4a
        E 6 e0 55 4a
        E 5 e0 55 4a
        E 5 e0 55 4a
        E 6 e0 55 4a
        E 5 e0 55 4a
        E 6 e0 55 4a
        E 5 e0 55 4a
        E 5 e0 55 4a
        E 6 e0 55 4a
        E 5 e0 55 4a
        E 5 e0 55 4a
        E 6 e0 55 4a
        E 5 e0 55 4a
        E 0 90 51 45
        E 0 90 52 00
        E 97 90 34 33
        E 10 90 50 45
        E 0 90 51 00
        E 0 90 52 31
        E 72 90 52 00
        E 26 90 4f 44
        E 0 90 50 00
        E 91 90 34 00
        E 11 90 4f 00
        E 15 e0 55 4a
        E 0 90 4e 5c
        E 5 e0 55 4a
        E 6 e0 55 4a
        E 5 e0 55 4a
        E 5 e0 55 4a
        E 6 e0 55 4a
        E 5 e0 55 4a
        E 5 e0 55 4a
        E 6 e0 55 4a
        E 5 e0 55 4a
        E 5 e0 55 4a
        E 6 e0 55 4a
        E 5 e0 55 4a
        E 5 e0 55 4a
        E 6 e0 55 4a
        E 5 e0 55 4a
        E 5 e0 55 4a
        E 6 e0 55 4a
        E 5 e0 55 4a
        E 5 e0 55 4a
        E 6 e0 55 4a
        E 5 e0 55 4a
        E 5 e0 55 4a
        E 6 e0 55 4a
        E 0 90 4d 47
        E 0 90 4e 00
        E 5 e0 55 4a
        E 5 e0 55 4a
        E 6 e0 55 4a
        E 5 e0 55 4a
        E 5 e0 55 4a
        E 6 e0 55 4a
        E 5 e0 55 4a
        E 5 e0 55 4a
        E 6 e0 55 4a
        E 5 e0 55 4a
        E 5 e0 55 4a
        E 6 e0 55 4a
        E 5 e0 55 4a
        E 5 e0 55 4a
        E 6 e0 55 4a
        E 5 e0 55 4a
        E 5 e0 55 4a
        E 6 e0 55 4a
        E 5 e0 55 4a
        E 5 e0 55 4a
        E 6 e0 55 4a
        E 5 e0 55 4a
        E 5 e0 55 4a
        E 0 90 34 32
        E 0 90 4d 00
        E 0 90 4e 2c
        E 82 90 34 00
        E 41 90 4e 00
        E 5 e0 55 4a
        E 0 90 4b 45
        E 5 e0 55 4a
        E 5 e0 55 4a
        E 5 e0 55 4a
        E 5 e0 55 4a
        E 6 e0 55 4a
        E 5 e0 55 4a
        E 5 e0 55 4a
        E 5 e0 55 4a
        E 5 e0 55 4a
        E 5 e0 55 4a
        E 5 e0 55 4a
        E 6 e0 55 4a
        E 5 e0 55 4a
        E 5 e0 55 4a
        E 5 e0 55 4a
        E 5 e0 55 4a
        E 5 e0 55 4a
        E 5 e0 55 4a
        E 5 e0 55 4a
        E 6 e0 55 4a
        E 5 e0 55 4a
        E 5 e0 55 4a
        E 0 90 4b 00
        E 0 90 4c 32
        E 5 e0 55 4a
        E 6 e0 55 4a
        E 5 e0 55 4a
        E 6 e0 55 4a
        E 5 e0 55 4a
        E 6 e0 55 4a
        E 5 e0 55 4a
        E 5 e0 55 4a
        E 6 e0 55 4a
        E 5 e0 55 4a
        E 6 e0 55 4a
        E 5 e0 55 4a
        E 6 e0 55 4a
        E 5 e0 55 4a
        E 6 e0 55 4a
        E 0 90 34 3b
        E 0 90 4c 00
        E 10 90 47 4e
        E 92 90 4a 4b
        E 30 90 47 00
        E 41 90 34 00
        E 5 90 48 4a
        E 0 90 4a 00
        E 67 90 2d 4c
        E 10 90 39 2e
        E 0 90 45 3d
        E 0 90 51 2d
        E 20 90 48 00
        E 57 90 51 00
        E 5 90 34 44
        E 82 90 39 00
        E 0 90 39 4f
        E 10 90 45 00
        E 61 90 3c 4d
        E 66 90 34 00
        E 0 90 34 31
        E 6 90 40 45
        E 46 90 28 2f
        E 10 90 34 00
        E 10 90 39 00
        E 0 90 39 3b
        E 5 90 45 53
        E 15 90 3c 00
        E 26 90 40 00
        E 15 90 2d 00
        E 10 90 28 00
        E 0 90 28 53
        E 0 90 34 3d
        E 0 90 3b 23
        E 6 90 39 00
        E 0 90 47 31
        E 10 90 45 00
        E 41 90 3b 00
        E 16 90 34 00
        E 0 90 34 47
        E 76 90 38 57
        E 26 90 47 00
        E 35 90 34 00
        E 0 90 34 38
        E 6 90 40 40
        E 66 90 38 00
        E 0 90 38 3c
        E 0 90 44 50
        E 72 90 47 40
        E 61 90 40 00
        E 15 90 2d 56
        E 0 90 47 00
        E 0 90 48 3d
        E 26 90 44 00
        E 20 90 28 00
        E 15 90 38 00
        E 16 90 34 00
        E 0 90 34 49
        E 71 90 48 00
        E 16 90 2d 00
        E 0 90 2d 53
        E 0 90 39 4f
        E 76 90 40 3a
        E 5 90 2d 00
        E 0 90 2d 49
        E 0 90 34 00
        E 0 90 34 3d
        E 67 90 4c 3f
        E 5 90 39 00
        E 0 90 39 3c
        E 82 90 40 00
        E 0 90 4b 3a
        E 0 90 4c 00
        E 61 90 4b 00
        E 0 90 4c 42
        E 57 90 34 00
        E 10 90 4b 3b
        E 0 90 4c 00
        E 15 90 2d 00
        E 77 90 34 3d
        E 10 90 4b 00
        E 0 90 4c 37
        E 31 90 39 00
        E 20 90 47 46
        E 67 90 4a 3d
        E 35 90 47 00
        E 0 90 4c 00
        E 26 90 4a 00
        E 5 90 48 47
        E 25 90 34 00
        E 52 90 2d 5a
        E 0 90 39 30
        E 0 90 45 48
        E 10 90 48 00
        E 71 90 34 4a
        E 5 90 2d 00
        E 0 90 2d 58
        E 67 90 2d 00
        E 0 90 2d 49
        E 0 90 45 00
        E 0 90 45 2a
        E 5 90 39 00
        E 0 90 39 40
        E 66 90 3c 4a
        E 72 90 34 00
        E 0 90 34 30
        E 0 90 40 44
        E 71 90 28 2f
        E 0 90 45 00
        E 0 90 45 4e
        E 31 90 39 00
        E 5 90 3c 00
        E 15 90 40 00
        E 6 90 2d 00
        E 5 90 28 00
        E 0 90 28 57
        E 5 90 34 00
        E 0 90 34 44
        E 0 90 47 37
        E 57 90 45 00
        E 20 90 34 00
        E 0 90 34 3c
        E 77 90 38 4f
        E 30 90 47 00
        E 36 90 40 3d
        E 77 90 48 4a
        E 71 90 47 37
        E 0 90 48 00
        E 10 90 40 00
        E 67 90 38 00
        E 5 90 39 3b
        E 0 90 45 41
        E 0 90 51 29
        E 10 90 47 00
        E 5 90 28 00
        E 21 90 2d 52
        E 41 90 51 00
        E 5 90 34 00
        E 0 90 34 49
        E 15 90 45 00
        E 61 90 2d 00
        E 0 90 2d 41
        E 0 90 39 00
        E 0 90 39 47
        E 72 90 47 48
        E 71 90 47 00
        E 0 90 48 3e
        E 77 90 4a 43
        E 41 90 48 00
        E 10 90 2d 00
        E 11 90 4a 00
        E 5 90 39 00
        E 5 90 30 5e
        E 0 90 34 00
        E 0 90 3c 34
        E 0 90 4c 32
        E 0 90 58 2d
        E 87 90 37 4c
        E 5 90 30 00
        E 0 90 30 59
        E 0 90 58 00
        E 66 90 4c 00
        E 5 90 30 00
        E 0 90 30 55
        E 0 90 3c 00
        E 0 90 3c 4d
        E 77 90 43 3f
        E 5 90 30 00
        E 0 90 30 50
        E 0 90 3c 00
        E 0 90 3c 2e
        E 62 90 4d 44
        E 10 90 37 00
        E 0 90 37 34
        E 35 90 43 00
        E 11 90 3c 00
        E 20 90 4c 2e
        E 0 90 4d 00
        E 67 90 2b 5f
        E 0 90 30 00
        E 0 90 37 00
        E 0 90 37 32
        E 0 90 4c 00
        E 5 90 4a 3e
        E 71 90 37 00
        E 0 90 37 45
        E 5 90 2b 00
        E 0 90 2b 4a
        E 67 90 4a 00
        E 10 90 3b 51
        E 87 90 41 3e
        E 56 90 37 00
        E 10 90 4c 2e
        E 61 90 4c 00
        E 16 90 41 00
        E 0 90 4a 39
        E 36 90 2b 00
        E 21 90 2d 4f
        E 5 90 4a 00
        E 10 90 3b 00
        E 0 90 48 3f
        E 71 90 34 49
        E 26 90 48 00
        E 56 90 39 56
        E 67 90 39 00
        E 0 90 39 43
        E 5 90 34 00
        E 0 90 34 3f
        E 0 90 40 3e
        E 76 90 4a 46
        E 56 90 40 00
        E 21 90 4a 00
        E 5 90 34 00
        E 0 90 48 41
        E 26 90 28 52
        E 20 90 2d 00
        E 15 90 39 00
        E 5 90 48 00
        E 6 90 34 43
        E 0 90 3b 2c
        E 0 90 47 36
        E 30 90 28 00
        E 0 90 28 4a
        E 51 90 34 00
        E 0 90 34 3d
        E 62 90 3b 00
        E 25 90 40 50
        E 5 90 47 00
        E 72 90 40 00
        E 0 90 40 55
        E 76 90 40 00
        E 0 90 40 43
        E 0 90 4c 24
        E 72 90 40 00
        E 0 90 40 42
        E 0 90 4c 00
        E 0 90 4c 42
        E 123 90 4c 00
        E 36 90 4c 25
        E 51 90 40 00
        E 46 90 58 46
        E 25 90 34 00
        E 0 90 34 30
        E 0 90 4c 00
        E 0 90 4c 47
        E 67 90 4c 00
        E 0 90 4c 35
        E 76 90 3b 36
        E 0 90 4c 00
        E 0 90 4c 3e
        E 67 90 28 00
        E 15 90 4c 00
        E 5 90 3b 00
        E 0 90 3b 39
        E 0 90 4b 59
        E 0 90 58 00
        E 72 90 4b 00
        E 0 90 4b 50
        E 76 90 4b 00
        E 0 90 4b 59
        E 57 90 28 32
        E 5 90 3b 00
        E 0 90 3b 3f
        E 0 90 4b 00
        E 0 90 4c 4e
        E 15 90 58 2b
        E 56 90 3b 00
        E 0 90 3b 44
        E 0 90 4b 64
        E 0 90 4c 00
        E 5 90 58 00
        E 67 90 3b 00
        E 0 90 3b 36
        E 5 90 4b 00
        E 0 90 4b 54
        E 62 90 28 00
        E 5 90 34 00
        E 0 90 34 30
        E 0 90 4b 00
        E 0 90 4b 5c
        E 66 90 34 00
        E 10 90 4b 00
        E 0 90 4b 40
        E 72 90 4b 00
        E 0 90 4b 53
        E 71 90 4b 00
        E 0 90 4c 35
        E 41 90 3b 00
        E 31 90 3b 30
        E 0 90 47 47
        E 15 90 34 34
        E 51 90 4c 00
        E 6 90 4a 40
        E 45 90 47 00
        E 6 90 34 00
        E 10 90 3b 00
        E 10 90 48 43
        E 41 90 4a 00
        E 36 90 39 32
        E 0 90 45 42
        E 10 90 48 00
        E 10 90 2d 48
        E 61 90 34 3e
        E 11 90 45 00
        E 66 90 39 00
        E 0 90 39 59
        E 72 90 39 00
        E 0 90 39 4d
        E 0 90 3c 48
        E 72 90 40 45
        E 40 90 34 00
        E 31 90 28 35
        E 0 90 39 00
        E 0 90 39 40
        E 5 90 45 4f
        E 31 90 3c 00
        E 10 90 2d 00
        E 10 90 40 00
        E 16 90 28 00
        E 0 90 28 58
        E 0 90 34 45
        E 0 90 47 37
        E 5 90 39 00
        E 36 90 45 00
        E 35 90 34 00
        E 0 90 34 46
        E 46 90 47 00
        E 31 90 38 56
        E 66 90 34 00
        E 0 90 34 3c
        E 0 90 40 46
        E 77 90 38 00
        E 0 90 38 36
        E 0 90 44 4e
        E 10 90 34 00
        E 61 90 47 4d
        E 57 90 28 00
        E 5 90 40 00
        E 5 90 44 00
        E 5 90 2d 44
        E 0 90 47 00
        E 0 90 48 42
        E 51 90 38 00
        E 26 90 34 4e
        E 81 90 39 3d
        E 0 90 51 23
        E 67 90 48 00
        E 10 90 40 2e
        E 0 90 4c 30
        E 5 90 34 00
        E 0 90 34 3e
        E 0 90 51 00
        E 62 90 4c 00
        E 0 90 4c 3b
        E 61 90 4c 00
        E 5 90 40 00
        E 5 90 4b 3e
        E 82 90 4b 00
        E 0 90 4b 35
        E 61 90 4b 00
        E 0 90 4b 4f
        E 72 90 4b 00
        E 0 90 4c 3d
        E 51 90 2d 00
        E 15 90 34 00
        E 0 90 34 42
        E 16 90 39 00
        E 30 90 47 3b
        E 26 90 4c 00
        E 5 90 4a 3e
        E 36 90 47 00
        E 41 90 48 45
        E 41 90 34 00
        E 0 90 4a 00
        E 30 90 2d 56
        E 10 90 39 33
        E 0 90 45 42
        E 0 90 51 28
        E 11 90 48 00
        E 61 90 51 00
        E 10 90 34 54
        E 15 90 45 00
        E 67 90 2d 00
        E 0 90 2d 41
        E 0 90 39 00
        E 0 90 39 46
        E 5 90 34 00
        E 0 90 34 3a
        E 71 90 3c 48
        E 57 90 2d 00
        E 0 90 2d 3a
        E 21 90 34 00
        E 0 90 34 2d
        E 0 90 40 41
        E 71 90 28 3b
        E 0 90 39 00
        E 0 90 39 44
        E 0 90 45 50
        E 51 90 3c 00
        E 5 90 2d 00
        E 16 90 40 00
        E 5 90 28 00
        E 0 90 28 5a
        E 0 90 34 00
        E 0 90 34 45
        E 0 90 47 35
        E 5 90 39 00
        E 0 90 45 00
        E 77 90 34 00
        E 0 90 34 49
        E 102 90 38 60
        E 30 90 47 00
        E 72 90 34 00
        E 0 90 3e 46
        E 5 90 38 00
        E 0 90 38 55
        E 0 90 3b 2a
        E 10 90 44 27
        E 67 90 44 00
        E 30 90 3b 00
        E 16 90 48 43
        E 5 90 38 00
        E 0 90 38 39
        E 10 90 44 2d
        E 143 90 3b 33
        E 0 90 44 00
        E 0 90 47 45
        E 0 90 48 00
        E 5 90 34 34
        E 0 90 44 31
        E 133 90 3b 00
        E 6 90 38 00
        E 20 90 47 00
        E 36 90 3e 00
        E 0 90 44 00
        E 15 90 28 00
        E 10 90 21 4a
        E 0 90 39 31
        E 0 90 3c 40
        E 0 90 45 36
        E 21 90 34 00
        E 25 90 2d 35
        E 148 90 39 00
        E 159 90 45 00
        E 230 90 40 27
        E 81 90 40 00
        E 103 90 2d 00
        E 82 90 21 00
        E 0 90 21 47
        E 0 90 2d 2d
        E 0 90 39 31
        E 82 90 34 2e
        E 92 90 2d 00
        E 132 90 3c 00
        E 108 90 39 00
        E 5 90 34 00
        E 184 90 21 00
        E 122 90 34 2f
        E 57 90 1b 2b
        E 5 90 34 00
        E 56 90 2d 3a
        E 31 90 1b 00
        E 31 90 2d 00
        E 424 e0 00 40
        E 0 90 1b 2b
        E 5 e0 00 40
        E 5 e0 00 40
        E 6 e0 00 40
        E 5 e0 55 4a
        E 5 e0 55 4a
        E 6 e0 55 4a
        E 5 e0 55 4a
        E 5 e0 00 40
        E 6 e0 2b 55
        E 5 e0 2b 55
        E 5 e0 2b 55
        E 6 e0 2b 55
        E 5 e0 2b 55
        E 6 e0 2b 55
        E 5 e0 2b 55
        E 5 e0 2b 55
        E 6 e0 2b 55
        E 5 e0 2b 55
        E 5 e0 2b 55
        E 6 e0 2b 55
        E 5 e0 2b 55
        E 0 90 1b 00
        E 1350 90 47 58
        E 66 90 45 4a
        E 36 90 47 00
        E 71 90 45 00
        E 0 90 45 57
        E 57 90 48 4e
        E 5 90 39 50
        E 25 90 45 00
        E 82 90 40 4b
        E 0 90 48 00
        E 0 90 48 3c
        E 5 90 3c 50
        E 102 90 39 00
        E 10 90 3c 00
        E 0 90 3c 4a
        E 0 90 40 00
        E 0 90 40 47
        E 0 90 48 00
        E 0 90 48 35
        E 0 90 4a 4a
        E 62 90 4a 00
        E 41 90 48 00
        E 0 90 48 35
        E 5 90 3c 00
        E 0 90 3c 4a
        E 0 90 40 00
        E 0 90 40 45
        E 51 90 48 00
        E 0 90 48 4a
        E 26 90 40 00
        E 10 90 3c 00
        E 15 90 51 27
        E 6 90 39 4f
        E 5 90 48 00
        E 97 90 51 00
        E 5 90 3c 51
        E 0 90 40 47
        E 97 90 39 00
        E 20 90 3c 00
        E 0 90 3c 4e
        E 0 90 40 00
        E 0 90 40 4a
        E 0 90 4c 27
        E 97 90 4b 42
        E 0 90 4c 00
        E 6 90 3c 00
        E 0 90 3c 4e
        E 5 90 40 00
        E 0 90 40 45
        E 66 90 4b 00
        E 5 90 3c 00
        E 26 90 53 3e
        E 5 90 39 48
        E 5 90 40 00
        E 0 90 40 3c
        E 46 90 51 39
        E 5 90 53 00
        E 51 90 3c 49
        E 0 90 40 00
        E 0 90 40 41
        E 56 90 51 00
        E 0 90 51 47
        E 5 90 3c 00
        E 46 90 39 00
        E 0 90 39 4b
        E 5 90 40 00
        E 0 90 40 34
        E 0 90 53 46
        E 52 90 51 00
        E 0 90 51 44
        E 20 90 53 00
        E 31 90 3c 52
        E 0 90 40 00
        E 0 90 40 42
        E 46 90 51 00
        E 0 90 51 4f
        E 21 90 3c 00
        E 35 90 40 00
        E 11 90 39 00
        E 0 90 39 4f
        E 0 90 54 40
        E 15 90 51 00
        E 71 90 54 00
        E 31 90 3c 44
        E 0 90 40 3c
        E 97 90 39 00
        E 10 90 3c 00
        E 0 90 3c 42
        E 0 90 40 00
        E 0 90 40 3d
        E 0 90 51 4f
        E 103 90 51 00
        E 5 90 40 00
        E 0 90 40 44
        E 56 90 3c 00
        E 10 90 40 00
        E 26 90 34 50
        E 10 90 51 2d
        E 97 90 34 00
        E 15 90 3b 5b
        E 0 90 40 3d
        E 0 90 51 00
        E 0 90 51 40
        E 82 90 51 00
        E 25 90 3b 00
        E 0 90 3b 54
        E 6 90 40 00
        E 0 90 40 41
        E 0 90 4c 39
        E 66 90 4c 00
        E 46 90 3b 00
        E 0 90 3b 56
        E 0 90 40 00
        E 0 90 40 3b
        E 0 90 51 3f
        E 62 90 40 00
        E 36 90 34 4e
        E 0 90 3b 00
        E 0 90 3b 39
        E 35 90 51 00
        E 57 90 34 00
        E 15 90 3b 00
        E 0 90 3b 5e
        E 0 90 40 37
        E 0 90 51 46
        E 87 90 51 00
        E 20 90 3b 00
        E 0 90 3b 59
        E 0 90 40 00
        E 0 90 40 33
        E 0 90 4c 34
        E 5 90 4f 3b
        E 67 90 4f 00
        E 10 90 4c 00
        E 31 90 3b 00
        E 0 90 3b 3d
        E 0 90 40 00
        E 0 90 40 3a
        E 0 90 51 4e
        E 71 90 40 00
        E 20 90 51 00
        E 6 90 34 4e
        E 10 90 51 2f
        E 92 90 34 00
        E 10 90 4e 42
        E 5 90 3b 00
        E 0 90 3b 53
        E 0 90 40 38
        E 0 90 51 00
        E 0 90 51 44
        E 51 90 2f 3a
        E 26 90 40 00
        E 5 90 51 00
        E 10 90 4e 00
        E 15 90 3b 00
        E 5 90 2f 00
        E 6 90 2f 4d
        E 0 90 4f 3b
        E 66 90 4f 00
        E 36 90 2f 00
        E 0 90 2f 45
        E 0 90 3b 53
        E 5 90 4b 3f
        E 72 90 4b 00
        E 20 90 2f 00
        E 11 90 34 5b
        E 5 90 3b 00
        E 0 90 40 2c
        E 61 90 40 00
        E 153 90 47 4c
        E 5 90 34 00
        E 0 90 34 41
        E 51 90 45 48
        E 21 90 34 00
        E 41 90 47 00
        E 35 90 45 00
        E 0 90 45 51
        E 62 90 39 4c
        E 5 90 48 46
        E 5 90 45 00
        E 102 90 40 46
        E 0 90 48 00
        E 0 90 48 2f
        E 5 90 3c 4e
        E 77 90 39 00
        E 10 90 4a 48
        E 10 90 3c 00
        E 0 90 3c 46
        E 0 90 40 00
        E 0 90 40 43
        E 51 90 4a 00
        E 6 90 48 00
        E 0 90 48 41
        E 46 90 40 00
        E 0 90 40 45
        E 5 90 3c 00
        E 0 90 3c 48
        E 51 90 48 00
        E 0 90 48 46
        E 21 90 40 00
        E 10 90 3c 00
        E 20 90 39 4e
        E 0 90 4c 2e
        E 0 90 51 2a
        E 5 90 48 00
        E 103 90 3c 41
        E 0 90 40 47
        E 10 90 51 00
        E 30 90 4c 00
        E 57 90 39 00
        E 5 90 4d 3c
        E 5 90 3c 00
        E 0 90 3c 47
        E 0 90 40 00
        E 0 90 40 48
        E 77 90 4d 00
        E 25 90 3c 00
        E 0 90 3c 4a
        E 0 90 4b 3e
        E 5 90 40 00
        E 0 90 40 48
        E 72 90 3c 00
        E 0 90 4b 00
        E 30 90 39 4b
        E 0 90 40 00
        E 0 90 40 37
        E 5 90 53 3f
        E 46 90 51 29
        E 21 90 53 00
        E 15 90 3c 43
        E 10 90 40 00
        E 0 90 40 3d
        E 51 90 3c 00
        E 0 90 51 00
        E 0 90 51 49
        E 57 90 39 00
        E 0 90 39 4d
        E 0 90 40 00
        E 0 90 40 36
        E 41 90 51 00
        E 0 90 51 38
        E 51 90 40 00
        E 0 90 40 3d
        E 5 90 3c 4d
        E 46 90 51 00
        E 0 90 51 57
        E 20 90 3c 00
        E 31 90 40 00
        E 0 90 54 40
        E 5 90 39 00
        E 0 90 39 51
        E 0 90 51 00
        E 0 90 51 28
        E 82 90 51 00
        E 10 90 54 00
        E 16 90 40 46
        E 5 90 3c 4b
        E 97 90 39 00
        E 10 90 51 49
        E 5 90 3c 00
        E 0 90 3c 49
        E 0 90 40 00
        E 0 90 40 44
        E 87 90 51 00
        E 21 90 3c 00
        E 0 90 3c 4c
        E 0 90 40 00
        E 0 90 40 43
        E 71 90 40 00
        E 5 90 3c 00
        E 10 90 34 4d
        E 11 90 40 29
        E 0 90 51 28
        E 92 90 34 00
        E 10 90 51 00
        E 0 90 51 45
        E 5 90 3b 5a
        E 0 90 40 00
        E 0 90 40 3a
        E 71 90 51 00
        E 36 90 40 00
        E 0 90 40 38
        E 0 90 4c 41
        E 5 90 3b 00
        E 0 90 3b 4e
        E 0 90 4f 38
        E 67 90 4c 00
        E 0 90 4f 00
        E 46 90 3b 00
        E 0 90 3b 52
        E 0 90 40 00
        E 0 90 40 3a
        E 0 90 4e 3c
        E 5 90 51 4c
        E 56 90 40 00
        E 5 90 4e 00
        E 10 90 51 00
        E 21 90 34 51
        E 5 90 3b 00
        E 0 90 3b 31
        E 5 90 51 24
        E 82 90 34 00
        E 21 90 3b 00
        E 0 90 3b 5c
        E 0 90 40 38
        E 0 90 51 00
        E 0 90 51 41
        E 66 90 51 00
        E 46 90 3b 00
        E 0 90 3b 53
        E 0 90 40 00
        E 0 90 40 3d
        E 0 90 4c 38
        E 61 90 4c 00
        E 46 90 3b 00
        E 0 90 3b 5b
        E 0 90 40 00
        E 0 90 40 3c
        E 0 90 51 4a
        E 62 90 40 00
        E 10 90 51 00
        E 15 90 34 50
        E 5 90 3b 00
        E 97 90 34 00
        E 5 90 4e 39
        E 11 90 51 48
        E 5 90 3b 51
        E 0 90 40 36
        E 30 90 2f 3f
        E 16 90 4e 00
        E 35 90 40 00
        E 6 90 51 00
        E 15 90 2f 00
        E 0 90 3b 00
        E 0 90 3b 2e
        E 0 90 4c 2d
        E 5 90 2f 59
        E 0 90 4f 3c
        E 72 90 4f 00
        E 5 90 4c 00
        E 25 90 2f 00
        E 0 90 2f 45
        E 0 90 3b 00
        E 0 90 3b 43
        E 0 90 4b 3d
        E 0 90 4e 3b
        E 67 90 4e 00
        E 10 90 4b 00
        E 25 90 2f 00
        E 11 90 4c 33
        E 5 90 34 57
        E 0 90 40 2b
        E 56 90 3b 00
        E 16 90 40 00
        E 5 90 4c 00
        E 138 90 48 49
        E 0 90 4c 3c
        E 0 90 58 3a
        E 82 90 4c 00
        E 5 90 48 00
        E 0 90 58 00
        E 10 90 34 00
        E 10 90 4d 49
        E 5 90 4a 39
        E 87 90 4a 00
        E 10 90 4d 00
        E 5 90 30 4e
        E 5 90 4c 30
        E 0 90 4f 3b
        E 6 90 3c 3f
        E 76 90 4f 00
        E 26 90 3c 00
        E 0 90 3c 53
        E 0 90 4c 00
        E 0 90 4c 38
        E 15 90 30 00
        E 0 90 30 45
        E 72 90 4c 00
        E 10 90 30 00
        E 5 90 3c 00
        E 5 90 34 50
        E 5 90 51 2c
        E 56 90 4f 3e
        E 16 90 51 00
        E 20 90 40 35
        E 5 90 4d 3f
        E 10 90 34 00
        E 16 90 4f 00
        E 35 90 4d 00
        E 21 90 40 00
        E 25 90 37 46
        E 6 90 43 2b
        E 5 90 47 41
        E 102 90 43 00
        E 0 90 43 40
        E 87 90 43 00
        E 5 90 47 00
        E 16 90 4c 38
        E 5 90 48 3a
        E 61 90 48 00
        E 21 90 4c 00
        E 25 90 4d 3b
        E 66 90 37 00
        E 6 90 4d 00
        E 140 b0 7b 00
        CCINTERP 32
        CHASE_CC_TAKEOFFS 1
        GUID {D81AC7B1-CD97-48AA-B135-787182279C8D}
        IGNTEMPO 0 120 4 4
        SRCCOLOR 15
        VELLANE -1 100 0
      >
    >
  >
  <UINF 6
    <ITEM {0029A8D1-A5E3-48A8-B612-E4E794EE7651}
      POSITION 0
      SNAPOFFS 0
      LENGTH 173
      LOOP 1
      ALLTAKES 0
      FADEIN 1 0 0 1 0 0 0
      FADEOUT 1 0 0 1 0 0 0
      MUTE 0 0
      SEL 0
      IGUID {0029A8D1-A5E3-48A8-B612-E4E794EE7651}
      IID 18
      NAME beethoven_fur_elise_basic_pitch.mid
      VOLPAN 0 0 1 -1
      SOFFS 0 0
      PLAYRATE 1 1 0 -1 0 0.0025
      CHANMODE 0
      GUID {CD9A8F1E-51A9-4041-90E8-CB3B5E1BC3F2}
      <SOURCE MIDI
        HASDATA 1 220 QN
        CCINTERP 32
        POOLEDEVTS {E60F98EB-7F14-4D81-9CEC-C134AC89895C}
        E 0 c0 04 00
        E 2842 e0 2b 15
        E 0 90 2d 31
        E 5 e0 00 20
        E 6 e0 55 2a
        E 5 e0 2b 35
        E 5 e0 55 2a
        E 6 e0 55 2a
        E 5 e0 55 2a
        E 6 e0 00 20
        E 5 e0 00 20
        E 5 e0 00 20
        E 6 e0 00 20
        E 5 e0 55 2a
        E 5 e0 55 2a
        E 6 e0 55 2a
        E 5 e0 55 2a
        E 6 e0 55 2a
        E 5 e0 00 20
        E 5 e0 00 20
        E 6 e0 00 20
        E 5 e0 00 20
        E 0 90 2d 00
        E 67 e0 55 6a
        E 0 90 39 1b
        E 5 e0 55 2a
        E 6 e0 55 2a
        E 5 e0 55 2a
        E 6 e0 00 20
        E 5 e0 00 20
        E 6 e0 55 2a
        E 5 e0 55 2a
        E 6 e0 55 2a
        E 5 e0 00 20
        E 6 e0 00 20
        E 5 e0 00 20
        E 6 e0 00 20
        E 5 e0 55 6a
        E 0 90 39 00
        E 123 e0 55 2a
        E 0 90 28 23
        E 5 e0 55 2a
        E 6 e0 55 2a
        E 5 e0 55 2a
        E 6 e0 55 2a
        E 5 e0 55 2a
        E 5 e0 55 2a
        E 6 e0 55 2a
        E 5 e0 55 2a
        E 6 e0 55 2a
        E 5 e0 55 2a
        E 6 e0 55 2a
        E 5 e0 00 20
        E 6 e0 00 20
        E 5 e0 00 20
        E 0 90 28 00
        E 5 e0 00 20
        E 0 90 28 31
        E 6 e0 00 20
        E 5 e0 00 20
        E 6 e0 00 20
        E 5 e0 00 20
        E 5 e0 55 2a
        E 6 e0 55 2a
        E 5 e0 55 2a
        E 5 e0 55 2a
        E 6 e0 55 2a
        E 5 e0 55 2a
        E 6 e0 55 2a
        E 5 e0 55 2a
        E 5 e0 00 20
        E 6 e0 00 20
        E 5 e0 00 20
        E 5 e0 00 20
        E 6 e0 00 20
        E 5 e0 55 2a
        E 6 e0 55 2a
        E 0 90 28 00
        E 128 e0 55 2a
        E 0 90 40 24
        E 5 e0 55 2a
        E 6 e0 55 2a
        E 5 e0 55 2a
        E 6 e0 55 2a
        E 5 e0 55 2a
        E 6 e0 55 2a
        E 5 e0 55 2a
        E 5 e0 00 20
        E 6 e0 00 20
        E 5 e0 55 2a
        E 6 e0 00 20
        E 5 e0 55 4a
        E 6 e0 00 20
        E 5 e0 55 2a
        E 6 e0 55 2a
        E 0 90 40 00
        E 117 e0 55 2a
        E 0 90 2d 30
        E 5 e0 2b 35
        E 6 e0 2b 35
        E 5 e0 2b 35
        E 6 e0 55 2a
        E 5 e0 55 2a
        E 5 e0 55 2a
        E 6 e0 55 2a
        E 5 e0 55 2a
        E 5 e0 55 2a
        E 6 e0 55 2a
        E 5 e0 55 2a
        E 5 e0 00 20
        E 6 e0 00 20
        E 5 e0 00 20
        E 6 e0 00 20
        E 5 e0 00 20
        E 5 e0 00 20
        E 6 e0 55 2a
        E 5 e0 55 2a
        E 5 e0 55 2a
        E 0 90 2d 00
        E 159 90 39 1d
        E 5 90 40 24
        E 76 90 39 00
        E 6 90 40 00
        E 358 e0 00 20
        E 0 90 47 1a
        E 5 e0 55 2a
        E 6 e0 55 2a
        E 5 e0 55 2a
        E 6 e0 55 2a
        E 5 e0 55 2a
        E 6 e0 55 2a
        E 5 e0 55 2a
        E 6 e0 55 2a
        E 5 e0 00 20
        E 6 e0 00 20
        E 5 e0 55 6a
        E 6 e0 55 6a
        E 5 e0 55 6a
        E 0 90 47 00
        E 440 90 40 23
        E 56 90 28 20
        E 20 90 40 00
        E 56 90 28 00
        E 5 90 28 2d
        E 11 90 47 1e
        E 76 90 47 00
        E 11 90 28 00
        E 388 e0 00 20
        E 0 90 2d 21
        E 6 e0 00 20
        E 5 e0 00 20
        E 5 e0 55 2a
        E 5 e0 55 2a
        E 5 e0 55 2a
        E 6 e0 55 2a
        E 5 e0 55 2a
        E 5 e0 55 2a
        E 5 e0 00 20
        E 5 e0 55 2a
        E 6 e0 55 2a
        E 5 e0 55 2a
        E 5 e0 55 2a
        E 5 e0 55 2a
        E 6 e0 00 20
        E 5 e0 00 20
        E 5 e0 00 20
        E 5 e0 00 20
        E 5 e0 00 20
        E 6 e0 00 20
        E 5 e0 00 20
        E 5 e0 00 20
        E 5 e0 00 20
        E 5 e0 00 20
        E 6 e0 00 20
        E 5 e0 55 2a
        E 5 e0 55 2a
        E 5 e0 55 2a
        E 6 e0 55 2a
        E 5 e0 55 2a
        E 5 e0 55 2a
        E 5 e0 55 2a
        E 5 e0 00 20
        E 6 e0 00 20
        E 5 e0 55 2a
        E 5 e0 55 2a
        E 5 e0 55 2a
        E 5 e0 55 2a
        E 6 e0 55 2a
        E 5 e0 55 2a
        E 5 e0 55 6a
        E 5 e0 55 2a
        E 6 e0 55 2a
        E 5 e0 00 20
        E 5 e0 00 20
        E 5 e0 00 20
        E 5 e0 00 20
        E 6 e0 55 2a
        E 0 90 2d 00
        E 383 e0 55 4a
        E 0 90 45 11
        E 6 e0 00 40
        E 5 e0 2b 35
        E 6 e0 2b 35
        E 5 e0 55 2a
        E 6 e0 55 2a
        E 5 e0 55 2a
        E 6 e0 55 2a
        E 5 e0 55 2a
        E 6 e0 55 2a
        E 5 e0 55 4a
        E 6 e0 2b 55
        E 5 e0 2b 55
        E 6 e0 55 4a
        E 0 90 45 00
        E 143 e0 00 20
        E 0 90 47 24
        E 5 e0 55 2a
        E 6 e0 55 2a
        E 5 e0 55 2a
        E 6 e0 55 2a
        E 5 e0 55 6a
        E 6 e0 55 4a
        E 5 e0 55 2a
        E 5 e0 55 2a
        E 6 e0 55 2a
        E 5 e0 55 2a
        E 6 e0 55 2a
        E 5 e0 2b 55
        E 6 e0 55 4a
        E 5 e0 55 2a
        E 6 e0 55 2a
        E 0 90 47 00
        E 132 e0 55 2a
        E 0 90 2d 2a
        E 6 e0 55 2a
        E 5 e0 55 2a
        E 6 e0 55 2a
        E 5 e0 55 2a
        E 5 e0 55 2a
        E 6 e0 55 2a
        E 5 e0 00 20
        E 6 e0 00 20
        E 5 e0 55 2a
        E 6 e0 55 2a
        E 5 e0 55 2a
        E 5 e0 00 20
        E 6 e0 00 20
        E 5 e0 00 20
        E 6 e0 00 20
        E 5 e0 00 20
        E 5 e0 00 20
        E 0 90 2d 00
        E 220 e0 00 20
        E 0 90 40 23
        E 5 e0 55 2a
        E 5 e0 55 2a
        E 5 e0 55 2a
        E 6 e0 55 2a
        E 5 e0 55 2a
        E 5 e0 55 2a
        E 5 e0 55 2a
        E 5 e0 55 2a
        E 5 e0 00 20
        E 6 e0 00 20
        E 5 e0 00 20
        E 5 e0 55 6a
        E 5 e0 55 6a
        E 5 e0 55 6a
        E 5 e0 55 2a
        E 0 90 40 00
        E 51 90 34 29
        E 11 90 28 2b
        E 91 90 28 00
        E 11 90 34 00
        E 209 90 28 19
        E 5 90 44 28
        E 72 90 28 00
        E 10 90 44 00
        E 971 e0 2b 15
        E 0 90 2d 2f
        E 6 e0 00 20
        E 5 e0 55 2a
        E 5 e0 2b 35
        E 6 e0 2b 35
        E 5 e0 55 2a
        E 5 e0 55 2a
        E 6 e0 55 2a
        E 5 e0 55 2a
        E 6 e0 55 2a
        E 5 e0 55 2a
        E 5 e0 00 20
        E 6 e0 00 20
        E 5 e0 00 20
        E 5 e0 00 20
        E 6 e0 00 20
        E 5 e0 00 20
        E 6 e0 00 20
        E 5 e0 55 2a
        E 5 e0 55 2a
        E 0 90 2d 00
        E 221 90 40 24
        E 56 90 28 22
        E 25 90 40 00
        E 51 90 34 2d
        E 5 90 28 00
        E 6 90 28 33
        E 92 90 28 00
        E 5 90 34 00
        E 357 e0 2b 55
        E 0 90 2d 30
        E 6 e0 55 2a
        E 5 e0 55 2a
        E 5 e0 55 2a
        E 5 e0 55 2a
        E 6 e0 55 2a
        E 5 e0 55 2a
        E 5 e0 55 2a
        E 6 e0 2b 35
        E 5 e0 55 2a
        E 5 e0 55 2a
        E 6 e0 55 2a
        E 5 e0 55 2a
        E 5 e0 55 2a
        E 6 e0 55 2a
        E 5 e0 00 20
        E 5 e0 00 20
        E 6 e0 00 20
        E 5 e0 00 20
        E 5 e0 55 2a
        E 5 e0 00 20
        E 6 e0 00 20
        E 5 e0 00 20
        E 5 e0 00 20
        E 6 e0 00 20
        E 5 e0 00 20
        E 0 90 2d 00
        E 384 e0 2b 15
        E 0 90 30 2b
        E 5 e0 55 2a
        E 5 e0 2b 35
        E 6 e0 2b 35
        E 5 e0 55 2a
        E 5 e0 00 20
        E 5 e0 00 20
        E 6 e0 55 2a
        E 5 e0 55 2a
        E 5 e0 55 2a
        E 5 e0 55 2a
        E 6 e0 55 2a
        E 5 e0 55 2a
        E 5 e0 55 2a
        E 5 e0 55 6a
        E 6 e0 55 2a
        E 5 e0 55 2a
        E 5 e0 00 20
        E 5 e0 00 20
        E 6 e0 55 2a
        E 5 e0 55 2a
        E 5 e0 55 2a
        E 5 e0 55 2a
        E 6 e0 00 20
        E 5 e0 00 20
        E 5 e0 00 20
        E 5 e0 00 20
        E 6 e0 00 20
        E 5 e0 00 20
        E 5 e0 00 20
        E 5 e0 00 20
        E 6 e0 00 20
        E 5 e0 55 2a
        E 5 e0 55 2a
        E 6 e0 55 2a
        E 0 90 30 00
        E 367 e0 00 20
        E 0 90 2b 2f
        E 5 e0 00 20
        E 6 e0 00 20
        E 5 e0 55 2a
        E 5 e0 55 2a
        E 5 e0 55 2a
        E 5 e0 55 2a
        E 5 e0 00 20
        E 5 e0 00 20
        E 6 e0 00 20
        E 5 e0 00 20
        E 5 e0 00 20
        E 5 e0 00 20
        E 5 e0 00 20
        E 5 e0 00 20
        E 6 e0 55 2a
        E 0 90 2b 00
        E 296 e0 2b 35
        E 0 90 2d 34
        E 5 e0 55 2a
        E 5 e0 55 2a
        E 6 e0 00 20
        E 5 e0 00 20
        E 6 e0 00 20
        E 5 e0 00 20
        E 5 e0 55 2a
        E 6 e0 55 2a
        E 5 e0 55 2a
        E 5 e0 55 2a
        E 6 e0 55 2a
        E 5 e0 55 2a
        E 5 e0 55 2a
        E 6 e0 55 2a
        E 5 e0 55 2a
        E 5 e0 55 2a
        E 6 e0 55 2a
        E 5 e0 55 2a
        E 5 e0 00 20
        E 6 e0 00 20
        E 5 e0 00 20
        E 5 e0 55 2a
        E 0 90 2d 00
        E 573 e0 00 20
        E 0 90 40 26
        E 5 e0 55 2a
        E 6 e0 55 2a
        E 5 e0 55 2a
        E 6 e0 55 2a
        E 5 e0 55 2a
        E 5 e0 55 2a
        E 6 e0 55 2a
        E 5 e0 55 2a
        E 6 e0 55 2a
        E 5 e0 55 2a
        E 6 e0 55 2a
        E 5 e0 55 2a
        E 5 e0 00 20
        E 6 e0 00 20
        E 5 e0 00 20
        E 6 e0 00 20
        E 5 e0 55 2a
        E 0 90 40 00
        E 66 e0 55 4a
        E 0 90 40 21
        E 6 e0 55 2a
        E 5 e0 55 2a
        E 6 e0 55 2a
        E 5 e0 55 2a
        E 6 e0 55 2a
        E 5 e0 55 2a
        E 6 e0 55 2a
        E 5 e0 55 2a
        E 5 e0 55 2a
        E 6 e0 55 2a
        E 5 e0 55 2a
        E 6 e0 00 20
        E 5 e0 55 4a
        E 6 e0 00 20
        E 5 e0 00 20
        E 0 90 40 00
        E 838 e0 55 4a
        E 0 90 4c 1e
        E 6 e0 55 4a
        E 5 e0 2b 15
        E 6 e0 2b 15
        E 5 e0 2b 15
        E 6 e0 55 6a
        E 5 e0 55 6a
        E 6 e0 55 6a
        E 5 e0 55 6a
        E 5 e0 55 4a
        E 6 e0 55 4a
        E 5 e0 00 40
        E 6 e0 00 40
        E 5 e0 00 40
        E 6 e0 00 40
        E 5 e0 55 2a
        E 0 90 4c 00
        E 61 e0 2b 55
        E 0 90 4b 1b
        E 6 e0 00 20
        E 5 e0 2b 35
        E 6 e0 2b 35
        E 5 e0 2b 35
        E 6 e0 55 2a
        E 5 e0 55 2a
        E 6 e0 55 2a
        E 5 e0 00 20
        E 6 e0 00 20
        E 5 e0 00 20
        E 6 e0 2b 55
        E 5 e0 2b 55
        E 6 e0 2b 55
        E 0 90 4b 00
        E 430 e0 55 2a
        E 0 90 2d 31
        E 5 e0 00 20
        E 5 e0 00 20
        E 6 e0 55 2a
        E 5 e0 2b 35
        E 5 e0 2b 35
        E 6 e0 55 2a
        E 5 e0 55 2a
        E 5 e0 55 2a
        E 6 e0 55 2a
        E 5 e0 55 2a
        E 6 e0 55 2a
        E 5 e0 55 2a
        E 5 e0 00 20
        E 6 e0 00 20
        E 5 e0 00 20
        E 5 e0 00 20
        E 6 e0 00 20
        E 5 e0 00 20
        E 5 e0 55 2a
        E 6 e0 55 2a
        E 5 e0 55 2a
        E 0 90 2d 00
        E 61 e0 55 6a
        E 0 90 39 1f
        E 6 e0 00 20
        E 5 e0 55 2a
        E 6 e0 55 2a
        E 5 e0 55 2a
        E 6 e0 00 20
        E 5 e0 55 2a
        E 5 e0 55 2a
        E 6 e0 55 2a
        E 5 e0 55 2a
        E 6 e0 00 20
        E 5 e0 00 20
        E 6 e0 55 6a
        E 5 e0 55 6a
        E 6 e0 55 2a
        E 5 e0 55 2a
        E 0 90 39 00
        E 204 e0 00 20
        E 0 90 28 29
        E 6 e0 00 20
        E 5 e0 55 2a
        E 6 e0 55 2a
        E 5 e0 55 2a
        E 5 e0 00 20
        E 6 e0 00 20
        E 5 e0 00 20
        E 6 e0 00 20
        E 5 e0 55 2a
        E 6 e0 55 2a
        E 5 e0 55 2a
        E 5 e0 55 2a
        E 6 e0 00 20
        E 5 e0 00 20
        E 6 e0 00 20
        E 5 e0 00 20
        E 5 e0 55 2a
        E 0 90 28 00
        E 143 e0 00 20
        E 0 90 40 21
        E 6 e0 00 20
        E 5 e0 55 2a
        E 6 e0 55 2a
        E 5 e0 55 2a
        E 6 e0 55 2a
        E 5 e0 55 2a
        E 6 e0 55 2a
        E 5 e0 55 2a
        E 6 e0 55 2a
        E 5 e0 55 2a
        E 6 e0 55 2a
        E 5 e0 55 2a
        E 6 e0 00 20
        E 5 e0 55 2a
        E 0 90 40 00
        E 128 e0 55 0a
        E 0 90 2d 2a
        E 6 e0 2b 35
        E 5 e0 2b 35
        E 5 e0 2b 35
        E 6 e0 55 2a
        E 5 e0 55 2a
        E 5 e0 55 2a
        E 6 e0 55 2a
        E 5 e0 00 20
        E 6 e0 00 20
        E 5 e0 00 20
        E 5 e0 00 20
        E 6 e0 00 20
        E 5 e0 00 20
        E 5 e0 00 20
        E 6 e0 00 20
        E 5 e0 00 20
        E 5 e0 00 20
        E 6 e0 55 2a
        E 5 e0 55 2a
        E 6 e0 55 2a
        E 0 90 2d 00
        E 158 90 40 28
        E 20 90 39 11
        E 62 90 39 00
        E 10 90 40 00
        E 286 90 4c 1e
        E 71 90 47 24
        E 6 90 4c 00
        E 72 90 47 00
        E 291 e0 55 6a
        E 0 90 39 22
        E 5 e0 55 6a
        E 5 e0 2b 15
        E 6 e0 00 20
        E 5 e0 55 2a
        E 5 e0 55 2a
        E 6 e0 55 2a
        E 5 e0 55 2a
        E 5 e0 55 2a
        E 6 e0 55 2a
        E 5 e0 55 2a
        E 5 e0 00 20
        E 6 e0 00 20
        E 5 e0 00 20
        E 5 e0 00 20
        E 5 e0 00 20
        E 6 e0 55 2a
        E 5 e0 55 2a
        E 5 e0 55 2a
        E 6 e0 55 2a
        E 5 e0 55 2a
        E 5 e0 55 2a
        E 6 e0 55 2a
        E 5 e0 55 2a
        E 5 e0 55 2a
        E 5 e0 55 2a
        E 6 e0 55 2a
        E 0 90 39 00
        E 82 e0 00 20
        E 0 90 28 1c
        E 5 e0 55 2a
        E 6 e0 55 2a
        E 5 e0 55 2a
        E 6 e0 55 2a
        E 5 e0 55 2a
        E 6 e0 00 60
        E 5 e0 00 60
        E 6 e0 00 20
        E 5 e0 2b 35
        E 6 e0 00 40
        E 5 e0 55 4a
        E 6 e0 2b 15
        E 5 e0 00 20
        E 0 90 28 00
        E 5 e0 00 20
        E 0 90 28 2b
        E 6 e0 00 20
        E 5 e0 55 2a
        E 5 e0 55 2a
        E 6 e0 55 2a
        E 5 e0 55 2a
        E 5 e0 55 2a
        E 6 e0 55 2a
        E 5 e0 55 2a
        E 6 e0 55 2a
        E 5 e0 55 2a
        E 5 e0 55 2a
        E 6 e0 55 2a
        E 5 e0 00 20
        E 6 e0 00 20
        E 5 e0 00 20
        E 5 e0 00 20
        E 6 e0 55 2a
        E 5 e0 55 2a
        E 0 90 28 00
        E 56 90 28 25
        E 21 90 38 27
        E 72 90 28 00
        E 0 90 38 00
        E 741 e0 55 2a
        E 0 90 30 2e
        E 5 e0 55 2a
        E 5 e0 2b 35
        E 6 e0 55 2a
        E 5 e0 55 2a
        E 6 e0 00 20
        E 5 e0 55 2a
        E 5 e0 55 2a
        E 6 e0 55 2a
        E 5 e0 55 2a
        E 5 e0 55 2a
        E 6 e0 55 2a
        E 5 e0 55 2a
        E 6 e0 55 2a
        E 5 e0 55 2a
        E 5 e0 00 20
        E 6 e0 00 20
        E 5 e0 00 20
        E 5 e0 55 2a
        E 6 e0 55 2a
        E 0 90 30 00
        E 51 90 30 26
        E 0 90 3c 28
        E 16 90 37 1e
        E 76 90 3c 00
        E 5 90 30 00
        E 0 90 37 00
        E 200 e0 2b 15
        E 0 90 2b 32
        E 5 e0 55 6a
        E 6 e0 55 6a
        E 5 e0 00 20
        E 5 e0 55 2a
        E 6 e0 55 2a
        E 5 e0 55 2a
        E 5 e0 00 20
        E 6 e0 00 20
        E 5 e0 00 20
        E 6 e0 00 20
        E 5 e0 00 20
        E 5 e0 00 20
        E 6 e0 00 20
        E 5 e0 00 20
        E 6 e0 55 2a
        E 5 e0 55 2a
        E 5 e0 55 2a
        E 6 e0 55 2a
        E 0 90 2b 00
        E 362 e0 55 2a
        E 0 90 2d 2d
        E 6 e0 00 20
        E 5 e0 00 20
        E 5 e0 00 20
        E 5 e0 55 2a
        E 5 e0 55 2a
        E 5 e0 55 2a
        E 5 e0 55 2a
        E 6 e0 55 2a
        E 5 e0 55 2a
        E 5 e0 55 2a
        E 5 e0 55 2a
        E 5 e0 55 2a
        E 5 e0 55 2a
        E 5 e0 00 20
        E 6 e0 00 20
        E 5 e0 00 20
        E 5 e0 55 6a
        E 5 e0 00 20
        E 5 e0 00 20
        E 5 e0 55 2a
        E 0 90 2d 00
        E 307 e0 00 20
        E 0 90 28 2b
        E 5 e0 00 20
        E 6 e0 00 20
        E 5 e0 00 20
        E 5 e0 55 2a
        E 6 e0 2b 35
        E 5 e0 2b 35
        E 6 e0 2b 35
        E 5 e0 2b 35
        E 5 e0 2b 35
        E 6 e0 55 2a
        E 5 e0 00 20
        E 6 e0 2b 15
        E 5 e0 2b 15
        E 5 e0 2b 15
        E 6 e0 00 20
        E 5 e0 55 2a
        E 6 e0 55 2a
        E 0 90 28 00
        E 316 e0 00 20
        E 0 90 40 1d
        E 6 e0 00 20
        E 5 e0 55 2a
        E 5 e0 55 2a
        E 5 e0 55 2a
        E 5 e0 55 2a
        E 5 e0 55 2a
        E 5 e0 55 2a
        E 5 e0 55 2a
        E 6 e0 55 2a
        E 5 e0 55 2a
        E 5 e0 55 2a
        E 5 e0 55 2a
        E 5 e0 00 20
        E 5 e0 2b 15
        E 5 e0 55 0a
        E 5 e0 55 6a
        E 6 e0 55 2a
        E 5 e0 55 2a
        E 5 e0 55 2a
        E 5 e0 55 2a
        E 5 e0 55 2a
        E 5 e0 55 2a
        E 5 e0 55 2a
        E 5 e0 55 2a
        E 6 e0 55 2a
        E 5 e0 55 2a
        E 5 e0 55 2a
        E 5 e0 00 20
        E 5 e0 00 20
        E 5 e0 00 20
        E 5 e0 00 20
        E 5 e0 55 2a
        E 6 e0 55 2a
        E 5 e0 55 2a
        E 0 90 40 00
        E 1185 e0 55 2a
        E 0 90 47 26
        E 6 e0 55 2a
        E 5 e0 55 2a
        E 6 e0 55 2a
        E 5 e0 55 2a
        E 6 e0 00 20
        E 5 e0 55 2a
        E 5 e0 55 2a
        E 6 e0 55 2a
        E 5 e0 00 20
        E 6 e0 2b 15
        E 5 e0 2b 15
        E 6 e0 55 4a
        E 5 e0 55 4a
        E 6 e0 00 40
        E 5 e0 55 2a
        E 0 90 47 00
        E 291 e0 55 6a
        E 0 90 39 25
        E 6 e0 00 20
        E 5 e0 00 20
        E 6 e0 55 2a
        E 5 e0 55 2a
        E 6 e0 55 2a
        E 5 e0 55 2a
        E 6 e0 00 20
        E 5 e0 00 20
        E 6 e0 00 20
        E 5 e0 00 20
        E 6 e0 55 2a
        E 5 e0 55 2a
        E 6 e0 55 2a
        E 0 90 39 00
        E 76 e0 00 20
        E 0 90 40 23
        E 6 e0 55 2a
        E 5 e0 55 2a
        E 5 e0 55 2a
        E 5 e0 55 2a
        E 5 e0 55 2a
        E 5 e0 55 2a
        E 5 e0 55 2a
        E 6 e0 55 2a
        E 5 e0 55 2a
        E 5 e0 00 20
        E 5 e0 00 20
        E 5 e0 00 20
        E 5 e0 00 20
        E 5 e0 55 2a
        E 0 90 40 00
        E 302 90 28 1f
        E 10 90 40 24
        E 10 90 38 1f
        E 62 90 28 00
        E 5 90 38 00
        E 0 90 40 00
        E 138 e0 55 2a
        E 0 90 2d 2f
        E 5 e0 55 2a
        E 5 e0 55 2a
        E 6 e0 55 2a
        E 5 e0 55 2a
        E 5 e0 55 2a
        E 6 e0 55 2a
        E 5 e0 55 2a
        E 6 e0 00 20
        E 5 e0 00 20
        E 5 e0 00 20
        E 6 e0 00 20
        E 5 e0 00 20
        E 5 e0 55 2a
        E 6 e0 55 2a
        E 5 e0 00 20
        E 5 e0 00 20
        E 6 e0 00 20
        E 5 e0 00 20
        E 6 e0 00 20
        E 5 e0 55 2a
        E 0 90 2d 00
        E 153 e0 00 20
        E 0 90 40 24
        E 5 e0 55 2a
        E 5 e0 55 2a
        E 6 e0 55 2a
        E 5 e0 55 2a
        E 5 e0 55 2a
        E 5 e0 55 2a
        E 5 e0 55 2a
        E 5 e0 55 2a
        E 5 e0 55 2a
        E 6 e0 55 2a
        E 5 e0 00 20
        E 5 e0 00 20
        E 5 e0 2b 55
        E 5 e0 55 4a
        E 5 e0 55 2a
        E 5 e0 55 2a
        E 0 90 40 00
        E 751 e0 00 20
        E 0 90 39 1e
        E 6 e0 55 2a
        E 5 e0 55 2a
        E 5 e0 55 2a
        E 5 e0 00 20
        E 5 e0 00 20
        E 5 e0 00 20
        E 5 e0 00 20
        E 6 e0 00 20
        E 5 e0 55 2a
        E 5 e0 55 2a
        E 5 e0 55 2a
        E 5 e0 55 6a
        E 5 e0 55 6a
        E 5 e0 55 2a
        E 0 90 39 00
        E 123 90 28 26
        E 77 90 3b 2f
        E 5 90 28 00
        E 5 90 28 25
        E 51 90 3b 00
        E 41 90 28 00
        E 220 e0 55 6a
        E 0 90 28 1e
        E 5 e0 55 6a
        E 5 e0 55 2a
        E 6 e0 55 2a
        E 5 e0 55 2a
        E 6 e0 55 2a
        E 5 e0 55 2a
        E 6 e0 55 2a
        E 5 e0 55 2a
        E 6 e0 55 2a
        E 5 e0 55 2a
        E 5 e0 00 20
        E 6 e0 00 20
        E 5 e0 00 20
        E 6 e0 00 20
        E 5 e0 00 20
        E 0 90 28 00
        E 1427 e0 55 2a
        E 0 90 3a 37
        E 5 e0 2b 35
        E 6 e0 2b 35
        E 5 e0 55 2a
        E 6 e0 55 2a
        E 5 e0 55 2a
        E 6 e0 55 2a
        E 5 e0 55 2a
        E 6 e0 00 20
        E 5 e0 00 60
        E 6 e0 00 60
        E 6 e0 55 6a
        E 5 e0 00 20
        E 0 90 3a 00
        E 1947 90 4c 19
        E 92 90 39 23
        E 46 90 4c 00
        E 46 90 39 00
        E 507 e0 2b 15
        E 0 90 37 2b
        E 5 e0 2b 15
        E 5 e0 2b 15
        E 6 e0 55 2a
        E 5 e0 55 2a
        E 5 e0 55 2a
        E 6 e0 55 2a
        E 5 e0 55 2a
        E 5 e0 55 2a
        E 6 e0 55 2a
        E 5 e0 00 20
        E 6 e0 00 20
        E 5 e0 00 20
        E 5 e0 00 20
        E 6 e0 55 2a
        E 5 e0 55 2a
        E 5 e0 00 20
        E 6 e0 55 6a
        E 5 e0 55 4a
        E 5 e0 55 4a
        E 6 e0 55 2a
        E 5 e0 55 2a
        E 0 90 37 00
        E 537 e0 2b 35
        E 0 90 43 19
        E 5 e0 2b 35
        E 6 e0 2b 35
        E 5 e0 2b 35
        E 6 e0 2b 35
        E 5 e0 55 2a
        E 5 e0 55 2a
        E 6 e0 00 60
        E 5 e0 55 6a
        E 5 e0 2b 75
        E 6 e0 55 2a
        E 5 e0 55 2a
        E 6 e0 55 2a
        E 5 e0 55 2a
        E 5 e0 55 2a
        E 6 e0 55 2a
        E 5 e0 55 2a
        E 5 e0 55 2a
        E 6 e0 00 20
        E 5 e0 00 20
        E 0 90 43 00
        E 0 90 43 23
        E 6 e0 55 2a
        E 5 e0 55 2a
        E 6 e0 2b 35
        E 5 e0 2b 35
        E 6 e0 55 2a
        E 6 e0 55 2a
        E 5 e0 55 2a
        E 6 e0 55 6a
        E 5 e0 55 6a
        E 6 e0 2b 75
        E 5 e0 55 2a
        E 0 90 43 00
        E 36 90 43 25
        E 108 90 3c 22
        E 0 90 4c 1a
        E 15 90 43 00
        E 51 90 4c 00
        E 41 90 3c 00
        E 608 e0 2b 15
        E 0 90 43 3c
        E 6 e0 2b 15
        E 5 e0 2b 15
        E 6 e0 55 2a
        E 5 e0 55 2a
        E 6 e0 55 2a
        E 5 e0 55 2a
        E 6 e0 55 2a
        E 6 e0 55 2a
        E 5 e0 55 2a
        E 6 e0 55 4a
        E 5 e0 55 4a
        E 6 e0 00 20
        E 0 90 43 00
        E 92 e0 2b 55
        E 0 90 43 23
        E 5 e0 55 4a
        E 6 e0 2b 35
        E 5 e0 2b 35
        E 6 e0 2b 35
        E 5 e0 55 2a
        E 6 e0 55 2a
        E 6 e0 55 4a
        E 5 e0 55 4a
        E 6 e0 55 4a
        E 5 e0 00 40
        E 6 e0 2b 35
        E 0 90 43 00
        E 41 90 4f 12
        E 51 90 43 2d
        E 56 90 4f 00
        E 5 90 43 00
        E 41 90 43 1a
        E 51 90 4f 17
        E 15 90 43 00
        E 36 90 3c 24
        E 62 90 4f 00
        E 51 90 3c 00
        E 644 e0 55 2a
        E 0 90 38 20
        E 5 e0 55 2a
        E 6 e0 55 2a
        E 5 e0 55 2a
        E 6 e0 55 2a
        E 5 e0 55 2a
        E 6 e0 55 2a
        E 5 e0 00 20
        E 6 e0 00 20
        E 5 e0 55 6a
        E 6 e0 55 2a
        E 5 e0 55 2a
        E 5 e0 55 2a
        E 6 e0 55 2a
        E 5 e0 55 2a
        E 0 90 38 00
        E 62 e0 00 40
        E 0 90 4c 1a
        E 5 e0 55 2a
        E 5 e0 55 2a
        E 5 e0 55 2a
        E 5 e0 55 2a
        E 5 e0 55 2a
        E 6 e0 55 2a
        E 5 e0 55 2a
        E 5 e0 55 2a
        E 5 e0 55 2a
        E 5 e0 55 2a
        E 5 e0 55 2a
        E 6 e0 55 4a
        E 5 e0 2b 35
        E 0 90 4c 00
        E 3281 e0 00 20
        E 0 90 47 29
        E 5 e0 55 2a
        E 6 e0 55 2a
        E 5 e0 55 2a
        E 6 e0 55 2a
        E 5 e0 55 2a
        E 6 e0 00 20
        E 5 e0 00 20
        E 6 e0 00 20
        E 5 e0 00 20
        E 5 e0 00 20
        E 6 e0 55 4a
        E 5 e0 55 4a
        E 6 e0 55 4a
        E 5 e0 55 2a
        E 6 e0 55 2a
        E 0 90 47 00
        E 117 e0 55 2a
        E 0 90 2d 32
        E 5 e0 00 20
        E 5 e0 55 2a
        E 6 e0 2b 35
        E 5 e0 2b 35
        E 5 e0 55 2a
        E 5 e0 55 2a
        E 5 e0 00 20
        E 5 e0 55 2a
        E 5 e0 55 2a
        E 6 e0 55 2a
        E 5 e0 55 2a
        E 5 e0 55 2a
        E 5 e0 55 2a
        E 5 e0 55 2a
        E 5 e0 55 2a
        E 5 e0 00 20
        E 6 e0 55 2a
        E 5 e0 55 2a
        E 0 90 2d 00
        E 56 e0 00 20
        E 0 90 39 29
        E 5 e0 00 60
        E 6 e0 00 20
        E 5 e0 55 2a
        E 6 e0 55 2a
        E 5 e0 55 2a
        E 6 e0 55 2a
        E 5 e0 55 2a
        E 6 e0 55 2a
        E 5 e0 55 2a
        E 5 e0 55 2a
        E 6 e0 00 20
        E 5 e0 55 2a
        E 6 e0 55 2a
        E 5 e0 55 2a
        E 6 e0 55 2a
        E 0 90 39 00
        E 61 90 40 2b
        E 51 90 28 23
        E 26 90 40 00
        E 46 90 28 00
        E 5 e0 55 2a
        E 0 90 28 27
        E 5 e0 00 20
        E 5 e0 55 2a
        E 5 e0 55 2a
        E 6 e0 55 2a
        E 5 e0 55 2a
        E 5 e0 55 2a
        E 6 e0 55 2a
        E 5 e0 55 2a
        E 5 e0 55 2a
        E 5 e0 55 2a
        E 6 e0 55 2a
        E 5 e0 55 2a
        E 5 e0 00 20
        E 5 e0 00 20
        E 6 e0 00 20
        E 5 e0 00 20
        E 5 e0 55 2a
        E 6 e0 55 2a
        E 5 e0 55 2a
        E 5 e0 55 2a
        E 5 e0 55 2a
        E 6 e0 00 20
        E 5 e0 55 2a
        E 5 e0 55 2a
        E 6 e0 55 2a
        E 5 e0 00 20
        E 5 e0 00 20
        E 5 e0 00 20
        E 6 e0 00 20
        E 5 e0 00 20
        E 5 e0 55 2a
        E 0 90 28 00
        E 72 90 40 27
        E 5 90 38 1b
        E 76 90 38 00
        E 6 90 40 00
        E 112 e0 2b 35
        E 0 90 2d 2f
        E 5 e0 2b 35
        E 5 e0 55 2a
        E 5 e0 55 2a
        E 5 e0 55 2a
        E 6 e0 55 2a
        E 5 e0 00 20
        E 5 e0 00 20
        E 5 e0 00 20
        E 5 e0 55 2a
        E 5 e0 55 2a
        E 5 e0 55 2a
        E 5 e0 55 2a
        E 6 e0 00 20
        E 5 e0 00 20
        E 5 e0 00 20
        E 5 e0 00 20
        E 5 e0 00 20
        E 5 e0 00 20
        E 5 e0 00 20
        E 6 e0 00 20
        E 5 e0 55 2a
        E 5 e0 55 2a
        E 5 e0 55 2a
        E 0 90 2d 00
        E 153 e0 55 2a
        E 0 90 40 28
        E 6 e0 55 2a
        E 5 e0 55 2a
        E 5 e0 55 2a
        E 6 e0 00 20
        E 5 e0 00 20
        E 6 e0 00 20
        E 5 e0 55 2a
        E 6 e0 55 2a
        E 5 e0 55 2a
        E 5 e0 55 2a
        E 6 e0 55 2a
        E 5 e0 00 20
        E 6 e0 00 20
        E 5 e0 00 20
        E 6 e0 55 2a
        E 5 e0 55 2a
        E 0 90 40 00
        E 56 e0 2b 55
        E 0 90 4c 1c
        E 6 e0 00 60
        E 5 e0 55 6a
        E 6 e0 2b 15
        E 5 e0 00 20
        E 6 e0 2b 15
        E 5 e0 55 0a
        E 6 e0 55 6a
        E 5 e0 00 60
        E 5 e0 2b 15
        E 6 e0 2b 15
        E 5 e0 00 40
        E 6 e0 00 40
        E 5 e0 00 40
        E 6 e0 00 40
        E 0 90 4c 00
        E 209 e0 00 20
        E 0 90 47 2c
        E 6 e0 55 2a
        E 5 e0 55 2a
        E 6 e0 55 2a
        E 5 e0 55 2a
        E 6 e0 55 2a
        E 5 e0 55 2a
        E 6 e0 55 2a
        E 5 e0 55 2a
        E 6 e0 55 2a
        E 5 e0 55 2a
        E 6 e0 00 20
        E 5 e0 2b 55
        E 5 e0 2b 75
        E 6 e0 55 2a
        E 0 90 47 00
        E 118 e0 00 20
        E 0 90 2d 2b
        E 5 e0 00 20
        E 6 e0 55 2a
        E 5 e0 55 2a
        E 5 e0 55 2a
        E 6 e0 55 2a
        E 5 e0 55 2a
        E 6 e0 55 2a
        E 5 e0 55 2a
        E 5 e0 55 2a
        E 6 e0 55 2a
        E 5 e0 55 2a
        E 6 e0 00 20
        E 5 e0 00 20
        E 5 e0 00 20
        E 6 e0 00 20
        E 5 e0 00 20
        E 5 e0 00 20
        E 6 e0 55 2a
        E 5 e0 55 2a
        E 0 90 2d 00
        E 322 e0 2b 15
        E 0 90 47 32
        E 6 e0 2b 15
        E 5 e0 2b 15
        E 6 e0 55 2a
        E 5 e0 2b 35
        E 6 e0 2b 35
        E 5 e0 2b 35
        E 6 e0 55 2a
        E 5 e0 55 2a
        E 6 e0 55 2a
        E 5 e0 55 2a
        E 6 e0 55 2a
        E 5 e0 55 2a
        E 0 90 47 00
        E 240 e0 55 2a
        E 0 90 48 25
        E 6 e0 55 2a
        E 5 e0 2b 35
        E 6 e0 55 2a
        E 5 e0 55 2a
        E 6 e0 55 2a
        E 5 e0 55 2a
        E 5 e0 55 2a
        E 6 e0 55 2a
        E 5 e0 55 2a
        E 6 e0 55 2a
        E 5 e0 55 2a
        E 6 e0 55 2a
        E 5 e0 2b 55
        E 5 e0 55 4a
        E 6 e0 55 4a
        E 5 e0 55 6a
        E 0 90 48 00
        E 62 e0 55 2a
        E 0 90 2d 2c
        E 6 e0 55 2a
        E 5 e0 2b 35
        E 5 e0 2b 35
        E 6 e0 55 2a
        E 5 e0 55 2a
        E 5 e0 00 20
        E 6 e0 00 20
        E 5 e0 00 20
        E 6 e0 00 20
        E 5 e0 00 20
        E 5 e0 00 20
        E 6 e0 55 2a
        E 5 e0 00 20
        E 5 e0 00 20
        E 6 e0 00 20
        E 5 e0 00 20
        E 6 e0 00 20
        E 5 e0 55 2a
        E 5 e0 55 2a
        E 0 90 2d 00
        E 358 e0 55 2a
        E 0 90 30 2c
        E 5 e0 55 2a
        E 6 e0 55 2a
        E 5 e0 55 2a
        E 6 e0 55 2a
        E 5 e0 55 2a
        E 5 e0 55 2a
        E 6 e0 55 2a
        E 5 e0 55 2a
        E 6 e0 55 2a
        E 5 e0 55 2a
        E 5 e0 00 20
        E 6 e0 00 20
        E 5 e0 00 20
        E 6 e0 55 2a
        E 5 e0 55 2a
        E 5 e0 55 2a
        E 6 e0 55 2a
        E 0 90 30 00
        E 71 e0 2b 15
        E 0 90 3c 1e
        E 6 e0 00 20
        E 5 e0 55 2a
        E 6 e0 55 2a
        E 5 e0 55 2a
        E 6 e0 55 2a
        E 5 e0 55 2a
        E 6 e0 55 2a
        E 5 e0 55 2a
        E 5 e0 55 6a
        E 6 e0 55 6a
        E 5 e0 55 6a
        E 6 e0 55 2a
        E 5 e0 55 2a
        E 6 e0 55 2a
        E 5 e0 55 2a
        E 0 90 3c 00
        E 358 e0 00 20
        E 0 90 3b 26
        E 6 e0 00 20
        E 5 e0 55 2a
        E 6 e0 55 2a
        E 5 e0 55 2a
        E 6 e0 55 2a
        E 5 e0 55 2a
        E 6 e0 55 2a
        E 5 e0 55 2a
        E 6 e0 55 2a
        E 5 e0 00 20
        E 6 e0 00 20
        E 5 e0 00 20
        E 6 e0 55 2a
        E 0 90 3b 00
        E 204 e0 55 2a
        E 0 90 2d 2c
        E 6 e0 00 20
        E 5 e0 00 20
        E 5 e0 00 20
        E 6 e0 55 2a
        E 5 e0 55 2a
        E 5 e0 55 2a
        E 6 e0 55 2a
        E 5 e0 00 20
        E 5 e0 00 20
        E 6 e0 00 20
        E 5 e0 00 20
        E 6 e0 55 2a
        E 5 e0 55 2a
        E 5 e0 55 2a
        E 6 e0 55 2a
        E 5 e0 55 2a
        E 5 e0 55 2a
        E 6 e0 00 20
        E 5 e0 55 2a
        E 5 e0 55 2a
        E 0 90 2d 00
        E 77 e0 00 20
        E 0 90 39 21
        E 6 e0 55 2a
        E 5 e0 55 2a
        E 5 e0 55 2a
        E 6 e0 55 2a
        E 5 e0 55 2a
        E 6 e0 55 2a
        E 5 e0 55 2a
        E 6 e0 55 2a
        E 5 e0 55 2a
        E 6 e0 55 2a
        E 5 e0 00 20
        E 6 e0 00 20
        E 5 e0 00 20
        E 6 e0 00 20
        E 0 90 39 00
        E 184 90 28 2d
        E 15 90 34 2a
        E 108 90 34 00
        E 71 90 40 27
        E 5 90 28 00
        E 87 90 40 00
        E 62 e0 55 4a
        E 0 90 40 20
        E 5 e0 55 2a
        E 5 e0 55 2a
        E 6 e0 55 2a
        E 5 e0 55 2a
        E 6 e0 55 2a
        E 5 e0 55 2a
        E 6 e0 00 20
        E 5 e0 55 2a
        E 6 e0 55 2a
        E 5 e0 55 2a
        E 6 e0 00 20
        E 5 e0 55 6a
        E 6 e0 55 6a
        E 5 e0 55 6a
        E 0 90 40 00
        E 1262 e0 00 20
        E 0 90 47 20
        E 6 e0 55 2a
        E 5 e0 55 2a
        E 5 e0 55 2a
        E 5 e0 55 2a
        E 5 e0 2b 75
        E 5 e0 00 20
        E 6 e0 00 20
        E 5 e0 55 2a
        E 5 e0 55 2a
        E 5 e0 55 2a
        E 5 e0 00 20
        E 5 e0 00 20
        E 5 e0 55 2a
        E 0 90 47 00
        E 108 e0 55 0a
        E 0 90 2d 36
        E 5 e0 55 0a
        E 5 e0 2b 35
        E 6 e0 2b 35
        E 5 e0 55 2a
        E 5 e0 55 2a
        E 6 e0 55 2a
        E 5 e0 55 2a
        E 5 e0 55 2a
        E 6 e0 55 2a
        E 5 e0 55 2a
        E 5 e0 55 2a
        E 6 e0 55 2a
        E 5 e0 55 2a
        E 6 e0 55 2a
        E 5 e0 55 2a
        E 5 e0 55 2a
        E 6 e0 55 2a
        E 5 e0 55 2a
        E 5 e0 00 20
        E 6 e0 00 20
        E 5 e0 00 20
        E 5 e0 55 2a
        E 0 90 2d 00
        E 72 e0 00 20
        E 0 90 39 1b
        E 5 e0 55 2a
        E 6 e0 55 2a
        E 5 e0 55 2a
        E 6 e0 55 2a
        E 5 e0 00 20
        E 6 e0 55 6a
        E 5 e0 00 20
        E 6 e0 00 20
        E 5 e0 00 20
        E 6 e0 00 20
        E 5 e0 55 2a
        E 6 e0 55 2a
        E 5 e0 55 2a
        E 0 90 39 00
        E 189 e0 55 2a
        E 0 90 28 33
        E 6 e0 55 2a
        E 5 e0 55 2a
        E 5 e0 55 2a
        E 6 e0 55 2a
        E 5 e0 55 2a
        E 5 e0 55 2a
        E 6 e0 55 2a
        E 5 e0 00 20
        E 6 e0 00 20
        E 5 e0 00 20
        E 5 e0 55 2a
        E 6 e0 55 2a
        E 5 e0 55 2a
        E 5 e0 55 2a
        E 6 e0 00 20
        E 5 e0 00 20
        E 5 e0 00 20
        E 6 e0 00 20
        E 5 e0 00 20
        E 6 e0 55 2a
        E 0 90 28 00
        E 342 e0 2b 35
        E 0 90 2d 35
        E 6 e0 55 2a
        E 5 e0 55 2a
        E 5 e0 00 20
        E 6 e0 55 2a
        E 5 e0 55 2a
        E 6 e0 55 2a
        E 5 e0 55 2a
        E 5 e0 55 2a
        E 6 e0 55 2a
        E 5 e0 00 20
        E 5 e0 00 20
        E 6 e0 00 20
        E 5 e0 00 20
        E 5 e0 00 20
        E 6 e0 00 20
        E 5 e0 00 20
        E 6 e0 00 20
        E 5 e0 55 2a
        E 5 e0 55 2a
        E 6 e0 55 2a
        E 0 90 2d 00
        E 143 90 4c 22
        E 66 90 40 1e
        E 10 90 4c 00
        E 77 90 40 00
        E 486 e0 2b 35
        E 0 90 2d 32
        E 5 e0 55 0a
        E 6 e0 2b 15
        E 5 e0 55 2a
        E 5 e0 55 2a
        E 6 e0 2b 35
        E 5 e0 55 2a
        E 6 e0 55 2a
        E 5 e0 55 2a
        E 5 e0 55 2a
        E 6 e0 55 2a
        E 5 e0 00 20
        E 6 e0 00 20
        E 5 e0 55 6a
        E 5 e0 55 6a
        E 6 e0 55 2a
        E 5 e0 55 2a
        E 5 e0 55 2a
        E 6 e0 55 2a
        E 0 90 2d 00
        E 66 e0 55 6a
        E 0 90 39 21
        E 6 e0 55 6a
        E 5 e0 00 20
        E 6 e0 55 2a
        E 5 e0 55 2a
        E 6 e0 55 2a
        E 5 e0 00 20
        E 5 e0 00 20
        E 6 e0 55 2a
        E 5 e0 55 2a
        E 6 e0 55 2a
        E 5 e0 55 2a
        E 6 e0 55 2a
        E 5 e0 55 2a
        E 6 e0 55 2a
        E 5 e0 55 2a
        E 0 90 39 00
        E 66 90 40 28
        E 57 90 28 22
        E 25 90 40 00
        E 51 90 28 00
        E 5 e0 00 20
        E 0 90 28 2e
        E 6 e0 00 20
        E 5 e0 55 2a
        E 6 e0 55 2a
        E 5 e0 55 2a
        E 5 e0 00 20
        E 6 e0 00 20
        E 5 e0 00 20
        E 6 e0 00 20
        E 5 e0 55 2a
        E 5 e0 55 2a
        E 6 e0 55 2a
        E 5 e0 55 2a
        E 6 e0 00 20
        E 5 e0 00 20
        E 5 e0 00 20
        E 6 e0 00 20
        E 5 e0 00 20
        E 0 90 28 00
        E 869 e0 55 4a
        E 0 90 2d 2a
        E 6 e0 2b 35
        E 5 e0 2b 35
        E 6 e0 2b 35
        E 5 e0 2b 35
        E 5 e0 55 2a
        E 6 e0 55 2a
        E 5 e0 55 2a
        E 6 e0 55 2a
        E 5 e0 55 2a
        E 6 e0 55 2a
        E 5 e0 55 2a
        E 5 e0 55 2a
        E 6 e0 55 2a
        E 5 e0 00 20
        E 6 e0 00 20
        E 5 e0 55 2a
        E 0 90 2d 00
        E 1953 e0 2b 35
        E 0 90 41 19
        E 6 e0 2b 35
        E 5 e0 55 2a
        E 6 e0 55 2a
        E 6 e0 2b 35
        E 5 e0 2b 35
        E 6 e0 2b 35
        E 5 e0 55 2a
        E 6 e0 00 20
        E 5 e0 00 20
        E 6 e0 00 20
        E 6 e0 2b 15
        E 0 90 41 00
        E 2126 e0 55 2a
        E 0 90 2d 1a
        E 5 e0 00 20
        E 5 e0 00 20
        E 6 e0 00 20
        E 5 e0 55 2a
        E 6 e0 55 2a
        E 5 e0 55 2a
        E 5 e0 55 2a
        E 6 e0 55 2a
        E 5 e0 55 2a
        E 5 e0 55 2a
        E 6 e0 55 2a
        E 5 e0 55 2a
        E 5 e0 00 20
        E 6 e0 00 20
        E 5 e0 00 20
        E 5 e0 00 20
        E 6 e0 55 2a
        E 5 e0 55 2a
        E 5 e0 55 2a
        E 6 e0 00 20
        E 5 e0 55 2a
        E 0 90 2d 00
        E 1110 e0 00 20
        E 0 90 2d 16
        E 5 e0 00 20
        E 6 e0 55 2a
        E 5 e0 55 2a
        E 5 e0 55 2a
        E 6 e0 55 2a
        E 5 e0 00 20
        E 5 e0 00 20
        E 6 e0 00 20
        E 5 e0 55 2a
        E 5 e0 55 2a
        E 6 e0 55 2a
        E 5 e0 55 2a
        E 6 e0 55 2a
        E 5 e0 55 2a
        E 5 e0 55 2a
        E 6 e0 00 20
        E 5 e0 00 20
        E 5 e0 2b 55
        E 6 e0 2b 15
        E 5 e0 55 4a
        E 0 90 2d 00
        E 1288 e0 00 00
        E 0 90 46 24
        E 5 e0 55 2a
        E 6 e0 55 2a
        E 5 e0 2b 35
        E 6 e0 55 2a
        E 5 e0 55 2a
        E 6 e0 55 2a
        E 5 e0 55 2a
        E 6 e0 55 2a
        E 5 e0 00 20
        E 6 e0 55 2a
        E 5 e0 55 2a
        E 6 e0 55 2a
        E 5 e0 55 2a
        E 6 e0 55 2a
        E 0 90 46 00
        E 20 e0 55 2a
        E 0 90 2e 24
        E 5 e0 55 2a
        E 6 e0 55 2a
        E 5 e0 55 2a
        E 6 e0 55 2a
        E 5 e0 55 2a
        E 6 e0 00 20
        E 5 e0 55 2a
        E 5 e0 55 2a
        E 6 e0 00 20
        E 5 e0 00 20
        E 6 e0 00 20
        E 5 e0 00 20
        E 6 e0 00 20
        E 5 e0 00 20
        E 5 e0 00 20
        E 6 e0 00 20
        E 0 90 2e 00
        E 1508 e0 2b 35
        E 0 90 38 1f
        E 5 e0 00 40
        E 6 e0 2b 35
        E 5 e0 2b 35
        E 5 e0 2b 35
        E 5 e0 55 2a
        E 6 e0 55 2a
        E 5 e0 55 2a
        E 5 e0 55 2a
        E 6 e0 55 2a
        E 5 e0 55 2a
        E 5 e0 55 2a
        E 5 e0 55 2a
        E 6 e0 55 2a
        E 5 e0 55 2a
        E 5 e0 55 2a
        E 5 e0 55 2a
        E 6 e0 00 20
        E 5 e0 00 20
        E 5 e0 00 20
        E 6 e0 55 2a
        E 5 e0 55 2a
        E 5 e0 00 20
        E 5 e0 00 20
        E 6 e0 55 2a
        E 5 e0 55 2a
        E 5 e0 55 2a
        E 6 e0 55 2a
        E 5 e0 55 2a
        E 5 e0 55 2a
        E 0 90 38 00
        E 476 e0 00 20
        E 0 90 21 1c
        E 5 e0 00 20
        E 6 e0 55 2a
        E 5 e0 55 2a
        E 6 e0 55 2a
        E 6 e0 55 2a
        E 5 e0 55 2a
        E 6 e0 00 20
        E 5 e0 00 20
        E 6 e0 00 20
        E 5 e0 00 20
        E 6 e0 00 20
        E 5 e0 00 20
        E 0 90 21 00
        E 220 e0 55 6a
        E 0 90 3c 1f
        E 5 e0 00 20
        E 6 e0 55 2a
        E 5 e0 55 2a
        E 6 e0 55 2a
        E 5 e0 55 2a
        E 6 e0 55 2a
        E 5 e0 55 2a
        E 6 e0 55 2a
        E 5 e0 55 2a
        E 6 e0 55 2a
        E 5 e0 55 2a
        E 6 e0 55 6a
        E 5 e0 55 0a
        E 6 e0 2b 15
        E 0 90 3c 00
        E 261 90 51 11
        E 97 90 4c 1f
        E 5 90 51 00
        E 76 90 4c 00
        E 302 e0 00 20
        E 0 90 51 22
        E 5 e0 55 2a
        E 6 e0 55 2a
        E 6 e0 55 2a
        E 5 e0 55 2a
        E 6 e0 55 2a
        E 5 e0 55 2a
        E 6 e0 55 4a
        E 5 e0 55 4a
        E 6 e0 55 4a
        E 6 e0 00 20
        E 5 e0 55 2a
        E 0 90 51 00
        E 113 e0 00 40
        E 0 90 3c 1d
        E 5 e0 00 40
        E 6 e0 55 2a
        E 5 e0 00 20
        E 6 e0 00 20
        E 5 e0 00 20
        E 6 e0 00 20
        E 5 e0 00 20
        E 6 e0 00 20
        E 5 e0 00 20
        E 6 e0 55 4a
        E 5 e0 55 4a
        E 6 e0 00 40
        E 0 90 3c 00
        E 312 e0 2b 15
        E 0 90 4f 1b
        E 6 e0 00 40
        E 5 e0 2b 35
        E 6 e0 2b 35
        E 5 e0 2b 35
        E 6 e0 55 2a
        E 5 e0 55 2a
        E 6 e0 55 2a
        E 5 e0 00 60
        E 6 e0 55 4a
        E 5 e0 55 4a
        E 6 e0 55 4a
        E 5 e0 2b 55
        E 6 e0 55 0a
        E 0 90 4f 00
        E 2059 e0 55 6a
        E 0 90 39 22
        E 6 e0 00 20
        E 5 e0 55 2a
        E 6 e0 55 2a
        E 5 e0 55 2a
        E 6 e0 55 2a
        E 5 e0 00 20
        E 6 e0 00 20
        E 5 e0 55 2a
        E 5 e0 55 2a
        E 6 e0 55 2a
        E 5 e0 00 20
        E 6 e0 00 20
        E 5 e0 55 2a
        E 6 e0 55 2a
        E 5 e0 55 2a
        E 0 90 39 00
        E 56 90 39 1b
        E 5 90 40 1c
        E 52 90 28 1e
        E 20 90 39 00
        E 0 90 40 00
        E 51 90 28 00
        E 0 90 34 2a
        E 5 90 28 23
        E 88 90 34 00
        E 204 e0 55 2a
        E 0 90 28 00
        E 0 90 44 23
        E 5 e0 55 2a
        E 6 e0 55 2a
        E 5 e0 55 2a
        E 6 e0 55 2a
        E 5 e0 55 2a
        E 6 e0 55 2a
        E 5 e0 55 2a
        E 6 e0 55 2a
        E 5 e0 55 2a
        E 6 e0 55 2a
        E 5 e0 55 2a
        E 6 e0 55 2a
        E 5 e0 55 2a
        E 6 e0 55 2a
        E 0 90 44 00
        E 51 e0 2b 35
        E 0 90 2d 2f
        E 5 e0 2b 35
        E 5 e0 2b 35
        E 6 e0 55 2a
        E 5 e0 55 2a
        E 5 e0 55 2a
        E 6 e0 55 2a
        E 5 e0 55 2a
        E 6 e0 00 20
        E 5 e0 00 20
        E 5 e0 00 20
        E 6 e0 00 20
        E 5 e0 00 20
        E 5 e0 55 2a
        E 6 e0 00 20
        E 5 e0 00 20
        E 5 e0 00 20
        E 6 e0 00 20
        E 5 e0 00 20
        E 6 e0 55 2a
        E 5 e0 55 2a
        E 0 90 2d 00
        E 593 e0 2b 15
        E 0 90 47 19
        E 6 e0 00 20
        E 5 e0 55 2a
        E 6 e0 55 2a
        E 5 e0 55 2a
        E 6 e0 55 2a
        E 5 e0 55 2a
        E 6 e0 55 2a
        E 5 e0 55 2a
        E 6 e0 55 2a
        E 5 e0 00 20
        E 6 e0 55 4a
        E 5 e0 55 4a
        E 6 e0 55 2a
        E 0 90 47 00
        E 127 e0 55 0a
        E 0 90 2d 27
        E 6 e0 2b 15
        E 5 e0 55 2a
        E 5 e0 55 2a
        E 5 e0 55 2a
        E 6 e0 55 2a
        E 5 e0 55 2a
        E 5 e0 55 2a
        E 5 e0 55 2a
        E 6 e0 55 2a
        E 5 e0 55 2a
        E 5 e0 55 2a
        E 5 e0 55 2a
        E 6 e0 00 20
        E 5 e0 00 20
        E 5 e0 00 20
        E 6 e0 2b 15
        E 5 e0 00 20
        E 5 e0 55 2a
        E 5 e0 55 2a
        E 6 e0 55 2a
        E 5 e0 55 2a
        E 5 e0 55 2a
        E 5 e0 55 2a
        E 6 e0 55 2a
        E 5 e0 00 20
        E 5 e0 00 20
        E 5 e0 00 20
        E 6 e0 00 20
        E 5 e0 00 20
        E 5 e0 00 20
        E 6 e0 00 20
        E 5 e0 55 2a
        E 0 90 2d 00
        E 71 90 34 16
        E 62 90 40 24
        E 5 90 34 00
        E 51 90 28 22
        E 30 90 40 00
        E 46 90 28 00
        E 6 e0 00 20
        E 0 90 28 25
        E 5 e0 00 20
        E 5 e0 55 2a
        E 5 e0 55 2a
        E 5 e0 55 2a
        E 5 e0 55 2a
        E 5 e0 55 2a
        E 6 e0 55 2a
        E 5 e0 55 2a
        E 5 e0 55 2a
        E 5 e0 55 2a
        E 5 e0 55 2a
        E 5 e0 00 20
        E 5 e0 00 20
        E 6 e0 00 20
        E 5 e0 00 20
        E 5 e0 00 20
        E 5 e0 55 2a
        E 0 90 28 00
        E 61 90 28 1e
        E 11 90 38 2a
        E 71 90 28 00
        E 0 90 38 00
        E 291 e0 00 20
        E 0 90 2d 19
        E 6 e0 55 2a
        E 5 e0 55 2a
        E 5 e0 55 2a
        E 6 e0 55 2a
        E 5 e0 55 2a
        E 6 e0 55 2a
        E 5 e0 00 20
        E 5 e0 00 20
        E 6 e0 00 20
        E 5 e0 00 20
        E 6 e0 00 20
        E 5 e0 55 2a
        E 6 e0 55 2a
        E 5 e0 00 20
        E 5 e0 00 20
        E 6 e0 55 6a
        E 5 e0 55 6a
        E 0 90 2d 00
        E 287 e0 00 20
        E 0 90 30 32
        E 5 e0 55 2a
        E 6 e0 55 2a
        E 5 e0 55 2a
        E 5 e0 55 2a
        E 6 e0 55 2a
        E 5 e0 55 2a
        E 5 e0 55 2a
        E 6 e0 55 2a
        E 5 e0 55 2a
        E 6 e0 55 2a
        E 5 e0 55 2a
        E 5 e0 55 2a
        E 6 e0 55 2a
        E 5 e0 00 20
        E 5 e0 00 20
        E 6 e0 00 20
        E 5 e0 00 20
        E 6 e0 00 20
        E 5 e0 55 2a
        E 0 90 30 00
        E 133 90 30 1f
        E 10 90 43 20
        E 72 90 30 00
        E 0 90 43 00
        E 132 e0 00 20
        E 0 90 2b 30
        E 6 e0 00 20
        E 5 e0 55 2a
        E 6 e0 55 2a
        E 5 e0 55 2a
        E 5 e0 55 2a
        E 6 e0 55 2a
        E 5 e0 55 2a
        E 6 e0 55 2a
        E 5 e0 00 20
        E 5 e0 00 20
        E 6 e0 00 20
        E 5 e0 00 20
        E 6 e0 00 20
        E 5 e0 00 20
        E 5 e0 00 20
        E 6 e0 00 20
        E 5 e0 55 2a
        E 0 90 2b 00
        E 527 e0 00 20
        E 0 90 39 26
        E 5 e0 55 2a
        E 6 e0 55 2a
        E 5 e0 55 2a
        E 6 e0 55 2a
        E 5 e0 55 2a
        E 6 e0 55 2a
        E 5 e0 55 2a
        E 6 e0 55 2a
        E 5 e0 55 2a
        E 5 e0 00 20
        E 6 e0 00 20
        E 5 e0 00 20
        E 6 e0 00 20
        E 5 e0 00 20
        E 6 e0 55 2a
        E 0 90 39 00
        E 194 e0 2b 15
        E 0 90 28 26
        E 5 e0 00 20
        E 5 e0 00 20
        E 6 e0 00 20
        E 5 e0 55 2a
        E 5 e0 55 2a
        E 5 e0 55 2a
        E 6 e0 55 2a
        E 5 e0 55 2a
        E 5 e0 00 20
        E 5 e0 00 20
        E 6 e0 00 20
        E 5 e0 55 2a
        E 5 e0 55 2a
        E 5 e0 55 2a
        E 6 e0 55 2a
        E 5 e0 00 20
        E 5 e0 00 20
        E 5 e0 00 20
        E 6 e0 00 20
        E 5 e0 00 20
        E 5 e0 00 20
        E 5 e0 55 2a
        E 6 e0 55 2a
        E 5 e0 55 2a
        E 5 e0 55 2a
        E 5 e0 55 6a
        E 6 e0 55 6a
        E 5 e0 55 6a
        E 5 e0 00 20
        E 5 e0 00 20
        E 6 e0 55 2a
        E 5 e0 55 2a
        E 5 e0 55 2a
        E 5 e0 55 2a
        E 6 e0 00 20
        E 5 e0 00 20
        E 0 90 28 00
        E 5 e0 00 20
        E 0 90 40 22
        E 5 e0 00 20
        E 5 e0 55 2a
        E 5 e0 55 2a
        E 5 e0 55 2a
        E 6 e0 55 2a
        E 5 e0 55 2a
        E 5 e0 55 2a
        E 5 e0 55 2a
        E 5 e0 55 2a
        E 5 e0 00 20
        E 5 e0 00 20
        E 5 e0 00 20
        E 6 e0 55 2a
        E 5 e0 55 2a
        E 5 e0 55 2a
        E 5 e0 55 2a
        E 5 e0 55 2a
        E 5 e0 55 2a
        E 5 e0 55 2a
        E 5 e0 55 2a
        E 6 e0 55 2a
        E 5 e0 55 2a
        E 5 e0 55 2a
        E 5 e0 00 20
        E 5 e0 00 20
        E 5 e0 00 20
        E 5 e0 00 20
        E 5 e0 55 6a
        E 5 e0 55 4a
        E 6 e0 00 20
        E 5 e0 55 2a
        E 5 e0 55 2a
        E 5 e0 55 2a
        E 5 e0 55 2a
        E 5 e0 55 2a
        E 5 e0 55 2a
        E 5 e0 55 2a
        E 6 e0 55 2a
        E 5 e0 55 2a
        E 5 e0 55 2a
        E 5 e0 55 2a
        E 5 e0 55 2a
        E 5 e0 55 4a
        E 5 e0 2b 75
        E 5 e0 2b 75
        E 6 e0 00 20
        E 5 e0 55 2a
        E 0 90 40 00
        E 633 e0 55 4a
        E 0 90 4c 14
        E 6 e0 55 0a
        E 5 e0 55 6a
        E 6 e0 55 6a
        E 5 e0 55 6a
        E 6 e0 55 6a
        E 5 e0 55 0a
        E 6 e0 55 0a
        E 5 e0 2b 75
        E 6 e0 00 40
        E 5 e0 00 40
        E 6 e0 00 40
        E 5 e0 00 40
        E 6 e0 00 40
        E 0 90 4c 00
        E 506 e0 55 2a
        E 0 90 47 23
        E 5 e0 55 2a
        E 6 e0 55 2a
        E 5 e0 55 2a
        E 6 e0 00 20
        E 5 e0 00 20
        E 6 e0 00 20
        E 5 e0 00 20
        E 5 e0 00 20
        E 6 e0 55 2a
        E 5 e0 55 2a
        E 6 e0 55 2a
        E 5 e0 55 2a
        E 6 e0 55 4a
        E 5 e0 55 2a
        E 6 e0 55 2a
        E 0 90 47 00
        E 296 90 39 21
        E 66 90 3c 24
        E 16 90 39 00
        E 56 90 3c 00
        E 67 e0 00 20
        E 0 90 28 1c
        E 5 e0 00 20
        E 6 e0 55 2a
        E 5 e0 55 2a
        E 6 e0 55 2a
        E 5 e0 55 2a
        E 6 e0 00 20
        E 5 e0 00 20
        E 6 e0 00 40
        E 5 e0 00 40
        E 6 e0 00 40
        E 5 e0 2b 35
        E 6 e0 00 20
        E 5 e0 00 20
        E 0 90 28 00
        E 0 90 34 2b
        E 5 90 28 2d
        E 92 90 28 00
        E 5 90 34 00
        E 343 90 2d 27
        E 5 90 48 23
        E 82 90 2d 00
        E 0 90 48 00
        E 148 90 4c 24
        E 5 90 40 1d
        E 72 90 40 00
        E 5 90 4c 00
        E 276 e0 55 2a
        E 0 90 4c 17
        E 5 e0 55 2a
        E 6 e0 55 2a
        E 5 e0 00 20
        E 6 e0 00 20
        E 5 e0 55 4a
        E 6 e0 55 4a
        E 5 e0 55 2a
        E 6 e0 55 2a
        E 5 e0 55 0a
        E 6 e0 00 40
        E 5 e0 00 40
        E 6 e0 55 2a
        E 5 e0 55 2a
        E 6 e0 00 20
        E 0 90 4c 00
        E 536 e0 2b 15
        E 0 90 40 25
        E 6 e0 00 20
        E 5 e0 55 2a
        E 6 e0 55 2a
        E 5 e0 55 2a
        E 6 e0 55 2a
        E 5 e0 55 2a
        E 6 e0 55 2a
        E 5 e0 55 2a
        E 6 e0 55 2a
        E 5 e0 55 2a
        E 5 e0 55 2a
        E 6 e0 55 2a
        E 5 e0 00 20
        E 6 e0 00 20
        E 5 e0 00 20
        E 0 90 40 00
        E 67 e0 00 20
        E 0 90 28 2e
        E 5 e0 00 20
        E 5 e0 55 2a
        E 6 e0 55 2a
        E 5 e0 55 2a
        E 5 e0 00 20
        E 6 e0 00 20
        E 5 e0 55 2a
        E 6 e0 55 2a
        E 5 e0 55 2a
        E 5 e0 55 2a
        E 6 e0 00 20
        E 5 e0 00 20
        E 6 e0 55 2a
        E 5 e0 55 2a
        E 5 e0 00 20
        E 6 e0 00 20
        E 5 e0 00 20
        E 5 e0 00 20
        E 6 e0 55 2a
        E 0 90 28 00
        E 179 e0 00 20
        E 0 90 28 22
        E 5 e0 00 20
        E 5 e0 55 2a
        E 6 e0 2b 35
        E 5 e0 2b 35
        E 6 e0 55 2a
        E 5 e0 55 2a
        E 6 e0 55 2a
        E 5 e0 55 2a
        E 5 e0 55 2a
        E 6 e0 55 2a
        E 5 e0 55 2a
        E 6 e0 55 2a
        E 5 e0 55 2a
        E 6 e0 55 2a
        E 5 e0 55 2a
        E 5 e0 55 2a
        E 0 90 28 00
        E 51 e0 55 2a
        E 0 90 48 24
        E 6 e0 2b 35
        E 5 e0 2b 35
        E 6 e0 2b 35
        E 5 e0 55 2a
        E 6 e0 55 2a
        E 5 e0 55 2a
        E 6 e0 55 2a
        E 5 e0 55 2a
        E 6 e0 55 2a
        E 5 e0 55 2a
        E 6 e0 2b 55
        E 5 e0 55 2a
        E 6 e0 55 2a
        E 5 e0 55 2a
        E 0 90 48 00
        E 297 90 2d 20
        E 46 90 21 26
        E 15 90 2d 00
        E 56 90 21 00
        E 72 e0 00 20
        E 0 90 21 1c
        E 6 e0 00 20
        E 5 e0 55 2a
        E 6 e0 55 2a
        E 5 e0 55 2a
        E 6 e0 55 2a
        E 5 e0 55 2a
        E 6 e0 55 2a
        E 5 e0 00 20
        E 6 e0 00 20
        E 5 e0 00 20
        E 6 e0 00 20
        E 5 e0 55 2a
        E 0 90 21 00
        E 3384 e0 00 40
        E 0 90 3b 11
        E 6 e0 55 2a
        E 5 e0 2b 35
        E 6 e0 2b 35
        E 5 e0 2b 35
        E 6 e0 55 2a
        E 5 e0 00 20
        E 6 e0 55 6a
        E 5 e0 2b 75
        E 6 e0 55 2a
        E 5 e0 55 2a
        E 6 e0 55 4a
        E 5 e0 2b 55
        E 6 e0 2b 55
        E 0 90 3b 00
        E 102 90 39 2f
        E 10 90 45 2f
        E 57 90 48 26
        E 10 90 39 00
        E 5 90 45 00
        E 112 90 48 00
        E 102 e0 55 2a
        E 0 90 48 22
        E 6 e0 2b 35
        E 5 e0 2b 35
        E 6 e0 55 2a
        E 5 e0 55 2a
        E 6 e0 55 2a
        E 5 e0 55 2a
        E 6 e0 55 2a
        E 5 e0 55 2a
        E 6 e0 55 6a
        E 5 e0 55 4a
        E 6 e0 55 4a
        E 5 e0 2b 35
        E 6 e0 2b 35
        E 0 90 48 00
        E 31 e0 55 0a
        E 0 90 3c 2f
        E 5 e0 55 0a
        E 5 e0 55 2a
        E 5 e0 55 2a
        E 5 e0 00 20
        E 5 e0 00 20
        E 5 e0 55 2a
        E 6 e0 55 2a
        E 5 e0 55 2a
        E 5 e0 55 2a
        E 5 e0 55 6a
        E 5 e0 55 4a
        E 5 e0 55 4a
        E 0 90 3c 00
        E 481 90 45 22
        E 5 90 39 39
        E 61 90 39 00
        E 0 90 45 00
        E 87 90 45 23
        E 66 90 39 35
        E 5 90 45 00
        E 57 90 39 00
        E 87 90 45 25
        E 51 90 39 46
        E 26 90 45 00
        E 40 90 39 00
        E 2070 90 45 1a
        E 36 90 39 3f
        E 31 90 45 00
        E 41 90 39 00
        E 163 e0 55 6a
        E 0 90 48 29
        E 6 e0 55 2a
        E 5 e0 55 2a
        E 6 e0 55 2a
        E 5 e0 55 2a
        E 6 e0 55 2a
        E 5 e0 55 2a
        E 6 e0 55 2a
        E 5 e0 00 40
        E 6 e0 55 4a
        E 5 e0 55 4a
        E 6 e0 55 2a
        E 5 e0 2b 35
        E 6 e0 2b 35
        E 0 90 48 00
        E 348 e0 55 2a
        E 0 90 4d 22
        E 5 e0 55 2a
        E 6 e0 55 2a
        E 5 e0 55 2a
        E 6 e0 55 2a
        E 6 e0 55 2a
        E 5 e0 00 20
        E 6 e0 2b 15
        E 5 e0 2b 55
        E 6 e0 55 4a
        E 5 e0 00 60
        E 6 e0 55 6a
        E 0 90 4d 00
        E 102 90 4c 13
        E 36 90 45 21
        E 10 90 39 32
        E 56 90 45 00
        E 5 90 39 00
        E 46 90 4c 00
        E 41 90 45 21
        E 10 90 51 11
        E 41 90 39 3b
        E 16 90 45 00
        E 46 90 39 00
        E 0 90 51 00
        E 87 90 51 1f
        E 5 90 45 1e
        E 51 90 39 42
        E 5 90 51 00
        E 11 90 45 00
        E 46 90 39 00
        E 1027 e0 00 20
        E 0 90 3b 25
        E 5 e0 2b 35
        E 6 e0 2b 35
        E 5 e0 2b 35
        E 5 e0 55 2a
        E 6 e0 2b 35
        E 5 e0 2b 35
        E 5 e0 2b 35
        E 6 e0 2b 35
        E 5 e0 55 2a
        E 5 e0 55 6a
        E 6 e0 00 20
        E 5 e0 00 20
        E 5 e0 00 20
        E 6 e0 00 20
        E 5 e0 55 2a
        E 5 e0 55 2a
        E 6 e0 55 2a
        E 5 e0 55 4a
        E 5 e0 2b 55
        E 6 e0 2b 55
        E 5 e0 55 2a
        E 5 e0 2b 35
        E 6 e0 2b 35
        E 0 90 3b 00
        E 515 e0 55 2a
        E 0 90 34 32
        E 6 e0 55 2a
        E 5 e0 2b 35
        E 5 e0 2b 35
        E 5 e0 55 2a
        E 5 e0 55 2a
        E 5 e0 55 2a
        E 5 e0 55 2a
        E 6 e0 55 2a
        E 5 e0 55 2a
        E 5 e0 55 2a
        E 5 e0 55 2a
        E 5 e0 55 2a
        E 5 e0 55 2a
        E 6 e0 00 20
        E 5 e0 55 2a
        E 0 90 34 00
        E 674 e0 00 00
        E 0 90 40 1e
        E 5 e0 55 2a
        E 6 e0 55 2a
        E 6 e0 55 2a
        E 5 e0 55 2a
        E 6 e0 2b 35
        E 5 e0 2b 35
        E 6 e0 55 2a
        E 5 e0 55 2a
        E 6 e0 55 2a
        E 5 e0 55 2a
        E 6 e0 00 20
        E 5 e0 00 20
        E 0 90 40 00
        E 156 b0 7b 00
        CCINTERP 32
        CHASE_CC_TAKEOFFS 1
        GUID {3E60E363-AB82-4891-A357-18033AE63CF3}
        IGNTEMPO 0 120 4 4
        SRCCOLOR 28
        VELLANE -1 100 0
      >
    >
  >
  <UINF 7
    <ITEM {FF7DAB02-F040-4B60-81FF-F176E1D4A211}
      POSITION 0
      SNAPOFFS 0
      LENGTH 165
      LOOP 1
      ALLTAKES 0
      FADEIN 1 0 0 1 0 0 0
      FADEOUT 1 0 0 1 0 0 0
      MUTE 0 0
      SEL 0
      IGUID {FF7DAB02-F040-4B60-81FF-F176E1D4A211}
      IID 67
      NAME beethoven_fur_elise_basic_pitch.mid
      VOLPAN 1 0 1 -1
      SOFFS 0 0
      PLAYRATE 1 1 0 -1 0 0.0025
      CHANMODE 0
      GUID {985C3DCC-6D69-459A-9411-971E841BFCD2}
      <SOURCE MIDI
        HASDATA 1 220 QN
        CCINTERP 32
        POOLEDEVTS {D578B7AC-80AA-4618-8155-F73148BFE856}
        E 0 c0 04 00
        E 72386 e0 55 2a
        E 0 90 48 1b
        E 6 e0 00 20
        E 5 e0 00 60
        E 6 e0 00 20
        E 6 e0 2b 55
        E 5 e0 55 2a
        E 6 e0 55 2a
        E 5 e0 55 2a
        E 6 e0 55 2a
        E 5 e0 55 2a
        E 6 e0 55 2a
        E 6 e0 00 20
        E 0 90 48 00
        E 152 b0 7b 00
        CCINTERP 32
        CHASE_CC_TAKEOFFS 1
        GUID {DBD03640-1C46-40B7-B78B-625883800B05}
        IGNTEMPO 0 120 4 4
        SRCCOLOR 116
        VELLANE -1 100 0
      >
    >
  >
  <UINF 8
    <ITEM {28174CFD-34D6-4A7B-86BD-76B3542DE2A4}
      POSITION 0
      SNAPOFFS 0
      LENGTH 173.5
      LOOP 1
      ALLTAKES 0
      FADEIN 1 0 0 1 0 0 0
      FADEOUT 1 0 0 1 0 0 0
      MUTE 0 0
      SEL 0
      IGUID {28174CFD-34D6-4A7B-86BD-76B3542DE2A4}
      IID 99
      NAME beethoven_fur_elise_basic_pitch.mid
      VOLPAN 1 0 1 -1
      SOFFS 0 0
      PLAYRATE 1 1 0 -1 0 0.0025
      CHANMODE 0
      GUID {6F33CF83-7AB4-4A09-86CD-C0A3C9390133}
      <SOURCE MIDI
        HASDATA 1 220 QN
        CCINTERP 32
        POOLEDEVTS {399336A7-F594-4354-AC38-BDA611F2551F}
        E 0 c0 04 00
        E 1119 e0 2b 75
        E 0 90 1b 1c
        E 6 e0 2b 75
        E 5 e0 2b 75
        E 6 e0 2b 75
        E 5 e0 55 6a
        E 6 e0 2b 75
        E 5 e0 2b 75
        E 5 e0 2b 75
        E 6 e0 55 2a
        E 5 e0 55 2a
        E 6 e0 55 2a
        E 5 e0 55 2a
        E 6 e0 55 2a
        E 5 e0 55 2a
        E 6 e0 7f 7f
        E 5 e0 55 6a
        E 0 90 1b 00
        E 1145 90 1e 17
        E 0 90 2a 1e
        E 77 90 1e 00
        E 5 90 2a 00
        E 138 90 2f 1a
        E 67 90 3b 32
        E 5 90 2f 00
        E 0 90 47 2a
        E 66 90 3e 20
        E 15 90 3b 00
        E 5 90 47 00
        E 62 90 3e 00
        E 66 90 2d 29
        E 0 90 39 29
        E 61 90 21 23
        E 21 90 34 26
        E 71 90 40 20
        E 11 90 39 00
        E 0 90 39 26
        E 66 90 21 00
        E 0 90 3c 2b
        E 10 90 2d 00
        E 56 90 2d 2d
        E 6 90 40 00
        E 5 90 40 21
        E 20 90 34 00
        E 41 90 28 21
        E 15 90 2d 00
        E 11 90 39 00
        E 0 90 3c 00
        E 45 90 28 00
        E 0 90 28 2a
        E 6 90 34 29
        E 15 90 40 00
        E 66 90 34 00
        E 0 90 34 22
        E 57 90 2c 2b
        E 15 90 38 27
        E 67 90 40 24
        E 5 90 2c 00
        E 5 90 3b 26
        E 66 90 44 21
        E 6 90 28 00
        E 5 90 34 00
        E 61 90 28 1e
        E 15 90 3b 00
        E 5 90 38 00
        E 46 90 39 26
        E 5 90 2d 2b
        E 6 90 3c 15
        E 5 90 28 00
        E 0 90 48 1f
        E 5 90 44 00
        E 5 90 40 00
        E 51 90 21 22
        E 20 90 34 2b
        E 0 90 3c 00
        E 72 90 39 00
        E 5 90 21 00
        E 0 90 39 2d
        E 0 90 40 24
        E 21 90 34 00
        E 5 90 48 00
        E 51 90 34 2d
        E 10 90 40 00
        E 0 90 40 2a
        E 87 90 2d 00
        E 0 90 34 00
        E 0 90 39 00
        E 0 90 40 00
        E 61 90 2d 1f
        E 0 90 39 22
        E 5 90 40 1f
        E 0 90 4c 23
        E 77 90 4c 00
        E 66 90 2d 00
        E 5 90 39 00
        E 0 90 40 00
        E 62 90 34 20
        E 0 90 39 21
        E 72 90 3b 20
        E 5 90 39 00
        E 0 90 40 11
        E 66 90 34 00
        E 0 90 40 00
        E 5 90 3b 00
        E 118 90 21 25
        E 15 90 2d 26
        E 92 90 21 00
        E 0 90 39 1d
        E 66 90 34 23
        E 0 90 39 00
        E 6 90 39 26
        E 66 90 3c 29
        E 77 90 40 23
        E 66 90 28 1f
        E 0 90 34 00
        E 5 90 45 23
        E 10 90 2d 00
        E 5 90 39 00
        E 0 90 3c 00
        E 46 90 2f 21
        E 6 90 28 00
        E 0 90 28 2f
        E 5 90 34 29
        E 0 90 47 2d
        E 15 90 40 00
        E 0 90 45 00
        E 61 90 2f 00
        E 0 90 47 00
        E 21 90 3b 22
        E 62 90 38 2d
        E 20 90 3b 00
        E 82 90 34 00
        E 5 90 28 00
        E 0 90 38 00
        E 61 e0 7f 7f
        E 0 90 48 2c
        E 6 e0 2b 75
        E 5 e0 2b 75
        E 5 e0 2b 75
        E 6 e0 2b 75
        E 5 e0 55 6a
        E 5 e0 00 20
        E 6 e0 00 20
        E 5 e0 00 20
        E 6 e0 55 6a
        E 5 e0 00 20
        E 5 e0 00 20
        E 6 e0 00 20
        E 5 e0 00 20
        E 5 e0 55 6a
        E 6 e0 55 6a
        E 5 e0 55 6a
        E 6 e0 55 6a
        E 5 e0 55 6a
        E 5 e0 55 6a
        E 0 90 48 00
        E 67 90 39 27
        E 5 90 2d 27
        E 46 90 21 21
        E 66 90 34 27
        E 51 90 45 15
        E 62 90 39 00
        E 0 90 39 2a
        E 5 90 45 00
        E 15 90 34 00
        E 20 90 2d 00
        E 11 90 21 00
        E 56 90 39 00
        E 271 90 34 1f
        E 5 90 39 25
        E 0 90 45 15
        E 77 90 34 00
        E 0 90 45 00
        E 61 90 25 18
        E 5 90 34 1f
        E 0 90 47 15
        E 26 90 39 00
        E 46 90 25 00
        E 0 90 3b 28
        E 0 90 47 00
        E 5 90 47 2b
        E 61 90 40 1f
        E 11 90 34 00
        E 10 90 3b 00
        E 5 90 47 00
        E 51 90 28 1e
        E 10 90 40 00
        E 67 90 39 2f
        E 5 90 28 00
        E 61 90 21 26
        E 10 90 2d 28
        E 82 90 21 00
        E 25 90 39 00
        E 52 90 3c 2c
        E 5 90 39 23
        E 5 90 34 22
        E 66 90 40 27
        E 52 90 28 20
        E 10 90 39 00
        E 5 90 34 00
        E 0 90 39 1f
        E 10 90 2d 00
        E 5 90 3c 00
        E 36 90 1c 21
        E 10 90 28 00
        E 6 90 28 2b
        E 5 90 34 29
        E 5 90 39 00
        E 10 90 40 00
        E 56 90 40 27
        E 5 90 1c 00
        E 82 90 38 28
        E 82 90 3b 27
        E 10 90 34 00
        E 0 90 40 00
        E 56 90 34 2b
        E 5 90 38 00
        E 0 90 38 2c
        E 0 90 40 2e
        E 0 90 47 1e
        E 5 90 44 2f
        E 72 90 47 00
        E 5 90 34 00
        E 5 90 28 00
        E 0 90 3b 00
        E 0 90 40 00
        E 5 90 38 00
        E 0 90 44 00
        E 46 90 39 21
        E 5 90 2d 2a
        E 174 90 39 00
        E 0 90 40 2d
        E 5 90 34 23
        E 0 90 39 2f
        E 77 90 21 1c
        E 20 90 40 00
        E 5 90 39 00
        E 41 90 21 00
        E 11 90 39 23
        E 15 90 2d 00
        E 72 90 34 00
        E 66 90 2d 1d
        E 15 90 39 00
        E 62 90 39 23
        E 56 90 34 25
        E 5 90 40 20
        E 10 90 2d 00
        E 77 90 39 00
        E 0 90 40 00
        E 61 90 3e 23
        E 10 90 34 00
        E 72 90 3e 00
        E 56 90 21 2a
        E 15 90 2d 2c
        E 77 90 21 00
        E 0 90 28 20
        E 5 90 39 25
        E 77 90 39 00
        E 5 90 28 00
        E 0 90 39 23
        E 5 90 2d 00
        E 56 90 21 22
        E 5 90 2d 26
        E 11 90 3c 29
        E 61 90 34 26
        E 6 90 21 00
        E 5 90 40 27
        E 5 90 39 00
        E 61 90 28 26
        E 0 90 34 00
        E 15 90 2d 00
        E 11 90 3c 00
        E 51 90 34 2b
        E 0 90 47 2b
        E 5 90 28 00
        E 0 90 28 34
        E 10 90 40 00
        E 56 90 28 00
        E 0 90 28 2a
        E 5 90 47 00
        E 5 90 34 00
        E 0 90 34 27
        E 72 90 2c 2e
        E 10 90 38 26
        E 77 90 2c 00
        E 5 90 40 2d
        E 0 90 44 22
        E 15 90 34 00
        E 72 90 28 00
        E 0 90 44 00
        E 5 90 38 00
        E 0 90 40 00
        E 148 90 2d 33
        E 97 90 39 22
        E 15 90 2d 00
        E 62 90 2d 29
        E 5 90 28 1c
        E 0 90 34 23
        E 0 90 40 25
        E 5 90 39 00
        E 5 90 39 23
        E 67 90 28 00
        E 5 90 2d 00
        E 0 90 40 00
        E 66 90 48 30
        E 16 90 39 00
        E 71 90 34 00
        E 5 90 48 00
        E 97 90 30 2c
        E 36 90 24 2d
        E 16 90 3c 30
        E 10 90 37 2a
        E 76 90 24 00
        E 16 90 30 00
        E 5 90 3c 00
        E 56 90 30 2e
        E 5 90 3c 23
        E 5 90 43 24
        E 77 90 3c 00
        E 5 90 30 00
        E 5 90 43 00
        E 5 90 37 00
        E 51 90 2b 22
        E 72 90 37 27
        E 5 90 2b 00
        E 5 90 2b 35
        E 72 90 37 00
        E 0 90 3b 31
        E 5 90 37 29
        E 5 90 2b 00
        E 0 90 2b 29
        E 87 90 3b 00
        E 67 90 3b 21
        E 5 90 2b 00
        E 5 90 37 00
        E 153 90 3b 00
        E 66 90 2d 2d
        E 169 90 34 24
        E 0 90 40 2e
        E 5 90 39 2f
        E 87 90 40 00
        E 5 90 2d 00
        E 0 90 39 00
        E 67 90 34 00
        E 5 90 21 1d
        E 71 90 28 1d
        E 5 90 21 00
        E 46 90 1c 2a
        E 16 90 28 00
        E 5 90 28 31
        E 92 90 1c 00
        E 97 90 28 00
        E 148 90 28 27
        E 0 90 34 2a
        E 5 90 40 2f
        E 82 90 40 00
        E 5 90 28 00
        E 0 90 34 00
        E 450 90 28 15
        E 82 90 2f 1f
        E 0 90 34 24
        E 0 90 3b 1d
        E 5 90 28 00
        E 67 90 40 1d
        E 10 90 2f 00
        E 0 90 34 00
        E 71 90 40 00
        E 6 90 3b 00
        E 61 90 2f 1e
        E 5 90 3b 1d
        E 77 90 34 2a
        E 0 90 40 1d
        E 5 90 4c 29
        E 71 90 2f 00
        E 10 90 34 00
        E 5 90 4c 00
        E 41 90 2a 18
        E 5 90 2f 19
        E 6 90 4b 23
        E 71 90 2a 00
        E 0 90 2f 00
        E 0 90 3b 00
        E 5 90 40 00
        E 0 90 4b 00
        E 62 e0 55 2a
        E 0 90 2a 1b
        E 5 e0 55 6a
        E 5 e0 55 6a
        E 6 e0 55 6a
        E 5 e0 55 6a
        E 6 e0 55 6a
        E 5 e0 55 6a
        E 6 e0 2b 35
        E 5 e0 2b 35
        E 6 e0 2b 35
        E 5 e0 2b 35
        E 5 e0 00 20
        E 6 e0 7f 7f
        E 5 e0 00 20
        E 6 e0 00 20
        E 5 e0 00 20
        E 0 90 2a 00
        E 220 90 21 17
        E 62 90 2d 2b
        E 5 90 21 00
        E 5 90 39 2b
        E 61 90 21 27
        E 21 90 34 23
        E 81 90 39 00
        E 0 90 39 28
        E 72 90 3c 2f
        E 10 90 21 00
        E 10 90 2d 00
        E 57 90 2d 23
        E 0 90 40 2d
        E 61 90 28 1e
        E 10 90 2d 00
        E 10 90 3c 00
        E 0 90 40 00
        E 5 90 39 00
        E 46 90 28 00
        E 6 90 28 2a
        E 0 90 34 00
        E 0 90 34 31
        E 0 90 47 2b
        E 76 90 47 00
        E 21 90 34 00
        E 40 90 1c 23
        E 6 90 2c 29
        E 15 90 34 21
        E 0 90 38 30
        E 5 90 3b 25
        E 5 90 40 1d
        E 31 90 1c 00
        E 30 90 40 00
        E 6 90 3b 00
        E 0 90 40 25
        E 5 90 28 00
        E 0 90 2c 00
        E 0 90 34 00
        E 0 90 38 00
        E 56 90 38 29
        E 0 90 3b 30
        E 5 90 34 22
        E 5 90 28 21
        E 0 90 44 26
        E 72 90 34 00
        E 0 90 38 00
        E 5 90 3b 00
        E 5 90 40 00
        E 5 90 44 00
        E 41 90 2d 2b
        E 11 90 39 24
        E 0 90 48 40
        E 15 90 28 00
        E 46 90 48 00
        E 30 90 28 1c
        E 6 90 34 22
        E 66 90 21 24
        E 10 90 39 00
        E 5 90 28 00
        E 0 90 39 29
        E 0 90 40 21
        E 77 90 40 00
        E 5 90 21 00
        E 0 90 40 2b
        E 87 90 2d 00
        E 10 90 39 00
        E 0 90 40 00
        E 31 90 34 00
        E 25 90 2d 21
        E 0 90 39 24
        E 11 90 40 20
        E 61 90 34 25
        E 10 90 2d 00
        E 72 90 34 00
        E 5 90 39 00
        E 0 90 40 00
        E 61 90 2d 1f
        E 0 90 34 25
        E 0 90 39 29
        E 0 90 40 23
        E 5 90 4c 28
        E 61 90 28 2b
        E 5 90 3b 2a
        E 6 90 47 2a
        E 5 90 2d 00
        E 0 90 40 00
        E 0 90 4c 00
        E 5 90 39 00
        E 62 90 34 00
        E 5 90 28 00
        E 0 90 3b 00
        E 0 90 47 00
        E 61 90 28 18
        E 5 90 21 1a
        E 72 90 28 00
        E 0 90 2d 2f
        E 5 90 39 27
        E 71 90 21 00
        E 21 90 2d 00
        E 56 90 2d 27
        E 10 90 39 00
        E 0 90 39 26
        E 67 90 3c 28
        E 66 90 39 00
        E 15 90 2d 00
        E 0 90 40 22
        E 67 90 28 22
        E 0 90 2d 1c
        E 0 90 39 1f
        E 10 90 45 27
        E 15 90 3c 00
        E 46 90 28 00
        E 0 90 28 2b
        E 5 90 2d 00
        E 0 90 34 23
        E 5 90 39 00
        E 11 90 40 00
        E 0 90 45 00
        E 138 90 2c 2b
        E 0 90 44 26
        E 10 90 3b 22
        E 5 90 38 23
        E 67 90 2c 00
        E 0 90 34 00
        E 0 90 34 26
        E 0 90 40 2b
        E 5 90 3b 00
        E 0 90 44 00
        E 82 90 28 00
        E 0 90 34 00
        E 0 90 40 00
        E 92 90 38 00
        E 46 90 39 3d
        E 20 90 2d 2d
        E 41 90 39 00
        E 61 90 39 24
        E 82 90 34 2e
        E 5 90 39 00
        E 0 90 40 1f
        E 5 90 39 25
        E 10 90 2d 00
        E 72 90 40 00
        E 5 90 34 00
        E 61 90 48 2f
        E 21 90 34 20
        E 0 90 39 00
        E 61 90 34 00
        E 10 90 48 00
        E 92 90 30 24
        E 62 90 37 2e
        E 5 90 30 00
        E 0 90 30 28
        E 56 90 24 22
        E 11 90 43 1a
        E 5 90 3c 2a
        E 71 90 24 00
        E 0 90 43 00
        E 5 90 43 24
        E 67 90 24 17
        E 20 90 3c 00
        E 5 90 37 00
        E 46 90 2b 25
        E 26 90 30 00
        E 0 90 43 00
        E 31 90 1f 25
        E 15 90 24 00
        E 5 90 37 35
        E 5 90 2b 00
        E 0 90 3e 28
        E 0 90 43 26
        E 5 90 2b 37
        E 0 90 4a 22
        E 72 90 1f 00
        E 0 90 2b 00
        E 0 90 2b 27
        E 10 90 3e 00
        E 0 90 43 00
        E 0 90 4a 00
        E 10 90 37 00
        E 46 90 1f 26
        E 10 90 2f 24
        E 11 90 37 26
        E 0 90 3b 29
        E 76 90 2f 00
        E 10 90 1f 00
        E 0 90 37 00
        E 5 90 2b 00
        E 77 90 3b 00
        E 128 90 2d 26
        E 179 90 34 25
        E 0 90 40 2a
        E 87 90 40 00
        E 5 90 39 24
        E 56 90 45 25
        E 16 90 34 00
        E 0 90 39 00
        E 56 90 28 23
        E 20 90 2d 00
        E 0 90 45 00
        E 46 90 3b 37
        E 5 90 28 00
        E 5 90 28 36
        E 6 90 34 29
        E 0 90 47 2b
        E 46 90 3b 00
        E 35 90 34 00
        E 0 90 34 2a
        E 5 90 47 00
        E 16 90 28 00
        E 66 90 3b 1f
        E 5 90 34 00
        E 0 90 34 26
        E 82 90 3b 00
        E 10 90 34 00
        E 61 90 28 27
        E 0 90 34 29
        E 6 90 40 23
        E 71 90 40 00
        E 5 90 40 27
        E 5 90 28 00
        E 5 90 34 00
        E 88 90 40 00
        E 61 e0 55 6a
        E 0 90 34 24
        E 6 e0 00 20
        E 5 e0 00 20
        E 5 e0 00 20
        E 6 e0 00 20
        E 5 e0 00 20
        E 5 e0 00 20
        E 6 e0 00 20
        E 5 e0 00 20
        E 5 e0 00 20
        E 6 e0 00 20
        E 5 e0 00 20
        E 5 e0 00 20
        E 6 e0 00 20
        E 5 e0 00 20
        E 5 e0 00 20
        E 6 e0 00 20
        E 5 e0 00 20
        E 5 e0 00 20
        E 6 e0 00 20
        E 5 e0 00 20
        E 6 e0 00 20
        E 0 90 34 00
        E 163 90 34 1e
        E 46 90 4c 22
        E 46 90 1e 1d
        E 0 90 40 23
        E 71 90 1e 00
        E 0 90 3b 22
        E 16 90 40 00
        E 20 90 4c 00
        E 0 90 4c 1b
        E 51 90 34 00
        E 0 90 3b 00
        E 67 90 4c 00
        E 0 90 4c 29
        E 71 90 34 21
        E 5 90 40 22
        E 5 90 4c 00
        E 0 90 4c 1b
        E 57 90 2f 21
        E 5 90 28 17
        E 0 90 3b 22
        E 5 90 4c 00
        E 0 90 4c 2c
        E 10 90 34 00
        E 0 90 40 00
        E 57 90 28 00
        E 0 90 34 1f
        E 0 90 40 1f
        E 5 90 3b 00
        E 5 90 2f 00
        E 66 90 34 00
        E 0 90 40 00
        E 11 90 4c 00
        E 61 90 38 18
        E 72 90 4c 39
        E 5 90 38 00
        E 56 90 4c 00
        E 20 90 34 28
        E 5 90 3b 30
        E 5 90 47 28
        E 62 90 28 1c
        E 5 90 37 1a
        E 15 90 34 00
        E 5 90 3b 00
        E 0 90 47 00
        E 56 90 37 00
        E 62 90 2d 28
        E 10 90 28 00
        E 5 90 39 2a
        E 61 90 21 24
        E 92 90 28 1b
        E 0 90 34 23
        E 0 90 40 1a
        E 11 90 39 00
        E 0 90 39 27
        E 56 90 21 00
        E 5 90 28 00
        E 0 90 3c 29
        E 0 90 40 00
        E 77 90 40 2b
        E 0 90 45 2e
        E 66 90 34 00
        E 11 90 2d 00
        E 5 90 39 00
        E 0 90 3c 00
        E 0 90 40 00
        E 0 90 45 00
        E 51 90 28 2e
        E 5 90 34 31
        E 5 90 47 2a
        E 77 90 47 00
        E 25 90 34 00
        E 133 90 34 2a
        E 5 90 38 28
        E 0 90 3b 29
        E 0 90 40 24
        E 5 90 44 2c
        E 77 90 34 00
        E 5 90 28 00
        E 0 90 44 00
        E 72 90 38 00
        E 0 90 3b 00
        E 0 90 40 00
        E 66 90 2d 2b
        E 61 90 21 26
        E 26 90 39 1f
        E 5 90 34 25
        E 66 90 39 00
        E 5 90 21 00
        E 0 90 39 35
        E 87 90 40 2c
        E 11 90 39 00
        E 72 90 2d 00
        E 0 90 34 00
        E 5 90 40 00
        E 51 90 2d 25
        E 5 90 39 28
        E 0 90 40 25
        E 5 90 34 21
        E 82 90 2d 00
        E 0 90 34 00
        E 5 90 40 00
        E 71 90 39 00
        E 133 90 34 24
        E 5 90 3b 24
        E 82 90 34 00
        E 5 90 3b 00
        E 118 90 21 25
        E 20 90 2d 2a
        E 153 90 34 24
        E 0 90 40 24
        E 11 90 2d 00
        E 0 90 2d 2d
        E 0 90 39 27
        E 51 90 21 00
        E 10 90 3c 2b
        E 5 90 2d 00
        E 57 90 2d 2c
        E 25 90 39 00
        E 0 90 40 00
        E 46 90 28 25
        E 16 90 34 00
        E 0 90 40 26
        E 10 90 2d 00
        E 10 90 3c 00
        E 41 90 28 00
        E 5 90 28 2e
        E 5 90 34 23
        E 5 90 47 30
        E 5 90 40 00
        E 56 90 47 00
        E 92 90 38 2e
        E 82 90 40 2b
        E 10 90 28 00
        E 0 90 38 00
        E 77 90 40 00
        E 82 90 34 00
        E 51 90 21 23
        E 20 90 2d 2a
        E 97 90 34 28
        E 0 90 39 32
        E 98 90 21 00
        E 20 90 39 00
        E 5 90 34 00
        E 72 90 2d 00
        E 112 90 39 22
        E 108 90 3c 27
        E 5 90 39 00
        E 0 90 39 25
        E 107 90 39 00
        E 5 90 3c 00
        E 61 90 41 2c
        E 46 90 29 24
        E 11 90 35 2e
        E 5 90 48 23
        E 5 90 41 00
        E 36 90 2d 28
        E 51 90 29 00
        E 0 90 39 33
        E 10 90 2d 00
        E 10 90 35 00
        E 67 90 3c 2a
        E 10 90 48 00
        E 5 90 39 00
        E 56 90 39 27
        E 26 90 3c 00
        E 61 90 45 22
        E 72 90 1d 26
        E 5 90 29 29
        E 0 90 2d 1e
        E 0 90 30 22
        E 5 90 3c 27
        E 0 90 45 00
        E 5 90 39 00
        E 0 90 45 2c
        E 5 90 39 31
        E 26 90 4c 31
        E 41 90 1d 00
        E 10 90 35 2d
        E 0 90 48 2a
        E 10 90 2d 00
        E 0 90 30 00
        E 5 90 29 00
        E 0 90 3c 00
        E 5 90 4c 00
        E 6 90 39 00
        E 0 90 45 00
        E 71 90 3a 23
        E 21 90 48 00
        E 61 90 41 27
        E 92 90 3a 00
        E 0 90 3a 21
        E 5 90 41 00
        E 15 90 35 00
        E 62 90 46 28
        E 91 90 35 33
        E 6 90 3a 00
        E 0 90 3a 22
        E 5 90 46 00
        E 25 90 51 33
        E 67 90 3a 00
        E 0 90 51 00
        E 5 90 35 00
        E 148 90 3a 23
        E 92 90 40 21
        E 82 90 37 27
        E 5 90 3a 00
        E 0 90 3a 26
        E 21 90 40 00
        E 81 90 37 00
        E 6 90 3a 00
        E 56 90 35 2d
        E 15 90 46 1f
        E 92 90 39 35
        E 10 90 35 00
        E 92 90 46 00
        E 10 90 39 00
        E 57 90 35 1e
        E 10 90 39 28
        E 61 90 2d 1d
        E 5 90 30 30
        E 5 90 3c 21
        E 16 90 39 00
        E 30 90 43 28
        E 10 90 35 00
        E 6 90 30 00
        E 30 90 39 21
        E 46 90 2d 00
        E 6 90 43 00
        E 46 90 39 00
        E 10 90 3c 00
        E 56 90 2d 25
        E 5 90 29 1c
        E 5 90 30 24
        E 0 90 35 27
        E 6 90 39 34
        E 71 90 29 00
        E 5 90 2d 00
        E 10 90 30 00
        E 0 90 35 00
        E 6 90 39 00
        E 61 90 29 28
        E 0 90 35 2b
        E 102 90 35 00
        E 82 90 39 30
        E 15 90 29 00
        E 66 90 34 2b
        E 0 90 4c 32
        E 16 90 39 00
        E 46 90 4c 00
        E 20 90 2d 2c
        E 16 90 39 27
        E 0 90 45 22
        E 15 90 34 00
        E 82 90 2d 00
        E 5 90 45 00
        E 71 90 39 00
        E 0 90 39 2b
        E 72 90 32 36
        E 21 90 39 00
        E 66 90 35 27
        E 26 90 32 00
        E 61 90 2b 2d
        E 0 90 37 29
        E 15 90 35 00
        E 46 90 2b 00
        E 113 90 2b 1f
        E 5 90 43 22
        E 10 90 37 00
        E 0 90 37 30
        E 102 90 2b 00
        E 0 90 43 00
        E 10 90 37 00
        E 154 90 37 1f
        E 35 90 43 20
        E 46 90 30 21
        E 0 90 34 1c
        E 16 90 3c 1d
        E 0 90 4f 25
        E 66 90 4f 00
        E 31 90 40 1a
        E 51 90 30 00
        E 0 90 34 00
        E 0 90 37 00
        E 0 90 43 00
        E 31 90 2d 1d
        E 20 90 40 00
        E 41 90 2d 00
        E 11 90 3c 00
        E 25 90 43 29
        E 61 90 4f 1b
        E 31 90 30 2a
        E 0 90 3c 2a
        E 5 90 48 36
        E 16 90 43 00
        E 0 90 43 1f
        E 45 90 30 00
        E 0 90 3c 00
        E 0 90 48 00
        E 6 90 4f 00
        E 46 90 43 00
        E 0 90 43 31
        E 92 90 48 26
        E 0 90 4c 31
        E 0 90 4f 27
        E 5 90 3c 2f
        E 20 90 43 00
        E 46 90 4f 00
        E 5 90 4c 00
        E 46 90 3c 00
        E 0 90 48 00
        E 67 90 29 34
        E 0 90 2d 24
        E 10 90 48 21
        E 5 90 35 2f
        E 0 90 45 28
        E 61 90 29 00
        E 5 90 45 00
        E 41 90 2d 00
        E 0 90 48 00
        E 10 90 35 00
        E 67 90 2b 28
        E 15 90 37 29
        E 0 90 3b 20
        E 0 90 43 1a
        E 0 90 4f 16
        E 62 90 4f 00
        E 31 90 4a 22
        E 5 90 2b 00
        E 15 90 37 00
        E 51 90 4a 00
        E 46 90 37 21
        E 5 90 40 1e
        E 5 90 3b 00
        E 108 90 3c 25
        E 0 90 43 00
        E 0 90 43 3f
        E 56 90 40 00
        E 5 90 43 00
        E 25 90 2d 1f
        E 11 90 39 21
        E 15 90 3c 00
        E 26 90 2b 27
        E 10 90 2d 00
        E 10 90 39 00
        E 46 90 2b 00
        E 0 90 43 1f
        E 5 90 37 00
        E 92 90 43 00
        E 0 90 43 29
        E 0 90 48 36
        E 0 90 4f 1d
        E 61 90 48 00
        E 5 90 4f 00
        E 21 90 22 21
        E 5 90 37 1c
        E 10 90 43 00
        E 0 90 43 33
        E 46 90 22 00
        E 21 90 43 00
        E 30 90 40 2c
        E 5 90 3c 31
        E 0 90 48 29
        E 0 90 4f 30
        E 11 90 37 00
        E 56 90 4f 00
        E 51 90 3c 00
        E 0 90 48 00
        E 5 90 40 00
        E 62 90 29 23
        E 5 90 2d 23
        E 10 90 48 27
        E 97 90 35 21
        E 5 90 39 27
        E 16 90 48 00
        E 40 90 29 00
        E 0 90 2d 00
        E 0 90 35 00
        E 6 90 39 00
        E 30 90 2b 2a
        E 16 90 37 22
        E 0 90 3b 22
        E 0 90 43 26
        E 0 90 4f 1c
        E 61 90 4f 00
        E 10 90 43 00
        E 36 90 2b 00
        E 61 90 47 20
        E 10 90 37 00
        E 51 90 38 29
        E 11 90 47 00
        E 112 90 44 1d
        E 72 90 44 00
        E 56 90 25 1d
        E 5 90 47 16
        E 57 90 25 00
        E 0 90 47 00
        E 5 90 47 30
        E 15 90 38 00
        E 5 90 3b 00
        E 41 90 47 00
        E 281 e0 55 2a
        E 0 90 28 1c
        E 5 e0 55 2a
        E 6 e0 00 60
        E 5 e0 00 60
        E 5 e0 00 60
        E 6 e0 00 60
        E 5 e0 00 60
        E 5 e0 00 60
        E 6 e0 00 60
        E 5 e0 00 60
        E 5 e0 00 20
        E 6 e0 00 20
        E 5 e0 00 20
        E 6 e0 00 20
        E 5 e0 00 20
        E 5 e0 00 20
        E 6 e0 00 20
        E 5 e0 00 20
        E 5 e0 00 20
        E 6 e0 00 20
        E 5 e0 00 20
        E 5 e0 00 20
        E 0 90 28 00
        E 808 e0 00 60
        E 0 90 25 1d
        E 5 e0 00 00
        E 6 e0 00 00
        E 5 e0 00 00
        E 6 e0 00 00
        E 5 e0 00 00
        E 6 e0 00 20
        E 5 e0 00 20
        E 6 e0 55 2a
        E 5 e0 55 2a
        E 6 e0 55 2a
        E 5 e0 55 2a
        E 5 e0 2b 35
        E 6 e0 2b 35
        E 5 e0 55 2a
        E 6 e0 55 2a
        E 0 90 25 00
        E 1283 90 3b 1a
        E 67 90 2a 1c
        E 5 90 2f 19
        E 71 90 40 1e
        E 5 90 4c 22
        E 67 90 2a 00
        E 10 90 40 00
        E 5 90 3b 00
        E 56 90 2f 00
        E 0 90 4c 00
        E 0 90 4c 21
        E 61 90 2a 20
        E 82 e0 55 6a
        E 0 90 2a 00
        E 0 90 4c 00
        E 0 90 4c 1f
        E 6 e0 55 6a
        E 5 e0 55 6a
        E 6 e0 55 6a
        E 5 e0 55 6a
        E 6 e0 55 6a
        E 5 e0 55 6a
        E 6 e0 55 6a
        E 5 e0 55 6a
        E 5 e0 55 6a
        E 6 e0 55 6a
        E 5 e0 55 6a
        E 6 e0 55 6a
        E 5 e0 55 6a
        E 6 e0 55 6a
        E 0 90 4c 00
        E 56 e0 00 60
        E 0 90 4c 38
        E 6 e0 55 6a
        E 5 e0 2b 75
        E 6 e0 2b 75
        E 5 e0 55 6a
        E 6 e0 55 6a
        E 5 e0 55 6a
        E 6 e0 55 6a
        E 6 e0 55 6a
        E 5 e0 55 6a
        E 6 e0 55 6a
        E 5 e0 55 6a
        E 0 90 4c 00
        E 26 90 2b 1c
        E 0 90 37 24
        E 5 90 3b 25
        E 0 90 47 32
        E 66 90 40 1b
        E 11 90 2b 00
        E 5 90 37 00
        E 5 90 47 00
        E 51 90 28 19
        E 0 90 2f 1a
        E 5 90 21 1d
        E 5 90 3b 00
        E 0 90 40 00
        E 57 90 2d 27
        E 5 90 21 00
        E 0 90 28 00
        E 0 90 39 24
        E 5 90 2f 00
        E 56 90 21 23
        E 16 90 34 27
        E 76 90 39 00
        E 0 90 39 22
        E 21 90 34 00
        E 25 90 30 27
        E 10 90 21 00
        E 6 90 3c 2b
        E 35 90 34 1d
        E 36 90 40 2d
        E 5 90 45 1c
        E 5 90 30 00
        E 31 90 28 23
        E 20 90 39 00
        E 0 90 39 24
        E 5 90 45 00
        E 6 90 45 25
        E 10 90 2d 00
        E 5 90 3c 00
        E 36 90 28 00
        E 0 90 34 00
        E 5 90 28 29
        E 0 90 34 32
        E 5 90 3b 2a
        E 10 90 39 00
        E 5 90 40 00
        E 0 90 45 00
        E 77 90 3b 00
        E 5 90 34 00
        E 46 90 2c 2a
        E 10 90 34 28
        E 0 90 38 2a
        E 72 90 3b 27
        E 5 90 40 27
        E 0 90 44 2c
        E 5 90 2c 00
        E 5 90 34 00
        E 82 90 44 00
        E 56 90 34 1c
        E 15 90 28 00
        E 0 90 3b 00
        E 5 90 38 00
        E 0 90 40 00
        E 31 90 2d 2f
        E 26 90 34 00
        E 67 90 21 24
        E 10 90 28 20
        E 5 90 39 2f
        E 76 90 34 24
        E 0 90 40 23
        E 11 90 28 00
        E 10 90 39 00
        E 61 90 34 00
        E 0 90 39 21
        E 0 90 40 00
        E 5 90 21 00
        E 0 90 34 27
        E 0 90 40 1d
        E 5 90 2d 00
        E 62 90 2d 1e
        E 5 90 40 00
        E 0 90 40 22
        E 15 90 34 00
        E 56 90 34 21
        E 77 90 34 00
        E 10 90 40 00
        E 67 90 39 00
        E 56 90 39 22
        E 10 90 2d 00
        E 56 90 28 1d
        E 0 90 34 2d
        E 5 90 40 21
        E 5 90 3b 27
        E 0 90 47 2e
        E 11 90 39 00
        E 56 90 34 00
        E 10 90 3b 00
        E 0 90 40 00
        E 5 90 47 00
        E 46 90 2d 1e
        E 5 90 28 00
        E 56 90 2d 00
        E 1 90 2d 28
        E 77 90 21 20
        E 0 90 40 29
        E 10 90 34 24
        E 5 90 39 1d
        E 46 90 1d 1d
        E 15 90 39 00
        E 5 90 39 22
        E 5 90 40 00
        E 52 90 1d 00
        E 10 90 3c 23
        E 0 90 40 29
        E 66 90 21 00
        E 5 90 45 19
        E 10 90 40 00
        E 6 90 34 00
        E 35 90 28 1f
        E 16 90 45 00
        E 5 90 39 00
        E 0 90 39 1e
        E 0 90 40 1c
        E 0 90 45 28
        E 5 90 3c 00
        E 10 90 2d 00
        E 51 90 28 00
        E 0 90 28 27
        E 5 90 34 27
        E 0 90 3b 1f
        E 11 90 39 00
        E 5 90 45 00
        E 66 90 1c 1d
        E 5 90 40 00
        E 56 90 1c 00
        E 5 90 38 2b
        E 16 90 34 00
        E 56 90 34 27
        E 5 90 40 31
        E 15 90 3b 00
        E 57 90 48 31
        E 15 90 38 00
        E 0 90 40 00
        E 71 90 28 00
        E 0 90 34 00
        E 6 90 48 00
        E 46 90 45 3f
        E 15 90 2d 31
        E 0 90 39 2a
        E 36 90 21 30
        E 10 90 45 00
        E 41 90 34 26
        E 10 90 21 00
        E 6 90 2d 00
        E 56 90 2d 1f
        E 10 90 39 00
        E 0 90 39 29
        E 143 90 48 31
        E 5 90 2d 00
        E 10 90 34 00
        E 0 90 39 00
        E 62 90 40 14
        E 15 90 48 00
        E 36 90 24 2a
        E 15 90 30 29
        E 5 90 40 00
        E 77 90 24 00
        E 0 90 37 2b
        E 0 90 3c 1c
        E 66 90 24 20
        E 10 90 3c 00
        E 0 90 43 1a
        E 6 90 3c 2a
        E 66 90 24 00
        E 0 90 43 00
        E 5 90 43 24
        E 10 90 3c 00
        E 0 90 3c 21
        E 72 90 3c 00
        E 5 90 30 00
        E 0 90 43 00
        E 5 90 37 00
        E 46 90 2b 28
        E 5 90 43 18
        E 57 90 37 26
        E 5 90 2b 00
        E 5 90 2b 33
        E 0 90 3e 27
        E 5 90 43 00
        E 61 90 1f 20
        E 6 90 3b 1f
        E 5 90 37 00
        E 5 90 37 26
        E 5 90 2b 00
        E 0 90 2b 29
        E 5 90 3e 00
        E 46 90 1f 00
        E 5 90 1f 28
        E 10 90 3b 00
        E 5 90 3b 24
        E 0 90 3e 19
        E 72 90 1f 00
        E 5 90 3e 00
        E 5 90 2b 00
        E 5 90 37 00
        E 148 90 3b 00
        E 51 90 21 23
        E 6 90 2d 32
        E 81 90 34 26
        E 11 90 21 00
        E 10 90 2d 00
        E 56 90 2d 30
        E 5 90 40 2f
        E 5 90 39 2e
        E 72 90 34 00
        E 0 90 34 21
        E 5 90 2d 00
        E 5 90 39 00
        E 0 90 40 00
        E 56 90 3e 23
        E 5 90 39 22
        E 0 90 40 22
        E 72 90 28 24
        E 5 90 34 00
        E 6 90 39 00
        E 0 90 3e 00
        E 0 90 40 00
        E 40 90 1c 29
        E 21 90 34 2a
        E 5 90 28 00
        E 0 90 47 2a
        E 5 90 28 2e
        E 61 90 47 00
        E 5 90 40 24
        E 6 90 1c 00
        E 0 90 34 00
        E 0 90 34 27
        E 30 90 3b 1a
        E 51 90 40 00
        E 5 90 40 2e
        E 11 90 3b 00
        E 81 90 28 00
        E 5 90 34 00
        E 0 90 40 00
        E 57 90 28 29
        E 0 90 34 29
        E 0 90 40 28
        E 66 90 40 00
        E 5 90 40 22
        E 5 90 34 00
        E 5 90 28 00
        E 103 90 40 00
        E 552 90 2f 1e
        E 5 90 40 21
        E 82 90 2f 00
        E 5 90 40 00
        E 56 90 2f 1f
        E 0 90 34 20
        E 0 90 3b 24
        E 77 90 2f 00
        E 0 90 34 00
        E 5 90 3b 00
        E 132 90 2f 14
        E 0 90 3b 1d
        E 77 90 2f 00
        E 5 90 3b 00
        E 143 90 28 24
        E 5 90 34 22
        E 5 90 3b 30
        E 73 90 28 00
        E 0 90 34 00
        E 10 90 3b 00
        E 51 90 2f 1a
        E 66 90 2d 27
        E 10 90 39 25
        E 6 90 2f 00
        E 71 90 34 25
        E 67 90 21 23
        E 15 90 39 00
        E 0 90 39 28
        E 61 90 3c 29
        E 5 90 21 00
        E 72 90 40 29
        E 0 90 45 1b
        E 20 90 34 00
        E 46 90 45 00
        E 5 90 45 29
        E 11 90 2d 00
        E 0 90 3c 00
        E 0 90 40 00
        E 5 90 39 00
        E 15 90 1c 24
        E 20 90 28 31
        E 0 90 34 2e
        E 31 90 45 00
        E 72 90 34 00
        E 0 90 34 2b
        E 61 90 2c 21
        E 5 90 38 2a
        E 0 90 44 1f
        E 10 90 28 00
        E 5 90 1c 00
        E 0 90 34 00
        E 51 90 28 27
        E 11 90 3b 23
        E 5 90 2c 00
        E 0 90 34 22
        E 0 90 40 27
        E 67 90 28 00
        E 0 90 44 00
        E 0 90 44 2a
        E 10 90 38 00
        E 71 90 34 00
        E 6 90 3b 00
        E 0 90 40 00
        E 5 90 44 00
        E 40 90 39 23
        E 11 90 21 22
        E 0 90 34 19
        E 5 90 2d 30
        E 76 90 34 00
        E 6 90 34 22
        E 71 90 39 00
        E 5 90 39 25
        E 0 90 40 2d
        E 5 90 2d 00
        E 0 90 2d 26
        E 77 90 21 00
        E 0 90 48 15
        E 10 90 40 00
        E 51 90 40 27
        E 5 90 48 00
        E 82 90 2d 00
        E 5 90 39 00
        E 51 90 2d 1d
        E 5 90 39 23
        E 31 90 40 00
        E 51 90 34 00
        E 72 90 2d 00
        E 5 90 39 00
        E 61 e0 7f 7f
        E 0 90 47 2a
        E 5 e0 7f 7f
        E 5 e0 00 20
        E 5 e0 00 20
        E 6 e0 00 20
        E 5 e0 00 20
        E 5 e0 00 20
        E 5 e0 00 20
        E 5 e0 00 20
        E 5 e0 00 20
        E 5 e0 00 20
        E 6 e0 00 20
        E 5 e0 00 20
        E 5 e0 00 20
        E 5 e0 00 20
        E 5 e0 00 20
        E 5 e0 00 20
        E 5 e0 00 20
        E 0 90 47 00
        E 57 e0 00 20
        E 0 90 2d 1c
        E 5 e0 00 20
        E 6 e0 2b 15
        E 5 e0 2b 15
        E 6 e0 00 20
        E 5 e0 00 20
        E 6 e0 00 20
        E 5 e0 00 20
        E 6 e0 00 60
        E 5 e0 00 60
        E 6 e0 00 20
        E 5 e0 00 20
        E 6 e0 00 20
        E 5 e0 00 20
        E 0 90 2d 00
        E 5 90 2d 27
        E 5 90 39 23
        E 143 90 21 26
        E 0 90 34 22
        E 0 90 40 1a
        E 5 90 39 00
        E 0 90 39 24
        E 67 90 21 00
        E 5 90 3c 26
        E 0 90 48 1c
        E 61 90 28 19
        E 5 90 40 00
        E 6 90 40 22
        E 0 90 45 14
        E 5 90 48 00
        E 56 90 28 00
        E 5 90 28 22
        E 0 90 34 00
        E 0 90 45 00
        E 5 90 39 00
        E 0 90 39 21
        E 0 90 45 24
        E 15 90 2d 00
        E 0 90 3c 00
        E 51 90 28 00
        E 0 90 28 2b
        E 0 90 34 32
        E 6 90 47 31
        E 5 90 45 00
        E 5 90 39 00
        E 56 90 47 00
        E 26 90 34 00
        E 0 90 40 00
        E 51 90 2c 27
        E 5 90 3b 21
        E 5 90 38 29
        E 5 90 40 28
        E 62 90 2c 00
        E 5 90 3b 00
        E 5 90 38 00
        E 5 90 28 00
        E 0 90 40 00
        E 307 90 2d 28
        E 20 90 39 17
        E 66 90 39 00
        E 6 90 2d 00
        E 158 e0 00 20
        E 0 90 2d 29
        E 5 e0 00 20
        E 6 e0 00 20
        E 5 e0 00 20
        E 5 e0 00 20
        E 6 e0 00 20
        E 5 e0 00 20
        E 6 e0 00 20
        E 5 e0 00 20
        E 5 e0 00 20
        E 6 e0 00 20
        E 5 e0 00 20
        E 6 e0 00 20
        E 5 e0 00 20
        E 5 e0 00 20
        E 6 e0 00 20
        E 5 e0 00 20
        E 6 e0 00 20
        E 5 e0 00 20
        E 0 90 2d 00
        E 56 90 27 21
        E 21 90 43 2f
        E 5 90 2d 2b
        E 56 90 43 00
        E 15 90 27 00
        E 21 90 2d 00
        E 353 e0 2b 15
        E 0 90 2d 23
        E 5 e0 2b 15
        E 6 e0 2b 15
        E 5 e0 2b 15
        E 6 e0 00 20
        E 5 e0 00 20
        E 5 e0 00 20
        E 6 e0 00 20
        E 5 e0 00 20
        E 6 e0 00 20
        E 5 e0 00 20
        E 6 e0 00 20
        E 5 e0 00 20
        E 6 e0 00 20
        E 5 e0 00 20
        E 5 e0 00 20
        E 0 90 2d 00
        E 220 90 2d 2c
        E 10 90 39 19
        E 77 90 39 00
        E 5 90 39 2c
        E 10 90 2d 00
        E 87 90 39 00
        E 174 90 2d 28
        E 82 90 39 26
        E 82 90 39 00
        E 82 90 2d 00
        E 61 90 2d 2e
        E 20 90 39 1b
        E 87 90 39 00
        E 5 90 39 29
        E 16 90 2d 00
        E 61 90 2d 27
        E 97 90 39 00
        E 77 90 39 23
        E 76 90 2d 00
        E 5 90 2d 2c
        E 11 90 39 00
        E 97 90 2d 00
        E 0 90 2d 1d
        E 61 90 26 25
        E 0 90 41 2d
        E 21 90 2d 00
        E 97 90 2d 28
        E 15 90 41 00
        E 138 90 26 00
        E 0 90 26 27
        E 97 90 26 00
        E 5 90 2d 00
        E 57 e0 00 20
        E 0 90 2d 23
        E 5 e0 00 20
        E 5 e0 00 20
        E 6 e0 00 20
        E 5 e0 00 20
        E 5 e0 00 20
        E 6 e0 00 20
        E 5 e0 00 20
        E 6 e0 00 20
        E 5 e0 00 20
        E 5 e0 00 20
        E 6 e0 00 20
        E 5 e0 00 20
        E 5 e0 00 20
        E 6 e0 00 20
        E 5 e0 00 20
        E 6 e0 00 20
        E 5 e0 2b 15
        E 5 e0 2b 15
        E 6 e0 2b 15
        E 0 90 2d 00
        E 230 90 27 28
        E 97 90 2d 26
        E 133 90 27 00
        E 46 90 28 26
        E 10 90 2d 00
        E 82 90 3c 23
        E 92 90 2d 2b
        E 20 90 3c 00
        E 57 90 2d 00
        E 20 90 28 00
        E 0 90 28 22
        E 82 90 47 26
        E 81 90 47 00
        E 82 90 21 29
        E 10 90 3c 28
        E 0 90 45 2d
        E 16 90 28 00
        E 46 90 45 00
        E 10 90 3c 00
        E 26 90 21 00
        E 0 90 2d 23
        E 66 90 39 1e
        E 87 90 39 00
        E 16 90 21 27
        E 76 90 2d 00
        E 5 90 21 00
        E 82 90 2d 25
        E 5 90 21 27
        E 97 90 2d 00
        E 0 90 49 2c
        E 5 90 2d 24
        E 11 90 21 00
        E 71 90 21 25
        E 0 90 2d 00
        E 0 90 2d 26
        E 5 90 49 00
        E 107 90 2d 00
        E 67 90 2d 29
        E 5 90 21 00
        E 87 90 21 23
        E 92 90 21 00
        E 21 e0 2b 15
        E 0 90 2d 00
        E 0 90 2d 25
        E 5 e0 2b 15
        E 6 e0 2b 15
        E 5 e0 2b 15
        E 5 e0 2b 15
        E 6 e0 00 20
        E 5 e0 00 20
        E 6 e0 00 20
        E 5 e0 00 20
        E 5 e0 2b 15
        E 6 e0 2b 15
        E 5 e0 2b 15
        E 6 e0 2b 15
        E 5 e0 2b 15
        E 5 e0 00 20
        E 6 e0 00 20
        E 5 e0 00 20
        E 6 e0 00 20
        E 0 90 2d 00
        E 0 90 2d 1d
        E 51 90 21 1e
        E 15 90 2d 00
        E 0 90 2d 20
        E 67 90 39 23
        E 5 90 21 00
        E 0 90 2d 00
        E 92 90 2d 2a
        E 10 90 39 00
        E 92 90 2d 00
        E 265 e0 00 20
        E 0 90 2d 29
        E 6 e0 00 20
        E 5 e0 2b 15
        E 6 e0 2b 15
        E 6 e0 2b 15
        E 5 e0 00 20
        E 6 e0 00 20
        E 5 e0 00 20
        E 6 e0 00 20
        E 5 e0 00 20
        E 6 e0 00 20
        E 5 e0 00 20
        E 6 e0 00 20
        E 0 90 2d 00
        E 67 90 2d 28
        E 10 90 39 22
        E 107 90 39 00
        E 133 90 2d 00
        E 77 e0 00 00
        E 0 90 2e 2e
        E 5 e0 2b 75
        E 5 e0 2b 75
        E 6 e0 2b 75
        E 5 e0 2b 75
        E 6 e0 2b 75
        E 5 e0 2b 75
        E 5 e0 2b 75
        E 6 e0 2b 75
        E 5 e0 2b 75
        E 5 e0 2b 75
        E 6 e0 2b 75
        E 5 e0 55 6a
        E 5 e0 55 6a
        E 6 e0 00 00
        E 5 e0 2b 75
        E 6 e0 2b 75
        E 5 e0 2b 75
        E 5 e0 2b 75
        E 6 e0 2b 15
        E 5 e0 55 0a
        E 0 90 2e 00
        E 0 90 2e 2c
        E 77 90 3a 20
        E 10 90 2e 00
        E 0 90 2e 2e
        E 92 90 2e 00
        E 0 90 2e 2d
        E 5 90 3a 00
        E 82 e0 2b 15
        E 0 90 2e 00
        E 0 90 2e 27
        E 5 e0 2b 15
        E 6 e0 2b 15
        E 5 e0 2b 15
        E 5 e0 2b 15
        E 6 e0 2b 15
        E 5 e0 2b 15
        E 6 e0 2b 15
        E 5 e0 2b 15
        E 6 e0 2b 15
        E 5 e0 2b 15
        E 6 e0 2b 15
        E 5 e0 2b 15
        E 5 e0 2b 15
        E 6 e0 2b 15
        E 5 e0 00 20
        E 0 90 2e 00
        E 0 90 2e 25
        E 6 e0 2b 15
        E 5 e0 2b 15
        E 5 e0 2b 15
        E 5 e0 2b 15
        E 5 e0 2b 15
        E 5 e0 2b 15
        E 5 e0 2b 15
        E 5 e0 2b 15
        E 6 e0 2b 15
        E 5 e0 2b 15
        E 5 e0 2b 15
        E 5 e0 2b 15
        E 5 e0 00 20
        E 5 e0 00 20
        E 5 e0 00 20
        E 6 e0 00 20
        E 5 e0 00 20
        E 5 e0 00 20
        E 0 90 2e 00
        E 0 90 2e 24
        E 5 e0 2b 15
        E 6 e0 2b 15
        E 5 e0 2b 15
        E 5 e0 2b 15
        E 6 e0 2b 15
        E 5 e0 2b 15
        E 6 e0 2b 15
        E 5 e0 2b 15
        E 5 e0 2b 15
        E 6 e0 2b 15
        E 5 e0 2b 15
        E 6 e0 2b 15
        E 5 e0 2b 15
        E 5 e0 2b 15
        E 6 e0 2b 15
        E 5 e0 2b 15
        E 6 e0 2b 15
        E 5 e0 2b 15
        E 0 90 2e 00
        E 0 90 2e 2c
        E 5 e0 2b 15
        E 6 e0 2b 15
        E 5 e0 2b 15
        E 6 e0 2b 15
        E 5 e0 2b 15
        E 6 e0 2b 15
        E 5 e0 2b 15
        E 5 e0 2b 15
        E 6 e0 2b 15
        E 5 e0 2b 15
        E 6 e0 2b 15
        E 5 e0 2b 15
        E 5 e0 2b 15
        E 6 e0 2b 15
        E 5 e0 2b 15
        E 6 e0 2b 15
        E 0 90 2e 00
        E 0 90 2e 2c
        E 5 e0 2b 15
        E 6 e0 2b 15
        E 5 e0 2b 15
        E 5 e0 2b 15
        E 6 e0 2b 15
        E 5 e0 2b 15
        E 6 e0 2b 15
        E 5 e0 2b 15
        E 6 e0 2b 15
        E 5 e0 2b 15
        E 5 e0 2b 15
        E 6 e0 2b 15
        E 5 e0 2b 15
        E 6 e0 2b 15
        E 5 e0 2b 15
        E 6 e0 2b 15
        E 0 90 2e 00
        E 0 90 2e 2a
        E 5 e0 2b 15
        E 5 e0 2b 15
        E 6 e0 2b 15
        E 5 e0 2b 15
        E 6 e0 2b 15
        E 5 e0 2b 15
        E 6 e0 2b 15
        E 5 e0 2b 15
        E 5 e0 2b 15
        E 6 e0 2b 15
        E 5 e0 2b 15
        E 6 e0 2b 15
        E 5 e0 2b 15
        E 6 e0 2b 15
        E 5 e0 2b 15
        E 5 e0 2b 15
        E 0 90 2e 00
        E 0 90 2e 27
        E 154 90 22 21
        E 5 90 3a 2a
        E 0 90 41 30
        E 10 90 2e 00
        E 0 90 2e 29
        E 0 90 46 2b
        E 51 90 41 00
        E 41 90 46 00
        E 5 90 3a 00
        E 72 90 22 00
        E 5 90 2e 00
        E 0 90 2e 24
        E 10 90 3e 20
        E 66 90 22 24
        E 21 90 3e 00
        E 72 e0 00 20
        E 0 90 22 00
        E 0 90 2e 00
        E 0 90 2e 32
        E 5 e0 2b 75
        E 6 e0 2b 75
        E 5 e0 2b 75
        E 5 e0 55 0a
        E 6 e0 55 0a
        E 5 e0 2b 15
        E 5 e0 2b 15
        E 6 e0 2b 15
        E 5 e0 2b 15
        E 6 e0 2b 15
        E 5 e0 2b 15
        E 5 e0 2b 15
        E 6 e0 2b 15
        E 5 e0 2b 15
        E 5 e0 2b 15
        E 6 e0 2b 15
        E 5 e0 2b 15
        E 5 e0 2b 15
        E 6 e0 2b 15
        E 5 e0 2b 15
        E 0 90 2e 00
        E 56 90 2f 28
        E 240 90 3b 1f
        E 62 90 3b 00
        E 71 90 38 26
        E 0 90 3e 43
        E 62 90 3e 00
        E 56 90 38 00
        E 56 90 2f 00
        E 46 90 30 2b
        E 0 90 3c 1f
        E 0 90 40 25
        E 144 90 30 00
        E 10 90 40 00
        E 81 90 3c 00
        E 338 90 2c 28
        E 5 90 25 2a
        E 10 90 28 26
        E 0 90 47 35
        E 5 90 34 31
        E 0 90 38 28
        E 0 90 40 28
        E 0 90 44 31
        E 61 90 25 00
        E 0 90 28 00
        E 0 90 2c 00
        E 0 90 44 00
        E 16 90 34 00
        E 0 90 47 00
        E 71 90 40 00
        E 5 90 38 00
        E 404 90 30 1e
        E 6 90 21 26
        E 0 90 28 1b
        E 0 90 40 20
        E 0 90 45 22
        E 5 90 2d 29
        E 0 90 39 22
        E 5 90 34 22
        E 61 90 28 00
        E 0 90 3c 22
        E 10 90 30 00
        E 0 90 34 00
        E 56 90 34 23
        E 11 90 40 00
        E 41 90 48 21
        E 15 90 45 00
        E 0 90 45 1c
        E 15 90 34 00
        E 5 90 2d 00
        E 26 90 48 00
        E 5 90 48 1e
        E 15 90 3c 00
        E 16 90 21 00
        E 15 90 2d 24
        E 0 90 34 23
        E 5 90 40 1e
        E 5 90 4c 1f
        E 41 90 21 22
        E 10 90 3c 25
        E 0 90 48 00
        E 0 90 48 27
        E 5 90 39 00
        E 0 90 39 24
        E 5 90 4c 00
        E 11 90 34 00
        E 41 90 48 00
        E 0 90 48 21
        E 5 90 40 00
        E 30 90 28 19
        E 0 90 34 1f
        E 72 90 28 00
        E 0 90 39 00
        E 0 90 39 25
        E 0 90 3c 00
        E 0 90 3c 21
        E 0 90 45 00
        E 0 90 45 22
        E 61 90 21 00
        E 0 90 45 00
        E 36 90 30 19
        E 52 90 45 1f
        E 0 90 51 1a
        E 10 90 21 1d
        E 5 90 30 00
        E 46 90 51 00
        E 5 90 2d 00
        E 25 90 34 00
        E 16 90 4c 2a
        E 66 90 2d 23
        E 0 90 3c 00
        E 0 90 3c 20
        E 0 90 40 1d
        E 21 90 4c 00
        E 30 90 48 00
        E 0 90 48 22
        E 21 90 39 00
        E 30 90 34 22
        E 46 90 39 20
        E 11 90 3c 00
        E 0 90 3c 24
        E 0 90 40 00
        E 0 90 40 29
        E 46 90 34 00
        E 15 90 48 00
        E 5 90 40 00
        E 31 90 4c 1b
        E 35 90 2d 00
        E 11 90 45 00
        E 5 90 45 35
        E 0 90 48 26
        E 5 90 40 1b
        E 46 90 51 1e
        E 0 90 54 13
        E 15 90 4c 00
        E 5 90 48 00
        E 5 90 45 00
        E 36 90 45 20
        E 0 90 48 26
        E 0 90 4c 30
        E 5 90 2d 1e
        E 0 90 30 23
        E 0 90 51 00
        E 0 90 51 1a
        E 56 90 40 00
        E 6 90 2d 00
        E 0 90 39 00
        E 0 90 40 23
        E 5 90 2d 2c
        E 0 90 39 25
        E 0 90 3c 00
        E 0 90 3c 27
        E 5 90 4c 00
        E 5 90 21 00
        E 0 90 30 00
        E 41 90 54 00
        E 5 90 51 00
        E 15 90 2d 00
        E 31 90 4c 27
        E 15 90 30 1d
        E 51 90 2d 29
        E 16 90 30 00
        E 0 90 39 00
        E 0 90 39 29
        E 0 90 3c 00
        E 0 90 3c 27
        E 5 90 40 00
        E 0 90 4c 00
        E 5 90 48 00
        E 56 90 48 18
        E 6 90 26 17
        E 10 90 2d 00
        E 41 90 40 2e
        E 5 90 4c 25
        E 5 90 30 1b
        E 5 90 26 00
        E 10 90 39 00
        E 41 90 2d 26
        E 5 90 39 24
        E 0 90 4f 1d
        E 10 90 48 00
        E 6 90 4c 00
        E 5 90 40 00
        E 51 90 30 00
        E 0 90 4f 00
        E 5 90 3c 00
        E 5 90 45 00
        E 25 90 2d 00
        E 46 90 39 00
        E 57 e0 00 60
        E 0 90 45 23
        E 5 e0 00 60
        E 5 e0 00 60
        E 6 e0 00 60
        E 5 e0 00 60
        E 6 e0 00 60
        E 5 e0 00 60
        E 6 e0 00 20
        E 5 e0 00 20
        E 5 e0 00 20
        E 6 e0 00 60
        E 5 e0 00 60
        E 6 e0 00 60
        E 5 e0 00 60
        E 5 e0 2b 15
        E 6 e0 2b 15
        E 5 e0 00 60
        E 6 e0 00 60
        E 0 90 45 00
        E 229 e0 55 6a
        E 0 90 2d 26
        E 6 e0 2b 15
        E 5 e0 2b 15
        E 6 e0 2b 15
        E 5 e0 2b 15
        E 5 e0 00 20
        E 6 e0 00 20
        E 5 e0 00 20
        E 5 e0 00 20
        E 6 e0 00 20
        E 5 e0 00 20
        E 6 e0 00 20
        E 5 e0 00 20
        E 5 e0 00 20
        E 6 e0 00 20
        E 5 e0 00 20
        E 6 e0 00 20
        E 5 e0 00 20
        E 5 e0 00 20
        E 6 e0 00 20
        E 0 90 2d 00
        E 82 90 2d 19
        E 51 90 21 25
        E 56 90 2d 00
        E 26 90 21 00
        E 531 e0 00 20
        E 0 90 21 19
        E 6 e0 00 20
        E 5 e0 00 20
        E 6 e0 00 20
        E 5 e0 00 20
        E 6 e0 00 20
        E 5 e0 00 20
        E 6 e0 00 20
        E 6 e0 00 20
        E 5 e0 00 20
        E 6 e0 00 20
        E 5 e0 00 20
        E 0 90 21 00
        E 445 90 21 1c
        E 0 90 2d 2e
        E 82 90 21 00
        E 26 90 2d 00
        E 61 90 34 25
        E 5 90 39 1e
        E 66 90 2d 28
        E 0 90 39 00
        E 0 90 40 1b
        E 6 90 39 23
        E 51 90 21 20
        E 10 90 28 19
        E 5 90 3c 25
        E 71 90 21 00
        E 0 90 40 00
        E 0 90 45 17
        E 6 90 40 2e
        E 10 90 34 00
        E 56 90 45 00
        E 5 90 45 24
        E 5 90 2d 00
        E 0 90 3c 00
        E 10 90 40 00
        E 31 90 1c 1e
        E 5 90 28 00
        E 5 90 28 2a
        E 5 90 34 32
        E 0 90 40 29
        E 16 90 39 00
        E 0 90 45 00
        E 51 90 1c 00
        E 21 90 40 00
        E 15 90 34 00
        E 36 90 2c 23
        E 10 90 38 26
        E 72 90 3b 23
        E 61 90 2c 00
        E 0 90 47 29
        E 5 90 38 00
        E 0 90 38 27
        E 0 90 44 23
        E 26 90 40 1f
        E 51 90 47 00
        E 5 90 28 00
        E 0 90 3b 00
        E 10 90 38 00
        E 46 90 34 2d
        E 5 90 2d 2b
        E 10 90 40 00
        E 5 90 44 00
        E 51 90 21 24
        E 21 90 39 22
        E 15 90 34 00
        E 56 90 39 00
        E 6 90 39 2c
        E 71 90 34 2d
        E 10 90 21 00
        E 87 90 2d 00
        E 0 90 34 00
        E 5 90 39 00
        E 62 90 2d 1f
        E 0 90 40 1a
        E 66 90 39 2c
        E 0 90 45 17
        E 0 90 4c 20
        E 67 90 40 00
        E 0 90 45 00
        E 5 90 2d 00
        E 0 90 4c 00
        E 5 90 39 00
        E 128 90 28 1c
        E 0 90 34 28
        E 5 90 37 18
        E 0 90 3b 26
        E 77 90 37 00
        E 5 90 34 00
        E 0 90 3b 00
        E 61 90 2d 1c
        E 5 90 28 00
        E 61 90 2d 00
        E 5 90 2d 2a
        E 67 90 21 23
        E 10 90 28 23
        E 0 90 40 20
        E 10 90 34 27
        E 0 90 39 21
        E 67 90 39 00
        E 5 90 28 00
        E 0 90 39 26
        E 66 90 21 00
        E 5 90 3c 26
        E 67 90 40 00
        E 5 90 40 24
        E 15 90 34 00
        E 36 90 28 22
        E 20 90 45 2a
        E 11 90 2d 00
        E 5 90 39 00
        E 0 90 3c 00
        E 41 90 28 00
        E 5 90 28 2b
        E 0 90 34 32
        E 5 90 47 2e
        E 10 90 40 00
        E 1 90 45 00
        E 56 90 40 1d
        E 0 90 47 00
        E 25 90 34 00
        E 21 90 3b 17
        E 25 90 1c 24
        E 5 90 2c 29
        E 6 90 34 25
        E 5 90 38 26
        E 56 90 40 00
        E 5 90 40 29
        E 5 90 2c 00
        E 0 90 3b 00
        E 10 90 1c 00
        E 62 90 48 2f
        E 15 90 28 00
        E 66 90 34 00
        E 10 90 38 00
        E 0 90 40 00
        E 0 90 48 00
        E 36 90 21 2a
        E 26 90 2d 25
        E 5 90 39 25
        E 82 90 21 00
        E 61 90 21 21
        E 10 90 45 1a
        E 5 90 34 27
        E 0 90 39 00
        E 0 90 39 27
        E 77 90 21 00
        E 66 90 48 2c
        E 5 90 45 00
        E 6 90 2d 00
        E 5 90 39 00
        E 25 90 34 00
        E 36 90 39 20
        E 0 90 3c 23
        E 0 90 40 1b
        E 15 90 48 00
        E 41 90 24 26
        E 11 90 30 2f
        E 0 90 43 30
        E 10 90 39 00
        E 0 90 40 00
        E 10 90 3c 00
        E 67 90 37 2b
        E 15 90 43 00
        E 66 90 30 00
        E 0 90 30 28
        E 0 90 3c 23
        E 6 90 24 00
        E 71 90 43 2c
        E 82 90 43 00
        E 20 90 37 00
        E 41 90 2b 20
        E 15 90 3c 00
        E 6 90 30 00
        E 35 90 37 34
        E 5 90 2b 00
        E 6 90 2b 35
        E 5 90 3e 25
        E 56 90 1f 24
        E 15 90 2b 00
        E 0 90 2b 29
        E 10 90 3e 00
        E 5 90 37 00
        E 62 90 37 28
        E 5 90 1f 00
        E 71 90 3b 26
        E 11 90 37 00
        E 5 90 2b 00
        E 61 90 2b 21
        E 87 90 2b 00
        E 5 90 3b 00
        E 47 90 2d 2d
        E 81 90 39 1d
        E 82 90 34 2a
        E 0 90 39 00
        E 5 90 39 31
        E 72 90 39 00
        E 0 90 39 24
        E 15 90 2d 00
        E 0 90 34 00
        E 51 90 3e 24
        E 5 90 2d 28
        E 87 90 2d 00
        E 0 90 3e 00
        E 10 90 39 00
        E 56 90 28 2b
        E 77 90 34 30
        E 97 90 40 23
        E 5 90 34 00
        E 67 90 34 23
        E 5 90 40 00
        E 0 90 40 2a
        E 10 90 28 00
        E 56 90 28 27
        E 77 90 3b 19
        E 11 90 28 00
        E 5 90 34 00
        E 5 90 40 00
        E 61 90 3b 00
        E 174 e0 00 20
        E 0 90 3b 18
        E 5 e0 00 20
        E 5 e0 00 20
        E 6 e0 00 20
        E 5 e0 00 20
        E 6 e0 00 20
        E 5 e0 00 20
        E 5 e0 00 20
        E 6 e0 00 20
        E 5 e0 00 20
        E 5 e0 00 20
        E 6 e0 00 20
        E 5 e0 00 20
        E 6 e0 00 20
        E 5 e0 00 20
        E 5 e0 00 20
        E 6 e0 00 20
        E 5 e0 00 20
        E 6 e0 00 20
        E 5 e0 00 20
        E 0 90 3b 00
        E 148 90 28 17
        E 0 90 34 1c
        E 0 90 3b 21
        E 5 90 40 1d
        E 0 90 4b 1f
        E 72 90 28 00
        E 5 90 34 00
        E 0 90 4b 00
        E 5 90 40 00
        E 56 90 28 1e
        E 5 90 34 23
        E 0 90 40 21
        E 0 90 4c 1c
        E 61 90 2f 1f
        E 6 90 4c 00
        E 5 90 4c 28
        E 71 90 28 00
        E 0 90 2f 00
        E 0 90 34 00
        E 0 90 40 00
        E 5 90 3b 00
        E 0 90 4c 00
        E 52 90 28 20
        E 5 90 34 29
        E 0 90 3b 22
        E 0 90 40 22
        E 82 90 28 00
        E 0 90 40 00
        E 5 90 34 00
        E 66 90 3b 00
        E 138 90 34 0f
        E 5 90 3b 13
        E 62 90 34 00
        E 5 90 34 28
        E 0 90 3b 00
        E 5 90 3b 2d
        E 0 90 47 28
        E 66 90 28 1a
        E 21 90 34 00
        E 0 90 47 00
        E 5 90 3b 00
        E 128 90 28 00
        E 0 90 2d 27
        E 66 90 21 23
        E 15 90 34 24
        E 0 90 39 24
        E 72 90 40 1f
        E 5 90 39 00
        E 5 90 39 26
        E 46 90 30 2a
        E 20 90 3c 2b
        E 6 90 21 00
        E 0 90 40 00
        E 56 90 21 22
        E 11 90 40 31
        E 5 90 30 00
        E 0 90 39 00
        E 5 90 2d 00
        E 5 90 34 00
        E 0 90 3c 00
        E 41 90 21 00
        E 5 90 28 20
        E 15 90 39 21
        E 0 90 45 29
        E 15 90 40 00
        E 46 90 28 00
        E 6 90 28 2f
        E 5 90 34 28
        E 0 90 40 24
        E 10 90 39 00
        E 5 90 45 00
        E 123 90 2c 29
        E 10 90 38 29
        E 0 90 44 23
        E 71 90 2c 00
        E 11 90 28 00
        E 5 90 34 00
        E 5 90 40 00
        E 46 90 3b 2f
        E 5 90 47 21
        E 5 90 34 1a
        E 0 90 44 00
        E 0 90 44 24
        E 61 90 31 16
        E 5 90 28 1c
        E 5 90 47 00
        E 11 90 3b 00
        E 5 90 38 00
        E 30 90 21 25
        E 16 90 31 00
        E 5 90 2d 27
        E 0 90 39 29
        E 5 90 28 00
        E 15 90 44 00
        E 56 90 34 00
        E 6 90 34 25
        E 76 90 40 1f
        E 5 90 21 00
        E 0 90 48 1f
        E 16 90 39 00
        E 51 90 4c 28
        E 5 90 39 22
        E 0 90 40 00
        E 5 90 40 2a
        E 10 90 48 00
        E 67 90 4c 00
        E 5 90 40 00
        E 67 90 2d 00
        E 0 90 39 00
        E 5 90 34 00
        E 51 90 2d 23
        E 5 90 34 20
        E 0 90 39 28
        E 0 90 45 19
        E 71 90 2d 00
        E 0 90 45 00
        E 6 90 39 00
        E 56 90 47 25
        E 5 90 39 26
        E 82 90 39 00
        E 0 90 47 00
        E 66 90 34 00
        E 72 90 21 25
        E 0 90 2d 1b
        E 66 90 2d 00
        E 5 90 2d 27
        E 10 90 39 2e
        E 92 90 21 00
        E 72 90 34 24
        E 25 90 39 00
        E 56 90 3c 25
        E 73 90 39 2a
        E 0 90 40 2e
        E 71 90 34 00
        E 21 90 2d 00
        E 0 90 39 00
        E 0 90 3c 00
        E 5 90 40 00
        E 51 90 28 26
        E 5 90 34 32
        E 0 90 47 2e
        E 71 90 47 00
        E 41 90 34 00
        E 62 90 34 1d
        E 5 90 38 29
        E 102 90 44 21
        E 82 90 3e 1e
        E 51 90 34 00
        E 0 90 48 2a
        E 5 90 44 00
        E 5 90 28 00
        E 0 90 3e 00
        E 5 90 38 00
        E 61 90 48 00
        E 5 90 38 24
        E 11 90 44 26
        E 66 90 3b 23
        E 0 90 3e 1a
        E 0 90 47 29
        E 10 90 38 00
        E 0 90 44 00
        E 51 90 47 00
        E 31 90 3e 00
        E 16 90 3b 00
        E 107 90 21 28
        E 5 90 2d 27
        E 0 90 39 2c
        E 0 90 3c 3a
        E 67 90 3c 00
        E 81 90 39 00
        E 169 90 21 00
        E 87 90 3c 1e
        E 5 90 2d 00
        E 56 90 3c 00
        E 82 e0 2b 15
        E 0 90 21 25
        E 5 e0 2b 15
        E 5 e0 2b 15
        E 6 e0 2b 15
        E 5 e0 2b 15
        E 5 e0 2b 15
        E 5 e0 2b 15
        E 6 e0 00 20
        E 5 e0 00 20
        E 5 e0 00 20
        E 5 e0 00 20
        E 6 e0 2b 15
        E 5 e0 2b 15
        E 5 e0 2b 15
        E 5 e0 2b 15
        E 6 e0 2b 15
        E 5 e0 2b 15
        E 5 e0 2b 15
        E 5 e0 2b 15
        E 6 e0 2b 15
        E 5 e0 2b 15
        E 5 e0 2b 15
        E 5 e0 2b 15
        E 6 e0 2b 15
        E 5 e0 2b 15
        E 5 e0 2b 15
        E 6 e0 00 20
        E 5 e0 00 20
        E 5 e0 00 20
        E 5 e0 00 20
        E 6 e0 00 20
        E 5 e0 00 20
        E 5 e0 00 20
        E 5 e0 2b 15
        E 6 e0 2b 15
        E 0 90 21 00
        E 82 90 39 1e
        E 46 90 21 24
        E 25 90 39 00
        E 21 90 2d 22
        E 112 90 21 00
        E 0 90 2d 00
        E 240 e0 2b 15
        E 0 90 21 29
        E 6 e0 2b 15
        E 5 e0 2b 15
        E 5 e0 2b 15
        E 6 e0 2b 15
        E 5 e0 2b 15
        E 5 e0 2b 15
        E 5 e0 2b 15
        E 6 e0 2b 15
        E 5 e0 2b 15
        E 5 e0 2b 15
        E 6 e0 2b 15
        E 5 e0 2b 15
        E 5 e0 2b 15
        E 6 e0 2b 15
        E 5 e0 2b 15
        E 5 e0 2b 15
        E 5 e0 2b 15
        E 6 e0 2b 15
        E 5 e0 2b 15
        E 5 e0 2b 15
        E 6 e0 2b 15
        E 5 e0 2b 15
        E 5 e0 2b 15
        E 6 e0 2b 15
        E 5 e0 2b 15
        E 5 e0 2b 15
        E 0 90 21 00
        E 2234 90 2b 28
        E 5 90 31 22
        E 11 90 3b 20
        E 61 90 2f 1d
        E 5 90 3e 15
        E 0 90 40 18
        E 0 90 45 34
        E 10 90 2b 00
        E 0 90 31 00
        E 41 90 31 29
        E 5 90 3b 00
        E 0 90 3b 25
        E 5 90 3e 00
        E 5 90 2f 00
        E 0 90 40 00
        E 31 90 36 1c
        E 5 90 2a 10
        E 0 90 39 37
        E 5 90 40 1e
        E 11 90 31 00
        E 0 90 3b 00
        E 15 90 45 00
        E 31 90 2a 00
        E 0 90 36 00
        E 0 90 45 21
        E 5 90 48 29
        E 5 90 40 00
        E 46 90 39 00
        E 81 90 45 00
        E 0 90 48 00
        E 87 90 45 1b
        E 0 90 48 31
        E 5 90 43 10
        E 5 90 3c 20
        E 62 90 45 00
        E 0 90 48 00
        E 0 90 48 2e
        E 36 90 2d 23
        E 0 90 30 1b
        E 5 90 3c 00
        E 0 90 3c 2f
        E 5 90 40 27
        E 0 90 43 00
        E 46 90 45 2a
        E 26 90 48 00
        E 36 90 30 00
        E 10 90 2d 00
        E 0 90 3c 00
        E 0 90 45 00
        E 5 90 40 00
        E 92 90 40 25
        E 97 90 30 28
        E 15 90 3c 27
        E 5 90 40 00
        E 0 90 40 27
        E 51 90 4c 1b
        E 41 90 1e 1e
        E 0 90 29 15
        E 11 90 3c 00
        E 0 90 3c 21
        E 5 90 40 00
        E 0 90 40 3b
        E 5 90 30 00
        E 56 90 40 00
        E 36 90 2d 20
        E 0 90 40 26
        E 0 90 51 2b
        E 5 90 1e 00
        E 0 90 29 00
        E 0 90 39 26
        E 10 90 3c 00
        E 36 90 45 1b
        E 15 90 51 00
        E 41 90 30 28
        E 0 90 48 1c
        E 5 90 40 00
        E 0 90 40 35
        E 5 90 4c 00
        E 36 90 45 00
        E 0 90 45 32
        E 15 90 30 00
        E 11 90 40 00
        E 25 90 26 17
        E 10 90 2d 00
        E 0 90 2d 2d
        E 0 90 40 27
        E 5 90 39 00
        E 0 90 39 28
        E 0 90 45 00
        E 0 90 45 21
        E 5 90 4c 18
        E 87 90 30 23
        E 11 90 26 00
        E 5 90 40 00
        E 0 90 40 2a
        E 5 90 45 00
        E 5 90 2d 00
        E 5 90 48 00
        E 21 90 45 3a
        E 61 90 48 32
        E 10 90 2d 2a
        E 0 90 30 00
        E 0 90 39 00
        E 0 90 39 30
        E 11 90 4c 00
        E 5 90 40 00
        E 0 90 45 00
        E 25 90 21 1d
        E 77 90 21 00
        E 0 90 40 22
        E 15 90 48 00
        E 5 90 2d 00
        E 0 90 39 00
        E 87 e0 2b 75
        E 0 90 40 00
        E 0 90 40 30
        E 6 e0 2b 75
        E 5 e0 55 6a
        E 5 e0 55 6a
        E 6 e0 00 20
        E 5 e0 00 20
        E 5 e0 00 20
        E 6 e0 00 20
        E 5 e0 00 20
        E 5 e0 55 6a
        E 5 e0 55 6a
        E 6 e0 55 6a
        E 5 e0 00 20
        E 5 e0 00 20
        E 6 e0 00 20
        E 5 e0 00 20
        E 5 e0 55 2a
        E 6 e0 55 6a
        E 5 e0 55 6a
        E 5 e0 2b 75
        E 6 e0 2b 75
        E 5 e0 2b 75
        E 5 e0 2b 75
        E 6 e0 00 20
        E 5 e0 55 6a
        E 0 90 40 00
        E 199 90 40 21
        E 102 90 2f 21
        E 5 90 40 00
        E 0 90 40 28
        E 118 90 40 00
        E 0 90 40 2b
        E 10 90 2f 00
        E 62 90 34 44
        E 41 90 40 00
        E 20 90 34 00
        E 496 e0 00 20
        E 0 90 2f 24
        E 5 e0 00 20
        E 5 e0 00 20
        E 6 e0 00 20
        E 5 e0 00 20
        E 5 e0 00 20
        E 6 e0 00 20
        E 5 e0 00 20
        E 5 e0 00 20
        E 6 e0 00 20
        E 5 e0 00 20
        E 5 e0 00 20
        E 5 e0 00 20
        E 6 e0 00 20
        E 5 e0 00 20
        E 5 e0 00 20
        E 6 e0 00 20
        E 5 e0 00 20
        E 5 e0 00 20
        E 6 e0 00 20
        E 5 e0 00 20
        E 5 e0 00 20
        E 5 e0 00 20
        E 6 e0 00 00
        E 5 e0 00 00
        E 5 e0 00 00
        E 6 e0 00 00
        E 5 e0 00 00
        E 0 90 2f 00
        E 189 90 3b 1c
        E 0 90 47 26
        E 6 90 34 2a
        E 61 90 3b 00
        E 10 90 47 00
        E 41 90 34 00
        E 92 90 31 1a
        E 5 90 2f 14
        E 5 90 34 29
        E 0 90 3e 12
        E 0 90 40 16
        E 5 90 3b 21
        E 0 90 47 30
        E 51 90 45 30
        E 11 90 34 00
        E 10 90 47 00
        E 41 90 3e 00
        E 40 90 2f 00
        E 0 90 40 00
        E 6 90 31 00
        E 5 90 3b 00
        E 10 90 45 00
        E 36 90 39 2f
        E 0 90 45 2b
        E 5 90 48 2b
        E 76 90 45 00
        E 51 90 48 00
        E 6 90 39 00
        E 66 90 30 1b
        E 10 90 48 32
        E 5 90 3c 2a
        E 0 90 40 23
        E 46 90 45 1f
        E 11 90 48 00
        E 0 90 48 32
        E 35 90 24 19
        E 5 90 2d 22
        E 6 90 40 00
        E 0 90 40 28
        E 5 90 3c 00
        E 0 90 3c 26
        E 5 90 45 00
        E 35 90 21 25
        E 27 90 48 00
        E 30 90 24 00
        E 5 90 21 00
        E 0 90 30 00
        E 5 90 2d 00
        E 0 90 3c 00
        E 6 90 40 00
        E 97 90 40 21
        E 86 90 30 25
        E 16 90 40 00
        E 0 90 40 29
        E 51 90 4c 1a
        E 56 90 3c 30
        E 5 90 40 00
        E 0 90 40 3a
        E 5 90 30 00
        E 46 90 4c 00
        E 0 90 4c 1c
        E 5 90 3c 00
        E 5 90 40 00
        E 31 90 40 2a
        E 0 90 47 2b
        E 5 90 39 27
        E 0 90 45 25
        E 62 90 47 00
        E 40 90 40 00
        E 0 90 40 2b
        E 11 90 4c 00
        E 56 90 45 00
        E 30 90 45 26
        E 0 90 47 21
        E 11 90 39 00
        E 0 90 39 27
        E 15 90 40 00
        E 31 90 4c 29
        E 5 90 47 00
        E 30 90 30 30
        E 11 90 3c 28
        E 0 90 40 29
        E 0 90 48 28
        E 15 90 4c 00
        E 41 90 30 00
        E 0 90 51 1d
        E 10 90 45 00
        E 36 90 45 3b
        E 5 90 39 00
        E 0 90 39 2d
        E 6 90 3c 00
        E 0 90 51 00
        E 5 90 40 00
        E 0 90 48 00
        E 41 90 45 00
        E 51 90 48 24
        E 5 90 40 29
        E 20 90 39 00
        E 97 90 40 00
        E 0 90 40 25
        E 10 90 48 00
        E 92 e0 00 20
        E 0 90 40 00
        E 0 90 40 2f
        E 6 e0 00 20
        E 5 e0 00 20
        E 5 e0 00 20
        E 6 e0 00 20
        E 5 e0 00 20
        E 5 e0 00 20
        E 6 e0 00 20
        E 5 e0 00 20
        E 5 e0 00 20
        E 6 e0 00 20
        E 5 e0 00 20
        E 5 e0 00 20
        E 6 e0 00 20
        E 5 e0 00 20
        E 5 e0 00 20
        E 6 e0 00 20
        E 5 e0 55 2a
        E 5 e0 55 2a
        E 6 e0 55 2a
        E 5 e0 00 20
        E 5 e0 00 20
        E 6 e0 00 20
        E 5 e0 00 20
        E 0 90 40 00
        E 82 e0 00 60
        E 0 90 40 30
        E 5 e0 00 60
        E 5 e0 00 60
        E 6 e0 55 6a
        E 5 e0 55 6a
        E 5 e0 00 20
        E 5 e0 00 20
        E 6 e0 00 20
        E 5 e0 00 20
        E 5 e0 00 20
        E 6 e0 00 20
        E 5 e0 00 20
        E 5 e0 00 20
        E 6 e0 00 20
        E 5 e0 00 20
        E 5 e0 00 20
        E 5 e0 00 20
        E 6 e0 00 20
        E 5 e0 00 20
        E 5 e0 00 20
        E 6 e0 2b 75
        E 5 e0 2b 75
        E 5 e0 2b 75
        E 5 e0 2b 75
        E 6 e0 2b 75
        E 5 e0 55 6a
        E 5 e0 55 6a
        E 6 e0 55 6a
        E 5 e0 55 6a
        E 0 90 40 00
        E 287 90 40 2e
        E 117 90 3b 2e
        E 26 90 40 00
        E 107 90 3b 00
        E 61 90 34 2d
        E 118 90 40 28
        E 10 90 34 00
        E 87 90 2f 31
        E 25 90 40 00
        E 108 90 2f 00
        E 97 90 34 37
        E 0 90 40 2f
        E 0 90 4c 36
        E 56 90 4c 00
        E 16 90 40 00
        E 10 90 34 00
        E 230 90 24 20
        E 117 90 30 35
        E 10 90 24 00
        E 133 90 30 00
        E 82 e0 55 2a
        E 0 90 4f 1f
        E 6 e0 55 2a
        E 5 e0 2b 35
        E 6 e0 2b 35
        E 5 e0 55 2a
        E 6 e0 55 2a
        E 5 e0 2b 35
        E 6 e0 2b 35
        E 5 e0 2b 35
        E 6 e0 2b 35
        E 5 e0 2b 35
        E 6 e0 55 2a
        E 5 e0 55 2a
        E 0 90 4f 00
        E 31 90 40 29
        E 107 90 2b 2d
        E 11 90 47 29
        E 5 90 40 00
        E 92 90 37 23
        E 21 90 47 00
        E 5 90 2b 00
        E 107 90 37 00
        E 89 b0 7b 00
        CCINTERP 32
        CHASE_CC_TAKEOFFS 1
        GUID {9165F48D-FA6F-40AE-B027-1968D1D5941B}
        IGNTEMPO 0 120 4 4
        SRCCOLOR 152
        VELLANE -1 100 0
      >
    >
  >
  <UINF 9
    <ITEM {7524EC60-A6BA-49BF-9965-0BB6EC0F9FE4}
      POSITION 0
      SNAPOFFS 0
      LENGTH 170.5
      LOOP 1
      ALLTAKES 0
      FADEIN 1 0 0 1 0 0 0
      FADEOUT 1 0 0 1 0 0 0
      MUTE 0 0
      SEL 0
      IGUID {7524EC60-A6BA-49BF-9965-0BB6EC0F9FE4}
      IID 115
      NAME beethoven_fur_elise_basic_pitch.mid
      VOLPAN 1 0 1 -1
      SOFFS 0 0
      PLAYRATE 1 1 0 -1 0 0.0025
      CHANMODE 0
      GUID {1EA7E520-7B92-4574-8F35-7E617631BE34}
      <SOURCE MIDI
        HASDATA 1 220 QN
        CCINTERP 32
        POOLEDEVTS {746FF424-5583-47A6-AB94-907717FBC476}
        E 0 c0 04 00
        E 3205 e0 55 4a
        E 0 90 28 2e
        E 5 e0 00 20
        E 5 e0 00 20
        E 6 e0 00 20
        E 5 e0 00 20
        E 6 e0 00 20
        E 5 e0 00 20
        E 5 e0 00 20
        E 6 e0 00 20
        E 5 e0 00 20
        E 6 e0 00 20
        E 5 e0 00 20
        E 5 e0 2b 15
        E 6 e0 2b 15
        E 5 e0 2b 15
        E 6 e0 2b 15
        E 5 e0 2b 15
        E 5 e0 2b 15
        E 6 e0 55 0a
        E 0 90 28 00
        E 1697 e0 00 20
        E 0 90 28 26
        E 5 e0 00 20
        E 6 e0 00 20
        E 5 e0 00 20
        E 6 e0 00 20
        E 5 e0 00 20
        E 5 e0 00 20
        E 6 e0 00 20
        E 5 e0 00 20
        E 6 e0 00 20
        E 5 e0 00 20
        E 6 e0 2b 15
        E 5 e0 2b 15
        E 5 e0 2b 15
        E 6 e0 2b 15
        E 5 e0 2b 15
        E 6 e0 2b 15
        E 0 90 28 00
        E 1907 e0 00 20
        E 0 90 28 22
        E 5 e0 00 20
        E 6 e0 00 20
        E 5 e0 00 20
        E 6 e0 00 20
        E 5 e0 00 20
        E 5 e0 00 20
        E 6 e0 00 20
        E 5 e0 00 20
        E 6 e0 00 20
        E 5 e0 00 20
        E 6 e0 2b 15
        E 5 e0 2b 15
        E 6 e0 2b 15
        E 5 e0 2b 15
        E 6 e0 2b 15
        E 0 90 28 00
        E 1753 e0 55 2a
        E 0 90 28 28
        E 5 e0 00 20
        E 6 e0 00 20
        E 5 e0 00 20
        E 5 e0 00 20
        E 6 e0 00 20
        E 5 e0 00 20
        E 6 e0 00 20
        E 5 e0 00 20
        E 6 e0 00 20
        E 5 e0 00 20
        E 5 e0 00 20
        E 6 e0 00 20
        E 5 e0 2b 15
        E 6 e0 2b 15
        E 5 e0 2b 15
        E 5 e0 2b 15
        E 6 e0 2b 15
        E 0 90 28 00
        E 2315 e0 00 60
        E 0 90 28 31
        E 5 e0 00 60
        E 6 e0 00 60
        E 5 e0 00 60
        E 6 e0 00 60
        E 5 e0 00 60
        E 6 e0 00 60
        E 5 e0 00 60
        E 6 e0 55 6a
        E 5 e0 55 6a
        E 6 e0 55 6a
        E 5 e0 55 6a
        E 6 e0 2b 15
        E 5 e0 2b 15
        E 6 e0 2b 15
        E 0 90 28 00
        E 1406 e0 2b 15
        E 0 90 4b 24
        E 5 e0 00 20
        E 6 e0 00 20
        E 5 e0 00 20
        E 6 e0 00 20
        E 5 e0 00 20
        E 6 e0 00 20
        E 5 e0 00 20
        E 6 e0 00 20
        E 5 e0 00 20
        E 6 e0 00 20
        E 5 e0 00 20
        E 6 e0 00 20
        E 5 e0 00 20
        E 0 90 4b 00
        E 808 e0 55 2a
        E 0 90 28 22
        E 5 e0 00 20
        E 6 e0 00 20
        E 5 e0 00 20
        E 6 e0 00 20
        E 5 e0 00 20
        E 5 e0 00 20
        E 6 e0 00 20
        E 5 e0 00 20
        E 6 e0 00 20
        E 5 e0 2b 15
        E 6 e0 2b 15
        E 5 e0 2b 15
        E 6 e0 2b 15
        E 5 e0 2b 15
        E 6 e0 2b 15
        E 0 90 28 00
        E 1738 e0 55 2a
        E 0 90 28 27
        E 5 e0 00 20
        E 5 e0 00 20
        E 6 e0 00 20
        E 5 e0 00 20
        E 6 e0 00 20
        E 5 e0 00 20
        E 6 e0 00 20
        E 5 e0 00 20
        E 6 e0 00 20
        E 5 e0 00 20
        E 5 e0 00 20
        E 6 e0 2b 15
        E 5 e0 2b 15
        E 6 e0 2b 15
        E 5 e0 2b 15
        E 0 90 28 00
        E 2296 e0 2b 55
        E 0 90 28 33
        E 5 e0 2b 55
        E 6 e0 00 60
        E 5 e0 00 60
        E 5 e0 00 60
        E 6 e0 55 6a
        E 5 e0 55 6a
        E 6 e0 55 6a
        E 5 e0 55 6a
        E 6 e0 00 20
        E 5 e0 00 20
        E 6 e0 00 20
        E 5 e0 55 6a
        E 5 e0 2b 15
        E 6 e0 2b 15
        E 5 e0 2b 15
        E 0 90 28 00
        E 2265 e0 2b 55
        E 0 90 28 25
        E 5 e0 00 60
        E 6 e0 00 20
        E 5 e0 00 20
        E 6 e0 00 20
        E 5 e0 00 20
        E 6 e0 00 20
        E 5 e0 00 20
        E 5 e0 00 20
        E 6 e0 00 20
        E 5 e0 00 20
        E 6 e0 00 20
        E 5 e0 00 20
        E 5 e0 2b 15
        E 6 e0 2b 15
        E 5 e0 2b 15
        E 6 e0 2b 15
        E 5 e0 2b 15
        E 0 90 28 00
        E 1748 e0 00 20
        E 0 90 28 2c
        E 6 e0 00 20
        E 5 e0 00 20
        E 6 e0 00 20
        E 5 e0 00 20
        E 5 e0 00 20
        E 6 e0 00 20
        E 5 e0 00 20
        E 6 e0 2b 15
        E 5 e0 2b 15
        E 6 e0 2b 15
        E 5 e0 2b 15
        E 6 e0 2b 15
        E 5 e0 2b 15
        E 5 e0 2b 15
        E 6 e0 2b 15
        E 0 90 28 00
        E 11496 e0 55 2a
        E 0 90 28 31
        E 5 e0 00 20
        E 6 e0 00 20
        E 5 e0 00 20
        E 6 e0 00 20
        E 5 e0 00 20
        E 6 e0 00 20
        E 5 e0 00 20
        E 5 e0 00 20
        E 6 e0 2b 15
        E 5 e0 2b 15
        E 6 e0 2b 15
        E 5 e0 2b 15
        E 6 e0 2b 15
        E 5 e0 2b 15
        E 5 e0 2b 15
        E 6 e0 2b 15
        E 0 90 28 00
        E 1666 e0 00 20
        E 0 90 28 24
        E 6 e0 00 20
        E 5 e0 00 20
        E 6 e0 00 20
        E 5 e0 00 20
        E 5 e0 00 20
        E 6 e0 00 20
        E 5 e0 00 20
        E 6 e0 00 20
        E 5 e0 00 20
        E 6 e0 00 20
        E 5 e0 2b 15
        E 5 e0 2b 15
        E 6 e0 2b 15
        E 5 e0 2b 15
        E 6 e0 2b 15
        E 5 e0 2b 15
        E 0 90 28 00
        E 6247 e0 55 2a
        E 0 90 28 2c
        E 5 e0 00 20
        E 6 e0 00 20
        E 5 e0 00 20
        E 5 e0 00 20
        E 6 e0 00 20
        E 5 e0 00 20
        E 6 e0 00 20
        E 5 e0 00 20
        E 6 e0 00 20
        E 5 e0 00 20
        E 6 e0 00 20
        E 5 e0 2b 15
        E 5 e0 2b 15
        E 6 e0 2b 15
        E 5 e0 2b 15
        E 0 90 28 00
        E 14109 e0 00 20
        E 0 90 28 2d
        E 5 e0 00 20
        E 5 e0 00 20
        E 6 e0 00 20
        E 5 e0 00 20
        E 6 e0 00 20
        E 5 e0 00 20
        E 6 e0 00 20
        E 5 e0 00 20
        E 6 e0 2b 15
        E 5 e0 2b 15
        E 5 e0 2b 15
        E 6 e0 2b 15
        E 5 e0 2b 15
        E 6 e0 2b 15
        E 5 e0 2b 15
        E 0 90 28 00
        E 1672 e0 55 2a
        E 0 90 28 2d
        E 5 e0 00 20
        E 6 e0 00 20
        E 5 e0 00 20
        E 6 e0 00 20
        E 5 e0 00 20
        E 5 e0 00 20
        E 6 e0 00 20
        E 5 e0 00 20
        E 6 e0 2b 15
        E 5 e0 2b 15
        E 6 e0 2b 15
        E 5 e0 2b 15
        E 5 e0 2b 15
        E 6 e0 2b 15
        E 5 e0 2b 15
        E 6 e0 2b 15
        E 0 90 28 00
        E 2188 e0 00 20
        E 0 90 28 2a
        E 5 e0 00 20
        E 6 e0 00 20
        E 5 e0 00 20
        E 6 e0 00 20
        E 5 e0 00 20
        E 6 e0 00 20
        E 6 e0 55 6a
        E 5 e0 55 6a
        E 6 e0 55 6a
        E 5 e0 55 6a
        E 6 e0 2b 15
        E 5 e0 2b 15
        E 0 90 28 00
        E 1048 e0 00 20
        E 0 90 4b 24
        E 5 e0 00 20
        E 6 e0 00 20
        E 5 e0 00 20
        E 5 e0 00 20
        E 5 e0 00 20
        E 6 e0 00 20
        E 5 e0 00 20
        E 5 e0 00 20
        E 5 e0 00 20
        E 6 e0 00 20
        E 5 e0 2b 15
        E 5 e0 00 20
        E 6 e0 00 20
        E 5 e0 00 20
        E 5 e0 00 20
        E 5 e0 00 20
        E 6 e0 00 20
        E 5 e0 00 20
        E 5 e0 00 20
        E 5 e0 00 20
        E 6 e0 00 20
        E 5 e0 00 20
        E 5 e0 00 20
        E 6 e0 00 20
        E 5 e0 00 20
        E 5 e0 00 20
        E 5 e0 00 20
        E 6 e0 00 20
        E 5 e0 2b 15
        E 5 e0 00 20
        E 5 e0 00 20
        E 0 90 4b 00
        E 1003 e0 55 2a
        E 0 90 28 29
        E 5 e0 00 20
        E 6 e0 00 20
        E 5 e0 00 20
        E 6 e0 00 20
        E 5 e0 00 20
        E 5 e0 00 20
        E 6 e0 00 20
        E 5 e0 00 20
        E 6 e0 00 20
        E 5 e0 00 20
        E 6 e0 00 20
        E 5 e0 00 20
        E 5 e0 2b 15
        E 6 e0 2b 15
        E 5 e0 2b 15
        E 6 e0 2b 15
        E 0 90 28 00
        E 1707 e0 00 20
        E 0 90 28 23
        E 5 e0 00 20
        E 6 e0 00 20
        E 5 e0 00 20
        E 6 e0 00 20
        E 5 e0 00 20
        E 6 e0 00 20
        E 5 e0 00 20
        E 5 e0 00 20
        E 6 e0 2b 15
        E 5 e0 2b 15
        E 6 e0 2b 15
        E 5 e0 2b 15
        E 6 e0 2b 15
        E 5 e0 2b 15
        E 5 e0 2b 15
        E 6 e0 2b 15
        E 0 90 28 00
        E 4891 e0 55 2a
        E 0 90 48 1f
        E 6 e0 00 20
        E 5 e0 00 20
        E 6 e0 00 20
        E 6 e0 00 20
        E 5 e0 00 20
        E 6 e0 00 20
        E 5 e0 00 20
        E 6 e0 00 20
        E 5 e0 00 20
        E 6 e0 55 2a
        E 5 e0 00 20
        E 6 e0 00 20
        E 0 90 48 00
        E 5883 e0 00 20
        E 0 90 2f 2b
        E 6 e0 00 20
        E 6 e0 00 20
        E 5 e0 00 20
        E 6 e0 55 6a
        E 5 e0 55 6a
        E 6 e0 55 6a
        E 6 e0 55 6a
        E 5 e0 55 6a
        E 6 e0 55 6a
        E 5 e0 55 6a
        E 6 e0 55 6a
        E 0 90 2f 00
        E 93 b0 7b 00
        CCINTERP 32
        CHASE_CC_TAKEOFFS 1
        GUID {B7C829EC-2E71-42D3-9782-2C28D237991C}
        IGNTEMPO 0 120 4 4
        SRCCOLOR 195
        VELLANE -1 100 0
      >
    >
  >
  <UINF 10
    <ITEM {64C032F8-B294-454E-82D3-65C758CA4978}
      POSITION 0
      SNAPOFFS 0
      LENGTH 86.79619047619047
      LOOP 1
      ALLTAKES 0
      FADEIN 1 0.001 0 1 0 0 0
      FADEOUT 1 0.001 0 1 0 0 0
      MUTE 0 0
      SEL 0
      IGUID {64C032F8-B294-454E-82D3-65C758CA4978}
      IID 10
      NAME wii_music.mp3
      VOLPAN 1 0 1 -1
      SOFFS 0
      PLAYRATE 1 1 0 -1 0 0.0025
      CHANMODE 0
      GUID {B7BB32A3-E16E-44CF-8477-0260CA7F4813}
      <SOURCE MP3
        FILE "C:\_AlexFiles\Coding\Python\FALL2023_IndependentStudy\audio_to_midi_vst\independent_study\daw_project_example\wii_music.mp3" 1
      >
    >
  >
  <UINF 11
    <ITEM {908E54E5-1885-4E5E-AF50-8FE68E65B1A2}
      POSITION 0
      SNAPOFFS 0
      LENGTH 86.5
      LOOP 1
      ALLTAKES 0
      FADEIN 1 0 0 1 0 0 0
      FADEOUT 1 0 0 1 0 0 0
      MUTE 0 0
      SEL 0
      IGUID {908E54E5-1885-4E5E-AF50-8FE68E65B1A2}
      IID 13
      NAME wii_music_basic_pitch.mid
      VOLPAN 1 0 1 -1
      SOFFS 0 0
      PLAYRATE 1 1 0 -1 0 0.0025
      CHANMODE 0
      GUID {F2E21E29-A488-425C-8A65-6FC095A8F175}
      <SOURCE MIDI
        HASDATA 1 220 QN
        CCINTERP 32
        POOLEDEVTS {01AE95EF-DE9D-48A2-AAAF-E238830E3ACE}
        E 0 c0 04 00
        E 112 90 3e 48
        E 5 90 2f 4d
        E 0 90 42 35
        E 159 90 42 00
        E 31 90 2f 00
        E 5 90 3e 00
        E 35 90 42 54
        E 0 90 45 4f
        E 72 90 42 00
        E 36 90 49 49
        E 5 90 45 00
        E 0 90 45 4c
        E 143 90 45 00
        E 51 90 49 00
        E 41 90 42 3f
        E 0 90 45 4a
        E 168 90 45 00
        E 62 90 3e 52
        E 0 90 42 00
        E 0 90 42 4e
        E 77 90 42 00
        E 41 90 38 42
        E 0 90 3e 00
        E 0 90 3e 4c
        E 117 90 38 00
        E 0 90 38 48
        E 0 90 3e 00
        E 0 90 3e 4b
        E 113 90 38 00
        E 0 90 38 4c
        E 0 90 3e 00
        E 0 90 3e 46
        E 81 90 38 00
        E 87 90 3e 00
        E 409 90 3d 49
        E 5 90 35 59
        E 113 90 2f 46
        E 0 90 35 00
        E 0 90 36 42
        E 0 90 3d 00
        E 0 90 3e 3e
        E 112 90 3e 00
        E 0 90 3e 55
        E 0 90 42 46
        E 36 90 36 00
        E 10 90 2f 00
        E 62 90 3e 00
        E 15 90 42 00
        E 0 90 42 4d
        E 0 90 45 4c
        E 71 90 42 00
        E 41 90 45 00
        E 0 90 45 4b
        E 0 90 49 4b
        E 138 90 45 00
        E 61 90 49 00
        E 36 90 42 3d
        E 0 90 45 49
        E 180 90 45 00
        E 46 90 3e 54
        E 0 90 42 00
        E 0 90 42 4f
        E 71 90 42 00
        E 26 90 3e 00
        E 25 90 49 56
        E 0 90 4c 54
        E 10 90 38 54
        E 72 90 4c 00
        E 0 90 4c 4b
        E 92 90 4c 00
        E 0 90 4c 4a
        E 66 90 4c 00
        E 0 90 4c 49
        E 97 90 48 4d
        E 0 90 49 00
        E 31 90 37 51
        E 0 90 38 00
        E 15 90 4b 42
        E 0 90 4c 00
        E 82 90 47 3a
        E 0 90 48 00
        E 10 90 36 3f
        E 0 90 37 00
        E 0 90 4b 00
        E 5 90 4a 3c
        E 72 90 4a 00
        E 174 90 47 00
        E 36 90 36 00
        E 199 e0 55 4a
        E 0 90 2d 52
        E 5 e0 55 4a
        E 6 e0 55 4a
        E 5 e0 55 4a
        E 5 e0 55 4a
        E 5 e0 55 4a
        E 6 e0 55 4a
        E 5 e0 55 4a
        E 5 e0 55 4a
        E 6 e0 55 4a
        E 5 e0 55 4a
        E 5 e0 55 4a
        E 5 e0 55 4a
        E 6 e0 55 4a
        E 5 e0 55 4a
        E 5 e0 55 4a
        E 5 e0 55 4a
        E 6 e0 55 4a
        E 5 e0 55 4a
        E 5 e0 55 4a
        E 5 e0 55 4a
        E 6 e0 55 4a
        E 5 e0 55 4a
        E 5 e0 55 4a
        E 6 e0 55 4a
        E 5 e0 55 4a
        E 5 e0 55 4a
        E 5 e0 55 4a
        E 6 e0 55 4a
        E 5 e0 55 4a
        E 5 e0 55 4a
        E 5 e0 55 4a
        E 6 e0 55 4a
        E 0 90 2d 00
        E 30 90 49 41
        E 5 90 40 49
        E 92 90 40 00
        E 11 90 42 42
        E 138 90 49 00
        E 30 90 42 00
        E 67 90 49 3d
        E 5 90 34 3c
        E 82 90 49 00
        E 51 90 34 00
        E 92 90 44 41
        E 10 90 39 44
        E 148 90 39 00
        E 41 90 44 00
        E 41 90 49 49
        E 5 90 40 46
        E 118 90 40 00
        E 87 90 49 00
        E 20 e0 55 4a
        E 0 90 37 57
        E 5 e0 55 4a
        E 6 e0 55 4a
        E 5 e0 55 4a
        E 5 e0 55 4a
        E 5 e0 55 4a
        E 6 e0 55 4a
        E 5 e0 55 4a
        E 5 e0 55 4a
        E 6 e0 55 4a
        E 5 e0 55 4a
        E 5 e0 55 4a
        E 6 e0 55 4a
        E 5 e0 55 4a
        E 5 e0 55 4a
        E 5 e0 55 4a
        E 6 e0 55 4a
        E 5 e0 55 4a
        E 5 e0 55 4a
        E 6 e0 55 4a
        E 5 e0 55 4a
        E 5 e0 55 4a
        E 6 e0 55 4a
        E 5 e0 55 4a
        E 5 e0 55 4a
        E 5 e0 55 2a
        E 6 e0 55 2a
        E 5 e0 55 2a
        E 0 90 37 00
        E 6 e0 55 4a
        E 0 90 36 3b
        E 5 e0 55 4a
        E 5 e0 55 4a
        E 6 e0 55 4a
        E 5 e0 55 4a
        E 5 e0 55 4a
        E 5 e0 55 4a
        E 6 e0 55 4a
        E 5 e0 55 4a
        E 5 e0 55 4a
        E 6 e0 55 4a
        E 5 e0 55 4a
        E 5 e0 55 4a
        E 6 e0 55 4a
        E 5 e0 55 4a
        E 5 e0 55 4a
        E 5 e0 55 4a
        E 6 e0 55 4a
        E 5 e0 55 4a
        E 5 e0 55 4a
        E 6 e0 55 6a
        E 5 e0 55 6a
        E 5 e0 55 6a
        E 6 e0 55 4a
        E 5 e0 55 4a
        E 5 e0 55 4a
        E 5 e0 55 4a
        E 6 e0 55 4a
        E 0 90 36 00
        E 56 90 40 47
        E 5 90 3d 46
        E 164 90 3d 00
        E 56 90 40 00
        E 0 90 40 30
        E 5 90 26 30
        E 0 90 3c 53
        E 5 90 36 3c
        E 66 90 26 00
        E 41 90 40 00
        E 0 90 40 2f
        E 5 90 26 27
        E 0 90 3c 00
        E 0 90 3c 4f
        E 5 90 36 00
        E 0 90 36 36
        E 62 90 26 00
        E 46 90 40 00
        E 0 90 40 39
        E 5 90 26 2b
        E 0 90 3c 00
        E 0 90 3c 49
        E 5 90 36 00
        E 0 90 36 3e
        E 56 90 40 00
        E 56 90 26 00
        E 41 90 3c 00
        E 21 90 36 00
        E 276 90 3c 4f
        E 0 90 40 2c
        E 5 90 36 3b
        E 113 90 26 33
        E 0 90 3c 00
        E 0 90 3c 4d
        E 0 90 40 00
        E 0 90 40 2d
        E 10 90 36 00
        E 0 90 36 39
        E 112 90 26 00
        E 0 90 26 37
        E 0 90 36 00
        E 0 90 36 3f
        E 0 90 3c 00
        E 0 90 3c 3b
        E 51 90 40 00
        E 72 90 26 00
        E 20 90 36 00
        E 169 90 3c 00
        E 138 90 31 44
        E 10 90 3b 50
        E 0 90 3f 4f
        E 11 90 34 49
        E 168 90 31 00
        E 51 90 30 40
        E 0 90 3e 47
        E 0 90 3f 00
        E 5 90 33 49
        E 0 90 34 00
        E 0 90 3a 48
        E 0 90 3b 00
        E 72 90 27 2f
        E 25 90 3e 00
        E 0 90 3e 52
        E 77 90 30 00
        E 0 90 3e 00
        E 0 90 3e 54
        E 10 90 27 00
        E 41 90 33 00
        E 5 90 2f 46
        E 5 90 39 40
        E 0 90 3a 00
        E 0 90 3d 45
        E 0 90 3e 00
        E 6 90 32 33
        E 61 90 2f 00
        E 15 90 3d 00
        E 0 90 3d 39
        E 41 90 39 00
        E 51 90 32 00
        E 41 90 42 45
        E 0 90 45 38
        E 25 90 3d 00
        E 41 90 42 00
        E 57 90 45 00
        E 0 90 45 47
        E 0 90 49 39
        E 189 90 49 00
        E 36 90 42 3a
        E 0 90 45 00
        E 0 90 45 4b
        E 194 90 45 00
        E 61 90 31 3e
        E 26 90 42 00
        E 10 90 3f 49
        E 46 90 31 00
        E 10 90 32 38
        E 5 90 38 45
        E 0 90 3f 00
        E 0 90 40 3c
        E 82 90 40 00
        E 31 90 32 00
        E 0 90 32 36
        E 0 90 38 00
        E 0 90 38 44
        E 0 90 3e 30
        E 122 90 38 00
        E 0 90 38 4b
        E 11 90 32 00
        E 0 90 32 41
        E 40 90 3e 00
        E 21 90 38 00
        E 92 90 32 00
        E 62 90 3e 30
        E 112 90 4c 37
        E 51 90 3e 00
        E 72 90 3e 37
        E 41 90 4c 00
        E 91 90 3e 00
        E 98 e0 55 4a
        E 0 90 2f 5c
        E 5 e0 55 4a
        E 5 e0 55 4a
        E 6 e0 55 4a
        E 5 e0 55 4a
        E 5 e0 55 4a
        E 6 e0 55 4a
        E 5 e0 55 4a
        E 5 e0 55 4a
        E 6 e0 55 4a
        E 5 e0 55 4a
        E 6 e0 55 4a
        E 5 e0 55 4a
        E 5 e0 55 4a
        E 6 e0 55 4a
        E 5 e0 55 4a
        E 5 e0 55 4a
        E 6 e0 55 4a
        E 5 e0 55 4a
        E 5 e0 55 4a
        E 6 e0 55 4a
        E 0 90 2f 00
        E 10 90 36 45
        E 26 90 3e 5b
        E 86 90 3e 00
        E 0 90 3e 3a
        E 6 90 39 51
        E 0 90 42 4d
        E 36 90 36 00
        E 25 90 3e 00
        E 46 90 49 2b
        E 5 90 39 00
        E 0 90 39 3a
        E 0 90 3d 42
        E 0 90 45 47
        E 21 90 42 00
        E 61 90 39 00
        E 10 90 49 00
        E 31 90 45 00
        E 5 90 3d 00
        E 87 90 45 3d
        E 15 90 39 43
        E 0 90 42 4f
        E 46 90 45 00
        E 113 90 39 00
        E 76 90 3e 4f
        E 0 90 42 00
        E 0 90 42 3f
        E 62 90 42 00
        E 51 90 49 4f
        E 0 90 4c 3b
        E 5 90 3e 00
        E 0 90 40 54
        E 10 90 38 52
        E 51 90 4c 00
        E 102 90 40 00
        E 0 90 40 5c
        E 42 90 49 00
        E 0 90 49 49
        E 71 90 49 00
        E 0 90 49 48
        E 5 90 40 00
        E 0 90 40 60
        E 82 90 40 00
        E 0 90 40 51
        E 87 90 47 40
        E 0 90 49 00
        E 5 90 38 00
        E 0 90 3e 39
        E 0 90 42 2b
        E 0 90 4a 26
        E 5 90 36 3c
        E 5 90 40 00
        E 72 90 36 00
        E 15 90 4a 00
        E 15 90 42 00
        E 77 90 3e 00
        E 123 90 47 00
        E 153 90 47 32
        E 5 90 34 5a
        E 0 90 3e 54
        E 112 90 34 00
        E 0 90 34 41
        E 0 90 3e 00
        E 0 90 3e 4e
        E 0 90 43 55
        E 0 90 47 00
        E 0 90 47 35
        E 83 90 47 00
        E 30 90 37 41
        E 0 90 3e 00
        E 0 90 3e 53
        E 0 90 43 00
        E 31 90 2b 2f
        E 46 90 37 00
        E 15 90 2b 00
        E 21 90 34 00
        E 5 90 2d 4b
        E 0 90 3d 54
        E 0 90 3e 00
        E 240 90 47 42
        E 5 90 37 44
        E 5 90 3d 00
        E 0 90 3d 44
        E 61 90 37 00
        E 26 90 3d 00
        E 10 90 43 54
        E 0 90 47 00
        E 0 90 47 3a
        E 92 90 2d 00
        E 26 90 3d 54
        E 0 90 43 00
        E 0 90 43 43
        E 92 90 43 00
        E 5 90 47 00
        E 10 90 3d 00
        E 5 90 45 35
        E 5 90 32 4e
        E 0 90 3c 45
        E 108 90 42 54
        E 0 90 45 00
        E 0 90 45 3d
        E 92 90 45 00
        E 20 90 42 00
        E 11 90 3c 00
        E 0 90 3c 57
        E 5 90 36 4c
        E 87 90 36 00
        E 10 90 32 00
        E 10 90 3b 49
        E 0 90 3c 00
        E 5 90 2b 5c
        E 225 90 2b 00
        E 0 90 2b 4d
        E 5 90 35 4b
        E 0 90 41 3b
        E 20 90 3b 00
        E 0 90 3b 44
        E 77 90 3b 00
        E 15 90 3e 4e
        E 0 90 41 00
        E 0 90 41 48
        E 6 90 35 00
        E 112 90 3b 54
        E 0 90 3e 00
        E 0 90 3e 41
        E 0 90 41 00
        E 0 90 41 3c
        E 5 90 2b 00
        E 0 90 2b 4b
        E 97 90 2b 00
        E 0 90 3b 00
        E 0 90 3e 00
        E 5 90 41 00
        E 15 90 23 28
        E 0 90 39 3e
        E 0 90 3d 4d
        E 0 90 40 34
        E 62 90 23 00
        E 51 90 39 00
        E 0 90 39 3d
        E 0 90 3d 00
        E 0 90 3d 4f
        E 0 90 40 00
        E 0 90 40 37
        E 113 90 23 32
        E 0 90 39 00
        E 0 90 39 3f
        E 0 90 3d 00
        E 0 90 3d 3c
        E 0 90 40 00
        E 0 90 40 3b
        E 107 90 40 00
        E 36 90 23 00
        E 5 90 39 00
        E 148 90 3d 00
        E 291 90 37 59
        E 0 90 46 47
        E 31 90 3d 55
        E 67 90 46 00
        E 10 90 37 00
        E 0 90 38 4e
        E 0 90 47 4c
        E 10 90 3d 00
        E 21 90 3e 49
        E 71 90 38 00
        E 0 90 3e 00
        E 5 90 47 00
        E 16 90 3a 4b
        E 0 90 43 55
        E 0 90 49 48
        E 107 90 3a 00
        E 0 90 3b 42
        E 0 90 49 00
        E 0 90 4a 4a
        E 20 90 43 00
        E 0 90 44 4d
        E 77 90 44 00
        E 5 90 4a 00
        E 10 90 3e 64
        E 6 90 4e 44
        E 30 90 47 46
        E 5 90 3b 00
        E 31 90 3e 00
        E 0 90 3e 4b
        E 10 90 4e 00
        E 0 90 4e 49
        E 46 90 49 37
        E 15 90 47 00
        E 0 90 4e 00
        E 11 90 43 43
        E 35 90 49 00
        E 103 90 3e 00
        E 102 90 43 00
        E 649 e0 55 4a
        E 0 90 39 68
        E 5 e0 55 4a
        E 6 e0 55 4a
        E 5 e0 55 4a
        E 5 e0 55 4a
        E 5 e0 55 4a
        E 5 e0 55 4a
        E 6 e0 55 4a
        E 5 e0 55 4a
        E 5 e0 55 4a
        E 5 e0 55 4a
        E 6 e0 55 4a
        E 5 e0 55 4a
        E 5 e0 55 4a
        E 5 e0 55 4a
        E 5 e0 55 4a
        E 6 e0 55 4a
        E 5 e0 55 4a
        E 5 e0 55 4a
        E 5 e0 55 4a
        E 6 e0 55 4a
        E 5 e0 55 4a
        E 5 e0 55 4a
        E 5 e0 55 4a
        E 5 e0 55 4a
        E 6 e0 55 4a
        E 5 e0 55 4a
        E 5 e0 55 4a
        E 5 e0 55 4a
        E 6 e0 55 4a
        E 5 e0 55 4a
        E 5 e0 55 4a
        E 5 e0 55 4a
        E 5 e0 55 4a
        E 6 e0 55 4a
        E 5 e0 55 4a
        E 5 e0 55 4a
        E 5 e0 55 4a
        E 6 e0 55 4a
        E 5 e0 55 4a
        E 5 e0 55 4a
        E 5 e0 55 4a
        E 5 e0 55 4a
        E 6 e0 55 4a
        E 5 e0 55 4a
        E 5 e0 55 4a
        E 0 90 39 00
        E 0 90 3a 60
        E 225 90 28 2b
        E 0 90 3e 43
        E 6 90 34 3d
        E 0 90 3a 00
        E 0 90 3b 5d
        E 0 90 47 2a
        E 86 90 47 00
        E 31 90 28 00
        E 77 90 3e 00
        E 20 90 34 00
        E 20 90 47 2f
        E 6 90 43 4b
        E 97 90 47 00
        E 5 90 43 00
        E 5 90 2f 3e
        E 0 90 3e 44
        E 5 90 3a 55
        E 0 90 3b 00
        E 112 90 47 25
        E 5 90 3a 00
        E 0 90 3b 58
        E 77 90 3e 00
        E 5 90 47 00
        E 31 90 3b 00
        E 0 90 3b 63
        E 0 90 43 41
        E 25 90 53 25
        E 133 90 3b 00
        E 0 90 3b 62
        E 52 90 2f 00
        E 0 90 43 00
        E 0 90 53 00
        E 20 90 3d 3c
        E 5 90 3b 00
        E 0 90 3b 4d
        E 11 90 38 2f
        E 71 90 3b 00
        E 0 90 3b 42
        E 5 90 38 00
        E 21 90 3d 00
        E 0 90 3d 47
        E 0 90 40 36
        E 5 90 2d 58
        E 76 90 3b 00
        E 0 90 40 00
        E 31 90 2d 00
        E 0 90 2d 4a
        E 0 90 3d 00
        E 10 90 47 42
        E 5 90 43 4c
        E 108 90 2d 00
        E 0 90 2d 3c
        E 0 90 39 5e
        E 0 90 45 30
        E 5 90 47 00
        E 20 90 43 00
        E 41 90 2d 00
        E 41 90 45 00
        E 10 90 34 4e
        E 0 90 39 00
        E 0 90 3a 4d
        E 0 90 3c 41
        E 82 90 3c 00
        E 31 90 34 00
        E 0 90 34 3b
        E 0 90 3d 3d
        E 10 90 3a 00
        E 46 90 3b 3f
        E 76 90 42 61
        E 41 90 34 00
        E 0 90 3b 00
        E 57 90 47 34
        E 41 90 3d 00
        E 20 90 42 00
        E 0 90 42 5b
        E 26 90 47 00
        E 30 90 3d 4d
        E 16 90 42 00
        E 97 90 32 4e
        E 0 90 3b 5b
        E 0 90 47 2f
        E 87 90 47 00
        E 107 90 3d 00
        E 15 90 47 25
        E 16 90 32 00
        E 0 90 32 2f
        E 10 90 45 2f
        E 5 90 42 44
        E 15 90 3b 00
        E 0 90 3b 56
        E 46 90 32 00
        E 10 90 45 00
        E 6 90 47 00
        E 35 90 2d 4e
        E 0 90 42 00
        E 26 90 3a 46
        E 0 90 3b 00
        E 87 90 3a 00
        E 5 90 3b 5b
        E 102 90 2d 00
        E 0 90 2d 35
        E 10 90 45 33
        E 5 90 3b 00
        E 0 90 3b 5f
        E 0 90 42 4a
        E 0 90 47 26
        E 57 90 45 00
        E 15 90 3b 00
        E 0 90 3b 64
        E 36 90 47 00
        E 61 90 47 24
        E 21 90 2d 00
        E 5 90 42 00
        E 31 90 3d 34
        E 5 90 3b 00
        E 0 90 3b 48
        E 20 90 38 33
        E 0 90 47 00
        E 72 90 38 00
        E 20 90 32 4c
        E 0 90 3d 00
        E 0 90 3d 45
        E 51 90 3b 00
        E 0 90 3b 4c
        E 36 90 3d 00
        E 26 90 32 00
        E 0 90 32 43
        E 10 90 45 2c
        E 5 90 42 46
        E 5 90 3b 00
        E 0 90 3b 46
        E 148 90 3b 00
        E 31 90 32 00
        E 0 90 45 00
        E 15 90 42 00
        E 21 90 2d 43
        E 0 90 3a 4c
        E 107 90 3a 00
        E 10 90 3b 62
        E 15 90 47 28
        E 67 90 47 00
        E 102 90 2d 00
        E 31 90 2d 34
        E 10 90 45 36
        E 5 90 42 37
        E 16 90 3b 00
        E 20 90 3c 51
        E 133 90 42 00
        E 5 90 45 00
        E 15 90 2d 00
        E 41 90 2c 3f
        E 0 90 42 30
        E 21 90 3c 00
        E 20 90 3d 60
        E 21 90 42 00
        E 92 90 3d 00
        E 0 90 3d 5f
        E 81 90 47 35
        E 21 90 2f 33
        E 10 90 3d 00
        E 0 90 3d 44
        E 5 90 2c 00
        E 41 90 47 00
        E 5 90 2f 00
        E 31 90 31 4a
        E 0 90 41 37
        E 10 90 3d 00
        E 46 90 3c 57
        E 56 90 31 00
        E 0 90 31 47
        E 15 90 3c 00
        E 21 90 3d 65
        E 41 90 41 00
        E 31 90 31 00
        E 0 90 31 41
        E 10 90 3d 00
        E 0 90 3d 5b
        E 0 90 46 38
        E 72 90 3d 00
        E 0 90 3d 63
        E 81 90 3d 00
        E 0 90 3d 64
        E 6 90 46 00
        E 56 90 31 00
        E 15 90 41 3e
        E 10 90 3d 00
        E 0 90 3d 56
        E 10 90 39 3c
        E 92 90 39 00
        E 0 90 41 00
        E 6 90 3d 00
        E 0 90 3d 4f
        E 5 90 2a 58
        E 0 90 3a 43
        E 76 90 3a 00
        E 31 90 2a 00
        E 0 90 2a 53
        E 5 90 49 36
        E 5 90 3d 00
        E 0 90 3d 45
        E 0 90 46 38
        E 97 90 49 00
        E 51 90 3d 00
        E 0 90 3d 56
        E 10 90 46 00
        E 31 90 25 43
        E 10 90 2a 00
        E 31 90 3c 5c
        E 0 90 3d 00
        E 0 90 3e 39
        E 36 90 25 00
        E 0 90 25 5d
        E 30 90 3e 00
        E 6 90 3c 00
        E 0 90 3c 4f
        E 35 90 25 00
        E 0 90 25 49
        E 11 90 3f 30
        E 15 90 3c 00
        E 21 90 3d 52
        E 71 90 3f 00
        E 0 90 3f 36
        E 16 90 3d 00
        E 5 90 44 5a
        E 66 90 3f 00
        E 31 90 31 22
        E 0 90 49 33
        E 5 90 3d 3f
        E 71 90 31 00
        E 0 90 44 00
        E 0 90 44 52
        E 6 90 3d 00
        E 25 90 49 00
        E 5 90 3f 60
        E 41 90 44 00
        E 21 90 25 00
        E 30 90 2a 4b
        E 26 90 3d 59
        E 0 90 3f 00
        E 0 90 40 40
        E 35 90 2a 00
        E 6 90 2a 59
        E 199 90 45 3c
        E 41 90 3d 00
        E 0 90 3d 55
        E 25 90 40 00
        E 21 90 2a 00
        E 20 90 45 00
        E 5 90 2f 5b
        E 5 90 3f 48
        E 0 90 4b 2b
        E 11 90 3d 00
        E 61 90 4b 00
        E 31 90 2f 00
        E 0 90 2f 4a
        E 0 90 47 32
        E 5 90 3b 5d
        E 97 90 47 00
        E 10 90 2f 00
        E 0 90 2f 37
        E 11 90 45 28
        E 5 90 3b 00
        E 0 90 3b 5f
        E 10 90 53 29
        E 41 90 3f 00
        E 30 90 3b 00
        E 0 90 3b 69
        E 26 90 45 00
        E 46 90 3b 00
        E 0 90 3b 65
        E 72 90 3d 4b
        E 5 90 3b 00
        E 0 90 3b 51
        E 0 90 41 2f
        E 35 90 2f 00
        E 31 90 53 00
        E 20 90 41 00
        E 21 90 28 55
        E 0 90 3d 00
        E 5 90 3e 4d
        E 41 90 42 28
        E 61 90 3e 00
        E 21 90 42 00
        E 0 90 42 46
        E 0 90 45 43
        E 184 90 47 26
        E 5 90 45 00
        E 10 90 42 00
        E 20 90 28 00
        E 0 90 28 3e
        E 5 90 3e 4e
        E 62 90 47 00
        E 5 90 28 00
        E 31 90 3e 00
        E 10 90 31 3d
        E 5 90 40 39
        E 5 90 3b 00
        E 0 90 3b 46
        E 0 90 44 46
        E 113 90 31 00
        E 0 90 31 3f
        E 0 90 3b 00
        E 0 90 3b 48
        E 0 90 40 00
        E 0 90 40 38
        E 5 90 44 00
        E 0 90 44 48
        E 107 90 40 00
        E 0 90 40 40
        E 5 90 31 00
        E 0 90 31 43
        E 0 90 3b 00
        E 0 90 3b 43
        E 5 90 44 00
        E 0 90 44 40
        E 67 90 40 00
        E 36 90 31 00
        E 56 90 3b 00
        E 51 90 44 00
        E 15 90 2f 4d
        E 0 90 3e 47
        E 0 90 42 33
        E 194 90 2f 00
        E 5 90 3e 00
        E 36 90 42 00
        E 0 90 42 52
        E 0 90 45 53
        E 77 90 42 00
        E 31 90 45 00
        E 0 90 45 4c
        E 0 90 49 49
        E 163 90 45 00
        E 46 90 49 00
        E 26 90 45 49
        E 5 90 42 3c
        E 184 90 45 00
        E 46 90 3e 51
        E 0 90 42 00
        E 0 90 42 50
        E 72 90 42 00
        E 40 90 3e 00
        E 0 90 3e 49
        E 5 90 38 41
        E 113 90 38 00
        E 0 90 38 45
        E 0 90 3e 00
        E 0 90 3e 4b
        E 117 90 38 00
        E 0 90 38 4b
        E 0 90 3e 00
        E 0 90 3e 43
        E 78 90 38 00
        E 81 90 3e 00
        E 419 90 3d 4b
        E 5 90 35 58
        E 108 90 2f 4e
        E 0 90 3d 00
        E 5 90 35 00
        E 0 90 36 4e
        E 0 90 3e 3f
        E 92 90 36 00
        E 20 90 2f 00
        E 0 90 3e 00
        E 0 90 3e 57
        E 0 90 42 48
        E 107 90 3e 00
        E 6 90 42 00
        E 0 90 42 4c
        E 0 90 45 4c
        E 77 90 42 00
        E 40 90 45 00
        E 0 90 45 3e
        E 0 90 49 49
        E 200 90 49 00
        E 30 90 45 00
        E 0 90 45 48
        E 5 90 42 3b
        E 164 90 45 00
        E 66 90 3e 56
        E 0 90 42 00
        E 0 90 42 50
        E 77 90 42 00
        E 15 90 3e 00
        E 26 90 4c 4e
        E 5 90 49 59
        E 10 90 38 55
        E 87 90 49 00
        E 0 90 49 55
        E 72 90 4c 00
        E 0 90 4c 4c
        E 67 90 4c 00
        E 0 90 4c 47
        E 97 90 48 4c
        E 0 90 49 00
        E 25 90 37 51
        E 0 90 38 00
        E 15 90 4b 43
        E 0 90 4c 00
        E 87 90 47 36
        E 0 90 48 00
        E 5 90 36 3f
        E 0 90 37 00
        E 5 90 4b 00
        E 6 90 4a 3c
        E 76 90 4a 00
        E 199 90 36 00
        E 16 90 47 00
        E 158 90 44 2c
        E 41 90 2d 51
        E 41 90 44 00
        E 113 90 2d 00
        E 36 90 49 3a
        E 5 90 40 48
        E 92 90 40 00
        E 10 90 42 40
        E 184 90 42 00
        E 56 90 49 00
        E 0 90 49 3f
        E 5 90 34 3b
        E 82 90 49 00
        E 41 90 34 00
        E 102 90 44 49
        E 5 90 39 42
        E 143 90 39 00
        E 0 90 44 00
        E 82 90 49 4a
        E 5 90 40 46
        E 123 90 40 00
        E 82 90 49 00
        E 25 e0 55 4a
        E 0 90 37 58
        E 6 e0 55 4a
        E 5 e0 55 4a
        E 5 e0 55 4a
        E 5 e0 55 4a
        E 6 e0 55 4a
        E 5 e0 55 4a
        E 5 e0 55 4a
        E 6 e0 55 4a
        E 5 e0 55 4a
        E 5 e0 55 4a
        E 6 e0 55 4a
        E 5 e0 55 4a
        E 5 e0 55 4a
        E 5 e0 55 4a
        E 6 e0 55 4a
        E 5 e0 55 4a
        E 5 e0 55 4a
        E 6 e0 55 4a
        E 5 e0 55 4a
        E 5 e0 55 4a
        E 6 e0 55 4a
        E 5 e0 55 4a
        E 5 e0 55 4a
        E 5 e0 55 2a
        E 6 e0 55 2a
        E 5 e0 55 2a
        E 5 e0 55 2a
        E 0 90 37 00
        E 11 e0 55 4a
        E 0 90 36 3e
        E 5 e0 55 4a
        E 5 e0 55 4a
        E 5 e0 55 4a
        E 6 e0 55 4a
        E 5 e0 55 4a
        E 5 e0 55 4a
        E 6 e0 55 4a
        E 5 e0 55 4a
        E 5 e0 55 4a
        E 5 e0 55 4a
        E 6 e0 55 4a
        E 5 e0 55 4a
        E 5 e0 55 4a
        E 6 e0 55 4a
        E 5 e0 55 4a
        E 5 e0 55 4a
        E 5 e0 55 4a
        E 6 e0 55 4a
        E 5 e0 55 4a
        E 5 e0 55 4a
        E 6 e0 55 4a
        E 5 e0 55 6a
        E 5 e0 55 6a
        E 5 e0 55 4a
        E 6 e0 55 4a
        E 5 e0 55 4a
        E 5 e0 55 4a
        E 6 e0 55 4a
        E 0 90 36 00
        E 51 90 3d 46
        E 0 90 40 49
        E 179 90 3d 00
        E 46 90 3c 54
        E 0 90 40 00
        E 0 90 40 35
        E 5 90 26 32
        E 0 90 36 3f
        E 77 90 26 00
        E 30 90 40 00
        E 0 90 40 34
        E 6 90 3c 00
        E 0 90 3c 55
        E 5 90 26 2f
        E 0 90 36 00
        E 0 90 36 41
        E 71 90 26 00
        E 36 90 3c 00
        E 0 90 3c 45
        E 0 90 40 00
        E 0 90 40 3b
        E 5 90 26 30
        E 0 90 36 00
        E 0 90 36 3e
        E 66 90 40 00
        E 36 90 26 00
        E 92 90 36 00
        E 153 90 3c 00
        E 113 90 26 2c
        E 0 90 3c 52
        E 0 90 40 30
        E 10 90 36 3e
        E 107 90 40 00
        E 0 90 40 2b
        E 5 90 26 00
        E 0 90 26 34
        E 0 90 36 00
        E 0 90 36 38
        E 0 90 3c 00
        E 0 90 3c 4f
        E 108 90 26 00
        E 0 90 26 39
        E 0 90 3c 00
        E 0 90 3c 47
        E 0 90 40 00
        E 0 90 40 37
        E 10 90 36 00
        E 0 90 36 41
        E 52 90 40 00
        E 76 90 26 00
        E 10 90 36 00
        E 11 90 3c 00
        E 306 90 31 44
        E 5 90 3b 4e
        E 0 90 3f 50
        E 5 90 34 47
        E 179 90 31 00
        E 41 90 30 41
        E 0 90 3e 42
        E 0 90 3f 00
        E 10 90 3a 49
        E 0 90 3b 00
        E 21 90 34 00
        E 5 90 33 47
        E 36 90 27 2e
        E 5 90 3e 00
        E 0 90 3e 51
        E 67 90 3e 00
        E 0 90 3e 52
        E 30 90 30 00
        E 10 90 27 00
        E 41 90 33 00
        E 0 90 3e 00
        E 0 90 3e 47
        E 0 90 42 2d
        E 5 90 2f 43
        E 11 90 32 31
        E 0 90 39 40
        E 0 90 3a 00
        E 46 90 3e 00
        E 25 90 2f 00
        E 0 90 42 00
        E 21 90 3d 3e
        E 30 90 39 00
        E 41 90 32 00
        E 26 90 3d 00
        E 25 90 42 41
        E 0 90 45 38
        E 62 90 42 00
        E 66 90 45 00
        E 0 90 45 4a
        E 0 90 49 38
        E 179 90 49 00
        E 46 90 42 45
        E 0 90 45 00
        E 0 90 45 4a
        E 168 90 42 00
        E 26 90 45 00
        E 51 90 31 3d
        E 41 90 3f 46
        E 46 90 31 00
        E 11 90 32 39
        E 5 90 38 42
        E 0 90 3f 00
        E 0 90 40 40
        E 76 90 40 00
        E 36 90 38 00
        E 0 90 38 43
        E 0 90 3e 31
        E 5 90 32 00
        E 0 90 32 35
        E 112 90 32 00
        E 0 90 32 40
        E 6 90 38 00
        E 0 90 38 49
        E 35 90 3e 00
        E 46 90 38 00
        E 77 90 32 00
        E 71 e0 55 4a
        E 0 90 3e 31
        E 6 e0 55 4a
        E 5 e0 55 4a
        E 5 e0 55 4a
        E 6 e0 55 4a
        E 5 e0 55 4a
        E 5 e0 55 4a
        E 5 e0 55 4a
        E 6 e0 55 4a
        E 5 e0 55 4a
        E 5 e0 55 4a
        E 6 e0 2b 55
        E 5 e0 2b 55
        E 5 e0 2b 55
        E 5 e0 2b 55
        E 6 e0 2b 55
        E 5 e0 2b 55
        E 5 e0 55 4a
        E 6 e0 55 4a
        E 5 e0 55 4a
        E 5 e0 55 4a
        E 5 e0 55 4a
        E 6 e0 55 4a
        E 5 e0 55 4a
        E 5 e0 55 4a
        E 5 e0 55 4a
        E 6 e0 55 4a
        E 5 e0 55 4a
        E 5 e0 55 4a
        E 6 e0 55 4a
        E 5 e0 55 4a
        E 0 90 3e 00
        E 71 90 3e 38
        E 5 90 44 26
        E 93 90 44 00
        E 31 90 3e 00
        E 102 e0 55 4a
        E 0 90 2f 5d
        E 5 e0 55 4a
        E 6 e0 55 4a
        E 5 e0 55 4a
        E 5 e0 55 4a
        E 6 e0 55 4a
        E 5 e0 55 4a
        E 5 e0 55 4a
        E 6 e0 55 4a
        E 5 e0 55 4a
        E 5 e0 55 4a
        E 6 e0 55 4a
        E 5 e0 55 4a
        E 6 e0 55 4a
        E 5 e0 55 4a
        E 5 e0 55 4a
        E 6 e0 55 4a
        E 5 e0 55 4a
        E 5 e0 55 4a
        E 6 e0 55 4a
        E 5 e0 55 4a
        E 0 90 2f 00
        E 10 90 36 45
        E 26 90 3e 5d
        E 92 90 39 50
        E 0 90 3e 00
        E 0 90 3e 3d
        E 41 90 42 48
        E 5 90 36 00
        E 15 90 3e 00
        E 46 90 49 2d
        E 5 90 39 00
        E 0 90 39 35
        E 5 90 3d 41
        E 0 90 45 45
        E 26 90 42 00
        E 71 90 49 00
        E 16 90 39 00
        E 5 90 45 00
        E 5 90 3d 00
        E 107 90 39 42
        E 0 90 42 50
        E 154 90 39 00
        E 56 90 42 00
        E 0 90 42 40
        E 21 90 36 32
        E 0 90 3e 4d
        E 56 90 42 00
        E 5 90 36 00
        E 51 90 49 4e
        E 0 90 4c 3b
        E 5 90 40 53
        E 5 90 38 50
        E 10 90 3e 00
        E 52 90 4c 00
        E 97 90 40 00
        E 0 90 40 5b
        E 40 90 49 00
        E 0 90 49 4c
        E 72 90 49 00
        E 0 90 49 47
        E 10 90 40 00
        E 0 90 40 5e
        E 82 90 40 00
        E 0 90 40 4f
        E 92 90 42 2d
        E 0 90 47 40
        E 0 90 49 00
        E 5 90 38 00
        E 0 90 3e 39
        E 10 90 40 00
        E 5 90 36 36
        E 62 90 36 00
        E 25 90 42 00
        E 88 90 3e 00
        E 127 90 47 00
        E 138 90 3e 53
        E 0 90 47 30
        E 5 90 34 4f
        E 113 90 3e 00
        E 0 90 3e 49
        E 0 90 43 53
        E 97 90 47 00
        E 15 90 43 00
        E 5 90 37 42
        E 0 90 3e 00
        E 0 90 3e 52
        E 5 90 34 00
        E 0 90 34 39
        E 72 90 37 00
        E 41 90 2d 45
        E 0 90 3d 54
        E 0 90 3e 00
        E 25 90 34 00
        E 210 90 47 47
        E 5 90 37 43
        E 0 90 3d 00
        E 0 90 3d 4a
        E 72 90 37 00
        E 25 90 3d 00
        E 0 90 47 00
        E 0 90 47 3d
        E 5 90 43 56
        E 113 90 3d 51
        E 0 90 43 00
        E 0 90 43 42
        E 0 90 47 00
        E 0 90 47 36
        E 51 90 2d 00
        E 46 90 43 00
        E 0 90 47 00
        E 15 90 3d 00
        E 5 90 32 5a
        E 0 90 3c 46
        E 0 90 45 35
        E 118 90 32 00
        E 0 90 32 42
        E 0 90 42 56
        E 0 90 45 00
        E 0 90 45 3b
        E 97 90 45 00
        E 20 90 3c 00
        E 0 90 3c 57
        E 0 90 42 00
        E 5 90 36 4c
        E 92 90 36 00
        E 21 90 3b 4b
        E 0 90 3c 00
        E 41 90 2b 5c
        E 20 90 32 00
        E 159 90 2b 00
        E 0 90 2b 48
        E 5 90 41 3c
        E 5 90 35 44
        E 16 90 3b 00
        E 0 90 3b 48
        E 92 90 3b 00
        E 5 90 3e 4e
        E 0 90 41 00
        E 0 90 41 49
        E 51 90 35 00
        E 66 90 3b 55
        E 0 90 3e 00
        E 0 90 3e 40
        E 0 90 41 00
        E 0 90 41 3c
        E 97 90 3e 00
        E 0 90 41 00
        E 5 90 2b 00
        E 0 90 3b 00
        E 21 90 39 3c
        E 0 90 3d 4b
        E 0 90 40 34
        E 112 90 39 00
        E 0 90 39 3d
        E 5 90 3d 00
        E 0 90 3d 4c
        E 0 90 40 00
        E 0 90 40 35
        E 10 90 2f 26
        E 67 90 2f 00
        E 36 90 39 00
        E 0 90 39 3e
        E 0 90 3d 00
        E 0 90 3d 3f
        E 5 90 40 00
        E 0 90 40 3a
        E 10 90 23 2f
        E 87 90 40 00
        E 20 90 23 00
        E 21 90 39 00
        E 128 90 3d 00
        E 312 90 46 47
        E 30 90 3d 55
        E 16 90 37 59
        E 56 90 46 00
        E 5 90 37 00
        E 0 90 38 4d
        E 0 90 47 4d
        E 10 90 3d 00
        E 26 90 3e 4b
        E 71 90 38 00
        E 0 90 3e 00
        E 5 90 47 00
        E 10 90 49 49
        E 6 90 3a 4c
        E 20 90 43 53
        E 87 90 3a 00
        E 0 90 3b 40
        E 0 90 49 00
        E 0 90 4a 4c
        E 15 90 43 00
        E 15 90 44 4b
        E 62 90 44 00
        E 10 90 4a 00
        E 10 90 3e 65
        E 5 90 4e 41
        E 36 90 47 4a
        E 10 90 3b 00
        E 21 90 3e 00
        E 0 90 3e 4c
        E 0 90 4e 00
        E 0 90 4e 49
        E 51 90 43 46
        E 0 90 49 36
        E 16 90 47 00
        E 0 90 4e 00
        E 46 90 49 00
        E 97 90 3e 00
        E 112 90 43 00
        E 152 b0 7b 00
        CCINTERP 32
        CHASE_CC_TAKEOFFS 1
        GUID {6BBD89D8-C7F3-4B9C-8E62-B0D42C9F4668}
        IGNTEMPO 0 120 4 4
        SRCCOLOR 18
        VELLANE -1 100 0
      >
    >
  >
  <UINF 12
    <ITEM {2E89AE47-2F69-4B36-AD6F-02089137F54A}
      POSITION 0
      SNAPOFFS 0
      LENGTH 86
      LOOP 1
      ALLTAKES 0
      FADEIN 1 0 0 1 0 0 0
      FADEOUT 1 0 0 1 0 0 0
      MUTE 0 0
      SEL 0
      IGUID {2E89AE47-2F69-4B36-AD6F-02089137F54A}
      IID 17
      NAME wii_music_basic_pitch.mid
      VOLPAN 1 0 1 -1
      SOFFS 0 0
      PLAYRATE 1 1 0 -1 0 0.0025
      CHANMODE 0
      GUID {90DEED99-37CD-4F23-9759-EEC172EBB3D8}
      <SOURCE MIDI
        HASDATA 1 220 QN
        CCINTERP 32
        POOLEDEVTS {07926E60-7F49-4478-8A74-6F8AA7643F33}
        E 0 c0 04 00
        E 1150 90 38 19
        E 0 90 3e 15
        E 123 90 38 00
        E 0 90 3e 00
        E 562 e0 00 40
        E 0 90 35 35
        E 6 e0 00 40
        E 5 e0 55 2a
        E 6 e0 55 2a
        E 5 e0 2b 35
        E 6 e0 2b 35
        E 5 e0 55 2a
        E 6 e0 55 2a
        E 6 e0 00 20
        E 5 e0 00 20
        E 6 e0 00 20
        E 5 e0 00 20
        E 0 90 35 00
        E 51 e0 55 4a
        E 0 90 36 40
        E 6 e0 2b 35
        E 6 e0 55 2a
        E 5 e0 55 2a
        E 6 e0 2b 35
        E 5 e0 2b 35
        E 6 e0 55 2a
        E 5 e0 55 2a
        E 6 e0 55 2a
        E 6 e0 00 20
        E 5 e0 00 20
        E 6 e0 00 20
        E 0 90 36 00
        E 859 90 38 29
        E 10 90 3d 1b
        E 0 90 49 31
        E 66 90 49 00
        E 51 90 3d 00
        E 41 90 38 00
        E 194 90 48 31
        E 5 90 37 4b
        E 26 90 4b 20
        E 36 90 48 00
        E 5 90 37 00
        E 46 90 4b 00
        E 445 e0 00 40
        E 0 90 2d 34
        E 5 e0 00 40
        E 6 e0 00 40
        E 5 e0 00 20
        E 6 e0 55 2a
        E 6 e0 2b 35
        E 5 e0 2b 35
        E 6 e0 55 2a
        E 5 e0 00 20
        E 6 e0 00 20
        E 5 e0 00 20
        E 6 e0 55 2a
        E 0 90 2d 00
        E 199 e0 55 2a
        E 0 90 49 1d
        E 6 e0 55 2a
        E 5 e0 2b 35
        E 6 e0 2b 35
        E 5 e0 55 2a
        E 5 e0 00 20
        E 6 e0 2b 75
        E 5 e0 2b 75
        E 6 e0 55 2a
        E 5 e0 55 2a
        E 6 e0 55 2a
        E 5 e0 00 20
        E 6 e0 55 4a
        E 5 e0 55 4a
        E 5 e0 55 4a
        E 6 e0 55 2a
        E 0 90 49 00
        E 491 e0 55 2a
        E 0 90 44 11
        E 5 e0 2b 35
        E 6 e0 00 40
        E 5 e0 00 40
        E 6 e0 00 40
        E 5 e0 2b 35
        E 6 e0 00 20
        E 5 e0 00 20
        E 6 e0 00 20
        E 5 e0 00 20
        E 6 e0 55 2a
        E 5 e0 55 2a
        E 6 e0 00 20
        E 5 e0 00 20
        E 0 90 44 00
        E 169 90 40 22
        E 0 90 49 24
        E 82 90 40 00
        E 5 90 49 00
        E 112 90 2b 20
        E 10 90 37 48
        E 72 90 2b 00
        E 0 90 37 00
        E 46 e0 00 40
        E 0 90 36 30
        E 5 e0 00 40
        E 5 e0 2b 15
        E 5 e0 00 20
        E 5 e0 55 2a
        E 6 e0 55 2a
        E 5 e0 55 2a
        E 5 e0 55 2a
        E 5 e0 55 2a
        E 5 e0 00 20
        E 5 e0 00 20
        E 5 e0 00 20
        E 6 e0 00 20
        E 5 e0 00 20
        E 5 e0 00 20
        E 5 e0 00 20
        E 5 e0 00 20
        E 5 e0 00 20
        E 5 e0 55 2a
        E 5 e0 55 2a
        E 6 e0 55 2a
        E 5 e0 00 20
        E 5 e0 00 20
        E 5 e0 00 20
        E 5 e0 55 2a
        E 0 90 36 00
        E 123 e0 55 2a
        E 0 90 40 23
        E 5 e0 2b 35
        E 6 e0 2b 35
        E 5 e0 2b 35
        E 5 e0 55 2a
        E 6 e0 55 2a
        E 5 e0 00 20
        E 6 e0 00 20
        E 5 e0 00 20
        E 5 e0 00 20
        E 6 e0 00 20
        E 5 e0 00 20
        E 6 e0 55 4a
        E 5 e0 2b 15
        E 5 e0 2b 15
        E 6 e0 2b 15
        E 5 e0 55 2a
        E 6 e0 55 2a
        E 0 90 40 00
        E 1763 e0 55 2a
        E 0 90 3e 1f
        E 6 e0 2b 35
        E 5 e0 2b 35
        E 6 e0 2b 35
        E 5 e0 55 2a
        E 6 e0 55 2a
        E 5 e0 55 2a
        E 6 e0 55 2a
        E 5 e0 00 20
        E 6 e0 55 6a
        E 6 e0 55 6a
        E 5 e0 00 20
        E 6 e0 00 20
        E 0 90 3e 00
        E 178 e0 2b 35
        E 0 90 3d 2f
        E 6 e0 55 2a
        E 5 e0 55 2a
        E 6 e0 55 2a
        E 5 e0 55 2a
        E 6 e0 55 2a
        E 5 e0 00 20
        E 6 e0 00 20
        E 5 e0 00 20
        E 5 e0 00 20
        E 6 e0 00 20
        E 5 e0 00 20
        E 6 e0 00 20
        E 5 e0 55 2a
        E 6 e0 55 2a
        E 5 e0 55 2a
        E 0 90 3d 00
        E 1871 e0 2b 35
        E 0 90 3e 26
        E 5 e0 2b 35
        E 6 e0 2b 35
        E 5 e0 55 2a
        E 6 e0 00 20
        E 5 e0 00 20
        E 6 e0 00 20
        E 5 e0 00 20
        E 6 e0 00 20
        E 5 e0 00 20
        E 6 e0 55 6a
        E 5 e0 55 6a
        E 6 e0 00 20
        E 5 e0 00 20
        E 6 e0 00 20
        E 0 90 3e 00
        E 25 90 39 24
        E 10 90 42 34
        E 57 90 42 00
        E 66 90 39 00
        E 557 e0 2b 15
        E 0 90 38 32
        E 6 e0 2b 15
        E 5 e0 2b 15
        E 6 e0 2b 35
        E 5 e0 00 40
        E 6 e0 00 40
        E 5 e0 00 40
        E 6 e0 55 2a
        E 6 e0 55 2a
        E 5 e0 55 2a
        E 6 e0 00 20
        E 5 e0 00 20
        E 6 e0 55 2a
        E 0 90 38 00
        E 976 e0 00 00
        E 0 90 43 2f
        E 5 e0 00 00
        E 5 e0 2b 35
        E 5 e0 55 2a
        E 6 e0 2b 35
        E 5 e0 2b 35
        E 5 e0 55 2a
        E 5 e0 00 20
        E 5 e0 00 20
        E 5 e0 00 20
        E 5 e0 00 20
        E 6 e0 55 4a
        E 5 e0 00 20
        E 5 e0 55 2a
        E 0 90 43 00
        E 638 e0 55 4a
        E 0 90 3d 18
        E 6 e0 2b 35
        E 6 e0 2b 35
        E 5 e0 2b 35
        E 6 e0 55 2a
        E 5 e0 55 2a
        E 6 e0 55 2a
        E 6 e0 00 20
        E 5 e0 00 20
        E 6 e0 00 20
        E 5 e0 00 20
        E 6 e0 55 2a
        E 0 90 3d 00
        E 399 e0 55 2a
        E 0 90 2b 2f
        E 5 e0 55 2a
        E 6 e0 2b 35
        E 5 e0 55 2a
        E 6 e0 55 2a
        E 5 e0 00 20
        E 5 e0 00 20
        E 6 e0 00 20
        E 5 e0 00 20
        E 6 e0 55 2a
        E 5 e0 55 2a
        E 6 e0 55 2a
        E 5 e0 55 2a
        E 5 e0 55 2a
        E 6 e0 55 2a
        E 5 e0 00 20
        E 6 e0 00 20
        E 0 90 2b 00
        E 265 e0 55 2a
        E 0 90 3e 23
        E 6 e0 2b 35
        E 5 e0 2b 35
        E 6 e0 55 2a
        E 6 e0 00 20
        E 5 e0 00 20
        E 6 e0 00 20
        E 5 e0 55 2a
        E 6 e0 55 2a
        E 5 e0 55 2a
        E 6 e0 55 2a
        E 6 e0 55 2a
        E 0 90 3e 00
        E 1201 e0 55 2a
        E 0 90 3a 47
        E 6 e0 00 20
        E 5 e0 00 20
        E 6 e0 00 20
        E 5 e0 55 2a
        E 6 e0 55 2a
        E 5 e0 55 2a
        E 6 e0 55 2a
        E 5 e0 55 2a
        E 6 e0 00 20
        E 6 e0 00 20
        E 5 e0 00 20
        E 6 e0 55 2a
        E 0 90 3a 00
        E 281 e0 2b 15
        E 0 90 43 3d
        E 5 e0 2b 15
        E 6 e0 2b 15
        E 5 e0 55 2a
        E 5 e0 55 2a
        E 6 e0 55 2a
        E 5 e0 55 2a
        E 6 e0 00 20
        E 5 e0 00 20
        E 6 e0 2b 15
        E 5 e0 2b 15
        E 6 e0 00 20
        E 5 e0 00 20
        E 6 e0 55 2a
        E 5 e0 00 20
        E 0 90 43 00
        E 1094 e0 00 20
        E 0 90 46 29
        E 5 e0 55 2a
        E 6 e0 55 2a
        E 5 e0 55 2a
        E 6 e0 55 2a
        E 5 e0 55 2a
        E 6 e0 55 2a
        E 5 e0 55 2a
        E 6 e0 00 20
        E 5 e0 00 20
        E 6 e0 55 6a
        E 5 e0 55 6a
        E 6 e0 55 6a
        E 5 e0 55 6a
        E 0 90 46 00
        E 154 e0 2b 35
        E 0 90 3b 2e
        E 6 e0 2b 35
        E 5 e0 2b 35
        E 5 e0 55 2a
        E 5 e0 55 2a
        E 6 e0 55 2a
        E 5 e0 00 20
        E 5 e0 00 20
        E 6 e0 00 20
        E 5 e0 00 20
        E 5 e0 00 20
        E 5 e0 00 20
        E 6 e0 55 2a
        E 5 e0 55 2a
        E 5 e0 55 2a
        E 5 e0 55 2a
        E 6 e0 55 2a
        E 5 e0 00 20
        E 5 e0 00 20
        E 6 e0 00 20
        E 5 e0 00 20
        E 5 e0 00 20
        E 5 e0 00 20
        E 6 e0 00 20
        E 5 e0 00 20
        E 5 e0 00 20
        E 6 e0 00 20
        E 5 e0 55 2a
        E 5 e0 55 2a
        E 5 e0 55 2a
        E 6 e0 55 2a
        E 0 90 3b 00
        E 194 e0 2b 15
        E 0 90 3e 21
        E 5 e0 55 2a
        E 6 e0 2b 35
        E 5 e0 2b 35
        E 6 e0 55 2a
        E 5 e0 55 2a
        E 6 e0 00 20
        E 6 e0 00 20
        E 5 e0 55 2a
        E 6 e0 55 2a
        E 5 e0 55 2a
        E 6 e0 55 2a
        E 5 e0 55 2a
        E 0 90 3e 00
        E 51 90 3b 20
        E 148 90 2f 22
        E 62 90 2f 00
        E 0 90 3b 00
        E 715 e0 55 6a
        E 0 90 3b 22
        E 6 e0 55 2a
        E 5 e0 55 2a
        E 6 e0 2b 35
        E 5 e0 55 2a
        E 6 e0 55 2a
        E 5 e0 55 2a
        E 6 e0 55 2a
        E 5 e0 00 20
        E 6 e0 00 20
        E 5 e0 2b 15
        E 6 e0 55 6a
        E 5 e0 00 60
        E 6 e0 55 6a
        E 0 90 3b 00
        E 66 e0 00 20
        E 0 90 42 21
        E 5 e0 55 2a
        E 6 e0 55 2a
        E 5 e0 55 2a
        E 5 e0 55 2a
        E 5 e0 55 2a
        E 5 e0 55 2a
        E 5 e0 00 20
        E 5 e0 00 20
        E 6 e0 55 2a
        E 5 e0 55 2a
        E 5 e0 55 2a
        E 5 e0 00 20
        E 5 e0 00 20
        E 5 e0 00 20
        E 5 e0 00 20
        E 5 e0 00 20
        E 6 e0 00 20
        E 5 e0 55 2a
        E 5 e0 55 2a
        E 5 e0 55 2a
        E 5 e0 55 2a
        E 5 e0 2b 35
        E 5 e0 2b 35
        E 5 e0 2b 35
        E 6 e0 55 2a
        E 5 e0 00 20
        E 5 e0 00 20
        E 5 e0 00 20
        E 5 e0 00 20
        E 5 e0 00 20
        E 5 e0 00 20
        E 0 90 42 00
        E 148 90 32 21
        E 16 90 3b 20
        E 51 90 32 00
        E 97 90 3b 00
        E 312 e0 55 4a
        E 0 90 3b 27
        E 5 e0 55 4a
        E 5 e0 55 2a
        E 5 e0 55 2a
        E 6 e0 55 2a
        E 5 e0 55 2a
        E 5 e0 55 2a
        E 6 e0 00 20
        E 5 e0 00 20
        E 5 e0 00 20
        E 6 e0 00 20
        E 5 e0 00 20
        E 5 e0 00 20
        E 5 e0 2b 75
        E 6 e0 2b 75
        E 5 e0 55 2a
        E 5 e0 55 2a
        E 6 e0 55 2a
        E 5 e0 55 2a
        E 5 e0 55 2a
        E 6 e0 00 20
        E 5 e0 00 20
        E 5 e0 55 6a
        E 6 e0 55 6a
        E 5 e0 55 2a
        E 5 e0 55 2a
        E 5 e0 55 2a
        E 0 90 3b 00
        E 798 e0 55 2a
        E 0 90 3b 2d
        E 5 e0 55 2a
        E 5 e0 2b 35
        E 5 e0 2b 35
        E 5 e0 55 2a
        E 6 e0 55 2a
        E 5 e0 55 2a
        E 5 e0 00 20
        E 5 e0 00 20
        E 5 e0 00 20
        E 5 e0 00 20
        E 5 e0 00 20
        E 5 e0 00 20
        E 6 e0 55 2a
        E 5 e0 55 2a
        E 5 e0 55 2a
        E 5 e0 00 20
        E 5 e0 00 20
        E 5 e0 00 20
        E 5 e0 00 20
        E 6 e0 00 20
        E 5 e0 00 20
        E 5 e0 55 6a
        E 5 e0 2b 15
        E 5 e0 00 20
        E 5 e0 55 2a
        E 5 e0 55 2a
        E 5 e0 55 2a
        E 0 90 3b 00
        E 87 90 3c 27
        E 0 90 48 23
        E 67 90 48 00
        E 81 90 3c 00
        E 67 90 2c 20
        E 20 90 3d 2b
        E 46 90 2c 00
        E 143 90 3d 00
        E 164 e0 2b 35
        E 0 90 3c 2d
        E 5 e0 2b 35
        E 6 e0 55 2a
        E 5 e0 00 20
        E 6 e0 00 20
        E 6 e0 00 20
        E 5 e0 00 20
        E 6 e0 00 20
        E 5 e0 00 20
        E 6 e0 00 20
        E 5 e0 00 20
        E 6 e0 00 20
        E 0 90 3c 00
        E 36 e0 2b 55
        E 0 90 3d 50
        E 5 e0 2b 55
        E 6 e0 2b 75
        E 5 e0 00 20
        E 6 e0 55 2a
        E 6 e0 55 2a
        E 5 e0 55 2a
        E 6 e0 00 20
        E 5 e0 00 20
        E 6 e0 00 20
        E 6 e0 00 20
        E 5 e0 00 20
        E 0 90 3d 00
        E 103 e0 00 20
        E 0 90 3d 21
        E 5 e0 00 20
        E 6 e0 00 20
        E 5 e0 55 2a
        E 6 e0 55 2a
        E 5 e0 55 2a
        E 6 e0 55 2a
        E 5 e0 55 2a
        E 5 e0 55 2a
        E 6 e0 55 2a
        E 5 e0 00 20
        E 6 e0 00 20
        E 5 e0 00 20
        E 6 e0 2b 15
        E 5 e0 2b 15
        E 6 e0 00 20
        E 0 90 3d 00
        E 224 90 2a 24
        E 118 90 49 23
        E 71 90 49 00
        E 5 90 2a 00
        E 149 e0 00 20
        E 0 90 3c 36
        E 5 e0 00 20
        E 6 e0 00 20
        E 5 e0 55 2a
        E 6 e0 55 2a
        E 5 e0 55 2a
        E 6 e0 00 20
        E 5 e0 00 20
        E 6 e0 00 20
        E 5 e0 00 20
        E 6 e0 00 20
        E 5 e0 00 20
        E 6 e0 00 20
        E 0 90 3c 00
        E 56 90 3d 3c
        E 0 90 49 25
        E 57 90 3d 00
        E 0 90 49 00
        E 388 90 2a 2e
        E 21 90 3d 27
        E 86 90 2a 00
        E 169 90 3d 00
        E 404 e0 55 6a
        E 0 90 3b 22
        E 6 e0 00 20
        E 5 e0 00 20
        E 5 e0 00 20
        E 6 e0 55 2a
        E 5 e0 55 2a
        E 6 e0 55 2a
        E 5 e0 55 2a
        E 6 e0 55 2a
        E 5 e0 55 2a
        E 5 e0 55 2a
        E 6 e0 00 20
        E 5 e0 2b 15
        E 6 e0 55 6a
        E 5 e0 55 6a
        E 6 e0 00 20
        E 5 e0 00 20
        E 0 90 3b 00
        E 138 e0 2b 15
        E 0 90 28 1e
        E 5 e0 2b 15
        E 6 e0 00 20
        E 5 e0 2b 15
        E 6 e0 2b 15
        E 5 e0 00 60
        E 5 e0 55 2a
        E 6 e0 55 2a
        E 5 e0 55 2a
        E 6 e0 2b 35
        E 5 e0 55 2a
        E 6 e0 55 2a
        E 5 e0 55 2a
        E 5 e0 55 2a
        E 6 e0 55 2a
        E 5 e0 55 2a
        E 6 e0 55 2a
        E 0 90 28 00
        E 2612 e0 00 40
        E 0 90 35 33
        E 5 e0 2b 35
        E 6 e0 55 2a
        E 6 e0 55 2a
        E 5 e0 2b 35
        E 6 e0 2b 35
        E 5 e0 55 2a
        E 6 e0 00 20
        E 5 e0 00 20
        E 6 e0 00 20
        E 6 e0 00 20
        E 5 e0 00 20
        E 0 90 35 00
        E 976 90 38 29
        E 6 90 3d 24
        E 0 90 49 2e
        E 61 90 3d 00
        E 5 90 49 00
        E 36 90 4c 18
        E 56 90 38 00
        E 25 90 4c 00
        E 164 e0 00 40
        E 0 90 48 2a
        E 6 e0 55 0a
        E 6 e0 00 20
        E 5 e0 55 2a
        E 6 e0 55 2a
        E 5 e0 55 2a
        E 6 e0 55 2a
        E 5 e0 55 2a
        E 6 e0 00 20
        E 6 e0 00 20
        E 5 e0 00 20
        E 6 e0 55 2a
        E 0 90 48 00
        E 46 e0 00 20
        E 0 90 36 3a
        E 5 e0 00 20
        E 6 e0 00 20
        E 5 e0 00 20
        E 6 e0 00 20
        E 6 e0 55 2a
        E 5 e0 55 2a
        E 6 e0 55 2a
        E 5 e0 55 2a
        E 6 e0 55 2a
        E 5 e0 55 2a
        E 6 e0 55 2a
        E 0 90 36 00
        E 654 e0 55 2a
        E 0 90 49 1e
        E 6 e0 55 2a
        E 5 e0 2b 35
        E 6 e0 55 2a
        E 5 e0 55 2a
        E 6 e0 55 2a
        E 5 e0 55 2a
        E 6 e0 55 2a
        E 5 e0 55 2a
        E 6 e0 55 2a
        E 5 e0 55 4a
        E 5 e0 55 4a
        E 6 e0 55 4a
        E 5 e0 55 4a
        E 6 e0 55 0a
        E 5 e0 2b 15
        E 0 90 49 00
        E 726 90 40 25
        E 0 90 49 29
        E 87 90 40 00
        E 5 90 49 00
        E 112 90 2b 1d
        E 6 90 37 46
        E 71 90 2b 00
        E 0 90 37 00
        E 51 e0 00 40
        E 0 90 36 34
        E 6 e0 00 40
        E 5 e0 00 20
        E 5 e0 00 20
        E 5 e0 55 2a
        E 6 e0 55 2a
        E 5 e0 55 2a
        E 5 e0 55 2a
        E 6 e0 55 2a
        E 5 e0 00 20
        E 5 e0 00 20
        E 6 e0 00 20
        E 5 e0 00 20
        E 5 e0 00 20
        E 6 e0 00 20
        E 5 e0 00 20
        E 5 e0 55 2a
        E 6 e0 55 2a
        E 5 e0 55 2a
        E 5 e0 00 20
        E 5 e0 00 20
        E 6 e0 00 20
        E 5 e0 00 20
        E 5 e0 00 20
        E 6 e0 00 20
        E 5 e0 55 2a
        E 0 90 36 00
        E 118 90 3d 1e
        E 0 90 40 22
        E 91 90 3d 00
        E 0 90 40 00
        E 1769 e0 2b 35
        E 0 90 3e 1d
        E 6 e0 2b 35
        E 5 e0 2b 35
        E 6 e0 55 2a
        E 5 e0 55 2a
        E 5 e0 55 2a
        E 6 e0 55 2a
        E 5 e0 55 2a
        E 6 e0 00 20
        E 5 e0 00 20
        E 6 e0 00 20
        E 5 e0 00 20
        E 6 e0 55 2a
        E 5 e0 55 2a
        E 6 e0 55 2a
        E 0 90 3e 00
        E 159 e0 2b 35
        E 0 90 3d 30
        E 5 e0 55 2a
        E 6 e0 55 2a
        E 5 e0 55 2a
        E 5 e0 55 2a
        E 6 e0 55 2a
        E 5 e0 00 20
        E 6 e0 00 20
        E 5 e0 00 20
        E 6 e0 00 20
        E 5 e0 00 20
        E 6 e0 00 20
        E 5 e0 00 20
        E 5 e0 00 20
        E 6 e0 00 20
        E 5 e0 55 2a
        E 0 90 3d 00
        E 256 e0 55 2a
        E 0 90 45 1d
        E 5 e0 55 2a
        E 6 e0 2b 35
        E 5 e0 55 2a
        E 6 e0 55 2a
        E 5 e0 55 2a
        E 6 e0 00 20
        E 5 e0 00 20
        E 5 e0 00 20
        E 6 e0 00 20
        E 5 e0 00 20
        E 6 e0 55 2a
        E 5 e0 55 4a
        E 6 e0 55 4a
        E 5 e0 55 4a
        E 6 e0 55 6a
        E 0 90 45 00
        E 1533 e0 55 2a
        E 0 90 3e 23
        E 6 e0 2b 35
        E 5 e0 2b 35
        E 6 e0 55 2a
        E 5 e0 00 20
        E 6 e0 00 20
        E 5 e0 00 20
        E 6 e0 00 20
        E 5 e0 55 2a
        E 5 e0 55 2a
        E 6 e0 55 2a
        E 5 e0 00 20
        E 6 e0 00 20
        E 5 e0 2b 15
        E 6 e0 2b 15
        E 0 90 3e 00
        E 25 90 39 33
        E 11 90 42 30
        E 51 90 39 00
        E 15 90 42 00
        E 271 e0 55 4a
        E 0 90 42 43
        E 5 e0 55 4a
        E 6 e0 55 4a
        E 5 e0 55 2a
        E 6 e0 2b 35
        E 6 e0 2b 35
        E 5 e0 55 2a
        E 6 e0 55 2a
        E 5 e0 55 2a
        E 6 e0 00 20
        E 5 e0 00 20
        E 6 e0 00 20
        E 0 90 42 00
        E 282 e0 2b 15
        E 0 90 38 2f
        E 5 e0 2b 15
        E 6 e0 2b 15
        E 5 e0 00 40
        E 6 e0 00 40
        E 5 e0 00 40
        E 6 e0 00 40
        E 5 e0 2b 35
        E 6 e0 55 2a
        E 5 e0 55 2a
        E 6 e0 00 20
        E 5 e0 55 2a
        E 6 e0 55 2a
        E 0 90 38 00
        E 398 e0 2b 15
        E 0 90 47 1a
        E 6 e0 2b 15
        E 5 e0 55 2a
        E 5 e0 55 2a
        E 6 e0 2b 35
        E 5 e0 00 40
        E 5 e0 2b 35
        E 6 e0 55 2a
        E 5 e0 00 20
        E 5 e0 00 20
        E 6 e0 00 20
        E 5 e0 00 20
        E 5 e0 55 2a
        E 6 e0 55 2a
        E 5 e0 55 2a
        E 5 e0 00 20
        E 6 e0 00 20
        E 5 e0 00 20
        E 5 e0 55 2a
        E 6 e0 55 2a
        E 5 e0 55 2a
        E 5 e0 55 2a
        E 5 e0 55 2a
        E 6 e0 55 4a
        E 5 e0 55 2a
        E 0 90 47 00
        E 1621 e0 2b 15
        E 0 90 2b 24
        E 5 e0 55 2a
        E 5 e0 55 2a
        E 5 e0 55 2a
        E 6 e0 55 2a
        E 5 e0 55 2a
        E 5 e0 55 2a
        E 6 e0 00 20
        E 5 e0 00 20
        E 5 e0 00 20
        E 5 e0 55 2a
        E 6 e0 55 2a
        E 5 e0 55 2a
        E 5 e0 55 2a
        E 6 e0 55 2a
        E 5 e0 00 20
        E 5 e0 00 20
        E 5 e0 00 20
        E 6 e0 00 20
        E 5 e0 00 20
        E 5 e0 55 2a
        E 5 e0 55 2a
        E 6 e0 55 2a
        E 5 e0 00 20
        E 5 e0 00 20
        E 6 e0 00 20
        E 5 e0 00 20
        E 5 e0 00 20
        E 5 e0 00 20
        E 6 e0 00 20
        E 5 e0 55 2a
        E 0 90 2b 00
        E 1457 e0 00 20
        E 0 90 3a 4b
        E 6 e0 00 20
        E 5 e0 00 20
        E 6 e0 55 2a
        E 5 e0 55 2a
        E 6 e0 55 2a
        E 5 e0 55 2a
        E 6 e0 55 2a
        E 5 e0 55 2a
        E 6 e0 55 2a
        E 5 e0 00 20
        E 6 e0 00 20
        E 5 e0 55 2a
        E 0 90 3a 00
        E 277 e0 55 6a
        E 0 90 43 3e
        E 5 e0 2b 15
        E 6 e0 2b 15
        E 5 e0 55 2a
        E 6 e0 55 2a
        E 5 e0 55 2a
        E 6 e0 55 2a
        E 5 e0 00 20
        E 6 e0 00 20
        E 5 e0 2b 15
        E 6 e0 00 20
        E 5 e0 55 2a
        E 6 e0 55 2a
        E 5 e0 55 2a
        E 0 90 43 00
        E 157 b0 7b 00
        CCINTERP 32
        CHASE_CC_TAKEOFFS 1
        GUID {D9ECFC60-FCAC-40F8-9769-CBF4F24E8E19}
        IGNTEMPO 0 120 4 4
        SRCCOLOR 25
        VELLANE -1 100 0
      >
    >
  >
  <UINF 13
    <ITEM {F5DECEA5-0546-4601-932B-328CF0717495}
      POSITION 0
      SNAPOFFS 0
      LENGTH 45.5
      LOOP 1
      ALLTAKES 0
      FADEIN 1 0 0 1 0 0 0
      FADEOUT 1 0 0 1 0 0 0
      MUTE 0 0
      SEL 0
      IGUID {F5DECEA5-0546-4601-932B-328CF0717495}
      IID 68
      NAME wii_music_basic_pitch.mid
      VOLPAN 1 0 1 -1
      SOFFS 0 0
      PLAYRATE 1 1 0 -1 0 0.0025
      CHANMODE 0
      GUID {916D59D7-35E4-4697-8A3C-ACD19700734A}
      <SOURCE MIDI
        HASDATA 1 220 QN
        CCINTERP 32
        POOLEDEVTS {3E0BA5D4-66E4-4568-A0AE-BD92763B51B9}
        E 0 c0 04 00
        E 19322 e0 55 4a
        E 0 90 3c 11
        E 6 e0 2b 55
        E 5 e0 00 60
        E 6 e0 00 60
        E 5 e0 00 60
        E 6 e0 2b 55
        E 6 e0 2b 55
        E 5 e0 2b 55
        E 6 e0 2b 55
        E 5 e0 2b 55
        E 6 e0 2b 55
        E 5 e0 2b 55
        E 0 90 3c 00
        E 532 e0 2b 35
        E 0 90 3c 1c
        E 5 e0 55 2a
        E 6 e0 55 2a
        E 5 e0 55 2a
        E 6 e0 55 2a
        E 5 e0 55 2a
        E 6 e0 00 20
        E 5 e0 00 20
        E 6 e0 00 20
        E 5 e0 00 20
        E 6 e0 00 20
        E 5 e0 00 20
        E 6 e0 00 20
        E 5 e0 55 2a
        E 0 90 3c 00
        E 34 b0 7b 00
        CCINTERP 32
        CHASE_CC_TAKEOFFS 1
        GUID {D626DBA8-812D-47C2-806C-E0AAA33DA9BB}
        IGNTEMPO 0 120 4 4
        SRCCOLOR 118
        VELLANE -1 100 0
      >
    >
  >
  <UINF 14
    <ITEM {CEF1BD09-93D4-477C-8B7D-A3DAC1935D31}
      POSITION 0
      SNAPOFFS 0
      LENGTH 86
      LOOP 1
      ALLTAKES 0
      FADEIN 1 0 0 1 0 0 0
      FADEOUT 1 0 0 1 0 0 0
      MUTE 0 0
      SEL 0
      IGUID {CEF1BD09-93D4-477C-8B7D-A3DAC1935D31}
      IID 100
      NAME wii_music_basic_pitch.mid
      VOLPAN 1 0 1 -1
      SOFFS 0 0
      PLAYRATE 1 1 0 -1 0 0.0025
      CHANMODE 0
      GUID {BFA03BE4-FAA7-4B9D-802B-5ACCB5BA776E}
      <SOURCE MIDI
        HASDATA 1 220 QN
        CCINTERP 32
        POOLEDEVTS {FC44D5AF-303B-4C5D-9EB9-AB2BAE78CCCB}
        E 0 c0 04 00
        E 112 e0 2b 75
        E 0 90 2f 30
        E 6 e0 2b 75
        E 5 e0 2b 75
        E 5 e0 2b 75
        E 6 e0 2b 75
        E 5 e0 55 6a
        E 5 e0 55 6a
        E 6 e0 2b 15
        E 5 e0 2b 15
        E 5 e0 2b 15
        E 6 e0 2b 15
        E 5 e0 2b 15
        E 5 e0 2b 75
        E 5 e0 2b 75
        E 6 e0 2b 15
        E 5 e0 2b 15
        E 5 e0 2b 15
        E 6 e0 2b 15
        E 5 e0 2b 15
        E 5 e0 2b 15
        E 6 e0 55 6a
        E 5 e0 55 6a
        E 5 e0 55 6a
        E 6 e0 55 6a
        E 5 e0 55 6a
        E 5 e0 55 6a
        E 0 90 2f 00
        E 77 90 29 1b
        E 20 90 45 28
        E 113 90 29 00
        E 20 90 45 00
        E 430 90 2f 23
        E 5 90 42 33
        E 15 90 3e 1f
        E 46 90 42 00
        E 46 90 2c 2b
        E 21 90 32 24
        E 0 90 38 26
        E 0 90 3e 00
        E 0 90 3e 21
        E 5 90 2f 00
        E 92 90 25 14
        E 20 90 38 00
        E 0 90 38 2a
        E 0 90 3e 00
        E 0 90 3e 2a
        E 5 90 2c 00
        E 51 90 32 00
        E 41 90 2c 30
        E 5 90 32 31
        E 16 90 38 00
        E 0 90 38 2d
        E 15 90 3e 00
        E 25 90 25 00
        E 6 90 2c 00
        E 5 90 32 00
        E 10 90 38 00
        E 501 90 31 2c
        E 0 90 35 4f
        E 10 90 49 2c
        E 0 90 4d 1f
        E 51 90 35 00
        E 11 90 4d 00
        E 5 90 31 00
        E 5 90 49 00
        E 25 90 23 2f
        E 11 90 42 2d
        E 15 90 36 2e
        E 0 90 3e 25
        E 36 90 23 00
        E 76 90 3e 00
        E 0 90 3e 21
        E 10 90 42 00
        E 6 90 36 00
        E 92 90 45 32
        E 20 90 3e 00
        E 41 90 45 00
        E 527 90 3e 20
        E 97 90 38 2d
        E 5 90 40 2c
        E 0 90 42 20
        E 0 90 44 23
        E 15 90 49 2b
        E 0 90 55 25
        E 10 90 3e 00
        E 51 90 42 00
        E 0 90 55 00
        E 5 90 40 00
        E 16 90 4c 28
        E 10 90 49 00
        E 46 90 38 00
        E 77 90 38 23
        E 61 90 2c 20
        E 56 90 3c 1e
        E 5 90 48 23
        E 10 90 2c 00
        E 11 90 44 00
        E 0 90 4c 00
        E 15 90 38 00
        E 20 90 3f 26
        E 57 90 36 2e
        E 10 90 3c 00
        E 5 90 3f 00
        E 0 90 48 00
        E 117 90 36 00
        E 348 e0 2b 75
        E 0 90 2d 34
        E 6 e0 2b 75
        E 5 e0 55 6a
        E 5 e0 55 6a
        E 6 e0 55 6a
        E 5 e0 55 6a
        E 5 e0 2b 75
        E 5 e0 2b 75
        E 6 e0 2b 75
        E 5 e0 2b 75
        E 5 e0 2b 75
        E 6 e0 55 6a
        E 5 e0 2b 15
        E 5 e0 2b 15
        E 6 e0 2b 15
        E 5 e0 2b 15
        E 5 e0 2b 15
        E 6 e0 2b 15
        E 5 e0 55 6a
        E 5 e0 55 6a
        E 5 e0 55 6a
        E 6 e0 55 6a
        E 5 e0 55 6a
        E 5 e0 55 6a
        E 6 e0 55 6a
        E 5 e0 55 6a
        E 5 e0 55 6a
        E 0 90 2d 00
        E 102 e0 55 6a
        E 0 90 49 20
        E 6 e0 55 6a
        E 5 e0 55 6a
        E 6 e0 55 6a
        E 5 e0 55 6a
        E 6 e0 55 6a
        E 5 e0 55 6a
        E 6 e0 55 6a
        E 5 e0 00 20
        E 6 e0 00 20
        E 5 e0 55 6a
        E 6 e0 55 6a
        E 5 e0 2b 75
        E 6 e0 2b 75
        E 0 90 49 00
        E 271 e0 2b 15
        E 0 90 34 2c
        E 6 e0 2b 15
        E 5 e0 2b 15
        E 5 e0 2b 15
        E 6 e0 2b 15
        E 5 e0 2b 15
        E 6 e0 00 20
        E 5 e0 00 20
        E 6 e0 00 20
        E 5 e0 00 20
        E 5 e0 00 20
        E 6 e0 00 20
        E 5 e0 00 20
        E 6 e0 00 20
        E 5 e0 00 20
        E 5 e0 00 20
        E 6 e0 00 20
        E 5 e0 00 20
        E 0 90 34 00
        E 373 90 40 29
        E 0 90 49 2e
        E 82 90 49 00
        E 5 90 40 00
        E 112 90 2b 24
        E 16 90 43 37
        E 66 90 43 00
        E 46 90 42 35
        E 5 90 2b 00
        E 47 90 36 1f
        E 10 90 42 00
        E 61 90 36 00
        E 123 e0 2b 15
        E 0 90 40 2f
        E 5 e0 2b 15
        E 6 e0 2b 15
        E 5 e0 00 20
        E 5 e0 00 20
        E 6 e0 00 20
        E 5 e0 00 20
        E 6 e0 00 20
        E 5 e0 00 20
        E 6 e0 00 20
        E 5 e0 00 20
        E 5 e0 00 20
        E 6 e0 2b 15
        E 5 e0 2b 15
        E 6 e0 2b 15
        E 5 e0 2b 15
        E 5 e0 2b 15
        E 6 e0 2b 15
        E 0 90 40 00
        E 117 e0 00 60
        E 0 90 2d 26
        E 6 e0 00 60
        E 5 e0 00 60
        E 5 e0 00 60
        E 5 e0 00 60
        E 6 e0 55 6a
        E 5 e0 2b 15
        E 5 e0 2b 15
        E 6 e0 2b 15
        E 5 e0 2b 15
        E 5 e0 2b 75
        E 5 e0 2b 75
        E 6 e0 2b 75
        E 5 e0 2b 75
        E 5 e0 2b 75
        E 6 e0 2b 75
        E 5 e0 2b 75
        E 5 e0 2b 15
        E 6 e0 00 20
        E 5 e0 00 20
        E 5 e0 00 20
        E 5 e0 55 6a
        E 6 e0 55 6a
        E 5 e0 55 6a
        E 5 e0 55 6a
        E 6 e0 55 6a
        E 5 e0 00 60
        E 5 e0 00 60
        E 5 e0 00 60
        E 0 90 2d 00
        E 92 90 2d 2d
        E 5 90 3c 3d
        E 57 90 2d 00
        E 10 90 3c 00
        E 501 e0 2b 75
        E 0 90 2d 29
        E 5 e0 55 6a
        E 6 e0 00 20
        E 5 e0 00 20
        E 5 e0 2b 15
        E 5 e0 2b 15
        E 6 e0 2b 15
        E 5 e0 2b 15
        E 5 e0 2b 15
        E 5 e0 2b 15
        E 6 e0 2b 15
        E 5 e0 2b 75
        E 5 e0 2b 75
        E 5 e0 2b 75
        E 6 e0 2b 75
        E 5 e0 2b 75
        E 5 e0 2b 15
        E 5 e0 2b 15
        E 6 e0 00 20
        E 5 e0 00 20
        E 5 e0 00 20
        E 5 e0 00 20
        E 6 e0 00 60
        E 5 e0 00 60
        E 5 e0 00 60
        E 5 e0 00 60
        E 6 e0 00 60
        E 5 e0 2b 15
        E 5 e0 2b 15
        E 5 e0 2b 15
        E 6 e0 2b 15
        E 5 e0 2b 15
        E 5 e0 2b 15
        E 5 e0 2b 15
        E 6 e0 2b 15
        E 5 e0 2b 75
        E 0 90 2d 00
        E 51 e0 2b 15
        E 0 90 1a 24
        E 5 e0 2b 15
        E 6 e0 2b 15
        E 5 e0 00 20
        E 6 e0 00 20
        E 5 e0 00 20
        E 5 e0 00 20
        E 6 e0 00 20
        E 5 e0 2b 15
        E 5 e0 2b 15
        E 6 e0 2b 15
        E 5 e0 2b 15
        E 5 e0 2b 15
        E 6 e0 2b 15
        E 5 e0 2b 15
        E 6 e0 2b 15
        E 5 e0 2b 15
        E 5 e0 2b 15
        E 6 e0 2b 15
        E 5 e0 2b 15
        E 5 e0 2b 15
        E 0 90 1a 00
        E 251 e0 00 60
        E 0 90 52 22
        E 6 e0 00 20
        E 5 e0 00 20
        E 6 e0 00 20
        E 5 e0 00 20
        E 6 e0 00 20
        E 6 e0 00 20
        E 5 e0 00 20
        E 6 e0 00 20
        E 5 e0 00 20
        E 6 e0 00 20
        E 6 e0 00 20
        E 0 90 52 00
        E 158 90 30 2c
        E 5 90 27 2a
        E 0 90 3a 28
        E 0 90 3e 2b
        E 5 90 33 2b
        E 61 90 30 00
        E 41 90 27 00
        E 41 90 33 00
        E 10 90 3e 00
        E 21 90 3a 00
        E 51 90 32 23
        E 10 90 39 30
        E 0 90 3d 34
        E 102 90 39 00
        E 5 90 3d 00
        E 36 90 32 00
        E 210 e0 55 6a
        E 0 90 45 2c
        E 6 e0 55 6a
        E 5 e0 55 6a
        E 5 e0 00 20
        E 6 e0 00 20
        E 5 e0 00 20
        E 6 e0 00 20
        E 5 e0 00 20
        E 6 e0 00 20
        E 5 e0 00 20
        E 5 e0 00 20
        E 6 e0 00 20
        E 5 e0 00 20
        E 6 e0 2b 15
        E 5 e0 55 6a
        E 6 e0 55 6a
        E 5 e0 55 6a
        E 0 90 45 00
        E 358 90 3f 3a
        E 5 90 44 17
        E 0 90 46 21
        E 61 90 46 00
        E 10 90 3f 00
        E 46 90 32 28
        E 5 90 38 2d
        E 0 90 44 00
        E 5 90 40 1f
        E 41 90 3e 21
        E 51 90 2c 28
        E 16 90 32 00
        E 0 90 32 2a
        E 15 90 3e 00
        E 0 90 40 00
        E 15 90 38 00
        E 92 90 32 00
        E 0 90 32 36
        E 46 90 2c 00
        E 77 90 32 00
        E 685 90 42 26
        E 5 90 3e 27
        E 97 90 26 1f
        E 0 90 2a 25
        E 0 90 2d 21
        E 10 90 45 2c
        E 5 90 3e 00
        E 0 90 3e 17
        E 6 90 39 2f
        E 0 90 42 00
        E 0 90 42 2e
        E 102 90 26 00
        E 0 90 49 2f
        E 5 90 3d 37
        E 0 90 3e 00
        E 5 90 45 00
        E 0 90 45 2d
        E 6 90 2a 00
        E 0 90 2d 00
        E 0 90 42 00
        E 10 90 39 00
        E 56 90 49 00
        E 10 90 3d 00
        E 0 90 45 00
        E 133 e0 2b 75
        E 0 90 42 3e
        E 6 e0 2b 75
        E 5 e0 2b 75
        E 6 e0 2b 75
        E 5 e0 2b 75
        E 6 e0 2b 75
        E 5 e0 00 20
        E 6 e0 00 20
        E 5 e0 00 20
        E 6 e0 00 20
        E 5 e0 2b 15
        E 6 e0 2b 15
        E 5 e0 2b 15
        E 0 90 42 00
        E 184 90 3e 24
        E 97 90 38 2a
        E 6 90 44 36
        E 15 90 40 20
        E 5 90 3e 00
        E 61 90 44 00
        E 62 90 44 1f
        E 67 90 44 00
        E 5 90 40 00
        E 0 90 40 23
        E 51 90 53 18
        E 15 90 40 00
        E 15 90 38 00
        E 0 90 40 2c
        E 5 90 38 30
        E 52 90 53 00
        E 46 90 40 00
        E 5 90 38 00
        E 46 90 42 21
        E 5 90 36 2f
        E 0 90 3e 37
        E 0 90 4a 2d
        E 5 90 47 25
        E 56 90 36 00
        E 0 90 4a 00
        E 5 90 3e 00
        E 56 90 42 00
        E 11 90 47 00
        E 680 90 21 34
        E 10 90 3d 2d
        E 5 90 2d 31
        E 66 90 3d 00
        E 36 90 2d 00
        E 20 90 21 00
        E 445 90 26 2d
        E 10 90 32 2b
        E 133 90 26 00
        E 36 90 32 00
        E 153 90 1f 29
        E 26 90 2b 32
        E 148 90 2b 00
        E 77 90 1f 00
        E 112 e0 55 6a
        E 0 90 41 24
        E 5 e0 55 6a
        E 6 e0 55 6a
        E 5 e0 00 20
        E 5 e0 00 20
        E 6 e0 00 20
        E 5 e0 00 20
        E 5 e0 00 20
        E 6 e0 00 20
        E 5 e0 00 20
        E 5 e0 00 20
        E 6 e0 00 20
        E 5 e0 00 20
        E 5 e0 00 20
        E 6 e0 00 20
        E 5 e0 00 20
        E 5 e0 00 20
        E 6 e0 00 20
        E 5 e0 00 20
        E 5 e0 00 20
        E 5 e0 00 20
        E 6 e0 00 20
        E 5 e0 00 20
        E 5 e0 00 20
        E 6 e0 00 20
        E 5 e0 00 20
        E 0 90 41 00
        E 97 90 39 3b
        E 15 90 3d 22
        E 11 90 2f 1d
        E 31 90 39 00
        E 71 90 39 23
        E 0 90 3d 00
        E 0 90 3d 2b
        E 118 90 39 00
        E 0 90 39 2a
        E 15 90 2f 00
        E 5 90 3d 00
        E 67 90 39 00
        E 485 90 49 34
        E 5 90 3d 36
        E 0 90 52 2a
        E 77 90 52 00
        E 5 90 3d 00
        E 0 90 49 00
        E 21 90 32 20
        E 10 90 38 40
        E 0 90 3e 45
        E 0 90 47 41
        E 51 90 32 00
        E 10 90 47 00
        E 11 90 38 00
        E 0 90 3e 00
        E 35 90 3a 45
        E 16 90 43 37
        E 0 90 4f 2f
        E 51 90 3a 00
        E 10 90 4f 00
        E 5 90 43 00
        E 31 90 44 4c
        E 0 90 4a 46
        E 10 90 3b 35
        E 51 90 4a 00
        E 5 90 44 00
        E 61 90 3e 38
        E 0 90 4a 30
        E 6 90 47 24
        E 0 90 4e 34
        E 15 90 3b 00
        E 56 90 4a 00
        E 5 90 3e 00
        E 15 90 4e 00
        E 11 90 37 23
        E 0 90 3e 2c
        E 15 90 47 00
        E 5 90 43 2e
        E 41 90 37 00
        E 87 90 3e 00
        E 61 90 43 00
        E 721 90 45 2a
        E 5 90 51 34
        E 5 90 39 2b
        E 61 90 51 00
        E 92 90 39 00
        E 6 90 45 00
        E 71 90 3a 37
        E 0 90 46 33
        E 82 90 46 00
        E 5 e0 2b 15
        E 0 90 3a 00
        E 0 90 3a 30
        E 5 e0 2b 15
        E 5 e0 2b 15
        E 5 e0 2b 15
        E 5 e0 2b 15
        E 6 e0 2b 15
        E 5 e0 2b 15
        E 5 e0 2b 15
        E 5 e0 2b 15
        E 5 e0 2b 15
        E 5 e0 2b 15
        E 6 e0 55 6a
        E 5 e0 55 6a
        E 5 e0 2b 15
        E 5 e0 2b 15
        E 5 e0 2b 15
        E 0 90 3a 00
        E 36 90 28 35
        E 25 90 3b 3a
        E 0 90 47 30
        E 62 90 3b 00
        E 0 90 47 00
        E 20 90 28 00
        E 41 90 4e 15
        E 117 90 47 2d
        E 6 90 4e 00
        E 56 90 47 00
        E 46 90 2f 36
        E 5 90 3e 1f
        E 117 90 47 2c
        E 5 90 3b 2e
        E 16 90 2f 00
        E 25 90 3e 00
        E 82 90 47 00
        E 5 90 3b 00
        E 67 90 3b 22
        E 71 90 47 20
        E 5 90 3b 00
        E 0 90 3b 22
        E 0 90 43 16
        E 77 90 47 00
        E 16 90 3b 00
        E 25 90 43 00
        E 36 90 21 22
        E 15 90 40 36
        E 5 90 3d 2a
        E 6 90 3b 17
        E 5 90 2d 30
        E 51 90 40 00
        E 46 90 21 00
        E 0 90 21 30
        E 25 90 3b 00
        E 11 90 2d 00
        E 0 90 3d 00
        E 35 90 21 00
        E 56 90 4c 31
        E 6 90 45 34
        E 56 90 4c 00
        E 10 e0 2b 15
        E 0 90 34 3c
        E 0 90 45 00
        E 5 e0 2b 15
        E 6 e0 2b 15
        E 5 e0 2b 15
        E 6 e0 2b 15
        E 5 e0 2b 15
        E 6 e0 2b 15
        E 5 e0 2b 15
        E 5 e0 2b 15
        E 6 e0 55 0a
        E 5 e0 55 0a
        E 6 e0 55 0a
        E 5 e0 55 0a
        E 6 e0 55 0a
        E 5 e0 55 0a
        E 5 e0 2b 15
        E 6 e0 2b 15
        E 0 90 34 00
        E 61 90 28 32
        E 10 90 47 31
        E 11 90 3b 26
        E 0 90 4e 23
        E 51 90 28 00
        E 25 90 47 00
        E 51 90 3b 00
        E 21 90 4e 00
        E 71 90 47 24
        E 10 90 42 37
        E 1 90 4e 2a
        E 0 90 55 21
        E 56 90 47 00
        E 5 90 55 00
        E 5 90 42 00
        E 0 90 4e 00
        E 41 e0 55 6a
        E 0 90 49 25
        E 6 e0 55 6a
        E 5 e0 55 6a
        E 6 e0 55 6a
        E 5 e0 00 60
        E 6 e0 00 20
        E 5 e0 00 20
        E 5 e0 00 20
        E 6 e0 00 20
        E 5 e0 00 20
        E 6 e0 00 20
        E 5 e0 00 20
        E 6 e0 00 20
        E 5 e0 00 20
        E 6 e0 00 60
        E 5 e0 55 6a
        E 0 90 49 00
        E 10 90 1f 26
        E 26 90 32 2c
        E 92 90 1f 00
        E 66 90 32 00
        E 56 90 26 23
        E 16 90 32 30
        E 66 90 26 00
        E 5 90 32 00
        E 31 e0 00 40
        E 0 90 3a 50
        E 5 e0 00 40
        E 6 e0 00 40
        E 6 e0 00 40
        E 5 e0 00 00
        E 6 e0 55 0a
        E 5 e0 55 0a
        E 6 e0 55 0a
        E 5 e0 2b 15
        E 6 e0 2b 15
        E 6 e0 2b 15
        E 5 e0 2b 15
        E 0 90 3a 00
        E 67 90 47 27
        E 15 90 3b 2c
        E 117 90 3b 00
        E 0 90 3b 28
        E 72 90 47 00
        E 6 e0 2b 15
        E 0 90 3b 00
        E 0 90 3b 27
        E 5 e0 2b 15
        E 5 e0 2b 15
        E 6 e0 00 20
        E 5 e0 00 20
        E 6 e0 00 20
        E 5 e0 00 20
        E 6 e0 00 20
        E 5 e0 00 20
        E 6 e0 00 20
        E 5 e0 00 20
        E 5 e0 55 6a
        E 6 e0 55 6a
        E 5 e0 55 6a
        E 6 e0 55 6a
        E 5 e0 2b 15
        E 0 90 3b 00
        E 159 90 32 2f
        E 5 90 26 25
        E 10 90 3b 24
        E 5 90 47 21
        E 46 90 32 00
        E 92 90 47 00
        E 5 90 3b 00
        E 15 90 26 00
        E 164 e0 00 20
        E 0 90 2d 34
        E 5 e0 00 20
        E 6 e0 2b 15
        E 5 e0 2b 15
        E 6 e0 2b 15
        E 5 e0 2b 15
        E 6 e0 2b 15
        E 5 e0 00 20
        E 6 e0 00 20
        E 5 e0 00 20
        E 6 e0 00 20
        E 5 e0 00 20
        E 6 e0 00 20
        E 5 e0 00 20
        E 6 e0 00 20
        E 0 90 2d 00
        E 71 e0 2b 15
        E 0 90 3b 30
        E 5 e0 00 20
        E 6 e0 00 20
        E 5 e0 00 20
        E 6 e0 00 20
        E 5 e0 00 20
        E 6 e0 00 20
        E 5 e0 00 20
        E 6 e0 00 20
        E 5 e0 00 20
        E 6 e0 00 20
        E 5 e0 00 20
        E 5 e0 00 20
        E 6 e0 00 20
        E 5 e0 00 20
        E 6 e0 00 20
        E 0 90 3b 00
        E 0 90 3b 32
        E 5 e0 00 20
        E 5 e0 00 20
        E 5 e0 00 20
        E 5 e0 00 20
        E 6 e0 2b 15
        E 5 e0 2b 15
        E 5 e0 2b 15
        E 5 e0 2b 15
        E 5 e0 2b 15
        E 5 e0 00 20
        E 5 e0 00 20
        E 6 e0 00 20
        E 0 90 3b 00
        E 61 90 2d 30
        E 15 90 3c 34
        E 0 90 48 2f
        E 0 90 54 21
        E 62 90 2d 00
        E 25 90 54 00
        E 26 90 48 00
        E 41 90 3c 00
        E 61 90 20 2f
        E 15 90 49 28
        E 5 90 2c 2a
        E 5 90 3d 30
        E 57 90 20 00
        E 40 90 2c 00
        E 21 90 3d 00
        E 0 90 3d 2d
        E 41 90 49 00
        E 25 90 3d 00
        E 5 e0 00 20
        E 0 90 3d 24
        E 6 e0 00 20
        E 5 e0 00 20
        E 6 e0 2b 15
        E 5 e0 2b 15
        E 6 e0 2b 15
        E 5 e0 2b 15
        E 6 e0 2b 15
        E 5 e0 2b 15
        E 6 e0 00 20
        E 5 e0 00 20
        E 6 e0 00 20
        E 5 e0 55 6a
        E 6 e0 00 20
        E 0 90 3d 00
        E 66 90 25 29
        E 16 90 31 2a
        E 5 90 3c 43
        E 0 90 48 38
        E 61 90 3c 00
        E 5 90 48 00
        E 31 90 41 23
        E 5 90 49 29
        E 10 90 25 00
        E 0 90 3d 32
        E 56 90 4d 15
        E 67 90 4d 00
        E 10 90 41 00
        E 6 90 31 00
        E 5 90 49 00
        E 25 90 3d 00
        E 26 e0 00 20
        E 0 90 3d 22
        E 5 e0 00 20
        E 6 e0 00 20
        E 5 e0 00 20
        E 5 e0 2b 15
        E 6 e0 2b 15
        E 5 e0 2b 15
        E 6 e0 2b 15
        E 5 e0 2b 15
        E 5 e0 2b 15
        E 6 e0 00 20
        E 5 e0 00 20
        E 5 e0 00 20
        E 6 e0 00 20
        E 5 e0 00 20
        E 6 e0 00 20
        E 5 e0 00 20
        E 5 e0 00 20
        E 6 e0 2b 15
        E 0 90 3d 00
        E 10 90 49 21
        E 36 90 31 28
        E 5 90 41 35
        E 56 90 49 00
        E 10 90 41 00
        E 46 90 1e 22
        E 0 90 3d 25
        E 5 90 49 1d
        E 11 90 2a 2f
        E 5 90 31 00
        E 97 90 2a 00
        E 0 90 2a 2e
        E 5 90 1e 00
        E 0 90 3d 00
        E 0 90 49 00
        E 5 90 3d 36
        E 0 90 49 27
        E 61 90 3d 00
        E 36 90 3d 38
        E 77 90 2a 00
        E 0 90 3d 00
        E 15 90 49 00
        E 31 90 25 2e
        E 117 90 3d 3d
        E 5 90 49 35
        E 26 90 25 00
        E 26 90 3d 00
        E 10 90 49 00
        E 21 e0 2b 15
        E 0 90 50 1d
        E 5 e0 2b 15
        E 6 e0 2b 15
        E 5 e0 00 20
        E 6 e0 00 20
        E 5 e0 00 20
        E 6 e0 00 60
        E 6 e0 2b 55
        E 5 e0 55 4a
        E 6 e0 55 4a
        E 5 e0 2b 55
        E 6 e0 2b 55
        E 0 90 50 00
        E 184 e0 00 60
        E 0 90 3f 4b
        E 5 e0 55 6a
        E 6 e0 55 6a
        E 6 e0 55 6a
        E 5 e0 55 6a
        E 6 e0 55 6a
        E 5 e0 2b 15
        E 6 e0 2b 15
        E 5 e0 00 20
        E 6 e0 00 20
        E 6 e0 00 20
        E 5 e0 00 20
        E 0 90 3f 00
        E 41 90 1e 2d
        E 15 90 24 21
        E 16 90 2a 39
        E 0 90 49 22
        E 5 90 40 2c
        E 46 90 24 00
        E 25 90 3d 22
        E 10 90 49 00
        E 6 90 1e 00
        E 0 90 2a 00
        E 81 90 3d 00
        E 26 90 3d 33
        E 20 90 2a 26
        E 21 90 49 27
        E 25 90 3d 00
        E 0 90 40 00
        E 56 90 49 00
        E 31 e0 55 6a
        E 0 90 2a 00
        E 0 90 2f 34
        E 5 e0 55 6a
        E 5 e0 00 20
        E 5 e0 00 20
        E 6 e0 00 20
        E 5 e0 00 20
        E 5 e0 00 20
        E 5 e0 00 20
        E 5 e0 00 20
        E 5 e0 00 20
        E 5 e0 00 20
        E 6 e0 00 20
        E 5 e0 00 20
        E 5 e0 00 20
        E 5 e0 00 20
        E 5 e0 00 20
        E 5 e0 00 20
        E 5 e0 00 20
        E 5 e0 00 20
        E 6 e0 00 20
        E 5 e0 00 20
        E 5 e0 2b 15
        E 5 e0 2b 15
        E 5 e0 2b 15
        E 5 e0 2b 15
        E 5 e0 00 20
        E 0 90 2f 00
        E 97 90 3b 31
        E 0 90 47 2d
        E 6 90 4e 26
        E 81 90 3b 00
        E 0 90 4e 00
        E 5 90 3b 25
        E 5 90 47 00
        E 62 90 47 22
        E 10 90 3b 00
        E 0 90 3b 23
        E 66 90 3d 28
        E 11 90 47 00
        E 10 90 3b 00
        E 46 90 3d 00
        E 15 90 1c 36
        E 15 90 2b 23
        E 6 90 2f 33
        E 5 90 28 2b
        E 0 90 47 21
        E 10 90 3e 31
        E 31 90 1c 00
        E 15 90 2f 00
        E 5 90 2b 00
        E 15 90 3e 00
        E 67 90 28 00
        E 0 90 47 00
        E 158 90 3b 20
        E 0 90 47 1a
        E 5 90 2f 25
        E 36 90 3e 3c
        E 25 90 2f 00
        E 32 90 47 00
        E 5 90 3b 00
        E 5 90 3e 00
        E 46 90 25 21
        E 5 90 31 29
        E 5 90 34 26
        E 0 90 3b 25
        E 21 90 44 20
        E 86 90 28 27
        E 5 90 25 00
        E 0 90 25 22
        E 11 90 31 00
        E 0 90 31 26
        E 0 90 3b 00
        E 5 90 3b 23
        E 5 90 44 00
        E 0 90 44 1a
        E 97 90 25 00
        E 0 90 25 2b
        E 5 90 44 00
        E 0 90 44 3b
        E 5 90 31 00
        E 0 90 31 30
        E 0 90 3b 00
        E 0 90 3b 34
        E 5 90 28 00
        E 57 90 44 00
        E 5 90 25 00
        E 0 90 34 00
        E 0 90 3b 00
        E 5 90 31 00
        E 163 90 2f 32
        E 67 90 23 15
        E 61 90 23 00
        E 10 90 2f 00
        E 670 90 3e 23
        E 97 90 2c 26
        E 5 90 32 21
        E 15 90 38 25
        E 0 90 3e 00
        E 0 90 3e 28
        E 97 90 28 16
        E 21 90 38 00
        E 0 90 38 23
        E 15 90 3e 00
        E 77 90 25 19
        E 10 90 32 00
        E 0 90 32 32
        E 10 90 38 00
        E 0 90 38 32
        E 0 90 3e 2b
        E 10 90 2c 00
        E 36 90 25 00
        E 0 90 28 00
        E 6 90 32 00
        E 5 90 38 00
        E 0 90 3e 00
        E 511 90 31 2b
        E 10 90 49 2c
        E 61 90 31 00
        E 16 90 49 00
        E 30 90 42 23
        E 11 90 36 2a
        E 0 90 3e 2b
        E 117 90 3e 00
        E 0 90 3e 1e
        E 5 90 42 00
        E 5 90 36 00
        E 103 90 45 26
        E 5 90 3e 00
        E 123 90 45 00
        E 434 90 2f 1b
        E 5 90 3e 38
        E 66 90 2a 18
        E 6 90 3e 00
        E 46 90 2f 00
        E 0 90 38 2c
        E 0 90 3d 2e
        E 5 90 40 2c
        E 0 90 42 19
        E 0 90 44 36
        E 5 90 2a 00
        E 5 90 49 2f
        E 0 90 55 25
        E 56 90 42 00
        E 5 90 40 00
        E 0 90 55 00
        E 5 90 44 00
        E 5 90 49 00
        E 11 90 4c 26
        E 25 90 3d 00
        E 21 90 44 1d
        E 20 90 38 00
        E 41 90 44 00
        E 118 90 4c 00
        E 25 90 48 2f
        E 57 90 3f 24
        E 15 90 48 00
        E 36 90 3b 21
        E 20 90 3f 00
        E 61 90 3b 00
        E 404 e0 00 00
        E 0 90 2d 35
        E 5 e0 55 0a
        E 5 e0 55 0a
        E 5 e0 55 6a
        E 6 e0 55 6a
        E 5 e0 55 6a
        E 5 e0 55 6a
        E 5 e0 55 6a
        E 5 e0 2b 75
        E 5 e0 2b 75
        E 5 e0 2b 75
        E 5 e0 55 6a
        E 6 e0 2b 15
        E 5 e0 2b 15
        E 5 e0 2b 15
        E 5 e0 2b 15
        E 5 e0 2b 15
        E 5 e0 2b 15
        E 5 e0 2b 75
        E 5 e0 2b 75
        E 6 e0 55 6a
        E 5 e0 55 6a
        E 5 e0 55 6a
        E 5 e0 55 6a
        E 5 e0 55 6a
        E 5 e0 55 6a
        E 5 e0 55 6a
        E 6 e0 55 6a
        E 0 90 2d 00
        E 97 90 49 1d
        E 86 90 42 35
        E 26 90 49 00
        E 41 90 42 00
        E 194 e0 2b 15
        E 0 90 34 30
        E 5 e0 2b 15
        E 6 e0 2b 15
        E 5 e0 2b 15
        E 6 e0 2b 15
        E 5 e0 2b 15
        E 5 e0 2b 15
        E 6 e0 2b 15
        E 5 e0 2b 15
        E 5 e0 00 20
        E 6 e0 00 20
        E 5 e0 00 20
        E 6 e0 00 20
        E 5 e0 00 20
        E 5 e0 00 20
        E 6 e0 00 20
        E 5 e0 00 20
        E 6 e0 00 20
        E 5 e0 00 20
        E 0 90 34 00
        E 363 90 49 2e
        E 5 90 40 29
        E 82 90 40 00
        E 0 90 49 00
        E 118 90 2b 2f
        E 15 90 43 34
        E 51 90 2b 00
        E 15 90 43 00
        E 46 90 2a 1e
        E 0 90 42 26
        E 57 90 36 22
        E 10 90 2a 00
        E 51 90 42 00
        E 15 90 36 00
        E 123 90 3d 26
        E 0 90 40 2c
        E 87 90 3d 00
        E 0 90 40 00
        E 117 90 2d 23
        E 251 90 3c 3d
        E 41 90 2d 00
        E 20 90 3c 00
        E 619 e0 00 60
        E 0 90 2d 38
        E 6 e0 00 60
        E 5 e0 00 60
        E 6 e0 2b 15
        E 5 e0 2b 15
        E 6 e0 2b 15
        E 5 e0 2b 15
        E 6 e0 00 20
        E 6 e0 2b 15
        E 5 e0 2b 15
        E 6 e0 2b 15
        E 5 e0 2b 75
        E 0 90 2d 00
        E 394 90 28 29
        E 112 90 3b 2a
        E 5 90 28 00
        E 72 90 3b 00
        E 51 90 24 2b
        E 0 90 30 2b
        E 5 90 3e 2a
        E 5 90 33 2c
        E 0 90 3a 27
        E 51 90 24 00
        E 5 90 30 00
        E 93 90 33 00
        E 0 90 3e 00
        E 30 90 3a 00
        E 46 90 3d 25
        E 16 90 39 2d
        E 91 90 39 00
        E 113 90 45 2e
        E 25 90 3d 00
        E 36 90 45 00
        E 87 e0 55 6a
        E 0 90 45 2b
        E 5 e0 55 6a
        E 6 e0 55 6a
        E 5 e0 00 20
        E 6 e0 00 20
        E 5 e0 00 20
        E 6 e0 00 20
        E 5 e0 00 20
        E 6 e0 00 20
        E 5 e0 00 20
        E 6 e0 00 20
        E 5 e0 00 20
        E 5 e0 2b 15
        E 6 e0 2b 15
        E 5 e0 55 6a
        E 6 e0 55 6a
        E 0 90 45 00
        E 342 90 2b 28
        E 11 90 3f 3b
        E 5 90 46 24
        E 41 90 2b 00
        E 20 90 46 00
        E 16 90 3f 00
        E 40 90 32 28
        E 6 90 38 2b
        E 0 90 40 22
        E 112 90 32 00
        E 0 90 32 2a
        E 15 90 40 00
        E 10 90 38 00
        E 82 90 2c 34
        E 15 90 32 00
        E 0 90 32 3e
        E 46 90 2c 00
        E 41 90 32 00
        E 716 90 4a 20
        E 5 90 3e 2e
        E 102 90 2a 22
        E 5 90 26 1c
        E 11 90 45 2e
        E 5 90 39 27
        E 0 90 42 2b
        E 5 90 4a 00
        E 5 90 3e 00
        E 46 90 45 00
        E 46 90 26 00
        E 0 90 45 34
        E 5 90 49 2d
        E 5 90 3d 35
        E 5 90 2a 00
        E 5 90 42 00
        E 67 90 49 00
        E 10 90 3d 00
        E 0 90 45 00
        E 5 90 39 00
        E 143 e0 2b 75
        E 0 90 42 2b
        E 6 e0 2b 75
        E 5 e0 2b 15
        E 6 e0 00 20
        E 5 e0 00 20
        E 5 e0 00 20
        E 6 e0 2b 15
        E 5 e0 2b 15
        E 6 e0 2b 15
        E 5 e0 2b 15
        E 6 e0 2b 15
        E 5 e0 2b 15
        E 6 e0 2b 15
        E 5 e0 00 20
        E 5 e0 00 20
        E 6 e0 00 20
        E 0 90 42 00
        E 123 90 2a 1b
        E 20 90 3e 24
        E 103 90 38 2c
        E 10 90 2a 00
        E 0 90 3d 26
        E 0 90 3e 00
        E 5 90 40 2a
        E 0 90 44 21
        E 0 90 49 21
        E 61 90 3d 00
        E 11 90 40 00
        E 61 90 49 00
        E 5 90 4c 20
        E 15 90 44 00
        E 87 90 40 26
        E 26 90 53 17
        E 40 90 40 00
        E 21 90 40 2d
        E 20 90 53 00
        E 36 90 4c 00
        E 5 90 38 00
        E 0 90 40 00
        E 56 90 42 25
        E 6 90 36 25
        E 0 90 4a 33
        E 5 90 47 2b
        E 61 90 4a 00
        E 56 90 42 00
        E 10 90 36 00
        E 0 90 47 00
        E 323 e0 00 20
        E 0 90 34 49
        E 5 e0 00 20
        E 6 e0 00 20
        E 5 e0 00 20
        E 6 e0 00 20
        E 6 e0 00 20
        E 5 e0 00 20
        E 6 e0 00 20
        E 5 e0 00 20
        E 6 e0 00 20
        E 5 e0 00 20
        E 6 e0 00 20
        E 0 90 34 00
        E 281 90 21 30
        E 26 90 3d 2a
        E 5 90 2d 3d
        E 66 90 2d 00
        E 0 90 3d 00
        E 72 90 21 00
        E 30 e0 00 20
        E 0 90 31 2b
        E 5 e0 00 20
        E 6 e0 00 20
        E 5 e0 00 20
        E 5 e0 00 20
        E 5 e0 00 20
        E 5 e0 00 20
        E 5 e0 00 20
        E 5 e0 00 20
        E 6 e0 00 20
        E 5 e0 00 20
        E 5 e0 00 20
        E 5 e0 00 20
        E 5 e0 00 20
        E 0 90 31 00
        E 312 90 26 2d
        E 20 90 3c 24
        E 108 90 42 36
        E 25 90 3c 00
        E 5 90 26 00
        E 36 90 42 00
        E 158 90 1f 2a
        E 26 90 2b 2c
        E 230 90 1f 00
        E 16 90 2b 00
        E 86 e0 55 6a
        E 0 90 41 26
        E 6 e0 55 6a
        E 5 e0 00 60
        E 5 e0 00 20
        E 6 e0 00 20
        E 5 e0 00 20
        E 5 e0 00 20
        E 6 e0 00 20
        E 5 e0 00 20
        E 5 e0 00 20
        E 5 e0 00 20
        E 6 e0 00 20
        E 5 e0 00 20
        E 5 e0 00 20
        E 6 e0 00 20
        E 5 e0 00 20
        E 5 e0 00 20
        E 6 e0 00 20
        E 5 e0 00 20
        E 5 e0 00 20
        E 6 e0 00 20
        E 5 e0 00 20
        E 5 e0 00 20
        E 5 e0 00 20
        E 6 e0 00 20
        E 5 e0 00 20
        E 5 e0 00 20
        E 0 90 41 00
        E 87 90 39 39
        E 16 90 2f 1e
        E 10 90 3d 29
        E 41 90 39 00
        E 71 90 39 22
        E 21 90 3d 00
        E 97 90 39 00
        E 0 90 39 27
        E 15 90 2f 00
        E 51 90 23 1f
        E 15 90 39 00
        E 46 90 23 00
        E 445 90 3d 3b
        E 0 90 49 33
        E 0 90 52 2f
        E 11 90 37 27
        E 51 90 3d 00
        E 0 90 52 00
        E 15 90 49 00
        E 20 90 32 1e
        E 16 90 37 00
        E 0 90 38 3f
        E 5 90 3e 41
        E 0 90 47 3c
        E 46 90 32 00
        E 15 90 47 00
        E 10 90 38 00
        E 0 90 3e 00
        E 36 90 3a 47
        E 5 90 4f 34
        E 10 90 43 37
        E 46 90 3a 00
        E 6 90 4f 00
        E 20 90 43 00
        E 25 90 44 4d
        E 0 90 4a 45
        E 16 90 3b 2e
        E 46 90 4a 00
        E 5 90 44 00
        E 46 90 32 35
        E 15 90 3b 00
        E 0 90 3b 2e
        E 0 90 3e 3c
        E 0 90 4a 36
        E 5 90 4e 38
        E 0 90 53 2d
        E 57 90 32 00
        E 5 90 53 00
        E 5 90 3b 00
        E 5 90 3e 00
        E 0 90 4a 00
        E 16 90 4e 00
        E 10 90 3e 2a
        E 20 90 43 2d
        E 128 90 3e 00
        E 66 90 43 00
        E 9 b0 7b 00
        CCINTERP 32
        CHASE_CC_TAKEOFFS 1
        GUID {3A60FB3E-2119-4114-9FB5-371AFE116657}
        IGNTEMPO 0 120 4 4
        SRCCOLOR 156
        VELLANE -1 100 0
      >
    >
  >
  <UINF 15
    <ITEM {0B9CDCF6-C538-4258-9873-9F3B9E7D3923}
      POSITION 0
      SNAPOFFS 0
      LENGTH 583.260375
      LOOP 1
      ALLTAKES 0
      FADEIN 1 0.001 0 1 0 0 0
      FADEOUT 1 0.001 0 1 0 0 0
      MUTE 0 0
      SEL 0
      IGUID {0B9CDCF6-C538-4258-9873-9F3B9E7D3923}
      IID 34
      NAME MIDI-Unprocessed_Chamber2_MID--AUDIO_09_R3_2018_wav--1.wav
      VOLPAN 1 0 1 -1
      SOFFS 0
      PLAYRATE 1 1 0 -1 0 0.0025
      CHANMODE 0
      GUID {E99B6A67-7578-4227-A1E7-27D99C4F79A4}
      <SOURCE WAVE
        FILE "C:\_AlexFiles\Coding\Python\FALL2023_IndependentStudy\datasets\maestro_sample\MIDI-Unprocessed_Chamber2_MID--AUDIO_09_R3_2018_wav--1.wav"
      >
    >
  >
  <UINF 16
    <ITEM {3898E7D4-CEE0-41EB-9420-87B5F5193505}
      POSITION 0
      SNAPOFFS 0
      LENGTH 579.5
      LOOP 1
      ALLTAKES 0
      FADEIN 1 0 0 1 0 0 0
      FADEOUT 1 0 0 1 0 0 0
      MUTE 0 0
      SEL 0
      IGUID {3898E7D4-CEE0-41EB-9420-87B5F5193505}
      IID 38
      NAME MIDI-Unprocessed_Chamber2_MID--AUDIO_09_R3_2018_wav--1_basic_pitch.mid
      VOLPAN 1 0 1 -1
      SOFFS 0 0
      PLAYRATE 1 1 0 -1 0 0.0025
      CHANMODE 0
      GUID {66356E2C-EBCF-4554-A196-B36D797145D0}
      <SOURCE MIDI
        HASDATA 1 220 QN
        CCINTERP 32
        POOLEDEVTS {AD81A369-39D7-4BB5-BC3E-F94E2D8F1006}
        E 0 c0 04 00
        E 337 90 51 47
        E 36 90 3e 54
        E 5 90 42 3a
        E 46 90 51 00
        E 112 90 45 4d
        E 123 90 42 00
        E 0 90 42 57
        E 107 90 45 00
        E 0 90 45 48
        E 5 90 3e 00
        E 0 90 3e 38
        E 92 90 3e 00
        E 11 90 56 44
        E 5 90 42 00
        E 0 90 42 38
        E 82 90 4a 27
        E 5 90 51 54
        E 5 90 45 00
        E 0 90 45 3f
        E 51 90 4a 00
        E 56 90 3e 53
        E 0 90 4e 3b
        E 11 90 42 00
        E 0 90 42 43
        E 0 90 45 00
        E 0 90 45 2f
        E 0 90 51 00
        E 0 90 51 40
        E 0 90 56 00
        E 102 90 45 00
        E 0 90 45 4b
        E 15 90 51 00
        E 107 90 42 00
        E 0 90 42 3b
        E 72 90 45 00
        E 0 90 45 42
        E 77 90 4e 00
        E 30 90 3e 00
        E 0 90 3e 38
        E 0 90 51 4f
        E 5 90 42 00
        E 0 90 42 41
        E 0 90 45 00
        E 0 90 45 31
        E 62 90 3e 00
        E 30 90 51 00
        E 5 90 42 00
        E 0 90 42 36
        E 0 90 45 00
        E 0 90 45 33
        E 0 90 4e 55
        E 149 90 39 34
        E 0 90 4a 5a
        E 10 90 42 00
        E 0 90 42 45
        E 87 90 4e 00
        E 26 90 45 00
        E 0 90 45 3c
        E 87 90 4a 00
        E 0 90 4a 5b
        E 5 90 45 00
        E 15 90 42 00
        E 0 90 42 53
        E 71 90 45 46
        E 98 90 39 00
        E 20 90 42 00
        E 0 90 45 00
        E 0 90 45 2b
        E 0 90 4c 59
        E 10 90 4a 00
        E 10 90 4e 54
        E 41 90 4c 00
        E 0 90 4c 4c
        E 21 90 4e 00
        E 5 90 4e 55
        E 56 90 4a 48
        E 36 90 4c 00
        E 0 90 4c 3e
        E 41 90 4a 00
        E 30 90 3e 44
        E 0 90 42 41
        E 0 90 4e 00
        E 0 90 4e 57
        E 36 90 45 00
        E 26 90 4e 00
        E 0 90 4e 3e
        E 86 90 4c 00
        E 62 90 3e 00
        E 0 90 3e 39
        E 0 90 4a 45
        E 36 90 42 00
        E 41 90 4e 00
        E 107 90 3e 00
        E 36 90 45 5a
        E 174 90 4a 00
        E 46 90 45 00
        E 0 90 45 3f
        E 0 90 51 42
        E 30 90 3e 4b
        E 0 90 42 42
        E 92 90 45 00
        E 0 90 45 56
        E 67 90 51 00
        E 35 90 42 00
        E 0 90 42 60
        E 92 90 45 00
        E 0 90 45 46
        E 97 90 3e 00
        E 11 90 56 4d
        E 5 90 42 00
        E 0 90 42 3f
        E 123 90 42 00
        E 20 90 45 00
        E 0 90 45 49
        E 0 90 51 46
        E 57 90 42 50
        E 0 90 4e 4e
        E 5 90 3e 41
        E 0 90 45 00
        E 0 90 45 45
        E 5 90 56 00
        E 92 90 51 00
        E 71 90 4e 00
        E 31 90 42 00
        E 0 90 42 63
        E 92 90 45 00
        E 0 90 45 53
        E 5 90 42 00
        E 0 90 42 53
        E 87 90 45 00
        E 0 90 45 48
        E 0 90 51 3c
        E 5 90 42 00
        E 0 90 42 56
        E 41 90 3e 00
        E 56 90 45 00
        E 0 90 45 3c
        E 56 90 42 00
        E 0 90 42 47
        E 0 90 4e 4a
        E 51 90 4a 4c
        E 5 90 39 42
        E 5 90 42 00
        E 0 90 42 4c
        E 31 90 51 00
        E 31 90 4e 00
        E 41 90 39 00
        E 0 90 39 33
        E 0 90 45 00
        E 0 90 45 4f
        E 92 90 4a 00
        E 0 90 4a 5d
        E 5 90 45 00
        E 0 90 45 34
        E 5 90 42 00
        E 0 90 42 49
        E 87 90 45 00
        E 0 90 45 5d
        E 46 90 39 00
        E 21 90 42 00
        E 0 90 45 00
        E 0 90 45 41
        E 0 90 4e 53
        E 40 90 4a 00
        E 26 90 3d 36
        E 15 90 45 00
        E 0 90 45 22
        E 0 90 4c 4f
        E 21 90 4e 00
        E 25 90 3d 00
        E 21 90 45 00
        E 0 90 45 32
        E 61 90 4e 39
        E 51 90 4a 46
        E 5 90 3e 38
        E 87 90 4c 00
        E 72 90 4e 00
        E 5 90 45 00
        E 61 90 39 44
        E 77 90 3e 00
        E 102 90 39 00
        E 16 90 4a 00
        E 61 e0 55 4a
        E 0 90 32 4d
        E 5 e0 55 4a
        E 5 e0 55 4a
        E 6 e0 55 4a
        E 5 e0 55 4a
        E 5 e0 55 4a
        E 6 e0 55 4a
        E 5 e0 55 4a
        E 5 e0 55 4a
        E 5 e0 55 4a
        E 6 e0 55 4a
        E 5 e0 55 4a
        E 5 e0 55 4a
        E 5 e0 55 4a
        E 6 e0 55 4a
        E 5 e0 55 4a
        E 5 e0 55 4a
        E 6 e0 55 4a
        E 5 e0 55 4a
        E 5 e0 55 4a
        E 5 e0 55 4a
        E 6 e0 55 4a
        E 5 e0 55 4a
        E 5 e0 55 4a
        E 5 e0 55 4a
        E 6 e0 55 4a
        E 5 e0 55 4a
        E 5 e0 55 4a
        E 5 e0 55 4a
        E 6 e0 2b 55
        E 5 e0 2b 55
        E 5 e0 2b 55
        E 6 e0 55 4a
        E 0 90 32 00
        E 183 90 51 3b
        E 6 90 3e 3d
        E 0 90 42 3a
        E 132 90 45 4a
        E 5 90 42 00
        E 118 90 42 36
        E 15 90 51 00
        E 77 90 45 00
        E 0 90 45 37
        E 103 90 42 00
        E 0 90 42 46
        E 0 90 56 4b
        E 46 90 3e 00
        E 40 90 51 3e
        E 6 90 45 00
        E 0 90 45 39
        E 97 90 4e 40
        E 5 90 3e 48
        E 0 90 42 00
        E 0 90 42 4f
        E 10 90 56 00
        E 20 90 45 00
        E 52 90 51 00
        E 25 90 45 4d
        E 102 90 42 00
        E 0 90 42 58
        E 87 90 45 00
        E 0 90 45 4b
        E 77 90 4e 00
        E 25 90 42 00
        E 0 90 42 50
        E 0 90 45 00
        E 0 90 45 42
        E 0 90 51 44
        E 77 90 3e 00
        E 5 90 51 00
        E 10 90 4e 4c
        E 5 90 42 00
        E 0 90 42 45
        E 0 90 45 00
        E 0 90 45 40
        E 98 90 4a 40
        E 31 90 39 3c
        E 10 90 45 00
        E 36 90 4e 00
        E 25 90 39 00
        E 10 90 39 2b
        E 0 90 42 00
        E 0 90 42 38
        E 0 90 45 57
        E 82 90 39 00
        E 15 90 42 00
        E 0 90 42 56
        E 0 90 4a 00
        E 0 90 4a 5c
        E 97 90 45 00
        E 0 90 45 5c
        E 72 90 4c 48
        E 15 90 45 00
        E 0 90 45 35
        E 5 90 4a 00
        E 36 90 42 00
        E 5 90 4c 00
        E 5 90 4c 45
        E 21 90 4e 51
        E 46 90 4a 41
        E 41 90 4c 00
        E 0 90 4c 4a
        E 20 90 4a 00
        E 36 90 4e 00
        E 0 90 4e 42
        E 5 90 42 40
        E 5 90 3e 3b
        E 158 90 4c 00
        E 16 90 45 00
        E 15 90 4a 4e
        E 72 90 42 00
        E 51 90 4e 00
        E 56 90 3e 00
        E 36 90 45 58
        E 41 90 4a 00
        E 169 90 45 00
        E 0 90 45 2f
        E 0 90 51 4e
        E 30 90 3e 33
        E 92 90 45 00
        E 0 90 45 4f
        E 97 90 42 5c
        E 16 90 51 00
        E 71 90 45 00
        E 0 90 45 44
        E 56 90 3e 00
        E 46 90 56 5e
        E 10 90 42 00
        E 0 90 42 4c
        E 134 90 45 00
        E 0 90 45 3e
        E 0 90 51 3b
        E 0 90 56 00
        E 0 90 56 4b
        E 51 90 42 00
        E 0 90 42 4d
        E 5 90 3e 47
        E 0 90 4e 58
        E 5 90 56 00
        E 87 90 51 00
        E 102 90 42 00
        E 0 90 42 62
        E 5 90 4e 00
        E 87 90 3e 00
        E 0 90 3e 36
        E 0 90 45 00
        E 0 90 45 5b
        E 92 90 45 00
        E 0 90 45 4e
        E 0 90 51 37
        E 5 90 42 00
        E 0 90 42 58
        E 46 90 3e 00
        E 97 90 42 00
        E 0 90 42 3d
        E 0 90 4e 4d
        E 72 90 4a 52
        E 5 90 39 3d
        E 10 90 45 00
        E 5 90 42 00
        E 0 90 42 4f
        E 26 90 51 00
        E 30 90 4e 00
        E 129 90 4a 00
        E 0 90 4a 5a
        E 10 90 42 00
        E 0 90 42 43
        E 31 90 39 00
        E 66 90 42 00
        E 0 90 4e 51
        E 20 90 45 37
        E 26 90 4a 00
        E 20 90 4e 00
        E 5 90 4e 37
        E 26 90 4c 4e
        E 5 90 3d 2b
        E 0 90 45 00
        E 77 90 45 33
        E 35 90 3d 00
        E 41 90 4e 00
        E 0 90 4e 44
        E 46 90 3e 40
        E 0 90 45 00
        E 11 90 4a 48
        E 86 90 4c 00
        E 11 90 4e 00
        E 122 90 39 39
        E 87 90 3e 00
        E 77 90 39 00
        E 56 90 4a 00
        E 41 e0 55 4a
        E 0 90 32 4f
        E 6 e0 55 4a
        E 5 e0 55 4a
        E 5 e0 55 4a
        E 5 e0 55 4a
        E 6 e0 55 4a
        E 5 e0 55 4a
        E 5 e0 55 4a
        E 5 e0 55 4a
        E 6 e0 55 4a
        E 5 e0 55 4a
        E 5 e0 55 4a
        E 6 e0 55 4a
        E 5 e0 55 4a
        E 5 e0 55 4a
        E 5 e0 55 4a
        E 6 e0 55 4a
        E 5 e0 55 4a
        E 5 e0 55 4a
        E 5 e0 55 4a
        E 6 e0 55 4a
        E 5 e0 55 4a
        E 5 e0 55 4a
        E 6 e0 55 4a
        E 5 e0 55 4a
        E 5 e0 55 4a
        E 5 e0 55 4a
        E 6 e0 55 4a
        E 5 e0 55 4a
        E 5 e0 55 4a
        E 5 e0 55 4a
        E 6 e0 2b 55
        E 0 90 32 00
        E 184 90 4c 5b
        E 15 90 2d 46
        E 5 90 49 2f
        E 107 90 39 3c
        E 118 90 39 00
        E 0 90 4c 00
        E 0 90 4c 68
        E 5 90 39 36
        E 0 90 45 33
        E 5 90 49 00
        E 0 90 49 45
        E 189 90 39 00
        E 10 90 4c 00
        E 0 90 4c 6b
        E 16 90 45 00
        E 0 90 45 47
        E 0 90 51 29
        E 5 90 49 00
        E 0 90 49 3c
        E 11 90 2d 00
        E 143 90 51 00
        E 46 90 4c 00
        E 0 90 4c 55
        E 97 90 40 2b
        E 5 90 2d 44
        E 5 90 45 00
        E 15 90 49 00
        E 61 90 2d 00
        E 16 90 31 42
        E 15 90 40 00
        E 72 90 31 00
        E 10 90 34 4a
        E 0 90 40 30
        E 97 90 34 00
        E 0 90 34 3a
        E 0 90 39 4d
        E 0 90 4c 00
        E 20 90 40 00
        E 56 90 34 00
        E 21 90 2d 48
        E 5 90 39 00
        E 118 90 4e 5d
        E 5 90 3e 32
        E 15 90 32 5e
        E 57 90 3e 00
        E 81 90 2d 00
        E 41 90 4e 00
        E 0 90 4e 6e
        E 5 90 32 00
        E 0 90 32 3e
        E 6 90 45 36
        E 10 90 4a 27
        E 81 90 4a 00
        E 103 90 4e 00
        E 0 90 4e 6d
        E 20 90 45 00
        E 0 90 45 47
        E 31 90 32 00
        E 168 90 4a 3e
        E 0 90 4e 00
        E 0 90 4e 4f
        E 5 90 45 00
        E 0 90 45 44
        E 82 90 4a 00
        E 5 90 45 00
        E 5 90 32 47
        E 0 90 3e 2b
        E 108 90 36 25
        E 0 90 42 2f
        E 30 90 32 00
        E 31 90 3e 00
        E 5 90 42 00
        E 20 90 39 42
        E 21 90 36 00
        E 72 90 3e 4f
        E 10 90 4e 00
        E 51 90 39 00
        E 36 90 32 63
        E 26 90 3e 00
        E 122 90 51 4d
        E 5 90 32 00
        E 0 90 32 40
        E 31 90 3e 4f
        E 0 90 42 45
        E 117 90 45 3c
        E 103 90 32 00
        E 0 90 4a 53
        E 0 90 51 00
        E 5 90 3e 00
        E 0 90 3e 43
        E 5 90 42 00
        E 0 90 42 3f
        E 92 90 42 00
        E 0 90 42 37
        E 0 90 45 00
        E 0 90 45 46
        E 0 90 4e 58
        E 92 90 42 00
        E 0 90 42 3b
        E 0 90 45 00
        E 0 90 45 47
        E 0 90 51 55
        E 5 90 3e 00
        E 0 90 3e 3a
        E 0 90 4a 00
        E 0 90 4a 37
        E 61 90 3e 00
        E 10 90 4e 00
        E 16 90 4a 00
        E 0 90 4a 33
        E 0 90 56 50
        E 5 90 45 00
        E 0 90 45 48
        E 0 90 51 00
        E 21 90 3e 27
        E 71 90 3e 00
        E 5 90 3e 4a
        E 0 90 45 00
        E 0 90 45 3d
        E 0 90 51 3f
        E 11 90 42 00
        E 0 90 42 45
        E 76 90 56 00
        E 10 90 45 00
        E 0 90 45 47
        E 11 90 4a 00
        E 97 90 3e 00
        E 0 90 3e 3d
        E 0 90 42 00
        E 0 90 42 59
        E 0 90 4a 5f
        E 25 90 51 00
        E 62 90 42 00
        E 0 90 42 47
        E 0 90 4e 54
        E 5 90 45 00
        E 0 90 45 55
        E 0 90 4a 00
        E 0 90 4a 3e
        E 0 90 51 2b
        E 87 90 4a 00
        E 0 90 4a 2d
        E 0 90 51 00
        E 0 90 51 48
        E 5 90 45 00
        E 0 90 45 4a
        E 5 90 42 00
        E 0 90 42 4b
        E 25 90 4e 00
        E 26 90 3e 00
        E 25 90 4a 00
        E 0 90 4a 3a
        E 0 90 51 00
        E 0 90 56 44
        E 6 90 45 00
        E 0 90 45 4b
        E 91 90 4a 00
        E 11 90 45 00
        E 0 90 45 46
        E 5 90 51 41
        E 5 90 3e 44
        E 10 90 42 00
        E 0 90 42 4a
        E 46 90 56 00
        E 46 90 45 00
        E 0 90 45 47
        E 108 90 3e 00
        E 0 90 42 00
        E 0 90 51 00
        E 5 90 4f 48
        E 5 90 40 38
        E 15 90 3d 32
        E 82 90 45 00
        E 0 90 45 44
        E 82 90 3d 00
        E 10 90 40 00
        E 21 90 4e 44
        E 0 90 4f 00
        E 5 90 3e 46
        E 0 90 42 4c
        E 117 90 45 00
        E 0 90 45 49
        E 123 90 3e 00
        E 10 90 42 00
        E 0 90 42 3a
        E 0 90 4e 00
        E 0 90 4e 4d
        E 31 90 3d 41
        E 5 90 39 44
        E 10 90 45 00
        E 123 90 4c 3f
        E 10 90 42 00
        E 107 90 4c 00
        E 10 90 3d 00
        E 5 90 4e 00
        E 11 90 39 00
        E 0 90 39 2b
        E 5 90 45 66
        E 102 90 39 00
        E 16 e0 55 4a
        E 0 90 45 00
        E 0 90 45 5b
        E 5 e0 55 4a
        E 6 e0 55 4a
        E 5 e0 55 4a
        E 5 e0 55 4a
        E 6 e0 55 4a
        E 5 e0 55 4a
        E 5 e0 55 4a
        E 6 e0 55 4a
        E 5 e0 55 4a
        E 6 e0 55 4a
        E 5 e0 55 4a
        E 5 e0 55 4a
        E 6 e0 55 4a
        E 5 e0 55 4a
        E 5 e0 55 4a
        E 6 e0 55 4a
        E 5 e0 55 4a
        E 6 e0 55 4a
        E 5 e0 55 4a
        E 0 90 45 00
        E 0 90 45 5b
        E 5 e0 55 4a
        E 6 e0 55 4a
        E 5 e0 55 4a
        E 6 e0 55 4a
        E 5 e0 2b 55
        E 5 e0 2b 55
        E 6 e0 2b 55
        E 5 e0 2b 55
        E 6 e0 55 4a
        E 5 e0 55 4a
        E 5 e0 55 4a
        E 6 e0 55 4a
        E 5 e0 55 4a
        E 6 e0 55 4a
        E 5 e0 55 4a
        E 5 e0 55 4a
        E 6 e0 55 4a
        E 0 90 45 00
        E 0 90 45 43
        E 153 90 42 34
        E 31 90 3e 3b
        E 0 90 51 4f
        E 30 90 45 00
        E 87 90 45 50
        E 72 90 3e 00
        E 25 90 42 00
        E 0 90 42 62
        E 46 90 51 00
        E 51 90 45 00
        E 0 90 45 4f
        E 103 90 56 4b
        E 5 90 42 00
        E 0 90 42 4d
        E 92 90 45 00
        E 0 90 45 48
        E 36 90 51 55
        E 56 90 56 00
        E 5 90 3e 4d
        E 0 90 42 00
        E 0 90 42 47
        E 0 90 45 00
        E 0 90 45 42
        E 0 90 4e 5b
        E 0 90 51 00
        E 0 90 51 39
        E 97 90 51 00
        E 5 90 45 00
        E 0 90 45 50
        E 92 90 42 00
        E 0 90 42 64
        E 11 90 4e 00
        E 86 90 3e 00
        E 0 90 3e 38
        E 0 90 42 00
        E 0 90 42 58
        E 0 90 45 00
        E 0 90 45 59
        E 92 90 45 00
        E 0 90 45 4d
        E 0 90 51 3d
        E 5 90 42 00
        E 0 90 42 56
        E 41 90 3e 00
        E 41 90 45 00
        E 0 90 45 55
        E 41 90 42 00
        E 0 90 42 44
        E 0 90 4e 44
        E 61 90 4a 51
        E 6 90 39 3a
        E 0 90 42 00
        E 0 90 42 4e
        E 0 90 45 00
        E 0 90 45 39
        E 76 90 4e 00
        E 5 90 51 00
        E 26 90 42 00
        E 0 90 42 45
        E 0 90 45 00
        E 0 90 45 57
        E 82 90 4a 00
        E 0 90 4a 5f
        E 5 90 42 00
        E 0 90 42 52
        E 0 90 45 00
        E 0 90 45 43
        E 92 90 45 00
        E 0 90 45 42
        E 102 90 3d 2d
        E 5 90 39 00
        E 0 90 42 00
        E 16 90 4a 00
        E 20 90 4c 57
        E 21 90 3d 00
        E 5 90 4e 36
        E 56 90 4a 47
        E 31 90 4c 00
        E 0 90 4c 4b
        E 5 90 45 00
        E 0 90 45 30
        E 35 90 4a 00
        E 11 90 3e 39
        E 0 90 42 3e
        E 0 90 4e 00
        E 0 90 4e 4a
        E 25 90 45 00
        E 148 90 3e 00
        E 11 90 4c 00
        E 35 90 3e 30
        E 0 90 4a 4d
        E 159 90 4e 00
        E 5 90 3e 00
        E 0 90 42 00
        E 41 90 45 61
        E 189 90 4a 00
        E 31 90 51 4e
        E 5 90 45 00
        E 0 90 45 43
        E 15 90 3e 3d
        E 16 90 42 30
        E 92 90 45 00
        E 0 90 45 54
        E 102 90 42 00
        E 0 90 42 5d
        E 30 90 51 00
        E 57 90 45 00
        E 0 90 45 4f
        E 76 90 3e 00
        E 31 90 42 00
        E 0 90 42 5a
        E 0 90 56 5e
        E 10 90 45 00
        E 82 90 56 00
        E 0 90 56 4c
        E 5 90 42 00
        E 0 90 42 3e
        E 36 90 45 36
        E 5 90 51 4a
        E 61 90 42 00
        E 0 90 42 4c
        E 0 90 4e 4c
        E 5 90 3e 4a
        E 21 90 45 00
        E 31 90 56 00
        E 41 90 45 4b
        E 5 90 51 00
        E 92 90 42 00
        E 0 90 42 62
        E 0 90 4e 00
        E 92 90 3e 00
        E 0 90 3e 3e
        E 0 90 45 00
        E 0 90 45 5e
        E 97 90 3e 00
        E 10 90 42 00
        E 0 90 42 3e
        E 0 90 45 00
        E 0 90 45 43
        E 41 90 50 34
        E 92 90 45 00
        E 0 90 45 39
        E 0 90 4e 4a
        E 5 90 50 00
        E 61 90 4a 3d
        E 5 90 45 00
        E 11 90 39 2f
        E 10 90 42 00
        E 0 90 42 4b
        E 61 90 4e 00
        E 10 90 39 00
        E 5 90 4a 00
        E 16 90 39 29
        E 0 90 42 00
        E 0 90 42 3b
        E 0 90 45 4f
        E 92 90 39 00
        E 0 90 4a 51
        E 10 90 42 00
        E 0 90 42 49
        E 87 90 45 00
        E 0 90 45 4a
        E 92 90 42 00
        E 21 90 4c 3e
        E 5 90 43 39
        E 41 90 4a 00
        E 0 90 4a 46
        E 5 90 3d 41
        E 36 90 43 00
        E 5 90 45 00
        E 0 90 45 39
        E 0 90 4c 00
        E 0 90 4c 3c
        E 20 90 3d 00
        E 15 90 4a 00
        E 0 90 4e 51
        E 36 90 45 00
        E 15 90 4c 00
        E 26 90 3e 3d
        E 0 90 4a 44
        E 209 90 39 41
        E 6 90 4e 00
        E 40 90 4a 00
        E 46 90 3e 00
        E 87 90 39 00
        E 92 e0 55 4a
        E 0 90 32 44
        E 5 e0 55 4a
        E 5 e0 55 4a
        E 6 e0 55 4a
        E 5 e0 55 4a
        E 5 e0 55 4a
        E 5 e0 55 4a
        E 5 e0 55 4a
        E 5 e0 55 4a
        E 5 e0 55 4a
        E 5 e0 55 4a
        E 6 e0 55 4a
        E 5 e0 55 4a
        E 5 e0 55 4a
        E 5 e0 55 4a
        E 5 e0 55 4a
        E 5 e0 55 4a
        E 5 e0 55 4a
        E 5 e0 55 4a
        E 6 e0 55 4a
        E 5 e0 55 4a
        E 5 e0 55 4a
        E 5 e0 55 4a
        E 5 e0 55 4a
        E 5 e0 55 4a
        E 5 e0 55 4a
        E 5 e0 55 4a
        E 6 e0 55 4a
        E 5 e0 55 4a
        E 5 e0 55 4a
        E 5 e0 55 4a
        E 5 e0 55 4a
        E 5 e0 55 4a
        E 5 e0 55 4a
        E 5 e0 55 4a
        E 0 90 32 00
        E 159 90 42 46
        E 10 90 3e 2b
        E 41 90 53 40
        E 20 90 3e 00
        E 46 90 53 00
        E 11 90 51 49
        E 25 90 42 00
        E 72 90 45 38
        E 0 90 51 00
        E 0 90 51 54
        E 51 90 42 34
        E 35 90 45 00
        E 0 90 45 2b
        E 0 90 51 00
        E 0 90 51 55
        E 46 90 42 00
        E 46 90 45 00
        E 0 90 45 33
        E 0 90 51 00
        E 0 90 51 57
        E 51 90 53 3b
        E 6 90 42 3c
        E 46 90 51 00
        E 0 90 51 4c
        E 46 90 56 3c
        E 25 90 53 00
        E 20 90 51 00
        E 0 90 51 44
        E 47 90 4f 42
        E 5 90 45 00
        E 15 90 51 00
        E 21 90 56 00
        E 5 90 3e 3a
        E 0 90 42 00
        E 0 90 42 3d
        E 15 90 4f 00
        E 36 90 45 36
        E 0 90 4d 46
        E 51 90 3e 00
        E 16 90 4d 00
        E 0 90 4d 59
        E 35 90 45 00
        E 31 90 4d 00
        E 0 90 4e 42
        E 5 90 42 00
        E 0 90 42 42
        E 41 90 45 34
        E 41 90 4e 00
        E 0 90 4e 3f
        E 46 90 42 00
        E 0 90 42 41
        E 10 90 45 00
        E 41 90 4e 00
        E 0 90 4e 4e
        E 46 90 51 3c
        E 5 90 45 38
        E 41 90 42 00
        E 10 90 4e 00
        E 0 90 4e 42
        E 41 90 45 00
        E 15 90 39 39
        E 5 90 42 44
        E 31 90 51 00
        E 20 90 4a 4c
        E 16 90 4e 00
        E 25 90 45 53
        E 10 90 42 00
        E 0 90 42 28
        E 46 90 4a 00
        E 0 90 4a 59
        E 11 90 45 00
        E 0 90 45 2c
        E 30 90 4c 46
        E 5 90 42 00
        E 0 90 42 43
        E 36 90 4a 00
        E 0 90 4a 58
        E 41 90 45 00
        E 0 90 45 37
        E 16 90 39 00
        E 10 90 4c 00
        E 21 90 4a 00
        E 0 90 4a 4d
        E 15 90 42 00
        E 31 90 4e 36
        E 5 90 3d 32
        E 41 90 4c 3e
        E 35 90 4a 00
        E 16 90 45 00
        E 0 90 45 32
        E 10 90 3d 00
        E 30 90 4c 00
        E 0 90 4c 3d
        E 46 90 4e 00
        E 0 90 4e 4b
        E 6 90 42 44
        E 30 90 45 00
        E 10 90 4c 00
        E 11 90 3e 36
        E 46 90 42 00
        E 0 90 42 3e
        E 0 90 49 46
        E 20 90 3e 00
        E 0 90 4c 47
        E 15 90 4e 00
        E 46 90 49 00
        E 5 90 42 00
        E 6 90 3e 2a
        E 0 90 4a 43
        E 5 90 4c 00
        E 92 90 3e 00
        E 25 90 4a 00
        E 10 90 4c 40
        E 57 90 4e 45
        E 40 90 51 36
        E 11 90 4c 00
        E 41 90 4e 00
        E 0 90 4f 3b
        E 40 90 53 4d
        E 57 90 3e 3e
        E 0 90 51 00
        E 20 90 42 3a
        E 11 90 53 00
        E 41 90 3e 00
        E 0 90 3e 2e
        E 0 90 4f 00
        E 5 90 51 30
        E 30 90 42 00
        E 11 90 53 4c
        E 51 90 45 33
        E 0 90 51 00
        E 0 90 51 43
        E 46 90 42 45
        E 0 90 53 00
        E 0 90 53 5b
        E 46 90 51 00
        E 0 90 51 4d
        E 35 90 3e 00
        E 11 90 42 00
        E 0 90 42 25
        E 0 90 53 00
        E 0 90 53 4b
        E 46 90 45 00
        E 0 90 45 35
        E 0 90 51 00
        E 0 90 51 47
        E 40 90 42 00
        E 0 90 42 3d
        E 16 90 53 00
        E 10 90 45 00
        E 20 90 51 00
        E 0 90 51 4b
        E 46 90 42 00
        E 46 90 51 00
        E 0 90 51 49
        E 52 90 3e 3a
        E 0 90 42 32
        E 45 90 4e 2e
        E 26 90 51 00
        E 10 90 42 00
        E 56 90 4e 00
        E 0 90 4e 4f
        E 36 90 42 45
        E 51 90 4e 00
        E 0 90 4e 49
        E 51 90 45 2b
        E 11 90 3e 00
        E 25 90 4e 00
        E 0 90 4e 4d
        E 42 90 45 00
        E 10 90 42 00
        E 0 90 42 3e
        E 41 90 4e 00
        E 0 90 4e 5d
        E 51 90 45 3a
        E 46 90 4e 00
        E 0 90 4e 4a
        E 30 90 45 00
        E 21 90 39 39
        E 5 90 42 00
        E 0 90 42 37
        E 36 90 4a 52
        E 5 90 4e 00
        E 0 90 4e 3e
        E 41 90 4c 37
        E 5 90 39 00
        E 0 90 39 3b
        E 0 90 45 36
        E 10 90 42 00
        E 15 90 4e 00
        E 16 90 4a 00
        E 0 90 4a 4e
        E 46 90 42 3d
        E 15 90 45 00
        E 25 90 4a 00
        E 0 90 4a 55
        E 46 90 39 00
        E 0 90 39 2f
        E 0 90 45 3e
        E 0 90 4c 00
        E 0 90 4c 3f
        E 46 90 4a 00
        E 0 90 4a 49
        E 5 90 42 00
        E 52 90 3d 3b
        E 5 90 39 00
        E 30 90 4c 00
        E 0 90 4c 4d
        E 21 90 4a 00
        E 25 90 4e 4b
        E 5 90 3d 00
        E 0 90 45 00
        E 0 90 45 37
        E 36 90 4c 00
        E 0 90 4c 40
        E 67 90 42 3c
        E 25 90 4e 00
        E 10 90 45 00
        E 16 90 3e 40
        E 5 90 4c 00
        E 31 90 49 44
        E 5 90 4c 2f
        E 10 90 45 23
        E 31 90 47 44
        E 10 90 3e 00
        E 31 90 45 00
        E 5 90 45 4a
        E 0 90 49 00
        E 10 90 4c 00
        E 5 90 47 00
        E 77 90 42 00
        E 0 90 42 4f
        E 41 90 40 5b
        E 25 90 42 00
        E 41 90 40 00
        E 0 90 40 3a
        E 5 90 3e 56
        E 0 90 45 00
        E 0 90 45 38
        E 108 90 45 00
        E 35 90 40 00
        E 128 90 42 3e
        E 46 90 53 48
        E 5 90 3e 00
        E 0 90 3e 48
        E 56 90 51 2c
        E 5 90 3e 00
        E 0 90 3e 3a
        E 6 90 53 00
        E 20 90 42 00
        E 56 90 45 39
        E 5 90 51 00
        E 0 90 51 40
        E 46 90 42 42
        E 36 90 3e 00
        E 0 90 3e 32
        E 0 90 51 00
        E 0 90 51 38
        E 62 90 42 00
        E 20 90 51 00
        E 0 90 51 46
        E 41 90 3e 00
        E 5 90 53 36
        E 5 90 42 36
        E 11 90 45 00
        E 30 90 51 00
        E 0 90 51 49
        E 41 90 53 00
        E 5 90 56 3a
        E 16 90 42 00
        E 30 90 45 32
        E 51 90 51 00
        E 10 90 45 00
        E 21 90 56 00
        E 15 90 3e 38
        E 0 90 42 32
        E 46 90 45 2d
        E 0 90 4d 4c
        E 62 90 4d 00
        E 0 90 4d 55
        E 20 90 42 00
        E 0 90 42 40
        E 31 90 45 00
        E 20 90 4d 00
        E 0 90 4e 3d
        E 41 90 3e 00
        E 0 90 3e 31
        E 46 90 4e 00
        E 0 90 4e 4a
        E 56 90 3e 00
        E 36 90 42 00
        E 0 90 42 33
        E 0 90 4e 00
        E 0 90 4e 58
        E 25 90 45 43
        E 31 90 51 37
        E 41 90 4e 00
        E 0 90 4e 37
        E 41 90 45 00
        E 10 90 39 47
        E 0 90 42 00
        E 0 90 42 41
        E 36 90 51 00
        E 11 90 4a 49
        E 25 90 4e 00
        E 26 90 39 00
        E 0 90 39 38
        E 0 90 45 39
        E 5 90 42 00
        E 35 90 4a 00
        E 0 90 4a 5a
        E 41 90 45 00
        E 0 90 4c 3f
        E 5 90 42 3c
        E 36 90 4a 00
        E 0 90 4a 5d
        E 41 90 39 00
        E 10 90 45 45
        E 0 90 4c 00
        E 31 90 42 00
        E 10 90 4a 00
        E 0 90 4a 4e
        E 51 90 4e 45
        E 5 90 3d 3a
        E 21 90 45 00
        E 25 90 4c 38
        E 11 90 4a 00
        E 40 90 3d 00
        E 21 90 4e 00
        E 15 90 4c 00
        E 0 90 4c 3e
        E 26 90 45 32
        E 30 90 42 40
        E 0 90 4e 3b
        E 31 90 45 00
        E 26 90 3e 3e
        E 35 90 49 3d
        E 36 90 4e 00
        E 41 90 49 00
        E 0 90 4c 00
        E 10 90 3e 00
        E 0 90 3e 36
        E 5 90 4a 49
        E 41 90 4e 42
        E 26 90 4a 00
        E 10 90 42 00
        E 10 90 4c 40
        E 15 90 3e 00
        E 67 90 4c 00
        E 6 90 4e 00
        E 0 90 4e 4f
        E 45 90 51 43
        E 46 90 4e 00
        E 0 90 4f 3a
        E 26 90 51 00
        E 20 90 53 50
        E 62 90 3e 3d
        E 5 90 42 3e
        E 0 90 4f 00
        E 41 90 53 00
        E 35 90 51 2f
        E 31 90 42 00
        E 15 90 53 4f
        E 46 90 3e 00
        E 0 90 3e 2d
        E 0 90 45 33
        E 0 90 51 00
        E 0 90 51 51
        E 46 90 53 00
        E 0 90 53 55
        E 6 90 42 4d
        E 30 90 45 00
        E 15 90 51 00
        E 0 90 51 48
        E 36 90 3e 00
        E 10 90 53 00
        E 0 90 53 4d
        E 6 90 42 00
        E 0 90 42 28
        E 40 90 45 32
        E 0 90 51 00
        E 0 90 51 4b
        E 52 90 42 00
        E 0 90 42 3c
        E 5 90 53 00
        E 30 90 51 00
        E 0 90 51 4f
        E 36 90 56 4a
        E 41 90 42 00
        E 15 90 45 00
        E 0 90 45 3c
        E 0 90 51 00
        E 0 90 51 49
        E 5 90 56 00
        E 46 90 3e 4f
        E 11 90 4d 55
        E 5 90 45 00
        E 46 90 3e 00
        E 5 90 3e 4b
        E 0 90 42 34
        E 0 90 4d 00
        E 0 90 4e 49
        E 51 90 51 00
        E 46 90 3e 00
        E 0 90 3e 37
        E 0 90 45 31
        E 0 90 4e 00
        E 0 90 4e 49
        E 51 90 42 00
        E 0 90 42 43
        E 11 90 45 00
        E 25 90 4e 00
        E 0 90 4e 34
        E 51 90 45 45
        E 10 90 3e 00
        E 26 90 4e 00
        E 0 90 4e 49
        E 46 90 45 00
        E 0 90 45 35
        E 46 90 42 00
        E 0 90 42 3c
        E 5 90 4e 00
        E 0 90 4e 56
        E 46 90 51 41
        E 36 90 45 00
        E 0 90 45 43
        E 0 90 4e 00
        E 0 90 4e 4d
        E 36 90 51 00
        E 25 90 39 3e
        E 0 90 45 00
        E 5 90 42 00
        E 0 90 42 3f
        E 41 90 4a 4e
        E 26 90 4e 00
        E 15 90 39 00
        E 0 90 39 3e
        E 0 90 4c 34
        E 15 90 42 00
        E 26 90 4a 00
        E 0 90 4a 4f
        E 5 90 45 34
        E 46 90 42 47
        E 0 90 4c 00
        E 20 90 45 00
        E 21 90 4a 00
        E 0 90 4a 52
        E 46 90 39 00
        E 0 90 39 2b
        E 0 90 4c 33
        E 5 90 45 3b
        E 41 90 42 00
        E 46 90 39 00
        E 5 90 3d 38
        E 0 90 43 3a
        E 0 90 45 00
        E 0 90 4a 00
        E 31 90 4c 00
        E 0 90 4c 47
        E 26 90 43 00
        E 20 90 4e 52
        E 10 90 3d 00
        E 82 90 4c 00
        E 0 90 4c 3d
        E 5 90 4e 00
        E 10 90 42 4e
        E 41 90 3e 3f
        E 51 90 42 00
        E 0 90 42 39
        E 0 90 49 40
        E 41 90 47 2e
        E 31 90 3e 00
        E 0 90 49 00
        E 0 90 4c 00
        E 5 90 42 00
        E 10 90 45 41
        E 87 90 42 3a
        E 41 90 47 00
        E 5 90 40 55
        E 61 90 3e 4e
        E 0 90 40 00
        E 0 90 40 36
        E 0 90 45 00
        E 0 90 45 33
        E 118 90 45 00
        E 41 90 40 00
        E 0 90 42 00
        E 137 90 39 44
        E 0 90 4c 4d
        E 42 90 3e 00
        E 20 90 49 42
        E 31 90 40 47
        E 0 90 45 4f
        E 5 90 4c 00
        E 41 90 4c 49
        E 5 90 49 00
        E 0 90 49 4a
        E 41 90 40 00
        E 0 90 40 3e
        E 46 90 3d 38
        E 0 90 45 00
        E 0 90 49 00
        E 0 90 49 4b
        E 0 90 4c 00
        E 0 90 4c 3e
        E 31 90 40 00
        E 0 90 40 45
        E 10 90 2d 35
        E 10 90 4f 4f
        E 41 90 40 00
        E 0 90 40 41
        E 15 90 2d 00
        E 5 90 3d 00
        E 0 90 49 00
        E 16 90 39 00
        E 10 90 4f 00
        E 5 90 3e 49
        E 0 90 4c 00
        E 0 90 4f 21
        E 31 90 40 00
        E 15 90 4a 3a
        E 31 90 4f 00
        E 15 90 3e 00
        E 0 90 3e 39
        E 0 90 42 3f
        E 0 90 51 46
        E 46 90 4e 49
        E 25 90 42 00
        E 31 90 40 44
        E 5 90 39 45
        E 31 90 3e 00
        E 10 90 4a 00
        E 15 90 4e 00
        E 11 90 51 00
        E 20 90 55 40
        E 5 90 40 00
        E 0 90 40 32
        E 46 90 51 4e
        E 41 90 55 00
        E 123 90 55 47
        E 10 90 51 00
        E 26 90 53 39
        E 10 90 39 00
        E 10 90 55 00
        E 31 90 40 00
        E 87 90 4e 3c
        E 0 90 53 00
        E 41 90 4c 40
        E 51 90 4e 00
        E 0 90 4e 53
        E 46 90 4c 00
        E 15 90 4a 36
        E 5 90 3e 4a
        E 46 90 42 40
        E 36 90 4a 00
        E 0 90 4a 46
        E 41 90 42 00
        E 0 90 42 37
        E 0 90 45 41
        E 5 90 3e 00
        E 0 90 3e 46
        E 46 90 4a 00
        E 0 90 4a 47
        E 10 90 4e 00
        E 0 90 4e 43
        E 36 90 3e 00
        E 0 90 3e 3f
        E 0 90 45 00
        E 0 90 45 31
        E 0 90 51 3f
        E 41 90 42 00
        E 0 90 42 40
        E 5 90 4e 00
        E 0 90 4e 41
        E 41 90 40 43
        E 5 90 4a 00
        E 20 90 42 00
        E 21 90 3e 00
        E 5 90 4c 30
        E 5 90 51 00
        E 5 90 4e 00
        E 10 90 45 00
        E 21 90 40 00
        E 0 90 40 47
        E 0 90 53 38
        E 46 90 43 3b
        E 0 90 4f 4d
        E 35 90 53 00
        E 26 90 3e 3c
        E 0 90 43 00
        E 0 90 51 40
        E 10 90 4c 00
        E 0 90 4f 00
        E 5 90 40 00
        E 36 90 42 41
        E 0 90 4e 42
        E 11 90 51 00
        E 20 90 4a 4d
        E 10 90 3e 00
        E 0 90 3e 2f
        E 52 90 4a 00
        E 5 90 49 44
        E 25 90 4e 00
        E 21 90 4c 49
        E 10 90 42 00
        E 25 90 49 00
        E 11 90 4a 50
        E 20 90 3e 00
        E 5 90 4c 00
        E 15 90 42 2d
        E 0 90 4e 48
        E 21 90 4a 00
        E 66 90 42 00
        E 62 90 4e 00
        E 0 90 4e 54
        E 40 90 51 41
        E 52 90 4e 00
        E 0 90 4f 3e
        E 66 90 3e 53
        E 0 90 51 00
        E 20 90 53 43
        E 11 90 4f 00
        E 0 90 4f 3d
        E 51 90 3e 00
        E 0 90 3e 49
        E 5 90 53 00
        E 92 90 42 31
        E 0 90 4e 39
        E 0 90 4f 00
        E 46 90 45 39
        E 0 90 4c 46
        E 46 90 4a 57
        E 5 90 3e 00
        E 0 90 3e 33
        E 20 90 4e 00
        E 5 90 4c 00
        E 21 90 42 00
        E 0 90 42 47
        E 41 90 45 00
        E 5 90 3e 00
        E 0 90 3e 32
        E 5 90 4a 00
        E 0 90 4a 4f
        E 57 90 3e 00
        E 0 90 53 46
        E 5 90 42 00
        E 56 90 4a 00
        E 25 90 53 00
        E 36 90 4a 31
        E 0 90 56 4b
        E 5 90 47 35
        E 41 90 53 45
        E 26 90 4a 00
        E 0 90 56 00
        E 36 90 42 42
        E 5 90 53 00
        E 15 90 47 00
        E 20 90 3e 47
        E 0 90 51 2a
        E 41 90 53 46
        E 46 90 51 00
        E 0 90 51 3b
        E 5 90 3e 00
        E 0 90 3e 2c
        E 0 90 42 00
        E 0 90 42 29
        E 0 90 45 36
        E 77 90 53 00
        E 5 90 4e 3c
        E 20 90 42 00
        E 26 90 4c 3b
        E 5 90 45 00
        E 0 90 51 00
        E 15 90 4e 00
        E 16 90 4a 40
        E 5 90 3e 00
        E 0 90 3e 35
        E 46 90 4c 00
        E 10 90 53 31
        E 5 90 3e 00
        E 0 90 43 36
        E 97 90 43 00
        E 0 90 43 3e
        E 5 90 56 4c
        E 36 90 53 00
        E 0 90 53 51
        E 5 90 47 33
        E 41 90 56 00
        E 10 90 43 00
        E 1 90 4a 00
        E 10 90 42 51
        E 5 90 53 00
        E 0 90 53 3d
        E 41 90 47 00
        E 15 90 42 00
        E 6 90 3e 3b
        E 0 90 42 41
        E 0 90 51 34
        E 25 90 45 3c
        E 26 90 56 3e
        E 51 90 51 00
        E 0 90 51 48
        E 5 90 42 00
        E 15 90 3e 00
        E 10 90 53 00
        E 26 90 40 3d
        E 0 90 45 00
        E 0 90 45 36
        E 51 90 3d 37
        E 0 90 56 00
        E 5 90 4f 59
        E 0 90 51 00
        E 56 90 40 00
        E 0 90 40 38
        E 5 90 45 00
        E 0 90 45 3a
        E 0 90 58 39
        E 57 90 40 00
        E 0 90 4f 00
        E 0 90 4f 46
        E 15 90 3d 00
        E 36 90 58 00
        E 5 90 3e 44
        E 5 90 42 4b
        E 51 90 4f 00
        E 15 90 42 00
        E 0 90 42 41
        E 5 90 4e 59
        E 11 90 3e 00
        E 0 90 3e 3c
        E 35 90 45 00
        E 16 90 56 44
        E 56 90 4e 00
        E 0 90 4e 63
        E 5 90 42 00
        E 87 90 3e 00
        E 25 90 4e 00
        E 0 90 4e 51
        E 0 90 56 00
        E 16 90 39 38
        E 0 90 3d 34
        E 66 90 39 00
        E 0 90 39 3b
        E 0 90 4c 4a
        E 57 90 4b 50
        E 0 90 4c 00
        E 25 90 4e 00
        E 6 90 39 00
        E 45 90 3d 00
        E 11 90 4b 00
        E 0 90 4c 43
        E 20 90 4a 51
        E 87 90 4c 00
        E 10 90 4a 00
        E 0 90 4a 52
        E 41 90 48 4a
        E 20 90 39 2d
        E 52 90 48 00
        E 0 90 49 4c
        E 0 90 4a 00
        E 71 90 39 00
        E 21 90 47 38
        E 10 90 49 00
        E 61 90 45 59
        E 5 90 39 2e
        E 67 90 39 00
        E 15 90 45 00
        E 0 90 45 39
        E 66 90 47 00
        E 31 90 44 3f
        E 0 90 45 00
        E 148 90 3e 45
        E 10 90 42 4b
        E 32 90 53 44
        E 20 90 44 00
        E 41 90 53 00
        E 10 90 3e 00
        E 0 90 3e 34
        E 0 90 45 3a
        E 0 90 51 3f
        E 66 90 42 00
        E 36 90 45 00
        E 0 90 45 32
        E 0 90 51 00
        E 0 90 51 4e
        E 51 90 3e 00
        E 5 90 42 48
        E 41 90 51 00
        E 0 90 51 4b
        E 87 90 51 00
        E 0 90 51 48
        E 5 90 45 00
        E 0 90 45 36
        E 31 90 42 00
        E 15 90 53 3a
        E 5 90 42 31
        E 46 90 51 00
        E 0 90 51 48
        E 41 90 56 46
        E 5 90 45 00
        E 0 90 45 39
        E 21 90 42 00
        E 10 90 53 00
        E 25 90 56 00
        E 31 90 51 00
        E 5 90 3e 4a
        E 0 90 42 36
        E 0 90 45 00
        E 0 90 4f 48
        E 67 90 4f 00
        E 10 90 42 00
        E 10 90 4d 4a
        E 46 90 3e 00
        E 0 90 3e 2f
        E 46 90 4d 00
        E 0 90 4d 59
        E 36 90 3e 00
        E 15 90 42 3c
        E 10 90 4d 00
        E 0 90 4d 53
        E 32 90 45 35
        E 15 90 42 00
        E 30 90 4d 00
        E 0 90 4e 4c
        E 57 90 42 42
        E 0 90 45 00
        E 41 90 4e 00
        E 0 90 4e 51
        E 51 90 45 41
        E 5 90 51 3c
        E 35 90 4e 00
        E 0 90 4e 43
        E 62 90 39 3e
        E 5 90 42 00
        E 0 90 42 40
        E 5 90 45 00
        E 31 90 51 00
        E 5 90 4a 4c
        E 46 90 4e 00
        E 10 90 45 31
        E 15 90 42 00
        E 26 90 4a 00
        E 0 90 4a 55
        E 36 90 45 00
        E 5 90 39 00
        E 0 90 39 3b
        E 0 90 4c 47
        E 5 90 42 3d
        E 41 90 4a 00
        E 0 90 4a 53
        E 41 90 39 00
        E 5 90 45 38
        E 35 90 42 00
        E 6 90 4c 00
        E 5 90 4a 00
        E 0 90 4a 51
        E 46 90 4e 44
        E 5 90 3d 34
        E 5 90 45 00
        E 36 90 4c 38
        E 56 90 4a 00
        E 5 90 3d 00
        E 20 90 4e 00
        E 16 90 45 32
        E 0 90 4c 00
        E 0 90 4c 37
        E 51 90 4e 3f
        E 11 90 42 49
        E 30 90 45 00
        E 10 90 3e 3d
        E 41 90 49 43
        E 26 90 4e 00
        E 5 90 3e 00
        E 10 90 4c 00
        E 0 90 4c 39
        E 31 90 42 00
        E 5 90 49 00
        E 5 90 4a 49
        E 10 90 3e 34
        E 31 90 4e 45
        E 20 90 4a 00
        E 36 90 4c 00
        E 0 90 4c 4b
        E 5 90 4e 00
        E 5 90 3e 00
        E 82 90 4e 56
        E 5 90 4c 00
        E 41 90 51 3a
        E 46 90 4e 00
        E 0 90 4f 3f
        E 46 90 53 4e
        E 51 90 3e 3c
        E 10 90 51 00
        E 5 90 42 39
        E 26 90 4f 00
        E 10 90 50 3d
        E 10 90 53 00
        E 51 90 50 00
        E 0 90 51 39
        E 21 90 42 00
        E 25 90 53 48
        E 5 90 3e 00
        E 36 90 45 3d
        E 0 90 51 00
        E 0 90 51 48
        E 51 90 53 00
        E 0 90 53 57
        E 5 90 42 39
        E 41 90 45 00
        E 0 90 45 28
        E 0 90 51 00
        E 0 90 51 49
        E 47 90 53 00
        E 0 90 53 53
        E 46 90 45 00
        E 0 90 45 34
        E 0 90 51 00
        E 0 90 51 3a
        E 46 90 42 00
        E 0 90 42 42
        E 25 90 53 00
        E 21 90 51 00
        E 0 90 51 4e
        E 41 90 56 34
        E 35 90 42 00
        E 67 90 45 00
        E 0 90 51 00
        E 0 90 51 3b
        E 10 90 42 38
        E 15 90 56 00
        E 26 90 4e 33
        E 5 90 3e 3c
        E 15 90 51 00
        E 21 90 42 00
        E 51 90 4e 00
        E 0 90 4e 48
        E 46 90 3e 00
        E 46 90 42 3b
        E 0 90 4e 00
        E 0 90 4e 4b
        E 10 90 3e 29
        E 51 90 45 3c
        E 31 90 4e 00
        E 0 90 4e 52
        E 25 90 3e 00
        E 56 90 45 00
        E 16 90 42 00
        E 0 90 42 38
        E 5 90 4e 00
        E 0 90 4e 5a
        E 46 90 45 38
        E 15 90 42 00
        E 31 90 4e 00
        E 0 90 4e 4b
        E 46 90 45 00
        E 5 90 39 38
        E 11 90 42 3f
        E 35 90 4a 4e
        E 31 90 4e 00
        E 26 90 42 00
        E 35 90 4a 00
        E 0 90 4a 49
        E 51 90 42 42
        E 26 90 39 00
        E 15 90 4a 00
        E 0 90 4a 60
        E 46 90 45 2b
        E 0 90 4c 2f
        E 41 90 4a 00
        E 0 90 4a 43
        E 41 90 45 00
        E 21 90 3d 3a
        E 0 90 4a 00
        E 10 90 42 00
        E 20 90 4c 00
        E 0 90 4c 44
        E 51 90 4e 4d
        E 21 90 45 2d
        E 5 90 3d 00
        E 20 90 4c 00
        E 0 90 4c 40
        E 77 90 3e 41
        E 0 90 42 50
        E 5 90 4e 00
        E 82 90 42 00
        E 0 90 42 3e
        E 0 90 49 48
        E 5 90 4c 00
        E 41 90 47 44
        E 30 90 49 00
        E 21 90 42 00
        E 0 90 45 00
        E 0 90 45 4a
        E 5 90 3e 00
        E 5 90 47 00
        E 71 90 42 3c
        E 27 90 45 00
        E 25 90 40 58
        E 36 90 45 36
        E 25 90 3e 51
        E 0 90 40 00
        E 0 90 40 38
        E 62 90 45 00
        E 92 90 40 00
        E 0 90 42 00
        E 122 90 32 56
        E 5 90 3e 00
        E 0 90 3e 3d
        E 31 90 4a 42
        E 0 90 4e 42
        E 0 90 51 43
        E 56 90 32 00
        E 0 90 32 47
        E 0 90 3e 00
        E 0 90 3e 40
        E 41 90 51 00
        E 26 90 32 00
        E 0 90 4a 00
        E 30 90 3e 00
        E 0 90 3e 47
        E 46 90 40 3f
        E 56 90 3e 00
        E 0 90 3e 44
        E 52 90 40 00
        E 35 90 3e 00
        E 0 90 3e 45
        E 11 90 4e 00
        E 35 90 39 45
        E 0 90 56 48
        E 46 90 3e 00
        E 0 90 3e 3f
        E 31 90 56 00
        E 5 90 4a 26
        E 87 90 32 48
        E 6 90 4a 00
        E 5 90 39 00
        E 0 90 39 2f
        E 0 90 4a 3a
        E 0 90 4e 40
        E 51 90 32 00
        E 5 90 32 43
        E 5 90 3e 00
        E 0 90 3e 3e
        E 31 90 39 00
        E 56 90 4a 00
        E 5 90 32 00
        E 0 90 3e 00
        E 0 90 3e 53
        E 0 90 45 2d
        E 0 90 4a 25
        E 41 90 40 3b
        E 30 90 45 00
        E 21 90 3e 00
        E 0 90 3e 4d
        E 56 90 4a 00
        E 5 90 40 00
        E 21 90 3e 00
        E 0 90 3e 4a
        E 20 90 4e 00
        E 31 90 39 43
        E 46 90 3e 00
        E 0 90 3e 4d
        E 46 90 36 32
        E 71 90 39 00
        E 10 90 3e 00
        E 0 90 3e 37
        E 0 90 42 2e
        E 0 90 4a 48
        E 5 90 2f 51
        E 0 90 3b 29
        E 31 90 36 00
        E 31 90 32 36
        E 66 90 3b 00
        E 0 90 3b 43
        E 5 90 2f 00
        E 0 90 2f 30
        E 0 90 32 00
        E 5 90 3e 00
        E 26 90 42 00
        E 31 90 2b 5b
        E 5 90 3b 00
        E 15 90 4a 00
        E 10 90 4c 4a
        E 11 90 2f 00
        E 0 90 2f 41
        E 26 90 34 38
        E 25 90 37 3a
        E 10 90 2b 00
        E 0 90 2b 46
        E 11 90 2f 00
        E 5 90 40 30
        E 40 90 37 00
        E 16 90 2d 4b
        E 0 90 34 00
        E 0 90 34 2d
        E 0 90 39 2e
        E 0 90 4c 00
        E 0 90 4c 39
        E 0 90 4f 49
        E 5 90 2b 00
        E 0 90 49 33
        E 41 90 40 00
        E 46 90 34 00
        E 0 90 34 3a
        E 30 90 39 00
        E 0 90 39 3f
        E 46 90 49 00
        E 6 90 4c 00
        E 5 90 32 54
        E 15 90 3e 2a
        E 0 90 4e 45
        E 0 90 4f 00
        E 10 90 39 00
        E 26 90 2d 00
        E 10 90 32 00
        E 5 90 32 49
        E 20 90 34 00
        E 11 90 3e 00
        E 15 90 49 49
        E 82 90 49 00
        E 5 90 4a 45
        E 46 90 4e 00
        E 0 90 4e 46
        E 46 90 4c 4a
        E 25 90 4a 00
        E 26 90 32 00
        E 41 90 4e 00
        E 0 90 4e 54
        E 25 90 4c 00
        E 67 e0 55 4a
        E 0 90 4e 00
        E 0 90 4f 3c
        E 5 e0 55 4a
        E 6 e0 55 4a
        E 5 e0 55 4a
        E 6 e0 55 4a
        E 6 e0 55 4a
        E 5 e0 55 4a
        E 6 e0 2b 55
        E 5 e0 2b 55
        E 6 e0 2b 55
        E 5 e0 2b 55
        E 6 e0 2b 55
        E 0 90 4f 00
        E 31 90 32 3b
        E 0 90 51 41
        E 5 90 4a 43
        E 0 90 4e 5a
        E 41 90 3e 57
        E 21 90 4e 00
        E 0 90 4e 3f
        E 35 90 51 00
        E 5 90 32 00
        E 31 90 4a 00
        E 10 90 3e 00
        E 0 90 3e 55
        E 41 90 40 38
        E 41 90 3e 00
        E 0 90 3e 55
        E 56 90 40 00
        E 26 90 3e 00
        E 0 90 3e 50
        E 20 90 4e 00
        E 31 90 39 44
        E 41 90 3e 00
        E 0 90 3e 47
        E 41 90 36 31
        E 0 90 42 26
        E 56 90 32 3b
        E 5 90 36 00
        E 0 90 36 2d
        E 25 90 45 24
        E 0 90 4e 3b
        E 6 90 4a 31
        E 10 90 39 00
        E 0 90 42 00
        E 36 90 36 00
        E 10 90 32 00
        E 0 90 32 40
        E 0 90 3e 00
        E 0 90 3e 40
        E 5 90 45 00
        E 71 90 4a 00
        E 6 90 32 00
        E 10 90 3e 00
        E 0 90 3e 51
        E 0 90 45 2d
        E 87 90 3e 00
        E 0 90 3e 4b
        E 0 90 40 39
        E 20 90 45 00
        E 41 90 40 00
        E 0 90 4e 00
        E 15 90 3e 00
        E 0 90 3e 51
        E 47 90 39 4b
        E 46 90 3e 00
        E 0 90 3e 4a
        E 35 90 36 47
        E 36 90 3e 00
        E 0 90 3e 38
        E 56 90 39 00
        E 0 90 4a 49
        E 6 90 42 35
        E 5 90 2f 46
        E 0 90 36 00
        E 0 90 36 35
        E 41 90 32 44
        E 5 90 3e 00
        E 0 90 3e 37
        E 25 90 36 00
        E 0 90 36 3f
        E 36 90 3e 00
        E 15 90 2f 00
        E 21 90 42 00
        E 0 90 4a 00
        E 10 90 2b 53
        E 0 90 32 00
        E 5 90 36 00
        E 56 90 4c 43
        E 5 90 2b 00
        E 5 90 2b 4d
        E 41 90 32 40
        E 67 90 32 00
        E 15 90 2b 00
        E 10 90 2d 3b
        E 5 90 40 33
        E 0 90 43 34
        E 0 90 45 48
        E 0 90 49 3c
        E 36 90 3d 3d
        E 5 90 4c 00
        E 36 90 40 00
        E 5 90 45 00
        E 0 90 45 35
        E 5 90 34 36
        E 21 90 3d 00
        E 10 90 39 44
        E 46 90 43 00
        E 10 90 49 00
        E 5 90 39 00
        E 10 90 2d 00
        E 5 90 34 00
        E 11 90 4a 48
        E 5 90 26 3b
        E 5 90 42 3a
        E 41 90 32 52
        E 5 90 3e 34
        E 0 90 45 00
        E 15 90 26 00
        E 31 90 42 00
        E 0 90 42 2d
        E 41 90 32 00
        E 0 90 32 4c
        E 5 90 36 33
        E 0 90 3e 00
        E 0 90 3e 36
        E 21 90 42 00
        E 61 90 32 00
        E 0 90 32 4b
        E 5 90 36 00
        E 56 90 36 29
        E 6 90 2a 33
        E 0 90 3e 00
        E 0 90 3e 3e
        E 10 90 32 00
        E 0 90 32 3a
        E 46 90 2d 35
        E 5 90 4a 00
        E 10 90 36 00
        E 0 90 36 2d
        E 15 90 2a 00
        E 46 90 26 4c
        E 0 90 32 00
        E 0 90 3e 00
        E 5 90 32 29
        E 72 90 36 00
        E 36 90 32 00
        E 41 90 2d 00
        E 102 90 32 53
        E 51 90 26 00
        E 0 90 51 3f
        E 5 90 3e 3c
        E 0 90 4a 41
        E 0 90 4e 3c
        E 5 90 32 00
        E 5 90 32 45
        E 102 90 32 00
        E 21 90 4a 00
        E 0 90 51 00
        E 10 90 3e 00
        E 0 90 3e 5a
        E 46 90 4e 00
        E 5 90 40 27
        E 36 90 3e 00
        E 0 90 3e 50
        E 51 90 40 00
        E 46 90 3e 00
        E 0 90 3e 4f
        E 46 90 56 37
        E 26 90 3e 00
        E 0 90 3e 44
        E 51 90 38 50
        E 56 90 3e 00
        E 0 90 56 00
        E 21 90 3e 36
        E 20 90 32 3f
        E 0 90 38 00
        E 0 90 38 2c
        E 0 90 4e 48
        E 5 90 45 25
        E 0 90 4a 40
        E 46 90 3e 00
        E 0 90 3e 3b
        E 10 90 38 00
        E 26 90 45 00
        E 41 90 4a 00
        E 15 90 45 33
        E 5 90 3e 00
        E 0 90 3e 4f
        E 5 90 32 00
        E 67 90 45 00
        E 10 90 3e 00
        E 0 90 3e 48
        E 82 90 51 27
        E 5 90 3e 00
        E 0 90 3e 48
        E 25 90 4e 00
        E 21 90 39 3c
        E 41 90 3e 00
        E 0 90 3e 41
        E 5 90 51 00
        E 36 90 36 3c
        E 76 90 39 00
        E 15 90 4a 4a
        E 6 90 2f 4a
        E 0 90 42 2e
        E 15 90 36 00
        E 26 90 32 3c
        E 0 90 3e 00
        E 0 90 3e 35
        E 87 90 3e 00
        E 5 90 42 00
        E 26 90 32 00
        E 5 90 2b 4c
        E 15 90 4a 00
        E 0 90 4a 2b
        E 5 90 2f 00
        E 0 90 2f 58
        E 31 90 4c 41
        E 15 90 2b 00
        E 5 90 2b 47
        E 26 90 2f 00
        E 0 90 2f 42
        E 0 90 34 34
        E 5 90 4a 00
        E 36 90 40 2d
        E 51 90 2b 00
        E 0 90 2f 00
        E 5 90 2d 3d
        E 0 90 39 2f
        E 0 90 49 2c
        E 0 90 4c 00
        E 0 90 4c 34
        E 0 90 4f 44
        E 30 90 40 00
        E 11 90 34 00
        E 46 90 34 29
        E 35 90 39 00
        E 0 90 39 41
        E 21 90 4c 00
        E 10 90 49 00
        E 41 90 32 4b
        E 0 90 3e 25
        E 0 90 4e 47
        E 0 90 4f 00
        E 5 90 39 00
        E 31 90 2d 00
        E 5 90 34 00
        E 30 90 3e 00
        E 31 90 49 43
        E 56 90 4e 00
        E 21 90 49 00
        E 10 90 4a 49
        E 46 90 4e 4c
        E 46 90 4a 00
        E 0 90 4c 48
        E 20 90 4e 00
        E 5 90 32 00
        E 16 90 4f 39
        E 77 90 4c 00
        E 20 e0 2b 35
        E 0 90 4f 00
        E 0 90 4f 2a
        E 6 e0 55 4a
        E 5 e0 55 4a
        E 5 e0 55 4a
        E 6 e0 55 4a
        E 5 e0 55 2a
        E 5 e0 55 2a
        E 6 e0 55 2a
        E 5 e0 55 2a
        E 5 e0 55 2a
        E 6 e0 55 2a
        E 5 e0 55 2a
        E 5 e0 2b 35
        E 6 e0 2b 35
        E 5 e0 2b 35
        E 5 e0 55 2a
        E 6 e0 55 2a
        E 5 e0 55 2a
        E 5 e0 55 4a
        E 6 e0 55 4a
        E 5 e0 55 4a
        E 5 e0 55 4a
        E 6 e0 55 4a
        E 5 e0 55 4a
        E 0 90 4f 00
        E 31 90 4e 41
        E 0 90 51 3d
        E 5 90 32 43
        E 0 90 4a 34
        E 56 90 3e 4c
        E 36 90 51 00
        E 15 90 32 00
        E 15 90 4a 00
        E 21 90 3e 00
        E 0 90 3e 53
        E 81 90 3e 00
        E 0 90 3e 50
        E 11 90 40 3c
        E 30 90 4e 00
        E 36 90 40 00
        E 5 90 3e 00
        E 0 90 3e 56
        E 0 90 4a 21
        E 26 90 56 46
        E 25 90 39 40
        E 26 90 4a 00
        E 10 90 3e 00
        E 0 90 3e 47
        E 5 90 56 00
        E 41 90 36 28
        E 0 90 4a 35
        E 72 90 4a 00
        E 5 90 4a 3d
        E 0 90 4e 46
        E 5 90 32 47
        E 0 90 45 2d
        E 5 90 39 00
        E 10 90 36 00
        E 36 90 3e 00
        E 0 90 3e 4b
        E 10 90 32 00
        E 0 90 32 3b
        E 77 90 3e 00
        E 0 90 3e 54
        E 26 90 32 00
        E 15 90 40 36
        E 26 90 45 00
        E 20 90 3e 00
        E 0 90 3e 55
        E 0 90 4a 00
        E 36 90 40 00
        E 41 90 3e 00
        E 0 90 3e 54
        E 41 90 4e 00
        E 5 90 39 4a
        E 46 90 4a 23
        E 5 90 3e 00
        E 0 90 3e 47
        E 122 90 39 00
        E 0 90 47 39
        E 0 90 4a 00
        E 0 90 4a 48
        E 5 90 36 28
        E 0 90 42 30
        E 31 90 3e 00
        E 0 90 3e 3a
        E 5 90 3b 25
        E 5 90 2f 3a
        E 0 90 32 42
        E 36 90 36 00
        E 0 90 36 39
        E 15 90 4a 00
        E 6 90 3e 00
        E 15 90 3b 00
        E 0 90 3b 3a
        E 31 90 42 00
        E 10 90 32 00
        E 10 90 4c 45
        E 5 90 2b 4b
        E 0 90 36 00
        E 20 90 47 00
        E 21 90 2f 00
        E 0 90 2f 45
        E 0 90 3b 00
        E 36 90 34 35
        E 20 90 4c 00
        E 31 90 2b 00
        E 0 90 2f 00
        E 30 90 34 00
        E 21 90 40 20
        E 0 90 45 3f
        E 0 90 49 40
        E 5 90 3d 30
        E 36 90 2d 39
        E 10 90 31 33
        E 10 90 40 00
        E 26 90 34 3d
        E 15 90 3d 00
        E 1 90 2d 00
        E 10 90 31 00
        E 0 90 49 00
        E 5 90 45 00
        E 77 90 32 35
        E 0 90 34 00
        E 0 90 4a 4b
        E 5 90 3e 43
        E 0 90 42 46
        E 0 90 45 36
        E 71 90 36 38
        E 21 90 42 00
        E 0 90 42 2d
        E 5 90 32 00
        E 0 90 32 38
        E 0 90 3e 00
        E 0 90 3e 4c
        E 51 90 45 00
        E 5 90 36 00
        E 0 90 36 3e
        E 10 90 42 00
        E 67 90 32 00
        E 0 90 32 49
        E 0 90 3e 00
        E 0 90 3e 35
        E 5 90 36 00
        E 0 90 4a 00
        E 51 90 2a 3a
        E 0 90 36 2d
        E 10 90 3e 00
        E 0 90 3e 2d
        E 41 90 2d 3e
        E 56 90 2a 00
        E 51 90 26 52
        E 5 90 3e 00
        E 5 90 32 00
        E 0 90 32 2d
        E 11 90 36 00
        E 117 90 32 00
        E 26 90 2d 00
        E 20 90 45 27
        E 123 90 26 00
        E 5 90 45 00
        E 0 90 4c 44
        E 5 90 45 44
        E 62 90 39 24
        E 5 90 2d 41
        E 0 90 40 33
        E 51 90 45 00
        E 5 90 2f 46
        E 0 90 39 00
        E 10 90 40 00
        E 10 90 2d 00
        E 51 90 2f 00
        E 26 90 32 38
        E 0 90 39 2d
        E 0 90 45 46
        E 0 90 4c 00
        E 0 90 4c 42
        E 5 90 49 3a
        E 41 90 34 2d
        E 26 90 39 00
        E 10 90 32 00
        E 10 90 36 40
        E 77 90 34 00
        E 10 90 45 00
        E 10 90 36 00
        E 0 90 36 45
        E 0 90 39 40
        E 0 90 45 35
        E 0 90 49 00
        E 0 90 49 3f
        E 0 90 4c 00
        E 0 90 4c 43
        E 77 90 3d 46
        E 20 90 36 00
        E 10 90 49 00
        E 31 90 3d 00
        E 5 90 3e 41
        E 20 90 39 00
        E 11 90 40 47
        E 30 90 45 00
        E 0 90 45 32
        E 0 90 4c 00
        E 0 90 4c 4f
        E 5 90 49 3c
        E 31 90 40 00
        E 5 90 3e 00
        E 0 90 3e 36
        E 0 90 40 3c
        E 36 90 58 29
        E 31 90 45 00
        E 5 90 3e 00
        E 25 90 3b 38
        E 5 90 58 00
        E 46 90 39 43
        E 31 90 49 00
        E 5 90 3b 00
        E 5 90 37 36
        E 0 90 40 00
        E 52 90 4c 00
        E 5 90 39 00
        E 20 90 37 00
        E 72 90 4f 44
        E 41 90 4c 3c
        E 36 90 2f 43
        E 30 90 2d 3a
        E 5 90 4c 00
        E 41 90 4f 00
        E 26 90 2d 00
        E 5 90 4a 3e
        E 0 90 4e 46
        E 5 90 2f 00
        E 31 90 32 4e
        E 0 90 3e 3d
        E 76 90 3e 00
        E 26 90 36 3a
        E 61 90 3e 30
        E 0 90 45 3d
        E 0 90 4a 00
        E 0 90 4a 42
        E 0 90 4e 00
        E 0 90 4e 3c
        E 5 90 32 00
        E 0 90 36 00
        E 0 90 36 33
        E 36 90 39 3f
        E 36 90 3e 00
        E 5 90 36 00
        E 15 90 3b 43
        E 10 90 39 00
        E 77 90 4a 00
        E 0 90 4a 32
        E 0 90 4e 00
        E 0 90 4e 3d
        E 5 90 3e 3f
        E 0 90 45 00
        E 0 90 45 39
        E 46 90 40 33
        E 5 90 3b 00
        E 15 90 42 57
        E 62 90 42 00
        E 5 90 43 3e
        E 25 90 40 00
        E 26 90 4e 00
        E 0 90 4e 45
        E 5 90 3e 00
        E 0 90 3e 35
        E 0 90 4a 00
        E 0 90 4a 4d
        E 5 90 43 00
        E 0 90 43 43
        E 31 90 45 00
        E 0 90 45 32
        E 41 90 42 4d
        E 0 90 43 00
        E 46 90 40 3b
        E 26 90 4a 00
        E 10 90 42 00
        E 10 90 4a 29
        E 41 90 3d 48
        E 0 90 3e 00
        E 10 90 40 00
        E 0 90 45 00
        E 36 90 4e 00
        E 26 90 4a 00
        E 10 90 4f 4d
        E 15 90 3d 00
        E 46 90 4f 00
        E 5 90 4e 3f
        E 0 90 51 42
        E 82 90 34 2d
        E 0 90 36 37
        E 20 90 51 00
        E 11 90 4e 00
        E 20 90 32 46
        E 46 90 36 00
        E 10 90 34 00
        E 0 90 34 38
        E 0 90 56 5b
        E 5 90 3e 20
        E 62 90 32 00
        E 0 90 34 00
        E 0 90 3e 00
        E 0 90 3e 39
        E 66 90 56 00
        E 0 90 56 4a
        E 21 90 3e 00
        E 0 90 3e 3d
        E 35 90 4e 3d
        E 5 90 3c 48
        E 0 90 56 00
        E 41 90 3e 00
        E 0 90 3e 40
        E 36 90 4e 00
        E 5 90 3c 00
        E 5 90 3b 4a
        E 51 90 3e 00
        E 0 90 3e 46
        E 6 90 3b 00
        E 36 90 39 44
        E 41 90 3e 00
        E 0 90 3e 4b
        E 25 90 39 00
        E 15 90 37 41
        E 0 90 53 34
        E 87 90 53 00
        E 11 90 3e 00
        E 0 90 3e 44
        E 0 90 51 4a
        E 15 90 37 00
        E 56 90 3e 00
        E 0 90 3e 40
        E 72 90 3e 00
        E 0 90 3e 3b
        E 51 90 3c 40
        E 0 90 4e 3b
        E 5 90 51 00
        E 30 90 3e 00
        E 0 90 3e 46
        E 36 90 3c 00
        E 0 90 4e 00
        E 10 90 3b 41
        E 26 90 4f 25
        E 20 90 3e 00
        E 0 90 3e 42
        E 26 90 3b 00
        E 15 90 39 3d
        E 10 90 4f 00
        E 31 90 3e 00
        E 0 90 3e 41
        E 21 90 39 00
        E 25 90 37 3f
        E 0 90 53 33
        E 51 90 3e 00
        E 0 90 3e 34
        E 56 90 53 00
        E 0 90 53 3f
        E 5 90 36 42
        E 0 90 37 00
        E 46 90 3e 00
        E 0 90 3e 46
        E 46 90 53 00
        E 6 90 36 00
        E 0 90 36 37
        E 0 90 39 35
        E 0 90 51 2a
        E 41 90 3e 00
        E 0 90 3e 43
        E 20 90 36 00
        E 36 90 34 2a
        E 0 90 51 00
        E 0 90 51 46
        E 36 90 3e 00
        E 10 90 3d 40
        E 46 90 39 00
        E 0 90 39 48
        E 0 90 4f 2a
        E 10 90 51 00
        E 31 90 34 00
        E 5 90 3d 00
        E 0 90 3d 44
        E 41 90 39 00
        E 10 90 32 42
        E 0 90 4f 00
        E 0 90 4f 32
        E 46 90 3d 00
        E 26 90 4f 00
        E 15 90 4e 47
        E 87 90 32 00
        E 41 90 4e 00
        E 5 90 4c 44
        E 5 90 39 4d
        E 0 90 3d 42
        E 66 90 39 00
        E 0 90 39 3a
        E 0 90 45 36
        E 26 90 4c 00
        E 51 90 45 00
        E 20 90 48 43
        E 51 90 3d 00
        E 0 90 3d 37
        E 6 90 39 00
        E 20 90 48 00
        E 41 90 3d 00
        E 10 e0 55 2a
        E 0 90 4b 4f
        E 6 e0 55 2a
        E 5 e0 55 2a
        E 6 e0 55 4a
        E 5 e0 55 4a
        E 6 e0 55 4a
        E 5 e0 55 4a
        E 6 e0 55 4a
        E 5 e0 55 4a
        E 6 e0 55 4a
        E 5 e0 55 4a
        E 6 e0 55 4a
        E 6 e0 55 6a
        E 0 90 4b 00
        E 31 e0 55 2a
        E 0 90 4d 5b
        E 5 e0 55 4a
        E 6 e0 55 4a
        E 5 e0 55 4a
        E 6 e0 55 4a
        E 6 e0 55 4a
        E 5 e0 55 4a
        E 6 e0 55 4a
        E 5 e0 55 4a
        E 6 e0 55 4a
        E 5 e0 55 4a
        E 6 e0 55 4a
        E 0 90 4d 00
        E 0 90 4d 4c
        E 72 90 50 51
        E 20 90 4d 00
        E 41 90 50 00
        E 0 90 51 45
        E 5 90 32 2f
        E 0 90 4a 2f
        E 5 90 4e 32
        E 36 90 3e 49
        E 51 90 32 00
        E 15 90 4a 00
        E 10 90 51 00
        E 16 90 3e 00
        E 0 90 3e 57
        E 0 90 51 22
        E 46 90 4e 00
        E 20 90 51 00
        E 21 e0 55 4a
        E 0 90 3e 00
        E 0 90 3e 48
        E 5 e0 55 4a
        E 6 e0 55 4a
        E 5 e0 55 4a
        E 5 e0 55 4a
        E 6 e0 55 4a
        E 5 e0 55 4a
        E 6 e0 55 4a
        E 5 e0 55 4a
        E 6 e0 55 2a
        E 5 e0 55 2a
        E 6 e0 55 2a
        E 5 e0 55 2a
        E 5 e0 55 2a
        E 6 e0 55 2a
        E 5 e0 55 4a
        E 0 90 3e 00
        E 0 90 3e 4a
        E 46 90 56 4b
        E 51 90 3e 00
        E 0 90 3e 3f
        E 11 90 56 00
        E 66 90 4a 23
        E 10 90 39 40
        E 16 90 36 38
        E 35 90 4a 00
        E 0 90 4e 43
        E 5 90 32 40
        E 0 90 4a 31
        E 6 90 39 00
        E 30 90 36 00
        E 16 90 3e 00
        E 0 90 3e 47
        E 51 90 32 00
        E 5 90 4a 00
        E 31 90 3e 00
        E 0 90 3e 54
        E 77 90 3e 00
        E 0 90 3e 51
        E 92 90 3e 00
        E 0 90 3e 50
        E 0 90 51 27
        E 35 90 4e 00
        E 10 90 39 40
        E 36 90 51 00
        E 16 90 3e 00
        E 0 90 3e 46
        E 107 90 39 00
        E 15 90 2f 42
        E 0 90 42 2c
        E 0 90 4a 3f
        E 36 90 3e 00
        E 0 90 3e 3b
        E 5 90 32 48
        E 36 90 42 00
        E 41 90 3e 00
        E 5 90 3b 47
        E 41 90 32 00
        E 20 90 3b 00
        E 5 90 2b 55
        E 0 90 4a 00
        E 0 90 4a 24
        E 5 90 37 2c
        E 26 90 2f 00
        E 0 90 2f 49
        E 5 90 4c 43
        E 36 90 2b 00
        E 0 90 2b 45
        E 0 90 34 3d
        E 15 90 4a 00
        E 36 90 37 00
        E 0 90 37 3e
        E 30 90 4c 00
        E 16 90 2b 00
        E 0 90 2f 00
        E 5 90 34 00
        E 15 90 2d 40
        E 0 90 4c 2b
        E 0 90 4f 43
        E 5 90 34 2a
        E 0 90 37 00
        E 0 90 39 35
        E 0 90 45 34
        E 41 90 31 31
        E 5 90 40 25
        E 31 90 34 00
        E 0 90 34 3c
        E 16 90 45 00
        E 0 90 4c 00
        E 15 90 31 00
        E 0 90 40 00
        E 15 90 39 00
        E 0 90 39 3d
        E 6 90 2d 00
        E 0 90 2d 38
        E 61 90 32 48
        E 5 90 3e 27
        E 5 90 4e 43
        E 0 90 4f 00
        E 15 90 2d 00
        E 26 90 39 00
        E 0 90 4a 54
        E 10 90 34 00
        E 36 90 3e 00
        E 15 90 4a 00
        E 5 90 49 48
        E 77 90 49 00
        E 15 90 4a 45
        E 46 90 4e 00
        E 0 90 4e 3b
        E 36 90 4a 00
        E 10 90 4c 43
        E 56 90 32 00
        E 21 90 4c 00
        E 10 e0 55 4a
        E 0 90 4e 00
        E 0 90 4e 4d
        E 6 e0 55 4a
        E 5 e0 55 4a
        E 5 e0 55 4a
        E 6 e0 55 4a
        E 5 e0 55 4a
        E 6 e0 2b 55
        E 5 e0 2b 55
        E 5 e0 2b 55
        E 6 e0 2b 55
        E 5 e0 2b 55
        E 6 e0 55 4a
        E 5 e0 55 4a
        E 5 e0 55 4a
        E 6 e0 55 4a
        E 5 e0 55 4a
        E 6 e0 55 4a
        E 5 e0 55 4a
        E 0 90 4e 00
        E 0 90 4e 2c
        E 26 90 53 4d
        E 61 90 53 00
        E 5 90 32 39
        E 0 90 4e 00
        E 0 90 4e 40
        E 0 90 51 35
        E 46 90 3e 4f
        E 31 90 51 00
        E 25 90 32 00
        E 36 90 3e 00
        E 0 90 3e 51
        E 67 90 40 46
        E 20 90 3e 00
        E 0 90 3e 41
        E 72 90 40 00
        E 5 90 3e 00
        E 0 90 3e 45
        E 0 90 4e 00
        E 46 90 56 48
        E 5 90 39 37
        E 46 90 3e 00
        E 0 90 3e 44
        E 10 90 56 00
        E 31 90 36 36
        E 36 90 39 00
        E 0 90 39 45
        E 56 90 36 00
        E 0 90 4a 3a
        E 0 90 4e 45
        E 5 90 32 42
        E 0 90 39 00
        E 0 90 45 29
        E 46 90 3e 00
        E 0 90 3e 41
        E 31 90 45 00
        E 56 90 3e 00
        E 0 90 3e 4e
        E 0 90 4a 00
        E 15 90 32 00
        E 31 90 40 36
        E 36 90 3e 00
        E 0 90 3e 4c
        E 45 90 40 00
        E 31 90 4e 00
        E 15 90 3e 00
        E 0 90 3e 54
        E 41 90 39 46
        E 51 90 3e 00
        E 0 90 3e 40
        E 31 90 4a 27
        E 77 90 39 00
        E 0 90 4a 00
        E 5 90 4a 51
        E 10 90 2f 3d
        E 31 90 3e 00
        E 0 90 3e 2e
        E 5 90 32 3d
        E 36 90 3b 3f
        E 31 90 4a 00
        E 5 90 47 20
        E 31 90 3e 00
        E 5 90 32 00
        E 15 90 3b 00
        E 5 90 4c 47
        E 5 90 2b 47
        E 21 90 47 00
        E 25 90 2f 00
        E 0 90 2f 47
        E 61 90 4c 00
        E 11 90 2f 00
        E 25 90 2b 00
        E 36 90 2d 47
        E 0 90 40 38
        E 0 90 45 3e
        E 5 90 3d 2b
        E 0 90 49 3a
        E 66 90 40 00
        E 6 90 49 00
        E 10 90 2d 00
        E 5 90 34 3c
        E 5 90 3d 00
        E 0 90 45 00
        E 36 90 39 3b
        E 76 90 34 00
        E 0 90 39 00
        E 5 90 4a 3e
        E 46 90 42 38
        E 6 90 32 4c
        E 0 90 3e 3d
        E 97 90 32 00
        E 0 90 32 48
        E 0 90 3e 00
        E 0 90 3e 3e
        E 20 90 42 00
        E 36 90 2d 31
        E 10 90 4a 00
        E 20 90 32 00
        E 0 90 32 4e
        E 67 90 2a 30
        E 11 90 32 00
        E 0 90 32 3b
        E 25 90 45 31
        E 10 90 2d 00
        E 0 90 2d 41
        E 21 90 2a 00
        E 15 90 36 2a
        E 31 90 2d 00
        E 15 90 3e 00
        E 31 90 36 00
        E 10 90 45 00
        E 10 90 26 50
        E 5 90 32 00
        E 399 90 26 00
        E 133 90 45 3f
        E 61 90 4e 44
        E 36 90 51 52
        E 30 90 45 00
        E 57 90 4e 00
        E 5 90 32 46
        E 77 90 51 00
        E 36 90 39 4a
        E 5 90 36 39
        E 46 90 3e 56
        E 46 90 39 00
        E 0 90 39 31
        E 0 90 45 46
        E 35 90 36 00
        E 46 90 39 00
        E 11 90 32 00
        E 5 90 4e 54
        E 10 90 45 00
        E 46 90 51 41
        E 5 90 3e 00
        E 0 90 3e 35
        E 51 90 4e 00
        E 0 90 4e 39
        E 56 90 3e 00
        E 5 90 51 00
        E 36 90 56 4c
        E 67 90 4e 00
        E 0 90 4e 55
        E 20 90 56 00
        E 0 90 56 32
        E 56 90 26 49
        E 0 90 32 3e
        E 46 90 56 00
        E 56 90 2d 48
        E 0 90 4e 00
        E 5 90 2a 3a
        E 16 90 26 00
        E 30 90 3e 37
        E 26 90 2a 00
        E 5 90 42 4f
        E 5 90 32 00
        E 0 90 32 50
        E 47 90 2d 00
        E 5 90 3e 00
        E 15 90 42 00
        E 21 90 32 00
        E 0 90 32 48
        E 0 90 45 36
        E 0 90 4a 57
        E 46 90 4e 46
        E 30 90 32 00
        E 16 90 4a 00
        E 0 90 4a 49
        E 51 90 45 00
        E 0 90 45 34
        E 30 90 4e 00
        E 16 90 51 4a
        E 25 90 45 00
        E 31 90 4a 00
        E 5 90 3b 41
        E 0 90 51 00
        E 61 90 42 4f
        E 77 90 4a 4f
        E 36 90 42 00
        E 10 90 3b 00
        E 20 90 4a 00
        E 5 90 37 49
        E 46 90 43 37
        E 51 90 47 45
        E 36 90 37 00
        E 10 90 43 00
        E 46 90 39 42
        E 0 90 47 00
        E 92 90 40 43
        E 0 90 43 42
        E 11 90 39 00
        E 30 90 49 49
        E 42 90 40 00
        E 10 90 43 00
        E 10 90 32 43
        E 5 90 3e 30
        E 0 90 49 00
        E 87 90 3e 00
        E 10 90 40 3d
        E 31 90 42 53
        E 61 90 42 00
        E 5 90 43 48
        E 21 90 40 00
        E 20 90 45 37
        E 5 90 32 00
        E 41 90 47 3f
        E 5 90 43 00
        E 92 90 4a 46
        E 36 90 4c 39
        E 25 90 4a 00
        E 6 90 45 00
        E 20 90 47 00
        E 41 90 4f 3d
        E 31 90 4c 00
        E 30 90 51 4a
        E 51 90 32 29
        E 5 90 26 41
        E 41 90 51 00
        E 16 90 2a 40
        E 0 90 4f 00
        E 35 90 2d 3f
        E 11 90 26 00
        E 46 90 32 00
        E 0 90 32 56
        E 61 90 2a 00
        E 11 90 2d 00
        E 10 90 4a 3a
        E 10 90 32 00
        E 0 90 32 42
        E 36 90 4e 44
        E 97 90 4e 00
        E 0 90 4e 52
        E 10 90 32 00
        E 46 90 56 42
        E 5 90 4e 00
        E 0 90 4e 43
        E 46 90 4a 00
        E 21 90 56 00
        E 30 90 4e 00
        E 0 90 4e 58
        E 62 90 32 48
        E 40 90 36 32
        E 62 90 4e 00
        E 25 90 32 00
        E 0 90 3e 50
        E 5 90 39 37
        E 31 90 42 4b
        E 51 90 36 00
        E 21 90 39 00
        E 25 90 4a 41
        E 46 90 42 00
        E 0 90 42 2f
        E 0 90 4e 47
        E 51 90 3e 00
        E 0 90 3e 3e
        E 26 90 42 00
        E 30 90 4a 00
        E 21 90 4e 00
        E 5 90 51 37
        E 46 90 3e 00
        E 5 90 4a 51
        E 52 90 2f 45
        E 30 90 3e 28
        E 5 90 51 00
        E 11 90 32 51
        E 10 90 4a 00
        E 41 90 3e 00
        E 20 90 2f 00
        E 21 90 4c 3c
        E 10 90 32 00
        E 56 90 2b 49
        E 20 90 2f 4e
        E 46 90 4c 00
        E 46 90 2b 00
        E 0 90 2f 00
        E 5 90 40 2e
        E 0 90 49 48
        E 67 90 2d 43
        E 20 90 40 00
        E 16 90 49 00
        E 76 90 2d 00
        E 31 90 42 5d
        E 0 90 4a 4e
        E 56 90 32 4e
        E 0 90 3e 38
        E 92 90 42 00
        E 0 90 42 39
        E 5 90 32 00
        E 0 90 32 4a
        E 5 90 4a 00
        E 41 90 2d 3f
        E 5 90 3e 00
        E 56 90 3e 28
        E 5 90 2d 00
        E 11 90 42 00
        E 5 90 32 00
        E 5 90 2a 3d
        E 0 90 36 26
        E 36 90 3e 00
        E 26 90 2d 3d
        E 5 90 36 00
        E 0 90 36 2e
        E 51 90 2a 00
        E 41 90 26 4f
        E 56 90 36 00
        E 66 90 2d 00
        E 154 90 45 41
        E 15 90 26 00
        E 20 90 4a 3d
        E 77 90 51 54
        E 26 90 45 00
        E 35 90 4a 00
        E 11 90 3e 2d
        E 20 90 32 47
        E 10 90 51 00
        E 41 90 3e 00
        E 5 90 36 40
        E 46 90 39 40
        E 51 90 3e 60
        E 36 90 45 47
        E 31 90 32 00
        E 0 90 36 00
        E 5 90 39 00
        E 16 90 3e 00
        E 0 90 3e 47
        E 0 90 4a 45
        E 41 90 4e 4c
        E 25 90 45 00
        E 10 90 4a 00
        E 16 90 51 42
        E 51 90 4e 00
        E 0 90 4e 3b
        E 5 90 3e 00
        E 0 90 3e 39
        E 20 90 51 00
        E 5 90 56 59
        E 62 90 56 00
        E 5 90 56 3c
        E 51 90 3e 00
        E 25 90 4e 00
        E 0 90 4e 41
        E 41 90 26 49
        E 0 90 32 3a
        E 16 90 56 00
        E 81 90 26 00
        E 0 90 2d 47
        E 5 90 2a 3b
        E 6 90 4e 00
        E 46 90 32 00
        E 0 90 32 50
        E 0 90 3e 2f
        E 25 90 2a 00
        E 21 90 42 52
        E 10 90 2d 00
        E 25 90 3e 00
        E 16 90 45 3f
        E 15 90 42 00
        E 25 90 4a 53
        E 41 90 4e 4a
        E 16 90 45 00
        E 25 90 32 00
        E 10 90 4a 00
        E 0 90 4a 4e
        E 11 90 4e 00
        E 0 90 4e 31
        E 20 90 51 4f
        E 41 90 4e 00
        E 20 90 4a 00
        E 0 90 4a 3c
        E 0 90 51 00
        E 5 90 51 3d
        E 42 90 3b 3f
        E 15 90 4a 00
        E 36 90 51 00
        E 15 90 42 51
        E 26 90 3b 00
        E 20 90 47 3f
        E 31 90 4a 4a
        E 20 90 42 00
        E 36 90 47 00
        E 5 90 43 2e
        E 0 90 4a 00
        E 46 90 37 3f
        E 46 90 47 46
        E 5 90 43 00
        E 26 90 37 00
        E 61 90 39 40
        E 21 90 47 00
        E 30 90 40 4b
        E 36 90 39 00
        E 5 90 43 46
        E 21 90 49 46
        E 66 90 40 00
        E 0 90 49 00
        E 10 90 32 46
        E 0 90 3e 36
        E 5 90 43 00
        E 92 90 40 3d
        E 5 90 3e 00
        E 26 90 42 57
        E 56 90 32 00
        E 5 90 42 00
        E 5 90 43 45
        E 26 90 40 00
        E 15 90 45 46
        E 42 90 47 45
        E 5 90 43 00
        E 51 90 45 00
        E 36 90 4a 44
        E 30 90 47 00
        E 10 90 4c 3b
        E 67 90 4a 00
        E 20 90 4f 3a
        E 56 90 4c 00
        E 6 90 51 41
        E 51 90 26 4a
        E 35 90 4f 00
        E 21 90 2a 45
        E 0 90 32 38
        E 25 90 51 00
        E 21 90 2d 41
        E 10 90 26 00
        E 31 90 32 00
        E 0 90 32 4c
        E 0 90 3e 28
        E 56 90 2d 00
        E 5 90 3e 00
        E 20 90 4a 4a
        E 5 90 2a 00
        E 46 90 4e 50
        E 11 90 4a 00
        E 41 90 51 38
        E 25 90 4a 24
        E 31 90 4e 00
        E 0 90 4e 3e
        E 20 90 56 54
        E 10 90 4a 00
        E 6 90 4a 25
        E 5 90 51 00
        E 46 90 56 00
        E 5 90 56 41
        E 20 90 4a 00
        E 5 90 32 00
        E 41 90 4e 00
        E 0 90 4e 57
        E 47 90 32 4a
        E 20 90 56 00
        E 31 90 36 33
        E 41 90 39 3f
        E 35 90 4e 00
        E 11 90 3e 55
        E 15 90 36 00
        E 15 90 32 00
        E 16 90 42 4b
        E 5 90 39 00
        E 46 90 45 44
        E 40 90 4a 43
        E 31 90 42 00
        E 10 90 4e 4e
        E 5 90 3e 00
        E 0 90 3e 3b
        E 11 90 45 00
        E 30 90 4a 00
        E 0 90 4a 3a
        E 16 90 4e 00
        E 0 90 4e 39
        E 35 90 3e 00
        E 0 90 3e 36
        E 31 90 4e 00
        E 15 90 51 3f
        E 36 90 3e 00
        E 15 90 4a 00
        E 0 90 4a 50
        E 46 90 2f 46
        E 41 90 3e 2e
        E 5 90 51 00
        E 6 90 32 4b
        E 51 90 3e 00
        E 0 90 4a 00
        E 25 90 2f 00
        E 15 90 4c 39
        E 11 90 32 00
        E 41 90 2b 51
        E 20 90 4c 00
        E 31 90 2f 4a
        E 87 90 2b 00
        E 0 90 2f 00
        E 5 90 49 40
        E 51 90 2d 45
        E 0 90 40 30
        E 36 90 49 00
        E 10 90 31 32
        E 36 90 2d 00
        E 0 90 40 00
        E 31 90 31 00
        E 25 90 4a 51
        E 5 90 42 49
        E 46 90 3e 33
        E 5 90 32 52
        E 103 90 32 00
        E 0 90 32 53
        E 0 90 3e 00
        E 0 90 3e 29
        E 35 90 4a 00
        E 16 90 2d 3d
        E 0 90 42 00
        E 56 90 32 00
        E 0 90 32 39
        E 36 90 2a 43
        E 51 90 3e 00
        E 5 90 32 00
        E 5 90 2d 00
        E 0 90 2d 39
        E 5 90 2a 00
        E 0 90 2a 3d
        E 31 90 36 30
        E 30 90 2a 00
        E 36 90 26 48
        E 51 90 36 00
        E 67 90 2d 00
        E 271 90 26 00
        E 163 90 4c 4d
        E 5 90 45 43
        E 0 90 49 47
        E 82 90 2d 37
        E 46 90 25 34
        E 10 90 45 00
        E 21 90 2d 00
        E 5 90 28 3f
        E 10 90 31 28
        E 0 90 49 00
        E 36 90 25 00
        E 0 90 25 3f
        E 0 90 4c 00
        E 31 90 31 00
        E 20 90 28 00
        E 0 90 28 41
        E 0 90 2d 40
        E 0 90 40 37
        E 20 90 25 00
        E 31 90 3d 3c
        E 20 90 28 00
        E 26 90 28 28
        E 41 90 45 52
        E 5 90 40 00
        E 0 90 40 40
        E 5 90 2d 00
        E 0 90 2d 38
        E 46 90 3d 00
        E 0 90 3d 43
        E 5 90 28 00
        E 37 90 2d 00
        E 5 90 39 48
        E 0 90 49 50
        E 46 90 3d 00
        E 0 90 3d 45
        E 20 90 49 00
        E 15 90 40 00
        E 0 90 40 5e
        E 51 90 45 00
        E 0 90 45 59
        E 0 90 51 29
        E 16 90 39 00
        E 30 90 40 00
        E 0 90 40 47
        E 0 90 4c 3b
        E 31 90 3d 00
        E 15 90 51 00
        E 0 90 51 48
        E 31 90 4c 00
        E 15 90 40 00
        E 0 90 55 4a
        E 5 90 45 00
        E 0 90 45 41
        E 21 90 51 00
        E 25 90 58 39
        E 26 90 55 00
        E 72 90 55 45
        E 10 90 58 00
        E 20 90 45 00
        E 10 90 53 3f
        E 21 90 55 00
        E 122 90 53 00
        E 41 90 4c 4d
        E 0 90 4f 2b
        E 72 90 4e 51
        E 0 90 4f 00
        E 76 90 32 49
        E 52 90 4c 00
        E 72 90 4e 00
        E 5 90 32 00
        E 10 90 39 3a
        E 0 90 3e 4a
        E 41 90 42 46
        E 51 90 45 49
        E 31 90 39 00
        E 10 90 3e 00
        E 0 90 3e 3d
        E 0 90 4a 46
        E 51 90 4e 4d
        E 46 90 45 00
        E 10 90 3e 00
        E 0 90 3e 4c
        E 41 90 42 00
        E 0 90 42 52
        E 31 90 45 43
        E 5 90 4e 00
        E 35 90 3e 00
        E 16 90 3e 3e
        E 0 90 4a 00
        E 0 90 4a 58
        E 20 90 42 00
        E 61 90 53 43
        E 6 90 3e 00
        E 51 90 4a 00
        E 20 90 45 00
        E 15 90 56 55
        E 16 90 53 00
        E 81 90 56 00
        E 6 e0 55 4a
        E 0 90 53 39
        E 5 e0 55 4a
        E 5 e0 55 4a
        E 6 e0 55 4a
        E 5 e0 55 4a
        E 5 e0 55 4a
        E 6 e0 55 4a
        E 5 e0 2b 55
        E 5 e0 2b 55
        E 6 e0 2b 55
        E 5 e0 55 0a
        E 5 e0 55 0a
        E 6 e0 55 0a
        E 5 e0 2b 15
        E 5 e0 2b 15
        E 6 e0 2b 15
        E 5 e0 2b 15
        E 5 e0 55 4a
        E 6 e0 55 4a
        E 5 e0 55 4a
        E 5 e0 55 4a
        E 6 e0 55 4a
        E 5 e0 55 4a
        E 5 e0 55 4a
        E 0 90 53 00
        E 10 90 4e 33
        E 32 90 4c 45
        E 46 90 4a 3b
        E 51 90 4c 00
        E 15 90 4e 00
        E 0 90 4e 2c
        E 5 90 32 52
        E 51 90 4a 00
        E 0 90 4a 2f
        E 41 90 4e 00
        E 66 90 4a 00
        E 0 90 4a 3f
        E 41 90 4e 3a
        E 57 90 4a 00
        E 0 90 4a 33
        E 5 90 4e 00
        E 46 90 37 45
        E 46 90 4a 00
        E 0 90 4a 2e
        E 40 90 4e 35
        E 6 90 3e 35
        E 5 90 32 00
        E 0 90 32 48
        E 5 90 37 00
        E 41 90 4a 00
        E 0 90 4a 3a
        E 5 90 4e 00
        E 15 90 3e 00
        E 20 90 53 30
        E 6 90 37 40
        E 10 90 32 00
        E 30 90 4a 00
        E 0 90 4a 3c
        E 6 90 3e 33
        E 25 90 53 00
        E 26 90 32 52
        E 15 90 37 00
        E 31 90 3e 00
        E 0 90 3e 2a
        E 0 90 4a 00
        E 0 90 4a 34
        E 97 90 4a 00
        E 0 90 4a 2f
        E 62 90 3e 00
        E 30 90 4a 00
        E 0 90 4a 2a
        E 46 90 37 2c
        E 46 90 4a 00
        E 0 90 4a 32
        E 41 90 37 00
        E 10 90 32 00
        E 0 90 32 36
        E 0 90 4e 35
        E 46 90 4a 00
        E 0 90 4a 3f
        E 41 90 53 2b
        E 5 90 32 00
        E 10 90 37 34
        E 21 90 4e 00
        E 41 90 53 00
        E 25 90 37 00
        E 5 90 32 49
        E 0 90 3e 40
        E 0 90 4a 00
        E 0 90 51 4a
        E 46 90 4e 45
        E 51 90 4a 3e
        E 6 90 3e 00
        E 0 90 3e 29
        E 40 90 51 00
        E 0 90 51 49
        E 6 90 39 27
        E 10 90 32 00
        E 10 90 4e 00
        E 10 90 3e 00
        E 15 90 4f 47
        E 11 90 51 00
        E 10 90 4a 00
        E 25 90 39 00
        E 0 90 39 41
        E 0 90 4c 44
        E 52 90 45 36
        E 0 90 4f 00
        E 0 90 4f 47
        E 40 90 39 00
        E 0 90 39 4c
        E 0 90 4c 00
        E 52 90 3e 28
        E 0 90 45 00
        E 0 90 4e 4f
        E 0 90 4f 00
        E 5 90 32 50
        E 40 90 39 00
        E 0 90 4a 44
        E 27 90 3e 00
        E 15 90 32 00
        E 0 90 32 39
        E 5 90 45 27
        E 10 90 39 3c
        E 26 90 4e 00
        E 0 90 4e 4b
        E 41 90 32 00
        E 0 90 39 00
        E 10 90 45 00
        E 31 90 4c 3c
        E 5 90 4a 00
        E 15 90 2d 45
        E 41 90 45 50
        E 30 90 4e 00
        E 26 90 49 4a
        E 36 90 4c 00
        E 10 90 45 00
        E 0 90 45 49
        E 41 90 49 00
        E 10 90 4a 51
        E 36 90 2d 00
        E 10 90 45 00
        E 0 90 45 5b
        E 26 90 4a 00
        E 15 90 4c 45
        E 10 90 49 42
        E 46 90 45 00
        E 0 90 45 56
        E 36 90 49 00
        E 0 90 4c 00
        E 10 90 4e 4d
        E 5 90 4a 42
        E 51 90 45 00
        E 0 90 45 53
        E 41 90 4c 42
        E 10 90 4e 00
        E 0 90 4f 39
        E 41 90 45 00
        E 0 90 45 5f
        E 10 90 4a 00
        E 16 90 4f 00
        E 36 90 45 00
        E 0 90 45 5f
        E 30 90 4a 45
        E 21 90 4c 00
        E 0 90 4e 38
        E 40 90 45 00
        E 0 90 45 36
        E 0 90 4a 00
        E 0 90 51 58
        E 42 90 3e 38
        E 5 90 32 42
        E 31 90 4e 00
        E 25 90 3e 00
        E 56 90 39 4e
        E 0 90 51 00
        E 6 90 36 40
        E 15 90 45 00
        E 30 90 3e 5c
        E 6 90 4a 26
        E 46 90 39 00
        E 0 90 39 31
        E 0 90 45 40
        E 46 90 36 00
        E 10 90 3e 00
        E 0 90 3e 51
        E 0 90 4a 00
        E 0 90 4a 42
        E 5 90 39 00
        E 5 90 32 00
        E 31 90 4e 5e
        E 46 90 45 00
        E 5 90 3e 00
        E 0 90 3e 43
        E 0 90 45 30
        E 0 90 51 44
        E 15 90 4a 00
        E 36 90 4e 00
        E 0 90 4e 50
        E 36 90 45 00
        E 15 90 56 34
        E 25 90 51 00
        E 62 90 3e 00
        E 35 90 4e 00
        E 0 90 4e 4d
        E 52 90 26 40
        E 0 90 32 3a
        E 0 90 56 00
        E 51 90 2a 3f
        E 46 90 2d 43
        E 35 90 4e 00
        E 5 90 32 00
        E 0 90 32 53
        E 6 90 3e 30
        E 25 90 26 00
        E 10 90 42 52
        E 16 90 2d 00
        E 31 90 3e 00
        E 5 90 45 40
        E 15 90 2a 00
        E 21 90 42 00
        E 5 90 4a 4e
        E 5 90 32 00
        E 0 90 32 39
        E 41 90 4e 41
        E 20 90 45 00
        E 26 90 4a 00
        E 0 90 4a 4b
        E 30 90 32 00
        E 16 90 51 45
        E 51 90 4e 00
        E 46 90 51 00
        E 5 90 4a 00
        E 5 90 3b 37
        E 61 90 42 4f
        E 51 90 3b 00
        E 31 90 42 00
        E 0 90 4a 51
        E 46 90 37 43
        E 5 90 43 31
        E 10 90 4a 00
        E 82 90 47 44
        E 10 90 43 00
        E 21 90 37 00
        E 61 90 39 3d
        E 15 90 47 00
        E 41 90 40 48
        E 36 90 39 00
        E 5 90 43 49
        E 36 90 49 4c
        E 46 90 40 00
        E 11 90 32 44
        E 0 90 49 00
        E 0 90 4a 4c
        E 10 90 43 00
        E 51 90 3e 37
        E 0 90 4a 00
        E 41 90 40 33
        E 30 90 42 59
        E 26 90 3e 00
        E 36 90 42 00
        E 5 90 43 44
        E 25 90 40 00
        E 16 90 45 43
        E 15 90 32 00
        E 31 90 43 00
        E 0 90 47 3f
        E 66 90 45 00
        E 26 90 4a 3d
        E 20 90 47 00
        E 72 90 4c 35
        E 46 90 4f 39
        E 5 90 4a 00
        E 25 90 4c 00
        E 26 90 51 54
        E 46 90 26 48
        E 0 90 32 2c
        E 46 90 4f 00
        E 10 90 51 00
        E 36 90 2a 40
        E 0 90 2d 51
        E 41 90 26 00
        E 20 90 2d 00
        E 0 90 2d 3b
        E 0 90 32 00
        E 0 90 32 4e
        E 0 90 3e 2a
        E 72 90 2a 00
        E 20 90 3e 00
        E 0 90 3e 29
        E 0 90 4a 49
        E 16 90 2d 00
        E 20 90 4e 4c
        E 26 90 4a 00
        E 25 90 51 3f
        E 31 90 3e 00
        E 15 90 4e 00
        E 0 90 4e 43
        E 51 90 32 00
        E 31 90 51 00
        E 10 90 56 3b
        E 67 90 4e 00
        E 0 90 4e 53
        E 41 90 32 4a
        E 46 90 56 00
        E 10 90 42 30
        E 5 90 36 2c
        E 41 90 39 3b
        E 25 90 42 00
        E 11 90 4e 00
        E 15 90 3e 53
        E 46 90 32 00
        E 5 90 42 45
        E 25 90 36 00
        E 31 90 45 4b
        E 41 90 39 00
        E 51 90 42 00
        E 0 90 42 2c
        E 0 90 4e 41
        E 5 90 3e 00
        E 0 90 3e 3c
        E 21 90 45 00
        E 15 90 4a 4d
        E 56 90 3e 00
        E 0 90 3e 3d
        E 0 90 42 00
        E 5 90 4a 00
        E 21 90 4e 00
        E 15 90 51 48
        E 31 90 3e 00
        E 15 90 4a 45
        E 52 90 2f 46
        E 35 90 51 00
        E 5 90 32 50
        E 72 90 4a 00
        E 36 90 4c 4d
        E 15 90 2f 00
        E 0 90 32 00
        E 10 90 2b 55
        E 41 90 4c 00
        E 0 90 4c 32
        E 41 90 2f 4d
        E 5 90 2b 00
        E 0 90 2b 4b
        E 41 90 37 29
        E 5 90 4c 00
        E 26 90 2f 00
        E 15 90 49 3e
        E 5 90 2b 00
        E 46 90 2d 46
        E 5 90 40 2e
        E 10 90 37 00
        E 36 90 31 3d
        E 15 90 2d 00
        E 11 90 40 00
        E 51 90 49 00
        E 5 90 31 00
        E 20 90 4a 4b
        E 5 90 42 42
        E 52 90 3e 37
        E 5 90 32 54
        E 102 90 32 00
        E 0 90 32 4e
        E 0 90 36 27
        E 0 90 3e 00
        E 0 90 3e 39
        E 51 90 2d 39
        E 15 90 36 00
        E 36 90 3e 00
        E 0 90 3e 31
        E 5 90 32 00
        E 0 90 32 43
        E 26 90 42 00
        E 16 90 2a 4a
        E 15 90 4a 00
        E 20 90 3e 00
        E 26 90 2a 00
        E 0 90 2a 40
        E 0 90 2d 00
        E 0 90 2d 5b
        E 30 90 32 00
        E 52 90 39 32
        E 5 90 2a 00
        E 66 90 39 00
        E 5 90 26 50
        E 5 90 2d 00
        E 0 90 2d 45
        E 189 90 2d 00
        E 225 90 26 00
        E 51 90 4e 4a
        E 0 90 51 38
        E 5 90 3e 5d
        E 97 90 4e 00
        E 0 90 4f 30
        E 5 90 4c 3d
        E 6 90 3e 00
        E 0 90 3e 47
        E 66 90 3e 00
        E 0 90 3e 3a
        E 0 90 51 00
        E 6 90 4a 33
        E 10 90 4c 00
        E 36 90 4f 00
        E 10 90 4e 4b
        E 5 90 3e 00
        E 0 90 3e 2d
        E 0 90 4a 00
        E 0 90 4a 4c
        E 71 90 4e 00
        E 0 90 4e 51
        E 6 90 4a 00
        E 0 90 4a 4a
        E 35 90 3e 00
        E 36 90 4a 00
        E 0 90 4a 52
        E 0 90 4e 00
        E 0 90 4e 4d
        E 66 90 4a 00
        E 0 90 4a 58
        E 0 90 4e 00
        E 0 90 4e 48
        E 72 90 4e 00
        E 0 90 4e 4a
        E 5 90 4a 00
        E 0 90 4a 55
        E 66 90 4a 00
        E 0 90 4a 55
        E 72 90 4a 00
        E 5 90 4e 00
        E 0 90 4e 42
        E 10 90 32 53
        E 72 90 43 3e
        E 0 90 4c 26
        E 41 90 4e 00
        E 20 90 4c 00
        E 21 90 3e 22
        E 0 90 42 48
        E 0 90 43 00
        E 0 90 4a 51
        E 10 90 32 00
        E 56 90 42 00
        E 0 90 42 49
        E 0 90 4a 00
        E 0 90 4a 56
        E 26 90 3e 00
        E 46 90 4a 00
        E 0 90 4a 5a
        E 5 90 42 00
        E 0 90 42 53
        E 56 90 4a 00
        E 0 90 4a 59
        E 5 90 42 00
        E 0 90 42 5a
        E 67 90 42 00
        E 0 90 42 50
        E 5 90 4a 00
        E 0 90 4a 58
        E 82 90 42 00
        E 0 90 42 4f
        E 0 90 4a 00
        E 0 90 4a 5b
        E 61 90 4a 00
        E 0 90 4a 51
        E 5 90 42 00
        E 0 90 42 3a
        E 61 90 42 00
        E 11 90 3b 44
        E 61 90 4a 00
        E 0 90 4a 4d
        E 56 90 3b 00
        E 15 90 45 47
        E 77 90 37 3b
        E 0 90 43 1a
        E 46 90 45 00
        E 15 90 4a 00
        E 11 90 43 00
        E 0 90 43 2f
        E 0 90 4c 49
        E 46 90 37 00
        E 25 90 47 46
        E 61 90 43 00
        E 11 90 39 3a
        E 0 90 4c 00
        E 56 90 47 00
        E 10 90 40 3f
        E 0 90 49 51
        E 36 90 39 00
        E 36 90 4c 3c
        E 51 90 40 00
        E 0 90 49 00
        E 5 90 4c 00
        E 11 90 32 4a
        E 0 90 4a 58
        E 61 90 45 43
        E 71 90 47 44
        E 0 90 4a 00
        E 0 90 4a 39
        E 46 90 32 00
        E 16 90 45 00
        E 0 90 4a 00
        E 5 90 49 45
        E 56 90 47 00
        E 5 90 49 00
        E 5 90 4a 40
        E 67 90 4c 39
        E 56 90 4e 44
        E 61 90 4c 00
        E 0 90 4e 00
        E 5 90 4a 00
        E 16 e0 55 4a
        E 0 90 4f 37
        E 5 e0 55 4a
        E 5 e0 55 4a
        E 5 e0 2b 55
        E 6 e0 2b 55
        E 5 e0 2b 55
        E 5 e0 2b 55
        E 6 e0 2b 55
        E 5 e0 2b 55
        E 5 e0 2b 55
        E 6 e0 2b 55
        E 5 e0 55 4a
        E 5 e0 55 4a
        E 5 e0 2b 55
        E 6 e0 2b 55
        E 5 e0 2b 55
        E 5 e0 2b 55
        E 6 e0 2b 55
        E 5 e0 2b 55
        E 5 e0 2b 55
        E 5 e0 2b 55
        E 6 e0 55 4a
        E 5 e0 55 4a
        E 5 e0 55 4a
        E 6 e0 55 4a
        E 5 e0 55 4a
        E 5 e0 55 4a
        E 6 e0 55 4a
        E 0 90 4f 00
        E 10 90 51 4b
        E 5 90 45 45
        E 82 90 43 2d
        E 25 90 40 38
        E 26 90 45 00
        E 15 90 3e 45
        E 15 90 43 00
        E 32 90 40 00
        E 0 90 51 00
        E 20 90 42 58
        E 5 90 3e 00
        E 0 90 3e 44
        E 77 90 42 00
        E 0 90 42 53
        E 56 90 3e 00
        E 0 90 3e 4d
        E 5 90 42 00
        E 0 90 42 44
        E 15 90 51 41
        E 51 90 42 00
        E 0 90 42 50
        E 6 90 3e 00
        E 0 90 3e 56
        E 5 90 51 00
        E 56 90 42 00
        E 0 90 42 55
        E 5 90 3e 00
        E 0 90 3e 55
        E 56 90 42 00
        E 0 90 42 55
        E 10 90 3e 00
        E 0 90 3e 3e
        E 62 90 42 00
        E 0 90 42 3a
        E 0 90 4e 4d
        E 51 90 3e 00
        E 102 90 3e 4f
        E 56 90 42 00
        E 15 90 36 38
        E 0 90 3e 00
        E 0 90 3e 47
        E 82 90 3e 00
        E 0 90 3e 37
        E 36 90 36 00
        E 41 90 4e 00
        E 0 90 4e 4c
        E 5 90 3e 00
        E 0 90 3e 41
        E 57 90 36 2e
        E 15 90 3e 00
        E 0 90 3e 41
        E 61 90 36 00
        E 0 90 36 3a
        E 0 90 4e 00
        E 46 90 3e 00
        E 0 90 3e 3d
        E 62 90 36 00
        E 5 90 3b 45
        E 66 90 4a 4e
        E 5 90 3e 00
        E 0 90 3e 38
        E 62 90 4e 40
        E 40 90 3b 00
        E 16 90 3e 00
        E 15 90 37 3c
        E 10 90 4a 00
        E 51 90 4e 00
        E 16 90 4c 41
        E 41 90 37 00
        E 15 90 47 4b
        E 71 90 39 40
        E 5 90 47 00
        E 0 90 47 31
        E 26 90 4c 00
        E 46 90 39 00
        E 0 90 40 30
        E 5 90 49 42
        E 26 90 47 00
        E 35 90 43 3d
        E 0 90 4c 4a
        E 6 90 49 00
        E 45 90 40 00
        E 36 90 3e 24
        E 0 90 4a 3a
        E 5 90 42 54
        E 0 90 43 00
        E 0 90 4c 00
        E 57 90 3e 00
        E 0 90 3e 3d
        E 77 90 39 4a
        E 102 90 42 00
        E 20 90 4a 00
        E 16 90 32 3d
        E 30 90 39 00
        E 5 90 3e 00
        E 164 90 26 56
        E 5 90 32 00
        E 388 90 26 00
        E 5 90 3e 51
        E 0 90 51 3a
        E 93 90 4f 45
        E 5 90 4c 3b
        E 15 90 3e 00
        E 62 90 4a 3b
        E 5 90 4f 00
        E 0 90 4f 3d
        E 0 90 51 00
        E 25 90 4c 00
        E 36 90 3e 26
        E 0 90 4a 00
        E 0 90 4a 57
        E 0 90 4e 3a
        E 0 90 4f 00
        E 72 90 4e 00
        E 0 90 4e 4b
        E 5 90 4a 00
        E 0 90 4a 4c
        E 20 90 3e 00
        E 46 90 4e 00
        E 0 90 4e 52
        E 5 90 4a 00
        E 0 90 4a 55
        E 72 90 4e 00
        E 0 90 4e 4c
        E 5 90 4a 00
        E 0 90 4a 5e
        E 71 90 4a 00
        E 0 90 4a 51
        E 0 90 4e 00
        E 0 90 4e 46
        E 62 90 4e 00
        E 0 90 4e 53
        E 5 90 4a 00
        E 0 90 4a 4c
        E 76 90 4a 00
        E 11 90 4e 00
        E 0 90 4e 41
        E 5 90 32 53
        E 66 90 4c 46
        E 5 90 43 48
        E 0 90 4e 00
        E 77 90 42 4a
        E 0 90 43 00
        E 0 90 4a 46
        E 5 90 32 00
        E 56 90 4c 00
        E 5 90 42 00
        E 0 90 42 4e
        E 0 90 4a 00
        E 0 90 4a 51
        E 67 90 42 00
        E 0 90 42 54
        E 0 90 4a 00
        E 0 90 4a 55
        E 72 90 4a 00
        E 0 90 4a 5c
        E 5 90 42 00
        E 0 90 42 4e
        E 71 90 42 00
        E 0 90 42 5b
        E 0 90 4a 00
        E 0 90 4a 5f
        E 72 90 42 00
        E 0 90 42 5c
        E 0 90 4a 00
        E 0 90 4a 51
        E 66 90 42 00
        E 0 90 42 48
        E 62 90 4a 00
        E 15 90 3b 52
        E 46 90 42 00
        E 25 90 4a 47
        E 51 90 3b 00
        E 11 90 4e 3f
        E 10 90 45 49
        E 46 90 4a 00
        E 25 90 37 49
        E 0 90 43 1f
        E 21 90 4e 00
        E 5 90 45 00
        E 36 90 4c 41
        E 5 90 43 00
        E 0 90 43 3e
        E 5 90 37 00
        E 0 90 37 40
        E 66 90 4f 2e
        E 5 90 37 00
        E 0 90 47 37
        E 57 90 43 00
        E 10 90 39 42
        E 36 90 47 00
        E 0 90 4c 00
        E 26 90 4f 00
        E 5 90 39 00
        E 0 90 49 40
        E 71 90 4c 52
        E 31 90 49 00
        E 46 90 4a 43
        E 5 90 32 4a
        E 0 90 4c 00
        E 66 90 45 42
        E 67 90 47 44
        E 15 90 4a 00
        E 21 90 45 00
        E 10 90 32 00
        E 25 90 49 4d
        E 57 90 47 00
        E 10 90 49 00
        E 5 90 4a 4f
        E 66 90 4c 4a
        E 72 90 4e 3d
        E 10 90 4a 00
        E 46 90 4c 00
        E 61 90 4e 00
        E 26 e0 55 4a
        E 0 90 50 4a
        E 5 e0 55 4a
        E 6 e0 55 4a
        E 5 e0 55 4a
        E 5 e0 2b 55
        E 6 e0 2b 55
        E 5 e0 2b 55
        E 6 e0 2b 55
        E 5 e0 55 4a
        E 5 e0 55 4a
        E 6 e0 55 4a
        E 5 e0 55 4a
        E 5 e0 55 4a
        E 6 e0 55 4a
        E 5 e0 55 4a
        E 6 e0 55 4a
        E 5 e0 55 4a
        E 5 e0 55 4a
        E 6 e0 55 4a
        E 5 e0 55 4a
        E 0 90 50 00
        E 0 90 51 51
        E 5 90 45 2d
        E 72 90 40 42
        E 10 90 43 32
        E 6 90 45 00
        E 61 90 3e 4e
        E 0 90 43 00
        E 5 90 51 00
        E 5 90 42 25
        E 15 90 40 00
        E 46 90 42 00
        E 0 90 42 57
        E 6 90 3e 00
        E 0 90 3e 4a
        E 71 90 42 00
        E 0 90 42 42
        E 5 90 3e 00
        E 0 90 3e 53
        E 0 90 51 29
        E 61 90 3e 00
        E 0 90 3e 4a
        E 0 90 42 00
        E 0 90 42 4b
        E 0 90 51 00
        E 0 90 51 3c
        E 31 90 56 4b
        E 31 90 51 00
        E 5 90 42 00
        E 0 90 42 50
        E 10 90 3e 00
        E 0 90 3e 52
        E 15 90 56 00
        E 41 90 42 00
        E 0 90 42 54
        E 5 90 3e 00
        E 0 90 3e 58
        E 57 90 42 00
        E 0 90 42 53
        E 0 90 4e 18
        E 5 90 3e 00
        E 0 90 3e 35
        E 66 90 42 00
        E 0 90 42 4d
        E 0 90 4e 00
        E 0 90 4e 4f
        E 112 90 3e 00
        E 46 90 36 2e
        E 0 90 42 00
        E 0 90 42 3d
        E 67 90 42 00
        E 5 90 3e 4f
        E 5 90 36 00
        E 0 90 36 34
        E 72 90 3e 00
        E 0 90 3e 42
        E 36 90 36 00
        E 25 90 3e 00
        E 0 90 3e 3f
        E 16 90 36 2b
        E 0 90 4e 00
        E 0 90 4e 4e
        E 51 90 3e 00
        E 0 90 3e 43
        E 15 90 36 00
        E 0 90 36 39
        E 67 90 36 00
        E 0 90 36 2f
        E 0 90 3e 00
        E 0 90 3e 53
        E 5 90 4e 00
        E 56 90 36 00
        E 0 90 36 3b
        E 0 90 3e 00
        E 0 90 3e 46
        E 0 90 42 2a
        E 61 90 42 00
        E 10 90 36 00
        E 0 90 36 33
        E 0 90 3b 53
        E 11 90 3e 00
        E 61 90 3e 2e
        E 0 90 4a 4e
        E 5 90 3b 00
        E 0 90 3b 32
        E 56 90 36 00
        E 21 90 4e 3e
        E 25 90 3b 00
        E 26 90 3e 00
        E 61 90 4a 00
        E 5 90 4e 00
        E 15 90 4c 47
        E 149 90 39 3e
        E 35 90 4c 00
        E 21 90 39 00
        E 11 90 40 3d
        E 0 90 49 4f
        E 66 90 43 38
        E 5 90 40 00
        E 0 90 40 31
        E 0 90 4c 32
        E 46 90 49 00
        E 15 90 40 00
        E 0 90 4c 00
        E 16 90 43 00
        E 5 90 4a 4e
        E 5 90 42 52
        E 61 90 3e 45
        E 87 90 39 43
        E 56 90 36 2c
        E 11 90 3e 00
        E 0 90 3e 45
        E 61 90 3e 00
        E 0 90 3e 39
        E 5 90 32 44
        E 5 90 4a 00
        E 10 90 39 00
        E 41 90 36 00
        E 15 90 42 00
        E 6 90 3e 00
        E 30 90 32 00
        E 87 e0 55 4a
        E 0 90 26 4e
        E 5 e0 55 4a
        E 5 e0 55 4a
        E 5 e0 55 4a
        E 6 e0 55 4a
        E 5 e0 55 4a
        E 5 e0 55 4a
        E 5 e0 55 4a
        E 5 e0 55 4a
        E 5 e0 55 4a
        E 5 e0 55 4a
        E 5 e0 55 4a
        E 5 e0 55 4a
        E 6 e0 55 4a
        E 5 e0 55 4a
        E 5 e0 55 4a
        E 5 e0 55 4a
        E 5 e0 55 4a
        E 5 e0 55 4a
        E 5 e0 55 4a
        E 5 e0 55 4a
        E 5 e0 55 4a
        E 6 e0 55 4a
        E 5 e0 55 4a
        E 5 e0 55 4a
        E 5 e0 55 4a
        E 5 e0 55 4a
        E 5 e0 55 4a
        E 5 e0 55 4a
        E 5 e0 55 4a
        E 6 e0 55 4a
        E 5 e0 55 4a
        E 5 e0 55 4a
        E 5 e0 55 4a
        E 5 e0 55 4a
        E 5 e0 55 4a
        E 5 e0 55 4a
        E 5 e0 55 4a
        E 5 e0 55 4a
        E 6 e0 55 4a
        E 5 e0 55 4a
        E 5 e0 55 4a
        E 5 e0 55 4a
        E 5 e0 55 4a
        E 5 e0 55 4a
        E 5 e0 55 4a
        E 5 e0 55 4a
        E 6 e0 55 4a
        E 5 e0 55 4a
        E 5 e0 55 4a
        E 5 e0 55 4a
        E 5 e0 55 4a
        E 5 e0 55 4a
        E 5 e0 55 4a
        E 5 e0 55 4a
        E 5 e0 55 4a
        E 6 e0 55 4a
        E 5 e0 55 4a
        E 5 e0 55 4a
        E 5 e0 55 4a
        E 5 e0 55 4a
        E 5 e0 55 4a
        E 5 e0 55 4a
        E 5 e0 55 4a
        E 0 90 26 00
        E 31 90 40 2c
        E 0 90 4c 53
        E 15 90 49 3f
        E 16 90 2d 4a
        E 56 90 40 00
        E 46 90 39 36
        E 0 90 45 4a
        E 15 90 4c 00
        E 31 90 49 00
        E 36 90 4f 53
        E 5 90 39 00
        E 0 90 39 36
        E 0 90 4c 47
        E 46 90 45 00
        E 25 90 4f 00
        E 0 90 4f 5e
        E 77 90 49 4b
        E 61 90 4c 00
        E 5 90 49 00
        E 0 90 49 3a
        E 0 90 4f 00
        E 0 90 4f 54
        E 0 90 55 3e
        E 72 90 55 00
        E 0 90 55 2c
        E 10 90 4f 00
        E 0 90 4f 30
        E 56 90 4c 68
        E 0 90 58 1f
        E 31 90 49 00
        E 36 90 4c 00
        E 0 90 4c 4f
        E 0 90 4f 00
        E 0 90 4f 3a
        E 0 90 58 00
        E 0 90 58 42
        E 56 90 55 00
        E 5 90 39 00
        E 31 90 2d 00
        E 0 90 45 63
        E 0 90 58 00
        E 26 90 4f 00
        E 61 90 45 00
        E 0 90 45 41
        E 0 90 4c 00
        E 66 90 53 51
        E 6 90 56 40
        E 71 90 51 3e
        E 5 90 45 00
        E 0 90 45 2f
        E 61 90 53 00
        E 0 90 53 44
        E 36 90 56 00
        E 36 90 4e 4c
        E 0 90 53 00
        E 5 90 45 00
        E 0 90 45 32
        E 56 90 51 00
        E 10 90 45 00
        E 0 90 4c 29
        E 0 90 4e 00
        E 0 90 4e 36
        E 67 90 4e 00
        E 0 90 4e 33
        E 10 90 4a 3f
        E 66 90 4a 00
        E 0 90 4c 00
        E 0 90 4c 40
        E 6 90 49 45
        E 97 90 4e 00
        E 0 90 4e 4e
        E 10 90 32 44
        E 0 90 3e 3b
        E 5 90 49 00
        E 0 90 4a 20
        E 66 90 45 4d
        E 0 90 51 29
        E 16 90 4a 00
        E 5 90 4c 00
        E 46 90 4e 00
        E 0 90 4e 50
        E 0 90 51 00
        E 0 90 51 50
        E 51 90 3e 00
        E 0 90 45 00
        E 11 90 4e 00
        E 0 90 4e 39
        E 5 90 45 25
        E 0 90 51 00
        E 0 90 51 4f
        E 61 90 45 00
        E 5 90 32 00
        E 0 90 4a 64
        E 0 90 56 26
        E 77 90 4a 00
        E 0 90 4a 45
        E 0 90 56 00
        E 0 90 56 52
        E 36 90 51 00
        E 15 90 4e 00
        E 25 90 4a 00
        E 0 90 4a 34
        E 0 90 56 00
        E 0 90 56 4d
        E 62 90 4a 00
        E 97 90 56 00
        E 0 90 56 4c
        E 5 90 4e 37
        E 102 90 4e 00
        E 21 90 26 4d
        E 30 90 56 00
        E 56 90 49 43
        E 62 90 49 00
        E 0 90 4a 42
        E 102 90 26 00
        E 25 90 4a 00
        E 5 e0 55 4a
        E 0 90 4c 47
        E 6 e0 55 4a
        E 5 e0 55 4a
        E 5 e0 55 4a
        E 5 e0 55 4a
        E 5 e0 2b 55
        E 5 e0 55 4a
        E 5 e0 55 4a
        E 6 e0 55 4a
        E 5 e0 55 4a
        E 5 e0 55 4a
        E 5 e0 55 4a
        E 5 e0 55 4a
        E 5 e0 55 4a
        E 5 e0 55 6a
        E 6 e0 55 6a
        E 5 e0 55 6a
        E 5 e0 55 6a
        E 5 e0 55 6a
        E 0 90 4c 00
        E 36 e0 55 4a
        E 0 90 4e 45
        E 5 e0 55 4a
        E 5 e0 55 4a
        E 6 e0 55 4a
        E 5 e0 55 4a
        E 5 e0 55 4a
        E 6 e0 55 4a
        E 5 e0 55 4a
        E 5 e0 55 4a
        E 6 e0 55 4a
        E 5 e0 55 4a
        E 5 e0 55 4a
        E 6 e0 55 4a
        E 5 e0 55 4a
        E 5 e0 55 4a
        E 6 e0 55 4a
        E 5 e0 55 4a
        E 5 e0 55 4a
        E 6 e0 55 4a
        E 5 e0 55 4a
        E 5 e0 55 4a
        E 6 e0 55 4a
        E 5 e0 55 4a
        E 5 e0 55 4a
        E 0 90 4e 00
        E 16 e0 55 4a
        E 0 90 50 44
        E 5 e0 55 4a
        E 6 e0 55 4a
        E 5 e0 55 4a
        E 6 e0 55 4a
        E 5 e0 55 4a
        E 6 e0 55 4a
        E 5 e0 55 4a
        E 6 e0 55 4a
        E 5 e0 55 4a
        E 6 e0 55 4a
        E 6 e0 55 4a
        E 5 e0 55 4a
        E 0 90 50 00
        E 5 e0 55 4a
        E 0 90 51 51
        E 6 e0 55 4a
        E 5 e0 55 4a
        E 6 e0 55 4a
        E 5 e0 55 4a
        E 6 e0 55 4a
        E 5 e0 55 4a
        E 6 e0 55 4a
        E 5 e0 55 4a
        E 5 e0 55 4a
        E 6 e0 55 4a
        E 5 e0 55 4a
        E 6 e0 55 4a
        E 5 e0 55 4a
        E 6 e0 2b 55
        E 0 90 51 00
        E 0 90 51 3b
        E 5 e0 55 4a
        E 6 e0 55 4a
        E 5 e0 55 4a
        E 6 e0 55 4a
        E 5 e0 55 4a
        E 6 e0 55 4a
        E 5 e0 55 4a
        E 6 e0 55 4a
        E 5 e0 55 4a
        E 6 e0 55 4a
        E 5 e0 55 4a
        E 6 e0 55 4a
        E 5 e0 55 4a
        E 0 90 51 00
        E 57 e0 55 4a
        E 0 90 54 45
        E 5 e0 55 4a
        E 5 e0 55 4a
        E 6 e0 2b 55
        E 5 e0 2b 55
        E 5 e0 2b 55
        E 6 e0 2b 55
        E 5 e0 2b 55
        E 5 e0 55 4a
        E 6 e0 55 4a
        E 5 e0 55 4a
        E 5 e0 55 4a
        E 6 e0 55 4a
        E 5 e0 55 2a
        E 5 e0 55 2a
        E 6 e0 55 2a
        E 5 e0 55 2a
        E 5 e0 55 2a
        E 6 e0 55 2a
        E 5 e0 55 4a
        E 5 e0 55 4a
        E 6 e0 55 4a
        E 5 e0 55 4a
        E 0 90 54 00
        E 15 e0 55 4a
        E 0 90 52 3e
        E 6 e0 55 4a
        E 5 e0 55 4a
        E 6 e0 55 4a
        E 6 e0 55 4a
        E 5 e0 55 4a
        E 6 e0 55 4a
        E 5 e0 55 4a
        E 6 e0 55 4a
        E 6 e0 55 4a
        E 5 e0 55 4a
        E 6 e0 55 4a
        E 0 90 52 00
        E 0 90 52 33
        E 66 90 3d 4c
        E 26 90 52 00
        E 118 90 43 29
        E 66 90 43 00
        E 77 90 42 5f
        E 15 90 3d 00
        E 0 90 3e 5a
        E 66 90 3e 00
        E 0 90 3e 40
        E 0 90 42 00
        E 0 90 42 36
        E 0 90 56 37
        E 62 90 3e 00
        E 61 90 42 00
        E 10 90 56 00
        E 143 e0 55 4a
        E 0 90 52 34
        E 6 e0 55 4a
        E 5 e0 55 4a
        E 6 e0 55 4a
        E 5 e0 55 4a
        E 5 e0 55 4a
        E 6 e0 2b 55
        E 5 e0 55 4a
        E 6 e0 55 4a
        E 5 e0 55 4a
        E 6 e0 55 4a
        E 5 e0 55 4a
        E 5 e0 55 4a
        E 6 e0 55 4a
        E 5 e0 55 4a
        E 6 e0 55 4a
        E 5 e0 55 4a
        E 0 90 52 00
        E 31 90 3d 57
        E 0 90 43 37
        E 255 90 43 00
        E 26 90 3d 00
        E 0 90 3e 4e
        E 0 90 42 4d
        E 67 90 4d 3f
        E 0 90 50 3a
        E 25 90 3e 00
        E 26 90 42 00
        E 10 90 4d 00
        E 72 90 50 00
        E 20 90 37 3f
        E 71 90 4b 43
        E 0 90 4e 4d
        E 16 90 37 00
        E 133 90 38 42
        E 0 90 4e 00
        E 15 90 4b 00
        E 46 90 38 00
        E 10 90 4d 51
        E 10 90 49 32
        E 57 90 4d 00
        E 0 90 4e 43
        E 86 90 49 00
        E 0 90 49 48
        E 0 90 4c 52
        E 16 90 4e 00
        E 61 90 2d 47
        E 36 90 4c 00
        E 5 90 49 00
        E 51 90 31 43
        E 67 90 34 30
        E 51 90 31 00
        E 66 90 2d 00
        E 0 90 34 00
        E 87 e0 55 4a
        E 0 90 3b 45
        E 6 e0 55 4a
        E 5 e0 55 4a
        E 6 e0 55 4a
        E 5 e0 55 4a
        E 6 e0 55 4a
        E 5 e0 55 4a
        E 6 e0 55 4a
        E 5 e0 55 4a
        E 6 e0 55 4a
        E 5 e0 55 4a
        E 5 e0 55 4a
        E 6 e0 2b 55
        E 5 e0 2b 55
        E 6 e0 55 6a
        E 0 90 3b 00
        E 0 90 3c 5d
        E 5 e0 55 4a
        E 6 e0 55 4a
        E 6 e0 55 4a
        E 5 e0 55 4a
        E 6 e0 55 4a
        E 5 e0 55 4a
        E 6 e0 55 4a
        E 5 e0 55 4a
        E 6 e0 55 4a
        E 5 e0 55 4a
        E 6 e0 55 4a
        E 5 e0 55 4a
        E 0 90 3c 00
        E 0 90 3d 48
        E 6 e0 55 4a
        E 5 e0 55 4a
        E 5 e0 55 4a
        E 6 e0 55 4a
        E 5 e0 55 4a
        E 6 e0 55 4a
        E 5 e0 55 4a
        E 5 e0 55 4a
        E 6 e0 55 4a
        E 5 e0 55 4a
        E 5 e0 55 4a
        E 6 e0 55 4a
        E 5 e0 55 4a
        E 6 e0 55 4a
        E 5 e0 55 4a
        E 5 e0 55 4a
        E 6 e0 55 4a
        E 5 e0 55 4a
        E 5 e0 55 4a
        E 0 90 3d 00
        E 11 90 4e 37
        E 10 90 3e 5d
        E 174 90 4e 00
        E 0 90 4e 3e
        E 5 90 3e 00
        E 0 90 3e 3b
        E 0 90 4a 3c
        E 66 90 4e 00
        E 0 90 4e 46
        E 5 90 3e 00
        E 0 90 3e 32
        E 0 90 4a 00
        E 0 90 4a 43
        E 72 90 3e 00
        E 0 90 3e 34
        E 0 90 4a 00
        E 0 90 4a 4c
        E 0 90 4e 00
        E 0 90 4e 46
        E 67 90 4a 00
        E 0 90 4a 44
        E 0 90 4e 00
        E 0 90 4e 3f
        E 30 90 3e 00
        E 36 90 4a 00
        E 0 90 4a 4e
        E 0 90 4e 00
        E 0 90 4e 49
        E 72 90 4e 00
        E 0 90 4e 48
        E 5 90 4a 00
        E 0 90 4a 54
        E 61 90 4a 00
        E 0 90 4a 4a
        E 0 90 4e 00
        E 0 90 4e 4d
        E 66 90 4a 00
        E 21 90 4e 00
        E 0 90 4e 27
        E 5 90 32 4d
        E 56 90 4e 00
        E 16 90 4c 37
        E 71 90 42 4b
        E 5 90 4a 33
        E 0 90 4c 00
        E 82 90 42 00
        E 0 90 42 4d
        E 0 90 4a 00
        E 0 90 4a 53
        E 46 90 32 00
        E 15 90 4a 00
        E 0 90 4a 4f
        E 5 90 42 00
        E 0 90 42 58
        E 72 90 42 00
        E 0 90 42 54
        E 0 90 4a 00
        E 0 90 4a 57
        E 61 90 4a 00
        E 0 90 4a 5a
        E 5 90 42 00
        E 0 90 42 58
        E 82 90 42 00
        E 0 90 42 4e
        E 0 90 4a 00
        E 0 90 4a 5b
        E 57 90 42 00
        E 0 90 42 39
        E 0 90 4a 00
        E 0 90 4a 51
        E 87 90 3b 46
        E 61 90 3b 00
        E 5 90 4a 00
        E 0 90 4a 4e
        E 46 90 42 00
        E 15 90 4e 30
        E 5 90 45 48
        E 82 90 37 3f
        E 21 90 45 00
        E 0 90 4e 00
        E 25 90 4a 00
        E 26 90 43 30
        E 5 90 4c 41
        E 56 90 37 00
        E 10 90 47 42
        E 61 90 43 00
        E 11 90 4c 00
        E 5 90 39 3e
        E 25 90 47 00
        E 41 90 40 34
        E 0 90 49 43
        E 61 90 4c 4a
        E 11 90 39 00
        E 41 90 49 00
        E 5 90 40 00
        E 30 90 32 51
        E 5 90 4c 00
        E 62 90 45 34
        E 67 90 47 40
        E 25 90 45 00
        E 31 90 32 00
        E 10 90 49 51
        E 21 90 47 00
        E 51 90 49 00
        E 0 90 4a 48
        E 66 90 4c 49
        E 66 90 4e 47
        E 6 90 4a 00
        E 30 90 4c 00
        E 26 90 4e 00
        E 87 e0 55 4a
        E 0 90 50 49
        E 5 e0 55 4a
        E 5 e0 55 4a
        E 6 e0 2b 55
        E 5 e0 2b 55
        E 5 e0 55 4a
        E 6 e0 55 4a
        E 5 e0 55 4a
        E 5 e0 55 4a
        E 6 e0 55 4a
        E 5 e0 55 4a
        E 6 e0 55 4a
        E 5 e0 55 4a
        E 5 e0 55 4a
        E 6 e0 55 4a
        E 5 e0 55 4a
        E 5 e0 2b 55
        E 6 e0 2b 55
        E 5 e0 2b 55
        E 5 e0 2b 55
        E 6 e0 2b 55
        E 0 90 50 00
        E 5 90 45 2b
        E 0 90 51 56
        E 87 90 45 00
        E 5 90 40 3b
        E 5 90 43 30
        E 66 90 3e 4d
        E 11 90 51 00
        E 30 90 40 00
        E 5 90 43 00
        E 36 90 3e 00
        E 0 90 3e 49
        E 0 90 42 5d
        E 72 90 3e 00
        E 0 90 3e 44
        E 0 90 42 00
        E 0 90 42 4d
        E 31 90 51 2c
        E 31 90 3e 00
        E 0 90 3e 44
        E 0 90 42 00
        E 0 90 42 3c
        E 30 90 51 00
        E 0 90 51 43
        E 41 90 56 32
        E 5 90 3e 00
        E 0 90 3e 4b
        E 0 90 42 00
        E 0 90 42 48
        E 36 90 51 00
        E 31 90 42 00
        E 0 90 42 57
        E 5 90 3e 00
        E 0 90 3e 56
        E 41 90 56 00
        E 20 90 3e 00
        E 0 90 3e 4d
        E 0 90 42 00
        E 0 90 42 51
        E 77 90 3e 00
        E 10 90 42 00
        E 0 90 42 49
        E 0 90 4e 57
        E 143 90 42 00
        E 5 90 3e 4e
        E 82 90 36 2b
        E 0 90 42 36
        E 5 90 3e 00
        E 0 90 3e 4a
        E 56 90 4e 00
        E 10 90 36 00
        E 0 90 36 3f
        E 0 90 3e 00
        E 0 90 3e 45
        E 5 90 42 00
        E 77 90 3e 00
        E 0 90 3e 47
        E 10 90 36 00
        E 16 90 4e 48
        E 35 90 51 2d
        E 5 90 36 33
        E 0 90 3e 00
        E 0 90 3e 52
        E 67 90 3e 00
        E 0 90 3e 58
        E 46 90 51 00
        E 5 90 4e 00
        E 21 90 36 00
        E 0 90 36 3b
        E 0 90 3e 00
        E 0 90 3e 3a
        E 71 90 3b 54
        E 5 90 36 00
        E 0 90 36 2e
        E 57 90 3b 00
        E 0 90 3b 34
        E 0 90 3e 00
        E 0 90 3e 3b
        E 0 90 42 2f
        E 0 90 4a 4d
        E 35 90 36 00
        E 31 90 4e 3c
        E 31 90 3b 00
        E 25 90 3e 00
        E 16 90 37 3c
        E 0 90 4a 00
        E 0 90 4a 29
        E 51 90 42 00
        E 0 90 4e 00
        E 10 90 4a 00
        E 10 90 4c 31
        E 46 90 37 00
        E 15 90 47 40
        E 67 90 4c 00
        E 15 90 39 40
        E 67 90 40 30
        E 0 90 49 41
        E 5 90 39 00
        E 20 90 47 00
        E 41 90 43 3f
        E 56 90 49 00
        E 10 90 40 00
        E 21 90 3e 22
        E 0 90 43 00
        E 0 90 4a 4a
        E 10 90 42 5a
        E 61 90 3e 00
        E 0 90 3e 3c
        E 72 90 39 47
        E 72 90 36 35
        E 0 90 42 00
        E 0 90 42 29
        E 20 90 39 00
        E 31 90 4a 00
        E 10 90 3e 00
        E 0 90 3e 35
        E 16 90 32 48
        E 0 90 36 00
        E 0 90 36 30
        E 35 90 42 00
        E 11 90 3e 00
        E 81 90 32 00
        E 31 90 36 00
        E 46 90 32 2f
        E 31 90 26 4b
        E 40 90 32 00
        E 353 90 26 00
        E 292 e0 55 4a
        E 0 90 51 54
        E 5 e0 55 4a
        E 5 e0 55 4a
        E 6 e0 55 4a
        E 5 e0 55 4a
        E 5 e0 55 4a
        E 5 e0 2b 55
        E 6 e0 2b 55
        E 5 e0 55 4a
        E 5 e0 55 4a
        E 6 e0 55 4a
        E 5 e0 55 4a
        E 5 e0 55 4a
        E 5 e0 55 4a
        E 6 e0 55 4a
        E 5 e0 55 4a
        E 5 e0 55 4a
        E 6 e0 2b 55
        E 5 e0 2b 55
        E 5 e0 2b 55
        E 5 e0 2b 55
        E 6 e0 2b 55
        E 5 e0 2b 55
        E 5 e0 55 4a
        E 6 e0 2b 55
        E 5 e0 55 4a
        E 5 e0 2b 55
        E 6 e0 55 4a
        E 5 e0 55 4a
        E 0 90 51 00
        E 0 90 51 55
        E 5 e0 55 4a
        E 5 e0 55 4a
        E 6 e0 2b 55
        E 5 e0 2b 55
        E 5 e0 2b 55
        E 6 e0 2b 55
        E 5 e0 2b 55
        E 6 e0 2b 55
        E 5 e0 55 4a
        E 5 e0 55 4a
        E 6 e0 2b 55
        E 5 e0 2b 55
        E 5 e0 2b 55
        E 6 e0 2b 55
        E 5 e0 2b 55
        E 5 e0 2b 55
        E 6 e0 2b 55
        E 5 e0 2b 55
        E 5 e0 2b 55
        E 6 e0 2b 55
        E 5 e0 2b 55
        E 5 e0 2b 55
        E 0 90 51 00
        E 0 90 51 5a
        E 6 e0 55 4a
        E 5 e0 55 4a
        E 5 e0 55 4a
        E 6 e0 55 4a
        E 5 e0 2b 55
        E 5 e0 2b 55
        E 6 e0 2b 55
        E 5 e0 2b 55
        E 5 e0 55 4a
        E 6 e0 55 4a
        E 5 e0 55 4a
        E 6 e0 55 4a
        E 5 e0 2b 55
        E 5 e0 55 4a
        E 6 e0 2b 55
        E 5 e0 2b 55
        E 5 e0 2b 55
        E 6 e0 2b 55
        E 5 e0 2b 55
        E 5 e0 2b 55
        E 6 e0 55 4a
        E 0 90 49 2d
        E 0 90 51 00
        E 0 90 51 5b
        E 71 90 49 00
        E 31 90 51 00
        E 0 90 51 4b
        E 5 90 4e 38
        E 5 90 4a 35
        E 72 90 4e 00
        E 10 90 51 00
        E 0 90 51 4a
        E 10 90 56 44
        E 57 90 4a 00
        E 0 90 56 00
        E 71 90 4e 4a
        E 5 90 51 00
        E 103 e0 55 4a
        E 0 90 4e 00
        E 0 90 4e 55
        E 5 e0 55 4a
        E 5 e0 55 4a
        E 6 e0 55 4a
        E 5 e0 55 4a
        E 5 e0 55 4a
        E 6 e0 55 4a
        E 5 e0 55 4a
        E 5 e0 55 4a
        E 6 e0 55 4a
        E 5 e0 55 4a
        E 5 e0 2b 55
        E 6 e0 2b 55
        E 5 e0 2b 55
        E 5 e0 2b 55
        E 6 e0 2b 55
        E 5 e0 55 4a
        E 6 e0 55 4a
        E 5 e0 55 4a
        E 5 e0 55 4a
        E 6 e0 55 4a
        E 5 e0 55 4a
        E 0 90 4e 00
        E 0 90 4e 5e
        E 5 e0 55 4a
        E 6 e0 55 4a
        E 5 e0 55 4a
        E 5 e0 55 4a
        E 6 e0 55 4a
        E 5 e0 55 4a
        E 5 e0 55 4a
        E 6 e0 55 4a
        E 5 e0 55 4a
        E 6 e0 55 4a
        E 5 e0 55 4a
        E 5 e0 2b 55
        E 6 e0 2b 55
        E 5 e0 2b 55
        E 5 e0 2b 55
        E 6 e0 2b 55
        E 5 e0 2b 55
        E 5 e0 2b 55
        E 6 e0 55 4a
        E 5 e0 55 4a
        E 0 90 4c 2e
        E 0 90 4e 00
        E 0 90 4e 5a
        E 67 90 4c 00
        E 35 90 4e 00
        E 0 90 4e 48
        E 21 90 4a 37
        E 66 90 4a 00
        E 16 e0 55 4a
        E 0 90 4e 00
        E 0 90 4e 5d
        E 5 e0 55 4a
        E 6 e0 55 4a
        E 5 e0 55 4a
        E 6 e0 55 4a
        E 5 e0 55 4a
        E 6 e0 55 4a
        E 6 e0 55 4a
        E 5 e0 55 4a
        E 6 e0 55 4a
        E 5 e0 55 4a
        E 6 e0 55 4a
        E 0 90 4e 00
        E 0 90 4e 40
        E 66 90 4a 54
        E 113 90 4e 00
        E 5 90 42 39
        E 0 90 45 3f
        E 82 90 42 00
        E 26 90 45 00
        E 0 90 4c 51
        E 10 90 4a 00
        E 112 90 43 44
        E 82 90 4c 00
        E 5 90 43 00
        E 20 e0 55 4a
        E 0 90 4f 57
        E 6 e0 2b 55
        E 5 e0 2b 55
        E 6 e0 2b 55
        E 5 e0 2b 55
        E 6 e0 2b 55
        E 5 e0 2b 55
        E 5 e0 2b 55
        E 6 e0 2b 55
        E 5 e0 2b 55
        E 6 e0 2b 55
        E 5 e0 2b 55
        E 5 e0 2b 55
        E 6 e0 2b 55
        E 5 e0 2b 55
        E 6 e0 2b 55
        E 5 e0 2b 55
        E 5 e0 2b 55
        E 0 90 4f 00
        E 0 90 4f 4d
        E 67 90 45 41
        E 46 90 4f 00
        E 5 90 4e 46
        E 10 90 45 00
        E 10 90 3e 52
        E 41 90 4e 00
        E 5 90 4e 47
        E 87 90 4e 00
        E 10 90 4a 38
        E 11 90 4c 5c
        E 51 90 4a 00
        E 46 90 3e 00
        E 10 90 4c 00
        E 0 90 4c 3c
        E 15 90 4e 46
        E 72 90 4c 00
        E 31 90 4e 00
        E 0 90 4f 30
        E 102 90 51 4e
        E 36 90 4f 00
        E 51 90 51 00
        E 0 90 51 45
        E 20 90 53 31
        E 87 90 53 00
        E 10 e0 55 4a
        E 0 90 51 00
        E 0 90 51 56
        E 6 e0 55 4a
        E 5 e0 55 4a
        E 5 e0 55 4a
        E 6 e0 55 4a
        E 5 e0 55 4a
        E 6 e0 55 4a
        E 5 e0 55 4a
        E 5 e0 55 4a
        E 6 e0 55 4a
        E 5 e0 55 4a
        E 5 e0 55 4a
        E 6 e0 55 4a
        E 5 e0 55 4a
        E 5 e0 55 4a
        E 6 e0 55 4a
        E 5 e0 2b 55
        E 5 e0 2b 55
        E 6 e0 2b 55
        E 5 e0 2b 55
        E 5 e0 2b 55
        E 6 e0 2b 55
        E 0 90 51 00
        E 0 90 51 58
        E 5 e0 55 4a
        E 6 e0 55 4a
        E 5 e0 55 4a
        E 5 e0 55 4a
        E 6 e0 55 4a
        E 5 e0 55 4a
        E 5 e0 55 4a
        E 6 e0 55 4a
        E 5 e0 55 4a
        E 6 e0 55 4a
        E 5 e0 55 4a
        E 5 e0 55 4a
        E 6 e0 55 4a
        E 5 e0 55 4a
        E 5 e0 55 4a
        E 6 e0 55 4a
        E 5 e0 55 4a
        E 6 e0 55 4a
        E 5 e0 55 4a
        E 0 90 51 00
        E 0 90 51 57
        E 5 e0 55 4a
        E 6 e0 55 4a
        E 5 e0 55 4a
        E 5 e0 55 4a
        E 6 e0 55 4a
        E 5 e0 2b 55
        E 6 e0 55 4a
        E 5 e0 55 4a
        E 5 e0 55 4a
        E 6 e0 55 4a
        E 5 e0 55 4a
        E 5 e0 55 4a
        E 6 e0 55 4a
        E 5 e0 55 4a
        E 5 e0 55 4a
        E 6 e0 55 4a
        E 5 e0 2b 55
        E 6 e0 2b 55
        E 5 e0 2b 55
        E 5 e0 2b 55
        E 0 90 51 00
        E 0 90 51 58
        E 6 e0 2b 55
        E 5 e0 2b 55
        E 5 e0 55 4a
        E 6 e0 55 4a
        E 5 e0 55 4a
        E 5 e0 55 4a
        E 6 e0 55 4a
        E 5 e0 55 4a
        E 5 e0 55 4a
        E 6 e0 55 4a
        E 5 e0 55 4a
        E 5 e0 55 4a
        E 6 e0 55 4a
        E 5 e0 55 4a
        E 6 e0 2b 55
        E 5 e0 2b 55
        E 5 e0 2b 55
        E 6 e0 2b 55
        E 5 e0 2b 55
        E 5 e0 2b 55
        E 6 e0 55 4a
        E 0 90 51 00
        E 0 90 51 52
        E 5 e0 55 4a
        E 5 e0 55 4a
        E 5 e0 55 4a
        E 5 e0 55 4a
        E 5 e0 55 4a
        E 6 e0 55 4a
        E 5 e0 55 4a
        E 5 e0 55 4a
        E 5 e0 55 4a
        E 5 e0 55 4a
        E 5 e0 55 4a
        E 5 e0 55 4a
        E 5 e0 55 4a
        E 6 e0 55 4a
        E 5 e0 55 4a
        E 5 e0 55 4a
        E 5 e0 55 4a
        E 0 90 51 00
        E 0 90 51 3b
        E 51 90 56 38
        E 10 90 51 00
        E 46 90 4e 55
        E 87 90 56 00
        E 31 90 4c 1e
        E 0 90 4e 00
        E 0 90 4e 57
        E 61 90 4c 00
        E 51 e0 55 4a
        E 0 90 4e 00
        E 0 90 4e 56
        E 6 e0 55 4a
        E 5 e0 55 4a
        E 5 e0 55 4a
        E 6 e0 55 4a
        E 5 e0 55 4a
        E 6 e0 55 4a
        E 5 e0 55 4a
        E 5 e0 55 4a
        E 6 e0 55 4a
        E 5 e0 55 4a
        E 6 e0 55 4a
        E 5 e0 55 4a
        E 5 e0 55 4a
        E 6 e0 55 4a
        E 5 e0 55 4a
        E 5 e0 55 4a
        E 6 e0 55 4a
        E 5 e0 55 4a
        E 0 90 4e 00
        E 0 90 4e 58
        E 6 e0 55 4a
        E 5 e0 55 4a
        E 5 e0 55 4a
        E 6 e0 55 4a
        E 5 e0 55 4a
        E 5 e0 55 4a
        E 6 e0 55 4a
        E 5 e0 55 4a
        E 5 e0 55 4a
        E 6 e0 55 4a
        E 5 e0 55 4a
        E 5 e0 55 4a
        E 6 e0 55 4a
        E 5 e0 55 4a
        E 5 e0 55 4a
        E 6 e0 55 4a
        E 5 e0 55 4a
        E 5 e0 55 4a
        E 6 e0 55 4a
        E 5 e0 55 4a
        E 5 e0 55 4a
        E 6 e0 55 4a
        E 0 90 4e 00
        E 0 90 4e 56
        E 5 e0 55 4a
        E 6 e0 55 4a
        E 5 e0 55 4a
        E 6 e0 55 4a
        E 6 e0 55 4a
        E 5 e0 55 4a
        E 6 e0 55 4a
        E 5 e0 55 4a
        E 6 e0 55 4a
        E 5 e0 55 4a
        E 6 e0 55 4a
        E 0 90 4e 00
        E 0 90 4e 41
        E 6 e0 55 4a
        E 5 e0 55 4a
        E 6 e0 55 4a
        E 5 e0 55 4a
        E 6 e0 55 4a
        E 5 e0 55 4a
        E 6 e0 55 4a
        E 5 e0 55 4a
        E 6 e0 55 4a
        E 5 e0 55 4a
        E 6 e0 55 4a
        E 5 e0 55 4a
        E 6 e0 55 4a
        E 0 90 4e 00
        E 10 90 53 30
        E 71 90 4a 5b
        E 46 90 53 00
        E 67 90 42 44
        E 5 90 45 3f
        E 36 90 4e 4e
        E 46 90 42 00
        E 5 90 45 00
        E 5 90 4a 00
        E 0 90 4a 34
        E 0 90 4c 4f
        E 5 90 4e 00
        E 77 90 4a 00
        E 46 90 43 1f
        E 46 90 4f 3b
        E 26 90 43 00
        E 40 90 49 54
        E 26 90 4f 00
        E 0 90 4f 3f
        E 36 90 4c 00
        E 46 90 4f 00
        E 15 90 43 38
        E 46 90 4c 43
        E 31 90 43 00
        E 10 90 49 00
        E 15 90 4a 49
        E 97 90 4c 00
        E 16 90 2a 43
        E 15 90 36 2e
        E 46 90 2a 00
        E 5 90 2a 46
        E 26 90 4a 00
        E 30 90 36 00
        E 5 90 2a 00
        E 5 90 37 26
        E 6 90 2b 4b
        E 56 90 37 00
        E 46 90 2b 00
        E 16 e0 00 40
        E 0 90 2d 31
        E 5 e0 55 4a
        E 5 e0 55 4a
        E 5 e0 55 4a
        E 6 e0 55 4a
        E 5 e0 55 4a
        E 5 e0 55 4a
        E 6 e0 55 4a
        E 5 e0 55 4a
        E 5 e0 55 4a
        E 5 e0 00 40
        E 6 e0 00 40
        E 5 e0 00 40
        E 5 e0 00 40
        E 6 e0 00 40
        E 5 e0 00 40
        E 5 e0 00 40
        E 5 e0 00 40
        E 6 e0 00 40
        E 5 e0 00 40
        E 5 e0 00 40
        E 6 e0 00 40
        E 5 e0 00 40
        E 5 e0 00 40
        E 5 e0 00 40
        E 6 e0 00 40
        E 5 e0 55 4a
        E 5 e0 55 4a
        E 6 e0 55 4a
        E 5 e0 55 4a
        E 0 90 2d 00
        E 36 90 26 55
        E 92 90 32 34
        E 286 90 32 00
        E 102 90 26 00
        E 46 e0 55 4a
        E 0 90 51 46
        E 5 e0 55 4a
        E 5 e0 55 4a
        E 5 e0 55 4a
        E 5 e0 55 4a
        E 5 e0 2b 55
        E 6 e0 2b 55
        E 5 e0 55 4a
        E 5 e0 55 4a
        E 5 e0 55 4a
        E 5 e0 55 4a
        E 5 e0 55 4a
        E 5 e0 55 4a
        E 5 e0 55 4a
        E 6 e0 55 4a
        E 5 e0 55 4a
        E 5 e0 2b 55
        E 5 e0 2b 55
        E 5 e0 2b 55
        E 5 e0 55 4a
        E 5 e0 2b 55
        E 6 e0 55 4a
        E 5 e0 55 4a
        E 5 e0 55 4a
        E 0 90 51 00
        E 0 90 51 43
        E 5 e0 55 4a
        E 6 e0 55 4a
        E 5 e0 55 4a
        E 5 e0 55 4a
        E 6 e0 55 4a
        E 5 e0 55 4a
        E 5 e0 55 4a
        E 6 e0 55 4a
        E 5 e0 55 4a
        E 6 e0 55 4a
        E 5 e0 55 4a
        E 5 e0 55 4a
        E 6 e0 55 4a
        E 5 e0 55 4a
        E 5 e0 55 4a
        E 6 e0 55 4a
        E 5 e0 55 4a
        E 6 e0 55 4a
        E 5 e0 55 4a
        E 0 90 51 00
        E 0 90 51 52
        E 5 90 49 34
        E 82 90 49 00
        E 25 90 4a 36
        E 0 90 4e 2f
        E 0 90 51 00
        E 0 90 51 36
        E 62 90 4e 00
        E 15 90 4a 00
        E 15 90 4a 2b
        E 0 90 51 00
        E 0 90 51 57
        E 82 90 51 00
        E 0 90 51 39
        E 102 90 4a 00
        E 51 90 51 00
        E 26 e0 55 4a
        E 0 90 4e 57
        E 5 e0 55 4a
        E 6 e0 55 4a
        E 5 e0 55 4a
        E 5 e0 55 4a
        E 6 e0 55 4a
        E 5 e0 2b 55
        E 5 e0 2b 55
        E 6 e0 2b 55
        E 5 e0 2b 55
        E 5 e0 2b 55
        E 6 e0 2b 55
        E 5 e0 55 4a
        E 6 e0 55 4a
        E 5 e0 55 4a
        E 5 e0 55 4a
        E 6 e0 55 4a
        E 5 e0 55 4a
        E 5 e0 55 4a
        E 6 e0 55 4a
        E 5 e0 55 4a
        E 0 90 4e 00
        E 0 90 4e 5b
        E 5 e0 55 4a
        E 6 e0 55 4a
        E 5 e0 55 4a
        E 6 e0 55 4a
        E 5 e0 55 4a
        E 5 e0 2b 55
        E 6 e0 2b 55
        E 5 e0 2b 55
        E 5 e0 2b 55
        E 6 e0 2b 55
        E 5 e0 2b 55
        E 6 e0 2b 55
        E 5 e0 55 4a
        E 5 e0 55 4a
        E 6 e0 55 4a
        E 5 e0 55 4a
        E 6 e0 55 4a
        E 5 e0 55 4a
        E 5 e0 55 4a
        E 0 90 4e 00
        E 0 90 4e 3f
        E 5 90 46 3f
        E 67 90 46 00
        E 41 90 4a 45
        E 62 90 4a 00
        E 15 90 4e 00
        E 0 90 4e 4f
        E 25 90 53 48
        E 62 90 4e 00
        E 0 90 4e 3f
        E 0 90 53 00
        E 0 90 53 37
        E 61 90 4a 3a
        E 0 90 4e 00
        E 61 90 53 00
        E 46 90 42 45
        E 0 90 45 43
        E 87 90 4a 00
        E 10 90 42 00
        E 0 90 45 00
        E 16 90 4c 54
        E 102 90 47 4c
        E 20 90 43 36
        E 46 90 47 00
        E 5 90 47 3d
        E 41 90 4c 00
        E 10 90 4f 3b
        E 11 90 47 00
        E 15 90 43 00
        E 97 90 45 4c
        E 0 90 49 42
        E 31 90 4f 00
        E 56 90 49 00
        E 16 90 4e 50
        E 5 90 3e 42
        E 25 90 45 00
        E 31 90 4e 00
        E 0 90 4e 46
        E 66 90 4e 00
        E 16 90 4c 59
        E 30 90 3e 00
        E 77 90 4c 00
        E 0 90 4c 2b
        E 5 90 4e 5a
        E 87 90 4c 00
        E 20 90 4e 00
        E 0 90 4f 33
        E 108 90 51 43
        E 25 90 4f 00
        E 77 90 53 47
        E 10 90 51 00
        E 102 90 51 4d
        E 5 90 53 00
        E 103 e0 2b 55
        E 0 90 51 00
        E 0 90 51 53
        E 5 e0 55 4a
        E 5 e0 55 4a
        E 5 e0 55 4a
        E 5 e0 55 4a
        E 5 e0 55 4a
        E 5 e0 55 4a
        E 6 e0 55 4a
        E 5 e0 55 4a
        E 5 e0 55 4a
        E 5 e0 55 4a
        E 5 e0 55 4a
        E 5 e0 55 4a
        E 5 e0 55 4a
        E 5 e0 55 4a
        E 6 e0 55 4a
        E 5 e0 2b 55
        E 5 e0 2b 55
        E 5 e0 2b 55
        E 5 e0 2b 55
        E 5 e0 2b 55
        E 0 90 51 00
        E 0 90 51 55
        E 6 e0 55 4a
        E 5 e0 55 4a
        E 5 e0 55 4a
        E 6 e0 55 4a
        E 5 e0 2b 55
        E 6 e0 2b 55
        E 5 e0 55 4a
        E 5 e0 55 4a
        E 6 e0 55 4a
        E 5 e0 55 4a
        E 6 e0 55 4a
        E 5 e0 55 4a
        E 5 e0 55 4a
        E 6 e0 55 4a
        E 5 e0 55 4a
        E 6 e0 55 4a
        E 5 e0 2b 55
        E 5 e0 2b 55
        E 0 90 51 00
        E 0 90 51 59
        E 11 90 49 30
        E 66 90 49 00
        E 41 90 4a 30
        E 0 90 4e 31
        E 0 90 51 00
        E 0 90 51 44
        E 46 90 53 3a
        E 36 90 4a 00
        E 5 90 4e 00
        E 51 90 51 00
        E 10 90 56 31
        E 20 90 53 00
        E 41 90 4e 55
        E 82 90 56 00
        E 31 e0 55 4a
        E 0 90 4e 00
        E 0 90 4e 56
        E 5 e0 55 4a
        E 5 e0 55 4a
        E 6 e0 55 4a
        E 5 e0 55 4a
        E 5 e0 2b 55
        E 6 e0 2b 55
        E 5 e0 2b 55
        E 6 e0 2b 55
        E 5 e0 2b 55
        E 5 e0 2b 55
        E 6 e0 2b 55
        E 5 e0 55 4a
        E 5 e0 55 4a
        E 6 e0 55 4a
        E 5 e0 55 4a
        E 5 e0 55 4a
        E 6 e0 55 4a
        E 5 e0 55 4a
        E 6 e0 55 4a
        E 5 e0 55 4a
        E 0 90 4e 00
        E 0 90 4e 5c
        E 5 90 4a 36
        E 66 90 4a 00
        E 36 90 4e 00
        E 0 90 4e 4f
        E 108 90 4a 3c
        E 5 90 47 24
        E 51 90 4e 00
        E 0 90 4e 3c
        E 16 90 47 00
        E 0 90 4a 00
        E 20 90 52 53
        E 51 90 4e 00
        E 10 90 52 00
        E 5 90 52 38
        E 62 90 4a 4b
        E 81 90 52 00
        E 46 90 42 42
        E 0 90 45 40
        E 52 90 4e 4e
        E 25 90 42 00
        E 20 90 4c 48
        E 6 90 45 00
        E 76 90 4e 00
        E 10 90 4a 00
        E 16 90 43 45
        E 10 90 47 3f
        E 51 90 43 00
        E 5 90 43 3a
        E 0 90 4f 36
        E 41 90 47 00
        E 10 90 49 4d
        E 51 90 4c 00
        E 5 90 43 00
        E 52 90 4f 00
        E 77 90 4c 42
        E 35 90 49 00
        E 31 90 4a 42
        E 107 90 4c 00
        E 21 90 2a 3c
        E 0 90 36 28
        E 97 90 4a 00
        E 5 90 36 00
        E 5 90 2a 00
        E 10 90 37 30
        E 5 90 2b 44
        E 87 90 37 00
        E 11 90 2b 00
        E 224 e0 55 4a
        E 0 90 26 52
        E 5 e0 55 4a
        E 6 e0 55 4a
        E 5 e0 55 4a
        E 5 e0 55 4a
        E 5 e0 55 4a
        E 5 e0 55 4a
        E 5 e0 55 4a
        E 5 e0 55 4a
        E 5 e0 55 4a
        E 5 e0 55 4a
        E 6 e0 55 4a
        E 5 e0 55 4a
        E 5 e0 55 4a
        E 5 e0 55 4a
        E 5 e0 55 4a
        E 5 e0 55 4a
        E 5 e0 55 4a
        E 5 e0 55 4a
        E 5 e0 55 4a
        E 6 e0 55 4a
        E 5 e0 55 4a
        E 5 e0 55 4a
        E 5 e0 55 4a
        E 5 e0 55 4a
        E 5 e0 55 4a
        E 5 e0 55 4a
        E 5 e0 55 4a
        E 6 e0 55 4a
        E 5 e0 55 4a
        E 5 e0 55 4a
        E 5 e0 55 4a
        E 5 e0 55 4a
        E 5 e0 55 4a
        E 5 e0 55 4a
        E 5 e0 55 4a
        E 5 e0 55 4a
        E 6 e0 55 4a
        E 5 e0 55 4a
        E 5 e0 55 4a
        E 5 e0 55 4a
        E 5 e0 55 4a
        E 5 e0 55 4a
        E 5 e0 55 4a
        E 5 e0 55 4a
        E 5 e0 55 4a
        E 6 e0 55 4a
        E 5 e0 55 4a
        E 5 e0 55 4a
        E 5 e0 55 4a
        E 5 e0 55 4a
        E 5 e0 55 4a
        E 5 e0 55 4a
        E 5 e0 55 4a
        E 6 e0 55 4a
        E 5 e0 55 4a
        E 5 e0 55 4a
        E 5 e0 55 4a
        E 5 e0 55 4a
        E 5 e0 55 4a
        E 5 e0 55 4a
        E 5 e0 55 4a
        E 5 e0 55 4a
        E 6 e0 55 4a
        E 5 e0 55 4a
        E 5 e0 55 4a
        E 5 e0 55 4a
        E 5 e0 55 4a
        E 5 e0 55 4a
        E 5 e0 55 4a
        E 5 e0 55 4a
        E 5 e0 55 4a
        E 6 e0 55 4a
        E 5 e0 55 4a
        E 5 e0 55 4a
        E 5 e0 55 4a
        E 5 e0 55 4a
        E 5 e0 55 4a
        E 5 e0 55 4a
        E 5 e0 55 4a
        E 0 90 26 00
        E 46 90 4c 5d
        E 5 90 3d 3d
        E 6 90 39 4c
        E 158 90 4c 00
        E 0 90 4c 5c
        E 5 90 39 00
        E 0 90 39 50
        E 0 90 3d 00
        E 0 90 3d 46
        E 10 90 45 3f
        E 113 90 3d 00
        E 0 90 3d 50
        E 5 90 39 00
        E 0 90 39 4e
        E 0 90 45 00
        E 0 90 45 3c
        E 36 90 4c 00
        E 0 90 4c 5f
        E 71 90 4c 00
        E 0 90 4c 64
        E 5 90 3d 00
        E 0 90 3d 3e
        E 5 90 39 00
        E 0 90 39 44
        E 0 90 45 00
        E 0 90 45 37
        E 102 90 3d 00
        E 16 90 3e 40
        E 0 90 4c 00
        E 0 90 4d 56
        E 46 90 39 00
        E 0 90 39 31
        E 25 90 45 00
        E 26 90 4d 00
        E 0 90 4e 58
        E 11 90 3e 00
        E 0 90 3f 3b
        E 122 90 39 00
        E 41 90 4e 00
        E 0 90 4f 38
        E 5 90 39 34
        E 0 90 45 2a
        E 102 90 3f 00
        E 0 90 40 2e
        E 21 90 45 00
        E 219 90 40 00
        E 11 90 4f 00
        E 15 90 42 53
        E 56 90 39 00
        E 0 90 4a 62
        E 46 90 42 00
        E 0 90 43 45
        E 21 90 4a 00
        E 5 90 49 4d
        E 276 90 43 00
        E 5 90 49 00
        E 10 90 4e 69
        E 11 90 3e 54
        E 5 90 4a 2d
        E 76 90 4a 00
        E 62 90 4e 00
        E 0 90 4e 6b
        E 5 90 3e 00
        E 0 90 3e 56
        E 117 90 3e 00
        E 0 90 3e 5a
        E 0 90 4e 00
        E 0 90 4e 6b
        E 5 90 4a 49
        E 103 90 3e 00
        E 0 90 3e 58
        E 0 90 51 30
        E 5 90 4e 00
        E 0 90 4e 64
        E 5 90 4a 00
        E 0 90 4a 3d
        E 71 90 51 00
        E 31 90 40 4d
        E 0 90 4e 00
        E 0 90 4f 57
        E 5 90 3e 00
        E 0 90 3e 3c
        E 0 90 4a 00
        E 0 90 4a 3f
        E 97 90 4f 00
        E 0 90 50 56
        E 5 90 40 00
        E 0 90 41 35
        E 10 90 4a 00
        E 0 90 4a 38
        E 46 90 3e 00
        E 6 90 50 00
        E 0 90 50 54
        E 81 90 4a 00
        E 5 90 41 00
        E 11 90 4a 31
        E 0 90 50 00
        E 0 90 51 43
        E 10 90 3e 55
        E 0 90 42 40
        E 113 90 4a 00
        E 138 90 42 00
        E 20 90 51 00
        E 10 90 43 2f
        E 16 90 3e 00
        E 10 90 4e 4a
        E 46 90 4c 44
        E 15 90 4e 00
        E 36 90 42 3c
        E 0 90 43 00
        E 0 90 4a 5d
        E 25 90 4c 00
        E 98 90 4a 00
        E 0 90 4a 3f
        E 0 90 53 43
        E 0 90 56 5a
        E 86 90 4a 00
        E 21 90 53 00
        E 15 90 4a 35
        E 0 90 51 52
        E 0 90 55 45
        E 0 90 56 00
        E 26 90 42 00
        E 35 90 4a 00
        E 36 90 53 46
        E 0 90 55 00
        E 10 90 3d 45
        E 16 90 51 00
        E 97 90 3d 00
        E 0 90 3e 48
        E 0 90 4e 45
        E 0 90 51 41
        E 77 90 53 00
        E 31 90 40 44
        E 25 90 3e 00
        E 51 90 4e 00
        E 31 90 51 00
        E 5 90 42 4e
        E 112 90 56 46
        E 6 90 53 41
        E 35 90 40 00
        E 77 90 53 00
        E 10 90 51 38
        E 61 90 56 00
        E 11 90 42 00
        E 30 90 53 44
        E 133 90 51 00
        E 0 90 51 3a
        E 5 90 4a 3e
        E 67 90 53 00
        E 35 90 4a 00
        E 16 90 4c 54
        E 92 90 51 00
        E 41 90 4e 47
        E 15 90 4c 00
        E 97 90 53 52
        E 11 90 4b 3a
        E 56 90 4e 00
        E 25 90 4b 00
        E 21 90 4f 4c
        E 5 90 4c 3d
        E 71 90 53 00
        E 31 90 4c 00
        E 0 90 51 55
        E 97 90 4f 00
        E 16 90 4a 43
        E 0 90 4e 64
        E 102 90 51 00
        E 5 90 4e 00
        E 0 90 4f 48
        E 87 90 4a 00
        E 25 90 51 4c
        E 10 90 42 3d
        E 0 90 4a 40
        E 72 90 4f 00
        E 36 90 42 00
        E 5 90 53 59
        E 51 90 51 00
        E 108 90 4a 00
        E 41 90 4e 57
        E 15 90 53 00
        E 5 90 4a 35
        E 209 90 4a 00
        E 72 90 4e 00
        E 0 90 4e 51
        E 46 90 4c 48
        E 15 90 4e 00
        E 0 90 4e 3f
        E 87 90 4e 00
        E 0 90 4e 67
        E 102 90 4e 00
        E 0 90 4f 56
        E 21 90 4c 00
        E 97 e0 55 2a
        E 0 90 4f 00
        E 0 90 50 3d
        E 5 e0 55 2a
        E 5 e0 55 4a
        E 5 e0 55 4a
        E 5 e0 55 2a
        E 5 e0 55 2a
        E 6 e0 55 2a
        E 5 e0 55 2a
        E 5 e0 55 2a
        E 5 e0 55 2a
        E 5 e0 55 2a
        E 5 e0 55 2a
        E 5 e0 55 2a
        E 6 e0 55 2a
        E 5 e0 55 2a
        E 5 e0 55 4a
        E 5 e0 55 4a
        E 5 e0 55 4a
        E 5 e0 55 4a
        E 0 90 50 00
        E 10 e0 55 4a
        E 0 90 51 53
        E 6 e0 55 4a
        E 5 e0 55 4a
        E 6 e0 55 4a
        E 5 e0 55 4a
        E 6 e0 55 4a
        E 5 e0 55 4a
        E 6 e0 55 4a
        E 5 e0 55 4a
        E 6 e0 55 4a
        E 5 e0 55 4a
        E 5 e0 55 4a
        E 6 e0 55 4a
        E 5 e0 55 4a
        E 6 e0 55 4a
        E 5 e0 55 4a
        E 0 90 51 00
        E 0 90 51 40
        E 6 e0 55 4a
        E 5 e0 55 4a
        E 6 e0 55 4a
        E 6 e0 55 4a
        E 5 e0 55 4a
        E 6 e0 55 4a
        E 5 e0 55 4a
        E 6 e0 55 4a
        E 5 e0 55 4a
        E 6 e0 55 4a
        E 6 e0 55 4a
        E 0 90 51 00
        E 0 90 51 31
        E 5 e0 55 4a
        E 5 e0 55 4a
        E 6 e0 55 4a
        E 5 e0 55 4a
        E 5 e0 55 4a
        E 6 e0 55 4a
        E 5 e0 55 4a
        E 5 e0 55 4a
        E 6 e0 55 4a
        E 5 e0 55 4a
        E 6 e0 55 4a
        E 5 e0 55 4a
        E 5 e0 55 4a
        E 6 e0 55 4a
        E 5 e0 55 4a
        E 5 e0 55 4a
        E 6 e0 55 4a
        E 5 e0 55 4a
        E 5 e0 55 4a
        E 6 e0 55 4a
        E 0 90 51 00
        E 0 90 51 4b
        E 5 e0 55 4a
        E 6 e0 55 4a
        E 5 e0 55 4a
        E 5 e0 55 4a
        E 6 e0 2b 55
        E 5 e0 2b 55
        E 6 e0 55 4a
        E 5 e0 55 4a
        E 5 e0 55 4a
        E 6 e0 55 4a
        E 5 e0 55 4a
        E 6 e0 55 4a
        E 5 e0 55 4a
        E 5 e0 55 4a
        E 6 e0 55 4a
        E 5 e0 55 4a
        E 5 e0 55 4a
        E 6 e0 55 4a
        E 0 90 51 00
        E 0 90 51 4e
        E 5 e0 55 4a
        E 6 e0 55 4a
        E 5 e0 55 4a
        E 5 e0 55 4a
        E 5 e0 55 4a
        E 6 e0 55 4a
        E 5 e0 55 4a
        E 5 e0 55 4a
        E 6 e0 55 4a
        E 5 e0 55 4a
        E 5 e0 55 4a
        E 6 e0 55 4a
        E 5 e0 55 4a
        E 5 e0 55 4a
        E 6 e0 55 4a
        E 5 e0 55 4a
        E 5 e0 55 4a
        E 6 e0 55 4a
        E 5 e0 55 4a
        E 5 e0 55 4a
        E 6 e0 55 4a
        E 5 e0 55 4a
        E 5 e0 55 4a
        E 6 e0 55 4a
        E 0 90 51 00
        E 0 90 51 3c
        E 5 e0 55 4a
        E 5 e0 55 4a
        E 6 e0 55 4a
        E 5 e0 55 4a
        E 5 e0 55 4a
        E 6 e0 7f 7f
        E 5 e0 7f 7f
        E 5 e0 7f 7f
        E 6 e0 55 4a
        E 5 e0 55 4a
        E 6 e0 55 4a
        E 5 e0 55 4a
        E 5 e0 55 4a
        E 6 e0 2b 55
        E 5 e0 2b 55
        E 5 e0 55 2a
        E 6 e0 55 2a
        E 5 e0 55 2a
        E 5 e0 55 2a
        E 6 e0 55 4a
        E 0 90 51 00
        E 0 90 51 4a
        E 25 90 56 39
        E 41 90 51 00
        E 0 90 51 39
        E 77 90 4e 42
        E 5 90 51 00
        E 52 90 56 00
        E 97 e0 55 4a
        E 0 90 4e 00
        E 0 90 4e 4e
        E 5 e0 55 4a
        E 6 e0 55 4a
        E 5 e0 55 4a
        E 6 e0 55 4a
        E 5 e0 55 4a
        E 6 e0 55 4a
        E 5 e0 55 4a
        E 6 e0 55 4a
        E 6 e0 55 4a
        E 5 e0 55 4a
        E 6 e0 55 4a
        E 5 e0 55 4a
        E 0 90 4e 00
        E 0 90 4e 50
        E 6 e0 55 4a
        E 5 e0 55 4a
        E 5 e0 55 4a
        E 6 e0 55 4a
        E 5 e0 55 4a
        E 5 e0 55 4a
        E 6 e0 55 4a
        E 5 e0 55 4a
        E 6 e0 55 4a
        E 5 e0 55 4a
        E 5 e0 55 4a
        E 6 e0 55 4a
        E 5 e0 55 4a
        E 6 e0 55 4a
        E 5 e0 55 4a
        E 5 e0 55 4a
        E 6 e0 55 4a
        E 5 e0 55 4a
        E 0 90 4e 00
        E 0 90 4e 56
        E 97 90 4a 48
        E 87 90 4e 00
        E 0 90 4e 5f
        E 10 90 4a 00
        E 11 90 53 36
        E 51 90 4e 00
        E 0 90 4e 48
        E 10 90 53 00
        E 0 90 53 37
        E 56 90 4a 4b
        E 5 90 53 00
        E 97 90 4e 00
        E 5 90 42 46
        E 5 90 45 46
        E 92 90 42 00
        E 5 90 45 00
        E 6 90 4a 00
        E 25 e0 55 4a
        E 0 90 4c 5f
        E 5 e0 55 4a
        E 5 e0 2b 55
        E 6 e0 2b 55
        E 5 e0 2b 55
        E 5 e0 55 4a
        E 5 e0 55 4a
        E 5 e0 55 4a
        E 5 e0 55 4a
        E 5 e0 55 4a
        E 6 e0 55 4a
        E 5 e0 55 4a
        E 5 e0 55 4a
        E 0 90 4c 00
        E 0 90 4c 53
        E 5 e0 55 4a
        E 6 e0 55 4a
        E 5 e0 55 4a
        E 5 e0 55 4a
        E 6 e0 2b 55
        E 5 e0 2b 55
        E 5 e0 55 4a
        E 6 e0 55 4a
        E 5 e0 55 4a
        E 5 e0 55 4a
        E 6 e0 55 4a
        E 5 e0 55 4a
        E 5 e0 55 4a
        E 6 e0 55 4a
        E 5 e0 55 4a
        E 5 e0 55 4a
        E 6 e0 55 4a
        E 5 e0 55 4a
        E 5 e0 55 4a
        E 6 e0 55 4a
        E 5 e0 55 4a
        E 5 e0 55 4a
        E 0 90 4c 00
        E 11 90 4e 3d
        E 127 90 45 38
        E 0 90 49 3b
        E 87 90 45 00
        E 5 90 49 00
        E 16 90 4e 00
        E 0 90 4e 37
        E 5 90 3e 5c
        E 117 90 4a 4a
        E 5 90 3e 00
        E 0 90 3e 46
        E 5 90 4e 00
        E 57 90 4a 00
        E 41 90 4c 41
        E 51 90 3e 00
        E 51 90 4e 46
        E 15 90 4c 00
        E 82 90 4e 00
        E 5 90 4f 38
        E 87 90 51 45
        E 46 90 4f 00
        E 51 e0 55 4a
        E 0 90 51 00
        E 0 90 51 56
        E 6 e0 55 4a
        E 5 e0 55 4a
        E 5 e0 55 4a
        E 6 e0 55 4a
        E 5 e0 55 4a
        E 6 e0 2b 55
        E 5 e0 55 4a
        E 5 e0 55 4a
        E 6 e0 55 4a
        E 5 e0 55 4a
        E 5 e0 55 4a
        E 6 e0 55 4a
        E 5 e0 2b 55
        E 5 e0 55 4a
        E 6 e0 55 4a
        E 5 e0 55 4a
        E 6 e0 2b 55
        E 5 e0 55 4a
        E 5 e0 55 4a
        E 6 e0 55 4a
        E 0 90 51 00
        E 0 90 51 4b
        E 5 e0 55 4a
        E 5 e0 55 4a
        E 6 e0 55 4a
        E 5 e0 55 4a
        E 6 e0 55 4a
        E 5 e0 55 4a
        E 5 e0 55 4a
        E 6 e0 55 4a
        E 5 e0 55 4a
        E 6 e0 55 4a
        E 5 e0 55 4a
        E 5 e0 55 4a
        E 6 e0 55 4a
        E 5 e0 55 4a
        E 5 e0 55 4a
        E 6 e0 55 4a
        E 5 e0 55 4a
        E 6 e0 55 4a
        E 0 90 51 00
        E 0 90 51 57
        E 5 e0 55 4a
        E 5 e0 55 4a
        E 6 e0 55 4a
        E 5 e0 55 4a
        E 6 e0 2b 55
        E 5 e0 2b 55
        E 5 e0 2b 55
        E 6 e0 55 4a
        E 5 e0 55 4a
        E 5 e0 55 4a
        E 6 e0 55 4a
        E 5 e0 55 4a
        E 6 e0 55 4a
        E 5 e0 55 4a
        E 5 e0 55 4a
        E 6 e0 55 4a
        E 5 e0 2b 55
        E 5 e0 2b 55
        E 6 e0 2b 55
        E 0 90 51 00
        E 0 90 51 5f
        E 97 90 4a 3e
        E 15 90 4e 2c
        E 0 90 51 00
        E 0 90 51 3d
        E 46 90 4a 00
        E 0 90 53 32
        E 67 90 4e 00
        E 15 90 53 00
        E 5 90 51 00
        E 10 90 56 3b
        E 51 90 4e 59
        E 62 90 4e 00
        E 0 90 4e 59
        E 35 90 56 00
        E 26 e0 55 4a
        E 0 90 4e 00
        E 0 90 4e 57
        E 5 e0 55 4a
        E 5 e0 55 4a
        E 5 e0 55 4a
        E 6 e0 55 4a
        E 5 e0 55 4a
        E 5 e0 55 4a
        E 5 e0 55 4a
        E 5 e0 55 4a
        E 5 e0 55 4a
        E 5 e0 55 4a
        E 5 e0 55 4a
        E 6 e0 55 4a
        E 5 e0 55 4a
        E 5 e0 55 4a
        E 5 e0 55 4a
        E 5 e0 55 4a
        E 5 e0 55 4a
        E 5 e0 55 4a
        E 0 90 4e 00
        E 0 90 4e 54
        E 108 90 46 40
        E 71 90 46 00
        E 31 90 4a 3e
        E 5 90 4e 00
        E 0 90 4e 5a
        E 61 90 4a 00
        E 5 90 4e 00
        E 0 90 4e 3a
        E 26 90 52 48
        E 82 90 4e 00
        E 25 90 52 00
        E 5 90 4a 4b
        E 0 90 53 28
        E 62 90 53 00
        E 51 90 45 48
        E 51 90 4e 5f
        E 46 90 45 00
        E 15 90 4c 4f
        E 5 90 4e 00
        E 0 90 4e 41
        E 21 90 4a 00
        E 56 90 4e 00
        E 36 90 43 38
        E 46 90 4f 30
        E 46 90 43 00
        E 15 90 49 52
        E 36 90 4f 00
        E 0 90 4f 36
        E 21 90 4c 00
        E 61 90 4f 00
        E 56 90 4c 47
        E 41 90 49 00
        E 26 90 4a 42
        E 97 90 4c 00
        E 10 90 2a 45
        E 15 90 36 27
        E 51 90 2a 00
        E 5 90 2a 4f
        E 16 90 36 00
        E 0 90 36 3c
        E 46 90 4a 00
        E 20 90 36 00
        E 10 e0 00 40
        E 0 90 2a 00
        E 0 90 2b 3e
        E 6 e0 55 4a
        E 5 e0 55 4a
        E 5 e0 55 4a
        E 6 e0 55 4a
        E 5 e0 55 4a
        E 5 e0 55 4a
        E 6 e0 55 4a
        E 5 e0 55 4a
        E 5 e0 55 4a
        E 6 e0 55 4a
        E 5 e0 55 2a
        E 5 e0 55 2a
        E 6 e0 55 2a
        E 5 e0 55 2a
        E 5 e0 55 4a
        E 6 e0 55 4a
        E 5 e0 55 4a
        E 5 e0 55 4a
        E 6 e0 55 4a
        E 5 e0 55 4a
        E 5 e0 55 4a
        E 6 e0 55 4a
        E 0 90 2b 00
        E 25 e0 55 4a
        E 0 90 2d 30
        E 5 e0 55 4a
        E 6 e0 55 4a
        E 5 e0 55 4a
        E 5 e0 55 4a
        E 5 e0 55 4a
        E 5 e0 55 4a
        E 5 e0 55 4a
        E 5 e0 55 4a
        E 5 e0 55 4a
        E 6 e0 55 4a
        E 5 e0 55 4a
        E 5 e0 00 40
        E 5 e0 00 40
        E 5 e0 00 40
        E 5 e0 55 4a
        E 5 e0 00 40
        E 5 e0 00 40
        E 6 e0 00 40
        E 5 e0 00 40
        E 5 e0 00 40
        E 5 e0 00 40
        E 5 e0 00 40
        E 5 e0 55 4a
        E 5 e0 55 4a
        E 5 e0 55 4a
        E 6 e0 55 4a
        E 5 e0 55 4a
        E 5 e0 55 4a
        E 5 e0 55 4a
        E 5 e0 2b 55
        E 5 e0 2b 55
        E 5 e0 2b 55
        E 5 e0 55 4a
        E 6 e0 55 4a
        E 5 e0 55 4a
        E 5 e0 55 4a
        E 0 90 2d 00
        E 25 90 26 50
        E 0 90 32 38
        E 235 90 32 00
        E 256 90 26 00
        E 368 e0 55 4a
        E 0 90 51 53
        E 5 e0 55 4a
        E 6 e0 55 4a
        E 5 e0 55 4a
        E 5 e0 55 4a
        E 5 e0 55 4a
        E 5 e0 55 4a
        E 5 e0 55 4a
        E 6 e0 55 4a
        E 5 e0 55 4a
        E 5 e0 55 4a
        E 5 e0 55 4a
        E 5 e0 55 4a
        E 6 e0 55 4a
        E 5 e0 55 4a
        E 5 e0 55 4a
        E 5 e0 55 4a
        E 5 e0 55 4a
        E 6 e0 55 4a
        E 5 e0 55 4a
        E 5 e0 55 4a
        E 5 e0 55 4a
        E 5 e0 2b 55
        E 6 e0 55 4a
        E 5 e0 55 4a
        E 5 e0 55 4a
        E 5 e0 55 4a
        E 5 e0 55 4a
        E 6 e0 55 4a
        E 5 e0 55 4a
        E 5 e0 55 4a
        E 5 e0 55 4a
        E 5 e0 55 4a
        E 6 e0 55 4a
        E 5 e0 55 4a
        E 5 e0 55 4a
        E 5 e0 55 4a
        E 5 e0 55 4a
        E 6 e0 55 4a
        E 5 e0 55 4a
        E 5 e0 55 4a
        E 5 e0 55 4a
        E 5 e0 55 4a
        E 5 e0 55 4a
        E 6 e0 55 4a
        E 5 e0 55 4a
        E 5 e0 55 4a
        E 5 e0 55 4a
        E 5 e0 55 4a
        E 6 e0 55 4a
        E 5 e0 55 4a
        E 5 e0 55 4a
        E 5 e0 55 4a
        E 5 e0 55 4a
        E 6 e0 55 4a
        E 5 e0 55 4a
        E 5 e0 55 4a
        E 5 e0 55 4a
        E 5 e0 55 4a
        E 6 e0 55 4a
        E 0 90 51 00
        E 0 90 51 41
        E 5 90 3e 4e
        E 20 90 41 33
        E 0 90 45 3e
        E 133 90 51 00
        E 148 90 45 00
        E 0 90 45 49
        E 5 90 3e 00
        E 0 90 3e 52
        E 46 90 41 00
        E 21 90 3e 00
        E 0 90 3e 3d
        E 0 90 45 00
        E 0 90 4a 38
        E 0 90 56 55
        E 102 90 4a 00
        E 36 90 3e 00
        E 10 90 4d 63
        E 87 90 56 00
        E 199 90 4d 00
        E 0 90 4d 50
        E 6 90 41 39
        E 5 90 45 3e
        E 5 90 3e 44
        E 281 90 45 00
        E 0 90 45 55
        E 0 90 51 2a
        E 5 90 3e 00
        E 0 90 3e 45
        E 0 90 41 00
        E 0 90 41 3a
        E 71 90 4d 00
        E 16 90 3e 00
        E 0 90 3e 3e
        E 0 90 45 00
        E 0 90 45 3f
        E 0 90 51 00
        E 0 90 51 54
        E 56 90 41 00
        E 56 90 51 00
        E 0 90 51 40
        E 10 90 3e 00
        E 21 90 45 00
        E 15 90 4a 56
        E 5 90 3e 2f
        E 0 90 41 34
        E 10 90 39 34
        E 52 90 51 00
        E 51 90 3e 00
        E 15 90 41 00
        E 11 90 4c 41
        E 76 90 4c 00
        E 10 90 4a 00
        E 0 90 4a 4b
        E 57 90 4d 68
        E 66 90 4d 00
        E 0 90 4d 5b
        E 148 90 4a 00
        E 77 90 39 00
        E 25 90 43 56
        E 92 90 43 00
        E 0 90 43 3a
        E 0 90 4c 55
        E 0 90 4d 00
        E 133 90 43 00
        E 36 90 3e 46
        E 0 90 41 38
        E 0 90 4a 47
        E 128 90 4c 00
        E 15 90 4a 00
        E 6 90 41 00
        E 15 90 49 5b
        E 10 90 3e 00
        E 97 90 49 00
        E 5 90 4a 53
        E 102 90 4c 67
        E 46 90 4a 00
        E 72 90 4c 00
        E 0 90 4d 5a
        E 107 90 4f 5b
        E 46 90 4d 00
        E 87 90 51 3a
        E 5 90 3e 4d
        E 113 90 4f 00
        E 30 90 3e 00
        E 0 90 3e 39
        E 52 90 51 00
        E 0 90 51 3d
        E 41 90 45 3a
        E 0 90 53 54
        E 10 90 3e 00
        E 71 90 51 00
        E 31 90 55 53
        E 21 90 53 00
        E 30 90 45 00
        E 41 90 55 00
        E 10 90 56 5b
        E 16 90 45 3b
        E 92 90 45 00
        E 0 90 45 31
        E 0 90 58 52
        E 10 90 56 00
        E 107 90 3e 34
        E 0 90 58 00
        E 0 90 59 48
        E 97 90 45 00
        E 21 90 59 00
        E 10 90 55 4d
        E 122 90 55 00
        E 0 90 56 4d
        E 5 90 3e 00
        E 0 90 3e 36
        E 6 90 41 37
        E 0 90 45 44
        E 76 90 56 00
        E 41 90 50 52
        E 11 90 41 00
        E 10 90 3e 00
        E 10 90 45 00
        E 77 90 50 00
        E 0 90 51 4a
        E 5 90 41 38
        E 0 90 45 4f
        E 97 90 41 00
        E 10 90 45 00
        E 0 90 45 3c
        E 0 90 4c 68
        E 56 90 51 00
        E 11 90 50 2e
        E 76 90 50 00
        E 21 90 4c 00
        E 0 90 4d 60
        E 5 90 45 00
        E 10 90 39 42
        E 46 90 4d 00
        E 0 90 4d 4a
        E 138 90 39 00
        E 26 90 4d 00
        E 0 90 4d 50
        E 56 90 51 42
        E 5 90 41 3e
        E 5 90 39 35
        E 0 90 45 3b
        E 112 90 4d 00
        E 5 90 51 00
        E 77 90 45 00
        E 72 90 39 00
        E 21 90 41 00
        E 20 90 40 4f
        E 0 90 43 3d
        E 92 90 40 00
        E 0 90 40 3c
        E 0 90 49 4f
        E 71 90 43 00
        E 98 90 40 00
        E 0 90 40 3b
        E 0 90 4c 5d
        E 25 90 43 3d
        E 128 90 40 00
        E 127 90 49 00
        E 6 90 43 00
        E 15 90 41 3f
        E 0 90 4a 40
        E 5 90 3e 4d
        E 20 90 4c 00
        E 159 90 4a 00
        E 174 90 32 5c
        E 0 90 45 29
        E 31 90 3e 00
        E 46 90 45 00
        E 81 90 41 00
        E 292 90 32 00
        E 5 e0 2b 55
        E 0 90 51 4a
        E 5 e0 55 4a
        E 5 e0 55 4a
        E 5 e0 55 4a
        E 5 e0 55 4a
        E 5 e0 55 4a
        E 5 e0 55 4a
        E 6 e0 55 4a
        E 5 e0 55 4a
        E 5 e0 55 4a
        E 5 e0 55 4a
        E 5 e0 55 4a
        E 5 e0 55 4a
        E 5 e0 2b 55
        E 5 e0 55 4a
        E 5 e0 55 4a
        E 6 e0 55 4a
        E 5 e0 55 4a
        E 5 e0 55 4a
        E 5 e0 55 4a
        E 5 e0 55 4a
        E 5 e0 2b 55
        E 5 e0 2b 55
        E 5 e0 55 4a
        E 6 e0 55 4a
        E 5 e0 55 4a
        E 5 e0 55 4a
        E 5 e0 55 4a
        E 5 e0 55 4a
        E 5 e0 55 4a
        E 5 e0 55 4a
        E 5 e0 55 4a
        E 5 e0 55 4a
        E 6 e0 55 4a
        E 5 e0 55 4a
        E 5 e0 55 4a
        E 5 e0 55 4a
        E 5 e0 55 4a
        E 5 e0 55 4a
        E 5 e0 55 4a
        E 5 e0 55 4a
        E 5 e0 55 4a
        E 6 e0 55 4a
        E 5 e0 55 4a
        E 5 e0 55 4a
        E 5 e0 55 4a
        E 5 e0 55 4a
        E 5 e0 55 4a
        E 5 e0 55 4a
        E 5 e0 55 4a
        E 6 e0 55 4a
        E 5 e0 55 4a
        E 5 e0 55 4a
        E 5 e0 55 4a
        E 5 e0 55 4a
        E 5 e0 55 4a
        E 5 e0 55 4a
        E 5 e0 55 4a
        E 5 e0 55 4a
        E 6 e0 55 4a
        E 5 e0 55 4a
        E 5 e0 55 4a
        E 5 e0 55 4a
        E 5 e0 55 4a
        E 5 e0 55 4a
        E 5 e0 55 4a
        E 5 e0 55 4a
        E 5 e0 55 4a
        E 6 e0 55 4a
        E 5 e0 55 4a
        E 5 e0 55 4a
        E 5 e0 55 4a
        E 5 e0 55 4a
        E 5 e0 55 4a
        E 5 e0 55 4a
        E 5 e0 55 4a
        E 0 90 51 00
        E 0 90 51 47
        E 26 90 45 39
        E 10 90 3e 4f
        E 0 90 41 32
        E 123 90 51 00
        E 112 90 51 32
        E 36 90 45 00
        E 5 90 41 00
        E 0 90 41 46
        E 0 90 45 48
        E 5 90 3e 00
        E 0 90 3e 52
        E 67 90 51 00
        E 35 90 45 00
        E 0 90 56 64
        E 5 90 3e 00
        E 0 90 3e 3c
        E 0 90 4a 32
        E 16 90 41 00
        E 122 90 56 00
        E 0 90 56 47
        E 16 90 3e 00
        E 5 90 4d 5c
        E 15 90 4a 00
        E 67 90 3e 2a
        E 0 90 56 00
        E 76 90 3e 00
        E 108 90 4d 00
        E 0 90 4d 4b
        E 20 90 3e 3c
        E 0 90 41 37
        E 0 90 45 30
        E 143 90 45 00
        E 133 90 45 3b
        E 5 90 3e 00
        E 0 90 41 00
        E 0 90 41 36
        E 5 90 3e 47
        E 92 90 4d 00
        E 16 90 3e 00
        E 0 90 3e 3c
        E 0 90 51 5e
        E 5 90 45 00
        E 0 90 45 30
        E 36 90 41 00
        E 10 90 4d 2a
        E 51 90 45 00
        E 15 90 51 00
        E 0 90 51 3a
        E 51 90 4d 00
        E 16 90 3e 00
        E 30 90 3e 2b
        E 5 90 4a 5c
        E 31 90 39 3f
        E 36 90 3e 00
        E 41 90 51 00
        E 41 90 4c 3a
        E 77 90 4c 00
        E 5 90 4a 00
        E 0 90 4a 52
        E 31 90 39 00
        E 10 90 4d 59
        E 30 90 45 34
        E 21 90 39 35
        E 15 90 4d 00
        E 5 90 4d 4c
        E 72 90 45 00
        E 107 90 4a 00
        E 5 90 39 00
        E 36 90 43 4c
        E 82 90 39 2d
        E 25 90 4c 53
        E 0 90 4d 00
        E 128 90 39 00
        E 41 90 4a 4a
        E 5 90 3e 42
        E 0 90 41 31
        E 41 90 43 00
        E 102 90 4c 00
        E 41 90 49 55
        E 0 90 4a 00
        E 26 90 3e 00
        E 10 90 41 00
        E 72 90 49 00
        E 10 90 4a 52
        E 102 90 4c 56
        E 5 90 4a 00
        E 97 90 4c 00
        E 5 90 4d 53
        E 113 90 4f 4d
        E 5 90 4d 00
        E 107 90 51 41
        E 5 90 3e 44
        E 72 90 51 00
        E 5 90 4f 00
        E 66 90 51 4b
        E 72 90 45 2b
        E 5 90 41 38
        E 15 90 3e 00
        E 0 90 53 54
        E 15 90 51 00
        E 83 90 41 00
        E 5 90 55 4a
        E 20 90 45 00
        E 5 90 53 00
        E 67 90 55 00
        E 10 90 56 56
        E 5 90 45 31
        E 107 90 58 4f
        E 31 90 56 00
        E 0 90 56 3a
        E 77 90 56 00
        E 5 90 58 00
        E 0 90 59 44
        E 5 90 3e 3a
        E 97 90 45 00
        E 20 90 59 00
        E 11 90 55 51
        E 112 90 3e 00
        E 10 90 55 00
        E 0 90 56 45
        E 5 90 3e 30
        E 11 90 41 35
        E 86 90 3e 00
        E 21 90 50 4f
        E 15 90 41 00
        E 61 90 56 00
        E 36 90 50 00
        E 0 90 51 3d
        E 5 90 41 2a
        E 0 90 45 4a
        E 78 90 41 00
        E 25 90 45 00
        E 0 90 45 3a
        E 0 90 4c 69
        E 158 90 45 00
        E 6 90 4c 00
        E 0 90 4d 65
        E 10 90 39 48
        E 36 90 51 00
        E 20 90 4d 00
        E 0 90 4d 63
        E 158 90 39 00
        E 21 90 4d 00
        E 0 90 4d 57
        E 46 90 39 39
        E 15 90 4d 00
        E 0 90 4d 45
        E 56 90 41 31
        E 5 90 51 34
        E 154 90 4d 00
        E 0 90 4d 2a
        E 97 90 4d 00
        E 31 90 41 00
        E 41 90 40 4f
        E 0 90 43 46
        E 35 90 51 00
        E 16 90 39 00
        E 41 90 40 00
        E 0 90 40 39
        E 0 90 43 00
        E 0 90 43 35
        E 0 90 49 5b
        E 66 90 40 00
        E 36 90 43 00
        E 0 90 49 00
        E 0 90 4a 5c
        E 25 90 47 50
        E 51 90 49 3b
        E 0 90 4a 00
        E 77 90 53 2b
        E 10 90 49 00
        E 5 90 40 27
        E 0 90 4c 59
        E 6 90 43 3b
        E 61 90 40 00
        E 10 90 53 00
        E 118 90 27 32
        E 30 90 47 00
        E 21 90 43 00
        E 25 90 27 00
        E 41 90 4a 40
        E 5 90 3e 47
        E 10 90 41 41
        E 36 90 4c 00
        E 338 90 4a 00
        E 36 90 32 57
        E 10 90 3e 00
        E 199 90 41 00
        E 112 90 4c 4a
        E 36 90 32 00
        E 277 90 3d 57
        E 5 90 39 48
        E 112 90 3d 00
        E 0 90 3d 3a
        E 0 90 4c 00
        E 0 90 4c 6a
        E 118 90 4c 00
        E 0 90 4c 62
        E 5 90 39 00
        E 0 90 39 46
        E 5 90 3d 00
        E 0 90 3d 55
        E 112 90 4c 00
        E 0 90 4c 6a
        E 5 90 3d 00
        E 0 90 3d 42
        E 133 90 4c 00
        E 0 90 4d 42
        E 5 90 39 00
        E 5 90 3d 00
        E 72 e0 55 2a
        E 0 90 4c 5c
        E 0 90 4d 00
        E 5 e0 55 2a
        E 6 e0 55 4a
        E 5 e0 55 4a
        E 6 e0 55 4a
        E 5 e0 55 4a
        E 6 e0 55 4a
        E 5 e0 55 4a
        E 6 e0 55 4a
        E 5 e0 55 4a
        E 6 e0 55 4a
        E 5 e0 55 4a
        E 6 e0 55 4a
        E 5 e0 55 4a
        E 0 90 4c 00
        E 0 90 4c 45
        E 113 90 51 65
        E 82 90 51 00
        E 0 90 51 63
        E 31 90 4c 00
        E 5 90 45 35
        E 107 90 51 00
        E 0 90 51 3a
        E 189 90 45 00
        E 5 90 45 5b
        E 0 90 49 42
        E 5 90 51 00
        E 72 90 49 00
        E 5 90 45 00
        E 0 90 45 3f
        E 0 90 4c 5e
        E 133 90 45 00
        E 5 90 4f 4a
        E 163 90 4c 00
        E 16 90 4d 39
        E 56 90 4f 00
        E 82 90 45 37
        E 10 90 3e 42
        E 97 90 45 00
        E 16 e0 55 4a
        E 0 90 3e 00
        E 0 90 4d 00
        E 0 90 4d 68
        E 5 e0 55 4a
        E 5 e0 55 4a
        E 6 e0 55 4a
        E 5 e0 55 4a
        E 6 e0 55 4a
        E 5 e0 55 4a
        E 5 e0 55 4a
        E 6 e0 55 4a
        E 5 e0 55 4a
        E 5 e0 55 4a
        E 6 e0 55 4a
        E 5 e0 55 4a
        E 5 e0 55 4a
        E 6 e0 55 4a
        E 5 e0 55 4a
        E 6 e0 55 4a
        E 5 e0 55 4a
        E 5 e0 55 4a
        E 6 e0 55 4a
        E 5 e0 55 4a
        E 0 90 4d 00
        E 0 90 4d 67
        E 5 90 3e 3b
        E 5 90 45 3d
        E 102 90 4d 00
        E 0 90 4d 66
        E 87 90 3e 00
        E 10 e0 55 4a
        E 0 90 45 00
        E 0 90 4d 00
        E 0 90 4d 59
        E 6 e0 55 4a
        E 5 e0 55 4a
        E 6 e0 55 4a
        E 5 e0 55 4a
        E 6 e0 55 4a
        E 5 e0 55 4a
        E 6 e0 55 4a
        E 5 e0 55 4a
        E 6 e0 55 4a
        E 5 e0 55 4a
        E 6 e0 55 4a
        E 5 e0 55 4a
        E 6 e0 55 4a
        E 5 e0 55 4a
        E 0 90 4c 47
        E 0 90 4d 00
        E 82 90 4f 45
        E 5 90 4c 00
        E 0 90 4d 41
        E 82 90 4d 00
        E 51 90 51 45
        E 36 90 4a 2f
        E 76 90 4a 00
        E 93 90 4f 00
        E 25 90 4a 55
        E 0 90 4d 40
        E 82 90 51 00
        E 15 90 4a 00
        E 0 90 4a 3c
        E 0 90 56 5a
        E 36 90 4d 00
        E 118 90 4a 00
        E 5 90 54 51
        E 15 90 4f 3f
        E 10 90 49 25
        E 0 90 56 00
        E 97 90 49 00
        E 16 90 52 57
        E 5 90 4f 00
        E 0 90 54 00
        E 194 90 51 40
        E 0 90 52 00
        E 10 90 4d 3b
        E 5 90 4a 2f
        E 77 90 4a 00
        E 0 90 51 00
        E 20 90 4d 00
        E 0 90 4d 44
        E 0 90 59 3a
        E 72 90 4d 00
        E 0 90 59 00
        E 5 90 58 3c
        E 62 90 56 4d
        E 51 90 58 00
        E 66 90 56 00
        E 0 90 56 4d
        E 46 90 58 43
        E 61 90 56 00
        E 0 90 56 3e
        E 57 90 58 00
        E 15 90 54 4a
        E 107 90 56 00
        E 36 90 52 4b
        E 36 90 54 00
        E 133 90 4a 3a
        E 0 90 51 45
        E 0 90 52 00
        E 10 90 4d 3d
        E 92 90 51 00
        E 0 90 52 54
        E 15 90 4a 00
        E 51 90 4d 00
        E 15 e0 55 4a
        E 0 90 52 00
        E 0 90 53 69
        E 6 e0 55 4a
        E 5 e0 55 4a
        E 5 e0 55 4a
        E 5 e0 55 4a
        E 5 e0 55 4a
        E 5 e0 55 4a
        E 6 e0 55 4a
        E 5 e0 55 4a
        E 5 e0 55 4a
        E 5 e0 55 4a
        E 5 e0 55 4a
        E 5 e0 55 4a
        E 0 90 53 00
        E 0 90 54 43
        E 6 e0 2b 35
        E 5 e0 55 4a
        E 6 e0 55 4a
        E 5 e0 55 4a
        E 6 e0 55 4a
        E 5 e0 55 4a
        E 5 e0 55 4a
        E 6 e0 55 4a
        E 5 e0 55 4a
        E 6 e0 55 4a
        E 5 e0 55 4a
        E 6 e0 55 6a
        E 5 e0 55 6a
        E 6 e0 55 6a
        E 5 e0 55 6a
        E 0 90 54 00
        E 26 e0 55 4a
        E 0 90 56 56
        E 5 e0 55 4a
        E 5 e0 55 4a
        E 6 e0 55 4a
        E 5 e0 55 4a
        E 6 e0 55 4a
        E 5 e0 55 4a
        E 6 e0 55 4a
        E 5 e0 55 4a
        E 6 e0 55 4a
        E 5 e0 55 4a
        E 6 e0 55 4a
        E 5 e0 2b 55
        E 5 e0 2b 55
        E 6 e0 2b 55
        E 5 e0 2b 55
        E 0 90 56 00
        E 31 90 59 3f
        E 97 90 47 27
        E 87 90 47 00
        E 31 90 50 51
        E 81 90 59 00
        E 41 90 49 3d
        E 0 90 4f 4a
        E 0 90 50 00
        E 118 90 58 42
        E 15 90 49 00
        E 77 90 4f 00
        E 25 90 58 00
        E 15 90 4d 46
        E 16 90 4a 2f
        E 0 90 4f 22
        E 67 90 4f 00
        E 51 90 4a 00
        E 0 90 4a 3c
        E 0 90 56 4e
        E 199 90 4d 00
        E 15 90 4a 00
        E 0 90 4a 50
        E 0 90 51 3e
        E 16 90 45 3d
        E 0 90 56 00
        E 148 90 51 00
        E 36 90 45 00
        E 132 90 4a 00
        E 41 90 4f 47
        E 77 90 4d 4d
        E 66 90 4d 00
        E 0 90 4d 3d
        E 37 90 4f 00
        E 81 e0 55 2a
        E 0 90 4d 00
        E 0 90 4d 4e
        E 6 e0 55 4a
        E 5 e0 55 2a
        E 6 e0 55 2a
        E 5 e0 55 2a
        E 6 e0 55 4a
        E 5 e0 55 4a
        E 6 e0 55 4a
        E 5 e0 55 4a
        E 6 e0 55 4a
        E 5 e0 55 4a
        E 6 e0 55 4a
        E 5 e0 55 4a
        E 6 e0 55 4a
        E 5 e0 55 4a
        E 0 90 4c 44
        E 0 90 4d 00
        E 26 90 49 36
        E 148 90 49 00
        E 286 90 4c 00
        E 292 e0 55 4a
        E 0 90 51 52
        E 5 e0 55 4a
        E 5 e0 55 4a
        E 5 e0 55 4a
        E 5 e0 55 4a
        E 5 e0 55 4a
        E 6 e0 55 4a
        E 5 e0 55 4a
        E 5 e0 55 4a
        E 5 e0 55 4a
        E 5 e0 55 4a
        E 5 e0 55 4a
        E 6 e0 55 4a
        E 5 e0 55 4a
        E 5 e0 55 4a
        E 5 e0 55 4a
        E 5 e0 55 4a
        E 6 e0 55 4a
        E 5 e0 55 4a
        E 5 e0 55 4a
        E 5 e0 55 4a
        E 5 e0 55 4a
        E 5 e0 55 4a
        E 6 e0 55 4a
        E 5 e0 55 4a
        E 5 e0 55 4a
        E 5 e0 55 4a
        E 5 e0 55 4a
        E 5 e0 55 4a
        E 6 e0 55 4a
        E 5 e0 55 4a
        E 5 e0 55 4a
        E 5 e0 55 4a
        E 5 e0 55 4a
        E 6 e0 55 4a
        E 5 e0 55 4a
        E 5 e0 55 4a
        E 5 e0 55 4a
        E 5 e0 55 4a
        E 5 e0 55 4a
        E 6 e0 55 4a
        E 5 e0 55 4a
        E 5 e0 55 4a
        E 5 e0 55 4a
        E 5 e0 55 4a
        E 5 e0 55 4a
        E 6 e0 55 4a
        E 5 e0 55 4a
        E 5 e0 55 4a
        E 5 e0 55 4a
        E 5 e0 55 4a
        E 6 e0 55 4a
        E 5 e0 55 4a
        E 5 e0 55 4a
        E 5 e0 55 4a
        E 5 e0 55 4a
        E 5 e0 55 4a
        E 6 e0 55 4a
        E 5 e0 55 4a
        E 5 e0 55 4a
        E 5 e0 55 4a
        E 5 e0 55 4a
        E 5 e0 55 4a
        E 6 e0 55 4a
        E 5 e0 55 4a
        E 5 e0 55 4a
        E 5 e0 55 4a
        E 5 e0 55 4a
        E 6 e0 55 4a
        E 5 e0 55 4a
        E 5 e0 55 4a
        E 5 e0 55 4a
        E 5 e0 55 4a
        E 5 e0 55 4a
        E 6 e0 55 4a
        E 5 e0 55 4a
        E 0 90 51 00
        E 0 90 51 49
        E 10 90 45 2d
        E 20 90 3e 4d
        E 0 90 41 3d
        E 77 90 51 00
        E 128 90 45 00
        E 41 90 41 00
        E 15 90 52 49
        E 10 90 3e 00
        E 77 90 52 00
        E 15 90 3e 41
        E 0 90 51 47
        E 5 90 41 32
        E 113 90 41 00
        E 10 90 3e 00
        E 0 90 3e 2d
        E 0 90 56 67
        E 5 90 51 00
        E 128 90 56 00
        E 0 90 56 57
        E 169 90 3e 00
        E 87 90 4d 5f
        E 86 90 4d 00
        E 0 90 4d 62
        E 6 90 3e 40
        E 5 90 41 37
        E 15 90 56 00
        E 36 90 4d 00
        E 0 90 4d 5b
        E 112 90 41 00
        E 15 90 4f 3d
        E 21 90 3e 00
        E 46 90 4c 40
        E 0 90 4d 00
        E 10 90 4f 00
        E 31 90 41 2c
        E 15 90 3e 38
        E 0 90 45 2f
        E 36 90 4c 00
        E 0 90 4d 52
        E 57 90 45 00
        E 35 90 3e 00
        E 0 90 3e 3b
        E 0 90 51 55
        E 5 90 41 00
        E 0 90 41 2c
        E 46 90 4d 00
        E 82 90 4d 3a
        E 41 90 41 00
        E 26 90 3e 00
        E 10 90 51 00
        E 0 90 51 45
        E 15 90 4d 00
        E 15 90 39 4a
        E 154 90 51 00
        E 20 90 39 00
        E 0 90 4a 5b
        E 143 90 45 51
        E 123 90 4d 6a
        E 25 90 4a 00
        E 36 90 4d 00
        E 0 90 4d 5d
        E 41 90 45 00
        E 46 90 43 59
        E 123 90 43 00
        E 0 90 43 40
        E 5 90 4d 00
        E 31 90 4c 4b
        E 122 90 43 00
        E 11 90 4a 55
        E 5 90 3e 45
        E 0 90 41 3d
        E 138 90 41 00
        E 0 90 4c 00
        E 0 90 4c 2f
        E 30 90 3e 00
        E 0 90 3e 36
        E 0 90 4a 00
        E 0 90 4a 46
        E 57 90 4c 00
        E 20 90 3e 00
        E 25 90 4a 00
        E 0 90 4a 47
        E 72 90 4c 4e
        E 61 90 4c 00
        E 0 90 4d 50
        E 5 90 4a 00
        E 57 90 4d 00
        E 0 90 4d 2f
        E 0 90 4f 3e
        E 51 90 51 34
        E 5 90 4d 00
        E 51 90 53 3a
        E 41 90 51 00
        E 5 90 4f 00
        E 52 90 56 53
        E 10 90 53 00
        E 51 90 56 00
        E 5 e0 55 4a
        E 0 90 58 3f
        E 5 e0 55 4a
        E 6 e0 55 4a
        E 5 e0 55 4a
        E 6 e0 2b 55
        E 5 e0 2b 55
        E 5 e0 2b 55
        E 6 e0 2b 55
        E 5 e0 2b 55
        E 6 e0 2b 55
        E 5 e0 2b 55
        E 5 e0 2b 55
        E 6 e0 55 4a
        E 5 e0 55 4a
        E 6 e0 55 4a
        E 5 e0 55 4a
        E 5 e0 55 4a
        E 6 e0 55 4a
        E 0 90 58 00
        E 10 90 59 44
        E 21 90 3e 39
        E 148 90 59 00
        E 5 90 3e 00
        E 20 e0 55 4a
        E 0 90 55 59
        E 5 e0 55 4a
        E 6 e0 55 4a
        E 5 e0 55 4a
        E 5 e0 55 4a
        E 6 e0 55 4a
        E 5 e0 55 4a
        E 5 e0 55 4a
        E 5 e0 55 4a
        E 6 e0 55 4a
        E 5 e0 55 4a
        E 5 e0 55 4a
        E 6 e0 55 4a
        E 5 e0 55 4a
        E 5 e0 55 4a
        E 5 e0 55 4a
        E 6 e0 55 4a
        E 5 e0 55 4a
        E 5 e0 55 4a
        E 6 e0 55 4a
        E 5 e0 55 4a
        E 5 e0 55 4a
        E 5 e0 55 4a
        E 6 e0 55 4a
        E 5 e0 55 4a
        E 5 e0 55 4a
        E 6 e0 55 4a
        E 5 e0 55 4a
        E 5 e0 55 4a
        E 5 e0 55 4a
        E 0 90 55 00
        E 0 90 56 51
        E 6 90 45 3f
        E 5 90 41 3c
        E 117 90 50 52
        E 15 90 45 00
        E 21 90 56 00
        E 10 90 41 00
        E 82 90 50 00
        E 0 90 51 47
        E 6 90 45 40
        E 15 90 41 3f
        E 148 90 50 3e
        E 0 90 51 00
        E 5 90 41 00
        E 10 90 41 2c
        E 0 90 4d 57
        E 21 90 45 00
        E 25 90 50 00
        E 62 90 45 32
        E 168 90 41 00
        E 46 90 45 00
        E 15 90 4b 48
        E 0 90 4d 00
        E 11 90 3f 4f
        E 20 90 37 44
        E 0 90 3a 4a
        E 297 90 4d 3f
        E 20 90 37 00
        E 21 90 3f 00
        E 31 90 3a 00
        E 15 90 4d 00
        E 5 90 4b 00
        E 0 90 4b 5d
        E 82 90 4d 4b
        E 5 90 4b 00
        E 0 90 4b 47
        E 102 90 4b 00
        E 10 90 4b 3a
        E 0 90 4f 59
        E 82 90 4b 00
        E 25 90 4d 00
        E 11 90 51 46
        E 35 90 4f 00
        E 0 90 4f 31
        E 46 90 51 00
        E 41 90 4f 00
        E 0 90 4f 39
        E 118 90 51 3a
        E 87 90 37 2c
        E 143 90 37 00
        E 5 90 4f 00
        E 11 90 51 00
        E 25 90 52 4b
        E 15 90 3a 38
        E 67 90 37 38
        E 10 90 3f 40
        E 0 90 52 00
        E 0 90 52 3e
        E 235 90 52 00
        E 77 90 37 00
        E 127 90 3a 00
        E 16 90 3f 00
        E 455 90 4a 57
        E 20 90 41 3d
        E 11 90 39 38
        E 280 90 41 00
        E 6 90 39 00
        E 25 e0 55 4a
        E 0 90 4a 00
        E 0 90 4a 5d
        E 6 e0 55 4a
        E 5 e0 55 4a
        E 5 e0 55 4a
        E 6 e0 55 4a
        E 5 e0 55 4a
        E 6 e0 55 4a
        E 5 e0 55 4a
        E 6 e0 55 4a
        E 5 e0 55 4a
        E 6 e0 55 2a
        E 5 e0 55 2a
        E 6 e0 55 2a
        E 5 e0 55 2a
        E 5 e0 55 2a
        E 6 e0 55 2a
        E 0 90 4a 00
        E 0 90 4a 45
        E 92 90 4d 3f
        E 5 90 45 53
        E 368 90 4a 00
        E 36 90 2d 52
        E 56 90 4d 00
        E 16 90 39 3c
        E 25 90 45 00
        E 36 90 43 51
        E 31 90 4c 4d
        E 122 90 2d 00
        E 0 90 4a 49
        E 5 90 39 00
        E 5 90 3e 33
        E 0 90 41 3e
        E 5 90 32 40
        E 0 90 4c 00
        E 0 90 4d 21
        E 57 90 43 00
        E 15 90 3e 00
        E 0 90 4d 00
        E 56 90 32 00
        E 10 90 3e 35
        E 108 90 3e 00
        E 61 90 4a 00
        E 5 90 2d 3d
        E 87 90 4a 30
        E 144 90 2d 00
        E 189 90 4a 00
        E 25 90 41 00
        E 46 e0 55 4a
        E 0 90 26 51
        E 5 e0 55 4a
        E 5 e0 55 4a
        E 5 e0 55 4a
        E 5 e0 55 4a
        E 6 e0 55 4a
        E 5 e0 55 4a
        E 5 e0 55 4a
        E 5 e0 55 4a
        E 5 e0 55 4a
        E 5 e0 55 4a
        E 5 e0 55 4a
        E 5 e0 55 4a
        E 6 e0 55 4a
        E 5 e0 55 4a
        E 5 e0 55 4a
        E 5 e0 55 4a
        E 5 e0 55 4a
        E 5 e0 55 4a
        E 5 e0 55 4a
        E 5 e0 55 4a
        E 5 e0 55 4a
        E 6 e0 55 4a
        E 5 e0 55 4a
        E 5 e0 55 4a
        E 5 e0 55 4a
        E 5 e0 55 4a
        E 5 e0 55 4a
        E 5 e0 55 4a
        E 5 e0 55 4a
        E 5 e0 55 4a
        E 6 e0 55 4a
        E 5 e0 55 4a
        E 5 e0 55 4a
        E 5 e0 55 4a
        E 5 e0 55 4a
        E 5 e0 55 4a
        E 5 e0 55 4a
        E 5 e0 55 4a
        E 5 e0 55 4a
        E 6 e0 55 4a
        E 5 e0 55 4a
        E 5 e0 55 4a
        E 5 e0 55 4a
        E 5 e0 55 4a
        E 5 e0 55 4a
        E 5 e0 55 4a
        E 5 e0 55 4a
        E 6 e0 55 4a
        E 5 e0 55 4a
        E 5 e0 55 4a
        E 5 e0 55 4a
        E 5 e0 55 4a
        E 5 e0 55 4a
        E 5 e0 55 4a
        E 5 e0 55 4a
        E 5 e0 55 4a
        E 6 e0 55 4a
        E 5 e0 55 4a
        E 5 e0 55 4a
        E 5 e0 55 4a
        E 5 e0 55 4a
        E 5 e0 55 4a
        E 5 e0 55 4a
        E 5 e0 55 4a
        E 5 e0 55 4a
        E 6 e0 55 4a
        E 5 e0 55 4a
        E 5 e0 55 4a
        E 5 e0 55 4a
        E 5 e0 55 4a
        E 5 e0 55 4a
        E 5 e0 55 4a
        E 5 e0 55 4a
        E 5 e0 55 4a
        E 6 e0 55 4a
        E 5 e0 55 4a
        E 5 e0 55 4a
        E 5 e0 55 4a
        E 5 e0 55 4a
        E 5 e0 55 4a
        E 5 e0 55 4a
        E 5 e0 55 4a
        E 6 e0 55 4a
        E 5 e0 55 4a
        E 5 e0 55 4a
        E 5 e0 55 4a
        E 5 e0 55 4a
        E 5 e0 55 4a
        E 5 e0 55 4a
        E 5 e0 55 4a
        E 5 e0 55 4a
        E 6 e0 55 4a
        E 5 e0 55 4a
        E 5 e0 55 4a
        E 5 e0 55 4a
        E 5 e0 55 4a
        E 5 e0 55 4a
        E 0 90 26 00
        E 930 90 45 48
        E 6 90 3e 59
        E 0 90 42 5d
        E 102 90 3e 00
        E 0 90 3e 46
        E 0 90 41 41
        E 0 90 42 00
        E 76 90 41 00
        E 0 90 42 36
        E 16 90 45 00
        E 0 90 45 53
        E 51 90 42 00
        E 35 90 41 37
        E 0 90 44 38
        E 0 90 45 00
        E 67 90 44 00
        E 20 90 3e 00
        E 0 90 3e 2e
        E 0 90 41 00
        E 0 90 42 35
        E 0 90 51 1f
        E 41 90 45 3d
        E 21 90 51 00
        E 15 90 3e 00
        E 0 90 42 00
        E 20 90 56 48
        E 16 90 4a 45
        E 46 90 56 00
        E 15 90 45 00
        E 26 90 39 3b
        E 0 90 42 51
        E 0 90 4a 00
        E 5 90 32 2c
        E 0 90 3e 35
        E 71 90 3e 00
        E 10 90 39 00
        E 5 90 38 39
        E 0 90 41 3c
        E 0 90 42 00
        E 31 90 32 00
        E 5 90 4d 35
        E 37 90 38 00
        E 5 90 41 00
        E 10 90 39 3d
        E 0 90 42 48
        E 36 90 4d 00
        E 41 90 39 00
        E 5 90 42 00
        E 5 90 41 40
        E 36 90 38 3d
        E 40 90 41 00
        E 0 90 42 56
        E 31 90 38 00
        E 51 90 51 24
        E 5 90 42 00
        E 0 90 42 35
        E 41 90 45 3d
        E 31 90 51 00
        E 20 90 2f 37
        E 10 90 3e 3a
        E 0 90 42 00
        E 0 90 42 2d
        E 72 90 2f 00
        E 15 90 42 00
        E 0 90 42 46
        E 5 90 45 00
        E 31 90 4e 38
        E 36 90 3e 00
        E 20 90 42 00
        E 26 90 4e 00
        E 10 90 40 44
        E 0 90 4c 2d
        E 51 90 43 3e
        E 20 90 4c 00
        E 6 90 4f 30
        E 30 90 40 00
        E 41 90 3d 42
        E 5 90 40 23
        E 61 90 43 00
        E 6 90 4f 00
        E 10 90 3d 00
        E 0 90 40 00
        E 0 90 40 49
        E 87 90 26 4f
        E 0 90 32 34
        E 10 90 40 00
        E 77 90 3d 40
        E 72 90 3d 00
        E 15 90 32 00
        E 0 90 3e 47
        E 46 90 4a 46
        E 15 90 3e 00
        E 5 90 26 00
        E 51 90 40 42
        E 6 90 4a 00
        E 45 90 42 46
        E 31 90 4e 3c
        E 5 90 40 00
        E 26 90 42 00
        E 15 90 43 40
        E 87 90 43 00
        E 15 90 32 3b
        E 0 90 3e 38
        E 0 90 45 45
        E 0 90 4e 00
        E 0 90 4e 46
        E 0 90 51 37
        E 87 90 3e 00
        E 0 90 42 45
        E 5 90 51 00
        E 16 90 32 00
        E 15 90 4e 00
        E 5 90 36 36
        E 56 90 40 2b
        E 0 90 42 00
        E 21 90 36 00
        E 51 90 32 3c
        E 0 90 3e 29
        E 0 90 40 00
        E 0 90 45 00
        E 67 90 3e 00
        E 15 90 4a 31
        E 0 90 4e 33
        E 26 90 32 00
        E 46 90 4e 00
        E 45 90 2f 40
        E 52 90 42 4f
        E 0 90 4a 00
        E 0 90 4a 43
        E 0 90 4e 28
        E 15 90 2f 00
        E 77 90 2b 34
        E 0 90 37 2b
        E 10 90 4e 00
        E 41 90 42 00
        E 10 90 2b 00
        E 20 90 37 00
        E 5 90 4a 00
        E 11 90 2a 35
        E 0 90 36 28
        E 71 90 36 00
        E 5 e0 55 4a
        E 0 90 28 34
        E 0 90 2a 00
        E 6 e0 55 4a
        E 5 e0 55 4a
        E 6 e0 55 4a
        E 6 e0 55 4a
        E 5 e0 55 4a
        E 6 e0 55 4a
        E 5 e0 55 4a
        E 6 e0 55 4a
        E 5 e0 55 4a
        E 6 e0 55 4a
        E 6 e0 55 4a
        E 0 90 28 00
        E 20 90 4e 39
        E 0 90 51 3d
        E 5 90 3e 35
        E 41 90 32 3c
        E 20 90 3e 00
        E 21 90 25 49
        E 0 90 51 00
        E 10 90 4e 00
        E 41 90 32 00
        E 25 90 23 3c
        E 26 90 25 00
        E 20 90 43 3a
        E 41 90 4a 35
        E 51 90 23 00
        E 21 90 43 00
        E 41 90 42 4f
        E 46 90 4a 00
        E 0 90 4a 4b
        E 87 90 4a 00
        E 5 90 2d 28
        E 5 90 42 00
        E 26 90 40 4b
        E 36 90 2d 00
        E 15 90 49 44
        E 31 90 40 00
        E 0 90 40 42
        E 0 90 4c 42
        E 56 90 49 00
        E 10 90 40 00
        E 0 90 4c 00
        E 5 90 3e 56
        E 0 90 4a 41
        E 31 90 32 43
        E 46 90 3e 00
        E 0 90 3e 4f
        E 51 90 32 00
        E 0 90 32 42
        E 46 90 2d 2d
        E 41 90 32 00
        E 0 90 32 40
        E 46 90 2a 40
        E 5 90 3e 00
        E 0 90 3e 41
        E 35 90 2d 00
        E 0 90 2d 46
        E 41 90 32 00
        E 0 90 32 32
        E 11 90 4a 00
        E 15 90 2a 00
        E 5 90 3e 00
        E 5 90 26 4c
        E 20 90 2d 00
        E 26 90 32 00
        E 230 90 45 4e
        E 6 90 3e 3d
        E 0 90 42 46
        E 92 90 41 3e
        E 0 90 42 00
        E 10 90 26 00
        E 0 90 45 00
        E 61 90 45 47
        E 10 90 41 00
        E 10 90 42 43
        E 41 90 45 00
        E 5 90 45 3b
        E 11 90 3e 00
        E 15 90 42 00
        E 10 90 41 3e
        E 118 90 41 00
        E 15 e0 55 4a
        E 0 90 45 00
        E 0 90 45 49
        E 6 e0 55 4a
        E 5 e0 55 4a
        E 5 e0 55 4a
        E 6 e0 55 4a
        E 5 e0 55 4a
        E 6 e0 55 4a
        E 5 e0 55 4a
        E 6 e0 55 4a
        E 5 e0 55 4a
        E 6 e0 55 4a
        E 5 e0 55 4a
        E 6 e0 55 4a
        E 5 e0 55 4a
        E 6 e0 55 4a
        E 0 90 45 00
        E 0 90 4a 40
        E 56 90 3e 37
        E 0 90 42 4c
        E 5 90 32 38
        E 36 90 4a 00
        E 41 90 3e 00
        E 5 90 38 3e
        E 0 90 4d 27
        E 10 90 42 00
        E 0 90 42 2c
        E 66 90 32 00
        E 5 90 4d 00
        E 11 90 38 00
        E 5 90 39 3a
        E 0 90 42 00
        E 0 90 42 48
        E 46 90 32 27
        E 21 90 39 00
        E 10 90 42 00
        E 5 90 4d 25
        E 10 90 42 27
        E 31 90 38 32
        E 5 90 32 00
        E 26 90 4d 00
        E 5 90 42 00
        E 0 90 42 38
        E 41 90 4e 36
        E 30 90 38 00
        E 10 90 51 25
        E 46 90 45 40
        E 16 90 4e 00
        E 10 90 51 00
        E 25 90 2f 2a
        E 0 90 42 00
        E 6 90 3e 3b
        E 35 90 4a 32
        E 26 90 2f 00
        E 20 90 45 00
        E 5 90 42 4d
        E 0 90 4e 2e
        E 62 90 4a 00
        E 20 90 4e 00
        E 10 90 3e 00
        E 16 90 42 00
        E 20 90 40 47
        E 46 90 43 3a
        E 0 90 4c 35
        E 56 90 40 00
        E 5 90 4c 00
        E 31 90 3d 3c
        E 0 90 40 26
        E 46 90 43 00
        E 41 90 40 00
        E 0 90 40 46
        E 31 90 3d 00
        E 61 90 26 51
        E 5 90 40 00
        E 154 90 3e 40
        E 41 90 4a 4a
        E 30 90 26 00
        E 5 90 3e 00
        E 6 90 4c 21
        E 35 90 40 3f
        E 10 90 4a 00
        E 21 90 4c 00
        E 15 90 42 4a
        E 31 90 40 00
        E 51 e0 55 2a
        E 0 90 42 00
        E 0 90 43 2f
        E 5 e0 55 4a
        E 6 e0 55 4a
        E 5 e0 55 4a
        E 6 e0 55 4a
        E 5 e0 55 4a
        E 6 e0 55 4a
        E 5 e0 55 4a
        E 6 e0 55 4a
        E 5 e0 55 4a
        E 6 e0 55 4a
        E 5 e0 55 4a
        E 6 e0 55 4a
        E 5 e0 55 4a
        E 0 90 43 00
        E 21 90 32 41
        E 0 90 3e 39
        E 5 90 45 42
        E 0 90 4e 46
        E 0 90 51 30
        E 77 90 3e 00
        E 5 90 42 45
        E 0 90 51 00
        E 30 90 32 00
        E 0 90 4e 00
        E 11 90 36 2b
        E 56 90 42 00
        E 5 90 36 00
        E 25 90 34 29
        E 0 90 40 2f
        E 41 90 32 41
        E 0 90 3e 25
        E 5 90 45 00
        E 21 90 34 00
        E 36 90 40 00
        E 15 90 32 00
        E 0 90 3e 00
        E 20 90 4e 3b
        E 62 90 3b 27
        E 10 90 4e 00
        E 21 90 4a 29
        E 15 90 2f 3c
        E 36 90 3b 00
        E 15 90 42 4c
        E 0 90 4a 00
        E 0 90 4a 40
        E 0 90 4e 2e
        E 36 90 2f 00
        E 41 90 4e 00
        E 87 90 2a 45
        E 0 90 42 00
        E 10 90 4a 00
        E 51 90 2a 00
        E 5 90 2a 41
        E 0 90 36 30
        E 87 90 2a 00
        E 5 90 36 00
        E 21 90 32 43
        E 0 90 4e 3e
        E 0 90 51 36
        E 5 90 26 35
        E 0 90 45 32
        E 61 90 26 00
        E 20 90 25 3f
        E 6 90 31 28
        E 0 90 32 00
        E 0 90 45 00
        E 10 90 4e 00
        E 20 90 51 00
        E 31 90 31 00
        E 36 90 25 00
        E 20 90 23 46
        E 0 90 43 2c
        E 77 90 43 00
        E 30 90 23 00
        E 62 90 42 56
        E 41 90 4a 4d
        E 31 90 4e 31
        E 5 90 42 00
        E 0 90 42 34
        E 30 90 4a 00
        E 57 90 40 42
        E 5 90 4e 00
        E 5 90 42 00
        E 36 90 49 48
        E 20 90 2d 36
        E 15 90 4c 3c
        E 5 90 40 00
        E 0 90 40 39
        E 67 90 49 00
        E 5 90 2d 00
        E 10 90 4a 4f
        E 0 90 4c 00
        E 41 90 40 00
        E 10 90 32 43
        E 0 90 3e 2e
        E 82 90 3e 00
        E 0 90 3e 2c
        E 5 90 32 00
        E 0 90 32 52
        E 46 90 4a 00
        E 36 90 32 00
        E 0 90 32 3e
        E 5 90 3e 00
        E 0 90 3e 2d
        E 36 90 2a 41
        E 51 90 3e 00
        E 5 90 2d 43
        E 10 90 2a 00
        E 0 90 2a 42
        E 67 90 2a 00
        E 5 90 32 00
        E 5 e0 55 4a
        E 0 90 26 56
        E 0 90 2d 00
        E 5 e0 55 4a
        E 5 e0 55 4a
        E 5 e0 55 4a
        E 5 e0 55 4a
        E 5 e0 55 4a
        E 5 e0 55 4a
        E 6 e0 55 4a
        E 5 e0 55 4a
        E 5 e0 55 4a
        E 5 e0 55 4a
        E 5 e0 55 4a
        E 5 e0 55 4a
        E 5 e0 55 4a
        E 5 e0 55 4a
        E 6 e0 55 4a
        E 5 e0 55 4a
        E 5 e0 55 4a
        E 5 e0 55 4a
        E 5 e0 55 4a
        E 5 e0 55 4a
        E 5 e0 55 4a
        E 5 e0 55 4a
        E 5 e0 55 4a
        E 6 e0 55 4a
        E 5 e0 55 4a
        E 5 e0 55 4a
        E 5 e0 55 4a
        E 5 e0 55 4a
        E 5 e0 55 4a
        E 5 e0 55 4a
        E 5 e0 55 4a
        E 6 e0 55 4a
        E 5 e0 55 4a
        E 5 e0 55 4a
        E 5 e0 55 4a
        E 5 e0 55 4a
        E 5 e0 55 4a
        E 5 e0 55 4a
        E 5 e0 55 4a
        E 5 e0 55 4a
        E 6 e0 55 4a
        E 5 e0 55 4a
        E 5 e0 55 4a
        E 5 e0 55 4a
        E 5 e0 55 4a
        E 5 e0 55 4a
        E 5 e0 55 4a
        E 5 e0 55 4a
        E 6 e0 55 4a
        E 5 e0 55 4a
        E 5 e0 55 4a
        E 5 e0 55 4a
        E 5 e0 55 4a
        E 5 e0 55 4a
        E 5 e0 55 4a
        E 5 e0 55 4a
        E 5 e0 55 4a
        E 6 e0 55 4a
        E 5 e0 55 4a
        E 5 e0 55 4a
        E 5 e0 55 4a
        E 5 e0 55 4a
        E 0 90 26 00
        E 5 90 3d 3e
        E 5 90 39 29
        E 0 90 40 58
        E 67 90 39 00
        E 20 90 3d 00
        E 15 90 3c 50
        E 0 90 3f 4d
        E 0 90 40 00
        E 82 90 3c 00
        E 0 90 3d 44
        E 10 90 3f 00
        E 0 90 40 4f
        E 77 90 3d 00
        E 10 90 3c 3c
        E 0 90 3f 54
        E 0 90 40 00
        E 0 90 4b 22
        E 72 90 4b 00
        E 10 90 3c 00
        E 5 90 3d 42
        E 0 90 3f 00
        E 0 90 40 45
        E 92 90 3f 50
        E 0 90 40 00
        E 0 90 42 46
        E 20 90 3d 00
        E 26 90 4e 2d
        E 46 90 3f 00
        E 0 90 40 4d
        E 26 90 42 00
        E 30 90 4e 00
        E 51 90 3f 3d
        E 0 90 40 00
        E 0 90 42 41
        E 83 90 42 00
        E 0 90 43 41
        E 86 90 3f 00
        E 0 90 3f 4c
        E 0 90 42 4c
        E 0 90 43 00
        E 87 90 3f 00
        E 0 90 40 2c
        E 0 90 42 00
        E 0 90 43 40
        E 92 90 40 00
        E 0 90 40 42
        E 16 90 43 00
        E 71 90 42 49
        E 5 90 40 00
        E 41 90 32 3f
        E 46 90 41 39
        E 0 90 42 00
        E 0 90 4d 1d
        E 5 90 3d 31
        E 56 90 41 00
        E 0 90 4d 00
        E 5 90 3d 00
        E 16 90 42 4c
        E 5 90 3e 3d
        E 25 90 4e 4e
        E 57 90 3e 00
        E 5 90 3d 3b
        E 0 90 4e 00
        E 5 90 41 42
        E 0 90 42 00
        E 0 90 4d 1f
        E 56 90 32 00
        E 5 90 4d 00
        E 0 90 4e 36
        E 15 90 41 00
        E 6 90 3d 00
        E 0 90 3e 45
        E 0 90 42 4b
        E 71 90 40 32
        E 0 90 42 00
        E 10 90 3e 00
        E 0 90 43 41
        E 0 90 4e 00
        E 62 90 40 00
        E 26 90 43 00
        E 5 90 42 47
        E 36 90 3e 39
        E 0 90 45 31
        E 35 90 42 00
        E 11 90 41 3c
        E 76 90 45 00
        E 0 90 45 4e
        E 5 90 3e 00
        E 0 90 3e 32
        E 0 90 41 00
        E 0 90 42 45
        E 0 90 51 2b
        E 72 90 3e 00
        E 0 90 42 00
        E 5 90 41 40
        E 0 90 44 2b
        E 0 90 45 00
        E 0 90 51 00
        E 61 90 44 00
        E 10 90 45 4e
        E 16 90 41 00
        E 0 90 42 42
        E 46 90 45 00
        E 0 90 51 32
        E 5 90 45 47
        E 30 90 42 00
        E 31 90 56 53
        E 15 90 45 00
        E 0 90 4a 4a
        E 0 90 51 00
        E 0 90 51 32
        E 52 90 56 00
        E 10 90 45 26
        E 0 90 4a 00
        E 0 90 51 00
        E 0 90 51 37
        E 5 90 32 39
        E 0 90 49 49
        E 5 90 3e 2f
        E 41 90 2b 37
        E 25 90 45 00
        E 16 90 51 00
        E 5 90 3e 00
        E 5 90 32 00
        E 10 90 2d 40
        E 15 90 49 00
        E 6 90 2b 00
        E 51 90 2d 00
        E 10 90 47 3b
        E 0 90 53 43
        E 10 90 2f 2e
        E 61 90 25 41
        E 5 90 53 00
        E 6 90 2f 00
        E 20 90 47 00
        E 41 90 25 00
        E 16 90 32 3d
        E 0 90 4e 36
        E 0 90 51 2a
        E 5 90 26 3c
        E 66 90 26 00
        E 5 90 2a 35
        E 6 90 32 00
        E 0 90 32 41
        E 0 90 51 00
        E 0 90 51 31
        E 10 90 4e 00
        E 25 90 36 23
        E 26 90 32 00
        E 25 90 51 00
        E 0 90 51 38
        E 5 90 2a 00
        E 0 90 2b 44
        E 0 90 49 41
        E 41 90 36 00
        E 26 90 2d 37
        E 15 90 2b 00
        E 36 90 49 00
        E 10 90 51 00
        E 5 90 2d 00
        E 36 90 2f 46
        E 0 90 53 3f
        E 82 90 2f 00
        E 0 90 3d 35
        E 15 90 53 00
        E 56 90 3d 00
        E 11 90 32 50
        E 0 90 3e 32
        E 91 90 31 31
        E 0 90 32 00
        E 0 90 3e 00
        E 0 90 51 34
        E 6 90 4c 31
        E 56 90 31 00
        E 0 90 51 00
        E 10 90 4c 00
        E 10 90 2f 48
        E 41 90 3b 2f
        E 41 90 2d 37
        E 0 90 2f 00
        E 5 90 49 2b
        E 46 90 3b 00
        E 15 90 2d 00
        E 11 90 49 00
        E 10 90 4c 2f
        E 5 90 2b 35
        E 62 90 4c 00
        E 15 90 2b 00
        E 0 90 4a 43
        E 5 90 45 2d
        E 77 90 45 00
        E 10 90 4a 00
        E 5 90 36 30
        E 5 90 49 49
        E 77 90 32 25
        E 10 90 49 00
        E 26 90 36 00
        E 10 90 4a 47
        E 56 90 32 00
        E 5 90 49 38
        E 0 90 4a 00
        E 10 90 2d 45
        E 11 90 21 34
        E 81 90 49 00
        E 11 90 3d 45
        E 0 90 49 2d
        E 66 90 21 00
        E 20 90 3d 00
        E 0 90 3e 45
        E 11 90 49 00
        E 35 90 4a 41
        E 41 90 3e 00
        E 0 90 40 55
        E 87 90 2d 00
        E 0 90 42 4b
        E 5 90 40 00
        E 0 90 40 2e
        E 0 90 4a 00
        E 36 90 4e 33
        E 46 90 42 00
        E 0 90 43 40
        E 25 90 40 00
        E 37 90 4e 00
        E 25 90 43 00
        E 0 90 45 4d
        E 11 90 42 5a
        E 45 90 3e 49
        E 46 90 45 00
        E 6 90 41 42
        E 0 90 42 00
        E 76 90 41 00
        E 5 90 45 4f
        E 5 90 42 4a
        E 82 90 3e 00
        E 0 90 3e 3a
        E 0 90 41 41
        E 0 90 42 00
        E 0 90 44 2f
        E 0 90 45 00
        E 72 90 44 00
        E 15 90 41 00
        E 0 90 42 42
        E 5 90 51 29
        E 41 90 45 49
        E 5 90 3e 00
        E 10 90 42 00
        E 21 90 51 00
        E 41 90 45 00
        E 0 90 4a 46
        E 56 90 39 40
        E 5 90 32 35
        E 0 90 3e 36
        E 0 90 4a 00
        E 5 90 42 4d
        E 56 90 3e 00
        E 5 90 39 00
        E 5 90 42 00
        E 21 90 41 3d
        E 0 90 4d 22
        E 41 90 38 39
        E 41 90 4d 00
        E 5 90 41 00
        E 10 90 42 47
        E 31 90 38 00
        E 0 90 38 3d
        E 46 90 32 00
        E 10 90 41 44
        E 0 90 42 00
        E 36 90 38 00
        E 0 90 38 33
        E 0 90 4d 26
        E 41 90 41 00
        E 0 90 42 44
        E 25 90 4d 00
        E 41 90 38 00
        E 16 90 51 35
        E 46 90 45 4b
        E 5 90 42 00
        E 30 90 51 00
        E 11 90 2f 2f
        E 15 90 3e 3a
        E 10 90 45 00
        E 41 90 2f 00
        E 31 90 42 4c
        E 41 90 4e 38
        E 30 90 3e 00
        E 16 90 42 00
        E 40 90 4e 00
        E 6 90 40 48
        E 0 90 4c 30
        E 45 90 43 3d
        E 57 90 40 00
        E 5 90 4c 00
        E 36 90 3d 3e
        E 0 90 40 24
        E 35 90 49 37
        E 16 90 43 00
        E 20 90 3d 00
        E 10 90 40 00
        E 0 90 40 49
        E 16 90 49 00
        E 81 90 26 47
        E 0 90 32 35
        E 0 90 40 00
        E 72 90 32 00
        E 6 90 3d 42
        E 71 90 3d 00
        E 61 90 4a 47
        E 26 90 26 00
        E 56 90 40 3c
        E 5 90 4a 00
        E 36 90 42 51
        E 25 90 40 00
        E 16 90 4e 34
        E 36 90 42 00
        E 5 90 43 49
        E 97 90 32 47
        E 0 90 3e 3a
        E 0 90 43 00
        E 5 90 45 44
        E 0 90 4e 00
        E 0 90 4e 45
        E 0 90 51 42
        E 76 90 42 40
        E 6 90 3e 00
        E 5 90 51 00
        E 25 90 32 00
        E 5 90 4e 00
        E 5 90 36 39
        E 41 90 42 00
        E 26 90 36 00
        E 15 90 40 30
        E 41 90 32 47
        E 0 90 45 00
        E 72 90 40 00
        E 25 90 4e 34
        E 31 90 32 00
        E 46 90 2f 4b
        E 0 90 3b 23
        E 0 90 4e 00
        E 67 90 3b 00
        E 20 90 3e 2b
        E 0 90 42 4c
        E 0 90 4a 43
        E 0 90 4e 38
        E 5 90 2f 00
        E 82 90 4e 00
        E 36 90 3e 00
        E 30 90 42 00
        E 6 90 2a 43
        E 0 90 4a 00
        E 10 90 36 25
        E 56 90 2a 00
        E 5 90 2a 2e
        E 26 90 28 30
        E 0 90 36 00
        E 10 90 36 2e
        E 30 90 2a 00
        E 21 90 28 00
        E 10 90 36 00
        E 15 90 45 26
        E 0 90 51 40
        E 6 90 26 39
        E 0 90 4e 3c
        E 61 90 26 00
        E 41 90 45 00
        E 15 90 25 3f
        E 15 90 4e 00
        E 16 90 51 00
        E 56 90 25 00
        E 0 90 43 31
        E 41 90 4a 41
        E 41 90 43 00
        E 51 90 4a 00
        E 46 90 42 58
        E 41 90 4a 3f
        E 36 90 4e 3d
        E 5 90 42 00
        E 0 90 42 32
        E 56 90 4e 00
        E 0 90 4e 2e
        E 21 90 40 43
        E 10 90 4a 00
        E 36 90 42 00
        E 0 90 4e 00
        E 10 90 49 30
        E 20 90 40 00
        E 0 90 40 39
        E 0 90 4c 46
        E 72 90 49 00
        E 20 90 4a 43
        E 36 90 3e 2b
        E 5 90 32 56
        E 5 90 40 00
        E 15 90 4c 00
        E 77 90 32 00
        E 0 90 32 50
        E 10 90 4a 00
        E 31 90 3e 00
        E 51 90 32 00
        E 0 90 32 33
        E 36 90 2a 47
        E 10 90 36 24
        E 46 90 2d 43
        E 0 90 32 00
        E 5 90 2a 00
        E 5 90 2a 46
        E 41 90 36 00
        E 41 90 2a 00
        E 51 90 26 51
        E 174 90 2d 00
        E 245 90 26 00
        E 1227 90 51 48
        E 26 90 3e 51
        E 5 90 42 49
        E 332 90 51 00
        E 138 90 51 2e
        E 159 90 51 00
        E 5 90 42 00
        E 102 90 3e 00
        E 10 90 53 47
        E 82 90 51 47
        E 97 90 53 00
        E 15 90 51 00
        E 0 90 51 41
        E 92 90 55 3c
        E 51 90 58 40
        E 10 90 51 00
        E 11 90 55 00
        E 62 90 56 3d
        E 35 90 58 00
        E 67 90 56 00
        E 602 90 4e 6d
        E 11 90 45 2f
        E 10 90 32 2f
        E 5 90 3e 4a
        E 41 90 4e 00
        E 0 90 4e 48
        E 103 90 45 00
        E 10 90 32 00
        E 337 90 32 2f
        E 66 90 32 00
        E 46 90 3e 00
        E 16 90 4e 00
        E 30 e0 55 4a
        E 0 90 4f 5a
        E 6 e0 55 4a
        E 5 e0 55 4a
        E 6 e0 55 4a
        E 5 e0 55 4a
        E 6 e0 55 4a
        E 5 e0 55 4a
        E 6 e0 55 4a
        E 5 e0 55 4a
        E 6 e0 55 4a
        E 5 e0 55 4a
        E 6 e0 55 4a
        E 5 e0 55 4a
        E 6 e0 55 4a
        E 5 e0 55 4a
        E 0 90 4e 5e
        E 0 90 4f 00
        E 56 90 4c 44
        E 56 90 4e 00
        E 0 90 4e 5a
        E 57 90 51 3c
        E 51 90 4e 00
        E 0 90 4f 39
        E 41 90 53 4d
        E 36 90 4c 00
        E 41 90 51 00
        E 0 90 51 47
        E 15 90 4f 00
        E 5 90 53 00
        E 184 90 51 00
        E 404 90 4a 5f
        E 10 90 42 3c
        E 10 90 39 3f
        E 445 90 4a 00
        E 0 90 4a 65
        E 20 90 42 00
        E 0 90 42 3d
        E 6 90 39 00
        E 0 90 39 35
        E 189 90 39 00
        E 20 90 4a 00
        E 0 90 4a 4d
        E 15 90 42 00
        E 0 90 42 4f
        E 184 90 42 00
        E 5 90 4c 47
        E 5 90 39 42
        E 11 90 43 32
        E 179 90 4a 00
        E 0 90 4a 40
        E 31 90 43 00
        E 25 90 4c 00
        E 0 90 4c 53
        E 5 90 39 00
        E 0 90 39 38
        E 148 90 4a 00
        E 26 90 4e 56
        E 61 90 4c 00
        E 62 90 39 00
        E 15 90 4a 42
        E 0 90 4e 00
        E 5 90 3e 47
        E 5 90 42 41
        E 261 90 4a 00
        E 30 90 3e 00
        E 0 90 3e 50
        E 87 90 42 00
        E 0 90 42 53
        E 62 90 40 49
        E 36 90 3e 00
        E 66 90 42 00
        E 0 90 42 5d
        E 51 90 40 00
        E 0 90 45 4b
        E 62 90 42 00
        E 0 90 43 41
        E 46 90 47 35
        E 51 90 45 00
        E 0 90 45 3f
        E 35 90 43 00
        E 16 90 49 3b
        E 41 90 47 00
        E 0 90 47 43
        E 86 90 49 00
        E 0 90 49 53
        E 26 90 47 00
        E 10 90 45 00
        E 10 90 4c 36
        E 52 90 49 00
        E 0 90 4a 47
        E 45 90 4e 41
        E 52 90 4c 00
        E 0 90 4c 3e
        E 30 90 4a 00
        E 62 90 4e 00
        E 0 90 4e 43
        E 40 90 51 38
        E 21 90 4c 00
        E 26 90 4e 00
        E 0 90 4f 36
        E 36 90 51 00
        E 25 90 53 4e
        E 143 90 4f 00
        E 16 e0 55 4a
        E 0 90 51 5b
        E 0 90 53 00
        E 5 e0 55 4a
        E 5 e0 55 4a
        E 5 e0 55 4a
        E 5 e0 55 4a
        E 6 e0 55 4a
        E 5 e0 55 4a
        E 5 e0 55 4a
        E 5 e0 55 4a
        E 6 e0 55 4a
        E 5 e0 55 4a
        E 5 e0 55 4a
        E 5 e0 55 4a
        E 6 e0 55 4a
        E 5 e0 55 4a
        E 5 e0 55 4a
        E 5 e0 55 4a
        E 5 e0 55 4a
        E 6 e0 55 4a
        E 5 e0 55 4a
        E 5 e0 55 4a
        E 5 e0 2b 55
        E 6 e0 2b 55
        E 5 e0 2b 55
        E 5 e0 2b 55
        E 5 e0 55 4a
        E 5 e0 55 4a
        E 6 e0 55 4a
        E 5 e0 55 4a
        E 5 e0 55 4a
        E 5 e0 55 4a
        E 6 e0 55 4a
        E 5 e0 55 4a
        E 5 e0 55 4a
        E 5 e0 55 4a
        E 5 e0 55 4a
        E 6 e0 55 4a
        E 5 e0 55 4a
        E 5 e0 55 4a
        E 5 e0 55 4a
        E 6 e0 55 4a
        E 5 e0 55 4a
        E 5 e0 55 4a
        E 5 e0 55 4a
        E 5 e0 55 4a
        E 0 90 51 00
        E 52 90 3e 57
        E 0 90 42 4c
        E 281 90 3e 00
        E 0 90 3e 4f
        E 5 90 42 00
        E 0 90 42 45
        E 102 90 53 50
        E 57 90 3e 00
        E 30 90 42 00
        E 31 90 55 54
        E 10 90 53 00
        E 92 90 55 00
        E 0 90 56 48
        E 112 90 58 42
        E 113 90 56 00
        E 0 90 56 44
        E 10 90 58 00
        E 133 e0 55 2a
        E 0 90 56 00
        E 0 90 56 38
        E 5 e0 55 2a
        E 6 e0 55 2a
        E 5 e0 55 2a
        E 6 e0 55 2a
        E 5 e0 55 2a
        E 6 e0 55 2a
        E 5 e0 55 2a
        E 5 e0 55 2a
        E 6 e0 55 2a
        E 5 e0 55 2a
        E 6 e0 55 2a
        E 5 e0 55 2a
        E 6 e0 55 2a
        E 5 e0 55 4a
        E 6 e0 55 4a
        E 0 90 56 00
        E 0 90 56 50
        E 184 90 4e 50
        E 61 90 56 00
        E 256 90 45 37
        E 5 90 3e 56
        E 225 90 4e 00
        E 35 90 3e 00
        E 0 90 3e 50
        E 0 90 45 00
        E 0 90 45 46
        E 113 90 4f 59
        E 5 90 45 00
        E 31 90 3e 00
        E 81 e0 55 2a
        E 0 90 4f 00
        E 0 90 50 60
        E 5 e0 55 4a
        E 6 e0 55 4a
        E 5 e0 55 4a
        E 5 e0 55 4a
        E 5 e0 55 4a
        E 5 e0 55 4a
        E 5 e0 55 4a
        E 5 e0 55 4a
        E 6 e0 55 4a
        E 5 e0 55 4a
        E 5 e0 55 4a
        E 5 e0 55 4a
        E 5 e0 55 4a
        E 5 e0 55 4a
        E 5 e0 55 4a
        E 5 e0 55 4a
        E 6 e0 55 4a
        E 5 e0 55 4a
        E 5 e0 55 4a
        E 0 90 50 00
        E 0 90 51 57
        E 5 e0 55 4a
        E 6 e0 55 4a
        E 5 e0 55 4a
        E 5 e0 55 4a
        E 6 e0 55 4a
        E 5 e0 55 4a
        E 5 e0 55 4a
        E 6 e0 55 4a
        E 5 e0 55 4a
        E 5 e0 55 4a
        E 6 e0 55 4a
        E 5 e0 55 4a
        E 5 e0 55 4a
        E 6 e0 55 4a
        E 5 e0 55 4a
        E 5 e0 55 4a
        E 6 e0 55 4a
        E 5 e0 55 4a
        E 5 e0 55 4a
        E 6 e0 55 4a
        E 5 e0 55 4a
        E 5 e0 55 4a
        E 0 90 51 00
        E 0 90 51 30
        E 0 90 53 4c
        E 113 90 51 00
        E 0 90 51 4c
        E 92 90 53 00
        E 35 e0 55 4a
        E 0 90 50 52
        E 0 90 51 00
        E 6 e0 55 4a
        E 5 e0 55 4a
        E 5 e0 55 4a
        E 6 e0 55 4a
        E 5 e0 55 4a
        E 5 e0 55 4a
        E 6 e0 55 4a
        E 5 e0 55 4a
        E 5 e0 55 4a
        E 6 e0 55 4a
        E 5 e0 55 4a
        E 5 e0 55 4a
        E 6 e0 55 4a
        E 5 e0 55 4a
        E 5 e0 55 4a
        E 6 e0 55 4a
        E 5 e0 55 4a
        E 5 e0 55 4a
        E 6 e0 55 4a
        E 5 e0 55 4a
        E 5 e0 55 4a
        E 6 e0 55 4a
        E 5 e0 55 4a
        E 5 e0 55 4a
        E 0 90 50 00
        E 0 90 51 4c
        E 5 e0 55 4a
        E 6 e0 55 4a
        E 5 e0 55 4a
        E 5 e0 55 4a
        E 5 e0 55 4a
        E 6 e0 55 4a
        E 5 e0 55 4a
        E 5 e0 55 4a
        E 5 e0 55 4a
        E 5 e0 55 4a
        E 6 e0 55 4a
        E 5 e0 55 4a
        E 5 e0 55 4a
        E 5 e0 55 4a
        E 6 e0 55 4a
        E 5 e0 55 4a
        E 5 e0 55 4a
        E 5 e0 55 4a
        E 5 e0 55 4a
        E 6 e0 55 4a
        E 5 e0 55 4a
        E 5 e0 55 4a
        E 5 e0 55 4a
        E 6 e0 55 4a
        E 5 e0 55 4a
        E 5 e0 55 4a
        E 5 e0 55 4a
        E 5 e0 55 4a
        E 6 e0 55 4a
        E 5 e0 55 4a
        E 5 e0 55 4a
        E 5 e0 55 4a
        E 6 e0 55 4a
        E 5 e0 55 4a
        E 5 e0 55 4a
        E 5 e0 55 4a
        E 5 e0 55 4a
        E 6 e0 55 4a
        E 5 e0 55 4a
        E 5 e0 55 2a
        E 5 e0 55 2a
        E 6 e0 55 2a
        E 5 e0 55 4a
        E 5 e0 55 4a
        E 0 90 51 00
        E 0 90 51 4a
        E 31 90 39 4a
        E 87 90 51 00
        E 347 90 39 00
        E 6 90 4e 48
        E 61 90 4a 5b
        E 15 90 39 3f
        E 0 90 42 43
        E 36 90 4e 00
        E 199 90 39 00
        E 10 90 4a 00
        E 0 90 4a 4d
        E 6 90 42 00
        E 0 90 42 56
        E 194 90 4e 4a
        E 26 90 4c 43
        E 10 90 42 00
        E 0 90 42 3a
        E 20 90 39 42
        E 72 90 42 00
        E 0 90 43 32
        E 5 90 4e 00
        E 112 90 4a 00
        E 0 90 4a 48
        E 11 90 43 00
        E 41 90 4c 00
        E 0 90 4c 4e
        E 5 90 39 00
        E 0 90 39 46
        E 97 90 4a 00
        E 112 90 4e 50
        E 92 90 39 00
        E 5 90 4c 00
        E 0 90 4c 4c
        E 31 90 3e 37
        E 5 90 4e 00
        E 25 90 39 2c
        E 143 90 39 00
        E 93 90 43 29
        E 128 90 43 00
        E 255 90 4a 3f
        E 0 90 4c 00
        E 26 90 42 4b
        E 204 90 4a 00
        E 97 90 3e 00
        E 10 90 42 00
        E 10 e0 55 4a
        E 0 90 38 63
        E 6 e0 55 4a
        E 5 e0 55 4a
        E 5 e0 55 4a
        E 5 e0 55 4a
        E 5 e0 55 4a
        E 5 e0 55 4a
        E 5 e0 55 4a
        E 5 e0 55 4a
        E 6 e0 55 4a
        E 5 e0 55 4a
        E 5 e0 55 4a
        E 5 e0 55 4a
        E 5 e0 55 4a
        E 5 e0 55 4a
        E 5 e0 55 4a
        E 5 e0 55 4a
        E 6 e0 55 4a
        E 5 e0 55 4a
        E 5 e0 55 4a
        E 5 e0 55 4a
        E 5 e0 55 4a
        E 5 e0 55 4a
        E 5 e0 55 4a
        E 5 e0 55 4a
        E 6 e0 55 4a
        E 5 e0 55 4a
        E 5 e0 55 4a
        E 5 e0 55 4a
        E 5 e0 55 4a
        E 5 e0 55 4a
        E 5 e0 55 4a
        E 5 e0 55 4a
        E 6 e0 55 4a
        E 0 90 38 00
        E 0 90 38 43
        E 5 e0 55 4a
        E 5 e0 55 4a
        E 6 e0 55 4a
        E 5 e0 55 4a
        E 5 e0 55 4a
        E 6 e0 55 4a
        E 5 e0 55 4a
        E 6 e0 55 4a
        E 5 e0 55 4a
        E 5 e0 55 4a
        E 6 e0 55 4a
        E 5 e0 55 4a
        E 6 e0 55 4a
        E 5 e0 55 4a
        E 5 e0 55 4a
        E 6 e0 55 4a
        E 5 e0 55 4a
        E 5 e0 55 6a
        E 6 e0 55 6a
        E 0 90 38 00
        E 10 90 35 5d
        E 72 90 41 29
        E 45 90 35 00
        E 0 90 36 53
        E 41 90 41 00
        E 41 90 36 00
        E 0 90 36 46
        E 67 90 31 47
        E 5 90 3d 2d
        E 127 90 3d 00
        E 21 90 31 00
        E 0 90 32 59
        E 61 90 36 00
        E 199 90 4c 44
        E 37 90 2d 4c
        E 0 90 39 3f
        E 20 90 58 2d
        E 46 90 32 00
        E 15 90 58 00
        E 378 90 40 2f
        E 21 90 39 00
        E 5 90 3d 52
        E 72 90 39 2e
        E 189 90 40 00
        E 10 90 4c 00
        E 25 90 39 00
        E 0 90 3d 00
        E 0 90 3d 47
        E 5 90 39 3d
        E 52 90 4e 41
        E 36 90 2d 00
        E 5 90 4c 3e
        E 31 90 3d 00
        E 5 90 39 00
        E 10 90 4e 00
        E 41 e0 55 2a
        E 0 90 4c 00
        E 0 90 4c 52
        E 5 e0 55 2a
        E 6 e0 55 2a
        E 5 e0 55 2a
        E 6 e0 55 2a
        E 5 e0 55 2a
        E 6 e0 55 2a
        E 5 e0 55 4a
        E 6 e0 55 2a
        E 5 e0 55 2a
        E 6 e0 55 2a
        E 5 e0 55 2a
        E 6 e0 55 2a
        E 5 e0 55 4a
        E 0 90 4c 00
        E 0 90 4c 50
        E 5 90 4f 53
        E 16 90 39 3a
        E 41 90 3d 34
        E 20 90 4c 00
        E 0 90 4c 3e
        E 77 90 4c 00
        E 20 90 39 00
        E 15 90 3d 00
        E 11 e0 55 4a
        E 0 90 4e 68
        E 0 90 4f 00
        E 5 e0 55 4a
        E 5 e0 55 4a
        E 6 e0 55 4a
        E 5 e0 55 4a
        E 5 e0 55 4a
        E 6 e0 55 4a
        E 5 e0 55 4a
        E 5 e0 55 4a
        E 6 e0 55 4a
        E 5 e0 2b 55
        E 5 e0 2b 55
        E 5 e0 55 4a
        E 6 e0 55 4a
        E 5 e0 55 4a
        E 5 e0 55 4a
        E 6 e0 55 4a
        E 5 e0 55 4a
        E 5 e0 55 4a
        E 6 e0 55 4a
        E 5 e0 55 4a
        E 5 e0 55 4a
        E 6 e0 55 4a
        E 5 e0 55 4a
        E 5 e0 55 4a
        E 0 90 3e 37
        E 0 90 4e 00
        E 0 90 4e 60
        E 16 90 39 32
        E 178 90 39 00
        E 0 90 3e 00
        E 57 90 4e 00
        E 0 90 4e 54
        E 41 90 4c 4a
        E 92 90 4e 00
        E 0 90 4e 4e
        E 15 90 51 3d
        E 5 90 3f 35
        E 6 90 4c 00
        E 10 90 39 47
        E 51 90 51 00
        E 168 90 4e 00
        E 31 90 3f 00
        E 31 90 4f 53
        E 143 90 4f 00
        E 0 90 4f 3f
        E 36 90 40 3e
        E 5 90 39 00
        E 0 90 39 3c
        E 117 90 4f 00
        E 87 90 4f 2e
        E 128 90 4f 00
        E 261 90 40 00
        E 20 90 39 00
        E 0 90 39 50
        E 128 90 3b 4a
        E 56 90 39 00
        E 5 90 3d 53
        E 62 90 3d 00
        E 5 90 3e 48
        E 10 90 3b 00
        E 36 90 40 3e
        E 35 90 42 45
        E 21 90 3e 00
        E 56 90 45 4a
        E 26 90 40 00
        E 66 90 42 00
        E 10 90 4a 3c
        E 10 90 45 00
        E 21 90 4c 34
        E 15 90 4e 52
        E 51 90 4c 00
        E 11 90 4e 00
        E 0 90 4e 3d
        E 0 90 51 42
        E 31 90 4a 00
        E 35 90 4e 00
        E 21 90 56 3b
        E 41 90 58 38
        E 30 90 51 00
        E 72 90 58 00
        E 36 90 56 00
        E 107 90 53 30
        E 77 90 51 3a
        E 30 90 53 00
        E 56 e0 55 4a
        E 0 90 4f 40
        E 0 90 51 00
        E 6 e0 55 4a
        E 6 e0 55 4a
        E 5 e0 55 4a
        E 6 e0 55 4a
        E 5 e0 55 4a
        E 6 e0 55 4a
        E 5 e0 55 4a
        E 6 e0 55 4a
        E 6 e0 55 4a
        E 5 e0 55 4a
        E 6 e0 55 4a
        E 0 90 4f 00
        E 41 e0 55 4a
        E 0 90 4f 35
        E 5 e0 55 4a
        E 5 e0 55 4a
        E 6 e0 55 4a
        E 5 e0 55 4a
        E 6 e0 55 4a
        E 5 e0 55 4a
        E 6 e0 55 4a
        E 5 e0 55 4a
        E 5 e0 55 4a
        E 6 e0 55 4a
        E 5 e0 55 4a
        E 6 e0 55 4a
        E 5 e0 55 4a
        E 6 e0 55 4a
        E 5 e0 55 4a
        E 5 e0 55 4a
        E 0 90 4f 00
        E 26 90 4e 51
        E 41 90 32 4a
        E 307 90 4e 00
        E 5 90 3e 62
        E 255 90 3e 00
        E 0 90 3e 56
        E 0 90 42 50
        E 36 90 32 00
        E 51 90 4a 59
        E 5 90 3e 00
        E 0 90 3e 3a
        E 67 90 42 00
        E 20 90 4c 67
        E 26 90 4a 00
        E 30 90 42 3c
        E 6 90 3e 00
        E 0 90 3e 3b
        E 0 90 4c 00
        E 0 90 4c 3f
        E 0 90 4e 5d
        E 66 90 4e 00
        E 0 90 4f 4e
        E 36 90 4c 00
        E 25 90 3e 00
        E 0 90 3e 3f
        E 0 90 51 3e
        E 67 90 42 00
        E 26 90 40 3c
        E 0 90 43 37
        E 0 90 4f 00
        E 0 90 4f 37
        E 5 90 3e 00
        E 0 90 3e 3d
        E 71 90 40 00
        E 0 90 40 3a
        E 0 90 4c 66
        E 5 90 3e 00
        E 0 90 3e 33
        E 31 90 51 00
        E 15 90 43 00
        E 16 90 4e 5d
        E 0 90 4f 00
        E 5 90 4c 00
        E 0 90 4c 37
        E 36 90 3e 00
        E 35 90 4e 00
        E 0 90 4f 3b
        E 6 90 40 00
        E 0 90 40 43
        E 0 90 43 39
        E 61 90 43 00
        E 5 90 3e 3a
        E 0 90 51 49
        E 25 90 4c 00
        E 36 90 53 44
        E 10 90 3e 00
        E 41 90 4f 00
        E 62 90 3e 41
        E 0 90 51 00
        E 0 90 51 47
        E 10 90 40 00
        E 5 90 45 31
        E 10 90 42 30
        E 61 90 53 00
        E 154 90 51 00
        E 41 90 42 00
        E 15 90 45 00
        E 31 90 3e 00
        E 0 90 3e 5e
        E 0 90 4a 23
        E 97 90 4a 00
        E 194 90 3e 00
        E 0 90 3e 48
        E 21 90 32 4d
        E 378 90 40 46
        E 20 90 3e 00
        E 67 90 3e 45
        E 107 90 3e 00
        E 0 90 3e 46
        E 11 90 32 00
        E 25 90 40 00
        E 0 90 40 3e
        E 82 90 43 40
        E 5 90 3e 00
        E 36 90 45 3a
        E 25 90 40 00
        E 0 90 47 3a
        E 72 90 4a 44
        E 30 90 43 00
        E 6 90 4c 33
        E 5 90 47 00
        E 5 90 45 00
        E 56 90 4f 32
        E 5 90 4c 00
        E 26 90 51 2b
        E 30 90 53 40
        E 5 90 4a 00
        E 26 90 51 00
        E 41 90 4a 2d
        E 5 90 53 00
        E 20 90 4f 00
        E 0 90 56 49
        E 36 90 4a 00
        E 72 90 53 40
        E 51 90 56 00
        E 87 90 53 00
        E 107 e0 55 4a
        E 0 90 53 42
        E 6 e0 55 4a
        E 5 e0 55 4a
        E 5 e0 55 4a
        E 6 e0 55 4a
        E 5 e0 55 4a
        E 5 e0 55 4a
        E 5 e0 55 4a
        E 6 e0 55 4a
        E 5 e0 55 4a
        E 5 e0 55 4a
        E 6 e0 55 4a
        E 5 e0 55 4a
        E 5 e0 55 4a
        E 5 e0 55 4a
        E 6 e0 55 4a
        E 5 e0 55 4a
        E 5 e0 55 4a
        E 6 e0 55 4a
        E 5 e0 55 4a
        E 5 e0 55 4a
        E 6 e0 55 4a
        E 5 e0 55 4a
        E 5 e0 55 4a
        E 5 e0 55 4a
        E 6 e0 55 4a
        E 5 e0 55 4a
        E 5 e0 55 4a
        E 6 e0 55 4a
        E 0 90 53 00
        E 20 90 51 41
        E 26 90 3e 3f
        E 347 90 51 00
        E 15 90 45 55
        E 5 90 42 45
        E 292 90 45 00
        E 0 90 45 4e
        E 5 90 42 00
        E 0 90 42 47
        E 26 90 3e 00
        E 81 90 3e 2f
        E 0 90 4a 4b
        E 92 90 45 00
        E 21 90 4e 53
        E 5 90 42 00
        E 0 90 42 44
        E 0 90 45 26
        E 41 90 3e 00
        E 36 90 4a 00
        E 20 90 3e 2a
        E 0 90 45 00
        E 0 90 45 38
        E 0 90 51 57
        E 31 90 4e 00
        E 56 90 3e 00
        E 20 90 42 00
        E 5 90 45 00
        E 6 90 51 00
        E 0 90 51 3d
        E 0 90 53 54
        E 15 90 47 29
        E 76 90 51 00
        E 6 90 4f 3e
        E 30 90 43 30
        E 10 90 47 00
        E 92 90 43 00
        E 5 90 43 3c
        E 0 90 56 3a
        E 6 90 53 00
        E 71 90 4f 00
        E 31 90 53 4d
        E 143 90 50 3c
        E 5 90 3e 4b
        E 0 90 56 00
        E 46 90 43 00
        E 52 90 53 00
        E 117 90 50 00
        E 82 90 3e 00
        E 0 90 3e 45
        E 0 90 51 3b
        E 5 90 45 39
        E 15 90 42 42
        E 51 90 51 00
        E 97 90 45 00
        E 123 90 45 4b
        E 5 90 3e 00
        E 0 90 3e 38
        E 0 90 42 00
        E 0 90 42 45
        E 61 90 4a 6b
        E 51 90 3e 00
        E 11 90 42 00
        E 0 90 45 00
        E 5 e0 55 2a
        E 0 90 4a 00
        E 0 90 4b 3d
        E 5 e0 55 2a
        E 6 e0 55 2a
        E 5 e0 55 2a
        E 6 e0 55 2a
        E 5 e0 55 2a
        E 6 e0 55 2a
        E 5 e0 55 2a
        E 6 e0 55 2a
        E 5 e0 55 4a
        E 6 e0 55 4a
        E 5 e0 55 6a
        E 6 e0 55 6a
        E 5 e0 55 6a
        E 0 90 4b 00
        E 16 e0 55 2a
        E 0 90 4d 3e
        E 5 e0 55 4a
        E 5 e0 55 4a
        E 5 e0 55 4a
        E 5 e0 55 4a
        E 5 e0 55 4a
        E 5 e0 55 4a
        E 6 e0 55 4a
        E 5 e0 55 4a
        E 5 e0 55 6a
        E 5 e0 55 6a
        E 5 e0 55 6a
        E 5 e0 55 6a
        E 5 e0 55 6a
        E 6 e0 55 6a
        E 5 e0 55 6a
        E 5 e0 55 6a
        E 5 e0 55 6a
        E 0 90 4d 00
        E 0 90 4f 34
        E 82 90 51 3c
        E 71 90 4f 00
        E 102 90 51 00
        E 16 90 55 37
        E 41 90 43 30
        E 46 90 55 00
        E 0 90 55 42
        E 71 90 58 43
        E 31 90 43 00
        E 20 90 55 00
        E 21 90 56 61
        E 25 90 58 00
        E 36 90 55 43
        E 0 90 56 00
        E 46 90 53 57
        E 15 90 55 00
        E 0 90 56 2f
        E 62 90 56 00
        E 5 90 42 37
        E 0 90 45 31
        E 0 90 53 00
        E 0 90 53 4b
        E 61 90 3e 3e
        E 0 90 51 30
        E 46 90 53 00
        E 5 90 45 00
        E 10 90 56 3f
        E 37 90 51 00
        E 30 90 3e 00
        E 5 90 42 00
        E 41 e0 55 4a
        E 0 90 56 00
        E 0 90 56 51
        E 6 e0 55 4a
        E 5 e0 55 4a
        E 6 e0 55 4a
        E 5 e0 55 4a
        E 6 e0 55 4a
        E 5 e0 55 4a
        E 6 e0 55 4a
        E 5 e0 55 4a
        E 6 e0 2b 55
        E 5 e0 2b 55
        E 6 e0 55 2a
        E 5 e0 55 2a
        E 6 e0 55 2a
        E 0 90 56 00
        E 97 90 51 3c
        E 92 90 45 37
        E 5 90 3d 4c
        E 71 90 3d 00
        E 0 90 3d 51
        E 51 90 51 00
        E 16 90 58 39
        E 5 90 3d 00
        E 0 90 3d 41
        E 66 90 45 00
        E 21 90 58 00
        E 15 90 3d 00
        E 66 90 53 3e
        E 57 90 51 40
        E 51 90 4f 54
        E 10 90 53 00
        E 56 90 4f 00
        E 0 90 4f 49
        E 10 90 51 00
        E 6 90 45 2d
        E 5 90 3e 33
        E 0 90 42 3c
        E 102 90 45 00
        E 21 90 56 37
        E 15 90 4f 00
        E 5 90 3e 00
        E 31 90 42 00
        E 56 90 56 00
        E 82 e0 55 4a
        E 0 90 51 4e
        E 5 e0 55 4a
        E 6 e0 55 4a
        E 5 e0 55 4a
        E 6 e0 55 4a
        E 5 e0 55 4a
        E 6 e0 55 4a
        E 5 e0 55 4a
        E 6 e0 55 4a
        E 5 e0 55 4a
        E 5 e0 55 4a
        E 6 e0 55 4a
        E 5 e0 55 4a
        E 6 e0 55 4a
        E 5 e0 55 4a
        E 0 90 51 00
        E 0 90 51 3b
        E 6 e0 55 4a
        E 5 e0 55 4a
        E 6 e0 55 4a
        E 6 e0 55 4a
        E 5 e0 55 4a
        E 6 e0 55 4a
        E 5 e0 55 4a
        E 6 e0 55 4a
        E 5 e0 55 4a
        E 6 e0 55 4a
        E 5 e0 55 4a
        E 6 e0 55 4a
        E 0 90 51 00
        E 5 e0 55 4a
        E 0 90 4e 4f
        E 5 e0 55 4a
        E 5 e0 55 4a
        E 6 e0 55 4a
        E 5 e0 55 4a
        E 5 e0 55 4a
        E 5 e0 55 4a
        E 6 e0 55 4a
        E 5 e0 55 4a
        E 5 e0 55 4a
        E 6 e0 55 4a
        E 5 e0 55 4a
        E 5 e0 55 4a
        E 5 e0 55 4a
        E 6 e0 55 4a
        E 5 e0 55 4a
        E 5 e0 55 4a
        E 5 e0 55 4a
        E 6 e0 55 4a
        E 5 e0 55 4a
        E 5 e0 55 4a
        E 6 e0 55 4a
        E 5 e0 55 4a
        E 5 e0 55 4a
        E 5 e0 55 4a
        E 6 e0 55 4a
        E 5 e0 55 4a
        E 5 e0 55 4a
        E 5 e0 55 4a
        E 6 e0 55 4a
        E 5 e0 55 4a
        E 5 e0 55 4a
        E 5 e0 55 4a
        E 0 90 4e 00
        E 16 90 51 52
        E 117 90 39 30
        E 103 90 51 00
        E 434 90 39 00
        E 133 90 42 53
        E 225 90 50 49
        E 46 90 42 00
        E 36 90 50 00
        E 0 90 51 43
        E 61 90 53 51
        E 97 90 51 00
        E 52 90 4e 50
        E 5 90 3e 56
        E 10 90 53 00
        E 66 90 4c 42
        E 11 90 3d 51
        E 0 90 3e 00
        E 143 90 4c 00
        E 15 90 4e 00
        E 0 90 4e 60
        E 5 90 3d 00
        E 0 90 3d 3a
        E 128 90 3d 00
        E 20 e0 55 4a
        E 0 90 4e 00
        E 0 90 4f 4a
        E 5 e0 55 4a
        E 6 e0 55 4a
        E 5 e0 55 4a
        E 5 e0 55 4a
        E 5 e0 55 4a
        E 6 e0 55 4a
        E 5 e0 55 4a
        E 5 e0 55 4a
        E 5 e0 55 4a
        E 6 e0 55 4a
        E 5 e0 55 4a
        E 5 e0 55 4a
        E 5 e0 55 2a
        E 6 e0 55 2a
        E 5 e0 55 2a
        E 5 e0 55 2a
        E 5 e0 55 4a
        E 5 e0 55 4a
        E 6 e0 55 4a
        E 5 e0 55 4a
        E 5 e0 55 4a
        E 5 e0 55 4a
        E 6 e0 55 4a
        E 5 e0 55 4a
        E 5 e0 55 4a
        E 5 e0 55 4a
        E 6 e0 55 4a
        E 5 e0 55 4a
        E 5 e0 55 4a
        E 5 e0 55 4a
        E 6 e0 55 4a
        E 5 e0 55 4a
        E 5 e0 55 4a
        E 5 e0 55 4a
        E 6 e0 55 4a
        E 5 e0 55 4a
        E 5 e0 55 4a
        E 5 e0 55 4a
        E 0 90 4f 00
        E 0 90 50 4e
        E 5 e0 55 4a
        E 6 e0 55 4a
        E 5 e0 55 4a
        E 5 e0 55 4a
        E 5 e0 55 4a
        E 5 e0 55 4a
        E 5 e0 55 4a
        E 5 e0 55 4a
        E 5 e0 55 4a
        E 6 e0 55 4a
        E 5 e0 55 4a
        E 5 e0 55 4a
        E 5 e0 55 4a
        E 5 e0 55 4a
        E 5 e0 55 4a
        E 5 e0 55 4a
        E 5 e0 55 4a
        E 6 e0 55 4a
        E 5 e0 55 4a
        E 5 e0 55 4a
        E 5 e0 55 4a
        E 5 e0 55 4a
        E 5 e0 55 4a
        E 5 e0 55 4a
        E 5 e0 55 4a
        E 6 e0 55 4a
        E 5 e0 55 4a
        E 5 e0 55 4a
        E 5 e0 55 4a
        E 5 e0 55 4a
        E 5 e0 55 4a
        E 5 e0 55 4a
        E 5 e0 55 4a
        E 5 e0 55 4a
        E 6 e0 55 4a
        E 5 e0 55 4a
        E 5 e0 55 4a
        E 5 e0 55 4a
        E 5 e0 55 4a
        E 5 e0 55 4a
        E 5 e0 55 4a
        E 5 e0 55 4a
        E 0 90 50 00
        E 230 e0 55 4a
        E 0 90 51 56
        E 6 e0 55 4a
        E 5 e0 55 4a
        E 5 e0 55 4a
        E 5 e0 55 4a
        E 6 e0 55 4a
        E 5 e0 55 4a
        E 5 e0 55 4a
        E 5 e0 55 4a
        E 6 e0 55 4a
        E 5 e0 55 4a
        E 5 e0 55 4a
        E 5 e0 55 4a
        E 6 e0 55 4a
        E 5 e0 55 4a
        E 5 e0 55 4a
        E 5 e0 55 4a
        E 6 e0 55 4a
        E 5 e0 55 4a
        E 5 e0 55 4a
        E 5 e0 55 4a
        E 6 e0 55 4a
        E 5 e0 55 4a
        E 5 e0 55 4a
        E 5 e0 55 4a
        E 6 e0 55 4a
        E 5 e0 55 4a
        E 5 e0 55 4a
        E 5 e0 55 4a
        E 6 e0 55 4a
        E 5 e0 55 4a
        E 5 e0 55 4a
        E 5 e0 55 4a
        E 6 e0 55 4a
        E 5 e0 55 4a
        E 5 e0 55 4a
        E 0 90 51 00
        E 174 90 3e 51
        E 0 90 42 57
        E 322 90 3e 00
        E 0 90 3e 49
        E 11 90 42 00
        E 0 90 42 4a
        E 71 90 52 49
        E 82 90 52 00
        E 5 90 53 69
        E 20 90 3e 00
        E 11 90 42 00
        E 40 e0 55 2a
        E 0 90 53 00
        E 0 90 54 3a
        E 6 e0 55 2a
        E 5 e0 55 4a
        E 5 e0 55 4a
        E 6 e0 55 4a
        E 5 e0 55 4a
        E 6 e0 2b 35
        E 5 e0 2b 35
        E 5 e0 2b 35
        E 6 e0 2b 35
        E 5 e0 2b 35
        E 5 e0 2b 35
        E 6 e0 55 4a
        E 5 e0 55 6a
        E 5 e0 55 6a
        E 6 e0 55 6a
        E 5 e0 55 2a
        E 5 e0 55 4a
        E 6 e0 55 6a
        E 5 e0 55 6a
        E 5 e0 55 6a
        E 6 e0 2b 35
        E 0 90 54 00
        E 15 90 56 43
        E 87 90 58 48
        E 117 e0 55 4a
        E 0 90 56 00
        E 0 90 56 5f
        E 0 90 58 00
        E 6 e0 55 4a
        E 5 e0 55 4a
        E 6 e0 55 4a
        E 5 e0 55 4a
        E 5 e0 55 4a
        E 6 e0 55 4a
        E 5 e0 55 4a
        E 5 e0 55 4a
        E 6 e0 55 4a
        E 5 e0 55 4a
        E 5 e0 55 4a
        E 6 e0 55 4a
        E 5 e0 55 4a
        E 6 e0 55 4a
        E 5 e0 55 4a
        E 5 e0 55 4a
        E 6 e0 55 4a
        E 5 e0 55 4a
        E 5 e0 55 4a
        E 6 e0 55 4a
        E 0 90 55 48
        E 0 90 56 00
        E 5 e0 55 4a
        E 5 e0 55 4a
        E 5 e0 55 4a
        E 5 e0 55 4a
        E 5 e0 55 4a
        E 6 e0 55 4a
        E 5 e0 55 4a
        E 5 e0 55 4a
        E 5 e0 55 4a
        E 5 e0 55 4a
        E 5 e0 55 4a
        E 5 e0 55 4a
        E 5 e0 55 4a
        E 6 e0 55 4a
        E 5 e0 55 4a
        E 5 e0 55 4a
        E 5 e0 55 4a
        E 5 e0 55 4a
        E 5 e0 55 4a
        E 5 e0 55 4a
        E 6 e0 55 4a
        E 5 e0 55 4a
        E 0 90 55 00
        E 0 90 56 59
        E 5 e0 55 4a
        E 5 e0 55 4a
        E 5 e0 55 4a
        E 6 e0 55 4a
        E 5 e0 55 4a
        E 5 e0 55 4a
        E 6 e0 55 4a
        E 5 e0 55 4a
        E 5 e0 55 4a
        E 5 e0 55 4a
        E 6 e0 55 4a
        E 5 e0 55 4a
        E 5 e0 55 4a
        E 5 e0 55 4a
        E 6 e0 55 4a
        E 5 e0 55 4a
        E 5 e0 2b 55
        E 5 e0 2b 55
        E 6 e0 2b 55
        E 5 e0 2b 55
        E 5 e0 2b 55
        E 5 e0 2b 55
        E 6 e0 2b 55
        E 5 e0 2b 55
        E 5 e0 2b 55
        E 6 e0 2b 55
        E 5 e0 55 4a
        E 5 e0 55 4a
        E 5 e0 55 4a
        E 6 e0 55 4a
        E 5 e0 55 4a
        E 5 e0 55 4a
        E 5 e0 55 4a
        E 0 90 56 00
        E 0 90 56 50
        E 118 90 4e 69
        E 66 90 4e 00
        E 0 90 4e 44
        E 108 90 56 00
        E 25 90 3e 5d
        E 0 90 45 3b
        E 118 90 45 00
        E 15 90 32 2e
        E 164 90 3e 00
        E 0 90 3e 54
        E 5 90 45 44
        E 82 90 45 00
        E 0 90 4e 00
        E 0 90 4e 59
        E 36 90 32 00
        E 30 90 3e 00
        E 5 e0 55 2a
        E 0 90 4e 00
        E 0 90 4f 59
        E 6 e0 2b 55
        E 5 e0 2b 55
        E 6 e0 55 4a
        E 5 e0 55 4a
        E 6 e0 55 4a
        E 5 e0 55 4a
        E 6 e0 55 4a
        E 5 e0 55 4a
        E 6 e0 55 4a
        E 5 e0 55 4a
        E 6 e0 55 4a
        E 5 e0 2b 55
        E 6 e0 2b 55
        E 0 90 4f 00
        E 0 90 50 4f
        E 5 e0 55 4a
        E 6 e0 55 4a
        E 5 e0 55 4a
        E 6 e0 55 4a
        E 5 e0 55 4a
        E 6 e0 55 4a
        E 6 e0 55 4a
        E 5 e0 55 4a
        E 6 e0 55 4a
        E 5 e0 55 4a
        E 6 e0 55 4a
        E 5 e0 55 4a
        E 0 90 50 00
        E 0 90 51 5e
        E 6 e0 55 4a
        E 5 e0 55 4a
        E 6 e0 55 4a
        E 5 e0 55 4a
        E 6 e0 55 4a
        E 5 e0 55 4a
        E 6 e0 55 4a
        E 5 e0 55 4a
        E 6 e0 55 4a
        E 5 e0 55 4a
        E 6 e0 55 4a
        E 5 e0 55 4a
        E 6 e0 55 4a
        E 0 90 51 00
        E 0 90 52 51
        E 5 e0 55 4a
        E 6 e0 55 4a
        E 5 e0 55 4a
        E 6 e0 55 4a
        E 5 e0 55 4a
        E 5 e0 55 4a
        E 6 e0 55 4a
        E 5 e0 55 4a
        E 6 e0 55 4a
        E 5 e0 55 4a
        E 6 e0 55 4a
        E 5 e0 55 2a
        E 6 e0 55 2a
        E 5 e0 55 2a
        E 5 e0 55 2a
        E 0 90 52 00
        E 0 90 53 52
        E 92 90 51 50
        E 41 90 53 00
        E 56 e0 55 4a
        E 0 90 50 5a
        E 0 90 51 00
        E 6 e0 55 4a
        E 5 e0 55 4a
        E 6 e0 55 4a
        E 5 e0 55 4a
        E 5 e0 55 4a
        E 6 e0 55 4a
        E 5 e0 55 4a
        E 6 e0 55 4a
        E 5 e0 55 4a
        E 5 e0 55 4a
        E 6 e0 55 4a
        E 5 e0 55 4a
        E 6 e0 55 4a
        E 5 e0 55 4a
        E 5 e0 55 4a
        E 6 e0 55 4a
        E 5 e0 55 4a
        E 6 e0 55 4a
        E 0 90 50 00
        E 0 90 51 58
        E 5 e0 55 4a
        E 5 e0 55 4a
        E 5 e0 55 4a
        E 5 e0 55 4a
        E 5 e0 55 4a
        E 5 e0 55 4a
        E 5 e0 55 4a
        E 6 e0 55 4a
        E 5 e0 55 4a
        E 5 e0 55 4a
        E 5 e0 55 4a
        E 5 e0 55 4a
        E 5 e0 55 4a
        E 5 e0 55 4a
        E 5 e0 55 4a
        E 6 e0 55 4a
        E 5 e0 55 4a
        E 5 e0 55 4a
        E 5 e0 55 4a
        E 5 e0 55 4a
        E 5 e0 55 4a
        E 5 e0 55 4a
        E 5 e0 55 4a
        E 6 e0 55 4a
        E 5 e0 55 4a
        E 5 e0 55 4a
        E 5 e0 55 4a
        E 5 e0 55 4a
        E 5 e0 55 4a
        E 5 e0 55 4a
        E 5 e0 55 4a
        E 6 e0 55 4a
        E 5 e0 55 4a
        E 5 e0 55 4a
        E 5 e0 55 4a
        E 0 90 51 00
        E 0 90 51 3c
        E 36 90 39 3a
        E 0 90 42 2d
        E 199 90 42 00
        E 158 90 51 00
        E 123 90 39 00
        E 25 90 4e 5a
        E 46 90 51 46
        E 46 90 4e 00
        E 0 90 4e 49
        E 62 90 4a 67
        E 5 90 51 00
        E 0 90 51 31
        E 5 90 42 4f
        E 71 90 4e 00
        E 11 90 51 00
        E 169 90 4a 00
        E 0 90 4a 64
        E 10 90 42 00
        E 0 90 42 4a
        E 199 90 4e 44
        E 21 90 42 00
        E 15 90 4c 4a
        E 5 90 4a 00
        E 5 90 39 3e
        E 87 90 4e 00
        E 123 90 39 00
        E 51 90 4c 00
        E 0 90 4c 63
        E 35 90 43 33
        E 6 90 39 34
        E 20 90 4c 00
        E 0 90 4c 4b
        E 205 90 43 00
        E 15 90 39 00
        E 36 90 4e 4e
        E 107 90 4c 00
        E 41 90 4a 50
        E 87 90 32 2d
        E 20 90 4e 00
        E 6 90 26 49
        E 51 90 32 00
        E 20 90 4a 00
        E 20 90 28 3f
        E 72 90 26 00
        E 15 90 2a 44
        E 72 90 2a 00
        E 0 90 2b 3b
        E 56 90 2d 40
        E 41 90 28 00
        E 31 90 2f 4a
        E 10 90 2d 00
        E 30 90 2b 00
        E 82 90 32 4e
        E 31 90 2f 00
        E 36 90 34 42
        E 92 90 32 00
        E 20 90 37 4b
        E 72 90 34 00
        E 0 90 39 41
        E 10 90 37 00
        E 0 90 37 3c
        E 46 90 3b 3c
        E 31 90 37 00
        E 10 90 3d 4d
        E 5 90 39 00
        E 61 90 3d 00
        E 6 90 3e 4c
        E 66 90 40 34
        E 26 90 3b 00
        E 10 90 42 58
        E 66 90 42 00
        E 5 90 43 4b
        E 21 90 40 00
        E 25 90 45 3d
        E 41 90 47 38
        E 10 90 3e 00
        E 16 90 43 00
        E 61 90 4a 4a
        E 20 90 47 00
        E 16 90 4c 3c
        E 41 90 45 00
        E 40 90 4f 54
        E 6 90 4a 00
        E 0 90 4a 31
        E 21 90 4c 00
        E 71 90 4e 4b
        E 0 90 4f 00
        E 0 90 51 40
        E 15 90 4a 00
        E 87 90 32 4f
        E 41 90 51 00
        E 36 90 34 3c
        E 61 90 36 43
        E 41 90 32 00
        E 20 90 4e 00
        E 11 90 36 00
        E 0 90 36 3f
        E 30 90 34 00
        E 21 90 39 41
        E 51 90 36 00
        E 10 90 3b 3d
        E 41 90 39 00
        E 15 90 3d 51
        E 62 90 3d 00
        E 0 90 3e 38
        E 56 90 40 4f
        E 51 90 3b 00
        E 10 90 42 5b
        E 61 90 42 00
        E 0 90 43 4a
        E 5 90 3e 00
        E 52 90 45 44
        E 5 90 40 00
        E 41 90 47 3d
        E 10 90 42 36
        E 0 90 43 00
        E 51 90 45 00
        E 26 90 42 00
        E 36 90 4a 57
        E 117 90 3e 53
        E 16 90 4a 00
        E 40 90 47 00
        E 77 90 4f 42
        E 56 90 53 4e
        E 51 90 3e 00
        E 10 90 4c 46
        E 31 90 4f 00
        E 15 90 53 00
        E 6 90 55 4c
        E 56 90 4c 00
        E 0 90 4e 67
        E 0 90 5a 20
        E 36 90 55 00
        E 25 90 4e 00
        E 0 90 4e 58
        E 0 90 56 48
        E 5 90 5a 00
        E 87 90 4e 00
        E 0 90 4e 4e
        E 5 90 4a 3e
        E 67 90 32 41
        E 0 90 42 33
        E 0 90 56 00
        E 5 90 26 48
        E 56 90 3b 33
        E 0 90 4a 00
        E 6 90 28 42
        E 25 90 26 00
        E 0 90 42 00
        E 72 90 32 00
        E 10 90 2b 42
        E 10 90 28 00
        E 31 90 3b 00
        E 66 90 4e 00
        E 10 90 2f 4d
        E 51 90 2b 00
        E 57 90 32 4a
        E 40 90 2f 00
        E 26 90 34 3c
        E 51 90 32 00
        E 61 90 37 40
        E 36 90 34 00
        E 72 90 3b 3d
        E 20 90 37 00
        E 31 90 3d 57
        E 61 90 3d 00
        E 0 90 3e 4c
        E 82 90 3b 00
        E 21 90 32 53
        E 61 90 3e 00
        E 77 90 4c 5a
        E 71 90 4f 4e
        E 56 90 4c 00
        E 5 90 4d 55
        E 31 90 4f 00
        E 5 90 32 00
        E 26 90 50 4e
        E 51 90 4d 00
        E 0 90 4e 4b
        E 31 90 50 00
        E 20 90 51 41
        E 102 90 45 4b
        E 5 90 4e 00
        E 5 90 39 43
        E 133 90 51 00
        E 5 90 56 63
        E 16 90 45 00
        E 86 90 39 00
        E 0 90 39 39
        E 0 90 56 00
        E 0 90 56 36
        E 73 90 54 52
        E 0 90 56 00
        E 71 e0 55 4a
        E 0 90 39 00
        E 0 90 53 50
        E 0 90 54 00
        E 6 e0 55 4a
        E 5 e0 55 4a
        E 6 e0 55 4a
        E 5 e0 55 4a
        E 6 e0 55 4a
        E 5 e0 55 4a
        E 6 e0 2b 55
        E 6 e0 2b 55
        E 5 e0 2b 55
        E 6 e0 2b 55
        E 5 e0 2b 55
        E 0 90 53 00
        E 0 90 53 33
        E 6 e0 55 2a
        E 5 e0 55 2a
        E 6 e0 55 2a
        E 5 e0 55 2a
        E 6 e0 2b 35
        E 5 e0 2b 35
        E 5 e0 55 2a
        E 6 e0 55 2a
        E 5 e0 55 2a
        E 6 e0 55 2a
        E 5 e0 55 2a
        E 6 e0 55 4a
        E 5 e0 55 4a
        E 6 e0 55 4a
        E 5 e0 55 4a
        E 0 90 53 00
        E 10 90 51 3a
        E 5 90 3e 4d
        E 5 90 42 40
        E 67 90 50 44
        E 0 90 51 00
        E 71 90 50 00
        E 41 90 3e 00
        E 0 90 3e 39
        E 0 90 4e 5a
        E 51 90 42 00
        E 21 90 4d 4b
        E 0 90 4e 00
        E 76 90 3e 00
        E 11 90 4d 00
        E 0 90 4d 37
        E 76 90 4b 56
        E 5 90 4d 00
        E 149 90 4a 55
        E 0 90 4b 00
        E 15 90 40 35
        E 15 90 43 25
        E 103 90 43 00
        E 31 90 4a 00
        E 10 90 40 00
        E 0 90 40 35
        E 0 90 49 56
        E 92 90 43 2b
        E 138 90 43 00
        E 15 90 40 00
        E 31 90 4f 4b
        E 86 90 49 00
        E 307 90 43 2c
        E 15 90 4f 00
        E 62 90 43 00
        E 271 90 49 5d
        E 143 90 4c 57
        E 10 90 43 3b
        E 15 90 26 4b
        E 0 90 32 30
        E 57 90 49 00
        E 66 90 39 33
        E 15 90 49 2c
        E 77 90 49 00
        E 51 90 32 00
        E 107 90 43 00
        E 159 90 39 00
        E 36 90 42 2e
        E 5 90 4e 38
        E 51 90 4c 00
        E 0 90 4c 5d
        E 21 90 42 00
        E 30 90 4e 00
        E 5 90 4a 4d
        E 67 90 4c 00
        E 0 90 4c 49
        E 61 90 39 30
        E 67 90 39 00
        E 25 90 4a 00
        E 0 90 4a 3d
        E 5 90 3e 2b
        E 5 90 42 4a
        E 46 90 4c 00
        E 235 90 3e 00
        E 57 90 4a 00
        E 5 90 42 00
        E 46 90 3e 2f
        E 56 90 3e 00
        E 41 90 26 00
        E 414 90 2a 2d
        E 0 90 2e 2d
        E 66 90 2a 00
        E 6 90 2e 00
        E 5 e0 2b 55
        E 0 90 2e 2f
        E 5 e0 2b 55
        E 6 e0 2b 55
        E 5 e0 2b 55
        E 6 e0 2b 55
        E 5 e0 2b 55
        E 6 e0 2b 55
        E 6 e0 2b 55
        E 5 e0 2b 55
        E 6 e0 2b 55
        E 5 e0 2b 55
        E 6 e0 2b 55
        E 0 90 2e 00
        E 1058 90 42 50
        E 5 90 3e 48
        E 56 90 42 00
        E 42 90 3e 00
        E 46 90 51 51
        E 5 90 42 45
        E 97 90 42 00
        E 5 90 43 38
        E 0 90 53 46
        E 92 90 51 00
        E 10 90 40 48
        E 0 90 4f 48
        E 5 90 43 00
        E 0 90 43 3d
        E 67 90 53 00
        E 5 90 43 00
        E 5 90 4f 00
        E 10 90 40 00
        E 0 90 4e 5a
        E 5 90 45 2e
        E 113 90 45 00
        E 0 90 45 50
        E 0 90 4e 00
        E 0 90 4e 56
        E 97 90 4e 00
        E 0 90 4f 4e
        E 5 90 47 3f
        E 46 90 45 00
        E 51 90 4c 5a
        E 0 90 4f 00
        E 0 90 4f 3c
        E 10 90 43 3c
        E 36 90 47 00
        E 35 90 43 00
        E 21 90 3e 3a
        E 0 90 4a 3b
        E 0 90 4f 00
        E 5 90 42 33
        E 93 90 3e 00
        E 0 90 3e 4a
        E 0 90 4a 00
        E 0 90 4a 47
        E 0 90 4c 00
        E 35 90 42 00
        E 41 90 3e 00
        E 21 90 4c 5e
        E 5 90 39 36
        E 0 90 3d 38
        E 10 90 4a 00
        E 87 90 39 00
        E 0 90 39 41
        E 0 90 3d 00
        E 0 90 3d 36
        E 0 90 4c 00
        E 0 90 4c 55
        E 61 90 3d 00
        E 26 90 39 00
        E 15 90 3e 4b
        E 0 90 4c 00
        E 0 90 4d 5f
        E 0 90 51 28
        E 5 90 42 54
        E 77 90 51 00
        E 20 90 42 00
        E 0 90 42 39
        E 0 90 4d 00
        E 0 90 4e 37
        E 92 90 4a 3e
        E 5 90 3e 00
        E 0 90 3e 3a
        E 31 90 4e 00
        E 20 90 42 00
        E 10 90 3e 00
        E 31 90 45 4f
        E 36 90 4a 00
        E 66 90 32 3f
        E 0 90 51 44
        E 10 90 45 00
        E 41 90 3e 3a
        E 16 90 32 00
        E 25 90 51 00
        E 5 90 56 47
        E 46 90 3e 00
        E 0 90 3e 42
        E 16 90 36 2e
        E 26 90 39 3f
        E 30 90 36 00
        E 11 90 3e 00
        E 0 90 3e 3c
        E 25 90 39 00
        E 21 90 4e 49
        E 46 90 3e 00
        E 0 90 3e 2d
        E 20 90 56 00
        E 31 90 32 44
        E 0 90 4e 00
        E 0 90 4e 3f
        E 51 90 3e 00
        E 0 90 3e 39
        E 41 90 4e 00
        E 5 90 36 25
        E 0 90 51 44
        E 5 90 32 00
        E 25 90 3e 00
        E 0 90 3e 4f
        E 72 90 36 00
        E 25 90 3e 00
        E 0 90 3e 53
        E 36 90 4a 33
        E 26 90 51 00
        E 20 90 3e 00
        E 0 90 3e 40
        E 46 90 4e 40
        E 5 90 39 3b
        E 51 90 42 4f
        E 16 90 39 00
        E 25 90 4e 00
        E 0 90 4e 4a
        E 5 90 3e 00
        E 0 90 3e 4d
        E 41 90 42 00
        E 0 90 42 3a
        E 21 90 3e 00
        E 15 90 39 40
        E 5 90 4c 36
        E 5 90 4e 00
        E 26 90 4a 00
        E 0 90 4a 37
        E 5 90 42 00
        E 30 90 39 00
        E 0 90 4c 00
        E 0 90 4c 3f
        E 36 90 4e 44
        E 5 90 42 27
        E 52 90 3e 3b
        E 0 90 4a 00
        E 0 90 4a 55
        E 5 90 4c 00
        E 36 90 42 00
        E 46 90 4e 00
        E 25 90 39 3c
        E 36 90 3e 00
        E 0 90 3e 36
        E 41 90 39 00
        E 41 90 32 56
        E 20 90 4a 00
        E 10 90 3e 00
        E 246 90 3e 40
        E 92 90 3e 00
        E 15 90 32 00
        E 20 90 42 49
        E 0 90 51 3f
        E 108 90 53 49
        E 5 90 42 00
        E 0 90 43 46
        E 20 90 51 00
        E 56 90 53 00
        E 16 90 40 46
        E 0 90 43 00
        E 0 90 43 41
        E 0 90 4f 3b
        E 72 90 43 00
        E 10 90 40 00
        E 5 90 4f 00
        E 10 90 3e 4d
        E 0 90 45 52
        E 0 90 4f 2f
        E 77 90 3e 00
        E 10 90 4f 00
        E 16 90 3e 2c
        E 0 90 45 00
        E 0 90 45 4a
        E 0 90 4e 4d
        E 71 90 3e 00
        E 26 90 47 40
        E 5 90 4e 00
        E 0 90 4f 33
        E 97 90 4c 47
        E 5 90 43 3e
        E 36 90 47 00
        E 20 90 45 00
        E 15 90 4f 00
        E 11 90 43 00
        E 10 90 3e 40
        E 0 90 4a 3c
        E 5 90 42 40
        E 82 90 4c 00
        E 15 90 4a 00
        E 0 90 4a 44
        E 5 90 3e 00
        E 0 90 3e 47
        E 0 90 42 00
        E 0 90 42 44
        E 61 90 42 00
        E 5 90 3e 00
        E 16 90 4a 00
        E 10 90 3d 3a
        E 0 90 4c 57
        E 92 90 39 3b
        E 0 90 4c 00
        E 0 90 4c 3c
        E 61 90 3d 00
        E 21 90 39 00
        E 11 90 4c 00
        E 15 90 3e 43
        E 0 90 4d 55
        E 10 90 42 3f
        E 82 90 4d 00
        E 0 90 4e 38
        E 61 90 3e 00
        E 10 90 42 00
        E 26 90 4a 40
        E 25 90 4e 00
        E 72 90 45 46
        E 51 90 4a 00
        E 5 90 32 35
        E 26 90 45 00
        E 15 90 51 3f
        E 51 90 32 00
        E 0 90 3e 41
        E 56 90 56 50
        E 36 90 3e 00
        E 0 90 3e 4b
        E 0 90 51 00
        E 46 90 39 43
        E 51 90 3e 00
        E 0 90 3e 4a
        E 31 90 39 00
        E 10 90 4e 4b
        E 15 90 56 00
        E 26 90 3e 00
        E 0 90 3e 38
        E 56 90 32 3d
        E 0 90 4e 00
        E 0 90 4e 46
        E 51 90 3e 00
        E 0 90 3e 40
        E 41 90 32 00
        E 5 90 51 41
        E 11 90 4e 00
        E 25 90 3e 00
        E 0 90 3e 50
        E 36 90 39 3f
        E 46 90 3e 00
        E 0 90 3e 53
        E 26 90 39 00
        E 20 90 4a 47
        E 31 90 51 00
        E 10 90 3e 00
        E 0 90 3e 44
        E 46 90 4e 44
        E 5 90 39 3d
        E 31 90 4a 00
        E 0 90 4a 28
        E 10 90 42 46
        E 25 90 39 00
        E 21 90 3e 00
        E 0 90 3e 4a
        E 0 90 4e 00
        E 0 90 4e 47
        E 66 90 3e 00
        E 16 90 4c 36
        E 5 90 39 3a
        E 5 90 42 00
        E 15 90 4e 00
        E 5 90 4a 00
        E 0 90 4a 3e
        E 72 90 39 00
        E 10 90 42 2c
        E 0 90 4e 45
        E 10 90 4c 00
        E 56 90 3e 31
        E 0 90 4a 00
        E 0 90 4a 4e
        E 46 90 42 00
        E 36 90 4e 00
        E 158 90 32 61
        E 26 90 3e 00
        E 72 90 4a 00
        E 107 90 32 00
        E 0 90 45 46
        E 5 90 2b 56
        E 0 90 49 4a
        E 36 90 4c 50
        E 46 90 2b 00
        E 0 90 2b 4c
        E 72 90 49 00
        E 15 90 2b 00
        E 15 90 4c 00
        E 11 90 32 32
        E 0 90 4a 43
        E 0 90 4e 44
        E 5 90 2a 59
        E 35 90 45 00
        E 41 90 2a 00
        E 0 90 2a 38
        E 21 90 32 00
        E 71 90 4a 00
        E 0 90 4e 00
        E 31 90 4f 3e
        E 5 90 25 56
        E 0 90 31 2b
        E 0 90 45 2d
        E 0 90 4c 41
        E 97 90 2a 00
        E 51 90 45 00
        E 36 90 31 00
        E 46 90 4f 00
        E 149 90 42 4a
        E 5 90 4e 48
        E 10 90 4c 00
        E 5 90 25 00
        E 72 90 42 00
        E 0 90 42 39
        E 0 90 4a 47
        E 61 90 42 00
        E 20 90 43 37
        E 0 90 4e 00
        E 0 90 4f 39
        E 26 90 4a 00
        E 41 90 43 00
        E 0 90 43 34
        E 15 90 40 33
        E 0 90 4c 3b
        E 36 90 4f 00
        E 0 90 4f 40
        E 41 90 40 00
        E 10 90 43 00
        E 10 90 42 34
        E 0 90 4c 00
        E 0 90 51 37
        E 10 90 45 3e
        E 118 90 4f 00
        E 61 90 42 00
        E 15 90 51 00
        E 57 90 45 00
        E 56 e0 55 4a
        E 0 90 55 45
        E 5 e0 55 4a
        E 6 e0 55 4a
        E 5 e0 55 4a
        E 5 e0 55 4a
        E 6 e0 55 4a
        E 5 e0 55 4a
        E 6 e0 55 4a
        E 5 e0 55 4a
        E 6 e0 55 4a
        E 5 e0 55 4a
        E 5 e0 55 4a
        E 6 e0 55 4a
        E 5 e0 55 4a
        E 6 e0 55 4a
        E 5 e0 55 4a
        E 5 e0 55 4a
        E 6 e0 55 4a
        E 0 90 55 00
        E 41 90 53 43
        E 31 90 51 46
        E 61 90 51 00
        E 0 90 53 00
        E 5 90 51 35
        E 36 90 4f 3a
        E 56 90 51 00
        E 31 90 4f 00
        E 10 90 4e 48
        E 67 90 53 3c
        E 86 90 4e 00
        E 97 90 53 00
        E 113 90 51 4f
        E 5 90 42 48
        E 5 90 4a 45
        E 72 90 4a 00
        E 15 90 42 00
        E 10 90 40 2b
        E 0 90 50 44
        E 0 90 51 00
        E 72 90 40 00
        E 30 90 4f 52
        E 0 90 50 00
        E 5 90 46 4e
        E 5 90 49 39
        E 67 90 49 00
        E 21 90 46 00
        E 0 90 47 3b
        E 0 90 4a 40
        E 0 90 4f 00
        E 0 90 4f 2e
        E 87 90 4d 58
        E 20 90 4f 00
        E 36 90 4a 00
        E 51 90 47 00
        E 26 90 4c 42
        E 0 90 4d 00
        E 5 90 45 30
        E 5 90 49 40
        E 102 90 4c 00
        E 5 90 4e 63
        E 5 90 49 00
        E 41 90 45 00
        E 72 e0 55 2a
        E 0 90 4e 00
        E 0 90 4f 5d
        E 5 e0 55 4a
        E 5 e0 55 4a
        E 6 e0 55 4a
        E 5 e0 55 4a
        E 5 e0 55 4a
        E 6 e0 55 4a
        E 5 e0 55 4a
        E 6 e0 55 4a
        E 5 e0 55 4a
        E 5 e0 55 4a
        E 6 e0 55 4a
        E 5 e0 55 4a
        E 5 e0 55 4a
        E 6 e0 55 4a
        E 5 e0 55 4a
        E 6 e0 55 4a
        E 5 e0 55 4a
        E 5 e0 55 4a
        E 6 e0 55 4a
        E 0 90 4f 00
        E 0 90 50 45
        E 5 e0 55 2a
        E 5 e0 55 4a
        E 6 e0 55 4a
        E 5 e0 55 4a
        E 6 e0 55 4a
        E 5 e0 55 4a
        E 5 e0 55 4a
        E 6 e0 55 4a
        E 5 e0 55 4a
        E 5 e0 55 4a
        E 6 e0 55 4a
        E 5 e0 55 2a
        E 6 e0 55 2a
        E 5 e0 55 2a
        E 5 e0 55 4a
        E 6 e0 55 4a
        E 5 e0 55 4a
        E 5 e0 55 4a
        E 6 e0 55 4a
        E 0 90 50 00
        E 5 90 51 3c
        E 5 90 3e 45
        E 87 90 3e 00
        E 25 90 3e 33
        E 0 90 42 59
        E 67 90 3e 00
        E 31 90 42 00
        E 0 90 43 46
        E 0 90 53 51
        E 36 90 51 00
        E 56 90 40 4e
        E 10 90 43 00
        E 0 90 43 3f
        E 0 90 4f 43
        E 0 90 53 00
        E 67 90 43 00
        E 20 90 4e 51
        E 0 90 4f 00
        E 5 90 40 00
        E 5 90 45 43
        E 51 90 4e 00
        E 5 90 4e 4e
        E 57 90 45 00
        E 0 90 45 4a
        E 87 90 4e 00
        E 0 90 4f 38
        E 5 90 47 36
        E 56 90 45 00
        E 36 90 43 44
        E 0 90 4c 49
        E 15 90 47 00
        E 82 90 43 00
        E 0 90 4f 00
        E 5 90 3e 40
        E 0 90 4a 46
        E 81 90 4c 00
        E 16 90 3e 00
        E 0 90 3e 48
        E 0 90 4a 00
        E 0 90 4a 4c
        E 71 90 3e 00
        E 21 90 4c 5f
        E 5 90 3d 3d
        E 0 90 4a 00
        E 82 90 4c 00
        E 0 90 4c 46
        E 5 90 39 38
        E 0 90 3d 00
        E 0 90 3d 3e
        E 67 90 3d 00
        E 5 90 39 00
        E 25 90 4c 00
        E 5 90 3e 3a
        E 0 90 4d 61
        E 6 90 42 45
        E 92 90 4d 00
        E 0 90 4e 21
        E 66 90 4e 00
        E 36 90 4a 3e
        E 25 90 3e 00
        E 36 90 42 00
        E 31 90 45 4b
        E 20 90 4a 00
        E 66 90 45 00
        E 6 90 32 39
        E 0 90 51 4b
        E 56 90 3e 36
        E 15 90 51 00
        E 0 90 51 31
        E 10 90 32 00
        E 21 90 56 5d
        E 30 90 51 00
        E 11 90 3e 00
        E 0 90 3e 49
        E 92 90 3e 00
        E 0 90 3e 3d
        E 5 90 56 00
        E 0 90 56 35
        E 46 90 4e 4c
        E 41 90 3e 00
        E 0 90 3e 33
        E 15 90 56 00
        E 36 90 32 44
        E 46 90 3e 00
        E 0 90 3e 3a
        E 5 90 4e 00
        E 0 90 4e 30
        E 41 90 32 00
        E 0 90 51 48
        E 41 90 3e 00
        E 0 90 3e 52
        E 20 90 4e 00
        E 67 90 3e 00
        E 0 90 3e 4f
        E 51 90 4a 42
        E 5 90 51 00
        E 26 90 3e 00
        E 0 90 3e 41
        E 56 90 39 37
        E 0 90 4e 3f
        E 46 90 42 4a
        E 15 90 39 00
        E 20 90 4a 00
        E 11 90 4e 00
        E 0 90 4e 4e
        E 5 90 3e 00
        E 0 90 3e 46
        E 0 90 4a 27
        E 10 90 42 00
        E 51 90 4e 00
        E 0 90 4e 3e
        E 5 90 39 39
        E 0 90 3e 00
        E 16 90 4c 35
        E 35 90 3e 2b
        E 0 90 43 34
        E 0 90 4a 00
        E 0 90 4a 47
        E 11 90 39 00
        E 20 90 4c 00
        E 0 90 4c 36
        E 31 90 4a 00
        E 0 90 4e 00
        E 0 90 4e 42
        E 5 90 3e 00
        E 10 90 43 00
        E 0 90 43 33
        E 56 90 4c 00
        E 21 90 3e 36
        E 0 90 4a 4f
        E 5 90 43 00
        E 66 90 4e 00
        E 57 90 39 2d
        E 128 90 39 00
        E 46 90 32 56
        E 45 90 3e 00
        E 169 90 4a 00
        E 169 90 32 00
        E 25 90 48 34
        E 5 90 3e 37
        E 118 90 48 00
        E 0 90 48 41
        E 66 90 3e 00
        E 10 90 48 00
        E 0 90 48 3c
        E 31 90 3e 3d
        E 0 90 4a 3a
        E 5 90 36 29
        E 26 90 48 00
        E 0 90 48 32
        E 51 90 36 00
        E 0 90 36 2c
        E 5 90 3e 00
        E 0 90 3e 47
        E 26 90 47 4a
        E 0 90 48 00
        E 10 90 4a 00
        E 0 90 4a 43
        E 31 90 36 00
        E 25 90 3e 00
        E 0 90 3e 43
        E 0 90 47 00
        E 0 90 47 50
        E 11 90 37 4e
        E 5 90 4a 00
        E 388 90 37 00
        E 0 90 47 00
        E 15 90 39 3d
        E 0 90 3e 00
        E 0 90 3e 43
        E 46 90 45 60
        E 67 90 3e 00
        E 0 90 3e 43
        E 0 90 45 00
        E 0 90 45 5e
        E 5 90 39 00
        E 0 90 39 49
        E 56 90 45 00
        E 0 90 45 4a
        E 5 90 39 00
        E 0 90 39 35
        E 41 90 3e 00
        E 0 90 3e 48
        E 36 90 44 49
        E 0 90 45 00
        E 0 90 47 3b
        E 5 90 39 00
        E 36 90 39 2d
        E 21 90 3e 00
        E 0 90 3e 42
        E 0 90 47 00
        E 0 90 47 4b
        E 30 90 44 00
        E 0 90 44 3f
        E 16 90 39 00
        E 30 90 3e 00
        E 67 90 44 00
        E 0 90 44 58
        E 0 90 50 27
        E 10 90 3b 45
        E 0 90 3e 51
        E 138 90 50 00
        E 127 90 47 00
        E 31 90 3e 00
        E 77 90 3b 00
        E 20 90 44 00
        E 10 90 4f 3f
        E 6 90 43 3a
        E 5 90 3e 2f
        E 102 90 4f 00
        E 0 90 4f 41
        E 10 90 3e 00
        E 0 90 3e 39
        E 0 90 43 00
        E 0 90 43 44
        E 92 90 3e 00
        E 0 90 3e 3d
        E 0 90 51 33
        E 26 90 43 00
        E 0 90 43 41
        E 0 90 4f 00
        E 0 90 4f 37
        E 76 90 4f 00
        E 0 90 4f 3c
        E 1 90 43 00
        E 0 90 43 3e
        E 25 90 3e 00
        E 0 90 3e 3d
        E 51 90 4f 00
        E 0 90 4f 33
        E 5 90 51 00
        E 6 90 3e 00
        E 0 90 43 00
        E 0 90 43 43
        E 10 90 39 4e
        E 25 90 3d 4e
        E 41 90 4f 00
        E 0 90 4f 3c
        E 5 90 43 00
        E 0 90 43 34
        E 0 90 4c 29
        E 41 90 3d 00
        E 0 90 3d 41
        E 0 90 55 38
        E 51 90 58 3b
        E 21 90 55 00
        E 10 90 43 00
        E 0 90 4c 00
        E 15 90 39 00
        E 0 90 4f 00
        E 0 90 4f 48
        E 36 90 3d 00
        E 5 90 58 00
        E 5 90 56 52
        E 46 90 4f 00
        E 0 90 4f 36
        E 46 90 2d 54
        E 0 90 39 2d
        E 5 90 56 00
        E 41 90 4f 00
        E 0 90 4f 32
        E 77 90 39 00
        E 0 90 39 3a
        E 5 90 4f 00
        E 0 90 4f 3d
        E 46 90 58 32
        E 10 90 39 00
        E 31 90 2d 00
        E 0 90 4f 00
        E 0 90 4f 4e
        E 35 90 2e 35
        E 6 90 56 50
        E 5 90 58 00
        E 41 90 4f 00
        E 0 90 4f 44
        E 25 90 2e 00
        E 20 90 56 00
        E 6 90 2d 57
        E 0 90 39 45
        E 35 90 4f 00
        E 0 90 4f 43
        E 41 90 4c 2e
        E 1 90 39 00
        E 0 90 39 3d
        E 41 90 4f 00
        E 0 90 4f 47
        E 5 90 2d 00
        E 0 90 2d 3c
        E 20 90 4c 00
        E 10 90 39 00
        E 11 90 58 39
        E 51 90 4f 00
        E 0 90 4f 43
        E 30 90 2d 00
        E 5 90 56 42
        E 6 90 58 00
        E 46 90 4f 00
        E 0 90 4f 3c
        E 81 90 4f 00
        E 0 90 4f 50
        E 41 90 56 00
        E 0 90 56 44
        E 5 90 2e 37
        E 41 90 4f 00
        E 0 90 4f 53
        E 21 90 2e 00
        E 66 90 4f 00
        E 0 90 4f 53
        E 41 90 2e 3f
        E 0 90 56 00
        E 0 90 56 53
        E 41 90 4f 00
        E 0 90 4f 39
        E 46 90 2e 00
        E 5 90 39 5e
        E 0 90 56 00
        E 36 90 51 36
        E 51 90 39 00
        E 0 90 39 4e
        E 0 90 58 31
        E 30 90 51 00
        E 41 90 58 00
        E 15 90 4e 42
        E 0 90 4f 00
        E 129 90 56 51
        E 5 90 4e 00
        E 56 90 56 00
        E 20 90 4c 34
        E 6 90 4f 3f
        E 5 90 56 3c
        E 56 90 4c 00
        E 0 90 4f 00
        E 31 90 56 00
        E 30 90 4a 4d
        E 46 90 4e 49
        E 97 90 39 00
        E 10 90 4a 00
        E 16 90 2d 43
        E 0 90 49 42
        E 25 90 4e 00
        E 11 90 40 2d
        E 46 90 49 00
        E 25 90 40 00
        E 15 90 39 2e
        E 0 90 51 40
        E 46 90 47 41
        E 41 90 4a 46
        E 62 90 47 00
        E 20 90 4f 3c
        E 10 90 51 00
        E 21 90 45 53
        E 35 90 4a 00
        E 5 90 39 00
        E 16 90 49 45
        E 5 90 45 00
        E 5 90 45 48
        E 61 90 45 00
        E 0 90 4f 00
        E 6 90 4e 49
        E 31 90 49 00
        E 20 90 43 47
        E 36 90 47 48
        E 71 90 4c 3f
        E 11 90 4e 00
        E 15 90 43 00
        E 25 90 42 46
        E 21 90 4c 00
        E 15 90 47 00
        E 10 90 45 48
        E 72 90 42 00
        E 5 90 4a 4d
        E 31 90 45 00
        E 56 90 40 48
        E 0 90 43 4b
        E 87 90 49 3f
        E 0 90 4a 00
        E 15 90 40 00
        E 26 90 43 00
        E 5 90 3e 4d
        E 41 90 42 5f
        E 40 90 49 00
        E 0 90 49 36
        E 11 90 47 4a
        E 5 90 3e 00
        E 10 90 42 00
        E 0 90 42 44
        E 36 90 49 00
        E 15 90 47 00
        E 5 90 3d 45
        E 0 90 47 3e
        E 15 90 42 00
        E 21 90 40 47
        E 25 90 3d 00
        E 41 90 2d 00
        E 11 90 45 4a
        E 0 90 47 00
        E 46 90 3b 41
        E 0 90 40 00
        E 36 90 3e 4b
        E 31 90 45 00
        E 15 90 3b 00
        E 15 90 3e 00
        E 5 90 4a 56
        E 0 90 4d 24
        E 5 90 41 45
        E 31 90 44 2d
        E 26 90 4d 00
        E 20 90 41 00
        E 10 90 40 4b
        E 10 90 4c 46
        E 26 90 44 00
        E 5 90 44 2b
        E 26 90 4a 00
        E 20 90 3e 39
        E 0 90 4c 00
        E 0 90 4d 4f
        E 15 90 40 00
        E 31 90 44 00
        E 0 90 44 44
        E 15 90 4d 00
        E 0 90 4d 45
        E 26 90 3b 47
        E 31 90 44 00
        E 10 90 4d 00
        E 5 90 3e 00
        E 0 90 3e 3b
        E 31 90 3b 00
        E 5 90 41 45
        E 0 90 4d 2a
        E 5 90 4a 57
        E 25 90 3e 00
        E 16 90 44 2e
        E 40 90 41 00
        E 11 90 4d 00
        E 5 90 40 3d
        E 5 90 4c 4e
        E 41 90 44 00
        E 0 90 44 3a
        E 5 90 4a 00
        E 31 90 4c 00
        E 0 90 4d 41
        E 10 90 3e 3b
        E 46 90 44 00
        E 0 90 44 35
        E 41 90 3b 3a
        E 15 90 4d 00
        E 20 90 3e 00
        E 0 90 3e 43
        E 5 90 40 00
        E 31 90 41 3f
        E 5 90 4a 4a
        E 21 90 3b 00
        E 30 90 3e 00
        E 16 90 41 00
        E 16 90 40 46
        E 5 90 4c 3f
        E 25 90 4a 00
        E 15 90 44 00
        E 0 90 44 26
        E 36 90 4c 00
        E 0 90 4d 53
        E 5 90 3e 49
        E 11 90 40 00
        E 40 90 44 00
        E 0 90 44 2e
        E 41 90 3e 00
        E 0 90 3e 47
        E 0 90 4d 00
        E 0 90 4d 4e
        E 51 90 44 00
        E 0 90 44 2d
        E 16 90 3e 00
        E 30 90 40 56
        E 46 90 44 00
        E 0 90 44 37
        E 31 90 4d 00
        E 10 90 40 00
        E 0 90 40 4e
        E 72 90 44 00
        E 10 90 4a 47
        E 5 90 40 00
        E 0 90 41 3a
        E 51 90 44 44
        E 15 90 4a 00
        E 16 90 41 00
        E 10 90 3d 4e
        E 82 90 43 3a
        E 0 90 44 00
        E 10 90 28 3a
        E 0 90 3d 00
        E 31 90 46 39
        E 30 90 43 00
        E 21 90 41 36
        E 10 90 26 42
        E 41 90 46 00
        E 0 90 46 30
        E 30 90 41 00
        E 11 90 40 30
        E 35 90 46 00
        E 0 90 46 41
        E 6 90 25 49
        E 0 90 26 00
        E 21 90 28 00
        E 61 90 46 00
        E 20 90 25 00
        E 16 90 43 3a
        E 5 90 40 00
        E 5 90 28 5a
        E 30 90 46 31
        E 46 90 43 00
        E 6 90 41 30
        E 15 90 26 48
        E 5 90 28 00
        E 0 90 28 33
        E 31 90 46 00
        E 0 90 46 2e
        E 25 90 41 00
        E 15 90 25 46
        E 0 90 26 00
        E 0 90 40 23
        E 46 90 46 00
        E 0 90 46 30
        E 21 90 40 00
        E 31 90 3d 49
        E 5 90 28 00
        E 66 90 25 00
        E 10 90 28 49
        E 5 90 3d 00
        E 5 90 43 3b
        E 31 90 46 00
        E 0 90 46 2e
        E 41 90 43 00
        E 15 90 26 3e
        E 31 90 46 00
        E 0 90 46 39
        E 5 90 28 00
        E 51 90 40 3a
        E 15 90 26 00
        E 11 90 25 4d
        E 5 90 46 00
        E 0 90 46 43
        E 56 90 25 00
        E 0 90 25 50
        E 26 90 40 00
        E 0 90 40 3b
        E 0 90 46 00
        E 0 90 46 3c
        E 51 90 3e 3a
        E 5 90 25 00
        E 0 90 26 2c
        E 36 90 40 00
        E 5 90 46 00
        E 0 90 46 43
        E 41 90 26 00
        E 0 90 26 3e
        E 41 90 3e 00
        E 0 90 46 00
        E 0 90 46 4d
        E 25 90 26 00
        E 21 90 3d 51
        E 5 90 28 2d
        E 36 90 46 00
        E 0 90 46 3d
        E 61 90 3d 00
        E 0 90 3d 5b
        E 5 90 28 00
        E 0 90 28 4c
        E 184 90 46 00
        E 26 90 26 52
        E 0 90 3d 00
        E 0 90 3d 36
        E 127 90 28 00
        E 46 90 3d 00
        E 41 90 25 51
        E 0 90 26 00
        E 5 90 31 30
        E 220 90 31 00
        E 31 90 22 46
        E 15 90 38 2a
        E 62 90 38 00
        E 30 90 25 00
        E 36 90 2e 2c
        E 123 90 2e 00
        E 76 90 22 00
        E 6 90 34 23
        E 20 90 25 47
        E 15 90 28 46
        E 21 90 2b 36
        E 15 90 34 00
        E 10 90 25 00
        E 0 90 25 43
        E 0 90 2d 3e
        E 67 90 39 39
        E 132 90 21 31
        E 149 90 34 2b
        E 61 90 21 00
        E 46 90 34 00
        E 52 90 2b 00
        E 15 90 25 00
        E 51 90 2f 44
        E 5 90 39 00
        E 15 90 2d 00
        E 0 90 2d 2f
        E 57 90 28 00
        E 25 90 2d 00
        E 0 90 2d 41
        E 61 90 2f 00
        E 67 90 2d 00
        E 0 90 2d 39
        E 51 90 31 2c
        E 15 90 38 1c
        E 41 90 2f 42
        E 21 90 31 00
        E 10 90 38 00
        E 5 90 32 45
        E 46 90 2d 00
        E 0 90 2d 2f
        E 10 90 2f 00
        E 61 90 2d 00
        E 5 90 32 00
        E 0 90 32 40
        E 36 90 36 31
        E 56 90 32 00
        E 52 e0 55 4a
        E 0 90 36 00
        E 0 90 36 3e
        E 5 e0 55 4a
        E 6 e0 55 4a
        E 5 e0 55 4a
        E 6 e0 55 4a
        E 5 e0 55 4a
        E 6 e0 55 4a
        E 5 e0 55 4a
        E 6 e0 55 4a
        E 5 e0 55 4a
        E 6 e0 55 4a
        E 5 e0 55 4a
        E 6 e0 55 4a
        E 0 90 36 00
        E 0 90 36 2f
        E 5 e0 55 4a
        E 5 e0 55 4a
        E 5 e0 55 4a
        E 6 e0 55 4a
        E 5 e0 55 4a
        E 5 e0 55 4a
        E 5 e0 55 4a
        E 5 e0 55 4a
        E 5 e0 55 4a
        E 6 e0 55 4a
        E 5 e0 55 4a
        E 0 90 36 00
        E 10 e0 55 4a
        E 0 90 39 44
        E 5 e0 55 4a
        E 6 e0 55 4a
        E 6 e0 55 4a
        E 5 e0 55 4a
        E 6 e0 55 4a
        E 5 e0 55 4a
        E 6 e0 55 4a
        E 5 e0 55 4a
        E 6 e0 55 4a
        E 6 e0 55 4a
        E 5 e0 55 4a
        E 0 90 39 00
        E 21 90 3b 43
        E 30 90 3e 31
        E 56 90 40 3d
        E 41 90 3e 00
        E 0 90 3e 43
        E 5 90 3b 00
        E 31 90 42 40
        E 41 90 3e 00
        E 0 90 40 00
        E 0 90 40 40
        E 51 90 42 00
        E 0 90 42 46
        E 56 90 40 00
        E 10 90 42 00
        E 6 90 43 41
        E 10 90 45 2e
        E 15 90 47 3b
        E 51 90 45 00
        E 0 90 45 3e
        E 21 90 43 00
        E 40 90 47 00
        E 0 90 47 44
        E 21 90 45 00
        E 5 90 4a 3b
        E 92 90 47 00
        E 5 90 4a 00
        E 0 90 4a 40
        E 31 90 4e 37
        E 46 90 4c 3b
        E 51 90 4e 00
        E 0 90 4e 4e
        E 5 90 4a 00
        E 72 90 4c 00
        E 10 90 4e 00
        E 0 90 4f 41
        E 97 90 51 55
        E 56 90 4f 00
        E 0 90 4f 50
        E 98 90 51 00
        E 0 90 51 4f
        E 30 90 4f 00
        E 0 90 4f 51
        E 31 90 51 00
        E 0 90 51 4c
        E 107 90 51 00
        E 0 90 51 48
        E 36 90 4f 00
        E 0 90 4f 54
        E 61 90 4f 00
        E 0 90 4f 4d
        E 21 90 51 00
        E 0 90 51 56
        E 86 90 4f 00
        E 0 90 4f 50
        E 26 90 51 00
        E 0 90 51 5a
        E 87 90 4f 00
        E 0 90 4f 39
        E 25 90 51 00
        E 0 90 51 60
        E 36 90 4f 00
        E 0 90 4f 40
        E 31 90 51 00
        E 0 90 51 5b
        E 31 90 4f 00
        E 0 90 4f 32
        E 71 90 51 00
        E 0 90 51 38
        E 62 90 4f 00
        E 41 e0 2b 55
        E 0 90 50 52
        E 0 90 51 00
        E 5 e0 2b 55
        E 5 e0 2b 55
        E 6 e0 2b 55
        E 5 e0 2b 55
        E 5 e0 2b 55
        E 6 e0 2b 55
        E 5 e0 2b 55
        E 5 e0 2b 55
        E 6 e0 2b 55
        E 5 e0 2b 55
        E 5 e0 2b 55
        E 6 e0 2b 55
        E 5 e0 2b 55
        E 5 e0 2b 55
        E 5 e0 2b 55
        E 6 e0 2b 55
        E 5 e0 2b 55
        E 5 e0 2b 55
        E 6 e0 2b 55
        E 5 e0 2b 55
        E 5 e0 2b 55
        E 6 e0 55 4a
        E 5 e0 55 4a
        E 5 e0 55 4a
        E 0 90 50 00
        E 0 90 51 42
        E 6 e0 55 2a
        E 5 e0 2b 35
        E 6 e0 2b 35
        E 5 e0 2b 35
        E 5 e0 55 2a
        E 6 e0 55 2a
        E 5 e0 2b 35
        E 6 e0 2b 35
        E 5 e0 2b 35
        E 5 e0 2b 35
        E 6 e0 2b 35
        E 5 e0 55 4a
        E 5 e0 55 4a
        E 6 e0 55 4a
        E 5 e0 55 4a
        E 6 e0 55 4a
        E 5 e0 55 4a
        E 5 e0 2b 55
        E 0 90 50 45
        E 0 90 51 00
        E 6 e0 55 4a
        E 5 e0 2b 55
        E 6 e0 2b 55
        E 5 e0 2b 55
        E 6 e0 2b 55
        E 5 e0 2b 55
        E 5 e0 2b 55
        E 6 e0 2b 55
        E 5 e0 2b 55
        E 6 e0 2b 55
        E 5 e0 2b 55
        E 6 e0 2b 55
        E 5 e0 2b 55
        E 5 e0 2b 55
        E 6 e0 2b 55
        E 5 e0 55 4a
        E 0 90 50 00
        E 0 90 51 49
        E 6 e0 55 4a
        E 5 e0 2b 35
        E 6 e0 2b 35
        E 5 e0 2b 35
        E 6 e0 2b 35
        E 5 e0 2b 35
        E 5 e0 2b 35
        E 6 e0 55 4a
        E 5 e0 55 4a
        E 6 e0 55 4a
        E 5 e0 2b 35
        E 6 e0 2b 35
        E 5 e0 2b 35
        E 6 e0 2b 35
        E 5 e0 55 4a
        E 0 90 51 00
        E 0 90 51 55
        E 6 e0 55 4a
        E 5 e0 55 4a
        E 6 e0 55 4a
        E 5 e0 55 4a
        E 6 e0 55 4a
        E 5 e0 55 4a
        E 6 e0 55 4a
        E 6 e0 55 4a
        E 5 e0 55 4a
        E 6 e0 55 4a
        E 5 e0 55 4a
        E 0 90 51 00
        E 0 90 51 51
        E 6 e0 55 4a
        E 5 e0 55 4a
        E 6 e0 55 4a
        E 5 e0 55 4a
        E 6 e0 55 4a
        E 5 e0 55 4a
        E 6 e0 55 4a
        E 5 e0 55 4a
        E 6 e0 2b 35
        E 5 e0 2b 35
        E 6 e0 55 2a
        E 5 e0 55 2a
        E 6 e0 55 4a
        E 0 90 51 00
        E 0 90 51 3e
        E 5 e0 55 4a
        E 6 e0 55 4a
        E 5 e0 55 4a
        E 6 e0 55 4a
        E 5 e0 55 4a
        E 6 e0 2b 35
        E 6 e0 55 2a
        E 5 e0 55 2a
        E 6 e0 55 2a
        E 5 e0 2b 35
        E 6 e0 55 2a
        E 5 e0 55 2a
        E 0 90 51 00
        E 0 90 51 43
        E 5 e0 55 2a
        E 6 e0 55 2a
        E 5 e0 2b 35
        E 5 e0 2b 35
        E 5 e0 2b 35
        E 5 e0 2b 35
        E 5 e0 2b 35
        E 5 e0 2b 35
        E 5 e0 2b 35
        E 6 e0 2b 35
        E 5 e0 2b 35
        E 5 e0 2b 35
        E 5 e0 2b 35
        E 5 e0 55 4a
        E 5 e0 55 4a
        E 5 e0 55 4a
        E 6 e0 55 4a
        E 5 e0 55 4a
        E 5 e0 55 4a
        E 5 e0 55 4a
        E 5 e0 2b 55
        E 0 90 50 52
        E 0 90 51 00
        E 5 e0 2b 55
        E 6 e0 2b 55
        E 5 e0 2b 55
        E 6 e0 55 4a
        E 5 e0 55 4a
        E 6 e0 55 4a
        E 5 e0 55 4a
        E 5 e0 55 4a
        E 6 e0 55 4a
        E 5 e0 55 4a
        E 6 e0 55 4a
        E 5 e0 55 4a
        E 5 e0 55 4a
        E 6 e0 55 4a
        E 5 e0 55 4a
        E 6 e0 55 4a
        E 5 e0 55 4a
        E 0 90 50 00
        E 0 90 50 5a
        E 6 e0 55 4a
        E 5 e0 55 4a
        E 6 e0 55 4a
        E 5 e0 55 4a
        E 6 e0 55 4a
        E 5 e0 55 4a
        E 6 e0 55 4a
        E 5 e0 55 4a
        E 6 e0 55 4a
        E 5 e0 55 4a
        E 6 e0 55 4a
        E 5 e0 55 4a
        E 0 90 50 00
        E 0 90 51 49
        E 6 e0 55 4a
        E 5 e0 55 4a
        E 5 e0 55 4a
        E 6 e0 55 4a
        E 5 e0 55 4a
        E 5 e0 55 4a
        E 6 e0 55 4a
        E 5 e0 55 4a
        E 5 e0 55 4a
        E 5 e0 55 4a
        E 6 e0 55 4a
        E 5 e0 55 4a
        E 5 e0 55 4a
        E 6 e0 55 4a
        E 5 e0 55 4a
        E 5 e0 55 4a
        E 5 e0 55 4a
        E 6 e0 55 4a
        E 5 e0 55 2a
        E 5 e0 55 4a
        E 6 e0 55 4a
        E 5 e0 55 2a
        E 5 e0 55 2a
        E 6 e0 55 2a
        E 5 e0 55 2a
        E 5 e0 55 2a
        E 5 e0 55 2a
        E 0 90 51 00
        E 16 e0 55 4a
        E 0 90 53 4c
        E 5 e0 55 4a
        E 5 e0 55 4a
        E 5 e0 55 4a
        E 6 e0 55 4a
        E 5 e0 55 4a
        E 5 e0 55 4a
        E 5 e0 55 4a
        E 5 e0 55 4a
        E 5 e0 55 4a
        E 6 e0 55 4a
        E 5 e0 55 4a
        E 5 e0 55 4a
        E 5 e0 55 4a
        E 5 e0 55 4a
        E 5 e0 55 4a
        E 6 e0 55 4a
        E 5 e0 55 4a
        E 5 e0 55 4a
        E 5 e0 55 4a
        E 5 e0 55 4a
        E 6 e0 55 4a
        E 5 e0 55 4a
        E 5 e0 55 4a
        E 5 e0 55 4a
        E 5 e0 55 4a
        E 5 e0 55 4a
        E 6 e0 55 4a
        E 5 e0 55 4a
        E 5 e0 55 4a
        E 5 e0 55 4a
        E 5 e0 55 4a
        E 5 e0 55 4a
        E 6 e0 55 4a
        E 5 e0 55 4a
        E 5 e0 55 4a
        E 5 e0 55 4a
        E 5 e0 55 4a
        E 6 e0 55 4a
        E 5 e0 55 4a
        E 5 e0 55 4a
        E 5 e0 55 4a
        E 5 e0 55 4a
        E 5 e0 55 4a
        E 6 e0 55 4a
        E 5 e0 55 4a
        E 5 e0 55 4a
        E 5 e0 55 4a
        E 5 e0 55 4a
        E 5 e0 55 4a
        E 6 e0 55 4a
        E 5 e0 55 4a
        E 5 e0 55 4a
        E 5 e0 55 4a
        E 5 e0 55 4a
        E 6 e0 55 4a
        E 5 e0 55 4a
        E 5 e0 55 4a
        E 5 e0 55 4a
        E 5 e0 55 4a
        E 5 e0 55 4a
        E 6 e0 55 4a
        E 5 e0 55 4a
        E 5 e0 55 4a
        E 5 e0 55 4a
        E 5 e0 55 4a
        E 5 e0 55 4a
        E 6 e0 55 4a
        E 5 e0 55 4a
        E 5 e0 55 4a
        E 5 e0 55 4a
        E 5 e0 55 4a
        E 6 e0 55 4a
        E 5 e0 55 4a
        E 5 e0 55 4a
        E 5 e0 55 4a
        E 0 90 53 00
        E 20 e0 55 4a
        E 0 90 51 40
        E 6 e0 55 4a
        E 5 e0 55 4a
        E 5 e0 55 4a
        E 5 e0 55 4a
        E 5 e0 55 4a
        E 5 e0 55 4a
        E 5 e0 55 4a
        E 5 e0 55 4a
        E 6 e0 55 4a
        E 5 e0 55 4a
        E 5 e0 55 4a
        E 5 e0 55 4a
        E 5 e0 55 4a
        E 5 e0 55 4a
        E 5 e0 55 4a
        E 5 e0 55 4a
        E 6 e0 55 4a
        E 5 e0 55 4a
        E 5 e0 55 4a
        E 5 e0 55 4a
        E 5 e0 55 4a
        E 5 e0 55 4a
        E 5 e0 55 4a
        E 5 e0 55 4a
        E 6 e0 55 4a
        E 5 e0 55 4a
        E 5 e0 55 4a
        E 5 e0 55 4a
        E 5 e0 55 4a
        E 5 e0 55 4a
        E 5 e0 55 4a
        E 5 e0 55 4a
        E 6 e0 55 4a
        E 5 e0 55 4a
        E 5 e0 55 4a
        E 0 90 51 00
        E 0 90 51 3d
        E 41 90 3e 51
        E 15 90 42 2a
        E 97 90 42 00
        E 10 90 51 00
        E 87 90 45 48
        E 143 90 42 46
        E 92 90 3e 00
        E 0 90 42 00
        E 0 90 45 00
        E 15 90 53 4c
        E 41 90 51 45
        E 46 90 53 00
        E 16 90 51 00
        E 0 90 51 49
        E 51 90 42 3e
        E 0 90 56 58
        E 112 90 51 00
        E 57 90 42 00
        E 20 90 45 32
        E 0 90 51 3c
        E 62 90 4e 48
        E 5 90 3e 3e
        E 0 90 56 00
        E 20 90 42 4c
        E 21 90 45 00
        E 20 90 51 00
        E 66 90 45 4c
        E 118 90 42 00
        E 0 90 42 5f
        E 5 90 4e 00
        E 87 90 45 00
        E 5 90 3e 00
        E 41 90 42 00
        E 0 90 42 29
        E 0 90 4e 58
        E 25 90 4c 36
        E 67 90 4c 00
        E 15 90 42 00
        E 0 90 42 3d
        E 0 90 45 42
        E 0 90 51 4a
        E 5 90 4e 00
        E 0 90 4e 4d
        E 113 90 45 00
        E 0 90 45 4c
        E 46 90 51 00
        E 15 90 42 00
        E 10 90 4e 00
        E 0 90 4e 66
        E 61 90 4a 5a
        E 0 90 4e 00
        E 0 90 4e 3f
        E 11 90 39 2b
        E 5 90 42 4c
        E 21 90 45 00
        E 35 90 4e 00
        E 57 90 45 46
        E 71 90 39 00
        E 26 90 4a 00
        E 0 90 4a 61
        E 20 90 42 00
        E 0 90 42 4f
        E 87 90 45 00
        E 0 90 45 5e
        E 92 90 42 00
        E 0 90 4c 53
        E 10 90 45 00
        E 0 90 45 31
        E 10 90 4a 00
        E 41 90 4c 00
        E 5 90 4c 4a
        E 21 90 4e 4a
        E 30 90 45 00
        E 0 90 45 34
        E 26 90 4a 38
        E 31 90 4c 00
        E 0 90 4c 57
        E 46 90 4e 00
        E 15 90 3e 40
        E 0 90 4c 00
        E 0 90 4d 53
        E 5 90 42 42
        E 46 90 4a 00
        E 66 90 4d 00
        E 0 90 4e 3f
        E 62 90 4e 00
        E 0 90 4e 3e
        E 25 90 3e 00
        E 5 90 45 00
        E 32 90 4e 00
        E 5 90 49 52
        E 112 90 49 00
        E 0 90 4a 3e
        E 15 90 42 00
        E 113 90 4a 00
        E 25 e0 55 4a
        E 0 90 44 45
        E 6 e0 55 4a
        E 5 e0 55 4a
        E 5 e0 55 4a
        E 6 e0 55 4a
        E 5 e0 55 4a
        E 5 e0 55 4a
        E 6 e0 55 4a
        E 5 e0 55 4a
        E 5 e0 55 4a
        E 6 e0 55 4a
        E 5 e0 55 4a
        E 5 e0 55 4a
        E 6 e0 55 4a
        E 5 e0 55 4a
        E 5 e0 55 4a
        E 6 e0 55 4a
        E 5 e0 55 4a
        E 5 e0 55 4a
        E 6 e0 55 4a
        E 5 e0 55 4a
        E 5 e0 55 4a
        E 6 e0 55 4a
        E 5 e0 55 4a
        E 0 90 44 00
        E 5 e0 55 2a
        E 0 90 45 4b
        E 5 e0 55 4a
        E 6 e0 55 4a
        E 5 e0 55 4a
        E 5 e0 55 4a
        E 5 e0 55 4a
        E 6 e0 55 4a
        E 5 e0 55 4a
        E 5 e0 55 4a
        E 5 e0 55 4a
        E 6 e0 55 4a
        E 5 e0 55 4a
        E 5 e0 55 4a
        E 5 e0 55 4a
        E 6 e0 55 4a
        E 5 e0 55 4a
        E 5 e0 55 4a
        E 5 e0 55 4a
        E 5 e0 55 4a
        E 6 e0 55 4a
        E 5 e0 55 4a
        E 5 e0 55 4a
        E 5 e0 55 4a
        E 6 e0 55 4a
        E 5 e0 55 4a
        E 5 e0 55 4a
        E 5 e0 55 4a
        E 6 e0 55 4a
        E 5 e0 55 4a
        E 5 e0 55 4a
        E 5 e0 55 4a
        E 6 e0 55 4a
        E 5 e0 55 4a
        E 5 e0 55 4a
        E 5 e0 55 4a
        E 6 e0 55 4a
        E 5 e0 55 4a
        E 5 e0 55 4a
        E 0 90 45 00
        E 16 90 51 3f
        E 5 90 3e 44
        E 20 90 42 43
        E 87 90 51 00
        E 10 90 52 53
        E 10 90 3e 00
        E 31 90 42 00
        E 66 90 52 00
        E 0 90 53 4e
        E 103 90 55 40
        E 15 90 53 00
        E 123 90 58 38
        E 15 90 55 00
        E 108 90 58 00
        E 168 90 4d 56
        E 10 90 3e 3f
        E 0 90 45 39
        E 108 90 3e 00
        E 0 90 4d 00
        E 0 90 4e 59
        E 46 90 45 00
        E 56 e0 55 2a
        E 0 90 4e 00
        E 0 90 4f 47
        E 5 e0 55 4a
        E 6 e0 55 4a
        E 5 e0 55 4a
        E 5 e0 2b 55
        E 6 e0 55 4a
        E 5 e0 55 4a
        E 6 e0 55 4a
        E 5 e0 2b 55
        E 5 e0 55 4a
        E 6 e0 55 4a
        E 5 e0 55 4a
        E 5 e0 55 4a
        E 6 e0 55 4a
        E 5 e0 55 4a
        E 6 e0 55 4a
        E 5 e0 55 4a
        E 5 e0 55 4a
        E 6 e0 55 4a
        E 5 e0 55 4a
        E 0 90 4f 00
        E 0 90 50 3c
        E 139 90 53 50
        E 5 90 50 00
        E 132 90 53 00
        E 11 e0 55 4a
        E 0 90 51 44
        E 5 e0 55 4a
        E 5 e0 55 4a
        E 6 e0 55 4a
        E 5 e0 55 4a
        E 5 e0 55 4a
        E 6 e0 55 4a
        E 5 e0 55 4a
        E 5 e0 55 4a
        E 6 e0 55 4a
        E 5 e0 55 4a
        E 6 e0 55 4a
        E 5 e0 55 4a
        E 5 e0 55 4a
        E 6 e0 55 4a
        E 5 e0 55 4a
        E 5 e0 55 4a
        E 6 e0 55 4a
        E 5 e0 55 4a
        E 5 e0 55 4a
        E 6 e0 55 4a
        E 5 e0 55 4a
        E 0 90 51 00
        E 133 90 51 51
        E 31 90 39 44
        E 5 90 42 28
        E 86 90 42 00
        E 67 90 45 4d
        E 15 90 51 00
        E 51 90 39 00
        E 31 90 42 4f
        E 0 90 4a 51
        E 25 90 45 00
        E 77 90 45 46
        E 52 90 42 00
        E 10 90 4e 3d
        E 31 90 4c 44
        E 5 90 3d 23
        E 0 90 45 00
        E 41 90 4a 00
        E 0 90 4a 44
        E 35 90 3d 00
        E 16 90 4c 00
        E 0 90 4c 28
        E 5 90 45 31
        E 30 90 4e 00
        E 0 90 4e 50
        E 62 90 45 00
        E 5 90 4c 00
        E 0 90 4e 00
        E 0 90 4e 41
        E 10 90 4a 00
        E 0 90 4a 50
        E 5 90 3e 3f
        E 5 90 42 49
        E 51 90 4e 00
        E 251 90 3e 00
        E 5 90 4a 00
        E 5 e0 55 4a
        E 0 90 42 00
        E 0 90 56 45
        E 5 e0 55 4a
        E 6 e0 55 4a
        E 6 e0 55 4a
        E 5 e0 55 4a
        E 6 e0 55 4a
        E 5 e0 55 4a
        E 6 e0 55 4a
        E 5 e0 2b 55
        E 6 e0 55 4a
        E 6 e0 2b 55
        E 5 e0 2b 55
        E 0 90 56 00
        E 56 90 53 30
        E 46 90 51 37
        E 72 90 53 00
        E 26 90 4e 31
        E 26 90 51 00
        E 15 90 4c 3c
        E 61 90 4e 00
        E 10 90 4a 45
        E 31 90 42 2e
        E 36 90 39 29
        E 36 90 4c 00
        E 25 90 42 00
        E 15 90 45 3d
        E 67 90 39 00
        E 20 90 4a 00
        E 0 90 4a 48
        E 10 90 42 57
        E 87 90 45 00
        E 0 90 45 50
        E 31 90 4a 00
        E 36 90 42 00
        E 5 90 4e 49
        E 30 90 4c 33
        E 6 90 3d 36
        E 25 90 45 00
        E 0 90 4a 3e
        E 0 90 4e 00
        E 0 90 4e 41
        E 56 90 3d 00
        E 21 90 4c 00
        E 5 90 4e 00
        E 0 90 4e 48
        E 92 90 4a 00
        E 0 90 4a 3c
        E 5 90 3e 3d
        E 0 90 42 4b
        E 25 90 4e 00
        E 170 90 4a 00
        E 153 90 3e 00
        E 20 90 42 00
        E 31 e0 55 4a
        E 0 90 56 69
        E 5 e0 55 4a
        E 6 e0 55 4a
        E 5 e0 55 4a
        E 6 e0 55 4a
        E 5 e0 55 4a
        E 6 e0 55 4a
        E 5 e0 55 4a
        E 6 e0 55 4a
        E 5 e0 55 4a
        E 5 e0 55 4a
        E 6 e0 55 4a
        E 5 e0 55 4a
        E 6 e0 55 4a
        E 5 e0 2b 55
        E 6 e0 2b 55
        E 0 90 56 00
        E 0 90 56 32
        E 30 90 53 4a
        E 92 90 56 00
        E 11 90 4e 2e
        E 25 90 4c 41
        E 61 90 53 00
        E 16 90 4a 3b
        E 15 90 47 42
        E 15 90 4e 00
        E 51 90 4a 00
        E 26 90 42 4f
        E 5 90 4c 00
        E 51 90 3e 58
        E 5 90 2d 41
        E 0 90 47 00
        E 16 90 42 00
        E 51 90 42 2e
        E 20 90 36 4b
        E 62 90 42 00
        E 66 90 3e 00
        E 0 90 3e 56
        E 5 90 36 00
        E 0 90 36 41
        E 98 90 2d 00
        E 0 90 2d 35
        E 0 90 36 00
        E 0 90 36 3f
        E 0 90 39 41
        E 61 90 3d 35
        E 0 90 3e 00
        E 0 90 40 35
        E 25 90 36 00
        E 5 90 39 00
        E 6 90 2d 00
        E 0 90 42 43
        E 25 90 3d 00
        E 41 90 3e 3e
        E 41 90 40 00
        E 0 90 40 3a
        E 41 90 42 00
        E 0 90 42 5a
        E 66 90 40 00
        E 21 90 3e 00
        E 0 90 42 00
        E 70 b0 7b 00
        CCINTERP 32
        CHASE_CC_TAKEOFFS 1
        GUID {A848BD6C-2022-4FCA-AF06-5ECA737E2ECC}
        IGNTEMPO 0 120 4 4
        SRCCOLOR 65
        VELLANE -1 100 0
      >
    >
  >
  <UINF 17
    <ITEM {FFA15785-1E4E-4DBD-97D0-08096AF55E61}
      POSITION 0
      SNAPOFFS 0
      LENGTH 575.5
      LOOP 1
      ALLTAKES 0
      FADEIN 1 0 0 1 0 0 0
      FADEOUT 1 0 0 1 0 0 0
      MUTE 0 0
      SEL 0
      IGUID {FFA15785-1E4E-4DBD-97D0-08096AF55E61}
      IID 69
      NAME MIDI-Unprocessed_Chamber2_MID--AUDIO_09_R3_2018_wav--1_basic_pitch.mid
      VOLPAN 1 0 1 -1
      SOFFS 0 0
      PLAYRATE 1 1 0 -1 0 0.0025
      CHANMODE 0
      GUID {E25C11D9-6B82-40DF-AF9A-0D395EF7BB20}
      <SOURCE MIDI
        HASDATA 1 220 QN
        CCINTERP 32
        POOLEDEVTS {F1A48F5D-6FEC-4116-9FC5-A536674FDC59}
        E 0 c0 04 00
        E 2188 e0 55 2a
        E 0 90 4e 22
        E 5 e0 55 6a
        E 6 e0 55 6a
        E 5 e0 55 6a
        E 6 e0 55 2a
        E 5 e0 55 2a
        E 6 e0 55 2a
        E 6 e0 55 2a
        E 5 e0 55 2a
        E 6 e0 55 2a
        E 5 e0 55 2a
        E 6 e0 55 2a
        E 0 90 4e 00
        E 1324 e0 55 2a
        E 0 90 45 15
        E 6 e0 55 2a
        E 5 e0 00 20
        E 6 e0 55 2a
        E 5 e0 55 2a
        E 6 e0 55 2a
        E 5 e0 55 2a
        E 6 e0 55 2a
        E 6 e0 55 2a
        E 5 e0 55 2a
        E 6 e0 55 2a
        E 5 e0 55 2a
        E 0 90 45 00
        E 1007 e0 55 2a
        E 0 90 4e 23
        E 6 e0 55 2a
        E 5 e0 00 20
        E 6 e0 00 20
        E 6 e0 00 20
        E 5 e0 00 20
        E 6 e0 55 2a
        E 5 e0 55 2a
        E 6 e0 55 2a
        E 5 e0 55 2a
        E 6 e0 55 2a
        E 6 e0 55 2a
        E 0 90 4e 00
        E 2668 90 4c 23
        E 30 90 4e 23
        E 31 90 4c 00
        E 31 90 4e 00
        E 2295 90 4e 24
        E 31 90 4c 19
        E 30 90 4e 00
        E 31 90 4c 00
        E 7867 90 4c 1e
        E 15 90 4e 1b
        E 46 90 4c 00
        E 16 90 4e 00
        E 3598 e0 55 2a
        E 0 90 45 17
        E 6 e0 55 2a
        E 5 e0 55 2a
        E 6 e0 00 20
        E 5 e0 00 20
        E 6 e0 00 60
        E 5 e0 00 60
        E 6 e0 00 60
        E 5 e0 00 60
        E 6 e0 00 60
        E 6 e0 55 2a
        E 5 e0 55 2a
        E 6 e0 00 20
        E 0 90 45 00
        E 4585 e0 55 2a
        E 0 90 45 10
        E 5 e0 55 2a
        E 6 e0 55 2a
        E 5 e0 55 2a
        E 6 e0 55 2a
        E 5 e0 55 2a
        E 6 e0 55 2a
        E 5 e0 00 60
        E 6 e0 00 60
        E 5 e0 55 2a
        E 6 e0 55 2a
        E 6 e0 55 2a
        E 5 e0 55 2a
        E 0 90 45 00
        E 8148 e0 55 2a
        E 0 90 51 1b
        E 6 e0 55 2a
        E 5 e0 55 2a
        E 6 e0 55 2a
        E 5 e0 55 2a
        E 6 e0 55 2a
        E 5 e0 55 2a
        E 6 e0 55 2a
        E 5 e0 55 2a
        E 6 e0 55 2a
        E 5 e0 55 2a
        E 6 e0 55 2a
        E 5 e0 55 2a
        E 6 e0 00 20
        E 0 90 51 00
        E 4192 e0 55 2a
        E 0 90 51 16
        E 5 e0 55 2a
        E 5 e0 55 2a
        E 6 e0 55 2a
        E 5 e0 55 2a
        E 6 e0 55 2a
        E 5 e0 55 2a
        E 5 e0 55 2a
        E 6 e0 00 60
        E 5 e0 00 60
        E 5 e0 00 60
        E 6 e0 00 60
        E 5 e0 00 60
        E 6 e0 00 60
        E 5 e0 00 60
        E 5 e0 00 60
        E 6 e0 00 60
        E 5 e0 00 60
        E 5 e0 55 6a
        E 6 e0 55 6a
        E 0 90 51 00
        E 21290 e0 00 40
        E 0 90 56 2b
        E 5 e0 55 2a
        E 6 e0 55 6a
        E 6 e0 00 20
        E 5 e0 00 20
        E 6 e0 00 20
        E 5 e0 55 2a
        E 6 e0 55 2a
        E 5 e0 55 2a
        E 6 e0 55 2a
        E 6 e0 55 2a
        E 5 e0 55 2a
        E 0 90 56 00
        E 542 e0 2b 35
        E 0 90 51 26
        E 6 e0 2b 35
        E 5 e0 55 2a
        E 6 e0 00 20
        E 5 e0 00 20
        E 6 e0 00 20
        E 5 e0 00 20
        E 6 e0 55 2a
        E 5 e0 55 2a
        E 6 e0 55 2a
        E 6 e0 55 2a
        E 5 e0 55 2a
        E 6 e0 00 20
        E 0 90 51 00
        E 2264 e0 00 60
        E 0 90 51 29
        E 5 e0 55 6a
        E 6 e0 00 20
        E 5 e0 00 20
        E 6 e0 00 20
        E 6 e0 00 20
        E 5 e0 55 2a
        E 6 e0 55 2a
        E 5 e0 55 2a
        E 6 e0 55 2a
        E 5 e0 00 20
        E 6 e0 00 20
        E 0 90 51 00
        E 1825 e0 00 20
        E 0 90 4e 1d
        E 6 e0 00 20
        E 5 e0 00 20
        E 6 e0 00 20
        E 5 e0 00 20
        E 5 e0 00 20
        E 6 e0 55 2a
        E 5 e0 55 2a
        E 5 e0 55 2a
        E 6 e0 55 2a
        E 5 e0 55 2a
        E 5 e0 55 2a
        E 6 e0 00 20
        E 5 e0 00 20
        E 5 e0 00 20
        E 6 e0 55 2a
        E 5 e0 55 2a
        E 5 e0 55 2a
        E 6 e0 55 2a
        E 5 e0 55 2a
        E 5 e0 00 20
        E 6 e0 00 20
        E 0 90 4e 00
        E 623 e0 2b 35
        E 0 90 51 27
        E 6 e0 55 2a
        E 5 e0 00 20
        E 6 e0 00 20
        E 5 e0 00 20
        E 6 e0 00 20
        E 5 e0 00 20
        E 6 e0 55 2a
        E 6 e0 55 2a
        E 5 e0 55 2a
        E 6 e0 55 2a
        E 5 e0 00 20
        E 0 90 51 00
        E 614 e0 2b 55
        E 0 90 3e 16
        E 6 e0 2b 55
        E 5 e0 00 60
        E 6 e0 00 60
        E 5 e0 00 20
        E 6 e0 55 2a
        E 5 e0 55 2a
        E 6 e0 55 2a
        E 6 e0 55 2a
        E 5 e0 55 2a
        E 6 e0 55 2a
        E 5 e0 00 20
        E 0 90 3e 00
        E 971 e0 55 2a
        E 0 90 56 23
        E 6 e0 00 20
        E 5 e0 00 20
        E 6 e0 00 20
        E 5 e0 55 2a
        E 6 e0 55 2a
        E 5 e0 55 2a
        E 6 e0 55 2a
        E 5 e0 55 2a
        E 6 e0 55 2a
        E 5 e0 55 2a
        E 6 e0 55 2a
        E 5 e0 00 20
        E 6 e0 00 20
        E 0 90 56 00
        E 501 e0 2b 35
        E 0 90 51 2e
        E 6 e0 55 2a
        E 5 e0 00 20
        E 6 e0 00 20
        E 5 e0 00 20
        E 6 e0 00 20
        E 6 e0 00 20
        E 5 e0 55 2a
        E 6 e0 55 2a
        E 5 e0 55 2a
        E 6 e0 55 2a
        E 5 e0 00 20
        E 0 90 51 00
        E 7545 e0 2b 35
        E 0 90 51 23
        E 6 e0 55 2a
        E 6 e0 55 2a
        E 5 e0 55 2a
        E 6 e0 55 2a
        E 5 e0 55 2a
        E 6 e0 55 2a
        E 5 e0 55 2a
        E 6 e0 55 2a
        E 6 e0 55 2a
        E 5 e0 55 2a
        E 6 e0 55 2a
        E 0 90 51 00
        E 623 e0 2b 55
        E 0 90 3e 18
        E 5 e0 2b 55
        E 5 e0 00 20
        E 5 e0 00 20
        E 6 e0 00 20
        E 5 e0 55 2a
        E 5 e0 55 2a
        E 5 e0 55 2a
        E 5 e0 55 2a
        E 5 e0 55 2a
        E 6 e0 55 2a
        E 5 e0 55 2a
        E 5 e0 00 20
        E 5 e0 00 20
        E 0 90 3e 00
        E 1574 e0 55 2a
        E 0 90 51 29
        E 5 e0 55 2a
        E 6 e0 00 20
        E 6 e0 55 2a
        E 5 e0 55 2a
        E 6 e0 55 2a
        E 5 e0 55 2a
        E 6 e0 55 2a
        E 5 e0 55 2a
        E 6 e0 00 20
        E 6 e0 00 20
        E 5 e0 00 20
        E 0 90 51 00
        E 1815 e0 55 2a
        E 0 90 4a 24
        E 6 e0 55 2a
        E 5 e0 55 2a
        E 6 e0 00 20
        E 5 e0 55 2a
        E 6 e0 55 2a
        E 5 e0 55 2a
        E 6 e0 55 2a
        E 5 e0 55 2a
        E 6 e0 55 2a
        E 5 e0 55 2a
        E 6 e0 2b 35
        E 5 e0 55 2a
        E 6 e0 00 20
        E 5 e0 00 20
        E 0 90 4a 00
        E 582 90 4a 25
        E 72 90 42 13
        E 5 90 4a 00
        E 66 90 42 00
        E 0 90 4a 1a
        E 6 90 42 20
        E 61 90 4a 00
        E 11 90 42 00
        E 143 e0 00 20
        E 0 90 4a 27
        E 5 e0 00 20
        E 6 e0 00 20
        E 5 e0 00 20
        E 6 e0 00 20
        E 5 e0 00 20
        E 6 e0 00 20
        E 5 e0 00 20
        E 6 e0 00 20
        E 5 e0 00 20
        E 6 e0 55 2a
        E 5 e0 55 2a
        E 6 e0 00 20
        E 5 e0 00 20
        E 0 90 4a 00
        E 1641 90 51 1a
        E 46 90 3e 12
        E 20 90 51 00
        E 41 e0 55 2a
        E 0 90 3e 00
        E 0 90 42 14
        E 6 e0 55 2a
        E 5 e0 00 20
        E 6 e0 00 20
        E 5 e0 00 60
        E 6 e0 00 60
        E 6 e0 55 2a
        E 5 e0 55 2a
        E 6 e0 55 2a
        E 5 e0 55 2a
        E 6 e0 55 2a
        E 5 e0 55 2a
        E 6 e0 55 2a
        E 0 90 3e 15
        E 0 90 42 00
        E 0 90 42 13
        E 66 90 42 00
        E 10 90 3e 00
        E 389 e0 55 2a
        E 0 90 4e 1c
        E 5 e0 55 2a
        E 6 e0 55 2a
        E 5 e0 55 2a
        E 6 e0 55 2a
        E 5 e0 55 2a
        E 6 e0 2b 35
        E 5 e0 2b 35
        E 6 e0 2b 35
        E 5 e0 55 2a
        E 6 e0 55 2a
        E 5 e0 00 20
        E 6 e0 00 20
        E 0 90 4e 00
        E 113 e0 55 2a
        E 0 90 3e 1b
        E 6 e0 00 20
        E 5 e0 00 20
        E 6 e0 00 20
        E 5 e0 00 20
        E 6 e0 00 20
        E 5 e0 55 2a
        E 6 e0 55 2a
        E 6 e0 00 20
        E 5 e0 55 2a
        E 6 e0 00 20
        E 5 e0 00 20
        E 0 90 3e 00
        E 1748 e0 55 2a
        E 0 90 4a 27
        E 6 e0 55 2a
        E 5 e0 55 2a
        E 6 e0 00 20
        E 5 e0 00 20
        E 6 e0 55 2a
        E 5 e0 55 2a
        E 6 e0 55 2a
        E 5 e0 55 2a
        E 6 e0 55 2a
        E 5 e0 55 2a
        E 6 e0 55 2a
        E 5 e0 55 2a
        E 6 e0 55 2a
        E 5 e0 00 20
        E 0 90 4a 00
        E 72 e0 00 20
        E 0 90 4a 18
        E 5 e0 00 20
        E 6 e0 00 20
        E 5 e0 55 2a
        E 6 e0 55 2a
        E 5 e0 55 2a
        E 5 e0 55 2a
        E 6 e0 55 2a
        E 5 e0 55 2a
        E 6 e0 55 2a
        E 5 e0 55 2a
        E 6 e0 55 2a
        E 5 e0 55 2a
        E 6 e0 55 2a
        E 5 e0 00 20
        E 0 90 4a 00
        E 133 e0 00 60
        E 0 90 4e 21
        E 6 e0 00 20
        E 5 e0 00 20
        E 5 e0 00 20
        E 6 e0 00 20
        E 5 e0 00 20
        E 6 e0 00 20
        E 5 e0 55 2a
        E 6 e0 55 2a
        E 5 e0 55 2a
        E 6 e0 55 2a
        E 5 e0 55 2a
        E 6 e0 55 2a
        E 5 e0 00 20
        E 6 e0 00 20
        E 0 90 4e 00
        E 230 e0 55 2a
        E 0 90 4a 17
        E 5 e0 55 2a
        E 6 e0 00 20
        E 5 e0 00 20
        E 6 e0 55 2a
        E 5 e0 55 2a
        E 6 e0 55 2a
        E 5 e0 55 2a
        E 6 e0 55 2a
        E 5 e0 55 2a
        E 6 e0 55 2a
        E 5 e0 55 2a
        E 6 e0 55 2a
        E 5 e0 55 2a
        E 0 90 4a 00
        E 0 90 4a 13
        E 5 e0 00 20
        E 5 e0 00 20
        E 6 e0 00 20
        E 5 e0 00 20
        E 5 e0 55 2a
        E 5 e0 55 2a
        E 5 e0 55 2a
        E 5 e0 55 2a
        E 5 e0 55 2a
        E 6 e0 55 2a
        E 5 e0 55 2a
        E 5 e0 55 2a
        E 5 e0 55 2a
        E 0 90 4a 00
        E 0 90 4a 23
        E 77 90 42 15
        E 5 90 4a 00
        E 61 e0 55 6a
        E 0 90 42 00
        E 0 90 42 1b
        E 6 e0 55 6a
        E 5 e0 55 6a
        E 6 e0 55 6a
        E 5 e0 55 6a
        E 5 e0 55 6a
        E 6 e0 55 6a
        E 5 e0 00 20
        E 6 e0 55 2a
        E 5 e0 55 2a
        E 6 e0 55 2a
        E 5 e0 00 60
        E 6 e0 00 60
        E 5 e0 00 60
        E 6 e0 55 6a
        E 0 90 42 00
        E 0 90 42 1d
        E 5 e0 55 6a
        E 6 e0 55 6a
        E 5 e0 55 6a
        E 6 e0 55 6a
        E 5 e0 00 20
        E 6 e0 00 20
        E 5 e0 00 20
        E 6 e0 00 20
        E 5 e0 00 20
        E 5 e0 00 60
        E 6 e0 00 60
        E 5 e0 00 20
        E 6 e0 00 20
        E 5 e0 55 6a
        E 0 90 42 00
        E 1672 90 3e 13
        E 0 90 51 1d
        E 66 90 42 1a
        E 5 90 3e 00
        E 6 90 51 00
        E 61 90 3e 15
        E 5 90 42 00
        E 51 90 42 18
        E 5 90 3e 00
        E 0 90 3e 18
        E 61 90 42 00
        E 0 90 42 21
        E 11 90 3e 00
        E 71 90 42 00
        E 317 e0 55 2a
        E 0 90 4e 1c
        E 6 e0 55 2a
        E 6 e0 55 2a
        E 5 e0 55 2a
        E 6 e0 55 2a
        E 5 e0 55 2a
        E 6 e0 55 2a
        E 5 e0 55 2a
        E 6 e0 2b 35
        E 6 e0 2b 35
        E 5 e0 55 2a
        E 6 e0 55 2a
        E 0 90 4e 00
        E 3312 e0 00 20
        E 0 90 51 21
        E 5 e0 00 20
        E 5 e0 00 20
        E 5 e0 55 2a
        E 5 e0 55 2a
        E 5 e0 55 2a
        E 6 e0 55 2a
        E 5 e0 55 2a
        E 5 e0 55 2a
        E 5 e0 55 2a
        E 5 e0 55 2a
        E 5 e0 55 2a
        E 5 e0 55 2a
        E 6 e0 00 20
        E 5 e0 00 20
        E 5 e0 00 20
        E 0 90 51 00
        E 4165 90 4e 1a
        E 6 90 4a 18
        E 76 90 4a 00
        E 0 90 4e 00
        E 134 e0 55 2a
        E 0 90 4a 1d
        E 5 e0 00 20
        E 6 e0 00 20
        E 5 e0 00 20
        E 6 e0 00 20
        E 5 e0 00 20
        E 5 e0 55 2a
        E 6 e0 55 2a
        E 5 e0 55 2a
        E 6 e0 55 2a
        E 5 e0 55 2a
        E 6 e0 55 2a
        E 5 e0 55 2a
        E 6 e0 55 2a
        E 5 e0 00 20
        E 0 90 4a 00
        E 56 90 4e 1a
        E 11 90 4a 1d
        E 66 90 4e 00
        E 5 90 4a 00
        E 307 90 42 1b
        E 5 90 4a 19
        E 66 90 4a 00
        E 10 90 42 00
        E 57 90 42 1f
        E 5 90 4a 1e
        E 71 90 4a 00
        E 5 90 42 00
        E 67 e0 00 20
        E 0 90 42 19
        E 5 e0 00 20
        E 5 e0 00 20
        E 5 e0 00 20
        E 5 e0 00 20
        E 5 e0 00 20
        E 6 e0 00 20
        E 5 e0 55 2a
        E 5 e0 55 2a
        E 5 e0 00 60
        E 5 e0 00 60
        E 5 e0 00 60
        E 6 e0 55 2a
        E 5 e0 00 20
        E 5 e0 00 20
        E 0 90 42 00
        E 1733 e0 55 2a
        E 0 90 51 24
        E 5 e0 00 20
        E 6 e0 00 20
        E 5 e0 00 20
        E 6 e0 00 20
        E 5 e0 00 20
        E 6 e0 00 60
        E 5 e0 2b 55
        E 5 e0 2b 55
        E 6 e0 2b 55
        E 5 e0 00 60
        E 6 e0 55 6a
        E 5 e0 55 6a
        E 6 e0 2b 15
        E 5 e0 2b 15
        E 0 90 51 00
        E 36 e0 55 2a
        E 0 90 42 14
        E 6 e0 55 2a
        E 5 e0 55 2a
        E 6 e0 55 2a
        E 5 e0 55 2a
        E 6 e0 55 2a
        E 5 e0 55 2a
        E 6 e0 55 2a
        E 5 e0 55 2a
        E 6 e0 55 2a
        E 5 e0 55 2a
        E 6 e0 55 2a
        E 5 e0 00 60
        E 0 90 42 00
        E 0 90 42 13
        E 6 e0 00 60
        E 5 e0 00 60
        E 6 e0 00 60
        E 5 e0 00 60
        E 6 e0 00 60
        E 5 e0 55 2a
        E 6 e0 55 2a
        E 5 e0 55 2a
        E 6 e0 55 2a
        E 5 e0 55 2a
        E 6 e0 55 2a
        E 5 e0 55 2a
        E 6 e0 00 20
        E 5 e0 55 6a
        E 0 90 42 00
        E 434 e0 55 2a
        E 0 90 4e 21
        E 6 e0 55 2a
        E 5 e0 55 2a
        E 6 e0 55 2a
        E 6 e0 2b 35
        E 5 e0 2b 35
        E 6 e0 55 2a
        E 5 e0 55 2a
        E 6 e0 55 2a
        E 5 e0 55 2a
        E 6 e0 00 20
        E 6 e0 00 20
        E 0 90 4e 00
        E 25 e0 55 2a
        E 0 90 3e 1d
        E 5 e0 55 2a
        E 5 e0 55 2a
        E 6 e0 55 2a
        E 5 e0 55 2a
        E 5 e0 55 2a
        E 5 e0 55 2a
        E 5 e0 55 2a
        E 5 e0 55 2a
        E 5 e0 55 2a
        E 6 e0 55 2a
        E 5 e0 55 2a
        E 5 e0 55 2a
        E 5 e0 55 2a
        E 5 e0 00 20
        E 5 e0 00 20
        E 0 90 3e 00
        E 2464 e0 55 2a
        E 0 90 51 1a
        E 5 e0 00 20
        E 6 e0 55 2a
        E 5 e0 55 2a
        E 6 e0 55 2a
        E 6 e0 55 2a
        E 5 e0 55 2a
        E 6 e0 2b 35
        E 5 e0 55 2a
        E 6 e0 00 20
        E 5 e0 00 20
        E 6 e0 00 20
        E 0 90 51 00
        E 1043 e0 00 40
        E 0 90 4c 25
        E 6 e0 55 2a
        E 5 e0 00 20
        E 6 e0 00 20
        E 6 e0 00 20
        E 5 e0 00 20
        E 6 e0 55 2a
        E 5 e0 55 2a
        E 6 e0 55 2a
        E 5 e0 55 2a
        E 6 e0 55 2a
        E 6 e0 55 2a
        E 0 90 4c 00
        E 4825 e0 00 20
        E 0 90 4e 1c
        E 5 e0 00 20
        E 5 e0 00 20
        E 6 e0 00 20
        E 5 e0 00 20
        E 5 e0 00 20
        E 6 e0 55 2a
        E 5 e0 55 2a
        E 5 e0 55 2a
        E 6 e0 55 2a
        E 5 e0 55 2a
        E 5 e0 00 20
        E 6 e0 00 20
        E 5 e0 00 20
        E 5 e0 00 20
        E 6 e0 00 20
        E 5 e0 00 20
        E 6 e0 00 20
        E 5 e0 00 20
        E 5 e0 55 2a
        E 6 e0 00 20
        E 5 e0 00 20
        E 5 e0 00 20
        E 0 90 4e 00
        E 874 e0 00 20
        E 0 90 4f 15
        E 6 e0 00 20
        E 5 e0 00 20
        E 6 e0 00 20
        E 6 e0 55 2a
        E 5 e0 55 2a
        E 6 e0 55 2a
        E 5 e0 55 2a
        E 6 e0 55 2a
        E 5 e0 55 2a
        E 6 e0 55 2a
        E 6 e0 00 20
        E 0 90 4f 00
        E 1482 e0 00 20
        E 0 90 4e 19
        E 6 e0 00 20
        E 5 e0 00 20
        E 5 e0 00 20
        E 6 e0 55 2a
        E 5 e0 55 2a
        E 5 e0 55 2a
        E 6 e0 55 2a
        E 5 e0 55 2a
        E 5 e0 55 2a
        E 6 e0 55 2a
        E 5 e0 55 2a
        E 5 e0 00 20
        E 6 e0 00 20
        E 5 e0 00 20
        E 5 e0 00 20
        E 6 e0 00 20
        E 5 e0 55 2a
        E 5 e0 55 2a
        E 6 e0 55 2a
        E 5 e0 55 2a
        E 5 e0 55 2a
        E 6 e0 00 20
        E 0 90 4e 00
        E 419 e0 55 2a
        E 0 90 52 27
        E 6 e0 2b 75
        E 5 e0 55 6a
        E 6 e0 55 2a
        E 5 e0 55 2a
        E 6 e0 55 2a
        E 5 e0 55 2a
        E 6 e0 55 2a
        E 5 e0 55 2a
        E 6 e0 55 2a
        E 5 e0 55 2a
        E 6 e0 00 20
        E 6 e0 00 20
        E 0 90 52 00
        E 393 e0 2b 55
        E 0 90 43 1c
        E 5 e0 00 60
        E 6 e0 00 60
        E 5 e0 00 60
        E 6 e0 00 60
        E 6 e0 00 60
        E 5 e0 00 60
        E 6 e0 00 60
        E 5 e0 00 60
        E 6 e0 2b 55
        E 5 e0 55 2a
        E 6 e0 00 60
        E 5 e0 00 60
        E 0 90 43 00
        E 7739 e0 00 20
        E 0 90 51 16
        E 6 e0 55 6a
        E 5 e0 00 20
        E 6 e0 55 2a
        E 5 e0 55 2a
        E 5 e0 55 2a
        E 6 e0 2b 35
        E 5 e0 2b 35
        E 5 e0 2b 35
        E 6 e0 55 2a
        E 5 e0 00 20
        E 5 e0 00 20
        E 6 e0 00 20
        E 5 e0 00 20
        E 6 e0 00 20
        E 5 e0 55 6a
        E 5 e0 00 60
        E 6 e0 00 60
        E 5 e0 00 60
        E 5 e0 00 60
        E 6 e0 55 6a
        E 0 90 51 00
        E 583 e0 55 2a
        E 0 90 4e 2d
        E 5 e0 00 20
        E 6 e0 00 20
        E 5 e0 00 20
        E 6 e0 00 20
        E 6 e0 00 20
        E 5 e0 00 20
        E 6 e0 00 20
        E 5 e0 55 6a
        E 6 e0 55 6a
        E 5 e0 55 6a
        E 6 e0 55 6a
        E 0 90 4e 00
        E 976 e0 55 2a
        E 0 90 4c 26
        E 6 e0 55 2a
        E 5 e0 55 2a
        E 6 e0 55 2a
        E 5 e0 55 2a
        E 6 e0 55 2a
        E 5 e0 55 2a
        E 6 e0 55 2a
        E 6 e0 55 2a
        E 5 e0 55 2a
        E 6 e0 55 2a
        E 5 e0 00 20
        E 6 e0 00 20
        E 0 90 4c 00
        E 138 e0 55 6a
        E 0 90 4f 2a
        E 5 e0 2b 75
        E 6 e0 55 6a
        E 5 e0 55 6a
        E 6 e0 55 6a
        E 5 e0 55 6a
        E 6 e0 55 6a
        E 5 e0 55 6a
        E 6 e0 55 6a
        E 5 e0 00 60
        E 6 e0 55 6a
        E 5 e0 2b 75
        E 6 e0 2b 75
        E 0 90 4f 00
        E 31 e0 55 6a
        E 0 90 51 1a
        E 5 e0 55 6a
        E 5 e0 55 6a
        E 5 e0 55 6a
        E 5 e0 55 6a
        E 5 e0 55 6a
        E 6 e0 55 6a
        E 5 e0 55 2a
        E 5 e0 55 2a
        E 5 e0 55 2a
        E 5 e0 55 2a
        E 5 e0 55 2a
        E 0 90 51 00
        E 450 e0 00 20
        E 0 90 51 0d
        E 5 e0 00 20
        E 6 e0 00 20
        E 6 e0 00 20
        E 5 e0 00 20
        E 6 e0 55 2a
        E 5 e0 55 2a
        E 6 e0 00 20
        E 6 e0 00 20
        E 5 e0 55 2a
        E 6 e0 00 20
        E 5 e0 55 6a
        E 0 90 51 00
        E 711 e0 2b 15
        E 0 90 52 1b
        E 5 e0 2b 75
        E 6 e0 00 20
        E 6 e0 55 2a
        E 5 e0 00 20
        E 6 e0 00 20
        E 5 e0 55 2a
        E 6 e0 55 2a
        E 5 e0 55 2a
        E 6 e0 55 2a
        E 6 e0 55 2a
        E 5 e0 00 20
        E 0 90 52 00
        E 388 e0 2b 55
        E 0 90 43 12
        E 6 e0 2b 55
        E 5 e0 2b 55
        E 5 e0 00 60
        E 5 e0 00 60
        E 5 e0 00 60
        E 5 e0 00 60
        E 6 e0 00 60
        E 5 e0 2b 55
        E 5 e0 2b 55
        E 5 e0 2b 55
        E 5 e0 00 60
        E 0 90 43 00
        E 3619 e0 00 20
        E 0 90 4a 24
        E 6 e0 00 20
        E 5 e0 00 20
        E 6 e0 00 20
        E 5 e0 00 60
        E 6 e0 00 60
        E 5 e0 00 60
        E 6 e0 00 60
        E 5 e0 00 60
        E 6 e0 00 60
        E 5 e0 00 60
        E 6 e0 55 0a
        E 6 e0 55 0a
        E 0 90 4a 00
        E 1109 e0 55 4a
        E 0 90 4d 2f
        E 5 e0 00 60
        E 6 e0 2b 75
        E 5 e0 2b 75
        E 6 e0 2b 75
        E 6 e0 55 6a
        E 5 e0 55 6a
        E 6 e0 55 6a
        E 5 e0 55 6a
        E 6 e0 55 6a
        E 5 e0 55 6a
        E 6 e0 55 6a
        E 0 90 4d 00
        E 342 e0 00 20
        E 0 90 51 1f
        E 5 e0 00 20
        E 6 e0 00 20
        E 5 e0 55 2a
        E 5 e0 55 2a
        E 5 e0 55 2a
        E 5 e0 55 2a
        E 5 e0 55 6a
        E 5 e0 00 60
        E 6 e0 55 2a
        E 5 e0 00 20
        E 5 e0 00 20
        E 0 90 51 00
        E 1232 e0 55 0a
        E 0 90 4d 22
        E 5 e0 2b 75
        E 6 e0 55 6a
        E 5 e0 55 6a
        E 6 e0 55 6a
        E 5 e0 00 60
        E 6 e0 00 60
        E 5 e0 00 60
        E 6 e0 00 60
        E 5 e0 00 60
        E 6 e0 00 60
        E 6 e0 55 6a
        E 5 e0 55 6a
        E 0 90 4d 00
        E 3952 e0 00 20
        E 0 90 4a 26
        E 5 e0 00 20
        E 6 e0 00 20
        E 5 e0 00 20
        E 6 e0 00 60
        E 5 e0 00 60
        E 6 e0 00 60
        E 5 e0 00 60
        E 6 e0 00 60
        E 5 e0 00 60
        E 6 e0 00 60
        E 6 e0 55 0a
        E 5 e0 55 6a
        E 0 90 4a 00
        E 41 e0 00 20
        E 0 90 4d 26
        E 6 e0 00 20
        E 5 e0 00 20
        E 6 e0 00 20
        E 5 e0 00 20
        E 6 e0 00 20
        E 5 e0 00 20
        E 6 e0 00 20
        E 6 e0 00 20
        E 5 e0 00 20
        E 6 e0 55 6a
        E 5 e0 55 6a
        E 0 90 4d 00
        E 7289 e0 00 20
        E 0 90 4d 18
        E 6 e0 00 20
        E 5 e0 00 20
        E 6 e0 55 2a
        E 5 e0 55 2a
        E 6 e0 00 20
        E 5 e0 00 60
        E 6 e0 00 60
        E 5 e0 00 60
        E 6 e0 00 60
        E 5 e0 00 60
        E 6 e0 55 6a
        E 5 e0 55 6a
        E 5 e0 55 6a
        E 6 e0 2b 75
        E 0 90 4d 00
        E 6318 e0 00 20
        E 0 90 4d 14
        E 5 e0 00 20
        E 6 e0 00 20
        E 5 e0 55 2a
        E 6 e0 55 2a
        E 5 e0 55 2a
        E 6 e0 55 2a
        E 5 e0 00 60
        E 5 e0 55 6a
        E 6 e0 00 60
        E 5 e0 00 60
        E 6 e0 00 60
        E 5 e0 00 60
        E 6 e0 00 60
        E 5 e0 00 60
        E 6 e0 55 6a
        E 0 90 4d 00
        E 1840 e0 55 6a
        E 0 90 53 11
        E 6 e0 55 6a
        E 5 e0 55 6a
        E 6 e0 55 6a
        E 6 e0 55 6a
        E 5 e0 55 6a
        E 6 e0 55 2a
        E 5 e0 55 2a
        E 6 e0 55 2a
        E 5 e0 55 2a
        E 6 e0 55 2a
        E 6 e0 55 2a
        E 0 90 53 00
        E 1692 e0 00 20
        E 0 90 4b 25
        E 5 e0 00 20
        E 6 e0 00 20
        E 5 e0 00 20
        E 6 e0 00 20
        E 5 e0 00 60
        E 6 e0 00 60
        E 5 e0 00 60
        E 6 e0 00 60
        E 5 e0 00 60
        E 6 e0 00 60
        E 6 e0 2b 15
        E 5 e0 2b 15
        E 0 90 4b 00
        E 39027 e0 00 20
        E 0 90 4e 18
        E 6 e0 00 20
        E 6 e0 00 20
        E 5 e0 00 20
        E 6 e0 55 2a
        E 5 e0 55 2a
        E 6 e0 00 20
        E 5 e0 55 2a
        E 6 e0 55 2a
        E 6 e0 55 2a
        E 5 e0 00 20
        E 6 e0 00 20
        E 0 90 4e 00
        E 23785 e0 00 20
        E 0 90 53 18
        E 5 e0 00 20
        E 6 e0 00 20
        E 5 e0 00 20
        E 6 e0 55 2a
        E 5 e0 55 2a
        E 6 e0 55 2a
        E 5 e0 55 2a
        E 6 e0 55 2a
        E 5 e0 55 2a
        E 6 e0 55 2a
        E 5 e0 00 20
        E 6 e0 55 0a
        E 5 e0 55 0a
        E 0 90 53 00
        E 6681 e0 55 2a
        E 0 90 3e 13
        E 6 e0 00 20
        E 5 e0 00 20
        E 6 e0 55 2a
        E 5 e0 55 2a
        E 6 e0 55 2a
        E 5 e0 55 2a
        E 6 e0 55 2a
        E 6 e0 55 2a
        E 5 e0 55 2a
        E 6 e0 55 2a
        E 5 e0 00 20
        E 0 90 3e 00
        E 3114 e0 2b 55
        E 0 90 3e 17
        E 5 e0 00 20
        E 6 e0 00 20
        E 5 e0 00 20
        E 6 e0 00 20
        E 5 e0 55 2a
        E 6 e0 55 2a
        E 6 e0 55 2a
        E 5 e0 55 2a
        E 6 e0 55 2a
        E 5 e0 55 2a
        E 6 e0 55 2a
        E 0 90 3e 00
        E 767 e0 00 20
        E 0 90 4e 0d
        E 5 e0 00 20
        E 6 e0 55 2a
        E 5 e0 55 2a
        E 6 e0 55 2a
        E 5 e0 55 2a
        E 6 e0 55 2a
        E 5 e0 55 2a
        E 6 e0 55 2a
        E 6 e0 55 2a
        E 5 e0 55 2a
        E 6 e0 55 2a
        E 5 e0 55 2a
        E 0 90 4e 00
        E 2229 90 53 15
        E 31 90 51 22
        E 30 90 53 00
        E 36 90 51 00
        E 1360 e0 00 60
        E 0 90 50 19
        E 5 e0 55 6a
        E 6 e0 55 6a
        E 5 e0 00 60
        E 6 e0 00 60
        E 5 e0 00 60
        E 6 e0 00 60
        E 5 e0 55 6a
        E 6 e0 55 6a
        E 5 e0 55 6a
        E 6 e0 55 6a
        E 5 e0 55 6a
        E 6 e0 55 6a
        E 0 90 50 00
        E 2535 e0 55 2a
        E 0 90 4c 0e
        E 6 e0 55 2a
        E 6 e0 55 2a
        E 5 e0 55 2a
        E 6 e0 55 2a
        E 5 e0 55 2a
        E 6 e0 55 2a
        E 5 e0 2b 35
        E 6 e0 2b 35
        E 5 e0 2b 35
        E 6 e0 2b 35
        E 5 e0 55 2a
        E 6 e0 55 2a
        E 0 90 4c 00
        E 1027 e0 55 2a
        E 0 90 48 17
        E 6 e0 00 20
        E 5 e0 00 20
        E 6 e0 55 2a
        E 5 e0 55 2a
        E 6 e0 55 2a
        E 5 e0 55 2a
        E 6 e0 55 2a
        E 5 e0 2b 35
        E 6 e0 2b 35
        E 5 e0 2b 35
        E 6 e0 2b 35
        E 5 e0 55 2a
        E 6 e0 55 2a
        E 0 90 48 00
        E 557 e0 55 2a
        E 0 90 45 15
        E 6 e0 55 2a
        E 5 e0 55 2a
        E 6 e0 55 2a
        E 5 e0 55 2a
        E 6 e0 55 2a
        E 6 e0 55 2a
        E 5 e0 55 2a
        E 6 e0 55 2a
        E 5 e0 55 2a
        E 6 e0 55 2a
        E 5 e0 55 2a
        E 0 90 45 00
        E 51 e0 55 2a
        E 0 90 45 19
        E 6 e0 00 20
        E 5 e0 00 20
        E 6 e0 55 2a
        E 5 e0 55 2a
        E 6 e0 55 2a
        E 5 e0 55 2a
        E 6 e0 55 2a
        E 5 e0 55 2a
        E 6 e0 55 2a
        E 5 e0 55 2a
        E 6 e0 55 2a
        E 5 e0 55 2a
        E 6 e0 00 20
        E 0 90 45 00
        E 695 e0 00 20
        E 0 90 4f 13
        E 6 e0 00 20
        E 5 e0 55 2a
        E 5 e0 55 2a
        E 6 e0 55 2a
        E 5 e0 55 2a
        E 5 e0 55 2a
        E 6 e0 55 2a
        E 5 e0 55 2a
        E 5 e0 55 2a
        E 6 e0 55 2a
        E 5 e0 55 2a
        E 6 e0 55 2a
        E 5 e0 55 2a
        E 5 e0 55 2a
        E 6 e0 55 2a
        E 5 e0 55 2a
        E 5 e0 55 2a
        E 6 e0 55 2a
        E 5 e0 55 2a
        E 5 e0 55 2a
        E 6 e0 55 2a
        E 0 90 4f 00
        E 71 e0 55 2a
        E 0 90 4f 16
        E 6 e0 55 2a
        E 5 e0 55 2a
        E 6 e0 55 2a
        E 5 e0 55 2a
        E 6 e0 55 2a
        E 5 e0 55 2a
        E 6 e0 55 2a
        E 5 e0 2b 35
        E 6 e0 2b 35
        E 6 e0 2b 35
        E 5 e0 55 2a
        E 6 e0 55 2a
        E 0 90 4f 00
        E 10448 e0 55 2a
        E 0 90 51 16
        E 5 e0 55 2a
        E 6 e0 55 2a
        E 5 e0 55 2a
        E 6 e0 55 2a
        E 5 e0 55 2a
        E 6 e0 55 2a
        E 5 e0 55 2a
        E 6 e0 55 6a
        E 5 e0 55 2a
        E 6 e0 55 2a
        E 5 e0 55 2a
        E 6 e0 55 2a
        E 5 e0 55 2a
        E 0 90 51 00
        E 394 e0 55 6a
        E 0 90 51 16
        E 6 e0 55 6a
        E 6 e0 55 6a
        E 5 e0 55 6a
        E 6 e0 00 60
        E 5 e0 00 60
        E 6 e0 00 60
        E 5 e0 00 60
        E 6 e0 00 60
        E 6 e0 00 60
        E 5 e0 55 6a
        E 6 e0 55 6a
        E 0 90 51 00
        E 199 e0 55 6a
        E 0 90 51 11
        E 5 e0 55 6a
        E 6 e0 55 6a
        E 5 e0 55 6a
        E 6 e0 00 60
        E 6 e0 00 60
        E 5 e0 00 60
        E 6 e0 55 6a
        E 5 e0 55 6a
        E 6 e0 55 6a
        E 5 e0 55 6a
        E 6 e0 55 6a
        E 5 e0 55 6a
        E 0 90 51 00
        E 1682 e0 55 2a
        E 0 90 51 26
        E 6 e0 00 20
        E 5 e0 00 20
        E 5 e0 00 20
        E 6 e0 00 20
        E 5 e0 55 2a
        E 6 e0 00 60
        E 5 e0 00 60
        E 6 e0 00 60
        E 5 e0 00 60
        E 6 e0 00 60
        E 5 e0 00 60
        E 5 e0 00 60
        E 6 e0 55 6a
        E 5 e0 55 6a
        E 6 e0 55 6a
        E 0 90 51 00
        E 670 e0 55 2a
        E 0 90 4e 22
        E 5 e0 00 20
        E 6 e0 00 20
        E 5 e0 00 20
        E 6 e0 00 20
        E 5 e0 55 2a
        E 6 e0 55 2a
        E 5 e0 55 2a
        E 6 e0 55 2a
        E 5 e0 55 2a
        E 6 e0 55 2a
        E 5 e0 55 2a
        E 6 e0 00 20
        E 5 e0 00 20
        E 0 90 4e 00
        E 3650 e0 55 2a
        E 0 90 4a 2e
        E 5 e0 00 20
        E 6 e0 00 20
        E 5 e0 00 20
        E 6 e0 00 20
        E 6 e0 00 20
        E 5 e0 55 2a
        E 6 e0 55 2a
        E 5 e0 55 2a
        E 6 e0 55 2a
        E 5 e0 00 20
        E 6 e0 00 20
        E 0 90 4a 00
        E 133 e0 55 2a
        E 0 90 4c 17
        E 6 e0 55 2a
        E 6 e0 55 2a
        E 5 e0 55 2a
        E 6 e0 55 2a
        E 5 e0 55 2a
        E 6 e0 55 2a
        E 5 e0 55 2a
        E 6 e0 55 2a
        E 6 e0 55 2a
        E 5 e0 55 2a
        E 6 e0 00 20
        E 0 90 4c 00
        E 638 e0 00 20
        E 0 90 53 13
        E 6 e0 00 20
        E 5 e0 00 20
        E 6 e0 00 20
        E 5 e0 00 20
        E 6 e0 00 20
        E 6 e0 55 2a
        E 5 e0 55 2a
        E 6 e0 2b 35
        E 5 e0 2b 35
        E 6 e0 2b 35
        E 5 e0 00 60
        E 6 e0 00 60
        E 0 90 53 00
        E 562 e0 00 60
        E 0 90 4c 0c
        E 6 e0 00 60
        E 5 e0 00 60
        E 6 e0 55 2a
        E 5 e0 55 2a
        E 6 e0 55 2a
        E 6 e0 55 2a
        E 5 e0 2b 35
        E 6 e0 2b 35
        E 5 e0 2b 35
        E 6 e0 55 2a
        E 5 e0 55 2a
        E 0 90 4c 00
        E 54 b0 7b 00
        CCINTERP 32
        CHASE_CC_TAKEOFFS 1
        GUID {ED453611-FB5B-4F43-B63B-90EF3B4CE65E}
        IGNTEMPO 0 120 4 4
        SRCCOLOR 120
        VELLANE -1 100 0
      >
    >
  >
  <UINF 18
    <ITEM {843EECD0-D555-4132-976F-238D4A3EEA53}
      POSITION 0
      SNAPOFFS 0
      LENGTH 579.5
      LOOP 1
      ALLTAKES 0
      FADEIN 1 0 0 1 0 0 0
      FADEOUT 1 0 0 1 0 0 0
      MUTE 0 0
      SEL 0
      IGUID {843EECD0-D555-4132-976F-238D4A3EEA53}
      IID 101
      NAME MIDI-Unprocessed_Chamber2_MID--AUDIO_09_R3_2018_wav--1_basic_pitch.mid
      VOLPAN 1 0 1 -1
      SOFFS 0 0
      PLAYRATE 1 1 0 -1 0 0.0025
      CHANMODE 0
      GUID {1F1ACA7B-6559-44BD-A45F-7CD05E94CCF9}
      <SOURCE MIDI
        HASDATA 1 220 QN
        CCINTERP 32
        POOLEDEVTS {0D537660-2FEF-452E-BFB8-9F79107310DB}
        E 0 c0 04 00
        E 322 90 2f 2e
        E 5 90 32 32
        E 0 90 3e 4a
        E 56 90 2f 00
        E 5 90 32 00
        E 5 90 3e 00
        E 568 90 42 2a
        E 5 90 45 27
        E 107 90 32 24
        E 5 90 3e 25
        E 21 90 45 00
        E 5 90 42 00
        E 92 90 32 00
        E 0 90 3e 00
        E 286 e0 00 20
        E 0 90 26 17
        E 5 e0 00 20
        E 6 e0 00 20
        E 5 e0 00 20
        E 5 e0 55 6a
        E 6 e0 55 6a
        E 5 e0 55 6a
        E 6 e0 55 6a
        E 5 e0 55 6a
        E 5 e0 2b 75
        E 6 e0 55 6a
        E 5 e0 55 6a
        E 5 e0 55 6a
        E 6 e0 55 6a
        E 5 e0 55 6a
        E 5 e0 55 6a
        E 6 e0 55 6a
        E 5 e0 55 6a
        E 6 e0 2b 75
        E 5 e0 2b 75
        E 5 e0 2b 75
        E 0 90 26 00
        E 364 90 36 1e
        E 0 90 39 20
        E 97 90 36 00
        E 0 90 39 00
        E 107 90 36 14
        E 0 90 4c 29
        E 36 90 4e 34
        E 5 90 45 2a
        E 25 90 4c 00
        E 16 90 32 1d
        E 5 90 42 21
        E 5 90 36 00
        E 10 90 45 00
        E 0 90 4e 00
        E 41 90 32 00
        E 15 90 42 00
        E 21 e0 00 60
        E 0 90 40 15
        E 5 e0 00 60
        E 6 e0 00 60
        E 5 e0 00 60
        E 6 e0 00 60
        E 5 e0 00 60
        E 6 e0 00 60
        E 5 e0 00 60
        E 6 e0 00 60
        E 5 e0 00 20
        E 6 e0 00 20
        E 5 e0 00 60
        E 6 e0 00 60
        E 5 e0 00 60
        E 0 90 3e 2a
        E 0 90 40 00
        E 5 90 42 2f
        E 67 90 3e 00
        E 5 90 42 00
        E 567 e0 2b 35
        E 0 90 3e 50
        E 6 e0 55 2a
        E 6 e0 00 20
        E 5 e0 00 20
        E 6 e0 00 20
        E 5 e0 00 20
        E 6 e0 00 20
        E 5 e0 2b 15
        E 6 e0 2b 15
        E 6 e0 2b 15
        E 5 e0 00 20
        E 6 e0 00 20
        E 0 90 3e 00
        E 368 90 45 1c
        E 92 90 32 1c
        E 0 90 39 18
        E 46 90 2f 2d
        E 5 90 3b 19
        E 0 90 3e 38
        E 0 90 4a 22
        E 5 90 45 00
        E 5 90 32 00
        E 0 90 45 38
        E 46 90 32 30
        E 11 90 42 2d
        E 5 90 2f 00
        E 0 90 3b 00
        E 0 90 3e 00
        E 0 90 3e 21
        E 0 90 4a 00
        E 5 90 39 00
        E 5 90 45 00
        E 51 90 32 00
        E 5 90 42 00
        E 46 90 3e 00
        E 266 90 45 26
        E 97 90 26 1c
        E 0 90 2f 1c
        E 0 90 32 2d
        E 0 90 36 20
        E 5 90 39 23
        E 41 90 24 19
        E 10 90 3e 3c
        E 0 90 42 3b
        E 5 90 45 00
        E 0 90 45 2e
        E 46 90 24 00
        E 20 90 2f 00
        E 0 90 32 00
        E 6 90 3e 00
        E 0 90 45 00
        E 10 90 42 00
        E 20 90 26 00
        E 0 90 39 00
        E 5 90 36 00
        E 241 90 36 17
        E 0 90 3e 27
        E 0 90 42 20
        E 5 90 39 25
        E 5 90 45 2b
        E 56 90 32 23
        E 11 90 36 00
        E 0 90 3e 00
        E 5 90 39 00
        E 5 90 45 00
        E 41 90 32 00
        E 0 90 42 00
        E 25 90 45 15
        E 67 90 39 21
        E 5 90 40 1c
        E 0 90 45 00
        E 0 90 45 21
        E 51 90 32 2a
        E 0 90 36 1e
        E 10 90 40 00
        E 0 90 42 31
        E 61 90 32 00
        E 0 90 36 00
        E 0 90 39 00
        E 5 90 45 00
        E 11 90 42 00
        E 143 e0 00 20
        E 0 90 3e 18
        E 5 e0 00 20
        E 6 e0 00 20
        E 5 e0 00 20
        E 6 e0 00 20
        E 5 e0 00 20
        E 6 e0 00 20
        E 5 e0 00 60
        E 6 e0 00 60
        E 5 e0 00 60
        E 6 e0 00 60
        E 5 e0 00 60
        E 6 e0 00 60
        E 5 e0 00 60
        E 0 90 3e 00
        E 241 e0 55 6a
        E 0 90 32 34
        E 5 e0 55 6a
        E 6 e0 55 6a
        E 5 e0 55 6a
        E 6 e0 00 20
        E 5 e0 00 20
        E 6 e0 00 20
        E 5 e0 00 20
        E 6 e0 00 20
        E 5 e0 2b 15
        E 6 e0 2b 15
        E 5 e0 2b 15
        E 6 e0 2b 15
        E 5 e0 00 20
        E 5 e0 00 20
        E 0 90 32 00
        E 225 90 2f 35
        E 0 90 3e 4a
        E 5 90 26 37
        E 0 90 42 3e
        E 57 90 2f 00
        E 5 90 26 00
        E 0 90 42 00
        E 5 90 3e 00
        E 225 90 23 1e
        E 10 90 3e 19
        E 51 90 23 00
        E 51 90 3e 00
        E 87 e0 00 20
        E 0 90 2f 1b
        E 6 e0 00 20
        E 5 e0 00 20
        E 5 e0 00 20
        E 6 e0 00 20
        E 5 e0 00 20
        E 6 e0 00 20
        E 5 e0 55 2a
        E 5 e0 55 2a
        E 6 e0 55 2a
        E 5 e0 00 20
        E 5 e0 00 20
        E 6 e0 00 20
        E 5 e0 00 20
        E 5 e0 00 20
        E 6 e0 00 20
        E 5 e0 00 20
        E 6 e0 55 6a
        E 5 e0 2b 75
        E 5 e0 2b 75
        E 6 e0 00 20
        E 0 90 2f 00
        E 86 90 23 15
        E 0 90 2f 26
        E 0 90 36 25
        E 11 90 42 26
        E 56 90 23 00
        E 0 90 2f 00
        E 66 90 36 00
        E 5 90 42 00
        E 368 e0 2b 75
        E 0 90 42 22
        E 5 e0 2b 75
        E 5 e0 55 6a
        E 6 e0 55 6a
        E 5 e0 55 6a
        E 5 e0 55 6a
        E 5 e0 55 6a
        E 5 e0 55 6a
        E 5 e0 00 20
        E 5 e0 00 20
        E 6 e0 00 20
        E 5 e0 00 20
        E 5 e0 00 20
        E 5 e0 00 20
        E 5 e0 00 20
        E 5 e0 00 20
        E 5 e0 00 20
        E 5 e0 00 20
        E 6 e0 00 20
        E 5 e0 00 20
        E 5 e0 00 20
        E 5 e0 55 6a
        E 5 e0 00 20
        E 0 90 42 00
        E 179 90 26 21
        E 10 90 39 2a
        E 61 90 26 00
        E 52 90 39 00
        E 76 90 4c 2b
        E 31 90 4e 2d
        E 30 90 4c 00
        E 31 90 4e 00
        E 56 90 40 22
        E 5 90 42 1b
        E 0 90 45 20
        E 62 90 42 00
        E 5 90 42 2b
        E 5 90 40 00
        E 5 90 45 00
        E 56 90 42 00
        E 547 90 32 28
        E 0 90 3e 3e
        E 62 90 32 00
        E 5 90 3e 00
        E 362 e0 7f 7f
        E 0 90 42 25
        E 6 e0 7f 7f
        E 6 e0 00 20
        E 5 e0 00 20
        E 6 e0 00 20
        E 5 e0 00 20
        E 6 e0 00 20
        E 5 e0 00 20
        E 6 e0 00 20
        E 6 e0 00 20
        E 5 e0 00 20
        E 6 e0 00 20
        E 0 90 42 00
        E 57 90 2f 23
        E 5 90 3e 35
        E 5 90 45 3b
        E 0 90 4a 27
        E 41 90 26 20
        E 5 90 32 27
        E 10 90 3e 00
        E 0 90 3e 23
        E 0 90 42 30
        E 5 90 2f 00
        E 5 90 4a 00
        E 5 90 45 00
        E 51 90 42 00
        E 41 90 26 00
        E 5 90 32 00
        E 0 90 3e 00
        E 261 90 36 21
        E 10 90 45 26
        E 92 90 39 20
        E 10 90 45 00
        E 36 90 2f 1d
        E 0 90 32 24
        E 0 90 3e 33
        E 5 90 42 31
        E 0 90 45 24
        E 82 90 2f 00
        E 0 90 32 00
        E 5 90 45 00
        E 5 90 36 00
        E 0 90 3e 00
        E 20 90 42 00
        E 52 90 39 00
        E 66 e0 00 20
        E 0 90 39 19
        E 5 e0 00 20
        E 5 e0 00 20
        E 5 e0 00 20
        E 6 e0 00 20
        E 5 e0 00 20
        E 5 e0 00 20
        E 5 e0 00 20
        E 5 e0 00 20
        E 5 e0 00 20
        E 6 e0 00 20
        E 5 e0 55 6a
        E 0 90 39 00
        E 71 90 32 1e
        E 10 90 39 1a
        E 0 90 45 1e
        E 31 90 42 2a
        E 5 90 4e 32
        E 31 90 40 27
        E 0 90 4c 29
        E 20 90 32 00
        E 5 90 45 00
        E 6 90 4e 00
        E 5 90 42 00
        E 5 90 3d 2a
        E 15 90 39 00
        E 10 90 40 00
        E 0 90 4c 00
        E 67 90 39 17
        E 15 90 3d 00
        E 51 90 42 23
        E 5 90 32 23
        E 5 90 39 00
        E 62 90 42 00
        E 51 90 32 00
        E 419 e0 55 6a
        E 0 90 32 2e
        E 6 e0 55 6a
        E 5 e0 55 6a
        E 6 e0 00 20
        E 5 e0 00 20
        E 5 e0 00 20
        E 6 e0 00 20
        E 5 e0 00 20
        E 6 e0 00 20
        E 5 e0 00 20
        E 6 e0 00 20
        E 5 e0 00 20
        E 6 e0 55 6a
        E 5 e0 2b 15
        E 5 e0 00 20
        E 6 e0 00 20
        E 0 90 32 00
        E 250 e0 2b 15
        E 0 90 2d 45
        E 6 e0 2b 15
        E 5 e0 2b 15
        E 5 e0 2b 15
        E 6 e0 2b 15
        E 5 e0 2b 15
        E 6 e0 2b 15
        E 5 e0 2b 15
        E 5 e0 2b 15
        E 6 e0 2b 15
        E 5 e0 2b 15
        E 6 e0 00 20
        E 5 e0 00 20
        E 6 e0 00 20
        E 5 e0 00 20
        E 5 e0 00 20
        E 6 e0 00 20
        E 5 e0 00 20
        E 0 90 2d 00
        E 164 90 3d 2b
        E 0 90 45 35
        E 10 90 40 31
        E 51 90 45 00
        E 10 90 40 00
        E 15 90 3d 00
        E 57 90 40 23
        E 66 90 2d 2b
        E 21 90 40 00
        E 41 90 2d 00
        E 541 90 2d 30
        E 21 90 39 27
        E 128 90 2d 00
        E 5 90 2d 23
        E 20 90 39 00
        E 56 90 45 2a
        E 5 90 32 34
        E 6 90 3e 29
        E 10 90 2d 00
        E 51 90 45 00
        E 36 90 3e 00
        E 10 90 32 00
        E 97 e0 00 20
        E 0 90 45 2b
        E 6 e0 00 20
        E 6 e0 00 20
        E 5 e0 00 20
        E 6 e0 00 20
        E 5 e0 00 20
        E 6 e0 00 20
        E 5 e0 00 20
        E 6 e0 00 20
        E 6 e0 00 20
        E 5 e0 00 20
        E 6 e0 00 20
        E 0 90 45 00
        E 352 e0 00 20
        E 0 90 4e 1d
        E 6 e0 00 20
        E 5 e0 00 20
        E 6 e0 55 2a
        E 6 e0 55 2a
        E 5 e0 55 2a
        E 6 e0 55 2a
        E 5 e0 55 2a
        E 6 e0 55 2a
        E 5 e0 55 2a
        E 6 e0 00 20
        E 6 e0 00 20
        E 0 90 4e 00
        E 45 e0 2b 15
        E 0 90 32 29
        E 6 e0 2b 15
        E 5 e0 2b 15
        E 6 e0 2b 15
        E 5 e0 2b 15
        E 5 e0 2b 15
        E 6 e0 2b 15
        E 5 e0 2b 15
        E 5 e0 2b 15
        E 6 e0 2b 15
        E 5 e0 2b 15
        E 5 e0 2b 15
        E 6 e0 2b 15
        E 5 e0 2b 15
        E 5 e0 00 20
        E 6 e0 00 20
        E 5 e0 00 20
        E 5 e0 00 20
        E 6 e0 00 20
        E 5 e0 00 20
        E 5 e0 00 20
        E 6 e0 00 20
        E 5 e0 00 20
        E 0 90 32 00
        E 66 e0 2b 15
        E 0 90 39 2e
        E 6 e0 2b 15
        E 5 e0 2b 15
        E 5 e0 2b 15
        E 5 e0 2b 15
        E 5 e0 2b 15
        E 5 e0 2b 15
        E 5 e0 2b 15
        E 5 e0 2b 15
        E 6 e0 2b 15
        E 5 e0 2b 15
        E 5 e0 2b 15
        E 5 e0 2b 15
        E 5 e0 2b 15
        E 5 e0 2b 15
        E 5 e0 2b 15
        E 6 e0 2b 15
        E 5 e0 2b 15
        E 5 e0 2b 15
        E 5 e0 2b 15
        E 5 e0 2b 15
        E 5 e0 2b 15
        E 5 e0 2b 15
        E 0 90 39 00
        E 82 e0 00 20
        E 0 90 32 2e
        E 6 e0 00 20
        E 5 e0 00 20
        E 6 e0 00 20
        E 5 e0 00 20
        E 6 e0 00 20
        E 5 e0 00 20
        E 6 e0 00 20
        E 5 e0 00 20
        E 6 e0 00 20
        E 5 e0 00 20
        E 6 e0 00 20
        E 5 e0 00 20
        E 0 90 32 00
        E 67 90 26 1e
        E 5 90 36 27
        E 0 90 39 20
        E 10 90 32 26
        E 36 90 3e 24
        E 15 90 36 00
        E 0 90 39 00
        E 113 90 32 00
        E 0 90 3e 00
        E 87 90 36 1f
        E 10 90 26 00
        E 97 90 36 00
        E 92 90 45 29
        E 0 90 4a 2a
        E 97 90 45 00
        E 0 90 45 29
        E 10 90 4a 00
        E 98 90 45 00
        E 76 90 36 24
        E 46 90 26 1b
        E 72 90 26 00
        E 10 90 36 00
        E 184 e0 2b 75
        E 0 90 42 22
        E 5 e0 2b 75
        E 5 e0 2b 75
        E 6 e0 2b 75
        E 5 e0 55 6a
        E 5 e0 55 6a
        E 5 e0 55 6a
        E 5 e0 00 20
        E 6 e0 00 20
        E 5 e0 00 20
        E 5 e0 55 6a
        E 5 e0 55 6a
        E 6 e0 2b 75
        E 5 e0 2b 75
        E 5 e0 00 20
        E 5 e0 2b 75
        E 6 e0 2b 75
        E 5 e0 2b 75
        E 5 e0 2b 75
        E 5 e0 00 20
        E 5 e0 00 20
        E 6 e0 00 20
        E 5 e0 00 20
        E 5 e0 00 20
        E 5 e0 00 20
        E 6 e0 00 20
        E 5 e0 00 20
        E 5 e0 00 20
        E 5 e0 00 20
        E 5 e0 00 20
        E 6 e0 00 20
        E 5 e0 00 20
        E 5 e0 00 20
        E 5 e0 2b 75
        E 6 e0 2b 75
        E 5 e0 2b 75
        E 5 e0 2b 75
        E 5 e0 2b 75
        E 6 e0 2b 75
        E 5 e0 2b 75
        E 5 e0 2b 75
        E 5 e0 2b 75
        E 5 e0 2b 75
        E 6 e0 2b 75
        E 0 90 42 00
        E 383 90 32 2c
        E 0 90 3e 39
        E 62 90 3e 00
        E 76 90 32 00
        E 118 90 32 1d
        E 5 90 39 38
        E 66 90 39 00
        E 26 90 32 00
        E 71 e0 2b 15
        E 0 90 39 30
        E 6 e0 2b 15
        E 5 e0 55 6a
        E 6 e0 55 6a
        E 5 e0 00 60
        E 6 e0 00 20
        E 6 e0 00 20
        E 5 e0 00 20
        E 6 e0 2b 15
        E 5 e0 2b 15
        E 6 e0 2b 15
        E 5 e0 2b 15
        E 6 e0 00 20
        E 0 90 39 00
        E 92 e0 2b 15
        E 0 90 45 24
        E 5 e0 2b 15
        E 5 e0 00 20
        E 5 e0 00 20
        E 5 e0 00 20
        E 5 e0 00 20
        E 5 e0 00 20
        E 6 e0 00 20
        E 5 e0 00 20
        E 5 e0 00 20
        E 5 e0 00 20
        E 5 e0 00 20
        E 5 e0 00 20
        E 5 e0 00 20
        E 6 e0 00 20
        E 5 e0 00 20
        E 5 e0 00 20
        E 5 e0 00 20
        E 5 e0 00 20
        E 5 e0 00 20
        E 5 e0 00 20
        E 5 e0 00 20
        E 6 e0 00 20
        E 5 e0 00 20
        E 5 e0 00 20
        E 5 e0 00 20
        E 0 90 45 00
        E 337 90 36 23
        E 21 90 42 29
        E 5 90 3e 21
        E 56 90 36 00
        E 0 90 42 00
        E 82 90 3e 00
        E 66 e0 55 6a
        E 0 90 26 20
        E 5 e0 55 6a
        E 6 e0 2b 15
        E 5 e0 2b 15
        E 5 e0 2b 15
        E 6 e0 2b 15
        E 5 e0 55 6a
        E 5 e0 55 6a
        E 6 e0 55 6a
        E 5 e0 55 6a
        E 5 e0 2b 75
        E 6 e0 00 20
        E 5 e0 00 20
        E 5 e0 00 20
        E 6 e0 00 20
        E 5 e0 00 20
        E 5 e0 00 20
        E 6 e0 00 20
        E 5 e0 00 20
        E 5 e0 00 20
        E 6 e0 00 20
        E 5 e0 00 20
        E 6 e0 00 20
        E 0 90 26 00
        E 179 90 36 1d
        E 10 90 45 28
        E 31 90 20 19
        E 0 90 2f 29
        E 5 90 32 31
        E 0 90 3e 3d
        E 0 90 4a 23
        E 5 90 3b 1b
        E 0 90 42 3e
        E 56 90 45 00
        E 0 90 45 2c
        E 5 90 20 00
        E 0 90 3b 00
        E 5 90 2f 00
        E 0 90 32 00
        E 5 90 3e 00
        E 6 90 42 00
        E 25 90 4a 00
        E 61 90 36 00
        E 11 90 45 00
        E 81 e0 2b 75
        E 0 90 42 2f
        E 6 e0 2b 75
        E 5 e0 2b 75
        E 5 e0 2b 75
        E 6 e0 55 6a
        E 5 e0 55 6a
        E 5 e0 55 6a
        E 6 e0 55 6a
        E 5 e0 2b 75
        E 6 e0 00 20
        E 5 e0 00 20
        E 5 e0 00 20
        E 6 e0 00 20
        E 5 e0 00 20
        E 5 e0 55 6a
        E 6 e0 55 6a
        E 5 e0 55 6a
        E 5 e0 2b 75
        E 6 e0 2b 75
        E 5 e0 2b 75
        E 5 e0 2b 75
        E 6 e0 00 20
        E 0 90 42 00
        E 66 90 36 1f
        E 10 90 45 28
        E 97 90 45 00
        E 21 90 2f 1d
        E 0 90 32 2f
        E 5 90 26 20
        E 0 90 39 31
        E 0 90 4a 2f
        E 5 90 3e 38
        E 0 90 45 30
        E 5 90 42 25
        E 56 90 2f 00
        E 6 90 32 00
        E 0 90 42 00
        E 0 90 42 29
        E 5 90 26 00
        E 0 90 4a 00
        E 5 90 3e 00
        E 0 90 45 00
        E 15 90 39 00
        E 15 90 36 00
        E 77 90 42 00
        E 67 90 39 27
        E 5 90 4a 24
        E 102 90 4a 00
        E 26 90 39 00
        E 61 90 3d 2b
        E 0 90 40 2b
        E 0 90 4c 2e
        E 26 90 4e 21
        E 40 90 3d 00
        E 0 90 40 00
        E 0 90 4c 00
        E 21 90 4e 00
        E 15 90 45 20
        E 5 90 4a 2f
        E 21 90 3e 17
        E 30 90 39 25
        E 11 90 4a 00
        E 41 90 3e 00
        E 5 90 3e 28
        E 0 90 42 2d
        E 5 90 39 00
        E 5 90 45 00
        E 51 90 3e 00
        E 10 90 42 00
        E 563 90 32 36
        E 5 90 3e 3b
        E 0 90 42 33
        E 0 90 45 30
        E 61 90 32 00
        E 0 90 3e 00
        E 0 90 42 00
        E 0 90 45 00
        E 358 90 36 28
        E 0 90 3e 2c
        E 51 90 42 39
        E 46 90 2f 15
        E 10 90 36 00
        E 0 90 3e 00
        E 5 90 42 00
        E 26 90 3e 2e
        E 0 90 45 36
        E 0 90 4a 29
        E 5 90 42 3c
        E 61 90 3e 00
        E 0 90 3e 29
        E 5 90 2f 00
        E 5 90 4a 00
        E 5 90 45 00
        E 11 90 42 00
        E 92 90 3e 00
        E 153 90 26 18
        E 113 90 2f 11
        E 0 90 36 22
        E 10 90 45 1f
        E 36 90 26 00
        E 5 90 42 27
        E 41 90 39 28
        E 0 90 3e 25
        E 5 90 45 00
        E 0 90 45 38
        E 46 90 2f 00
        E 10 90 36 00
        E 0 90 39 00
        E 10 90 42 00
        E 0 90 45 00
        E 67 90 3e 00
        E 383 90 2a 29
        E 0 90 3d 41
        E 5 90 37 35
        E 0 90 39 1d
        E 11 90 40 22
        E 0 90 43 2d
        E 51 90 2a 00
        E 5 90 37 00
        E 5 90 3d 00
        E 0 90 43 00
        E 61 90 32 29
        E 5 90 3e 24
        E 5 90 39 00
        E 5 90 40 00
        E 67 90 3e 00
        E 5 90 3e 2d
        E 5 90 32 00
        E 61 90 3e 00
        E 731 90 2f 15
        E 0 90 36 2e
        E 11 90 3e 22
        E 51 90 32 18
        E 5 90 2f 00
        E 5 90 3e 00
        E 5 90 36 00
        E 51 90 3e 2c
        E 5 90 45 2e
        E 46 90 36 16
        E 5 90 3c 0d
        E 5 90 3e 00
        E 41 90 2f 16
        E 0 90 39 1a
        E 0 90 3e 2a
        E 5 90 42 2f
        E 6 90 45 00
        E 0 90 45 24
        E 35 90 2a 13
        E 11 90 36 00
        E 10 90 42 00
        E 20 90 36 17
        E 5 90 32 00
        E 0 90 42 1b
        E 0 90 45 00
        E 0 90 45 2f
        E 11 90 39 00
        E 5 90 3e 00
        E 30 90 2a 00
        E 0 90 2f 00
        E 5 90 3c 00
        E 36 90 32 15
        E 5 90 39 1a
        E 0 90 3e 27
        E 5 90 45 00
        E 0 90 45 36
        E 51 90 42 00
        E 0 90 42 1e
        E 16 90 45 00
        E 30 90 45 29
        E 0 90 4a 2a
        E 6 90 39 00
        E 10 90 3e 00
        E 25 90 3e 26
        E 5 90 32 00
        E 6 90 36 00
        E 10 90 4a 00
        E 46 90 45 00
        E 16 90 26 28
        E 10 90 4a 1b
        E 5 90 3e 00
        E 0 90 3e 2d
        E 41 90 32 24
        E 10 90 26 00
        E 0 90 42 00
        E 0 90 42 29
        E 0 90 4e 25
        E 51 90 3e 00
        E 0 90 3e 25
        E 0 90 45 23
        E 0 90 4a 00
        E 5 90 32 00
        E 10 90 42 00
        E 41 90 4e 00
        E 26 90 42 29
        E 15 90 45 00
        E 46 90 3e 00
        E 26 90 39 15
        E 0 90 3e 1f
        E 5 90 45 21
        E 82 90 36 1b
        E 5 90 3c 11
        E 5 90 39 00
        E 5 90 45 00
        E 36 90 32 1e
        E 15 90 4e 1d
        E 31 90 45 22
        E 10 90 3c 00
        E 0 90 3e 00
        E 0 90 3e 1e
        E 51 90 32 00
        E 10 90 4e 00
        E 31 90 26 2b
        E 5 90 21 15
        E 0 90 2d 20
        E 15 90 39 23
        E 5 90 42 00
        E 0 90 42 23
        E 5 90 45 00
        E 31 90 2a 18
        E 5 90 26 00
        E 5 90 21 00
        E 16 90 3e 00
        E 30 90 45 1f
        E 5 90 2a 00
        E 11 90 2d 00
        E 0 90 36 00
        E 5 90 42 00
        E 30 90 3e 21
        E 5 90 4a 26
        E 31 90 36 1d
        E 5 90 40 1d
        E 5 90 42 21
        E 36 90 3e 00
        E 5 90 3e 22
        E 0 90 4a 00
        E 0 90 4a 2c
        E 41 90 45 00
        E 0 90 45 29
        E 1 90 39 00
        E 0 90 39 1e
        E 5 90 36 00
        E 46 90 40 00
        E 15 90 4a 00
        E 31 90 3d 19
        E 0 90 3e 00
        E 5 90 39 00
        E 0 90 45 00
        E 5 90 42 00
        E 76 90 3d 00
        E 0 90 45 25
        E 87 90 3b 10
        E 11 90 42 29
        E 10 90 45 00
        E 36 90 3e 22
        E 5 90 3b 00
        E 30 90 36 25
        E 26 90 42 00
        E 25 90 40 29
        E 5 90 45 1a
        E 6 90 36 00
        E 51 90 40 00
        E 35 90 42 30
        E 11 90 45 00
        E 30 90 39 1a
        E 5 90 40 24
        E 0 90 4c 1e
        E 11 90 3e 00
        E 5 90 42 00
        E 25 90 34 18
        E 0 90 3c 14
        E 16 90 39 00
        E 35 90 32 23
        E 5 90 3e 20
        E 0 90 42 1c
        E 6 90 34 00
        E 5 90 4c 00
        E 5 90 40 00
        E 25 90 45 31
        E 16 90 32 00
        E 30 90 40 1b
        E 16 90 3e 00
        E 0 90 42 00
        E 0 90 45 00
        E 40 90 3c 00
        E 52 90 2f 17
        E 5 90 3e 21
        E 10 90 40 00
        E 5 90 42 1a
        E 47 90 32 1c
        E 0 90 3e 00
        E 0 90 45 28
        E 5 90 2f 00
        E 0 90 3e 27
        E 41 90 3b 13
        E 10 90 42 00
        E 5 90 45 00
        E 31 90 39 15
        E 0 90 45 3d
        E 15 90 3e 00
        E 25 90 36 20
        E 5 90 3e 2b
        E 0 90 4a 18
        E 6 90 3b 00
        E 15 90 45 00
        E 31 90 3b 18
        E 0 90 42 28
        E 0 90 45 33
        E 51 90 36 00
        E 5 90 3e 00
        E 5 90 45 00
        E 25 90 2f 12
        E 0 90 3e 35
        E 0 90 45 2b
        E 6 90 51 26
        E 5 90 3b 00
        E 0 90 4a 00
        E 5 90 39 00
        E 35 90 32 00
        E 11 90 3e 00
        E 0 90 45 00
        E 5 90 42 00
        E 25 90 3e 2d
        E 0 90 42 27
        E 0 90 45 2c
        E 5 90 2f 00
        E 11 90 51 00
        E 30 90 32 1d
        E 16 90 42 00
        E 51 90 45 00
        E 25 90 2f 1e
        E 11 90 3e 00
        E 0 90 3e 1f
        E 45 90 45 19
        E 6 90 2f 00
        E 92 90 32 00
        E 35 90 36 1a
        E 0 90 42 2b
        E 5 90 45 00
        E 31 90 32 17
        E 46 90 45 2b
        E 15 90 42 00
        E 31 90 42 25
        E 5 90 4e 24
        E 6 90 45 00
        E 20 90 26 23
        E 10 90 2f 11
        E 6 90 3e 00
        E 0 90 3e 21
        E 51 90 26 00
        E 0 90 39 1c
        E 5 90 36 00
        E 0 90 4e 00
        E 0 90 4e 23
        E 5 90 3e 00
        E 30 90 2f 00
        E 0 90 3e 2c
        E 6 90 45 21
        E 46 90 32 00
        E 10 90 3e 00
        E 0 90 4e 00
        E 30 90 36 3b
        E 11 90 39 00
        E 5 90 39 25
        E 56 90 36 00
        E 36 90 39 00
        E 0 90 39 25
        E 5 90 42 00
        E 10 90 45 00
        E 56 90 36 20
        E 5 90 2a 16
        E 5 90 45 13
        E 6 90 42 23
        E 35 90 32 19
        E 0 90 3e 27
        E 46 90 45 00
        E 5 90 2a 00
        E 0 90 40 1f
        E 0 90 45 22
        E 11 90 42 00
        E 35 90 32 00
        E 0 90 36 00
        E 5 90 39 00
        E 6 90 3e 00
        E 30 90 3d 3d
        E 21 90 45 00
        E 30 90 4c 1e
        E 11 90 3d 00
        E 30 90 39 2b
        E 0 90 42 29
        E 16 90 40 00
        E 35 90 45 25
        E 5 90 4c 00
        E 36 90 32 23
        E 21 90 3e 21
        E 0 90 42 00
        E 0 90 42 21
        E 5 90 45 00
        E 5 90 39 00
        E 36 90 32 00
        E 77 90 34 25
        E 0 90 3b 1e
        E 46 90 39 1f
        E 10 90 3e 00
        E 0 90 3e 18
        E 5 90 3b 00
        E 5 90 34 00
        E 0 90 42 00
        E 82 90 39 00
        E 10 90 3e 00
        E 26 90 34 17
        E 5 90 40 2c
        E 5 90 45 17
        E 61 90 3e 2d
        E 5 90 34 00
        E 0 90 45 00
        E 11 90 40 00
        E 51 90 3e 00
        E 189 90 23 0f
        E 5 90 26 17
        E 10 90 2b 0d
        E 0 90 36 1d
        E 5 90 3e 36
        E 0 90 42 21
        E 41 90 32 1a
        E 5 90 23 00
        E 0 90 26 00
        E 20 90 3e 00
        E 31 90 2b 00
        E 5 90 3e 2e
        E 10 90 36 00
        E 0 90 42 00
        E 26 90 45 1f
        E 25 90 3e 00
        E 26 90 3e 32
        E 5 90 36 20
        E 92 90 36 00
        E 5 90 3e 00
        E 42 90 45 00
        E 25 90 2a 1d
        E 0 90 36 19
        E 0 90 39 11
        E 0 90 45 26
        E 5 90 3e 2c
        E 46 90 42 27
        E 46 90 2a 00
        E 10 90 3e 00
        E 31 90 3e 2a
        E 5 90 36 00
        E 0 90 45 00
        E 0 90 45 35
        E 10 90 42 00
        E 41 90 39 00
        E 11 90 45 00
        E 25 90 4a 33
        E 5 90 36 1e
        E 15 90 32 00
        E 26 90 32 2e
        E 5 90 45 36
        E 5 90 3e 00
        E 0 90 3e 27
        E 0 90 42 20
        E 5 90 4a 00
        E 36 90 36 00
        E 15 90 32 00
        E 0 90 45 00
        E 67 90 45 26
        E 5 90 42 00
        E 0 90 42 2a
        E 56 90 45 00
        E 26 90 32 1d
        E 5 90 45 35
        E 15 90 3e 00
        E 26 90 3e 21
        E 20 90 45 00
        E 21 90 36 1b
        E 61 90 36 00
        E 0 90 42 00
        E 0 90 42 2b
        E 25 90 45 21
        E 36 90 3e 00
        E 5 90 42 00
        E 16 90 2f 14
        E 5 90 36 1b
        E 5 90 32 00
        E 36 90 26 23
        E 5 90 2a 1c
        E 0 90 2d 1b
        E 5 90 42 34
        E 5 90 2f 00
        E 0 90 39 2c
        E 0 90 3e 29
        E 20 90 45 00
        E 26 90 26 00
        E 6 90 2a 00
        E 10 90 3e 00
        E 0 90 42 00
        E 35 90 45 1a
        E 6 90 2d 00
        E 0 90 36 00
        E 40 90 4a 20
        E 11 90 39 00
        E 25 90 36 1c
        E 0 90 39 26
        E 5 90 40 1d
        E 5 90 42 20
        E 31 90 3e 1e
        E 5 90 4a 00
        E 0 90 4a 31
        E 46 90 45 00
        E 0 90 45 29
        E 10 90 42 00
        E 36 90 36 00
        E 5 90 40 00
        E 5 90 39 00
        E 11 90 4a 00
        E 30 90 3d 1d
        E 0 90 3e 00
        E 10 90 45 00
        E 31 90 39 1d
        E 51 90 45 18
        E 87 90 32 27
        E 15 90 39 00
        E 0 90 3d 00
        E 0 90 42 2b
        E 5 90 45 00
        E 46 90 3e 2a
        E 6 90 32 00
        E 56 90 42 00
        E 5 90 3e 00
        E 61 90 3e 27
        E 0 90 42 26
        E 87 90 40 24
        E 10 90 42 00
        E 10 90 3e 00
        E 41 90 40 00
        E 21 90 42 2f
        E 5 90 3e 24
        E 0 90 45 26
        E 57 90 42 00
        E 46 90 3e 00
        E 0 90 45 00
        E 30 e0 00 60
        E 0 90 37 19
        E 6 e0 00 60
        E 5 e0 00 60
        E 6 e0 00 60
        E 5 e0 00 60
        E 6 e0 00 60
        E 5 e0 00 60
        E 6 e0 00 60
        E 5 e0 00 60
        E 6 e0 00 60
        E 6 e0 00 60
        E 5 e0 55 6a
        E 6 e0 55 6a
        E 0 90 37 00
        E 0 90 3e 25
        E 81 90 45 23
        E 41 90 32 21
        E 5 90 3b 12
        E 0 90 42 13
        E 11 90 3e 00
        E 30 90 3e 2e
        E 5 90 45 00
        E 0 90 4a 1c
        E 5 90 45 32
        E 36 90 26 17
        E 5 90 36 1c
        E 0 90 42 00
        E 5 90 42 26
        E 16 90 45 00
        E 25 90 45 39
        E 5 90 3e 00
        E 0 90 3e 2d
        E 0 90 4a 00
        E 0 90 4a 18
        E 46 90 47 12
        E 16 90 3e 00
        E 0 90 45 00
        E 25 90 3e 2e
        E 0 90 45 2b
        E 5 90 51 22
        E 5 90 4a 00
        E 36 90 26 00
        E 10 90 32 00
        E 0 90 3b 00
        E 0 90 47 00
        E 11 90 3e 00
        E 0 90 45 00
        E 25 90 3e 33
        E 0 90 45 37
        E 5 90 42 00
        E 0 90 42 20
        E 10 90 51 00
        E 31 90 32 1c
        E 15 90 36 00
        E 6 90 3e 00
        E 0 90 45 00
        E 25 90 2f 1b
        E 0 90 3e 29
        E 0 90 45 2b
        E 61 90 3e 00
        E 0 90 3e 36
        E 0 90 4a 17
        E 16 90 45 00
        E 41 90 45 25
        E 5 90 2f 00
        E 0 90 3e 00
        E 0 90 3e 1f
        E 0 90 42 00
        E 0 90 42 26
        E 87 90 2f 17
        E 0 90 36 1a
        E 10 90 32 00
        E 51 90 42 00
        E 0 90 42 25
        E 0 90 45 00
        E 0 90 4a 00
        E 26 90 32 1e
        E 5 90 2f 00
        E 41 90 39 18
        E 15 90 45 1e
        E 36 90 32 00
        E 41 90 2f 17
        E 10 90 42 00
        E 0 90 42 2a
        E 0 90 45 00
        E 0 90 45 1f
        E 31 90 32 1e
        E 56 90 2f 00
        E 0 90 45 00
        E 0 90 45 27
        E 5 90 36 00
        E 41 90 32 00
        E 5 90 3e 00
        E 26 90 2d 28
        E 15 90 39 00
        E 5 90 39 27
        E 10 90 45 00
        E 51 90 42 00
        E 31 90 39 00
        E 0 90 39 25
        E 5 90 2d 00
        E 0 90 45 21
        E 87 90 42 22
        E 10 90 45 00
        E 26 90 3e 26
        E 5 90 4a 2d
        E 41 90 40 1c
        E 5 90 39 00
        E 0 90 39 1f
        E 10 90 42 00
        E 46 90 3e 00
        E 5 90 4a 00
        E 26 90 3d 2d
        E 41 90 4c 21
        E 41 90 42 25
        E 10 90 3d 00
        E 5 90 40 00
        E 5 90 39 00
        E 67 90 32 23
        E 10 90 36 23
        E 0 90 39 21
        E 0 90 45 17
        E 15 90 42 00
        E 0 90 42 1b
        E 0 90 4c 00
        E 41 90 32 00
        E 0 90 3e 20
        E 51 90 39 00
        E 5 90 45 00
        E 26 90 32 17
        E 0 90 34 11
        E 15 90 36 00
        E 31 90 39 1b
        E 15 90 42 00
        E 5 90 3e 00
        E 31 90 32 00
        E 0 90 34 00
        E 82 90 34 17
        E 5 90 39 00
        E 5 90 40 25
        E 0 90 45 14
        E 66 90 34 00
        E 0 90 45 00
        E 5 90 40 00
        E 230 90 2d 25
        E 51 90 39 27
        E 0 90 40 27
        E 42 90 36 16
        E 20 90 49 1f
        E 31 90 34 20
        E 46 90 3d 31
        E 0 90 4c 3c
        E 5 90 40 00
        E 0 90 40 2c
        E 0 90 45 1e
        E 0 90 49 00
        E 0 90 49 2c
        E 36 90 31 1c
        E 10 90 34 00
        E 15 90 4c 00
        E 26 90 3d 00
        E 0 90 40 00
        E 0 90 40 30
        E 0 90 4c 22
        E 5 90 3d 26
        E 0 90 49 00
        E 0 90 49 21
        E 36 90 34 1e
        E 5 90 36 00
        E 0 90 43 3a
        E 5 90 31 00
        E 10 90 45 00
        E 31 90 4f 1a
        E 5 90 40 00
        E 0 90 40 2c
        E 5 90 3d 00
        E 5 90 43 00
        E 26 90 32 1e
        E 10 90 42 24
        E 5 90 3e 2b
        E 0 90 45 29
        E 0 90 4c 00
        E 5 90 34 00
        E 0 90 4f 00
        E 5 90 2d 00
        E 0 90 39 00
        E 0 90 40 00
        E 0 90 49 00
        E 36 90 4a 23
        E 36 90 36 35
        E 0 90 39 1c
        E 0 90 51 35
        E 5 90 4e 31
        E 5 90 3e 00
        E 0 90 3e 24
        E 0 90 42 00
        E 0 90 42 3e
        E 15 90 45 00
        E 26 90 45 30
        E 10 90 36 00
        E 0 90 51 00
        E 5 90 4e 00
        E 5 90 42 00
        E 26 90 2d 29
        E 5 90 34 1c
        E 5 90 32 00
        E 0 90 39 00
        E 0 90 40 24
        E 5 90 39 23
        E 10 90 45 00
        E 41 90 3e 00
        E 0 90 4a 00
        E 41 90 34 00
        E 10 90 2d 00
        E 41 90 45 23
        E 107 90 2d 1c
        E 0 90 4a 23
        E 21 90 45 00
        E 25 90 45 30
        E 57 90 2d 00
        E 5 90 40 00
        E 0 90 45 00
        E 26 90 45 1c
        E 5 90 4a 00
        E 0 90 4a 1c
        E 36 90 4f 37
        E 51 90 3e 10
        E 0 90 42 1e
        E 5 90 4a 00
        E 5 90 39 00
        E 5 90 4f 00
        E 20 90 39 1d
        E 6 90 40 26
        E 10 90 45 00
        E 41 90 32 25
        E 0 90 3e 00
        E 5 90 3e 34
        E 5 90 40 00
        E 61 90 32 00
        E 5 90 39 00
        E 5 90 3e 00
        E 36 90 42 00
        E 0 90 42 22
        E 36 90 32 1d
        E 0 90 4a 29
        E 36 90 36 1d
        E 0 90 3e 2f
        E 5 90 42 00
        E 0 90 42 25
        E 0 90 45 23
        E 0 90 4e 25
        E 61 90 4e 00
        E 31 90 42 00
        E 0 90 42 37
        E 0 90 45 00
        E 0 90 45 23
        E 5 90 3e 00
        E 0 90 3e 1d
        E 10 90 4a 00
        E 31 90 36 00
        E 15 90 42 00
        E 20 90 34 1b
        E 16 90 32 00
        E 10 90 45 00
        E 36 90 40 2c
        E 5 90 3e 00
        E 36 90 43 38
        E 35 90 3c 1d
        E 11 90 34 00
        E 10 90 40 00
        E 5 90 43 00
        E 25 90 26 1d
        E 11 90 32 1b
        E 10 90 3c 00
        E 0 90 3e 24
        E 46 90 26 00
        E 5 90 42 28
        E 41 90 3e 00
        E 0 90 3e 1d
        E 52 90 32 00
        E 10 90 42 00
        E 25 90 34 11
        E 11 90 40 29
        E 40 90 32 18
        E 11 90 34 00
        E 10 90 40 00
        E 30 90 42 1e
        E 52 90 32 00
        E 40 90 4a 19
        E 6 90 3e 00
        E 5 90 42 00
        E 35 90 3e 35
        E 0 90 42 3d
        E 57 90 4a 00
        E 10 90 3e 00
        E 0 90 42 00
        E 30 e0 00 20
        E 0 90 3e 23
        E 6 e0 00 20
        E 5 e0 00 20
        E 6 e0 00 20
        E 5 e0 00 20
        E 6 e0 00 20
        E 5 e0 00 20
        E 6 e0 00 20
        E 5 e0 00 20
        E 6 e0 00 20
        E 5 e0 00 20
        E 6 e0 00 20
        E 5 e0 00 20
        E 6 e0 00 20
        E 0 90 32 27
        E 0 90 3e 00
        E 0 90 3e 2b
        E 82 90 3e 00
        E 0 90 3e 25
        E 5 90 32 00
        E 25 90 26 17
        E 5 90 2f 2b
        E 46 90 32 24
        E 6 90 42 31
        E 10 90 2f 00
        E 30 90 2a 25
        E 6 90 34 19
        E 5 90 39 23
        E 0 90 40 1c
        E 5 90 45 29
        E 10 90 42 00
        E 36 90 2a 00
        E 0 90 3e 00
        E 0 90 3e 21
        E 0 90 4a 26
        E 5 90 34 00
        E 5 90 32 00
        E 36 90 26 00
        E 5 90 40 00
        E 0 90 42 2d
        E 15 90 39 00
        E 0 90 45 00
        E 26 90 32 14
        E 21 90 42 00
        E 41 90 37 25
        E 5 90 32 00
        E 10 90 4a 00
        E 102 90 34 1e
        E 0 90 3b 28
        E 0 90 43 2f
        E 0 90 4a 1c
        E 20 90 3e 00
        E 26 90 3e 27
        E 5 90 47 2b
        E 10 90 43 00
        E 5 90 37 00
        E 26 90 2f 29
        E 15 90 3e 00
        E 0 90 3e 31
        E 5 90 34 00
        E 6 90 3b 00
        E 0 90 42 24
        E 0 90 47 00
        E 30 90 32 1c
        E 5 90 2f 00
        E 5 90 4a 00
        E 31 90 36 20
        E 0 90 3b 22
        E 0 90 4a 24
        E 20 90 3e 00
        E 26 90 39 29
        E 5 90 3e 2b
        E 5 90 45 31
        E 5 90 36 00
        E 0 90 3b 00
        E 11 90 42 00
        E 40 90 4a 00
        E 6 90 39 00
        E 0 90 45 00
        E 35 90 32 00
        E 0 90 3e 00
        E 31 90 40 26
        E 41 90 3e 27
        E 51 90 37 26
        E 0 90 43 2b
        E 20 90 3e 00
        E 5 90 40 00
        E 41 90 43 00
        E 31 90 3e 21
        E 5 90 3b 27
        E 0 90 43 37
        E 0 90 47 39
        E 0 90 4a 35
        E 56 90 53 27
        E 5 90 37 00
        E 0 90 3b 00
        E 0 90 43 00
        E 0 90 4a 00
        E 5 90 47 00
        E 47 90 2f 1f
        E 5 90 32 19
        E 0 90 4a 1f
        E 5 90 3e 00
        E 5 90 3e 26
        E 0 90 42 1b
        E 11 90 53 00
        E 46 90 2f 00
        E 91 90 45 2a
        E 0 90 51 29
        E 46 90 2d 2d
        E 6 90 34 22
        E 5 90 32 00
        E 0 90 39 1e
        E 5 90 3d 21
        E 0 90 3e 00
        E 0 90 40 25
        E 0 90 45 00
        E 5 90 42 00
        E 0 90 45 19
        E 10 90 51 00
        E 41 90 2d 00
        E 0 90 34 00
        E 0 90 4f 1a
        E 10 90 4a 00
        E 51 90 45 00
        E 0 90 45 25
        E 16 90 39 00
        E 56 90 3d 00
        E 0 90 40 00
        E 30 90 26 2c
        E 0 90 32 26
        E 6 90 36 1e
        E 10 90 3e 2b
        E 5 90 42 26
        E 0 90 4f 00
        E 61 90 26 00
        E 0 90 4a 1e
        E 5 90 42 00
        E 0 90 42 2f
        E 21 90 45 00
        E 92 90 36 00
        E 10 90 32 00
        E 0 90 4a 00
        E 10 90 3e 00
        E 5 90 42 00
        E 92 90 3d 25
        E 82 90 2a 16
        E 0 90 40 1e
        E 5 90 2d 14
        E 0 90 36 17
        E 0 90 42 14
        E 5 90 39 1e
        E 47 90 21 13
        E 5 90 42 00
        E 5 90 42 14
        E 46 90 2d 00
        E 10 90 3d 00
        E 46 90 45 12
        E 5 90 4a 28
        E 46 90 21 00
        E 0 90 3d 2c
        E 51 90 2a 00
        E 0 90 36 00
        E 0 90 40 00
        E 0 90 45 00
        E 5 90 42 00
        E 5 90 3d 00
        E 41 90 39 00
        E 5 90 4a 00
        E 128 e0 00 20
        E 0 90 21 1e
        E 6 e0 00 20
        E 5 e0 00 20
        E 5 e0 00 20
        E 6 e0 00 20
        E 5 e0 2b 15
        E 6 e0 2b 15
        E 5 e0 00 20
        E 6 e0 00 20
        E 5 e0 00 20
        E 6 e0 00 20
        E 5 e0 00 20
        E 5 e0 00 20
        E 6 e0 00 20
        E 5 e0 00 20
        E 6 e0 00 20
        E 0 90 21 00
        E 337 90 32 23
        E 5 90 36 23
        E 5 90 3e 27
        E 0 90 42 24
        E 37 90 3b 15
        E 56 90 2f 1c
        E 10 90 45 30
        E 5 90 3b 00
        E 0 90 3e 00
        E 0 90 3e 27
        E 5 90 32 00
        E 5 90 36 00
        E 5 90 42 00
        E 41 90 2f 00
        E 5 90 3e 00
        E 5 90 45 00
        E 26 90 2a 10
        E 0 90 32 17
        E 0 90 36 1b
        E 0 90 39 1c
        E 0 90 3e 31
        E 0 90 45 29
        E 46 90 2f 19
        E 20 90 42 29
        E 36 90 2a 00
        E 0 90 45 00
        E 0 90 45 36
        E 5 90 39 00
        E 10 90 3e 00
        E 46 90 42 00
        E 0 90 45 00
        E 26 90 3e 28
        E 0 90 42 1e
        E 0 90 45 32
        E 51 90 3b 1a
        E 5 90 32 00
        E 10 90 45 00
        E 31 90 45 2d
        E 5 90 2f 00
        E 15 90 3e 00
        E 26 90 3e 27
        E 10 90 36 00
        E 5 90 3b 00
        E 0 90 42 00
        E 31 90 32 1e
        E 15 90 45 00
        E 31 90 4a 1a
        E 10 90 3e 00
        E 0 90 3e 2d
        E 46 90 45 22
        E 36 90 3a 1b
        E 5 90 4a 00
        E 0 90 4a 12
        E 10 90 3e 00
        E 31 90 3e 20
        E 5 90 4e 28
        E 5 90 45 00
        E 36 90 45 24
        E 5 90 4a 00
        E 5 90 32 00
        E 5 90 3a 00
        E 41 90 4e 00
        E 0 90 4e 2e
        E 5 90 45 00
        E 26 90 45 2b
        E 5 90 42 1f
        E 62 90 4e 00
        E 30 90 36 1d
        E 5 90 42 00
        E 6 90 42 2d
        E 5 90 45 00
        E 30 90 32 20
        E 51 90 39 25
        E 51 90 45 2e
        E 11 90 32 00
        E 0 90 3e 00
        E 35 90 2a 18
        E 6 90 39 00
        E 0 90 39 29
        E 15 90 42 00
        E 0 90 42 19
        E 5 90 45 00
        E 66 90 21 1a
        E 0 90 2d 1f
        E 11 90 45 34
        E 5 90 2a 00
        E 5 90 36 00
        E 36 90 3e 26
        E 10 90 4a 23
        E 5 90 45 00
        E 31 90 21 00
        E 0 90 40 1c
        E 0 90 45 2a
        E 5 90 39 00
        E 0 90 39 1f
        E 0 90 42 00
        E 0 90 42 1f
        E 0 90 4c 1c
        E 46 90 4a 00
        E 0 90 4a 2f
        E 10 90 3e 00
        E 25 90 36 18
        E 16 90 4c 00
        E 10 90 45 00
        E 20 90 3e 2e
        E 6 90 45 26
        E 5 90 40 00
        E 20 90 4a 00
        E 20 90 2d 00
        E 0 90 36 00
        E 16 90 3d 1a
        E 0 90 3e 00
        E 0 90 45 00
        E 5 90 42 00
        E 25 90 40 15
        E 52 90 42 21
        E 0 90 45 28
        E 51 90 3d 00
        E 41 90 32 25
        E 10 90 3e 2b
        E 0 90 40 00
        E 0 90 42 00
        E 0 90 42 2a
        E 5 90 45 00
        E 6 90 39 00
        E 35 90 32 00
        E 51 90 3e 00
        E 5 90 42 00
        E 21 90 40 26
        E 5 90 45 12
        E 46 90 32 1a
        E 0 90 3e 29
        E 10 90 40 00
        E 0 90 42 26
        E 87 90 45 00
        E 5 90 32 00
        E 0 90 42 00
        E 5 90 3e 00
        E 72 90 42 33
        E 10 90 3e 23
        E 41 90 4a 22
        E 10 90 42 00
        E 46 90 3e 00
        E 5 90 4a 00
        E 97 90 3e 1e
        E 5 90 42 1a
        E 82 90 32 1a
        E 0 90 45 2f
        E 5 90 3e 00
        E 0 90 3e 1f
        E 46 90 39 15
        E 15 90 45 00
        E 31 90 3e 00
        E 0 90 3e 28
        E 0 90 45 29
        E 46 90 36 1e
        E 0 90 4a 2d
        E 5 90 2f 19
        E 0 90 3b 1c
        E 10 90 42 00
        E 0 90 42 2c
        E 36 90 45 00
        E 0 90 45 3c
        E 5 90 39 00
        E 0 90 51 1d
        E 5 90 4a 00
        E 32 90 47 13
        E 0 90 4a 1e
        E 5 90 36 00
        E 5 90 2f 00
        E 0 90 3e 00
        E 10 90 42 00
        E 0 90 45 00
        E 26 90 3e 2c
        E 5 90 45 36
        E 5 90 3b 00
        E 5 90 4a 00
        E 46 90 3e 00
        E 5 90 45 00
        E 26 90 3e 35
        E 0 90 45 31
        E 5 90 42 21
        E 5 90 47 00
        E 10 90 51 00
        E 41 90 3e 00
        E 30 90 3e 31
        E 21 90 45 00
        E 87 90 45 20
        E 10 90 3e 00
        E 0 90 3e 20
        E 10 90 42 00
        E 72 90 36 18
        E 15 90 45 00
        E 41 90 42 2f
        E 41 90 3e 00
        E 0 90 3e 20
        E 61 90 3e 00
        E 0 90 42 00
        E 26 90 3e 1d
        E 0 90 42 2d
        E 102 90 32 00
        E 0 90 42 00
        E 0 90 42 22
        E 36 90 32 34
        E 0 90 39 22
        E 10 90 36 00
        E 0 90 3e 00
        E 0 90 3e 24
        E 0 90 45 18
        E 61 90 32 00
        E 26 90 2d 1e
        E 10 90 36 38
        E 5 90 39 00
        E 0 90 39 20
        E 52 90 36 00
        E 5 90 3e 00
        E 5 90 42 00
        E 112 90 36 30
        E 15 90 2d 00
        E 0 90 42 28
        E 6 90 45 00
        E 25 90 3e 2a
        E 10 90 4a 25
        E 5 90 36 00
        E 36 90 39 00
        E 0 90 39 29
        E 10 90 3e 00
        E 6 90 42 00
        E 40 90 4a 00
        E 6 90 39 00
        E 40 90 3d 2a
        E 36 90 40 15
        E 61 90 3d 00
        E 36 90 40 00
        E 148 90 36 29
        E 11 90 3e 1f
        E 5 90 42 1d
        E 35 90 32 1a
        E 16 90 36 00
        E 46 90 32 00
        E 0 90 3e 00
        E 0 90 42 00
        E 81 90 42 28
        E 0 90 45 0f
        E 47 90 40 2c
        E 10 90 42 00
        E 56 90 45 00
        E 11 90 40 00
        E 245 90 26 29
        E 20 90 32 32
        E 0 90 3e 2f
        E 31 90 3b 16
        E 0 90 42 22
        E 5 90 45 22
        E 0 90 4a 2a
        E 0 90 4e 29
        E 51 90 3e 00
        E 0 90 3e 2c
        E 5 90 26 00
        E 0 90 32 00
        E 0 90 32 1e
        E 5 90 4e 00
        E 57 90 32 00
        E 35 90 3b 00
        E 16 90 3e 00
        E 0 90 42 00
        E 0 90 45 00
        E 0 90 4a 00
        E 25 90 32 18
        E 5 90 40 28
        E 51 90 4a 0f
        E 5 90 32 00
        E 11 90 40 00
        E 66 90 32 22
        E 41 90 39 3c
        E 5 90 4a 00
        E 5 90 45 2d
        E 0 90 4a 36
        E 5 90 3e 38
        E 46 90 39 00
        E 5 90 32 00
        E 5 90 45 00
        E 0 90 4a 00
        E 6 90 3e 00
        E 25 90 36 27
        E 26 90 45 2c
        E 10 90 39 27
        E 52 90 26 23
        E 5 90 32 30
        E 0 90 3e 2d
        E 0 90 42 1d
        E 0 90 4a 26
        E 10 90 45 00
        E 5 90 36 00
        E 46 90 32 00
        E 0 90 32 24
        E 0 90 3e 00
        E 0 90 3e 26
        E 5 90 39 00
        E 41 90 26 00
        E 41 90 45 1a
        E 10 90 42 00
        E 5 90 32 00
        E 0 90 4a 00
        E 5 90 3e 00
        E 26 90 40 1d
        E 36 90 4a 1d
        E 15 90 3e 21
        E 46 90 4a 00
        E 5 90 40 00
        E 0 90 45 00
        E 31 90 3e 00
        E 0 90 3e 25
        E 35 90 26 1b
        E 0 90 32 20
        E 5 90 2a 1a
        E 0 90 45 30
        E 0 90 4a 2c
        E 6 90 39 26
        E 0 90 42 19
        E 46 90 3e 00
        E 0 90 3e 2f
        E 10 90 32 00
        E 0 90 4a 00
        E 5 90 45 00
        E 36 90 26 00
        E 0 90 2a 00
        E 10 90 42 00
        E 5 90 3e 00
        E 36 90 39 00
        E 20 90 26 28
        E 0 90 32 34
        E 10 90 2f 3e
        E 0 90 3b 2e
        E 0 90 3e 37
        E 0 90 42 26
        E 0 90 4a 25
        E 67 90 26 00
        E 0 90 32 00
        E 5 90 2f 00
        E 0 90 3e 00
        E 56 90 2f 29
        E 5 90 47 28
        E 5 90 23 1e
        E 0 90 3b 00
        E 0 90 3b 23
        E 0 90 3e 27
        E 16 90 42 00
        E 35 90 34 27
        E 0 90 40 22
        E 5 90 2b 29
        E 11 90 3e 00
        E 0 90 47 00
        E 0 90 4a 00
        E 41 90 3b 00
        E 21 90 23 00
        E 5 90 2f 00
        E 10 90 34 00
        E 5 90 37 29
        E 15 90 43 27
        E 16 90 4c 27
        E 46 90 31 32
        E 0 90 3d 24
        E 10 90 2d 29
        E 0 90 34 2c
        E 0 90 40 00
        E 0 90 40 2c
        E 5 90 2b 00
        E 0 90 37 00
        E 5 90 43 00
        E 0 90 4c 00
        E 72 90 31 00
        E 15 90 34 00
        E 0 90 40 00
        E 5 90 2d 00
        E 10 90 39 24
        E 0 90 3d 00
        E 62 90 3e 2f
        E 5 90 26 22
        E 5 90 34 19
        E 0 90 42 1f
        E 5 90 32 29
        E 5 90 39 00
        E 0 90 45 18
        E 0 90 4a 26
        E 0 90 4e 27
        E 46 90 3e 00
        E 5 90 26 00
        E 0 90 34 00
        E 0 90 3e 20
        E 36 90 2d 1e
        E 15 90 4a 00
        E 5 90 4e 00
        E 26 90 39 17
        E 10 90 42 00
        E 5 90 3e 00
        E 0 90 45 00
        E 31 90 3e 21
        E 0 90 45 26
        E 10 90 2d 00
        E 0 90 4a 20
        E 51 90 32 00
        E 31 90 40 28
        E 5 90 4c 21
        E 5 90 45 00
        E 41 90 39 00
        E 10 90 4a 00
        E 31 90 42 1d
        E 0 90 45 2a
        E 10 90 40 00
        E 0 90 4c 00
        E 30 90 4a 18
        E 21 90 3e 00
        E 36 90 42 00
        E 5 90 45 00
        E 30 90 37 22
        E 0 90 3b 26
        E 0 90 47 1c
        E 47 90 42 1e
        E 0 90 4e 32
        E 5 90 4a 00
        E 5 90 32 2a
        E 0 90 45 2d
        E 0 90 4a 29
        E 5 90 37 00
        E 0 90 47 00
        E 5 90 3b 00
        E 26 90 2c 18
        E 10 90 3e 2d
        E 10 90 4e 00
        E 6 90 45 00
        E 35 90 2c 00
        E 41 90 45 1b
        E 10 90 32 00
        E 0 90 42 00
        E 0 90 4a 00
        E 11 90 3e 00
        E 71 90 3e 28
        E 5 90 45 00
        E 67 90 32 17
        E 10 90 3e 00
        E 0 90 3e 28
        E 30 90 39 42
        E 11 90 45 2d
        E 46 90 42 27
        E 0 90 4a 2e
        E 5 90 32 00
        E 5 90 39 00
        E 5 90 45 00
        E 20 90 2a 15
        E 11 90 36 30
        E 15 90 3e 00
        E 0 90 42 00
        E 0 90 4a 00
        E 36 90 39 1a
        E 30 90 4a 29
        E 5 90 2a 00
        E 0 90 32 32
        E 0 90 45 20
        E 16 90 36 00
        E 41 90 3e 24
        E 5 90 32 00
        E 0 90 32 24
        E 92 90 39 00
        E 5 90 32 00
        E 0 90 4a 00
        E 5 90 3e 00
        E 15 90 40 2b
        E 62 90 40 00
        E 10 90 45 00
        E 61 90 45 2d
        E 5 90 3e 2b
        E 57 90 45 00
        E 46 90 3e 00
        E 10 90 2a 24
        E 15 90 36 26
        E 0 90 39 20
        E 87 90 26 28
        E 0 90 32 36
        E 5 90 39 00
        E 0 90 3e 2c
        E 11 90 2a 00
        E 56 90 32 00
        E 20 90 26 00
        E 5 90 36 00
        E 0 90 3e 00
        E 21 90 2f 20
        E 5 90 2b 27
        E 5 90 3b 22
        E 46 90 37 32
        E 10 90 2b 00
        E 5 90 2b 26
        E 5 90 2f 00
        E 6 90 3b 00
        E 35 90 37 00
        E 77 90 37 23
        E 10 90 43 28
        E 36 90 21 28
        E 5 90 34 26
        E 5 90 3d 39
        E 5 90 2d 26
        E 5 90 2b 00
        E 0 90 37 00
        E 5 90 43 00
        E 36 90 21 00
        E 10 90 3d 00
        E 41 90 2d 00
        E 5 90 34 00
        E 103 90 26 2e
        E 5 90 32 37
        E 0 90 3e 26
        E 0 90 42 24
        E 0 90 4a 35
        E 61 90 32 00
        E 0 90 4a 00
        E 36 90 45 16
        E 0 90 4a 27
        E 36 90 32 27
        E 10 90 3e 00
        E 0 90 3e 24
        E 0 90 42 00
        E 0 90 42 1d
        E 5 90 36 28
        E 16 90 26 00
        E 35 90 45 00
        E 16 90 36 00
        E 0 90 42 00
        E 0 90 4a 00
        E 10 90 3e 00
        E 5 90 32 00
        E 51 90 36 29
        E 5 90 3e 2d
        E 11 90 2a 2d
        E 71 90 2a 00
        E 5 90 36 00
        E 0 90 3e 00
        E 51 90 32 26
        E 5 90 26 29
        E 87 90 32 00
        E 97 90 26 00
        E 72 90 26 25
        E 46 90 39 1c
        E 5 90 32 26
        E 0 90 3e 2b
        E 51 90 26 00
        E 5 90 39 00
        E 87 90 45 1d
        E 15 90 32 00
        E 5 90 3e 00
        E 46 90 45 00
        E 118 e0 00 20
        E 0 90 3e 35
        E 6 e0 00 20
        E 5 e0 00 20
        E 6 e0 00 20
        E 5 e0 00 20
        E 6 e0 00 20
        E 5 e0 00 20
        E 6 e0 00 20
        E 5 e0 00 20
        E 6 e0 00 20
        E 5 e0 00 20
        E 6 e0 00 20
        E 5 e0 00 20
        E 6 e0 00 20
        E 0 90 3e 00
        E 0 90 3e 24
        E 5 e0 00 20
        E 6 e0 00 20
        E 5 e0 00 20
        E 6 e0 00 20
        E 5 e0 00 20
        E 6 e0 00 20
        E 5 e0 00 20
        E 5 e0 00 20
        E 6 e0 00 20
        E 5 e0 00 20
        E 6 e0 00 20
        E 5 e0 00 20
        E 6 e0 00 20
        E 5 e0 00 20
        E 6 e0 00 20
        E 0 90 3e 00
        E 56 90 2c 29
        E 5 90 32 2d
        E 10 90 3e 27
        E 0 90 45 23
        E 0 90 4e 1b
        E 5 90 4a 21
        E 41 90 2c 00
        E 107 90 4a 00
        E 0 90 4e 00
        E 5 90 32 00
        E 0 90 45 00
        E 6 90 3e 00
        E 66 90 3e 27
        E 77 90 32 1d
        E 5 90 45 2e
        E 5 90 3e 00
        E 0 90 3e 28
        E 56 90 45 00
        E 36 90 3e 00
        E 0 90 3e 2b
        E 5 90 32 00
        E 31 90 36 26
        E 46 90 23 28
        E 0 90 3e 00
        E 40 90 26 20
        E 0 90 32 31
        E 5 90 3e 2b
        E 0 90 4a 2c
        E 6 90 2f 2f
        E 0 90 3b 26
        E 0 90 42 28
        E 10 90 36 00
        E 36 90 26 00
        E 36 90 32 00
        E 10 90 2f 00
        E 5 90 23 00
        E 0 90 42 00
        E 10 90 4a 00
        E 62 90 4c 33
        E 5 90 2b 33
        E 15 90 3b 00
        E 0 90 3e 00
        E 21 90 2f 31
        E 20 90 4c 00
        E 5 90 2b 00
        E 15 90 40 1a
        E 21 90 2f 00
        E 25 90 21 22
        E 0 90 43 2e
        E 46 90 39 31
        E 6 90 34 24
        E 0 90 3d 29
        E 0 90 40 00
        E 5 90 2d 24
        E 0 90 31 2f
        E 0 90 40 26
        E 15 90 43 00
        E 36 90 21 00
        E 0 90 39 00
        E 5 90 3d 00
        E 10 90 31 00
        E 31 90 34 00
        E 15 90 40 00
        E 5 90 39 1d
        E 67 90 26 28
        E 5 90 34 13
        E 5 90 32 21
        E 0 90 3e 2c
        E 0 90 42 2c
        E 0 90 45 1a
        E 0 90 4a 23
        E 15 90 2d 00
        E 46 90 26 00
        E 0 90 34 00
        E 0 90 39 00
        E 0 90 3e 00
        E 0 90 3e 1f
        E 10 90 42 00
        E 21 90 2d 31
        E 15 90 4a 00
        E 51 90 2d 00
        E 5 90 45 00
        E 26 90 45 25
        E 5 90 3e 00
        E 0 90 3e 21
        E 0 90 4a 1f
        E 36 90 42 2d
        E 5 90 39 18
        E 46 90 40 22
        E 0 90 4c 20
        E 10 90 42 00
        E 0 90 45 00
        E 41 90 39 00
        E 0 90 4a 00
        E 36 90 45 2f
        E 5 90 40 00
        E 0 90 4c 00
        E 51 90 32 00
        E 11 90 3e 00
        E 5 90 45 00
        E 127 90 3e 3e
        E 5 90 45 19
        E 6 90 32 27
        E 0 90 42 1f
        E 0 90 4a 29
        E 51 90 3e 00
        E 5 90 3e 23
        E 92 90 3e 00
        E 0 90 3e 22
        E 5 90 42 00
        E 5 90 32 00
        E 0 90 4a 00
        E 20 90 40 34
        E 51 90 3e 00
        E 0 90 3e 27
        E 11 90 40 00
        E 0 90 45 00
        E 61 90 32 1c
        E 10 90 3e 00
        E 0 90 3e 25
        E 31 90 39 3e
        E 10 90 45 26
        E 0 90 4a 23
        E 46 90 3e 00
        E 0 90 3e 34
        E 10 90 39 00
        E 5 90 32 00
        E 5 90 45 00
        E 26 90 36 22
        E 5 90 4a 00
        E 10 90 3e 00
        E 16 90 39 1a
        E 46 90 32 38
        E 0 90 36 00
        E 0 90 36 1e
        E 0 90 42 23
        E 0 90 4e 31
        E 5 90 45 2f
        E 0 90 4a 23
        E 51 90 3e 27
        E 5 90 39 00
        E 5 90 32 00
        E 0 90 32 1e
        E 0 90 4e 00
        E 5 90 45 00
        E 36 90 42 00
        E 41 90 36 00
        E 11 90 3e 00
        E 71 90 3e 26
        E 5 90 4a 00
        E 5 90 32 00
        E 56 90 32 1a
        E 0 90 42 12
        E 0 90 4a 22
        E 11 90 3e 00
        E 0 90 3e 26
        E 41 90 36 1d
        E 0 90 45 2b
        E 5 90 39 30
        E 51 90 3e 00
        E 0 90 3e 20
        E 5 90 32 00
        E 0 90 4a 00
        E 5 90 39 00
        E 0 90 45 00
        E 26 90 42 00
        E 10 90 36 00
        E 56 90 23 33
        E 5 90 2f 3e
        E 15 90 3b 26
        E 0 90 3e 00
        E 0 90 3e 32
        E 41 90 23 00
        E 5 90 32 27
        E 5 90 2f 00
        E 11 90 3e 00
        E 51 90 2f 28
        E 0 90 3b 00
        E 0 90 3b 2e
        E 15 90 32 00
        E 36 90 34 28
        E 5 90 2b 31
        E 0 90 37 2a
        E 20 90 3b 00
        E 41 90 37 00
        E 16 90 40 1b
        E 15 90 2f 00
        E 5 90 2b 00
        E 0 90 34 00
        E 26 90 37 21
        E 20 90 40 00
        E 20 90 21 2a
        E 11 90 39 25
        E 5 90 31 33
        E 5 90 2d 28
        E 0 90 3d 35
        E 0 90 40 24
        E 5 90 37 00
        E 41 90 21 00
        E 5 90 39 00
        E 15 90 3d 00
        E 16 90 31 00
        E 10 90 2d 00
        E 10 90 40 00
        E 93 90 32 24
        E 0 90 3e 25
        E 97 90 36 29
        E 76 90 36 00
        E 46 90 2a 21
        E 10 90 36 1f
        E 6 90 32 00
        E 0 90 32 35
        E 0 90 3e 00
        E 0 90 3e 27
        E 51 90 2a 00
        E 5 90 2a 2c
        E 25 90 32 00
        E 16 90 39 20
        E 10 90 2d 27
        E 10 90 3e 00
        E 26 90 2a 00
        E 10 90 36 00
        E 5 90 39 00
        E 56 90 26 37
        E 21 90 2d 00
        E 97 90 26 00
        E 178 90 2d 36
        E 5 90 39 2f
        E 11 90 40 2f
        E 72 90 39 00
        E 0 90 39 1a
        E 10 90 2d 00
        E 5 90 40 00
        E 21 90 2f 2d
        E 51 90 3d 24
        E 5 90 31 28
        E 0 90 40 22
        E 10 90 2f 00
        E 5 90 39 00
        E 31 90 2a 1c
        E 5 90 39 31
        E 5 90 3d 00
        E 0 90 3d 1f
        E 0 90 45 23
        E 5 90 49 24
        E 10 90 31 00
        E 46 90 39 00
        E 26 90 36 26
        E 15 90 2a 00
        E 5 90 3d 00
        E 0 90 40 00
        E 0 90 49 00
        E 72 90 2a 1f
        E 5 90 2d 1a
        E 0 90 2f 1e
        E 0 90 34 1c
        E 0 90 3d 22
        E 5 90 39 29
        E 0 90 40 19
        E 0 90 4c 2c
        E 5 90 49 24
        E 46 90 2a 00
        E 5 90 2d 00
        E 0 90 2f 00
        E 0 90 3d 00
        E 5 90 34 00
        E 5 90 36 00
        E 41 90 49 00
        E 5 90 4c 00
        E 5 90 39 00
        E 26 90 34 16
        E 51 90 2d 22
        E 5 90 40 00
        E 5 90 40 27
        E 0 90 4c 20
        E 21 90 45 00
        E 25 90 34 00
        E 5 90 2d 00
        E 103 90 4c 00
        E 5 90 40 00
        E 15 90 39 2d
        E 51 90 40 1c
        E 15 90 39 00
        E 31 90 42 2c
        E 11 90 40 00
        E 36 90 34 22
        E 5 90 40 24
        E 0 90 4a 32
        E 20 90 42 00
        E 41 90 4a 00
        E 10 90 34 00
        E 10 90 40 00
        E 57 90 2f 21
        E 15 90 2d 26
        E 82 90 3b 19
        E 0 90 3e 23
        E 5 90 42 2a
        E 0 90 4e 2e
        E 5 90 4a 2d
        E 5 90 2d 00
        E 0 90 2f 00
        E 31 90 32 27
        E 20 90 42 00
        E 5 90 4a 00
        E 5 90 4e 00
        E 31 90 45 14
        E 5 90 3b 00
        E 26 90 26 18
        E 5 90 36 1d
        E 56 90 39 2b
        E 5 90 3e 00
        E 0 90 3e 22
        E 0 90 42 34
        E 0 90 45 00
        E 0 90 4e 31
        E 5 90 45 1b
        E 0 90 4a 30
        E 10 90 32 00
        E 31 90 26 00
        E 15 90 39 00
        E 0 90 4e 00
        E 5 90 42 00
        E 0 90 4a 00
        E 26 90 47 25
        E 10 90 3b 27
        E 10 90 3e 00
        E 41 90 45 00
        E 0 90 47 00
        E 26 90 32 2f
        E 5 90 42 2a
        E 0 90 45 28
        E 5 90 3e 25
        E 0 90 4a 25
        E 5 90 36 00
        E 10 90 3b 00
        E 36 90 32 00
        E 51 90 45 00
        E 5 90 42 00
        E 0 90 4a 00
        E 5 90 3e 00
        E 67 90 32 36
        E 5 90 4a 3c
        E 5 90 3e 25
        E 0 90 42 22
        E 0 90 45 2b
        E 47 90 32 00
        E 5 90 4a 00
        E 5 90 45 00
        E 36 90 3e 00
        E 30 90 40 2d
        E 10 90 42 00
        E 51 90 40 00
        E 26 90 34 15
        E 0 90 4a 1b
        E 5 90 3d 1b
        E 82 90 37 1e
        E 5 90 43 27
        E 0 90 45 29
        E 0 90 4c 2b
        E 5 90 39 30
        E 0 90 4f 2c
        E 5 90 34 00
        E 5 90 3d 00
        E 46 90 37 00
        E 0 90 4c 00
        E 5 90 43 00
        E 0 90 45 00
        E 5 90 39 00
        E 0 90 4a 00
        E 0 90 4f 00
        E 67 90 36 20
        E 51 90 32 2e
        E 10 90 36 00
        E 46 90 3e 2a
        E 0 90 4a 1f
        E 15 90 32 00
        E 67 90 3e 00
        E 71 90 3e 21
        E 36 90 32 25
        E 5 90 4e 28
        E 46 90 3e 00
        E 0 90 3e 25
        E 10 90 32 00
        E 6 90 4e 00
        E 81 90 3e 00
        E 0 90 3e 26
        E 6 90 4a 00
        E 87 90 3e 00
        E 30 90 4a 25
        E 41 90 32 26
        E 11 90 3e 30
        E 35 90 36 27
        E 21 90 32 00
        E 5 90 3e 00
        E 0 90 4a 00
        E 92 90 36 00
        E 122 90 3e 28
        E 36 90 32 15
        E 51 90 4a 15
        E 5 90 3e 00
        E 0 90 3e 23
        E 46 90 32 00
        E 46 90 3e 00
        E 41 90 4a 00
        E 41 90 3b 1b
        E 51 90 36 2d
        E 10 90 42 1d
        E 5 90 3b 00
        E 41 90 32 1b
        E 0 90 3e 2a
        E 57 90 39 27
        E 5 90 36 00
        E 0 90 42 00
        E 36 90 3e 00
        E 0 90 3e 2b
        E 10 90 32 00
        E 36 90 45 28
        E 5 90 34 20
        E 15 90 3e 00
        E 36 90 3d 2e
        E 56 90 34 00
        E 5 90 39 00
        E 0 90 45 00
        E 46 90 3d 00
        E 16 90 26 22
        E 20 90 32 2f
        E 0 90 3e 26
        E 87 90 32 00
        E 0 90 32 2f
        E 46 90 26 00
        E 31 90 32 00
        E 0 90 3e 00
        E 46 90 2a 14
        E 5 90 40 17
        E 0 90 45 29
        E 5 90 39 31
        E 0 90 3d 25
        E 71 90 39 00
        E 0 90 39 1b
        E 5 90 45 00
        E 41 90 2a 00
        E 102 90 40 00
        E 46 90 3d 00
        E 6 90 39 00
        E 123 e0 2b 75
        E 0 90 4d 38
        E 5 e0 2b 75
        E 6 e0 2b 75
        E 5 e0 55 6a
        E 6 e0 55 6a
        E 5 e0 55 6a
        E 6 e0 2b 75
        E 5 e0 2b 75
        E 6 e0 2b 75
        E 5 e0 55 6a
        E 6 e0 55 6a
        E 5 e0 55 6a
        E 6 e0 55 6a
        E 5 e0 55 6a
        E 0 90 4d 00
        E 123 90 32 27
        E 0 90 3e 2f
        E 0 90 45 2e
        E 0 90 4a 23
        E 61 90 45 00
        E 77 90 45 12
        E 10 90 32 00
        E 5 90 3e 00
        E 0 90 4a 00
        E 15 90 40 2b
        E 57 90 3e 29
        E 0 90 45 00
        E 5 90 40 00
        E 66 90 32 1e
        E 5 90 4a 2c
        E 5 90 3e 00
        E 0 90 3e 27
        E 0 90 45 0d
        E 62 90 45 00
        E 10 90 4a 00
        E 20 90 3e 00
        E 0 90 3e 24
        E 51 90 36 2c
        E 46 90 26 2a
        E 5 90 39 21
        E 11 90 36 00
        E 25 90 32 00
        E 0 90 36 1f
        E 5 90 32 31
        E 0 90 42 29
        E 0 90 45 2c
        E 5 90 4a 22
        E 46 90 26 00
        E 6 90 39 00
        E 0 90 3e 00
        E 0 90 3e 2b
        E 5 90 45 00
        E 5 90 32 00
        E 0 90 32 23
        E 46 90 42 00
        E 31 90 36 00
        E 5 90 32 00
        E 0 90 4a 00
        E 5 90 3e 00
        E 67 90 3e 2b
        E 86 90 32 1e
        E 46 90 39 27
        E 5 90 3e 00
        E 0 90 3e 2c
        E 57 90 32 00
        E 46 90 3e 00
        E 25 90 23 28
        E 10 90 39 00
        E 26 90 26 26
        E 0 90 42 37
        E 5 90 36 1f
        E 0 90 3e 3e
        E 0 90 4a 25
        E 5 90 2f 27
        E 0 90 3b 2b
        E 41 90 32 1d
        E 10 90 26 00
        E 0 90 42 00
        E 5 90 3e 00
        E 21 90 23 00
        E 20 90 36 00
        E 0 90 4a 00
        E 16 90 3e 26
        E 5 90 47 24
        E 5 90 2b 24
        E 0 90 3b 00
        E 0 90 3b 23
        E 61 90 23 24
        E 0 90 2b 00
        E 5 90 2b 2c
        E 0 90 32 00
        E 5 90 3e 00
        E 5 90 47 00
        E 21 90 2f 00
        E 0 90 2f 29
        E 41 90 34 22
        E 0 90 40 1e
        E 5 90 23 00
        E 15 90 3b 00
        E 15 90 37 27
        E 6 90 43 29
        E 5 90 21 22
        E 15 90 2b 00
        E 0 90 2f 00
        E 46 90 3d 26
        E 5 90 31 2f
        E 0 90 40 00
        E 5 90 40 1f
        E 5 90 21 00
        E 0 90 37 00
        E 5 90 43 00
        E 46 90 3d 00
        E 21 90 2d 1e
        E 0 90 31 00
        E 36 90 39 25
        E 26 90 34 00
        E 46 90 3e 2e
        E 5 90 32 28
        E 5 90 34 17
        E 0 90 42 20
        E 0 90 45 16
        E 15 90 2d 00
        E 0 90 40 00
        E 5 90 39 00
        E 36 90 3e 00
        E 5 90 3e 21
        E 5 90 34 00
        E 0 90 45 00
        E 46 90 42 00
        E 46 90 45 19
        E 46 90 4a 2b
        E 10 90 32 00
        E 31 90 32 20
        E 5 90 39 15
        E 16 90 4a 00
        E 30 90 40 23
        E 0 90 45 00
        E 10 90 3e 00
        E 31 90 39 00
        E 51 90 45 21
        E 5 90 40 00
        E 46 90 32 00
        E 36 90 45 00
        E 36 90 3b 25
        E 46 90 26 2b
        E 0 90 4a 39
        E 15 90 32 29
        E 5 90 3b 00
        E 36 90 3e 23
        E 5 90 26 00
        E 0 90 4a 00
        E 87 90 4a 17
        E 5 90 3e 00
        E 0 90 3e 21
        E 10 90 32 00
        E 31 90 40 29
        E 46 90 3e 00
        E 0 90 3e 28
        E 0 90 4a 00
        E 16 90 40 00
        E 56 90 32 1f
        E 5 90 3e 00
        E 0 90 3e 25
        E 31 90 39 39
        E 10 90 45 27
        E 0 90 4a 28
        E 56 90 39 00
        E 0 90 3e 00
        E 0 90 3e 26
        E 10 90 32 00
        E 5 90 45 00
        E 21 90 36 2e
        E 25 90 4a 00
        E 16 90 39 31
        E 35 90 26 32
        E 16 90 4a 28
        E 5 90 32 27
        E 0 90 42 29
        E 0 90 45 22
        E 0 90 4e 1c
        E 10 90 39 00
        E 5 90 36 00
        E 26 90 26 00
        E 5 90 3e 00
        E 0 90 3e 27
        E 66 90 42 00
        E 31 90 32 00
        E 5 90 3e 00
        E 0 90 4a 00
        E 0 90 4e 00
        E 5 90 45 00
        E 56 90 4a 23
        E 5 90 45 1a
        E 6 90 3e 2b
        E 56 90 45 00
        E 35 90 3e 00
        E 0 90 3e 26
        E 6 90 4a 00
        E 20 90 32 2b
        E 5 90 45 21
        E 5 90 36 11
        E 5 90 39 2d
        E 51 90 3e 00
        E 0 90 3e 22
        E 11 90 32 00
        E 25 90 36 00
        E 36 90 45 00
        E 10 90 39 00
        E 5 90 23 33
        E 16 90 4a 39
        E 5 90 26 25
        E 5 90 3e 00
        E 0 90 3e 36
        E 5 90 2f 29
        E 36 90 23 00
        E 0 90 32 2b
        E 5 90 4a 00
        E 5 90 26 00
        E 6 90 3e 00
        E 61 90 3b 2c
        E 0 90 3e 2a
        E 15 90 32 00
        E 41 90 2b 35
        E 15 90 3e 00
        E 5 90 3b 00
        E 41 90 2b 00
        E 16 90 40 25
        E 15 90 2f 00
        E 31 90 2d 35
        E 0 90 43 30
        E 10 90 37 25
        E 41 90 34 2a
        E 5 90 31 37
        E 5 90 3d 37
        E 15 90 2d 00
        E 0 90 37 00
        E 0 90 40 00
        E 0 90 43 00
        E 51 90 31 00
        E 0 90 3d 00
        E 31 90 34 00
        E 41 90 39 23
        E 76 90 26 31
        E 0 90 32 2c
        E 0 90 3e 3b
        E 6 90 42 30
        E 5 90 39 00
        E 56 90 42 00
        E 5 90 3e 00
        E 10 90 26 00
        E 16 90 36 28
        E 46 90 3e 20
        E 5 90 32 00
        E 0 90 32 2a
        E 10 90 36 00
        E 46 90 2d 22
        E 56 90 32 00
        E 0 90 32 23
        E 41 90 2a 2a
        E 11 90 2d 00
        E 0 90 2d 2d
        E 35 90 36 22
        E 6 90 3e 00
        E 10 90 32 00
        E 30 90 2a 00
        E 0 90 2d 00
        E 82 90 32 27
        E 5 90 26 32
        E 10 90 36 00
        E 87 90 39 12
        E 62 90 39 00
        E 20 90 26 00
        E 0 90 32 00
        E 347 90 32 24
        E 11 90 45 2b
        E 30 90 3e 28
        E 0 90 4a 24
        E 62 90 51 36
        E 15 90 32 00
        E 0 90 4a 00
        E 5 90 3e 00
        E 0 90 45 00
        E 41 90 51 00
        E 21 90 26 28
        E 5 90 3e 23
        E 5 90 45 20
        E 5 90 32 28
        E 46 90 2a 25
        E 5 90 2d 19
        E 11 90 36 28
        E 5 90 45 00
        E 5 90 3e 00
        E 41 90 2d 00
        E 0 90 39 29
        E 40 90 23 17
        E 11 90 2a 00
        E 0 90 3e 25
        E 46 90 39 00
        E 0 90 39 32
        E 0 90 45 1e
        E 5 90 23 00
        E 0 90 26 00
        E 10 90 32 00
        E 5 90 36 00
        E 41 90 39 00
        E 31 90 32 29
        E 0 90 3b 12
        E 0 90 42 38
        E 5 90 36 23
        E 0 90 4a 16
        E 0 90 4e 28
        E 5 90 3e 00
        E 0 90 3e 36
        E 41 90 39 18
        E 10 90 45 00
        E 0 90 45 21
        E 0 90 51 22
        E 10 90 4e 00
        E 5 90 42 00
        E 5 90 3e 00
        E 26 90 42 19
        E 0 90 4e 2d
        E 5 90 3e 29
        E 10 90 36 00
        E 0 90 51 00
        E 31 90 56 37
        E 10 90 39 00
        E 10 90 32 00
        E 0 90 45 00
        E 0 90 4e 00
        E 31 90 4a 00
        E 5 90 3e 00
        E 0 90 3e 2b
        E 0 90 4a 1f
        E 10 90 56 00
        E 51 90 3b 00
        E 5 90 26 21
        E 0 90 32 27
        E 0 90 3b 23
        E 6 90 42 00
        E 0 90 42 2c
        E 5 90 4a 00
        E 5 90 3e 00
        E 56 90 26 00
        E 0 90 2a 2c
        E 0 90 36 1b
        E 5 90 26 28
        E 0 90 32 00
        E 5 90 32 29
        E 5 90 3b 00
        E 11 90 42 00
        E 45 90 2a 00
        E 0 90 2a 26
        E 11 90 32 00
        E 20 90 39 1a
        E 5 90 42 1d
        E 5 90 2d 23
        E 46 90 32 2d
        E 0 90 3e 28
        E 0 90 4a 13
        E 31 90 42 00
        E 5 90 42 21
        E 0 90 45 30
        E 10 90 2a 00
        E 47 90 45 00
        E 30 90 45 23
        E 0 90 4a 00
        E 6 90 32 00
        E 0 90 32 20
        E 0 90 3e 00
        E 0 90 3e 2c
        E 0 90 4a 2d
        E 5 90 26 00
        E 41 90 39 00
        E 0 90 42 00
        E 0 90 42 2a
        E 0 90 4e 1b
        E 51 90 2d 00
        E 5 90 3e 00
        E 5 90 4a 00
        E 25 90 3e 27
        E 6 90 45 00
        E 0 90 45 37
        E 0 90 4a 18
        E 0 90 51 2b
        E 5 90 36 00
        E 0 90 4e 00
        E 10 90 42 00
        E 46 90 45 00
        E 0 90 51 00
        E 30 90 2f 36
        E 16 90 3b 2b
        E 0 90 42 2c
        E 10 90 32 00
        E 0 90 4a 00
        E 61 90 3b 00
        E 0 90 3b 1a
        E 5 90 2f 00
        E 0 90 3e 00
        E 0 90 42 00
        E 72 90 34 10
        E 5 90 37 2c
        E 61 90 34 00
        E 0 90 43 35
        E 5 90 3b 00
        E 36 90 37 00
        E 5 90 37 20
        E 16 90 43 00
        E 25 90 34 14
        E 41 90 40 21
        E 5 90 4c 26
        E 5 90 37 00
        E 41 90 2d 2e
        E 10 90 39 24
        E 11 90 4c 00
        E 40 90 34 00
        E 0 90 40 00
        E 0 90 40 2f
        E 6 90 2d 00
        E 86 90 40 00
        E 1 90 39 00
        E 36 90 3e 3a
        E 10 90 32 2a
        E 5 90 45 2c
        E 0 90 4a 26
        E 46 90 3e 00
        E 5 90 3e 1a
        E 46 90 40 25
        E 15 90 45 00
        E 0 90 4a 00
        E 41 90 32 00
        E 57 90 40 00
        E 20 90 45 30
        E 15 90 3e 00
        E 46 90 45 00
        E 123 90 40 21
        E 97 90 4a 16
        E 10 90 40 00
        E 41 90 3e 20
        E 10 90 45 27
        E 5 90 4a 00
        E 46 90 26 24
        E 0 90 32 2e
        E 10 90 45 00
        E 46 90 2a 23
        E 11 90 32 00
        E 0 90 3e 00
        E 25 90 39 16
        E 5 90 2d 24
        E 46 90 36 19
        E 36 90 45 20
        E 52 90 32 26
        E 10 90 26 00
        E 0 90 39 00
        E 0 90 3e 2e
        E 5 90 2a 00
        E 31 90 42 1f
        E 5 90 4e 22
        E 5 90 45 00
        E 5 90 2d 00
        E 36 90 45 35
        E 15 90 3e 00
        E 31 90 3e 2c
        E 0 90 42 00
        E 0 90 42 2b
        E 5 90 4e 00
        E 0 90 4e 23
        E 10 90 45 00
        E 41 90 36 00
        E 0 90 4a 1c
        E 10 90 42 00
        E 0 90 4e 00
        E 26 90 3e 00
        E 0 90 3e 24
        E 61 90 45 10
        E 5 90 42 26
        E 10 90 4a 00
        E 31 90 26 31
        E 15 90 3e 00
        E 0 90 3e 27
        E 46 90 2a 1b
        E 0 90 36 2a
        E 5 90 26 00
        E 0 90 45 00
        E 6 90 32 00
        E 10 90 3e 00
        E 25 90 39 2f
        E 26 90 26 26
        E 5 90 3e 40
        E 56 90 2a 00
        E 5 90 26 00
        E 5 90 3e 00
        E 5 90 36 00
        E 0 90 39 00
        E 0 90 42 00
        E 77 90 4a 23
        E 36 90 32 23
        E 5 90 3e 28
        E 0 90 42 18
        E 66 90 4a 00
        E 16 90 36 15
        E 10 90 3e 00
        E 0 90 3e 36
        E 0 90 51 37
        E 41 90 45 2f
        E 0 90 4a 35
        E 5 90 2f 25
        E 15 90 3e 00
        E 0 90 51 00
        E 26 90 26 1e
        E 0 90 3e 27
        E 5 90 3b 2d
        E 16 90 32 00
        E 0 90 45 00
        E 0 90 4a 00
        E 20 90 23 29
        E 15 90 2f 00
        E 6 90 2f 2f
        E 0 90 36 00
        E 0 90 42 00
        E 35 90 32 35
        E 0 90 3e 00
        E 0 90 3e 1a
        E 62 90 23 00
        E 0 90 26 00
        E 5 90 2f 00
        E 0 90 32 00
        E 5 90 3b 00
        E 15 90 2b 2f
        E 5 90 37 23
        E 5 90 40 1f
        E 6 90 43 2c
        E 56 90 2b 00
        E 0 90 2f 45
        E 5 90 2b 28
        E 5 90 37 00
        E 0 90 40 00
        E 5 90 43 00
        E 36 90 3e 00
        E 10 90 2f 00
        E 36 90 37 1f
        E 5 90 2b 00
        E 20 90 2d 2a
        E 5 90 40 27
        E 36 90 21 1d
        E 26 90 2d 00
        E 5 90 2d 1f
        E 0 90 40 00
        E 0 90 40 1c
        E 5 90 37 00
        E 25 90 3d 26
        E 6 90 31 2e
        E 46 90 2d 00
        E 0 90 2d 1f
        E 5 90 39 22
        E 5 90 21 00
        E 5 90 31 00
        E 0 90 3d 00
        E 5 90 40 00
        E 26 90 36 21
        E 5 90 26 28
        E 0 90 32 3d
        E 5 90 3e 25
        E 0 90 45 27
        E 5 90 42 27
        E 61 90 26 00
        E 0 90 2d 00
        E 5 90 32 00
        E 0 90 39 00
        E 0 90 45 00
        E 16 90 2a 19
        E 61 90 36 00
        E 5 90 32 23
        E 0 90 36 24
        E 15 90 42 00
        E 16 90 2d 3f
        E 20 90 2a 00
        E 10 90 36 00
        E 0 90 3e 00
        E 31 90 2d 00
        E 36 90 36 2b
        E 10 90 2a 2d
        E 6 90 32 00
        E 56 90 2d 26
        E 25 90 39 1b
        E 5 90 36 00
        E 6 90 2a 00
        E 20 90 32 2e
        E 36 90 26 33
        E 20 90 39 00
        E 5 90 2d 00
        E 5 90 32 00
        E 133 90 26 00
        E 220 90 3e 2c
        E 76 90 26 24
        E 16 90 36 1f
        E 0 90 3e 00
        E 0 90 3e 1d
        E 5 90 32 35
        E 46 90 2a 23
        E 0 90 2d 32
        E 10 90 36 00
        E 5 90 36 27
        E 10 90 3e 00
        E 6 90 32 00
        E 30 90 39 2c
        E 5 90 2d 00
        E 31 90 32 22
        E 5 90 42 13
        E 0 90 45 26
        E 10 90 3e 28
        E 36 90 2a 00
        E 0 90 39 00
        E 0 90 39 24
        E 10 90 36 00
        E 31 90 45 00
        E 6 90 42 00
        E 0 90 45 27
        E 5 90 26 00
        E 0 90 3e 00
        E 0 90 3e 2a
        E 10 90 39 00
        E 20 90 36 1b
        E 5 90 42 21
        E 6 90 4e 2b
        E 46 90 4a 1e
        E 5 90 45 00
        E 0 90 45 26
        E 5 90 3e 00
        E 0 90 3e 27
        E 5 90 4e 00
        E 31 90 4e 2c
        E 5 90 3a 13
        E 0 90 42 00
        E 0 90 42 1f
        E 15 90 45 00
        E 25 90 56 2b
        E 6 90 3e 00
        E 0 90 3e 39
        E 15 90 4e 00
        E 36 90 3a 00
        E 0 90 4a 00
        E 5 90 32 00
        E 0 90 36 00
        E 0 90 56 00
        E 5 90 42 00
        E 10 90 3e 00
        E 56 90 3e 1b
        E 41 90 32 33
        E 0 90 39 1b
        E 5 90 26 29
        E 51 90 36 22
        E 5 90 2a 1c
        E 0 90 3e 00
        E 16 90 32 00
        E 10 90 1e 1c
        E 15 90 2d 24
        E 51 90 1e 00
        E 6 90 32 28
        E 0 90 3e 29
        E 46 90 42 1d
        E 15 90 26 00
        E 36 90 36 00
        E 0 90 45 1d
        E 35 90 32 00
        E 0 90 32 22
        E 5 90 2a 00
        E 0 90 39 00
        E 0 90 3e 00
        E 0 90 3e 2d
        E 0 90 4a 23
        E 6 90 2d 00
        E 35 90 42 00
        E 0 90 42 1d
        E 51 90 4a 00
        E 0 90 4a 1d
        E 36 90 51 31
        E 10 90 45 00
        E 0 90 45 14
        E 11 90 3e 00
        E 30 90 2f 29
        E 0 90 3e 28
        E 10 90 4a 00
        E 0 90 51 00
        E 6 90 32 00
        E 31 90 36 21
        E 0 90 47 20
        E 5 90 3b 2d
        E 66 90 3b 00
        E 0 90 3b 22
        E 0 90 42 00
        E 0 90 42 1b
        E 0 90 45 00
        E 5 90 2f 00
        E 0 90 36 00
        E 6 90 3e 00
        E 46 90 47 00
        E 25 90 37 34
        E 5 90 2b 1c
        E 10 90 3b 00
        E 5 90 42 00
        E 77 90 37 00
        E 0 90 3b 27
        E 5 90 37 21
        E 0 90 43 21
        E 56 90 3b 00
        E 26 90 40 1a
        E 5 90 4c 23
        E 5 90 2b 00
        E 5 90 37 00
        E 5 90 43 00
        E 26 90 45 24
        E 5 90 39 30
        E 15 90 4c 00
        E 31 90 40 00
        E 5 90 40 30
        E 10 90 39 00
        E 0 90 45 00
        E 82 90 40 00
        E 36 90 26 1d
        E 10 90 32 26
        E 5 90 3e 3c
        E 0 90 45 24
        E 0 90 4a 2a
        E 46 90 26 00
        E 5 90 39 15
        E 10 90 4a 00
        E 6 90 3e 00
        E 20 90 36 2d
        E 5 90 40 26
        E 15 90 45 00
        E 36 90 39 00
        E 5 90 36 00
        E 5 90 32 00
        E 0 90 40 00
        E 26 90 43 30
        E 41 90 26 17
        E 0 90 32 20
        E 5 90 39 21
        E 5 90 3e 1e
        E 0 90 45 2e
        E 10 90 43 00
        E 36 90 47 1b
        E 1 90 26 00
        E 0 90 32 00
        E 10 90 45 00
        E 46 90 39 00
        E 25 90 34 19
        E 11 90 45 1d
        E 10 90 3e 00
        E 30 90 40 19
        E 41 90 34 00
        E 5 90 45 00
        E 36 90 4a 25
        E 10 90 40 00
        E 5 90 47 00
        E 41 90 3e 29
        E 5 90 39 1a
        E 6 90 4a 00
        E 35 90 2a 2e
        E 0 90 2d 21
        E 5 90 45 1c
        E 6 90 26 26
        E 0 90 36 22
        E 5 90 32 2d
        E 51 90 2a 00
        E 5 90 2a 1f
        E 5 90 3e 00
        E 5 90 32 00
        E 26 90 2d 00
        E 5 90 2d 26
        E 46 90 32 25
        E 0 90 39 00
        E 0 90 3e 22
        E 10 90 36 00
        E 25 90 45 00
        E 0 90 45 1c
        E 21 90 2d 00
        E 30 90 36 18
        E 6 90 3e 00
        E 0 90 3e 25
        E 5 90 26 00
        E 30 90 42 25
        E 5 90 2a 00
        E 46 90 45 00
        E 0 90 45 28
        E 0 90 4a 12
        E 57 90 36 00
        E 0 90 3e 00
        E 0 90 3e 29
        E 15 90 42 00
        E 20 90 4a 00
        E 6 90 4a 21
        E 0 90 56 28
        E 10 90 45 00
        E 41 90 3e 00
        E 0 90 3e 24
        E 15 90 56 00
        E 51 90 3e 00
        E 0 90 3e 3d
        E 6 90 4a 00
        E 25 90 26 26
        E 31 90 3e 00
        E 31 90 2a 1f
        E 5 90 36 25
        E 5 90 32 00
        E 76 90 2f 20
        E 0 90 32 1f
        E 5 90 42 39
        E 6 90 39 1b
        E 0 90 3e 25
        E 46 90 2a 00
        E 5 90 26 00
        E 5 90 2f 00
        E 5 90 42 00
        E 5 90 36 00
        E 31 90 45 1d
        E 10 90 39 00
        E 25 90 36 1d
        E 41 90 3b 19
        E 5 90 42 23
        E 5 90 45 00
        E 11 90 3e 00
        E 20 90 4a 2f
        E 5 90 3e 3c
        E 10 90 32 00
        E 6 90 3b 00
        E 25 90 51 3a
        E 5 90 2f 24
        E 0 90 32 24
        E 10 90 36 00
        E 0 90 4a 00
        E 11 90 3e 00
        E 25 90 3e 3b
        E 0 90 45 26
        E 0 90 4a 35
        E 16 90 42 00
        E 0 90 51 00
        E 40 90 3b 2b
        E 16 90 32 00
        E 0 90 45 00
        E 5 90 3e 00
        E 0 90 4a 00
        E 56 90 23 25
        E 26 90 32 24
        E 15 90 3e 1a
        E 20 90 2f 00
        E 0 90 47 19
        E 5 90 23 00
        E 0 90 2f 24
        E 6 90 3b 00
        E 0 90 3b 2a
        E 30 90 2b 35
        E 5 90 37 31
        E 5 90 40 1d
        E 5 90 43 24
        E 6 90 47 00
        E 5 90 32 00
        E 5 90 3b 00
        E 30 90 1f 20
        E 0 90 2b 00
        E 6 90 2b 28
        E 5 90 23 2a
        E 5 90 37 00
        E 0 90 40 00
        E 5 90 43 00
        E 31 90 2f 00
        E 0 90 2f 2c
        E 10 90 3e 00
        E 15 90 23 00
        E 21 90 37 1d
        E 15 90 2f 00
        E 16 90 40 33
        E 5 90 2d 2e
        E 5 90 1f 00
        E 0 90 3d 20
        E 15 90 2b 00
        E 41 90 2d 00
        E 0 90 31 38
        E 0 90 40 00
        E 5 90 2d 1f
        E 0 90 40 2d
        E 5 90 37 00
        E 51 90 31 00
        E 6 90 40 00
        E 25 90 39 1d
        E 5 90 3d 00
        E 36 90 32 30
        E 5 90 26 2d
        E 0 90 36 1d
        E 0 90 3e 28
        E 10 90 42 24
        E 46 90 32 00
        E 5 90 32 27
        E 0 90 36 00
        E 11 90 26 00
        E 0 90 2d 00
        E 5 90 39 00
        E 87 90 32 00
        E 0 90 32 25
        E 0 90 3e 00
        E 0 90 3e 24
        E 15 90 42 00
        E 51 90 3e 00
        E 71 90 2d 2c
        E 6 90 2a 2f
        E 15 90 32 00
        E 41 90 2d 00
        E 5 90 2d 2a
        E 36 90 1a 22
        E 0 90 2a 00
        E 20 90 32 25
        E 46 90 26 37
        E 5 90 1a 00
        E 21 90 2d 00
        E 61 90 32 00
        E 15 90 26 00
        E 435 90 2d 2d
        E 5 90 49 31
        E 0 90 4c 33
        E 61 90 49 00
        E 6 90 4c 00
        E 40 90 25 31
        E 5 90 31 1b
        E 6 90 34 2a
        E 20 90 2d 00
        E 41 90 31 00
        E 5 90 31 27
        E 36 90 25 00
        E 0 90 25 1e
        E 0 90 28 23
        E 0 90 3b 1f
        E 0 90 3d 23
        E 0 90 40 23
        E 5 90 34 00
        E 0 90 34 24
        E 41 90 21 21
        E 5 90 2d 2a
        E 10 90 3b 00
        E 0 90 40 00
        E 5 90 31 00
        E 36 90 3d 00
        E 5 90 3d 26
        E 26 90 40 37
        E 5 90 4c 18
        E 5 90 39 23
        E 10 90 25 00
        E 36 90 49 27
        E 5 90 21 00
        E 0 90 40 00
        E 0 90 45 26
        E 5 90 40 31
        E 41 90 31 1a
        E 10 90 49 00
        E 0 90 49 35
        E 5 90 4c 00
        E 5 90 28 00
        E 0 90 34 00
        E 5 90 3d 00
        E 0 90 40 00
        E 27 90 39 00
        E 5 90 39 25
        E 5 90 45 00
        E 5 90 2d 00
        E 0 90 49 00
        E 25 90 34 1f
        E 11 90 3d 25
        E 30 90 2d 1f
        E 5 90 40 2f
        E 51 90 45 28
        E 11 90 3d 00
        E 30 90 3d 1f
        E 0 90 40 00
        E 0 90 40 2c
        E 16 90 39 00
        E 25 90 39 3d
        E 5 90 31 00
        E 0 90 4c 1b
        E 5 90 45 00
        E 0 90 45 29
        E 36 90 49 31
        E 15 90 34 00
        E 6 90 39 00
        E 30 90 39 23
        E 5 90 2d 00
        E 0 90 45 00
        E 0 90 45 28
        E 0 90 4c 00
        E 0 90 4c 1d
        E 11 90 3d 00
        E 0 90 49 00
        E 5 90 40 00
        E 30 90 40 27
        E 57 90 4c 00
        E 5 90 39 00
        E 30 90 4a 37
        E 21 90 40 00
        E 41 90 4a 00
        E 5 90 45 00
        E 25 90 3c 1c
        E 0 90 40 1a
        E 0 90 4a 1f
        E 5 90 4f 25
        E 87 90 40 00
        E 0 90 40 29
        E 10 90 3c 00
        E 0 90 4a 00
        E 0 90 4f 00
        E 72 90 40 00
        E 71 e0 00 20
        E 0 90 32 26
        E 6 e0 00 20
        E 5 e0 00 20
        E 5 e0 00 20
        E 5 e0 00 20
        E 5 e0 00 20
        E 5 e0 00 20
        E 6 e0 00 20
        E 5 e0 00 20
        E 5 e0 00 20
        E 5 e0 00 20
        E 5 e0 00 20
        E 5 e0 00 20
        E 0 90 32 00
        E 16 90 26 20
        E 10 90 32 1f
        E 0 90 39 2e
        E 0 90 45 22
        E 51 90 36 2a
        E 0 90 3e 24
        E 15 90 32 00
        E 26 90 42 25
        E 41 90 32 23
        E 10 90 36 00
        E 5 90 39 00
        E 36 90 26 00
        E 0 90 4a 33
        E 15 90 45 00
        E 26 90 36 22
        E 5 90 45 23
        E 5 90 3e 00
        E 0 90 3e 39
        E 0 90 42 00
        E 0 90 42 27
        E 10 90 4a 00
        E 31 90 26 24
        E 20 90 45 00
        E 5 90 3e 00
        E 31 90 42 00
        E 0 90 42 20
        E 5 90 26 00
        E 26 90 36 00
        E 0 90 45 21
        E 45 90 3e 3e
        E 11 90 4a 1e
        E 51 90 3e 00
        E 25 90 3e 2a
        E 11 90 32 00
        E 0 90 45 00
        E 35 90 45 27
        E 11 90 4a 00
        E 5 90 3e 00
        E 0 90 42 00
        E 30 90 37 1c
        E 0 90 3e 20
        E 0 90 4a 2d
        E 16 90 45 00
        E 51 90 3e 00
        E 30 90 3b 12
        E 16 90 37 00
        E 5 90 4a 00
        E 25 90 4a 23
        E 51 90 4f 21
        E 46 90 42 15
        E 0 90 4a 00
        E 5 90 3b 00
        E 21 90 39 1c
        E 0 90 40 37
        E 16 90 4f 00
        E 30 90 3c 14
        E 0 90 3e 26
        E 21 90 40 00
        E 36 90 26 39
        E 10 90 3e 00
        E 0 90 3e 36
        E 5 90 32 27
        E 0 90 3c 00
        E 0 90 42 00
        E 0 90 42 22
        E 5 90 45 27
        E 51 90 4a 29
        E 5 90 26 00
        E 0 90 39 00
        E 0 90 3e 00
        E 0 90 3e 25
        E 5 90 42 00
        E 62 90 45 00
        E 20 90 26 18
        E 10 90 42 26
        E 5 90 4a 00
        E 0 90 4a 25
        E 62 90 42 00
        E 30 90 26 00
        E 6 90 3e 00
        E 0 90 3e 28
        E 0 90 4a 00
        E 0 90 4a 29
        E 45 90 37 21
        E 16 90 32 00
        E 5 90 3e 00
        E 31 90 4a 00
        E 0 90 4a 21
        E 40 90 45 2d
        E 6 90 3e 2b
        E 5 90 32 28
        E 46 90 4a 00
        E 0 90 4a 2f
        E 5 90 45 00
        E 41 90 37 00
        E 0 90 37 21
        E 10 90 3e 00
        E 25 90 3e 2f
        E 21 90 4a 00
        E 41 90 32 00
        E 0 90 32 23
        E 0 90 45 21
        E 46 90 3e 00
        E 0 90 3e 28
        E 15 90 37 00
        E 36 90 4a 31
        E 41 90 3e 00
        E 0 90 3e 2c
        E 15 90 4a 00
        E 82 90 3e 00
        E 0 90 3e 1d
        E 10 90 45 00
        E 31 90 43 2a
        E 5 90 37 30
        E 41 90 3e 00
        E 0 90 3e 30
        E 15 90 43 00
        E 11 90 37 00
        E 30 90 32 00
        E 0 90 32 23
        E 56 90 3e 00
        E 26 90 43 27
        E 5 90 37 35
        E 41 90 3e 26
        E 20 90 43 00
        E 11 90 37 00
        E 30 90 39 2d
        E 0 90 3e 00
        E 5 90 32 00
        E 0 90 32 32
        E 0 90 3e 2b
        E 36 90 36 2c
        E 5 90 42 30
        E 0 90 45 2a
        E 21 90 39 00
        E 25 90 2a 1f
        E 10 90 4a 24
        E 11 90 45 00
        E 5 90 32 00
        E 25 90 2d 1f
        E 0 90 45 21
        E 11 90 39 1f
        E 5 90 2a 00
        E 5 90 36 00
        E 0 90 42 00
        E 35 90 25 1e
        E 0 90 43 1b
        E 11 90 4a 00
        E 5 90 3e 00
        E 20 90 34 28
        E 5 90 39 00
        E 0 90 39 2a
        E 0 90 40 2a
        E 51 90 25 00
        E 6 90 45 00
        E 0 90 45 21
        E 5 90 34 00
        E 35 90 39 00
        E 0 90 39 2e
        E 11 90 40 00
        E 0 90 43 00
        E 20 90 26 33
        E 10 90 42 2c
        E 5 90 32 31
        E 0 90 4a 28
        E 6 90 2d 00
        E 10 90 39 00
        E 35 90 26 00
        E 0 90 3e 24
        E 32 90 4a 00
        E 61 90 32 00
        E 0 90 3e 00
        E 0 90 45 00
        E 5 90 42 00
        E 51 90 21 1c
        E 0 90 2d 23
        E 5 90 2a 10
        E 0 90 39 36
        E 5 90 36 17
        E 0 90 40 1a
        E 6 90 45 28
        E 71 90 39 00
        E 0 90 45 00
        E 41 90 2a 00
        E 5 90 39 20
        E 5 90 36 00
        E 36 90 32 14
        E 5 90 45 26
        E 41 90 3e 32
        E 10 90 40 00
        E 0 90 40 17
        E 46 90 32 00
        E 0 90 45 00
        E 0 90 45 29
        E 5 90 21 00
        E 5 90 3e 00
        E 31 90 3d 24
        E 0 90 4c 2f
        E 5 90 36 19
        E 0 90 40 00
        E 0 90 40 32
        E 5 90 49 2a
        E 46 90 45 00
        E 0 90 45 2d
        E 5 90 3d 00
        E 5 90 40 00
        E 0 90 4c 00
        E 5 90 49 00
        E 26 90 3e 30
        E 0 90 42 39
        E 5 90 4a 26
        E 0 90 4e 2d
        E 5 90 2d 00
        E 51 90 45 00
        E 0 90 45 20
        E 5 90 36 00
        E 0 90 3e 00
        E 0 90 42 00
        E 0 90 4e 00
        E 36 90 2d 17
        E 0 90 40 23
        E 0 90 43 16
        E 0 90 4c 2f
        E 15 90 4a 00
        E 21 90 26 12
        E 15 90 45 00
        E 0 90 45 29
        E 10 90 4c 00
        E 41 90 26 00
        E 0 90 3e 15
        E 0 90 43 00
        E 11 90 2d 00
        E 0 90 40 00
        E 10 90 39 00
        E 0 90 45 00
        E 20 90 4a 23
        E 51 90 32 35
        E 0 90 3e 00
        E 5 90 3e 38
        E 5 90 45 26
        E 11 90 4a 00
        E 36 90 26 24
        E 10 90 3e 00
        E 0 90 3e 21
        E 5 90 32 00
        E 5 90 32 22
        E 0 90 45 00
        E 41 90 42 1f
        E 5 90 36 1f
        E 16 90 3e 00
        E 20 90 2a 25
        E 5 90 45 21
        E 5 90 39 23
        E 36 90 3e 39
        E 10 90 4a 2f
        E 5 90 2a 00
        E 46 90 3e 00
        E 0 90 45 00
        E 6 90 3e 33
        E 0 90 42 00
        E 0 90 45 2c
        E 56 90 26 00
        E 5 90 32 00
        E 5 90 3e 00
        E 0 90 45 00
        E 0 90 4a 00
        E 20 90 32 24
        E 0 90 42 38
        E 6 90 3e 35
        E 0 90 45 2d
        E 0 90 4a 2a
        E 0 90 51 1e
        E 5 90 4e 22
        E 46 90 3b 11
        E 15 90 42 00
        E 5 90 3e 00
        E 26 90 3e 3a
        E 0 90 42 26
        E 5 90 4e 00
        E 0 90 4e 2e
        E 5 90 45 00
        E 0 90 45 1c
        E 0 90 51 00
        E 5 90 39 00
        E 56 90 42 00
        E 5 90 3e 00
        E 0 90 4a 00
        E 0 90 4e 00
        E 41 90 3b 00
        E 5 90 45 00
        E 46 90 3e 27
        E 5 90 42 36
        E 16 90 36 00
        E 30 90 39 1b
        E 16 90 26 26
        E 0 90 32 00
        E 0 90 32 2d
        E 15 90 42 00
        E 20 90 36 23
        E 11 90 2a 27
        E 10 90 3e 00
        E 5 90 32 00
        E 31 90 2d 27
        E 40 90 3e 25
        E 5 90 32 26
        E 0 90 45 20
        E 21 90 2d 00
        E 20 90 42 26
        E 47 90 2d 16
        E 0 90 45 00
        E 5 90 2a 00
        E 0 90 39 00
        E 0 90 45 21
        E 5 90 36 00
        E 31 90 3e 00
        E 5 90 26 00
        E 0 90 3e 27
        E 46 90 42 00
        E 0 90 42 25
        E 0 90 45 00
        E 0 90 45 24
        E 46 90 2d 00
        E 0 90 3e 00
        E 0 90 3e 37
        E 36 90 36 1d
        E 0 90 51 25
        E 20 90 42 00
        E 5 90 3e 00
        E 26 90 3e 1d
        E 10 90 36 00
        E 0 90 51 00
        E 5 90 32 00
        E 0 90 45 00
        E 31 90 2f 31
        E 81 90 2f 00
        E 11 90 3e 00
        E 66 e0 00 60
        E 0 90 37 2f
        E 5 e0 00 60
        E 6 e0 55 6a
        E 5 e0 00 60
        E 6 e0 2b 15
        E 5 e0 55 0a
        E 5 e0 55 0a
        E 6 e0 55 0a
        E 5 e0 55 0a
        E 6 e0 00 00
        E 5 e0 55 0a
        E 5 e0 2b 15
        E 6 e0 00 20
        E 5 e0 00 20
        E 5 e0 00 20
        E 6 e0 00 20
        E 5 e0 00 20
        E 6 e0 00 20
        E 5 e0 2b 15
        E 0 90 37 00
        E 5 90 37 24
        E 0 90 43 1c
        E 36 90 2b 26
        E 51 90 34 20
        E 5 90 40 1d
        E 5 90 2b 00
        E 5 90 37 00
        E 5 90 43 00
        E 21 90 21 17
        E 10 90 39 2d
        E 56 90 40 00
        E 0 90 40 2b
        E 5 90 39 00
        E 5 90 21 00
        E 0 90 34 00
        E 21 90 37 16
        E 56 90 40 00
        E 31 90 26 21
        E 5 90 3e 39
        E 10 90 32 28
        E 0 90 3b 10
        E 1 90 45 1c
        E 10 90 37 00
        E 0 90 4a 1d
        E 41 90 3e 00
        E 5 90 26 00
        E 0 90 3b 00
        E 0 90 3e 23
        E 41 90 36 28
        E 56 90 45 00
        E 5 90 32 00
        E 0 90 36 00
        E 5 90 3e 00
        E 0 90 4a 00
        E 77 90 45 1a
        E 41 90 47 15
        E 51 90 45 00
        E 46 90 4a 1f
        E 30 90 4c 2c
        E 5 90 39 21
        E 0 90 40 20
        E 0 90 45 29
        E 57 90 4c 00
        E 10 90 39 00
        E 0 90 45 00
        E 36 90 4f 2b
        E 5 90 40 00
        E 0 90 47 00
        E 41 90 39 2f
        E 0 90 3e 28
        E 20 90 4a 00
        E 0 90 4f 00
        E 26 90 2a 2f
        E 5 90 26 2a
        E 0 90 2d 21
        E 0 90 32 26
        E 0 90 45 23
        E 10 90 39 00
        E 36 90 36 1f
        E 20 90 3e 00
        E 5 90 45 00
        E 5 90 1e 22
        E 16 90 2a 00
        E 0 90 39 20
        E 0 90 42 1a
        E 5 90 2a 29
        E 46 90 3e 26
        E 5 90 2d 00
        E 5 90 2d 26
        E 0 90 32 00
        E 0 90 32 26
        E 5 90 1e 00
        E 0 90 42 00
        E 10 90 2a 00
        E 26 90 45 20
        E 5 90 39 00
        E 41 90 3e 00
        E 5 90 3e 2c
        E 0 90 4a 21
        E 10 90 26 00
        E 26 90 51 28
        E 5 90 4e 22
        E 5 90 2d 00
        E 0 90 36 00
        E 41 90 3e 00
        E 0 90 3e 24
        E 0 90 45 00
        E 0 90 45 20
        E 10 90 51 00
        E 98 90 45 00
        E 0 90 4e 00
        E 30 90 3b 19
        E 0 90 3e 00
        E 0 90 3e 2a
        E 0 90 42 15
        E 0 90 4a 00
        E 0 90 4a 1c
        E 0 90 4e 2d
        E 67 90 36 0e
        E 0 90 42 00
        E 5 90 42 1c
        E 5 90 3b 00
        E 10 90 4e 00
        E 20 90 26 25
        E 6 90 32 00
        E 0 90 32 2b
        E 15 90 4a 00
        E 5 90 3e 00
        E 31 90 2a 1d
        E 0 90 36 00
        E 5 90 36 22
        E 0 90 42 00
        E 0 90 42 23
        E 15 90 32 00
        E 31 90 39 26
        E 36 90 32 20
        E 0 90 3e 35
        E 10 90 45 24
        E 0 90 4a 2f
        E 56 90 36 00
        E 0 90 36 23
        E 0 90 3e 00
        E 0 90 42 00
        E 0 90 42 2e
        E 5 90 26 00
        E 0 90 2a 00
        E 0 90 3e 20
        E 10 90 4a 00
        E 46 90 32 00
        E 0 90 42 00
        E 5 90 45 00
        E 46 90 39 00
        E 5 90 36 00
        E 31 90 42 19
        E 36 90 32 24
        E 5 90 3e 00
        E 0 90 3e 2e
        E 0 90 45 27
        E 51 90 2f 1c
        E 0 90 51 31
        E 10 90 45 00
        E 31 90 3b 21
        E 0 90 45 30
        E 20 90 3e 00
        E 0 90 51 00
        E 26 90 3e 2a
        E 5 90 4a 2b
        E 15 90 45 00
        E 21 90 23 29
        E 11 90 26 29
        E 0 90 2f 00
        E 5 90 2f 33
        E 10 90 4a 00
        E 30 90 3e 00
        E 0 90 3e 1a
        E 11 90 42 00
        E 10 90 32 00
        E 31 90 23 00
        E 0 90 26 00
        E 15 90 3b 00
        E 5 90 2f 00
        E 20 90 2b 2d
        E 0 90 34 21
        E 0 90 37 2b
        E 6 90 39 12
        E 5 90 40 26
        E 5 90 43 29
        E 51 90 2f 3a
        E 5 90 2b 00
        E 0 90 39 00
        E 5 90 2b 28
        E 0 90 34 00
        E 5 90 37 00
        E 0 90 43 00
        E 5 90 40 00
        E 51 90 2f 00
        E 0 90 3e 00
        E 31 90 37 20
        E 26 90 21 26
        E 5 90 2d 34
        E 0 90 31 1f
        E 10 90 3d 1d
        E 0 90 40 30
        E 15 90 2b 00
        E 46 90 40 00
        E 0 90 40 20
        E 5 90 2d 00
        E 0 90 37 00
        E 31 90 31 00
        E 0 90 3d 00
        E 0 90 3d 2a
        E 5 90 31 30
        E 5 90 21 00
        E 31 90 2a 1f
        E 5 90 2d 29
        E 5 90 39 2c
        E 15 90 31 00
        E 0 90 3d 00
        E 0 90 40 00
        E 36 90 32 38
        E 0 90 36 1f
        E 5 90 26 2a
        E 5 90 2a 00
        E 0 90 3e 36
        E 0 90 42 2a
        E 5 90 2d 00
        E 0 90 39 00
        E 62 90 26 00
        E 5 90 32 00
        E 0 90 3e 00
        E 15 90 2a 20
        E 26 90 42 00
        E 41 90 26 1d
        E 5 90 36 00
        E 5 90 32 28
        E 0 90 36 23
        E 5 90 2a 00
        E 0 90 3e 1b
        E 61 90 36 00
        E 41 90 26 00
        E 0 90 32 00
        E 0 90 32 1d
        E 36 90 36 23
        E 6 90 2a 33
        E 20 90 3e 00
        E 36 90 2d 3d
        E 0 90 39 29
        E 10 90 32 00
        E 5 90 36 00
        E 36 90 2a 00
        E 36 90 2d 00
        E 10 90 39 00
        E 36 90 1a 25
        E 25 90 26 39
        E 92 90 1a 00
        E 26 90 26 00
        E 362 e0 2b 15
        E 0 90 3e 24
        E 6 e0 2b 15
        E 5 e0 2b 15
        E 5 e0 00 20
        E 6 e0 00 20
        E 5 e0 00 20
        E 5 e0 00 20
        E 6 e0 00 20
        E 5 e0 00 20
        E 6 e0 00 20
        E 5 e0 00 20
        E 5 e0 00 20
        E 6 e0 00 20
        E 5 e0 00 20
        E 5 e0 00 20
        E 6 e0 00 20
        E 5 e0 00 20
        E 5 e0 00 20
        E 6 e0 00 20
        E 5 e0 00 20
        E 6 e0 00 20
        E 0 90 3e 00
        E 0 90 3e 1d
        E 5 e0 00 20
        E 5 e0 00 20
        E 5 e0 00 20
        E 5 e0 00 20
        E 5 e0 00 20
        E 5 e0 00 20
        E 6 e0 00 20
        E 5 e0 00 20
        E 5 e0 00 20
        E 5 e0 00 20
        E 5 e0 00 20
        E 5 e0 00 20
        E 5 e0 00 20
        E 0 90 3e 00
        E 0 90 3e 2c
        E 6 90 37 14
        E 0 90 4a 2f
        E 51 90 32 21
        E 5 90 42 2b
        E 0 90 4e 25
        E 5 90 37 00
        E 0 90 3e 00
        E 0 90 3e 1e
        E 10 90 4a 00
        E 56 90 3e 00
        E 0 90 3e 2f
        E 5 90 4a 26
        E 0 90 4e 00
        E 0 90 4e 1f
        E 11 90 42 00
        E 56 90 3b 1d
        E 0 90 42 10
        E 5 90 4e 00
        E 0 90 4e 22
        E 5 90 4a 00
        E 0 90 4a 1e
        E 51 90 42 00
        E 5 90 36 1b
        E 0 90 42 28
        E 10 90 4a 00
        E 0 90 4a 23
        E 0 90 4e 00
        E 0 90 4e 26
        E 6 90 3b 00
        E 10 90 3e 00
        E 46 90 3e 35
        E 5 90 36 00
        E 0 90 42 00
        E 0 90 42 25
        E 5 90 4a 00
        E 0 90 4a 28
        E 5 90 32 00
        E 5 90 4e 00
        E 67 90 42 00
        E 5 90 3e 00
        E 5 90 4a 00
        E 61 90 26 27
        E 5 90 32 2b
        E 5 90 3e 20
        E 87 90 32 00
        E 56 90 32 1b
        E 5 90 3e 00
        E 0 90 3e 2c
        E 0 90 4a 2e
        E 6 90 42 22
        E 5 90 26 00
        E 51 90 2f 1b
        E 5 90 32 00
        E 0 90 3e 00
        E 0 90 3e 2e
        E 0 90 4a 00
        E 0 90 4a 26
        E 5 90 42 00
        E 0 90 42 2e
        E 61 90 32 1e
        E 0 90 36 28
        E 0 90 3b 17
        E 11 90 3e 00
        E 0 90 3e 29
        E 0 90 4a 00
        E 0 90 4a 27
        E 5 90 42 00
        E 0 90 42 2d
        E 56 90 2f 00
        E 0 90 32 00
        E 0 90 3b 00
        E 0 90 3e 00
        E 0 90 3e 2d
        E 0 90 4a 00
        E 0 90 4a 2a
        E 5 90 42 00
        E 0 90 42 30
        E 6 90 36 00
        E 71 90 3e 00
        E 5 90 4a 00
        E 5 90 42 00
        E 57 90 32 1b
        E 5 90 2f 1b
        E 0 90 36 21
        E 0 90 3e 2d
        E 5 90 42 36
        E 0 90 4a 35
        E 51 90 3b 2d
        E 5 90 3e 00
        E 0 90 3e 21
        E 5 90 32 00
        E 10 90 36 00
        E 5 90 42 00
        E 0 90 4a 00
        E 62 90 3b 00
        E 0 90 3b 2f
        E 0 90 47 1e
        E 5 90 2f 00
        E 46 90 2f 2a
        E 10 90 42 2c
        E 5 90 3b 00
        E 0 90 3b 1e
        E 5 90 3e 00
        E 0 90 47 00
        E 46 90 32 2d
        E 15 90 3b 00
        E 0 90 3b 2b
        E 11 90 2f 00
        E 5 90 42 00
        E 56 90 37 28
        E 5 90 43 25
        E 10 90 32 00
        E 5 90 3b 00
        E 36 90 2a 1e
        E 5 90 34 1d
        E 11 90 40 24
        E 5 90 37 00
        E 0 90 37 2b
        E 0 90 43 00
        E 0 90 43 2f
        E 61 90 2a 00
        E 5 90 40 00
        E 0 90 40 1c
        E 15 90 37 00
        E 5 90 43 00
        E 31 90 2d 25
        E 5 90 21 1b
        E 5 90 3d 1b
        E 11 90 39 2c
        E 66 90 21 00
        E 0 90 36 19
        E 5 90 39 00
        E 0 90 39 26
        E 0 90 40 00
        E 0 90 40 27
        E 66 90 3d 00
        E 0 90 40 00
        E 0 90 40 1b
        E 0 90 43 29
        E 6 90 34 00
        E 0 90 36 00
        E 5 90 2d 00
        E 0 90 39 00
        E 41 90 26 28
        E 15 90 32 28
        E 0 90 3e 23
        E 0 90 45 2d
        E 11 90 43 00
        E 46 90 26 00
        E 5 90 39 18
        E 5 90 45 00
        E 0 90 45 1c
        E 10 90 40 00
        E 46 90 2b 1e
        E 5 90 41 10
        E 5 90 39 00
        E 0 90 3e 00
        E 0 90 3e 23
        E 0 90 47 26
        E 21 90 32 00
        E 41 90 41 00
        E 10 90 2b 00
        E 5 90 45 00
        E 5 90 47 00
        E 46 90 34 20
        E 0 90 37 1c
        E 0 90 40 25
        E 10 90 45 17
        E 0 90 4a 26
        E 10 90 3e 00
        E 57 90 34 00
        E 0 90 37 00
        E 0 90 4a 00
        E 5 90 40 00
        E 0 90 45 00
        E 117 90 24 16
        E 5 90 40 24
        E 72 90 24 00
        E 10 90 40 00
        E 158 90 37 13
        E 0 90 40 24
        E 11 90 43 27
        E 61 90 37 00
        E 0 90 3e 2a
        E 10 90 43 00
        E 5 90 40 00
        E 47 90 36 24
        E 5 90 32 1c
        E 5 90 42 2c
        E 5 90 3e 00
        E 0 90 3e 2e
        E 72 90 32 00
        E 5 90 42 00
        E 0 90 42 21
        E 5 90 36 00
        E 10 90 3e 00
        E 0 90 3e 2b
        E 46 90 42 00
        E 0 90 42 30
        E 5 90 32 1d
        E 0 90 45 23
        E 5 90 4a 34
        E 41 90 4e 22
        E 10 90 26 20
        E 5 90 3e 00
        E 0 90 3e 27
        E 0 90 42 00
        E 0 90 42 25
        E 0 90 45 00
        E 6 90 4a 00
        E 51 90 2f 20
        E 0 90 36 1c
        E 5 90 4a 23
        E 5 90 42 00
        E 0 90 42 26
        E 5 90 3e 00
        E 0 90 3e 2b
        E 5 90 4e 00
        E 46 90 36 00
        E 5 90 36 25
        E 0 90 42 00
        E 0 90 42 36
        E 5 90 3e 00
        E 0 90 3e 2c
        E 67 90 2f 00
        E 5 90 32 00
        E 5 90 26 00
        E 0 90 36 00
        E 0 90 3e 00
        E 0 90 4a 00
        E 10 90 42 00
        E 56 90 42 20
        E 67 90 2a 1a
        E 5 90 36 2b
        E 5 90 3e 2c
        E 61 90 4a 24
        E 5 90 2a 00
        E 0 90 42 00
        E 5 90 36 00
        E 0 90 36 29
        E 0 90 3e 00
        E 0 90 3e 27
        E 0 90 42 20
        E 82 90 3e 00
        E 0 90 3e 2a
        E 0 90 4a 00
        E 5 90 36 00
        E 0 90 42 00
        E 67 90 42 25
        E 5 90 36 22
        E 15 90 3e 00
        E 62 90 3e 26
        E 51 90 4a 2a
        E 36 90 32 22
        E 5 90 2f 26
        E 5 90 3b 1e
        E 5 90 3e 00
        E 0 90 3e 2e
        E 15 90 4a 00
        E 6 90 42 00
        E 46 90 3b 00
        E 5 90 32 00
        E 0 90 3b 2c
        E 5 90 42 19
        E 56 90 32 1d
        E 5 90 42 00
        E 0 90 4a 26
        E 5 90 42 2f
        E 10 90 3e 00
        E 46 90 3e 23
        E 11 90 2f 00
        E 0 90 32 00
        E 0 90 3b 00
        E 0 90 3b 25
        E 5 90 36 00
        E 0 90 4a 00
        E 5 90 42 00
        E 41 90 43 23
        E 15 90 37 23
        E 10 90 3b 00
        E 0 90 3e 00
        E 46 90 2b 26
        E 10 90 40 2c
        E 0 90 43 00
        E 6 90 43 32
        E 46 90 25 19
        E 5 90 34 23
        E 10 90 40 00
        E 0 90 40 1b
        E 0 90 47 23
        E 5 90 2b 00
        E 15 90 43 00
        E 36 90 2d 1d
        E 5 90 21 13
        E 10 90 40 00
        E 0 90 40 21
        E 5 90 37 00
        E 6 90 47 00
        E 51 90 21 00
        E 0 90 31 1b
        E 10 90 25 00
        E 5 90 3d 31
        E 0 90 40 00
        E 0 90 40 37
        E 66 90 2d 00
        E 0 90 31 00
        E 11 90 34 00
        E 0 90 3d 00
        E 10 90 40 00
        E 51 90 26 1b
        E 5 90 36 20
        E 5 90 3e 31
        E 0 90 4a 2c
        E 10 90 42 23
        E 52 90 26 00
        E 0 90 39 26
        E 5 90 3e 00
        E 0 90 3e 23
        E 5 90 36 00
        E 10 90 4a 00
        E 52 90 36 1d
        E 5 90 39 00
        E 5 90 39 29
        E 61 90 36 00
        E 5 90 36 1f
        E 5 90 39 00
        E 56 90 39 1f
        E 6 90 32 31
        E 0 90 36 00
        E 0 90 36 23
        E 5 90 3e 00
        E 0 90 3e 1f
        E 10 90 42 00
        E 61 90 2d 20
        E 0 90 39 00
        E 10 90 36 00
        E 0 90 3e 00
        E 5 90 32 00
        E 98 90 1a 2b
        E 15 90 26 2c
        E 0 90 32 29
        E 15 90 2d 00
        E 82 90 1a 00
        E 0 90 32 00
        E 128 90 26 00
        E 107 90 26 20
        E 0 90 2f 22
        E 5 90 32 41
        E 10 90 3e 3c
        E 51 90 26 00
        E 0 90 2f 00
        E 11 90 32 00
        E 5 90 3e 00
        E 148 90 32 21
        E 5 90 2e 1b
        E 0 90 37 1c
        E 6 90 3e 2f
        E 0 90 4a 2b
        E 56 90 42 21
        E 10 90 3e 00
        E 0 90 3e 33
        E 0 90 4a 00
        E 0 90 4a 22
        E 0 90 4e 1c
        E 5 90 37 00
        E 51 90 24 22
        E 16 90 42 00
        E 0 90 42 25
        E 0 90 4e 00
        E 0 90 4e 28
        E 5 90 2e 00
        E 0 90 4a 00
        E 0 90 4a 20
        E 15 90 3e 00
        E 46 90 3e 28
        E 5 90 24 00
        E 5 90 32 00
        E 0 90 4a 00
        E 0 90 4a 27
        E 0 90 4e 00
        E 0 90 4e 24
        E 5 90 42 00
        E 67 90 3e 00
        E 0 90 3e 27
        E 0 90 42 26
        E 5 90 4a 00
        E 0 90 4a 1e
        E 5 90 4e 00
        E 56 90 32 29
        E 0 90 4e 30
        E 5 90 36 1a
        E 0 90 3b 24
        E 5 90 4a 00
        E 0 90 4a 2c
        E 67 90 32 00
        E 0 90 36 00
        E 0 90 3b 00
        E 5 90 4e 00
        E 5 90 3e 00
        E 0 90 42 00
        E 0 90 4a 00
        E 66 90 36 20
        E 0 90 39 27
        E 5 90 26 28
        E 6 90 32 2c
        E 5 90 3e 22
        E 71 90 26 00
        E 0 90 36 00
        E 0 90 39 00
        E 10 90 32 00
        E 46 90 2a 20
        E 5 90 36 1c
        E 11 90 4a 2a
        E 5 90 3e 00
        E 0 90 3e 27
        E 0 90 42 1f
        E 66 90 2a 00
        E 0 90 3e 00
        E 0 90 3e 26
        E 0 90 42 00
        E 0 90 42 28
        E 0 90 4a 00
        E 0 90 4a 21
        E 67 90 3e 00
        E 0 90 3e 25
        E 0 90 42 00
        E 0 90 42 2c
        E 0 90 4a 00
        E 0 90 4a 28
        E 72 90 3e 00
        E 0 90 3e 25
        E 0 90 4a 00
        E 0 90 4a 29
        E 5 90 42 00
        E 0 90 42 2f
        E 56 90 2f 1a
        E 10 90 3e 00
        E 0 90 3e 29
        E 0 90 4a 00
        E 0 90 4a 25
        E 5 90 42 00
        E 0 90 42 2c
        E 5 90 36 00
        E 62 90 3e 00
        E 0 90 3e 22
        E 0 90 4a 00
        E 0 90 4a 27
        E 5 90 2f 00
        E 0 90 42 00
        E 0 90 42 2b
        E 66 90 3e 00
        E 0 90 3e 1c
        E 5 90 42 00
        E 0 90 42 20
        E 16 90 4a 00
        E 35 90 2f 25
        E 21 90 3b 2e
        E 0 90 3e 00
        E 5 90 42 00
        E 61 90 3e 31
        E 0 90 4a 1e
        E 10 90 3b 00
        E 0 90 3b 2b
        E 62 90 2f 00
        E 10 90 4a 00
        E 5 90 3b 00
        E 0 90 3e 00
        E 56 90 37 2e
        E 0 90 3e 11
        E 5 90 43 2d
        E 57 90 34 24
        E 5 90 3e 00
        E 0 90 40 24
        E 5 90 43 00
        E 0 90 43 2f
        E 71 90 40 00
        E 0 90 40 20
        E 11 90 34 00
        E 5 90 37 00
        E 0 90 43 00
        E 30 90 2d 23
        E 36 90 40 00
        E 47 90 3d 1f
        E 81 90 2d 00
        E 0 90 3d 00
        E 57 90 26 2b
        E 15 90 45 27
        E 5 90 32 27
        E 0 90 3e 28
        E 61 90 26 00
        E 0 90 34 18
        E 10 90 45 00
        E 0 90 45 23
        E 6 90 4a 12
        E 56 90 47 23
        E 5 90 34 00
        E 0 90 4a 00
        E 10 90 3e 00
        E 0 90 45 00
        E 5 90 32 00
        E 51 90 3e 25
        E 16 90 47 00
        E 46 90 34 1f
        E 5 90 40 10
        E 5 90 45 18
        E 5 90 4a 29
        E 10 90 3e 00
        E 46 90 34 00
        E 0 90 40 00
        E 5 90 34 1e
        E 0 90 40 1d
        E 10 90 45 00
        E 6 90 4a 00
        E 61 90 4a 1d
        E 5 90 34 00
        E 61 90 40 00
        E 0 90 40 25
        E 16 90 4a 00
        E 56 90 50 2a
        E 10 90 40 00
        E 56 90 50 00
        E 41 90 21 1a
        E 72 90 40 26
        E 5 90 21 00
        E 77 90 3e 27
        E 0 90 42 12
        E 10 90 40 00
        E 51 90 2f 1d
        E 5 90 42 00
        E 5 90 42 2a
        E 6 90 3e 00
        E 0 90 3e 2e
        E 66 90 36 19
        E 0 90 45 1f
        E 0 90 4a 23
        E 5 90 42 00
        E 0 90 42 1d
        E 0 90 51 25
        E 5 90 3e 00
        E 0 90 3e 1e
        E 61 90 3e 00
        E 0 90 3e 26
        E 0 90 42 00
        E 0 90 42 29
        E 6 90 45 00
        E 5 90 51 00
        E 46 90 4a 00
        E 5 90 26 1e
        E 5 90 32 1f
        E 0 90 42 00
        E 0 90 42 27
        E 5 90 3e 00
        E 0 90 3e 30
        E 56 90 3b 14
        E 0 90 4a 24
        E 5 90 42 00
        E 0 90 42 2e
        E 5 90 3e 00
        E 0 90 3e 2d
        E 57 90 3b 00
        E 0 90 42 00
        E 0 90 42 3a
        E 5 90 3e 00
        E 0 90 3e 2b
        E 66 90 26 00
        E 0 90 32 00
        E 5 90 2f 00
        E 0 90 36 00
        E 5 90 3e 00
        E 0 90 4a 00
        E 11 90 42 00
        E 71 90 42 23
        E 61 90 36 27
        E 0 90 3e 1d
        E 72 90 3e 00
        E 5 90 36 00
        E 0 90 36 28
        E 0 90 3e 2a
        E 10 90 42 00
        E 67 90 3e 00
        E 0 90 3e 22
        E 5 90 36 00
        E 72 90 36 26
        E 0 90 42 25
        E 51 90 3e 00
        E 0 90 3e 2c
        E 76 90 2a 1a
        E 0 90 4a 2c
        E 6 90 36 00
        E 0 90 36 27
        E 0 90 3e 00
        E 0 90 3e 32
        E 51 90 2f 23
        E 5 90 3b 17
        E 5 90 36 00
        E 0 90 36 23
        E 5 90 2a 00
        E 10 90 3e 00
        E 0 90 42 00
        E 0 90 4a 00
        E 51 90 3b 00
        E 5 90 36 00
        E 0 90 36 25
        E 0 90 3b 31
        E 0 90 3e 15
        E 62 90 3e 00
        E 5 90 3e 2f
        E 10 90 3b 00
        E 0 90 3b 2f
        E 0 90 42 2b
        E 77 90 2f 00
        E 5 90 36 00
        E 5 90 3b 00
        E 0 90 42 00
        E 5 90 3e 00
        E 51 90 37 29
        E 5 90 3b 18
        E 56 90 43 24
        E 11 90 3b 00
        E 81 90 37 00
        E 0 90 43 00
        E 36 90 2d 2e
        E 26 90 39 21
        E 56 90 27 1c
        E 5 90 3d 21
        E 6 90 40 32
        E 5 90 2d 00
        E 66 90 27 00
        E 0 90 3d 00
        E 10 90 39 00
        E 5 90 40 00
        E 57 90 36 21
        E 5 90 3e 38
        E 5 90 4a 24
        E 5 90 42 2b
        E 46 90 32 28
        E 10 90 39 19
        E 5 90 3e 00
        E 0 90 3e 29
        E 16 90 4a 00
        E 51 90 39 00
        E 5 90 39 34
        E 5 90 32 00
        E 15 90 3e 00
        E 5 90 42 00
        E 51 90 32 1d
        E 0 90 3e 2c
        E 6 90 36 00
        E 10 90 39 00
        E 35 90 36 1e
        E 16 90 32 00
        E 5 90 32 2a
        E 10 90 3e 00
        E 77 90 32 00
        E 0 90 36 00
        E 102 e0 55 0a
        E 0 90 26 36
        E 5 e0 55 0a
        E 6 e0 55 6a
        E 5 e0 55 6a
        E 5 e0 55 6a
        E 6 e0 55 6a
        E 5 e0 2b 15
        E 5 e0 2b 15
        E 6 e0 2b 15
        E 5 e0 2b 15
        E 5 e0 00 20
        E 6 e0 00 20
        E 5 e0 2b 15
        E 5 e0 2b 15
        E 6 e0 2b 15
        E 5 e0 2b 15
        E 6 e0 2b 15
        E 5 e0 00 20
        E 5 e0 00 20
        E 6 e0 00 20
        E 5 e0 00 20
        E 5 e0 00 20
        E 0 90 26 00
        E 277 90 2d 34
        E 46 90 39 2f
        E 66 90 2d 00
        E 0 90 39 00
        E 72 90 40 28
        E 66 90 2d 20
        E 5 90 43 1c
        E 67 90 3d 2b
        E 10 90 49 33
        E 61 90 39 2a
        E 15 90 3d 00
        E 0 90 43 00
        E 6 90 40 00
        E 5 90 49 00
        E 46 90 21 19
        E 0 90 3d 24
        E 5 90 33 16
        E 0 90 45 0c
        E 0 90 49 21
        E 5 90 4f 1b
        E 56 90 21 00
        E 0 90 40 37
        E 0 90 43 28
        E 0 90 45 00
        E 5 90 33 00
        E 0 90 45 22
        E 0 90 4c 26
        E 72 90 4c 00
        E 0 90 4c 22
        E 5 90 4f 00
        E 5 90 2d 00
        E 0 90 3d 00
        E 0 90 43 00
        E 0 90 45 00
        E 0 90 49 00
        E 5 90 39 00
        E 0 90 40 00
        E 87 90 4c 00
        E 72 90 45 29
        E 71 90 4a 25
        E 16 90 45 00
        E 56 e0 2b 15
        E 0 90 4a 00
        E 0 90 4a 22
        E 5 e0 2b 15
        E 6 e0 2b 15
        E 5 e0 2b 15
        E 6 e0 00 20
        E 5 e0 00 20
        E 6 e0 00 20
        E 5 e0 00 20
        E 6 e0 00 20
        E 5 e0 00 20
        E 6 e0 00 20
        E 5 e0 00 20
        E 6 e0 00 60
        E 5 e0 55 6a
        E 0 90 3e 1c
        E 0 90 4a 00
        E 0 90 4a 1d
        E 6 90 45 13
        E 61 90 39 24
        E 5 90 45 00
        E 0 90 4a 00
        E 0 90 4a 1b
        E 5 90 3e 00
        E 0 90 45 23
        E 66 90 4a 00
        E 6 90 45 00
        E 5 90 39 00
        E 224 90 26 23
        E 6 90 42 24
        E 5 90 32 28
        E 5 90 3e 2b
        E 61 90 36 26
        E 10 90 39 25
        E 0 90 42 00
        E 0 90 42 2a
        E 5 90 45 32
        E 62 90 26 00
        E 5 90 36 00
        E 0 90 39 00
        E 0 90 3e 00
        E 0 90 3e 26
        E 0 90 4e 27
        E 0 90 51 29
        E 10 90 42 00
        E 5 90 45 00
        E 42 90 42 26
        E 0 90 45 2a
        E 5 90 3e 00
        E 0 90 3e 37
        E 0 90 4a 23
        E 10 90 4e 00
        E 5 90 51 00
        E 56 90 4a 00
        E 0 90 4a 25
        E 10 90 32 00
        E 0 90 42 00
        E 0 90 45 00
        E 6 90 3e 00
        E 51 90 3e 2f
        E 10 90 4a 00
        E 0 90 4a 2a
        E 0 90 56 29
        E 87 90 3e 00
        E 0 90 4a 00
        E 0 90 56 00
        E 270 90 26 2d
        E 6 90 32 26
        E 76 90 3e 27
        E 77 90 26 00
        E 5 90 32 00
        E 0 90 3e 00
        E 46 90 3c 10
        E 5 90 34 10
        E 0 90 39 1a
        E 66 90 34 00
        E 0 90 3c 00
        E 0 90 40 18
        E 11 90 39 00
        E 46 90 32 1a
        E 10 90 40 00
        E 51 90 24 15
        E 0 90 3f 1e
        E 6 90 32 00
        E 61 90 2e 1b
        E 5 90 24 00
        E 10 90 3f 00
        E 61 90 2e 00
        E 338 90 37 23
        E 5 90 31 10
        E 5 90 3f 14
        E 5 90 53 16
        E 61 90 31 00
        E 5 e0 55 0a
        E 0 90 37 00
        E 0 90 3f 00
        E 0 90 52 1a
        E 0 90 53 00
        E 6 e0 2b 15
        E 5 e0 00 20
        E 6 e0 55 2a
        E 6 e0 00 20
        E 5 e0 00 20
        E 6 e0 00 20
        E 5 e0 00 20
        E 6 e0 55 2a
        E 6 e0 00 20
        E 5 e0 00 20
        E 6 e0 00 20
        E 0 90 52 00
        E 363 90 3e 35
        E 61 90 36 22
        E 5 90 42 2a
        E 16 90 3e 00
        E 61 90 36 00
        E 5 90 42 00
        E 123 e0 55 2a
        E 0 90 36 22
        E 5 e0 00 20
        E 6 e0 00 20
        E 5 e0 00 20
        E 5 e0 00 20
        E 6 e0 00 20
        E 5 e0 55 2a
        E 6 e0 55 2a
        E 5 e0 55 2a
        E 6 e0 2b 35
        E 5 e0 2b 35
        E 6 e0 2b 35
        E 5 e0 00 60
        E 5 e0 00 60
        E 6 e0 2b 15
        E 5 e0 00 20
        E 0 90 36 00
        E 92 90 21 32
        E 16 90 3d 32
        E 71 90 3d 00
        E 5 90 21 00
        E 200 90 2f 1e
        E 5 90 3e 28
        E 67 90 2f 00
        E 10 90 3e 00
        E 128 90 24 20
        E 10 90 2c 1a
        E 10 90 37 28
        E 66 90 24 00
        E 0 90 3f 29
        E 5 90 2c 00
        E 0 90 42 1e
        E 11 90 37 00
        E 66 90 3f 00
        E 0 90 42 00
        E 72 90 38 1c
        E 61 90 41 20
        E 77 90 38 00
        E 0 90 41 00
        E 76 90 2d 3c
        E 0 90 39 27
        E 67 90 21 2f
        E 15 90 3d 2e
        E 15 90 39 00
        E 10 90 2d 00
        E 46 90 34 21
        E 11 90 25 1b
        E 5 90 2d 28
        E 0 90 31 34
        E 0 90 39 27
        E 10 90 21 00
        E 5 90 3d 00
        E 52 90 21 20
        E 0 90 34 00
        E 5 90 34 1d
        E 5 90 3d 20
        E 0 90 40 17
        E 15 90 31 00
        E 41 90 2d 00
        E 15 90 21 00
        E 0 90 39 00
        E 0 90 3d 00
        E 0 90 40 00
        E 128 90 25 00
        E 0 90 3b 26
        E 10 90 34 00
        E 77 90 3b 00
        E 184 90 3e 25
        E 168 90 32 28
        E 0 90 36 18
        E 6 90 42 22
        E 0 90 4e 2f
        E 5 90 3e 00
        E 0 90 3e 2d
        E 0 90 4a 29
        E 66 90 36 00
        E 5 90 32 00
        E 0 90 3e 00
        E 0 90 3e 26
        E 0 90 4a 00
        E 0 90 4a 21
        E 5 90 42 00
        E 0 90 4e 00
        E 57 90 32 1f
        E 10 90 3e 00
        E 0 90 3e 23
        E 0 90 4a 00
        E 0 90 4a 21
        E 0 90 4e 1e
        E 56 90 36 16
        E 0 90 3b 19
        E 0 90 42 28
        E 11 90 3e 00
        E 0 90 3e 2c
        E 0 90 4a 00
        E 0 90 4a 26
        E 0 90 4e 00
        E 0 90 4e 20
        E 61 90 36 00
        E 5 90 32 00
        E 0 90 3e 00
        E 0 90 3e 28
        E 0 90 42 00
        E 0 90 42 1f
        E 0 90 4a 00
        E 0 90 4a 27
        E 0 90 4e 00
        E 0 90 4e 27
        E 72 90 4e 00
        E 0 90 4e 2f
        E 5 90 4a 00
        E 0 90 4a 33
        E 61 90 3b 00
        E 5 90 42 00
        E 5 90 3e 00
        E 0 90 4e 00
        E 5 90 4a 00
        E 62 90 26 2a
        E 10 90 32 29
        E 0 90 3e 29
        E 0 90 4a 1e
        E 5 90 45 24
        E 72 90 4a 00
        E 10 90 3e 00
        E 5 90 45 00
        E 56 90 42 27
        E 5 90 3e 22
        E 0 90 4a 29
        E 10 90 26 00
        E 0 90 32 00
        E 57 90 26 1a
        E 0 90 32 1e
        E 10 90 36 16
        E 0 90 42 00
        E 0 90 42 2b
        E 5 90 4a 00
        E 0 90 4a 23
        E 56 90 3e 00
        E 0 90 3e 27
        E 5 90 26 00
        E 0 90 4a 00
        E 0 90 4a 23
        E 5 90 32 00
        E 0 90 36 00
        E 0 90 42 00
        E 0 90 42 28
        E 56 90 2a 14
        E 6 90 32 1c
        E 0 90 36 24
        E 10 90 3e 00
        E 0 90 3e 2e
        E 0 90 42 00
        E 0 90 42 3a
        E 0 90 4a 00
        E 0 90 4a 38
        E 61 90 2a 00
        E 0 90 32 00
        E 10 90 36 00
        E 5 90 3e 00
        E 0 90 4a 00
        E 6 90 42 00
        E 56 90 36 1b
        E 5 90 3e 22
        E 0 90 4a 2b
        E 5 90 42 37
        E 57 90 3e 00
        E 0 90 3e 1a
        E 5 90 36 00
        E 5 90 4a 00
        E 10 90 42 00
        E 41 90 2f 28
        E 20 90 3b 2c
        E 0 90 3e 00
        E 62 90 32 2c
        E 0 90 42 2e
        E 5 90 36 12
        E 0 90 3e 2f
        E 5 90 3b 00
        E 0 90 3b 29
        E 0 90 4a 20
        E 61 90 36 00
        E 5 90 2f 00
        E 5 90 32 00
        E 0 90 42 00
        E 6 90 3b 00
        E 0 90 3e 00
        E 0 90 4a 00
        E 66 90 37 29
        E 5 90 43 22
        E 51 90 2b 22
        E 10 90 34 26
        E 11 90 30 11
        E 0 90 39 16
        E 0 90 40 26
        E 0 90 43 00
        E 0 90 43 2f
        E 5 90 37 00
        E 0 90 37 2d
        E 61 90 2b 00
        E 0 90 30 00
        E 10 90 34 00
        E 0 90 40 00
        E 5 90 37 00
        E 0 90 43 00
        E 41 90 2d 27
        E 16 90 39 00
        E 0 90 40 19
        E 5 90 39 2d
        E 61 90 34 23
        E 5 90 3d 20
        E 0 90 40 00
        E 5 90 40 33
        E 0 90 49 1d
        E 67 90 2d 00
        E 0 90 34 00
        E 0 90 49 00
        E 5 90 3d 00
        E 5 90 39 00
        E 0 90 40 00
        E 51 90 26 30
        E 5 90 2a 1b
        E 5 90 36 1e
        E 0 90 42 18
        E 5 90 32 28
        E 0 90 39 1f
        E 0 90 45 2b
        E 5 90 3e 21
        E 57 90 26 00
        E 0 90 2a 00
        E 10 90 36 00
        E 0 90 39 00
        E 0 90 42 00
        E 0 90 45 00
        E 0 90 45 1b
        E 62 90 3e 00
        E 0 90 3e 18
        E 5 90 45 00
        E 15 90 32 00
        E 107 90 34 26
        E 5 90 37 1a
        E 0 90 3e 00
        E 0 90 3e 21
        E 0 90 40 22
        E 11 90 4a 21
        E 66 90 3e 00
        E 5 90 34 00
        E 0 90 37 00
        E 0 90 40 00
        E 0 90 4a 00
        E 67 e0 00 20
        E 0 90 40 17
        E 5 e0 00 60
        E 5 e0 00 60
        E 5 e0 00 60
        E 6 e0 00 60
        E 5 e0 00 60
        E 5 e0 00 60
        E 6 e0 00 60
        E 5 e0 00 60
        E 5 e0 00 20
        E 6 e0 00 20
        E 5 e0 00 20
        E 5 e0 00 60
        E 5 e0 00 60
        E 6 e0 00 60
        E 5 e0 00 60
        E 5 e0 00 60
        E 6 e0 00 60
        E 5 e0 00 60
        E 5 e0 55 2a
        E 6 e0 55 2a
        E 5 e0 55 2a
        E 5 e0 55 2a
        E 5 e0 00 60
        E 6 e0 00 60
        E 5 e0 00 60
        E 5 e0 00 60
        E 6 e0 2b 75
        E 0 90 40 00
        E 0 90 50 27
        E 5 e0 2b 15
        E 6 e0 00 20
        E 5 e0 00 20
        E 6 e0 55 6a
        E 5 e0 55 6a
        E 6 e0 55 6a
        E 6 e0 55 6a
        E 5 e0 55 6a
        E 6 e0 55 6a
        E 5 e0 55 6a
        E 6 e0 55 6a
        E 0 90 50 00
        E 41 e0 55 4a
        E 0 90 45 36
        E 5 e0 2b 75
        E 6 e0 2b 75
        E 5 e0 2b 75
        E 6 e0 00 20
        E 5 e0 00 20
        E 6 e0 00 20
        E 5 e0 00 20
        E 6 e0 00 20
        E 6 e0 00 20
        E 5 e0 00 20
        E 6 e0 00 20
        E 5 e0 00 20
        E 0 90 45 00
        E 21 90 34 2a
        E 5 90 2b 1b
        E 0 90 37 1e
        E 5 90 40 27
        E 5 90 43 2f
        E 71 90 2b 00
        E 0 90 37 00
        E 0 90 3e 27
        E 6 90 34 00
        E 5 90 40 00
        E 5 90 43 00
        E 51 90 36 21
        E 10 90 42 29
        E 5 90 3e 00
        E 0 90 3e 26
        E 56 90 32 21
        E 11 90 3b 18
        E 0 90 47 1a
        E 5 90 36 00
        E 0 90 3e 00
        E 0 90 3e 1f
        E 0 90 42 00
        E 0 90 42 21
        E 62 90 32 00
        E 0 90 3e 00
        E 0 90 3e 35
        E 0 90 42 00
        E 0 90 42 28
        E 5 90 3b 00
        E 0 90 47 00
        E 10 90 36 1a
        E 0 90 45 13
        E 51 90 2f 1c
        E 0 90 32 1c
        E 5 90 4a 21
        E 5 90 3e 00
        E 0 90 3e 2b
        E 0 90 42 00
        E 0 90 42 26
        E 0 90 45 00
        E 56 90 2a 23
        E 5 90 32 00
        E 6 90 32 1a
        E 0 90 42 00
        E 0 90 42 33
        E 5 90 3e 00
        E 0 90 3e 35
        E 66 90 2a 00
        E 5 90 2f 00
        E 0 90 32 00
        E 0 90 36 00
        E 5 90 4a 00
        E 5 90 3e 00
        E 0 90 42 00
        E 57 90 3e 25
        E 10 90 42 23
        E 51 90 3e 00
        E 36 90 40 12
        E 5 90 36 1a
        E 56 90 40 00
        E 15 90 42 00
        E 57 90 32 1b
        E 5 90 36 00
        E 0 90 4a 25
        E 5 90 36 2a
        E 0 90 3e 2c
        E 0 90 42 25
        E 66 90 4a 00
        E 0 90 4a 23
        E 5 90 32 00
        E 0 90 3e 00
        E 0 90 3e 2a
        E 10 90 42 00
        E 6 90 36 00
        E 61 90 3e 00
        E 0 90 3e 1c
        E 5 90 4a 00
        E 10 90 36 29
        E 10 90 42 27
        E 41 90 3e 00
        E 0 90 3e 37
        E 67 90 4a 33
        E 5 90 36 00
        E 0 90 3e 00
        E 0 90 3e 20
        E 0 90 42 00
        E 62 90 2f 24
        E 0 90 36 29
        E 10 90 3e 00
        E 0 90 3e 26
        E 0 90 42 20
        E 20 90 4a 00
        E 41 90 26 14
        E 5 90 3b 30
        E 0 90 47 26
        E 21 90 36 00
        E 35 90 36 27
        E 6 90 26 00
        E 5 90 3b 00
        E 0 90 3b 2e
        E 0 90 3e 00
        E 0 90 3e 31
        E 0 90 42 00
        E 0 90 42 32
        E 10 90 47 00
        E 56 90 3b 00
        E 0 90 3b 25
        E 5 90 2f 00
        E 0 90 36 00
        E 10 90 3e 00
        E 0 90 42 00
        E 52 90 24 19
        E 0 90 43 23
        E 5 90 37 29
        E 15 90 3b 00
        E 36 90 2a 1c
        E 5 90 30 18
        E 0 90 34 2a
        E 5 90 43 00
        E 5 90 24 00
        E 0 90 40 23
        E 0 90 43 24
        E 56 90 2a 00
        E 5 90 30 00
        E 11 90 40 00
        E 5 90 34 00
        E 0 90 37 00
        E 0 90 43 00
        E 56 90 2d 20
        E 5 90 21 17
        E 0 90 34 24
        E 5 90 40 12
        E 5 90 39 23
        E 56 90 40 00
        E 5 90 21 00
        E 0 90 40 31
        E 11 90 34 00
        E 66 90 2d 00
        E 15 90 39 00
        E 0 90 40 00
        E 57 90 2f 1d
        E 0 90 32 1e
        E 0 90 36 1f
        E 10 90 3e 3c
        E 10 90 42 26
        E 51 90 39 23
        E 15 90 2f 00
        E 16 90 3e 00
        E 36 90 2d 23
        E 10 90 39 00
        E 5 90 32 00
        E 0 90 36 00
        E 0 90 39 28
        E 11 90 42 00
        E 51 90 2a 27
        E 5 90 32 1c
        E 5 90 3e 34
        E 5 90 2d 00
        E 10 90 39 00
        E 51 90 32 00
        E 5 90 32 2d
        E 11 90 2a 00
        E 10 90 3e 00
        E 46 e0 00 20
        E 0 90 32 00
        E 0 90 32 23
        E 5 e0 00 20
        E 6 e0 00 20
        E 6 e0 00 20
        E 5 e0 00 20
        E 6 e0 00 20
        E 5 e0 00 20
        E 6 e0 00 20
        E 5 e0 00 20
        E 6 e0 00 20
        E 6 e0 00 20
        E 5 e0 00 20
        E 0 90 32 00
        E 107 e0 55 0a
        E 0 90 26 3b
        E 6 e0 55 0a
        E 6 e0 2b 15
        E 5 e0 2b 15
        E 6 e0 2b 15
        E 5 e0 2b 15
        E 6 e0 2b 15
        E 5 e0 2b 15
        E 6 e0 2b 15
        E 6 e0 2b 15
        E 5 e0 2b 15
        E 6 e0 2b 15
        E 0 90 26 00
        E 0 90 26 25
        E 5 e0 2b 15
        E 5 e0 2b 15
        E 6 e0 2b 15
        E 5 e0 00 20
        E 5 e0 2b 15
        E 6 e0 00 20
        E 5 e0 00 20
        E 5 e0 00 20
        E 6 e0 00 20
        E 5 e0 00 20
        E 5 e0 00 20
        E 6 e0 00 20
        E 5 e0 00 20
        E 6 e0 00 20
        E 5 e0 00 20
        E 5 e0 00 20
        E 6 e0 00 20
        E 5 e0 00 20
        E 5 e0 00 20
        E 6 e0 00 20
        E 5 e0 00 20
        E 5 e0 00 20
        E 0 90 26 00
        E 982 90 3e 2b
        E 5 90 32 1c
        E 5 90 51 21
        E 10 90 4a 27
        E 46 90 32 00
        E 46 90 51 00
        E 20 90 3e 00
        E 6 90 4a 00
        E 204 90 3b 16
        E 118 90 4e 25
        E 5 90 3b 00
        E 92 90 42 21
        E 20 90 4e 00
        E 57 90 42 00
        E 138 90 4e 27
        E 76 90 3b 2b
        E 5 90 4e 00
        E 46 90 4a 2e
        E 10 90 3b 00
        E 57 90 4a 00
        E 159 e0 7f 7f
        E 0 90 4c 28
        E 5 e0 00 20
        E 6 e0 00 20
        E 5 e0 55 2a
        E 6 e0 55 2a
        E 5 e0 55 2a
        E 6 e0 55 2a
        E 6 e0 55 2a
        E 5 e0 55 2a
        E 6 e0 55 2a
        E 5 e0 00 20
        E 6 e0 00 20
        E 0 90 4c 00
        E 56 e0 55 6a
        E 0 90 43 2a
        E 5 e0 55 6a
        E 6 e0 55 6a
        E 5 e0 55 6a
        E 5 e0 55 6a
        E 6 e0 55 6a
        E 5 e0 00 60
        E 5 e0 00 60
        E 6 e0 00 60
        E 5 e0 00 20
        E 5 e0 00 20
        E 6 e0 00 20
        E 5 e0 00 20
        E 5 e0 00 20
        E 6 e0 00 20
        E 5 e0 00 20
        E 5 e0 00 20
        E 6 e0 00 20
        E 5 e0 00 20
        E 5 e0 00 20
        E 6 e0 55 6a
        E 5 e0 55 6a
        E 5 e0 55 6a
        E 5 e0 55 6a
        E 6 e0 00 20
        E 0 90 43 00
        E 189 90 32 3c
        E 10 90 42 25
        E 0 90 45 1b
        E 10 90 3e 30
        E 51 90 45 00
        E 5 90 42 00
        E 11 90 3e 00
        E 5 90 32 00
        E 87 e0 7f 7f
        E 0 90 4c 20
        E 5 e0 7f 7f
        E 5 e0 00 20
        E 6 e0 55 2a
        E 5 e0 55 2a
        E 5 e0 55 2a
        E 6 e0 55 2a
        E 5 e0 55 2a
        E 5 e0 55 2a
        E 6 e0 55 2a
        E 5 e0 55 2a
        E 5 e0 55 2a
        E 6 e0 55 2a
        E 5 e0 55 2a
        E 6 e0 55 2a
        E 5 e0 55 2a
        E 5 e0 55 2a
        E 6 e0 55 2a
        E 5 e0 55 2a
        E 5 e0 00 20
        E 6 e0 00 20
        E 5 e0 00 20
        E 0 90 4c 00
        E 419 e0 2b 75
        E 0 90 51 26
        E 6 e0 00 20
        E 5 e0 00 20
        E 5 e0 55 2a
        E 6 e0 55 2a
        E 5 e0 55 2a
        E 5 e0 55 2a
        E 6 e0 55 2a
        E 5 e0 00 20
        E 5 e0 00 20
        E 6 e0 00 20
        E 5 e0 00 20
        E 5 e0 00 20
        E 6 e0 00 20
        E 5 e0 00 20
        E 5 e0 00 20
        E 6 e0 55 2a
        E 5 e0 55 2a
        E 5 e0 55 2a
        E 6 e0 55 2a
        E 5 e0 55 2a
        E 5 e0 2b 75
        E 6 e0 2b 75
        E 5 e0 2b 75
        E 0 90 51 00
        E 194 90 51 22
        E 107 90 3b 14
        E 6 90 4a 23
        E 15 90 51 00
        E 41 90 3b 00
        E 31 90 3e 1d
        E 10 90 4a 00
        E 36 90 3b 2c
        E 0 90 4a 2b
        E 66 90 4e 23
        E 11 90 3e 00
        E 0 90 4a 00
        E 5 90 3b 00
        E 102 e0 2b 75
        E 0 90 4e 00
        E 0 90 4e 23
        E 5 e0 2b 75
        E 5 e0 00 20
        E 6 e0 55 2a
        E 5 e0 55 2a
        E 5 e0 00 20
        E 6 e0 55 2a
        E 5 e0 55 2a
        E 5 e0 55 2a
        E 6 e0 55 2a
        E 5 e0 55 2a
        E 5 e0 55 2a
        E 6 e0 00 20
        E 5 e0 00 20
        E 5 e0 00 20
        E 6 e0 00 20
        E 5 e0 00 20
        E 5 e0 00 20
        E 6 e0 55 2a
        E 5 e0 55 2a
        E 5 e0 55 2a
        E 6 e0 00 20
        E 5 e0 00 20
        E 5 e0 00 20
        E 6 e0 00 20
        E 0 90 4e 00
        E 81 90 4e 23
        E 97 90 2f 2a
        E 5 90 32 1b
        E 6 90 34 1a
        E 5 90 3e 27
        E 0 90 42 24
        E 5 90 3b 2b
        E 10 90 4e 00
        E 41 90 47 1a
        E 5 90 2f 00
        E 0 90 32 00
        E 0 90 34 00
        E 10 90 3b 00
        E 0 90 3e 00
        E 46 90 42 00
        E 41 90 47 00
        E 46 e0 00 20
        E 0 90 4a 39
        E 6 e0 2b 15
        E 5 e0 7f 7f
        E 6 e0 2b 15
        E 5 e0 2b 15
        E 6 e0 00 20
        E 5 e0 00 20
        E 6 e0 00 20
        E 5 e0 00 20
        E 6 e0 00 20
        E 5 e0 00 20
        E 6 e0 00 20
        E 5 e0 00 20
        E 0 90 4a 00
        E 52 90 32 2a
        E 5 90 39 1a
        E 5 90 36 19
        E 0 90 3e 23
        E 0 90 42 2d
        E 0 90 45 26
        E 56 90 32 00
        E 6 90 3e 00
        E 40 90 36 00
        E 0 90 39 00
        E 0 90 45 00
        E 6 90 42 00
        E 102 90 30 25
        E 56 90 34 1c
        E 0 90 39 19
        E 0 90 40 29
        E 5 90 30 00
        E 0 90 43 29
        E 66 90 34 00
        E 0 90 49 28
        E 6 90 39 00
        E 5 90 40 00
        E 0 90 43 00
        E 56 90 49 00
        E 36 90 2d 26
        E 10 90 37 24
        E 5 90 39 24
        E 41 90 30 20
        E 5 90 34 1f
        E 0 90 40 35
        E 5 90 2d 00
        E 0 90 43 28
        E 51 90 30 00
        E 10 90 34 00
        E 5 90 37 00
        E 0 90 39 00
        E 0 90 40 00
        E 0 90 43 00
        E 108 90 2a 30
        E 5 90 36 29
        E 0 90 4a 1f
        E 56 90 2a 00
        E 0 90 2a 1d
        E 10 90 36 00
        E 0 90 4a 00
        E 51 90 37 34
        E 5 90 2a 00
        E 0 90 2b 2c
        E 0 90 3e 24
        E 57 90 37 00
        E 21 90 2b 00
        E 0 90 3e 00
        E 30 90 39 23
        E 10 90 2d 2c
        E 62 90 39 00
        E 66 90 39 22
        E 5 90 2d 00
        E 46 90 32 36
        E 10 90 26 34
        E 16 90 39 00
        E 61 90 32 00
        E 66 90 26 00
        E 118 e0 00 20
        E 0 90 32 17
        E 6 e0 00 20
        E 5 e0 00 20
        E 6 e0 00 20
        E 5 e0 00 20
        E 6 e0 00 20
        E 5 e0 00 20
        E 6 e0 00 20
        E 6 e0 00 20
        E 5 e0 00 20
        E 6 e0 00 20
        E 5 e0 00 20
        E 0 90 32 00
        E 430 e0 55 6a
        E 0 90 51 1e
        E 6 e0 55 6a
        E 5 e0 55 2a
        E 6 e0 55 2a
        E 5 e0 55 2a
        E 6 e0 55 2a
        E 5 e0 55 2a
        E 6 e0 00 20
        E 6 e0 00 20
        E 5 e0 00 20
        E 6 e0 00 20
        E 5 e0 00 20
        E 0 90 51 00
        E 41 90 4a 2b
        E 5 90 42 1e
        E 5 90 3e 27
        E 51 90 4a 00
        E 11 90 42 00
        E 66 90 3e 00
        E 225 e0 2b 15
        E 0 90 4e 2a
        E 5 e0 00 20
        E 5 e0 00 20
        E 6 e0 00 20
        E 5 e0 55 2a
        E 5 e0 55 2a
        E 6 e0 55 2a
        E 5 e0 55 2a
        E 5 e0 55 2a
        E 6 e0 00 20
        E 5 e0 00 20
        E 5 e0 00 20
        E 6 e0 00 20
        E 5 e0 00 20
        E 5 e0 00 20
        E 6 e0 00 20
        E 5 e0 00 20
        E 5 e0 00 20
        E 6 e0 00 20
        E 5 e0 00 20
        E 5 e0 2b 75
        E 6 e0 7f 7f
        E 5 e0 00 20
        E 5 e0 00 20
        E 0 90 4e 00
        E 190 90 37 26
        E 0 90 3e 25
        E 5 90 3b 1c
        E 61 90 3e 00
        E 16 90 4e 25
        E 30 90 47 2d
        E 16 90 37 00
        E 51 90 4e 00
        E 10 90 47 00
        E 51 90 3b 00
        E 199 e0 2b 35
        E 0 90 4c 32
        E 6 e0 55 6a
        E 5 e0 7f 7f
        E 6 e0 2b 75
        E 5 e0 00 20
        E 6 e0 00 20
        E 6 e0 55 2a
        E 5 e0 55 2a
        E 6 e0 55 2a
        E 5 e0 55 2a
        E 6 e0 00 20
        E 5 e0 00 20
        E 6 e0 00 20
        E 0 90 4c 00
        E 61 90 47 27
        E 61 90 43 31
        E 5 90 47 00
        E 46 90 4f 1c
        E 16 90 43 00
        E 51 90 4f 00
        E 56 e0 2b 75
        E 0 90 49 24
        E 5 e0 2b 75
        E 5 e0 00 20
        E 5 e0 00 20
        E 6 e0 00 20
        E 5 e0 55 2a
        E 5 e0 55 2a
        E 5 e0 55 2a
        E 5 e0 55 2a
        E 5 e0 00 20
        E 6 e0 00 20
        E 5 e0 55 6a
        E 0 90 49 00
        E 30 90 32 2a
        E 16 90 3e 26
        E 143 90 4c 1d
        E 5 90 32 00
        E 5 90 3e 00
        E 102 90 4c 00
        E 429 e0 00 20
        E 0 90 51 1d
        E 6 e0 00 20
        E 5 e0 00 20
        E 5 e0 55 2a
        E 6 e0 55 2a
        E 5 e0 55 2a
        E 5 e0 55 2a
        E 6 e0 55 2a
        E 5 e0 00 20
        E 5 e0 00 20
        E 6 e0 00 20
        E 5 e0 00 20
        E 5 e0 00 20
        E 6 e0 55 2a
        E 5 e0 55 2a
        E 6 e0 55 2a
        E 5 e0 55 2a
        E 5 e0 55 2a
        E 6 e0 55 2a
        E 5 e0 00 20
        E 5 e0 55 6a
        E 6 e0 55 6a
        E 0 90 51 00
        E 189 90 45 15
        E 113 90 3b 20
        E 0 90 42 29
        E 5 90 45 00
        E 0 90 45 20
        E 5 90 3e 32
        E 0 90 4e 1d
        E 41 90 4a 26
        E 10 90 3b 00
        E 15 90 3e 00
        E 41 90 45 00
        E 0 90 4e 00
        E 5 90 42 00
        E 26 90 3a 16
        E 0 90 3e 21
        E 0 90 43 1b
        E 5 90 4a 00
        E 0 90 4a 2b
        E 66 90 4e 26
        E 5 90 3a 00
        E 0 90 3e 00
        E 0 90 43 00
        E 11 90 4a 00
        E 92 90 42 27
        E 5 90 4e 00
        E 0 90 4e 1e
        E 107 90 4e 00
        E 0 90 4e 26
        E 15 90 42 00
        E 102 90 4e 00
        E 93 90 34 26
        E 0 90 3b 29
        E 0 90 42 16
        E 0 90 47 1c
        E 66 90 34 00
        E 0 90 47 00
        E 5 90 3b 00
        E 31 90 46 29
        E 5 90 52 28
        E 5 90 42 00
        E 36 90 34 10
        E 15 90 46 00
        E 11 90 52 00
        E 41 90 34 00
        E 132 90 36 28
        E 0 90 42 2e
        E 5 90 45 24
        E 41 90 32 22
        E 5 90 3e 2c
        E 16 90 36 00
        E 25 90 4c 2b
        E 16 90 45 00
        E 5 90 32 00
        E 0 90 3e 00
        E 0 90 42 00
        E 41 90 4c 00
        E 56 90 34 21
        E 0 90 43 33
        E 5 90 3b 10
        E 0 90 40 20
        E 5 90 47 20
        E 51 90 43 00
        E 5 90 3b 00
        E 0 90 43 2f
        E 5 90 47 00
        E 41 90 34 00
        E 10 90 40 00
        E 5 90 43 00
        E 108 90 2d 20
        E 5 90 30 1d
        E 0 90 40 20
        E 5 90 37 17
        E 0 90 43 22
        E 52 90 2d 00
        E 0 90 39 20
        E 5 90 30 00
        E 5 90 40 00
        E 5 90 43 00
        E 56 90 37 00
        E 10 90 39 00
        E 46 90 1e 1e
        E 67 90 2a 30
        E 0 90 36 30
        E 5 90 1e 00
        E 66 90 2a 00
        E 0 90 36 00
        E 46 90 37 26
        E 5 90 2b 2d
        E 72 90 2b 00
        E 51 90 2d 2f
        E 15 90 37 00
        E 51 e0 00 20
        E 0 90 2d 00
        E 0 90 2d 22
        E 6 e0 00 20
        E 5 e0 2b 75
        E 6 e0 55 6a
        E 6 e0 55 6a
        E 5 e0 55 6a
        E 6 e0 55 6a
        E 5 e0 55 6a
        E 6 e0 2b 75
        E 6 e0 2b 75
        E 5 e0 2b 15
        E 6 e0 2b 15
        E 0 90 2d 00
        E 71 e0 55 0a
        E 0 90 26 3c
        E 6 e0 2b 15
        E 5 e0 2b 15
        E 5 e0 2b 15
        E 6 e0 2b 15
        E 5 e0 2b 15
        E 5 e0 2b 15
        E 6 e0 2b 15
        E 5 e0 2b 15
        E 5 e0 2b 15
        E 6 e0 2b 15
        E 5 e0 2b 15
        E 6 e0 2b 15
        E 5 e0 2b 15
        E 5 e0 00 20
        E 6 e0 00 20
        E 5 e0 00 20
        E 5 e0 00 20
        E 6 e0 00 20
        E 5 e0 00 20
        E 5 e0 55 6a
        E 0 90 26 00
        E 333 90 2a 1d
        E 0 90 39 46
        E 10 90 3d 30
        E 56 90 2a 00
        E 0 90 39 00
        E 31 90 3d 00
        E 77 90 21 23
        E 5 90 40 20
        E 5 90 3d 29
        E 5 90 39 2a
        E 118 90 40 00
        E 0 90 40 1f
        E 0 90 45 30
        E 5 90 3d 00
        E 0 90 3d 29
        E 5 90 39 00
        E 0 90 39 27
        E 5 90 21 00
        E 31 90 4c 1a
        E 20 90 45 00
        E 10 90 40 00
        E 36 90 40 20
        E 0 90 45 2c
        E 5 90 4c 00
        E 0 90 4c 29
        E 61 90 4c 00
        E 5 90 39 00
        E 6 90 3d 00
        E 51 90 3e 1f
        E 5 90 40 00
        E 0 90 4d 36
        E 15 90 45 00
        E 51 90 4d 00
        E 31 90 39 28
        E 0 90 4e 38
        E 5 90 3e 00
        E 0 90 3f 2c
        E 57 90 4e 00
        E 46 90 39 00
        E 20 90 3f 00
        E 409 90 39 1b
        E 5 90 42 24
        E 87 90 42 00
        E 51 90 39 00
        E 276 e0 2b 55
        E 0 90 3e 40
        E 6 e0 00 20
        E 5 e0 00 20
        E 6 e0 00 20
        E 5 e0 2b 15
        E 6 e0 2b 15
        E 5 e0 2b 15
        E 6 e0 00 20
        E 5 e0 00 20
        E 6 e0 00 20
        E 6 e0 00 20
        E 5 e0 00 20
        E 6 e0 00 20
        E 0 90 3e 00
        E 86 90 32 24
        E 6 90 42 24
        E 122 90 32 00
        E 0 90 32 23
        E 5 90 42 00
        E 0 90 42 26
        E 0 90 45 20
        E 0 90 4e 28
        E 67 90 4e 00
        E 35 90 4e 2c
        E 6 90 4a 29
        E 10 90 45 00
        E 5 90 42 00
        E 31 90 32 00
        E 30 90 4e 00
        E 26 90 43 2c
        E 5 90 40 32
        E 20 90 4a 00
        E 36 90 43 00
        E 10 90 40 00
        E 36 90 44 29
        E 5 90 41 28
        E 0 90 50 2e
        E 82 90 50 00
        E 36 90 44 00
        E 40 90 3e 3c
        E 11 90 41 00
        E 0 90 42 27
        E 56 90 3e 00
        E 72 90 42 00
        E 184 90 32 19
        E 5 90 45 1c
        E 5 90 3e 24
        E 26 90 2a 25
        E 5 90 36 23
        E 5 90 39 22
        E 46 90 32 00
        E 5 90 2a 00
        E 5 90 36 00
        E 5 90 39 00
        E 0 90 45 00
        E 5 90 3e 00
        E 97 e0 00 60
        E 0 90 37 38
        E 6 e0 00 60
        E 5 e0 00 00
        E 6 e0 55 6a
        E 5 e0 55 6a
        E 6 e0 00 60
        E 6 e0 00 60
        E 5 e0 00 60
        E 6 e0 00 60
        E 5 e0 00 60
        E 6 e0 00 60
        E 5 e0 2b 15
        E 6 e0 2b 15
        E 0 90 37 00
        E 168 90 3d 22
        E 108 90 32 34
        E 10 90 3d 00
        E 0 90 3e 29
        E 62 90 32 00
        E 46 90 40 28
        E 10 90 3e 00
        E 112 90 40 00
        E 97 e0 00 20
        E 0 90 42 20
        E 6 e0 00 20
        E 5 e0 00 20
        E 5 e0 00 20
        E 5 e0 00 20
        E 6 e0 55 2a
        E 5 e0 55 2a
        E 5 e0 55 2a
        E 6 e0 55 2a
        E 5 e0 00 20
        E 5 e0 00 20
        E 6 e0 00 20
        E 5 e0 00 20
        E 5 e0 00 20
        E 5 e0 00 20
        E 6 e0 00 20
        E 5 e0 00 20
        E 5 e0 55 2a
        E 6 e0 55 2a
        E 5 e0 55 2a
        E 5 e0 55 2a
        E 6 e0 55 2a
        E 5 e0 55 2a
        E 5 e0 55 2a
        E 5 e0 00 20
        E 6 e0 00 20
        E 5 e0 00 20
        E 5 e0 00 20
        E 0 90 42 00
        E 920 e0 00 20
        E 0 90 45 27
        E 6 e0 00 20
        E 5 e0 00 20
        E 6 e0 00 20
        E 6 e0 00 20
        E 5 e0 00 20
        E 6 e0 00 20
        E 5 e0 00 20
        E 6 e0 00 20
        E 5 e0 00 20
        E 6 e0 00 20
        E 5 e0 00 20
        E 6 e0 00 20
        E 0 90 45 00
        E 36 e0 55 0a
        E 0 90 4f 3b
        E 5 e0 55 0a
        E 6 e0 55 0a
        E 5 e0 55 6a
        E 6 e0 55 6a
        E 5 e0 55 6a
        E 6 e0 55 6a
        E 6 e0 55 6a
        E 5 e0 55 6a
        E 6 e0 55 6a
        E 5 e0 55 6a
        E 6 e0 55 6a
        E 0 90 4f 00
        E 680 90 36 28
        E 0 90 42 25
        E 41 90 4c 32
        E 20 90 36 00
        E 0 90 42 00
        E 46 90 4c 00
        E 828 90 3e 2a
        E 5 90 42 1b
        E 0 90 4a 28
        E 62 90 4a 00
        E 5 90 3e 00
        E 0 90 42 00
        E 46 e0 55 0a
        E 0 90 51 16
        E 5 e0 55 0a
        E 6 e0 2b 15
        E 5 e0 2b 15
        E 6 e0 55 0a
        E 5 e0 55 0a
        E 5 e0 2b 75
        E 6 e0 55 6a
        E 5 e0 00 60
        E 6 e0 00 60
        E 5 e0 00 60
        E 6 e0 00 60
        E 5 e0 00 60
        E 6 e0 55 6a
        E 5 e0 55 6a
        E 5 e0 2b 15
        E 0 90 51 00
        E 67 e0 2b 15
        E 0 90 4e 1f
        E 5 e0 00 20
        E 5 e0 00 20
        E 5 e0 00 20
        E 5 e0 55 2a
        E 6 e0 55 2a
        E 5 e0 55 2a
        E 5 e0 55 2a
        E 5 e0 55 2a
        E 5 e0 55 2a
        E 5 e0 55 2a
        E 5 e0 55 2a
        E 5 e0 00 20
        E 6 e0 00 20
        E 5 e0 00 20
        E 5 e0 00 20
        E 5 e0 00 20
        E 5 e0 00 20
        E 5 e0 00 20
        E 5 e0 00 20
        E 6 e0 00 20
        E 5 e0 00 20
        E 5 e0 00 20
        E 0 90 4e 00
        E 0 90 4e 1d
        E 5 e0 00 20
        E 6 e0 00 20
        E 5 e0 55 2a
        E 5 e0 55 2a
        E 6 e0 55 2a
        E 5 e0 55 2a
        E 5 e0 55 2a
        E 6 e0 00 20
        E 5 e0 00 20
        E 5 e0 00 20
        E 6 e0 00 20
        E 5 e0 00 20
        E 5 e0 00 20
        E 6 e0 00 20
        E 5 e0 00 20
        E 5 e0 00 20
        E 6 e0 00 20
        E 5 e0 00 20
        E 6 e0 55 2a
        E 5 e0 00 20
        E 5 e0 2b 75
        E 0 90 4e 00
        E 0 90 4e 26
        E 6 e0 00 20
        E 5 e0 00 20
        E 5 e0 00 20
        E 6 e0 55 2a
        E 5 e0 55 2a
        E 5 e0 55 2a
        E 6 e0 55 2a
        E 5 e0 00 20
        E 6 e0 00 20
        E 5 e0 00 20
        E 5 e0 00 20
        E 6 e0 00 20
        E 5 e0 00 20
        E 6 e0 00 20
        E 5 e0 00 20
        E 5 e0 00 20
        E 6 e0 2b 75
        E 5 e0 2b 75
        E 5 e0 00 20
        E 0 90 4e 00
        E 97 90 3b 25
        E 21 90 42 2f
        E 51 90 4e 21
        E 10 90 42 00
        E 16 90 47 1a
        E 56 90 42 15
        E 15 90 4e 00
        E 46 90 42 00
        E 5 90 47 00
        E 5 90 3b 00
        E 77 e0 2b 15
        E 0 90 32 21
        E 5 e0 2b 15
        E 6 e0 2b 15
        E 5 e0 2b 15
        E 5 e0 2b 15
        E 6 e0 2b 15
        E 5 e0 00 20
        E 6 e0 00 20
        E 5 e0 00 20
        E 6 e0 00 20
        E 5 e0 00 20
        E 5 e0 00 20
        E 6 e0 00 20
        E 5 e0 00 20
        E 6 e0 00 20
        E 5 e0 2b 15
        E 5 e0 2b 15
        E 6 e0 2b 15
        E 0 90 32 00
        E 465 90 32 1e
        E 21 90 3e 26
        E 117 90 3e 00
        E 0 90 3e 35
        E 46 90 4c 29
        E 5 90 2b 12
        E 0 90 34 13
        E 0 90 39 1c
        E 0 90 45 10
        E 21 90 3e 00
        E 35 90 3e 18
        E 0 90 40 20
        E 0 90 4c 00
        E 6 90 2b 00
        E 0 90 39 00
        E 0 90 4c 28
        E 46 90 36 23
        E 0 90 42 32
        E 0 90 4e 36
        E 10 90 34 00
        E 0 90 45 00
        E 5 90 4c 00
        E 36 90 32 00
        E 10 90 36 00
        E 0 90 40 00
        E 0 90 4e 00
        E 5 90 42 00
        E 31 90 43 24
        E 5 90 4f 39
        E 41 90 33 17
        E 5 90 3c 1c
        E 5 90 39 11
        E 5 90 3e 00
        E 0 90 43 00
        E 10 90 4f 00
        E 26 90 3e 27
        E 0 90 45 31
        E 5 90 51 24
        E 46 90 33 00
        E 0 90 39 00
        E 5 90 3c 00
        E 5 90 3e 00
        E 0 90 45 00
        E 0 90 51 00
        E 26 e0 55 2a
        E 0 90 3b 15
        E 6 e0 55 2a
        E 5 e0 55 2a
        E 6 e0 55 2a
        E 5 e0 55 2a
        E 6 e0 55 2a
        E 5 e0 55 2a
        E 6 e0 2b 35
        E 6 e0 2b 35
        E 5 e0 2b 35
        E 6 e0 2b 35
        E 5 e0 55 2a
        E 0 90 3b 00
        E 205 e0 2b 75
        E 0 90 51 1f
        E 5 e0 00 20
        E 5 e0 00 20
        E 6 e0 00 20
        E 5 e0 55 2a
        E 6 e0 55 2a
        E 5 e0 55 2a
        E 5 e0 55 2a
        E 6 e0 55 2a
        E 5 e0 00 20
        E 5 e0 00 20
        E 6 e0 00 20
        E 5 e0 00 20
        E 6 e0 00 20
        E 5 e0 00 20
        E 5 e0 00 20
        E 6 e0 00 20
        E 5 e0 00 20
        E 5 e0 00 20
        E 6 e0 2b 75
        E 0 90 51 00
        E 0 90 51 25
        E 97 90 32 26
        E 5 90 3b 27
        E 0 90 45 21
        E 5 90 3e 22
        E 0 90 42 23
        E 0 90 4a 22
        E 10 90 51 00
        E 36 90 37 21
        E 21 90 32 00
        E 0 90 3b 00
        E 40 90 45 00
        E 6 90 42 00
        E 0 90 4a 00
        E 25 90 4a 2c
        E 5 90 3b 2b
        E 15 90 37 00
        E 52 90 3e 00
        E 0 90 4a 00
        E 5 90 3b 00
        E 107 e0 2b 75
        E 0 90 4e 29
        E 5 e0 00 20
        E 5 e0 00 20
        E 5 e0 55 2a
        E 5 e0 55 2a
        E 6 e0 55 2a
        E 5 e0 55 2a
        E 5 e0 55 2a
        E 5 e0 55 2a
        E 5 e0 55 2a
        E 5 e0 55 2a
        E 5 e0 00 20
        E 6 e0 00 20
        E 5 e0 00 20
        E 5 e0 55 2a
        E 5 e0 55 2a
        E 5 e0 55 2a
        E 5 e0 00 20
        E 5 e0 7f 7f
        E 6 e0 7f 7f
        E 5 e0 00 20
        E 5 e0 00 20
        E 0 90 4e 00
        E 76 90 42 15
        E 0 90 46 31
        E 62 90 46 00
        E 51 90 42 00
        E 5 90 42 23
        E 87 90 32 19
        E 5 90 37 1b
        E 5 90 52 22
        E 10 90 42 00
        E 36 90 3b 1b
        E 0 90 42 20
        E 0 90 47 1f
        E 15 90 52 00
        E 36 90 4a 3a
        E 15 90 32 00
        E 0 90 3b 00
        E 5 90 37 00
        E 0 90 42 00
        E 0 90 47 00
        E 41 90 4a 00
        E 51 90 42 36
        E 0 90 45 33
        E 16 90 36 1a
        E 0 90 39 1e
        E 0 90 3e 26
        E 41 90 2d 12
        E 5 90 32 25
        E 0 90 42 00
        E 0 90 45 00
        E 5 90 42 2a
        E 0 90 45 2b
        E 0 90 4a 18
        E 15 90 3e 00
        E 41 90 2d 00
        E 5 90 36 00
        E 0 90 4a 00
        E 5 90 32 00
        E 0 90 39 00
        E 0 90 45 00
        E 5 90 42 00
        E 92 90 34 1f
        E 0 90 43 2f
        E 5 90 30 1a
        E 0 90 37 1e
        E 6 90 47 1c
        E 46 90 39 21
        E 0 90 40 2c
        E 0 90 43 00
        E 5 90 30 00
        E 0 90 43 30
        E 5 90 47 00
        E 51 90 49 29
        E 5 90 34 00
        E 0 90 37 00
        E 6 90 39 00
        E 0 90 40 00
        E 5 90 43 00
        E 46 90 49 00
        E 41 90 2d 2c
        E 10 90 2a 16
        E 0 90 3d 1e
        E 61 90 39 22
        E 0 90 3d 00
        E 5 90 2a 00
        E 0 90 40 26
        E 5 90 2d 00
        E 72 90 39 00
        E 0 90 40 00
        E 102 90 32 20
        E 5 90 2a 38
        E 0 90 36 35
        E 0 90 42 21
        E 77 90 32 00
        E 0 90 3e 1e
        E 0 90 42 00
        E 10 90 2a 00
        E 5 90 36 00
        E 56 90 2b 2d
        E 16 90 3e 00
        E 66 90 2b 00
        E 66 e0 2b 15
        E 0 90 2d 2c
        E 6 e0 2b 15
        E 5 e0 2b 15
        E 5 e0 00 20
        E 6 e0 00 20
        E 5 e0 00 20
        E 5 e0 00 20
        E 6 e0 00 20
        E 5 e0 00 20
        E 5 e0 00 20
        E 6 e0 00 20
        E 5 e0 2b 15
        E 5 e0 2b 15
        E 6 e0 2b 15
        E 5 e0 2b 15
        E 5 e0 2b 15
        E 5 e0 2b 15
        E 6 e0 2b 15
        E 5 e0 2b 15
        E 5 e0 2b 15
        E 6 e0 2b 15
        E 5 e0 2b 15
        E 5 e0 2b 15
        E 6 e0 2b 15
        E 5 e0 2b 15
        E 0 90 2d 00
        E 31 90 26 3c
        E 5 90 32 37
        E 92 90 32 00
        E 5 90 26 00
        E 1411 90 32 2e
        E 15 90 3e 31
        E 0 90 41 1e
        E 72 90 32 00
        E 0 90 41 00
        E 10 90 3e 00
        E 138 e0 00 20
        E 0 90 4d 24
        E 6 e0 00 20
        E 6 e0 55 2a
        E 5 e0 55 2a
        E 6 e0 55 2a
        E 5 e0 55 2a
        E 6 e0 00 20
        E 5 e0 00 20
        E 6 e0 00 20
        E 6 e0 00 20
        E 5 e0 00 20
        E 6 e0 00 20
        E 0 90 4d 00
        E 209 90 26 1a
        E 16 90 41 2a
        E 45 90 26 00
        E 31 90 41 00
        E 480 90 39 1f
        E 124 90 40 22
        E 66 90 39 00
        E 0 90 40 00
        E 20 90 2e 1c
        E 0 90 3e 2d
        E 5 90 45 22
        E 0 90 4a 2f
        E 52 90 41 2d
        E 5 90 2e 00
        E 0 90 4d 28
        E 10 90 3e 00
        E 0 90 45 00
        E 0 90 4a 00
        E 61 90 4d 00
        E 36 90 41 00
        E 460 e0 2b 55
        E 0 90 32 23
        E 5 e0 00 60
        E 5 e0 00 60
        E 5 e0 00 60
        E 5 e0 00 60
        E 5 e0 00 60
        E 6 e0 00 60
        E 5 e0 00 20
        E 5 e0 00 20
        E 5 e0 00 20
        E 5 e0 00 20
        E 5 e0 00 20
        E 5 e0 00 20
        E 6 e0 00 20
        E 0 90 32 00
        E 30 e0 55 6a
        E 0 90 2e 1a
        E 6 e0 55 6a
        E 5 e0 55 6a
        E 6 e0 55 6a
        E 6 e0 00 20
        E 5 e0 00 20
        E 6 e0 00 20
        E 5 e0 00 20
        E 6 e0 2b 15
        E 5 e0 55 0a
        E 6 e0 55 0a
        E 6 e0 55 0a
        E 0 90 2e 00
        E 112 90 2e 1c
        E 0 90 4a 38
        E 61 90 4a 00
        E 51 90 40 2e
        E 5 90 2e 00
        E 57 90 40 00
        E 61 e0 2b 75
        E 0 90 4d 2a
        E 5 e0 2b 75
        E 6 e0 2b 75
        E 5 e0 55 6a
        E 5 e0 55 6a
        E 6 e0 55 6a
        E 5 e0 55 6a
        E 5 e0 55 6a
        E 6 e0 55 6a
        E 5 e0 55 6a
        E 5 e0 55 0a
        E 6 e0 2b 15
        E 5 e0 2b 15
        E 5 e0 2b 15
        E 6 e0 2b 15
        E 5 e0 55 6a
        E 5 e0 55 6a
        E 6 e0 00 20
        E 5 e0 00 20
        E 5 e0 00 20
        E 6 e0 00 20
        E 5 e0 55 2a
        E 5 e0 55 2a
        E 0 90 4d 00
        E 123 e0 2b 15
        E 0 90 3e 24
        E 5 e0 00 20
        E 6 e0 00 20
        E 5 e0 00 20
        E 5 e0 00 20
        E 6 e0 00 20
        E 5 e0 00 20
        E 5 e0 00 20
        E 6 e0 00 20
        E 5 e0 00 20
        E 5 e0 00 20
        E 6 e0 00 20
        E 5 e0 00 20
        E 5 e0 00 20
        E 6 e0 00 20
        E 5 e0 00 20
        E 5 e0 00 20
        E 6 e0 00 20
        E 5 e0 00 20
        E 5 e0 00 20
        E 6 e0 00 20
        E 5 e0 00 20
        E 5 e0 00 20
        E 6 e0 00 20
        E 0 90 3e 00
        E 15 90 51 2c
        E 5 90 3e 2c
        E 0 90 45 1e
        E 62 90 51 00
        E 31 90 41 1c
        E 0 90 45 00
        E 0 90 45 28
        E 10 90 3e 00
        E 112 90 41 00
        E 10 90 45 00
        E 82 e0 00 60
        E 0 90 45 1d
        E 6 e0 55 2a
        E 5 e0 55 2a
        E 5 e0 00 20
        E 6 e0 00 20
        E 5 e0 00 20
        E 5 e0 00 20
        E 6 e0 55 2a
        E 5 e0 55 2a
        E 5 e0 55 2a
        E 6 e0 00 20
        E 5 e0 00 20
        E 6 e0 00 20
        E 5 e0 00 20
        E 5 e0 00 20
        E 6 e0 00 20
        E 5 e0 00 20
        E 5 e0 00 20
        E 6 e0 00 20
        E 5 e0 55 2a
        E 5 e0 00 20
        E 0 90 45 00
        E 0 90 45 2b
        E 6 e0 00 20
        E 5 e0 00 20
        E 6 e0 00 20
        E 5 e0 00 20
        E 6 e0 00 20
        E 5 e0 00 20
        E 6 e0 00 20
        E 5 e0 00 20
        E 6 e0 00 20
        E 5 e0 00 20
        E 6 e0 00 20
        E 5 e0 00 20
        E 6 e0 00 20
        E 0 90 45 00
        E 41 e0 00 60
        E 0 90 3e 24
        E 5 e0 00 60
        E 5 e0 55 6a
        E 6 e0 55 6a
        E 5 e0 55 6a
        E 5 e0 55 6a
        E 6 e0 55 6a
        E 5 e0 55 6a
        E 5 e0 55 6a
        E 6 e0 2b 15
        E 5 e0 00 60
        E 5 e0 00 60
        E 5 e0 00 60
        E 6 e0 00 60
        E 5 e0 00 60
        E 5 e0 00 60
        E 6 e0 00 60
        E 5 e0 2b 15
        E 5 e0 2b 15
        E 5 e0 55 6a
        E 6 e0 00 60
        E 5 e0 00 60
        E 5 e0 00 20
        E 6 e0 00 60
        E 5 e0 00 60
        E 5 e0 00 60
        E 6 e0 00 60
        E 5 e0 00 60
        E 0 90 3e 00
        E 128 e0 55 2a
        E 0 90 45 17
        E 5 e0 55 2a
        E 5 e0 55 2a
        E 6 e0 55 2a
        E 5 e0 55 2a
        E 5 e0 55 2a
        E 6 e0 55 2a
        E 5 e0 55 2a
        E 5 e0 55 2a
        E 6 e0 55 2a
        E 5 e0 55 2a
        E 5 e0 55 2a
        E 6 e0 55 2a
        E 5 e0 55 2a
        E 5 e0 00 20
        E 6 e0 55 2a
        E 5 e0 55 2a
        E 5 e0 55 2a
        E 6 e0 55 2a
        E 5 e0 55 2a
        E 5 e0 55 2a
        E 6 e0 00 20
        E 5 e0 00 20
        E 5 e0 2b 75
        E 0 90 45 00
        E 103 90 41 33
        E 0 90 45 2c
        E 71 90 41 00
        E 36 90 40 27
        E 16 90 45 00
        E 66 90 40 00
        E 82 90 39 39
        E 0 90 45 1b
        E 5 90 4d 2e
        E 61 90 45 00
        E 10 90 39 00
        E 5 90 4d 00
        E 41 e0 00 20
        E 0 90 39 1f
        E 6 e0 2b 75
        E 5 e0 2b 75
        E 6 e0 55 2a
        E 5 e0 55 2a
        E 6 e0 00 20
        E 5 e0 00 20
        E 6 e0 00 20
        E 5 e0 00 20
        E 6 e0 55 2a
        E 5 e0 55 2a
        E 5 e0 55 2a
        E 6 e0 55 2a
        E 5 e0 55 2a
        E 6 e0 55 2a
        E 0 90 39 00
        E 25 e0 00 60
        E 0 90 41 34
        E 6 e0 55 6a
        E 5 e0 55 6a
        E 6 e0 00 60
        E 5 e0 00 60
        E 6 e0 00 60
        E 5 e0 00 60
        E 5 e0 00 60
        E 6 e0 00 60
        E 5 e0 00 60
        E 6 e0 00 60
        E 5 e0 55 6a
        E 6 e0 55 6a
        E 5 e0 55 6a
        E 5 e0 55 6a
        E 6 e0 55 6a
        E 5 e0 55 6a
        E 0 90 41 00
        E 379 e0 55 0a
        E 0 90 3d 29
        E 5 e0 55 0a
        E 6 e0 2b 75
        E 5 e0 55 6a
        E 6 e0 00 20
        E 6 e0 00 20
        E 5 e0 55 6a
        E 6 e0 55 6a
        E 5 e0 55 6a
        E 6 e0 00 20
        E 5 e0 55 6a
        E 6 e0 55 6a
        E 5 e0 55 6a
        E 0 90 3d 00
        E 409 e0 55 6a
        E 0 90 41 30
        E 5 e0 55 6a
        E 6 e0 55 6a
        E 6 e0 55 6a
        E 5 e0 00 60
        E 6 e0 00 60
        E 5 e0 2b 15
        E 6 e0 2b 15
        E 5 e0 2b 15
        E 6 e0 2b 15
        E 5 e0 2b 15
        E 6 e0 2b 15
        E 5 e0 2b 15
        E 0 90 41 00
        E 287 e0 2b 75
        E 0 90 32 34
        E 5 e0 2b 75
        E 6 e0 55 6a
        E 5 e0 55 6a
        E 6 e0 55 6a
        E 5 e0 55 6a
        E 6 e0 55 6a
        E 5 e0 55 6a
        E 6 e0 55 6a
        E 5 e0 55 6a
        E 6 e0 55 6a
        E 5 e0 55 6a
        E 6 e0 55 6a
        E 5 e0 55 6a
        E 0 90 32 00
        E 379 e0 55 4a
        E 0 90 35 1d
        E 5 e0 55 4a
        E 6 e0 00 40
        E 5 e0 2b 35
        E 6 e0 55 2a
        E 5 e0 55 2a
        E 6 e0 55 2a
        E 5 e0 55 2a
        E 6 e0 00 20
        E 5 e0 00 20
        E 6 e0 00 20
        E 5 e0 00 20
        E 6 e0 00 20
        E 0 90 35 00
        E 317 90 3e 45
        E 0 90 41 31
        E 62 90 41 00
        E 5 90 3e 00
        E 357 e0 55 0a
        E 0 90 3a 2d
        E 6 e0 55 0a
        E 5 e0 55 0a
        E 6 e0 55 6a
        E 5 e0 55 6a
        E 6 e0 55 6a
        E 6 e0 55 6a
        E 5 e0 55 6a
        E 6 e0 55 6a
        E 5 e0 00 60
        E 6 e0 00 60
        E 6 e0 00 60
        E 0 90 3a 00
        E 787 e0 2b 75
        E 0 90 45 2c
        E 5 e0 2b 75
        E 6 e0 00 20
        E 5 e0 00 20
        E 6 e0 00 20
        E 6 e0 00 20
        E 5 e0 00 20
        E 6 e0 00 20
        E 5 e0 00 20
        E 6 e0 00 20
        E 5 e0 00 20
        E 6 e0 00 20
        E 0 90 45 00
        E 255 90 2e 16
        E 52 90 40 1b
        E 26 90 2e 00
        E 56 90 3e 1f
        E 0 90 4a 35
        E 5 90 40 00
        E 51 90 4d 2f
        E 5 90 3e 00
        E 15 90 4a 00
        E 46 90 4d 00
        E 312 90 40 2b
        E 0 90 43 28
        E 77 90 43 00
        E 10 90 40 00
        E 379 e0 55 6a
        E 0 90 2e 1e
        E 5 e0 55 6a
        E 5 e0 00 00
        E 6 e0 00 20
        E 5 e0 00 20
        E 5 e0 00 20
        E 6 e0 00 20
        E 5 e0 00 20
        E 5 e0 00 20
        E 6 e0 55 6a
        E 5 e0 55 6a
        E 5 e0 55 6a
        E 6 e0 55 6a
        E 5 e0 55 6a
        E 5 e0 55 6a
        E 6 e0 55 6a
        E 5 e0 55 6a
        E 5 e0 55 6a
        E 6 e0 2b 35
        E 5 e0 2b 35
        E 5 e0 2b 35
        E 6 e0 55 2a
        E 5 e0 55 2a
        E 0 90 2e 00
        E 107 e0 2b 75
        E 0 90 4d 2a
        E 6 e0 2b 75
        E 5 e0 2b 75
        E 6 e0 00 20
        E 5 e0 00 20
        E 6 e0 00 20
        E 5 e0 00 20
        E 6 e0 00 20
        E 5 e0 00 20
        E 6 e0 00 20
        E 5 e0 00 20
        E 6 e0 00 20
        E 5 e0 2b 15
        E 6 e0 2b 15
        E 0 90 4d 00
        E 296 90 35 18
        E 0 90 3e 25
        E 0 90 45 16
        E 0 90 51 2b
        E 61 90 51 00
        E 21 90 41 28
        E 5 90 45 00
        E 5 90 35 00
        E 0 90 45 25
        E 10 90 3e 00
        E 46 90 41 00
        E 62 90 45 00
        E 87 90 41 27
        E 5 90 3e 17
        E 102 90 45 20
        E 10 90 3e 00
        E 11 90 41 00
        E 92 90 32 25
        E 5 90 3e 35
        E 5 90 41 19
        E 10 90 45 00
        E 51 90 32 00
        E 5 90 41 00
        E 5 90 3e 00
        E 194 e0 2b 15
        E 0 90 41 24
        E 6 e0 2b 15
        E 5 e0 2b 15
        E 5 e0 2b 15
        E 6 e0 2b 15
        E 5 e0 2b 15
        E 5 e0 2b 15
        E 6 e0 2b 15
        E 5 e0 00 20
        E 5 e0 00 20
        E 6 e0 00 20
        E 5 e0 00 20
        E 5 e0 00 20
        E 6 e0 00 20
        E 5 e0 00 20
        E 5 e0 00 20
        E 6 e0 00 20
        E 5 e0 00 20
        E 5 e0 00 20
        E 6 e0 00 20
        E 5 e0 00 20
        E 5 e0 00 20
        E 6 e0 00 20
        E 5 e0 00 20
        E 0 90 41 00
        E 102 90 41 1f
        E 0 90 45 21
        E 103 90 45 00
        E 0 90 45 2a
        E 10 90 41 00
        E 72 90 45 00
        E 87 90 41 2d
        E 0 90 4d 32
        E 76 90 41 00
        E 10 90 4d 00
        E 92 90 41 17
        E 67 90 4d 1d
        E 102 90 4d 00
        E 5 90 39 27
        E 5 90 41 00
        E 5 90 41 29
        E 62 90 39 00
        E 0 90 41 00
        E 337 90 24 22
        E 5 90 21 1b
        E 0 90 2a 12
        E 0 90 2d 21
        E 5 90 34 18
        E 0 90 37 24
        E 0 90 39 29
        E 0 90 40 22
        E 0 90 43 1c
        E 57 90 2a 00
        E 0 90 3e 28
        E 5 90 21 00
        E 0 90 24 00
        E 5 90 2d 00
        E 0 90 34 00
        E 0 90 43 00
        E 5 90 37 00
        E 0 90 40 00
        E 5 90 39 00
        E 118 90 3e 00
        E 393 e0 00 40
        E 0 90 22 22
        E 5 e0 2b 35
        E 6 e0 2b 35
        E 5 e0 2b 35
        E 5 e0 2b 35
        E 6 e0 2b 35
        E 5 e0 55 2a
        E 5 e0 55 2a
        E 6 e0 55 2a
        E 5 e0 55 2a
        E 5 e0 55 2a
        E 6 e0 55 2a
        E 5 e0 00 20
        E 5 e0 00 20
        E 6 e0 00 20
        E 5 e0 00 20
        E 5 e0 00 20
        E 6 e0 00 00
        E 5 e0 2b 75
        E 5 e0 2b 75
        E 6 e0 2b 75
        E 5 e0 00 20
        E 5 e0 00 20
        E 0 90 22 00
        E 307 e0 55 6a
        E 0 90 32 2f
        E 6 e0 55 6a
        E 5 e0 55 6a
        E 6 e0 55 6a
        E 5 e0 55 6a
        E 6 e0 55 6a
        E 5 e0 55 6a
        E 5 e0 55 6a
        E 6 e0 55 6a
        E 5 e0 55 6a
        E 6 e0 2b 15
        E 5 e0 2b 15
        E 6 e0 2b 15
        E 5 e0 2b 15
        E 5 e0 2b 15
        E 6 e0 2b 15
        E 5 e0 2b 15
        E 0 90 32 00
        E 537 e0 2b 75
        E 0 90 3d 40
        E 6 e0 55 0a
        E 5 e0 55 0a
        E 6 e0 55 0a
        E 6 e0 2b 75
        E 5 e0 55 6a
        E 6 e0 55 6a
        E 5 e0 55 6a
        E 6 e0 55 6a
        E 5 e0 55 6a
        E 6 e0 55 6a
        E 6 e0 55 6a
        E 0 90 3d 00
        E 61 90 3d 2b
        E 117 90 40 29
        E 16 90 39 2b
        E 5 90 3d 00
        E 0 90 3d 1d
        E 97 90 21 1b
        E 0 90 2a 21
        E 10 90 3d 00
        E 0 90 3d 34
        E 21 90 40 00
        E 35 90 21 00
        E 0 90 2a 00
        E 5 90 39 00
        E 5 90 3d 00
        E 103 90 4c 2a
        E 51 90 39 12
        E 66 90 39 00
        E 15 90 4c 00
        E 1401 e0 00 20
        E 0 90 45 1f
        E 6 e0 00 20
        E 5 e0 00 20
        E 6 e0 00 20
        E 6 e0 00 20
        E 5 e0 00 20
        E 6 e0 00 20
        E 5 e0 00 20
        E 6 e0 00 20
        E 5 e0 00 20
        E 6 e0 00 20
        E 6 e0 00 20
        E 0 90 45 00
        E 81 e0 00 20
        E 0 90 4d 27
        E 6 e0 00 20
        E 5 e0 00 20
        E 5 e0 55 2a
        E 6 e0 55 2a
        E 5 e0 00 20
        E 5 e0 55 6a
        E 6 e0 55 6a
        E 5 e0 55 6a
        E 5 e0 55 6a
        E 6 e0 55 6a
        E 5 e0 55 6a
        E 5 e0 55 6a
        E 6 e0 2b 75
        E 5 e0 2b 75
        E 5 e0 2b 75
        E 5 e0 55 6a
        E 6 e0 55 6a
        E 5 e0 55 6a
        E 5 e0 55 6a
        E 6 e0 55 6a
        E 5 e0 2b 15
        E 5 e0 00 20
        E 6 e0 55 2a
        E 5 e0 00 60
        E 0 90 4d 00
        E 1135 90 37 1b
        E 0 90 3a 1a
        E 0 90 3c 16
        E 0 90 40 16
        E 51 90 34 11
        E 5 90 4a 26
        E 6 90 3c 00
        E 5 90 3a 00
        E 0 90 40 00
        E 0 90 56 27
        E 46 90 31 0f
        E 5 90 3d 1f
        E 5 90 37 00
        E 0 90 4a 00
        E 46 90 37 19
        E 0 90 4a 25
        E 5 90 31 00
        E 0 90 43 1d
        E 5 90 34 00
        E 5 90 3d 00
        E 0 90 3e 0d
        E 10 90 56 00
        E 26 90 3a 1d
        E 66 90 3e 00
        E 5 90 37 00
        E 0 90 3a 00
        E 6 90 43 00
        E 0 90 4a 00
        E 66 e0 00 20
        E 0 90 48 1e
        E 5 e0 00 20
        E 6 e0 00 20
        E 5 e0 00 20
        E 6 e0 00 20
        E 5 e0 00 20
        E 6 e0 00 20
        E 5 e0 00 20
        E 6 e0 55 2a
        E 5 e0 00 20
        E 6 e0 00 20
        E 5 e0 00 20
        E 6 e0 00 20
        E 5 e0 00 20
        E 0 90 48 00
        E 414 90 31 1c
        E 67 90 41 21
        E 5 90 31 00
        E 62 90 41 00
        E 35 90 37 14
        E 11 90 4a 17
        E 46 90 3c 22
        E 66 90 37 00
        E 5 90 3c 00
        E 0 90 4a 00
        E 706 e0 00 20
        E 0 90 31 1e
        E 5 e0 00 20
        E 6 e0 00 20
        E 5 e0 55 2a
        E 6 e0 55 2a
        E 5 e0 55 2a
        E 6 e0 55 2a
        E 6 e0 55 2a
        E 5 e0 00 20
        E 6 e0 00 20
        E 5 e0 2b 15
        E 6 e0 2b 15
        E 0 90 31 00
        E 592 90 20 1d
        E 6 90 24 18
        E 5 90 37 18
        E 61 90 34 1b
        E 10 90 24 00
        E 0 90 40 2f
        E 5 90 20 00
        E 0 90 3c 1d
        E 0 90 4c 21
        E 57 90 34 00
        E 5 90 37 00
        E 0 90 3c 00
        E 0 90 4c 00
        E 5 90 40 00
        E 869 e0 7f 7f
        E 0 90 35 1f
        E 6 e0 00 40
        E 5 e0 55 2a
        E 6 e0 55 2a
        E 6 e0 55 2a
        E 5 e0 55 2a
        E 6 e0 55 2a
        E 5 e0 55 2a
        E 6 e0 55 2a
        E 5 e0 55 2a
        E 6 e0 55 2a
        E 6 e0 55 2a
        E 0 90 35 00
        E 327 90 32 47
        E 40 90 3e 21
        E 21 90 32 00
        E 82 90 3e 00
        E 199 90 3e 1a
        E 56 90 41 2c
        E 5 90 3e 00
        E 0 90 3e 2e
        E 62 90 41 00
        E 82 90 3e 00
        E 449 90 32 2c
        E 5 90 3e 2d
        E 5 90 4d 23
        E 6 90 41 28
        E 56 90 32 00
        E 0 90 4d 00
        E 15 90 3e 00
        E 31 90 41 00
        E 71 90 3c 1e
        E 36 90 4d 22
        E 46 90 3c 00
        E 31 90 41 2a
        E 5 90 4d 00
        E 0 90 4d 23
        E 67 90 4d 00
        E 20 90 41 00
        E 10 90 3e 2f
        E 36 90 51 34
        E 5 90 41 28
        E 5 90 45 29
        E 16 90 3e 00
        E 35 90 51 00
        E 11 90 45 00
        E 25 90 41 00
        E 113 e0 2b 35
        E 0 90 39 4a
        E 5 e0 55 2a
        E 6 e0 55 2a
        E 5 e0 55 6a
        E 6 e0 00 20
        E 5 e0 00 20
        E 6 e0 2b 75
        E 5 e0 2b 75
        E 6 e0 00 20
        E 5 e0 00 20
        E 6 e0 00 20
        E 5 e0 00 20
        E 6 e0 00 20
        E 0 90 39 00
        E 409 90 45 2b
        E 5 90 4d 32
        E 61 90 45 00
        E 5 90 4d 00
        E 11 e0 00 20
        E 0 90 41 24
        E 5 e0 00 20
        E 6 e0 00 20
        E 5 e0 00 20
        E 6 e0 00 20
        E 5 e0 00 20
        E 6 e0 00 20
        E 5 e0 00 20
        E 6 e0 00 20
        E 5 e0 00 20
        E 6 e0 00 20
        E 5 e0 00 20
        E 6 e0 00 20
        E 5 e0 00 20
        E 6 e0 00 20
        E 0 90 41 00
        E 551 90 34 15
        E 128 90 2e 1d
        E 5 90 2b 14
        E 0 90 37 11
        E 0 90 3a 1f
        E 0 90 41 26
        E 10 90 4d 29
        E 51 90 3c 19
        E 5 90 2b 00
        E 0 90 46 16
        E 0 90 4a 24
        E 6 90 2e 00
        E 0 90 34 00
        E 0 90 4f 1a
        E 5 90 3a 00
        E 5 90 4d 00
        E 41 90 46 00
        E 5 90 41 00
        E 0 90 4a 00
        E 36 90 37 00
        E 5 90 37 1c
        E 5 90 4a 1a
        E 5 90 53 1a
        E 6 90 3c 00
        E 0 90 4f 00
        E 56 90 53 00
        E 46 90 43 21
        E 15 90 4a 00
        E 51 90 37 00
        E 0 90 43 00
        E 445 e0 2b 15
        E 0 90 41 29
        E 5 e0 2b 15
        E 5 e0 2b 15
        E 5 e0 2b 15
        E 6 e0 00 20
        E 5 e0 00 20
        E 5 e0 00 20
        E 6 e0 00 60
        E 5 e0 2b 15
        E 5 e0 00 20
        E 6 e0 00 20
        E 5 e0 00 20
        E 5 e0 00 20
        E 6 e0 00 20
        E 5 e0 00 20
        E 5 e0 00 20
        E 5 e0 00 20
        E 6 e0 00 20
        E 5 e0 00 20
        E 5 e0 00 20
        E 6 e0 00 20
        E 5 e0 00 20
        E 5 e0 00 20
        E 6 e0 00 20
        E 5 e0 2b 15
        E 5 e0 2b 15
        E 5 e0 2b 15
        E 0 90 41 00
        E 113 90 45 34
        E 21 90 41 28
        E 46 90 45 00
        E 20 90 41 00
        E 434 90 3f 38
        E 26 90 3a 28
        E 72 90 3f 00
        E 66 90 3a 00
        E 200 90 3f 2c
        E 0 90 46 14
        E 0 90 4b 34
        E 61 90 46 00
        E 10 90 3f 00
        E 0 90 4b 00
        E 1800 e0 00 00
        E 0 90 2e 32
        E 5 e0 00 00
        E 6 e0 2b 15
        E 5 e0 00 20
        E 6 e0 00 20
        E 5 e0 00 20
        E 6 e0 00 20
        E 5 e0 00 20
        E 6 e0 00 20
        E 5 e0 7f 7f
        E 6 e0 7f 7f
        E 5 e0 2b 75
        E 6 e0 55 6a
        E 0 90 2e 00
        E 276 90 2e 25
        E 15 90 4a 26
        E 87 90 2e 00
        E 46 90 4a 00
        E 445 90 2d 2f
        E 123 90 21 28
        E 5 90 40 2a
        E 10 90 2d 00
        E 71 90 21 00
        E 0 90 40 00
        E 92 90 32 2c
        E 0 90 41 2d
        E 103 90 32 00
        E 5 90 41 00
        E 209 e0 2b 15
        E 0 90 2d 2c
        E 5 e0 2b 15
        E 5 e0 2b 15
        E 5 e0 2b 15
        E 6 e0 2b 15
        E 5 e0 00 20
        E 5 e0 00 20
        E 5 e0 00 20
        E 5 e0 00 20
        E 5 e0 00 20
        E 5 e0 2b 15
        E 6 e0 2b 15
        E 5 e0 2b 15
        E 5 e0 2b 15
        E 5 e0 2b 15
        E 5 e0 2b 15
        E 5 e0 2b 15
        E 5 e0 2b 15
        E 5 e0 2b 15
        E 6 e0 00 20
        E 5 e0 00 20
        E 5 e0 00 20
        E 5 e0 00 20
        E 5 e0 00 20
        E 5 e0 00 20
        E 5 e0 00 20
        E 0 90 2d 00
        E 358 90 26 35
        E 0 90 32 31
        E 87 90 32 00
        E 66 90 26 00
        E 1278 90 32 25
        E 0 90 45 2a
        E 6 90 3e 2c
        E 61 90 45 00
        E 51 90 32 00
        E 5 90 3e 00
        E 153 90 3e 26
        E 10 90 41 22
        E 72 90 32 21
        E 15 90 41 00
        E 36 90 45 24
        E 46 90 32 00
        E 41 90 3e 00
        E 5 90 45 00
        E 66 90 32 1b
        E 0 90 4e 2b
        E 11 90 3e 21
        E 51 90 4e 00
        E 46 90 3e 00
        E 25 90 41 1b
        E 0 90 4d 1e
        E 62 90 41 00
        E 5 90 4d 00
        E 143 90 39 2a
        E 5 90 42 28
        E 5 90 32 00
        E 67 90 32 21
        E 5 90 3e 13
        E 5 90 45 39
        E 41 90 3b 25
        E 10 90 39 00
        E 10 90 45 00
        E 36 90 2f 38
        E 0 90 3e 00
        E 5 90 3e 23
        E 5 90 32 00
        E 5 90 3b 00
        E 6 90 42 00
        E 40 90 2f 00
        E 36 90 42 25
        E 41 90 3e 00
        E 41 90 4c 24
        E 15 90 42 00
        E 31 90 40 27
        E 46 90 43 2c
        E 0 90 4c 00
        E 41 90 40 00
        E 61 90 40 26
        E 21 90 43 00
        E 45 90 34 1d
        E 16 90 40 00
        E 0 90 40 27
        E 82 90 26 38
        E 0 90 32 33
        E 5 90 34 00
        E 10 90 40 00
        E 92 90 26 00
        E 0 90 32 00
        E 138 90 40 33
        E 16 90 39 12
        E 46 90 40 00
        E 40 90 39 00
        E 113 90 4f 1a
        E 61 90 32 39
        E 0 90 42 2c
        E 0 90 4a 26
        E 5 90 45 1f
        E 5 90 4f 00
        E 31 90 3e 20
        E 20 90 32 00
        E 46 90 3e 00
        E 0 90 4a 00
        E 26 90 36 1e
        E 15 90 42 00
        E 82 90 36 00
        E 5 90 45 00
        E 21 90 32 2a
        E 0 90 4a 2c
        E 5 90 3e 26
        E 77 90 3b 21
        E 5 90 3e 00
        E 0 90 3e 22
        E 15 90 32 00
        E 5 90 4a 00
        E 57 90 2f 28
        E 81 90 39 23
        E 5 90 45 24
        E 0 90 4a 3b
        E 6 90 42 30
        E 5 90 2f 00
        E 0 90 3b 00
        E 46 90 39 00
        E 5 90 45 00
        E 10 90 42 00
        E 0 90 4a 00
        E 41 90 3e 00
        E 444 e0 2b 75
        E 0 90 43 27
        E 6 e0 2b 15
        E 5 e0 00 20
        E 6 e0 00 20
        E 5 e0 00 20
        E 5 e0 00 20
        E 6 e0 00 20
        E 5 e0 00 20
        E 6 e0 00 20
        E 5 e0 00 20
        E 6 e0 00 20
        E 5 e0 00 20
        E 5 e0 55 6a
        E 6 e0 55 6a
        E 5 e0 55 6a
        E 6 e0 00 20
        E 5 e0 00 20
        E 0 90 43 00
        E 72 e0 2b 15
        E 0 90 42 31
        E 6 e0 2b 15
        E 5 e0 2b 15
        E 5 e0 00 20
        E 6 e0 00 20
        E 5 e0 00 20
        E 6 e0 00 20
        E 5 e0 00 20
        E 5 e0 00 20
        E 6 e0 00 20
        E 5 e0 00 20
        E 6 e0 00 20
        E 5 e0 00 20
        E 6 e0 00 20
        E 5 e0 00 20
        E 5 e0 00 20
        E 6 e0 00 20
        E 5 e0 00 20
        E 0 90 42 00
        E 21 90 21 2d
        E 15 90 2d 2b
        E 41 90 40 26
        E 5 90 21 00
        E 71 90 40 00
        E 0 90 40 1f
        E 21 90 2d 00
        E 56 90 3e 28
        E 5 90 40 00
        E 61 90 36 2e
        E 21 90 3e 00
        E 51 90 36 00
        E 77 90 32 1c
        E 35 90 3e 2e
        E 5 90 2a 25
        E 36 90 26 22
        E 10 90 2d 28
        E 0 90 32 00
        E 11 90 3e 00
        E 61 90 26 00
        E 0 90 36 1e
        E 5 90 26 2c
        E 10 90 2a 00
        E 5 90 2d 00
        E 62 90 36 00
        E 128 90 26 00
        E 61 90 39 32
        E 0 90 42 37
        E 10 90 32 23
        E 0 90 3e 35
        E 0 90 45 33
        E 52 90 39 00
        E 5 90 42 00
        E 5 90 3e 00
        E 0 90 45 00
        E 30 90 3e 29
        E 16 90 32 00
        E 97 90 3e 00
        E 66 90 3e 14
        E 0 90 41 29
        E 97 90 41 00
        E 36 90 45 1d
        E 31 90 3e 00
        E 5 90 3e 2d
        E 41 90 4a 2c
        E 46 90 26 2b
        E 10 90 32 2a
        E 5 90 45 00
        E 10 90 3e 00
        E 0 90 4a 00
        E 72 90 38 27
        E 5 90 26 00
        E 36 90 4d 24
        E 15 90 32 00
        E 41 90 38 00
        E 5 90 4d 00
        E 16 90 32 23
        E 36 90 2c 2f
        E 5 90 41 36
        E 56 90 2c 00
        E 5 90 32 00
        E 5 90 41 00
        E 15 90 39 28
        E 21 90 42 23
        E 25 90 32 1c
        E 46 90 51 29
        E 46 90 2f 31
        E 0 90 3e 2c
        E 0 90 45 1e
        E 5 90 39 00
        E 11 90 51 00
        E 56 90 42 00
        E 20 90 3e 00
        E 5 90 3e 24
        E 0 90 4a 17
        E 11 90 2f 00
        E 40 90 42 22
        E 6 90 45 00
        E 25 90 2b 22
        E 15 90 4a 00
        E 11 90 3e 00
        E 25 90 4c 29
        E 5 90 32 00
        E 0 90 40 29
        E 10 90 2b 00
        E 0 90 42 00
        E 67 90 37 25
        E 10 90 40 00
        E 0 90 40 1e
        E 0 90 43 24
        E 5 90 4c 00
        E 82 90 2d 2a
        E 5 90 40 00
        E 0 90 40 2f
        E 10 90 37 00
        E 10 90 43 00
        E 57 90 34 13
        E 15 90 2d 00
        E 46 90 40 00
        E 36 90 26 27
        E 0 90 32 2b
        E 0 90 34 00
        E 92 90 32 00
        E 51 90 3e 3a
        E 11 90 32 27
        E 0 90 4a 42
        E 61 90 3e 00
        E 0 90 4a 00
        E 20 90 39 1d
        E 5 90 45 1a
        E 6 90 32 00
        E 10 90 26 00
        E 20 90 40 1b
        E 36 90 42 3a
        E 20 90 39 00
        E 0 90 45 00
        E 41 90 42 00
        E 56 90 4a 1c
        E 6 90 4f 1f
        E 10 90 40 00
        E 41 90 26 22
        E 5 90 39 22
        E 5 90 32 3b
        E 5 90 3e 25
        E 10 90 4f 00
        E 36 90 26 00
        E 0 90 4a 00
        E 10 90 39 00
        E 5 90 32 00
        E 21 90 42 27
        E 15 90 3e 00
        E 26 90 45 19
        E 5 90 36 18
        E 46 90 42 00
        E 40 90 36 00
        E 41 90 32 24
        E 0 90 3e 2c
        E 31 90 34 1a
        E 10 90 45 00
        E 46 90 4a 24
        E 5 90 34 00
        E 11 90 32 00
        E 5 90 3e 00
        E 46 90 3b 2a
        E 10 90 2f 2b
        E 82 90 36 23
        E 0 90 39 20
        E 0 90 3e 20
        E 5 90 4e 23
        E 5 90 42 2b
        E 0 90 4a 00
        E 0 90 4a 24
        E 5 90 3b 00
        E 6 90 2f 00
        E 46 90 36 00
        E 40 90 39 00
        E 0 90 3e 00
        E 11 90 42 00
        E 0 90 4e 00
        E 30 90 4a 00
        E 26 90 36 1e
        E 10 90 2a 23
        E 97 90 2a 00
        E 72 90 32 24
        E 10 90 36 00
        E 92 90 32 00
        E 46 90 23 32
        E 56 90 43 25
        E 10 90 23 00
        E 56 90 43 00
        E 36 e0 00 60
        E 0 90 21 31
        E 6 e0 00 60
        E 5 e0 00 60
        E 6 e0 00 60
        E 5 e0 2b 15
        E 6 e0 2b 15
        E 5 e0 2b 15
        E 6 e0 2b 15
        E 5 e0 2b 15
        E 6 e0 2b 15
        E 5 e0 2b 15
        E 6 e0 2b 15
        E 6 e0 2b 15
        E 0 90 21 00
        E 5 90 42 21
        E 113 90 21 22
        E 5 90 2d 2c
        E 0 90 34 21
        E 10 90 42 00
        E 31 90 40 2f
        E 97 90 34 00
        E 5 90 40 00
        E 5 90 21 00
        E 0 90 2d 00
        E 61 90 3e 37
        E 56 90 32 27
        E 16 90 3e 00
        E 66 90 2d 23
        E 0 90 32 00
        E 0 90 32 30
        E 0 90 3e 2b
        E 61 90 2d 00
        E 26 90 32 00
        E 0 90 32 20
        E 5 90 3e 00
        E 0 90 3e 20
        E 31 90 36 29
        E 10 90 2a 25
        E 25 90 3e 00
        E 31 90 32 00
        E 10 90 36 00
        E 67 90 36 23
        E 5 90 26 2f
        E 0 90 32 2c
        E 71 90 2a 00
        E 0 90 36 00
        E 21 90 32 00
        E 113 90 26 00
        E 102 e0 00 60
        E 0 90 40 3c
        E 5 e0 7f 7f
        E 6 e0 7f 7f
        E 5 e0 2b 15
        E 6 e0 2b 15
        E 6 e0 2b 15
        E 5 e0 2b 15
        E 6 e0 00 20
        E 5 e0 00 20
        E 6 e0 00 20
        E 5 e0 00 20
        E 6 e0 00 20
        E 5 e0 00 20
        E 0 90 40 00
        E 5 e0 2b 15
        E 0 90 40 1e
        E 6 e0 2b 15
        E 6 e0 2b 15
        E 5 e0 00 20
        E 6 e0 00 20
        E 5 e0 00 20
        E 6 e0 55 6a
        E 5 e0 55 6a
        E 6 e0 55 6a
        E 6 e0 55 6a
        E 5 e0 55 6a
        E 6 e0 00 60
        E 0 90 40 00
        E 76 e0 55 0a
        E 0 90 40 28
        E 6 e0 55 0a
        E 5 e0 55 0a
        E 5 e0 55 0a
        E 6 e0 55 0a
        E 5 e0 55 0a
        E 6 e0 55 0a
        E 5 e0 55 0a
        E 5 e0 55 0a
        E 6 e0 55 0a
        E 5 e0 2b 75
        E 6 e0 2b 75
        E 5 e0 2b 75
        E 5 e0 2b 75
        E 6 e0 2b 75
        E 5 e0 2b 75
        E 6 e0 2b 75
        E 5 e0 55 6a
        E 5 e0 00 60
        E 0 90 40 00
        E 77 90 39 10
        E 5 90 3d 21
        E 77 90 42 3b
        E 15 90 39 00
        E 10 90 3d 00
        E 36 90 42 00
        E 46 e0 55 6a
        E 0 90 43 2a
        E 6 e0 55 6a
        E 5 e0 55 6a
        E 6 e0 55 6a
        E 5 e0 55 6a
        E 6 e0 55 6a
        E 5 e0 00 60
        E 6 e0 00 60
        E 5 e0 00 60
        E 6 e0 55 0a
        E 5 e0 55 0a
        E 6 e0 55 0a
        E 5 e0 55 0a
        E 0 90 43 00
        E 195 90 42 3e
        E 5 90 33 28
        E 10 90 3f 24
        E 52 90 42 00
        E 30 90 3d 26
        E 5 90 43 27
        E 5 90 33 00
        E 0 90 3f 00
        E 82 90 3d 00
        E 0 90 40 28
        E 10 90 43 00
        E 62 90 26 27
        E 10 90 42 37
        E 5 90 4e 36
        E 5 90 32 24
        E 0 90 3e 24
        E 10 90 40 00
        E 41 90 42 00
        E 5 90 4e 00
        E 36 90 26 00
        E 5 90 3e 00
        E 77 90 45 1c
        E 5 90 3e 1f
        E 87 90 4d 17
        E 10 90 3e 00
        E 0 90 45 00
        E 87 90 4d 00
        E 30 90 32 00
        E 31 e0 00 20
        E 0 90 40 2c
        E 6 e0 00 20
        E 5 e0 00 20
        E 6 e0 00 20
        E 5 e0 00 20
        E 6 e0 00 20
        E 5 e0 00 20
        E 6 e0 00 20
        E 6 e0 00 20
        E 5 e0 55 2a
        E 6 e0 00 20
        E 5 e0 00 20
        E 0 90 40 00
        E 21 90 32 24
        E 0 90 39 33
        E 11 90 45 33
        E 5 90 3e 1c
        E 46 90 39 00
        E 10 90 45 00
        E 31 90 32 00
        E 66 90 45 3d
        E 10 90 32 1f
        E 51 90 45 00
        E 21 90 35 25
        E 10 90 32 00
        E 0 90 41 26
        E 77 90 32 1c
        E 10 90 35 00
        E 0 90 3e 00
        E 0 90 3e 18
        E 0 90 45 25
        E 0 90 51 35
        E 10 90 41 00
        E 51 90 51 00
        E 26 90 3e 00
        E 0 90 3e 2b
        E 5 90 32 00
        E 30 90 51 29
        E 5 90 4a 1d
        E 52 90 1f 31
        E 0 90 2b 2c
        E 10 90 32 24
        E 5 90 3e 00
        E 0 90 3e 31
        E 10 90 4a 00
        E 0 90 51 00
        E 41 90 1f 00
        E 0 90 45 00
        E 5 90 2b 00
        E 0 90 32 00
        E 5 90 3e 00
        E 128 90 47 27
        E 71 90 25 25
        E 16 90 47 00
        E 67 90 32 33
        E 5 90 25 00
        E 0 90 26 26
        E 76 90 45 27
        E 6 90 4a 1d
        E 5 90 26 00
        E 5 90 32 00
        E 71 90 2d 22
        E 16 90 45 00
        E 0 90 4a 00
        E 81 90 2d 00
        E 77 90 3b 1c
        E 66 90 3d 2c
        E 67 90 3d 00
        E 30 90 32 28
        E 0 90 4a 1b
        E 6 90 3e 2a
        E 10 90 3b 00
        E 81 90 4a 00
        E 6 90 32 00
        E 5 90 3e 00
        E 51 90 2f 3a
        E 10 90 3b 26
        E 51 90 2f 00
        E 56 90 3b 00
        E 246 90 36 1c
        E 87 90 4a 3e
        E 5 90 36 00
        E 56 90 4a 00
        E 51 90 21 2f
        E 0 90 2d 31
        E 123 90 21 00
        E 0 90 2d 00
        E 56 90 3e 39
        E 10 90 2d 29
        E 5 90 21 25
        E 41 90 34 23
        E 5 90 4a 15
        E 5 90 3e 00
        E 36 90 21 00
        E 0 90 40 2a
        E 36 90 4c 19
        E 10 90 2d 00
        E 26 90 42 3a
        E 10 90 3e 14
        E 5 90 34 00
        E 10 90 40 00
        E 0 90 4c 00
        E 36 90 42 00
        E 0 90 4a 00
        E 41 90 3e 00
        E 77 90 39 21
        E 10 90 45 2f
        E 5 90 3e 25
        E 57 90 45 00
        E 5 90 39 00
        E 199 90 41 34
        E 20 90 3e 00
        E 41 90 41 00
        E 26 90 32 24
        E 5 90 3e 2c
        E 51 90 45 1d
        E 41 90 32 00
        E 5 90 3e 00
        E 25 90 3e 2a
        E 6 90 4a 1e
        E 61 90 32 2d
        E 5 90 3e 00
        E 0 90 3e 21
        E 5 90 45 00
        E 41 90 4a 00
        E 51 90 3e 00
        E 5 90 32 00
        E 26 90 4d 16
        E 41 90 32 25
        E 10 90 3e 17
        E 15 90 4d 00
        E 21 90 2c 21
        E 0 90 38 2a
        E 35 90 41 37
        E 21 90 32 00
        E 5 90 2c 00
        E 0 90 38 00
        E 31 90 3e 00
        E 5 90 41 00
        E 36 90 42 27
        E 25 90 32 24
        E 57 90 3e 24
        E 0 90 45 3c
        E 41 90 3b 23
        E 10 90 42 00
        E 10 90 45 00
        E 31 90 2f 25
        E 15 90 3b 00
        E 15 90 3e 00
        E 5 90 32 00
        E 5 90 3e 1c
        E 98 90 2f 00
        E 0 90 42 18
        E 5 90 3e 00
        E 46 90 40 26
        E 10 90 42 00
        E 61 90 37 2a
        E 15 90 40 00
        E 0 90 40 24
        E 0 90 43 23
        E 92 90 2d 22
        E 6 90 37 00
        E 10 90 40 00
        E 36 90 43 00
        E 25 90 34 1c
        E 41 90 39 2a
        E 5 90 40 25
        E 51 90 32 2e
        E 5 90 26 2b
        E 5 90 34 00
        E 5 90 39 00
        E 0 90 40 00
        E 11 90 2d 00
        E 72 90 32 00
        E 61 90 3e 39
        E 15 90 4a 42
        E 16 90 26 00
        E 35 90 3e 00
        E 11 90 4a 00
        E 25 90 40 28
        E 0 90 4c 1f
        E 87 90 4c 00
        E 5 90 40 00
        E 138 90 26 33
        E 5 90 32 47
        E 10 90 36 29
        E 0 90 39 23
        E 16 90 45 26
        E 30 90 26 00
        E 5 90 32 00
        E 26 90 39 00
        E 36 90 45 00
        E 25 90 36 00
        E 5 90 36 1e
        E 36 90 40 24
        E 5 90 34 20
        E 51 90 36 00
        E 31 90 3e 2d
        E 10 90 34 00
        E 0 90 40 00
        E 87 90 4a 21
        E 10 90 3e 00
        E 51 90 3b 2d
        E 16 90 2f 28
        E 26 90 47 2b
        E 5 90 3e 20
        E 10 90 4a 00
        E 31 90 36 20
        E 5 90 39 24
        E 5 90 4a 2b
        E 5 90 42 28
        E 5 90 2f 00
        E 0 90 3b 00
        E 0 90 3e 00
        E 5 90 47 00
        E 41 90 36 00
        E 0 90 39 00
        E 46 90 4a 00
        E 5 90 42 00
        E 317 90 25 25
        E 128 90 37 24
        E 15 90 25 00
        E 66 90 2d 28
        E 6 90 37 00
        E 35 90 21 24
        E 26 90 2d 00
        E 36 90 42 2b
        E 87 90 42 00
        E 26 90 2d 2e
        E 46 90 40 27
        E 66 90 34 1c
        E 10 90 40 00
        E 0 90 40 2b
        E 5 90 21 00
        E 11 90 2d 00
        E 45 90 40 00
        E 21 90 26 1e
        E 0 90 32 41
        E 5 90 3e 34
        E 5 90 34 00
        E 36 90 39 15
        E 15 90 26 00
        E 5 90 32 00
        E 0 90 3e 00
        E 41 90 36 20
        E 36 90 2d 33
        E 5 90 32 2b
        E 46 90 39 00
        E 10 90 2d 00
        E 5 90 36 00
        E 31 90 32 00
        E 0 90 32 1d
        E 41 90 36 23
        E 0 90 3d 1c
        E 5 90 2a 31
        E 46 90 2d 2d
        E 10 90 3d 00
        E 31 90 26 1a
        E 0 90 36 00
        E 10 90 32 00
        E 5 90 2a 00
        E 46 90 26 00
        E 5 90 26 40
        E 10 90 1a 28
        E 21 90 32 31
        E 5 90 39 1b
        E 26 90 26 00
        E 0 90 26 2d
        E 35 90 39 00
        E 5 90 32 00
        E 16 90 1a 00
        E 20 90 2d 00
        E 72 90 26 00
        E 1457 90 26 20
        E 5 90 42 46
        E 46 90 3e 28
        E 15 90 42 00
        E 21 90 26 00
        E 46 90 3e 00
        E 725 90 2f 1c
        E 0 90 31 14
        E 6 90 3b 18
        E 0 90 3e 25
        E 0 90 41 19
        E 51 90 34 1a
        E 0 90 37 11
        E 5 90 44 25
        E 10 90 31 00
        E 0 90 3b 00
        E 5 90 41 00
        E 56 90 2f 00
        E 0 90 44 00
        E 36 90 37 00
        E 5 90 34 00
        E 10 90 3e 00
        E 31 e0 00 60
        E 0 90 45 20
        E 6 e0 00 60
        E 5 e0 00 60
        E 6 e0 00 60
        E 5 e0 00 60
        E 6 e0 00 60
        E 5 e0 00 60
        E 6 e0 00 60
        E 6 e0 00 60
        E 5 e0 55 6a
        E 6 e0 55 6a
        E 5 e0 55 6a
        E 0 90 45 00
        E 767 e0 55 4a
        E 0 90 32 40
        E 6 e0 55 2a
        E 5 e0 2b 15
        E 6 e0 2b 15
        E 5 e0 2b 15
        E 6 e0 00 20
        E 6 e0 00 20
        E 5 e0 00 20
        E 6 e0 00 20
        E 5 e0 55 6a
        E 6 e0 00 20
        E 5 e0 00 20
        E 0 90 32 00
        E 691 90 36 1c
        E 5 90 2a 14
        E 0 90 3e 18
        E 0 90 42 31
        E 56 90 30 21
        E 0 90 34 17
        E 0 90 39 1e
        E 5 90 2a 00
        E 5 90 40 31
        E 0 90 4c 28
        E 10 90 42 00
        E 36 90 32 14
        E 0 90 3c 14
        E 0 90 42 26
        E 5 90 30 00
        E 0 90 34 00
        E 10 90 4c 00
        E 6 90 40 00
        E 40 90 45 2b
        E 6 90 32 00
        E 0 90 3c 00
        E 0 90 3e 00
        E 0 90 3e 1b
        E 5 90 36 00
        E 5 90 42 00
        E 30 90 37 23
        E 0 90 40 30
        E 11 90 39 00
        E 5 90 45 00
        E 41 90 37 00
        E 0 90 3e 00
        E 5 90 40 00
        E 664 90 39 3e
        E 21 90 42 1c
        E 56 90 39 00
        E 5 90 42 00
        E 629 90 4a 2e
        E 15 90 42 20
        E 46 90 4a 00
        E 51 90 42 00
        E 92 e0 2b 15
        E 0 90 39 2d
        E 6 e0 2b 15
        E 5 e0 2b 15
        E 5 e0 2b 15
        E 6 e0 00 20
        E 5 e0 00 20
        E 6 e0 00 20
        E 5 e0 00 20
        E 5 e0 00 20
        E 6 e0 00 20
        E 5 e0 00 20
        E 6 e0 00 20
        E 5 e0 00 20
        E 5 e0 00 20
        E 6 e0 00 20
        E 5 e0 00 20
        E 5 e0 00 20
        E 6 e0 00 20
        E 5 e0 00 20
        E 6 e0 00 20
        E 0 90 39 00
        E 72 90 24 1f
        E 5 90 21 19
        E 5 90 3e 2e
        E 5 90 34 1f
        E 0 90 37 26
        E 0 90 39 2d
        E 0 90 40 28
        E 5 90 43 25
        E 46 90 24 00
        E 10 90 21 00
        E 0 90 34 00
        E 0 90 37 00
        E 0 90 3e 00
        E 5 90 40 00
        E 0 90 43 00
        E 36 90 39 00
        E 654 90 36 28
        E 5 90 2f 17
        E 0 90 3e 1f
        E 5 90 42 26
        E 47 90 34 1e
        E 10 90 2f 00
        E 5 90 40 17
        E 5 90 36 00
        E 0 90 3e 00
        E 5 90 42 00
        E 77 90 26 20
        E 0 90 2a 28
        E 0 90 36 2c
        E 5 90 2f 12
        E 5 90 34 00
        E 0 90 3e 1d
        E 5 90 42 1d
        E 51 90 26 00
        E 0 90 2a 00
        E 0 90 2f 00
        E 5 90 36 00
        E 57 90 3e 00
        E 0 90 40 00
        E 40 90 47 27
        E 62 90 47 00
        E 5 90 42 00
        E 82 90 47 18
        E 35 90 34 1b
        E 5 90 45 13
        E 36 90 39 1f
        E 10 90 49 2a
        E 6 90 47 00
        E 40 90 40 35
        E 6 90 39 00
        E 10 90 49 00
        E 36 90 4a 21
        E 5 90 34 00
        E 5 90 40 00
        E 30 90 3e 27
        E 0 90 42 30
        E 11 90 45 00
        E 51 90 3e 00
        E 0 90 4a 00
        E 5 90 42 00
        E 25 e0 00 60
        E 0 90 40 26
        E 6 e0 00 60
        E 5 e0 00 60
        E 6 e0 00 60
        E 6 e0 00 60
        E 5 e0 00 60
        E 6 e0 00 60
        E 5 e0 00 20
        E 6 e0 00 20
        E 5 e0 00 20
        E 6 e0 00 20
        E 6 e0 00 60
        E 0 90 40 00
        E 291 90 45 2c
        E 11 90 51 2a
        E 51 90 45 00
        E 10 90 51 00
        E 1206 e0 2b 35
        E 0 90 2e 0c
        E 6 e0 2b 35
        E 5 e0 55 2a
        E 6 e0 55 2a
        E 5 e0 55 2a
        E 6 e0 55 2a
        E 5 e0 55 2a
        E 6 e0 2b 35
        E 6 e0 2b 35
        E 5 e0 2b 35
        E 6 e0 2b 35
        E 5 e0 2b 35
        E 0 90 2e 00
        E 486 e0 00 60
        E 0 90 23 21
        E 6 e0 00 60
        E 5 e0 00 60
        E 5 e0 00 60
        E 6 e0 55 6a
        E 5 e0 55 6a
        E 6 e0 55 6a
        E 5 e0 55 6a
        E 5 e0 55 6a
        E 6 e0 2b 15
        E 5 e0 2b 15
        E 6 e0 2b 15
        E 5 e0 2b 15
        E 6 e0 2b 75
        E 5 e0 2b 75
        E 5 e0 2b 75
        E 6 e0 2b 75
        E 5 e0 2b 75
        E 0 90 23 00
        E 184 e0 55 6a
        E 0 90 32 21
        E 5 e0 55 6a
        E 6 e0 2b 15
        E 5 e0 2b 15
        E 5 e0 55 6a
        E 5 e0 55 6a
        E 6 e0 55 6a
        E 5 e0 00 20
        E 5 e0 00 20
        E 5 e0 00 20
        E 6 e0 00 20
        E 5 e0 00 20
        E 5 e0 00 20
        E 5 e0 00 20
        E 6 e0 00 20
        E 5 e0 00 20
        E 5 e0 00 20
        E 6 e0 00 20
        E 5 e0 00 20
        E 5 e0 00 20
        E 5 e0 00 20
        E 6 e0 00 20
        E 5 e0 00 20
        E 5 e0 00 20
        E 5 e0 00 20
        E 6 e0 00 20
        E 5 e0 00 20
        E 5 e0 00 20
        E 5 e0 00 20
        E 6 e0 00 20
        E 5 e0 00 20
        E 5 e0 00 20
        E 5 e0 00 20
        E 6 e0 00 20
        E 0 90 32 00
        E 66 90 32 0f
        E 5 90 50 2b
        E 62 90 50 00
        E 77 90 32 00
        E 306 e0 00 40
        E 0 90 50 23
        E 6 e0 00 20
        E 5 e0 2b 15
        E 6 e0 2b 15
        E 6 e0 00 20
        E 5 e0 00 20
        E 6 e0 55 2a
        E 5 e0 55 2a
        E 6 e0 55 2a
        E 5 e0 55 2a
        E 6 e0 55 2a
        E 6 e0 00 20
        E 0 90 50 00
        E 296 e0 2b 55
        E 0 90 39 49
        E 5 e0 00 60
        E 6 e0 00 60
        E 5 e0 00 60
        E 6 e0 00 60
        E 5 e0 00 60
        E 6 e0 00 60
        E 5 e0 55 0a
        E 6 e0 2b 15
        E 5 e0 2b 15
        E 6 e0 55 6a
        E 5 e0 55 6a
        E 6 e0 55 6a
        E 5 e0 2b 15
        E 5 e0 2b 15
        E 0 90 39 00
        E 389 90 36 1f
        E 5 90 32 2c
        E 5 90 42 25
        E 72 90 32 00
        E 31 90 42 00
        E 5 90 36 00
        E 225 90 42 22
        E 220 90 39 30
        E 15 90 42 00
        E 92 90 39 00
        E 36 90 21 22
        E 61 90 2e 18
        E 5 90 37 25
        E 0 90 40 1e
        E 5 90 21 00
        E 0 90 39 2d
        E 0 90 3e 27
        E 51 90 2e 00
        E 6 90 40 00
        E 5 90 37 00
        E 0 90 3e 00
        E 46 90 39 00
        E 495 e0 00 20
        E 0 90 26 1b
        E 5 e0 00 20
        E 5 e0 00 20
        E 6 e0 00 20
        E 5 e0 00 20
        E 5 e0 00 20
        E 5 e0 00 20
        E 5 e0 00 20
        E 5 e0 00 20
        E 6 e0 00 20
        E 5 e0 00 20
        E 5 e0 00 20
        E 0 90 26 00
        E 715 90 2c 3f
        E 20 90 38 2f
        E 41 90 2c 00
        E 57 90 38 00
        E 61 90 39 2e
        E 123 90 35 30
        E 15 90 39 00
        E 46 90 35 00
        E 51 90 36 28
        E 72 90 2a 21
        E 77 90 31 40
        E 5 90 2a 00
        E 0 90 3d 27
        E 56 90 36 00
        E 10 90 3d 00
        E 15 90 31 00
        E 46 90 26 37
        E 21 90 32 2f
        E 0 90 3e 26
        E 41 90 26 00
        E 25 90 3e 00
        E 67 90 32 00
        E 112 90 21 1c
        E 5 90 34 29
        E 0 90 3c 21
        E 5 90 32 29
        E 0 90 39 31
        E 47 90 2d 2c
        E 0 90 40 26
        E 5 90 3c 00
        E 5 90 34 00
        E 10 90 32 00
        E 41 90 40 00
        E 5 90 39 00
        E 56 90 21 00
        E 87 90 2d 00
        E 562 90 2d 26
        E 0 90 31 2c
        E 10 90 3d 2f
        E 5 90 39 31
        E 41 90 36 2f
        E 16 90 31 00
        E 5 90 39 00
        E 0 90 3d 00
        E 21 90 2a 14
        E 5 90 21 19
        E 0 90 39 25
        E 0 90 3d 1f
        E 0 90 40 1c
        E 0 90 42 23
        E 5 90 4c 1e
        E 5 90 36 00
        E 77 90 2a 00
        E 0 90 4c 00
        E 0 90 4c 29
        E 5 90 42 00
        E 5 90 3d 00
        E 5 90 21 00
        E 0 90 2d 00
        E 112 90 39 00
        E 26 90 40 00
        E 5 90 4c 00
        E 496 90 42 1c
        E 40 90 39 2a
        E 0 90 40 34
        E 46 90 45 27
        E 16 90 40 00
        E 36 90 3f 2d
        E 20 90 42 00
        E 6 90 45 00
        E 30 90 39 00
        E 41 90 3f 00
        E 215 e0 55 6a
        E 0 90 33 29
        E 5 e0 55 6a
        E 6 e0 55 2a
        E 5 e0 55 2a
        E 6 e0 55 2a
        E 5 e0 55 2a
        E 6 e0 00 20
        E 5 e0 00 20
        E 6 e0 00 20
        E 5 e0 55 6a
        E 6 e0 55 6a
        E 6 e0 55 6a
        E 5 e0 55 6a
        E 0 90 33 00
        E 112 e0 2b 15
        E 0 90 21 11
        E 6 e0 2b 15
        E 6 e0 2b 15
        E 5 e0 2b 15
        E 6 e0 2b 15
        E 5 e0 2b 15
        E 6 e0 2b 15
        E 5 e0 00 20
        E 6 e0 2b 55
        E 5 e0 2b 55
        E 6 e0 2b 55
        E 5 e0 2b 55
        E 6 e0 2b 55
        E 0 90 21 00
        E 542 e0 55 6a
        E 0 90 39 41
        E 5 e0 2b 75
        E 6 e0 2b 75
        E 6 e0 2b 75
        E 5 e0 2b 75
        E 6 e0 55 6a
        E 5 e0 55 6a
        E 6 e0 00 20
        E 5 e0 00 20
        E 6 e0 00 20
        E 5 e0 00 20
        E 6 e0 00 20
        E 5 e0 00 20
        E 0 90 39 00
        E 138 90 34 16
        E 62 90 3e 21
        E 51 90 34 00
        E 46 90 3e 00
        E 66 e0 55 0a
        E 0 90 45 20
        E 6 e0 55 6a
        E 5 e0 55 6a
        E 6 e0 55 6a
        E 5 e0 55 6a
        E 6 e0 2b 15
        E 5 e0 2b 15
        E 6 e0 2b 15
        E 5 e0 2b 15
        E 6 e0 2b 15
        E 5 e0 00 60
        E 6 e0 00 60
        E 5 e0 00 60
        E 6 e0 55 6a
        E 0 90 45 00
        E 20 90 3e 26
        E 46 90 45 21
        E 10 90 42 21
        E 51 90 39 17
        E 5 90 45 00
        E 1 90 45 2f
        E 10 90 3e 00
        E 46 90 39 00
        E 10 90 42 00
        E 0 90 45 00
        E 675 90 26 27
        E 5 90 32 43
        E 56 90 26 00
        E 46 90 32 00
        E 680 90 2a 1e
        E 0 90 34 25
        E 5 90 32 1d
        E 0 90 39 18
        E 0 90 3c 16
        E 0 90 3e 1d
        E 5 90 40 17
        E 0 90 4c 28
        E 51 90 36 18
        E 5 90 3e 00
        E 5 90 2a 00
        E 0 90 34 00
        E 0 90 3e 28
        E 0 90 42 1d
        E 16 90 4c 00
        E 46 90 4a 2b
        E 10 90 3c 00
        E 0 90 4f 29
        E 61 90 40 00
        E 5 90 32 00
        E 0 90 39 00
        E 5 90 4a 00
        E 0 90 4f 00
        E 6 90 3e 00
        E 31 90 36 00
        E 0 90 42 00
        E 30 90 43 22
        E 6 90 3e 20
        E 5 90 40 25
        E 66 90 30 1f
        E 5 90 34 16
        E 0 90 39 18
        E 5 90 40 00
        E 0 90 40 2e
        E 5 90 4c 23
        E 57 90 34 00
        E 10 90 30 00
        E 5 90 39 00
        E 0 90 3e 00
        E 0 90 43 00
        E 5 90 40 00
        E 0 90 4c 00
        E 56 90 40 25
        E 5 90 37 19
        E 0 90 3e 11
        E 0 90 45 14
        E 5 90 43 1c
        E 57 90 3b 20
        E 5 90 3e 00
        E 5 90 3e 26
        E 0 90 45 00
        E 0 90 4a 28
        E 5 90 45 1e
        E 66 90 3b 00
        E 5 90 3e 00
        E 0 90 40 00
        E 0 90 45 00
        E 0 90 4a 00
        E 36 90 37 00
        E 16 90 43 00
        E 654 90 32 41
        E 5 90 45 26
        E 10 90 3e 25
        E 62 90 45 00
        E 5 90 32 00
        E 5 90 3e 00
        E 322 90 40 22
        E 81 90 32 1c
        E 0 90 34 1d
        E 11 90 3e 1f
        E 0 90 4a 1c
        E 51 90 45 1a
        E 10 90 34 00
        E 5 90 40 00
        E 36 90 3e 00
        E 0 90 3e 24
        E 41 90 32 00
        E 0 90 40 19
        E 46 90 45 00
        E 5 90 3e 00
        E 0 90 4a 00
        E 77 90 40 00
        E 82 90 3e 22
        E 10 90 4a 1f
        E 61 90 45 15
        E 5 90 3e 00
        E 31 90 40 19
        E 36 90 45 00
        E 10 90 4a 00
        E 20 90 40 00
        E 36 90 43 13
        E 0 90 4a 2c
        E 72 90 4a 00
        E 86 90 37 17
        E 6 90 40 0f
        E 132 90 43 00
        E 51 90 40 00
        E 11 90 37 00
        E 705 e0 7f 7f
        E 0 90 23 15
        E 6 e0 7f 7f
        E 5 e0 55 0a
        E 6 e0 55 0a
        E 5 e0 2b 15
        E 6 e0 2b 15
        E 6 e0 2b 15
        E 5 e0 2b 15
        E 6 e0 2b 15
        E 5 e0 2b 15
        E 6 e0 2b 15
        E 5 e0 2b 15
        E 0 90 23 00
        E 461 e0 00 20
        E 0 90 45 31
        E 5 e0 2b 15
        E 6 e0 2b 15
        E 5 e0 00 20
        E 6 e0 00 20
        E 5 e0 00 20
        E 6 e0 00 20
        E 6 e0 00 20
        E 5 e0 00 20
        E 6 e0 00 20
        E 5 e0 00 20
        E 6 e0 00 20
        E 5 e0 00 20
        E 0 90 45 00
        E 51 e0 2b 55
        E 0 90 37 23
        E 6 e0 2b 55
        E 5 e0 00 60
        E 5 e0 00 60
        E 5 e0 00 60
        E 6 e0 00 60
        E 5 e0 00 20
        E 5 e0 00 20
        E 6 e0 00 20
        E 5 e0 00 20
        E 5 e0 00 60
        E 5 e0 00 60
        E 6 e0 00 60
        E 5 e0 00 60
        E 5 e0 00 60
        E 5 e0 00 60
        E 6 e0 00 60
        E 5 e0 00 60
        E 5 e0 00 60
        E 6 e0 00 60
        E 5 e0 00 60
        E 5 e0 00 60
        E 5 e0 00 60
        E 6 e0 00 60
        E 5 e0 00 60
        E 5 e0 00 60
        E 6 e0 00 60
        E 5 e0 00 60
        E 5 e0 00 60
        E 5 e0 00 60
        E 6 e0 00 60
        E 0 90 37 00
        E 920 90 2a 18
        E 0 90 2f 1c
        E 0 90 32 21
        E 5 90 39 1f
        E 5 90 3e 20
        E 0 90 45 21
        E 5 90 42 13
        E 51 90 37 15
        E 5 90 3e 00
        E 0 90 3e 28
        E 5 90 32 00
        E 5 90 39 00
        E 0 90 45 00
        E 46 90 2a 00
        E 11 90 2f 00
        E 0 90 42 00
        E 5 90 3e 00
        E 46 90 37 00
        E 72 90 2f 17
        E 10 90 3e 1d
        E 0 90 42 1c
        E 128 90 2f 00
        E 10 90 42 00
        E 5 90 3e 00
        E 210 90 43 20
        E 183 90 34 14
        E 0 90 37 1f
        E 0 90 4a 23
        E 6 90 2b 19
        E 5 90 43 00
        E 0 90 43 22
        E 107 90 2b 00
        E 5 90 34 00
        E 0 90 37 00
        E 5 90 4a 00
        E 5 90 43 00
        E 51 90 32 19
        E 5 90 2f 13
        E 6 90 42 21
        E 0 90 45 24
        E 5 90 3e 25
        E 51 90 4a 21
        E 10 90 3e 00
        E 0 90 3e 38
        E 0 90 45 00
        E 0 90 45 24
        E 51 90 2f 00
        E 10 90 4a 00
        E 6 90 3e 00
        E 0 90 42 00
        E 31 90 42 19
        E 5 90 3e 21
        E 5 90 32 00
        E 10 90 45 00
        E 112 90 42 00
        E 46 90 3b 13
        E 0 90 4a 0e
        E 62 90 4a 00
        E 5 90 3b 00
        E 10 90 3e 00
        E 82 90 3d 36
        E 61 90 31 21
        E 31 90 3d 00
        E 41 90 45 1f
        E 5 90 3d 2f
        E 0 90 40 13
        E 10 90 31 00
        E 107 90 45 00
        E 0 90 45 16
        E 15 90 3d 00
        E 46 90 40 00
        E 0 90 45 00
        E 41 90 2f 28
        E 5 90 39 26
        E 0 90 3e 21
        E 0 90 45 2c
        E 0 90 4a 26
        E 6 90 33 23
        E 56 90 2f 00
        E 0 90 3e 00
        E 0 90 4f 25
        E 5 90 33 00
        E 0 90 39 00
        E 0 90 45 00
        E 0 90 4a 00
        E 56 90 3e 2a
        E 5 90 32 1d
        E 10 90 4f 00
        E 1 90 42 17
        E 61 90 42 00
        E 62 90 32 00
        E 15 90 3e 00
        E 112 90 3e 0f
        E 5 90 32 0e
        E 62 90 3e 00
        E 5 e0 00 20
        E 0 90 32 00
        E 0 90 3e 24
        E 5 e0 2b 15
        E 6 e0 2b 15
        E 5 e0 2b 15
        E 6 e0 00 20
        E 5 e0 00 20
        E 6 e0 00 20
        E 5 e0 00 20
        E 6 e0 00 20
        E 5 e0 00 20
        E 5 e0 00 20
        E 6 e0 00 20
        E 5 e0 00 20
        E 6 e0 00 60
        E 5 e0 00 60
        E 0 90 3e 00
        E 246 90 36 2a
        E 5 90 39 28
        E 0 90 42 28
        E 66 90 36 00
        E 0 90 39 00
        E 0 90 42 00
        E 1017 90 24 18
        E 5 90 2f 1e
        E 0 90 31 0d
        E 0 90 3e 21
        E 11 90 42 14
        E 51 90 24 00
        E 0 90 31 00
        E 0 90 3b 21
        E 10 90 2f 00
        E 0 90 42 00
        E 87 90 2b 12
        E 0 90 32 2d
        E 5 90 37 21
        E 0 90 43 2c
        E 0 90 4a 30
        E 11 90 3e 00
        E 0 90 3e 37
        E 46 90 2b 00
        E 5 90 32 00
        E 0 90 37 00
        E 0 90 43 00
        E 5 90 4a 00
        E 5 90 3b 00
        E 5 90 3e 00
        E 72 e0 00 00
        E 0 90 3d 36
        E 5 e0 7f 7f
        E 6 e0 00 20
        E 5 e0 00 20
        E 6 e0 00 20
        E 5 e0 00 20
        E 6 e0 00 20
        E 6 e0 00 20
        E 5 e0 00 20
        E 6 e0 00 20
        E 5 e0 00 20
        E 6 e0 00 20
        E 0 90 3d 00
        E 1585 e0 55 6a
        E 0 90 42 2a
        E 5 e0 00 20
        E 5 e0 00 20
        E 6 e0 00 20
        E 5 e0 00 20
        E 6 e0 00 20
        E 5 e0 00 20
        E 6 e0 00 20
        E 5 e0 00 20
        E 5 e0 00 20
        E 6 e0 00 20
        E 5 e0 00 20
        E 6 e0 00 20
        E 5 e0 55 6a
        E 6 e0 55 6a
        E 5 e0 00 20
        E 5 e0 00 20
        E 0 90 42 00
        E 67 90 3e 1d
        E 71 90 42 26
        E 56 90 4a 1e
        E 16 90 42 00
        E 61 90 4a 00
        E 10 90 3e 00
        E 880 90 26 26
        E 5 90 3e 3d
        E 61 90 26 00
        E 5 90 3e 00
        E 241 e0 00 20
        E 0 90 32 37
        E 5 e0 00 20
        E 5 e0 2b 15
        E 6 e0 2b 15
        E 5 e0 2b 15
        E 6 e0 00 20
        E 5 e0 00 20
        E 5 e0 00 20
        E 6 e0 00 20
        E 5 e0 00 20
        E 5 e0 00 20
        E 6 e0 00 20
        E 5 e0 00 20
        E 5 e0 00 20
        E 6 e0 00 20
        E 5 e0 00 20
        E 6 e0 00 20
        E 5 e0 00 20
        E 5 e0 00 20
        E 6 e0 2b 15
        E 5 e0 00 20
        E 0 90 32 00
        E 56 e0 2b 55
        E 0 90 40 14
        E 6 e0 00 60
        E 5 e0 00 60
        E 6 e0 2b 55
        E 5 e0 2b 55
        E 6 e0 2b 35
        E 5 e0 2b 35
        E 6 e0 00 40
        E 5 e0 55 4a
        E 5 e0 2b 55
        E 6 e0 2b 55
        E 5 e0 00 60
        E 6 e0 00 60
        E 5 e0 00 60
        E 6 e0 55 2a
        E 0 90 40 00
        E 56 e0 55 2a
        E 0 90 3e 28
        E 5 e0 55 2a
        E 6 e0 55 2a
        E 5 e0 55 2a
        E 6 e0 00 20
        E 5 e0 00 20
        E 6 e0 55 6a
        E 5 e0 55 6a
        E 5 e0 55 6a
        E 6 e0 00 20
        E 5 e0 00 20
        E 6 e0 00 20
        E 5 e0 00 20
        E 6 e0 00 20
        E 5 e0 00 20
        E 5 e0 55 2a
        E 6 e0 55 2a
        E 0 90 3e 00
        E 61 e0 2b 55
        E 0 90 37 19
        E 6 e0 00 60
        E 5 e0 00 60
        E 5 e0 00 60
        E 6 e0 00 60
        E 5 e0 00 60
        E 5 e0 00 60
        E 6 e0 00 60
        E 5 e0 00 60
        E 6 e0 00 60
        E 5 e0 00 20
        E 5 e0 00 20
        E 6 e0 00 20
        E 5 e0 00 20
        E 5 e0 00 20
        E 6 e0 00 20
        E 5 e0 00 60
        E 6 e0 00 60
        E 5 e0 00 60
        E 5 e0 55 6a
        E 0 90 37 00
        E 364 90 2f 23
        E 10 90 39 31
        E 51 90 2f 00
        E 15 90 39 00
        E 470 90 2c 14
        E 0 90 32 26
        E 0 90 42 31
        E 46 90 2f 21
        E 0 90 36 25
        E 5 90 3b 16
        E 10 90 32 00
        E 0 90 42 00
        E 31 90 32 26
        E 5 90 2c 00
        E 0 90 3e 35
        E 0 90 42 36
        E 0 90 45 16
        E 51 90 4a 38
        E 21 90 3b 00
        E 0 90 45 00
        E 5 90 2f 00
        E 0 90 32 00
        E 10 90 3e 00
        E 5 90 42 00
        E 21 90 4a 00
        E 5 90 36 00
        E 200 e0 55 6a
        E 0 90 42 36
        E 5 e0 2b 75
        E 6 e0 7f 7f
        E 5 e0 2b 75
        E 6 e0 2b 75
        E 5 e0 2b 75
        E 6 e0 2b 75
        E 5 e0 55 6a
        E 6 e0 00 20
        E 5 e0 00 20
        E 6 e0 00 20
        E 5 e0 2b 75
        E 6 e0 2b 75
        E 0 90 42 00
        E 403 90 37 1a
        E 6 90 39 16
        E 51 90 4c 2a
        E 41 90 39 00
        E 5 90 37 00
        E 20 90 4c 00
        E 680 90 34 19
        E 72 90 40 21
        E 76 90 34 00
        E 0 90 40 00
        E 41 90 3b 1a
        E 15 90 2f 2a
        E 67 90 26 22
        E 20 90 2f 00
        E 26 90 3e 1b
        E 15 90 32 30
        E 10 90 26 00
        E 42 90 40 1e
        E 10 90 3b 00
        E 10 90 32 00
        E 107 90 40 00
        E 6 90 3e 00
        E 61 90 34 14
        E 51 90 47 2a
        E 5 90 3b 2a
        E 72 90 3b 00
        E 0 90 47 00
        E 35 90 40 22
        E 5 90 3e 1e
        E 72 90 34 00
        E 5 90 40 00
        E 133 90 45 30
        E 61 90 45 00
        E 77 90 34 16
        E 5 90 3e 00
        E 0 90 3e 1b
        E 0 90 45 16
        E 31 90 40 20
        E 5 90 4c 17
        E 35 90 34 00
        E 41 90 4f 24
        E 5 90 45 00
        E 1 90 3e 00
        E 0 90 40 00
        E 0 90 4c 00
        E 92 90 45 28
        E 10 90 4f 00
        E 92 90 32 20
        E 15 90 45 00
        E 62 90 34 25
        E 0 90 40 1f
        E 71 90 32 00
        E 0 90 34 00
        E 5 90 40 00
        E 46 e0 00 60
        E 0 90 3e 23
        E 6 e0 00 60
        E 5 e0 00 60
        E 6 e0 00 60
        E 5 e0 00 60
        E 6 e0 00 60
        E 6 e0 00 60
        E 5 e0 00 60
        E 6 e0 00 60
        E 5 e0 00 60
        E 6 e0 00 60
        E 5 e0 00 60
        E 6 e0 00 60
        E 0 90 3e 00
        E 51 e0 00 60
        E 0 90 37 19
        E 5 e0 00 60
        E 6 e0 00 60
        E 5 e0 00 60
        E 6 e0 00 60
        E 5 e0 00 60
        E 6 e0 00 60
        E 5 e0 00 60
        E 6 e0 00 60
        E 5 e0 00 60
        E 6 e0 00 60
        E 5 e0 00 60
        E 6 e0 00 60
        E 5 e0 00 60
        E 0 90 37 00
        E 51 90 3b 1b
        E 0 90 3e 2a
        E 62 90 40 25
        E 5 90 3e 00
        E 5 90 3b 00
        E 66 90 40 00
        E 41 90 43 28
        E 51 90 32 25
        E 16 90 43 00
        E 36 90 42 1a
        E 5 90 47 25
        E 5 90 32 00
        E 61 90 47 00
        E 46 90 3e 1c
        E 11 90 42 00
        E 112 90 3e 00
        E 5 e0 2b 15
        E 0 90 3e 2e
        E 6 e0 2b 15
        E 5 e0 2b 15
        E 6 e0 00 20
        E 5 e0 00 20
        E 6 e0 00 20
        E 6 e0 00 20
        E 5 e0 00 20
        E 6 e0 55 6a
        E 5 e0 00 20
        E 6 e0 00 20
        E 5 e0 00 20
        E 0 90 3e 00
        E 67 90 32 27
        E 0 90 43 1e
        E 51 90 24 0f
        E 0 90 26 16
        E 0 90 37 1c
        E 0 90 40 2a
        E 5 90 3e 20
        E 10 90 32 00
        E 41 90 34 1e
        E 5 90 24 00
        E 0 90 39 2d
        E 0 90 4c 2f
        E 5 90 26 00
        E 11 90 3e 00
        E 0 90 40 00
        E 0 90 43 00
        E 35 90 49 26
        E 5 90 40 1e
        E 6 90 4c 00
        E 5 90 37 00
        E 0 90 39 00
        E 35 90 32 1a
        E 0 90 36 1b
        E 0 90 3b 20
        E 6 90 34 00
        E 5 90 3e 2e
        E 0 90 42 2b
        E 5 90 40 00
        E 0 90 49 00
        E 0 90 4e 20
        E 56 90 36 00
        E 5 90 32 00
        E 0 90 3b 00
        E 5 90 4e 00
        E 5 90 3e 00
        E 0 90 42 00
        E 72 90 3e 20
        E 0 90 42 2b
        E 0 90 4e 2d
        E 5 90 32 19
        E 56 90 4e 00
        E 5 90 20 20
        E 5 90 2c 22
        E 5 90 32 00
        E 0 90 36 1b
        E 0 90 3b 19
        E 6 90 26 2e
        E 0 90 32 28
        E 0 90 42 00
        E 0 90 42 19
        E 46 90 34 25
        E 5 90 38 19
        E 5 90 20 00
        E 0 90 3b 00
        E 5 90 3b 1d
        E 6 90 28 24
        E 0 90 2c 00
        E 10 90 26 00
        E 41 90 38 00
        E 10 90 34 00
        E 0 90 36 00
        E 0 90 42 00
        E 5 90 28 00
        E 0 90 32 00
        E 56 90 3e 00
        E 36 90 23 1d
        E 66 90 2b 1d
        E 0 90 2f 2e
        E 62 90 2b 00
        E 15 90 2f 00
        E 31 90 23 00
        E 0 90 32 2d
        E 15 90 3b 00
        E 46 90 40 23
        E 25 90 32 00
        E 51 90 40 00
        E 36 e0 55 0a
        E 0 90 37 21
        E 6 e0 55 0a
        E 5 e0 55 0a
        E 5 e0 55 0a
        E 6 e0 55 0a
        E 5 e0 55 0a
        E 5 e0 55 0a
        E 6 e0 55 0a
        E 5 e0 55 0a
        E 5 e0 00 00
        E 6 e0 00 00
        E 5 e0 00 00
        E 5 e0 00 00
        E 6 e0 00 00
        E 5 e0 55 0a
        E 6 e0 55 0a
        E 5 e0 55 0a
        E 5 e0 00 60
        E 6 e0 00 60
        E 5 e0 00 60
        E 5 e0 00 60
        E 6 e0 00 60
        E 0 90 37 00
        E 102 90 32 21
        E 10 90 3e 2a
        E 87 90 26 34
        E 11 90 32 00
        E 5 90 32 3b
        E 56 90 3e 00
        E 5 90 26 00
        E 5 90 32 00
        E 67 90 32 1c
        E 0 90 39 2b
        E 0 90 3e 1d
        E 5 90 40 32
        E 61 90 3c 23
        E 5 90 26 16
        E 5 90 43 22
        E 10 90 3e 00
        E 6 90 39 00
        E 0 90 40 00
        E 30 90 2e 19
        E 5 90 2b 19
        E 0 90 37 17
        E 0 90 3a 21
        E 0 90 3e 1b
        E 0 90 41 38
        E 5 90 26 00
        E 0 90 3c 00
        E 5 90 4d 29
        E 6 90 43 00
        E 46 90 44 36
        E 5 90 2b 00
        E 0 90 2e 00
        E 0 90 37 00
        E 10 90 3a 00
        E 5 90 41 00
        E 0 90 4d 00
        E 31 90 42 30
        E 20 90 44 00
        E 41 90 51 31
        E 5 90 32 00
        E 5 90 42 00
        E 5 90 3e 00
        E 56 90 51 00
        E 31 e0 2b 15
        E 0 90 39 27
        E 5 e0 2b 15
        E 6 e0 2b 15
        E 5 e0 55 6a
        E 5 e0 2b 15
        E 5 e0 2b 15
        E 5 e0 2b 15
        E 6 e0 2b 15
        E 5 e0 2b 15
        E 5 e0 00 20
        E 5 e0 00 20
        E 5 e0 00 20
        E 6 e0 00 20
        E 5 e0 00 20
        E 5 e0 00 20
        E 5 e0 00 20
        E 5 e0 00 20
        E 6 e0 2b 15
        E 5 e0 55 6a
        E 5 e0 55 6a
        E 5 e0 55 6a
        E 6 e0 55 6a
        E 5 e0 55 6a
        E 5 e0 00 20
        E 5 e0 00 20
        E 5 e0 00 20
        E 6 e0 00 20
        E 5 e0 00 20
        E 5 e0 00 20
        E 5 e0 00 20
        E 5 e0 00 20
        E 6 e0 00 20
        E 5 e0 00 20
        E 5 e0 00 20
        E 5 e0 00 20
        E 5 e0 00 20
        E 6 e0 00 20
        E 5 e0 00 20
        E 5 e0 00 20
        E 5 e0 00 20
        E 6 e0 00 20
        E 5 e0 00 20
        E 5 e0 00 20
        E 5 e0 00 20
        E 5 e0 00 20
        E 6 e0 00 20
        E 5 e0 00 20
        E 5 e0 00 20
        E 5 e0 00 20
        E 5 e0 00 20
        E 6 e0 00 20
        E 0 90 39 00
        E 56 90 39 18
        E 6 90 54 1d
        E 61 90 24 11
        E 0 90 2d 14
        E 0 90 33 14
        E 0 90 37 15
        E 5 90 3f 19
        E 0 90 4a 19
        E 5 90 53 1f
        E 0 90 54 00
        E 51 90 24 00
        E 0 90 37 00
        E 5 90 2d 00
        E 0 90 33 00
        E 5 90 3f 00
        E 0 90 4a 00
        E 5 90 53 00
        E 82 90 36 28
        E 0 90 42 22
        E 5 90 3e 24
        E 5 90 39 00
        E 72 90 50 21
        E 5 90 36 00
        E 46 90 4a 23
        E 15 90 50 00
        E 36 90 32 1f
        E 5 90 3a 1d
        E 5 90 42 00
        E 0 90 42 22
        E 0 90 4e 2a
        E 5 90 4a 00
        E 67 90 32 00
        E 5 90 3a 00
        E 5 90 3e 00
        E 0 90 42 00
        E 5 90 4e 00
        E 291 e0 00 60
        E 0 90 37 37
        E 6 e0 00 60
        E 5 e0 00 60
        E 6 e0 55 6a
        E 5 e0 55 6a
        E 6 e0 00 60
        E 6 e0 00 60
        E 5 e0 00 60
        E 6 e0 00 60
        E 5 e0 00 60
        E 6 e0 2b 15
        E 5 e0 2b 15
        E 6 e0 2b 15
        E 0 90 37 00
        E 108 90 43 17
        E 5 90 3d 27
        E 5 90 49 2b
        E 51 90 43 00
        E 10 90 3d 00
        E 0 90 49 00
        E 1089 90 39 3a
        E 30 90 26 30
        E 5 90 32 32
        E 26 90 39 00
        E 56 90 32 00
        E 189 90 26 00
        E 292 90 26 19
        E 0 90 36 1c
        E 0 90 3e 14
        E 10 90 42 19
        E 41 90 2a 21
        E 0 90 32 25
        E 0 90 40 1a
        E 5 90 39 1e
        E 51 90 2e 17
        E 5 90 3e 00
        E 5 90 2a 00
        E 0 90 3e 2d
        E 6 90 36 00
        E 5 90 42 00
        E 51 90 2e 00
        E 5 90 40 00
        E 5 90 32 00
        E 0 90 39 00
        E 0 90 3e 00
        E 26 90 26 00
        E 1400 e0 2b 75
        E 0 90 23 2b
        E 5 e0 2b 75
        E 5 e0 2b 75
        E 5 e0 2b 75
        E 5 e0 2b 75
        E 6 e0 2b 75
        E 5 e0 55 6a
        E 5 e0 55 6a
        E 5 e0 55 6a
        E 5 e0 55 6a
        E 5 e0 55 6a
        E 5 e0 55 0a
        E 6 e0 55 0a
        E 5 e0 2b 75
        E 5 e0 2b 75
        E 5 e0 2b 75
        E 0 90 23 00
        E 741 e0 2b 55
        E 0 90 32 2a
        E 5 e0 55 0a
        E 5 e0 55 0a
        E 5 e0 2b 15
        E 5 e0 2b 15
        E 5 e0 2b 15
        E 6 e0 2b 15
        E 5 e0 00 20
        E 5 e0 00 20
        E 5 e0 00 20
        E 5 e0 00 20
        E 5 e0 00 20
        E 5 e0 00 20
        E 6 e0 00 60
        E 5 e0 00 20
        E 5 e0 00 60
        E 5 e0 00 60
        E 5 e0 55 6a
        E 0 90 32 00
        E 179 e0 55 6a
        E 0 90 37 25
        E 5 e0 55 6a
        E 6 e0 55 6a
        E 5 e0 55 6a
        E 5 e0 00 60
        E 6 e0 55 6a
        E 5 e0 55 6a
        E 5 e0 00 60
        E 6 e0 00 20
        E 5 e0 00 20
        E 5 e0 55 6a
        E 6 e0 55 6a
        E 5 e0 55 6a
        E 5 e0 55 6a
        E 6 e0 00 60
        E 5 e0 00 60
        E 6 e0 00 60
        E 5 e0 00 60
        E 5 e0 55 6a
        E 6 e0 55 6a
        E 5 e0 55 6a
        E 5 e0 55 6a
        E 0 90 37 00
        E 67 90 32 2e
        E 5 90 3b 19
        E 66 90 3b 00
        E 67 90 32 00
        E 92 90 47 27
        E 86 90 40 35
        E 31 90 47 00
        E 31 90 40 00
        E 240 90 34 1b
        E 5 90 40 2a
        E 67 90 40 00
        E 31 90 40 2b
        E 5 90 3d 30
        E 0 90 45 1b
        E 5 90 34 00
        E 0 90 39 2f
        E 56 90 40 00
        E 5 90 3d 00
        E 36 90 3e 34
        E 5 90 4d 33
        E 5 90 42 2e
        E 5 90 45 00
        E 5 90 39 00
        E 51 90 4d 00
        E 51 90 3e 00
        E 11 90 42 00
        E 163 90 45 1d
        E 92 90 42 1e
        E 0 90 4a 27
        E 5 90 32 27
        E 0 90 45 00
        E 0 90 45 1f
        E 5 90 3e 38
        E 51 90 4a 00
        E 0 90 4a 3a
        E 11 90 3e 00
        E 30 90 36 25
        E 0 90 3e 38
        E 5 90 42 00
        E 0 90 42 18
        E 5 90 32 00
        E 0 90 45 00
        E 16 90 4a 00
        E 41 90 3e 00
        E 5 90 39 38
        E 31 90 42 00
        E 5 90 36 00
        E 26 90 39 00
        E 5 90 3e 1b
        E 30 90 32 29
        E 5 90 45 18
        E 0 90 4a 2a
        E 0 90 4e 26
        E 46 90 3e 00
        E 0 90 3e 2e
        E 21 90 4a 00
        E 31 90 4a 25
        E 0 90 4e 00
        E 0 90 4e 29
        E 51 90 32 00
        E 5 90 32 2b
        E 0 90 3e 00
        E 0 90 3e 34
        E 0 90 45 00
        E 35 90 36 2b
        E 0 90 42 34
        E 0 90 45 2c
        E 16 90 4e 00
        E 41 90 4a 00
        E 5 90 3e 00
        E 5 90 32 00
        E 0 90 42 00
        E 41 90 36 00
        E 5 90 45 00
        E 25 90 3e 2d
        E 36 90 45 1b
        E 41 90 32 22
        E 20 90 3e 00
        E 31 90 39 26
        E 0 90 42 30
        E 0 90 4e 30
        E 41 90 3e 3b
        E 5 90 4a 38
        E 51 90 45 00
        E 5 90 32 00
        E 0 90 39 00
        E 5 90 3e 00
        E 6 90 42 00
        E 0 90 4a 00
        E 0 90 4e 00
        E 30 90 42 1c
        E 36 90 39 22
        E 5 90 4c 1b
        E 31 90 4a 25
        E 5 90 42 00
        E 30 90 45 13
        E 41 90 42 22
        E 5 90 4c 00
        E 6 90 39 00
        E 41 90 3e 2d
        E 10 90 45 00
        E 5 90 42 00
        E 0 90 4a 00
        E 46 90 3e 00
        E 87 90 3e 22
        E 56 90 26 2f
        E 21 90 32 38
        E 5 90 3e 00
        E 0 90 3e 25
        E 46 90 26 00
        E 10 90 32 00
        E 10 90 3e 00
        E 51 90 32 2f
        E 5 90 26 2b
        E 57 90 32 00
        E 5 90 26 00
        E 81 90 32 21
        E 11 90 3e 26
        E 133 90 32 00
        E 5 90 3e 00
        E 281 90 32 2b
        E 10 90 45 2d
        E 97 90 3e 1b
        E 16 90 32 00
        E 5 90 45 00
        E 97 90 3e 00
        E 189 e0 7f 7f
        E 0 90 42 29
        E 5 e0 7f 7f
        E 6 e0 2b 75
        E 5 e0 2b 75
        E 5 e0 2b 75
        E 6 e0 55 2a
        E 5 e0 55 2a
        E 5 e0 55 2a
        E 6 e0 55 2a
        E 5 e0 55 2a
        E 5 e0 55 2a
        E 6 e0 55 2a
        E 5 e0 55 2a
        E 5 e0 55 2a
        E 6 e0 55 2a
        E 5 e0 55 2a
        E 5 e0 55 2a
        E 6 e0 2b 75
        E 5 e0 2b 75
        E 5 e0 7f 7f
        E 6 e0 7f 7f
        E 5 e0 00 20
        E 5 e0 00 20
        E 0 90 42 00
        E 72 e0 55 6a
        E 0 90 40 25
        E 5 e0 00 20
        E 6 e0 00 20
        E 5 e0 00 20
        E 5 e0 00 20
        E 6 e0 00 20
        E 5 e0 00 20
        E 5 e0 00 20
        E 6 e0 55 6a
        E 5 e0 55 6a
        E 6 e0 00 20
        E 5 e0 00 20
        E 5 e0 00 20
        E 6 e0 00 20
        E 5 e0 00 20
        E 5 e0 00 20
        E 6 e0 00 20
        E 5 e0 00 20
        E 5 e0 00 60
        E 6 e0 00 60
        E 5 e0 00 60
        E 0 90 40 00
        E 98 e0 55 0a
        E 0 90 3e 2d
        E 5 e0 2b 15
        E 6 e0 55 6a
        E 5 e0 55 6a
        E 5 e0 55 6a
        E 6 e0 55 6a
        E 5 e0 55 6a
        E 5 e0 55 6a
        E 6 e0 55 6a
        E 5 e0 55 6a
        E 5 e0 55 6a
        E 6 e0 55 6a
        E 5 e0 55 6a
        E 5 e0 55 6a
        E 6 e0 55 6a
        E 5 e0 55 6a
        E 5 e0 00 20
        E 6 e0 00 20
        E 5 e0 00 20
        E 6 e0 00 20
        E 5 e0 00 20
        E 5 e0 00 20
        E 0 90 3e 00
        E 266 90 32 25
        E 0 90 3e 3e
        E 46 90 4a 37
        E 25 90 3e 00
        E 31 90 3e 3f
        E 10 90 32 00
        E 16 90 4a 00
        E 35 90 3e 00
        E 31 90 39 1e
        E 36 90 32 25
        E 10 90 3e 25
        E 46 90 42 1b
        E 0 90 45 1a
        E 0 90 4a 20
        E 0 90 4e 25
        E 5 90 39 00
        E 36 90 3e 00
        E 0 90 3e 2d
        E 51 90 4e 00
        E 0 90 4e 2a
        E 51 90 32 00
        E 5 90 32 27
        E 0 90 3e 00
        E 0 90 3e 2c
        E 0 90 45 00
        E 36 90 45 29
        E 0 90 51 31
        E 5 90 36 28
        E 0 90 39 27
        E 0 90 42 00
        E 0 90 42 38
        E 11 90 4e 00
        E 25 90 3e 00
        E 0 90 3e 26
        E 10 90 32 00
        E 6 90 4a 00
        E 0 90 51 00
        E 5 90 42 00
        E 30 90 45 00
        E 5 90 39 00
        E 6 90 36 00
        E 15 90 4a 29
        E 10 90 3e 00
        E 0 90 3e 2b
        E 87 90 3e 00
        E 0 90 3e 25
        E 5 90 4a 00
        E 26 90 39 34
        E 10 90 4e 2f
        E 5 90 42 2f
        E 36 90 4a 2f
        E 15 90 39 00
        E 36 90 45 29
        E 15 90 42 00
        E 0 90 4a 00
        E 5 90 3e 00
        E 0 90 4e 00
        E 77 90 45 00
        E 25 e0 00 60
        E 0 90 43 18
        E 6 e0 00 60
        E 5 e0 00 60
        E 6 e0 00 60
        E 5 e0 00 60
        E 6 e0 00 60
        E 6 e0 00 60
        E 5 e0 00 60
        E 6 e0 00 60
        E 5 e0 00 60
        E 6 e0 00 60
        E 5 e0 00 60
        E 6 e0 00 60
        E 0 90 43 00
        E 5 90 42 24
        E 0 90 45 12
        E 66 90 45 00
        E 5 90 3e 22
        E 0 90 45 13
        E 21 90 42 00
        E 97 90 45 00
        E 15 90 3e 00
        E 102 90 32 35
        E 5 90 3e 28
        E 57 90 3e 00
        E 5 90 32 00
        E 133 90 4c 21
        E 5 90 40 2b
        E 5 90 49 2e
        E 87 90 49 00
        E 5 90 40 00
        E 36 90 2a 22
        E 0 90 45 0e
        E 61 90 45 00
        E 6 90 3e 26
        E 0 90 45 2a
        E 0 90 4e 35
        E 5 90 2a 00
        E 0 90 4a 27
        E 5 90 2a 2f
        E 0 90 4c 00
        E 66 90 4e 00
        E 31 90 45 00
        E 10 90 2a 00
        E 20 90 4a 00
        E 11 90 3e 00
        E 61 90 25 25
        E 0 90 31 2d
        E 0 90 4c 2c
        E 97 90 4c 00
        E 92 90 31 00
        E 179 90 36 22
        E 5 90 4e 34
        E 6 90 42 2a
        E 0 90 49 2a
        E 5 90 25 00
        E 51 90 4e 00
        E 5 90 49 00
        E 30 90 4a 27
        E 41 90 36 00
        E 11 90 42 00
        E 46 90 4a 00
        E 56 e0 55 6a
        E 0 90 43 34
        E 5 e0 55 6a
        E 6 e0 55 6a
        E 5 e0 55 6a
        E 6 e0 55 6a
        E 5 e0 55 6a
        E 6 e0 55 6a
        E 5 e0 55 6a
        E 6 e0 55 0a
        E 5 e0 55 0a
        E 6 e0 2b 75
        E 5 e0 2b 75
        E 6 e0 2b 75
        E 5 e0 2b 75
        E 0 90 43 00
        E 36 e0 2b 35
        E 0 90 42 26
        E 5 e0 00 40
        E 6 e0 00 40
        E 5 e0 7f 7f
        E 6 e0 7f 7f
        E 5 e0 00 20
        E 6 e0 00 20
        E 5 e0 00 20
        E 6 e0 00 20
        E 5 e0 00 20
        E 6 e0 00 20
        E 5 e0 00 20
        E 6 e0 00 20
        E 5 e0 00 20
        E 6 e0 00 20
        E 0 90 42 00
        E 199 90 39 17
        E 36 90 42 1d
        E 0 90 49 22
        E 0 90 55 32
        E 5 90 45 22
        E 46 90 3f 11
        E 10 90 39 00
        E 0 90 49 00
        E 5 90 45 00
        E 0 90 55 00
        E 31 90 53 36
        E 10 90 42 00
        E 41 90 3f 00
        E 5 90 53 00
        E 26 90 3e 1f
        E 5 90 39 2a
        E 0 90 45 33
        E 0 90 51 32
        E 56 90 3e 00
        E 5 90 39 00
        E 0 90 45 00
        E 0 90 51 00
        E 31 90 4f 18
        E 87 90 42 21
        E 15 90 4f 00
        E 77 90 42 00
        E 271 e0 7f 7f
        E 0 90 36 2c
        E 5 e0 7f 7f
        E 6 e0 7f 7f
        E 5 e0 00 20
        E 6 e0 00 20
        E 5 e0 2b 75
        E 6 e0 2b 75
        E 5 e0 2b 75
        E 6 e0 2b 75
        E 5 e0 2b 75
        E 6 e0 00 20
        E 5 e0 00 20
        E 6 e0 00 20
        E 0 90 36 00
        E 148 90 49 2b
        E 5 90 46 30
        E 56 90 49 00
        E 1 90 46 00
        E 36 e0 00 00
        E 0 90 47 28
        E 5 e0 55 0a
        E 6 e0 55 6a
        E 5 e0 55 6a
        E 5 e0 55 6a
        E 6 e0 55 6a
        E 5 e0 55 6a
        E 5 e0 55 6a
        E 6 e0 55 6a
        E 5 e0 55 6a
        E 6 e0 55 6a
        E 5 e0 55 6a
        E 5 e0 00 60
        E 6 e0 55 6a
        E 5 e0 55 6a
        E 5 e0 55 6a
        E 6 e0 55 6a
        E 5 e0 2b 75
        E 6 e0 2b 75
        E 5 e0 55 6a
        E 0 90 47 00
        E 358 e0 2b 75
        E 0 90 4f 1c
        E 5 e0 2b 75
        E 5 e0 55 6a
        E 6 e0 00 60
        E 5 e0 00 60
        E 5 e0 00 60
        E 6 e0 00 60
        E 5 e0 55 6a
        E 5 e0 55 6a
        E 6 e0 55 6a
        E 5 e0 55 6a
        E 6 e0 55 6a
        E 5 e0 55 6a
        E 5 e0 55 6a
        E 6 e0 55 6a
        E 5 e0 2b 15
        E 5 e0 55 6a
        E 6 e0 55 6a
        E 5 e0 55 6a
        E 5 e0 2b 15
        E 6 e0 00 20
        E 0 90 4f 00
        E 102 e0 2b 15
        E 0 90 3e 2b
        E 5 e0 2b 15
        E 6 e0 2b 15
        E 5 e0 2b 15
        E 5 e0 00 20
        E 6 e0 00 20
        E 5 e0 00 20
        E 5 e0 00 20
        E 5 e0 00 20
        E 6 e0 00 20
        E 5 e0 00 20
        E 5 e0 00 20
        E 6 e0 00 20
        E 5 e0 00 20
        E 5 e0 00 20
        E 6 e0 00 20
        E 5 e0 00 20
        E 5 e0 00 20
        E 6 e0 00 20
        E 5 e0 00 20
        E 5 e0 00 20
        E 6 e0 00 20
        E 5 e0 00 20
        E 5 e0 00 20
        E 5 e0 00 20
        E 6 e0 00 20
        E 0 90 3e 00
        E 174 90 40 26
        E 97 90 42 27
        E 10 90 40 00
        E 0 90 45 2b
        E 67 90 42 00
        E 56 90 45 00
        E 460 e0 55 6a
        E 0 90 39 2c
        E 5 e0 55 6a
        E 5 e0 55 6a
        E 5 e0 2b 15
        E 5 e0 00 20
        E 5 e0 00 20
        E 5 e0 00 20
        E 6 e0 00 20
        E 5 e0 00 20
        E 5 e0 00 20
        E 5 e0 2b 15
        E 5 e0 2b 15
        E 5 e0 2b 15
        E 5 e0 2b 15
        E 6 e0 00 60
        E 5 e0 00 20
        E 5 e0 2b 15
        E 5 e0 2b 15
        E 5 e0 55 0a
        E 5 e0 2b 75
        E 5 e0 2b 75
        E 5 e0 7f 7f
        E 6 e0 7f 7f
        E 5 e0 2b 15
        E 5 e0 2b 15
        E 0 90 39 00
        E 71 90 3e 2f
        E 0 90 4d 1f
        E 97 90 42 22
        E 16 90 4d 00
        E 10 90 3e 00
        E 87 90 42 00
        E 168 90 4a 23
        E 5 90 32 28
        E 6 90 3e 37
        E 66 90 3e 00
        E 31 90 36 26
        E 0 90 3e 3c
        E 15 90 32 00
        E 0 90 4a 00
        E 46 90 3e 00
        E 15 90 39 38
        E 31 90 36 00
        E 31 90 39 00
        E 0 90 3e 26
        E 40 90 32 23
        E 6 90 42 1d
        E 5 90 4e 22
        E 41 90 3e 00
        E 0 90 3e 2b
        E 41 90 32 00
        E 0 90 4e 00
        E 0 90 4e 29
        E 5 90 32 28
        E 51 90 3e 00
        E 0 90 3e 30
        E 36 90 26 1c
        E 0 90 45 2d
        E 5 90 36 25
        E 0 90 42 00
        E 0 90 42 1c
        E 0 90 4a 30
        E 15 90 4e 00
        E 46 90 32 00
        E 0 90 3e 00
        E 0 90 4a 00
        E 31 90 26 00
        E 10 90 45 00
        E 21 90 32 14
        E 0 90 4a 2f
        E 10 90 36 00
        E 0 90 3e 2f
        E 51 90 32 00
        E 5 90 42 00
        E 5 90 4a 00
        E 21 90 3e 00
        E 0 90 3e 28
        E 46 90 45 2d
        E 10 90 39 24
        E 46 90 42 29
        E 0 90 4a 3c
        E 10 90 45 00
        E 25 90 32 20
        E 6 90 45 26
        E 20 90 3e 00
        E 0 90 4a 00
        E 51 90 32 00
        E 15 90 45 00
        E 0 90 4c 21
        E 6 90 42 00
        E 10 90 39 00
        E 20 90 3e 26
        E 5 90 43 2a
        E 36 90 4c 00
        E 36 90 3e 00
        E 10 90 43 00
        E 56 e0 00 20
        E 0 90 3e 3b
        E 6 e0 00 20
        E 5 e0 2b 15
        E 6 e0 2b 15
        E 6 e0 00 20
        E 5 e0 00 20
        E 6 e0 00 20
        E 5 e0 00 20
        E 6 e0 00 20
        E 5 e0 00 20
        E 6 e0 00 20
        E 6 e0 00 20
        E 0 90 3e 00
        E 199 90 26 27
        E 5 90 32 3a
        E 67 90 32 00
        E 56 90 26 00
        E 450 90 32 26
        E 5 90 3c 26
        E 5 90 48 21
        E 10 90 36 27
        E 0 90 42 1b
        E 66 90 3c 00
        E 0 90 48 00
        E 0 90 48 1e
        E 26 90 4a 21
        E 5 90 3e 23
        E 0 90 42 00
        E 0 90 42 21
        E 15 90 36 00
        E 21 90 48 00
        E 16 90 47 1f
        E 30 90 3e 00
        E 0 90 3e 28
        E 11 90 32 00
        E 5 90 42 00
        E 30 90 4a 00
        E 36 90 2b 33
        E 15 90 3e 00
        E 0 90 3e 38
        E 6 90 37 2c
        E 5 90 47 00
        E 35 90 2b 00
        E 21 90 3e 00
        E 128 90 37 00
        E 219 90 45 22
        E 107 90 40 15
        E 6 90 45 00
        E 0 90 45 29
        E 5 90 39 2d
        E 92 90 34 23
        E 5 90 40 00
        E 10 90 3e 1d
        E 0 90 45 00
        E 10 90 39 00
        E 21 90 38 1e
        E 0 90 44 23
        E 0 90 47 28
        E 51 90 3e 00
        E 0 90 3e 30
        E 16 90 38 00
        E 0 90 47 00
        E 0 90 47 31
        E 10 90 34 00
        E 41 90 44 00
        E 5 90 3e 00
        E 5 90 47 00
        E 10 90 38 15
        E 61 90 3e 25
        E 11 90 38 00
        E 0 90 44 29
        E 5 90 3b 32
        E 76 90 3b 00
        E 21 90 44 00
        E 92 90 3e 00
        E 219 90 4f 23
        E 6 90 3a 2b
        E 0 90 43 27
        E 0 90 46 2a
        E 97 90 37 23
        E 5 90 4a 1f
        E 5 90 4f 00
        E 0 90 4f 1c
        E 5 90 43 00
        E 0 90 43 2c
        E 15 90 46 00
        E 5 90 3a 00
        E 77 90 3a 23
        E 0 90 3e 2b
        E 20 90 37 00
        E 6 90 43 00
        E 0 90 43 21
        E 0 90 4f 00
        E 0 90 4f 22
        E 82 90 4f 00
        E 5 90 3a 00
        E 0 90 43 00
        E 25 90 3e 00
        E 6 90 4a 00
        E 30 90 2d 23
        E 0 90 43 24
        E 21 90 3d 28
        E 5 90 39 29
        E 10 90 40 1c
        E 10 90 4c 25
        E 41 90 31 15
        E 41 90 45 29
        E 10 90 49 20
        E 51 90 2d 00
        E 5 90 43 00
        E 0 90 45 00
        E 5 90 39 00
        E 0 90 4c 00
        E 31 90 31 00
        E 0 90 43 22
        E 5 90 4f 29
        E 5 90 40 00
        E 0 90 49 00
        E 46 90 3d 00
        E 51 90 4f 00
        E 31 90 39 27
        E 5 90 2d 2d
        E 5 90 43 00
        E 62 90 40 27
        E 15 90 4c 1c
        E 36 90 45 2c
        E 61 90 45 00
        E 31 90 37 14
        E 0 90 43 28
        E 5 90 4f 27
        E 5 90 2d 00
        E 0 90 39 00
        E 0 90 40 00
        E 0 90 4c 00
        E 76 90 37 00
        E 0 90 43 00
        E 0 90 43 23
        E 16 90 4f 00
        E 30 90 45 1f
        E 11 90 2d 2b
        E 0 90 39 23
        E 0 90 40 1e
        E 51 90 43 00
        E 25 90 40 00
        E 0 90 40 22
        E 0 90 4c 26
        E 98 90 4c 00
        E 5 90 45 00
        E 31 90 4f 1a
        E 10 90 2d 00
        E 20 90 34 21
        E 5 90 43 2e
        E 11 90 40 00
        E 5 90 39 00
        E 35 90 2d 2d
        E 6 90 4f 00
        E 5 90 43 00
        E 15 90 39 31
        E 20 90 34 00
        E 36 90 43 23
        E 0 90 4a 21
        E 5 90 2d 00
        E 0 90 39 00
        E 82 90 43 00
        E 0 90 43 21
        E 0 90 4a 00
        E 87 90 4a 29
        E 5 90 4f 23
        E 31 90 3a 34
        E 15 90 43 00
        E 26 90 2d 1e
        E 5 90 43 2f
        E 5 90 4a 00
        E 0 90 4f 00
        E 0 90 4f 1e
        E 10 90 3a 00
        E 41 90 39 24
        E 0 90 51 1e
        E 10 90 43 00
        E 20 90 4a 16
        E 6 90 45 28
        E 40 90 3c 23
        E 0 90 4c 20
        E 11 90 51 00
        E 51 90 3c 00
        E 5 90 4f 00
        E 25 90 3e 18
        E 11 90 4c 00
        E 40 90 4a 00
        E 11 90 3e 00
        E 0 90 45 00
        E 0 90 45 1c
        E 5 90 2d 00
        E 62 90 2d 19
        E 5 90 4a 1c
        E 36 90 40 2f
        E 51 90 2d 00
        E 5 90 45 00
        E 5 90 40 00
        E 66 90 45 15
        E 36 90 3e 32
        E 10 90 4a 00
        E 0 90 4a 2a
        E 46 90 45 00
        E 10 90 3e 00
        E 36 90 2d 30
        E 5 90 39 00
        E 0 90 4a 00
        E 21 90 21 29
        E 41 90 39 1e
        E 0 90 40 2d
        E 5 90 2d 00
        E 5 90 2d 32
        E 10 90 21 00
        E 72 90 40 00
        E 30 90 3b 17
        E 5 90 4a 28
        E 5 90 45 1a
        E 11 90 2d 00
        E 15 90 21 1c
        E 5 90 34 28
        E 0 90 47 32
        E 46 90 3e 20
        E 10 90 21 00
        E 5 90 34 00
        E 0 90 3b 00
        E 0 90 47 00
        E 5 90 4a 00
        E 67 90 2d 1d
        E 0 90 40 22
        E 10 90 3e 00
        E 36 90 45 00
        E 0 90 45 2e
        E 46 90 49 2d
        E 5 90 40 00
        E 10 90 45 00
        E 67 90 39 00
        E 5 90 2d 00
        E 5 90 49 00
        E 16 90 21 2c
        E 15 90 43 34
        E 46 90 21 00
        E 15 90 43 00
        E 46 90 40 19
        E 5 90 39 1d
        E 36 90 42 3a
        E 5 90 21 1e
        E 36 90 2d 22
        E 26 90 42 00
        E 35 90 21 00
        E 41 90 39 00
        E 36 90 40 00
        E 5 90 40 29
        E 26 90 37 28
        E 10 90 43 25
        E 5 90 2d 00
        E 46 90 37 00
        E 5 90 40 00
        E 26 90 39 17
        E 25 90 43 00
        E 10 90 3e 41
        E 62 90 39 00
        E 0 90 42 2f
        E 10 90 3e 00
        E 51 90 47 27
        E 15 90 42 00
        E 21 90 3d 33
        E 35 90 47 00
        E 36 90 3d 00
        E 92 90 3b 33
        E 15 90 32 22
        E 37 90 4a 22
        E 5 90 3e 2f
        E 5 90 3b 00
        E 36 90 41 3a
        E 20 90 4a 00
        E 5 90 4a 23
        E 10 90 32 00
        E 6 90 3e 00
        E 20 90 41 00
        E 41 90 40 34
        E 25 90 4a 00
        E 31 90 44 25
        E 5 90 40 00
        E 123 90 3b 1f
        E 15 90 44 00
        E 67 90 41 28
        E 0 90 4d 26
        E 5 90 3e 1d
        E 35 90 44 26
        E 31 90 4d 00
        E 36 90 40 20
        E 0 90 41 00
        E 5 90 3e 00
        E 41 90 44 00
        E 0 90 44 21
        E 5 90 3b 00
        E 31 90 4d 26
        E 10 90 40 00
        E 61 90 4d 00
        E 15 90 3e 28
        E 5 90 3b 1f
        E 16 90 44 00
        E 71 90 3e 00
        E 62 90 40 32
        E 26 90 3b 00
        E 35 90 40 00
        E 36 90 3e 30
        E 51 90 44 2b
        E 41 90 41 33
        E 21 90 3e 00
        E 41 90 41 00
        E 10 90 44 00
        E 25 90 40 2e
        E 36 90 44 1a
        E 72 90 40 00
        E 71 90 41 33
        E 0 90 44 00
        E 41 90 44 31
        E 20 90 41 00
        E 21 90 28 25
        E 5 90 34 24
        E 20 90 44 00
        E 72 90 28 00
        E 5 90 28 25
        E 10 90 34 00
        E 87 90 28 00
        E 61 90 31 27
        E 5 90 25 2e
        E 41 90 46 27
        E 57 90 31 00
        E 0 90 46 00
        E 5 90 25 00
        E 15 90 4c 11
        E 6 90 40 21
        E 5 90 34 2e
        E 46 90 28 28
        E 5 90 4c 00
        E 10 90 40 00
        E 5 90 34 00
        E 61 90 41 24
        E 26 90 28 00
        E 36 90 41 00
        E 20 90 25 2b
        E 5 90 31 26
        E 46 90 46 25
        E 62 90 3d 23
        E 5 90 46 00
        E 5 90 31 00
        E 20 90 40 30
        E 10 90 25 00
        E 0 90 34 32
        E 51 90 40 00
        E 11 90 34 00
        E 0 90 3d 00
        E 153 90 25 2e
        E 10 90 31 2a
        E 31 90 46 29
        E 82 90 31 00
        E 10 90 46 00
        E 5 90 25 00
        E 82 e0 00 20
        E 0 90 46 23
        E 5 e0 00 20
        E 5 e0 00 20
        E 5 e0 00 20
        E 5 e0 00 20
        E 5 e0 00 20
        E 5 e0 00 20
        E 6 e0 00 20
        E 5 e0 55 6a
        E 5 e0 55 6a
        E 5 e0 55 6a
        E 5 e0 55 6a
        E 5 e0 55 6a
        E 5 e0 55 6a
        E 6 e0 55 6a
        E 5 e0 55 6a
        E 5 e0 55 6a
        E 0 90 46 00
        E 0 90 46 28
        E 46 90 3d 25
        E 41 90 46 00
        E 0 90 46 24
        E 41 90 1c 2b
        E 5 90 34 2b
        E 5 90 25 1e
        E 5 90 28 3b
        E 0 90 3d 00
        E 0 90 3d 28
        E 5 90 49 23
        E 10 90 46 00
        E 31 90 1c 00
        E 15 90 25 00
        E 5 90 34 00
        E 5 90 49 00
        E 6 90 28 00
        E 81 90 3d 00
        E 51 90 26 32
        E 5 90 49 32
        E 62 90 49 00
        E 56 90 26 00
        E 102 90 31 29
        E 5 90 25 30
        E 169 90 31 00
        E 5 90 25 00
        E 67 90 25 39
        E 10 90 22 2a
        E 51 90 25 00
        E 159 90 22 00
        E 143 90 2b 21
        E 5 90 25 2b
        E 0 90 31 24
        E 10 90 3d 20
        E 0 90 40 21
        E 10 90 28 29
        E 0 90 34 20
        E 41 90 21 25
        E 5 90 2b 00
        E 5 90 2d 23
        E 5 90 3d 00
        E 5 90 34 00
        E 0 90 40 00
        E 52 90 21 00
        E 0 90 2b 1d
        E 20 90 34 22
        E 46 90 2b 00
        E 15 90 31 00
        E 10 90 39 26
        E 11 90 25 00
        E 5 90 28 00
        E 61 90 34 00
        E 0 90 39 00
        E 51 90 2d 00
        E 466 e0 00 60
        E 0 90 39 1e
        E 5 e0 00 60
        E 6 e0 00 60
        E 5 e0 55 6a
        E 6 e0 55 6a
        E 5 e0 00 60
        E 6 e0 00 60
        E 5 e0 00 60
        E 6 e0 00 60
        E 5 e0 55 0a
        E 6 e0 55 0a
        E 5 e0 2b 15
        E 6 e0 2b 15
        E 5 e0 2b 15
        E 0 90 39 00
        E 72 90 2f 2c
        E 5 90 3b 28
        E 61 90 2f 00
        E 0 90 3b 00
        E 660 e0 2b 15
        E 0 90 21 22
        E 5 e0 2b 15
        E 5 e0 2b 15
        E 6 e0 2b 15
        E 5 e0 2b 15
        E 6 e0 2b 15
        E 5 e0 2b 15
        E 5 e0 2b 15
        E 6 e0 2b 15
        E 5 e0 2b 15
        E 6 e0 2b 15
        E 5 e0 2b 15
        E 5 e0 2b 15
        E 6 e0 2b 15
        E 5 e0 00 60
        E 6 e0 00 60
        E 5 e0 2b 15
        E 5 e0 2b 15
        E 6 e0 2b 15
        E 0 90 21 00
        E 41 e0 55 6a
        E 0 90 43 1a
        E 5 e0 55 6a
        E 5 e0 55 6a
        E 6 e0 55 6a
        E 5 e0 55 6a
        E 6 e0 55 6a
        E 5 e0 55 6a
        E 6 e0 55 6a
        E 5 e0 00 60
        E 6 e0 00 60
        E 5 e0 00 60
        E 5 e0 00 60
        E 6 e0 00 60
        E 5 e0 00 60
        E 6 e0 00 60
        E 5 e0 00 60
        E 0 90 43 00
        E 476 90 33 17
        E 5 90 3c 21
        E 5 90 45 2d
        E 5 90 4a 17
        E 46 90 33 00
        E 10 90 3c 00
        E 6 90 45 00
        E 0 90 4a 00
        E 240 e0 00 20
        E 0 90 4f 23
        E 5 e0 00 20
        E 6 e0 55 2a
        E 5 e0 55 2a
        E 6 e0 55 2a
        E 6 e0 55 2a
        E 5 e0 55 2a
        E 6 e0 55 2a
        E 5 e0 55 2a
        E 6 e0 00 20
        E 5 e0 00 20
        E 6 e0 55 2a
        E 0 90 4f 00
        E 51 90 3c 17
        E 51 90 4f 27
        E 15 90 3c 00
        E 46 90 4f 00
        E 87 90 51 24
        E 46 90 45 19
        E 16 90 51 00
        E 25 90 4f 1b
        E 26 90 51 15
        E 41 90 4f 00
        E 31 90 45 00
        E 30 e0 7f 7f
        E 0 90 50 2d
        E 0 90 51 00
        E 6 e0 7f 7f
        E 5 e0 2b 15
        E 6 e0 00 20
        E 5 e0 00 20
        E 6 e0 2b 15
        E 5 e0 2b 15
        E 6 e0 2b 15
        E 5 e0 2b 15
        E 6 e0 2b 15
        E 5 e0 2b 15
        E 6 e0 2b 15
        E 5 e0 7f 7f
        E 6 e0 7f 7f
        E 5 e0 00 20
        E 0 90 50 00
        E 153 e0 00 60
        E 0 90 51 1f
        E 6 e0 55 6a
        E 5 e0 55 6a
        E 6 e0 00 60
        E 5 e0 00 60
        E 6 e0 00 60
        E 5 e0 00 60
        E 6 e0 00 60
        E 6 e0 00 60
        E 5 e0 00 60
        E 6 e0 00 60
        E 5 e0 00 60
        E 6 e0 55 6a
        E 0 90 51 00
        E 158 90 3e 14
        E 41 90 45 14
        E 0 90 51 19
        E 61 90 3e 00
        E 0 90 45 00
        E 5 90 51 00
        E 1141 90 2f 24
        E 0 90 32 34
        E 5 90 3e 49
        E 56 90 2f 00
        E 5 90 32 00
        E 10 90 3e 00
        E 465 90 51 25
        E 67 90 3e 3c
        E 0 90 45 28
        E 15 90 51 00
        E 25 90 26 1c
        E 11 90 36 19
        E 10 90 45 00
        E 10 90 3e 00
        E 31 90 26 00
        E 10 90 36 00
        E 118 90 2f 1d
        E 0 90 32 24
        E 0 90 3e 38
        E 5 90 39 15
        E 0 90 45 2c
        E 66 90 39 00
        E 6 90 2f 00
        E 0 90 32 00
        E 5 90 45 00
        E 5 90 3e 00
        E 51 90 36 18
        E 5 90 32 1b
        E 66 90 36 00
        E 6 90 32 00
        E 214 90 39 1b
        E 0 90 42 29
        E 61 90 39 00
        E 0 90 45 26
        E 31 90 4e 28
        E 41 90 36 34
        E 10 90 45 00
        E 0 90 45 1d
        E 10 90 4e 00
        E 5 90 42 00
        E 36 90 36 00
        E 61 90 39 23
        E 6 90 32 1f
        E 0 90 3e 14
        E 0 90 45 00
        E 0 90 45 19
        E 5 90 42 11
        E 56 90 2f 16
        E 0 90 36 1a
        E 0 90 3e 00
        E 5 90 3e 33
        E 0 90 42 00
        E 0 90 45 00
        E 0 90 45 23
        E 5 90 42 34
        E 67 90 2f 00
        E 0 90 32 00
        E 10 90 3e 00
        E 0 90 45 00
        E 11 90 39 00
        E 10 90 42 00
        E 10 90 36 00
        E 460 90 40 1d
        E 35 90 39 18
        E 0 90 45 20
        E 6 90 4c 1f
        E 46 90 42 24
        E 10 90 40 00
        E 5 90 4c 00
        E 41 90 26 27
        E 5 90 4d 30
        E 5 90 3e 29
        E 5 90 39 00
        E 5 90 45 00
        E 5 90 42 00
        E 46 90 26 00
        E 0 90 4d 00
        E 46 90 32 24
        E 0 90 36 11
        E 0 90 42 30
        E 62 90 36 00
        E 0 90 3e 00
        E 5 90 32 00
        E 10 90 42 00
        E 46 e0 00 40
        E 0 90 49 34
        E 6 e0 00 20
        E 6 e0 00 20
        E 5 e0 00 20
        E 6 e0 00 20
        E 5 e0 00 20
        E 6 e0 00 20
        E 5 e0 00 20
        E 6 e0 00 20
        E 6 e0 00 20
        E 5 e0 00 20
        E 6 e0 00 20
        E 0 90 49 00
        E 679 e0 7f 7f
        E 0 90 52 27
        E 6 e0 55 0a
        E 5 e0 00 20
        E 6 e0 00 20
        E 5 e0 00 20
        E 6 e0 00 20
        E 5 e0 00 20
        E 6 e0 55 2a
        E 5 e0 55 2a
        E 6 e0 55 2a
        E 5 e0 00 20
        E 6 e0 00 20
        E 6 e0 00 20
        E 0 90 52 00
        E 679 90 32 23
        E 11 90 4e 25
        E 61 90 4e 00
        E 41 90 32 00
        E 629 e0 2b 35
        E 0 90 39 45
        E 5 e0 55 6a
        E 6 e0 55 6a
        E 5 e0 55 6a
        E 6 e0 55 6a
        E 5 e0 55 6a
        E 6 e0 2b 15
        E 5 e0 2b 15
        E 6 e0 2b 15
        E 5 e0 55 6a
        E 6 e0 55 6a
        E 5 e0 2b 15
        E 5 e0 2b 15
        E 6 e0 2b 15
        E 5 e0 2b 15
        E 0 90 39 00
        E 92 90 24 1c
        E 11 90 2a 15
        E 0 90 2d 1c
        E 5 90 39 27
        E 10 90 45 21
        E 36 90 32 39
        E 0 90 3e 48
        E 10 90 4a 42
        E 46 90 24 00
        E 0 90 2a 00
        E 0 90 2d 00
        E 10 90 32 00
        E 0 90 39 00
        E 5 90 3e 00
        E 0 90 45 00
        E 0 90 4a 00
        E 72 90 32 19
        E 10 90 42 23
        E 5 90 39 24
        E 0 90 45 29
        E 36 90 2a 1a
        E 11 90 40 21
        E 0 90 4c 29
        E 15 90 32 00
        E 10 90 39 00
        E 0 90 42 00
        E 0 90 45 00
        E 26 90 3d 27
        E 10 90 4c 00
        E 31 90 2a 00
        E 15 90 40 00
        E 5 90 3d 00
        E 153 e0 00 20
        E 0 90 3e 2b
        E 6 e0 00 20
        E 5 e0 00 20
        E 6 e0 2b 15
        E 5 e0 2b 15
        E 6 e0 2b 15
        E 5 e0 00 20
        E 6 e0 00 20
        E 5 e0 00 20
        E 6 e0 00 20
        E 5 e0 00 20
        E 6 e0 00 20
        E 5 e0 00 20
        E 6 e0 00 20
        E 0 90 3e 00
        E 250 90 37 17
        E 0 90 3a 1b
        E 0 90 3e 1e
        E 5 90 42 1c
        E 61 90 42 00
        E 46 90 37 00
        E 0 90 3a 00
        E 41 90 45 21
        E 0 90 4a 21
        E 21 90 3e 00
        E 25 90 33 1b
        E 16 90 4a 00
        E 5 90 45 00
        E 36 90 33 00
        E 112 e0 00 20
        E 0 90 39 21
        E 6 e0 00 20
        E 5 e0 00 20
        E 6 e0 00 20
        E 6 e0 00 20
        E 5 e0 00 20
        E 6 e0 00 20
        E 5 e0 00 20
        E 6 e0 00 20
        E 5 e0 00 20
        E 6 e0 00 60
        E 5 e0 00 60
        E 6 e0 55 6a
        E 0 90 39 00
        E 255 90 42 21
        E 51 90 40 0f
        E 0 90 4c 0d
        E 26 90 42 00
        E 36 90 40 00
        E 0 90 4c 00
        E 199 e0 55 6a
        E 0 90 3e 29
        E 5 e0 55 6a
        E 6 e0 55 6a
        E 5 e0 00 20
        E 6 e0 00 20
        E 5 e0 00 20
        E 6 e0 00 20
        E 5 e0 00 20
        E 6 e0 00 20
        E 5 e0 00 20
        E 6 e0 00 20
        E 5 e0 00 20
        E 6 e0 00 20
        E 5 e0 00 20
        E 0 90 3e 00
        E 440 e0 55 6a
        E 0 90 4a 28
        E 6 e0 55 6a
        E 5 e0 55 6a
        E 6 e0 00 60
        E 5 e0 00 60
        E 6 e0 00 60
        E 5 e0 55 6a
        E 6 e0 2b 15
        E 5 e0 55 6a
        E 6 e0 55 6a
        E 5 e0 55 6a
        E 6 e0 55 6a
        E 5 e0 00 20
        E 6 e0 00 20
        E 0 90 40 24
        E 0 90 4a 00
        E 0 90 4a 1e
        E 66 90 4a 00
        E 5 90 40 00
        E 26 e0 00 60
        E 0 90 4a 20
        E 5 e0 55 6a
        E 6 e0 00 60
        E 5 e0 00 60
        E 6 e0 00 60
        E 5 e0 00 60
        E 6 e0 00 60
        E 6 e0 00 60
        E 5 e0 00 60
        E 6 e0 00 60
        E 5 e0 00 60
        E 6 e0 00 60
        E 5 e0 00 60
        E 0 90 4a 00
        E 72 90 36 1c
        E 0 90 4e 1a
        E 5 90 4a 23
        E 36 90 26 1d
        E 15 90 2d 27
        E 10 90 3e 25
        E 5 90 36 00
        E 5 90 4e 00
        E 41 90 4a 00
        E 10 90 42 22
        E 6 90 36 31
        E 41 90 26 00
        E 15 90 36 00
        E 0 90 42 00
        E 11 90 3e 00
        E 5 90 2d 00
        E 168 90 2d 23
        E 5 90 36 20
        E 5 90 42 1d
        E 6 90 39 1e
        E 97 90 4a 1a
        E 5 90 2d 00
        E 0 90 36 00
        E 5 90 42 00
        E 10 90 39 00
        E 46 90 3e 25
        E 26 90 39 1b
        E 10 90 40 1a
        E 41 90 36 2a
        E 0 90 4e 21
        E 5 90 42 26
        E 66 90 39 00
        E 0 90 40 00
        E 10 90 4a 00
        E 0 90 4e 00
        E 5 90 36 00
        E 0 90 3e 00
        E 0 90 42 00
        E 76 b0 7b 00
        CCINTERP 32
        CHASE_CC_TAKEOFFS 1
        GUID {44FE5C71-A9BF-4268-8154-4BC31293D349}
        IGNTEMPO 0 120 4 4
        SRCCOLOR 159
        VELLANE -1 100 0
      >
    >
  >
  <UINF 19
    WNDRECT 109 702 556 508
    SHOW 0
    LASTSEL 1
    DOCKED 0
  >
  <UINF 20
    WNDRECT 23 51 855 480
    SHOW 0
    LASTSEL 0
    DOCKED 0
    BYPASS 0 0 0
    FXID_NEXT {501FF10E-E1ED-4759-A0AC-1CDAD4C0FDA6}
    <VST "VSTi: BassMidiVsti (Falcosoft)" BassMidiVsti.dll 0 "" 1112755524<56535442534D44626173736D69646976> ""
      RE1TQu5e7f4AAAAAAgAAAAEAAAAAAAAAAgAAAAAAAAD1DAAAAQAAAAAAEAA=
      SAA6AFwATQB5ACAARAByAGkAdgBlAFwATQB1AHMAaQBjACAAUAByAG8AZAB1AGMAdABpAG8AbgBcAFMAbwB1AG4AZABmAG8AbgB0AHMAXABFAHMAcwBlAG4AdABpAGEAbAAgAEsAZQB5AHMALQBzAGYAegBCAGEAbgBrAHMALQB2ADkALgA2AC4AcwBmADIAAAAAAAAAAAAAAAAAAAAAAAAAAAAAAAAAAAAAAAAAAAAAAAAAAAAAAAAAAAAAAAAAAAAAAAAAAAAAAAAAAAAAAAAA
      AAAAAAAAAAAAAAAAAAAAAAAAAAAAAAAAAAAAAAAAAAAAAAAAAAAAAAAAAAAAAAAAAAAAAAAAAAAAAAAAAAAAAAAAAAAAAAAAAAAAAAAAAAAAAAAAAAAAAAAAAAAAAAAAAAAAAAAAAAAAAAAAAAAAAAAAAAAAAAAAAAAAAAAAAAAAAAAAAAAAAAAAAAAAAAAAAAAAAAAAAAAAAAAAAAAAAAAAAAAAAAAAAAAAAAAAAAAAAAAAAAAAAAAAAAAAAAAAAAAAAAAAAAAAAAAAAAAAAAAA
      AAAAAAAAAAAAAAAAAAAAAAAAAAAAAAAAAAAAAAAAAAAAAAAAAAAAAAAAAAAAAAAAAAAAAAAAAAAAAAAAAAAAAAAAAAAAAAAAAAAAAAAAAAAAAAAAAAAAAAAAAAAAAAAAAAAAAAAAZAAAAAEAAAAAAAAAAAAAAAAAAAAAAAAAAAAAAAAAAAAAAAAAAAAAAAAAAAAAAAAAAAAAAAAAAAAAAAAAAAAAAAAAAAAAAAAAAAAAAAAAAAAAAAAAAAAAAAAAAAAAAAAAAAAAAAAAAAAAAAAA
      AAAAAAAAAAAAAAAAAAAAAAAAAAAAAAAAAAAAAAAAAAAAAAAAAAAAAAAAAAAAAAAAAAAAAAAAAAAAAAAAAAAAAAAAAAAAAAAAAAAAAAAAAAAAAAAAAAAAAAAAAAAAAAAAAAAAAAAAAAAAAAAAAAAAAAAAAAAAAAAAAAAAAAAAAAAAAAAAAAAAAAAAAAAAAAAAAAAAAAAAAAAAAAAAAAAAAAAAAAAAAAAAAAAAAAAAAAAAAAAAAAAAAAAAAAAAAAAAAAAAAAAAAAAAAAAAAAAAAAAA
      AAAAAAAAAAAAAAAAAAAAAAAAAAAAAAAAAAAAAAAAAAAAAAAAAAAAAAAAAAAAAAAAAAAAAAAAAAAAAAAAAAAAAAAAAAAAAAAAAAAAAAAAAAAAAAAAAAAAAAAAAAAAAAAAAAAAAAAAAAAAAAAAAAAAAAAAAAAAAAAAAAAAAAAAAAAAAAAAAAAAAAAAAAAAAAAAAAAAAAAAAAAAAAAAAAAAAAAAAAAAAAAAAAAAAAAAAAAAAAAAAAAAAAAAAAAAAAAAAAAAAAAAAAAAAAAAAAAAAABk
      AAEAAAAAAAAAAAAAAAAAAAAAAAAAAAAAAAAAAAAAAAAAAAAAAAAAAAAAAAAAAAAAAAAAAAAAAAAAAAAAAAAAAAAAAAAAAAAAAAAAAAAAAAAAAAAAAAAAAAAAAAAAAAAAAAAAAAAAAAAAAAAAAAAAAAAAAAAAAAAAAAAAAAAAAAAAAAAAAAAAAAAAAAAAAAAAAAAAAAAAAAAAAAAAAAAAAAAAAAAAAAAAAAAAAAAAAAAAAAAAAAAAAAAAAAAAAAAAAAAAAAAAAAAAAAAAAAAAAAAA
      AAAAAAAAAAAAAAAAAAAAAAAAAAAAAAAAAAAAAAAAAAAAAAAAAAAAAAAAAAAAAAAAAAAAAAAAAAAAAAAAAAAAAAAAAAAAAAAAAAAAAAAAAAAAAAAAAAAAAAAAAAAAAAAAAAAAAAAAAAAAAAAAAAAAAAAAAAAAAAAAAAAAAAAAAAAAAAAAAAAAAAAAAAAAAAAAAAAAAAAAAAAAAAAAAAAAAAAAAAAAAAAAAAAAAAAAAAAAAAAAAAAAAAAAAAAAAAAAAAAAAAAAAAAAAAAAAAAAAAAA
      AAAAAAAAAAAAAAAAAAAAAAAAAAAAAAAAAAAAAAAAAAAAAAAAAAAAAAAAAAAAAAAAAAAAAAAAAAAAAAAAAAAAAAAAAAAAAAAAAAAAAAAAAAAAAAAAAAAAAAAAAAAAAAAAAAAAAAAAAAAAAGQAAgAAAAAAAAAAAAAAAAAAAAAAAAAAAAAAAAAAAAAAAAAAAAAAAAAAAAAAAAAAAAAAAAAAAAAAAAAAAAAAAAAAAAAAAAAAAAAAAAAAAAAAAAAAAAAAAAAAAAAAAAAAAAAAAAAAAAAA
      AAAAAAAAAAAAAAAAAAAAAAAAAAAAAAAAAAAAAAAAAAAAAAAAAAAAAAAAAAAAAAAAAAAAAAAAAAAAAAAAAAAAAAAAAAAAAAAAAAAAAAAAAAAAAAAAAAAAAAAAAAAAAAAAAAAAAAAAAAAAAAAAAAAAAAAAAAAAAAAAAAAAAAAAAAAAAAAAAAAAAAAAAAAAAAAAAAAAAAAAAAAAAAAAAAAAAAAAAAAAAAAAAAAAAAAAAAAAAAAAAAAAAAAAAAAAAAAAAAAAAAAAAAAAAAAAAAAAAAAA
      AAAAAAAAAAAAAAAAAAAAAAAAAAAAAAAAAAAAAAAAAAAAAAAAAAAAAAAAAAAAAAAAAAAAAAAAAAAAAAAAAAAAAAAAAAAAAAAAAAAAAAAAAAAAAAAAAAAAAAAAAAAAAAAAAAAAAAAAAAAAAAAAAAAAAAAAAAAAAAAAAAAAAAAAAAAAAAAAAAAAAAAAAAAAAAAAAAAAAAAAAAAAAAAAAAAAAAAAAAAAAAAAAAAAAAAAAAAAAAAAAAAAAAAAAAAAAAAAAAAAAAAAAAAAAAAAAAAAAAAA
      AAAAZAADAAAAAAAAAAAAAAAAAAAAAAAAAAAAAAAAAAAAAAAAAAAAAAAAAAAAAAAAAAAAAAAAAAAAAAAAAAAAAAAAAAAAAAAAAAAAAAAAAAAAAAAAAAAAAAAAAAAAAAAAAAAAAAAAAAAAAAAAAAAAAAAAAAAAAAAAAAAAAAAAAAAAAAAAAAAAAAAAAAAAAAAAAAAAAAAAAAAAAAAAAAAAAAAAAAAAAAAAAAAAAAAAAAAAAAAAAAAAAAAAAAAAAAAAAAAAAAAAAAAAAAAAAAAAAAAA
      AAAAAAAAAAAAAAAAAAAAAAAAAAAAAAAAAAAAAAAAAAAAAAAAAAAAAAAAAAAAAAAAAAAAAAAAAAAAAAAAAAAAAAAAAAAAAAAAAAAAAAAAAAAAAAAAAAAAAAAAAAAAAAAAAAAAAAAAAAAAAAAAAAAAAAAAAAAAAAAAAAAAAAAAAAAAAAAAAAAAAAAAAAAAAAAAAAAAAAAAAAAAAAAAAAAAAAAAAAAAAAAAAAAAAAAAAAAAAAAAAAAAAAAAAAAAAAAAAAAAAAAAAAAAAAAAAAAAAAAA
      AAAAAAAAAAAAAAAAAAAAAAAAAAAAAAAAAAAAAAAAAAAAAAAAAAAAAAAAAAAAAAAAAAAAAAAAAAAAAAAAAAAAAAAAAAAAAAAAAAAAAAAAAAAAAAAAAAAAAAAAAAAAAAAAAAAAAAAAAAAAAAAAAABkAAQAAAAAAAAAAAAAAACAPwAAgD8AAAAAAACAQgAAAAAAAIBCAACAQwAAAAAEAAAAACAAAAAAAAAAAAAAZAAAAEAAAAAoAAAAAAAAAEAAAAAAAAAAAAAAAAAgAAAAAAAAAAAA
      AGQAAABAAAAAKAAAAAAAAABAAAAAAAAAAAAAAAAAIAAAAAAAAAAAAABkAAAAQAAAACgAAAAAAAAAQAAAAAAAAAAAAAAAACAAAAAAAAAAAAAAZAAAAEAAAAAoAAAAAAAAAEAAAAAAAAAAAAAAAAAgAAAAAAAAAAAAAGQAAABAAAAAKAAAAAAAAABAAAAAAAAAAAAAAAAAIAAAAAAAAAAAAABkAAAAQAAAACgAAAAAAAAAQAAAAAAAAAAAAAAAACAAAAAAAAAAAAAAZAAAAEAAAAAo
      AAAAAAAAAEAAAAAAAAAAAAAAAAAgAAAAAAAAAAAAAGQAAABAAAAAKAAAAAAAAABAAAAAAAAAAAAAAAAAIAAAAAAAAAAAAABkAAAAQAAAACgAAAAAAAAAQAAAAAAAAAAAAAAAACAAAAAAAAAAAAAAZAAAAEAAAAAoAAAAAAAAAEAAAAAAAAAAAAAAAAAgAAAAAAAAAAAAAGQAAABAAAAAKAAAAAAAAABAAAAAAAAAAAAAAAAAIAAAAAAAAAAAAABkAAAAQAAAACgAAAAAAAAAQAAA
      AAAAAAAAAAAAACAAAAAAAAAAAAAAZAAAAEAAAAAoAAAAAAAAAEAAAAAAAAAAAAAAAAAgAAAAAAAAAAAAAGQAAABAAAAAKAAAAAAAAABAAAAAAAAAAAAAAAAAIAAAAAAAAAAAAABkAAAAQAAAACgAAAAAAAAAQAAAAAAAAAAAAAAAACAAAAAAAAAAAAAAZAAAAEAAAAAoAAAAAAAAAEAAAAAAAAAAAAA=
      AEJhc3NNaWRpABAAAAA=
    >
    PRESETNAME BassMidi
    FLOATPOS 0 0 0 0
    WAK 0 0
  >
  <UINF 21
    WNDRECT 0 0 834 455
    SHOW 0
    LASTSEL 0
    DOCKED 0
  >
  <UINF 22
    WNDRECT 0 0 834 455
    SHOW 0
    LASTSEL 0
    DOCKED 0
  >
  <UINF 23
    WNDRECT 217 360 834 455
    SHOW 0
    LASTSEL 0
    DOCKED 0
  >
  <UINF 24
    WNDRECT 217 360 834 455
    SHOW 0
    LASTSEL 0
    DOCKED 0
  >
  <UINF 25
    WNDRECT 217 360 834 455
    SHOW 0
    LASTSEL 0
    DOCKED 0
  >
  <UINF 26
    WNDRECT 109 702 556 508
    SHOW 0
    LASTSEL 0
    DOCKED 0
  >
  <UINF 27
    WNDRECT 23 51 855 480
    SHOW 0
    LASTSEL 0
    DOCKED 0
    BYPASS 0 0 0
    FXID_NEXT {6680346F-A7B3-419E-988B-7A84DECC9491}
    <VST "VSTi: BassMidiVsti (Falcosoft)" BassMidiVsti.dll 0 "" 1112755524<56535442534D44626173736D69646976> ""
      RE1TQu5e7f4AAAAAAgAAAAEAAAAAAAAAAgAAAAAAAAD1DAAAAQAAAAAAEAA=
      SAA6AFwATQB5ACAARAByAGkAdgBlAFwATQB1AHMAaQBjACAAUAByAG8AZAB1AGMAdABpAG8AbgBcAFMAbwB1AG4AZABmAG8AbgB0AHMAXABFAHMAcwBlAG4AdABpAGEAbAAgAEsAZQB5AHMALQBzAGYAegBCAGEAbgBrAHMALQB2ADkALgA2AC4AcwBmADIAAAAAAAAAAAAAAAAAAAAAAAAAAAAAAAAAAAAAAAAAAAAAAAAAAAAAAAAAAAAAAAAAAAAAAAAAAAAAAAAAAAAAAAAA
      AAAAAAAAAAAAAAAAAAAAAAAAAAAAAAAAAAAAAAAAAAAAAAAAAAAAAAAAAAAAAAAAAAAAAAAAAAAAAAAAAAAAAAAAAAAAAAAAAAAAAAAAAAAAAAAAAAAAAAAAAAAAAAAAAAAAAAAAAAAAAAAAAAAAAAAAAAAAAAAAAAAAAAAAAAAAAAAAAAAAAAAAAAAAAAAAAAAAAAAAAAAAAAAAAAAAAAAAAAAAAAAAAAAAAAAAAAAAAAAAAAAAAAAAAAAAAAAAAAAAAAAAAAAAAAAAAAAAAAAA
      AAAAAAAAAAAAAAAAAAAAAAAAAAAAAAAAAAAAAAAAAAAAAAAAAAAAAAAAAAAAAAAAAAAAAAAAAAAAAAAAAAAAAAAAAAAAAAAAAAAAAAAAAAAAAAAAAAAAAAAAAAAAAAAAAAAAAAAAZAAAAAEAAAAAAAAAAAAAAAAAAAAAAAAAAAAAAAAAAAAAAAAAAAAAAAAAAAAAAAAAAAAAAAAAAAAAAAAAAAAAAAAAAAAAAAAAAAAAAAAAAAAAAAAAAAAAAAAAAAAAAAAAAAAAAAAAAAAAAAAA
      AAAAAAAAAAAAAAAAAAAAAAAAAAAAAAAAAAAAAAAAAAAAAAAAAAAAAAAAAAAAAAAAAAAAAAAAAAAAAAAAAAAAAAAAAAAAAAAAAAAAAAAAAAAAAAAAAAAAAAAAAAAAAAAAAAAAAAAAAAAAAAAAAAAAAAAAAAAAAAAAAAAAAAAAAAAAAAAAAAAAAAAAAAAAAAAAAAAAAAAAAAAAAAAAAAAAAAAAAAAAAAAAAAAAAAAAAAAAAAAAAAAAAAAAAAAAAAAAAAAAAAAAAAAAAAAAAAAAAAAA
      AAAAAAAAAAAAAAAAAAAAAAAAAAAAAAAAAAAAAAAAAAAAAAAAAAAAAAAAAAAAAAAAAAAAAAAAAAAAAAAAAAAAAAAAAAAAAAAAAAAAAAAAAAAAAAAAAAAAAAAAAAAAAAAAAAAAAAAAAAAAAAAAAAAAAAAAAAAAAAAAAAAAAAAAAAAAAAAAAAAAAAAAAAAAAAAAAAAAAAAAAAAAAAAAAAAAAAAAAAAAAAAAAAAAAAAAAAAAAAAAAAAAAAAAAAAAAAAAAAAAAAAAAAAAAAAAAAAAAABk
      AAEAAAAAAAAAAAAAAAAAAAAAAAAAAAAAAAAAAAAAAAAAAAAAAAAAAAAAAAAAAAAAAAAAAAAAAAAAAAAAAAAAAAAAAAAAAAAAAAAAAAAAAAAAAAAAAAAAAAAAAAAAAAAAAAAAAAAAAAAAAAAAAAAAAAAAAAAAAAAAAAAAAAAAAAAAAAAAAAAAAAAAAAAAAAAAAAAAAAAAAAAAAAAAAAAAAAAAAAAAAAAAAAAAAAAAAAAAAAAAAAAAAAAAAAAAAAAAAAAAAAAAAAAAAAAAAAAAAAAA
      AAAAAAAAAAAAAAAAAAAAAAAAAAAAAAAAAAAAAAAAAAAAAAAAAAAAAAAAAAAAAAAAAAAAAAAAAAAAAAAAAAAAAAAAAAAAAAAAAAAAAAAAAAAAAAAAAAAAAAAAAAAAAAAAAAAAAAAAAAAAAAAAAAAAAAAAAAAAAAAAAAAAAAAAAAAAAAAAAAAAAAAAAAAAAAAAAAAAAAAAAAAAAAAAAAAAAAAAAAAAAAAAAAAAAAAAAAAAAAAAAAAAAAAAAAAAAAAAAAAAAAAAAAAAAAAAAAAAAAAA
      AAAAAAAAAAAAAAAAAAAAAAAAAAAAAAAAAAAAAAAAAAAAAAAAAAAAAAAAAAAAAAAAAAAAAAAAAAAAAAAAAAAAAAAAAAAAAAAAAAAAAAAAAAAAAAAAAAAAAAAAAAAAAAAAAAAAAAAAAAAAAGQAAgAAAAAAAAAAAAAAAAAAAAAAAAAAAAAAAAAAAAAAAAAAAAAAAAAAAAAAAAAAAAAAAAAAAAAAAAAAAAAAAAAAAAAAAAAAAAAAAAAAAAAAAAAAAAAAAAAAAAAAAAAAAAAAAAAAAAAA
      AAAAAAAAAAAAAAAAAAAAAAAAAAAAAAAAAAAAAAAAAAAAAAAAAAAAAAAAAAAAAAAAAAAAAAAAAAAAAAAAAAAAAAAAAAAAAAAAAAAAAAAAAAAAAAAAAAAAAAAAAAAAAAAAAAAAAAAAAAAAAAAAAAAAAAAAAAAAAAAAAAAAAAAAAAAAAAAAAAAAAAAAAAAAAAAAAAAAAAAAAAAAAAAAAAAAAAAAAAAAAAAAAAAAAAAAAAAAAAAAAAAAAAAAAAAAAAAAAAAAAAAAAAAAAAAAAAAAAAAA
      AAAAAAAAAAAAAAAAAAAAAAAAAAAAAAAAAAAAAAAAAAAAAAAAAAAAAAAAAAAAAAAAAAAAAAAAAAAAAAAAAAAAAAAAAAAAAAAAAAAAAAAAAAAAAAAAAAAAAAAAAAAAAAAAAAAAAAAAAAAAAAAAAAAAAAAAAAAAAAAAAAAAAAAAAAAAAAAAAAAAAAAAAAAAAAAAAAAAAAAAAAAAAAAAAAAAAAAAAAAAAAAAAAAAAAAAAAAAAAAAAAAAAAAAAAAAAAAAAAAAAAAAAAAAAAAAAAAAAAAA
      AAAAZAADAAAAAAAAAAAAAAAAAAAAAAAAAAAAAAAAAAAAAAAAAAAAAAAAAAAAAAAAAAAAAAAAAAAAAAAAAAAAAAAAAAAAAAAAAAAAAAAAAAAAAAAAAAAAAAAAAAAAAAAAAAAAAAAAAAAAAAAAAAAAAAAAAAAAAAAAAAAAAAAAAAAAAAAAAAAAAAAAAAAAAAAAAAAAAAAAAAAAAAAAAAAAAAAAAAAAAAAAAAAAAAAAAAAAAAAAAAAAAAAAAAAAAAAAAAAAAAAAAAAAAAAAAAAAAAAA
      AAAAAAAAAAAAAAAAAAAAAAAAAAAAAAAAAAAAAAAAAAAAAAAAAAAAAAAAAAAAAAAAAAAAAAAAAAAAAAAAAAAAAAAAAAAAAAAAAAAAAAAAAAAAAAAAAAAAAAAAAAAAAAAAAAAAAAAAAAAAAAAAAAAAAAAAAAAAAAAAAAAAAAAAAAAAAAAAAAAAAAAAAAAAAAAAAAAAAAAAAAAAAAAAAAAAAAAAAAAAAAAAAAAAAAAAAAAAAAAAAAAAAAAAAAAAAAAAAAAAAAAAAAAAAAAAAAAAAAAA
      AAAAAAAAAAAAAAAAAAAAAAAAAAAAAAAAAAAAAAAAAAAAAAAAAAAAAAAAAAAAAAAAAAAAAAAAAAAAAAAAAAAAAAAAAAAAAAAAAAAAAAAAAAAAAAAAAAAAAAAAAAAAAAAAAAAAAAAAAAAAAAAAAABkAAQAAAAAAAAAAAAAAACAPwAAgD8AAAAAAACAQgAAAAAAAIBCAACAQwAAAAAEAAAAACAAAAAAAAAAAAAAZAAAAEAAAAAoAAAAAAAAAEAAAAAAAAAAAAAAAAAgAAAAAAAAAAAA
      AGQAAABAAAAAKAAAAAAAAABAAAAAAAAAAAAAAAAAIAAAAAAAAAAAAABkAAAAQAAAACgAAAAAAAAAQAAAAAAAAAAAAAAAACAAAAAAAAAAAAAAZAAAAEAAAAAoAAAAAAAAAEAAAAAAAAAAAAAAAAAgAAAAAAAAAAAAAGQAAABAAAAAKAAAAAAAAABAAAAAAAAAAAAAAAAAIAAAAAAAAAAAAABkAAAAQAAAACgAAAAAAAAAQAAAAAAAAAAAAAAAACAAAAAAAAAAAAAAZAAAAEAAAAAo
      AAAAAAAAAEAAAAAAAAAAAAAAAAAgAAAAAAAAAAAAAGQAAABAAAAAKAAAAAAAAABAAAAAAAAAAAAAAAAAIAAAAAAAAAAAAABkAAAAQAAAACgAAAAAAAAAQAAAAAAAAAAAAAAAACAAAAAAAAAAAAAAZAAAAEAAAAAoAAAAAAAAAEAAAAAAAAAAAAAAAAAgAAAAAAAAAAAAAGQAAABAAAAAKAAAAAAAAABAAAAAAAAAAAAAAAAAIAAAAAAAAAAAAABkAAAAQAAAACgAAAAAAAAAQAAA
      AAAAAAAAAAAAACAAAAAAAAAAAAAAZAAAAEAAAAAoAAAAAAAAAEAAAAAAAAAAAAAAAAAgAAAAAAAAAAAAAGQAAABAAAAAKAAAAAAAAABAAAAAAAAAAAAAAAAAIAAAAAAAAAAAAABkAAAAQAAAACgAAAAAAAAAQAAAAAAAAAAAAAAAACAAAAAAAAAAAAAAZAAAAEAAAAAoAAAAAAAAAEAAAAAAAAAAAAA=
      AEJhc3NNaWRpABAAAAA=
    >
    PRESETNAME BassMidi
    FLOATPOS 0 0 0 0
    WAK 0 0
  >
  <UINF 28
    WNDRECT 24 52 834 455
    SHOW 0
    LASTSEL 0
    DOCKED 0
  >
  <UINF 29
    WNDRECT 130 317 834 455
    SHOW 0
    LASTSEL 0
    DOCKED 0
  >
  <UINF 30
    WNDRECT 144 767 834 455
    SHOW 0
    LASTSEL 0
    DOCKED 0
  >
  <UINF 31
    WNDRECT 144 767 834 455
    SHOW 0
    LASTSEL 0
    DOCKED 0
  >
  <UINF 32
    WNDRECT 144 767 834 455
    SHOW 0
    LASTSEL 0
    DOCKED 0
  >
  <UINF 33
    WNDRECT 23 51 855 480
    SHOW 0
    LASTSEL 0
    DOCKED 0
    BYPASS 0 0 0
    FXID_NEXT {59687D35-B611-40B4-B0CD-E8EA785922A6}
    <VST "VSTi: BassMidiVsti (Falcosoft)" BassMidiVsti.dll 0 "" 1112755524<56535442534D44626173736D69646976> ""
      RE1TQu5e7f4AAAAAAgAAAAEAAAAAAAAAAgAAAAAAAAD1DAAAAQAAAAAAEAA=
      SAA6AFwATQB5ACAARAByAGkAdgBlAFwATQB1AHMAaQBjACAAUAByAG8AZAB1AGMAdABpAG8AbgBcAFMAbwB1AG4AZABmAG8AbgB0AHMAXABFAHMAcwBlAG4AdABpAGEAbAAgAEsAZQB5AHMALQBzAGYAegBCAGEAbgBrAHMALQB2ADkALgA2AC4AcwBmADIAAAAAAAAAAAAAAAAAAAAAAAAAAAAAAAAAAAAAAAAAAAAAAAAAAAAAAAAAAAAAAAAAAAAAAAAAAAAAAAAAAAAAAAAA
      AAAAAAAAAAAAAAAAAAAAAAAAAAAAAAAAAAAAAAAAAAAAAAAAAAAAAAAAAAAAAAAAAAAAAAAAAAAAAAAAAAAAAAAAAAAAAAAAAAAAAAAAAAAAAAAAAAAAAAAAAAAAAAAAAAAAAAAAAAAAAAAAAAAAAAAAAAAAAAAAAAAAAAAAAAAAAAAAAAAAAAAAAAAAAAAAAAAAAAAAAAAAAAAAAAAAAAAAAAAAAAAAAAAAAAAAAAAAAAAAAAAAAAAAAAAAAAAAAAAAAAAAAAAAAAAAAAAAAAAA
      AAAAAAAAAAAAAAAAAAAAAAAAAAAAAAAAAAAAAAAAAAAAAAAAAAAAAAAAAAAAAAAAAAAAAAAAAAAAAAAAAAAAAAAAAAAAAAAAAAAAAAAAAAAAAAAAAAAAAAAAAAAAAAAAAAAAAAAAZAAAAAEAAAAAAAAAAAAAAAAAAAAAAAAAAAAAAAAAAAAAAAAAAAAAAAAAAAAAAAAAAAAAAAAAAAAAAAAAAAAAAAAAAAAAAAAAAAAAAAAAAAAAAAAAAAAAAAAAAAAAAAAAAAAAAAAAAAAAAAAA
      AAAAAAAAAAAAAAAAAAAAAAAAAAAAAAAAAAAAAAAAAAAAAAAAAAAAAAAAAAAAAAAAAAAAAAAAAAAAAAAAAAAAAAAAAAAAAAAAAAAAAAAAAAAAAAAAAAAAAAAAAAAAAAAAAAAAAAAAAAAAAAAAAAAAAAAAAAAAAAAAAAAAAAAAAAAAAAAAAAAAAAAAAAAAAAAAAAAAAAAAAAAAAAAAAAAAAAAAAAAAAAAAAAAAAAAAAAAAAAAAAAAAAAAAAAAAAAAAAAAAAAAAAAAAAAAAAAAAAAAA
      AAAAAAAAAAAAAAAAAAAAAAAAAAAAAAAAAAAAAAAAAAAAAAAAAAAAAAAAAAAAAAAAAAAAAAAAAAAAAAAAAAAAAAAAAAAAAAAAAAAAAAAAAAAAAAAAAAAAAAAAAAAAAAAAAAAAAAAAAAAAAAAAAAAAAAAAAAAAAAAAAAAAAAAAAAAAAAAAAAAAAAAAAAAAAAAAAAAAAAAAAAAAAAAAAAAAAAAAAAAAAAAAAAAAAAAAAAAAAAAAAAAAAAAAAAAAAAAAAAAAAAAAAAAAAAAAAAAAAABk
      AAEAAAAAAAAAAAAAAAAAAAAAAAAAAAAAAAAAAAAAAAAAAAAAAAAAAAAAAAAAAAAAAAAAAAAAAAAAAAAAAAAAAAAAAAAAAAAAAAAAAAAAAAAAAAAAAAAAAAAAAAAAAAAAAAAAAAAAAAAAAAAAAAAAAAAAAAAAAAAAAAAAAAAAAAAAAAAAAAAAAAAAAAAAAAAAAAAAAAAAAAAAAAAAAAAAAAAAAAAAAAAAAAAAAAAAAAAAAAAAAAAAAAAAAAAAAAAAAAAAAAAAAAAAAAAAAAAAAAAA
      AAAAAAAAAAAAAAAAAAAAAAAAAAAAAAAAAAAAAAAAAAAAAAAAAAAAAAAAAAAAAAAAAAAAAAAAAAAAAAAAAAAAAAAAAAAAAAAAAAAAAAAAAAAAAAAAAAAAAAAAAAAAAAAAAAAAAAAAAAAAAAAAAAAAAAAAAAAAAAAAAAAAAAAAAAAAAAAAAAAAAAAAAAAAAAAAAAAAAAAAAAAAAAAAAAAAAAAAAAAAAAAAAAAAAAAAAAAAAAAAAAAAAAAAAAAAAAAAAAAAAAAAAAAAAAAAAAAAAAAA
      AAAAAAAAAAAAAAAAAAAAAAAAAAAAAAAAAAAAAAAAAAAAAAAAAAAAAAAAAAAAAAAAAAAAAAAAAAAAAAAAAAAAAAAAAAAAAAAAAAAAAAAAAAAAAAAAAAAAAAAAAAAAAAAAAAAAAAAAAAAAAGQAAgAAAAAAAAAAAAAAAAAAAAAAAAAAAAAAAAAAAAAAAAAAAAAAAAAAAAAAAAAAAAAAAAAAAAAAAAAAAAAAAAAAAAAAAAAAAAAAAAAAAAAAAAAAAAAAAAAAAAAAAAAAAAAAAAAAAAAA
      AAAAAAAAAAAAAAAAAAAAAAAAAAAAAAAAAAAAAAAAAAAAAAAAAAAAAAAAAAAAAAAAAAAAAAAAAAAAAAAAAAAAAAAAAAAAAAAAAAAAAAAAAAAAAAAAAAAAAAAAAAAAAAAAAAAAAAAAAAAAAAAAAAAAAAAAAAAAAAAAAAAAAAAAAAAAAAAAAAAAAAAAAAAAAAAAAAAAAAAAAAAAAAAAAAAAAAAAAAAAAAAAAAAAAAAAAAAAAAAAAAAAAAAAAAAAAAAAAAAAAAAAAAAAAAAAAAAAAAAA
      AAAAAAAAAAAAAAAAAAAAAAAAAAAAAAAAAAAAAAAAAAAAAAAAAAAAAAAAAAAAAAAAAAAAAAAAAAAAAAAAAAAAAAAAAAAAAAAAAAAAAAAAAAAAAAAAAAAAAAAAAAAAAAAAAAAAAAAAAAAAAAAAAAAAAAAAAAAAAAAAAAAAAAAAAAAAAAAAAAAAAAAAAAAAAAAAAAAAAAAAAAAAAAAAAAAAAAAAAAAAAAAAAAAAAAAAAAAAAAAAAAAAAAAAAAAAAAAAAAAAAAAAAAAAAAAAAAAAAAAA
      AAAAZAADAAAAAAAAAAAAAAAAAAAAAAAAAAAAAAAAAAAAAAAAAAAAAAAAAAAAAAAAAAAAAAAAAAAAAAAAAAAAAAAAAAAAAAAAAAAAAAAAAAAAAAAAAAAAAAAAAAAAAAAAAAAAAAAAAAAAAAAAAAAAAAAAAAAAAAAAAAAAAAAAAAAAAAAAAAAAAAAAAAAAAAAAAAAAAAAAAAAAAAAAAAAAAAAAAAAAAAAAAAAAAAAAAAAAAAAAAAAAAAAAAAAAAAAAAAAAAAAAAAAAAAAAAAAAAAAA
      AAAAAAAAAAAAAAAAAAAAAAAAAAAAAAAAAAAAAAAAAAAAAAAAAAAAAAAAAAAAAAAAAAAAAAAAAAAAAAAAAAAAAAAAAAAAAAAAAAAAAAAAAAAAAAAAAAAAAAAAAAAAAAAAAAAAAAAAAAAAAAAAAAAAAAAAAAAAAAAAAAAAAAAAAAAAAAAAAAAAAAAAAAAAAAAAAAAAAAAAAAAAAAAAAAAAAAAAAAAAAAAAAAAAAAAAAAAAAAAAAAAAAAAAAAAAAAAAAAAAAAAAAAAAAAAAAAAAAAAA
      AAAAAAAAAAAAAAAAAAAAAAAAAAAAAAAAAAAAAAAAAAAAAAAAAAAAAAAAAAAAAAAAAAAAAAAAAAAAAAAAAAAAAAAAAAAAAAAAAAAAAAAAAAAAAAAAAAAAAAAAAAAAAAAAAAAAAAAAAAAAAAAAAABkAAQAAAAAAAAAAAAAAACAPwAAgD8AAAAAAACAQgAAAAAAAIBCAACAQwAAAAAAAAAAACAAAAAAAAAAAAAAZAAAAEAAAAAoAAAAAAAAAEAAAAAAAAAAAAAAAAAgAAAAAAAAAAAA
      AGQAAABAAAAAKAAAAAAAAABAAAAAAAAAAAAAAAAAIAAAAAAAAAAAAABkAAAAQAAAACgAAAAAAAAAQAAAAAAAAAAAAAAAACAAAAAAAAAAAAAAZAAAAEAAAAAoAAAAAAAAAEAAAAAAAAAAAAAAAAAgAAAAAAAAAAAAAGQAAABAAAAAKAAAAAAAAABAAAAAAAAAAAAAAAAAIAAAAAAAAAAAAABkAAAAQAAAACgAAAAAAAAAQAAAAAAAAAAAAAAAACAAAAAAAAAAAAAAZAAAAEAAAAAo
      AAAAAAAAAEAAAAAAAAAAAAAAAAAgAAAAAAAAAAAAAGQAAABAAAAAKAAAAAAAAABAAAAAAAAAAAAAAAAAIAAAAAAAAAAAAABkAAAAQAAAACgAAAAAAAAAQAAAAAAAAAAAAAAAACAAAAAAAAAAAAAAZAAAAEAAAAAoAAAAAAAAAEAAAAAAAAAAAAAAAAAgAAAAAAAAAAAAAGQAAABAAAAAKAAAAAAAAABAAAAAAAAAAAAAAAAAIAAAAAAAAAAAAABkAAAAQAAAACgAAAAAAAAAQAAA
      AAAAAAAAAAAAACAAAAAAAAAAAAAAZAAAAEAAAAAoAAAAAAAAAEAAAAAAAAAAAAAAAAAgAAAAAAAAAAAAAGQAAABAAAAAKAAAAAAAAABAAAAAAAAAAAAAAAAAIAAAAAAAAAAAAABkAAAAQAAAACgAAAAAAAAAQAAAAAAAAAAAAAAAACAAAAAAAAAAAAAAZAAAAEAAAAAoAAAAAAAAAEAAAAAAAAAAAAA=
      AEJhc3NNaWRpABAAAAA=
    >
    PRESETNAME BassMidi
    FLOATPOS 0 0 0 0
    WAK 0 0
  >
  <UINF 34
    WNDRECT 24 52 834 455
    SHOW 0
    LASTSEL 0
    DOCKED 0
  >
  <UINF 35
    WNDRECT 130 317 834 455
    SHOW 0
    LASTSEL 0
    DOCKED 0
  >
  <UINF 36
    WNDRECT 130 317 834 455
    SHOW 0
    LASTSEL 0
    DOCKED 0
  >
  <UINF 37
    WNDRECT 130 317 834 455
    SHOW 0
    LASTSEL 0
    DOCKED 0
  >
  <UINF 38
    UNDOSKIP
  >
  <UINF 39
    UNDOSKIP
  >
  <UINF 40
    UNDOSKIP
  >
  <UINF 41
    <MASTERPLAYSPEEDENV
      EGUID {8B8648D6-15FF-4BDF-9BEE-21D956A29FA7}
      ACT 0 -1
      VIS 0 1 1
      LANEHEIGHT 0 0
      ARM 0
      DEFSHAPE 0 -1 -1
    >
    <TEMPOENVEX
      EGUID {F9E5D750-A0D3-43FC-8819-D1A463FA8802}
      ACT 0 -1
      VIS 1 0 1
      LANEHEIGHT 0 0
      ARM 0
      DEFSHAPE 1 -1 -1
    >
  >
  <UINF 42
    <TRACK {C11D002C-F0F0-4D5E-9781-EDB846A46007}
      NAME "Beethoven - Fur Elise"
      PEAKCOL 33554431
      BEAT -1
      AUTOMODE 0
      VOLPAN 1 0 -1 -1 1
      MUTESOLO 1 0 0
      IPHASE 0
      PLAYOFFS 0 1
      ISBUS 1 1
      BUSCOMP 0 0 0 0 0
      SHOWINMIX 1 0.6667 0.5 1 0.5 -1 -1 -1
      REC 0 0 1 0 0 0 0 0
      VU 2
      TRACKHEIGHT 0 0 0 0 0 0
      INQ 0 0 0 0.5 100 0 0 100
      NCHAN 2
      FX 1
      TRACKID {C11D002C-F0F0-4D5E-9781-EDB846A46007}
      PERF 0
      UNDO_HAS_TRACKENV
      MIDIOUT -1
      MAINSEND 1 0
    >
  >
  <UINF 43
    <TRACK {901882B6-222A-4AD2-8F36-AD31D35BE5C2}
      NAME Original_Audio
      PEAKCOL 25132927
      BEAT -1
      AUTOMODE 0
      VOLPAN 1 0 -1 -1 1
      MUTESOLO 0 0 0
      IPHASE 0
      PLAYOFFS 0 1
      ISBUS 0 0
      BUSCOMP 0 0 0 0 0
      SHOWINMIX 1 0.6667 0.5 1 0.5 -1 -1 -1
      REC 0 0 1 0 0 0 0 0
      VU 2
      TRACKHEIGHT 0 0 0 0 0 0
      INQ 0 0 0 0.5 100 0 0 100
      NCHAN 2
      FX 0
      TRACKID {901882B6-222A-4AD2-8F36-AD31D35BE5C2}
      PERF 0
      UNDO_HAS_TRACKENV
      MIDIOUT -1
      MAINSEND 1 0
    >
  >
  <UINF 44
    <TRACK {29FF25DE-A2FB-49D1-912C-AE3DAC42DD4A}
      NAME MIDI
      PEAKCOL 16576
      BEAT -1
      AUTOMODE 0
      VOLPAN 1 0 -1 -1 1
      MUTESOLO 0 0 0
      IPHASE 0
      PLAYOFFS 0 1
      ISBUS 1 1
      BUSCOMP 0 0 0 0 0
      SHOWINMIX 1 0.6667 0.5 1 0.5 -1 -1 -1
      REC 0 0 1 0 0 0 0 0
      VU 2
      TRACKHEIGHT 0 0 0 0 0 0
      INQ 0 0 0 0.5 100 0 0 100
      NCHAN 2
      FX 1
      TRACKID {29FF25DE-A2FB-49D1-912C-AE3DAC42DD4A}
      PERF 0
      UNDO_HAS_TRACKENV
      MIDIOUT -1
      MAINSEND 1 0
    >
  >
  <UINF 45
    <TRACK {D3A472DB-9153-4446-91D3-9DB0525E5E4E}
      NAME "Spotify MIDI Transcription"
      PEAKCOL 16842496
      BEAT -1
      AUTOMODE 0
      VOLPAN 1 0 -1 -1 1
      MUTESOLO 0 0 0
      IPHASE 0
      PLAYOFFS 0 1
      ISBUS 0 0
      BUSCOMP 0 0 0 0 0
      SHOWINMIX 1 0.6667 0.5 1 0.5 -1 -1 -1
      REC 0 0 1 0 0 0 0 0
      VU 2
      TRACKHEIGHT 0 0 0 0 0 0
      INQ 0 0 0 0.5 100 0 0 100
      NCHAN 2
      FX 1
      TRACKID {D3A472DB-9153-4446-91D3-9DB0525E5E4E}
      PERF 0
      UNDO_HAS_TRACKENV
      MIDIOUT -1
      MAINSEND 1 0
    >
  >
  <UINF 46
    <TRACK {1D455C00-599A-4B56-BE14-CC1718C711D2}
      NAME "Nov06 MIDI Transcription"
      PEAKCOL 32334866
      BEAT -1
      AUTOMODE 0
      VOLPAN 1 0 -1 -1 1
      MUTESOLO 0 0 0
      IPHASE 0
      PLAYOFFS 0 1
      ISBUS 0 0
      BUSCOMP 0 0 0 0 0
      SHOWINMIX 1 0.6667 0.5 1 0.5 -1 -1 -1
      REC 0 0 1 0 0 0 0 0
      VU 2
      TRACKHEIGHT 0 0 0 0 0 0
      INQ 0 0 0 0.5 100 0 0 100
      NCHAN 2
      FX 1
      TRACKID {1D455C00-599A-4B56-BE14-CC1718C711D2}
      PERF 0
      UNDO_HAS_TRACKENV
      MIDIOUT -1
      MAINSEND 1 0
    >
  >
  <UINF 47
    <TRACK {05F4A8E4-720E-4786-89A1-083D393B8CED}
      NAME "Nov20_7 MIDI Transcription"
      PEAKCOL 32334866
      BEAT -1
      AUTOMODE 0
      VOLPAN 1 0 -1 -1 1
      MUTESOLO 0 0 0
      IPHASE 0
      PLAYOFFS 0 1
      ISBUS 0 0
      BUSCOMP 0 0 0 0 0
      SHOWINMIX 1 0.6667 0.5 1 0.5 -1 -1 -1
      REC 0 0 1 0 0 0 0 0
      VU 2
      TRACKHEIGHT 0 0 0 0 0 0
      INQ 0 0 0 0.5 100 0 0 100
      NCHAN 2
      FX 1
      TRACKID {05F4A8E4-720E-4786-89A1-083D393B8CED}
      PERF 0
      UNDO_HAS_TRACKENV
      MIDIOUT -1
      MAINSEND 1 0
    >
  >
  <UINF 48
    <TRACK {366EF5EC-5D90-41FC-99A1-C30B43BD3006}
      NAME "Nov26 (Preprocessed data)"
      PEAKCOL 32334866
      BEAT -1
      AUTOMODE 0
      VOLPAN 1 0 -1 -1 1
      MUTESOLO 0 0 0
      IPHASE 0
      PLAYOFFS 0 1
      ISBUS 0 0
      BUSCOMP 0 0 0 0 0
      SHOWINMIX 1 0.6667 0.5 1 0.5 -1 -1 -1
      REC 0 0 1 0 0 0 0 0
      VU 2
      TRACKHEIGHT 0 0 0 0 0 0
      INQ 0 0 0 0.5 100 0 0 100
      NCHAN 2
      FX 1
      TRACKID {366EF5EC-5D90-41FC-99A1-C30B43BD3006}
      PERF 0
      UNDO_HAS_TRACKENV
      MIDIOUT -1
      MAINSEND 1 0
    >
  >
  <UINF 49
    <TRACK {7C653324-610F-4400-817A-05859A1C709C}
      NAME "Nov26 (On-the-fly data)"
      PEAKCOL 32334866
      BEAT -1
      AUTOMODE 0
      VOLPAN 1 0 -1 -1 1
      MUTESOLO 0 0 0
      IPHASE 0
      PLAYOFFS 0 1
      ISBUS 2 -2
      BUSCOMP 0 0 0 0 0
      SHOWINMIX 1 0.6667 0.5 1 0.5 -1 -1 -1
      REC 0 0 1 0 0 0 0 0
      VU 2
      TRACKHEIGHT 0 0 0 0 0 0
      INQ 0 0 0 0.5 100 0 0 100
      NCHAN 2
      FX 1
      TRACKID {7C653324-610F-4400-817A-05859A1C709C}
      PERF 0
      UNDO_HAS_TRACKENV
      MIDIOUT -1
      MAINSEND 1 0
    >
  >
  <UINF 50
    <TRACK {A5678F31-C014-4D18-8F56-99370EBED686}
      NAME wii_music
      PEAKCOL 33554431
      BEAT -1
      AUTOMODE 0
      VOLPAN 1 0 -1 -1 1
      MUTESOLO 1 0 0
      IPHASE 0
      PLAYOFFS 0 1
      ISBUS 1 1
      BUSCOMP 0 0 0 0 0
      SHOWINMIX 1 0.6667 0.5 1 0.5 -1 -1 -1
      REC 0 0 1 0 0 0 0 0
      VU 2
      TRACKHEIGHT 0 0 0 0 0 0
      INQ 0 0 0 0.5 100 0 0 100
      NCHAN 2
      FX 1
      TRACKID {A5678F31-C014-4D18-8F56-99370EBED686}
      PERF 0
      UNDO_HAS_TRACKENV
      MIDIOUT -1
      MAINSEND 1 0
    >
  >
  <UINF 51
    <TRACK {58BDB1D7-016D-490B-8909-CB25FC3F5902}
      NAME Original_Audio
      PEAKCOL 25132927
      BEAT -1
      AUTOMODE 0
      VOLPAN 1 0 -1 -1 1
      MUTESOLO 0 0 0
      IPHASE 0
      PLAYOFFS 0 1
      ISBUS 0 0
      BUSCOMP 0 0 0 0 0
      SHOWINMIX 1 0.6667 0.5 1 0.5 -1 -1 -1
      REC 0 0 1 0 0 0 0 0
      VU 2
      TRACKHEIGHT 0 0 0 0 0 0
      INQ 0 0 0 0.5 100 0 0 100
      NCHAN 2
      FX 1
      TRACKID {58BDB1D7-016D-490B-8909-CB25FC3F5902}
      PERF 0
      UNDO_HAS_TRACKENV
      MIDIOUT -1
      MAINSEND 1 0
    >
  >
  <UINF 52
    <TRACK {8247C5DD-A0C3-4E00-A9C5-C6BC78D14ED9}
      NAME MIDI
      PEAKCOL 16576
      BEAT -1
      AUTOMODE 0
      VOLPAN 1 0 -1 -1 1
      MUTESOLO 0 0 0
      IPHASE 0
      PLAYOFFS 0 1
      ISBUS 1 1
      BUSCOMP 0 0 0 0 0
      SHOWINMIX 1 0.6667 0.5 1 0.5 -1 -1 -1
      REC 0 0 1 0 0 0 0 0
      VU 2
      TRACKHEIGHT 0 0 0 0 0 0
      INQ 0 0 0 0.5 100 0 0 100
      NCHAN 2
      FX 1
      TRACKID {8247C5DD-A0C3-4E00-A9C5-C6BC78D14ED9}
      PERF 0
      UNDO_HAS_TRACKENV
      MIDIOUT -1
      MAINSEND 1 0
    >
  >
  <UINF 53
    <TRACK {5847A0CA-FE18-400B-BE05-413CEF896DB8}
      NAME "Spotify MIDI Transcription"
      PEAKCOL 16842496
      BEAT -1
      AUTOMODE 0
      VOLPAN 1 0 -1 -1 1
      MUTESOLO 0 0 0
      IPHASE 0
      PLAYOFFS 0 1
      ISBUS 0 0
      BUSCOMP 0 0 0 0 0
      SHOWINMIX 1 0.6667 0.5 1 0.5 -1 -1 -1
      REC 0 0 1 0 0 0 0 0
      VU 2
      TRACKHEIGHT 0 0 0 0 0 0
      INQ 0 0 0 0.5 100 0 0 100
      NCHAN 2
      FX 1
      TRACKID {5847A0CA-FE18-400B-BE05-413CEF896DB8}
      PERF 0
      UNDO_HAS_TRACKENV
      MIDIOUT -1
      MAINSEND 1 0
    >
  >
  <UINF 54
    <TRACK {786E2DFD-D52E-474E-80B4-C9EA4B4F8F49}
      NAME "Nov06 MIDI Transcription"
      PEAKCOL 32334866
      BEAT -1
      AUTOMODE 0
      VOLPAN 1 0 -1 -1 1
      MUTESOLO 0 0 0
      IPHASE 0
      PLAYOFFS 0 1
      ISBUS 0 0
      BUSCOMP 0 0 0 0 0
      SHOWINMIX 1 0.6667 0.5 1 0.5 -1 -1 -1
      REC 0 0 1 0 0 0 0 0
      VU 2
      TRACKHEIGHT 0 0 0 0 0 0
      INQ 0 0 0 0.5 100 0 0 100
      NCHAN 2
      FX 1
      TRACKID {786E2DFD-D52E-474E-80B4-C9EA4B4F8F49}
      PERF 0
      UNDO_HAS_TRACKENV
      MIDIOUT -1
      MAINSEND 1 0
    >
  >
  <UINF 55
    <TRACK {374BB5AA-8B32-4B1F-904F-0CF7524030C8}
      NAME "Nov20_7 MIDI Transcription"
      PEAKCOL 32334866
      BEAT -1
      AUTOMODE 0
      VOLPAN 1 0 -1 -1 1
      MUTESOLO 0 0 0
      IPHASE 0
      PLAYOFFS 0 1
      ISBUS 0 0
      BUSCOMP 0 0 0 0 0
      SHOWINMIX 1 0.6667 0.5 1 0.5 -1 -1 -1
      REC 0 0 1 0 0 0 0 0
      VU 2
      TRACKHEIGHT 0 0 0 0 0 0
      INQ 0 0 0 0.5 100 0 0 100
      NCHAN 2
      FX 1
      TRACKID {374BB5AA-8B32-4B1F-904F-0CF7524030C8}
      PERF 0
      UNDO_HAS_TRACKENV
      MIDIOUT -1
      MAINSEND 1 0
    >
  >
  <UINF 56
    <TRACK {6390B51A-B19F-4B03-B559-469D91379CDD}
      NAME "Nov26 (Preprocessed data)"
      PEAKCOL 32334866
      BEAT -1
      AUTOMODE 0
      VOLPAN 1 0 -1 -1 1
      MUTESOLO 0 0 0
      IPHASE 0
      PLAYOFFS 0 1
      ISBUS 0 0
      BUSCOMP 0 0 0 0 0
      SHOWINMIX 1 0.6667 0.5 1 0.5 -1 -1 -1
      REC 0 0 1 0 0 0 0 0
      VU 2
      TRACKHEIGHT 0 0 0 0 0 0
      INQ 0 0 0 0.5 100 0 0 100
      NCHAN 2
      FX 1
      TRACKID {6390B51A-B19F-4B03-B559-469D91379CDD}
      PERF 0
      UNDO_HAS_TRACKENV
      MIDIOUT -1
      MAINSEND 1 0
    >
  >
  <UINF 57
    <TRACK {5B159F1A-7CFA-40EB-9485-292B08785429}
      NAME "Nov26 (On-the-fly data)"
      PEAKCOL 32334866
      BEAT -1
      AUTOMODE 0
      VOLPAN 1 0 -1 -1 1
      MUTESOLO 0 0 0
      IPHASE 0
      PLAYOFFS 0 1
      ISBUS 2 -2
      BUSCOMP 0 0 0 0 0
      SHOWINMIX 1 0.6667 0.5 1 0.5 -1 -1 -1
      REC 0 0 1 0 0 0 0 0
      VU 2
      TRACKHEIGHT 0 0 0 0 0 0
      INQ 0 0 0 0.5 100 0 0 100
      NCHAN 2
      FX 1
      TRACKID {5B159F1A-7CFA-40EB-9485-292B08785429}
      PERF 0
      UNDO_HAS_TRACKENV
      MIDIOUT -1
      MAINSEND 1 0
    >
  >
  <UINF 58
    <TRACK {1BF2D52A-E1A6-420A-AECA-267DE1ED5B3B}
      NAME "Training Dataset Song"
      PEAKCOL 33554431
      BEAT -1
      AUTOMODE 0
      VOLPAN 1 0 -1 -1 1
      MUTESOLO 1 0 0
      IPHASE 0
      PLAYOFFS 0 1
      ISBUS 1 1
      BUSCOMP 0 0 0 0 0
      SHOWINMIX 1 0.6667 0.5 1 0.5 -1 -1 -1
      REC 0 0 1 0 0 0 0 0
      VU 2
      TRACKHEIGHT 0 0 0 0 0 0
      INQ 0 0 0 0.5 100 0 0 100
      NCHAN 2
      FX 1
      TRACKID {1BF2D52A-E1A6-420A-AECA-267DE1ED5B3B}
      PERF 0
      UNDO_HAS_TRACKENV
      MIDIOUT -1
      MAINSEND 1 0
    >
  >
  <UINF 59
    <TRACK {B317100A-A6B9-4648-88BF-3212AA6B1FD2}
      NAME "Original Audio"
      PEAKCOL 29409472
      BEAT -1
      AUTOMODE 0
      VOLPAN 1 0 -1 -1 1
      MUTESOLO 0 0 0
      IPHASE 0
      PLAYOFFS 0 1
      ISBUS 0 0
      BUSCOMP 0 0 0 0 0
      SHOWINMIX 1 0.6667 0.5 1 0.5 -1 -1 -1
      REC 0 0 1 0 0 0 0 0
      VU 2
      TRACKHEIGHT 0 0 0 0 0 0
      INQ 0 0 0 0.5 100 0 0 100
      NCHAN 2
      FX 1
      TRACKID {B317100A-A6B9-4648-88BF-3212AA6B1FD2}
      PERF 0
      UNDO_HAS_TRACKENV
      MIDIOUT -1
      MAINSEND 1 0
    >
  >
  <UINF 60
    <TRACK {FD9B8323-7CD4-4642-BFC4-69A2271C393E}
      NAME MIDI
      PEAKCOL 16576
      BEAT -1
      AUTOMODE 0
      VOLPAN 1 0 -1 -1 1
      MUTESOLO 0 0 0
      IPHASE 0
      PLAYOFFS 0 1
      ISBUS 1 1
      BUSCOMP 0 0 0 0 0
      SHOWINMIX 1 0.6667 0.5 1 0.5 -1 -1 -1
      REC 0 0 1 0 0 0 0 0
      VU 2
      TRACKHEIGHT 0 0 0 0 0 0
      INQ 0 0 0 0.5 100 0 0 100
      NCHAN 2
      FX 1
      TRACKID {FD9B8323-7CD4-4642-BFC4-69A2271C393E}
      PERF 0
      UNDO_HAS_TRACKENV
      MIDIOUT -1
      MAINSEND 1 0
    >
  >
  <UINF 61
    <TRACK {BA582802-FFA8-48A1-8011-E2F1FE5F4FC5}
      NAME "Spotify MIDI Transcription"
      PEAKCOL 16842496
      BEAT -1
      AUTOMODE 0
      VOLPAN 1 0 -1 -1 1
      MUTESOLO 0 0 0
      IPHASE 0
      PLAYOFFS 0 1
      ISBUS 0 0
      BUSCOMP 0 0 0 0 0
      SHOWINMIX 1 0.6667 0.5 1 0.5 -1 -1 -1
      REC 0 0 1 0 0 0 0 0
      VU 2
      TRACKHEIGHT 0 0 0 0 0 0
      INQ 0 0 0 0.5 100 0 0 100
      NCHAN 2
      FX 1
      TRACKID {BA582802-FFA8-48A1-8011-E2F1FE5F4FC5}
      PERF 0
      UNDO_HAS_TRACKENV
      MIDIOUT -1
      MAINSEND 1 0
    >
  >
  <UINF 62
    <TRACK {9B7BC0D9-8E1A-4A39-917E-F9AB8A189698}
      NAME "Nov20_7 MIDI Transcription"
      PEAKCOL 32334866
      BEAT -1
      AUTOMODE 0
      VOLPAN 1 0 -1 -1 1
      MUTESOLO 0 0 0
      IPHASE 0
      PLAYOFFS 0 1
      ISBUS 0 0
      BUSCOMP 0 0 0 0 0
      SHOWINMIX 1 0.6667 0.5 1 0.5 -1 -1 -1
      REC 0 0 1 0 0 0 0 0
      VU 2
      TRACKHEIGHT 0 0 0 0 0 0
      INQ 0 0 0 0.5 100 0 0 100
      NCHAN 2
      FX 1
      TRACKID {9B7BC0D9-8E1A-4A39-917E-F9AB8A189698}
      PERF 0
      UNDO_HAS_TRACKENV
      MIDIOUT -1
      MAINSEND 1 0
    >
  >
  <UINF 63
    <TRACK {2E9E266A-8C84-49CF-91D6-A4D281474AFB}
      NAME "Nov26 (Preprocessed data)"
      PEAKCOL 32334866
      BEAT -1
      AUTOMODE 0
      VOLPAN 1 0 -1 -1 1
      MUTESOLO 0 0 0
      IPHASE 0
      PLAYOFFS 0 1
      ISBUS 0 0
      BUSCOMP 0 0 0 0 0
      SHOWINMIX 1 0.6667 0.5 1 0.5 -1 -1 -1
      REC 0 0 1 0 0 0 0 0
      VU 2
      TRACKHEIGHT 0 0 0 0 0 0
      INQ 0 0 0 0.5 100 0 0 100
      NCHAN 2
      FX 1
      TRACKID {2E9E266A-8C84-49CF-91D6-A4D281474AFB}
      PERF 0
      UNDO_HAS_TRACKENV
      MIDIOUT -1
      MAINSEND 1 0
    >
  >
  <UINF 64
    <TRACK {33CCFD28-1698-435D-98B7-23680E5E8E37}
      NAME "Nov26 (On-the-fly data)"
      PEAKCOL 32334866
      BEAT -1
      AUTOMODE 0
      VOLPAN 1 0 -1 -1 1
      MUTESOLO 0 0 0
      IPHASE 0
      PLAYOFFS 0 1
      ISBUS 2 -2
      BUSCOMP 0 0 0 0 0
      SHOWINMIX 1 0.6667 0.5 1 0.5 -1 -1 -1
      REC 0 0 1 0 0 0 0 0
      VU 2
      TRACKHEIGHT 0 0 0 0 0 0
      INQ 0 0 0 0.5 100 0 0 100
      NCHAN 2
      FX 1
      TRACKID {33CCFD28-1698-435D-98B7-23680E5E8E37}
      PERF 0
      UNDO_HAS_TRACKENV
      MIDIOUT -1
      MAINSEND 1 0
    >
  >
  <UINF 65
    <TRACK {29FF25DE-A2FB-49D1-912C-AE3DAC42DD4A}
      NAME MIDI
      PEAKCOL 16777216
      BEAT -1
      AUTOMODE 0
      VOLPAN 1 0 -1 -1 1
      MUTESOLO 0 0 0
      IPHASE 0
      PLAYOFFS 0 1
      ISBUS 1 1
      BUSCOMP 0 0 0 0 0
      SHOWINMIX 1 0.6667 0.5 1 0.5 -1 -1 -1
      REC 0 0 1 0 0 0 0 0
      VU 2
      TRACKHEIGHT 0 0 0 0 0 0
      INQ 0 0 0 0.5 100 0 0 100
      NCHAN 2
      FX 1
      TRACKID {29FF25DE-A2FB-49D1-912C-AE3DAC42DD4A}
      PERF 0
      UNDO_HAS_TRACKENV
      MIDIOUT -1
      MAINSEND 1 0
    >
  >
  <UINF 66
    <TRACK {8247C5DD-A0C3-4E00-A9C5-C6BC78D14ED9}
      NAME MIDI
      PEAKCOL 20446738
      BEAT -1
      AUTOMODE 0
      VOLPAN 1 0 -1 -1 1
      MUTESOLO 0 0 0
      IPHASE 0
      PLAYOFFS 0 1
      ISBUS 1 1
      BUSCOMP 0 0 0 0 0
      SHOWINMIX 1 0.6667 0.5 1 0.5 -1 -1 -1
      REC 0 0 1 0 0 0 0 0
      VU 2
      TRACKHEIGHT 0 0 0 0 0 0
      INQ 0 0 0 0.5 100 0 0 100
      NCHAN 2
      FX 1
      TRACKID {8247C5DD-A0C3-4E00-A9C5-C6BC78D14ED9}
      PERF 0
      UNDO_HAS_TRACKENV
      MIDIOUT -1
      MAINSEND 1 0
    >
  >
  <UINF 67
    <TRACK {FD9B8323-7CD4-4642-BFC4-69A2271C393E}
      NAME MIDI
      PEAKCOL 17447503
      BEAT -1
      AUTOMODE 0
      VOLPAN 1 0 -1 -1 1
      MUTESOLO 0 0 0
      IPHASE 0
      PLAYOFFS 0 1
      ISBUS 1 1
      BUSCOMP 0 0 0 0 0
      SHOWINMIX 1 0.6667 0.5 1 0.5 -1 -1 -1
      REC 0 0 1 0 0 0 0 0
      VU 2
      TRACKHEIGHT 0 0 0 0 0 0
      INQ 0 0 0 0.5 100 0 0 100
      NCHAN 2
      FX 1
      TRACKID {FD9B8323-7CD4-4642-BFC4-69A2271C393E}
      PERF 0
      UNDO_HAS_TRACKENV
      MIDIOUT -1
      MAINSEND 1 0
    >
  >
  <UINF 68
    <TRACK {FD9B8323-7CD4-4642-BFC4-69A2271C393E}
      NAME MIDI
      PEAKCOL 16777216
      BEAT -1
      AUTOMODE 0
      VOLPAN 1 0 -1 -1 1
      MUTESOLO 0 0 0
      IPHASE 0
      PLAYOFFS 0 1
      ISBUS 1 1
      BUSCOMP 0 0 0 0 0
      SHOWINMIX 1 0.6667 0.5 1 0.5 -1 -1 -1
      REC 0 0 1 0 0 0 0 0
      VU 2
      TRACKHEIGHT 0 0 0 0 0 0
      INQ 0 0 0 0.5 100 0 0 100
      NCHAN 2
      FX 1
      TRACKID {FD9B8323-7CD4-4642-BFC4-69A2271C393E}
      PERF 0
      UNDO_HAS_TRACKENV
      MIDIOUT -1
      MAINSEND 1 0
    >
  >
  <UINF 69
    <TRACK {8247C5DD-A0C3-4E00-A9C5-C6BC78D14ED9}
      NAME MIDI
      PEAKCOL 16777216
      BEAT -1
      AUTOMODE 0
      VOLPAN 1 0 -1 -1 1
      MUTESOLO 0 0 0
      IPHASE 0
      PLAYOFFS 0 1
      ISBUS 1 1
      BUSCOMP 0 0 0 0 0
      SHOWINMIX 1 0.6667 0.5 1 0.5 -1 -1 -1
      REC 0 0 1 0 0 0 0 0
      VU 2
      TRACKHEIGHT 0 0 0 0 0 0
      INQ 0 0 0 0.5 100 0 0 100
      NCHAN 2
      FX 1
      TRACKID {8247C5DD-A0C3-4E00-A9C5-C6BC78D14ED9}
      PERF 0
      UNDO_HAS_TRACKENV
      MIDIOUT -1
      MAINSEND 1 0
    >
  >
  <UINF 70
    WNDRECT 23 51 855 480
    SHOW 1
    LASTSEL 0
    DOCKED 0
    BYPASS 0 0 0
    FXID_NEXT {59687D35-B611-40B4-B0CD-E8EA785922A6}
    <VST "VSTi: BassMidiVsti (Falcosoft)" BassMidiVsti.dll 0 "" 1112755524<56535442534D44626173736D69646976> ""
      RE1TQu5e7f4AAAAAAgAAAAEAAAAAAAAAAgAAAAAAAAD1DAAAAQAAAAAAEAA=
      QwA6AFwAVQBzAGUAcgBzAFwAQQBsAGUAeABcAEQAbwBjAHUAbQBlAG4AdABzAFwARQBzAHMAZQBuAHQAaQBhAGwAIABLAGUAeQBzAC0AcwBmAHoAQgBhAG4AawBzAC0AdgA5AC4ANgAuAHMAZgAyAAAAAAAAAAAAAAAAAAAAAAAAAAAAAAAAAAAAAAAAAAAAAAAAAAAAAAAAAAAAAAAAAAAAAAAAAAAAAAAAAAAAAAAAAAAAAAAAAAAAAAAAAAAAAAAAAAAAAAAAAAAAAAAAAAAA
      AAAAAAAAAAAAAAAAAAAAAAAAAAAAAAAAAAAAAAAAAAAAAAAAAAAAAAAAAAAAAAAAAAAAAAAAAAAAAAAAAAAAAAAAAAAAAAAAAAAAAAAAAAAAAAAAAAAAAAAAAAAAAAAAAAAAAAAAAAAAAAAAAAAAAAAAAAAAAAAAAAAAAAAAAAAAAAAAAAAAAAAAAAAAAAAAAAAAAAAAAAAAAAAAAAAAAAAAAAAAAAAAAAAAAAAAAAAAAAAAAAAAAAAAAAAAAAAAAAAAAAAAAAAAAAAAAAAAAAAA
      AAAAAAAAAAAAAAAAAAAAAAAAAAAAAAAAAAAAAAAAAAAAAAAAAAAAAAAAAAAAAAAAAAAAAAAAAAAAAAAAAAAAAAAAAAAAAAAAAAAAAAAAAAAAAAAAAAAAAAAAAAAAAAAAAAAAAAAAZAAAAAAAAAAAAAAAAAAAAAAAAAAAAAAAAAAAAAAAAAAAAAAAAAAAAAAAAAAAAAAAAAAAAAAAAAAAAAAAAAAAAAAAAAAAAAAAAAAAAAAAAAAAAAAAAAAAAAAAAAAAAAAAAAAAAAAAAAAAAAAA
      AAAAAAAAAAAAAAAAAAAAAAAAAAAAAAAAAAAAAAAAAAAAAAAAAAAAAAAAAAAAAAAAAAAAAAAAAAAAAAAAAAAAAAAAAAAAAAAAAAAAAAAAAAAAAAAAAAAAAAAAAAAAAAAAAAAAAAAAAAAAAAAAAAAAAAAAAAAAAAAAAAAAAAAAAAAAAAAAAAAAAAAAAAAAAAAAAAAAAAAAAAAAAAAAAAAAAAAAAAAAAAAAAAAAAAAAAAAAAAAAAAAAAAAAAAAAAAAAAAAAAAAAAAAAAAAAAAAAAAAA
      AAAAAAAAAAAAAAAAAAAAAAAAAAAAAAAAAAAAAAAAAAAAAAAAAAAAAAAAAAAAAAAAAAAAAAAAAAAAAAAAAAAAAAAAAAAAAAAAAAAAAAAAAAAAAAAAAAAAAAAAAAAAAAAAAAAAAAAAAAAAAAAAAAAAAAAAAAAAAAAAAAAAAAAAAAAAAAAAAAAAAAAAAAAAAAAAAAAAAAAAAAAAAAAAAAAAAAAAAAAAAAAAAAAAAAAAAAAAAAAAAAAAAAAAAAAAAAAAAAAAAAAAAAAAAAAAAAAAAABk
      AAEAAAAAAAAAAAAAAAAAAAAAAAAAAAAAAAAAAAAAAAAAAAAAAAAAAAAAAAAAAAAAAAAAAAAAAAAAAAAAAAAAAAAAAAAAAAAAAAAAAAAAAAAAAAAAAAAAAAAAAAAAAAAAAAAAAAAAAAAAAAAAAAAAAAAAAAAAAAAAAAAAAAAAAAAAAAAAAAAAAAAAAAAAAAAAAAAAAAAAAAAAAAAAAAAAAAAAAAAAAAAAAAAAAAAAAAAAAAAAAAAAAAAAAAAAAAAAAAAAAAAAAAAAAAAAAAAAAAAA
      AAAAAAAAAAAAAAAAAAAAAAAAAAAAAAAAAAAAAAAAAAAAAAAAAAAAAAAAAAAAAAAAAAAAAAAAAAAAAAAAAAAAAAAAAAAAAAAAAAAAAAAAAAAAAAAAAAAAAAAAAAAAAAAAAAAAAAAAAAAAAAAAAAAAAAAAAAAAAAAAAAAAAAAAAAAAAAAAAAAAAAAAAAAAAAAAAAAAAAAAAAAAAAAAAAAAAAAAAAAAAAAAAAAAAAAAAAAAAAAAAAAAAAAAAAAAAAAAAAAAAAAAAAAAAAAAAAAAAAAA
      AAAAAAAAAAAAAAAAAAAAAAAAAAAAAAAAAAAAAAAAAAAAAAAAAAAAAAAAAAAAAAAAAAAAAAAAAAAAAAAAAAAAAAAAAAAAAAAAAAAAAAAAAAAAAAAAAAAAAAAAAAAAAAAAAAAAAAAAAAAAAGQAAgAAAAAAAAAAAAAAAAAAAAAAAAAAAAAAAAAAAAAAAAAAAAAAAAAAAAAAAAAAAAAAAAAAAAAAAAAAAAAAAAAAAAAAAAAAAAAAAAAAAAAAAAAAAAAAAAAAAAAAAAAAAAAAAAAAAAAA
      AAAAAAAAAAAAAAAAAAAAAAAAAAAAAAAAAAAAAAAAAAAAAAAAAAAAAAAAAAAAAAAAAAAAAAAAAAAAAAAAAAAAAAAAAAAAAAAAAAAAAAAAAAAAAAAAAAAAAAAAAAAAAAAAAAAAAAAAAAAAAAAAAAAAAAAAAAAAAAAAAAAAAAAAAAAAAAAAAAAAAAAAAAAAAAAAAAAAAAAAAAAAAAAAAAAAAAAAAAAAAAAAAAAAAAAAAAAAAAAAAAAAAAAAAAAAAAAAAAAAAAAAAAAAAAAAAAAAAAAA
      AAAAAAAAAAAAAAAAAAAAAAAAAAAAAAAAAAAAAAAAAAAAAAAAAAAAAAAAAAAAAAAAAAAAAAAAAAAAAAAAAAAAAAAAAAAAAAAAAAAAAAAAAAAAAAAAAAAAAAAAAAAAAAAAAAAAAAAAAAAAAAAAAAAAAAAAAAAAAAAAAAAAAAAAAAAAAAAAAAAAAAAAAAAAAAAAAAAAAAAAAAAAAAAAAAAAAAAAAAAAAAAAAAAAAAAAAAAAAAAAAAAAAAAAAAAAAAAAAAAAAAAAAAAAAAAAAAAAAAAA
      AAAAZAADAAAAAAAAAAAAAAAAAAAAAAAAAAAAAAAAAAAAAAAAAAAAAAAAAAAAAAAAAAAAAAAAAAAAAAAAAAAAAAAAAAAAAAAAAAAAAAAAAAAAAAAAAAAAAAAAAAAAAAAAAAAAAAAAAAAAAAAAAAAAAAAAAAAAAAAAAAAAAAAAAAAAAAAAAAAAAAAAAAAAAAAAAAAAAAAAAAAAAAAAAAAAAAAAAAAAAAAAAAAAAAAAAAAAAAAAAAAAAAAAAAAAAAAAAAAAAAAAAAAAAAAAAAAAAAAA
      AAAAAAAAAAAAAAAAAAAAAAAAAAAAAAAAAAAAAAAAAAAAAAAAAAAAAAAAAAAAAAAAAAAAAAAAAAAAAAAAAAAAAAAAAAAAAAAAAAAAAAAAAAAAAAAAAAAAAAAAAAAAAAAAAAAAAAAAAAAAAAAAAAAAAAAAAAAAAAAAAAAAAAAAAAAAAAAAAAAAAAAAAAAAAAAAAAAAAAAAAAAAAAAAAAAAAAAAAAAAAAAAAAAAAAAAAAAAAAAAAAAAAAAAAAAAAAAAAAAAAAAAAAAAAAAAAAAAAAAA
      AAAAAAAAAAAAAAAAAAAAAAAAAAAAAAAAAAAAAAAAAAAAAAAAAAAAAAAAAAAAAAAAAAAAAAAAAAAAAAAAAAAAAAAAAAAAAAAAAAAAAAAAAAAAAAAAAAAAAAAAAAAAAAAAAAAAAAAAAAAAAAAAAABkAAQAAAAAAAAAAAAAAACAPwAAgD8AAAAAAACAQgAAAAAAAIBCAACAQwAAAAAAAAAAACAAAAAAAAAAAAAAZAAAAEAAAAAoAAAAAAAAAEAAAAAAAAAAAAAAAAAgAAAAAAAAAAAA
      AGQAAABAAAAAKAAAAAAAAABAAAAAAAAAAAAAAAAAIAAAAAAAAAAAAABkAAAAQAAAACgAAAAAAAAAQAAAAAAAAAAAAAAAACAAAAAAAAAAAAAAZAAAAEAAAAAoAAAAAAAAAEAAAAAAAAAAAAAAAAAgAAAAAAAAAAAAAGQAAABAAAAAKAAAAAAAAABAAAAAAAAAAAAAAAAAIAAAAAAAAAAAAABkAAAAQAAAACgAAAAAAAAAQAAAAAAAAAAAAAAAACAAAAAAAAAAAAAAZAAAAEAAAAAo
      AAAAAAAAAEAAAAAAAAAAAAAAAAAgAAAAAAAAAAAAAGQAAABAAAAAKAAAAAAAAABAAAAAAAAAAAAAAAAAIAAAAAAAAAAAAABkAAAAQAAAACgAAAAAAAAAQAAAAAAAAAAAAAAAACAAAAAAAAAAAAAAZAAAAEAAAAAoAAAAAAAAAEAAAAAAAAAAAAAAAAAgAAAAAAAAAAAAAGQAAABAAAAAKAAAAAAAAABAAAAAAAAAAAAAAAAAIAAAAAAAAAAAAABkAAAAQAAAACgAAAAAAAAAQAAA
      AAAAAAAAAAAAACAAAAAAAAAAAAAAZAAAAEAAAAAoAAAAAAAAAEAAAAAAAAAAAAAAAAAgAAAAAAAAAAAAAGQAAABAAAAAKAAAAAAAAABAAAAAAAAAAAAAAAAAIAAAAAAAAAAAAABkAAAAQAAAACgAAAAAAAAAQAAAAAAAAAAAAAAAACAAAAAAAAAAAAAAZAAAAEAAAAAoAAAAAAAAAEAAAAAAAAAAAAA=
      AEJhc3NNaWRpABAAAAA=
    >
    PRESETNAME BassMidi
    FLOATPOS 0 0 0 0
    WAK 0 0
  >
  <UINF 71
    WNDRECT 23 51 855 480
    SHOW 1
    LASTSEL 0
    DOCKED 0
    BYPASS 0 0 0
    FXID_NEXT {59687D35-B611-40B4-B0CD-E8EA785922A6}
    <VST "VSTi: BassMidiVsti (Falcosoft)" BassMidiVsti.dll 0 "" 1112755524<56535442534D44626173736D69646976> ""
      RE1TQu5e7f4AAAAAAgAAAAEAAAAAAAAAAgAAAAAAAAD1DAAAAQAAAAAAEAA=
      RwA6AFwATQB5ACAARAByAGkAdgBlAFwATQB1AHMAaQBjACAAUAByAG8AZAB1AGMAdABpAG8AbgBcAFMAbwB1AG4AZABmAG8AbgB0AHMAXABFAHMAcwBlAG4AdABpAGEAbAAgAEsAZQB5AHMALQBzAGYAegBCAGEAbgBrAHMALQB2ADkALgA2AC4AcwBmADIAAAAAAAAAAAAAAAAAAAAAAAAAAAAAAAAAAAAAAAAAAAAAAAAAAAAAAAAAAAAAAAAAAAAAAAAAAAAAAAAAAAAAAAAA
      AAAAAAAAAAAAAAAAAAAAAAAAAAAAAAAAAAAAAAAAAAAAAAAAAAAAAAAAAAAAAAAAAAAAAAAAAAAAAAAAAAAAAAAAAAAAAAAAAAAAAAAAAAAAAAAAAAAAAAAAAAAAAAAAAAAAAAAAAAAAAAAAAAAAAAAAAAAAAAAAAAAAAAAAAAAAAAAAAAAAAAAAAAAAAAAAAAAAAAAAAAAAAAAAAAAAAAAAAAAAAAAAAAAAAAAAAAAAAAAAAAAAAAAAAAAAAAAAAAAAAAAAAAAAAAAAAAAAAAAA
      AAAAAAAAAAAAAAAAAAAAAAAAAAAAAAAAAAAAAAAAAAAAAAAAAAAAAAAAAAAAAAAAAAAAAAAAAAAAAAAAAAAAAAAAAAAAAAAAAAAAAAAAAAAAAAAAAAAAAAAAAAAAAAAAAAAAAAAAZAAAAAEAAAAAAAAAAAAAAAAAAAAAAAAAAAAAAAAAAAAAAAAAAAAAAAAAAAAAAAAAAAAAAAAAAAAAAAAAAAAAAAAAAAAAAAAAAAAAAAAAAAAAAAAAAAAAAAAAAAAAAAAAAAAAAAAAAAAAAAAA
      AAAAAAAAAAAAAAAAAAAAAAAAAAAAAAAAAAAAAAAAAAAAAAAAAAAAAAAAAAAAAAAAAAAAAAAAAAAAAAAAAAAAAAAAAAAAAAAAAAAAAAAAAAAAAAAAAAAAAAAAAAAAAAAAAAAAAAAAAAAAAAAAAAAAAAAAAAAAAAAAAAAAAAAAAAAAAAAAAAAAAAAAAAAAAAAAAAAAAAAAAAAAAAAAAAAAAAAAAAAAAAAAAAAAAAAAAAAAAAAAAAAAAAAAAAAAAAAAAAAAAAAAAAAAAAAAAAAAAAAA
      AAAAAAAAAAAAAAAAAAAAAAAAAAAAAAAAAAAAAAAAAAAAAAAAAAAAAAAAAAAAAAAAAAAAAAAAAAAAAAAAAAAAAAAAAAAAAAAAAAAAAAAAAAAAAAAAAAAAAAAAAAAAAAAAAAAAAAAAAAAAAAAAAAAAAAAAAAAAAAAAAAAAAAAAAAAAAAAAAAAAAAAAAAAAAAAAAAAAAAAAAAAAAAAAAAAAAAAAAAAAAAAAAAAAAAAAAAAAAAAAAAAAAAAAAAAAAAAAAAAAAAAAAAAAAAAAAAAAAABk
      AAEAAAAAAAAAAAAAAAAAAAAAAAAAAAAAAAAAAAAAAAAAAAAAAAAAAAAAAAAAAAAAAAAAAAAAAAAAAAAAAAAAAAAAAAAAAAAAAAAAAAAAAAAAAAAAAAAAAAAAAAAAAAAAAAAAAAAAAAAAAAAAAAAAAAAAAAAAAAAAAAAAAAAAAAAAAAAAAAAAAAAAAAAAAAAAAAAAAAAAAAAAAAAAAAAAAAAAAAAAAAAAAAAAAAAAAAAAAAAAAAAAAAAAAAAAAAAAAAAAAAAAAAAAAAAAAAAAAAAA
      AAAAAAAAAAAAAAAAAAAAAAAAAAAAAAAAAAAAAAAAAAAAAAAAAAAAAAAAAAAAAAAAAAAAAAAAAAAAAAAAAAAAAAAAAAAAAAAAAAAAAAAAAAAAAAAAAAAAAAAAAAAAAAAAAAAAAAAAAAAAAAAAAAAAAAAAAAAAAAAAAAAAAAAAAAAAAAAAAAAAAAAAAAAAAAAAAAAAAAAAAAAAAAAAAAAAAAAAAAAAAAAAAAAAAAAAAAAAAAAAAAAAAAAAAAAAAAAAAAAAAAAAAAAAAAAAAAAAAAAA
      AAAAAAAAAAAAAAAAAAAAAAAAAAAAAAAAAAAAAAAAAAAAAAAAAAAAAAAAAAAAAAAAAAAAAAAAAAAAAAAAAAAAAAAAAAAAAAAAAAAAAAAAAAAAAAAAAAAAAAAAAAAAAAAAAAAAAAAAAAAAAGQAAgAAAAAAAAAAAAAAAAAAAAAAAAAAAAAAAAAAAAAAAAAAAAAAAAAAAAAAAAAAAAAAAAAAAAAAAAAAAAAAAAAAAAAAAAAAAAAAAAAAAAAAAAAAAAAAAAAAAAAAAAAAAAAAAAAAAAAA
      AAAAAAAAAAAAAAAAAAAAAAAAAAAAAAAAAAAAAAAAAAAAAAAAAAAAAAAAAAAAAAAAAAAAAAAAAAAAAAAAAAAAAAAAAAAAAAAAAAAAAAAAAAAAAAAAAAAAAAAAAAAAAAAAAAAAAAAAAAAAAAAAAAAAAAAAAAAAAAAAAAAAAAAAAAAAAAAAAAAAAAAAAAAAAAAAAAAAAAAAAAAAAAAAAAAAAAAAAAAAAAAAAAAAAAAAAAAAAAAAAAAAAAAAAAAAAAAAAAAAAAAAAAAAAAAAAAAAAAAA
      AAAAAAAAAAAAAAAAAAAAAAAAAAAAAAAAAAAAAAAAAAAAAAAAAAAAAAAAAAAAAAAAAAAAAAAAAAAAAAAAAAAAAAAAAAAAAAAAAAAAAAAAAAAAAAAAAAAAAAAAAAAAAAAAAAAAAAAAAAAAAAAAAAAAAAAAAAAAAAAAAAAAAAAAAAAAAAAAAAAAAAAAAAAAAAAAAAAAAAAAAAAAAAAAAAAAAAAAAAAAAAAAAAAAAAAAAAAAAAAAAAAAAAAAAAAAAAAAAAAAAAAAAAAAAAAAAAAAAAAA
      AAAAZAADAAAAAAAAAAAAAAAAAAAAAAAAAAAAAAAAAAAAAAAAAAAAAAAAAAAAAAAAAAAAAAAAAAAAAAAAAAAAAAAAAAAAAAAAAAAAAAAAAAAAAAAAAAAAAAAAAAAAAAAAAAAAAAAAAAAAAAAAAAAAAAAAAAAAAAAAAAAAAAAAAAAAAAAAAAAAAAAAAAAAAAAAAAAAAAAAAAAAAAAAAAAAAAAAAAAAAAAAAAAAAAAAAAAAAAAAAAAAAAAAAAAAAAAAAAAAAAAAAAAAAAAAAAAAAAAA
      AAAAAAAAAAAAAAAAAAAAAAAAAAAAAAAAAAAAAAAAAAAAAAAAAAAAAAAAAAAAAAAAAAAAAAAAAAAAAAAAAAAAAAAAAAAAAAAAAAAAAAAAAAAAAAAAAAAAAAAAAAAAAAAAAAAAAAAAAAAAAAAAAAAAAAAAAAAAAAAAAAAAAAAAAAAAAAAAAAAAAAAAAAAAAAAAAAAAAAAAAAAAAAAAAAAAAAAAAAAAAAAAAAAAAAAAAAAAAAAAAAAAAAAAAAAAAAAAAAAAAAAAAAAAAAAAAAAAAAAA
      AAAAAAAAAAAAAAAAAAAAAAAAAAAAAAAAAAAAAAAAAAAAAAAAAAAAAAAAAAAAAAAAAAAAAAAAAAAAAAAAAAAAAAAAAAAAAAAAAAAAAAAAAAAAAAAAAAAAAAAAAAAAAAAAAAAAAAAAAAAAAAAAAABkAAQAAAAAAAAAAAAAAACAPwAAgD8AAAAAAACAQgAAAAAAAIBCAACAQwAAAAAAAAAAACAAAAAAAAAAAAAAZAAAAEAAAAAoAAAAAAAAAEAAAAAAAAAAAAAAAAAgAAAAAAAAAAAA
      AGQAAABAAAAAKAAAAAAAAABAAAAAAAAAAAAAAAAAIAAAAAAAAAAAAABkAAAAQAAAACgAAAAAAAAAQAAAAAAAAAAAAAAAACAAAAAAAAAAAAAAZAAAAEAAAAAoAAAAAAAAAEAAAAAAAAAAAAAAAAAgAAAAAAAAAAAAAGQAAABAAAAAKAAAAAAAAABAAAAAAAAAAAAAAAAAIAAAAAAAAAAAAABkAAAAQAAAACgAAAAAAAAAQAAAAAAAAAAAAAAAACAAAAAAAAAAAAAAZAAAAEAAAAAo
      AAAAAAAAAEAAAAAAAAAAAAAAAAAgAAAAAAAAAAAAAGQAAABAAAAAKAAAAAAAAABAAAAAAAAAAAAAAAAAIAAAAAAAAAAAAABkAAAAQAAAACgAAAAAAAAAQAAAAAAAAAAAAAAAACAAAAAAAAAAAAAAZAAAAEAAAAAoAAAAAAAAAEAAAAAAAAAAAAAAAAAgAAAAAAAAAAAAAGQAAABAAAAAKAAAAAAAAABAAAAAAAAAAAAAAAAAIAAAAAAAAAAAAABkAAAAQAAAACgAAAAAAAAAQAAA
      AAAAAAAAAAAAACAAAAAAAAAAAAAAZAAAAEAAAAAoAAAAAAAAAEAAAAAAAAAAAAAAAAAgAAAAAAAAAAAAAGQAAABAAAAAKAAAAAAAAABAAAAAAAAAAAAAAAAAIAAAAAAAAAAAAABkAAAAQAAAACgAAAAAAAAAQAAAAAAAAAAAAAAAACAAAAAAAAAAAAAAZAAAAEAAAAAoAAAAAAAAAEAAAAAAAAAAAAA=
      AEJhc3NNaWRpABAAAAA=
    >
    PRESETNAME BassMidi
    FLOATPOS 0 0 0 0
    WAK 0 0
  >
  <UINF 72
    WNDRECT 23 51 855 480
    SHOW 0
    LASTSEL 0
    DOCKED 0
    BYPASS 0 0 0
    FXID_NEXT {59687D35-B611-40B4-B0CD-E8EA785922A6}
    <VST "VSTi: BassMidiVsti (Falcosoft)" BassMidiVsti.dll 0 "" 1112755524<56535442534D44626173736D69646976> ""
      RE1TQu5e7f4AAAAAAgAAAAEAAAAAAAAAAgAAAAAAAAD1DAAAAQAAAAAAEAA=
      RwA6AFwATQB5ACAARAByAGkAdgBlAFwATQB1AHMAaQBjACAAUAByAG8AZAB1AGMAdABpAG8AbgBcAFMAbwB1AG4AZABmAG8AbgB0AHMAXABFAHMAcwBlAG4AdABpAGEAbAAgAEsAZQB5AHMALQBzAGYAegBCAGEAbgBrAHMALQB2ADkALgA2AC4AcwBmADIAAAAAAAAAAAAAAAAAAAAAAAAAAAAAAAAAAAAAAAAAAAAAAAAAAAAAAAAAAAAAAAAAAAAAAAAAAAAAAAAAAAAAAAAA
      AAAAAAAAAAAAAAAAAAAAAAAAAAAAAAAAAAAAAAAAAAAAAAAAAAAAAAAAAAAAAAAAAAAAAAAAAAAAAAAAAAAAAAAAAAAAAAAAAAAAAAAAAAAAAAAAAAAAAAAAAAAAAAAAAAAAAAAAAAAAAAAAAAAAAAAAAAAAAAAAAAAAAAAAAAAAAAAAAAAAAAAAAAAAAAAAAAAAAAAAAAAAAAAAAAAAAAAAAAAAAAAAAAAAAAAAAAAAAAAAAAAAAAAAAAAAAAAAAAAAAAAAAAAAAAAAAAAAAAAA
      AAAAAAAAAAAAAAAAAAAAAAAAAAAAAAAAAAAAAAAAAAAAAAAAAAAAAAAAAAAAAAAAAAAAAAAAAAAAAAAAAAAAAAAAAAAAAAAAAAAAAAAAAAAAAAAAAAAAAAAAAAAAAAAAAAAAAAAAZAAAAAEAAAAAAAAAAAAAAAAAAAAAAAAAAAAAAAAAAAAAAAAAAAAAAAAAAAAAAAAAAAAAAAAAAAAAAAAAAAAAAAAAAAAAAAAAAAAAAAAAAAAAAAAAAAAAAAAAAAAAAAAAAAAAAAAAAAAAAAAA
      AAAAAAAAAAAAAAAAAAAAAAAAAAAAAAAAAAAAAAAAAAAAAAAAAAAAAAAAAAAAAAAAAAAAAAAAAAAAAAAAAAAAAAAAAAAAAAAAAAAAAAAAAAAAAAAAAAAAAAAAAAAAAAAAAAAAAAAAAAAAAAAAAAAAAAAAAAAAAAAAAAAAAAAAAAAAAAAAAAAAAAAAAAAAAAAAAAAAAAAAAAAAAAAAAAAAAAAAAAAAAAAAAAAAAAAAAAAAAAAAAAAAAAAAAAAAAAAAAAAAAAAAAAAAAAAAAAAAAAAA
      AAAAAAAAAAAAAAAAAAAAAAAAAAAAAAAAAAAAAAAAAAAAAAAAAAAAAAAAAAAAAAAAAAAAAAAAAAAAAAAAAAAAAAAAAAAAAAAAAAAAAAAAAAAAAAAAAAAAAAAAAAAAAAAAAAAAAAAAAAAAAAAAAAAAAAAAAAAAAAAAAAAAAAAAAAAAAAAAAAAAAAAAAAAAAAAAAAAAAAAAAAAAAAAAAAAAAAAAAAAAAAAAAAAAAAAAAAAAAAAAAAAAAAAAAAAAAAAAAAAAAAAAAAAAAAAAAAAAAABk
      AAEAAAAAAAAAAAAAAAAAAAAAAAAAAAAAAAAAAAAAAAAAAAAAAAAAAAAAAAAAAAAAAAAAAAAAAAAAAAAAAAAAAAAAAAAAAAAAAAAAAAAAAAAAAAAAAAAAAAAAAAAAAAAAAAAAAAAAAAAAAAAAAAAAAAAAAAAAAAAAAAAAAAAAAAAAAAAAAAAAAAAAAAAAAAAAAAAAAAAAAAAAAAAAAAAAAAAAAAAAAAAAAAAAAAAAAAAAAAAAAAAAAAAAAAAAAAAAAAAAAAAAAAAAAAAAAAAAAAAA
      AAAAAAAAAAAAAAAAAAAAAAAAAAAAAAAAAAAAAAAAAAAAAAAAAAAAAAAAAAAAAAAAAAAAAAAAAAAAAAAAAAAAAAAAAAAAAAAAAAAAAAAAAAAAAAAAAAAAAAAAAAAAAAAAAAAAAAAAAAAAAAAAAAAAAAAAAAAAAAAAAAAAAAAAAAAAAAAAAAAAAAAAAAAAAAAAAAAAAAAAAAAAAAAAAAAAAAAAAAAAAAAAAAAAAAAAAAAAAAAAAAAAAAAAAAAAAAAAAAAAAAAAAAAAAAAAAAAAAAAA
      AAAAAAAAAAAAAAAAAAAAAAAAAAAAAAAAAAAAAAAAAAAAAAAAAAAAAAAAAAAAAAAAAAAAAAAAAAAAAAAAAAAAAAAAAAAAAAAAAAAAAAAAAAAAAAAAAAAAAAAAAAAAAAAAAAAAAAAAAAAAAGQAAgAAAAAAAAAAAAAAAAAAAAAAAAAAAAAAAAAAAAAAAAAAAAAAAAAAAAAAAAAAAAAAAAAAAAAAAAAAAAAAAAAAAAAAAAAAAAAAAAAAAAAAAAAAAAAAAAAAAAAAAAAAAAAAAAAAAAAA
      AAAAAAAAAAAAAAAAAAAAAAAAAAAAAAAAAAAAAAAAAAAAAAAAAAAAAAAAAAAAAAAAAAAAAAAAAAAAAAAAAAAAAAAAAAAAAAAAAAAAAAAAAAAAAAAAAAAAAAAAAAAAAAAAAAAAAAAAAAAAAAAAAAAAAAAAAAAAAAAAAAAAAAAAAAAAAAAAAAAAAAAAAAAAAAAAAAAAAAAAAAAAAAAAAAAAAAAAAAAAAAAAAAAAAAAAAAAAAAAAAAAAAAAAAAAAAAAAAAAAAAAAAAAAAAAAAAAAAAAA
      AAAAAAAAAAAAAAAAAAAAAAAAAAAAAAAAAAAAAAAAAAAAAAAAAAAAAAAAAAAAAAAAAAAAAAAAAAAAAAAAAAAAAAAAAAAAAAAAAAAAAAAAAAAAAAAAAAAAAAAAAAAAAAAAAAAAAAAAAAAAAAAAAAAAAAAAAAAAAAAAAAAAAAAAAAAAAAAAAAAAAAAAAAAAAAAAAAAAAAAAAAAAAAAAAAAAAAAAAAAAAAAAAAAAAAAAAAAAAAAAAAAAAAAAAAAAAAAAAAAAAAAAAAAAAAAAAAAAAAAA
      AAAAZAADAAAAAAAAAAAAAAAAAAAAAAAAAAAAAAAAAAAAAAAAAAAAAAAAAAAAAAAAAAAAAAAAAAAAAAAAAAAAAAAAAAAAAAAAAAAAAAAAAAAAAAAAAAAAAAAAAAAAAAAAAAAAAAAAAAAAAAAAAAAAAAAAAAAAAAAAAAAAAAAAAAAAAAAAAAAAAAAAAAAAAAAAAAAAAAAAAAAAAAAAAAAAAAAAAAAAAAAAAAAAAAAAAAAAAAAAAAAAAAAAAAAAAAAAAAAAAAAAAAAAAAAAAAAAAAAA
      AAAAAAAAAAAAAAAAAAAAAAAAAAAAAAAAAAAAAAAAAAAAAAAAAAAAAAAAAAAAAAAAAAAAAAAAAAAAAAAAAAAAAAAAAAAAAAAAAAAAAAAAAAAAAAAAAAAAAAAAAAAAAAAAAAAAAAAAAAAAAAAAAAAAAAAAAAAAAAAAAAAAAAAAAAAAAAAAAAAAAAAAAAAAAAAAAAAAAAAAAAAAAAAAAAAAAAAAAAAAAAAAAAAAAAAAAAAAAAAAAAAAAAAAAAAAAAAAAAAAAAAAAAAAAAAAAAAAAAAA
      AAAAAAAAAAAAAAAAAAAAAAAAAAAAAAAAAAAAAAAAAAAAAAAAAAAAAAAAAAAAAAAAAAAAAAAAAAAAAAAAAAAAAAAAAAAAAAAAAAAAAAAAAAAAAAAAAAAAAAAAAAAAAAAAAAAAAAAAAAAAAAAAAABkAAQAAAAAAAAAAAAAAACAPwAAgD8AAAAAAACAQgAAAAAAAIBCAACAQwAAAAAAAAAAACAAAAAAAAAAAAAAZAAAAEAAAAAoAAAAAAAAAEAAAAAAAAAAAAAAAAAgAAAAAAAAAAAA
      AGQAAABAAAAAKAAAAAAAAABAAAAAAAAAAAAAAAAAIAAAAAAAAAAAAABkAAAAQAAAACgAAAAAAAAAQAAAAAAAAAAAAAAAACAAAAAAAAAAAAAAZAAAAEAAAAAoAAAAAAAAAEAAAAAAAAAAAAAAAAAgAAAAAAAAAAAAAGQAAABAAAAAKAAAAAAAAABAAAAAAAAAAAAAAAAAIAAAAAAAAAAAAABkAAAAQAAAACgAAAAAAAAAQAAAAAAAAAAAAAAAACAAAAAAAAAAAAAAZAAAAEAAAAAo
      AAAAAAAAAEAAAAAAAAAAAAAAAAAgAAAAAAAAAAAAAGQAAABAAAAAKAAAAAAAAABAAAAAAAAAAAAAAAAAIAAAAAAAAAAAAABkAAAAQAAAACgAAAAAAAAAQAAAAAAAAAAAAAAAACAAAAAAAAAAAAAAZAAAAEAAAAAoAAAAAAAAAEAAAAAAAAAAAAAAAAAgAAAAAAAAAAAAAGQAAABAAAAAKAAAAAAAAABAAAAAAAAAAAAAAAAAIAAAAAAAAAAAAABkAAAAQAAAACgAAAAAAAAAQAAA
      AAAAAAAAAAAAACAAAAAAAAAAAAAAZAAAAEAAAAAoAAAAAAAAAEAAAAAAAAAAAAAAAAAgAAAAAAAAAAAAAGQAAABAAAAAKAAAAAAAAABAAAAAAAAAAAAAAAAAIAAAAAAAAAAAAABkAAAAQAAAACgAAAAAAAAAQAAAAAAAAAAAAAAAACAAAAAAAAAAAAAAZAAAAEAAAAAoAAAAAAAAAEAAAAAAAAAAAAA=
      AEJhc3NNaWRpABAAAAA=
    >
    PRESETNAME BassMidi
    FLOATPOS 0 0 0 0
    WAK 0 0
  >
  <UINF 73
    WNDRECT 23 51 855 480
    SHOW 1
    LASTSEL 0
    DOCKED 0
    BYPASS 0 0 0
    FXID_NEXT {6680346F-A7B3-419E-988B-7A84DECC9491}
    <VST "VSTi: BassMidiVsti (Falcosoft)" BassMidiVsti.dll 0 "" 1112755524<56535442534D44626173736D69646976> ""
      RE1TQu5e7f4AAAAAAgAAAAEAAAAAAAAAAgAAAAAAAAD1DAAAAQAAAAAAEAA=
      RwA6AFwATQB5ACAARAByAGkAdgBlAFwATQB1AHMAaQBjACAAUAByAG8AZAB1AGMAdABpAG8AbgBcAFMAbwB1AG4AZABmAG8AbgB0AHMAXABFAHMAcwBlAG4AdABpAGEAbAAgAEsAZQB5AHMALQBzAGYAegBCAGEAbgBrAHMALQB2ADkALgA2AC4AcwBmADIAAAAAAAAAAAAAAAAAAAAAAAAAAAAAAAAAAAAAAAAAAAAAAAAAAAAAAAAAAAAAAAAAAAAAAAAAAAAAAAAAAAAAAAAA
      AAAAAAAAAAAAAAAAAAAAAAAAAAAAAAAAAAAAAAAAAAAAAAAAAAAAAAAAAAAAAAAAAAAAAAAAAAAAAAAAAAAAAAAAAAAAAAAAAAAAAAAAAAAAAAAAAAAAAAAAAAAAAAAAAAAAAAAAAAAAAAAAAAAAAAAAAAAAAAAAAAAAAAAAAAAAAAAAAAAAAAAAAAAAAAAAAAAAAAAAAAAAAAAAAAAAAAAAAAAAAAAAAAAAAAAAAAAAAAAAAAAAAAAAAAAAAAAAAAAAAAAAAAAAAAAAAAAAAAAA
      AAAAAAAAAAAAAAAAAAAAAAAAAAAAAAAAAAAAAAAAAAAAAAAAAAAAAAAAAAAAAAAAAAAAAAAAAAAAAAAAAAAAAAAAAAAAAAAAAAAAAAAAAAAAAAAAAAAAAAAAAAAAAAAAAAAAAAAAZAAAAAEAAAAAAAAAAAAAAAAAAAAAAAAAAAAAAAAAAAAAAAAAAAAAAAAAAAAAAAAAAAAAAAAAAAAAAAAAAAAAAAAAAAAAAAAAAAAAAAAAAAAAAAAAAAAAAAAAAAAAAAAAAAAAAAAAAAAAAAAA
      AAAAAAAAAAAAAAAAAAAAAAAAAAAAAAAAAAAAAAAAAAAAAAAAAAAAAAAAAAAAAAAAAAAAAAAAAAAAAAAAAAAAAAAAAAAAAAAAAAAAAAAAAAAAAAAAAAAAAAAAAAAAAAAAAAAAAAAAAAAAAAAAAAAAAAAAAAAAAAAAAAAAAAAAAAAAAAAAAAAAAAAAAAAAAAAAAAAAAAAAAAAAAAAAAAAAAAAAAAAAAAAAAAAAAAAAAAAAAAAAAAAAAAAAAAAAAAAAAAAAAAAAAAAAAAAAAAAAAAAA
      AAAAAAAAAAAAAAAAAAAAAAAAAAAAAAAAAAAAAAAAAAAAAAAAAAAAAAAAAAAAAAAAAAAAAAAAAAAAAAAAAAAAAAAAAAAAAAAAAAAAAAAAAAAAAAAAAAAAAAAAAAAAAAAAAAAAAAAAAAAAAAAAAAAAAAAAAAAAAAAAAAAAAAAAAAAAAAAAAAAAAAAAAAAAAAAAAAAAAAAAAAAAAAAAAAAAAAAAAAAAAAAAAAAAAAAAAAAAAAAAAAAAAAAAAAAAAAAAAAAAAAAAAAAAAAAAAAAAAABk
      AAEAAAAAAAAAAAAAAAAAAAAAAAAAAAAAAAAAAAAAAAAAAAAAAAAAAAAAAAAAAAAAAAAAAAAAAAAAAAAAAAAAAAAAAAAAAAAAAAAAAAAAAAAAAAAAAAAAAAAAAAAAAAAAAAAAAAAAAAAAAAAAAAAAAAAAAAAAAAAAAAAAAAAAAAAAAAAAAAAAAAAAAAAAAAAAAAAAAAAAAAAAAAAAAAAAAAAAAAAAAAAAAAAAAAAAAAAAAAAAAAAAAAAAAAAAAAAAAAAAAAAAAAAAAAAAAAAAAAAA
      AAAAAAAAAAAAAAAAAAAAAAAAAAAAAAAAAAAAAAAAAAAAAAAAAAAAAAAAAAAAAAAAAAAAAAAAAAAAAAAAAAAAAAAAAAAAAAAAAAAAAAAAAAAAAAAAAAAAAAAAAAAAAAAAAAAAAAAAAAAAAAAAAAAAAAAAAAAAAAAAAAAAAAAAAAAAAAAAAAAAAAAAAAAAAAAAAAAAAAAAAAAAAAAAAAAAAAAAAAAAAAAAAAAAAAAAAAAAAAAAAAAAAAAAAAAAAAAAAAAAAAAAAAAAAAAAAAAAAAAA
      AAAAAAAAAAAAAAAAAAAAAAAAAAAAAAAAAAAAAAAAAAAAAAAAAAAAAAAAAAAAAAAAAAAAAAAAAAAAAAAAAAAAAAAAAAAAAAAAAAAAAAAAAAAAAAAAAAAAAAAAAAAAAAAAAAAAAAAAAAAAAGQAAgAAAAAAAAAAAAAAAAAAAAAAAAAAAAAAAAAAAAAAAAAAAAAAAAAAAAAAAAAAAAAAAAAAAAAAAAAAAAAAAAAAAAAAAAAAAAAAAAAAAAAAAAAAAAAAAAAAAAAAAAAAAAAAAAAAAAAA
      AAAAAAAAAAAAAAAAAAAAAAAAAAAAAAAAAAAAAAAAAAAAAAAAAAAAAAAAAAAAAAAAAAAAAAAAAAAAAAAAAAAAAAAAAAAAAAAAAAAAAAAAAAAAAAAAAAAAAAAAAAAAAAAAAAAAAAAAAAAAAAAAAAAAAAAAAAAAAAAAAAAAAAAAAAAAAAAAAAAAAAAAAAAAAAAAAAAAAAAAAAAAAAAAAAAAAAAAAAAAAAAAAAAAAAAAAAAAAAAAAAAAAAAAAAAAAAAAAAAAAAAAAAAAAAAAAAAAAAAA
      AAAAAAAAAAAAAAAAAAAAAAAAAAAAAAAAAAAAAAAAAAAAAAAAAAAAAAAAAAAAAAAAAAAAAAAAAAAAAAAAAAAAAAAAAAAAAAAAAAAAAAAAAAAAAAAAAAAAAAAAAAAAAAAAAAAAAAAAAAAAAAAAAAAAAAAAAAAAAAAAAAAAAAAAAAAAAAAAAAAAAAAAAAAAAAAAAAAAAAAAAAAAAAAAAAAAAAAAAAAAAAAAAAAAAAAAAAAAAAAAAAAAAAAAAAAAAAAAAAAAAAAAAAAAAAAAAAAAAAAA
      AAAAZAADAAAAAAAAAAAAAAAAAAAAAAAAAAAAAAAAAAAAAAAAAAAAAAAAAAAAAAAAAAAAAAAAAAAAAAAAAAAAAAAAAAAAAAAAAAAAAAAAAAAAAAAAAAAAAAAAAAAAAAAAAAAAAAAAAAAAAAAAAAAAAAAAAAAAAAAAAAAAAAAAAAAAAAAAAAAAAAAAAAAAAAAAAAAAAAAAAAAAAAAAAAAAAAAAAAAAAAAAAAAAAAAAAAAAAAAAAAAAAAAAAAAAAAAAAAAAAAAAAAAAAAAAAAAAAAAA
      AAAAAAAAAAAAAAAAAAAAAAAAAAAAAAAAAAAAAAAAAAAAAAAAAAAAAAAAAAAAAAAAAAAAAAAAAAAAAAAAAAAAAAAAAAAAAAAAAAAAAAAAAAAAAAAAAAAAAAAAAAAAAAAAAAAAAAAAAAAAAAAAAAAAAAAAAAAAAAAAAAAAAAAAAAAAAAAAAAAAAAAAAAAAAAAAAAAAAAAAAAAAAAAAAAAAAAAAAAAAAAAAAAAAAAAAAAAAAAAAAAAAAAAAAAAAAAAAAAAAAAAAAAAAAAAAAAAAAAAA
      AAAAAAAAAAAAAAAAAAAAAAAAAAAAAAAAAAAAAAAAAAAAAAAAAAAAAAAAAAAAAAAAAAAAAAAAAAAAAAAAAAAAAAAAAAAAAAAAAAAAAAAAAAAAAAAAAAAAAAAAAAAAAAAAAAAAAAAAAAAAAAAAAABkAAQAAAAAAAAAAAAAAACAPwAAgD8AAAAAAACAQgAAAAAAAIBCAACAQwAAAAAEAAAAACAAAAAAAAAAAAAAZAAAAEAAAAAoAAAAAAAAAEAAAAAAAAAAAAAAAAAgAAAAAAAAAAAA
      AGQAAABAAAAAKAAAAAAAAABAAAAAAAAAAAAAAAAAIAAAAAAAAAAAAABkAAAAQAAAACgAAAAAAAAAQAAAAAAAAAAAAAAAACAAAAAAAAAAAAAAZAAAAEAAAAAoAAAAAAAAAEAAAAAAAAAAAAAAAAAgAAAAAAAAAAAAAGQAAABAAAAAKAAAAAAAAABAAAAAAAAAAAAAAAAAIAAAAAAAAAAAAABkAAAAQAAAACgAAAAAAAAAQAAAAAAAAAAAAAAAACAAAAAAAAAAAAAAZAAAAEAAAAAo
      AAAAAAAAAEAAAAAAAAAAAAAAAAAgAAAAAAAAAAAAAGQAAABAAAAAKAAAAAAAAABAAAAAAAAAAAAAAAAAIAAAAAAAAAAAAABkAAAAQAAAACgAAAAAAAAAQAAAAAAAAAAAAAAAACAAAAAAAAAAAAAAZAAAAEAAAAAoAAAAAAAAAEAAAAAAAAAAAAAAAAAgAAAAAAAAAAAAAGQAAABAAAAAKAAAAAAAAABAAAAAAAAAAAAAAAAAIAAAAAAAAAAAAABkAAAAQAAAACgAAAAAAAAAQAAA
      AAAAAAAAAAAAACAAAAAAAAAAAAAAZAAAAEAAAAAoAAAAAAAAAEAAAAAAAAAAAAAAAAAgAAAAAAAAAAAAAGQAAABAAAAAKAAAAAAAAABAAAAAAAAAAAAAAAAAIAAAAAAAAAAAAABkAAAAQAAAACgAAAAAAAAAQAAAAAAAAAAAAAAAACAAAAAAAAAAAAAAZAAAAEAAAAAoAAAAAAAAAEAAAAAAAAAAAAA=
      AEJhc3NNaWRpABAAAAA=
    >
    PRESETNAME BassMidi
    FLOATPOS 0 0 0 0
    WAK 0 0
  >
  <UINF 74
    WNDRECT 23 51 855 480
    SHOW 0
    LASTSEL 0
    DOCKED 0
    BYPASS 0 0 0
    FXID_NEXT {6680346F-A7B3-419E-988B-7A84DECC9491}
    <VST "VSTi: BassMidiVsti (Falcosoft)" BassMidiVsti.dll 0 "" 1112755524<56535442534D44626173736D69646976> ""
      RE1TQu5e7f4AAAAAAgAAAAEAAAAAAAAAAgAAAAAAAAD1DAAAAQAAAAAAEAA=
      RwA6AFwATQB5ACAARAByAGkAdgBlAFwATQB1AHMAaQBjACAAUAByAG8AZAB1AGMAdABpAG8AbgBcAFMAbwB1AG4AZABmAG8AbgB0AHMAXABFAHMAcwBlAG4AdABpAGEAbAAgAEsAZQB5AHMALQBzAGYAegBCAGEAbgBrAHMALQB2ADkALgA2AC4AcwBmADIAAAAAAAAAAAAAAAAAAAAAAAAAAAAAAAAAAAAAAAAAAAAAAAAAAAAAAAAAAAAAAAAAAAAAAAAAAAAAAAAAAAAAAAAA
      AAAAAAAAAAAAAAAAAAAAAAAAAAAAAAAAAAAAAAAAAAAAAAAAAAAAAAAAAAAAAAAAAAAAAAAAAAAAAAAAAAAAAAAAAAAAAAAAAAAAAAAAAAAAAAAAAAAAAAAAAAAAAAAAAAAAAAAAAAAAAAAAAAAAAAAAAAAAAAAAAAAAAAAAAAAAAAAAAAAAAAAAAAAAAAAAAAAAAAAAAAAAAAAAAAAAAAAAAAAAAAAAAAAAAAAAAAAAAAAAAAAAAAAAAAAAAAAAAAAAAAAAAAAAAAAAAAAAAAAA
      AAAAAAAAAAAAAAAAAAAAAAAAAAAAAAAAAAAAAAAAAAAAAAAAAAAAAAAAAAAAAAAAAAAAAAAAAAAAAAAAAAAAAAAAAAAAAAAAAAAAAAAAAAAAAAAAAAAAAAAAAAAAAAAAAAAAAAAAZAAAAAEAAAAAAAAAAAAAAAAAAAAAAAAAAAAAAAAAAAAAAAAAAAAAAAAAAAAAAAAAAAAAAAAAAAAAAAAAAAAAAAAAAAAAAAAAAAAAAAAAAAAAAAAAAAAAAAAAAAAAAAAAAAAAAAAAAAAAAAAA
      AAAAAAAAAAAAAAAAAAAAAAAAAAAAAAAAAAAAAAAAAAAAAAAAAAAAAAAAAAAAAAAAAAAAAAAAAAAAAAAAAAAAAAAAAAAAAAAAAAAAAAAAAAAAAAAAAAAAAAAAAAAAAAAAAAAAAAAAAAAAAAAAAAAAAAAAAAAAAAAAAAAAAAAAAAAAAAAAAAAAAAAAAAAAAAAAAAAAAAAAAAAAAAAAAAAAAAAAAAAAAAAAAAAAAAAAAAAAAAAAAAAAAAAAAAAAAAAAAAAAAAAAAAAAAAAAAAAAAAAA
      AAAAAAAAAAAAAAAAAAAAAAAAAAAAAAAAAAAAAAAAAAAAAAAAAAAAAAAAAAAAAAAAAAAAAAAAAAAAAAAAAAAAAAAAAAAAAAAAAAAAAAAAAAAAAAAAAAAAAAAAAAAAAAAAAAAAAAAAAAAAAAAAAAAAAAAAAAAAAAAAAAAAAAAAAAAAAAAAAAAAAAAAAAAAAAAAAAAAAAAAAAAAAAAAAAAAAAAAAAAAAAAAAAAAAAAAAAAAAAAAAAAAAAAAAAAAAAAAAAAAAAAAAAAAAAAAAAAAAABk
      AAEAAAAAAAAAAAAAAAAAAAAAAAAAAAAAAAAAAAAAAAAAAAAAAAAAAAAAAAAAAAAAAAAAAAAAAAAAAAAAAAAAAAAAAAAAAAAAAAAAAAAAAAAAAAAAAAAAAAAAAAAAAAAAAAAAAAAAAAAAAAAAAAAAAAAAAAAAAAAAAAAAAAAAAAAAAAAAAAAAAAAAAAAAAAAAAAAAAAAAAAAAAAAAAAAAAAAAAAAAAAAAAAAAAAAAAAAAAAAAAAAAAAAAAAAAAAAAAAAAAAAAAAAAAAAAAAAAAAAA
      AAAAAAAAAAAAAAAAAAAAAAAAAAAAAAAAAAAAAAAAAAAAAAAAAAAAAAAAAAAAAAAAAAAAAAAAAAAAAAAAAAAAAAAAAAAAAAAAAAAAAAAAAAAAAAAAAAAAAAAAAAAAAAAAAAAAAAAAAAAAAAAAAAAAAAAAAAAAAAAAAAAAAAAAAAAAAAAAAAAAAAAAAAAAAAAAAAAAAAAAAAAAAAAAAAAAAAAAAAAAAAAAAAAAAAAAAAAAAAAAAAAAAAAAAAAAAAAAAAAAAAAAAAAAAAAAAAAAAAAA
      AAAAAAAAAAAAAAAAAAAAAAAAAAAAAAAAAAAAAAAAAAAAAAAAAAAAAAAAAAAAAAAAAAAAAAAAAAAAAAAAAAAAAAAAAAAAAAAAAAAAAAAAAAAAAAAAAAAAAAAAAAAAAAAAAAAAAAAAAAAAAGQAAgAAAAAAAAAAAAAAAAAAAAAAAAAAAAAAAAAAAAAAAAAAAAAAAAAAAAAAAAAAAAAAAAAAAAAAAAAAAAAAAAAAAAAAAAAAAAAAAAAAAAAAAAAAAAAAAAAAAAAAAAAAAAAAAAAAAAAA
      AAAAAAAAAAAAAAAAAAAAAAAAAAAAAAAAAAAAAAAAAAAAAAAAAAAAAAAAAAAAAAAAAAAAAAAAAAAAAAAAAAAAAAAAAAAAAAAAAAAAAAAAAAAAAAAAAAAAAAAAAAAAAAAAAAAAAAAAAAAAAAAAAAAAAAAAAAAAAAAAAAAAAAAAAAAAAAAAAAAAAAAAAAAAAAAAAAAAAAAAAAAAAAAAAAAAAAAAAAAAAAAAAAAAAAAAAAAAAAAAAAAAAAAAAAAAAAAAAAAAAAAAAAAAAAAAAAAAAAAA
      AAAAAAAAAAAAAAAAAAAAAAAAAAAAAAAAAAAAAAAAAAAAAAAAAAAAAAAAAAAAAAAAAAAAAAAAAAAAAAAAAAAAAAAAAAAAAAAAAAAAAAAAAAAAAAAAAAAAAAAAAAAAAAAAAAAAAAAAAAAAAAAAAAAAAAAAAAAAAAAAAAAAAAAAAAAAAAAAAAAAAAAAAAAAAAAAAAAAAAAAAAAAAAAAAAAAAAAAAAAAAAAAAAAAAAAAAAAAAAAAAAAAAAAAAAAAAAAAAAAAAAAAAAAAAAAAAAAAAAAA
      AAAAZAADAAAAAAAAAAAAAAAAAAAAAAAAAAAAAAAAAAAAAAAAAAAAAAAAAAAAAAAAAAAAAAAAAAAAAAAAAAAAAAAAAAAAAAAAAAAAAAAAAAAAAAAAAAAAAAAAAAAAAAAAAAAAAAAAAAAAAAAAAAAAAAAAAAAAAAAAAAAAAAAAAAAAAAAAAAAAAAAAAAAAAAAAAAAAAAAAAAAAAAAAAAAAAAAAAAAAAAAAAAAAAAAAAAAAAAAAAAAAAAAAAAAAAAAAAAAAAAAAAAAAAAAAAAAAAAAA
      AAAAAAAAAAAAAAAAAAAAAAAAAAAAAAAAAAAAAAAAAAAAAAAAAAAAAAAAAAAAAAAAAAAAAAAAAAAAAAAAAAAAAAAAAAAAAAAAAAAAAAAAAAAAAAAAAAAAAAAAAAAAAAAAAAAAAAAAAAAAAAAAAAAAAAAAAAAAAAAAAAAAAAAAAAAAAAAAAAAAAAAAAAAAAAAAAAAAAAAAAAAAAAAAAAAAAAAAAAAAAAAAAAAAAAAAAAAAAAAAAAAAAAAAAAAAAAAAAAAAAAAAAAAAAAAAAAAAAAAA
      AAAAAAAAAAAAAAAAAAAAAAAAAAAAAAAAAAAAAAAAAAAAAAAAAAAAAAAAAAAAAAAAAAAAAAAAAAAAAAAAAAAAAAAAAAAAAAAAAAAAAAAAAAAAAAAAAAAAAAAAAAAAAAAAAAAAAAAAAAAAAAAAAABkAAQAAAAAAAAAAAAAAACAPwAAgD8AAAAAAACAQgAAAAAAAIBCAACAQwAAAAAAAAAAACAAAAAAAAAAAAAAZAAAAEAAAAAoAAAAAAAAAEAAAAAAAAAAAAAAAAAgAAAAAAAAAAAA
      AGQAAABAAAAAKAAAAAAAAABAAAAAAAAAAAAAAAAAIAAAAAAAAAAAAABkAAAAQAAAACgAAAAAAAAAQAAAAAAAAAAAAAAAACAAAAAAAAAAAAAAZAAAAEAAAAAoAAAAAAAAAEAAAAAAAAAAAAAAAAAgAAAAAAAAAAAAAGQAAABAAAAAKAAAAAAAAABAAAAAAAAAAAAAAAAAIAAAAAAAAAAAAABkAAAAQAAAACgAAAAAAAAAQAAAAAAAAAAAAAAAACAAAAAAAAAAAAAAZAAAAEAAAAAo
      AAAAAAAAAEAAAAAAAAAAAAAAAAAgAAAAAAAAAAAAAGQAAABAAAAAKAAAAAAAAABAAAAAAAAAAAAAAAAAIAAAAAAAAAAAAABkAAAAQAAAACgAAAAAAAAAQAAAAAAAAAAAAAAAACAAAAAAAAAAAAAAZAAAAEAAAAAoAAAAAAAAAEAAAAAAAAAAAAAAAAAgAAAAAAAAAAAAAGQAAABAAAAAKAAAAAAAAABAAAAAAAAAAAAAAAAAIAAAAAAAAAAAAABkAAAAQAAAACgAAAAAAAAAQAAA
      AAAAAAAAAAAAACAAAAAAAAAAAAAAZAAAAEAAAAAoAAAAAAAAAEAAAAAAAAAAAAAAAAAgAAAAAAAAAAAAAGQAAABAAAAAKAAAAAAAAABAAAAAAAAAAAAAAAAAIAAAAAAAAAAAAABkAAAAQAAAACgAAAAAAAAAQAAAAAAAAAAAAAAAACAAAAAAAAAAAAAAZAAAAEAAAAAoAAAAAAAAAEAAAAAAAAAAAAA=
      AEJhc3NNaWRpABAAAAA=
    >
    PRESETNAME BassMidi
    FLOATPOS 0 0 0 0
    WAK 0 0
  >
  <UINF 75
    WNDRECT 23 51 855 480
    SHOW 1
    LASTSEL 0
    DOCKED 0
    BYPASS 0 0 0
    FXID_NEXT {501FF10E-E1ED-4759-A0AC-1CDAD4C0FDA6}
    <VST "VSTi: BassMidiVsti (Falcosoft)" BassMidiVsti.dll 0 "" 1112755524<56535442534D44626173736D69646976> ""
      RE1TQu5e7f4AAAAAAgAAAAEAAAAAAAAAAgAAAAAAAAD1DAAAAQAAAAAAEAA=
      RwA6AFwATQB5ACAARAByAGkAdgBlAFwATQB1AHMAaQBjACAAUAByAG8AZAB1AGMAdABpAG8AbgBcAFMAbwB1AG4AZABmAG8AbgB0AHMAXABFAHMAcwBlAG4AdABpAGEAbAAgAEsAZQB5AHMALQBzAGYAegBCAGEAbgBrAHMALQB2ADkALgA2AC4AcwBmADIAAAAAAAAAAAAAAAAAAAAAAAAAAAAAAAAAAAAAAAAAAAAAAAAAAAAAAAAAAAAAAAAAAAAAAAAAAAAAAAAAAAAAAAAA
      AAAAAAAAAAAAAAAAAAAAAAAAAAAAAAAAAAAAAAAAAAAAAAAAAAAAAAAAAAAAAAAAAAAAAAAAAAAAAAAAAAAAAAAAAAAAAAAAAAAAAAAAAAAAAAAAAAAAAAAAAAAAAAAAAAAAAAAAAAAAAAAAAAAAAAAAAAAAAAAAAAAAAAAAAAAAAAAAAAAAAAAAAAAAAAAAAAAAAAAAAAAAAAAAAAAAAAAAAAAAAAAAAAAAAAAAAAAAAAAAAAAAAAAAAAAAAAAAAAAAAAAAAAAAAAAAAAAAAAAA
      AAAAAAAAAAAAAAAAAAAAAAAAAAAAAAAAAAAAAAAAAAAAAAAAAAAAAAAAAAAAAAAAAAAAAAAAAAAAAAAAAAAAAAAAAAAAAAAAAAAAAAAAAAAAAAAAAAAAAAAAAAAAAAAAAAAAAAAAZAAAAAEAAAAAAAAAAAAAAAAAAAAAAAAAAAAAAAAAAAAAAAAAAAAAAAAAAAAAAAAAAAAAAAAAAAAAAAAAAAAAAAAAAAAAAAAAAAAAAAAAAAAAAAAAAAAAAAAAAAAAAAAAAAAAAAAAAAAAAAAA
      AAAAAAAAAAAAAAAAAAAAAAAAAAAAAAAAAAAAAAAAAAAAAAAAAAAAAAAAAAAAAAAAAAAAAAAAAAAAAAAAAAAAAAAAAAAAAAAAAAAAAAAAAAAAAAAAAAAAAAAAAAAAAAAAAAAAAAAAAAAAAAAAAAAAAAAAAAAAAAAAAAAAAAAAAAAAAAAAAAAAAAAAAAAAAAAAAAAAAAAAAAAAAAAAAAAAAAAAAAAAAAAAAAAAAAAAAAAAAAAAAAAAAAAAAAAAAAAAAAAAAAAAAAAAAAAAAAAAAAAA
      AAAAAAAAAAAAAAAAAAAAAAAAAAAAAAAAAAAAAAAAAAAAAAAAAAAAAAAAAAAAAAAAAAAAAAAAAAAAAAAAAAAAAAAAAAAAAAAAAAAAAAAAAAAAAAAAAAAAAAAAAAAAAAAAAAAAAAAAAAAAAAAAAAAAAAAAAAAAAAAAAAAAAAAAAAAAAAAAAAAAAAAAAAAAAAAAAAAAAAAAAAAAAAAAAAAAAAAAAAAAAAAAAAAAAAAAAAAAAAAAAAAAAAAAAAAAAAAAAAAAAAAAAAAAAAAAAAAAAABk
      AAEAAAAAAAAAAAAAAAAAAAAAAAAAAAAAAAAAAAAAAAAAAAAAAAAAAAAAAAAAAAAAAAAAAAAAAAAAAAAAAAAAAAAAAAAAAAAAAAAAAAAAAAAAAAAAAAAAAAAAAAAAAAAAAAAAAAAAAAAAAAAAAAAAAAAAAAAAAAAAAAAAAAAAAAAAAAAAAAAAAAAAAAAAAAAAAAAAAAAAAAAAAAAAAAAAAAAAAAAAAAAAAAAAAAAAAAAAAAAAAAAAAAAAAAAAAAAAAAAAAAAAAAAAAAAAAAAAAAAA
      AAAAAAAAAAAAAAAAAAAAAAAAAAAAAAAAAAAAAAAAAAAAAAAAAAAAAAAAAAAAAAAAAAAAAAAAAAAAAAAAAAAAAAAAAAAAAAAAAAAAAAAAAAAAAAAAAAAAAAAAAAAAAAAAAAAAAAAAAAAAAAAAAAAAAAAAAAAAAAAAAAAAAAAAAAAAAAAAAAAAAAAAAAAAAAAAAAAAAAAAAAAAAAAAAAAAAAAAAAAAAAAAAAAAAAAAAAAAAAAAAAAAAAAAAAAAAAAAAAAAAAAAAAAAAAAAAAAAAAAA
      AAAAAAAAAAAAAAAAAAAAAAAAAAAAAAAAAAAAAAAAAAAAAAAAAAAAAAAAAAAAAAAAAAAAAAAAAAAAAAAAAAAAAAAAAAAAAAAAAAAAAAAAAAAAAAAAAAAAAAAAAAAAAAAAAAAAAAAAAAAAAGQAAgAAAAAAAAAAAAAAAAAAAAAAAAAAAAAAAAAAAAAAAAAAAAAAAAAAAAAAAAAAAAAAAAAAAAAAAAAAAAAAAAAAAAAAAAAAAAAAAAAAAAAAAAAAAAAAAAAAAAAAAAAAAAAAAAAAAAAA
      AAAAAAAAAAAAAAAAAAAAAAAAAAAAAAAAAAAAAAAAAAAAAAAAAAAAAAAAAAAAAAAAAAAAAAAAAAAAAAAAAAAAAAAAAAAAAAAAAAAAAAAAAAAAAAAAAAAAAAAAAAAAAAAAAAAAAAAAAAAAAAAAAAAAAAAAAAAAAAAAAAAAAAAAAAAAAAAAAAAAAAAAAAAAAAAAAAAAAAAAAAAAAAAAAAAAAAAAAAAAAAAAAAAAAAAAAAAAAAAAAAAAAAAAAAAAAAAAAAAAAAAAAAAAAAAAAAAAAAAA
      AAAAAAAAAAAAAAAAAAAAAAAAAAAAAAAAAAAAAAAAAAAAAAAAAAAAAAAAAAAAAAAAAAAAAAAAAAAAAAAAAAAAAAAAAAAAAAAAAAAAAAAAAAAAAAAAAAAAAAAAAAAAAAAAAAAAAAAAAAAAAAAAAAAAAAAAAAAAAAAAAAAAAAAAAAAAAAAAAAAAAAAAAAAAAAAAAAAAAAAAAAAAAAAAAAAAAAAAAAAAAAAAAAAAAAAAAAAAAAAAAAAAAAAAAAAAAAAAAAAAAAAAAAAAAAAAAAAAAAAA
      AAAAZAADAAAAAAAAAAAAAAAAAAAAAAAAAAAAAAAAAAAAAAAAAAAAAAAAAAAAAAAAAAAAAAAAAAAAAAAAAAAAAAAAAAAAAAAAAAAAAAAAAAAAAAAAAAAAAAAAAAAAAAAAAAAAAAAAAAAAAAAAAAAAAAAAAAAAAAAAAAAAAAAAAAAAAAAAAAAAAAAAAAAAAAAAAAAAAAAAAAAAAAAAAAAAAAAAAAAAAAAAAAAAAAAAAAAAAAAAAAAAAAAAAAAAAAAAAAAAAAAAAAAAAAAAAAAAAAAA
      AAAAAAAAAAAAAAAAAAAAAAAAAAAAAAAAAAAAAAAAAAAAAAAAAAAAAAAAAAAAAAAAAAAAAAAAAAAAAAAAAAAAAAAAAAAAAAAAAAAAAAAAAAAAAAAAAAAAAAAAAAAAAAAAAAAAAAAAAAAAAAAAAAAAAAAAAAAAAAAAAAAAAAAAAAAAAAAAAAAAAAAAAAAAAAAAAAAAAAAAAAAAAAAAAAAAAAAAAAAAAAAAAAAAAAAAAAAAAAAAAAAAAAAAAAAAAAAAAAAAAAAAAAAAAAAAAAAAAAAA
      AAAAAAAAAAAAAAAAAAAAAAAAAAAAAAAAAAAAAAAAAAAAAAAAAAAAAAAAAAAAAAAAAAAAAAAAAAAAAAAAAAAAAAAAAAAAAAAAAAAAAAAAAAAAAAAAAAAAAAAAAAAAAAAAAAAAAAAAAAAAAAAAAABkAAQAAAAAAAAAAAAAAACAPwAAgD8AAAAAAACAQgAAAAAAAIBCAACAQwAAAAAEAAAAACAAAAAAAAAAAAAAZAAAAEAAAAAoAAAAAAAAAEAAAAAAAAAAAAAAAAAgAAAAAAAAAAAA
      AGQAAABAAAAAKAAAAAAAAABAAAAAAAAAAAAAAAAAIAAAAAAAAAAAAABkAAAAQAAAACgAAAAAAAAAQAAAAAAAAAAAAAAAACAAAAAAAAAAAAAAZAAAAEAAAAAoAAAAAAAAAEAAAAAAAAAAAAAAAAAgAAAAAAAAAAAAAGQAAABAAAAAKAAAAAAAAABAAAAAAAAAAAAAAAAAIAAAAAAAAAAAAABkAAAAQAAAACgAAAAAAAAAQAAAAAAAAAAAAAAAACAAAAAAAAAAAAAAZAAAAEAAAAAo
      AAAAAAAAAEAAAAAAAAAAAAAAAAAgAAAAAAAAAAAAAGQAAABAAAAAKAAAAAAAAABAAAAAAAAAAAAAAAAAIAAAAAAAAAAAAABkAAAAQAAAACgAAAAAAAAAQAAAAAAAAAAAAAAAACAAAAAAAAAAAAAAZAAAAEAAAAAoAAAAAAAAAEAAAAAAAAAAAAAAAAAgAAAAAAAAAAAAAGQAAABAAAAAKAAAAAAAAABAAAAAAAAAAAAAAAAAIAAAAAAAAAAAAABkAAAAQAAAACgAAAAAAAAAQAAA
      AAAAAAAAAAAAACAAAAAAAAAAAAAAZAAAAEAAAAAoAAAAAAAAAEAAAAAAAAAAAAAAAAAgAAAAAAAAAAAAAGQAAABAAAAAKAAAAAAAAABAAAAAAAAAAAAAAAAAIAAAAAAAAAAAAABkAAAAQAAAACgAAAAAAAAAQAAAAAAAAAAAAAAAACAAAAAAAAAAAAAAZAAAAEAAAAAoAAAAAAAAAEAAAAAAAAAAAAA=
      AEJhc3NNaWRpABAAAAA=
    >
    PRESETNAME BassMidi
    FLOATPOS 0 0 0 0
    WAK 0 0
  >
  <UINF 76
    WNDRECT 23 51 855 480
    SHOW 0
    LASTSEL 0
    DOCKED 0
    BYPASS 0 0 0
    FXID_NEXT {501FF10E-E1ED-4759-A0AC-1CDAD4C0FDA6}
    <VST "VSTi: BassMidiVsti (Falcosoft)" BassMidiVsti.dll 0 "" 1112755524<56535442534D44626173736D69646976> ""
      RE1TQu5e7f4AAAAAAgAAAAEAAAAAAAAAAgAAAAAAAAD1DAAAAQAAAAAAEAA=
      RwA6AFwATQB5ACAARAByAGkAdgBlAFwATQB1AHMAaQBjACAAUAByAG8AZAB1AGMAdABpAG8AbgBcAFMAbwB1AG4AZABmAG8AbgB0AHMAXABFAHMAcwBlAG4AdABpAGEAbAAgAEsAZQB5AHMALQBzAGYAegBCAGEAbgBrAHMALQB2ADkALgA2AC4AcwBmADIAAAAAAAAAAAAAAAAAAAAAAAAAAAAAAAAAAAAAAAAAAAAAAAAAAAAAAAAAAAAAAAAAAAAAAAAAAAAAAAAAAAAAAAAA
      AAAAAAAAAAAAAAAAAAAAAAAAAAAAAAAAAAAAAAAAAAAAAAAAAAAAAAAAAAAAAAAAAAAAAAAAAAAAAAAAAAAAAAAAAAAAAAAAAAAAAAAAAAAAAAAAAAAAAAAAAAAAAAAAAAAAAAAAAAAAAAAAAAAAAAAAAAAAAAAAAAAAAAAAAAAAAAAAAAAAAAAAAAAAAAAAAAAAAAAAAAAAAAAAAAAAAAAAAAAAAAAAAAAAAAAAAAAAAAAAAAAAAAAAAAAAAAAAAAAAAAAAAAAAAAAAAAAAAAAA
      AAAAAAAAAAAAAAAAAAAAAAAAAAAAAAAAAAAAAAAAAAAAAAAAAAAAAAAAAAAAAAAAAAAAAAAAAAAAAAAAAAAAAAAAAAAAAAAAAAAAAAAAAAAAAAAAAAAAAAAAAAAAAAAAAAAAAAAAZAAAAAEAAAAAAAAAAAAAAAAAAAAAAAAAAAAAAAAAAAAAAAAAAAAAAAAAAAAAAAAAAAAAAAAAAAAAAAAAAAAAAAAAAAAAAAAAAAAAAAAAAAAAAAAAAAAAAAAAAAAAAAAAAAAAAAAAAAAAAAAA
      AAAAAAAAAAAAAAAAAAAAAAAAAAAAAAAAAAAAAAAAAAAAAAAAAAAAAAAAAAAAAAAAAAAAAAAAAAAAAAAAAAAAAAAAAAAAAAAAAAAAAAAAAAAAAAAAAAAAAAAAAAAAAAAAAAAAAAAAAAAAAAAAAAAAAAAAAAAAAAAAAAAAAAAAAAAAAAAAAAAAAAAAAAAAAAAAAAAAAAAAAAAAAAAAAAAAAAAAAAAAAAAAAAAAAAAAAAAAAAAAAAAAAAAAAAAAAAAAAAAAAAAAAAAAAAAAAAAAAAAA
      AAAAAAAAAAAAAAAAAAAAAAAAAAAAAAAAAAAAAAAAAAAAAAAAAAAAAAAAAAAAAAAAAAAAAAAAAAAAAAAAAAAAAAAAAAAAAAAAAAAAAAAAAAAAAAAAAAAAAAAAAAAAAAAAAAAAAAAAAAAAAAAAAAAAAAAAAAAAAAAAAAAAAAAAAAAAAAAAAAAAAAAAAAAAAAAAAAAAAAAAAAAAAAAAAAAAAAAAAAAAAAAAAAAAAAAAAAAAAAAAAAAAAAAAAAAAAAAAAAAAAAAAAAAAAAAAAAAAAABk
      AAEAAAAAAAAAAAAAAAAAAAAAAAAAAAAAAAAAAAAAAAAAAAAAAAAAAAAAAAAAAAAAAAAAAAAAAAAAAAAAAAAAAAAAAAAAAAAAAAAAAAAAAAAAAAAAAAAAAAAAAAAAAAAAAAAAAAAAAAAAAAAAAAAAAAAAAAAAAAAAAAAAAAAAAAAAAAAAAAAAAAAAAAAAAAAAAAAAAAAAAAAAAAAAAAAAAAAAAAAAAAAAAAAAAAAAAAAAAAAAAAAAAAAAAAAAAAAAAAAAAAAAAAAAAAAAAAAAAAAA
      AAAAAAAAAAAAAAAAAAAAAAAAAAAAAAAAAAAAAAAAAAAAAAAAAAAAAAAAAAAAAAAAAAAAAAAAAAAAAAAAAAAAAAAAAAAAAAAAAAAAAAAAAAAAAAAAAAAAAAAAAAAAAAAAAAAAAAAAAAAAAAAAAAAAAAAAAAAAAAAAAAAAAAAAAAAAAAAAAAAAAAAAAAAAAAAAAAAAAAAAAAAAAAAAAAAAAAAAAAAAAAAAAAAAAAAAAAAAAAAAAAAAAAAAAAAAAAAAAAAAAAAAAAAAAAAAAAAAAAAA
      AAAAAAAAAAAAAAAAAAAAAAAAAAAAAAAAAAAAAAAAAAAAAAAAAAAAAAAAAAAAAAAAAAAAAAAAAAAAAAAAAAAAAAAAAAAAAAAAAAAAAAAAAAAAAAAAAAAAAAAAAAAAAAAAAAAAAAAAAAAAAGQAAgAAAAAAAAAAAAAAAAAAAAAAAAAAAAAAAAAAAAAAAAAAAAAAAAAAAAAAAAAAAAAAAAAAAAAAAAAAAAAAAAAAAAAAAAAAAAAAAAAAAAAAAAAAAAAAAAAAAAAAAAAAAAAAAAAAAAAA
      AAAAAAAAAAAAAAAAAAAAAAAAAAAAAAAAAAAAAAAAAAAAAAAAAAAAAAAAAAAAAAAAAAAAAAAAAAAAAAAAAAAAAAAAAAAAAAAAAAAAAAAAAAAAAAAAAAAAAAAAAAAAAAAAAAAAAAAAAAAAAAAAAAAAAAAAAAAAAAAAAAAAAAAAAAAAAAAAAAAAAAAAAAAAAAAAAAAAAAAAAAAAAAAAAAAAAAAAAAAAAAAAAAAAAAAAAAAAAAAAAAAAAAAAAAAAAAAAAAAAAAAAAAAAAAAAAAAAAAAA
      AAAAAAAAAAAAAAAAAAAAAAAAAAAAAAAAAAAAAAAAAAAAAAAAAAAAAAAAAAAAAAAAAAAAAAAAAAAAAAAAAAAAAAAAAAAAAAAAAAAAAAAAAAAAAAAAAAAAAAAAAAAAAAAAAAAAAAAAAAAAAAAAAAAAAAAAAAAAAAAAAAAAAAAAAAAAAAAAAAAAAAAAAAAAAAAAAAAAAAAAAAAAAAAAAAAAAAAAAAAAAAAAAAAAAAAAAAAAAAAAAAAAAAAAAAAAAAAAAAAAAAAAAAAAAAAAAAAAAAAA
      AAAAZAADAAAAAAAAAAAAAAAAAAAAAAAAAAAAAAAAAAAAAAAAAAAAAAAAAAAAAAAAAAAAAAAAAAAAAAAAAAAAAAAAAAAAAAAAAAAAAAAAAAAAAAAAAAAAAAAAAAAAAAAAAAAAAAAAAAAAAAAAAAAAAAAAAAAAAAAAAAAAAAAAAAAAAAAAAAAAAAAAAAAAAAAAAAAAAAAAAAAAAAAAAAAAAAAAAAAAAAAAAAAAAAAAAAAAAAAAAAAAAAAAAAAAAAAAAAAAAAAAAAAAAAAAAAAAAAAA
      AAAAAAAAAAAAAAAAAAAAAAAAAAAAAAAAAAAAAAAAAAAAAAAAAAAAAAAAAAAAAAAAAAAAAAAAAAAAAAAAAAAAAAAAAAAAAAAAAAAAAAAAAAAAAAAAAAAAAAAAAAAAAAAAAAAAAAAAAAAAAAAAAAAAAAAAAAAAAAAAAAAAAAAAAAAAAAAAAAAAAAAAAAAAAAAAAAAAAAAAAAAAAAAAAAAAAAAAAAAAAAAAAAAAAAAAAAAAAAAAAAAAAAAAAAAAAAAAAAAAAAAAAAAAAAAAAAAAAAAA
      AAAAAAAAAAAAAAAAAAAAAAAAAAAAAAAAAAAAAAAAAAAAAAAAAAAAAAAAAAAAAAAAAAAAAAAAAAAAAAAAAAAAAAAAAAAAAAAAAAAAAAAAAAAAAAAAAAAAAAAAAAAAAAAAAAAAAAAAAAAAAAAAAABkAAQAAAAAAAAAAAAAAACAPwAAgD8AAAAAAACAQgAAAAAAAIBCAACAQwAAAAAAAAAAACAAAAAAAAAAAAAAZAAAAEAAAAAoAAAAAAAAAEAAAAAAAAAAAAAAAAAgAAAAAAAAAAAA
      AGQAAABAAAAAKAAAAAAAAABAAAAAAAAAAAAAAAAAIAAAAAAAAAAAAABkAAAAQAAAACgAAAAAAAAAQAAAAAAAAAAAAAAAACAAAAAAAAAAAAAAZAAAAEAAAAAoAAAAAAAAAEAAAAAAAAAAAAAAAAAgAAAAAAAAAAAAAGQAAABAAAAAKAAAAAAAAABAAAAAAAAAAAAAAAAAIAAAAAAAAAAAAABkAAAAQAAAACgAAAAAAAAAQAAAAAAAAAAAAAAAACAAAAAAAAAAAAAAZAAAAEAAAAAo
      AAAAAAAAAEAAAAAAAAAAAAAAAAAgAAAAAAAAAAAAAGQAAABAAAAAKAAAAAAAAABAAAAAAAAAAAAAAAAAIAAAAAAAAAAAAABkAAAAQAAAACgAAAAAAAAAQAAAAAAAAAAAAAAAACAAAAAAAAAAAAAAZAAAAEAAAAAoAAAAAAAAAEAAAAAAAAAAAAAAAAAgAAAAAAAAAAAAAGQAAABAAAAAKAAAAAAAAABAAAAAAAAAAAAAAAAAIAAAAAAAAAAAAABkAAAAQAAAACgAAAAAAAAAQAAA
      AAAAAAAAAAAAACAAAAAAAAAAAAAAZAAAAEAAAAAoAAAAAAAAAEAAAAAAAAAAAAAAAAAgAAAAAAAAAAAAAGQAAABAAAAAKAAAAAAAAABAAAAAAAAAAAAAAAAAIAAAAAAAAAAAAABkAAAAQAAAACgAAAAAAAAAQAAAAAAAAAAAAAAAACAAAAAAAAAAAAAAZAAAAEAAAAAoAAAAAAAAAEAAAAAAAAAAAAA=
      AEJhc3NNaWRpABAAAAA=
    >
    PRESETNAME BassMidi
    FLOATPOS 0 0 0 0
    WAK 0 0
  >
  <UINF 77
    <TRACK {C11D002C-F0F0-4D5E-9781-EDB846A46007}
      NAME "Beethoven - Fur Elise"
      PEAKCOL 33554431
      BEAT -1
      AUTOMODE 0
      VOLPAN 1 0 -1 -1 1
      MUTESOLO 0 0 0
      IPHASE 0
      PLAYOFFS 0 1
      ISBUS 1 1
      BUSCOMP 0 0 0 0 0
      SHOWINMIX 1 0.6667 0.5 1 0.5 -1 -1 -1
      REC 0 0 1 0 0 0 0 0
      VU 2
      TRACKHEIGHT 0 0 0 0 0 0
      INQ 0 0 0 0.5 100 0 0 100
      NCHAN 2
      FX 1
      TRACKID {C11D002C-F0F0-4D5E-9781-EDB846A46007}
      PERF 0
      UNDO_HAS_TRACKENV
      MIDIOUT -1
      MAINSEND 1 0
    >
  >
  <UINF 78
    <TRACK {366EF5EC-5D90-41FC-99A1-C30B43BD3006}
      NAME "Nov26 (Preprocessed data)"
      PEAKCOL 32334866
      BEAT -1
      AUTOMODE 0
      VOLPAN 1 0 -1 -1 1
      MUTESOLO 0 2 0
      IPHASE 0
      PLAYOFFS 0 1
      ISBUS 0 0
      BUSCOMP 0 0 0 0 0
      SHOWINMIX 1 0.6667 0.5 1 0.5 -1 -1 -1
      REC 0 0 1 0 0 0 0 0
      VU 2
      TRACKHEIGHT 0 0 0 0 0 0
      INQ 0 0 0 0.5 100 0 0 100
      NCHAN 2
      FX 1
      TRACKID {366EF5EC-5D90-41FC-99A1-C30B43BD3006}
      PERF 0
      UNDO_HAS_TRACKENV
      MIDIOUT -1
      MAINSEND 1 0
    >
  >
  <UINF 79
    <ITEM {FB286395-DD9A-4FE1-88FF-35808ACF135C}
      POSITION 0
      SNAPOFFS 0
      LENGTH 85.5
      LOOP 1
      ALLTAKES 0
      FADEIN 1 0 0 1 0 0 0
      FADEOUT 1 0 0 1 0 0 0
      MUTE 0 0
      SEL 1
      IGUID {FB286395-DD9A-4FE1-88FF-35808ACF135C}
      IID 125
      NAME wii_music_basic_pitch.mid
      VOLPAN 1 0 1 -1
      SOFFS 0 0
      PLAYRATE 1 1 0 -1 0 0.0025
      CHANMODE 0
      GUID {A75612AE-8A1D-4A1D-B4D1-0942B4FB2425}
      <SOURCE MIDI
        HASDATA 1 220 QN
        CCINTERP 32
        POOLEDEVTS {EFB04DA2-C75C-4982-A20E-91329AB6DE5D}
        E 0 c0 04 00
        E 1155 e0 2b 15
        E 0 90 38 22
        E 5 e0 2b 15
        E 6 e0 2b 15
        E 5 e0 2b 15
        E 5 e0 2b 15
        E 6 e0 2b 15
        E 5 e0 2b 15
        E 5 e0 2b 15
        E 6 e0 00 20
        E 5 e0 00 20
        E 5 e0 00 20
        E 6 e0 00 20
        E 5 e0 00 20
        E 5 e0 00 20
        E 5 e0 00 20
        E 6 e0 00 20
        E 5 e0 00 20
        E 5 e0 55 2a
        E 6 e0 55 2a
        E 5 e0 00 20
        E 5 e0 00 20
        E 6 e0 2b 15
        E 5 e0 2b 15
        E 5 e0 2b 15
        E 6 e0 2b 15
        E 5 e0 2b 15
        E 0 90 38 00
        E 3568 e0 00 20
        E 0 90 49 27
        E 5 e0 2b 15
        E 6 e0 2b 15
        E 5 e0 2b 75
        E 6 e0 2b 75
        E 5 e0 00 20
        E 5 e0 00 20
        E 6 e0 00 20
        E 5 e0 00 20
        E 6 e0 00 20
        E 5 e0 00 20
        E 5 e0 00 20
        E 6 e0 00 20
        E 5 e0 00 20
        E 6 e0 00 20
        E 5 e0 00 20
        E 6 e0 2b 15
        E 0 90 49 00
        E 623 e0 55 2a
        E 0 90 1a 2e
        E 6 e0 55 2a
        E 5 e0 55 2a
        E 6 e0 55 2a
        E 5 e0 55 2a
        E 6 e0 55 2a
        E 5 e0 55 2a
        E 6 e0 55 2a
        E 5 e0 00 20
        E 5 e0 00 20
        E 6 e0 00 20
        E 5 e0 00 20
        E 6 e0 00 20
        E 5 e0 2b 15
        E 6 e0 2b 15
        E 5 e0 2b 15
        E 0 90 1a 00
        E 624 e0 00 20
        E 0 90 1a 23
        E 5 e0 00 20
        E 6 e0 00 20
        E 6 e0 00 20
        E 5 e0 00 20
        E 6 e0 00 20
        E 5 e0 00 20
        E 6 e0 2b 15
        E 5 e0 2b 15
        E 6 e0 2b 15
        E 5 e0 2b 15
        E 6 e0 2b 15
        E 5 e0 2b 15
        E 0 90 1a 00
        E 946 90 3e 27
        E 5 90 3a 29
        E 72 90 3a 00
        E 76 90 3e 00
        E 82 e0 2b 35
        E 0 90 3d 30
        E 5 e0 2b 35
        E 6 e0 2b 35
        E 5 e0 55 2a
        E 6 e0 55 2a
        E 5 e0 55 2a
        E 5 e0 55 2a
        E 6 e0 55 2a
        E 5 e0 55 2a
        E 5 e0 00 20
        E 6 e0 00 20
        E 5 e0 00 20
        E 6 e0 00 20
        E 5 e0 00 20
        E 5 e0 00 20
        E 6 e0 00 20
        E 5 e0 00 20
        E 6 e0 00 20
        E 5 e0 00 20
        E 0 90 3d 00
        E 1876 e0 00 20
        E 0 90 3e 27
        E 5 e0 00 20
        E 6 e0 00 20
        E 5 e0 00 20
        E 6 e0 00 20
        E 5 e0 00 20
        E 6 e0 00 20
        E 5 e0 00 20
        E 6 e0 00 20
        E 5 e0 00 20
        E 5 e0 00 20
        E 6 e0 00 20
        E 5 e0 00 20
        E 6 e0 00 20
        E 5 e0 00 20
        E 6 e0 00 20
        E 0 90 3e 00
        E 30 90 42 1e
        E 113 90 45 25
        E 5 90 42 00
        E 82 90 45 00
        E 2536 e0 55 2a
        E 0 90 1a 2b
        E 5 e0 55 2a
        E 6 e0 55 2a
        E 5 e0 00 20
        E 6 e0 00 20
        E 5 e0 00 20
        E 6 e0 00 20
        E 5 e0 00 20
        E 6 e0 00 20
        E 5 e0 00 20
        E 6 e0 00 20
        E 5 e0 00 20
        E 6 e0 00 20
        E 0 90 1a 00
        E 664 e0 00 40
        E 0 90 3d 2b
        E 5 e0 00 40
        E 5 e0 2b 35
        E 6 e0 55 2a
        E 5 e0 00 20
        E 5 e0 00 20
        E 5 e0 00 20
        E 5 e0 00 20
        E 5 e0 00 20
        E 5 e0 55 2a
        E 6 e0 55 2a
        E 5 e0 55 2a
        E 5 e0 55 2a
        E 0 90 3d 00
        E 766 e0 2b 35
        E 0 90 52 3e
        E 6 e0 55 2a
        E 5 e0 55 2a
        E 6 e0 55 2a
        E 5 e0 55 2a
        E 6 e0 55 2a
        E 5 e0 55 2a
        E 6 e0 55 2a
        E 5 e0 55 2a
        E 6 e0 55 2a
        E 6 e0 55 2a
        E 5 e0 55 2a
        E 6 e0 55 2a
        E 0 90 52 00
        E 26 e0 00 60
        E 0 90 3e 2c
        E 5 e0 55 6a
        E 6 e0 55 0a
        E 5 e0 55 0a
        E 6 e0 55 0a
        E 5 e0 2b 15
        E 6 e0 2b 15
        E 5 e0 2b 15
        E 6 e0 2b 15
        E 6 e0 2b 15
        E 5 e0 2b 15
        E 6 e0 2b 15
        E 5 e0 2b 15
        E 0 90 3e 00
        E 158 e0 2b 55
        E 0 90 3b 26
        E 6 e0 00 00
        E 5 e0 00 00
        E 6 e0 00 00
        E 5 e0 55 0a
        E 6 e0 55 0a
        E 5 e0 2b 15
        E 5 e0 2b 15
        E 6 e0 2b 15
        E 5 e0 2b 15
        E 6 e0 2b 15
        E 5 e0 2b 15
        E 6 e0 2b 15
        E 5 e0 2b 15
        E 5 e0 2b 15
        E 6 e0 2b 15
        E 5 e0 2b 15
        E 0 90 3b 00
        E 159 e0 00 60
        E 0 90 43 32
        E 5 e0 55 0a
        E 6 e0 00 00
        E 5 e0 55 0a
        E 6 e0 2b 15
        E 5 e0 2b 15
        E 6 e0 2b 15
        E 5 e0 2b 15
        E 5 e0 2b 15
        E 6 e0 2b 15
        E 5 e0 2b 15
        E 6 e0 2b 15
        E 5 e0 2b 15
        E 6 e0 2b 15
        E 5 e0 2b 15
        E 0 90 43 00
        E 3114 e0 00 60
        E 0 90 31 2f
        E 5 e0 00 20
        E 6 e0 00 20
        E 5 e0 00 20
        E 6 e0 55 6a
        E 5 e0 55 6a
        E 6 e0 00 20
        E 5 e0 55 2a
        E 6 e0 55 2a
        E 5 e0 55 2a
        E 6 e0 55 2a
        E 5 e0 55 2a
        E 6 e0 55 2a
        E 0 90 31 00
        E 291 e0 2b 55
        E 0 90 2d 2c
        E 6 e0 2b 55
        E 5 e0 00 20
        E 6 e0 00 20
        E 5 e0 00 20
        E 6 e0 00 20
        E 5 e0 00 20
        E 6 e0 00 20
        E 5 e0 00 20
        E 6 e0 00 20
        E 5 e0 00 20
        E 6 e0 00 20
        E 6 e0 00 20
        E 0 90 2d 00
        E 853 e0 2b 55
        E 0 90 2d 2d
        E 6 e0 2b 55
        E 5 e0 00 20
        E 5 e0 00 20
        E 6 e0 00 20
        E 5 e0 00 20
        E 5 e0 00 20
        E 6 e0 00 20
        E 5 e0 00 20
        E 6 e0 00 20
        E 5 e0 00 20
        E 5 e0 00 20
        E 6 e0 00 20
        E 5 e0 00 20
        E 6 e0 00 20
        E 5 e0 00 20
        E 5 e0 00 20
        E 6 e0 00 20
        E 5 e0 00 20
        E 5 e0 00 20
        E 0 90 2d 00
        E 1371 e0 55 2a
        E 0 90 29 3c
        E 5 e0 55 2a
        E 6 e0 00 20
        E 5 e0 00 20
        E 6 e0 00 20
        E 5 e0 00 20
        E 6 e0 00 20
        E 6 e0 00 20
        E 5 e0 00 20
        E 6 e0 00 20
        E 5 e0 00 20
        E 6 e0 00 20
        E 0 90 29 00
        E 1717 e0 00 40
        E 0 90 1b 2d
        E 6 e0 2b 35
        E 5 e0 2b 35
        E 6 e0 2b 35
        E 6 e0 55 2a
        E 5 e0 55 2a
        E 6 e0 00 20
        E 5 e0 00 20
        E 6 e0 00 20
        E 5 e0 00 20
        E 6 e0 00 20
        E 5 e0 00 20
        E 6 e0 00 20
        E 0 90 1b 00
        E 542 e0 55 2a
        E 0 90 31 19
        E 5 e0 2b 75
        E 5 e0 2b 75
        E 5 e0 2b 75
        E 6 e0 2b 75
        E 5 e0 2b 75
        E 5 e0 2b 75
        E 5 e0 2b 75
        E 5 e0 2b 75
        E 6 e0 2b 75
        E 5 e0 00 20
        E 5 e0 00 20
        E 5 e0 00 20
        E 5 e0 00 20
        E 6 e0 00 20
        E 5 e0 2b 75
        E 5 e0 2b 75
        E 5 e0 00 20
        E 5 e0 00 20
        E 6 e0 00 20
        E 5 e0 00 20
        E 5 e0 55 6a
        E 5 e0 55 6a
        E 5 e0 2b 75
        E 6 e0 2b 75
        E 5 e0 2b 75
        E 5 e0 2b 75
        E 5 e0 2b 75
        E 5 e0 2b 75
        E 5 e0 2b 75
        E 6 e0 2b 75
        E 5 e0 2b 75
        E 5 e0 2b 75
        E 5 e0 2b 75
        E 5 e0 00 20
        E 6 e0 00 20
        E 5 e0 00 20
        E 5 e0 00 20
        E 5 e0 2b 75
        E 5 e0 00 20
        E 6 e0 00 20
        E 5 e0 00 20
        E 5 e0 00 20
        E 5 e0 55 6a
        E 5 e0 55 6a
        E 6 e0 55 6a
        E 5 e0 55 6a
        E 5 e0 2b 75
        E 5 e0 2b 75
        E 5 e0 2b 75
        E 5 e0 2b 75
        E 6 e0 2b 75
        E 5 e0 2b 75
        E 5 e0 2b 75
        E 5 e0 2b 75
        E 5 e0 2b 75
        E 6 e0 00 20
        E 5 e0 00 20
        E 5 e0 00 20
        E 5 e0 00 20
        E 5 e0 00 20
        E 6 e0 00 20
        E 0 90 31 00
        E 1927 e0 00 20
        E 0 90 1b 25
        E 5 e0 00 20
        E 6 e0 00 20
        E 5 e0 00 20
        E 6 e0 00 20
        E 5 e0 00 20
        E 6 e0 00 20
        E 6 e0 00 20
        E 5 e0 00 20
        E 6 e0 00 20
        E 5 e0 00 20
        E 6 e0 00 20
        E 0 90 1b 00
        E 3634 e0 55 2a
        E 0 90 1a 2c
        E 6 e0 55 2a
        E 5 e0 55 2a
        E 5 e0 55 2a
        E 6 e0 55 2a
        E 5 e0 55 2a
        E 5 e0 55 2a
        E 6 e0 00 20
        E 5 e0 00 20
        E 5 e0 00 20
        E 6 e0 00 20
        E 5 e0 00 20
        E 5 e0 00 20
        E 6 e0 00 20
        E 5 e0 00 20
        E 5 e0 00 20
        E 6 e0 00 20
        E 5 e0 00 20
        E 5 e0 00 20
        E 6 e0 00 20
        E 5 e0 00 20
        E 5 e0 00 20
        E 6 e0 00 20
        E 0 90 1a 00
        E 1600 90 3e 2e
        E 5 90 3a 25
        E 71 90 3e 00
        E 6 90 3a 00
        E 148 90 3d 2e
        E 31 90 2d 20
        E 66 90 2d 00
        E 0 90 3d 00
        E 261 e0 55 6a
        E 0 90 45 23
        E 5 e0 55 6a
        E 6 e0 00 20
        E 5 e0 00 20
        E 6 e0 00 20
        E 5 e0 00 20
        E 6 e0 00 20
        E 5 e0 00 20
        E 5 e0 00 20
        E 6 e0 00 20
        E 5 e0 00 20
        E 6 e0 00 20
        E 5 e0 00 20
        E 6 e0 00 20
        E 5 e0 2b 15
        E 6 e0 2b 15
        E 0 90 45 00
        E 1533 e0 00 20
        E 0 90 3e 26
        E 6 e0 2b 15
        E 5 e0 00 20
        E 6 e0 00 20
        E 5 e0 00 20
        E 5 e0 00 20
        E 6 e0 00 20
        E 5 e0 00 20
        E 6 e0 00 20
        E 5 e0 00 20
        E 6 e0 00 20
        E 5 e0 00 20
        E 6 e0 00 20
        E 5 e0 00 20
        E 5 e0 00 20
        E 6 e0 00 20
        E 0 90 3e 00
        E 31 e0 00 20
        E 0 90 42 1f
        E 5 e0 00 20
        E 5 e0 00 20
        E 6 e0 00 20
        E 5 e0 00 20
        E 5 e0 00 20
        E 6 e0 00 20
        E 5 e0 00 20
        E 5 e0 00 20
        E 6 e0 00 20
        E 5 e0 00 20
        E 5 e0 00 20
        E 6 e0 00 20
        E 5 e0 00 20
        E 5 e0 00 20
        E 6 e0 00 20
        E 5 e0 00 20
        E 5 e0 00 20
        E 6 e0 00 20
        E 5 e0 00 20
        E 5 e0 00 20
        E 6 e0 00 20
        E 5 e0 00 20
        E 5 e0 00 20
        E 0 90 42 00
        E 445 e0 2b 55
        E 0 90 3e 35
        E 6 e0 55 2a
        E 5 e0 00 20
        E 6 e0 00 20
        E 5 e0 2b 15
        E 6 e0 2b 15
        E 6 e0 00 20
        E 5 e0 00 20
        E 6 e0 00 20
        E 5 e0 00 20
        E 6 e0 00 20
        E 5 e0 00 20
        E 0 90 3e 00
        E 1217 e0 00 20
        E 0 90 2b 1a
        E 5 e0 00 20
        E 6 e0 00 20
        E 5 e0 55 2a
        E 6 e0 00 20
        E 5 e0 00 20
        E 6 e0 00 20
        E 5 e0 00 20
        E 6 e0 00 20
        E 5 e0 00 20
        E 6 e0 00 20
        E 5 e0 00 20
        E 6 e0 00 20
        E 5 e0 00 20
        E 0 90 2b 00
        E 1554 e0 00 40
        E 0 90 3d 2d
        E 6 e0 2b 35
        E 6 e0 55 2a
        E 5 e0 00 20
        E 6 e0 00 20
        E 5 e0 00 20
        E 6 e0 00 20
        E 5 e0 00 20
        E 6 e0 55 2a
        E 6 e0 55 2a
        E 5 e0 55 2a
        E 6 e0 55 2a
        E 0 90 3d 00
        E 761 e0 55 2a
        E 0 90 52 40
        E 6 e0 55 2a
        E 6 e0 55 2a
        E 5 e0 55 2a
        E 6 e0 55 2a
        E 5 e0 55 2a
        E 6 e0 55 2a
        E 5 e0 55 2a
        E 6 e0 55 2a
        E 5 e0 55 2a
        E 6 e0 55 2a
        E 5 e0 55 2a
        E 6 e0 55 2a
        E 0 90 52 00
        E 41 e0 55 0a
        E 0 90 3e 26
        E 5 e0 55 0a
        E 6 e0 2b 15
        E 5 e0 2b 15
        E 6 e0 2b 15
        E 6 e0 2b 15
        E 5 e0 2b 15
        E 6 e0 2b 15
        E 5 e0 2b 15
        E 6 e0 2b 15
        E 5 e0 2b 15
        E 6 e0 2b 15
        E 0 90 3e 00
        E 291 e0 55 2a
        E 0 90 4e 2d
        E 5 e0 00 20
        E 5 e0 00 20
        E 6 e0 00 20
        E 5 e0 00 20
        E 5 e0 00 20
        E 5 e0 00 20
        E 5 e0 00 20
        E 5 e0 00 20
        E 5 e0 00 20
        E 6 e0 00 20
        E 5 e0 00 20
        E 5 e0 00 20
        E 5 e0 00 20
        E 5 e0 00 20
        E 5 e0 00 20
        E 6 e0 00 20
        E 0 90 4e 00
        E 23 b0 7b 00
        CCINTERP 32
        CHASE_CC_TAKEOFFS 1
        GUID {F15C6C37-F9E1-48F8-BF0C-649B7B1FB5BD}
        IGNTEMPO 0 120 4 4
        SRCCOLOR 204
      >
    >
  >
  <UINF 80
    <ITEM {FB286395-DD9A-4FE1-88FF-35808ACF135C}
      POSITION 0
      SNAPOFFS 0
      LENGTH 85.5
      LOOP 0
      ALLTAKES 0
      FADEIN 1 0 0 1 0 0 0
      FADEOUT 1 0 0 1 0 0 0
      MUTE 0 0
      SEL 1
      IGUID {FB286395-DD9A-4FE1-88FF-35808ACF135C}
      IID 125
      NAME wii_music_basic_pitch.mid
      VOLPAN 1 0 1 -1
      SOFFS 0 0
      PLAYRATE 1 1 0 -1 0 0.0025
      CHANMODE 0
      GUID {A75612AE-8A1D-4A1D-B4D1-0942B4FB2425}
      <SOURCE MIDI
        HASDATA 1 220 QN
        CCINTERP 32
        POOLEDEVTS {E483D374-BF50-4623-B246-3B969CD38CE8}
        E 0 c0 04 00
        E 1145 e0 2b 15
        E 0 90 38 25
        E 5 e0 00 00
        E 5 e0 55 0a
        E 6 e0 00 20
        E 5 e0 00 20
        E 5 e0 00 20
        E 6 e0 00 20
        E 5 e0 00 20
        E 5 e0 00 20
        E 6 e0 00 20
        E 5 e0 00 20
        E 5 e0 00 20
        E 6 e0 55 2a
        E 5 e0 55 2a
        E 5 e0 55 2a
        E 6 e0 55 2a
        E 5 e0 00 20
        E 5 e0 00 20
        E 5 e0 00 20
        E 6 e0 00 20
        E 5 e0 00 20
        E 5 e0 00 20
        E 6 e0 2b 15
        E 5 e0 55 0a
        E 5 e0 00 00
        E 6 e0 55 0a
        E 0 90 38 00
        E 6241 e0 00 40
        E 0 90 3d 2b
        E 5 e0 00 40
        E 6 e0 55 2a
        E 5 e0 00 20
        E 5 e0 00 20
        E 6 e0 00 20
        E 5 e0 00 20
        E 6 e0 00 20
        E 5 e0 00 20
        E 5 e0 00 20
        E 6 e0 00 20
        E 5 e0 00 20
        E 5 e0 00 20
        E 6 e0 00 20
        E 5 e0 00 20
        E 5 e0 00 20
        E 6 e0 00 20
        E 5 e0 00 20
        E 6 e0 00 20
        E 5 e0 00 20
        E 5 e0 00 20
        E 0 90 3d 00
        E 1978 e0 00 20
        E 0 90 42 29
        E 5 e0 00 20
        E 6 e0 00 20
        E 5 e0 00 20
        E 5 e0 00 20
        E 5 e0 55 2a
        E 5 e0 55 2a
        E 5 e0 55 2a
        E 6 e0 00 20
        E 5 e0 00 20
        E 5 e0 00 20
        E 5 e0 00 20
        E 5 e0 00 20
        E 0 90 42 00
        E 2479 e0 55 2a
        E 0 90 32 1b
        E 5 e0 7f 7f
        E 5 e0 7f 7f
        E 5 e0 7f 7f
        E 5 e0 00 20
        E 6 e0 00 20
        E 5 e0 00 20
        E 5 e0 00 20
        E 5 e0 00 20
        E 5 e0 00 20
        E 5 e0 00 20
        E 5 e0 00 20
        E 5 e0 00 20
        E 6 e0 00 20
        E 5 e0 00 20
        E 5 e0 00 20
        E 5 e0 00 20
        E 5 e0 00 20
        E 5 e0 00 20
        E 5 e0 00 20
        E 6 e0 00 20
        E 5 e0 00 20
        E 5 e0 00 20
        E 5 e0 00 20
        E 5 e0 00 20
        E 0 90 32 00
        E 225 e0 2b 15
        E 0 90 2b 29
        E 5 e0 00 20
        E 6 e0 00 20
        E 5 e0 00 20
        E 6 e0 00 20
        E 5 e0 00 20
        E 5 e0 00 20
        E 6 e0 00 20
        E 5 e0 00 20
        E 6 e0 00 20
        E 5 e0 00 20
        E 6 e0 00 20
        E 5 e0 00 20
        E 5 e0 00 20
        E 6 e0 00 20
        E 5 e0 00 20
        E 6 e0 00 20
        E 0 90 2b 00
        E 495 e0 55 0a
        E 0 90 3d 1d
        E 5 e0 55 2a
        E 5 e0 55 2a
        E 6 e0 00 20
        E 5 e0 00 20
        E 5 e0 00 20
        E 5 e0 00 20
        E 5 e0 55 2a
        E 5 e0 55 2a
        E 6 e0 2b 75
        E 5 e0 00 20
        E 5 e0 00 20
        E 0 90 3d 00
        E 3644 e0 00 00
        E 0 90 2d 1c
        E 6 e0 55 0a
        E 5 e0 55 0a
        E 5 e0 00 20
        E 6 e0 00 20
        E 5 e0 00 20
        E 5 e0 00 20
        E 6 e0 00 20
        E 5 e0 00 20
        E 5 e0 00 20
        E 6 e0 00 20
        E 5 e0 00 20
        E 5 e0 00 20
        E 6 e0 00 20
        E 5 e0 00 20
        E 5 e0 00 20
        E 6 e0 00 20
        E 5 e0 00 20
        E 5 e0 00 20
        E 6 e0 00 20
        E 5 e0 00 20
        E 5 e0 00 20
        E 6 e0 55 4a
        E 5 e0 55 4a
        E 5 e0 00 20
        E 0 90 2d 00
        E 1135 90 3a 3e
        E 10 90 2d 30
        E 56 90 3a 00
        E 10 90 2d 00
        E 859 e0 55 0a
        E 0 90 2d 33
        E 6 e0 55 0a
        E 5 e0 00 00
        E 6 e0 00 20
        E 5 e0 00 20
        E 6 e0 00 20
        E 6 e0 00 20
        E 5 e0 00 20
        E 6 e0 00 20
        E 5 e0 00 20
        E 6 e0 00 20
        E 6 e0 00 20
        E 0 90 2d 00
        E 3992 e0 00 40
        E 0 90 31 1b
        E 6 e0 00 40
        E 5 e0 55 2a
        E 6 e0 00 20
        E 5 e0 00 20
        E 6 e0 00 20
        E 5 e0 00 20
        E 6 e0 00 20
        E 5 e0 00 20
        E 6 e0 00 20
        E 5 e0 00 20
        E 6 e0 00 20
        E 5 e0 00 20
        E 0 90 31 00
        E 7581 e0 2b 35
        E 0 90 3d 2a
        E 6 e0 00 20
        E 5 e0 00 20
        E 5 e0 00 20
        E 6 e0 00 20
        E 5 e0 00 20
        E 5 e0 00 20
        E 6 e0 00 20
        E 5 e0 00 20
        E 5 e0 00 20
        E 6 e0 00 20
        E 5 e0 00 20
        E 6 e0 00 20
        E 5 e0 00 20
        E 5 e0 00 20
        E 6 e0 00 20
        E 5 e0 00 20
        E 5 e0 00 20
        E 6 e0 00 20
        E 5 e0 00 20
        E 5 e0 00 20
        E 0 90 3d 00
        E 1979 e0 2b 55
        E 0 90 42 1c
        E 5 e0 00 00
        E 5 e0 00 20
        E 6 e0 00 20
        E 5 e0 00 20
        E 5 e0 55 2a
        E 6 e0 55 2a
        E 5 e0 55 2a
        E 5 e0 00 20
        E 6 e0 00 20
        E 5 e0 00 20
        E 5 e0 00 20
        E 6 e0 00 20
        E 5 e0 00 20
        E 5 e0 00 20
        E 6 e0 00 20
        E 5 e0 00 20
        E 5 e0 00 20
        E 6 e0 00 20
        E 5 e0 00 20
        E 5 e0 00 20
        E 6 e0 00 20
        E 5 e0 00 20
        E 0 90 42 00
        E 1845 e0 2b 15
        E 0 90 2d 2d
        E 6 e0 2b 15
        E 5 e0 2b 15
        E 6 e0 2b 15
        E 5 e0 00 20
        E 6 e0 00 20
        E 6 e0 00 20
        E 5 e0 00 20
        E 6 e0 00 20
        E 5 e0 00 20
        E 6 e0 00 20
        E 5 e0 00 20
        E 6 e0 00 20
        E 0 90 2d 00
        E 629 e0 00 20
        E 0 90 42 26
        E 5 e0 00 20
        E 6 e0 00 20
        E 5 e0 00 20
        E 6 e0 55 2a
        E 5 e0 55 2a
        E 6 e0 55 2a
        E 6 e0 55 2a
        E 5 e0 55 2a
        E 6 e0 55 2a
        E 5 e0 55 2a
        E 6 e0 00 20
        E 0 90 42 00
        E 174 e0 55 0a
        E 0 90 2b 28
        E 5 e0 55 0a
        E 5 e0 2b 15
        E 6 e0 00 20
        E 5 e0 00 20
        E 6 e0 00 20
        E 5 e0 00 20
        E 6 e0 00 20
        E 5 e0 00 20
        E 5 e0 00 20
        E 6 e0 00 20
        E 5 e0 00 20
        E 6 e0 00 20
        E 5 e0 00 20
        E 6 e0 00 20
        E 5 e0 00 20
        E 5 e0 00 20
        E 0 90 2b 00
        E 1309 e0 00 20
        E 0 90 52 25
        E 6 e0 00 20
        E 5 e0 00 20
        E 6 e0 00 20
        E 6 e0 55 2a
        E 5 e0 55 2a
        E 6 e0 55 2a
        E 5 e0 00 20
        E 6 e0 00 20
        E 5 e0 00 20
        E 6 e0 00 20
        E 6 e0 00 20
        E 0 90 52 00
        E 69 b0 7b 00
        CCINTERP 32
        CHASE_CC_TAKEOFFS 1
        GUID {3075E613-0F17-404A-9325-23CE7A7EF61D}
        IGNTEMPO 0 120 4 4
        SRCCOLOR 206
      >
    >
  >
  <UINF 81
    <ITEM {7A03E217-B148-4FED-B5FC-C83459D96A22}
      POSITION 0
      SNAPOFFS 0
      LENGTH 86
      LOOP 1
      ALLTAKES 0
      FADEIN 1 0 0 1 0 0 0
      FADEOUT 1 0 0 1 0 0 0
      MUTE 0 0
      SEL 1
      IGUID {7A03E217-B148-4FED-B5FC-C83459D96A22}
      IID 126
      NAME wii_music_basic_pitch.mid
      VOLPAN 1 0 1 -1
      SOFFS 0 0
      PLAYRATE 1 1 0 -1 0 0.0025
      CHANMODE 0
      GUID {7D856434-367C-40C0-B4A7-9B043F024704}
      <SOURCE MIDI
        HASDATA 1 220 QN
        CCINTERP 32
        POOLEDEVTS {97689C33-C70C-42F0-AA5F-486A84296403}
        E 0 c0 04 00
        E 112 e0 2b 75
        E 0 90 2f 30
        E 6 e0 2b 75
        E 5 e0 2b 75
        E 5 e0 2b 75
        E 6 e0 2b 75
        E 5 e0 55 6a
        E 5 e0 55 6a
        E 6 e0 2b 15
        E 5 e0 2b 15
        E 5 e0 2b 15
        E 6 e0 2b 15
        E 5 e0 2b 15
        E 5 e0 2b 75
        E 5 e0 2b 75
        E 6 e0 2b 15
        E 5 e0 2b 15
        E 5 e0 2b 15
        E 6 e0 2b 15
        E 5 e0 2b 15
        E 5 e0 2b 15
        E 6 e0 55 6a
        E 5 e0 55 6a
        E 5 e0 55 6a
        E 6 e0 55 6a
        E 5 e0 55 6a
        E 5 e0 55 6a
        E 0 90 2f 00
        E 77 90 29 1b
        E 20 90 45 28
        E 113 90 29 00
        E 20 90 45 00
        E 430 90 2f 23
        E 5 90 42 33
        E 15 90 3e 1f
        E 46 90 42 00
        E 46 90 2c 2b
        E 21 90 32 24
        E 0 90 38 26
        E 0 90 3e 00
        E 0 90 3e 21
        E 5 90 2f 00
        E 92 90 25 14
        E 20 90 38 00
        E 0 90 38 2a
        E 0 90 3e 00
        E 0 90 3e 2a
        E 5 90 2c 00
        E 51 90 32 00
        E 41 90 2c 30
        E 5 90 32 31
        E 16 90 38 00
        E 0 90 38 2d
        E 15 90 3e 00
        E 25 90 25 00
        E 6 90 2c 00
        E 5 90 32 00
        E 10 90 38 00
        E 501 90 31 2c
        E 0 90 35 4f
        E 10 90 49 2c
        E 0 90 4d 1f
        E 51 90 35 00
        E 11 90 4d 00
        E 5 90 31 00
        E 5 90 49 00
        E 25 90 23 2f
        E 11 90 42 2d
        E 15 90 36 2e
        E 0 90 3e 25
        E 36 90 23 00
        E 76 90 3e 00
        E 0 90 3e 21
        E 10 90 42 00
        E 6 90 36 00
        E 92 90 45 32
        E 20 90 3e 00
        E 41 90 45 00
        E 527 90 3e 20
        E 97 90 38 2d
        E 5 90 40 2c
        E 0 90 42 20
        E 0 90 44 23
        E 15 90 49 2b
        E 0 90 55 25
        E 10 90 3e 00
        E 51 90 42 00
        E 0 90 55 00
        E 5 90 40 00
        E 16 90 4c 28
        E 10 90 49 00
        E 46 90 38 00
        E 77 90 38 23
        E 61 90 2c 20
        E 56 90 3c 1e
        E 5 90 48 23
        E 10 90 2c 00
        E 11 90 44 00
        E 0 90 4c 00
        E 15 90 38 00
        E 20 90 3f 26
        E 57 90 36 2e
        E 10 90 3c 00
        E 5 90 3f 00
        E 0 90 48 00
        E 117 90 36 00
        E 348 e0 2b 75
        E 0 90 2d 34
        E 6 e0 2b 75
        E 5 e0 55 6a
        E 5 e0 55 6a
        E 6 e0 55 6a
        E 5 e0 55 6a
        E 5 e0 2b 75
        E 5 e0 2b 75
        E 6 e0 2b 75
        E 5 e0 2b 75
        E 5 e0 2b 75
        E 6 e0 55 6a
        E 5 e0 2b 15
        E 5 e0 2b 15
        E 6 e0 2b 15
        E 5 e0 2b 15
        E 5 e0 2b 15
        E 6 e0 2b 15
        E 5 e0 55 6a
        E 5 e0 55 6a
        E 5 e0 55 6a
        E 6 e0 55 6a
        E 5 e0 55 6a
        E 5 e0 55 6a
        E 6 e0 55 6a
        E 5 e0 55 6a
        E 5 e0 55 6a
        E 0 90 2d 00
        E 102 e0 55 6a
        E 0 90 49 20
        E 6 e0 55 6a
        E 5 e0 55 6a
        E 6 e0 55 6a
        E 5 e0 55 6a
        E 6 e0 55 6a
        E 5 e0 55 6a
        E 6 e0 55 6a
        E 5 e0 00 20
        E 6 e0 00 20
        E 5 e0 55 6a
        E 6 e0 55 6a
        E 5 e0 2b 75
        E 6 e0 2b 75
        E 0 90 49 00
        E 271 e0 2b 15
        E 0 90 34 2c
        E 6 e0 2b 15
        E 5 e0 2b 15
        E 5 e0 2b 15
        E 6 e0 2b 15
        E 5 e0 2b 15
        E 6 e0 00 20
        E 5 e0 00 20
        E 6 e0 00 20
        E 5 e0 00 20
        E 5 e0 00 20
        E 6 e0 00 20
        E 5 e0 00 20
        E 6 e0 00 20
        E 5 e0 00 20
        E 5 e0 00 20
        E 6 e0 00 20
        E 5 e0 00 20
        E 0 90 34 00
        E 373 90 40 29
        E 0 90 49 2e
        E 82 90 49 00
        E 5 90 40 00
        E 112 90 2b 24
        E 16 90 43 37
        E 66 90 43 00
        E 46 90 42 35
        E 5 90 2b 00
        E 47 90 36 1f
        E 10 90 42 00
        E 61 90 36 00
        E 123 e0 2b 15
        E 0 90 40 2f
        E 5 e0 2b 15
        E 6 e0 2b 15
        E 5 e0 00 20
        E 5 e0 00 20
        E 6 e0 00 20
        E 5 e0 00 20
        E 6 e0 00 20
        E 5 e0 00 20
        E 6 e0 00 20
        E 5 e0 00 20
        E 5 e0 00 20
        E 6 e0 2b 15
        E 5 e0 2b 15
        E 6 e0 2b 15
        E 5 e0 2b 15
        E 5 e0 2b 15
        E 6 e0 2b 15
        E 0 90 40 00
        E 117 e0 00 60
        E 0 90 2d 26
        E 6 e0 00 60
        E 5 e0 00 60
        E 5 e0 00 60
        E 5 e0 00 60
        E 6 e0 55 6a
        E 5 e0 2b 15
        E 5 e0 2b 15
        E 6 e0 2b 15
        E 5 e0 2b 15
        E 5 e0 2b 75
        E 5 e0 2b 75
        E 6 e0 2b 75
        E 5 e0 2b 75
        E 5 e0 2b 75
        E 6 e0 2b 75
        E 5 e0 2b 75
        E 5 e0 2b 15
        E 6 e0 00 20
        E 5 e0 00 20
        E 5 e0 00 20
        E 5 e0 55 6a
        E 6 e0 55 6a
        E 5 e0 55 6a
        E 5 e0 55 6a
        E 6 e0 55 6a
        E 5 e0 00 60
        E 5 e0 00 60
        E 5 e0 00 60
        E 0 90 2d 00
        E 92 90 2d 2d
        E 5 90 3c 3d
        E 57 90 2d 00
        E 10 90 3c 00
        E 501 e0 2b 75
        E 0 90 2d 29
        E 5 e0 55 6a
        E 6 e0 00 20
        E 5 e0 00 20
        E 5 e0 2b 15
        E 5 e0 2b 15
        E 6 e0 2b 15
        E 5 e0 2b 15
        E 5 e0 2b 15
        E 5 e0 2b 15
        E 6 e0 2b 15
        E 5 e0 2b 75
        E 5 e0 2b 75
        E 5 e0 2b 75
        E 6 e0 2b 75
        E 5 e0 2b 75
        E 5 e0 2b 15
        E 5 e0 2b 15
        E 6 e0 00 20
        E 5 e0 00 20
        E 5 e0 00 20
        E 5 e0 00 20
        E 6 e0 00 60
        E 5 e0 00 60
        E 5 e0 00 60
        E 5 e0 00 60
        E 6 e0 00 60
        E 5 e0 2b 15
        E 5 e0 2b 15
        E 5 e0 2b 15
        E 6 e0 2b 15
        E 5 e0 2b 15
        E 5 e0 2b 15
        E 5 e0 2b 15
        E 6 e0 2b 15
        E 5 e0 2b 75
        E 0 90 2d 00
        E 51 e0 2b 15
        E 0 90 1a 24
        E 5 e0 2b 15
        E 6 e0 2b 15
        E 5 e0 00 20
        E 6 e0 00 20
        E 5 e0 00 20
        E 5 e0 00 20
        E 6 e0 00 20
        E 5 e0 2b 15
        E 5 e0 2b 15
        E 6 e0 2b 15
        E 5 e0 2b 15
        E 5 e0 2b 15
        E 6 e0 2b 15
        E 5 e0 2b 15
        E 6 e0 2b 15
        E 5 e0 2b 15
        E 5 e0 2b 15
        E 6 e0 2b 15
        E 5 e0 2b 15
        E 5 e0 2b 15
        E 0 90 1a 00
        E 251 e0 00 60
        E 0 90 52 22
        E 6 e0 00 20
        E 5 e0 00 20
        E 6 e0 00 20
        E 5 e0 00 20
        E 6 e0 00 20
        E 6 e0 00 20
        E 5 e0 00 20
        E 6 e0 00 20
        E 5 e0 00 20
        E 6 e0 00 20
        E 6 e0 00 20
        E 0 90 52 00
        E 158 90 30 2c
        E 5 90 27 2a
        E 0 90 3a 28
        E 0 90 3e 2b
        E 5 90 33 2b
        E 61 90 30 00
        E 41 90 27 00
        E 41 90 33 00
        E 10 90 3e 00
        E 21 90 3a 00
        E 51 90 32 23
        E 10 90 39 30
        E 0 90 3d 34
        E 102 90 39 00
        E 5 90 3d 00
        E 36 90 32 00
        E 210 e0 55 6a
        E 0 90 45 2c
        E 6 e0 55 6a
        E 5 e0 55 6a
        E 5 e0 00 20
        E 6 e0 00 20
        E 5 e0 00 20
        E 6 e0 00 20
        E 5 e0 00 20
        E 6 e0 00 20
        E 5 e0 00 20
        E 5 e0 00 20
        E 6 e0 00 20
        E 5 e0 00 20
        E 6 e0 2b 15
        E 5 e0 55 6a
        E 6 e0 55 6a
        E 5 e0 55 6a
        E 0 90 45 00
        E 358 90 3f 3a
        E 5 90 44 17
        E 0 90 46 21
        E 61 90 46 00
        E 10 90 3f 00
        E 46 90 32 28
        E 5 90 38 2d
        E 0 90 44 00
        E 5 90 40 1f
        E 41 90 3e 21
        E 51 90 2c 28
        E 16 90 32 00
        E 0 90 32 2a
        E 15 90 3e 00
        E 0 90 40 00
        E 15 90 38 00
        E 92 90 32 00
        E 0 90 32 36
        E 46 90 2c 00
        E 77 90 32 00
        E 685 90 42 26
        E 5 90 3e 27
        E 97 90 26 1f
        E 0 90 2a 25
        E 0 90 2d 21
        E 10 90 45 2c
        E 5 90 3e 00
        E 0 90 3e 17
        E 6 90 39 2f
        E 0 90 42 00
        E 0 90 42 2e
        E 102 90 26 00
        E 0 90 49 2f
        E 5 90 3d 37
        E 0 90 3e 00
        E 5 90 45 00
        E 0 90 45 2d
        E 6 90 2a 00
        E 0 90 2d 00
        E 0 90 42 00
        E 10 90 39 00
        E 56 90 49 00
        E 10 90 3d 00
        E 0 90 45 00
        E 133 e0 2b 75
        E 0 90 42 3e
        E 6 e0 2b 75
        E 5 e0 2b 75
        E 6 e0 2b 75
        E 5 e0 2b 75
        E 6 e0 2b 75
        E 5 e0 00 20
        E 6 e0 00 20
        E 5 e0 00 20
        E 6 e0 00 20
        E 5 e0 2b 15
        E 6 e0 2b 15
        E 5 e0 2b 15
        E 0 90 42 00
        E 184 90 3e 24
        E 97 90 38 2a
        E 6 90 44 36
        E 15 90 40 20
        E 5 90 3e 00
        E 61 90 44 00
        E 62 90 44 1f
        E 67 90 44 00
        E 5 90 40 00
        E 0 90 40 23
        E 51 90 53 18
        E 15 90 40 00
        E 15 90 38 00
        E 0 90 40 2c
        E 5 90 38 30
        E 52 90 53 00
        E 46 90 40 00
        E 5 90 38 00
        E 46 90 42 21
        E 5 90 36 2f
        E 0 90 3e 37
        E 0 90 4a 2d
        E 5 90 47 25
        E 56 90 36 00
        E 0 90 4a 00
        E 5 90 3e 00
        E 56 90 42 00
        E 11 90 47 00
        E 680 90 21 34
        E 10 90 3d 2d
        E 5 90 2d 31
        E 66 90 3d 00
        E 36 90 2d 00
        E 20 90 21 00
        E 445 90 26 2d
        E 10 90 32 2b
        E 133 90 26 00
        E 36 90 32 00
        E 153 90 1f 29
        E 26 90 2b 32
        E 148 90 2b 00
        E 77 90 1f 00
        E 112 e0 55 6a
        E 0 90 41 24
        E 5 e0 55 6a
        E 6 e0 55 6a
        E 5 e0 00 20
        E 5 e0 00 20
        E 6 e0 00 20
        E 5 e0 00 20
        E 5 e0 00 20
        E 6 e0 00 20
        E 5 e0 00 20
        E 5 e0 00 20
        E 6 e0 00 20
        E 5 e0 00 20
        E 5 e0 00 20
        E 6 e0 00 20
        E 5 e0 00 20
        E 5 e0 00 20
        E 6 e0 00 20
        E 5 e0 00 20
        E 5 e0 00 20
        E 5 e0 00 20
        E 6 e0 00 20
        E 5 e0 00 20
        E 5 e0 00 20
        E 6 e0 00 20
        E 5 e0 00 20
        E 0 90 41 00
        E 97 90 39 3b
        E 15 90 3d 22
        E 11 90 2f 1d
        E 31 90 39 00
        E 71 90 39 23
        E 0 90 3d 00
        E 0 90 3d 2b
        E 118 90 39 00
        E 0 90 39 2a
        E 15 90 2f 00
        E 5 90 3d 00
        E 67 90 39 00
        E 485 90 49 34
        E 5 90 3d 36
        E 0 90 52 2a
        E 77 90 52 00
        E 5 90 3d 00
        E 0 90 49 00
        E 21 90 32 20
        E 10 90 38 40
        E 0 90 3e 45
        E 0 90 47 41
        E 51 90 32 00
        E 10 90 47 00
        E 11 90 38 00
        E 0 90 3e 00
        E 35 90 3a 45
        E 16 90 43 37
        E 0 90 4f 2f
        E 51 90 3a 00
        E 10 90 4f 00
        E 5 90 43 00
        E 31 90 44 4c
        E 0 90 4a 46
        E 10 90 3b 35
        E 51 90 4a 00
        E 5 90 44 00
        E 61 90 3e 38
        E 0 90 4a 30
        E 6 90 47 24
        E 0 90 4e 34
        E 15 90 3b 00
        E 56 90 4a 00
        E 5 90 3e 00
        E 15 90 4e 00
        E 11 90 37 23
        E 0 90 3e 2c
        E 15 90 47 00
        E 5 90 43 2e
        E 41 90 37 00
        E 87 90 3e 00
        E 61 90 43 00
        E 721 90 45 2a
        E 5 90 51 34
        E 5 90 39 2b
        E 61 90 51 00
        E 92 90 39 00
        E 6 90 45 00
        E 71 90 3a 37
        E 0 90 46 33
        E 82 90 46 00
        E 5 e0 2b 15
        E 0 90 3a 00
        E 0 90 3a 30
        E 5 e0 2b 15
        E 5 e0 2b 15
        E 5 e0 2b 15
        E 5 e0 2b 15
        E 6 e0 2b 15
        E 5 e0 2b 15
        E 5 e0 2b 15
        E 5 e0 2b 15
        E 5 e0 2b 15
        E 5 e0 2b 15
        E 6 e0 55 6a
        E 5 e0 55 6a
        E 5 e0 2b 15
        E 5 e0 2b 15
        E 5 e0 2b 15
        E 0 90 3a 00
        E 36 90 28 35
        E 25 90 3b 3a
        E 0 90 47 30
        E 62 90 3b 00
        E 0 90 47 00
        E 20 90 28 00
        E 41 90 4e 15
        E 117 90 47 2d
        E 6 90 4e 00
        E 56 90 47 00
        E 46 90 2f 36
        E 5 90 3e 1f
        E 117 90 47 2c
        E 5 90 3b 2e
        E 16 90 2f 00
        E 25 90 3e 00
        E 82 90 47 00
        E 5 90 3b 00
        E 67 90 3b 22
        E 71 90 47 20
        E 5 90 3b 00
        E 0 90 3b 22
        E 0 90 43 16
        E 77 90 47 00
        E 16 90 3b 00
        E 25 90 43 00
        E 36 90 21 22
        E 15 90 40 36
        E 5 90 3d 2a
        E 6 90 3b 17
        E 5 90 2d 30
        E 51 90 40 00
        E 46 90 21 00
        E 0 90 21 30
        E 25 90 3b 00
        E 11 90 2d 00
        E 0 90 3d 00
        E 35 90 21 00
        E 56 90 4c 31
        E 6 90 45 34
        E 56 90 4c 00
        E 10 e0 2b 15
        E 0 90 34 3c
        E 0 90 45 00
        E 5 e0 2b 15
        E 6 e0 2b 15
        E 5 e0 2b 15
        E 6 e0 2b 15
        E 5 e0 2b 15
        E 6 e0 2b 15
        E 5 e0 2b 15
        E 5 e0 2b 15
        E 6 e0 55 0a
        E 5 e0 55 0a
        E 6 e0 55 0a
        E 5 e0 55 0a
        E 6 e0 55 0a
        E 5 e0 55 0a
        E 5 e0 2b 15
        E 6 e0 2b 15
        E 0 90 34 00
        E 61 90 28 32
        E 10 90 47 31
        E 11 90 3b 26
        E 0 90 4e 23
        E 51 90 28 00
        E 25 90 47 00
        E 51 90 3b 00
        E 21 90 4e 00
        E 71 90 47 24
        E 10 90 42 37
        E 1 90 4e 2a
        E 0 90 55 21
        E 56 90 47 00
        E 5 90 55 00
        E 5 90 42 00
        E 0 90 4e 00
        E 41 e0 55 6a
        E 0 90 49 25
        E 6 e0 55 6a
        E 5 e0 55 6a
        E 6 e0 55 6a
        E 5 e0 00 60
        E 6 e0 00 20
        E 5 e0 00 20
        E 5 e0 00 20
        E 6 e0 00 20
        E 5 e0 00 20
        E 6 e0 00 20
        E 5 e0 00 20
        E 6 e0 00 20
        E 5 e0 00 20
        E 6 e0 00 60
        E 5 e0 55 6a
        E 0 90 49 00
        E 10 90 1f 26
        E 26 90 32 2c
        E 92 90 1f 00
        E 66 90 32 00
        E 56 90 26 23
        E 16 90 32 30
        E 66 90 26 00
        E 5 90 32 00
        E 31 e0 00 40
        E 0 90 3a 50
        E 5 e0 00 40
        E 6 e0 00 40
        E 6 e0 00 40
        E 5 e0 00 00
        E 6 e0 55 0a
        E 5 e0 55 0a
        E 6 e0 55 0a
        E 5 e0 2b 15
        E 6 e0 2b 15
        E 6 e0 2b 15
        E 5 e0 2b 15
        E 0 90 3a 00
        E 67 90 47 27
        E 15 90 3b 2c
        E 117 90 3b 00
        E 0 90 3b 28
        E 72 90 47 00
        E 6 e0 2b 15
        E 0 90 3b 00
        E 0 90 3b 27
        E 5 e0 2b 15
        E 5 e0 2b 15
        E 6 e0 00 20
        E 5 e0 00 20
        E 6 e0 00 20
        E 5 e0 00 20
        E 6 e0 00 20
        E 5 e0 00 20
        E 6 e0 00 20
        E 5 e0 00 20
        E 5 e0 55 6a
        E 6 e0 55 6a
        E 5 e0 55 6a
        E 6 e0 55 6a
        E 5 e0 2b 15
        E 0 90 3b 00
        E 159 90 32 2f
        E 5 90 26 25
        E 10 90 3b 24
        E 5 90 47 21
        E 46 90 32 00
        E 92 90 47 00
        E 5 90 3b 00
        E 15 90 26 00
        E 164 e0 00 20
        E 0 90 2d 34
        E 5 e0 00 20
        E 6 e0 2b 15
        E 5 e0 2b 15
        E 6 e0 2b 15
        E 5 e0 2b 15
        E 6 e0 2b 15
        E 5 e0 00 20
        E 6 e0 00 20
        E 5 e0 00 20
        E 6 e0 00 20
        E 5 e0 00 20
        E 6 e0 00 20
        E 5 e0 00 20
        E 6 e0 00 20
        E 0 90 2d 00
        E 71 e0 2b 15
        E 0 90 3b 30
        E 5 e0 00 20
        E 6 e0 00 20
        E 5 e0 00 20
        E 6 e0 00 20
        E 5 e0 00 20
        E 6 e0 00 20
        E 5 e0 00 20
        E 6 e0 00 20
        E 5 e0 00 20
        E 6 e0 00 20
        E 5 e0 00 20
        E 5 e0 00 20
        E 6 e0 00 20
        E 5 e0 00 20
        E 6 e0 00 20
        E 0 90 3b 00
        E 0 90 3b 32
        E 5 e0 00 20
        E 5 e0 00 20
        E 5 e0 00 20
        E 5 e0 00 20
        E 6 e0 2b 15
        E 5 e0 2b 15
        E 5 e0 2b 15
        E 5 e0 2b 15
        E 5 e0 2b 15
        E 5 e0 00 20
        E 5 e0 00 20
        E 6 e0 00 20
        E 0 90 3b 00
        E 61 90 2d 30
        E 15 90 3c 34
        E 0 90 48 2f
        E 0 90 54 21
        E 62 90 2d 00
        E 25 90 54 00
        E 26 90 48 00
        E 41 90 3c 00
        E 61 90 20 2f
        E 15 90 49 28
        E 5 90 2c 2a
        E 5 90 3d 30
        E 57 90 20 00
        E 40 90 2c 00
        E 21 90 3d 00
        E 0 90 3d 2d
        E 41 90 49 00
        E 25 90 3d 00
        E 5 e0 00 20
        E 0 90 3d 24
        E 6 e0 00 20
        E 5 e0 00 20
        E 6 e0 2b 15
        E 5 e0 2b 15
        E 6 e0 2b 15
        E 5 e0 2b 15
        E 6 e0 2b 15
        E 5 e0 2b 15
        E 6 e0 00 20
        E 5 e0 00 20
        E 6 e0 00 20
        E 5 e0 55 6a
        E 6 e0 00 20
        E 0 90 3d 00
        E 66 90 25 29
        E 16 90 31 2a
        E 5 90 3c 43
        E 0 90 48 38
        E 61 90 3c 00
        E 5 90 48 00
        E 31 90 41 23
        E 5 90 49 29
        E 10 90 25 00
        E 0 90 3d 32
        E 56 90 4d 15
        E 67 90 4d 00
        E 10 90 41 00
        E 6 90 31 00
        E 5 90 49 00
        E 25 90 3d 00
        E 26 e0 00 20
        E 0 90 3d 22
        E 5 e0 00 20
        E 6 e0 00 20
        E 5 e0 00 20
        E 5 e0 2b 15
        E 6 e0 2b 15
        E 5 e0 2b 15
        E 6 e0 2b 15
        E 5 e0 2b 15
        E 5 e0 2b 15
        E 6 e0 00 20
        E 5 e0 00 20
        E 5 e0 00 20
        E 6 e0 00 20
        E 5 e0 00 20
        E 6 e0 00 20
        E 5 e0 00 20
        E 5 e0 00 20
        E 6 e0 2b 15
        E 0 90 3d 00
        E 10 90 49 21
        E 36 90 31 28
        E 5 90 41 35
        E 56 90 49 00
        E 10 90 41 00
        E 46 90 1e 22
        E 0 90 3d 25
        E 5 90 49 1d
        E 11 90 2a 2f
        E 5 90 31 00
        E 97 90 2a 00
        E 0 90 2a 2e
        E 5 90 1e 00
        E 0 90 3d 00
        E 0 90 49 00
        E 5 90 3d 36
        E 0 90 49 27
        E 61 90 3d 00
        E 36 90 3d 38
        E 77 90 2a 00
        E 0 90 3d 00
        E 15 90 49 00
        E 31 90 25 2e
        E 117 90 3d 3d
        E 5 90 49 35
        E 26 90 25 00
        E 26 90 3d 00
        E 10 90 49 00
        E 21 e0 2b 15
        E 0 90 50 1d
        E 5 e0 2b 15
        E 6 e0 2b 15
        E 5 e0 00 20
        E 6 e0 00 20
        E 5 e0 00 20
        E 6 e0 00 60
        E 6 e0 2b 55
        E 5 e0 55 4a
        E 6 e0 55 4a
        E 5 e0 2b 55
        E 6 e0 2b 55
        E 0 90 50 00
        E 184 e0 00 60
        E 0 90 3f 4b
        E 5 e0 55 6a
        E 6 e0 55 6a
        E 6 e0 55 6a
        E 5 e0 55 6a
        E 6 e0 55 6a
        E 5 e0 2b 15
        E 6 e0 2b 15
        E 5 e0 00 20
        E 6 e0 00 20
        E 6 e0 00 20
        E 5 e0 00 20
        E 0 90 3f 00
        E 41 90 1e 2d
        E 15 90 24 21
        E 16 90 2a 39
        E 0 90 49 22
        E 5 90 40 2c
        E 46 90 24 00
        E 25 90 3d 22
        E 10 90 49 00
        E 6 90 1e 00
        E 0 90 2a 00
        E 81 90 3d 00
        E 26 90 3d 33
        E 20 90 2a 26
        E 21 90 49 27
        E 25 90 3d 00
        E 0 90 40 00
        E 56 90 49 00
        E 31 e0 55 6a
        E 0 90 2a 00
        E 0 90 2f 34
        E 5 e0 55 6a
        E 5 e0 00 20
        E 5 e0 00 20
        E 6 e0 00 20
        E 5 e0 00 20
        E 5 e0 00 20
        E 5 e0 00 20
        E 5 e0 00 20
        E 5 e0 00 20
        E 5 e0 00 20
        E 6 e0 00 20
        E 5 e0 00 20
        E 5 e0 00 20
        E 5 e0 00 20
        E 5 e0 00 20
        E 5 e0 00 20
        E 5 e0 00 20
        E 5 e0 00 20
        E 6 e0 00 20
        E 5 e0 00 20
        E 5 e0 2b 15
        E 5 e0 2b 15
        E 5 e0 2b 15
        E 5 e0 2b 15
        E 5 e0 00 20
        E 0 90 2f 00
        E 97 90 3b 31
        E 0 90 47 2d
        E 6 90 4e 26
        E 81 90 3b 00
        E 0 90 4e 00
        E 5 90 3b 25
        E 5 90 47 00
        E 62 90 47 22
        E 10 90 3b 00
        E 0 90 3b 23
        E 66 90 3d 28
        E 11 90 47 00
        E 10 90 3b 00
        E 46 90 3d 00
        E 15 90 1c 36
        E 15 90 2b 23
        E 6 90 2f 33
        E 5 90 28 2b
        E 0 90 47 21
        E 10 90 3e 31
        E 31 90 1c 00
        E 15 90 2f 00
        E 5 90 2b 00
        E 15 90 3e 00
        E 67 90 28 00
        E 0 90 47 00
        E 158 90 3b 20
        E 0 90 47 1a
        E 5 90 2f 25
        E 36 90 3e 3c
        E 25 90 2f 00
        E 32 90 47 00
        E 5 90 3b 00
        E 5 90 3e 00
        E 46 90 25 21
        E 5 90 31 29
        E 5 90 34 26
        E 0 90 3b 25
        E 21 90 44 20
        E 86 90 28 27
        E 5 90 25 00
        E 0 90 25 22
        E 11 90 31 00
        E 0 90 31 26
        E 0 90 3b 00
        E 5 90 3b 23
        E 5 90 44 00
        E 0 90 44 1a
        E 97 90 25 00
        E 0 90 25 2b
        E 5 90 44 00
        E 0 90 44 3b
        E 5 90 31 00
        E 0 90 31 30
        E 0 90 3b 00
        E 0 90 3b 34
        E 5 90 28 00
        E 57 90 44 00
        E 5 90 25 00
        E 0 90 34 00
        E 0 90 3b 00
        E 5 90 31 00
        E 163 90 2f 32
        E 67 90 23 15
        E 61 90 23 00
        E 10 90 2f 00
        E 670 90 3e 23
        E 97 90 2c 26
        E 5 90 32 21
        E 15 90 38 25
        E 0 90 3e 00
        E 0 90 3e 28
        E 97 90 28 16
        E 21 90 38 00
        E 0 90 38 23
        E 15 90 3e 00
        E 77 90 25 19
        E 10 90 32 00
        E 0 90 32 32
        E 10 90 38 00
        E 0 90 38 32
        E 0 90 3e 2b
        E 10 90 2c 00
        E 36 90 25 00
        E 0 90 28 00
        E 6 90 32 00
        E 5 90 38 00
        E 0 90 3e 00
        E 511 90 31 2b
        E 10 90 49 2c
        E 61 90 31 00
        E 16 90 49 00
        E 30 90 42 23
        E 11 90 36 2a
        E 0 90 3e 2b
        E 117 90 3e 00
        E 0 90 3e 1e
        E 5 90 42 00
        E 5 90 36 00
        E 103 90 45 26
        E 5 90 3e 00
        E 123 90 45 00
        E 434 90 2f 1b
        E 5 90 3e 38
        E 66 90 2a 18
        E 6 90 3e 00
        E 46 90 2f 00
        E 0 90 38 2c
        E 0 90 3d 2e
        E 5 90 40 2c
        E 0 90 42 19
        E 0 90 44 36
        E 5 90 2a 00
        E 5 90 49 2f
        E 0 90 55 25
        E 56 90 42 00
        E 5 90 40 00
        E 0 90 55 00
        E 5 90 44 00
        E 5 90 49 00
        E 11 90 4c 26
        E 25 90 3d 00
        E 21 90 44 1d
        E 20 90 38 00
        E 41 90 44 00
        E 118 90 4c 00
        E 25 90 48 2f
        E 57 90 3f 24
        E 15 90 48 00
        E 36 90 3b 21
        E 20 90 3f 00
        E 61 90 3b 00
        E 404 e0 00 00
        E 0 90 2d 35
        E 5 e0 55 0a
        E 5 e0 55 0a
        E 5 e0 55 6a
        E 6 e0 55 6a
        E 5 e0 55 6a
        E 5 e0 55 6a
        E 5 e0 55 6a
        E 5 e0 2b 75
        E 5 e0 2b 75
        E 5 e0 2b 75
        E 5 e0 55 6a
        E 6 e0 2b 15
        E 5 e0 2b 15
        E 5 e0 2b 15
        E 5 e0 2b 15
        E 5 e0 2b 15
        E 5 e0 2b 15
        E 5 e0 2b 75
        E 5 e0 2b 75
        E 6 e0 55 6a
        E 5 e0 55 6a
        E 5 e0 55 6a
        E 5 e0 55 6a
        E 5 e0 55 6a
        E 5 e0 55 6a
        E 5 e0 55 6a
        E 6 e0 55 6a
        E 0 90 2d 00
        E 97 90 49 1d
        E 86 90 42 35
        E 26 90 49 00
        E 41 90 42 00
        E 194 e0 2b 15
        E 0 90 34 30
        E 5 e0 2b 15
        E 6 e0 2b 15
        E 5 e0 2b 15
        E 6 e0 2b 15
        E 5 e0 2b 15
        E 5 e0 2b 15
        E 6 e0 2b 15
        E 5 e0 2b 15
        E 5 e0 00 20
        E 6 e0 00 20
        E 5 e0 00 20
        E 6 e0 00 20
        E 5 e0 00 20
        E 5 e0 00 20
        E 6 e0 00 20
        E 5 e0 00 20
        E 6 e0 00 20
        E 5 e0 00 20
        E 0 90 34 00
        E 363 90 49 2e
        E 5 90 40 29
        E 82 90 40 00
        E 0 90 49 00
        E 118 90 2b 2f
        E 15 90 43 34
        E 51 90 2b 00
        E 15 90 43 00
        E 46 90 2a 1e
        E 0 90 42 26
        E 57 90 36 22
        E 10 90 2a 00
        E 51 90 42 00
        E 15 90 36 00
        E 123 90 3d 26
        E 0 90 40 2c
        E 87 90 3d 00
        E 0 90 40 00
        E 117 90 2d 23
        E 251 90 3c 3d
        E 41 90 2d 00
        E 20 90 3c 00
        E 619 e0 00 60
        E 0 90 2d 38
        E 6 e0 00 60
        E 5 e0 00 60
        E 6 e0 2b 15
        E 5 e0 2b 15
        E 6 e0 2b 15
        E 5 e0 2b 15
        E 6 e0 00 20
        E 6 e0 2b 15
        E 5 e0 2b 15
        E 6 e0 2b 15
        E 5 e0 2b 75
        E 0 90 2d 00
        E 394 90 28 29
        E 112 90 3b 2a
        E 5 90 28 00
        E 72 90 3b 00
        E 51 90 24 2b
        E 0 90 30 2b
        E 5 90 3e 2a
        E 5 90 33 2c
        E 0 90 3a 27
        E 51 90 24 00
        E 5 90 30 00
        E 93 90 33 00
        E 0 90 3e 00
        E 30 90 3a 00
        E 46 90 3d 25
        E 16 90 39 2d
        E 91 90 39 00
        E 113 90 45 2e
        E 25 90 3d 00
        E 36 90 45 00
        E 87 e0 55 6a
        E 0 90 45 2b
        E 5 e0 55 6a
        E 6 e0 55 6a
        E 5 e0 00 20
        E 6 e0 00 20
        E 5 e0 00 20
        E 6 e0 00 20
        E 5 e0 00 20
        E 6 e0 00 20
        E 5 e0 00 20
        E 6 e0 00 20
        E 5 e0 00 20
        E 5 e0 2b 15
        E 6 e0 2b 15
        E 5 e0 55 6a
        E 6 e0 55 6a
        E 0 90 45 00
        E 342 90 2b 28
        E 11 90 3f 3b
        E 5 90 46 24
        E 41 90 2b 00
        E 20 90 46 00
        E 16 90 3f 00
        E 40 90 32 28
        E 6 90 38 2b
        E 0 90 40 22
        E 112 90 32 00
        E 0 90 32 2a
        E 15 90 40 00
        E 10 90 38 00
        E 82 90 2c 34
        E 15 90 32 00
        E 0 90 32 3e
        E 46 90 2c 00
        E 41 90 32 00
        E 716 90 4a 20
        E 5 90 3e 2e
        E 102 90 2a 22
        E 5 90 26 1c
        E 11 90 45 2e
        E 5 90 39 27
        E 0 90 42 2b
        E 5 90 4a 00
        E 5 90 3e 00
        E 46 90 45 00
        E 46 90 26 00
        E 0 90 45 34
        E 5 90 49 2d
        E 5 90 3d 35
        E 5 90 2a 00
        E 5 90 42 00
        E 67 90 49 00
        E 10 90 3d 00
        E 0 90 45 00
        E 5 90 39 00
        E 143 e0 2b 75
        E 0 90 42 2b
        E 6 e0 2b 75
        E 5 e0 2b 15
        E 6 e0 00 20
        E 5 e0 00 20
        E 5 e0 00 20
        E 6 e0 2b 15
        E 5 e0 2b 15
        E 6 e0 2b 15
        E 5 e0 2b 15
        E 6 e0 2b 15
        E 5 e0 2b 15
        E 6 e0 2b 15
        E 5 e0 00 20
        E 5 e0 00 20
        E 6 e0 00 20
        E 0 90 42 00
        E 123 90 2a 1b
        E 20 90 3e 24
        E 103 90 38 2c
        E 10 90 2a 00
        E 0 90 3d 26
        E 0 90 3e 00
        E 5 90 40 2a
        E 0 90 44 21
        E 0 90 49 21
        E 61 90 3d 00
        E 11 90 40 00
        E 61 90 49 00
        E 5 90 4c 20
        E 15 90 44 00
        E 87 90 40 26
        E 26 90 53 17
        E 40 90 40 00
        E 21 90 40 2d
        E 20 90 53 00
        E 36 90 4c 00
        E 5 90 38 00
        E 0 90 40 00
        E 56 90 42 25
        E 6 90 36 25
        E 0 90 4a 33
        E 5 90 47 2b
        E 61 90 4a 00
        E 56 90 42 00
        E 10 90 36 00
        E 0 90 47 00
        E 323 e0 00 20
        E 0 90 34 49
        E 5 e0 00 20
        E 6 e0 00 20
        E 5 e0 00 20
        E 6 e0 00 20
        E 6 e0 00 20
        E 5 e0 00 20
        E 6 e0 00 20
        E 5 e0 00 20
        E 6 e0 00 20
        E 5 e0 00 20
        E 6 e0 00 20
        E 0 90 34 00
        E 281 90 21 30
        E 26 90 3d 2a
        E 5 90 2d 3d
        E 66 90 2d 00
        E 0 90 3d 00
        E 72 90 21 00
        E 30 e0 00 20
        E 0 90 31 2b
        E 5 e0 00 20
        E 6 e0 00 20
        E 5 e0 00 20
        E 5 e0 00 20
        E 5 e0 00 20
        E 5 e0 00 20
        E 5 e0 00 20
        E 5 e0 00 20
        E 6 e0 00 20
        E 5 e0 00 20
        E 5 e0 00 20
        E 5 e0 00 20
        E 5 e0 00 20
        E 0 90 31 00
        E 312 90 26 2d
        E 20 90 3c 24
        E 108 90 42 36
        E 25 90 3c 00
        E 5 90 26 00
        E 36 90 42 00
        E 158 90 1f 2a
        E 26 90 2b 2c
        E 230 90 1f 00
        E 16 90 2b 00
        E 86 e0 55 6a
        E 0 90 41 26
        E 6 e0 55 6a
        E 5 e0 00 60
        E 5 e0 00 20
        E 6 e0 00 20
        E 5 e0 00 20
        E 5 e0 00 20
        E 6 e0 00 20
        E 5 e0 00 20
        E 5 e0 00 20
        E 5 e0 00 20
        E 6 e0 00 20
        E 5 e0 00 20
        E 5 e0 00 20
        E 6 e0 00 20
        E 5 e0 00 20
        E 5 e0 00 20
        E 6 e0 00 20
        E 5 e0 00 20
        E 5 e0 00 20
        E 6 e0 00 20
        E 5 e0 00 20
        E 5 e0 00 20
        E 5 e0 00 20
        E 6 e0 00 20
        E 5 e0 00 20
        E 5 e0 00 20
        E 0 90 41 00
        E 87 90 39 39
        E 16 90 2f 1e
        E 10 90 3d 29
        E 41 90 39 00
        E 71 90 39 22
        E 21 90 3d 00
        E 97 90 39 00
        E 0 90 39 27
        E 15 90 2f 00
        E 51 90 23 1f
        E 15 90 39 00
        E 46 90 23 00
        E 445 90 3d 3b
        E 0 90 49 33
        E 0 90 52 2f
        E 11 90 37 27
        E 51 90 3d 00
        E 0 90 52 00
        E 15 90 49 00
        E 20 90 32 1e
        E 16 90 37 00
        E 0 90 38 3f
        E 5 90 3e 41
        E 0 90 47 3c
        E 46 90 32 00
        E 15 90 47 00
        E 10 90 38 00
        E 0 90 3e 00
        E 36 90 3a 47
        E 5 90 4f 34
        E 10 90 43 37
        E 46 90 3a 00
        E 6 90 4f 00
        E 20 90 43 00
        E 25 90 44 4d
        E 0 90 4a 45
        E 16 90 3b 2e
        E 46 90 4a 00
        E 5 90 44 00
        E 46 90 32 35
        E 15 90 3b 00
        E 0 90 3b 2e
        E 0 90 3e 3c
        E 0 90 4a 36
        E 5 90 4e 38
        E 0 90 53 2d
        E 57 90 32 00
        E 5 90 53 00
        E 5 90 3b 00
        E 5 90 3e 00
        E 0 90 4a 00
        E 16 90 4e 00
        E 10 90 3e 2a
        E 20 90 43 2d
        E 128 90 3e 00
        E 66 90 43 00
        E 9 b0 7b 00
        CCINTERP 32
        CHASE_CC_TAKEOFFS 1
        GUID {21D9F250-6079-4BB1-A280-C574A68A98A2}
        IGNTEMPO 0 120 4 4
        SRCCOLOR 210
      >
    >
  >
  <UINF 82
    <TRACK {5B159F1A-7CFA-40EB-9485-292B08785429}
      NAME "Nov26 (On-the-fly data)"
      PEAKCOL 32334866
      BEAT -1
      AUTOMODE 0
      VOLPAN 1 0 -1 -1 1
      MUTESOLO 0 2 0
      IPHASE 0
      PLAYOFFS 0 1
      ISBUS 2 -2
      BUSCOMP 0 0 0 0 0
      SHOWINMIX 1 0.6667 0.5 1 0.5 -1 -1 -1
      REC 0 0 1 0 0 0 0 0
      VU 2
      TRACKHEIGHT 0 0 0 0 0 0
      INQ 0 0 0 0.5 100 0 0 100
      NCHAN 2
      FX 1
      TRACKID {5B159F1A-7CFA-40EB-9485-292B08785429}
      PERF 0
      UNDO_HAS_TRACKENV
      MIDIOUT -1
      MAINSEND 1 0
    >
  >
  <UINF 83
    <TRACK {A5678F31-C014-4D18-8F56-99370EBED686}
      NAME wii_music
      PEAKCOL 33554431
      BEAT -1
      AUTOMODE 0
      VOLPAN 1 0 -1 -1 1
      MUTESOLO 0 0 0
      IPHASE 0
      PLAYOFFS 0 1
      ISBUS 1 1
      BUSCOMP 0 0 0 0 0
      SHOWINMIX 1 0.6667 0.5 1 0.5 -1 -1 -1
      REC 0 0 1 0 0 0 0 0
      VU 2
      TRACKHEIGHT 0 0 0 0 0 0
      INQ 0 0 0 0.5 100 0 0 100
      NCHAN 2
      FX 1
      TRACKID {A5678F31-C014-4D18-8F56-99370EBED686}
      PERF 0
      UNDO_HAS_TRACKENV
      MIDIOUT -1
      MAINSEND 1 0
    >
  >
  <UINF 84
    <TRACK {6390B51A-B19F-4B03-B559-469D91379CDD}
      NAME "Nov26 (Preprocessed data)"
      PEAKCOL 32334866
      BEAT -1
      AUTOMODE 0
      VOLPAN 1 0 -1 -1 1
      MUTESOLO 0 2 0
      IPHASE 0
      PLAYOFFS 0 1
      ISBUS 0 0
      BUSCOMP 0 0 0 0 0
      SHOWINMIX 1 0.6667 0.5 1 0.5 -1 -1 -1
      REC 0 0 1 0 0 0 0 0
      VU 2
      TRACKHEIGHT 0 0 0 0 0 0
      INQ 0 0 0 0.5 100 0 0 100
      NCHAN 2
      FX 1
      TRACKID {6390B51A-B19F-4B03-B559-469D91379CDD}
      PERF 0
      UNDO_HAS_TRACKENV
      MIDIOUT -1
      MAINSEND 1 0
    >
  >
  <UINF 85
    <TRACK {6390B51A-B19F-4B03-B559-469D91379CDD}
      NAME "Nov26_02 (Preprocessed data)"
      PEAKCOL 32334866
      BEAT -1
      AUTOMODE 0
      VOLPAN 1 0 -1 -1 1
      MUTESOLO 0 0 0
      IPHASE 0
      PLAYOFFS 0 1
      ISBUS 0 0
      BUSCOMP 0 0 0 0 0
      SHOWINMIX 1 0.6667 0.5 1 0.5 -1 -1 -1
      REC 0 0 1 0 0 0 0 0
      VU 2
      TRACKHEIGHT 0 0 0 0 0 0
      INQ 0 0 0 0.5 100 0 0 100
      NCHAN 2
      FX 1
      TRACKID {6390B51A-B19F-4B03-B559-469D91379CDD}
      PERF 0
      UNDO_HAS_TRACKENV
      MIDIOUT -1
      MAINSEND 1 0
    >
  >
  <UINF 86
    <TRACK {366EF5EC-5D90-41FC-99A1-C30B43BD3006}
      NAME "Nov26_02 (Preprocessed data)"
      PEAKCOL 32334866
      BEAT -1
      AUTOMODE 0
      VOLPAN 1 0 -1 -1 1
      MUTESOLO 0 0 0
      IPHASE 0
      PLAYOFFS 0 1
      ISBUS 0 0
      BUSCOMP 0 0 0 0 0
      SHOWINMIX 1 0.6667 0.5 1 0.5 -1 -1 -1
      REC 0 0 1 0 0 0 0 0
      VU 2
      TRACKHEIGHT 0 0 0 0 0 0
      INQ 0 0 0 0.5 100 0 0 100
      NCHAN 2
      FX 1
      TRACKID {366EF5EC-5D90-41FC-99A1-C30B43BD3006}
      PERF 0
      UNDO_HAS_TRACKENV
      MIDIOUT -1
      MAINSEND 1 0
    >
  >
  <UINF 87
    <TRACK {2E9E266A-8C84-49CF-91D6-A4D281474AFB}
      NAME "Nov26_02 (Preprocessed data)"
      PEAKCOL 32334866
      BEAT -1
      AUTOMODE 0
      VOLPAN 1 0 -1 -1 1
      MUTESOLO 0 0 0
      IPHASE 0
      PLAYOFFS 0 1
      ISBUS 0 0
      BUSCOMP 0 0 0 0 0
      SHOWINMIX 1 0.6667 0.5 1 0.5 -1 -1 -1
      REC 0 0 1 0 0 0 0 0
      VU 2
      TRACKHEIGHT 0 0 0 0 0 0
      INQ 0 0 0 0.5 100 0 0 100
      NCHAN 2
      FX 1
      TRACKID {2E9E266A-8C84-49CF-91D6-A4D281474AFB}
      PERF 0
      UNDO_HAS_TRACKENV
      MIDIOUT -1
      MAINSEND 1 0
    >
  >
  <UINF 88
    <REAPER_PROJECT 0.1 "6.67/win64" 0
      PANMODE 3
      CLEAR_COMP_GROUP
      TEMPO 120 4 4
      PLAYRATE 1 0 0.25 4
      SELECTION 1 0
      SELECTION2 1 0
      MASTER_SEL 0
      <EXTENSIONS
        <SWSAUTOCOLOR
          {00000000-0000-0000-0000-000000000000} 0 "" "" ""
          {901882B6-222A-4AD2-8F36-AD31D35BE5C2} 25132927 "" "" ""
          {D3A472DB-9153-4446-91D3-9DB0525E5E4E} 16842496 "" "" ""
          {C11D002C-F0F0-4D5E-9781-EDB846A46007} 33554431 "" "" ""
          {A5678F31-C014-4D18-8F56-99370EBED686} 33554431 "" "" ""
          {58BDB1D7-016D-490B-8909-CB25FC3F5902} 25132927 "" "" ""
          {5847A0CA-FE18-400B-BE05-413CEF896DB8} 16842496 "" "" ""
          {1D455C00-599A-4B56-BE14-CC1718C711D2} 32334866 "" "" ""
          {786E2DFD-D52E-474E-80B4-C9EA4B4F8F49} 32334866 "" "" ""
          {1BF2D52A-E1A6-420A-AECA-267DE1ED5B3B} 33554431 "" "" ""
          {B317100A-A6B9-4648-88BF-3212AA6B1FD2} 29409472 "" "" ""
          {BA582802-FFA8-48A1-8011-E2F1FE5F4FC5} 16842496 "" "" ""
          {9B7BC0D9-8E1A-4A39-917E-F9AB8A189698} 32334866 "" "" ""
          {05F4A8E4-720E-4786-89A1-083D393B8CED} 32334866 "" "" ""
          {374BB5AA-8B32-4B1F-904F-0CF7524030C8} 32334866 "" "" ""
          {366EF5EC-5D90-41FC-99A1-C30B43BD3006} 32334866 "" "" ""
          {2E9E266A-8C84-49CF-91D6-A4D281474AFB} 32334866 "" "" ""
          {6390B51A-B19F-4B03-B559-469D91379CDD} 32334866 "" "" ""
          {33CCFD28-1698-435D-98B7-23680E5E8E37} 32334866 "" "" ""
          {7C653324-610F-4400-817A-05859A1C709C} 32334866 "" "" ""
          {5B159F1A-7CFA-40EB-9485-292B08785429} 32334866 "" "" ""
          {29FF25DE-A2FB-49D1-912C-AE3DAC42DD4A} 16777216 "" "" ""
          {8247C5DD-A0C3-4E00-A9C5-C6BC78D14ED9} 16777216 "" "" ""
          {FD9B8323-7CD4-4642-BFC4-69A2271C393E} 16777216 "" "" ""
          {EC680376-C257-454C-B45C-D88628BCD590} 33554431 "" "" ""
          {8CDE9AAD-6CE0-432F-B847-21A11CDD53FE} 25132927 "" "" ""
          {F609B9AB-AE56-48E0-A89C-0CFCCA4D7894} 16777216 "" "" ""
          {07837CA4-3164-4E81-BBF1-E93DB5B57D54} 16842496 "" "" ""
          {1E8973F6-C81D-4F0F-89A1-5B44C5C37FE0} 32334866 "" "" ""
          {81F3A71A-D77B-40B9-BD72-D8AE6051A077} 32334866 "" "" ""
          {AF3E723C-8BD9-455D-B7D3-14026E7EBD13} 32334866 "" "" ""
          {BE1721E1-A20F-4A29-B9EC-73FC4FF27A8A} 32334866 "" "" ""
        >
      >
    >
  >
  <UINF 89
    <ITEM {E79EF0D5-C4BE-41B0-BE59-9CC2845D8E76}
      POSITION 0
      SNAPOFFS 0
      LENGTH 86.79619047619047
      LOOP 1
      ALLTAKES 0
      FADEIN 1 0.001 0 1 0 0 0
      FADEOUT 1 0.001 0 1 0 0 0
      MUTE 0 0
      SEL 0
      IGUID {E79EF0D5-C4BE-41B0-BE59-9CC2845D8E76}
      IID 10
      NAME wii_music.mp3
      VOLPAN 1 0 1 -1
      SOFFS 0
      PLAYRATE 1 1 0 -1 0 0.0025
      CHANMODE 0
      GUID {ABFFC7F3-E75A-41DB-A71C-CBAF9C143230}
      <SOURCE MP3
        FILE "C:\_AlexFiles\Coding\Python\FALL2023_IndependentStudy\audio_to_midi_vst\independent_study\daw_project_example\wii_music.mp3" 1
      >
    >
  >
  <UINF 90
    <ITEM {C448B032-8C85-4DEA-8C31-278775161D90}
      POSITION 0
      SNAPOFFS 0
      LENGTH 86.5
      LOOP 1
      ALLTAKES 0
      FADEIN 1 0 0 1 0 0 0
      FADEOUT 1 0 0 1 0 0 0
      MUTE 0 0
      SEL 0
      IGUID {C448B032-8C85-4DEA-8C31-278775161D90}
      IID 13
      NAME wii_music_basic_pitch.mid
      VOLPAN 1 0 1 -1
      SOFFS 0 0
      PLAYRATE 1 1 0 -1 0 0.0025
      CHANMODE 0
      GUID {1056C832-6CAF-430A-BD0B-604D72FF3482}
      <SOURCE MIDI
        HASDATA 1 220 QN
        CCINTERP 32
        POOLEDEVTS {A269B518-8EF8-4383-B042-459047DC5B59}
        E 0 c0 04 00
        E 112 90 3e 48
        E 5 90 2f 4d
        E 0 90 42 35
        E 159 90 42 00
        E 31 90 2f 00
        E 5 90 3e 00
        E 35 90 42 54
        E 0 90 45 4f
        E 72 90 42 00
        E 36 90 49 49
        E 5 90 45 00
        E 0 90 45 4c
        E 143 90 45 00
        E 51 90 49 00
        E 41 90 42 3f
        E 0 90 45 4a
        E 168 90 45 00
        E 62 90 3e 52
        E 0 90 42 00
        E 0 90 42 4e
        E 77 90 42 00
        E 41 90 38 42
        E 0 90 3e 00
        E 0 90 3e 4c
        E 117 90 38 00
        E 0 90 38 48
        E 0 90 3e 00
        E 0 90 3e 4b
        E 113 90 38 00
        E 0 90 38 4c
        E 0 90 3e 00
        E 0 90 3e 46
        E 81 90 38 00
        E 87 90 3e 00
        E 409 90 3d 49
        E 5 90 35 59
        E 113 90 2f 46
        E 0 90 35 00
        E 0 90 36 42
        E 0 90 3d 00
        E 0 90 3e 3e
        E 112 90 3e 00
        E 0 90 3e 55
        E 0 90 42 46
        E 36 90 36 00
        E 10 90 2f 00
        E 62 90 3e 00
        E 15 90 42 00
        E 0 90 42 4d
        E 0 90 45 4c
        E 71 90 42 00
        E 41 90 45 00
        E 0 90 45 4b
        E 0 90 49 4b
        E 138 90 45 00
        E 61 90 49 00
        E 36 90 42 3d
        E 0 90 45 49
        E 180 90 45 00
        E 46 90 3e 54
        E 0 90 42 00
        E 0 90 42 4f
        E 71 90 42 00
        E 26 90 3e 00
        E 25 90 49 56
        E 0 90 4c 54
        E 10 90 38 54
        E 72 90 4c 00
        E 0 90 4c 4b
        E 92 90 4c 00
        E 0 90 4c 4a
        E 66 90 4c 00
        E 0 90 4c 49
        E 97 90 48 4d
        E 0 90 49 00
        E 31 90 37 51
        E 0 90 38 00
        E 15 90 4b 42
        E 0 90 4c 00
        E 82 90 47 3a
        E 0 90 48 00
        E 10 90 36 3f
        E 0 90 37 00
        E 0 90 4b 00
        E 5 90 4a 3c
        E 72 90 4a 00
        E 174 90 47 00
        E 36 90 36 00
        E 199 e0 55 4a
        E 0 90 2d 52
        E 5 e0 55 4a
        E 6 e0 55 4a
        E 5 e0 55 4a
        E 5 e0 55 4a
        E 5 e0 55 4a
        E 6 e0 55 4a
        E 5 e0 55 4a
        E 5 e0 55 4a
        E 6 e0 55 4a
        E 5 e0 55 4a
        E 5 e0 55 4a
        E 5 e0 55 4a
        E 6 e0 55 4a
        E 5 e0 55 4a
        E 5 e0 55 4a
        E 5 e0 55 4a
        E 6 e0 55 4a
        E 5 e0 55 4a
        E 5 e0 55 4a
        E 5 e0 55 4a
        E 6 e0 55 4a
        E 5 e0 55 4a
        E 5 e0 55 4a
        E 6 e0 55 4a
        E 5 e0 55 4a
        E 5 e0 55 4a
        E 5 e0 55 4a
        E 6 e0 55 4a
        E 5 e0 55 4a
        E 5 e0 55 4a
        E 5 e0 55 4a
        E 6 e0 55 4a
        E 0 90 2d 00
        E 30 90 49 41
        E 5 90 40 49
        E 92 90 40 00
        E 11 90 42 42
        E 138 90 49 00
        E 30 90 42 00
        E 67 90 49 3d
        E 5 90 34 3c
        E 82 90 49 00
        E 51 90 34 00
        E 92 90 44 41
        E 10 90 39 44
        E 148 90 39 00
        E 41 90 44 00
        E 41 90 49 49
        E 5 90 40 46
        E 118 90 40 00
        E 87 90 49 00
        E 20 e0 55 4a
        E 0 90 37 57
        E 5 e0 55 4a
        E 6 e0 55 4a
        E 5 e0 55 4a
        E 5 e0 55 4a
        E 5 e0 55 4a
        E 6 e0 55 4a
        E 5 e0 55 4a
        E 5 e0 55 4a
        E 6 e0 55 4a
        E 5 e0 55 4a
        E 5 e0 55 4a
        E 6 e0 55 4a
        E 5 e0 55 4a
        E 5 e0 55 4a
        E 5 e0 55 4a
        E 6 e0 55 4a
        E 5 e0 55 4a
        E 5 e0 55 4a
        E 6 e0 55 4a
        E 5 e0 55 4a
        E 5 e0 55 4a
        E 6 e0 55 4a
        E 5 e0 55 4a
        E 5 e0 55 4a
        E 5 e0 55 2a
        E 6 e0 55 2a
        E 5 e0 55 2a
        E 0 90 37 00
        E 6 e0 55 4a
        E 0 90 36 3b
        E 5 e0 55 4a
        E 5 e0 55 4a
        E 6 e0 55 4a
        E 5 e0 55 4a
        E 5 e0 55 4a
        E 5 e0 55 4a
        E 6 e0 55 4a
        E 5 e0 55 4a
        E 5 e0 55 4a
        E 6 e0 55 4a
        E 5 e0 55 4a
        E 5 e0 55 4a
        E 6 e0 55 4a
        E 5 e0 55 4a
        E 5 e0 55 4a
        E 5 e0 55 4a
        E 6 e0 55 4a
        E 5 e0 55 4a
        E 5 e0 55 4a
        E 6 e0 55 6a
        E 5 e0 55 6a
        E 5 e0 55 6a
        E 6 e0 55 4a
        E 5 e0 55 4a
        E 5 e0 55 4a
        E 5 e0 55 4a
        E 6 e0 55 4a
        E 0 90 36 00
        E 56 90 40 47
        E 5 90 3d 46
        E 164 90 3d 00
        E 56 90 40 00
        E 0 90 40 30
        E 5 90 26 30
        E 0 90 3c 53
        E 5 90 36 3c
        E 66 90 26 00
        E 41 90 40 00
        E 0 90 40 2f
        E 5 90 26 27
        E 0 90 3c 00
        E 0 90 3c 4f
        E 5 90 36 00
        E 0 90 36 36
        E 62 90 26 00
        E 46 90 40 00
        E 0 90 40 39
        E 5 90 26 2b
        E 0 90 3c 00
        E 0 90 3c 49
        E 5 90 36 00
        E 0 90 36 3e
        E 56 90 40 00
        E 56 90 26 00
        E 41 90 3c 00
        E 21 90 36 00
        E 276 90 3c 4f
        E 0 90 40 2c
        E 5 90 36 3b
        E 113 90 26 33
        E 0 90 3c 00
        E 0 90 3c 4d
        E 0 90 40 00
        E 0 90 40 2d
        E 10 90 36 00
        E 0 90 36 39
        E 112 90 26 00
        E 0 90 26 37
        E 0 90 36 00
        E 0 90 36 3f
        E 0 90 3c 00
        E 0 90 3c 3b
        E 51 90 40 00
        E 72 90 26 00
        E 20 90 36 00
        E 169 90 3c 00
        E 138 90 31 44
        E 10 90 3b 50
        E 0 90 3f 4f
        E 11 90 34 49
        E 168 90 31 00
        E 51 90 30 40
        E 0 90 3e 47
        E 0 90 3f 00
        E 5 90 33 49
        E 0 90 34 00
        E 0 90 3a 48
        E 0 90 3b 00
        E 72 90 27 2f
        E 25 90 3e 00
        E 0 90 3e 52
        E 77 90 30 00
        E 0 90 3e 00
        E 0 90 3e 54
        E 10 90 27 00
        E 41 90 33 00
        E 5 90 2f 46
        E 5 90 39 40
        E 0 90 3a 00
        E 0 90 3d 45
        E 0 90 3e 00
        E 6 90 32 33
        E 61 90 2f 00
        E 15 90 3d 00
        E 0 90 3d 39
        E 41 90 39 00
        E 51 90 32 00
        E 41 90 42 45
        E 0 90 45 38
        E 25 90 3d 00
        E 41 90 42 00
        E 57 90 45 00
        E 0 90 45 47
        E 0 90 49 39
        E 189 90 49 00
        E 36 90 42 3a
        E 0 90 45 00
        E 0 90 45 4b
        E 194 90 45 00
        E 61 90 31 3e
        E 26 90 42 00
        E 10 90 3f 49
        E 46 90 31 00
        E 10 90 32 38
        E 5 90 38 45
        E 0 90 3f 00
        E 0 90 40 3c
        E 82 90 40 00
        E 31 90 32 00
        E 0 90 32 36
        E 0 90 38 00
        E 0 90 38 44
        E 0 90 3e 30
        E 122 90 38 00
        E 0 90 38 4b
        E 11 90 32 00
        E 0 90 32 41
        E 40 90 3e 00
        E 21 90 38 00
        E 92 90 32 00
        E 62 90 3e 30
        E 112 90 4c 37
        E 51 90 3e 00
        E 72 90 3e 37
        E 41 90 4c 00
        E 91 90 3e 00
        E 98 e0 55 4a
        E 0 90 2f 5c
        E 5 e0 55 4a
        E 5 e0 55 4a
        E 6 e0 55 4a
        E 5 e0 55 4a
        E 5 e0 55 4a
        E 6 e0 55 4a
        E 5 e0 55 4a
        E 5 e0 55 4a
        E 6 e0 55 4a
        E 5 e0 55 4a
        E 6 e0 55 4a
        E 5 e0 55 4a
        E 5 e0 55 4a
        E 6 e0 55 4a
        E 5 e0 55 4a
        E 5 e0 55 4a
        E 6 e0 55 4a
        E 5 e0 55 4a
        E 5 e0 55 4a
        E 6 e0 55 4a
        E 0 90 2f 00
        E 10 90 36 45
        E 26 90 3e 5b
        E 86 90 3e 00
        E 0 90 3e 3a
        E 6 90 39 51
        E 0 90 42 4d
        E 36 90 36 00
        E 25 90 3e 00
        E 46 90 49 2b
        E 5 90 39 00
        E 0 90 39 3a
        E 0 90 3d 42
        E 0 90 45 47
        E 21 90 42 00
        E 61 90 39 00
        E 10 90 49 00
        E 31 90 45 00
        E 5 90 3d 00
        E 87 90 45 3d
        E 15 90 39 43
        E 0 90 42 4f
        E 46 90 45 00
        E 113 90 39 00
        E 76 90 3e 4f
        E 0 90 42 00
        E 0 90 42 3f
        E 62 90 42 00
        E 51 90 49 4f
        E 0 90 4c 3b
        E 5 90 3e 00
        E 0 90 40 54
        E 10 90 38 52
        E 51 90 4c 00
        E 102 90 40 00
        E 0 90 40 5c
        E 42 90 49 00
        E 0 90 49 49
        E 71 90 49 00
        E 0 90 49 48
        E 5 90 40 00
        E 0 90 40 60
        E 82 90 40 00
        E 0 90 40 51
        E 87 90 47 40
        E 0 90 49 00
        E 5 90 38 00
        E 0 90 3e 39
        E 0 90 42 2b
        E 0 90 4a 26
        E 5 90 36 3c
        E 5 90 40 00
        E 72 90 36 00
        E 15 90 4a 00
        E 15 90 42 00
        E 77 90 3e 00
        E 123 90 47 00
        E 153 90 47 32
        E 5 90 34 5a
        E 0 90 3e 54
        E 112 90 34 00
        E 0 90 34 41
        E 0 90 3e 00
        E 0 90 3e 4e
        E 0 90 43 55
        E 0 90 47 00
        E 0 90 47 35
        E 83 90 47 00
        E 30 90 37 41
        E 0 90 3e 00
        E 0 90 3e 53
        E 0 90 43 00
        E 31 90 2b 2f
        E 46 90 37 00
        E 15 90 2b 00
        E 21 90 34 00
        E 5 90 2d 4b
        E 0 90 3d 54
        E 0 90 3e 00
        E 240 90 47 42
        E 5 90 37 44
        E 5 90 3d 00
        E 0 90 3d 44
        E 61 90 37 00
        E 26 90 3d 00
        E 10 90 43 54
        E 0 90 47 00
        E 0 90 47 3a
        E 92 90 2d 00
        E 26 90 3d 54
        E 0 90 43 00
        E 0 90 43 43
        E 92 90 43 00
        E 5 90 47 00
        E 10 90 3d 00
        E 5 90 45 35
        E 5 90 32 4e
        E 0 90 3c 45
        E 108 90 42 54
        E 0 90 45 00
        E 0 90 45 3d
        E 92 90 45 00
        E 20 90 42 00
        E 11 90 3c 00
        E 0 90 3c 57
        E 5 90 36 4c
        E 87 90 36 00
        E 10 90 32 00
        E 10 90 3b 49
        E 0 90 3c 00
        E 5 90 2b 5c
        E 225 90 2b 00
        E 0 90 2b 4d
        E 5 90 35 4b
        E 0 90 41 3b
        E 20 90 3b 00
        E 0 90 3b 44
        E 77 90 3b 00
        E 15 90 3e 4e
        E 0 90 41 00
        E 0 90 41 48
        E 6 90 35 00
        E 112 90 3b 54
        E 0 90 3e 00
        E 0 90 3e 41
        E 0 90 41 00
        E 0 90 41 3c
        E 5 90 2b 00
        E 0 90 2b 4b
        E 97 90 2b 00
        E 0 90 3b 00
        E 0 90 3e 00
        E 5 90 41 00
        E 15 90 23 28
        E 0 90 39 3e
        E 0 90 3d 4d
        E 0 90 40 34
        E 62 90 23 00
        E 51 90 39 00
        E 0 90 39 3d
        E 0 90 3d 00
        E 0 90 3d 4f
        E 0 90 40 00
        E 0 90 40 37
        E 113 90 23 32
        E 0 90 39 00
        E 0 90 39 3f
        E 0 90 3d 00
        E 0 90 3d 3c
        E 0 90 40 00
        E 0 90 40 3b
        E 107 90 40 00
        E 36 90 23 00
        E 5 90 39 00
        E 148 90 3d 00
        E 291 90 37 59
        E 0 90 46 47
        E 31 90 3d 55
        E 67 90 46 00
        E 10 90 37 00
        E 0 90 38 4e
        E 0 90 47 4c
        E 10 90 3d 00
        E 21 90 3e 49
        E 71 90 38 00
        E 0 90 3e 00
        E 5 90 47 00
        E 16 90 3a 4b
        E 0 90 43 55
        E 0 90 49 48
        E 107 90 3a 00
        E 0 90 3b 42
        E 0 90 49 00
        E 0 90 4a 4a
        E 20 90 43 00
        E 0 90 44 4d
        E 77 90 44 00
        E 5 90 4a 00
        E 10 90 3e 64
        E 6 90 4e 44
        E 30 90 47 46
        E 5 90 3b 00
        E 31 90 3e 00
        E 0 90 3e 4b
        E 10 90 4e 00
        E 0 90 4e 49
        E 46 90 49 37
        E 15 90 47 00
        E 0 90 4e 00
        E 11 90 43 43
        E 35 90 49 00
        E 103 90 3e 00
        E 102 90 43 00
        E 649 e0 55 4a
        E 0 90 39 68
        E 5 e0 55 4a
        E 6 e0 55 4a
        E 5 e0 55 4a
        E 5 e0 55 4a
        E 5 e0 55 4a
        E 5 e0 55 4a
        E 6 e0 55 4a
        E 5 e0 55 4a
        E 5 e0 55 4a
        E 5 e0 55 4a
        E 6 e0 55 4a
        E 5 e0 55 4a
        E 5 e0 55 4a
        E 5 e0 55 4a
        E 5 e0 55 4a
        E 6 e0 55 4a
        E 5 e0 55 4a
        E 5 e0 55 4a
        E 5 e0 55 4a
        E 6 e0 55 4a
        E 5 e0 55 4a
        E 5 e0 55 4a
        E 5 e0 55 4a
        E 5 e0 55 4a
        E 6 e0 55 4a
        E 5 e0 55 4a
        E 5 e0 55 4a
        E 5 e0 55 4a
        E 6 e0 55 4a
        E 5 e0 55 4a
        E 5 e0 55 4a
        E 5 e0 55 4a
        E 5 e0 55 4a
        E 6 e0 55 4a
        E 5 e0 55 4a
        E 5 e0 55 4a
        E 5 e0 55 4a
        E 6 e0 55 4a
        E 5 e0 55 4a
        E 5 e0 55 4a
        E 5 e0 55 4a
        E 5 e0 55 4a
        E 6 e0 55 4a
        E 5 e0 55 4a
        E 5 e0 55 4a
        E 0 90 39 00
        E 0 90 3a 60
        E 225 90 28 2b
        E 0 90 3e 43
        E 6 90 34 3d
        E 0 90 3a 00
        E 0 90 3b 5d
        E 0 90 47 2a
        E 86 90 47 00
        E 31 90 28 00
        E 77 90 3e 00
        E 20 90 34 00
        E 20 90 47 2f
        E 6 90 43 4b
        E 97 90 47 00
        E 5 90 43 00
        E 5 90 2f 3e
        E 0 90 3e 44
        E 5 90 3a 55
        E 0 90 3b 00
        E 112 90 47 25
        E 5 90 3a 00
        E 0 90 3b 58
        E 77 90 3e 00
        E 5 90 47 00
        E 31 90 3b 00
        E 0 90 3b 63
        E 0 90 43 41
        E 25 90 53 25
        E 133 90 3b 00
        E 0 90 3b 62
        E 52 90 2f 00
        E 0 90 43 00
        E 0 90 53 00
        E 20 90 3d 3c
        E 5 90 3b 00
        E 0 90 3b 4d
        E 11 90 38 2f
        E 71 90 3b 00
        E 0 90 3b 42
        E 5 90 38 00
        E 21 90 3d 00
        E 0 90 3d 47
        E 0 90 40 36
        E 5 90 2d 58
        E 76 90 3b 00
        E 0 90 40 00
        E 31 90 2d 00
        E 0 90 2d 4a
        E 0 90 3d 00
        E 10 90 47 42
        E 5 90 43 4c
        E 108 90 2d 00
        E 0 90 2d 3c
        E 0 90 39 5e
        E 0 90 45 30
        E 5 90 47 00
        E 20 90 43 00
        E 41 90 2d 00
        E 41 90 45 00
        E 10 90 34 4e
        E 0 90 39 00
        E 0 90 3a 4d
        E 0 90 3c 41
        E 82 90 3c 00
        E 31 90 34 00
        E 0 90 34 3b
        E 0 90 3d 3d
        E 10 90 3a 00
        E 46 90 3b 3f
        E 76 90 42 61
        E 41 90 34 00
        E 0 90 3b 00
        E 57 90 47 34
        E 41 90 3d 00
        E 20 90 42 00
        E 0 90 42 5b
        E 26 90 47 00
        E 30 90 3d 4d
        E 16 90 42 00
        E 97 90 32 4e
        E 0 90 3b 5b
        E 0 90 47 2f
        E 87 90 47 00
        E 107 90 3d 00
        E 15 90 47 25
        E 16 90 32 00
        E 0 90 32 2f
        E 10 90 45 2f
        E 5 90 42 44
        E 15 90 3b 00
        E 0 90 3b 56
        E 46 90 32 00
        E 10 90 45 00
        E 6 90 47 00
        E 35 90 2d 4e
        E 0 90 42 00
        E 26 90 3a 46
        E 0 90 3b 00
        E 87 90 3a 00
        E 5 90 3b 5b
        E 102 90 2d 00
        E 0 90 2d 35
        E 10 90 45 33
        E 5 90 3b 00
        E 0 90 3b 5f
        E 0 90 42 4a
        E 0 90 47 26
        E 57 90 45 00
        E 15 90 3b 00
        E 0 90 3b 64
        E 36 90 47 00
        E 61 90 47 24
        E 21 90 2d 00
        E 5 90 42 00
        E 31 90 3d 34
        E 5 90 3b 00
        E 0 90 3b 48
        E 20 90 38 33
        E 0 90 47 00
        E 72 90 38 00
        E 20 90 32 4c
        E 0 90 3d 00
        E 0 90 3d 45
        E 51 90 3b 00
        E 0 90 3b 4c
        E 36 90 3d 00
        E 26 90 32 00
        E 0 90 32 43
        E 10 90 45 2c
        E 5 90 42 46
        E 5 90 3b 00
        E 0 90 3b 46
        E 148 90 3b 00
        E 31 90 32 00
        E 0 90 45 00
        E 15 90 42 00
        E 21 90 2d 43
        E 0 90 3a 4c
        E 107 90 3a 00
        E 10 90 3b 62
        E 15 90 47 28
        E 67 90 47 00
        E 102 90 2d 00
        E 31 90 2d 34
        E 10 90 45 36
        E 5 90 42 37
        E 16 90 3b 00
        E 20 90 3c 51
        E 133 90 42 00
        E 5 90 45 00
        E 15 90 2d 00
        E 41 90 2c 3f
        E 0 90 42 30
        E 21 90 3c 00
        E 20 90 3d 60
        E 21 90 42 00
        E 92 90 3d 00
        E 0 90 3d 5f
        E 81 90 47 35
        E 21 90 2f 33
        E 10 90 3d 00
        E 0 90 3d 44
        E 5 90 2c 00
        E 41 90 47 00
        E 5 90 2f 00
        E 31 90 31 4a
        E 0 90 41 37
        E 10 90 3d 00
        E 46 90 3c 57
        E 56 90 31 00
        E 0 90 31 47
        E 15 90 3c 00
        E 21 90 3d 65
        E 41 90 41 00
        E 31 90 31 00
        E 0 90 31 41
        E 10 90 3d 00
        E 0 90 3d 5b
        E 0 90 46 38
        E 72 90 3d 00
        E 0 90 3d 63
        E 81 90 3d 00
        E 0 90 3d 64
        E 6 90 46 00
        E 56 90 31 00
        E 15 90 41 3e
        E 10 90 3d 00
        E 0 90 3d 56
        E 10 90 39 3c
        E 92 90 39 00
        E 0 90 41 00
        E 6 90 3d 00
        E 0 90 3d 4f
        E 5 90 2a 58
        E 0 90 3a 43
        E 76 90 3a 00
        E 31 90 2a 00
        E 0 90 2a 53
        E 5 90 49 36
        E 5 90 3d 00
        E 0 90 3d 45
        E 0 90 46 38
        E 97 90 49 00
        E 51 90 3d 00
        E 0 90 3d 56
        E 10 90 46 00
        E 31 90 25 43
        E 10 90 2a 00
        E 31 90 3c 5c
        E 0 90 3d 00
        E 0 90 3e 39
        E 36 90 25 00
        E 0 90 25 5d
        E 30 90 3e 00
        E 6 90 3c 00
        E 0 90 3c 4f
        E 35 90 25 00
        E 0 90 25 49
        E 11 90 3f 30
        E 15 90 3c 00
        E 21 90 3d 52
        E 71 90 3f 00
        E 0 90 3f 36
        E 16 90 3d 00
        E 5 90 44 5a
        E 66 90 3f 00
        E 31 90 31 22
        E 0 90 49 33
        E 5 90 3d 3f
        E 71 90 31 00
        E 0 90 44 00
        E 0 90 44 52
        E 6 90 3d 00
        E 25 90 49 00
        E 5 90 3f 60
        E 41 90 44 00
        E 21 90 25 00
        E 30 90 2a 4b
        E 26 90 3d 59
        E 0 90 3f 00
        E 0 90 40 40
        E 35 90 2a 00
        E 6 90 2a 59
        E 199 90 45 3c
        E 41 90 3d 00
        E 0 90 3d 55
        E 25 90 40 00
        E 21 90 2a 00
        E 20 90 45 00
        E 5 90 2f 5b
        E 5 90 3f 48
        E 0 90 4b 2b
        E 11 90 3d 00
        E 61 90 4b 00
        E 31 90 2f 00
        E 0 90 2f 4a
        E 0 90 47 32
        E 5 90 3b 5d
        E 97 90 47 00
        E 10 90 2f 00
        E 0 90 2f 37
        E 11 90 45 28
        E 5 90 3b 00
        E 0 90 3b 5f
        E 10 90 53 29
        E 41 90 3f 00
        E 30 90 3b 00
        E 0 90 3b 69
        E 26 90 45 00
        E 46 90 3b 00
        E 0 90 3b 65
        E 72 90 3d 4b
        E 5 90 3b 00
        E 0 90 3b 51
        E 0 90 41 2f
        E 35 90 2f 00
        E 31 90 53 00
        E 20 90 41 00
        E 21 90 28 55
        E 0 90 3d 00
        E 5 90 3e 4d
        E 41 90 42 28
        E 61 90 3e 00
        E 21 90 42 00
        E 0 90 42 46
        E 0 90 45 43
        E 184 90 47 26
        E 5 90 45 00
        E 10 90 42 00
        E 20 90 28 00
        E 0 90 28 3e
        E 5 90 3e 4e
        E 62 90 47 00
        E 5 90 28 00
        E 31 90 3e 00
        E 10 90 31 3d
        E 5 90 40 39
        E 5 90 3b 00
        E 0 90 3b 46
        E 0 90 44 46
        E 113 90 31 00
        E 0 90 31 3f
        E 0 90 3b 00
        E 0 90 3b 48
        E 0 90 40 00
        E 0 90 40 38
        E 5 90 44 00
        E 0 90 44 48
        E 107 90 40 00
        E 0 90 40 40
        E 5 90 31 00
        E 0 90 31 43
        E 0 90 3b 00
        E 0 90 3b 43
        E 5 90 44 00
        E 0 90 44 40
        E 67 90 40 00
        E 36 90 31 00
        E 56 90 3b 00
        E 51 90 44 00
        E 15 90 2f 4d
        E 0 90 3e 47
        E 0 90 42 33
        E 194 90 2f 00
        E 5 90 3e 00
        E 36 90 42 00
        E 0 90 42 52
        E 0 90 45 53
        E 77 90 42 00
        E 31 90 45 00
        E 0 90 45 4c
        E 0 90 49 49
        E 163 90 45 00
        E 46 90 49 00
        E 26 90 45 49
        E 5 90 42 3c
        E 184 90 45 00
        E 46 90 3e 51
        E 0 90 42 00
        E 0 90 42 50
        E 72 90 42 00
        E 40 90 3e 00
        E 0 90 3e 49
        E 5 90 38 41
        E 113 90 38 00
        E 0 90 38 45
        E 0 90 3e 00
        E 0 90 3e 4b
        E 117 90 38 00
        E 0 90 38 4b
        E 0 90 3e 00
        E 0 90 3e 43
        E 78 90 38 00
        E 81 90 3e 00
        E 419 90 3d 4b
        E 5 90 35 58
        E 108 90 2f 4e
        E 0 90 3d 00
        E 5 90 35 00
        E 0 90 36 4e
        E 0 90 3e 3f
        E 92 90 36 00
        E 20 90 2f 00
        E 0 90 3e 00
        E 0 90 3e 57
        E 0 90 42 48
        E 107 90 3e 00
        E 6 90 42 00
        E 0 90 42 4c
        E 0 90 45 4c
        E 77 90 42 00
        E 40 90 45 00
        E 0 90 45 3e
        E 0 90 49 49
        E 200 90 49 00
        E 30 90 45 00
        E 0 90 45 48
        E 5 90 42 3b
        E 164 90 45 00
        E 66 90 3e 56
        E 0 90 42 00
        E 0 90 42 50
        E 77 90 42 00
        E 15 90 3e 00
        E 26 90 4c 4e
        E 5 90 49 59
        E 10 90 38 55
        E 87 90 49 00
        E 0 90 49 55
        E 72 90 4c 00
        E 0 90 4c 4c
        E 67 90 4c 00
        E 0 90 4c 47
        E 97 90 48 4c
        E 0 90 49 00
        E 25 90 37 51
        E 0 90 38 00
        E 15 90 4b 43
        E 0 90 4c 00
        E 87 90 47 36
        E 0 90 48 00
        E 5 90 36 3f
        E 0 90 37 00
        E 5 90 4b 00
        E 6 90 4a 3c
        E 76 90 4a 00
        E 199 90 36 00
        E 16 90 47 00
        E 158 90 44 2c
        E 41 90 2d 51
        E 41 90 44 00
        E 113 90 2d 00
        E 36 90 49 3a
        E 5 90 40 48
        E 92 90 40 00
        E 10 90 42 40
        E 184 90 42 00
        E 56 90 49 00
        E 0 90 49 3f
        E 5 90 34 3b
        E 82 90 49 00
        E 41 90 34 00
        E 102 90 44 49
        E 5 90 39 42
        E 143 90 39 00
        E 0 90 44 00
        E 82 90 49 4a
        E 5 90 40 46
        E 123 90 40 00
        E 82 90 49 00
        E 25 e0 55 4a
        E 0 90 37 58
        E 6 e0 55 4a
        E 5 e0 55 4a
        E 5 e0 55 4a
        E 5 e0 55 4a
        E 6 e0 55 4a
        E 5 e0 55 4a
        E 5 e0 55 4a
        E 6 e0 55 4a
        E 5 e0 55 4a
        E 5 e0 55 4a
        E 6 e0 55 4a
        E 5 e0 55 4a
        E 5 e0 55 4a
        E 5 e0 55 4a
        E 6 e0 55 4a
        E 5 e0 55 4a
        E 5 e0 55 4a
        E 6 e0 55 4a
        E 5 e0 55 4a
        E 5 e0 55 4a
        E 6 e0 55 4a
        E 5 e0 55 4a
        E 5 e0 55 4a
        E 5 e0 55 2a
        E 6 e0 55 2a
        E 5 e0 55 2a
        E 5 e0 55 2a
        E 0 90 37 00
        E 11 e0 55 4a
        E 0 90 36 3e
        E 5 e0 55 4a
        E 5 e0 55 4a
        E 5 e0 55 4a
        E 6 e0 55 4a
        E 5 e0 55 4a
        E 5 e0 55 4a
        E 6 e0 55 4a
        E 5 e0 55 4a
        E 5 e0 55 4a
        E 5 e0 55 4a
        E 6 e0 55 4a
        E 5 e0 55 4a
        E 5 e0 55 4a
        E 6 e0 55 4a
        E 5 e0 55 4a
        E 5 e0 55 4a
        E 5 e0 55 4a
        E 6 e0 55 4a
        E 5 e0 55 4a
        E 5 e0 55 4a
        E 6 e0 55 4a
        E 5 e0 55 6a
        E 5 e0 55 6a
        E 5 e0 55 4a
        E 6 e0 55 4a
        E 5 e0 55 4a
        E 5 e0 55 4a
        E 6 e0 55 4a
        E 0 90 36 00
        E 51 90 3d 46
        E 0 90 40 49
        E 179 90 3d 00
        E 46 90 3c 54
        E 0 90 40 00
        E 0 90 40 35
        E 5 90 26 32
        E 0 90 36 3f
        E 77 90 26 00
        E 30 90 40 00
        E 0 90 40 34
        E 6 90 3c 00
        E 0 90 3c 55
        E 5 90 26 2f
        E 0 90 36 00
        E 0 90 36 41
        E 71 90 26 00
        E 36 90 3c 00
        E 0 90 3c 45
        E 0 90 40 00
        E 0 90 40 3b
        E 5 90 26 30
        E 0 90 36 00
        E 0 90 36 3e
        E 66 90 40 00
        E 36 90 26 00
        E 92 90 36 00
        E 153 90 3c 00
        E 113 90 26 2c
        E 0 90 3c 52
        E 0 90 40 30
        E 10 90 36 3e
        E 107 90 40 00
        E 0 90 40 2b
        E 5 90 26 00
        E 0 90 26 34
        E 0 90 36 00
        E 0 90 36 38
        E 0 90 3c 00
        E 0 90 3c 4f
        E 108 90 26 00
        E 0 90 26 39
        E 0 90 3c 00
        E 0 90 3c 47
        E 0 90 40 00
        E 0 90 40 37
        E 10 90 36 00
        E 0 90 36 41
        E 52 90 40 00
        E 76 90 26 00
        E 10 90 36 00
        E 11 90 3c 00
        E 306 90 31 44
        E 5 90 3b 4e
        E 0 90 3f 50
        E 5 90 34 47
        E 179 90 31 00
        E 41 90 30 41
        E 0 90 3e 42
        E 0 90 3f 00
        E 10 90 3a 49
        E 0 90 3b 00
        E 21 90 34 00
        E 5 90 33 47
        E 36 90 27 2e
        E 5 90 3e 00
        E 0 90 3e 51
        E 67 90 3e 00
        E 0 90 3e 52
        E 30 90 30 00
        E 10 90 27 00
        E 41 90 33 00
        E 0 90 3e 00
        E 0 90 3e 47
        E 0 90 42 2d
        E 5 90 2f 43
        E 11 90 32 31
        E 0 90 39 40
        E 0 90 3a 00
        E 46 90 3e 00
        E 25 90 2f 00
        E 0 90 42 00
        E 21 90 3d 3e
        E 30 90 39 00
        E 41 90 32 00
        E 26 90 3d 00
        E 25 90 42 41
        E 0 90 45 38
        E 62 90 42 00
        E 66 90 45 00
        E 0 90 45 4a
        E 0 90 49 38
        E 179 90 49 00
        E 46 90 42 45
        E 0 90 45 00
        E 0 90 45 4a
        E 168 90 42 00
        E 26 90 45 00
        E 51 90 31 3d
        E 41 90 3f 46
        E 46 90 31 00
        E 11 90 32 39
        E 5 90 38 42
        E 0 90 3f 00
        E 0 90 40 40
        E 76 90 40 00
        E 36 90 38 00
        E 0 90 38 43
        E 0 90 3e 31
        E 5 90 32 00
        E 0 90 32 35
        E 112 90 32 00
        E 0 90 32 40
        E 6 90 38 00
        E 0 90 38 49
        E 35 90 3e 00
        E 46 90 38 00
        E 77 90 32 00
        E 71 e0 55 4a
        E 0 90 3e 31
        E 6 e0 55 4a
        E 5 e0 55 4a
        E 5 e0 55 4a
        E 6 e0 55 4a
        E 5 e0 55 4a
        E 5 e0 55 4a
        E 5 e0 55 4a
        E 6 e0 55 4a
        E 5 e0 55 4a
        E 5 e0 55 4a
        E 6 e0 2b 55
        E 5 e0 2b 55
        E 5 e0 2b 55
        E 5 e0 2b 55
        E 6 e0 2b 55
        E 5 e0 2b 55
        E 5 e0 55 4a
        E 6 e0 55 4a
        E 5 e0 55 4a
        E 5 e0 55 4a
        E 5 e0 55 4a
        E 6 e0 55 4a
        E 5 e0 55 4a
        E 5 e0 55 4a
        E 5 e0 55 4a
        E 6 e0 55 4a
        E 5 e0 55 4a
        E 5 e0 55 4a
        E 6 e0 55 4a
        E 5 e0 55 4a
        E 0 90 3e 00
        E 71 90 3e 38
        E 5 90 44 26
        E 93 90 44 00
        E 31 90 3e 00
        E 102 e0 55 4a
        E 0 90 2f 5d
        E 5 e0 55 4a
        E 6 e0 55 4a
        E 5 e0 55 4a
        E 5 e0 55 4a
        E 6 e0 55 4a
        E 5 e0 55 4a
        E 5 e0 55 4a
        E 6 e0 55 4a
        E 5 e0 55 4a
        E 5 e0 55 4a
        E 6 e0 55 4a
        E 5 e0 55 4a
        E 6 e0 55 4a
        E 5 e0 55 4a
        E 5 e0 55 4a
        E 6 e0 55 4a
        E 5 e0 55 4a
        E 5 e0 55 4a
        E 6 e0 55 4a
        E 5 e0 55 4a
        E 0 90 2f 00
        E 10 90 36 45
        E 26 90 3e 5d
        E 92 90 39 50
        E 0 90 3e 00
        E 0 90 3e 3d
        E 41 90 42 48
        E 5 90 36 00
        E 15 90 3e 00
        E 46 90 49 2d
        E 5 90 39 00
        E 0 90 39 35
        E 5 90 3d 41
        E 0 90 45 45
        E 26 90 42 00
        E 71 90 49 00
        E 16 90 39 00
        E 5 90 45 00
        E 5 90 3d 00
        E 107 90 39 42
        E 0 90 42 50
        E 154 90 39 00
        E 56 90 42 00
        E 0 90 42 40
        E 21 90 36 32
        E 0 90 3e 4d
        E 56 90 42 00
        E 5 90 36 00
        E 51 90 49 4e
        E 0 90 4c 3b
        E 5 90 40 53
        E 5 90 38 50
        E 10 90 3e 00
        E 52 90 4c 00
        E 97 90 40 00
        E 0 90 40 5b
        E 40 90 49 00
        E 0 90 49 4c
        E 72 90 49 00
        E 0 90 49 47
        E 10 90 40 00
        E 0 90 40 5e
        E 82 90 40 00
        E 0 90 40 4f
        E 92 90 42 2d
        E 0 90 47 40
        E 0 90 49 00
        E 5 90 38 00
        E 0 90 3e 39
        E 10 90 40 00
        E 5 90 36 36
        E 62 90 36 00
        E 25 90 42 00
        E 88 90 3e 00
        E 127 90 47 00
        E 138 90 3e 53
        E 0 90 47 30
        E 5 90 34 4f
        E 113 90 3e 00
        E 0 90 3e 49
        E 0 90 43 53
        E 97 90 47 00
        E 15 90 43 00
        E 5 90 37 42
        E 0 90 3e 00
        E 0 90 3e 52
        E 5 90 34 00
        E 0 90 34 39
        E 72 90 37 00
        E 41 90 2d 45
        E 0 90 3d 54
        E 0 90 3e 00
        E 25 90 34 00
        E 210 90 47 47
        E 5 90 37 43
        E 0 90 3d 00
        E 0 90 3d 4a
        E 72 90 37 00
        E 25 90 3d 00
        E 0 90 47 00
        E 0 90 47 3d
        E 5 90 43 56
        E 113 90 3d 51
        E 0 90 43 00
        E 0 90 43 42
        E 0 90 47 00
        E 0 90 47 36
        E 51 90 2d 00
        E 46 90 43 00
        E 0 90 47 00
        E 15 90 3d 00
        E 5 90 32 5a
        E 0 90 3c 46
        E 0 90 45 35
        E 118 90 32 00
        E 0 90 32 42
        E 0 90 42 56
        E 0 90 45 00
        E 0 90 45 3b
        E 97 90 45 00
        E 20 90 3c 00
        E 0 90 3c 57
        E 0 90 42 00
        E 5 90 36 4c
        E 92 90 36 00
        E 21 90 3b 4b
        E 0 90 3c 00
        E 41 90 2b 5c
        E 20 90 32 00
        E 159 90 2b 00
        E 0 90 2b 48
        E 5 90 41 3c
        E 5 90 35 44
        E 16 90 3b 00
        E 0 90 3b 48
        E 92 90 3b 00
        E 5 90 3e 4e
        E 0 90 41 00
        E 0 90 41 49
        E 51 90 35 00
        E 66 90 3b 55
        E 0 90 3e 00
        E 0 90 3e 40
        E 0 90 41 00
        E 0 90 41 3c
        E 97 90 3e 00
        E 0 90 41 00
        E 5 90 2b 00
        E 0 90 3b 00
        E 21 90 39 3c
        E 0 90 3d 4b
        E 0 90 40 34
        E 112 90 39 00
        E 0 90 39 3d
        E 5 90 3d 00
        E 0 90 3d 4c
        E 0 90 40 00
        E 0 90 40 35
        E 10 90 2f 26
        E 67 90 2f 00
        E 36 90 39 00
        E 0 90 39 3e
        E 0 90 3d 00
        E 0 90 3d 3f
        E 5 90 40 00
        E 0 90 40 3a
        E 10 90 23 2f
        E 87 90 40 00
        E 20 90 23 00
        E 21 90 39 00
        E 128 90 3d 00
        E 312 90 46 47
        E 30 90 3d 55
        E 16 90 37 59
        E 56 90 46 00
        E 5 90 37 00
        E 0 90 38 4d
        E 0 90 47 4d
        E 10 90 3d 00
        E 26 90 3e 4b
        E 71 90 38 00
        E 0 90 3e 00
        E 5 90 47 00
        E 10 90 49 49
        E 6 90 3a 4c
        E 20 90 43 53
        E 87 90 3a 00
        E 0 90 3b 40
        E 0 90 49 00
        E 0 90 4a 4c
        E 15 90 43 00
        E 15 90 44 4b
        E 62 90 44 00
        E 10 90 4a 00
        E 10 90 3e 65
        E 5 90 4e 41
        E 36 90 47 4a
        E 10 90 3b 00
        E 21 90 3e 00
        E 0 90 3e 4c
        E 0 90 4e 00
        E 0 90 4e 49
        E 51 90 43 46
        E 0 90 49 36
        E 16 90 47 00
        E 0 90 4e 00
        E 46 90 49 00
        E 97 90 3e 00
        E 112 90 43 00
        E 152 b0 7b 00
        CCINTERP 32
        CHASE_CC_TAKEOFFS 1
        GUID {6BBD89D8-C7F3-4B9C-8E62-B0D42C9F4668}
        IGNTEMPO 0 120 4 4
        SRCCOLOR 18
        VELLANE -1 100 0
      >
    >
  >
  <UINF 91
    <ITEM {02E441AB-56D0-45AB-A3B0-5E55606885F7}
      POSITION 0
      SNAPOFFS 0
      LENGTH 86
      LOOP 1
      ALLTAKES 0
      FADEIN 1 0 0 1 0 0 0
      FADEOUT 1 0 0 1 0 0 0
      MUTE 0 0
      SEL 0
      IGUID {02E441AB-56D0-45AB-A3B0-5E55606885F7}
      IID 17
      NAME wii_music_basic_pitch.mid
      VOLPAN 1 0 1 -1
      SOFFS 0 0
      PLAYRATE 1 1 0 -1 0 0.0025
      CHANMODE 0
      GUID {CDAFB8D3-260D-459D-960A-2CA217EAFF7C}
      <SOURCE MIDI
        HASDATA 1 220 QN
        CCINTERP 32
        POOLEDEVTS {379CF912-1A02-48A2-A6E3-67C2EC7E4A9E}
        E 0 c0 04 00
        E 1150 90 38 19
        E 0 90 3e 15
        E 123 90 38 00
        E 0 90 3e 00
        E 562 e0 00 40
        E 0 90 35 35
        E 6 e0 00 40
        E 5 e0 55 2a
        E 6 e0 55 2a
        E 5 e0 2b 35
        E 6 e0 2b 35
        E 5 e0 55 2a
        E 6 e0 55 2a
        E 6 e0 00 20
        E 5 e0 00 20
        E 6 e0 00 20
        E 5 e0 00 20
        E 0 90 35 00
        E 51 e0 55 4a
        E 0 90 36 40
        E 6 e0 2b 35
        E 6 e0 55 2a
        E 5 e0 55 2a
        E 6 e0 2b 35
        E 5 e0 2b 35
        E 6 e0 55 2a
        E 5 e0 55 2a
        E 6 e0 55 2a
        E 6 e0 00 20
        E 5 e0 00 20
        E 6 e0 00 20
        E 0 90 36 00
        E 859 90 38 29
        E 10 90 3d 1b
        E 0 90 49 31
        E 66 90 49 00
        E 51 90 3d 00
        E 41 90 38 00
        E 194 90 48 31
        E 5 90 37 4b
        E 26 90 4b 20
        E 36 90 48 00
        E 5 90 37 00
        E 46 90 4b 00
        E 445 e0 00 40
        E 0 90 2d 34
        E 5 e0 00 40
        E 6 e0 00 40
        E 5 e0 00 20
        E 6 e0 55 2a
        E 6 e0 2b 35
        E 5 e0 2b 35
        E 6 e0 55 2a
        E 5 e0 00 20
        E 6 e0 00 20
        E 5 e0 00 20
        E 6 e0 55 2a
        E 0 90 2d 00
        E 199 e0 55 2a
        E 0 90 49 1d
        E 6 e0 55 2a
        E 5 e0 2b 35
        E 6 e0 2b 35
        E 5 e0 55 2a
        E 5 e0 00 20
        E 6 e0 2b 75
        E 5 e0 2b 75
        E 6 e0 55 2a
        E 5 e0 55 2a
        E 6 e0 55 2a
        E 5 e0 00 20
        E 6 e0 55 4a
        E 5 e0 55 4a
        E 5 e0 55 4a
        E 6 e0 55 2a
        E 0 90 49 00
        E 491 e0 55 2a
        E 0 90 44 11
        E 5 e0 2b 35
        E 6 e0 00 40
        E 5 e0 00 40
        E 6 e0 00 40
        E 5 e0 2b 35
        E 6 e0 00 20
        E 5 e0 00 20
        E 6 e0 00 20
        E 5 e0 00 20
        E 6 e0 55 2a
        E 5 e0 55 2a
        E 6 e0 00 20
        E 5 e0 00 20
        E 0 90 44 00
        E 169 90 40 22
        E 0 90 49 24
        E 82 90 40 00
        E 5 90 49 00
        E 112 90 2b 20
        E 10 90 37 48
        E 72 90 2b 00
        E 0 90 37 00
        E 46 e0 00 40
        E 0 90 36 30
        E 5 e0 00 40
        E 5 e0 2b 15
        E 5 e0 00 20
        E 5 e0 55 2a
        E 6 e0 55 2a
        E 5 e0 55 2a
        E 5 e0 55 2a
        E 5 e0 55 2a
        E 5 e0 00 20
        E 5 e0 00 20
        E 5 e0 00 20
        E 6 e0 00 20
        E 5 e0 00 20
        E 5 e0 00 20
        E 5 e0 00 20
        E 5 e0 00 20
        E 5 e0 00 20
        E 5 e0 55 2a
        E 5 e0 55 2a
        E 6 e0 55 2a
        E 5 e0 00 20
        E 5 e0 00 20
        E 5 e0 00 20
        E 5 e0 55 2a
        E 0 90 36 00
        E 123 e0 55 2a
        E 0 90 40 23
        E 5 e0 2b 35
        E 6 e0 2b 35
        E 5 e0 2b 35
        E 5 e0 55 2a
        E 6 e0 55 2a
        E 5 e0 00 20
        E 6 e0 00 20
        E 5 e0 00 20
        E 5 e0 00 20
        E 6 e0 00 20
        E 5 e0 00 20
        E 6 e0 55 4a
        E 5 e0 2b 15
        E 5 e0 2b 15
        E 6 e0 2b 15
        E 5 e0 55 2a
        E 6 e0 55 2a
        E 0 90 40 00
        E 1763 e0 55 2a
        E 0 90 3e 1f
        E 6 e0 2b 35
        E 5 e0 2b 35
        E 6 e0 2b 35
        E 5 e0 55 2a
        E 6 e0 55 2a
        E 5 e0 55 2a
        E 6 e0 55 2a
        E 5 e0 00 20
        E 6 e0 55 6a
        E 6 e0 55 6a
        E 5 e0 00 20
        E 6 e0 00 20
        E 0 90 3e 00
        E 178 e0 2b 35
        E 0 90 3d 2f
        E 6 e0 55 2a
        E 5 e0 55 2a
        E 6 e0 55 2a
        E 5 e0 55 2a
        E 6 e0 55 2a
        E 5 e0 00 20
        E 6 e0 00 20
        E 5 e0 00 20
        E 5 e0 00 20
        E 6 e0 00 20
        E 5 e0 00 20
        E 6 e0 00 20
        E 5 e0 55 2a
        E 6 e0 55 2a
        E 5 e0 55 2a
        E 0 90 3d 00
        E 1871 e0 2b 35
        E 0 90 3e 26
        E 5 e0 2b 35
        E 6 e0 2b 35
        E 5 e0 55 2a
        E 6 e0 00 20
        E 5 e0 00 20
        E 6 e0 00 20
        E 5 e0 00 20
        E 6 e0 00 20
        E 5 e0 00 20
        E 6 e0 55 6a
        E 5 e0 55 6a
        E 6 e0 00 20
        E 5 e0 00 20
        E 6 e0 00 20
        E 0 90 3e 00
        E 25 90 39 24
        E 10 90 42 34
        E 57 90 42 00
        E 66 90 39 00
        E 557 e0 2b 15
        E 0 90 38 32
        E 6 e0 2b 15
        E 5 e0 2b 15
        E 6 e0 2b 35
        E 5 e0 00 40
        E 6 e0 00 40
        E 5 e0 00 40
        E 6 e0 55 2a
        E 6 e0 55 2a
        E 5 e0 55 2a
        E 6 e0 00 20
        E 5 e0 00 20
        E 6 e0 55 2a
        E 0 90 38 00
        E 976 e0 00 00
        E 0 90 43 2f
        E 5 e0 00 00
        E 5 e0 2b 35
        E 5 e0 55 2a
        E 6 e0 2b 35
        E 5 e0 2b 35
        E 5 e0 55 2a
        E 5 e0 00 20
        E 5 e0 00 20
        E 5 e0 00 20
        E 5 e0 00 20
        E 6 e0 55 4a
        E 5 e0 00 20
        E 5 e0 55 2a
        E 0 90 43 00
        E 638 e0 55 4a
        E 0 90 3d 18
        E 6 e0 2b 35
        E 6 e0 2b 35
        E 5 e0 2b 35
        E 6 e0 55 2a
        E 5 e0 55 2a
        E 6 e0 55 2a
        E 6 e0 00 20
        E 5 e0 00 20
        E 6 e0 00 20
        E 5 e0 00 20
        E 6 e0 55 2a
        E 0 90 3d 00
        E 399 e0 55 2a
        E 0 90 2b 2f
        E 5 e0 55 2a
        E 6 e0 2b 35
        E 5 e0 55 2a
        E 6 e0 55 2a
        E 5 e0 00 20
        E 5 e0 00 20
        E 6 e0 00 20
        E 5 e0 00 20
        E 6 e0 55 2a
        E 5 e0 55 2a
        E 6 e0 55 2a
        E 5 e0 55 2a
        E 5 e0 55 2a
        E 6 e0 55 2a
        E 5 e0 00 20
        E 6 e0 00 20
        E 0 90 2b 00
        E 265 e0 55 2a
        E 0 90 3e 23
        E 6 e0 2b 35
        E 5 e0 2b 35
        E 6 e0 55 2a
        E 6 e0 00 20
        E 5 e0 00 20
        E 6 e0 00 20
        E 5 e0 55 2a
        E 6 e0 55 2a
        E 5 e0 55 2a
        E 6 e0 55 2a
        E 6 e0 55 2a
        E 0 90 3e 00
        E 1201 e0 55 2a
        E 0 90 3a 47
        E 6 e0 00 20
        E 5 e0 00 20
        E 6 e0 00 20
        E 5 e0 55 2a
        E 6 e0 55 2a
        E 5 e0 55 2a
        E 6 e0 55 2a
        E 5 e0 55 2a
        E 6 e0 00 20
        E 6 e0 00 20
        E 5 e0 00 20
        E 6 e0 55 2a
        E 0 90 3a 00
        E 281 e0 2b 15
        E 0 90 43 3d
        E 5 e0 2b 15
        E 6 e0 2b 15
        E 5 e0 55 2a
        E 5 e0 55 2a
        E 6 e0 55 2a
        E 5 e0 55 2a
        E 6 e0 00 20
        E 5 e0 00 20
        E 6 e0 2b 15
        E 5 e0 2b 15
        E 6 e0 00 20
        E 5 e0 00 20
        E 6 e0 55 2a
        E 5 e0 00 20
        E 0 90 43 00
        E 1094 e0 00 20
        E 0 90 46 29
        E 5 e0 55 2a
        E 6 e0 55 2a
        E 5 e0 55 2a
        E 6 e0 55 2a
        E 5 e0 55 2a
        E 6 e0 55 2a
        E 5 e0 55 2a
        E 6 e0 00 20
        E 5 e0 00 20
        E 6 e0 55 6a
        E 5 e0 55 6a
        E 6 e0 55 6a
        E 5 e0 55 6a
        E 0 90 46 00
        E 154 e0 2b 35
        E 0 90 3b 2e
        E 6 e0 2b 35
        E 5 e0 2b 35
        E 5 e0 55 2a
        E 5 e0 55 2a
        E 6 e0 55 2a
        E 5 e0 00 20
        E 5 e0 00 20
        E 6 e0 00 20
        E 5 e0 00 20
        E 5 e0 00 20
        E 5 e0 00 20
        E 6 e0 55 2a
        E 5 e0 55 2a
        E 5 e0 55 2a
        E 5 e0 55 2a
        E 6 e0 55 2a
        E 5 e0 00 20
        E 5 e0 00 20
        E 6 e0 00 20
        E 5 e0 00 20
        E 5 e0 00 20
        E 5 e0 00 20
        E 6 e0 00 20
        E 5 e0 00 20
        E 5 e0 00 20
        E 6 e0 00 20
        E 5 e0 55 2a
        E 5 e0 55 2a
        E 5 e0 55 2a
        E 6 e0 55 2a
        E 0 90 3b 00
        E 194 e0 2b 15
        E 0 90 3e 21
        E 5 e0 55 2a
        E 6 e0 2b 35
        E 5 e0 2b 35
        E 6 e0 55 2a
        E 5 e0 55 2a
        E 6 e0 00 20
        E 6 e0 00 20
        E 5 e0 55 2a
        E 6 e0 55 2a
        E 5 e0 55 2a
        E 6 e0 55 2a
        E 5 e0 55 2a
        E 0 90 3e 00
        E 51 90 3b 20
        E 148 90 2f 22
        E 62 90 2f 00
        E 0 90 3b 00
        E 715 e0 55 6a
        E 0 90 3b 22
        E 6 e0 55 2a
        E 5 e0 55 2a
        E 6 e0 2b 35
        E 5 e0 55 2a
        E 6 e0 55 2a
        E 5 e0 55 2a
        E 6 e0 55 2a
        E 5 e0 00 20
        E 6 e0 00 20
        E 5 e0 2b 15
        E 6 e0 55 6a
        E 5 e0 00 60
        E 6 e0 55 6a
        E 0 90 3b 00
        E 66 e0 00 20
        E 0 90 42 21
        E 5 e0 55 2a
        E 6 e0 55 2a
        E 5 e0 55 2a
        E 5 e0 55 2a
        E 5 e0 55 2a
        E 5 e0 55 2a
        E 5 e0 00 20
        E 5 e0 00 20
        E 6 e0 55 2a
        E 5 e0 55 2a
        E 5 e0 55 2a
        E 5 e0 00 20
        E 5 e0 00 20
        E 5 e0 00 20
        E 5 e0 00 20
        E 5 e0 00 20
        E 6 e0 00 20
        E 5 e0 55 2a
        E 5 e0 55 2a
        E 5 e0 55 2a
        E 5 e0 55 2a
        E 5 e0 2b 35
        E 5 e0 2b 35
        E 5 e0 2b 35
        E 6 e0 55 2a
        E 5 e0 00 20
        E 5 e0 00 20
        E 5 e0 00 20
        E 5 e0 00 20
        E 5 e0 00 20
        E 5 e0 00 20
        E 0 90 42 00
        E 148 90 32 21
        E 16 90 3b 20
        E 51 90 32 00
        E 97 90 3b 00
        E 312 e0 55 4a
        E 0 90 3b 27
        E 5 e0 55 4a
        E 5 e0 55 2a
        E 5 e0 55 2a
        E 6 e0 55 2a
        E 5 e0 55 2a
        E 5 e0 55 2a
        E 6 e0 00 20
        E 5 e0 00 20
        E 5 e0 00 20
        E 6 e0 00 20
        E 5 e0 00 20
        E 5 e0 00 20
        E 5 e0 2b 75
        E 6 e0 2b 75
        E 5 e0 55 2a
        E 5 e0 55 2a
        E 6 e0 55 2a
        E 5 e0 55 2a
        E 5 e0 55 2a
        E 6 e0 00 20
        E 5 e0 00 20
        E 5 e0 55 6a
        E 6 e0 55 6a
        E 5 e0 55 2a
        E 5 e0 55 2a
        E 5 e0 55 2a
        E 0 90 3b 00
        E 798 e0 55 2a
        E 0 90 3b 2d
        E 5 e0 55 2a
        E 5 e0 2b 35
        E 5 e0 2b 35
        E 5 e0 55 2a
        E 6 e0 55 2a
        E 5 e0 55 2a
        E 5 e0 00 20
        E 5 e0 00 20
        E 5 e0 00 20
        E 5 e0 00 20
        E 5 e0 00 20
        E 5 e0 00 20
        E 6 e0 55 2a
        E 5 e0 55 2a
        E 5 e0 55 2a
        E 5 e0 00 20
        E 5 e0 00 20
        E 5 e0 00 20
        E 5 e0 00 20
        E 6 e0 00 20
        E 5 e0 00 20
        E 5 e0 55 6a
        E 5 e0 2b 15
        E 5 e0 00 20
        E 5 e0 55 2a
        E 5 e0 55 2a
        E 5 e0 55 2a
        E 0 90 3b 00
        E 87 90 3c 27
        E 0 90 48 23
        E 67 90 48 00
        E 81 90 3c 00
        E 67 90 2c 20
        E 20 90 3d 2b
        E 46 90 2c 00
        E 143 90 3d 00
        E 164 e0 2b 35
        E 0 90 3c 2d
        E 5 e0 2b 35
        E 6 e0 55 2a
        E 5 e0 00 20
        E 6 e0 00 20
        E 6 e0 00 20
        E 5 e0 00 20
        E 6 e0 00 20
        E 5 e0 00 20
        E 6 e0 00 20
        E 5 e0 00 20
        E 6 e0 00 20
        E 0 90 3c 00
        E 36 e0 2b 55
        E 0 90 3d 50
        E 5 e0 2b 55
        E 6 e0 2b 75
        E 5 e0 00 20
        E 6 e0 55 2a
        E 6 e0 55 2a
        E 5 e0 55 2a
        E 6 e0 00 20
        E 5 e0 00 20
        E 6 e0 00 20
        E 6 e0 00 20
        E 5 e0 00 20
        E 0 90 3d 00
        E 103 e0 00 20
        E 0 90 3d 21
        E 5 e0 00 20
        E 6 e0 00 20
        E 5 e0 55 2a
        E 6 e0 55 2a
        E 5 e0 55 2a
        E 6 e0 55 2a
        E 5 e0 55 2a
        E 5 e0 55 2a
        E 6 e0 55 2a
        E 5 e0 00 20
        E 6 e0 00 20
        E 5 e0 00 20
        E 6 e0 2b 15
        E 5 e0 2b 15
        E 6 e0 00 20
        E 0 90 3d 00
        E 224 90 2a 24
        E 118 90 49 23
        E 71 90 49 00
        E 5 90 2a 00
        E 149 e0 00 20
        E 0 90 3c 36
        E 5 e0 00 20
        E 6 e0 00 20
        E 5 e0 55 2a
        E 6 e0 55 2a
        E 5 e0 55 2a
        E 6 e0 00 20
        E 5 e0 00 20
        E 6 e0 00 20
        E 5 e0 00 20
        E 6 e0 00 20
        E 5 e0 00 20
        E 6 e0 00 20
        E 0 90 3c 00
        E 56 90 3d 3c
        E 0 90 49 25
        E 57 90 3d 00
        E 0 90 49 00
        E 388 90 2a 2e
        E 21 90 3d 27
        E 86 90 2a 00
        E 169 90 3d 00
        E 404 e0 55 6a
        E 0 90 3b 22
        E 6 e0 00 20
        E 5 e0 00 20
        E 5 e0 00 20
        E 6 e0 55 2a
        E 5 e0 55 2a
        E 6 e0 55 2a
        E 5 e0 55 2a
        E 6 e0 55 2a
        E 5 e0 55 2a
        E 5 e0 55 2a
        E 6 e0 00 20
        E 5 e0 2b 15
        E 6 e0 55 6a
        E 5 e0 55 6a
        E 6 e0 00 20
        E 5 e0 00 20
        E 0 90 3b 00
        E 138 e0 2b 15
        E 0 90 28 1e
        E 5 e0 2b 15
        E 6 e0 00 20
        E 5 e0 2b 15
        E 6 e0 2b 15
        E 5 e0 00 60
        E 5 e0 55 2a
        E 6 e0 55 2a
        E 5 e0 55 2a
        E 6 e0 2b 35
        E 5 e0 55 2a
        E 6 e0 55 2a
        E 5 e0 55 2a
        E 5 e0 55 2a
        E 6 e0 55 2a
        E 5 e0 55 2a
        E 6 e0 55 2a
        E 0 90 28 00
        E 2612 e0 00 40
        E 0 90 35 33
        E 5 e0 2b 35
        E 6 e0 55 2a
        E 6 e0 55 2a
        E 5 e0 2b 35
        E 6 e0 2b 35
        E 5 e0 55 2a
        E 6 e0 00 20
        E 5 e0 00 20
        E 6 e0 00 20
        E 6 e0 00 20
        E 5 e0 00 20
        E 0 90 35 00
        E 976 90 38 29
        E 6 90 3d 24
        E 0 90 49 2e
        E 61 90 3d 00
        E 5 90 49 00
        E 36 90 4c 18
        E 56 90 38 00
        E 25 90 4c 00
        E 164 e0 00 40
        E 0 90 48 2a
        E 6 e0 55 0a
        E 6 e0 00 20
        E 5 e0 55 2a
        E 6 e0 55 2a
        E 5 e0 55 2a
        E 6 e0 55 2a
        E 5 e0 55 2a
        E 6 e0 00 20
        E 6 e0 00 20
        E 5 e0 00 20
        E 6 e0 55 2a
        E 0 90 48 00
        E 46 e0 00 20
        E 0 90 36 3a
        E 5 e0 00 20
        E 6 e0 00 20
        E 5 e0 00 20
        E 6 e0 00 20
        E 6 e0 55 2a
        E 5 e0 55 2a
        E 6 e0 55 2a
        E 5 e0 55 2a
        E 6 e0 55 2a
        E 5 e0 55 2a
        E 6 e0 55 2a
        E 0 90 36 00
        E 654 e0 55 2a
        E 0 90 49 1e
        E 6 e0 55 2a
        E 5 e0 2b 35
        E 6 e0 55 2a
        E 5 e0 55 2a
        E 6 e0 55 2a
        E 5 e0 55 2a
        E 6 e0 55 2a
        E 5 e0 55 2a
        E 6 e0 55 2a
        E 5 e0 55 4a
        E 5 e0 55 4a
        E 6 e0 55 4a
        E 5 e0 55 4a
        E 6 e0 55 0a
        E 5 e0 2b 15
        E 0 90 49 00
        E 726 90 40 25
        E 0 90 49 29
        E 87 90 40 00
        E 5 90 49 00
        E 112 90 2b 1d
        E 6 90 37 46
        E 71 90 2b 00
        E 0 90 37 00
        E 51 e0 00 40
        E 0 90 36 34
        E 6 e0 00 40
        E 5 e0 00 20
        E 5 e0 00 20
        E 5 e0 55 2a
        E 6 e0 55 2a
        E 5 e0 55 2a
        E 5 e0 55 2a
        E 6 e0 55 2a
        E 5 e0 00 20
        E 5 e0 00 20
        E 6 e0 00 20
        E 5 e0 00 20
        E 5 e0 00 20
        E 6 e0 00 20
        E 5 e0 00 20
        E 5 e0 55 2a
        E 6 e0 55 2a
        E 5 e0 55 2a
        E 5 e0 00 20
        E 5 e0 00 20
        E 6 e0 00 20
        E 5 e0 00 20
        E 5 e0 00 20
        E 6 e0 00 20
        E 5 e0 55 2a
        E 0 90 36 00
        E 118 90 3d 1e
        E 0 90 40 22
        E 91 90 3d 00
        E 0 90 40 00
        E 1769 e0 2b 35
        E 0 90 3e 1d
        E 6 e0 2b 35
        E 5 e0 2b 35
        E 6 e0 55 2a
        E 5 e0 55 2a
        E 5 e0 55 2a
        E 6 e0 55 2a
        E 5 e0 55 2a
        E 6 e0 00 20
        E 5 e0 00 20
        E 6 e0 00 20
        E 5 e0 00 20
        E 6 e0 55 2a
        E 5 e0 55 2a
        E 6 e0 55 2a
        E 0 90 3e 00
        E 159 e0 2b 35
        E 0 90 3d 30
        E 5 e0 55 2a
        E 6 e0 55 2a
        E 5 e0 55 2a
        E 5 e0 55 2a
        E 6 e0 55 2a
        E 5 e0 00 20
        E 6 e0 00 20
        E 5 e0 00 20
        E 6 e0 00 20
        E 5 e0 00 20
        E 6 e0 00 20
        E 5 e0 00 20
        E 5 e0 00 20
        E 6 e0 00 20
        E 5 e0 55 2a
        E 0 90 3d 00
        E 256 e0 55 2a
        E 0 90 45 1d
        E 5 e0 55 2a
        E 6 e0 2b 35
        E 5 e0 55 2a
        E 6 e0 55 2a
        E 5 e0 55 2a
        E 6 e0 00 20
        E 5 e0 00 20
        E 5 e0 00 20
        E 6 e0 00 20
        E 5 e0 00 20
        E 6 e0 55 2a
        E 5 e0 55 4a
        E 6 e0 55 4a
        E 5 e0 55 4a
        E 6 e0 55 6a
        E 0 90 45 00
        E 1533 e0 55 2a
        E 0 90 3e 23
        E 6 e0 2b 35
        E 5 e0 2b 35
        E 6 e0 55 2a
        E 5 e0 00 20
        E 6 e0 00 20
        E 5 e0 00 20
        E 6 e0 00 20
        E 5 e0 55 2a
        E 5 e0 55 2a
        E 6 e0 55 2a
        E 5 e0 00 20
        E 6 e0 00 20
        E 5 e0 2b 15
        E 6 e0 2b 15
        E 0 90 3e 00
        E 25 90 39 33
        E 11 90 42 30
        E 51 90 39 00
        E 15 90 42 00
        E 271 e0 55 4a
        E 0 90 42 43
        E 5 e0 55 4a
        E 6 e0 55 4a
        E 5 e0 55 2a
        E 6 e0 2b 35
        E 6 e0 2b 35
        E 5 e0 55 2a
        E 6 e0 55 2a
        E 5 e0 55 2a
        E 6 e0 00 20
        E 5 e0 00 20
        E 6 e0 00 20
        E 0 90 42 00
        E 282 e0 2b 15
        E 0 90 38 2f
        E 5 e0 2b 15
        E 6 e0 2b 15
        E 5 e0 00 40
        E 6 e0 00 40
        E 5 e0 00 40
        E 6 e0 00 40
        E 5 e0 2b 35
        E 6 e0 55 2a
        E 5 e0 55 2a
        E 6 e0 00 20
        E 5 e0 55 2a
        E 6 e0 55 2a
        E 0 90 38 00
        E 398 e0 2b 15
        E 0 90 47 1a
        E 6 e0 2b 15
        E 5 e0 55 2a
        E 5 e0 55 2a
        E 6 e0 2b 35
        E 5 e0 00 40
        E 5 e0 2b 35
        E 6 e0 55 2a
        E 5 e0 00 20
        E 5 e0 00 20
        E 6 e0 00 20
        E 5 e0 00 20
        E 5 e0 55 2a
        E 6 e0 55 2a
        E 5 e0 55 2a
        E 5 e0 00 20
        E 6 e0 00 20
        E 5 e0 00 20
        E 5 e0 55 2a
        E 6 e0 55 2a
        E 5 e0 55 2a
        E 5 e0 55 2a
        E 5 e0 55 2a
        E 6 e0 55 4a
        E 5 e0 55 2a
        E 0 90 47 00
        E 1621 e0 2b 15
        E 0 90 2b 24
        E 5 e0 55 2a
        E 5 e0 55 2a
        E 5 e0 55 2a
        E 6 e0 55 2a
        E 5 e0 55 2a
        E 5 e0 55 2a
        E 6 e0 00 20
        E 5 e0 00 20
        E 5 e0 00 20
        E 5 e0 55 2a
        E 6 e0 55 2a
        E 5 e0 55 2a
        E 5 e0 55 2a
        E 6 e0 55 2a
        E 5 e0 00 20
        E 5 e0 00 20
        E 5 e0 00 20
        E 6 e0 00 20
        E 5 e0 00 20
        E 5 e0 55 2a
        E 5 e0 55 2a
        E 6 e0 55 2a
        E 5 e0 00 20
        E 5 e0 00 20
        E 6 e0 00 20
        E 5 e0 00 20
        E 5 e0 00 20
        E 5 e0 00 20
        E 6 e0 00 20
        E 5 e0 55 2a
        E 0 90 2b 00
        E 1457 e0 00 20
        E 0 90 3a 4b
        E 6 e0 00 20
        E 5 e0 00 20
        E 6 e0 55 2a
        E 5 e0 55 2a
        E 6 e0 55 2a
        E 5 e0 55 2a
        E 6 e0 55 2a
        E 5 e0 55 2a
        E 6 e0 55 2a
        E 5 e0 00 20
        E 6 e0 00 20
        E 5 e0 55 2a
        E 0 90 3a 00
        E 277 e0 55 6a
        E 0 90 43 3e
        E 5 e0 2b 15
        E 6 e0 2b 15
        E 5 e0 55 2a
        E 6 e0 55 2a
        E 5 e0 55 2a
        E 6 e0 55 2a
        E 5 e0 00 20
        E 6 e0 00 20
        E 5 e0 2b 15
        E 6 e0 00 20
        E 5 e0 55 2a
        E 6 e0 55 2a
        E 5 e0 55 2a
        E 0 90 43 00
        E 157 b0 7b 00
        CCINTERP 32
        CHASE_CC_TAKEOFFS 1
        GUID {D9ECFC60-FCAC-40F8-9769-CBF4F24E8E19}
        IGNTEMPO 0 120 4 4
        SRCCOLOR 25
        VELLANE -1 100 0
      >
    >
  >
  <UINF 92
    <ITEM {5AE45FA8-D06D-4333-986C-CE76F8A7003D}
      POSITION 0
      SNAPOFFS 0
      LENGTH 45.5
      LOOP 1
      ALLTAKES 0
      FADEIN 1 0 0 1 0 0 0
      FADEOUT 1 0 0 1 0 0 0
      MUTE 0 0
      SEL 0
      IGUID {5AE45FA8-D06D-4333-986C-CE76F8A7003D}
      IID 68
      NAME wii_music_basic_pitch.mid
      VOLPAN 1 0 1 -1
      SOFFS 0 0
      PLAYRATE 1 1 0 -1 0 0.0025
      CHANMODE 0
      GUID {DF56613E-7033-4AA9-A0AB-0B3B8D4BD71D}
      <SOURCE MIDI
        HASDATA 1 220 QN
        CCINTERP 32
        POOLEDEVTS {59E62224-57A1-41D1-A131-B2531D1DEDB7}
        E 0 c0 04 00
        E 19322 e0 55 4a
        E 0 90 3c 11
        E 6 e0 2b 55
        E 5 e0 00 60
        E 6 e0 00 60
        E 5 e0 00 60
        E 6 e0 2b 55
        E 6 e0 2b 55
        E 5 e0 2b 55
        E 6 e0 2b 55
        E 5 e0 2b 55
        E 6 e0 2b 55
        E 5 e0 2b 55
        E 0 90 3c 00
        E 532 e0 2b 35
        E 0 90 3c 1c
        E 5 e0 55 2a
        E 6 e0 55 2a
        E 5 e0 55 2a
        E 6 e0 55 2a
        E 5 e0 55 2a
        E 6 e0 00 20
        E 5 e0 00 20
        E 6 e0 00 20
        E 5 e0 00 20
        E 6 e0 00 20
        E 5 e0 00 20
        E 6 e0 00 20
        E 5 e0 55 2a
        E 0 90 3c 00
        E 34 b0 7b 00
        CCINTERP 32
        CHASE_CC_TAKEOFFS 1
        GUID {D626DBA8-812D-47C2-806C-E0AAA33DA9BB}
        IGNTEMPO 0 120 4 4
        SRCCOLOR 118
        VELLANE -1 100 0
      >
    >
  >
  <UINF 93
    <ITEM {701E1F19-C8B7-4660-A017-DFE563B68D65}
      POSITION 0
      SNAPOFFS 0
      LENGTH 86
      LOOP 1
      ALLTAKES 0
      FADEIN 1 0 0 1 0 0 0
      FADEOUT 1 0 0 1 0 0 0
      MUTE 0 0
      SEL 0
      IGUID {701E1F19-C8B7-4660-A017-DFE563B68D65}
      IID 100
      NAME wii_music_basic_pitch.mid
      VOLPAN 1 0 1 -1
      SOFFS 0 0
      PLAYRATE 1 1 0 -1 0 0.0025
      CHANMODE 0
      GUID {F18B92BF-3B7A-4715-9B53-93EF5B500DE7}
      <SOURCE MIDI
        HASDATA 1 220 QN
        CCINTERP 32
        POOLEDEVTS {7AA5F9E6-4909-46A6-A09E-82F104DECBBD}
        E 0 c0 04 00
        E 112 e0 2b 75
        E 0 90 2f 30
        E 6 e0 2b 75
        E 5 e0 2b 75
        E 5 e0 2b 75
        E 6 e0 2b 75
        E 5 e0 55 6a
        E 5 e0 55 6a
        E 6 e0 2b 15
        E 5 e0 2b 15
        E 5 e0 2b 15
        E 6 e0 2b 15
        E 5 e0 2b 15
        E 5 e0 2b 75
        E 5 e0 2b 75
        E 6 e0 2b 15
        E 5 e0 2b 15
        E 5 e0 2b 15
        E 6 e0 2b 15
        E 5 e0 2b 15
        E 5 e0 2b 15
        E 6 e0 55 6a
        E 5 e0 55 6a
        E 5 e0 55 6a
        E 6 e0 55 6a
        E 5 e0 55 6a
        E 5 e0 55 6a
        E 0 90 2f 00
        E 77 90 29 1b
        E 20 90 45 28
        E 113 90 29 00
        E 20 90 45 00
        E 430 90 2f 23
        E 5 90 42 33
        E 15 90 3e 1f
        E 46 90 42 00
        E 46 90 2c 2b
        E 21 90 32 24
        E 0 90 38 26
        E 0 90 3e 00
        E 0 90 3e 21
        E 5 90 2f 00
        E 92 90 25 14
        E 20 90 38 00
        E 0 90 38 2a
        E 0 90 3e 00
        E 0 90 3e 2a
        E 5 90 2c 00
        E 51 90 32 00
        E 41 90 2c 30
        E 5 90 32 31
        E 16 90 38 00
        E 0 90 38 2d
        E 15 90 3e 00
        E 25 90 25 00
        E 6 90 2c 00
        E 5 90 32 00
        E 10 90 38 00
        E 501 90 31 2c
        E 0 90 35 4f
        E 10 90 49 2c
        E 0 90 4d 1f
        E 51 90 35 00
        E 11 90 4d 00
        E 5 90 31 00
        E 5 90 49 00
        E 25 90 23 2f
        E 11 90 42 2d
        E 15 90 36 2e
        E 0 90 3e 25
        E 36 90 23 00
        E 76 90 3e 00
        E 0 90 3e 21
        E 10 90 42 00
        E 6 90 36 00
        E 92 90 45 32
        E 20 90 3e 00
        E 41 90 45 00
        E 527 90 3e 20
        E 97 90 38 2d
        E 5 90 40 2c
        E 0 90 42 20
        E 0 90 44 23
        E 15 90 49 2b
        E 0 90 55 25
        E 10 90 3e 00
        E 51 90 42 00
        E 0 90 55 00
        E 5 90 40 00
        E 16 90 4c 28
        E 10 90 49 00
        E 46 90 38 00
        E 77 90 38 23
        E 61 90 2c 20
        E 56 90 3c 1e
        E 5 90 48 23
        E 10 90 2c 00
        E 11 90 44 00
        E 0 90 4c 00
        E 15 90 38 00
        E 20 90 3f 26
        E 57 90 36 2e
        E 10 90 3c 00
        E 5 90 3f 00
        E 0 90 48 00
        E 117 90 36 00
        E 348 e0 2b 75
        E 0 90 2d 34
        E 6 e0 2b 75
        E 5 e0 55 6a
        E 5 e0 55 6a
        E 6 e0 55 6a
        E 5 e0 55 6a
        E 5 e0 2b 75
        E 5 e0 2b 75
        E 6 e0 2b 75
        E 5 e0 2b 75
        E 5 e0 2b 75
        E 6 e0 55 6a
        E 5 e0 2b 15
        E 5 e0 2b 15
        E 6 e0 2b 15
        E 5 e0 2b 15
        E 5 e0 2b 15
        E 6 e0 2b 15
        E 5 e0 55 6a
        E 5 e0 55 6a
        E 5 e0 55 6a
        E 6 e0 55 6a
        E 5 e0 55 6a
        E 5 e0 55 6a
        E 6 e0 55 6a
        E 5 e0 55 6a
        E 5 e0 55 6a
        E 0 90 2d 00
        E 102 e0 55 6a
        E 0 90 49 20
        E 6 e0 55 6a
        E 5 e0 55 6a
        E 6 e0 55 6a
        E 5 e0 55 6a
        E 6 e0 55 6a
        E 5 e0 55 6a
        E 6 e0 55 6a
        E 5 e0 00 20
        E 6 e0 00 20
        E 5 e0 55 6a
        E 6 e0 55 6a
        E 5 e0 2b 75
        E 6 e0 2b 75
        E 0 90 49 00
        E 271 e0 2b 15
        E 0 90 34 2c
        E 6 e0 2b 15
        E 5 e0 2b 15
        E 5 e0 2b 15
        E 6 e0 2b 15
        E 5 e0 2b 15
        E 6 e0 00 20
        E 5 e0 00 20
        E 6 e0 00 20
        E 5 e0 00 20
        E 5 e0 00 20
        E 6 e0 00 20
        E 5 e0 00 20
        E 6 e0 00 20
        E 5 e0 00 20
        E 5 e0 00 20
        E 6 e0 00 20
        E 5 e0 00 20
        E 0 90 34 00
        E 373 90 40 29
        E 0 90 49 2e
        E 82 90 49 00
        E 5 90 40 00
        E 112 90 2b 24
        E 16 90 43 37
        E 66 90 43 00
        E 46 90 42 35
        E 5 90 2b 00
        E 47 90 36 1f
        E 10 90 42 00
        E 61 90 36 00
        E 123 e0 2b 15
        E 0 90 40 2f
        E 5 e0 2b 15
        E 6 e0 2b 15
        E 5 e0 00 20
        E 5 e0 00 20
        E 6 e0 00 20
        E 5 e0 00 20
        E 6 e0 00 20
        E 5 e0 00 20
        E 6 e0 00 20
        E 5 e0 00 20
        E 5 e0 00 20
        E 6 e0 2b 15
        E 5 e0 2b 15
        E 6 e0 2b 15
        E 5 e0 2b 15
        E 5 e0 2b 15
        E 6 e0 2b 15
        E 0 90 40 00
        E 117 e0 00 60
        E 0 90 2d 26
        E 6 e0 00 60
        E 5 e0 00 60
        E 5 e0 00 60
        E 5 e0 00 60
        E 6 e0 55 6a
        E 5 e0 2b 15
        E 5 e0 2b 15
        E 6 e0 2b 15
        E 5 e0 2b 15
        E 5 e0 2b 75
        E 5 e0 2b 75
        E 6 e0 2b 75
        E 5 e0 2b 75
        E 5 e0 2b 75
        E 6 e0 2b 75
        E 5 e0 2b 75
        E 5 e0 2b 15
        E 6 e0 00 20
        E 5 e0 00 20
        E 5 e0 00 20
        E 5 e0 55 6a
        E 6 e0 55 6a
        E 5 e0 55 6a
        E 5 e0 55 6a
        E 6 e0 55 6a
        E 5 e0 00 60
        E 5 e0 00 60
        E 5 e0 00 60
        E 0 90 2d 00
        E 92 90 2d 2d
        E 5 90 3c 3d
        E 57 90 2d 00
        E 10 90 3c 00
        E 501 e0 2b 75
        E 0 90 2d 29
        E 5 e0 55 6a
        E 6 e0 00 20
        E 5 e0 00 20
        E 5 e0 2b 15
        E 5 e0 2b 15
        E 6 e0 2b 15
        E 5 e0 2b 15
        E 5 e0 2b 15
        E 5 e0 2b 15
        E 6 e0 2b 15
        E 5 e0 2b 75
        E 5 e0 2b 75
        E 5 e0 2b 75
        E 6 e0 2b 75
        E 5 e0 2b 75
        E 5 e0 2b 15
        E 5 e0 2b 15
        E 6 e0 00 20
        E 5 e0 00 20
        E 5 e0 00 20
        E 5 e0 00 20
        E 6 e0 00 60
        E 5 e0 00 60
        E 5 e0 00 60
        E 5 e0 00 60
        E 6 e0 00 60
        E 5 e0 2b 15
        E 5 e0 2b 15
        E 5 e0 2b 15
        E 6 e0 2b 15
        E 5 e0 2b 15
        E 5 e0 2b 15
        E 5 e0 2b 15
        E 6 e0 2b 15
        E 5 e0 2b 75
        E 0 90 2d 00
        E 51 e0 2b 15
        E 0 90 1a 24
        E 5 e0 2b 15
        E 6 e0 2b 15
        E 5 e0 00 20
        E 6 e0 00 20
        E 5 e0 00 20
        E 5 e0 00 20
        E 6 e0 00 20
        E 5 e0 2b 15
        E 5 e0 2b 15
        E 6 e0 2b 15
        E 5 e0 2b 15
        E 5 e0 2b 15
        E 6 e0 2b 15
        E 5 e0 2b 15
        E 6 e0 2b 15
        E 5 e0 2b 15
        E 5 e0 2b 15
        E 6 e0 2b 15
        E 5 e0 2b 15
        E 5 e0 2b 15
        E 0 90 1a 00
        E 251 e0 00 60
        E 0 90 52 22
        E 6 e0 00 20
        E 5 e0 00 20
        E 6 e0 00 20
        E 5 e0 00 20
        E 6 e0 00 20
        E 6 e0 00 20
        E 5 e0 00 20
        E 6 e0 00 20
        E 5 e0 00 20
        E 6 e0 00 20
        E 6 e0 00 20
        E 0 90 52 00
        E 158 90 30 2c
        E 5 90 27 2a
        E 0 90 3a 28
        E 0 90 3e 2b
        E 5 90 33 2b
        E 61 90 30 00
        E 41 90 27 00
        E 41 90 33 00
        E 10 90 3e 00
        E 21 90 3a 00
        E 51 90 32 23
        E 10 90 39 30
        E 0 90 3d 34
        E 102 90 39 00
        E 5 90 3d 00
        E 36 90 32 00
        E 210 e0 55 6a
        E 0 90 45 2c
        E 6 e0 55 6a
        E 5 e0 55 6a
        E 5 e0 00 20
        E 6 e0 00 20
        E 5 e0 00 20
        E 6 e0 00 20
        E 5 e0 00 20
        E 6 e0 00 20
        E 5 e0 00 20
        E 5 e0 00 20
        E 6 e0 00 20
        E 5 e0 00 20
        E 6 e0 2b 15
        E 5 e0 55 6a
        E 6 e0 55 6a
        E 5 e0 55 6a
        E 0 90 45 00
        E 358 90 3f 3a
        E 5 90 44 17
        E 0 90 46 21
        E 61 90 46 00
        E 10 90 3f 00
        E 46 90 32 28
        E 5 90 38 2d
        E 0 90 44 00
        E 5 90 40 1f
        E 41 90 3e 21
        E 51 90 2c 28
        E 16 90 32 00
        E 0 90 32 2a
        E 15 90 3e 00
        E 0 90 40 00
        E 15 90 38 00
        E 92 90 32 00
        E 0 90 32 36
        E 46 90 2c 00
        E 77 90 32 00
        E 685 90 42 26
        E 5 90 3e 27
        E 97 90 26 1f
        E 0 90 2a 25
        E 0 90 2d 21
        E 10 90 45 2c
        E 5 90 3e 00
        E 0 90 3e 17
        E 6 90 39 2f
        E 0 90 42 00
        E 0 90 42 2e
        E 102 90 26 00
        E 0 90 49 2f
        E 5 90 3d 37
        E 0 90 3e 00
        E 5 90 45 00
        E 0 90 45 2d
        E 6 90 2a 00
        E 0 90 2d 00
        E 0 90 42 00
        E 10 90 39 00
        E 56 90 49 00
        E 10 90 3d 00
        E 0 90 45 00
        E 133 e0 2b 75
        E 0 90 42 3e
        E 6 e0 2b 75
        E 5 e0 2b 75
        E 6 e0 2b 75
        E 5 e0 2b 75
        E 6 e0 2b 75
        E 5 e0 00 20
        E 6 e0 00 20
        E 5 e0 00 20
        E 6 e0 00 20
        E 5 e0 2b 15
        E 6 e0 2b 15
        E 5 e0 2b 15
        E 0 90 42 00
        E 184 90 3e 24
        E 97 90 38 2a
        E 6 90 44 36
        E 15 90 40 20
        E 5 90 3e 00
        E 61 90 44 00
        E 62 90 44 1f
        E 67 90 44 00
        E 5 90 40 00
        E 0 90 40 23
        E 51 90 53 18
        E 15 90 40 00
        E 15 90 38 00
        E 0 90 40 2c
        E 5 90 38 30
        E 52 90 53 00
        E 46 90 40 00
        E 5 90 38 00
        E 46 90 42 21
        E 5 90 36 2f
        E 0 90 3e 37
        E 0 90 4a 2d
        E 5 90 47 25
        E 56 90 36 00
        E 0 90 4a 00
        E 5 90 3e 00
        E 56 90 42 00
        E 11 90 47 00
        E 680 90 21 34
        E 10 90 3d 2d
        E 5 90 2d 31
        E 66 90 3d 00
        E 36 90 2d 00
        E 20 90 21 00
        E 445 90 26 2d
        E 10 90 32 2b
        E 133 90 26 00
        E 36 90 32 00
        E 153 90 1f 29
        E 26 90 2b 32
        E 148 90 2b 00
        E 77 90 1f 00
        E 112 e0 55 6a
        E 0 90 41 24
        E 5 e0 55 6a
        E 6 e0 55 6a
        E 5 e0 00 20
        E 5 e0 00 20
        E 6 e0 00 20
        E 5 e0 00 20
        E 5 e0 00 20
        E 6 e0 00 20
        E 5 e0 00 20
        E 5 e0 00 20
        E 6 e0 00 20
        E 5 e0 00 20
        E 5 e0 00 20
        E 6 e0 00 20
        E 5 e0 00 20
        E 5 e0 00 20
        E 6 e0 00 20
        E 5 e0 00 20
        E 5 e0 00 20
        E 5 e0 00 20
        E 6 e0 00 20
        E 5 e0 00 20
        E 5 e0 00 20
        E 6 e0 00 20
        E 5 e0 00 20
        E 0 90 41 00
        E 97 90 39 3b
        E 15 90 3d 22
        E 11 90 2f 1d
        E 31 90 39 00
        E 71 90 39 23
        E 0 90 3d 00
        E 0 90 3d 2b
        E 118 90 39 00
        E 0 90 39 2a
        E 15 90 2f 00
        E 5 90 3d 00
        E 67 90 39 00
        E 485 90 49 34
        E 5 90 3d 36
        E 0 90 52 2a
        E 77 90 52 00
        E 5 90 3d 00
        E 0 90 49 00
        E 21 90 32 20
        E 10 90 38 40
        E 0 90 3e 45
        E 0 90 47 41
        E 51 90 32 00
        E 10 90 47 00
        E 11 90 38 00
        E 0 90 3e 00
        E 35 90 3a 45
        E 16 90 43 37
        E 0 90 4f 2f
        E 51 90 3a 00
        E 10 90 4f 00
        E 5 90 43 00
        E 31 90 44 4c
        E 0 90 4a 46
        E 10 90 3b 35
        E 51 90 4a 00
        E 5 90 44 00
        E 61 90 3e 38
        E 0 90 4a 30
        E 6 90 47 24
        E 0 90 4e 34
        E 15 90 3b 00
        E 56 90 4a 00
        E 5 90 3e 00
        E 15 90 4e 00
        E 11 90 37 23
        E 0 90 3e 2c
        E 15 90 47 00
        E 5 90 43 2e
        E 41 90 37 00
        E 87 90 3e 00
        E 61 90 43 00
        E 721 90 45 2a
        E 5 90 51 34
        E 5 90 39 2b
        E 61 90 51 00
        E 92 90 39 00
        E 6 90 45 00
        E 71 90 3a 37
        E 0 90 46 33
        E 82 90 46 00
        E 5 e0 2b 15
        E 0 90 3a 00
        E 0 90 3a 30
        E 5 e0 2b 15
        E 5 e0 2b 15
        E 5 e0 2b 15
        E 5 e0 2b 15
        E 6 e0 2b 15
        E 5 e0 2b 15
        E 5 e0 2b 15
        E 5 e0 2b 15
        E 5 e0 2b 15
        E 5 e0 2b 15
        E 6 e0 55 6a
        E 5 e0 55 6a
        E 5 e0 2b 15
        E 5 e0 2b 15
        E 5 e0 2b 15
        E 0 90 3a 00
        E 36 90 28 35
        E 25 90 3b 3a
        E 0 90 47 30
        E 62 90 3b 00
        E 0 90 47 00
        E 20 90 28 00
        E 41 90 4e 15
        E 117 90 47 2d
        E 6 90 4e 00
        E 56 90 47 00
        E 46 90 2f 36
        E 5 90 3e 1f
        E 117 90 47 2c
        E 5 90 3b 2e
        E 16 90 2f 00
        E 25 90 3e 00
        E 82 90 47 00
        E 5 90 3b 00
        E 67 90 3b 22
        E 71 90 47 20
        E 5 90 3b 00
        E 0 90 3b 22
        E 0 90 43 16
        E 77 90 47 00
        E 16 90 3b 00
        E 25 90 43 00
        E 36 90 21 22
        E 15 90 40 36
        E 5 90 3d 2a
        E 6 90 3b 17
        E 5 90 2d 30
        E 51 90 40 00
        E 46 90 21 00
        E 0 90 21 30
        E 25 90 3b 00
        E 11 90 2d 00
        E 0 90 3d 00
        E 35 90 21 00
        E 56 90 4c 31
        E 6 90 45 34
        E 56 90 4c 00
        E 10 e0 2b 15
        E 0 90 34 3c
        E 0 90 45 00
        E 5 e0 2b 15
        E 6 e0 2b 15
        E 5 e0 2b 15
        E 6 e0 2b 15
        E 5 e0 2b 15
        E 6 e0 2b 15
        E 5 e0 2b 15
        E 5 e0 2b 15
        E 6 e0 55 0a
        E 5 e0 55 0a
        E 6 e0 55 0a
        E 5 e0 55 0a
        E 6 e0 55 0a
        E 5 e0 55 0a
        E 5 e0 2b 15
        E 6 e0 2b 15
        E 0 90 34 00
        E 61 90 28 32
        E 10 90 47 31
        E 11 90 3b 26
        E 0 90 4e 23
        E 51 90 28 00
        E 25 90 47 00
        E 51 90 3b 00
        E 21 90 4e 00
        E 71 90 47 24
        E 10 90 42 37
        E 1 90 4e 2a
        E 0 90 55 21
        E 56 90 47 00
        E 5 90 55 00
        E 5 90 42 00
        E 0 90 4e 00
        E 41 e0 55 6a
        E 0 90 49 25
        E 6 e0 55 6a
        E 5 e0 55 6a
        E 6 e0 55 6a
        E 5 e0 00 60
        E 6 e0 00 20
        E 5 e0 00 20
        E 5 e0 00 20
        E 6 e0 00 20
        E 5 e0 00 20
        E 6 e0 00 20
        E 5 e0 00 20
        E 6 e0 00 20
        E 5 e0 00 20
        E 6 e0 00 60
        E 5 e0 55 6a
        E 0 90 49 00
        E 10 90 1f 26
        E 26 90 32 2c
        E 92 90 1f 00
        E 66 90 32 00
        E 56 90 26 23
        E 16 90 32 30
        E 66 90 26 00
        E 5 90 32 00
        E 31 e0 00 40
        E 0 90 3a 50
        E 5 e0 00 40
        E 6 e0 00 40
        E 6 e0 00 40
        E 5 e0 00 00
        E 6 e0 55 0a
        E 5 e0 55 0a
        E 6 e0 55 0a
        E 5 e0 2b 15
        E 6 e0 2b 15
        E 6 e0 2b 15
        E 5 e0 2b 15
        E 0 90 3a 00
        E 67 90 47 27
        E 15 90 3b 2c
        E 117 90 3b 00
        E 0 90 3b 28
        E 72 90 47 00
        E 6 e0 2b 15
        E 0 90 3b 00
        E 0 90 3b 27
        E 5 e0 2b 15
        E 5 e0 2b 15
        E 6 e0 00 20
        E 5 e0 00 20
        E 6 e0 00 20
        E 5 e0 00 20
        E 6 e0 00 20
        E 5 e0 00 20
        E 6 e0 00 20
        E 5 e0 00 20
        E 5 e0 55 6a
        E 6 e0 55 6a
        E 5 e0 55 6a
        E 6 e0 55 6a
        E 5 e0 2b 15
        E 0 90 3b 00
        E 159 90 32 2f
        E 5 90 26 25
        E 10 90 3b 24
        E 5 90 47 21
        E 46 90 32 00
        E 92 90 47 00
        E 5 90 3b 00
        E 15 90 26 00
        E 164 e0 00 20
        E 0 90 2d 34
        E 5 e0 00 20
        E 6 e0 2b 15
        E 5 e0 2b 15
        E 6 e0 2b 15
        E 5 e0 2b 15
        E 6 e0 2b 15
        E 5 e0 00 20
        E 6 e0 00 20
        E 5 e0 00 20
        E 6 e0 00 20
        E 5 e0 00 20
        E 6 e0 00 20
        E 5 e0 00 20
        E 6 e0 00 20
        E 0 90 2d 00
        E 71 e0 2b 15
        E 0 90 3b 30
        E 5 e0 00 20
        E 6 e0 00 20
        E 5 e0 00 20
        E 6 e0 00 20
        E 5 e0 00 20
        E 6 e0 00 20
        E 5 e0 00 20
        E 6 e0 00 20
        E 5 e0 00 20
        E 6 e0 00 20
        E 5 e0 00 20
        E 5 e0 00 20
        E 6 e0 00 20
        E 5 e0 00 20
        E 6 e0 00 20
        E 0 90 3b 00
        E 0 90 3b 32
        E 5 e0 00 20
        E 5 e0 00 20
        E 5 e0 00 20
        E 5 e0 00 20
        E 6 e0 2b 15
        E 5 e0 2b 15
        E 5 e0 2b 15
        E 5 e0 2b 15
        E 5 e0 2b 15
        E 5 e0 00 20
        E 5 e0 00 20
        E 6 e0 00 20
        E 0 90 3b 00
        E 61 90 2d 30
        E 15 90 3c 34
        E 0 90 48 2f
        E 0 90 54 21
        E 62 90 2d 00
        E 25 90 54 00
        E 26 90 48 00
        E 41 90 3c 00
        E 61 90 20 2f
        E 15 90 49 28
        E 5 90 2c 2a
        E 5 90 3d 30
        E 57 90 20 00
        E 40 90 2c 00
        E 21 90 3d 00
        E 0 90 3d 2d
        E 41 90 49 00
        E 25 90 3d 00
        E 5 e0 00 20
        E 0 90 3d 24
        E 6 e0 00 20
        E 5 e0 00 20
        E 6 e0 2b 15
        E 5 e0 2b 15
        E 6 e0 2b 15
        E 5 e0 2b 15
        E 6 e0 2b 15
        E 5 e0 2b 15
        E 6 e0 00 20
        E 5 e0 00 20
        E 6 e0 00 20
        E 5 e0 55 6a
        E 6 e0 00 20
        E 0 90 3d 00
        E 66 90 25 29
        E 16 90 31 2a
        E 5 90 3c 43
        E 0 90 48 38
        E 61 90 3c 00
        E 5 90 48 00
        E 31 90 41 23
        E 5 90 49 29
        E 10 90 25 00
        E 0 90 3d 32
        E 56 90 4d 15
        E 67 90 4d 00
        E 10 90 41 00
        E 6 90 31 00
        E 5 90 49 00
        E 25 90 3d 00
        E 26 e0 00 20
        E 0 90 3d 22
        E 5 e0 00 20
        E 6 e0 00 20
        E 5 e0 00 20
        E 5 e0 2b 15
        E 6 e0 2b 15
        E 5 e0 2b 15
        E 6 e0 2b 15
        E 5 e0 2b 15
        E 5 e0 2b 15
        E 6 e0 00 20
        E 5 e0 00 20
        E 5 e0 00 20
        E 6 e0 00 20
        E 5 e0 00 20
        E 6 e0 00 20
        E 5 e0 00 20
        E 5 e0 00 20
        E 6 e0 2b 15
        E 0 90 3d 00
        E 10 90 49 21
        E 36 90 31 28
        E 5 90 41 35
        E 56 90 49 00
        E 10 90 41 00
        E 46 90 1e 22
        E 0 90 3d 25
        E 5 90 49 1d
        E 11 90 2a 2f
        E 5 90 31 00
        E 97 90 2a 00
        E 0 90 2a 2e
        E 5 90 1e 00
        E 0 90 3d 00
        E 0 90 49 00
        E 5 90 3d 36
        E 0 90 49 27
        E 61 90 3d 00
        E 36 90 3d 38
        E 77 90 2a 00
        E 0 90 3d 00
        E 15 90 49 00
        E 31 90 25 2e
        E 117 90 3d 3d
        E 5 90 49 35
        E 26 90 25 00
        E 26 90 3d 00
        E 10 90 49 00
        E 21 e0 2b 15
        E 0 90 50 1d
        E 5 e0 2b 15
        E 6 e0 2b 15
        E 5 e0 00 20
        E 6 e0 00 20
        E 5 e0 00 20
        E 6 e0 00 60
        E 6 e0 2b 55
        E 5 e0 55 4a
        E 6 e0 55 4a
        E 5 e0 2b 55
        E 6 e0 2b 55
        E 0 90 50 00
        E 184 e0 00 60
        E 0 90 3f 4b
        E 5 e0 55 6a
        E 6 e0 55 6a
        E 6 e0 55 6a
        E 5 e0 55 6a
        E 6 e0 55 6a
        E 5 e0 2b 15
        E 6 e0 2b 15
        E 5 e0 00 20
        E 6 e0 00 20
        E 6 e0 00 20
        E 5 e0 00 20
        E 0 90 3f 00
        E 41 90 1e 2d
        E 15 90 24 21
        E 16 90 2a 39
        E 0 90 49 22
        E 5 90 40 2c
        E 46 90 24 00
        E 25 90 3d 22
        E 10 90 49 00
        E 6 90 1e 00
        E 0 90 2a 00
        E 81 90 3d 00
        E 26 90 3d 33
        E 20 90 2a 26
        E 21 90 49 27
        E 25 90 3d 00
        E 0 90 40 00
        E 56 90 49 00
        E 31 e0 55 6a
        E 0 90 2a 00
        E 0 90 2f 34
        E 5 e0 55 6a
        E 5 e0 00 20
        E 5 e0 00 20
        E 6 e0 00 20
        E 5 e0 00 20
        E 5 e0 00 20
        E 5 e0 00 20
        E 5 e0 00 20
        E 5 e0 00 20
        E 5 e0 00 20
        E 6 e0 00 20
        E 5 e0 00 20
        E 5 e0 00 20
        E 5 e0 00 20
        E 5 e0 00 20
        E 5 e0 00 20
        E 5 e0 00 20
        E 5 e0 00 20
        E 6 e0 00 20
        E 5 e0 00 20
        E 5 e0 2b 15
        E 5 e0 2b 15
        E 5 e0 2b 15
        E 5 e0 2b 15
        E 5 e0 00 20
        E 0 90 2f 00
        E 97 90 3b 31
        E 0 90 47 2d
        E 6 90 4e 26
        E 81 90 3b 00
        E 0 90 4e 00
        E 5 90 3b 25
        E 5 90 47 00
        E 62 90 47 22
        E 10 90 3b 00
        E 0 90 3b 23
        E 66 90 3d 28
        E 11 90 47 00
        E 10 90 3b 00
        E 46 90 3d 00
        E 15 90 1c 36
        E 15 90 2b 23
        E 6 90 2f 33
        E 5 90 28 2b
        E 0 90 47 21
        E 10 90 3e 31
        E 31 90 1c 00
        E 15 90 2f 00
        E 5 90 2b 00
        E 15 90 3e 00
        E 67 90 28 00
        E 0 90 47 00
        E 158 90 3b 20
        E 0 90 47 1a
        E 5 90 2f 25
        E 36 90 3e 3c
        E 25 90 2f 00
        E 32 90 47 00
        E 5 90 3b 00
        E 5 90 3e 00
        E 46 90 25 21
        E 5 90 31 29
        E 5 90 34 26
        E 0 90 3b 25
        E 21 90 44 20
        E 86 90 28 27
        E 5 90 25 00
        E 0 90 25 22
        E 11 90 31 00
        E 0 90 31 26
        E 0 90 3b 00
        E 5 90 3b 23
        E 5 90 44 00
        E 0 90 44 1a
        E 97 90 25 00
        E 0 90 25 2b
        E 5 90 44 00
        E 0 90 44 3b
        E 5 90 31 00
        E 0 90 31 30
        E 0 90 3b 00
        E 0 90 3b 34
        E 5 90 28 00
        E 57 90 44 00
        E 5 90 25 00
        E 0 90 34 00
        E 0 90 3b 00
        E 5 90 31 00
        E 163 90 2f 32
        E 67 90 23 15
        E 61 90 23 00
        E 10 90 2f 00
        E 670 90 3e 23
        E 97 90 2c 26
        E 5 90 32 21
        E 15 90 38 25
        E 0 90 3e 00
        E 0 90 3e 28
        E 97 90 28 16
        E 21 90 38 00
        E 0 90 38 23
        E 15 90 3e 00
        E 77 90 25 19
        E 10 90 32 00
        E 0 90 32 32
        E 10 90 38 00
        E 0 90 38 32
        E 0 90 3e 2b
        E 10 90 2c 00
        E 36 90 25 00
        E 0 90 28 00
        E 6 90 32 00
        E 5 90 38 00
        E 0 90 3e 00
        E 511 90 31 2b
        E 10 90 49 2c
        E 61 90 31 00
        E 16 90 49 00
        E 30 90 42 23
        E 11 90 36 2a
        E 0 90 3e 2b
        E 117 90 3e 00
        E 0 90 3e 1e
        E 5 90 42 00
        E 5 90 36 00
        E 103 90 45 26
        E 5 90 3e 00
        E 123 90 45 00
        E 434 90 2f 1b
        E 5 90 3e 38
        E 66 90 2a 18
        E 6 90 3e 00
        E 46 90 2f 00
        E 0 90 38 2c
        E 0 90 3d 2e
        E 5 90 40 2c
        E 0 90 42 19
        E 0 90 44 36
        E 5 90 2a 00
        E 5 90 49 2f
        E 0 90 55 25
        E 56 90 42 00
        E 5 90 40 00
        E 0 90 55 00
        E 5 90 44 00
        E 5 90 49 00
        E 11 90 4c 26
        E 25 90 3d 00
        E 21 90 44 1d
        E 20 90 38 00
        E 41 90 44 00
        E 118 90 4c 00
        E 25 90 48 2f
        E 57 90 3f 24
        E 15 90 48 00
        E 36 90 3b 21
        E 20 90 3f 00
        E 61 90 3b 00
        E 404 e0 00 00
        E 0 90 2d 35
        E 5 e0 55 0a
        E 5 e0 55 0a
        E 5 e0 55 6a
        E 6 e0 55 6a
        E 5 e0 55 6a
        E 5 e0 55 6a
        E 5 e0 55 6a
        E 5 e0 2b 75
        E 5 e0 2b 75
        E 5 e0 2b 75
        E 5 e0 55 6a
        E 6 e0 2b 15
        E 5 e0 2b 15
        E 5 e0 2b 15
        E 5 e0 2b 15
        E 5 e0 2b 15
        E 5 e0 2b 15
        E 5 e0 2b 75
        E 5 e0 2b 75
        E 6 e0 55 6a
        E 5 e0 55 6a
        E 5 e0 55 6a
        E 5 e0 55 6a
        E 5 e0 55 6a
        E 5 e0 55 6a
        E 5 e0 55 6a
        E 6 e0 55 6a
        E 0 90 2d 00
        E 97 90 49 1d
        E 86 90 42 35
        E 26 90 49 00
        E 41 90 42 00
        E 194 e0 2b 15
        E 0 90 34 30
        E 5 e0 2b 15
        E 6 e0 2b 15
        E 5 e0 2b 15
        E 6 e0 2b 15
        E 5 e0 2b 15
        E 5 e0 2b 15
        E 6 e0 2b 15
        E 5 e0 2b 15
        E 5 e0 00 20
        E 6 e0 00 20
        E 5 e0 00 20
        E 6 e0 00 20
        E 5 e0 00 20
        E 5 e0 00 20
        E 6 e0 00 20
        E 5 e0 00 20
        E 6 e0 00 20
        E 5 e0 00 20
        E 0 90 34 00
        E 363 90 49 2e
        E 5 90 40 29
        E 82 90 40 00
        E 0 90 49 00
        E 118 90 2b 2f
        E 15 90 43 34
        E 51 90 2b 00
        E 15 90 43 00
        E 46 90 2a 1e
        E 0 90 42 26
        E 57 90 36 22
        E 10 90 2a 00
        E 51 90 42 00
        E 15 90 36 00
        E 123 90 3d 26
        E 0 90 40 2c
        E 87 90 3d 00
        E 0 90 40 00
        E 117 90 2d 23
        E 251 90 3c 3d
        E 41 90 2d 00
        E 20 90 3c 00
        E 619 e0 00 60
        E 0 90 2d 38
        E 6 e0 00 60
        E 5 e0 00 60
        E 6 e0 2b 15
        E 5 e0 2b 15
        E 6 e0 2b 15
        E 5 e0 2b 15
        E 6 e0 00 20
        E 6 e0 2b 15
        E 5 e0 2b 15
        E 6 e0 2b 15
        E 5 e0 2b 75
        E 0 90 2d 00
        E 394 90 28 29
        E 112 90 3b 2a
        E 5 90 28 00
        E 72 90 3b 00
        E 51 90 24 2b
        E 0 90 30 2b
        E 5 90 3e 2a
        E 5 90 33 2c
        E 0 90 3a 27
        E 51 90 24 00
        E 5 90 30 00
        E 93 90 33 00
        E 0 90 3e 00
        E 30 90 3a 00
        E 46 90 3d 25
        E 16 90 39 2d
        E 91 90 39 00
        E 113 90 45 2e
        E 25 90 3d 00
        E 36 90 45 00
        E 87 e0 55 6a
        E 0 90 45 2b
        E 5 e0 55 6a
        E 6 e0 55 6a
        E 5 e0 00 20
        E 6 e0 00 20
        E 5 e0 00 20
        E 6 e0 00 20
        E 5 e0 00 20
        E 6 e0 00 20
        E 5 e0 00 20
        E 6 e0 00 20
        E 5 e0 00 20
        E 5 e0 2b 15
        E 6 e0 2b 15
        E 5 e0 55 6a
        E 6 e0 55 6a
        E 0 90 45 00
        E 342 90 2b 28
        E 11 90 3f 3b
        E 5 90 46 24
        E 41 90 2b 00
        E 20 90 46 00
        E 16 90 3f 00
        E 40 90 32 28
        E 6 90 38 2b
        E 0 90 40 22
        E 112 90 32 00
        E 0 90 32 2a
        E 15 90 40 00
        E 10 90 38 00
        E 82 90 2c 34
        E 15 90 32 00
        E 0 90 32 3e
        E 46 90 2c 00
        E 41 90 32 00
        E 716 90 4a 20
        E 5 90 3e 2e
        E 102 90 2a 22
        E 5 90 26 1c
        E 11 90 45 2e
        E 5 90 39 27
        E 0 90 42 2b
        E 5 90 4a 00
        E 5 90 3e 00
        E 46 90 45 00
        E 46 90 26 00
        E 0 90 45 34
        E 5 90 49 2d
        E 5 90 3d 35
        E 5 90 2a 00
        E 5 90 42 00
        E 67 90 49 00
        E 10 90 3d 00
        E 0 90 45 00
        E 5 90 39 00
        E 143 e0 2b 75
        E 0 90 42 2b
        E 6 e0 2b 75
        E 5 e0 2b 15
        E 6 e0 00 20
        E 5 e0 00 20
        E 5 e0 00 20
        E 6 e0 2b 15
        E 5 e0 2b 15
        E 6 e0 2b 15
        E 5 e0 2b 15
        E 6 e0 2b 15
        E 5 e0 2b 15
        E 6 e0 2b 15
        E 5 e0 00 20
        E 5 e0 00 20
        E 6 e0 00 20
        E 0 90 42 00
        E 123 90 2a 1b
        E 20 90 3e 24
        E 103 90 38 2c
        E 10 90 2a 00
        E 0 90 3d 26
        E 0 90 3e 00
        E 5 90 40 2a
        E 0 90 44 21
        E 0 90 49 21
        E 61 90 3d 00
        E 11 90 40 00
        E 61 90 49 00
        E 5 90 4c 20
        E 15 90 44 00
        E 87 90 40 26
        E 26 90 53 17
        E 40 90 40 00
        E 21 90 40 2d
        E 20 90 53 00
        E 36 90 4c 00
        E 5 90 38 00
        E 0 90 40 00
        E 56 90 42 25
        E 6 90 36 25
        E 0 90 4a 33
        E 5 90 47 2b
        E 61 90 4a 00
        E 56 90 42 00
        E 10 90 36 00
        E 0 90 47 00
        E 323 e0 00 20
        E 0 90 34 49
        E 5 e0 00 20
        E 6 e0 00 20
        E 5 e0 00 20
        E 6 e0 00 20
        E 6 e0 00 20
        E 5 e0 00 20
        E 6 e0 00 20
        E 5 e0 00 20
        E 6 e0 00 20
        E 5 e0 00 20
        E 6 e0 00 20
        E 0 90 34 00
        E 281 90 21 30
        E 26 90 3d 2a
        E 5 90 2d 3d
        E 66 90 2d 00
        E 0 90 3d 00
        E 72 90 21 00
        E 30 e0 00 20
        E 0 90 31 2b
        E 5 e0 00 20
        E 6 e0 00 20
        E 5 e0 00 20
        E 5 e0 00 20
        E 5 e0 00 20
        E 5 e0 00 20
        E 5 e0 00 20
        E 5 e0 00 20
        E 6 e0 00 20
        E 5 e0 00 20
        E 5 e0 00 20
        E 5 e0 00 20
        E 5 e0 00 20
        E 0 90 31 00
        E 312 90 26 2d
        E 20 90 3c 24
        E 108 90 42 36
        E 25 90 3c 00
        E 5 90 26 00
        E 36 90 42 00
        E 158 90 1f 2a
        E 26 90 2b 2c
        E 230 90 1f 00
        E 16 90 2b 00
        E 86 e0 55 6a
        E 0 90 41 26
        E 6 e0 55 6a
        E 5 e0 00 60
        E 5 e0 00 20
        E 6 e0 00 20
        E 5 e0 00 20
        E 5 e0 00 20
        E 6 e0 00 20
        E 5 e0 00 20
        E 5 e0 00 20
        E 5 e0 00 20
        E 6 e0 00 20
        E 5 e0 00 20
        E 5 e0 00 20
        E 6 e0 00 20
        E 5 e0 00 20
        E 5 e0 00 20
        E 6 e0 00 20
        E 5 e0 00 20
        E 5 e0 00 20
        E 6 e0 00 20
        E 5 e0 00 20
        E 5 e0 00 20
        E 5 e0 00 20
        E 6 e0 00 20
        E 5 e0 00 20
        E 5 e0 00 20
        E 0 90 41 00
        E 87 90 39 39
        E 16 90 2f 1e
        E 10 90 3d 29
        E 41 90 39 00
        E 71 90 39 22
        E 21 90 3d 00
        E 97 90 39 00
        E 0 90 39 27
        E 15 90 2f 00
        E 51 90 23 1f
        E 15 90 39 00
        E 46 90 23 00
        E 445 90 3d 3b
        E 0 90 49 33
        E 0 90 52 2f
        E 11 90 37 27
        E 51 90 3d 00
        E 0 90 52 00
        E 15 90 49 00
        E 20 90 32 1e
        E 16 90 37 00
        E 0 90 38 3f
        E 5 90 3e 41
        E 0 90 47 3c
        E 46 90 32 00
        E 15 90 47 00
        E 10 90 38 00
        E 0 90 3e 00
        E 36 90 3a 47
        E 5 90 4f 34
        E 10 90 43 37
        E 46 90 3a 00
        E 6 90 4f 00
        E 20 90 43 00
        E 25 90 44 4d
        E 0 90 4a 45
        E 16 90 3b 2e
        E 46 90 4a 00
        E 5 90 44 00
        E 46 90 32 35
        E 15 90 3b 00
        E 0 90 3b 2e
        E 0 90 3e 3c
        E 0 90 4a 36
        E 5 90 4e 38
        E 0 90 53 2d
        E 57 90 32 00
        E 5 90 53 00
        E 5 90 3b 00
        E 5 90 3e 00
        E 0 90 4a 00
        E 16 90 4e 00
        E 10 90 3e 2a
        E 20 90 43 2d
        E 128 90 3e 00
        E 66 90 43 00
        E 9 b0 7b 00
        CCINTERP 32
        CHASE_CC_TAKEOFFS 1
        GUID {3A60FB3E-2119-4114-9FB5-371AFE116657}
        IGNTEMPO 0 120 4 4
        SRCCOLOR 156
        VELLANE -1 100 0
      >
    >
  >
  <UINF 94
    WNDRECT 23 51 855 480
    SHOW 0
    LASTSEL 0
    DOCKED 0
    BYPASS 0 0 0
    FXID_NEXT {6AB6CA0B-EEB2-4779-B560-7C533AA370C6}
    <VST "VSTi: BassMidiVsti (Falcosoft)" BassMidiVsti.dll 0 "" 1112755524<56535442534D44626173736D69646976> ""
      RE1TQu5e7f4AAAAAAgAAAAEAAAAAAAAAAgAAAAAAAAD1DAAAAQAAAAAAEAA=
      RwA6AFwATQB5ACAARAByAGkAdgBlAFwATQB1AHMAaQBjACAAUAByAG8AZAB1AGMAdABpAG8AbgBcAFMAbwB1AG4AZABmAG8AbgB0AHMAXABFAHMAcwBlAG4AdABpAGEAbAAgAEsAZQB5AHMALQBzAGYAegBCAGEAbgBrAHMALQB2ADkALgA2AC4AcwBmADIAAAAAAAAAAAAAAAAAAAAAAAAAAAAAAAAAAAAAAAAAAAAAAAAAAAAAAAAAAAAAAAAAAAAAAAAAAAAAAAAAAAAAAAAA
      AAAAAAAAAAAAAAAAAAAAAAAAAAAAAAAAAAAAAAAAAAAAAAAAAAAAAAAAAAAAAAAAAAAAAAAAAAAAAAAAAAAAAAAAAAAAAAAAAAAAAAAAAAAAAAAAAAAAAAAAAAAAAAAAAAAAAAAAAAAAAAAAAAAAAAAAAAAAAAAAAAAAAAAAAAAAAAAAAAAAAAAAAAAAAAAAAAAAAAAAAAAAAAAAAAAAAAAAAAAAAAAAAAAAAAAAAAAAAAAAAAAAAAAAAAAAAAAAAAAAAAAAAAAAAAAAAAAAAAAA
      AAAAAAAAAAAAAAAAAAAAAAAAAAAAAAAAAAAAAAAAAAAAAAAAAAAAAAAAAAAAAAAAAAAAAAAAAAAAAAAAAAAAAAAAAAAAAAAAAAAAAAAAAAAAAAAAAAAAAAAAAAAAAAAAAAAAAAAAZAAAAAEAAAAAAAAAAAAAAAAAAAAAAAAAAAAAAAAAAAAAAAAAAAAAAAAAAAAAAAAAAAAAAAAAAAAAAAAAAAAAAAAAAAAAAAAAAAAAAAAAAAAAAAAAAAAAAAAAAAAAAAAAAAAAAAAAAAAAAAAA
      AAAAAAAAAAAAAAAAAAAAAAAAAAAAAAAAAAAAAAAAAAAAAAAAAAAAAAAAAAAAAAAAAAAAAAAAAAAAAAAAAAAAAAAAAAAAAAAAAAAAAAAAAAAAAAAAAAAAAAAAAAAAAAAAAAAAAAAAAAAAAAAAAAAAAAAAAAAAAAAAAAAAAAAAAAAAAAAAAAAAAAAAAAAAAAAAAAAAAAAAAAAAAAAAAAAAAAAAAAAAAAAAAAAAAAAAAAAAAAAAAAAAAAAAAAAAAAAAAAAAAAAAAAAAAAAAAAAAAAAA
      AAAAAAAAAAAAAAAAAAAAAAAAAAAAAAAAAAAAAAAAAAAAAAAAAAAAAAAAAAAAAAAAAAAAAAAAAAAAAAAAAAAAAAAAAAAAAAAAAAAAAAAAAAAAAAAAAAAAAAAAAAAAAAAAAAAAAAAAAAAAAAAAAAAAAAAAAAAAAAAAAAAAAAAAAAAAAAAAAAAAAAAAAAAAAAAAAAAAAAAAAAAAAAAAAAAAAAAAAAAAAAAAAAAAAAAAAAAAAAAAAAAAAAAAAAAAAAAAAAAAAAAAAAAAAAAAAAAAAABk
      AAEAAAAAAAAAAAAAAAAAAAAAAAAAAAAAAAAAAAAAAAAAAAAAAAAAAAAAAAAAAAAAAAAAAAAAAAAAAAAAAAAAAAAAAAAAAAAAAAAAAAAAAAAAAAAAAAAAAAAAAAAAAAAAAAAAAAAAAAAAAAAAAAAAAAAAAAAAAAAAAAAAAAAAAAAAAAAAAAAAAAAAAAAAAAAAAAAAAAAAAAAAAAAAAAAAAAAAAAAAAAAAAAAAAAAAAAAAAAAAAAAAAAAAAAAAAAAAAAAAAAAAAAAAAAAAAAAAAAAA
      AAAAAAAAAAAAAAAAAAAAAAAAAAAAAAAAAAAAAAAAAAAAAAAAAAAAAAAAAAAAAAAAAAAAAAAAAAAAAAAAAAAAAAAAAAAAAAAAAAAAAAAAAAAAAAAAAAAAAAAAAAAAAAAAAAAAAAAAAAAAAAAAAAAAAAAAAAAAAAAAAAAAAAAAAAAAAAAAAAAAAAAAAAAAAAAAAAAAAAAAAAAAAAAAAAAAAAAAAAAAAAAAAAAAAAAAAAAAAAAAAAAAAAAAAAAAAAAAAAAAAAAAAAAAAAAAAAAAAAAA
      AAAAAAAAAAAAAAAAAAAAAAAAAAAAAAAAAAAAAAAAAAAAAAAAAAAAAAAAAAAAAAAAAAAAAAAAAAAAAAAAAAAAAAAAAAAAAAAAAAAAAAAAAAAAAAAAAAAAAAAAAAAAAAAAAAAAAAAAAAAAAGQAAgAAAAAAAAAAAAAAAAAAAAAAAAAAAAAAAAAAAAAAAAAAAAAAAAAAAAAAAAAAAAAAAAAAAAAAAAAAAAAAAAAAAAAAAAAAAAAAAAAAAAAAAAAAAAAAAAAAAAAAAAAAAAAAAAAAAAAA
      AAAAAAAAAAAAAAAAAAAAAAAAAAAAAAAAAAAAAAAAAAAAAAAAAAAAAAAAAAAAAAAAAAAAAAAAAAAAAAAAAAAAAAAAAAAAAAAAAAAAAAAAAAAAAAAAAAAAAAAAAAAAAAAAAAAAAAAAAAAAAAAAAAAAAAAAAAAAAAAAAAAAAAAAAAAAAAAAAAAAAAAAAAAAAAAAAAAAAAAAAAAAAAAAAAAAAAAAAAAAAAAAAAAAAAAAAAAAAAAAAAAAAAAAAAAAAAAAAAAAAAAAAAAAAAAAAAAAAAAA
      AAAAAAAAAAAAAAAAAAAAAAAAAAAAAAAAAAAAAAAAAAAAAAAAAAAAAAAAAAAAAAAAAAAAAAAAAAAAAAAAAAAAAAAAAAAAAAAAAAAAAAAAAAAAAAAAAAAAAAAAAAAAAAAAAAAAAAAAAAAAAAAAAAAAAAAAAAAAAAAAAAAAAAAAAAAAAAAAAAAAAAAAAAAAAAAAAAAAAAAAAAAAAAAAAAAAAAAAAAAAAAAAAAAAAAAAAAAAAAAAAAAAAAAAAAAAAAAAAAAAAAAAAAAAAAAAAAAAAAAA
      AAAAZAADAAAAAAAAAAAAAAAAAAAAAAAAAAAAAAAAAAAAAAAAAAAAAAAAAAAAAAAAAAAAAAAAAAAAAAAAAAAAAAAAAAAAAAAAAAAAAAAAAAAAAAAAAAAAAAAAAAAAAAAAAAAAAAAAAAAAAAAAAAAAAAAAAAAAAAAAAAAAAAAAAAAAAAAAAAAAAAAAAAAAAAAAAAAAAAAAAAAAAAAAAAAAAAAAAAAAAAAAAAAAAAAAAAAAAAAAAAAAAAAAAAAAAAAAAAAAAAAAAAAAAAAAAAAAAAAA
      AAAAAAAAAAAAAAAAAAAAAAAAAAAAAAAAAAAAAAAAAAAAAAAAAAAAAAAAAAAAAAAAAAAAAAAAAAAAAAAAAAAAAAAAAAAAAAAAAAAAAAAAAAAAAAAAAAAAAAAAAAAAAAAAAAAAAAAAAAAAAAAAAAAAAAAAAAAAAAAAAAAAAAAAAAAAAAAAAAAAAAAAAAAAAAAAAAAAAAAAAAAAAAAAAAAAAAAAAAAAAAAAAAAAAAAAAAAAAAAAAAAAAAAAAAAAAAAAAAAAAAAAAAAAAAAAAAAAAAAA
      AAAAAAAAAAAAAAAAAAAAAAAAAAAAAAAAAAAAAAAAAAAAAAAAAAAAAAAAAAAAAAAAAAAAAAAAAAAAAAAAAAAAAAAAAAAAAAAAAAAAAAAAAAAAAAAAAAAAAAAAAAAAAAAAAAAAAAAAAAAAAAAAAABkAAQAAAAAAAAAAAAAAACAPwAAgD8AAAAAAACAQgAAAAAAAIBCAACAQwAAAAAEAAAAACAAAAAAAAAAAAAAZAAAAEAAAAAoAAAAAAAAAEAAAAAAAAAAAAAAAAAgAAAAAAAAAAAA
      AGQAAABAAAAAKAAAAAAAAABAAAAAAAAAAAAAAAAAIAAAAAAAAAAAAABkAAAAQAAAACgAAAAAAAAAQAAAAAAAAAAAAAAAACAAAAAAAAAAAAAAZAAAAEAAAAAoAAAAAAAAAEAAAAAAAAAAAAAAAAAgAAAAAAAAAAAAAGQAAABAAAAAKAAAAAAAAABAAAAAAAAAAAAAAAAAIAAAAAAAAAAAAABkAAAAQAAAACgAAAAAAAAAQAAAAAAAAAAAAAAAACAAAAAAAAAAAAAAZAAAAEAAAAAo
      AAAAAAAAAEAAAAAAAAAAAAAAAAAgAAAAAAAAAAAAAGQAAABAAAAAKAAAAAAAAABAAAAAAAAAAAAAAAAAIAAAAAAAAAAAAABkAAAAQAAAACgAAAAAAAAAQAAAAAAAAAAAAAAAACAAAAAAAAAAAAAAZAAAAEAAAAAoAAAAAAAAAEAAAAAAAAAAAAAAAAAgAAAAAAAAAAAAAGQAAABAAAAAKAAAAAAAAABAAAAAAAAAAAAAAAAAIAAAAAAAAAAAAABkAAAAQAAAACgAAAAAAAAAQAAA
      AAAAAAAAAAAAACAAAAAAAAAAAAAAZAAAAEAAAAAoAAAAAAAAAEAAAAAAAAAAAAAAAAAgAAAAAAAAAAAAAGQAAABAAAAAKAAAAAAAAABAAAAAAAAAAAAAAAAAIAAAAAAAAAAAAABkAAAAQAAAACgAAAAAAAAAQAAAAAAAAAAAAAAAACAAAAAAAAAAAAAAZAAAAEAAAAAoAAAAAAAAAEAAAAAAAAAAAAA=
      AEJhc3NNaWRpABAAAAA=
    >
    PRESETNAME BassMidi
    FLOATPOS 0 0 0 0
    WAK 0 0
  >
  <UINF 95
    <TRACK {EC680376-C257-454C-B45C-D88628BCD590}
      NAME wii_music
      PEAKCOL 33554431
      BEAT -1
      AUTOMODE 0
      VOLPAN 1 0 -1 -1 1
      MUTESOLO 0 0 0
      IPHASE 0
      PLAYOFFS 0 1
      ISBUS 1 1
      BUSCOMP 0 0 0 0 0
      SHOWINMIX 1 0.6667 0.5 1 0.5 -1 -1 -1
      REC 0 0 1 0 0 0 0 0
      VU 2
      TRACKHEIGHT 0 0 0 0 0 0
      INQ 0 0 0 0.5 100 0 0 100
      NCHAN 2
      FX 1
      TRACKID {EC680376-C257-454C-B45C-D88628BCD590}
      PERF 0
      UNDO_HAS_TRACKENV
      MIDIOUT -1
      MAINSEND 1 0
    >
  >
  <UINF 96
    <TRACK {8CDE9AAD-6CE0-432F-B847-21A11CDD53FE}
      NAME Original_Audio
      PEAKCOL 25132927
      BEAT -1
      AUTOMODE 0
      VOLPAN 1 0 -1 -1 1
      MUTESOLO 0 0 0
      IPHASE 0
      PLAYOFFS 0 1
      ISBUS 0 0
      BUSCOMP 0 0 0 0 0
      SHOWINMIX 1 0.6667 0.5 1 0.5 -1 -1 -1
      REC 0 0 1 0 0 0 0 0
      VU 2
      TRACKHEIGHT 0 0 0 0 0 0
      INQ 0 0 0 0.5 100 0 0 100
      NCHAN 2
      FX 1
      TRACKID {8CDE9AAD-6CE0-432F-B847-21A11CDD53FE}
      PERF 0
      UNDO_HAS_TRACKENV
      MIDIOUT -1
      MAINSEND 1 0
    >
  >
  <UINF 97
    <TRACK {F609B9AB-AE56-48E0-A89C-0CFCCA4D7894}
      NAME MIDI
      PEAKCOL 16777216
      BEAT -1
      AUTOMODE 0
      VOLPAN 1 0 -1 -1 1
      MUTESOLO 0 0 0
      IPHASE 0
      PLAYOFFS 0 1
      ISBUS 1 1
      BUSCOMP 0 0 0 0 0
      SHOWINMIX 1 0.6667 0.5 1 0.5 -1 -1 -1
      REC 0 0 1 0 0 0 0 0
      VU 2
      TRACKHEIGHT 0 0 0 0 0 0
      INQ 0 0 0 0.5 100 0 0 100
      NCHAN 2
      FX 1
      TRACKID {F609B9AB-AE56-48E0-A89C-0CFCCA4D7894}
      PERF 0
      UNDO_HAS_TRACKENV
      MIDIOUT -1
      MAINSEND 1 0
    >
  >
  <UINF 98
    <TRACK {07837CA4-3164-4E81-BBF1-E93DB5B57D54}
      NAME "Spotify MIDI Transcription"
      PEAKCOL 16842496
      BEAT -1
      AUTOMODE 0
      VOLPAN 1 0 -1 -1 1
      MUTESOLO 0 0 0
      IPHASE 0
      PLAYOFFS 0 1
      ISBUS 0 0
      BUSCOMP 0 0 0 0 0
      SHOWINMIX 1 0.6667 0.5 1 0.5 -1 -1 -1
      REC 0 0 1 0 0 0 0 0
      VU 2
      TRACKHEIGHT 0 0 0 0 0 0
      INQ 0 0 0 0.5 100 0 0 100
      NCHAN 2
      FX 1
      TRACKID {07837CA4-3164-4E81-BBF1-E93DB5B57D54}
      PERF 0
      UNDO_HAS_TRACKENV
      MIDIOUT -1
      MAINSEND 1 0
    >
  >
  <UINF 99
    <TRACK {1E8973F6-C81D-4F0F-89A1-5B44C5C37FE0}
      NAME "Nov06 MIDI Transcription"
      PEAKCOL 32334866
      BEAT -1
      AUTOMODE 0
      VOLPAN 1 0 -1 -1 1
      MUTESOLO 0 0 0
      IPHASE 0
      PLAYOFFS 0 1
      ISBUS 0 0
      BUSCOMP 0 0 0 0 0
      SHOWINMIX 1 0.6667 0.5 1 0.5 -1 -1 -1
      REC 0 0 1 0 0 0 0 0
      VU 2
      TRACKHEIGHT 0 0 0 0 0 0
      INQ 0 0 0 0.5 100 0 0 100
      NCHAN 2
      FX 1
      TRACKID {1E8973F6-C81D-4F0F-89A1-5B44C5C37FE0}
      PERF 0
      UNDO_HAS_TRACKENV
      MIDIOUT -1
      MAINSEND 1 0
    >
  >
  <UINF 100
    <TRACK {81F3A71A-D77B-40B9-BD72-D8AE6051A077}
      NAME "Nov20_7 MIDI Transcription"
      PEAKCOL 32334866
      BEAT -1
      AUTOMODE 0
      VOLPAN 1 0 -1 -1 1
      MUTESOLO 0 0 0
      IPHASE 0
      PLAYOFFS 0 1
      ISBUS 0 0
      BUSCOMP 0 0 0 0 0
      SHOWINMIX 1 0.6667 0.5 1 0.5 -1 -1 -1
      REC 0 0 1 0 0 0 0 0
      VU 2
      TRACKHEIGHT 0 0 0 0 0 0
      INQ 0 0 0 0.5 100 0 0 100
      NCHAN 2
      FX 1
      TRACKID {81F3A71A-D77B-40B9-BD72-D8AE6051A077}
      PERF 0
      UNDO_HAS_TRACKENV
      MIDIOUT -1
      MAINSEND 1 0
    >
  >
  <UINF 101
    <TRACK {AF3E723C-8BD9-455D-B7D3-14026E7EBD13}
      NAME "Nov26_02 (Preprocessed data)"
      PEAKCOL 32334866
      BEAT -1
      AUTOMODE 0
      VOLPAN 1 0 -1 -1 1
      MUTESOLO 0 0 0
      IPHASE 0
      PLAYOFFS 0 1
      ISBUS 0 0
      BUSCOMP 0 0 0 0 0
      SHOWINMIX 1 0.6667 0.5 1 0.5 -1 -1 -1
      REC 0 0 1 0 0 0 0 0
      VU 2
      TRACKHEIGHT 0 0 0 0 0 0
      INQ 0 0 0 0.5 100 0 0 100
      NCHAN 2
      FX 1
      TRACKID {AF3E723C-8BD9-455D-B7D3-14026E7EBD13}
      PERF 0
      UNDO_HAS_TRACKENV
      MIDIOUT -1
      MAINSEND 1 0
    >
  >
  <UINF 102
    <TRACK {BE1721E1-A20F-4A29-B9EC-73FC4FF27A8A}
      NAME "Nov26 (On-the-fly data)"
      PEAKCOL 32334866
      BEAT -1
      AUTOMODE 0
      VOLPAN 1 0 -1 -1 1
      MUTESOLO 0 0 0
      IPHASE 0
      PLAYOFFS 0 1
      ISBUS 2 -2
      BUSCOMP 0 0 0 0 0
      SHOWINMIX 1 0.6667 0.5 1 0.5 -1 -1 -1
      REC 0 0 1 0 0 0 0 0
      VU 2
      TRACKHEIGHT 0 0 0 0 0 0
      INQ 0 0 0 0.5 100 0 0 100
      NCHAN 2
      FX 1
      TRACKID {BE1721E1-A20F-4A29-B9EC-73FC4FF27A8A}
      PERF 0
      UNDO_HAS_TRACKENV
      MIDIOUT -1
      MAINSEND 1 0
    >
  >
  <UINF 103
    <TRACK {EC680376-C257-454C-B45C-D88628BCD590}
      NAME "Gwyn, Lord of Cinder"
      PEAKCOL 33554431
      BEAT -1
      AUTOMODE 0
      VOLPAN 1 0 -1 -1 1
      MUTESOLO 0 0 0
      IPHASE 0
      PLAYOFFS 0 1
      ISBUS 1 1
      BUSCOMP 0 0 0 0 0
      SHOWINMIX 1 0.6667 0.5 1 0.5 -1 -1 -1
      REC 0 0 1 0 0 0 0 0
      VU 2
      TRACKHEIGHT 0 0 0 0 0 0
      INQ 0 0 0 0.5 100 0 0 100
      NCHAN 2
      FX 1
      TRACKID {EC680376-C257-454C-B45C-D88628BCD590}
      PERF 0
      UNDO_HAS_TRACKENV
      MIDIOUT -1
      MAINSEND 1 0
    >
  >
  <UINF 104
    <ITEM {E79EF0D5-C4BE-41B0-BE59-9CC2845D8E76}
      POSITION 0
      SNAPOFFS 0
      LENGTH 86.79619047619047
      LOOP 1
      ALLTAKES 0
      FADEIN 1 0.001 0 1 0 0 0
      FADEOUT 1 0.001 0 1 0 0 0
      MUTE 0 0
      SEL 1
      IGUID {E79EF0D5-C4BE-41B0-BE59-9CC2845D8E76}
      IID 10
      NAME wii_music.mp3
      VOLPAN 1 0 1 -1
      SOFFS 0
      PLAYRATE 1 1 0 -1 0 0.0025
      CHANMODE 0
      GUID {ABFFC7F3-E75A-41DB-A71C-CBAF9C143230}
      <SOURCE MP3
        FILE "C:\_AlexFiles\Coding\Python\FALL2023_IndependentStudy\audio_to_midi_vst\independent_study\daw_project_example\wii_music.mp3" 1
      >
    >
  >
  <UINF 105
    <ITEM {B175DB89-6BF9-43D8-A0A9-8F6CE6DF9EDA}
      POSITION 0
      SNAPOFFS 0
      LENGTH 218.1863125
      LOOP 1
      ALLTAKES 0
      FADEIN 1 0.001 0 1 0 0 0
      FADEOUT 1 0.001 0 1 0 0 0
      MUTE 0 0
      SEL 1
      IGUID {B175DB89-6BF9-43D8-A0A9-8F6CE6DF9EDA}
      IID 132
      NAME "Gwyn, Lord of Cinder.mp3"
      VOLPAN 1 0 1 -1
      SOFFS 0
      PLAYRATE 1 1 0 -1 0 0.0025
      CHANMODE 0
      GUID {8DD6E1A5-37AA-4D53-BFAE-0887B2C5239D}
      <SOURCE MP3
        FILE "C:\_AlexFiles\Coding\Python\FALL2023_IndependentStudy\audio_to_midi_vst\independent_study\model_predictions\_test_audio\Gwyn, Lord of Cinder.mp3" 1
      >
    >
  >
  <UINF 106
    <ITEM {B175DB89-6BF9-43D8-A0A9-8F6CE6DF9EDA}
      POSITION 0
      SNAPOFFS 0
      LENGTH 218.1863125
      LOOP 1
      ALLTAKES 0
      FADEIN 1 0.001 0 1 0 0 0
      FADEOUT 1 0.001 0 1 0 0 0
      MUTE 0 0
      SEL 0
      IGUID {B175DB89-6BF9-43D8-A0A9-8F6CE6DF9EDA}
      IID 132
      NAME "Gwyn, Lord of Cinder.mp3"
      VOLPAN 1 0 1 -1
      SOFFS 0
      PLAYRATE 1 1 0 -1 0 0.0025
      CHANMODE 0
      GUID {8DD6E1A5-37AA-4D53-BFAE-0887B2C5239D}
      <SOURCE MP3
        FILE "C:\_AlexFiles\Coding\Python\FALL2023_IndependentStudy\audio_to_midi_vst\independent_study\model_predictions\_test_audio\Gwyn, Lord of Cinder.mp3" 1
      >
    >
  >
  <UINF 107
    <ITEM {701E1F19-C8B7-4660-A017-DFE563B68D65}
      POSITION 0
      SNAPOFFS 0
      LENGTH 86
      LOOP 1
      ALLTAKES 0
      FADEIN 1 0 0 1 0 0 0
      FADEOUT 1 0 0 1 0 0 0
      MUTE 0 0
      SEL 1
      IGUID {701E1F19-C8B7-4660-A017-DFE563B68D65}
      IID 100
      NAME wii_music_basic_pitch.mid
      VOLPAN 1 0 1 -1
      SOFFS 0 0
      PLAYRATE 1 1 0 -1 0 0.0025
      CHANMODE 0
      GUID {F18B92BF-3B7A-4715-9B53-93EF5B500DE7}
      <SOURCE MIDI
        HASDATA 1 220 QN
        CCINTERP 32
        POOLEDEVTS {7AA5F9E6-4909-46A6-A09E-82F104DECBBD}
        E 0 c0 04 00
        E 112 e0 2b 75
        E 0 90 2f 30
        E 6 e0 2b 75
        E 5 e0 2b 75
        E 5 e0 2b 75
        E 6 e0 2b 75
        E 5 e0 55 6a
        E 5 e0 55 6a
        E 6 e0 2b 15
        E 5 e0 2b 15
        E 5 e0 2b 15
        E 6 e0 2b 15
        E 5 e0 2b 15
        E 5 e0 2b 75
        E 5 e0 2b 75
        E 6 e0 2b 15
        E 5 e0 2b 15
        E 5 e0 2b 15
        E 6 e0 2b 15
        E 5 e0 2b 15
        E 5 e0 2b 15
        E 6 e0 55 6a
        E 5 e0 55 6a
        E 5 e0 55 6a
        E 6 e0 55 6a
        E 5 e0 55 6a
        E 5 e0 55 6a
        E 0 90 2f 00
        E 77 90 29 1b
        E 20 90 45 28
        E 113 90 29 00
        E 20 90 45 00
        E 430 90 2f 23
        E 5 90 42 33
        E 15 90 3e 1f
        E 46 90 42 00
        E 46 90 2c 2b
        E 21 90 32 24
        E 0 90 38 26
        E 0 90 3e 00
        E 0 90 3e 21
        E 5 90 2f 00
        E 92 90 25 14
        E 20 90 38 00
        E 0 90 38 2a
        E 0 90 3e 00
        E 0 90 3e 2a
        E 5 90 2c 00
        E 51 90 32 00
        E 41 90 2c 30
        E 5 90 32 31
        E 16 90 38 00
        E 0 90 38 2d
        E 15 90 3e 00
        E 25 90 25 00
        E 6 90 2c 00
        E 5 90 32 00
        E 10 90 38 00
        E 501 90 31 2c
        E 0 90 35 4f
        E 10 90 49 2c
        E 0 90 4d 1f
        E 51 90 35 00
        E 11 90 4d 00
        E 5 90 31 00
        E 5 90 49 00
        E 25 90 23 2f
        E 11 90 42 2d
        E 15 90 36 2e
        E 0 90 3e 25
        E 36 90 23 00
        E 76 90 3e 00
        E 0 90 3e 21
        E 10 90 42 00
        E 6 90 36 00
        E 92 90 45 32
        E 20 90 3e 00
        E 41 90 45 00
        E 527 90 3e 20
        E 97 90 38 2d
        E 5 90 40 2c
        E 0 90 42 20
        E 0 90 44 23
        E 15 90 49 2b
        E 0 90 55 25
        E 10 90 3e 00
        E 51 90 42 00
        E 0 90 55 00
        E 5 90 40 00
        E 16 90 4c 28
        E 10 90 49 00
        E 46 90 38 00
        E 77 90 38 23
        E 61 90 2c 20
        E 56 90 3c 1e
        E 5 90 48 23
        E 10 90 2c 00
        E 11 90 44 00
        E 0 90 4c 00
        E 15 90 38 00
        E 20 90 3f 26
        E 57 90 36 2e
        E 10 90 3c 00
        E 5 90 3f 00
        E 0 90 48 00
        E 117 90 36 00
        E 348 e0 2b 75
        E 0 90 2d 34
        E 6 e0 2b 75
        E 5 e0 55 6a
        E 5 e0 55 6a
        E 6 e0 55 6a
        E 5 e0 55 6a
        E 5 e0 2b 75
        E 5 e0 2b 75
        E 6 e0 2b 75
        E 5 e0 2b 75
        E 5 e0 2b 75
        E 6 e0 55 6a
        E 5 e0 2b 15
        E 5 e0 2b 15
        E 6 e0 2b 15
        E 5 e0 2b 15
        E 5 e0 2b 15
        E 6 e0 2b 15
        E 5 e0 55 6a
        E 5 e0 55 6a
        E 5 e0 55 6a
        E 6 e0 55 6a
        E 5 e0 55 6a
        E 5 e0 55 6a
        E 6 e0 55 6a
        E 5 e0 55 6a
        E 5 e0 55 6a
        E 0 90 2d 00
        E 102 e0 55 6a
        E 0 90 49 20
        E 6 e0 55 6a
        E 5 e0 55 6a
        E 6 e0 55 6a
        E 5 e0 55 6a
        E 6 e0 55 6a
        E 5 e0 55 6a
        E 6 e0 55 6a
        E 5 e0 00 20
        E 6 e0 00 20
        E 5 e0 55 6a
        E 6 e0 55 6a
        E 5 e0 2b 75
        E 6 e0 2b 75
        E 0 90 49 00
        E 271 e0 2b 15
        E 0 90 34 2c
        E 6 e0 2b 15
        E 5 e0 2b 15
        E 5 e0 2b 15
        E 6 e0 2b 15
        E 5 e0 2b 15
        E 6 e0 00 20
        E 5 e0 00 20
        E 6 e0 00 20
        E 5 e0 00 20
        E 5 e0 00 20
        E 6 e0 00 20
        E 5 e0 00 20
        E 6 e0 00 20
        E 5 e0 00 20
        E 5 e0 00 20
        E 6 e0 00 20
        E 5 e0 00 20
        E 0 90 34 00
        E 373 90 40 29
        E 0 90 49 2e
        E 82 90 49 00
        E 5 90 40 00
        E 112 90 2b 24
        E 16 90 43 37
        E 66 90 43 00
        E 46 90 42 35
        E 5 90 2b 00
        E 47 90 36 1f
        E 10 90 42 00
        E 61 90 36 00
        E 123 e0 2b 15
        E 0 90 40 2f
        E 5 e0 2b 15
        E 6 e0 2b 15
        E 5 e0 00 20
        E 5 e0 00 20
        E 6 e0 00 20
        E 5 e0 00 20
        E 6 e0 00 20
        E 5 e0 00 20
        E 6 e0 00 20
        E 5 e0 00 20
        E 5 e0 00 20
        E 6 e0 2b 15
        E 5 e0 2b 15
        E 6 e0 2b 15
        E 5 e0 2b 15
        E 5 e0 2b 15
        E 6 e0 2b 15
        E 0 90 40 00
        E 117 e0 00 60
        E 0 90 2d 26
        E 6 e0 00 60
        E 5 e0 00 60
        E 5 e0 00 60
        E 5 e0 00 60
        E 6 e0 55 6a
        E 5 e0 2b 15
        E 5 e0 2b 15
        E 6 e0 2b 15
        E 5 e0 2b 15
        E 5 e0 2b 75
        E 5 e0 2b 75
        E 6 e0 2b 75
        E 5 e0 2b 75
        E 5 e0 2b 75
        E 6 e0 2b 75
        E 5 e0 2b 75
        E 5 e0 2b 15
        E 6 e0 00 20
        E 5 e0 00 20
        E 5 e0 00 20
        E 5 e0 55 6a
        E 6 e0 55 6a
        E 5 e0 55 6a
        E 5 e0 55 6a
        E 6 e0 55 6a
        E 5 e0 00 60
        E 5 e0 00 60
        E 5 e0 00 60
        E 0 90 2d 00
        E 92 90 2d 2d
        E 5 90 3c 3d
        E 57 90 2d 00
        E 10 90 3c 00
        E 501 e0 2b 75
        E 0 90 2d 29
        E 5 e0 55 6a
        E 6 e0 00 20
        E 5 e0 00 20
        E 5 e0 2b 15
        E 5 e0 2b 15
        E 6 e0 2b 15
        E 5 e0 2b 15
        E 5 e0 2b 15
        E 5 e0 2b 15
        E 6 e0 2b 15
        E 5 e0 2b 75
        E 5 e0 2b 75
        E 5 e0 2b 75
        E 6 e0 2b 75
        E 5 e0 2b 75
        E 5 e0 2b 15
        E 5 e0 2b 15
        E 6 e0 00 20
        E 5 e0 00 20
        E 5 e0 00 20
        E 5 e0 00 20
        E 6 e0 00 60
        E 5 e0 00 60
        E 5 e0 00 60
        E 5 e0 00 60
        E 6 e0 00 60
        E 5 e0 2b 15
        E 5 e0 2b 15
        E 5 e0 2b 15
        E 6 e0 2b 15
        E 5 e0 2b 15
        E 5 e0 2b 15
        E 5 e0 2b 15
        E 6 e0 2b 15
        E 5 e0 2b 75
        E 0 90 2d 00
        E 51 e0 2b 15
        E 0 90 1a 24
        E 5 e0 2b 15
        E 6 e0 2b 15
        E 5 e0 00 20
        E 6 e0 00 20
        E 5 e0 00 20
        E 5 e0 00 20
        E 6 e0 00 20
        E 5 e0 2b 15
        E 5 e0 2b 15
        E 6 e0 2b 15
        E 5 e0 2b 15
        E 5 e0 2b 15
        E 6 e0 2b 15
        E 5 e0 2b 15
        E 6 e0 2b 15
        E 5 e0 2b 15
        E 5 e0 2b 15
        E 6 e0 2b 15
        E 5 e0 2b 15
        E 5 e0 2b 15
        E 0 90 1a 00
        E 251 e0 00 60
        E 0 90 52 22
        E 6 e0 00 20
        E 5 e0 00 20
        E 6 e0 00 20
        E 5 e0 00 20
        E 6 e0 00 20
        E 6 e0 00 20
        E 5 e0 00 20
        E 6 e0 00 20
        E 5 e0 00 20
        E 6 e0 00 20
        E 6 e0 00 20
        E 0 90 52 00
        E 158 90 30 2c
        E 5 90 27 2a
        E 0 90 3a 28
        E 0 90 3e 2b
        E 5 90 33 2b
        E 61 90 30 00
        E 41 90 27 00
        E 41 90 33 00
        E 10 90 3e 00
        E 21 90 3a 00
        E 51 90 32 23
        E 10 90 39 30
        E 0 90 3d 34
        E 102 90 39 00
        E 5 90 3d 00
        E 36 90 32 00
        E 210 e0 55 6a
        E 0 90 45 2c
        E 6 e0 55 6a
        E 5 e0 55 6a
        E 5 e0 00 20
        E 6 e0 00 20
        E 5 e0 00 20
        E 6 e0 00 20
        E 5 e0 00 20
        E 6 e0 00 20
        E 5 e0 00 20
        E 5 e0 00 20
        E 6 e0 00 20
        E 5 e0 00 20
        E 6 e0 2b 15
        E 5 e0 55 6a
        E 6 e0 55 6a
        E 5 e0 55 6a
        E 0 90 45 00
        E 358 90 3f 3a
        E 5 90 44 17
        E 0 90 46 21
        E 61 90 46 00
        E 10 90 3f 00
        E 46 90 32 28
        E 5 90 38 2d
        E 0 90 44 00
        E 5 90 40 1f
        E 41 90 3e 21
        E 51 90 2c 28
        E 16 90 32 00
        E 0 90 32 2a
        E 15 90 3e 00
        E 0 90 40 00
        E 15 90 38 00
        E 92 90 32 00
        E 0 90 32 36
        E 46 90 2c 00
        E 77 90 32 00
        E 685 90 42 26
        E 5 90 3e 27
        E 97 90 26 1f
        E 0 90 2a 25
        E 0 90 2d 21
        E 10 90 45 2c
        E 5 90 3e 00
        E 0 90 3e 17
        E 6 90 39 2f
        E 0 90 42 00
        E 0 90 42 2e
        E 102 90 26 00
        E 0 90 49 2f
        E 5 90 3d 37
        E 0 90 3e 00
        E 5 90 45 00
        E 0 90 45 2d
        E 6 90 2a 00
        E 0 90 2d 00
        E 0 90 42 00
        E 10 90 39 00
        E 56 90 49 00
        E 10 90 3d 00
        E 0 90 45 00
        E 133 e0 2b 75
        E 0 90 42 3e
        E 6 e0 2b 75
        E 5 e0 2b 75
        E 6 e0 2b 75
        E 5 e0 2b 75
        E 6 e0 2b 75
        E 5 e0 00 20
        E 6 e0 00 20
        E 5 e0 00 20
        E 6 e0 00 20
        E 5 e0 2b 15
        E 6 e0 2b 15
        E 5 e0 2b 15
        E 0 90 42 00
        E 184 90 3e 24
        E 97 90 38 2a
        E 6 90 44 36
        E 15 90 40 20
        E 5 90 3e 00
        E 61 90 44 00
        E 62 90 44 1f
        E 67 90 44 00
        E 5 90 40 00
        E 0 90 40 23
        E 51 90 53 18
        E 15 90 40 00
        E 15 90 38 00
        E 0 90 40 2c
        E 5 90 38 30
        E 52 90 53 00
        E 46 90 40 00
        E 5 90 38 00
        E 46 90 42 21
        E 5 90 36 2f
        E 0 90 3e 37
        E 0 90 4a 2d
        E 5 90 47 25
        E 56 90 36 00
        E 0 90 4a 00
        E 5 90 3e 00
        E 56 90 42 00
        E 11 90 47 00
        E 680 90 21 34
        E 10 90 3d 2d
        E 5 90 2d 31
        E 66 90 3d 00
        E 36 90 2d 00
        E 20 90 21 00
        E 445 90 26 2d
        E 10 90 32 2b
        E 133 90 26 00
        E 36 90 32 00
        E 153 90 1f 29
        E 26 90 2b 32
        E 148 90 2b 00
        E 77 90 1f 00
        E 112 e0 55 6a
        E 0 90 41 24
        E 5 e0 55 6a
        E 6 e0 55 6a
        E 5 e0 00 20
        E 5 e0 00 20
        E 6 e0 00 20
        E 5 e0 00 20
        E 5 e0 00 20
        E 6 e0 00 20
        E 5 e0 00 20
        E 5 e0 00 20
        E 6 e0 00 20
        E 5 e0 00 20
        E 5 e0 00 20
        E 6 e0 00 20
        E 5 e0 00 20
        E 5 e0 00 20
        E 6 e0 00 20
        E 5 e0 00 20
        E 5 e0 00 20
        E 5 e0 00 20
        E 6 e0 00 20
        E 5 e0 00 20
        E 5 e0 00 20
        E 6 e0 00 20
        E 5 e0 00 20
        E 0 90 41 00
        E 97 90 39 3b
        E 15 90 3d 22
        E 11 90 2f 1d
        E 31 90 39 00
        E 71 90 39 23
        E 0 90 3d 00
        E 0 90 3d 2b
        E 118 90 39 00
        E 0 90 39 2a
        E 15 90 2f 00
        E 5 90 3d 00
        E 67 90 39 00
        E 485 90 49 34
        E 5 90 3d 36
        E 0 90 52 2a
        E 77 90 52 00
        E 5 90 3d 00
        E 0 90 49 00
        E 21 90 32 20
        E 10 90 38 40
        E 0 90 3e 45
        E 0 90 47 41
        E 51 90 32 00
        E 10 90 47 00
        E 11 90 38 00
        E 0 90 3e 00
        E 35 90 3a 45
        E 16 90 43 37
        E 0 90 4f 2f
        E 51 90 3a 00
        E 10 90 4f 00
        E 5 90 43 00
        E 31 90 44 4c
        E 0 90 4a 46
        E 10 90 3b 35
        E 51 90 4a 00
        E 5 90 44 00
        E 61 90 3e 38
        E 0 90 4a 30
        E 6 90 47 24
        E 0 90 4e 34
        E 15 90 3b 00
        E 56 90 4a 00
        E 5 90 3e 00
        E 15 90 4e 00
        E 11 90 37 23
        E 0 90 3e 2c
        E 15 90 47 00
        E 5 90 43 2e
        E 41 90 37 00
        E 87 90 3e 00
        E 61 90 43 00
        E 721 90 45 2a
        E 5 90 51 34
        E 5 90 39 2b
        E 61 90 51 00
        E 92 90 39 00
        E 6 90 45 00
        E 71 90 3a 37
        E 0 90 46 33
        E 82 90 46 00
        E 5 e0 2b 15
        E 0 90 3a 00
        E 0 90 3a 30
        E 5 e0 2b 15
        E 5 e0 2b 15
        E 5 e0 2b 15
        E 5 e0 2b 15
        E 6 e0 2b 15
        E 5 e0 2b 15
        E 5 e0 2b 15
        E 5 e0 2b 15
        E 5 e0 2b 15
        E 5 e0 2b 15
        E 6 e0 55 6a
        E 5 e0 55 6a
        E 5 e0 2b 15
        E 5 e0 2b 15
        E 5 e0 2b 15
        E 0 90 3a 00
        E 36 90 28 35
        E 25 90 3b 3a
        E 0 90 47 30
        E 62 90 3b 00
        E 0 90 47 00
        E 20 90 28 00
        E 41 90 4e 15
        E 117 90 47 2d
        E 6 90 4e 00
        E 56 90 47 00
        E 46 90 2f 36
        E 5 90 3e 1f
        E 117 90 47 2c
        E 5 90 3b 2e
        E 16 90 2f 00
        E 25 90 3e 00
        E 82 90 47 00
        E 5 90 3b 00
        E 67 90 3b 22
        E 71 90 47 20
        E 5 90 3b 00
        E 0 90 3b 22
        E 0 90 43 16
        E 77 90 47 00
        E 16 90 3b 00
        E 25 90 43 00
        E 36 90 21 22
        E 15 90 40 36
        E 5 90 3d 2a
        E 6 90 3b 17
        E 5 90 2d 30
        E 51 90 40 00
        E 46 90 21 00
        E 0 90 21 30
        E 25 90 3b 00
        E 11 90 2d 00
        E 0 90 3d 00
        E 35 90 21 00
        E 56 90 4c 31
        E 6 90 45 34
        E 56 90 4c 00
        E 10 e0 2b 15
        E 0 90 34 3c
        E 0 90 45 00
        E 5 e0 2b 15
        E 6 e0 2b 15
        E 5 e0 2b 15
        E 6 e0 2b 15
        E 5 e0 2b 15
        E 6 e0 2b 15
        E 5 e0 2b 15
        E 5 e0 2b 15
        E 6 e0 55 0a
        E 5 e0 55 0a
        E 6 e0 55 0a
        E 5 e0 55 0a
        E 6 e0 55 0a
        E 5 e0 55 0a
        E 5 e0 2b 15
        E 6 e0 2b 15
        E 0 90 34 00
        E 61 90 28 32
        E 10 90 47 31
        E 11 90 3b 26
        E 0 90 4e 23
        E 51 90 28 00
        E 25 90 47 00
        E 51 90 3b 00
        E 21 90 4e 00
        E 71 90 47 24
        E 10 90 42 37
        E 1 90 4e 2a
        E 0 90 55 21
        E 56 90 47 00
        E 5 90 55 00
        E 5 90 42 00
        E 0 90 4e 00
        E 41 e0 55 6a
        E 0 90 49 25
        E 6 e0 55 6a
        E 5 e0 55 6a
        E 6 e0 55 6a
        E 5 e0 00 60
        E 6 e0 00 20
        E 5 e0 00 20
        E 5 e0 00 20
        E 6 e0 00 20
        E 5 e0 00 20
        E 6 e0 00 20
        E 5 e0 00 20
        E 6 e0 00 20
        E 5 e0 00 20
        E 6 e0 00 60
        E 5 e0 55 6a
        E 0 90 49 00
        E 10 90 1f 26
        E 26 90 32 2c
        E 92 90 1f 00
        E 66 90 32 00
        E 56 90 26 23
        E 16 90 32 30
        E 66 90 26 00
        E 5 90 32 00
        E 31 e0 00 40
        E 0 90 3a 50
        E 5 e0 00 40
        E 6 e0 00 40
        E 6 e0 00 40
        E 5 e0 00 00
        E 6 e0 55 0a
        E 5 e0 55 0a
        E 6 e0 55 0a
        E 5 e0 2b 15
        E 6 e0 2b 15
        E 6 e0 2b 15
        E 5 e0 2b 15
        E 0 90 3a 00
        E 67 90 47 27
        E 15 90 3b 2c
        E 117 90 3b 00
        E 0 90 3b 28
        E 72 90 47 00
        E 6 e0 2b 15
        E 0 90 3b 00
        E 0 90 3b 27
        E 5 e0 2b 15
        E 5 e0 2b 15
        E 6 e0 00 20
        E 5 e0 00 20
        E 6 e0 00 20
        E 5 e0 00 20
        E 6 e0 00 20
        E 5 e0 00 20
        E 6 e0 00 20
        E 5 e0 00 20
        E 5 e0 55 6a
        E 6 e0 55 6a
        E 5 e0 55 6a
        E 6 e0 55 6a
        E 5 e0 2b 15
        E 0 90 3b 00
        E 159 90 32 2f
        E 5 90 26 25
        E 10 90 3b 24
        E 5 90 47 21
        E 46 90 32 00
        E 92 90 47 00
        E 5 90 3b 00
        E 15 90 26 00
        E 164 e0 00 20
        E 0 90 2d 34
        E 5 e0 00 20
        E 6 e0 2b 15
        E 5 e0 2b 15
        E 6 e0 2b 15
        E 5 e0 2b 15
        E 6 e0 2b 15
        E 5 e0 00 20
        E 6 e0 00 20
        E 5 e0 00 20
        E 6 e0 00 20
        E 5 e0 00 20
        E 6 e0 00 20
        E 5 e0 00 20
        E 6 e0 00 20
        E 0 90 2d 00
        E 71 e0 2b 15
        E 0 90 3b 30
        E 5 e0 00 20
        E 6 e0 00 20
        E 5 e0 00 20
        E 6 e0 00 20
        E 5 e0 00 20
        E 6 e0 00 20
        E 5 e0 00 20
        E 6 e0 00 20
        E 5 e0 00 20
        E 6 e0 00 20
        E 5 e0 00 20
        E 5 e0 00 20
        E 6 e0 00 20
        E 5 e0 00 20
        E 6 e0 00 20
        E 0 90 3b 00
        E 0 90 3b 32
        E 5 e0 00 20
        E 5 e0 00 20
        E 5 e0 00 20
        E 5 e0 00 20
        E 6 e0 2b 15
        E 5 e0 2b 15
        E 5 e0 2b 15
        E 5 e0 2b 15
        E 5 e0 2b 15
        E 5 e0 00 20
        E 5 e0 00 20
        E 6 e0 00 20
        E 0 90 3b 00
        E 61 90 2d 30
        E 15 90 3c 34
        E 0 90 48 2f
        E 0 90 54 21
        E 62 90 2d 00
        E 25 90 54 00
        E 26 90 48 00
        E 41 90 3c 00
        E 61 90 20 2f
        E 15 90 49 28
        E 5 90 2c 2a
        E 5 90 3d 30
        E 57 90 20 00
        E 40 90 2c 00
        E 21 90 3d 00
        E 0 90 3d 2d
        E 41 90 49 00
        E 25 90 3d 00
        E 5 e0 00 20
        E 0 90 3d 24
        E 6 e0 00 20
        E 5 e0 00 20
        E 6 e0 2b 15
        E 5 e0 2b 15
        E 6 e0 2b 15
        E 5 e0 2b 15
        E 6 e0 2b 15
        E 5 e0 2b 15
        E 6 e0 00 20
        E 5 e0 00 20
        E 6 e0 00 20
        E 5 e0 55 6a
        E 6 e0 00 20
        E 0 90 3d 00
        E 66 90 25 29
        E 16 90 31 2a
        E 5 90 3c 43
        E 0 90 48 38
        E 61 90 3c 00
        E 5 90 48 00
        E 31 90 41 23
        E 5 90 49 29
        E 10 90 25 00
        E 0 90 3d 32
        E 56 90 4d 15
        E 67 90 4d 00
        E 10 90 41 00
        E 6 90 31 00
        E 5 90 49 00
        E 25 90 3d 00
        E 26 e0 00 20
        E 0 90 3d 22
        E 5 e0 00 20
        E 6 e0 00 20
        E 5 e0 00 20
        E 5 e0 2b 15
        E 6 e0 2b 15
        E 5 e0 2b 15
        E 6 e0 2b 15
        E 5 e0 2b 15
        E 5 e0 2b 15
        E 6 e0 00 20
        E 5 e0 00 20
        E 5 e0 00 20
        E 6 e0 00 20
        E 5 e0 00 20
        E 6 e0 00 20
        E 5 e0 00 20
        E 5 e0 00 20
        E 6 e0 2b 15
        E 0 90 3d 00
        E 10 90 49 21
        E 36 90 31 28
        E 5 90 41 35
        E 56 90 49 00
        E 10 90 41 00
        E 46 90 1e 22
        E 0 90 3d 25
        E 5 90 49 1d
        E 11 90 2a 2f
        E 5 90 31 00
        E 97 90 2a 00
        E 0 90 2a 2e
        E 5 90 1e 00
        E 0 90 3d 00
        E 0 90 49 00
        E 5 90 3d 36
        E 0 90 49 27
        E 61 90 3d 00
        E 36 90 3d 38
        E 77 90 2a 00
        E 0 90 3d 00
        E 15 90 49 00
        E 31 90 25 2e
        E 117 90 3d 3d
        E 5 90 49 35
        E 26 90 25 00
        E 26 90 3d 00
        E 10 90 49 00
        E 21 e0 2b 15
        E 0 90 50 1d
        E 5 e0 2b 15
        E 6 e0 2b 15
        E 5 e0 00 20
        E 6 e0 00 20
        E 5 e0 00 20
        E 6 e0 00 60
        E 6 e0 2b 55
        E 5 e0 55 4a
        E 6 e0 55 4a
        E 5 e0 2b 55
        E 6 e0 2b 55
        E 0 90 50 00
        E 184 e0 00 60
        E 0 90 3f 4b
        E 5 e0 55 6a
        E 6 e0 55 6a
        E 6 e0 55 6a
        E 5 e0 55 6a
        E 6 e0 55 6a
        E 5 e0 2b 15
        E 6 e0 2b 15
        E 5 e0 00 20
        E 6 e0 00 20
        E 6 e0 00 20
        E 5 e0 00 20
        E 0 90 3f 00
        E 41 90 1e 2d
        E 15 90 24 21
        E 16 90 2a 39
        E 0 90 49 22
        E 5 90 40 2c
        E 46 90 24 00
        E 25 90 3d 22
        E 10 90 49 00
        E 6 90 1e 00
        E 0 90 2a 00
        E 81 90 3d 00
        E 26 90 3d 33
        E 20 90 2a 26
        E 21 90 49 27
        E 25 90 3d 00
        E 0 90 40 00
        E 56 90 49 00
        E 31 e0 55 6a
        E 0 90 2a 00
        E 0 90 2f 34
        E 5 e0 55 6a
        E 5 e0 00 20
        E 5 e0 00 20
        E 6 e0 00 20
        E 5 e0 00 20
        E 5 e0 00 20
        E 5 e0 00 20
        E 5 e0 00 20
        E 5 e0 00 20
        E 5 e0 00 20
        E 6 e0 00 20
        E 5 e0 00 20
        E 5 e0 00 20
        E 5 e0 00 20
        E 5 e0 00 20
        E 5 e0 00 20
        E 5 e0 00 20
        E 5 e0 00 20
        E 6 e0 00 20
        E 5 e0 00 20
        E 5 e0 2b 15
        E 5 e0 2b 15
        E 5 e0 2b 15
        E 5 e0 2b 15
        E 5 e0 00 20
        E 0 90 2f 00
        E 97 90 3b 31
        E 0 90 47 2d
        E 6 90 4e 26
        E 81 90 3b 00
        E 0 90 4e 00
        E 5 90 3b 25
        E 5 90 47 00
        E 62 90 47 22
        E 10 90 3b 00
        E 0 90 3b 23
        E 66 90 3d 28
        E 11 90 47 00
        E 10 90 3b 00
        E 46 90 3d 00
        E 15 90 1c 36
        E 15 90 2b 23
        E 6 90 2f 33
        E 5 90 28 2b
        E 0 90 47 21
        E 10 90 3e 31
        E 31 90 1c 00
        E 15 90 2f 00
        E 5 90 2b 00
        E 15 90 3e 00
        E 67 90 28 00
        E 0 90 47 00
        E 158 90 3b 20
        E 0 90 47 1a
        E 5 90 2f 25
        E 36 90 3e 3c
        E 25 90 2f 00
        E 32 90 47 00
        E 5 90 3b 00
        E 5 90 3e 00
        E 46 90 25 21
        E 5 90 31 29
        E 5 90 34 26
        E 0 90 3b 25
        E 21 90 44 20
        E 86 90 28 27
        E 5 90 25 00
        E 0 90 25 22
        E 11 90 31 00
        E 0 90 31 26
        E 0 90 3b 00
        E 5 90 3b 23
        E 5 90 44 00
        E 0 90 44 1a
        E 97 90 25 00
        E 0 90 25 2b
        E 5 90 44 00
        E 0 90 44 3b
        E 5 90 31 00
        E 0 90 31 30
        E 0 90 3b 00
        E 0 90 3b 34
        E 5 90 28 00
        E 57 90 44 00
        E 5 90 25 00
        E 0 90 34 00
        E 0 90 3b 00
        E 5 90 31 00
        E 163 90 2f 32
        E 67 90 23 15
        E 61 90 23 00
        E 10 90 2f 00
        E 670 90 3e 23
        E 97 90 2c 26
        E 5 90 32 21
        E 15 90 38 25
        E 0 90 3e 00
        E 0 90 3e 28
        E 97 90 28 16
        E 21 90 38 00
        E 0 90 38 23
        E 15 90 3e 00
        E 77 90 25 19
        E 10 90 32 00
        E 0 90 32 32
        E 10 90 38 00
        E 0 90 38 32
        E 0 90 3e 2b
        E 10 90 2c 00
        E 36 90 25 00
        E 0 90 28 00
        E 6 90 32 00
        E 5 90 38 00
        E 0 90 3e 00
        E 511 90 31 2b
        E 10 90 49 2c
        E 61 90 31 00
        E 16 90 49 00
        E 30 90 42 23
        E 11 90 36 2a
        E 0 90 3e 2b
        E 117 90 3e 00
        E 0 90 3e 1e
        E 5 90 42 00
        E 5 90 36 00
        E 103 90 45 26
        E 5 90 3e 00
        E 123 90 45 00
        E 434 90 2f 1b
        E 5 90 3e 38
        E 66 90 2a 18
        E 6 90 3e 00
        E 46 90 2f 00
        E 0 90 38 2c
        E 0 90 3d 2e
        E 5 90 40 2c
        E 0 90 42 19
        E 0 90 44 36
        E 5 90 2a 00
        E 5 90 49 2f
        E 0 90 55 25
        E 56 90 42 00
        E 5 90 40 00
        E 0 90 55 00
        E 5 90 44 00
        E 5 90 49 00
        E 11 90 4c 26
        E 25 90 3d 00
        E 21 90 44 1d
        E 20 90 38 00
        E 41 90 44 00
        E 118 90 4c 00
        E 25 90 48 2f
        E 57 90 3f 24
        E 15 90 48 00
        E 36 90 3b 21
        E 20 90 3f 00
        E 61 90 3b 00
        E 404 e0 00 00
        E 0 90 2d 35
        E 5 e0 55 0a
        E 5 e0 55 0a
        E 5 e0 55 6a
        E 6 e0 55 6a
        E 5 e0 55 6a
        E 5 e0 55 6a
        E 5 e0 55 6a
        E 5 e0 2b 75
        E 5 e0 2b 75
        E 5 e0 2b 75
        E 5 e0 55 6a
        E 6 e0 2b 15
        E 5 e0 2b 15
        E 5 e0 2b 15
        E 5 e0 2b 15
        E 5 e0 2b 15
        E 5 e0 2b 15
        E 5 e0 2b 75
        E 5 e0 2b 75
        E 6 e0 55 6a
        E 5 e0 55 6a
        E 5 e0 55 6a
        E 5 e0 55 6a
        E 5 e0 55 6a
        E 5 e0 55 6a
        E 5 e0 55 6a
        E 6 e0 55 6a
        E 0 90 2d 00
        E 97 90 49 1d
        E 86 90 42 35
        E 26 90 49 00
        E 41 90 42 00
        E 194 e0 2b 15
        E 0 90 34 30
        E 5 e0 2b 15
        E 6 e0 2b 15
        E 5 e0 2b 15
        E 6 e0 2b 15
        E 5 e0 2b 15
        E 5 e0 2b 15
        E 6 e0 2b 15
        E 5 e0 2b 15
        E 5 e0 00 20
        E 6 e0 00 20
        E 5 e0 00 20
        E 6 e0 00 20
        E 5 e0 00 20
        E 5 e0 00 20
        E 6 e0 00 20
        E 5 e0 00 20
        E 6 e0 00 20
        E 5 e0 00 20
        E 0 90 34 00
        E 363 90 49 2e
        E 5 90 40 29
        E 82 90 40 00
        E 0 90 49 00
        E 118 90 2b 2f
        E 15 90 43 34
        E 51 90 2b 00
        E 15 90 43 00
        E 46 90 2a 1e
        E 0 90 42 26
        E 57 90 36 22
        E 10 90 2a 00
        E 51 90 42 00
        E 15 90 36 00
        E 123 90 3d 26
        E 0 90 40 2c
        E 87 90 3d 00
        E 0 90 40 00
        E 117 90 2d 23
        E 251 90 3c 3d
        E 41 90 2d 00
        E 20 90 3c 00
        E 619 e0 00 60
        E 0 90 2d 38
        E 6 e0 00 60
        E 5 e0 00 60
        E 6 e0 2b 15
        E 5 e0 2b 15
        E 6 e0 2b 15
        E 5 e0 2b 15
        E 6 e0 00 20
        E 6 e0 2b 15
        E 5 e0 2b 15
        E 6 e0 2b 15
        E 5 e0 2b 75
        E 0 90 2d 00
        E 394 90 28 29
        E 112 90 3b 2a
        E 5 90 28 00
        E 72 90 3b 00
        E 51 90 24 2b
        E 0 90 30 2b
        E 5 90 3e 2a
        E 5 90 33 2c
        E 0 90 3a 27
        E 51 90 24 00
        E 5 90 30 00
        E 93 90 33 00
        E 0 90 3e 00
        E 30 90 3a 00
        E 46 90 3d 25
        E 16 90 39 2d
        E 91 90 39 00
        E 113 90 45 2e
        E 25 90 3d 00
        E 36 90 45 00
        E 87 e0 55 6a
        E 0 90 45 2b
        E 5 e0 55 6a
        E 6 e0 55 6a
        E 5 e0 00 20
        E 6 e0 00 20
        E 5 e0 00 20
        E 6 e0 00 20
        E 5 e0 00 20
        E 6 e0 00 20
        E 5 e0 00 20
        E 6 e0 00 20
        E 5 e0 00 20
        E 5 e0 2b 15
        E 6 e0 2b 15
        E 5 e0 55 6a
        E 6 e0 55 6a
        E 0 90 45 00
        E 342 90 2b 28
        E 11 90 3f 3b
        E 5 90 46 24
        E 41 90 2b 00
        E 20 90 46 00
        E 16 90 3f 00
        E 40 90 32 28
        E 6 90 38 2b
        E 0 90 40 22
        E 112 90 32 00
        E 0 90 32 2a
        E 15 90 40 00
        E 10 90 38 00
        E 82 90 2c 34
        E 15 90 32 00
        E 0 90 32 3e
        E 46 90 2c 00
        E 41 90 32 00
        E 716 90 4a 20
        E 5 90 3e 2e
        E 102 90 2a 22
        E 5 90 26 1c
        E 11 90 45 2e
        E 5 90 39 27
        E 0 90 42 2b
        E 5 90 4a 00
        E 5 90 3e 00
        E 46 90 45 00
        E 46 90 26 00
        E 0 90 45 34
        E 5 90 49 2d
        E 5 90 3d 35
        E 5 90 2a 00
        E 5 90 42 00
        E 67 90 49 00
        E 10 90 3d 00
        E 0 90 45 00
        E 5 90 39 00
        E 143 e0 2b 75
        E 0 90 42 2b
        E 6 e0 2b 75
        E 5 e0 2b 15
        E 6 e0 00 20
        E 5 e0 00 20
        E 5 e0 00 20
        E 6 e0 2b 15
        E 5 e0 2b 15
        E 6 e0 2b 15
        E 5 e0 2b 15
        E 6 e0 2b 15
        E 5 e0 2b 15
        E 6 e0 2b 15
        E 5 e0 00 20
        E 5 e0 00 20
        E 6 e0 00 20
        E 0 90 42 00
        E 123 90 2a 1b
        E 20 90 3e 24
        E 103 90 38 2c
        E 10 90 2a 00
        E 0 90 3d 26
        E 0 90 3e 00
        E 5 90 40 2a
        E 0 90 44 21
        E 0 90 49 21
        E 61 90 3d 00
        E 11 90 40 00
        E 61 90 49 00
        E 5 90 4c 20
        E 15 90 44 00
        E 87 90 40 26
        E 26 90 53 17
        E 40 90 40 00
        E 21 90 40 2d
        E 20 90 53 00
        E 36 90 4c 00
        E 5 90 38 00
        E 0 90 40 00
        E 56 90 42 25
        E 6 90 36 25
        E 0 90 4a 33
        E 5 90 47 2b
        E 61 90 4a 00
        E 56 90 42 00
        E 10 90 36 00
        E 0 90 47 00
        E 323 e0 00 20
        E 0 90 34 49
        E 5 e0 00 20
        E 6 e0 00 20
        E 5 e0 00 20
        E 6 e0 00 20
        E 6 e0 00 20
        E 5 e0 00 20
        E 6 e0 00 20
        E 5 e0 00 20
        E 6 e0 00 20
        E 5 e0 00 20
        E 6 e0 00 20
        E 0 90 34 00
        E 281 90 21 30
        E 26 90 3d 2a
        E 5 90 2d 3d
        E 66 90 2d 00
        E 0 90 3d 00
        E 72 90 21 00
        E 30 e0 00 20
        E 0 90 31 2b
        E 5 e0 00 20
        E 6 e0 00 20
        E 5 e0 00 20
        E 5 e0 00 20
        E 5 e0 00 20
        E 5 e0 00 20
        E 5 e0 00 20
        E 5 e0 00 20
        E 6 e0 00 20
        E 5 e0 00 20
        E 5 e0 00 20
        E 5 e0 00 20
        E 5 e0 00 20
        E 0 90 31 00
        E 312 90 26 2d
        E 20 90 3c 24
        E 108 90 42 36
        E 25 90 3c 00
        E 5 90 26 00
        E 36 90 42 00
        E 158 90 1f 2a
        E 26 90 2b 2c
        E 230 90 1f 00
        E 16 90 2b 00
        E 86 e0 55 6a
        E 0 90 41 26
        E 6 e0 55 6a
        E 5 e0 00 60
        E 5 e0 00 20
        E 6 e0 00 20
        E 5 e0 00 20
        E 5 e0 00 20
        E 6 e0 00 20
        E 5 e0 00 20
        E 5 e0 00 20
        E 5 e0 00 20
        E 6 e0 00 20
        E 5 e0 00 20
        E 5 e0 00 20
        E 6 e0 00 20
        E 5 e0 00 20
        E 5 e0 00 20
        E 6 e0 00 20
        E 5 e0 00 20
        E 5 e0 00 20
        E 6 e0 00 20
        E 5 e0 00 20
        E 5 e0 00 20
        E 5 e0 00 20
        E 6 e0 00 20
        E 5 e0 00 20
        E 5 e0 00 20
        E 0 90 41 00
        E 87 90 39 39
        E 16 90 2f 1e
        E 10 90 3d 29
        E 41 90 39 00
        E 71 90 39 22
        E 21 90 3d 00
        E 97 90 39 00
        E 0 90 39 27
        E 15 90 2f 00
        E 51 90 23 1f
        E 15 90 39 00
        E 46 90 23 00
        E 445 90 3d 3b
        E 0 90 49 33
        E 0 90 52 2f
        E 11 90 37 27
        E 51 90 3d 00
        E 0 90 52 00
        E 15 90 49 00
        E 20 90 32 1e
        E 16 90 37 00
        E 0 90 38 3f
        E 5 90 3e 41
        E 0 90 47 3c
        E 46 90 32 00
        E 15 90 47 00
        E 10 90 38 00
        E 0 90 3e 00
        E 36 90 3a 47
        E 5 90 4f 34
        E 10 90 43 37
        E 46 90 3a 00
        E 6 90 4f 00
        E 20 90 43 00
        E 25 90 44 4d
        E 0 90 4a 45
        E 16 90 3b 2e
        E 46 90 4a 00
        E 5 90 44 00
        E 46 90 32 35
        E 15 90 3b 00
        E 0 90 3b 2e
        E 0 90 3e 3c
        E 0 90 4a 36
        E 5 90 4e 38
        E 0 90 53 2d
        E 57 90 32 00
        E 5 90 53 00
        E 5 90 3b 00
        E 5 90 3e 00
        E 0 90 4a 00
        E 16 90 4e 00
        E 10 90 3e 2a
        E 20 90 43 2d
        E 128 90 3e 00
        E 66 90 43 00
        E 9 b0 7b 00
        CCINTERP 32
        CHASE_CC_TAKEOFFS 1
        GUID {3A60FB3E-2119-4114-9FB5-371AFE116657}
        IGNTEMPO 0 120 4 4
        SRCCOLOR 156
        VELLANE -1 100 0
      >
    >
  >
  <UINF 108
    <ITEM {5AE45FA8-D06D-4333-986C-CE76F8A7003D}
      POSITION 0
      SNAPOFFS 0
      LENGTH 45.5
      LOOP 1
      ALLTAKES 0
      FADEIN 1 0 0 1 0 0 0
      FADEOUT 1 0 0 1 0 0 0
      MUTE 0 0
      SEL 1
      IGUID {5AE45FA8-D06D-4333-986C-CE76F8A7003D}
      IID 68
      NAME wii_music_basic_pitch.mid
      VOLPAN 1 0 1 -1
      SOFFS 0 0
      PLAYRATE 1 1 0 -1 0 0.0025
      CHANMODE 0
      GUID {DF56613E-7033-4AA9-A0AB-0B3B8D4BD71D}
      <SOURCE MIDI
        HASDATA 1 220 QN
        CCINTERP 32
        POOLEDEVTS {59E62224-57A1-41D1-A131-B2531D1DEDB7}
        E 0 c0 04 00
        E 19322 e0 55 4a
        E 0 90 3c 11
        E 6 e0 2b 55
        E 5 e0 00 60
        E 6 e0 00 60
        E 5 e0 00 60
        E 6 e0 2b 55
        E 6 e0 2b 55
        E 5 e0 2b 55
        E 6 e0 2b 55
        E 5 e0 2b 55
        E 6 e0 2b 55
        E 5 e0 2b 55
        E 0 90 3c 00
        E 532 e0 2b 35
        E 0 90 3c 1c
        E 5 e0 55 2a
        E 6 e0 55 2a
        E 5 e0 55 2a
        E 6 e0 55 2a
        E 5 e0 55 2a
        E 6 e0 00 20
        E 5 e0 00 20
        E 6 e0 00 20
        E 5 e0 00 20
        E 6 e0 00 20
        E 5 e0 00 20
        E 6 e0 00 20
        E 5 e0 55 2a
        E 0 90 3c 00
        E 34 b0 7b 00
        CCINTERP 32
        CHASE_CC_TAKEOFFS 1
        GUID {D626DBA8-812D-47C2-806C-E0AAA33DA9BB}
        IGNTEMPO 0 120 4 4
        SRCCOLOR 118
        VELLANE -1 100 0
      >
    >
  >
  <UINF 109
    <ITEM {02E441AB-56D0-45AB-A3B0-5E55606885F7}
      POSITION 0
      SNAPOFFS 0
      LENGTH 86
      LOOP 1
      ALLTAKES 0
      FADEIN 1 0 0 1 0 0 0
      FADEOUT 1 0 0 1 0 0 0
      MUTE 0 0
      SEL 1
      IGUID {02E441AB-56D0-45AB-A3B0-5E55606885F7}
      IID 17
      NAME wii_music_basic_pitch.mid
      VOLPAN 1 0 1 -1
      SOFFS 0 0
      PLAYRATE 1 1 0 -1 0 0.0025
      CHANMODE 0
      GUID {CDAFB8D3-260D-459D-960A-2CA217EAFF7C}
      <SOURCE MIDI
        HASDATA 1 220 QN
        CCINTERP 32
        POOLEDEVTS {379CF912-1A02-48A2-A6E3-67C2EC7E4A9E}
        E 0 c0 04 00
        E 1150 90 38 19
        E 0 90 3e 15
        E 123 90 38 00
        E 0 90 3e 00
        E 562 e0 00 40
        E 0 90 35 35
        E 6 e0 00 40
        E 5 e0 55 2a
        E 6 e0 55 2a
        E 5 e0 2b 35
        E 6 e0 2b 35
        E 5 e0 55 2a
        E 6 e0 55 2a
        E 6 e0 00 20
        E 5 e0 00 20
        E 6 e0 00 20
        E 5 e0 00 20
        E 0 90 35 00
        E 51 e0 55 4a
        E 0 90 36 40
        E 6 e0 2b 35
        E 6 e0 55 2a
        E 5 e0 55 2a
        E 6 e0 2b 35
        E 5 e0 2b 35
        E 6 e0 55 2a
        E 5 e0 55 2a
        E 6 e0 55 2a
        E 6 e0 00 20
        E 5 e0 00 20
        E 6 e0 00 20
        E 0 90 36 00
        E 859 90 38 29
        E 10 90 3d 1b
        E 0 90 49 31
        E 66 90 49 00
        E 51 90 3d 00
        E 41 90 38 00
        E 194 90 48 31
        E 5 90 37 4b
        E 26 90 4b 20
        E 36 90 48 00
        E 5 90 37 00
        E 46 90 4b 00
        E 445 e0 00 40
        E 0 90 2d 34
        E 5 e0 00 40
        E 6 e0 00 40
        E 5 e0 00 20
        E 6 e0 55 2a
        E 6 e0 2b 35
        E 5 e0 2b 35
        E 6 e0 55 2a
        E 5 e0 00 20
        E 6 e0 00 20
        E 5 e0 00 20
        E 6 e0 55 2a
        E 0 90 2d 00
        E 199 e0 55 2a
        E 0 90 49 1d
        E 6 e0 55 2a
        E 5 e0 2b 35
        E 6 e0 2b 35
        E 5 e0 55 2a
        E 5 e0 00 20
        E 6 e0 2b 75
        E 5 e0 2b 75
        E 6 e0 55 2a
        E 5 e0 55 2a
        E 6 e0 55 2a
        E 5 e0 00 20
        E 6 e0 55 4a
        E 5 e0 55 4a
        E 5 e0 55 4a
        E 6 e0 55 2a
        E 0 90 49 00
        E 491 e0 55 2a
        E 0 90 44 11
        E 5 e0 2b 35
        E 6 e0 00 40
        E 5 e0 00 40
        E 6 e0 00 40
        E 5 e0 2b 35
        E 6 e0 00 20
        E 5 e0 00 20
        E 6 e0 00 20
        E 5 e0 00 20
        E 6 e0 55 2a
        E 5 e0 55 2a
        E 6 e0 00 20
        E 5 e0 00 20
        E 0 90 44 00
        E 169 90 40 22
        E 0 90 49 24
        E 82 90 40 00
        E 5 90 49 00
        E 112 90 2b 20
        E 10 90 37 48
        E 72 90 2b 00
        E 0 90 37 00
        E 46 e0 00 40
        E 0 90 36 30
        E 5 e0 00 40
        E 5 e0 2b 15
        E 5 e0 00 20
        E 5 e0 55 2a
        E 6 e0 55 2a
        E 5 e0 55 2a
        E 5 e0 55 2a
        E 5 e0 55 2a
        E 5 e0 00 20
        E 5 e0 00 20
        E 5 e0 00 20
        E 6 e0 00 20
        E 5 e0 00 20
        E 5 e0 00 20
        E 5 e0 00 20
        E 5 e0 00 20
        E 5 e0 00 20
        E 5 e0 55 2a
        E 5 e0 55 2a
        E 6 e0 55 2a
        E 5 e0 00 20
        E 5 e0 00 20
        E 5 e0 00 20
        E 5 e0 55 2a
        E 0 90 36 00
        E 123 e0 55 2a
        E 0 90 40 23
        E 5 e0 2b 35
        E 6 e0 2b 35
        E 5 e0 2b 35
        E 5 e0 55 2a
        E 6 e0 55 2a
        E 5 e0 00 20
        E 6 e0 00 20
        E 5 e0 00 20
        E 5 e0 00 20
        E 6 e0 00 20
        E 5 e0 00 20
        E 6 e0 55 4a
        E 5 e0 2b 15
        E 5 e0 2b 15
        E 6 e0 2b 15
        E 5 e0 55 2a
        E 6 e0 55 2a
        E 0 90 40 00
        E 1763 e0 55 2a
        E 0 90 3e 1f
        E 6 e0 2b 35
        E 5 e0 2b 35
        E 6 e0 2b 35
        E 5 e0 55 2a
        E 6 e0 55 2a
        E 5 e0 55 2a
        E 6 e0 55 2a
        E 5 e0 00 20
        E 6 e0 55 6a
        E 6 e0 55 6a
        E 5 e0 00 20
        E 6 e0 00 20
        E 0 90 3e 00
        E 178 e0 2b 35
        E 0 90 3d 2f
        E 6 e0 55 2a
        E 5 e0 55 2a
        E 6 e0 55 2a
        E 5 e0 55 2a
        E 6 e0 55 2a
        E 5 e0 00 20
        E 6 e0 00 20
        E 5 e0 00 20
        E 5 e0 00 20
        E 6 e0 00 20
        E 5 e0 00 20
        E 6 e0 00 20
        E 5 e0 55 2a
        E 6 e0 55 2a
        E 5 e0 55 2a
        E 0 90 3d 00
        E 1871 e0 2b 35
        E 0 90 3e 26
        E 5 e0 2b 35
        E 6 e0 2b 35
        E 5 e0 55 2a
        E 6 e0 00 20
        E 5 e0 00 20
        E 6 e0 00 20
        E 5 e0 00 20
        E 6 e0 00 20
        E 5 e0 00 20
        E 6 e0 55 6a
        E 5 e0 55 6a
        E 6 e0 00 20
        E 5 e0 00 20
        E 6 e0 00 20
        E 0 90 3e 00
        E 25 90 39 24
        E 10 90 42 34
        E 57 90 42 00
        E 66 90 39 00
        E 557 e0 2b 15
        E 0 90 38 32
        E 6 e0 2b 15
        E 5 e0 2b 15
        E 6 e0 2b 35
        E 5 e0 00 40
        E 6 e0 00 40
        E 5 e0 00 40
        E 6 e0 55 2a
        E 6 e0 55 2a
        E 5 e0 55 2a
        E 6 e0 00 20
        E 5 e0 00 20
        E 6 e0 55 2a
        E 0 90 38 00
        E 976 e0 00 00
        E 0 90 43 2f
        E 5 e0 00 00
        E 5 e0 2b 35
        E 5 e0 55 2a
        E 6 e0 2b 35
        E 5 e0 2b 35
        E 5 e0 55 2a
        E 5 e0 00 20
        E 5 e0 00 20
        E 5 e0 00 20
        E 5 e0 00 20
        E 6 e0 55 4a
        E 5 e0 00 20
        E 5 e0 55 2a
        E 0 90 43 00
        E 638 e0 55 4a
        E 0 90 3d 18
        E 6 e0 2b 35
        E 6 e0 2b 35
        E 5 e0 2b 35
        E 6 e0 55 2a
        E 5 e0 55 2a
        E 6 e0 55 2a
        E 6 e0 00 20
        E 5 e0 00 20
        E 6 e0 00 20
        E 5 e0 00 20
        E 6 e0 55 2a
        E 0 90 3d 00
        E 399 e0 55 2a
        E 0 90 2b 2f
        E 5 e0 55 2a
        E 6 e0 2b 35
        E 5 e0 55 2a
        E 6 e0 55 2a
        E 5 e0 00 20
        E 5 e0 00 20
        E 6 e0 00 20
        E 5 e0 00 20
        E 6 e0 55 2a
        E 5 e0 55 2a
        E 6 e0 55 2a
        E 5 e0 55 2a
        E 5 e0 55 2a
        E 6 e0 55 2a
        E 5 e0 00 20
        E 6 e0 00 20
        E 0 90 2b 00
        E 265 e0 55 2a
        E 0 90 3e 23
        E 6 e0 2b 35
        E 5 e0 2b 35
        E 6 e0 55 2a
        E 6 e0 00 20
        E 5 e0 00 20
        E 6 e0 00 20
        E 5 e0 55 2a
        E 6 e0 55 2a
        E 5 e0 55 2a
        E 6 e0 55 2a
        E 6 e0 55 2a
        E 0 90 3e 00
        E 1201 e0 55 2a
        E 0 90 3a 47
        E 6 e0 00 20
        E 5 e0 00 20
        E 6 e0 00 20
        E 5 e0 55 2a
        E 6 e0 55 2a
        E 5 e0 55 2a
        E 6 e0 55 2a
        E 5 e0 55 2a
        E 6 e0 00 20
        E 6 e0 00 20
        E 5 e0 00 20
        E 6 e0 55 2a
        E 0 90 3a 00
        E 281 e0 2b 15
        E 0 90 43 3d
        E 5 e0 2b 15
        E 6 e0 2b 15
        E 5 e0 55 2a
        E 5 e0 55 2a
        E 6 e0 55 2a
        E 5 e0 55 2a
        E 6 e0 00 20
        E 5 e0 00 20
        E 6 e0 2b 15
        E 5 e0 2b 15
        E 6 e0 00 20
        E 5 e0 00 20
        E 6 e0 55 2a
        E 5 e0 00 20
        E 0 90 43 00
        E 1094 e0 00 20
        E 0 90 46 29
        E 5 e0 55 2a
        E 6 e0 55 2a
        E 5 e0 55 2a
        E 6 e0 55 2a
        E 5 e0 55 2a
        E 6 e0 55 2a
        E 5 e0 55 2a
        E 6 e0 00 20
        E 5 e0 00 20
        E 6 e0 55 6a
        E 5 e0 55 6a
        E 6 e0 55 6a
        E 5 e0 55 6a
        E 0 90 46 00
        E 154 e0 2b 35
        E 0 90 3b 2e
        E 6 e0 2b 35
        E 5 e0 2b 35
        E 5 e0 55 2a
        E 5 e0 55 2a
        E 6 e0 55 2a
        E 5 e0 00 20
        E 5 e0 00 20
        E 6 e0 00 20
        E 5 e0 00 20
        E 5 e0 00 20
        E 5 e0 00 20
        E 6 e0 55 2a
        E 5 e0 55 2a
        E 5 e0 55 2a
        E 5 e0 55 2a
        E 6 e0 55 2a
        E 5 e0 00 20
        E 5 e0 00 20
        E 6 e0 00 20
        E 5 e0 00 20
        E 5 e0 00 20
        E 5 e0 00 20
        E 6 e0 00 20
        E 5 e0 00 20
        E 5 e0 00 20
        E 6 e0 00 20
        E 5 e0 55 2a
        E 5 e0 55 2a
        E 5 e0 55 2a
        E 6 e0 55 2a
        E 0 90 3b 00
        E 194 e0 2b 15
        E 0 90 3e 21
        E 5 e0 55 2a
        E 6 e0 2b 35
        E 5 e0 2b 35
        E 6 e0 55 2a
        E 5 e0 55 2a
        E 6 e0 00 20
        E 6 e0 00 20
        E 5 e0 55 2a
        E 6 e0 55 2a
        E 5 e0 55 2a
        E 6 e0 55 2a
        E 5 e0 55 2a
        E 0 90 3e 00
        E 51 90 3b 20
        E 148 90 2f 22
        E 62 90 2f 00
        E 0 90 3b 00
        E 715 e0 55 6a
        E 0 90 3b 22
        E 6 e0 55 2a
        E 5 e0 55 2a
        E 6 e0 2b 35
        E 5 e0 55 2a
        E 6 e0 55 2a
        E 5 e0 55 2a
        E 6 e0 55 2a
        E 5 e0 00 20
        E 6 e0 00 20
        E 5 e0 2b 15
        E 6 e0 55 6a
        E 5 e0 00 60
        E 6 e0 55 6a
        E 0 90 3b 00
        E 66 e0 00 20
        E 0 90 42 21
        E 5 e0 55 2a
        E 6 e0 55 2a
        E 5 e0 55 2a
        E 5 e0 55 2a
        E 5 e0 55 2a
        E 5 e0 55 2a
        E 5 e0 00 20
        E 5 e0 00 20
        E 6 e0 55 2a
        E 5 e0 55 2a
        E 5 e0 55 2a
        E 5 e0 00 20
        E 5 e0 00 20
        E 5 e0 00 20
        E 5 e0 00 20
        E 5 e0 00 20
        E 6 e0 00 20
        E 5 e0 55 2a
        E 5 e0 55 2a
        E 5 e0 55 2a
        E 5 e0 55 2a
        E 5 e0 2b 35
        E 5 e0 2b 35
        E 5 e0 2b 35
        E 6 e0 55 2a
        E 5 e0 00 20
        E 5 e0 00 20
        E 5 e0 00 20
        E 5 e0 00 20
        E 5 e0 00 20
        E 5 e0 00 20
        E 0 90 42 00
        E 148 90 32 21
        E 16 90 3b 20
        E 51 90 32 00
        E 97 90 3b 00
        E 312 e0 55 4a
        E 0 90 3b 27
        E 5 e0 55 4a
        E 5 e0 55 2a
        E 5 e0 55 2a
        E 6 e0 55 2a
        E 5 e0 55 2a
        E 5 e0 55 2a
        E 6 e0 00 20
        E 5 e0 00 20
        E 5 e0 00 20
        E 6 e0 00 20
        E 5 e0 00 20
        E 5 e0 00 20
        E 5 e0 2b 75
        E 6 e0 2b 75
        E 5 e0 55 2a
        E 5 e0 55 2a
        E 6 e0 55 2a
        E 5 e0 55 2a
        E 5 e0 55 2a
        E 6 e0 00 20
        E 5 e0 00 20
        E 5 e0 55 6a
        E 6 e0 55 6a
        E 5 e0 55 2a
        E 5 e0 55 2a
        E 5 e0 55 2a
        E 0 90 3b 00
        E 798 e0 55 2a
        E 0 90 3b 2d
        E 5 e0 55 2a
        E 5 e0 2b 35
        E 5 e0 2b 35
        E 5 e0 55 2a
        E 6 e0 55 2a
        E 5 e0 55 2a
        E 5 e0 00 20
        E 5 e0 00 20
        E 5 e0 00 20
        E 5 e0 00 20
        E 5 e0 00 20
        E 5 e0 00 20
        E 6 e0 55 2a
        E 5 e0 55 2a
        E 5 e0 55 2a
        E 5 e0 00 20
        E 5 e0 00 20
        E 5 e0 00 20
        E 5 e0 00 20
        E 6 e0 00 20
        E 5 e0 00 20
        E 5 e0 55 6a
        E 5 e0 2b 15
        E 5 e0 00 20
        E 5 e0 55 2a
        E 5 e0 55 2a
        E 5 e0 55 2a
        E 0 90 3b 00
        E 87 90 3c 27
        E 0 90 48 23
        E 67 90 48 00
        E 81 90 3c 00
        E 67 90 2c 20
        E 20 90 3d 2b
        E 46 90 2c 00
        E 143 90 3d 00
        E 164 e0 2b 35
        E 0 90 3c 2d
        E 5 e0 2b 35
        E 6 e0 55 2a
        E 5 e0 00 20
        E 6 e0 00 20
        E 6 e0 00 20
        E 5 e0 00 20
        E 6 e0 00 20
        E 5 e0 00 20
        E 6 e0 00 20
        E 5 e0 00 20
        E 6 e0 00 20
        E 0 90 3c 00
        E 36 e0 2b 55
        E 0 90 3d 50
        E 5 e0 2b 55
        E 6 e0 2b 75
        E 5 e0 00 20
        E 6 e0 55 2a
        E 6 e0 55 2a
        E 5 e0 55 2a
        E 6 e0 00 20
        E 5 e0 00 20
        E 6 e0 00 20
        E 6 e0 00 20
        E 5 e0 00 20
        E 0 90 3d 00
        E 103 e0 00 20
        E 0 90 3d 21
        E 5 e0 00 20
        E 6 e0 00 20
        E 5 e0 55 2a
        E 6 e0 55 2a
        E 5 e0 55 2a
        E 6 e0 55 2a
        E 5 e0 55 2a
        E 5 e0 55 2a
        E 6 e0 55 2a
        E 5 e0 00 20
        E 6 e0 00 20
        E 5 e0 00 20
        E 6 e0 2b 15
        E 5 e0 2b 15
        E 6 e0 00 20
        E 0 90 3d 00
        E 224 90 2a 24
        E 118 90 49 23
        E 71 90 49 00
        E 5 90 2a 00
        E 149 e0 00 20
        E 0 90 3c 36
        E 5 e0 00 20
        E 6 e0 00 20
        E 5 e0 55 2a
        E 6 e0 55 2a
        E 5 e0 55 2a
        E 6 e0 00 20
        E 5 e0 00 20
        E 6 e0 00 20
        E 5 e0 00 20
        E 6 e0 00 20
        E 5 e0 00 20
        E 6 e0 00 20
        E 0 90 3c 00
        E 56 90 3d 3c
        E 0 90 49 25
        E 57 90 3d 00
        E 0 90 49 00
        E 388 90 2a 2e
        E 21 90 3d 27
        E 86 90 2a 00
        E 169 90 3d 00
        E 404 e0 55 6a
        E 0 90 3b 22
        E 6 e0 00 20
        E 5 e0 00 20
        E 5 e0 00 20
        E 6 e0 55 2a
        E 5 e0 55 2a
        E 6 e0 55 2a
        E 5 e0 55 2a
        E 6 e0 55 2a
        E 5 e0 55 2a
        E 5 e0 55 2a
        E 6 e0 00 20
        E 5 e0 2b 15
        E 6 e0 55 6a
        E 5 e0 55 6a
        E 6 e0 00 20
        E 5 e0 00 20
        E 0 90 3b 00
        E 138 e0 2b 15
        E 0 90 28 1e
        E 5 e0 2b 15
        E 6 e0 00 20
        E 5 e0 2b 15
        E 6 e0 2b 15
        E 5 e0 00 60
        E 5 e0 55 2a
        E 6 e0 55 2a
        E 5 e0 55 2a
        E 6 e0 2b 35
        E 5 e0 55 2a
        E 6 e0 55 2a
        E 5 e0 55 2a
        E 5 e0 55 2a
        E 6 e0 55 2a
        E 5 e0 55 2a
        E 6 e0 55 2a
        E 0 90 28 00
        E 2612 e0 00 40
        E 0 90 35 33
        E 5 e0 2b 35
        E 6 e0 55 2a
        E 6 e0 55 2a
        E 5 e0 2b 35
        E 6 e0 2b 35
        E 5 e0 55 2a
        E 6 e0 00 20
        E 5 e0 00 20
        E 6 e0 00 20
        E 6 e0 00 20
        E 5 e0 00 20
        E 0 90 35 00
        E 976 90 38 29
        E 6 90 3d 24
        E 0 90 49 2e
        E 61 90 3d 00
        E 5 90 49 00
        E 36 90 4c 18
        E 56 90 38 00
        E 25 90 4c 00
        E 164 e0 00 40
        E 0 90 48 2a
        E 6 e0 55 0a
        E 6 e0 00 20
        E 5 e0 55 2a
        E 6 e0 55 2a
        E 5 e0 55 2a
        E 6 e0 55 2a
        E 5 e0 55 2a
        E 6 e0 00 20
        E 6 e0 00 20
        E 5 e0 00 20
        E 6 e0 55 2a
        E 0 90 48 00
        E 46 e0 00 20
        E 0 90 36 3a
        E 5 e0 00 20
        E 6 e0 00 20
        E 5 e0 00 20
        E 6 e0 00 20
        E 6 e0 55 2a
        E 5 e0 55 2a
        E 6 e0 55 2a
        E 5 e0 55 2a
        E 6 e0 55 2a
        E 5 e0 55 2a
        E 6 e0 55 2a
        E 0 90 36 00
        E 654 e0 55 2a
        E 0 90 49 1e
        E 6 e0 55 2a
        E 5 e0 2b 35
        E 6 e0 55 2a
        E 5 e0 55 2a
        E 6 e0 55 2a
        E 5 e0 55 2a
        E 6 e0 55 2a
        E 5 e0 55 2a
        E 6 e0 55 2a
        E 5 e0 55 4a
        E 5 e0 55 4a
        E 6 e0 55 4a
        E 5 e0 55 4a
        E 6 e0 55 0a
        E 5 e0 2b 15
        E 0 90 49 00
        E 726 90 40 25
        E 0 90 49 29
        E 87 90 40 00
        E 5 90 49 00
        E 112 90 2b 1d
        E 6 90 37 46
        E 71 90 2b 00
        E 0 90 37 00
        E 51 e0 00 40
        E 0 90 36 34
        E 6 e0 00 40
        E 5 e0 00 20
        E 5 e0 00 20
        E 5 e0 55 2a
        E 6 e0 55 2a
        E 5 e0 55 2a
        E 5 e0 55 2a
        E 6 e0 55 2a
        E 5 e0 00 20
        E 5 e0 00 20
        E 6 e0 00 20
        E 5 e0 00 20
        E 5 e0 00 20
        E 6 e0 00 20
        E 5 e0 00 20
        E 5 e0 55 2a
        E 6 e0 55 2a
        E 5 e0 55 2a
        E 5 e0 00 20
        E 5 e0 00 20
        E 6 e0 00 20
        E 5 e0 00 20
        E 5 e0 00 20
        E 6 e0 00 20
        E 5 e0 55 2a
        E 0 90 36 00
        E 118 90 3d 1e
        E 0 90 40 22
        E 91 90 3d 00
        E 0 90 40 00
        E 1769 e0 2b 35
        E 0 90 3e 1d
        E 6 e0 2b 35
        E 5 e0 2b 35
        E 6 e0 55 2a
        E 5 e0 55 2a
        E 5 e0 55 2a
        E 6 e0 55 2a
        E 5 e0 55 2a
        E 6 e0 00 20
        E 5 e0 00 20
        E 6 e0 00 20
        E 5 e0 00 20
        E 6 e0 55 2a
        E 5 e0 55 2a
        E 6 e0 55 2a
        E 0 90 3e 00
        E 159 e0 2b 35
        E 0 90 3d 30
        E 5 e0 55 2a
        E 6 e0 55 2a
        E 5 e0 55 2a
        E 5 e0 55 2a
        E 6 e0 55 2a
        E 5 e0 00 20
        E 6 e0 00 20
        E 5 e0 00 20
        E 6 e0 00 20
        E 5 e0 00 20
        E 6 e0 00 20
        E 5 e0 00 20
        E 5 e0 00 20
        E 6 e0 00 20
        E 5 e0 55 2a
        E 0 90 3d 00
        E 256 e0 55 2a
        E 0 90 45 1d
        E 5 e0 55 2a
        E 6 e0 2b 35
        E 5 e0 55 2a
        E 6 e0 55 2a
        E 5 e0 55 2a
        E 6 e0 00 20
        E 5 e0 00 20
        E 5 e0 00 20
        E 6 e0 00 20
        E 5 e0 00 20
        E 6 e0 55 2a
        E 5 e0 55 4a
        E 6 e0 55 4a
        E 5 e0 55 4a
        E 6 e0 55 6a
        E 0 90 45 00
        E 1533 e0 55 2a
        E 0 90 3e 23
        E 6 e0 2b 35
        E 5 e0 2b 35
        E 6 e0 55 2a
        E 5 e0 00 20
        E 6 e0 00 20
        E 5 e0 00 20
        E 6 e0 00 20
        E 5 e0 55 2a
        E 5 e0 55 2a
        E 6 e0 55 2a
        E 5 e0 00 20
        E 6 e0 00 20
        E 5 e0 2b 15
        E 6 e0 2b 15
        E 0 90 3e 00
        E 25 90 39 33
        E 11 90 42 30
        E 51 90 39 00
        E 15 90 42 00
        E 271 e0 55 4a
        E 0 90 42 43
        E 5 e0 55 4a
        E 6 e0 55 4a
        E 5 e0 55 2a
        E 6 e0 2b 35
        E 6 e0 2b 35
        E 5 e0 55 2a
        E 6 e0 55 2a
        E 5 e0 55 2a
        E 6 e0 00 20
        E 5 e0 00 20
        E 6 e0 00 20
        E 0 90 42 00
        E 282 e0 2b 15
        E 0 90 38 2f
        E 5 e0 2b 15
        E 6 e0 2b 15
        E 5 e0 00 40
        E 6 e0 00 40
        E 5 e0 00 40
        E 6 e0 00 40
        E 5 e0 2b 35
        E 6 e0 55 2a
        E 5 e0 55 2a
        E 6 e0 00 20
        E 5 e0 55 2a
        E 6 e0 55 2a
        E 0 90 38 00
        E 398 e0 2b 15
        E 0 90 47 1a
        E 6 e0 2b 15
        E 5 e0 55 2a
        E 5 e0 55 2a
        E 6 e0 2b 35
        E 5 e0 00 40
        E 5 e0 2b 35
        E 6 e0 55 2a
        E 5 e0 00 20
        E 5 e0 00 20
        E 6 e0 00 20
        E 5 e0 00 20
        E 5 e0 55 2a
        E 6 e0 55 2a
        E 5 e0 55 2a
        E 5 e0 00 20
        E 6 e0 00 20
        E 5 e0 00 20
        E 5 e0 55 2a
        E 6 e0 55 2a
        E 5 e0 55 2a
        E 5 e0 55 2a
        E 5 e0 55 2a
        E 6 e0 55 4a
        E 5 e0 55 2a
        E 0 90 47 00
        E 1621 e0 2b 15
        E 0 90 2b 24
        E 5 e0 55 2a
        E 5 e0 55 2a
        E 5 e0 55 2a
        E 6 e0 55 2a
        E 5 e0 55 2a
        E 5 e0 55 2a
        E 6 e0 00 20
        E 5 e0 00 20
        E 5 e0 00 20
        E 5 e0 55 2a
        E 6 e0 55 2a
        E 5 e0 55 2a
        E 5 e0 55 2a
        E 6 e0 55 2a
        E 5 e0 00 20
        E 5 e0 00 20
        E 5 e0 00 20
        E 6 e0 00 20
        E 5 e0 00 20
        E 5 e0 55 2a
        E 5 e0 55 2a
        E 6 e0 55 2a
        E 5 e0 00 20
        E 5 e0 00 20
        E 6 e0 00 20
        E 5 e0 00 20
        E 5 e0 00 20
        E 5 e0 00 20
        E 6 e0 00 20
        E 5 e0 55 2a
        E 0 90 2b 00
        E 1457 e0 00 20
        E 0 90 3a 4b
        E 6 e0 00 20
        E 5 e0 00 20
        E 6 e0 55 2a
        E 5 e0 55 2a
        E 6 e0 55 2a
        E 5 e0 55 2a
        E 6 e0 55 2a
        E 5 e0 55 2a
        E 6 e0 55 2a
        E 5 e0 00 20
        E 6 e0 00 20
        E 5 e0 55 2a
        E 0 90 3a 00
        E 277 e0 55 6a
        E 0 90 43 3e
        E 5 e0 2b 15
        E 6 e0 2b 15
        E 5 e0 55 2a
        E 6 e0 55 2a
        E 5 e0 55 2a
        E 6 e0 55 2a
        E 5 e0 00 20
        E 6 e0 00 20
        E 5 e0 2b 15
        E 6 e0 00 20
        E 5 e0 55 2a
        E 6 e0 55 2a
        E 5 e0 55 2a
        E 0 90 43 00
        E 157 b0 7b 00
        CCINTERP 32
        CHASE_CC_TAKEOFFS 1
        GUID {D9ECFC60-FCAC-40F8-9769-CBF4F24E8E19}
        IGNTEMPO 0 120 4 4
        SRCCOLOR 25
        VELLANE -1 100 0
      >
    >
  >
  <UINF 110
    <ITEM {C448B032-8C85-4DEA-8C31-278775161D90}
      POSITION 0
      SNAPOFFS 0
      LENGTH 86.5
      LOOP 1
      ALLTAKES 0
      FADEIN 1 0 0 1 0 0 0
      FADEOUT 1 0 0 1 0 0 0
      MUTE 0 0
      SEL 1
      IGUID {C448B032-8C85-4DEA-8C31-278775161D90}
      IID 13
      NAME wii_music_basic_pitch.mid
      VOLPAN 1 0 1 -1
      SOFFS 0 0
      PLAYRATE 1 1 0 -1 0 0.0025
      CHANMODE 0
      GUID {1056C832-6CAF-430A-BD0B-604D72FF3482}
      <SOURCE MIDI
        HASDATA 1 220 QN
        CCINTERP 32
        POOLEDEVTS {A269B518-8EF8-4383-B042-459047DC5B59}
        E 0 c0 04 00
        E 112 90 3e 48
        E 5 90 2f 4d
        E 0 90 42 35
        E 159 90 42 00
        E 31 90 2f 00
        E 5 90 3e 00
        E 35 90 42 54
        E 0 90 45 4f
        E 72 90 42 00
        E 36 90 49 49
        E 5 90 45 00
        E 0 90 45 4c
        E 143 90 45 00
        E 51 90 49 00
        E 41 90 42 3f
        E 0 90 45 4a
        E 168 90 45 00
        E 62 90 3e 52
        E 0 90 42 00
        E 0 90 42 4e
        E 77 90 42 00
        E 41 90 38 42
        E 0 90 3e 00
        E 0 90 3e 4c
        E 117 90 38 00
        E 0 90 38 48
        E 0 90 3e 00
        E 0 90 3e 4b
        E 113 90 38 00
        E 0 90 38 4c
        E 0 90 3e 00
        E 0 90 3e 46
        E 81 90 38 00
        E 87 90 3e 00
        E 409 90 3d 49
        E 5 90 35 59
        E 113 90 2f 46
        E 0 90 35 00
        E 0 90 36 42
        E 0 90 3d 00
        E 0 90 3e 3e
        E 112 90 3e 00
        E 0 90 3e 55
        E 0 90 42 46
        E 36 90 36 00
        E 10 90 2f 00
        E 62 90 3e 00
        E 15 90 42 00
        E 0 90 42 4d
        E 0 90 45 4c
        E 71 90 42 00
        E 41 90 45 00
        E 0 90 45 4b
        E 0 90 49 4b
        E 138 90 45 00
        E 61 90 49 00
        E 36 90 42 3d
        E 0 90 45 49
        E 180 90 45 00
        E 46 90 3e 54
        E 0 90 42 00
        E 0 90 42 4f
        E 71 90 42 00
        E 26 90 3e 00
        E 25 90 49 56
        E 0 90 4c 54
        E 10 90 38 54
        E 72 90 4c 00
        E 0 90 4c 4b
        E 92 90 4c 00
        E 0 90 4c 4a
        E 66 90 4c 00
        E 0 90 4c 49
        E 97 90 48 4d
        E 0 90 49 00
        E 31 90 37 51
        E 0 90 38 00
        E 15 90 4b 42
        E 0 90 4c 00
        E 82 90 47 3a
        E 0 90 48 00
        E 10 90 36 3f
        E 0 90 37 00
        E 0 90 4b 00
        E 5 90 4a 3c
        E 72 90 4a 00
        E 174 90 47 00
        E 36 90 36 00
        E 199 e0 55 4a
        E 0 90 2d 52
        E 5 e0 55 4a
        E 6 e0 55 4a
        E 5 e0 55 4a
        E 5 e0 55 4a
        E 5 e0 55 4a
        E 6 e0 55 4a
        E 5 e0 55 4a
        E 5 e0 55 4a
        E 6 e0 55 4a
        E 5 e0 55 4a
        E 5 e0 55 4a
        E 5 e0 55 4a
        E 6 e0 55 4a
        E 5 e0 55 4a
        E 5 e0 55 4a
        E 5 e0 55 4a
        E 6 e0 55 4a
        E 5 e0 55 4a
        E 5 e0 55 4a
        E 5 e0 55 4a
        E 6 e0 55 4a
        E 5 e0 55 4a
        E 5 e0 55 4a
        E 6 e0 55 4a
        E 5 e0 55 4a
        E 5 e0 55 4a
        E 5 e0 55 4a
        E 6 e0 55 4a
        E 5 e0 55 4a
        E 5 e0 55 4a
        E 5 e0 55 4a
        E 6 e0 55 4a
        E 0 90 2d 00
        E 30 90 49 41
        E 5 90 40 49
        E 92 90 40 00
        E 11 90 42 42
        E 138 90 49 00
        E 30 90 42 00
        E 67 90 49 3d
        E 5 90 34 3c
        E 82 90 49 00
        E 51 90 34 00
        E 92 90 44 41
        E 10 90 39 44
        E 148 90 39 00
        E 41 90 44 00
        E 41 90 49 49
        E 5 90 40 46
        E 118 90 40 00
        E 87 90 49 00
        E 20 e0 55 4a
        E 0 90 37 57
        E 5 e0 55 4a
        E 6 e0 55 4a
        E 5 e0 55 4a
        E 5 e0 55 4a
        E 5 e0 55 4a
        E 6 e0 55 4a
        E 5 e0 55 4a
        E 5 e0 55 4a
        E 6 e0 55 4a
        E 5 e0 55 4a
        E 5 e0 55 4a
        E 6 e0 55 4a
        E 5 e0 55 4a
        E 5 e0 55 4a
        E 5 e0 55 4a
        E 6 e0 55 4a
        E 5 e0 55 4a
        E 5 e0 55 4a
        E 6 e0 55 4a
        E 5 e0 55 4a
        E 5 e0 55 4a
        E 6 e0 55 4a
        E 5 e0 55 4a
        E 5 e0 55 4a
        E 5 e0 55 2a
        E 6 e0 55 2a
        E 5 e0 55 2a
        E 0 90 37 00
        E 6 e0 55 4a
        E 0 90 36 3b
        E 5 e0 55 4a
        E 5 e0 55 4a
        E 6 e0 55 4a
        E 5 e0 55 4a
        E 5 e0 55 4a
        E 5 e0 55 4a
        E 6 e0 55 4a
        E 5 e0 55 4a
        E 5 e0 55 4a
        E 6 e0 55 4a
        E 5 e0 55 4a
        E 5 e0 55 4a
        E 6 e0 55 4a
        E 5 e0 55 4a
        E 5 e0 55 4a
        E 5 e0 55 4a
        E 6 e0 55 4a
        E 5 e0 55 4a
        E 5 e0 55 4a
        E 6 e0 55 6a
        E 5 e0 55 6a
        E 5 e0 55 6a
        E 6 e0 55 4a
        E 5 e0 55 4a
        E 5 e0 55 4a
        E 5 e0 55 4a
        E 6 e0 55 4a
        E 0 90 36 00
        E 56 90 40 47
        E 5 90 3d 46
        E 164 90 3d 00
        E 56 90 40 00
        E 0 90 40 30
        E 5 90 26 30
        E 0 90 3c 53
        E 5 90 36 3c
        E 66 90 26 00
        E 41 90 40 00
        E 0 90 40 2f
        E 5 90 26 27
        E 0 90 3c 00
        E 0 90 3c 4f
        E 5 90 36 00
        E 0 90 36 36
        E 62 90 26 00
        E 46 90 40 00
        E 0 90 40 39
        E 5 90 26 2b
        E 0 90 3c 00
        E 0 90 3c 49
        E 5 90 36 00
        E 0 90 36 3e
        E 56 90 40 00
        E 56 90 26 00
        E 41 90 3c 00
        E 21 90 36 00
        E 276 90 3c 4f
        E 0 90 40 2c
        E 5 90 36 3b
        E 113 90 26 33
        E 0 90 3c 00
        E 0 90 3c 4d
        E 0 90 40 00
        E 0 90 40 2d
        E 10 90 36 00
        E 0 90 36 39
        E 112 90 26 00
        E 0 90 26 37
        E 0 90 36 00
        E 0 90 36 3f
        E 0 90 3c 00
        E 0 90 3c 3b
        E 51 90 40 00
        E 72 90 26 00
        E 20 90 36 00
        E 169 90 3c 00
        E 138 90 31 44
        E 10 90 3b 50
        E 0 90 3f 4f
        E 11 90 34 49
        E 168 90 31 00
        E 51 90 30 40
        E 0 90 3e 47
        E 0 90 3f 00
        E 5 90 33 49
        E 0 90 34 00
        E 0 90 3a 48
        E 0 90 3b 00
        E 72 90 27 2f
        E 25 90 3e 00
        E 0 90 3e 52
        E 77 90 30 00
        E 0 90 3e 00
        E 0 90 3e 54
        E 10 90 27 00
        E 41 90 33 00
        E 5 90 2f 46
        E 5 90 39 40
        E 0 90 3a 00
        E 0 90 3d 45
        E 0 90 3e 00
        E 6 90 32 33
        E 61 90 2f 00
        E 15 90 3d 00
        E 0 90 3d 39
        E 41 90 39 00
        E 51 90 32 00
        E 41 90 42 45
        E 0 90 45 38
        E 25 90 3d 00
        E 41 90 42 00
        E 57 90 45 00
        E 0 90 45 47
        E 0 90 49 39
        E 189 90 49 00
        E 36 90 42 3a
        E 0 90 45 00
        E 0 90 45 4b
        E 194 90 45 00
        E 61 90 31 3e
        E 26 90 42 00
        E 10 90 3f 49
        E 46 90 31 00
        E 10 90 32 38
        E 5 90 38 45
        E 0 90 3f 00
        E 0 90 40 3c
        E 82 90 40 00
        E 31 90 32 00
        E 0 90 32 36
        E 0 90 38 00
        E 0 90 38 44
        E 0 90 3e 30
        E 122 90 38 00
        E 0 90 38 4b
        E 11 90 32 00
        E 0 90 32 41
        E 40 90 3e 00
        E 21 90 38 00
        E 92 90 32 00
        E 62 90 3e 30
        E 112 90 4c 37
        E 51 90 3e 00
        E 72 90 3e 37
        E 41 90 4c 00
        E 91 90 3e 00
        E 98 e0 55 4a
        E 0 90 2f 5c
        E 5 e0 55 4a
        E 5 e0 55 4a
        E 6 e0 55 4a
        E 5 e0 55 4a
        E 5 e0 55 4a
        E 6 e0 55 4a
        E 5 e0 55 4a
        E 5 e0 55 4a
        E 6 e0 55 4a
        E 5 e0 55 4a
        E 6 e0 55 4a
        E 5 e0 55 4a
        E 5 e0 55 4a
        E 6 e0 55 4a
        E 5 e0 55 4a
        E 5 e0 55 4a
        E 6 e0 55 4a
        E 5 e0 55 4a
        E 5 e0 55 4a
        E 6 e0 55 4a
        E 0 90 2f 00
        E 10 90 36 45
        E 26 90 3e 5b
        E 86 90 3e 00
        E 0 90 3e 3a
        E 6 90 39 51
        E 0 90 42 4d
        E 36 90 36 00
        E 25 90 3e 00
        E 46 90 49 2b
        E 5 90 39 00
        E 0 90 39 3a
        E 0 90 3d 42
        E 0 90 45 47
        E 21 90 42 00
        E 61 90 39 00
        E 10 90 49 00
        E 31 90 45 00
        E 5 90 3d 00
        E 87 90 45 3d
        E 15 90 39 43
        E 0 90 42 4f
        E 46 90 45 00
        E 113 90 39 00
        E 76 90 3e 4f
        E 0 90 42 00
        E 0 90 42 3f
        E 62 90 42 00
        E 51 90 49 4f
        E 0 90 4c 3b
        E 5 90 3e 00
        E 0 90 40 54
        E 10 90 38 52
        E 51 90 4c 00
        E 102 90 40 00
        E 0 90 40 5c
        E 42 90 49 00
        E 0 90 49 49
        E 71 90 49 00
        E 0 90 49 48
        E 5 90 40 00
        E 0 90 40 60
        E 82 90 40 00
        E 0 90 40 51
        E 87 90 47 40
        E 0 90 49 00
        E 5 90 38 00
        E 0 90 3e 39
        E 0 90 42 2b
        E 0 90 4a 26
        E 5 90 36 3c
        E 5 90 40 00
        E 72 90 36 00
        E 15 90 4a 00
        E 15 90 42 00
        E 77 90 3e 00
        E 123 90 47 00
        E 153 90 47 32
        E 5 90 34 5a
        E 0 90 3e 54
        E 112 90 34 00
        E 0 90 34 41
        E 0 90 3e 00
        E 0 90 3e 4e
        E 0 90 43 55
        E 0 90 47 00
        E 0 90 47 35
        E 83 90 47 00
        E 30 90 37 41
        E 0 90 3e 00
        E 0 90 3e 53
        E 0 90 43 00
        E 31 90 2b 2f
        E 46 90 37 00
        E 15 90 2b 00
        E 21 90 34 00
        E 5 90 2d 4b
        E 0 90 3d 54
        E 0 90 3e 00
        E 240 90 47 42
        E 5 90 37 44
        E 5 90 3d 00
        E 0 90 3d 44
        E 61 90 37 00
        E 26 90 3d 00
        E 10 90 43 54
        E 0 90 47 00
        E 0 90 47 3a
        E 92 90 2d 00
        E 26 90 3d 54
        E 0 90 43 00
        E 0 90 43 43
        E 92 90 43 00
        E 5 90 47 00
        E 10 90 3d 00
        E 5 90 45 35
        E 5 90 32 4e
        E 0 90 3c 45
        E 108 90 42 54
        E 0 90 45 00
        E 0 90 45 3d
        E 92 90 45 00
        E 20 90 42 00
        E 11 90 3c 00
        E 0 90 3c 57
        E 5 90 36 4c
        E 87 90 36 00
        E 10 90 32 00
        E 10 90 3b 49
        E 0 90 3c 00
        E 5 90 2b 5c
        E 225 90 2b 00
        E 0 90 2b 4d
        E 5 90 35 4b
        E 0 90 41 3b
        E 20 90 3b 00
        E 0 90 3b 44
        E 77 90 3b 00
        E 15 90 3e 4e
        E 0 90 41 00
        E 0 90 41 48
        E 6 90 35 00
        E 112 90 3b 54
        E 0 90 3e 00
        E 0 90 3e 41
        E 0 90 41 00
        E 0 90 41 3c
        E 5 90 2b 00
        E 0 90 2b 4b
        E 97 90 2b 00
        E 0 90 3b 00
        E 0 90 3e 00
        E 5 90 41 00
        E 15 90 23 28
        E 0 90 39 3e
        E 0 90 3d 4d
        E 0 90 40 34
        E 62 90 23 00
        E 51 90 39 00
        E 0 90 39 3d
        E 0 90 3d 00
        E 0 90 3d 4f
        E 0 90 40 00
        E 0 90 40 37
        E 113 90 23 32
        E 0 90 39 00
        E 0 90 39 3f
        E 0 90 3d 00
        E 0 90 3d 3c
        E 0 90 40 00
        E 0 90 40 3b
        E 107 90 40 00
        E 36 90 23 00
        E 5 90 39 00
        E 148 90 3d 00
        E 291 90 37 59
        E 0 90 46 47
        E 31 90 3d 55
        E 67 90 46 00
        E 10 90 37 00
        E 0 90 38 4e
        E 0 90 47 4c
        E 10 90 3d 00
        E 21 90 3e 49
        E 71 90 38 00
        E 0 90 3e 00
        E 5 90 47 00
        E 16 90 3a 4b
        E 0 90 43 55
        E 0 90 49 48
        E 107 90 3a 00
        E 0 90 3b 42
        E 0 90 49 00
        E 0 90 4a 4a
        E 20 90 43 00
        E 0 90 44 4d
        E 77 90 44 00
        E 5 90 4a 00
        E 10 90 3e 64
        E 6 90 4e 44
        E 30 90 47 46
        E 5 90 3b 00
        E 31 90 3e 00
        E 0 90 3e 4b
        E 10 90 4e 00
        E 0 90 4e 49
        E 46 90 49 37
        E 15 90 47 00
        E 0 90 4e 00
        E 11 90 43 43
        E 35 90 49 00
        E 103 90 3e 00
        E 102 90 43 00
        E 649 e0 55 4a
        E 0 90 39 68
        E 5 e0 55 4a
        E 6 e0 55 4a
        E 5 e0 55 4a
        E 5 e0 55 4a
        E 5 e0 55 4a
        E 5 e0 55 4a
        E 6 e0 55 4a
        E 5 e0 55 4a
        E 5 e0 55 4a
        E 5 e0 55 4a
        E 6 e0 55 4a
        E 5 e0 55 4a
        E 5 e0 55 4a
        E 5 e0 55 4a
        E 5 e0 55 4a
        E 6 e0 55 4a
        E 5 e0 55 4a
        E 5 e0 55 4a
        E 5 e0 55 4a
        E 6 e0 55 4a
        E 5 e0 55 4a
        E 5 e0 55 4a
        E 5 e0 55 4a
        E 5 e0 55 4a
        E 6 e0 55 4a
        E 5 e0 55 4a
        E 5 e0 55 4a
        E 5 e0 55 4a
        E 6 e0 55 4a
        E 5 e0 55 4a
        E 5 e0 55 4a
        E 5 e0 55 4a
        E 5 e0 55 4a
        E 6 e0 55 4a
        E 5 e0 55 4a
        E 5 e0 55 4a
        E 5 e0 55 4a
        E 6 e0 55 4a
        E 5 e0 55 4a
        E 5 e0 55 4a
        E 5 e0 55 4a
        E 5 e0 55 4a
        E 6 e0 55 4a
        E 5 e0 55 4a
        E 5 e0 55 4a
        E 0 90 39 00
        E 0 90 3a 60
        E 225 90 28 2b
        E 0 90 3e 43
        E 6 90 34 3d
        E 0 90 3a 00
        E 0 90 3b 5d
        E 0 90 47 2a
        E 86 90 47 00
        E 31 90 28 00
        E 77 90 3e 00
        E 20 90 34 00
        E 20 90 47 2f
        E 6 90 43 4b
        E 97 90 47 00
        E 5 90 43 00
        E 5 90 2f 3e
        E 0 90 3e 44
        E 5 90 3a 55
        E 0 90 3b 00
        E 112 90 47 25
        E 5 90 3a 00
        E 0 90 3b 58
        E 77 90 3e 00
        E 5 90 47 00
        E 31 90 3b 00
        E 0 90 3b 63
        E 0 90 43 41
        E 25 90 53 25
        E 133 90 3b 00
        E 0 90 3b 62
        E 52 90 2f 00
        E 0 90 43 00
        E 0 90 53 00
        E 20 90 3d 3c
        E 5 90 3b 00
        E 0 90 3b 4d
        E 11 90 38 2f
        E 71 90 3b 00
        E 0 90 3b 42
        E 5 90 38 00
        E 21 90 3d 00
        E 0 90 3d 47
        E 0 90 40 36
        E 5 90 2d 58
        E 76 90 3b 00
        E 0 90 40 00
        E 31 90 2d 00
        E 0 90 2d 4a
        E 0 90 3d 00
        E 10 90 47 42
        E 5 90 43 4c
        E 108 90 2d 00
        E 0 90 2d 3c
        E 0 90 39 5e
        E 0 90 45 30
        E 5 90 47 00
        E 20 90 43 00
        E 41 90 2d 00
        E 41 90 45 00
        E 10 90 34 4e
        E 0 90 39 00
        E 0 90 3a 4d
        E 0 90 3c 41
        E 82 90 3c 00
        E 31 90 34 00
        E 0 90 34 3b
        E 0 90 3d 3d
        E 10 90 3a 00
        E 46 90 3b 3f
        E 76 90 42 61
        E 41 90 34 00
        E 0 90 3b 00
        E 57 90 47 34
        E 41 90 3d 00
        E 20 90 42 00
        E 0 90 42 5b
        E 26 90 47 00
        E 30 90 3d 4d
        E 16 90 42 00
        E 97 90 32 4e
        E 0 90 3b 5b
        E 0 90 47 2f
        E 87 90 47 00
        E 107 90 3d 00
        E 15 90 47 25
        E 16 90 32 00
        E 0 90 32 2f
        E 10 90 45 2f
        E 5 90 42 44
        E 15 90 3b 00
        E 0 90 3b 56
        E 46 90 32 00
        E 10 90 45 00
        E 6 90 47 00
        E 35 90 2d 4e
        E 0 90 42 00
        E 26 90 3a 46
        E 0 90 3b 00
        E 87 90 3a 00
        E 5 90 3b 5b
        E 102 90 2d 00
        E 0 90 2d 35
        E 10 90 45 33
        E 5 90 3b 00
        E 0 90 3b 5f
        E 0 90 42 4a
        E 0 90 47 26
        E 57 90 45 00
        E 15 90 3b 00
        E 0 90 3b 64
        E 36 90 47 00
        E 61 90 47 24
        E 21 90 2d 00
        E 5 90 42 00
        E 31 90 3d 34
        E 5 90 3b 00
        E 0 90 3b 48
        E 20 90 38 33
        E 0 90 47 00
        E 72 90 38 00
        E 20 90 32 4c
        E 0 90 3d 00
        E 0 90 3d 45
        E 51 90 3b 00
        E 0 90 3b 4c
        E 36 90 3d 00
        E 26 90 32 00
        E 0 90 32 43
        E 10 90 45 2c
        E 5 90 42 46
        E 5 90 3b 00
        E 0 90 3b 46
        E 148 90 3b 00
        E 31 90 32 00
        E 0 90 45 00
        E 15 90 42 00
        E 21 90 2d 43
        E 0 90 3a 4c
        E 107 90 3a 00
        E 10 90 3b 62
        E 15 90 47 28
        E 67 90 47 00
        E 102 90 2d 00
        E 31 90 2d 34
        E 10 90 45 36
        E 5 90 42 37
        E 16 90 3b 00
        E 20 90 3c 51
        E 133 90 42 00
        E 5 90 45 00
        E 15 90 2d 00
        E 41 90 2c 3f
        E 0 90 42 30
        E 21 90 3c 00
        E 20 90 3d 60
        E 21 90 42 00
        E 92 90 3d 00
        E 0 90 3d 5f
        E 81 90 47 35
        E 21 90 2f 33
        E 10 90 3d 00
        E 0 90 3d 44
        E 5 90 2c 00
        E 41 90 47 00
        E 5 90 2f 00
        E 31 90 31 4a
        E 0 90 41 37
        E 10 90 3d 00
        E 46 90 3c 57
        E 56 90 31 00
        E 0 90 31 47
        E 15 90 3c 00
        E 21 90 3d 65
        E 41 90 41 00
        E 31 90 31 00
        E 0 90 31 41
        E 10 90 3d 00
        E 0 90 3d 5b
        E 0 90 46 38
        E 72 90 3d 00
        E 0 90 3d 63
        E 81 90 3d 00
        E 0 90 3d 64
        E 6 90 46 00
        E 56 90 31 00
        E 15 90 41 3e
        E 10 90 3d 00
        E 0 90 3d 56
        E 10 90 39 3c
        E 92 90 39 00
        E 0 90 41 00
        E 6 90 3d 00
        E 0 90 3d 4f
        E 5 90 2a 58
        E 0 90 3a 43
        E 76 90 3a 00
        E 31 90 2a 00
        E 0 90 2a 53
        E 5 90 49 36
        E 5 90 3d 00
        E 0 90 3d 45
        E 0 90 46 38
        E 97 90 49 00
        E 51 90 3d 00
        E 0 90 3d 56
        E 10 90 46 00
        E 31 90 25 43
        E 10 90 2a 00
        E 31 90 3c 5c
        E 0 90 3d 00
        E 0 90 3e 39
        E 36 90 25 00
        E 0 90 25 5d
        E 30 90 3e 00
        E 6 90 3c 00
        E 0 90 3c 4f
        E 35 90 25 00
        E 0 90 25 49
        E 11 90 3f 30
        E 15 90 3c 00
        E 21 90 3d 52
        E 71 90 3f 00
        E 0 90 3f 36
        E 16 90 3d 00
        E 5 90 44 5a
        E 66 90 3f 00
        E 31 90 31 22
        E 0 90 49 33
        E 5 90 3d 3f
        E 71 90 31 00
        E 0 90 44 00
        E 0 90 44 52
        E 6 90 3d 00
        E 25 90 49 00
        E 5 90 3f 60
        E 41 90 44 00
        E 21 90 25 00
        E 30 90 2a 4b
        E 26 90 3d 59
        E 0 90 3f 00
        E 0 90 40 40
        E 35 90 2a 00
        E 6 90 2a 59
        E 199 90 45 3c
        E 41 90 3d 00
        E 0 90 3d 55
        E 25 90 40 00
        E 21 90 2a 00
        E 20 90 45 00
        E 5 90 2f 5b
        E 5 90 3f 48
        E 0 90 4b 2b
        E 11 90 3d 00
        E 61 90 4b 00
        E 31 90 2f 00
        E 0 90 2f 4a
        E 0 90 47 32
        E 5 90 3b 5d
        E 97 90 47 00
        E 10 90 2f 00
        E 0 90 2f 37
        E 11 90 45 28
        E 5 90 3b 00
        E 0 90 3b 5f
        E 10 90 53 29
        E 41 90 3f 00
        E 30 90 3b 00
        E 0 90 3b 69
        E 26 90 45 00
        E 46 90 3b 00
        E 0 90 3b 65
        E 72 90 3d 4b
        E 5 90 3b 00
        E 0 90 3b 51
        E 0 90 41 2f
        E 35 90 2f 00
        E 31 90 53 00
        E 20 90 41 00
        E 21 90 28 55
        E 0 90 3d 00
        E 5 90 3e 4d
        E 41 90 42 28
        E 61 90 3e 00
        E 21 90 42 00
        E 0 90 42 46
        E 0 90 45 43
        E 184 90 47 26
        E 5 90 45 00
        E 10 90 42 00
        E 20 90 28 00
        E 0 90 28 3e
        E 5 90 3e 4e
        E 62 90 47 00
        E 5 90 28 00
        E 31 90 3e 00
        E 10 90 31 3d
        E 5 90 40 39
        E 5 90 3b 00
        E 0 90 3b 46
        E 0 90 44 46
        E 113 90 31 00
        E 0 90 31 3f
        E 0 90 3b 00
        E 0 90 3b 48
        E 0 90 40 00
        E 0 90 40 38
        E 5 90 44 00
        E 0 90 44 48
        E 107 90 40 00
        E 0 90 40 40
        E 5 90 31 00
        E 0 90 31 43
        E 0 90 3b 00
        E 0 90 3b 43
        E 5 90 44 00
        E 0 90 44 40
        E 67 90 40 00
        E 36 90 31 00
        E 56 90 3b 00
        E 51 90 44 00
        E 15 90 2f 4d
        E 0 90 3e 47
        E 0 90 42 33
        E 194 90 2f 00
        E 5 90 3e 00
        E 36 90 42 00
        E 0 90 42 52
        E 0 90 45 53
        E 77 90 42 00
        E 31 90 45 00
        E 0 90 45 4c
        E 0 90 49 49
        E 163 90 45 00
        E 46 90 49 00
        E 26 90 45 49
        E 5 90 42 3c
        E 184 90 45 00
        E 46 90 3e 51
        E 0 90 42 00
        E 0 90 42 50
        E 72 90 42 00
        E 40 90 3e 00
        E 0 90 3e 49
        E 5 90 38 41
        E 113 90 38 00
        E 0 90 38 45
        E 0 90 3e 00
        E 0 90 3e 4b
        E 117 90 38 00
        E 0 90 38 4b
        E 0 90 3e 00
        E 0 90 3e 43
        E 78 90 38 00
        E 81 90 3e 00
        E 419 90 3d 4b
        E 5 90 35 58
        E 108 90 2f 4e
        E 0 90 3d 00
        E 5 90 35 00
        E 0 90 36 4e
        E 0 90 3e 3f
        E 92 90 36 00
        E 20 90 2f 00
        E 0 90 3e 00
        E 0 90 3e 57
        E 0 90 42 48
        E 107 90 3e 00
        E 6 90 42 00
        E 0 90 42 4c
        E 0 90 45 4c
        E 77 90 42 00
        E 40 90 45 00
        E 0 90 45 3e
        E 0 90 49 49
        E 200 90 49 00
        E 30 90 45 00
        E 0 90 45 48
        E 5 90 42 3b
        E 164 90 45 00
        E 66 90 3e 56
        E 0 90 42 00
        E 0 90 42 50
        E 77 90 42 00
        E 15 90 3e 00
        E 26 90 4c 4e
        E 5 90 49 59
        E 10 90 38 55
        E 87 90 49 00
        E 0 90 49 55
        E 72 90 4c 00
        E 0 90 4c 4c
        E 67 90 4c 00
        E 0 90 4c 47
        E 97 90 48 4c
        E 0 90 49 00
        E 25 90 37 51
        E 0 90 38 00
        E 15 90 4b 43
        E 0 90 4c 00
        E 87 90 47 36
        E 0 90 48 00
        E 5 90 36 3f
        E 0 90 37 00
        E 5 90 4b 00
        E 6 90 4a 3c
        E 76 90 4a 00
        E 199 90 36 00
        E 16 90 47 00
        E 158 90 44 2c
        E 41 90 2d 51
        E 41 90 44 00
        E 113 90 2d 00
        E 36 90 49 3a
        E 5 90 40 48
        E 92 90 40 00
        E 10 90 42 40
        E 184 90 42 00
        E 56 90 49 00
        E 0 90 49 3f
        E 5 90 34 3b
        E 82 90 49 00
        E 41 90 34 00
        E 102 90 44 49
        E 5 90 39 42
        E 143 90 39 00
        E 0 90 44 00
        E 82 90 49 4a
        E 5 90 40 46
        E 123 90 40 00
        E 82 90 49 00
        E 25 e0 55 4a
        E 0 90 37 58
        E 6 e0 55 4a
        E 5 e0 55 4a
        E 5 e0 55 4a
        E 5 e0 55 4a
        E 6 e0 55 4a
        E 5 e0 55 4a
        E 5 e0 55 4a
        E 6 e0 55 4a
        E 5 e0 55 4a
        E 5 e0 55 4a
        E 6 e0 55 4a
        E 5 e0 55 4a
        E 5 e0 55 4a
        E 5 e0 55 4a
        E 6 e0 55 4a
        E 5 e0 55 4a
        E 5 e0 55 4a
        E 6 e0 55 4a
        E 5 e0 55 4a
        E 5 e0 55 4a
        E 6 e0 55 4a
        E 5 e0 55 4a
        E 5 e0 55 4a
        E 5 e0 55 2a
        E 6 e0 55 2a
        E 5 e0 55 2a
        E 5 e0 55 2a
        E 0 90 37 00
        E 11 e0 55 4a
        E 0 90 36 3e
        E 5 e0 55 4a
        E 5 e0 55 4a
        E 5 e0 55 4a
        E 6 e0 55 4a
        E 5 e0 55 4a
        E 5 e0 55 4a
        E 6 e0 55 4a
        E 5 e0 55 4a
        E 5 e0 55 4a
        E 5 e0 55 4a
        E 6 e0 55 4a
        E 5 e0 55 4a
        E 5 e0 55 4a
        E 6 e0 55 4a
        E 5 e0 55 4a
        E 5 e0 55 4a
        E 5 e0 55 4a
        E 6 e0 55 4a
        E 5 e0 55 4a
        E 5 e0 55 4a
        E 6 e0 55 4a
        E 5 e0 55 6a
        E 5 e0 55 6a
        E 5 e0 55 4a
        E 6 e0 55 4a
        E 5 e0 55 4a
        E 5 e0 55 4a
        E 6 e0 55 4a
        E 0 90 36 00
        E 51 90 3d 46
        E 0 90 40 49
        E 179 90 3d 00
        E 46 90 3c 54
        E 0 90 40 00
        E 0 90 40 35
        E 5 90 26 32
        E 0 90 36 3f
        E 77 90 26 00
        E 30 90 40 00
        E 0 90 40 34
        E 6 90 3c 00
        E 0 90 3c 55
        E 5 90 26 2f
        E 0 90 36 00
        E 0 90 36 41
        E 71 90 26 00
        E 36 90 3c 00
        E 0 90 3c 45
        E 0 90 40 00
        E 0 90 40 3b
        E 5 90 26 30
        E 0 90 36 00
        E 0 90 36 3e
        E 66 90 40 00
        E 36 90 26 00
        E 92 90 36 00
        E 153 90 3c 00
        E 113 90 26 2c
        E 0 90 3c 52
        E 0 90 40 30
        E 10 90 36 3e
        E 107 90 40 00
        E 0 90 40 2b
        E 5 90 26 00
        E 0 90 26 34
        E 0 90 36 00
        E 0 90 36 38
        E 0 90 3c 00
        E 0 90 3c 4f
        E 108 90 26 00
        E 0 90 26 39
        E 0 90 3c 00
        E 0 90 3c 47
        E 0 90 40 00
        E 0 90 40 37
        E 10 90 36 00
        E 0 90 36 41
        E 52 90 40 00
        E 76 90 26 00
        E 10 90 36 00
        E 11 90 3c 00
        E 306 90 31 44
        E 5 90 3b 4e
        E 0 90 3f 50
        E 5 90 34 47
        E 179 90 31 00
        E 41 90 30 41
        E 0 90 3e 42
        E 0 90 3f 00
        E 10 90 3a 49
        E 0 90 3b 00
        E 21 90 34 00
        E 5 90 33 47
        E 36 90 27 2e
        E 5 90 3e 00
        E 0 90 3e 51
        E 67 90 3e 00
        E 0 90 3e 52
        E 30 90 30 00
        E 10 90 27 00
        E 41 90 33 00
        E 0 90 3e 00
        E 0 90 3e 47
        E 0 90 42 2d
        E 5 90 2f 43
        E 11 90 32 31
        E 0 90 39 40
        E 0 90 3a 00
        E 46 90 3e 00
        E 25 90 2f 00
        E 0 90 42 00
        E 21 90 3d 3e
        E 30 90 39 00
        E 41 90 32 00
        E 26 90 3d 00
        E 25 90 42 41
        E 0 90 45 38
        E 62 90 42 00
        E 66 90 45 00
        E 0 90 45 4a
        E 0 90 49 38
        E 179 90 49 00
        E 46 90 42 45
        E 0 90 45 00
        E 0 90 45 4a
        E 168 90 42 00
        E 26 90 45 00
        E 51 90 31 3d
        E 41 90 3f 46
        E 46 90 31 00
        E 11 90 32 39
        E 5 90 38 42
        E 0 90 3f 00
        E 0 90 40 40
        E 76 90 40 00
        E 36 90 38 00
        E 0 90 38 43
        E 0 90 3e 31
        E 5 90 32 00
        E 0 90 32 35
        E 112 90 32 00
        E 0 90 32 40
        E 6 90 38 00
        E 0 90 38 49
        E 35 90 3e 00
        E 46 90 38 00
        E 77 90 32 00
        E 71 e0 55 4a
        E 0 90 3e 31
        E 6 e0 55 4a
        E 5 e0 55 4a
        E 5 e0 55 4a
        E 6 e0 55 4a
        E 5 e0 55 4a
        E 5 e0 55 4a
        E 5 e0 55 4a
        E 6 e0 55 4a
        E 5 e0 55 4a
        E 5 e0 55 4a
        E 6 e0 2b 55
        E 5 e0 2b 55
        E 5 e0 2b 55
        E 5 e0 2b 55
        E 6 e0 2b 55
        E 5 e0 2b 55
        E 5 e0 55 4a
        E 6 e0 55 4a
        E 5 e0 55 4a
        E 5 e0 55 4a
        E 5 e0 55 4a
        E 6 e0 55 4a
        E 5 e0 55 4a
        E 5 e0 55 4a
        E 5 e0 55 4a
        E 6 e0 55 4a
        E 5 e0 55 4a
        E 5 e0 55 4a
        E 6 e0 55 4a
        E 5 e0 55 4a
        E 0 90 3e 00
        E 71 90 3e 38
        E 5 90 44 26
        E 93 90 44 00
        E 31 90 3e 00
        E 102 e0 55 4a
        E 0 90 2f 5d
        E 5 e0 55 4a
        E 6 e0 55 4a
        E 5 e0 55 4a
        E 5 e0 55 4a
        E 6 e0 55 4a
        E 5 e0 55 4a
        E 5 e0 55 4a
        E 6 e0 55 4a
        E 5 e0 55 4a
        E 5 e0 55 4a
        E 6 e0 55 4a
        E 5 e0 55 4a
        E 6 e0 55 4a
        E 5 e0 55 4a
        E 5 e0 55 4a
        E 6 e0 55 4a
        E 5 e0 55 4a
        E 5 e0 55 4a
        E 6 e0 55 4a
        E 5 e0 55 4a
        E 0 90 2f 00
        E 10 90 36 45
        E 26 90 3e 5d
        E 92 90 39 50
        E 0 90 3e 00
        E 0 90 3e 3d
        E 41 90 42 48
        E 5 90 36 00
        E 15 90 3e 00
        E 46 90 49 2d
        E 5 90 39 00
        E 0 90 39 35
        E 5 90 3d 41
        E 0 90 45 45
        E 26 90 42 00
        E 71 90 49 00
        E 16 90 39 00
        E 5 90 45 00
        E 5 90 3d 00
        E 107 90 39 42
        E 0 90 42 50
        E 154 90 39 00
        E 56 90 42 00
        E 0 90 42 40
        E 21 90 36 32
        E 0 90 3e 4d
        E 56 90 42 00
        E 5 90 36 00
        E 51 90 49 4e
        E 0 90 4c 3b
        E 5 90 40 53
        E 5 90 38 50
        E 10 90 3e 00
        E 52 90 4c 00
        E 97 90 40 00
        E 0 90 40 5b
        E 40 90 49 00
        E 0 90 49 4c
        E 72 90 49 00
        E 0 90 49 47
        E 10 90 40 00
        E 0 90 40 5e
        E 82 90 40 00
        E 0 90 40 4f
        E 92 90 42 2d
        E 0 90 47 40
        E 0 90 49 00
        E 5 90 38 00
        E 0 90 3e 39
        E 10 90 40 00
        E 5 90 36 36
        E 62 90 36 00
        E 25 90 42 00
        E 88 90 3e 00
        E 127 90 47 00
        E 138 90 3e 53
        E 0 90 47 30
        E 5 90 34 4f
        E 113 90 3e 00
        E 0 90 3e 49
        E 0 90 43 53
        E 97 90 47 00
        E 15 90 43 00
        E 5 90 37 42
        E 0 90 3e 00
        E 0 90 3e 52
        E 5 90 34 00
        E 0 90 34 39
        E 72 90 37 00
        E 41 90 2d 45
        E 0 90 3d 54
        E 0 90 3e 00
        E 25 90 34 00
        E 210 90 47 47
        E 5 90 37 43
        E 0 90 3d 00
        E 0 90 3d 4a
        E 72 90 37 00
        E 25 90 3d 00
        E 0 90 47 00
        E 0 90 47 3d
        E 5 90 43 56
        E 113 90 3d 51
        E 0 90 43 00
        E 0 90 43 42
        E 0 90 47 00
        E 0 90 47 36
        E 51 90 2d 00
        E 46 90 43 00
        E 0 90 47 00
        E 15 90 3d 00
        E 5 90 32 5a
        E 0 90 3c 46
        E 0 90 45 35
        E 118 90 32 00
        E 0 90 32 42
        E 0 90 42 56
        E 0 90 45 00
        E 0 90 45 3b
        E 97 90 45 00
        E 20 90 3c 00
        E 0 90 3c 57
        E 0 90 42 00
        E 5 90 36 4c
        E 92 90 36 00
        E 21 90 3b 4b
        E 0 90 3c 00
        E 41 90 2b 5c
        E 20 90 32 00
        E 159 90 2b 00
        E 0 90 2b 48
        E 5 90 41 3c
        E 5 90 35 44
        E 16 90 3b 00
        E 0 90 3b 48
        E 92 90 3b 00
        E 5 90 3e 4e
        E 0 90 41 00
        E 0 90 41 49
        E 51 90 35 00
        E 66 90 3b 55
        E 0 90 3e 00
        E 0 90 3e 40
        E 0 90 41 00
        E 0 90 41 3c
        E 97 90 3e 00
        E 0 90 41 00
        E 5 90 2b 00
        E 0 90 3b 00
        E 21 90 39 3c
        E 0 90 3d 4b
        E 0 90 40 34
        E 112 90 39 00
        E 0 90 39 3d
        E 5 90 3d 00
        E 0 90 3d 4c
        E 0 90 40 00
        E 0 90 40 35
        E 10 90 2f 26
        E 67 90 2f 00
        E 36 90 39 00
        E 0 90 39 3e
        E 0 90 3d 00
        E 0 90 3d 3f
        E 5 90 40 00
        E 0 90 40 3a
        E 10 90 23 2f
        E 87 90 40 00
        E 20 90 23 00
        E 21 90 39 00
        E 128 90 3d 00
        E 312 90 46 47
        E 30 90 3d 55
        E 16 90 37 59
        E 56 90 46 00
        E 5 90 37 00
        E 0 90 38 4d
        E 0 90 47 4d
        E 10 90 3d 00
        E 26 90 3e 4b
        E 71 90 38 00
        E 0 90 3e 00
        E 5 90 47 00
        E 10 90 49 49
        E 6 90 3a 4c
        E 20 90 43 53
        E 87 90 3a 00
        E 0 90 3b 40
        E 0 90 49 00
        E 0 90 4a 4c
        E 15 90 43 00
        E 15 90 44 4b
        E 62 90 44 00
        E 10 90 4a 00
        E 10 90 3e 65
        E 5 90 4e 41
        E 36 90 47 4a
        E 10 90 3b 00
        E 21 90 3e 00
        E 0 90 3e 4c
        E 0 90 4e 00
        E 0 90 4e 49
        E 51 90 43 46
        E 0 90 49 36
        E 16 90 47 00
        E 0 90 4e 00
        E 46 90 49 00
        E 97 90 3e 00
        E 112 90 43 00
        E 152 b0 7b 00
        CCINTERP 32
        CHASE_CC_TAKEOFFS 1
        GUID {6BBD89D8-C7F3-4B9C-8E62-B0D42C9F4668}
        IGNTEMPO 0 120 4 4
        SRCCOLOR 18
        VELLANE -1 100 0
      >
    >
  >
  <UINF 111
    <TRACK {1BF2D52A-E1A6-420A-AECA-267DE1ED5B3B}
      NAME "Training Dataset Song"
      PEAKCOL 33554431
      BEAT -1
      AUTOMODE 0
      VOLPAN 1 0 -1 -1 1
      MUTESOLO 0 0 0
      IPHASE 0
      PLAYOFFS 0 1
      ISBUS 1 1
      BUSCOMP 0 0 0 0 0
      SHOWINMIX 1 0.6667 0.5 1 0.5 -1 -1 -1
      REC 0 0 1 0 0 0 0 0
      VU 2
      TRACKHEIGHT 0 0 0 0 0 0
      INQ 0 0 0 0.5 100 0 0 100
      NCHAN 2
      FX 1
      TRACKID {1BF2D52A-E1A6-420A-AECA-267DE1ED5B3B}
      PERF 0
      UNDO_HAS_TRACKENV
      MIDIOUT -1
      MAINSEND 1 0
    >
  >
  <UINF 112
    <ITEM {0B9CDCF6-C538-4258-9873-9F3B9E7D3923}
      POSITION 0
      SNAPOFFS 0
      LENGTH 583.260375
      LOOP 1
      ALLTAKES 0
      FADEIN 1 0.001 0 1 0 0 0
      FADEOUT 1 0.001 0 1 0 0 0
      MUTE 0 0
      SEL 1
      IGUID {0B9CDCF6-C538-4258-9873-9F3B9E7D3923}
      IID 34
      NAME MIDI-Unprocessed_Chamber2_MID--AUDIO_09_R3_2018_wav--1.wav
      VOLPAN 1 0 1 -1
      SOFFS 0
      PLAYRATE 1 1 0 -1 0 0.0025
      CHANMODE 0
      GUID {E99B6A67-7578-4227-A1E7-27D99C4F79A4}
      <SOURCE WAVE
        FILE "C:\_AlexFiles\Coding\Python\FALL2023_IndependentStudy\datasets\maestro_sample\MIDI-Unprocessed_Chamber2_MID--AUDIO_09_R3_2018_wav--1.wav"
      >
    >
  >
  <UINF 113
    <ITEM {3898E7D4-CEE0-41EB-9420-87B5F5193505}
      POSITION 0
      SNAPOFFS 0
      LENGTH 579.5
      LOOP 1
      ALLTAKES 0
      FADEIN 1 0 0 1 0 0 0
      FADEOUT 1 0 0 1 0 0 0
      MUTE 0 0
      SEL 1
      IGUID {3898E7D4-CEE0-41EB-9420-87B5F5193505}
      IID 38
      NAME MIDI-Unprocessed_Chamber2_MID--AUDIO_09_R3_2018_wav--1_basic_pitch.mid
      VOLPAN 1 0 1 -1
      SOFFS 0 0
      PLAYRATE 1 1 0 -1 0 0.0025
      CHANMODE 0
      GUID {66356E2C-EBCF-4554-A196-B36D797145D0}
      <SOURCE MIDI
        HASDATA 1 220 QN
        CCINTERP 32
        POOLEDEVTS {AD81A369-39D7-4BB5-BC3E-F94E2D8F1006}
        E 0 c0 04 00
        E 337 90 51 47
        E 36 90 3e 54
        E 5 90 42 3a
        E 46 90 51 00
        E 112 90 45 4d
        E 123 90 42 00
        E 0 90 42 57
        E 107 90 45 00
        E 0 90 45 48
        E 5 90 3e 00
        E 0 90 3e 38
        E 92 90 3e 00
        E 11 90 56 44
        E 5 90 42 00
        E 0 90 42 38
        E 82 90 4a 27
        E 5 90 51 54
        E 5 90 45 00
        E 0 90 45 3f
        E 51 90 4a 00
        E 56 90 3e 53
        E 0 90 4e 3b
        E 11 90 42 00
        E 0 90 42 43
        E 0 90 45 00
        E 0 90 45 2f
        E 0 90 51 00
        E 0 90 51 40
        E 0 90 56 00
        E 102 90 45 00
        E 0 90 45 4b
        E 15 90 51 00
        E 107 90 42 00
        E 0 90 42 3b
        E 72 90 45 00
        E 0 90 45 42
        E 77 90 4e 00
        E 30 90 3e 00
        E 0 90 3e 38
        E 0 90 51 4f
        E 5 90 42 00
        E 0 90 42 41
        E 0 90 45 00
        E 0 90 45 31
        E 62 90 3e 00
        E 30 90 51 00
        E 5 90 42 00
        E 0 90 42 36
        E 0 90 45 00
        E 0 90 45 33
        E 0 90 4e 55
        E 149 90 39 34
        E 0 90 4a 5a
        E 10 90 42 00
        E 0 90 42 45
        E 87 90 4e 00
        E 26 90 45 00
        E 0 90 45 3c
        E 87 90 4a 00
        E 0 90 4a 5b
        E 5 90 45 00
        E 15 90 42 00
        E 0 90 42 53
        E 71 90 45 46
        E 98 90 39 00
        E 20 90 42 00
        E 0 90 45 00
        E 0 90 45 2b
        E 0 90 4c 59
        E 10 90 4a 00
        E 10 90 4e 54
        E 41 90 4c 00
        E 0 90 4c 4c
        E 21 90 4e 00
        E 5 90 4e 55
        E 56 90 4a 48
        E 36 90 4c 00
        E 0 90 4c 3e
        E 41 90 4a 00
        E 30 90 3e 44
        E 0 90 42 41
        E 0 90 4e 00
        E 0 90 4e 57
        E 36 90 45 00
        E 26 90 4e 00
        E 0 90 4e 3e
        E 86 90 4c 00
        E 62 90 3e 00
        E 0 90 3e 39
        E 0 90 4a 45
        E 36 90 42 00
        E 41 90 4e 00
        E 107 90 3e 00
        E 36 90 45 5a
        E 174 90 4a 00
        E 46 90 45 00
        E 0 90 45 3f
        E 0 90 51 42
        E 30 90 3e 4b
        E 0 90 42 42
        E 92 90 45 00
        E 0 90 45 56
        E 67 90 51 00
        E 35 90 42 00
        E 0 90 42 60
        E 92 90 45 00
        E 0 90 45 46
        E 97 90 3e 00
        E 11 90 56 4d
        E 5 90 42 00
        E 0 90 42 3f
        E 123 90 42 00
        E 20 90 45 00
        E 0 90 45 49
        E 0 90 51 46
        E 57 90 42 50
        E 0 90 4e 4e
        E 5 90 3e 41
        E 0 90 45 00
        E 0 90 45 45
        E 5 90 56 00
        E 92 90 51 00
        E 71 90 4e 00
        E 31 90 42 00
        E 0 90 42 63
        E 92 90 45 00
        E 0 90 45 53
        E 5 90 42 00
        E 0 90 42 53
        E 87 90 45 00
        E 0 90 45 48
        E 0 90 51 3c
        E 5 90 42 00
        E 0 90 42 56
        E 41 90 3e 00
        E 56 90 45 00
        E 0 90 45 3c
        E 56 90 42 00
        E 0 90 42 47
        E 0 90 4e 4a
        E 51 90 4a 4c
        E 5 90 39 42
        E 5 90 42 00
        E 0 90 42 4c
        E 31 90 51 00
        E 31 90 4e 00
        E 41 90 39 00
        E 0 90 39 33
        E 0 90 45 00
        E 0 90 45 4f
        E 92 90 4a 00
        E 0 90 4a 5d
        E 5 90 45 00
        E 0 90 45 34
        E 5 90 42 00
        E 0 90 42 49
        E 87 90 45 00
        E 0 90 45 5d
        E 46 90 39 00
        E 21 90 42 00
        E 0 90 45 00
        E 0 90 45 41
        E 0 90 4e 53
        E 40 90 4a 00
        E 26 90 3d 36
        E 15 90 45 00
        E 0 90 45 22
        E 0 90 4c 4f
        E 21 90 4e 00
        E 25 90 3d 00
        E 21 90 45 00
        E 0 90 45 32
        E 61 90 4e 39
        E 51 90 4a 46
        E 5 90 3e 38
        E 87 90 4c 00
        E 72 90 4e 00
        E 5 90 45 00
        E 61 90 39 44
        E 77 90 3e 00
        E 102 90 39 00
        E 16 90 4a 00
        E 61 e0 55 4a
        E 0 90 32 4d
        E 5 e0 55 4a
        E 5 e0 55 4a
        E 6 e0 55 4a
        E 5 e0 55 4a
        E 5 e0 55 4a
        E 6 e0 55 4a
        E 5 e0 55 4a
        E 5 e0 55 4a
        E 5 e0 55 4a
        E 6 e0 55 4a
        E 5 e0 55 4a
        E 5 e0 55 4a
        E 5 e0 55 4a
        E 6 e0 55 4a
        E 5 e0 55 4a
        E 5 e0 55 4a
        E 6 e0 55 4a
        E 5 e0 55 4a
        E 5 e0 55 4a
        E 5 e0 55 4a
        E 6 e0 55 4a
        E 5 e0 55 4a
        E 5 e0 55 4a
        E 5 e0 55 4a
        E 6 e0 55 4a
        E 5 e0 55 4a
        E 5 e0 55 4a
        E 5 e0 55 4a
        E 6 e0 2b 55
        E 5 e0 2b 55
        E 5 e0 2b 55
        E 6 e0 55 4a
        E 0 90 32 00
        E 183 90 51 3b
        E 6 90 3e 3d
        E 0 90 42 3a
        E 132 90 45 4a
        E 5 90 42 00
        E 118 90 42 36
        E 15 90 51 00
        E 77 90 45 00
        E 0 90 45 37
        E 103 90 42 00
        E 0 90 42 46
        E 0 90 56 4b
        E 46 90 3e 00
        E 40 90 51 3e
        E 6 90 45 00
        E 0 90 45 39
        E 97 90 4e 40
        E 5 90 3e 48
        E 0 90 42 00
        E 0 90 42 4f
        E 10 90 56 00
        E 20 90 45 00
        E 52 90 51 00
        E 25 90 45 4d
        E 102 90 42 00
        E 0 90 42 58
        E 87 90 45 00
        E 0 90 45 4b
        E 77 90 4e 00
        E 25 90 42 00
        E 0 90 42 50
        E 0 90 45 00
        E 0 90 45 42
        E 0 90 51 44
        E 77 90 3e 00
        E 5 90 51 00
        E 10 90 4e 4c
        E 5 90 42 00
        E 0 90 42 45
        E 0 90 45 00
        E 0 90 45 40
        E 98 90 4a 40
        E 31 90 39 3c
        E 10 90 45 00
        E 36 90 4e 00
        E 25 90 39 00
        E 10 90 39 2b
        E 0 90 42 00
        E 0 90 42 38
        E 0 90 45 57
        E 82 90 39 00
        E 15 90 42 00
        E 0 90 42 56
        E 0 90 4a 00
        E 0 90 4a 5c
        E 97 90 45 00
        E 0 90 45 5c
        E 72 90 4c 48
        E 15 90 45 00
        E 0 90 45 35
        E 5 90 4a 00
        E 36 90 42 00
        E 5 90 4c 00
        E 5 90 4c 45
        E 21 90 4e 51
        E 46 90 4a 41
        E 41 90 4c 00
        E 0 90 4c 4a
        E 20 90 4a 00
        E 36 90 4e 00
        E 0 90 4e 42
        E 5 90 42 40
        E 5 90 3e 3b
        E 158 90 4c 00
        E 16 90 45 00
        E 15 90 4a 4e
        E 72 90 42 00
        E 51 90 4e 00
        E 56 90 3e 00
        E 36 90 45 58
        E 41 90 4a 00
        E 169 90 45 00
        E 0 90 45 2f
        E 0 90 51 4e
        E 30 90 3e 33
        E 92 90 45 00
        E 0 90 45 4f
        E 97 90 42 5c
        E 16 90 51 00
        E 71 90 45 00
        E 0 90 45 44
        E 56 90 3e 00
        E 46 90 56 5e
        E 10 90 42 00
        E 0 90 42 4c
        E 134 90 45 00
        E 0 90 45 3e
        E 0 90 51 3b
        E 0 90 56 00
        E 0 90 56 4b
        E 51 90 42 00
        E 0 90 42 4d
        E 5 90 3e 47
        E 0 90 4e 58
        E 5 90 56 00
        E 87 90 51 00
        E 102 90 42 00
        E 0 90 42 62
        E 5 90 4e 00
        E 87 90 3e 00
        E 0 90 3e 36
        E 0 90 45 00
        E 0 90 45 5b
        E 92 90 45 00
        E 0 90 45 4e
        E 0 90 51 37
        E 5 90 42 00
        E 0 90 42 58
        E 46 90 3e 00
        E 97 90 42 00
        E 0 90 42 3d
        E 0 90 4e 4d
        E 72 90 4a 52
        E 5 90 39 3d
        E 10 90 45 00
        E 5 90 42 00
        E 0 90 42 4f
        E 26 90 51 00
        E 30 90 4e 00
        E 129 90 4a 00
        E 0 90 4a 5a
        E 10 90 42 00
        E 0 90 42 43
        E 31 90 39 00
        E 66 90 42 00
        E 0 90 4e 51
        E 20 90 45 37
        E 26 90 4a 00
        E 20 90 4e 00
        E 5 90 4e 37
        E 26 90 4c 4e
        E 5 90 3d 2b
        E 0 90 45 00
        E 77 90 45 33
        E 35 90 3d 00
        E 41 90 4e 00
        E 0 90 4e 44
        E 46 90 3e 40
        E 0 90 45 00
        E 11 90 4a 48
        E 86 90 4c 00
        E 11 90 4e 00
        E 122 90 39 39
        E 87 90 3e 00
        E 77 90 39 00
        E 56 90 4a 00
        E 41 e0 55 4a
        E 0 90 32 4f
        E 6 e0 55 4a
        E 5 e0 55 4a
        E 5 e0 55 4a
        E 5 e0 55 4a
        E 6 e0 55 4a
        E 5 e0 55 4a
        E 5 e0 55 4a
        E 5 e0 55 4a
        E 6 e0 55 4a
        E 5 e0 55 4a
        E 5 e0 55 4a
        E 6 e0 55 4a
        E 5 e0 55 4a
        E 5 e0 55 4a
        E 5 e0 55 4a
        E 6 e0 55 4a
        E 5 e0 55 4a
        E 5 e0 55 4a
        E 5 e0 55 4a
        E 6 e0 55 4a
        E 5 e0 55 4a
        E 5 e0 55 4a
        E 6 e0 55 4a
        E 5 e0 55 4a
        E 5 e0 55 4a
        E 5 e0 55 4a
        E 6 e0 55 4a
        E 5 e0 55 4a
        E 5 e0 55 4a
        E 5 e0 55 4a
        E 6 e0 2b 55
        E 0 90 32 00
        E 184 90 4c 5b
        E 15 90 2d 46
        E 5 90 49 2f
        E 107 90 39 3c
        E 118 90 39 00
        E 0 90 4c 00
        E 0 90 4c 68
        E 5 90 39 36
        E 0 90 45 33
        E 5 90 49 00
        E 0 90 49 45
        E 189 90 39 00
        E 10 90 4c 00
        E 0 90 4c 6b
        E 16 90 45 00
        E 0 90 45 47
        E 0 90 51 29
        E 5 90 49 00
        E 0 90 49 3c
        E 11 90 2d 00
        E 143 90 51 00
        E 46 90 4c 00
        E 0 90 4c 55
        E 97 90 40 2b
        E 5 90 2d 44
        E 5 90 45 00
        E 15 90 49 00
        E 61 90 2d 00
        E 16 90 31 42
        E 15 90 40 00
        E 72 90 31 00
        E 10 90 34 4a
        E 0 90 40 30
        E 97 90 34 00
        E 0 90 34 3a
        E 0 90 39 4d
        E 0 90 4c 00
        E 20 90 40 00
        E 56 90 34 00
        E 21 90 2d 48
        E 5 90 39 00
        E 118 90 4e 5d
        E 5 90 3e 32
        E 15 90 32 5e
        E 57 90 3e 00
        E 81 90 2d 00
        E 41 90 4e 00
        E 0 90 4e 6e
        E 5 90 32 00
        E 0 90 32 3e
        E 6 90 45 36
        E 10 90 4a 27
        E 81 90 4a 00
        E 103 90 4e 00
        E 0 90 4e 6d
        E 20 90 45 00
        E 0 90 45 47
        E 31 90 32 00
        E 168 90 4a 3e
        E 0 90 4e 00
        E 0 90 4e 4f
        E 5 90 45 00
        E 0 90 45 44
        E 82 90 4a 00
        E 5 90 45 00
        E 5 90 32 47
        E 0 90 3e 2b
        E 108 90 36 25
        E 0 90 42 2f
        E 30 90 32 00
        E 31 90 3e 00
        E 5 90 42 00
        E 20 90 39 42
        E 21 90 36 00
        E 72 90 3e 4f
        E 10 90 4e 00
        E 51 90 39 00
        E 36 90 32 63
        E 26 90 3e 00
        E 122 90 51 4d
        E 5 90 32 00
        E 0 90 32 40
        E 31 90 3e 4f
        E 0 90 42 45
        E 117 90 45 3c
        E 103 90 32 00
        E 0 90 4a 53
        E 0 90 51 00
        E 5 90 3e 00
        E 0 90 3e 43
        E 5 90 42 00
        E 0 90 42 3f
        E 92 90 42 00
        E 0 90 42 37
        E 0 90 45 00
        E 0 90 45 46
        E 0 90 4e 58
        E 92 90 42 00
        E 0 90 42 3b
        E 0 90 45 00
        E 0 90 45 47
        E 0 90 51 55
        E 5 90 3e 00
        E 0 90 3e 3a
        E 0 90 4a 00
        E 0 90 4a 37
        E 61 90 3e 00
        E 10 90 4e 00
        E 16 90 4a 00
        E 0 90 4a 33
        E 0 90 56 50
        E 5 90 45 00
        E 0 90 45 48
        E 0 90 51 00
        E 21 90 3e 27
        E 71 90 3e 00
        E 5 90 3e 4a
        E 0 90 45 00
        E 0 90 45 3d
        E 0 90 51 3f
        E 11 90 42 00
        E 0 90 42 45
        E 76 90 56 00
        E 10 90 45 00
        E 0 90 45 47
        E 11 90 4a 00
        E 97 90 3e 00
        E 0 90 3e 3d
        E 0 90 42 00
        E 0 90 42 59
        E 0 90 4a 5f
        E 25 90 51 00
        E 62 90 42 00
        E 0 90 42 47
        E 0 90 4e 54
        E 5 90 45 00
        E 0 90 45 55
        E 0 90 4a 00
        E 0 90 4a 3e
        E 0 90 51 2b
        E 87 90 4a 00
        E 0 90 4a 2d
        E 0 90 51 00
        E 0 90 51 48
        E 5 90 45 00
        E 0 90 45 4a
        E 5 90 42 00
        E 0 90 42 4b
        E 25 90 4e 00
        E 26 90 3e 00
        E 25 90 4a 00
        E 0 90 4a 3a
        E 0 90 51 00
        E 0 90 56 44
        E 6 90 45 00
        E 0 90 45 4b
        E 91 90 4a 00
        E 11 90 45 00
        E 0 90 45 46
        E 5 90 51 41
        E 5 90 3e 44
        E 10 90 42 00
        E 0 90 42 4a
        E 46 90 56 00
        E 46 90 45 00
        E 0 90 45 47
        E 108 90 3e 00
        E 0 90 42 00
        E 0 90 51 00
        E 5 90 4f 48
        E 5 90 40 38
        E 15 90 3d 32
        E 82 90 45 00
        E 0 90 45 44
        E 82 90 3d 00
        E 10 90 40 00
        E 21 90 4e 44
        E 0 90 4f 00
        E 5 90 3e 46
        E 0 90 42 4c
        E 117 90 45 00
        E 0 90 45 49
        E 123 90 3e 00
        E 10 90 42 00
        E 0 90 42 3a
        E 0 90 4e 00
        E 0 90 4e 4d
        E 31 90 3d 41
        E 5 90 39 44
        E 10 90 45 00
        E 123 90 4c 3f
        E 10 90 42 00
        E 107 90 4c 00
        E 10 90 3d 00
        E 5 90 4e 00
        E 11 90 39 00
        E 0 90 39 2b
        E 5 90 45 66
        E 102 90 39 00
        E 16 e0 55 4a
        E 0 90 45 00
        E 0 90 45 5b
        E 5 e0 55 4a
        E 6 e0 55 4a
        E 5 e0 55 4a
        E 5 e0 55 4a
        E 6 e0 55 4a
        E 5 e0 55 4a
        E 5 e0 55 4a
        E 6 e0 55 4a
        E 5 e0 55 4a
        E 6 e0 55 4a
        E 5 e0 55 4a
        E 5 e0 55 4a
        E 6 e0 55 4a
        E 5 e0 55 4a
        E 5 e0 55 4a
        E 6 e0 55 4a
        E 5 e0 55 4a
        E 6 e0 55 4a
        E 5 e0 55 4a
        E 0 90 45 00
        E 0 90 45 5b
        E 5 e0 55 4a
        E 6 e0 55 4a
        E 5 e0 55 4a
        E 6 e0 55 4a
        E 5 e0 2b 55
        E 5 e0 2b 55
        E 6 e0 2b 55
        E 5 e0 2b 55
        E 6 e0 55 4a
        E 5 e0 55 4a
        E 5 e0 55 4a
        E 6 e0 55 4a
        E 5 e0 55 4a
        E 6 e0 55 4a
        E 5 e0 55 4a
        E 5 e0 55 4a
        E 6 e0 55 4a
        E 0 90 45 00
        E 0 90 45 43
        E 153 90 42 34
        E 31 90 3e 3b
        E 0 90 51 4f
        E 30 90 45 00
        E 87 90 45 50
        E 72 90 3e 00
        E 25 90 42 00
        E 0 90 42 62
        E 46 90 51 00
        E 51 90 45 00
        E 0 90 45 4f
        E 103 90 56 4b
        E 5 90 42 00
        E 0 90 42 4d
        E 92 90 45 00
        E 0 90 45 48
        E 36 90 51 55
        E 56 90 56 00
        E 5 90 3e 4d
        E 0 90 42 00
        E 0 90 42 47
        E 0 90 45 00
        E 0 90 45 42
        E 0 90 4e 5b
        E 0 90 51 00
        E 0 90 51 39
        E 97 90 51 00
        E 5 90 45 00
        E 0 90 45 50
        E 92 90 42 00
        E 0 90 42 64
        E 11 90 4e 00
        E 86 90 3e 00
        E 0 90 3e 38
        E 0 90 42 00
        E 0 90 42 58
        E 0 90 45 00
        E 0 90 45 59
        E 92 90 45 00
        E 0 90 45 4d
        E 0 90 51 3d
        E 5 90 42 00
        E 0 90 42 56
        E 41 90 3e 00
        E 41 90 45 00
        E 0 90 45 55
        E 41 90 42 00
        E 0 90 42 44
        E 0 90 4e 44
        E 61 90 4a 51
        E 6 90 39 3a
        E 0 90 42 00
        E 0 90 42 4e
        E 0 90 45 00
        E 0 90 45 39
        E 76 90 4e 00
        E 5 90 51 00
        E 26 90 42 00
        E 0 90 42 45
        E 0 90 45 00
        E 0 90 45 57
        E 82 90 4a 00
        E 0 90 4a 5f
        E 5 90 42 00
        E 0 90 42 52
        E 0 90 45 00
        E 0 90 45 43
        E 92 90 45 00
        E 0 90 45 42
        E 102 90 3d 2d
        E 5 90 39 00
        E 0 90 42 00
        E 16 90 4a 00
        E 20 90 4c 57
        E 21 90 3d 00
        E 5 90 4e 36
        E 56 90 4a 47
        E 31 90 4c 00
        E 0 90 4c 4b
        E 5 90 45 00
        E 0 90 45 30
        E 35 90 4a 00
        E 11 90 3e 39
        E 0 90 42 3e
        E 0 90 4e 00
        E 0 90 4e 4a
        E 25 90 45 00
        E 148 90 3e 00
        E 11 90 4c 00
        E 35 90 3e 30
        E 0 90 4a 4d
        E 159 90 4e 00
        E 5 90 3e 00
        E 0 90 42 00
        E 41 90 45 61
        E 189 90 4a 00
        E 31 90 51 4e
        E 5 90 45 00
        E 0 90 45 43
        E 15 90 3e 3d
        E 16 90 42 30
        E 92 90 45 00
        E 0 90 45 54
        E 102 90 42 00
        E 0 90 42 5d
        E 30 90 51 00
        E 57 90 45 00
        E 0 90 45 4f
        E 76 90 3e 00
        E 31 90 42 00
        E 0 90 42 5a
        E 0 90 56 5e
        E 10 90 45 00
        E 82 90 56 00
        E 0 90 56 4c
        E 5 90 42 00
        E 0 90 42 3e
        E 36 90 45 36
        E 5 90 51 4a
        E 61 90 42 00
        E 0 90 42 4c
        E 0 90 4e 4c
        E 5 90 3e 4a
        E 21 90 45 00
        E 31 90 56 00
        E 41 90 45 4b
        E 5 90 51 00
        E 92 90 42 00
        E 0 90 42 62
        E 0 90 4e 00
        E 92 90 3e 00
        E 0 90 3e 3e
        E 0 90 45 00
        E 0 90 45 5e
        E 97 90 3e 00
        E 10 90 42 00
        E 0 90 42 3e
        E 0 90 45 00
        E 0 90 45 43
        E 41 90 50 34
        E 92 90 45 00
        E 0 90 45 39
        E 0 90 4e 4a
        E 5 90 50 00
        E 61 90 4a 3d
        E 5 90 45 00
        E 11 90 39 2f
        E 10 90 42 00
        E 0 90 42 4b
        E 61 90 4e 00
        E 10 90 39 00
        E 5 90 4a 00
        E 16 90 39 29
        E 0 90 42 00
        E 0 90 42 3b
        E 0 90 45 4f
        E 92 90 39 00
        E 0 90 4a 51
        E 10 90 42 00
        E 0 90 42 49
        E 87 90 45 00
        E 0 90 45 4a
        E 92 90 42 00
        E 21 90 4c 3e
        E 5 90 43 39
        E 41 90 4a 00
        E 0 90 4a 46
        E 5 90 3d 41
        E 36 90 43 00
        E 5 90 45 00
        E 0 90 45 39
        E 0 90 4c 00
        E 0 90 4c 3c
        E 20 90 3d 00
        E 15 90 4a 00
        E 0 90 4e 51
        E 36 90 45 00
        E 15 90 4c 00
        E 26 90 3e 3d
        E 0 90 4a 44
        E 209 90 39 41
        E 6 90 4e 00
        E 40 90 4a 00
        E 46 90 3e 00
        E 87 90 39 00
        E 92 e0 55 4a
        E 0 90 32 44
        E 5 e0 55 4a
        E 5 e0 55 4a
        E 6 e0 55 4a
        E 5 e0 55 4a
        E 5 e0 55 4a
        E 5 e0 55 4a
        E 5 e0 55 4a
        E 5 e0 55 4a
        E 5 e0 55 4a
        E 5 e0 55 4a
        E 6 e0 55 4a
        E 5 e0 55 4a
        E 5 e0 55 4a
        E 5 e0 55 4a
        E 5 e0 55 4a
        E 5 e0 55 4a
        E 5 e0 55 4a
        E 5 e0 55 4a
        E 6 e0 55 4a
        E 5 e0 55 4a
        E 5 e0 55 4a
        E 5 e0 55 4a
        E 5 e0 55 4a
        E 5 e0 55 4a
        E 5 e0 55 4a
        E 5 e0 55 4a
        E 6 e0 55 4a
        E 5 e0 55 4a
        E 5 e0 55 4a
        E 5 e0 55 4a
        E 5 e0 55 4a
        E 5 e0 55 4a
        E 5 e0 55 4a
        E 5 e0 55 4a
        E 0 90 32 00
        E 159 90 42 46
        E 10 90 3e 2b
        E 41 90 53 40
        E 20 90 3e 00
        E 46 90 53 00
        E 11 90 51 49
        E 25 90 42 00
        E 72 90 45 38
        E 0 90 51 00
        E 0 90 51 54
        E 51 90 42 34
        E 35 90 45 00
        E 0 90 45 2b
        E 0 90 51 00
        E 0 90 51 55
        E 46 90 42 00
        E 46 90 45 00
        E 0 90 45 33
        E 0 90 51 00
        E 0 90 51 57
        E 51 90 53 3b
        E 6 90 42 3c
        E 46 90 51 00
        E 0 90 51 4c
        E 46 90 56 3c
        E 25 90 53 00
        E 20 90 51 00
        E 0 90 51 44
        E 47 90 4f 42
        E 5 90 45 00
        E 15 90 51 00
        E 21 90 56 00
        E 5 90 3e 3a
        E 0 90 42 00
        E 0 90 42 3d
        E 15 90 4f 00
        E 36 90 45 36
        E 0 90 4d 46
        E 51 90 3e 00
        E 16 90 4d 00
        E 0 90 4d 59
        E 35 90 45 00
        E 31 90 4d 00
        E 0 90 4e 42
        E 5 90 42 00
        E 0 90 42 42
        E 41 90 45 34
        E 41 90 4e 00
        E 0 90 4e 3f
        E 46 90 42 00
        E 0 90 42 41
        E 10 90 45 00
        E 41 90 4e 00
        E 0 90 4e 4e
        E 46 90 51 3c
        E 5 90 45 38
        E 41 90 42 00
        E 10 90 4e 00
        E 0 90 4e 42
        E 41 90 45 00
        E 15 90 39 39
        E 5 90 42 44
        E 31 90 51 00
        E 20 90 4a 4c
        E 16 90 4e 00
        E 25 90 45 53
        E 10 90 42 00
        E 0 90 42 28
        E 46 90 4a 00
        E 0 90 4a 59
        E 11 90 45 00
        E 0 90 45 2c
        E 30 90 4c 46
        E 5 90 42 00
        E 0 90 42 43
        E 36 90 4a 00
        E 0 90 4a 58
        E 41 90 45 00
        E 0 90 45 37
        E 16 90 39 00
        E 10 90 4c 00
        E 21 90 4a 00
        E 0 90 4a 4d
        E 15 90 42 00
        E 31 90 4e 36
        E 5 90 3d 32
        E 41 90 4c 3e
        E 35 90 4a 00
        E 16 90 45 00
        E 0 90 45 32
        E 10 90 3d 00
        E 30 90 4c 00
        E 0 90 4c 3d
        E 46 90 4e 00
        E 0 90 4e 4b
        E 6 90 42 44
        E 30 90 45 00
        E 10 90 4c 00
        E 11 90 3e 36
        E 46 90 42 00
        E 0 90 42 3e
        E 0 90 49 46
        E 20 90 3e 00
        E 0 90 4c 47
        E 15 90 4e 00
        E 46 90 49 00
        E 5 90 42 00
        E 6 90 3e 2a
        E 0 90 4a 43
        E 5 90 4c 00
        E 92 90 3e 00
        E 25 90 4a 00
        E 10 90 4c 40
        E 57 90 4e 45
        E 40 90 51 36
        E 11 90 4c 00
        E 41 90 4e 00
        E 0 90 4f 3b
        E 40 90 53 4d
        E 57 90 3e 3e
        E 0 90 51 00
        E 20 90 42 3a
        E 11 90 53 00
        E 41 90 3e 00
        E 0 90 3e 2e
        E 0 90 4f 00
        E 5 90 51 30
        E 30 90 42 00
        E 11 90 53 4c
        E 51 90 45 33
        E 0 90 51 00
        E 0 90 51 43
        E 46 90 42 45
        E 0 90 53 00
        E 0 90 53 5b
        E 46 90 51 00
        E 0 90 51 4d
        E 35 90 3e 00
        E 11 90 42 00
        E 0 90 42 25
        E 0 90 53 00
        E 0 90 53 4b
        E 46 90 45 00
        E 0 90 45 35
        E 0 90 51 00
        E 0 90 51 47
        E 40 90 42 00
        E 0 90 42 3d
        E 16 90 53 00
        E 10 90 45 00
        E 20 90 51 00
        E 0 90 51 4b
        E 46 90 42 00
        E 46 90 51 00
        E 0 90 51 49
        E 52 90 3e 3a
        E 0 90 42 32
        E 45 90 4e 2e
        E 26 90 51 00
        E 10 90 42 00
        E 56 90 4e 00
        E 0 90 4e 4f
        E 36 90 42 45
        E 51 90 4e 00
        E 0 90 4e 49
        E 51 90 45 2b
        E 11 90 3e 00
        E 25 90 4e 00
        E 0 90 4e 4d
        E 42 90 45 00
        E 10 90 42 00
        E 0 90 42 3e
        E 41 90 4e 00
        E 0 90 4e 5d
        E 51 90 45 3a
        E 46 90 4e 00
        E 0 90 4e 4a
        E 30 90 45 00
        E 21 90 39 39
        E 5 90 42 00
        E 0 90 42 37
        E 36 90 4a 52
        E 5 90 4e 00
        E 0 90 4e 3e
        E 41 90 4c 37
        E 5 90 39 00
        E 0 90 39 3b
        E 0 90 45 36
        E 10 90 42 00
        E 15 90 4e 00
        E 16 90 4a 00
        E 0 90 4a 4e
        E 46 90 42 3d
        E 15 90 45 00
        E 25 90 4a 00
        E 0 90 4a 55
        E 46 90 39 00
        E 0 90 39 2f
        E 0 90 45 3e
        E 0 90 4c 00
        E 0 90 4c 3f
        E 46 90 4a 00
        E 0 90 4a 49
        E 5 90 42 00
        E 52 90 3d 3b
        E 5 90 39 00
        E 30 90 4c 00
        E 0 90 4c 4d
        E 21 90 4a 00
        E 25 90 4e 4b
        E 5 90 3d 00
        E 0 90 45 00
        E 0 90 45 37
        E 36 90 4c 00
        E 0 90 4c 40
        E 67 90 42 3c
        E 25 90 4e 00
        E 10 90 45 00
        E 16 90 3e 40
        E 5 90 4c 00
        E 31 90 49 44
        E 5 90 4c 2f
        E 10 90 45 23
        E 31 90 47 44
        E 10 90 3e 00
        E 31 90 45 00
        E 5 90 45 4a
        E 0 90 49 00
        E 10 90 4c 00
        E 5 90 47 00
        E 77 90 42 00
        E 0 90 42 4f
        E 41 90 40 5b
        E 25 90 42 00
        E 41 90 40 00
        E 0 90 40 3a
        E 5 90 3e 56
        E 0 90 45 00
        E 0 90 45 38
        E 108 90 45 00
        E 35 90 40 00
        E 128 90 42 3e
        E 46 90 53 48
        E 5 90 3e 00
        E 0 90 3e 48
        E 56 90 51 2c
        E 5 90 3e 00
        E 0 90 3e 3a
        E 6 90 53 00
        E 20 90 42 00
        E 56 90 45 39
        E 5 90 51 00
        E 0 90 51 40
        E 46 90 42 42
        E 36 90 3e 00
        E 0 90 3e 32
        E 0 90 51 00
        E 0 90 51 38
        E 62 90 42 00
        E 20 90 51 00
        E 0 90 51 46
        E 41 90 3e 00
        E 5 90 53 36
        E 5 90 42 36
        E 11 90 45 00
        E 30 90 51 00
        E 0 90 51 49
        E 41 90 53 00
        E 5 90 56 3a
        E 16 90 42 00
        E 30 90 45 32
        E 51 90 51 00
        E 10 90 45 00
        E 21 90 56 00
        E 15 90 3e 38
        E 0 90 42 32
        E 46 90 45 2d
        E 0 90 4d 4c
        E 62 90 4d 00
        E 0 90 4d 55
        E 20 90 42 00
        E 0 90 42 40
        E 31 90 45 00
        E 20 90 4d 00
        E 0 90 4e 3d
        E 41 90 3e 00
        E 0 90 3e 31
        E 46 90 4e 00
        E 0 90 4e 4a
        E 56 90 3e 00
        E 36 90 42 00
        E 0 90 42 33
        E 0 90 4e 00
        E 0 90 4e 58
        E 25 90 45 43
        E 31 90 51 37
        E 41 90 4e 00
        E 0 90 4e 37
        E 41 90 45 00
        E 10 90 39 47
        E 0 90 42 00
        E 0 90 42 41
        E 36 90 51 00
        E 11 90 4a 49
        E 25 90 4e 00
        E 26 90 39 00
        E 0 90 39 38
        E 0 90 45 39
        E 5 90 42 00
        E 35 90 4a 00
        E 0 90 4a 5a
        E 41 90 45 00
        E 0 90 4c 3f
        E 5 90 42 3c
        E 36 90 4a 00
        E 0 90 4a 5d
        E 41 90 39 00
        E 10 90 45 45
        E 0 90 4c 00
        E 31 90 42 00
        E 10 90 4a 00
        E 0 90 4a 4e
        E 51 90 4e 45
        E 5 90 3d 3a
        E 21 90 45 00
        E 25 90 4c 38
        E 11 90 4a 00
        E 40 90 3d 00
        E 21 90 4e 00
        E 15 90 4c 00
        E 0 90 4c 3e
        E 26 90 45 32
        E 30 90 42 40
        E 0 90 4e 3b
        E 31 90 45 00
        E 26 90 3e 3e
        E 35 90 49 3d
        E 36 90 4e 00
        E 41 90 49 00
        E 0 90 4c 00
        E 10 90 3e 00
        E 0 90 3e 36
        E 5 90 4a 49
        E 41 90 4e 42
        E 26 90 4a 00
        E 10 90 42 00
        E 10 90 4c 40
        E 15 90 3e 00
        E 67 90 4c 00
        E 6 90 4e 00
        E 0 90 4e 4f
        E 45 90 51 43
        E 46 90 4e 00
        E 0 90 4f 3a
        E 26 90 51 00
        E 20 90 53 50
        E 62 90 3e 3d
        E 5 90 42 3e
        E 0 90 4f 00
        E 41 90 53 00
        E 35 90 51 2f
        E 31 90 42 00
        E 15 90 53 4f
        E 46 90 3e 00
        E 0 90 3e 2d
        E 0 90 45 33
        E 0 90 51 00
        E 0 90 51 51
        E 46 90 53 00
        E 0 90 53 55
        E 6 90 42 4d
        E 30 90 45 00
        E 15 90 51 00
        E 0 90 51 48
        E 36 90 3e 00
        E 10 90 53 00
        E 0 90 53 4d
        E 6 90 42 00
        E 0 90 42 28
        E 40 90 45 32
        E 0 90 51 00
        E 0 90 51 4b
        E 52 90 42 00
        E 0 90 42 3c
        E 5 90 53 00
        E 30 90 51 00
        E 0 90 51 4f
        E 36 90 56 4a
        E 41 90 42 00
        E 15 90 45 00
        E 0 90 45 3c
        E 0 90 51 00
        E 0 90 51 49
        E 5 90 56 00
        E 46 90 3e 4f
        E 11 90 4d 55
        E 5 90 45 00
        E 46 90 3e 00
        E 5 90 3e 4b
        E 0 90 42 34
        E 0 90 4d 00
        E 0 90 4e 49
        E 51 90 51 00
        E 46 90 3e 00
        E 0 90 3e 37
        E 0 90 45 31
        E 0 90 4e 00
        E 0 90 4e 49
        E 51 90 42 00
        E 0 90 42 43
        E 11 90 45 00
        E 25 90 4e 00
        E 0 90 4e 34
        E 51 90 45 45
        E 10 90 3e 00
        E 26 90 4e 00
        E 0 90 4e 49
        E 46 90 45 00
        E 0 90 45 35
        E 46 90 42 00
        E 0 90 42 3c
        E 5 90 4e 00
        E 0 90 4e 56
        E 46 90 51 41
        E 36 90 45 00
        E 0 90 45 43
        E 0 90 4e 00
        E 0 90 4e 4d
        E 36 90 51 00
        E 25 90 39 3e
        E 0 90 45 00
        E 5 90 42 00
        E 0 90 42 3f
        E 41 90 4a 4e
        E 26 90 4e 00
        E 15 90 39 00
        E 0 90 39 3e
        E 0 90 4c 34
        E 15 90 42 00
        E 26 90 4a 00
        E 0 90 4a 4f
        E 5 90 45 34
        E 46 90 42 47
        E 0 90 4c 00
        E 20 90 45 00
        E 21 90 4a 00
        E 0 90 4a 52
        E 46 90 39 00
        E 0 90 39 2b
        E 0 90 4c 33
        E 5 90 45 3b
        E 41 90 42 00
        E 46 90 39 00
        E 5 90 3d 38
        E 0 90 43 3a
        E 0 90 45 00
        E 0 90 4a 00
        E 31 90 4c 00
        E 0 90 4c 47
        E 26 90 43 00
        E 20 90 4e 52
        E 10 90 3d 00
        E 82 90 4c 00
        E 0 90 4c 3d
        E 5 90 4e 00
        E 10 90 42 4e
        E 41 90 3e 3f
        E 51 90 42 00
        E 0 90 42 39
        E 0 90 49 40
        E 41 90 47 2e
        E 31 90 3e 00
        E 0 90 49 00
        E 0 90 4c 00
        E 5 90 42 00
        E 10 90 45 41
        E 87 90 42 3a
        E 41 90 47 00
        E 5 90 40 55
        E 61 90 3e 4e
        E 0 90 40 00
        E 0 90 40 36
        E 0 90 45 00
        E 0 90 45 33
        E 118 90 45 00
        E 41 90 40 00
        E 0 90 42 00
        E 137 90 39 44
        E 0 90 4c 4d
        E 42 90 3e 00
        E 20 90 49 42
        E 31 90 40 47
        E 0 90 45 4f
        E 5 90 4c 00
        E 41 90 4c 49
        E 5 90 49 00
        E 0 90 49 4a
        E 41 90 40 00
        E 0 90 40 3e
        E 46 90 3d 38
        E 0 90 45 00
        E 0 90 49 00
        E 0 90 49 4b
        E 0 90 4c 00
        E 0 90 4c 3e
        E 31 90 40 00
        E 0 90 40 45
        E 10 90 2d 35
        E 10 90 4f 4f
        E 41 90 40 00
        E 0 90 40 41
        E 15 90 2d 00
        E 5 90 3d 00
        E 0 90 49 00
        E 16 90 39 00
        E 10 90 4f 00
        E 5 90 3e 49
        E 0 90 4c 00
        E 0 90 4f 21
        E 31 90 40 00
        E 15 90 4a 3a
        E 31 90 4f 00
        E 15 90 3e 00
        E 0 90 3e 39
        E 0 90 42 3f
        E 0 90 51 46
        E 46 90 4e 49
        E 25 90 42 00
        E 31 90 40 44
        E 5 90 39 45
        E 31 90 3e 00
        E 10 90 4a 00
        E 15 90 4e 00
        E 11 90 51 00
        E 20 90 55 40
        E 5 90 40 00
        E 0 90 40 32
        E 46 90 51 4e
        E 41 90 55 00
        E 123 90 55 47
        E 10 90 51 00
        E 26 90 53 39
        E 10 90 39 00
        E 10 90 55 00
        E 31 90 40 00
        E 87 90 4e 3c
        E 0 90 53 00
        E 41 90 4c 40
        E 51 90 4e 00
        E 0 90 4e 53
        E 46 90 4c 00
        E 15 90 4a 36
        E 5 90 3e 4a
        E 46 90 42 40
        E 36 90 4a 00
        E 0 90 4a 46
        E 41 90 42 00
        E 0 90 42 37
        E 0 90 45 41
        E 5 90 3e 00
        E 0 90 3e 46
        E 46 90 4a 00
        E 0 90 4a 47
        E 10 90 4e 00
        E 0 90 4e 43
        E 36 90 3e 00
        E 0 90 3e 3f
        E 0 90 45 00
        E 0 90 45 31
        E 0 90 51 3f
        E 41 90 42 00
        E 0 90 42 40
        E 5 90 4e 00
        E 0 90 4e 41
        E 41 90 40 43
        E 5 90 4a 00
        E 20 90 42 00
        E 21 90 3e 00
        E 5 90 4c 30
        E 5 90 51 00
        E 5 90 4e 00
        E 10 90 45 00
        E 21 90 40 00
        E 0 90 40 47
        E 0 90 53 38
        E 46 90 43 3b
        E 0 90 4f 4d
        E 35 90 53 00
        E 26 90 3e 3c
        E 0 90 43 00
        E 0 90 51 40
        E 10 90 4c 00
        E 0 90 4f 00
        E 5 90 40 00
        E 36 90 42 41
        E 0 90 4e 42
        E 11 90 51 00
        E 20 90 4a 4d
        E 10 90 3e 00
        E 0 90 3e 2f
        E 52 90 4a 00
        E 5 90 49 44
        E 25 90 4e 00
        E 21 90 4c 49
        E 10 90 42 00
        E 25 90 49 00
        E 11 90 4a 50
        E 20 90 3e 00
        E 5 90 4c 00
        E 15 90 42 2d
        E 0 90 4e 48
        E 21 90 4a 00
        E 66 90 42 00
        E 62 90 4e 00
        E 0 90 4e 54
        E 40 90 51 41
        E 52 90 4e 00
        E 0 90 4f 3e
        E 66 90 3e 53
        E 0 90 51 00
        E 20 90 53 43
        E 11 90 4f 00
        E 0 90 4f 3d
        E 51 90 3e 00
        E 0 90 3e 49
        E 5 90 53 00
        E 92 90 42 31
        E 0 90 4e 39
        E 0 90 4f 00
        E 46 90 45 39
        E 0 90 4c 46
        E 46 90 4a 57
        E 5 90 3e 00
        E 0 90 3e 33
        E 20 90 4e 00
        E 5 90 4c 00
        E 21 90 42 00
        E 0 90 42 47
        E 41 90 45 00
        E 5 90 3e 00
        E 0 90 3e 32
        E 5 90 4a 00
        E 0 90 4a 4f
        E 57 90 3e 00
        E 0 90 53 46
        E 5 90 42 00
        E 56 90 4a 00
        E 25 90 53 00
        E 36 90 4a 31
        E 0 90 56 4b
        E 5 90 47 35
        E 41 90 53 45
        E 26 90 4a 00
        E 0 90 56 00
        E 36 90 42 42
        E 5 90 53 00
        E 15 90 47 00
        E 20 90 3e 47
        E 0 90 51 2a
        E 41 90 53 46
        E 46 90 51 00
        E 0 90 51 3b
        E 5 90 3e 00
        E 0 90 3e 2c
        E 0 90 42 00
        E 0 90 42 29
        E 0 90 45 36
        E 77 90 53 00
        E 5 90 4e 3c
        E 20 90 42 00
        E 26 90 4c 3b
        E 5 90 45 00
        E 0 90 51 00
        E 15 90 4e 00
        E 16 90 4a 40
        E 5 90 3e 00
        E 0 90 3e 35
        E 46 90 4c 00
        E 10 90 53 31
        E 5 90 3e 00
        E 0 90 43 36
        E 97 90 43 00
        E 0 90 43 3e
        E 5 90 56 4c
        E 36 90 53 00
        E 0 90 53 51
        E 5 90 47 33
        E 41 90 56 00
        E 10 90 43 00
        E 1 90 4a 00
        E 10 90 42 51
        E 5 90 53 00
        E 0 90 53 3d
        E 41 90 47 00
        E 15 90 42 00
        E 6 90 3e 3b
        E 0 90 42 41
        E 0 90 51 34
        E 25 90 45 3c
        E 26 90 56 3e
        E 51 90 51 00
        E 0 90 51 48
        E 5 90 42 00
        E 15 90 3e 00
        E 10 90 53 00
        E 26 90 40 3d
        E 0 90 45 00
        E 0 90 45 36
        E 51 90 3d 37
        E 0 90 56 00
        E 5 90 4f 59
        E 0 90 51 00
        E 56 90 40 00
        E 0 90 40 38
        E 5 90 45 00
        E 0 90 45 3a
        E 0 90 58 39
        E 57 90 40 00
        E 0 90 4f 00
        E 0 90 4f 46
        E 15 90 3d 00
        E 36 90 58 00
        E 5 90 3e 44
        E 5 90 42 4b
        E 51 90 4f 00
        E 15 90 42 00
        E 0 90 42 41
        E 5 90 4e 59
        E 11 90 3e 00
        E 0 90 3e 3c
        E 35 90 45 00
        E 16 90 56 44
        E 56 90 4e 00
        E 0 90 4e 63
        E 5 90 42 00
        E 87 90 3e 00
        E 25 90 4e 00
        E 0 90 4e 51
        E 0 90 56 00
        E 16 90 39 38
        E 0 90 3d 34
        E 66 90 39 00
        E 0 90 39 3b
        E 0 90 4c 4a
        E 57 90 4b 50
        E 0 90 4c 00
        E 25 90 4e 00
        E 6 90 39 00
        E 45 90 3d 00
        E 11 90 4b 00
        E 0 90 4c 43
        E 20 90 4a 51
        E 87 90 4c 00
        E 10 90 4a 00
        E 0 90 4a 52
        E 41 90 48 4a
        E 20 90 39 2d
        E 52 90 48 00
        E 0 90 49 4c
        E 0 90 4a 00
        E 71 90 39 00
        E 21 90 47 38
        E 10 90 49 00
        E 61 90 45 59
        E 5 90 39 2e
        E 67 90 39 00
        E 15 90 45 00
        E 0 90 45 39
        E 66 90 47 00
        E 31 90 44 3f
        E 0 90 45 00
        E 148 90 3e 45
        E 10 90 42 4b
        E 32 90 53 44
        E 20 90 44 00
        E 41 90 53 00
        E 10 90 3e 00
        E 0 90 3e 34
        E 0 90 45 3a
        E 0 90 51 3f
        E 66 90 42 00
        E 36 90 45 00
        E 0 90 45 32
        E 0 90 51 00
        E 0 90 51 4e
        E 51 90 3e 00
        E 5 90 42 48
        E 41 90 51 00
        E 0 90 51 4b
        E 87 90 51 00
        E 0 90 51 48
        E 5 90 45 00
        E 0 90 45 36
        E 31 90 42 00
        E 15 90 53 3a
        E 5 90 42 31
        E 46 90 51 00
        E 0 90 51 48
        E 41 90 56 46
        E 5 90 45 00
        E 0 90 45 39
        E 21 90 42 00
        E 10 90 53 00
        E 25 90 56 00
        E 31 90 51 00
        E 5 90 3e 4a
        E 0 90 42 36
        E 0 90 45 00
        E 0 90 4f 48
        E 67 90 4f 00
        E 10 90 42 00
        E 10 90 4d 4a
        E 46 90 3e 00
        E 0 90 3e 2f
        E 46 90 4d 00
        E 0 90 4d 59
        E 36 90 3e 00
        E 15 90 42 3c
        E 10 90 4d 00
        E 0 90 4d 53
        E 32 90 45 35
        E 15 90 42 00
        E 30 90 4d 00
        E 0 90 4e 4c
        E 57 90 42 42
        E 0 90 45 00
        E 41 90 4e 00
        E 0 90 4e 51
        E 51 90 45 41
        E 5 90 51 3c
        E 35 90 4e 00
        E 0 90 4e 43
        E 62 90 39 3e
        E 5 90 42 00
        E 0 90 42 40
        E 5 90 45 00
        E 31 90 51 00
        E 5 90 4a 4c
        E 46 90 4e 00
        E 10 90 45 31
        E 15 90 42 00
        E 26 90 4a 00
        E 0 90 4a 55
        E 36 90 45 00
        E 5 90 39 00
        E 0 90 39 3b
        E 0 90 4c 47
        E 5 90 42 3d
        E 41 90 4a 00
        E 0 90 4a 53
        E 41 90 39 00
        E 5 90 45 38
        E 35 90 42 00
        E 6 90 4c 00
        E 5 90 4a 00
        E 0 90 4a 51
        E 46 90 4e 44
        E 5 90 3d 34
        E 5 90 45 00
        E 36 90 4c 38
        E 56 90 4a 00
        E 5 90 3d 00
        E 20 90 4e 00
        E 16 90 45 32
        E 0 90 4c 00
        E 0 90 4c 37
        E 51 90 4e 3f
        E 11 90 42 49
        E 30 90 45 00
        E 10 90 3e 3d
        E 41 90 49 43
        E 26 90 4e 00
        E 5 90 3e 00
        E 10 90 4c 00
        E 0 90 4c 39
        E 31 90 42 00
        E 5 90 49 00
        E 5 90 4a 49
        E 10 90 3e 34
        E 31 90 4e 45
        E 20 90 4a 00
        E 36 90 4c 00
        E 0 90 4c 4b
        E 5 90 4e 00
        E 5 90 3e 00
        E 82 90 4e 56
        E 5 90 4c 00
        E 41 90 51 3a
        E 46 90 4e 00
        E 0 90 4f 3f
        E 46 90 53 4e
        E 51 90 3e 3c
        E 10 90 51 00
        E 5 90 42 39
        E 26 90 4f 00
        E 10 90 50 3d
        E 10 90 53 00
        E 51 90 50 00
        E 0 90 51 39
        E 21 90 42 00
        E 25 90 53 48
        E 5 90 3e 00
        E 36 90 45 3d
        E 0 90 51 00
        E 0 90 51 48
        E 51 90 53 00
        E 0 90 53 57
        E 5 90 42 39
        E 41 90 45 00
        E 0 90 45 28
        E 0 90 51 00
        E 0 90 51 49
        E 47 90 53 00
        E 0 90 53 53
        E 46 90 45 00
        E 0 90 45 34
        E 0 90 51 00
        E 0 90 51 3a
        E 46 90 42 00
        E 0 90 42 42
        E 25 90 53 00
        E 21 90 51 00
        E 0 90 51 4e
        E 41 90 56 34
        E 35 90 42 00
        E 67 90 45 00
        E 0 90 51 00
        E 0 90 51 3b
        E 10 90 42 38
        E 15 90 56 00
        E 26 90 4e 33
        E 5 90 3e 3c
        E 15 90 51 00
        E 21 90 42 00
        E 51 90 4e 00
        E 0 90 4e 48
        E 46 90 3e 00
        E 46 90 42 3b
        E 0 90 4e 00
        E 0 90 4e 4b
        E 10 90 3e 29
        E 51 90 45 3c
        E 31 90 4e 00
        E 0 90 4e 52
        E 25 90 3e 00
        E 56 90 45 00
        E 16 90 42 00
        E 0 90 42 38
        E 5 90 4e 00
        E 0 90 4e 5a
        E 46 90 45 38
        E 15 90 42 00
        E 31 90 4e 00
        E 0 90 4e 4b
        E 46 90 45 00
        E 5 90 39 38
        E 11 90 42 3f
        E 35 90 4a 4e
        E 31 90 4e 00
        E 26 90 42 00
        E 35 90 4a 00
        E 0 90 4a 49
        E 51 90 42 42
        E 26 90 39 00
        E 15 90 4a 00
        E 0 90 4a 60
        E 46 90 45 2b
        E 0 90 4c 2f
        E 41 90 4a 00
        E 0 90 4a 43
        E 41 90 45 00
        E 21 90 3d 3a
        E 0 90 4a 00
        E 10 90 42 00
        E 20 90 4c 00
        E 0 90 4c 44
        E 51 90 4e 4d
        E 21 90 45 2d
        E 5 90 3d 00
        E 20 90 4c 00
        E 0 90 4c 40
        E 77 90 3e 41
        E 0 90 42 50
        E 5 90 4e 00
        E 82 90 42 00
        E 0 90 42 3e
        E 0 90 49 48
        E 5 90 4c 00
        E 41 90 47 44
        E 30 90 49 00
        E 21 90 42 00
        E 0 90 45 00
        E 0 90 45 4a
        E 5 90 3e 00
        E 5 90 47 00
        E 71 90 42 3c
        E 27 90 45 00
        E 25 90 40 58
        E 36 90 45 36
        E 25 90 3e 51
        E 0 90 40 00
        E 0 90 40 38
        E 62 90 45 00
        E 92 90 40 00
        E 0 90 42 00
        E 122 90 32 56
        E 5 90 3e 00
        E 0 90 3e 3d
        E 31 90 4a 42
        E 0 90 4e 42
        E 0 90 51 43
        E 56 90 32 00
        E 0 90 32 47
        E 0 90 3e 00
        E 0 90 3e 40
        E 41 90 51 00
        E 26 90 32 00
        E 0 90 4a 00
        E 30 90 3e 00
        E 0 90 3e 47
        E 46 90 40 3f
        E 56 90 3e 00
        E 0 90 3e 44
        E 52 90 40 00
        E 35 90 3e 00
        E 0 90 3e 45
        E 11 90 4e 00
        E 35 90 39 45
        E 0 90 56 48
        E 46 90 3e 00
        E 0 90 3e 3f
        E 31 90 56 00
        E 5 90 4a 26
        E 87 90 32 48
        E 6 90 4a 00
        E 5 90 39 00
        E 0 90 39 2f
        E 0 90 4a 3a
        E 0 90 4e 40
        E 51 90 32 00
        E 5 90 32 43
        E 5 90 3e 00
        E 0 90 3e 3e
        E 31 90 39 00
        E 56 90 4a 00
        E 5 90 32 00
        E 0 90 3e 00
        E 0 90 3e 53
        E 0 90 45 2d
        E 0 90 4a 25
        E 41 90 40 3b
        E 30 90 45 00
        E 21 90 3e 00
        E 0 90 3e 4d
        E 56 90 4a 00
        E 5 90 40 00
        E 21 90 3e 00
        E 0 90 3e 4a
        E 20 90 4e 00
        E 31 90 39 43
        E 46 90 3e 00
        E 0 90 3e 4d
        E 46 90 36 32
        E 71 90 39 00
        E 10 90 3e 00
        E 0 90 3e 37
        E 0 90 42 2e
        E 0 90 4a 48
        E 5 90 2f 51
        E 0 90 3b 29
        E 31 90 36 00
        E 31 90 32 36
        E 66 90 3b 00
        E 0 90 3b 43
        E 5 90 2f 00
        E 0 90 2f 30
        E 0 90 32 00
        E 5 90 3e 00
        E 26 90 42 00
        E 31 90 2b 5b
        E 5 90 3b 00
        E 15 90 4a 00
        E 10 90 4c 4a
        E 11 90 2f 00
        E 0 90 2f 41
        E 26 90 34 38
        E 25 90 37 3a
        E 10 90 2b 00
        E 0 90 2b 46
        E 11 90 2f 00
        E 5 90 40 30
        E 40 90 37 00
        E 16 90 2d 4b
        E 0 90 34 00
        E 0 90 34 2d
        E 0 90 39 2e
        E 0 90 4c 00
        E 0 90 4c 39
        E 0 90 4f 49
        E 5 90 2b 00
        E 0 90 49 33
        E 41 90 40 00
        E 46 90 34 00
        E 0 90 34 3a
        E 30 90 39 00
        E 0 90 39 3f
        E 46 90 49 00
        E 6 90 4c 00
        E 5 90 32 54
        E 15 90 3e 2a
        E 0 90 4e 45
        E 0 90 4f 00
        E 10 90 39 00
        E 26 90 2d 00
        E 10 90 32 00
        E 5 90 32 49
        E 20 90 34 00
        E 11 90 3e 00
        E 15 90 49 49
        E 82 90 49 00
        E 5 90 4a 45
        E 46 90 4e 00
        E 0 90 4e 46
        E 46 90 4c 4a
        E 25 90 4a 00
        E 26 90 32 00
        E 41 90 4e 00
        E 0 90 4e 54
        E 25 90 4c 00
        E 67 e0 55 4a
        E 0 90 4e 00
        E 0 90 4f 3c
        E 5 e0 55 4a
        E 6 e0 55 4a
        E 5 e0 55 4a
        E 6 e0 55 4a
        E 6 e0 55 4a
        E 5 e0 55 4a
        E 6 e0 2b 55
        E 5 e0 2b 55
        E 6 e0 2b 55
        E 5 e0 2b 55
        E 6 e0 2b 55
        E 0 90 4f 00
        E 31 90 32 3b
        E 0 90 51 41
        E 5 90 4a 43
        E 0 90 4e 5a
        E 41 90 3e 57
        E 21 90 4e 00
        E 0 90 4e 3f
        E 35 90 51 00
        E 5 90 32 00
        E 31 90 4a 00
        E 10 90 3e 00
        E 0 90 3e 55
        E 41 90 40 38
        E 41 90 3e 00
        E 0 90 3e 55
        E 56 90 40 00
        E 26 90 3e 00
        E 0 90 3e 50
        E 20 90 4e 00
        E 31 90 39 44
        E 41 90 3e 00
        E 0 90 3e 47
        E 41 90 36 31
        E 0 90 42 26
        E 56 90 32 3b
        E 5 90 36 00
        E 0 90 36 2d
        E 25 90 45 24
        E 0 90 4e 3b
        E 6 90 4a 31
        E 10 90 39 00
        E 0 90 42 00
        E 36 90 36 00
        E 10 90 32 00
        E 0 90 32 40
        E 0 90 3e 00
        E 0 90 3e 40
        E 5 90 45 00
        E 71 90 4a 00
        E 6 90 32 00
        E 10 90 3e 00
        E 0 90 3e 51
        E 0 90 45 2d
        E 87 90 3e 00
        E 0 90 3e 4b
        E 0 90 40 39
        E 20 90 45 00
        E 41 90 40 00
        E 0 90 4e 00
        E 15 90 3e 00
        E 0 90 3e 51
        E 47 90 39 4b
        E 46 90 3e 00
        E 0 90 3e 4a
        E 35 90 36 47
        E 36 90 3e 00
        E 0 90 3e 38
        E 56 90 39 00
        E 0 90 4a 49
        E 6 90 42 35
        E 5 90 2f 46
        E 0 90 36 00
        E 0 90 36 35
        E 41 90 32 44
        E 5 90 3e 00
        E 0 90 3e 37
        E 25 90 36 00
        E 0 90 36 3f
        E 36 90 3e 00
        E 15 90 2f 00
        E 21 90 42 00
        E 0 90 4a 00
        E 10 90 2b 53
        E 0 90 32 00
        E 5 90 36 00
        E 56 90 4c 43
        E 5 90 2b 00
        E 5 90 2b 4d
        E 41 90 32 40
        E 67 90 32 00
        E 15 90 2b 00
        E 10 90 2d 3b
        E 5 90 40 33
        E 0 90 43 34
        E 0 90 45 48
        E 0 90 49 3c
        E 36 90 3d 3d
        E 5 90 4c 00
        E 36 90 40 00
        E 5 90 45 00
        E 0 90 45 35
        E 5 90 34 36
        E 21 90 3d 00
        E 10 90 39 44
        E 46 90 43 00
        E 10 90 49 00
        E 5 90 39 00
        E 10 90 2d 00
        E 5 90 34 00
        E 11 90 4a 48
        E 5 90 26 3b
        E 5 90 42 3a
        E 41 90 32 52
        E 5 90 3e 34
        E 0 90 45 00
        E 15 90 26 00
        E 31 90 42 00
        E 0 90 42 2d
        E 41 90 32 00
        E 0 90 32 4c
        E 5 90 36 33
        E 0 90 3e 00
        E 0 90 3e 36
        E 21 90 42 00
        E 61 90 32 00
        E 0 90 32 4b
        E 5 90 36 00
        E 56 90 36 29
        E 6 90 2a 33
        E 0 90 3e 00
        E 0 90 3e 3e
        E 10 90 32 00
        E 0 90 32 3a
        E 46 90 2d 35
        E 5 90 4a 00
        E 10 90 36 00
        E 0 90 36 2d
        E 15 90 2a 00
        E 46 90 26 4c
        E 0 90 32 00
        E 0 90 3e 00
        E 5 90 32 29
        E 72 90 36 00
        E 36 90 32 00
        E 41 90 2d 00
        E 102 90 32 53
        E 51 90 26 00
        E 0 90 51 3f
        E 5 90 3e 3c
        E 0 90 4a 41
        E 0 90 4e 3c
        E 5 90 32 00
        E 5 90 32 45
        E 102 90 32 00
        E 21 90 4a 00
        E 0 90 51 00
        E 10 90 3e 00
        E 0 90 3e 5a
        E 46 90 4e 00
        E 5 90 40 27
        E 36 90 3e 00
        E 0 90 3e 50
        E 51 90 40 00
        E 46 90 3e 00
        E 0 90 3e 4f
        E 46 90 56 37
        E 26 90 3e 00
        E 0 90 3e 44
        E 51 90 38 50
        E 56 90 3e 00
        E 0 90 56 00
        E 21 90 3e 36
        E 20 90 32 3f
        E 0 90 38 00
        E 0 90 38 2c
        E 0 90 4e 48
        E 5 90 45 25
        E 0 90 4a 40
        E 46 90 3e 00
        E 0 90 3e 3b
        E 10 90 38 00
        E 26 90 45 00
        E 41 90 4a 00
        E 15 90 45 33
        E 5 90 3e 00
        E 0 90 3e 4f
        E 5 90 32 00
        E 67 90 45 00
        E 10 90 3e 00
        E 0 90 3e 48
        E 82 90 51 27
        E 5 90 3e 00
        E 0 90 3e 48
        E 25 90 4e 00
        E 21 90 39 3c
        E 41 90 3e 00
        E 0 90 3e 41
        E 5 90 51 00
        E 36 90 36 3c
        E 76 90 39 00
        E 15 90 4a 4a
        E 6 90 2f 4a
        E 0 90 42 2e
        E 15 90 36 00
        E 26 90 32 3c
        E 0 90 3e 00
        E 0 90 3e 35
        E 87 90 3e 00
        E 5 90 42 00
        E 26 90 32 00
        E 5 90 2b 4c
        E 15 90 4a 00
        E 0 90 4a 2b
        E 5 90 2f 00
        E 0 90 2f 58
        E 31 90 4c 41
        E 15 90 2b 00
        E 5 90 2b 47
        E 26 90 2f 00
        E 0 90 2f 42
        E 0 90 34 34
        E 5 90 4a 00
        E 36 90 40 2d
        E 51 90 2b 00
        E 0 90 2f 00
        E 5 90 2d 3d
        E 0 90 39 2f
        E 0 90 49 2c
        E 0 90 4c 00
        E 0 90 4c 34
        E 0 90 4f 44
        E 30 90 40 00
        E 11 90 34 00
        E 46 90 34 29
        E 35 90 39 00
        E 0 90 39 41
        E 21 90 4c 00
        E 10 90 49 00
        E 41 90 32 4b
        E 0 90 3e 25
        E 0 90 4e 47
        E 0 90 4f 00
        E 5 90 39 00
        E 31 90 2d 00
        E 5 90 34 00
        E 30 90 3e 00
        E 31 90 49 43
        E 56 90 4e 00
        E 21 90 49 00
        E 10 90 4a 49
        E 46 90 4e 4c
        E 46 90 4a 00
        E 0 90 4c 48
        E 20 90 4e 00
        E 5 90 32 00
        E 16 90 4f 39
        E 77 90 4c 00
        E 20 e0 2b 35
        E 0 90 4f 00
        E 0 90 4f 2a
        E 6 e0 55 4a
        E 5 e0 55 4a
        E 5 e0 55 4a
        E 6 e0 55 4a
        E 5 e0 55 2a
        E 5 e0 55 2a
        E 6 e0 55 2a
        E 5 e0 55 2a
        E 5 e0 55 2a
        E 6 e0 55 2a
        E 5 e0 55 2a
        E 5 e0 2b 35
        E 6 e0 2b 35
        E 5 e0 2b 35
        E 5 e0 55 2a
        E 6 e0 55 2a
        E 5 e0 55 2a
        E 5 e0 55 4a
        E 6 e0 55 4a
        E 5 e0 55 4a
        E 5 e0 55 4a
        E 6 e0 55 4a
        E 5 e0 55 4a
        E 0 90 4f 00
        E 31 90 4e 41
        E 0 90 51 3d
        E 5 90 32 43
        E 0 90 4a 34
        E 56 90 3e 4c
        E 36 90 51 00
        E 15 90 32 00
        E 15 90 4a 00
        E 21 90 3e 00
        E 0 90 3e 53
        E 81 90 3e 00
        E 0 90 3e 50
        E 11 90 40 3c
        E 30 90 4e 00
        E 36 90 40 00
        E 5 90 3e 00
        E 0 90 3e 56
        E 0 90 4a 21
        E 26 90 56 46
        E 25 90 39 40
        E 26 90 4a 00
        E 10 90 3e 00
        E 0 90 3e 47
        E 5 90 56 00
        E 41 90 36 28
        E 0 90 4a 35
        E 72 90 4a 00
        E 5 90 4a 3d
        E 0 90 4e 46
        E 5 90 32 47
        E 0 90 45 2d
        E 5 90 39 00
        E 10 90 36 00
        E 36 90 3e 00
        E 0 90 3e 4b
        E 10 90 32 00
        E 0 90 32 3b
        E 77 90 3e 00
        E 0 90 3e 54
        E 26 90 32 00
        E 15 90 40 36
        E 26 90 45 00
        E 20 90 3e 00
        E 0 90 3e 55
        E 0 90 4a 00
        E 36 90 40 00
        E 41 90 3e 00
        E 0 90 3e 54
        E 41 90 4e 00
        E 5 90 39 4a
        E 46 90 4a 23
        E 5 90 3e 00
        E 0 90 3e 47
        E 122 90 39 00
        E 0 90 47 39
        E 0 90 4a 00
        E 0 90 4a 48
        E 5 90 36 28
        E 0 90 42 30
        E 31 90 3e 00
        E 0 90 3e 3a
        E 5 90 3b 25
        E 5 90 2f 3a
        E 0 90 32 42
        E 36 90 36 00
        E 0 90 36 39
        E 15 90 4a 00
        E 6 90 3e 00
        E 15 90 3b 00
        E 0 90 3b 3a
        E 31 90 42 00
        E 10 90 32 00
        E 10 90 4c 45
        E 5 90 2b 4b
        E 0 90 36 00
        E 20 90 47 00
        E 21 90 2f 00
        E 0 90 2f 45
        E 0 90 3b 00
        E 36 90 34 35
        E 20 90 4c 00
        E 31 90 2b 00
        E 0 90 2f 00
        E 30 90 34 00
        E 21 90 40 20
        E 0 90 45 3f
        E 0 90 49 40
        E 5 90 3d 30
        E 36 90 2d 39
        E 10 90 31 33
        E 10 90 40 00
        E 26 90 34 3d
        E 15 90 3d 00
        E 1 90 2d 00
        E 10 90 31 00
        E 0 90 49 00
        E 5 90 45 00
        E 77 90 32 35
        E 0 90 34 00
        E 0 90 4a 4b
        E 5 90 3e 43
        E 0 90 42 46
        E 0 90 45 36
        E 71 90 36 38
        E 21 90 42 00
        E 0 90 42 2d
        E 5 90 32 00
        E 0 90 32 38
        E 0 90 3e 00
        E 0 90 3e 4c
        E 51 90 45 00
        E 5 90 36 00
        E 0 90 36 3e
        E 10 90 42 00
        E 67 90 32 00
        E 0 90 32 49
        E 0 90 3e 00
        E 0 90 3e 35
        E 5 90 36 00
        E 0 90 4a 00
        E 51 90 2a 3a
        E 0 90 36 2d
        E 10 90 3e 00
        E 0 90 3e 2d
        E 41 90 2d 3e
        E 56 90 2a 00
        E 51 90 26 52
        E 5 90 3e 00
        E 5 90 32 00
        E 0 90 32 2d
        E 11 90 36 00
        E 117 90 32 00
        E 26 90 2d 00
        E 20 90 45 27
        E 123 90 26 00
        E 5 90 45 00
        E 0 90 4c 44
        E 5 90 45 44
        E 62 90 39 24
        E 5 90 2d 41
        E 0 90 40 33
        E 51 90 45 00
        E 5 90 2f 46
        E 0 90 39 00
        E 10 90 40 00
        E 10 90 2d 00
        E 51 90 2f 00
        E 26 90 32 38
        E 0 90 39 2d
        E 0 90 45 46
        E 0 90 4c 00
        E 0 90 4c 42
        E 5 90 49 3a
        E 41 90 34 2d
        E 26 90 39 00
        E 10 90 32 00
        E 10 90 36 40
        E 77 90 34 00
        E 10 90 45 00
        E 10 90 36 00
        E 0 90 36 45
        E 0 90 39 40
        E 0 90 45 35
        E 0 90 49 00
        E 0 90 49 3f
        E 0 90 4c 00
        E 0 90 4c 43
        E 77 90 3d 46
        E 20 90 36 00
        E 10 90 49 00
        E 31 90 3d 00
        E 5 90 3e 41
        E 20 90 39 00
        E 11 90 40 47
        E 30 90 45 00
        E 0 90 45 32
        E 0 90 4c 00
        E 0 90 4c 4f
        E 5 90 49 3c
        E 31 90 40 00
        E 5 90 3e 00
        E 0 90 3e 36
        E 0 90 40 3c
        E 36 90 58 29
        E 31 90 45 00
        E 5 90 3e 00
        E 25 90 3b 38
        E 5 90 58 00
        E 46 90 39 43
        E 31 90 49 00
        E 5 90 3b 00
        E 5 90 37 36
        E 0 90 40 00
        E 52 90 4c 00
        E 5 90 39 00
        E 20 90 37 00
        E 72 90 4f 44
        E 41 90 4c 3c
        E 36 90 2f 43
        E 30 90 2d 3a
        E 5 90 4c 00
        E 41 90 4f 00
        E 26 90 2d 00
        E 5 90 4a 3e
        E 0 90 4e 46
        E 5 90 2f 00
        E 31 90 32 4e
        E 0 90 3e 3d
        E 76 90 3e 00
        E 26 90 36 3a
        E 61 90 3e 30
        E 0 90 45 3d
        E 0 90 4a 00
        E 0 90 4a 42
        E 0 90 4e 00
        E 0 90 4e 3c
        E 5 90 32 00
        E 0 90 36 00
        E 0 90 36 33
        E 36 90 39 3f
        E 36 90 3e 00
        E 5 90 36 00
        E 15 90 3b 43
        E 10 90 39 00
        E 77 90 4a 00
        E 0 90 4a 32
        E 0 90 4e 00
        E 0 90 4e 3d
        E 5 90 3e 3f
        E 0 90 45 00
        E 0 90 45 39
        E 46 90 40 33
        E 5 90 3b 00
        E 15 90 42 57
        E 62 90 42 00
        E 5 90 43 3e
        E 25 90 40 00
        E 26 90 4e 00
        E 0 90 4e 45
        E 5 90 3e 00
        E 0 90 3e 35
        E 0 90 4a 00
        E 0 90 4a 4d
        E 5 90 43 00
        E 0 90 43 43
        E 31 90 45 00
        E 0 90 45 32
        E 41 90 42 4d
        E 0 90 43 00
        E 46 90 40 3b
        E 26 90 4a 00
        E 10 90 42 00
        E 10 90 4a 29
        E 41 90 3d 48
        E 0 90 3e 00
        E 10 90 40 00
        E 0 90 45 00
        E 36 90 4e 00
        E 26 90 4a 00
        E 10 90 4f 4d
        E 15 90 3d 00
        E 46 90 4f 00
        E 5 90 4e 3f
        E 0 90 51 42
        E 82 90 34 2d
        E 0 90 36 37
        E 20 90 51 00
        E 11 90 4e 00
        E 20 90 32 46
        E 46 90 36 00
        E 10 90 34 00
        E 0 90 34 38
        E 0 90 56 5b
        E 5 90 3e 20
        E 62 90 32 00
        E 0 90 34 00
        E 0 90 3e 00
        E 0 90 3e 39
        E 66 90 56 00
        E 0 90 56 4a
        E 21 90 3e 00
        E 0 90 3e 3d
        E 35 90 4e 3d
        E 5 90 3c 48
        E 0 90 56 00
        E 41 90 3e 00
        E 0 90 3e 40
        E 36 90 4e 00
        E 5 90 3c 00
        E 5 90 3b 4a
        E 51 90 3e 00
        E 0 90 3e 46
        E 6 90 3b 00
        E 36 90 39 44
        E 41 90 3e 00
        E 0 90 3e 4b
        E 25 90 39 00
        E 15 90 37 41
        E 0 90 53 34
        E 87 90 53 00
        E 11 90 3e 00
        E 0 90 3e 44
        E 0 90 51 4a
        E 15 90 37 00
        E 56 90 3e 00
        E 0 90 3e 40
        E 72 90 3e 00
        E 0 90 3e 3b
        E 51 90 3c 40
        E 0 90 4e 3b
        E 5 90 51 00
        E 30 90 3e 00
        E 0 90 3e 46
        E 36 90 3c 00
        E 0 90 4e 00
        E 10 90 3b 41
        E 26 90 4f 25
        E 20 90 3e 00
        E 0 90 3e 42
        E 26 90 3b 00
        E 15 90 39 3d
        E 10 90 4f 00
        E 31 90 3e 00
        E 0 90 3e 41
        E 21 90 39 00
        E 25 90 37 3f
        E 0 90 53 33
        E 51 90 3e 00
        E 0 90 3e 34
        E 56 90 53 00
        E 0 90 53 3f
        E 5 90 36 42
        E 0 90 37 00
        E 46 90 3e 00
        E 0 90 3e 46
        E 46 90 53 00
        E 6 90 36 00
        E 0 90 36 37
        E 0 90 39 35
        E 0 90 51 2a
        E 41 90 3e 00
        E 0 90 3e 43
        E 20 90 36 00
        E 36 90 34 2a
        E 0 90 51 00
        E 0 90 51 46
        E 36 90 3e 00
        E 10 90 3d 40
        E 46 90 39 00
        E 0 90 39 48
        E 0 90 4f 2a
        E 10 90 51 00
        E 31 90 34 00
        E 5 90 3d 00
        E 0 90 3d 44
        E 41 90 39 00
        E 10 90 32 42
        E 0 90 4f 00
        E 0 90 4f 32
        E 46 90 3d 00
        E 26 90 4f 00
        E 15 90 4e 47
        E 87 90 32 00
        E 41 90 4e 00
        E 5 90 4c 44
        E 5 90 39 4d
        E 0 90 3d 42
        E 66 90 39 00
        E 0 90 39 3a
        E 0 90 45 36
        E 26 90 4c 00
        E 51 90 45 00
        E 20 90 48 43
        E 51 90 3d 00
        E 0 90 3d 37
        E 6 90 39 00
        E 20 90 48 00
        E 41 90 3d 00
        E 10 e0 55 2a
        E 0 90 4b 4f
        E 6 e0 55 2a
        E 5 e0 55 2a
        E 6 e0 55 4a
        E 5 e0 55 4a
        E 6 e0 55 4a
        E 5 e0 55 4a
        E 6 e0 55 4a
        E 5 e0 55 4a
        E 6 e0 55 4a
        E 5 e0 55 4a
        E 6 e0 55 4a
        E 6 e0 55 6a
        E 0 90 4b 00
        E 31 e0 55 2a
        E 0 90 4d 5b
        E 5 e0 55 4a
        E 6 e0 55 4a
        E 5 e0 55 4a
        E 6 e0 55 4a
        E 6 e0 55 4a
        E 5 e0 55 4a
        E 6 e0 55 4a
        E 5 e0 55 4a
        E 6 e0 55 4a
        E 5 e0 55 4a
        E 6 e0 55 4a
        E 0 90 4d 00
        E 0 90 4d 4c
        E 72 90 50 51
        E 20 90 4d 00
        E 41 90 50 00
        E 0 90 51 45
        E 5 90 32 2f
        E 0 90 4a 2f
        E 5 90 4e 32
        E 36 90 3e 49
        E 51 90 32 00
        E 15 90 4a 00
        E 10 90 51 00
        E 16 90 3e 00
        E 0 90 3e 57
        E 0 90 51 22
        E 46 90 4e 00
        E 20 90 51 00
        E 21 e0 55 4a
        E 0 90 3e 00
        E 0 90 3e 48
        E 5 e0 55 4a
        E 6 e0 55 4a
        E 5 e0 55 4a
        E 5 e0 55 4a
        E 6 e0 55 4a
        E 5 e0 55 4a
        E 6 e0 55 4a
        E 5 e0 55 4a
        E 6 e0 55 2a
        E 5 e0 55 2a
        E 6 e0 55 2a
        E 5 e0 55 2a
        E 5 e0 55 2a
        E 6 e0 55 2a
        E 5 e0 55 4a
        E 0 90 3e 00
        E 0 90 3e 4a
        E 46 90 56 4b
        E 51 90 3e 00
        E 0 90 3e 3f
        E 11 90 56 00
        E 66 90 4a 23
        E 10 90 39 40
        E 16 90 36 38
        E 35 90 4a 00
        E 0 90 4e 43
        E 5 90 32 40
        E 0 90 4a 31
        E 6 90 39 00
        E 30 90 36 00
        E 16 90 3e 00
        E 0 90 3e 47
        E 51 90 32 00
        E 5 90 4a 00
        E 31 90 3e 00
        E 0 90 3e 54
        E 77 90 3e 00
        E 0 90 3e 51
        E 92 90 3e 00
        E 0 90 3e 50
        E 0 90 51 27
        E 35 90 4e 00
        E 10 90 39 40
        E 36 90 51 00
        E 16 90 3e 00
        E 0 90 3e 46
        E 107 90 39 00
        E 15 90 2f 42
        E 0 90 42 2c
        E 0 90 4a 3f
        E 36 90 3e 00
        E 0 90 3e 3b
        E 5 90 32 48
        E 36 90 42 00
        E 41 90 3e 00
        E 5 90 3b 47
        E 41 90 32 00
        E 20 90 3b 00
        E 5 90 2b 55
        E 0 90 4a 00
        E 0 90 4a 24
        E 5 90 37 2c
        E 26 90 2f 00
        E 0 90 2f 49
        E 5 90 4c 43
        E 36 90 2b 00
        E 0 90 2b 45
        E 0 90 34 3d
        E 15 90 4a 00
        E 36 90 37 00
        E 0 90 37 3e
        E 30 90 4c 00
        E 16 90 2b 00
        E 0 90 2f 00
        E 5 90 34 00
        E 15 90 2d 40
        E 0 90 4c 2b
        E 0 90 4f 43
        E 5 90 34 2a
        E 0 90 37 00
        E 0 90 39 35
        E 0 90 45 34
        E 41 90 31 31
        E 5 90 40 25
        E 31 90 34 00
        E 0 90 34 3c
        E 16 90 45 00
        E 0 90 4c 00
        E 15 90 31 00
        E 0 90 40 00
        E 15 90 39 00
        E 0 90 39 3d
        E 6 90 2d 00
        E 0 90 2d 38
        E 61 90 32 48
        E 5 90 3e 27
        E 5 90 4e 43
        E 0 90 4f 00
        E 15 90 2d 00
        E 26 90 39 00
        E 0 90 4a 54
        E 10 90 34 00
        E 36 90 3e 00
        E 15 90 4a 00
        E 5 90 49 48
        E 77 90 49 00
        E 15 90 4a 45
        E 46 90 4e 00
        E 0 90 4e 3b
        E 36 90 4a 00
        E 10 90 4c 43
        E 56 90 32 00
        E 21 90 4c 00
        E 10 e0 55 4a
        E 0 90 4e 00
        E 0 90 4e 4d
        E 6 e0 55 4a
        E 5 e0 55 4a
        E 5 e0 55 4a
        E 6 e0 55 4a
        E 5 e0 55 4a
        E 6 e0 2b 55
        E 5 e0 2b 55
        E 5 e0 2b 55
        E 6 e0 2b 55
        E 5 e0 2b 55
        E 6 e0 55 4a
        E 5 e0 55 4a
        E 5 e0 55 4a
        E 6 e0 55 4a
        E 5 e0 55 4a
        E 6 e0 55 4a
        E 5 e0 55 4a
        E 0 90 4e 00
        E 0 90 4e 2c
        E 26 90 53 4d
        E 61 90 53 00
        E 5 90 32 39
        E 0 90 4e 00
        E 0 90 4e 40
        E 0 90 51 35
        E 46 90 3e 4f
        E 31 90 51 00
        E 25 90 32 00
        E 36 90 3e 00
        E 0 90 3e 51
        E 67 90 40 46
        E 20 90 3e 00
        E 0 90 3e 41
        E 72 90 40 00
        E 5 90 3e 00
        E 0 90 3e 45
        E 0 90 4e 00
        E 46 90 56 48
        E 5 90 39 37
        E 46 90 3e 00
        E 0 90 3e 44
        E 10 90 56 00
        E 31 90 36 36
        E 36 90 39 00
        E 0 90 39 45
        E 56 90 36 00
        E 0 90 4a 3a
        E 0 90 4e 45
        E 5 90 32 42
        E 0 90 39 00
        E 0 90 45 29
        E 46 90 3e 00
        E 0 90 3e 41
        E 31 90 45 00
        E 56 90 3e 00
        E 0 90 3e 4e
        E 0 90 4a 00
        E 15 90 32 00
        E 31 90 40 36
        E 36 90 3e 00
        E 0 90 3e 4c
        E 45 90 40 00
        E 31 90 4e 00
        E 15 90 3e 00
        E 0 90 3e 54
        E 41 90 39 46
        E 51 90 3e 00
        E 0 90 3e 40
        E 31 90 4a 27
        E 77 90 39 00
        E 0 90 4a 00
        E 5 90 4a 51
        E 10 90 2f 3d
        E 31 90 3e 00
        E 0 90 3e 2e
        E 5 90 32 3d
        E 36 90 3b 3f
        E 31 90 4a 00
        E 5 90 47 20
        E 31 90 3e 00
        E 5 90 32 00
        E 15 90 3b 00
        E 5 90 4c 47
        E 5 90 2b 47
        E 21 90 47 00
        E 25 90 2f 00
        E 0 90 2f 47
        E 61 90 4c 00
        E 11 90 2f 00
        E 25 90 2b 00
        E 36 90 2d 47
        E 0 90 40 38
        E 0 90 45 3e
        E 5 90 3d 2b
        E 0 90 49 3a
        E 66 90 40 00
        E 6 90 49 00
        E 10 90 2d 00
        E 5 90 34 3c
        E 5 90 3d 00
        E 0 90 45 00
        E 36 90 39 3b
        E 76 90 34 00
        E 0 90 39 00
        E 5 90 4a 3e
        E 46 90 42 38
        E 6 90 32 4c
        E 0 90 3e 3d
        E 97 90 32 00
        E 0 90 32 48
        E 0 90 3e 00
        E 0 90 3e 3e
        E 20 90 42 00
        E 36 90 2d 31
        E 10 90 4a 00
        E 20 90 32 00
        E 0 90 32 4e
        E 67 90 2a 30
        E 11 90 32 00
        E 0 90 32 3b
        E 25 90 45 31
        E 10 90 2d 00
        E 0 90 2d 41
        E 21 90 2a 00
        E 15 90 36 2a
        E 31 90 2d 00
        E 15 90 3e 00
        E 31 90 36 00
        E 10 90 45 00
        E 10 90 26 50
        E 5 90 32 00
        E 399 90 26 00
        E 133 90 45 3f
        E 61 90 4e 44
        E 36 90 51 52
        E 30 90 45 00
        E 57 90 4e 00
        E 5 90 32 46
        E 77 90 51 00
        E 36 90 39 4a
        E 5 90 36 39
        E 46 90 3e 56
        E 46 90 39 00
        E 0 90 39 31
        E 0 90 45 46
        E 35 90 36 00
        E 46 90 39 00
        E 11 90 32 00
        E 5 90 4e 54
        E 10 90 45 00
        E 46 90 51 41
        E 5 90 3e 00
        E 0 90 3e 35
        E 51 90 4e 00
        E 0 90 4e 39
        E 56 90 3e 00
        E 5 90 51 00
        E 36 90 56 4c
        E 67 90 4e 00
        E 0 90 4e 55
        E 20 90 56 00
        E 0 90 56 32
        E 56 90 26 49
        E 0 90 32 3e
        E 46 90 56 00
        E 56 90 2d 48
        E 0 90 4e 00
        E 5 90 2a 3a
        E 16 90 26 00
        E 30 90 3e 37
        E 26 90 2a 00
        E 5 90 42 4f
        E 5 90 32 00
        E 0 90 32 50
        E 47 90 2d 00
        E 5 90 3e 00
        E 15 90 42 00
        E 21 90 32 00
        E 0 90 32 48
        E 0 90 45 36
        E 0 90 4a 57
        E 46 90 4e 46
        E 30 90 32 00
        E 16 90 4a 00
        E 0 90 4a 49
        E 51 90 45 00
        E 0 90 45 34
        E 30 90 4e 00
        E 16 90 51 4a
        E 25 90 45 00
        E 31 90 4a 00
        E 5 90 3b 41
        E 0 90 51 00
        E 61 90 42 4f
        E 77 90 4a 4f
        E 36 90 42 00
        E 10 90 3b 00
        E 20 90 4a 00
        E 5 90 37 49
        E 46 90 43 37
        E 51 90 47 45
        E 36 90 37 00
        E 10 90 43 00
        E 46 90 39 42
        E 0 90 47 00
        E 92 90 40 43
        E 0 90 43 42
        E 11 90 39 00
        E 30 90 49 49
        E 42 90 40 00
        E 10 90 43 00
        E 10 90 32 43
        E 5 90 3e 30
        E 0 90 49 00
        E 87 90 3e 00
        E 10 90 40 3d
        E 31 90 42 53
        E 61 90 42 00
        E 5 90 43 48
        E 21 90 40 00
        E 20 90 45 37
        E 5 90 32 00
        E 41 90 47 3f
        E 5 90 43 00
        E 92 90 4a 46
        E 36 90 4c 39
        E 25 90 4a 00
        E 6 90 45 00
        E 20 90 47 00
        E 41 90 4f 3d
        E 31 90 4c 00
        E 30 90 51 4a
        E 51 90 32 29
        E 5 90 26 41
        E 41 90 51 00
        E 16 90 2a 40
        E 0 90 4f 00
        E 35 90 2d 3f
        E 11 90 26 00
        E 46 90 32 00
        E 0 90 32 56
        E 61 90 2a 00
        E 11 90 2d 00
        E 10 90 4a 3a
        E 10 90 32 00
        E 0 90 32 42
        E 36 90 4e 44
        E 97 90 4e 00
        E 0 90 4e 52
        E 10 90 32 00
        E 46 90 56 42
        E 5 90 4e 00
        E 0 90 4e 43
        E 46 90 4a 00
        E 21 90 56 00
        E 30 90 4e 00
        E 0 90 4e 58
        E 62 90 32 48
        E 40 90 36 32
        E 62 90 4e 00
        E 25 90 32 00
        E 0 90 3e 50
        E 5 90 39 37
        E 31 90 42 4b
        E 51 90 36 00
        E 21 90 39 00
        E 25 90 4a 41
        E 46 90 42 00
        E 0 90 42 2f
        E 0 90 4e 47
        E 51 90 3e 00
        E 0 90 3e 3e
        E 26 90 42 00
        E 30 90 4a 00
        E 21 90 4e 00
        E 5 90 51 37
        E 46 90 3e 00
        E 5 90 4a 51
        E 52 90 2f 45
        E 30 90 3e 28
        E 5 90 51 00
        E 11 90 32 51
        E 10 90 4a 00
        E 41 90 3e 00
        E 20 90 2f 00
        E 21 90 4c 3c
        E 10 90 32 00
        E 56 90 2b 49
        E 20 90 2f 4e
        E 46 90 4c 00
        E 46 90 2b 00
        E 0 90 2f 00
        E 5 90 40 2e
        E 0 90 49 48
        E 67 90 2d 43
        E 20 90 40 00
        E 16 90 49 00
        E 76 90 2d 00
        E 31 90 42 5d
        E 0 90 4a 4e
        E 56 90 32 4e
        E 0 90 3e 38
        E 92 90 42 00
        E 0 90 42 39
        E 5 90 32 00
        E 0 90 32 4a
        E 5 90 4a 00
        E 41 90 2d 3f
        E 5 90 3e 00
        E 56 90 3e 28
        E 5 90 2d 00
        E 11 90 42 00
        E 5 90 32 00
        E 5 90 2a 3d
        E 0 90 36 26
        E 36 90 3e 00
        E 26 90 2d 3d
        E 5 90 36 00
        E 0 90 36 2e
        E 51 90 2a 00
        E 41 90 26 4f
        E 56 90 36 00
        E 66 90 2d 00
        E 154 90 45 41
        E 15 90 26 00
        E 20 90 4a 3d
        E 77 90 51 54
        E 26 90 45 00
        E 35 90 4a 00
        E 11 90 3e 2d
        E 20 90 32 47
        E 10 90 51 00
        E 41 90 3e 00
        E 5 90 36 40
        E 46 90 39 40
        E 51 90 3e 60
        E 36 90 45 47
        E 31 90 32 00
        E 0 90 36 00
        E 5 90 39 00
        E 16 90 3e 00
        E 0 90 3e 47
        E 0 90 4a 45
        E 41 90 4e 4c
        E 25 90 45 00
        E 10 90 4a 00
        E 16 90 51 42
        E 51 90 4e 00
        E 0 90 4e 3b
        E 5 90 3e 00
        E 0 90 3e 39
        E 20 90 51 00
        E 5 90 56 59
        E 62 90 56 00
        E 5 90 56 3c
        E 51 90 3e 00
        E 25 90 4e 00
        E 0 90 4e 41
        E 41 90 26 49
        E 0 90 32 3a
        E 16 90 56 00
        E 81 90 26 00
        E 0 90 2d 47
        E 5 90 2a 3b
        E 6 90 4e 00
        E 46 90 32 00
        E 0 90 32 50
        E 0 90 3e 2f
        E 25 90 2a 00
        E 21 90 42 52
        E 10 90 2d 00
        E 25 90 3e 00
        E 16 90 45 3f
        E 15 90 42 00
        E 25 90 4a 53
        E 41 90 4e 4a
        E 16 90 45 00
        E 25 90 32 00
        E 10 90 4a 00
        E 0 90 4a 4e
        E 11 90 4e 00
        E 0 90 4e 31
        E 20 90 51 4f
        E 41 90 4e 00
        E 20 90 4a 00
        E 0 90 4a 3c
        E 0 90 51 00
        E 5 90 51 3d
        E 42 90 3b 3f
        E 15 90 4a 00
        E 36 90 51 00
        E 15 90 42 51
        E 26 90 3b 00
        E 20 90 47 3f
        E 31 90 4a 4a
        E 20 90 42 00
        E 36 90 47 00
        E 5 90 43 2e
        E 0 90 4a 00
        E 46 90 37 3f
        E 46 90 47 46
        E 5 90 43 00
        E 26 90 37 00
        E 61 90 39 40
        E 21 90 47 00
        E 30 90 40 4b
        E 36 90 39 00
        E 5 90 43 46
        E 21 90 49 46
        E 66 90 40 00
        E 0 90 49 00
        E 10 90 32 46
        E 0 90 3e 36
        E 5 90 43 00
        E 92 90 40 3d
        E 5 90 3e 00
        E 26 90 42 57
        E 56 90 32 00
        E 5 90 42 00
        E 5 90 43 45
        E 26 90 40 00
        E 15 90 45 46
        E 42 90 47 45
        E 5 90 43 00
        E 51 90 45 00
        E 36 90 4a 44
        E 30 90 47 00
        E 10 90 4c 3b
        E 67 90 4a 00
        E 20 90 4f 3a
        E 56 90 4c 00
        E 6 90 51 41
        E 51 90 26 4a
        E 35 90 4f 00
        E 21 90 2a 45
        E 0 90 32 38
        E 25 90 51 00
        E 21 90 2d 41
        E 10 90 26 00
        E 31 90 32 00
        E 0 90 32 4c
        E 0 90 3e 28
        E 56 90 2d 00
        E 5 90 3e 00
        E 20 90 4a 4a
        E 5 90 2a 00
        E 46 90 4e 50
        E 11 90 4a 00
        E 41 90 51 38
        E 25 90 4a 24
        E 31 90 4e 00
        E 0 90 4e 3e
        E 20 90 56 54
        E 10 90 4a 00
        E 6 90 4a 25
        E 5 90 51 00
        E 46 90 56 00
        E 5 90 56 41
        E 20 90 4a 00
        E 5 90 32 00
        E 41 90 4e 00
        E 0 90 4e 57
        E 47 90 32 4a
        E 20 90 56 00
        E 31 90 36 33
        E 41 90 39 3f
        E 35 90 4e 00
        E 11 90 3e 55
        E 15 90 36 00
        E 15 90 32 00
        E 16 90 42 4b
        E 5 90 39 00
        E 46 90 45 44
        E 40 90 4a 43
        E 31 90 42 00
        E 10 90 4e 4e
        E 5 90 3e 00
        E 0 90 3e 3b
        E 11 90 45 00
        E 30 90 4a 00
        E 0 90 4a 3a
        E 16 90 4e 00
        E 0 90 4e 39
        E 35 90 3e 00
        E 0 90 3e 36
        E 31 90 4e 00
        E 15 90 51 3f
        E 36 90 3e 00
        E 15 90 4a 00
        E 0 90 4a 50
        E 46 90 2f 46
        E 41 90 3e 2e
        E 5 90 51 00
        E 6 90 32 4b
        E 51 90 3e 00
        E 0 90 4a 00
        E 25 90 2f 00
        E 15 90 4c 39
        E 11 90 32 00
        E 41 90 2b 51
        E 20 90 4c 00
        E 31 90 2f 4a
        E 87 90 2b 00
        E 0 90 2f 00
        E 5 90 49 40
        E 51 90 2d 45
        E 0 90 40 30
        E 36 90 49 00
        E 10 90 31 32
        E 36 90 2d 00
        E 0 90 40 00
        E 31 90 31 00
        E 25 90 4a 51
        E 5 90 42 49
        E 46 90 3e 33
        E 5 90 32 52
        E 103 90 32 00
        E 0 90 32 53
        E 0 90 3e 00
        E 0 90 3e 29
        E 35 90 4a 00
        E 16 90 2d 3d
        E 0 90 42 00
        E 56 90 32 00
        E 0 90 32 39
        E 36 90 2a 43
        E 51 90 3e 00
        E 5 90 32 00
        E 5 90 2d 00
        E 0 90 2d 39
        E 5 90 2a 00
        E 0 90 2a 3d
        E 31 90 36 30
        E 30 90 2a 00
        E 36 90 26 48
        E 51 90 36 00
        E 67 90 2d 00
        E 271 90 26 00
        E 163 90 4c 4d
        E 5 90 45 43
        E 0 90 49 47
        E 82 90 2d 37
        E 46 90 25 34
        E 10 90 45 00
        E 21 90 2d 00
        E 5 90 28 3f
        E 10 90 31 28
        E 0 90 49 00
        E 36 90 25 00
        E 0 90 25 3f
        E 0 90 4c 00
        E 31 90 31 00
        E 20 90 28 00
        E 0 90 28 41
        E 0 90 2d 40
        E 0 90 40 37
        E 20 90 25 00
        E 31 90 3d 3c
        E 20 90 28 00
        E 26 90 28 28
        E 41 90 45 52
        E 5 90 40 00
        E 0 90 40 40
        E 5 90 2d 00
        E 0 90 2d 38
        E 46 90 3d 00
        E 0 90 3d 43
        E 5 90 28 00
        E 37 90 2d 00
        E 5 90 39 48
        E 0 90 49 50
        E 46 90 3d 00
        E 0 90 3d 45
        E 20 90 49 00
        E 15 90 40 00
        E 0 90 40 5e
        E 51 90 45 00
        E 0 90 45 59
        E 0 90 51 29
        E 16 90 39 00
        E 30 90 40 00
        E 0 90 40 47
        E 0 90 4c 3b
        E 31 90 3d 00
        E 15 90 51 00
        E 0 90 51 48
        E 31 90 4c 00
        E 15 90 40 00
        E 0 90 55 4a
        E 5 90 45 00
        E 0 90 45 41
        E 21 90 51 00
        E 25 90 58 39
        E 26 90 55 00
        E 72 90 55 45
        E 10 90 58 00
        E 20 90 45 00
        E 10 90 53 3f
        E 21 90 55 00
        E 122 90 53 00
        E 41 90 4c 4d
        E 0 90 4f 2b
        E 72 90 4e 51
        E 0 90 4f 00
        E 76 90 32 49
        E 52 90 4c 00
        E 72 90 4e 00
        E 5 90 32 00
        E 10 90 39 3a
        E 0 90 3e 4a
        E 41 90 42 46
        E 51 90 45 49
        E 31 90 39 00
        E 10 90 3e 00
        E 0 90 3e 3d
        E 0 90 4a 46
        E 51 90 4e 4d
        E 46 90 45 00
        E 10 90 3e 00
        E 0 90 3e 4c
        E 41 90 42 00
        E 0 90 42 52
        E 31 90 45 43
        E 5 90 4e 00
        E 35 90 3e 00
        E 16 90 3e 3e
        E 0 90 4a 00
        E 0 90 4a 58
        E 20 90 42 00
        E 61 90 53 43
        E 6 90 3e 00
        E 51 90 4a 00
        E 20 90 45 00
        E 15 90 56 55
        E 16 90 53 00
        E 81 90 56 00
        E 6 e0 55 4a
        E 0 90 53 39
        E 5 e0 55 4a
        E 5 e0 55 4a
        E 6 e0 55 4a
        E 5 e0 55 4a
        E 5 e0 55 4a
        E 6 e0 55 4a
        E 5 e0 2b 55
        E 5 e0 2b 55
        E 6 e0 2b 55
        E 5 e0 55 0a
        E 5 e0 55 0a
        E 6 e0 55 0a
        E 5 e0 2b 15
        E 5 e0 2b 15
        E 6 e0 2b 15
        E 5 e0 2b 15
        E 5 e0 55 4a
        E 6 e0 55 4a
        E 5 e0 55 4a
        E 5 e0 55 4a
        E 6 e0 55 4a
        E 5 e0 55 4a
        E 5 e0 55 4a
        E 0 90 53 00
        E 10 90 4e 33
        E 32 90 4c 45
        E 46 90 4a 3b
        E 51 90 4c 00
        E 15 90 4e 00
        E 0 90 4e 2c
        E 5 90 32 52
        E 51 90 4a 00
        E 0 90 4a 2f
        E 41 90 4e 00
        E 66 90 4a 00
        E 0 90 4a 3f
        E 41 90 4e 3a
        E 57 90 4a 00
        E 0 90 4a 33
        E 5 90 4e 00
        E 46 90 37 45
        E 46 90 4a 00
        E 0 90 4a 2e
        E 40 90 4e 35
        E 6 90 3e 35
        E 5 90 32 00
        E 0 90 32 48
        E 5 90 37 00
        E 41 90 4a 00
        E 0 90 4a 3a
        E 5 90 4e 00
        E 15 90 3e 00
        E 20 90 53 30
        E 6 90 37 40
        E 10 90 32 00
        E 30 90 4a 00
        E 0 90 4a 3c
        E 6 90 3e 33
        E 25 90 53 00
        E 26 90 32 52
        E 15 90 37 00
        E 31 90 3e 00
        E 0 90 3e 2a
        E 0 90 4a 00
        E 0 90 4a 34
        E 97 90 4a 00
        E 0 90 4a 2f
        E 62 90 3e 00
        E 30 90 4a 00
        E 0 90 4a 2a
        E 46 90 37 2c
        E 46 90 4a 00
        E 0 90 4a 32
        E 41 90 37 00
        E 10 90 32 00
        E 0 90 32 36
        E 0 90 4e 35
        E 46 90 4a 00
        E 0 90 4a 3f
        E 41 90 53 2b
        E 5 90 32 00
        E 10 90 37 34
        E 21 90 4e 00
        E 41 90 53 00
        E 25 90 37 00
        E 5 90 32 49
        E 0 90 3e 40
        E 0 90 4a 00
        E 0 90 51 4a
        E 46 90 4e 45
        E 51 90 4a 3e
        E 6 90 3e 00
        E 0 90 3e 29
        E 40 90 51 00
        E 0 90 51 49
        E 6 90 39 27
        E 10 90 32 00
        E 10 90 4e 00
        E 10 90 3e 00
        E 15 90 4f 47
        E 11 90 51 00
        E 10 90 4a 00
        E 25 90 39 00
        E 0 90 39 41
        E 0 90 4c 44
        E 52 90 45 36
        E 0 90 4f 00
        E 0 90 4f 47
        E 40 90 39 00
        E 0 90 39 4c
        E 0 90 4c 00
        E 52 90 3e 28
        E 0 90 45 00
        E 0 90 4e 4f
        E 0 90 4f 00
        E 5 90 32 50
        E 40 90 39 00
        E 0 90 4a 44
        E 27 90 3e 00
        E 15 90 32 00
        E 0 90 32 39
        E 5 90 45 27
        E 10 90 39 3c
        E 26 90 4e 00
        E 0 90 4e 4b
        E 41 90 32 00
        E 0 90 39 00
        E 10 90 45 00
        E 31 90 4c 3c
        E 5 90 4a 00
        E 15 90 2d 45
        E 41 90 45 50
        E 30 90 4e 00
        E 26 90 49 4a
        E 36 90 4c 00
        E 10 90 45 00
        E 0 90 45 49
        E 41 90 49 00
        E 10 90 4a 51
        E 36 90 2d 00
        E 10 90 45 00
        E 0 90 45 5b
        E 26 90 4a 00
        E 15 90 4c 45
        E 10 90 49 42
        E 46 90 45 00
        E 0 90 45 56
        E 36 90 49 00
        E 0 90 4c 00
        E 10 90 4e 4d
        E 5 90 4a 42
        E 51 90 45 00
        E 0 90 45 53
        E 41 90 4c 42
        E 10 90 4e 00
        E 0 90 4f 39
        E 41 90 45 00
        E 0 90 45 5f
        E 10 90 4a 00
        E 16 90 4f 00
        E 36 90 45 00
        E 0 90 45 5f
        E 30 90 4a 45
        E 21 90 4c 00
        E 0 90 4e 38
        E 40 90 45 00
        E 0 90 45 36
        E 0 90 4a 00
        E 0 90 51 58
        E 42 90 3e 38
        E 5 90 32 42
        E 31 90 4e 00
        E 25 90 3e 00
        E 56 90 39 4e
        E 0 90 51 00
        E 6 90 36 40
        E 15 90 45 00
        E 30 90 3e 5c
        E 6 90 4a 26
        E 46 90 39 00
        E 0 90 39 31
        E 0 90 45 40
        E 46 90 36 00
        E 10 90 3e 00
        E 0 90 3e 51
        E 0 90 4a 00
        E 0 90 4a 42
        E 5 90 39 00
        E 5 90 32 00
        E 31 90 4e 5e
        E 46 90 45 00
        E 5 90 3e 00
        E 0 90 3e 43
        E 0 90 45 30
        E 0 90 51 44
        E 15 90 4a 00
        E 36 90 4e 00
        E 0 90 4e 50
        E 36 90 45 00
        E 15 90 56 34
        E 25 90 51 00
        E 62 90 3e 00
        E 35 90 4e 00
        E 0 90 4e 4d
        E 52 90 26 40
        E 0 90 32 3a
        E 0 90 56 00
        E 51 90 2a 3f
        E 46 90 2d 43
        E 35 90 4e 00
        E 5 90 32 00
        E 0 90 32 53
        E 6 90 3e 30
        E 25 90 26 00
        E 10 90 42 52
        E 16 90 2d 00
        E 31 90 3e 00
        E 5 90 45 40
        E 15 90 2a 00
        E 21 90 42 00
        E 5 90 4a 4e
        E 5 90 32 00
        E 0 90 32 39
        E 41 90 4e 41
        E 20 90 45 00
        E 26 90 4a 00
        E 0 90 4a 4b
        E 30 90 32 00
        E 16 90 51 45
        E 51 90 4e 00
        E 46 90 51 00
        E 5 90 4a 00
        E 5 90 3b 37
        E 61 90 42 4f
        E 51 90 3b 00
        E 31 90 42 00
        E 0 90 4a 51
        E 46 90 37 43
        E 5 90 43 31
        E 10 90 4a 00
        E 82 90 47 44
        E 10 90 43 00
        E 21 90 37 00
        E 61 90 39 3d
        E 15 90 47 00
        E 41 90 40 48
        E 36 90 39 00
        E 5 90 43 49
        E 36 90 49 4c
        E 46 90 40 00
        E 11 90 32 44
        E 0 90 49 00
        E 0 90 4a 4c
        E 10 90 43 00
        E 51 90 3e 37
        E 0 90 4a 00
        E 41 90 40 33
        E 30 90 42 59
        E 26 90 3e 00
        E 36 90 42 00
        E 5 90 43 44
        E 25 90 40 00
        E 16 90 45 43
        E 15 90 32 00
        E 31 90 43 00
        E 0 90 47 3f
        E 66 90 45 00
        E 26 90 4a 3d
        E 20 90 47 00
        E 72 90 4c 35
        E 46 90 4f 39
        E 5 90 4a 00
        E 25 90 4c 00
        E 26 90 51 54
        E 46 90 26 48
        E 0 90 32 2c
        E 46 90 4f 00
        E 10 90 51 00
        E 36 90 2a 40
        E 0 90 2d 51
        E 41 90 26 00
        E 20 90 2d 00
        E 0 90 2d 3b
        E 0 90 32 00
        E 0 90 32 4e
        E 0 90 3e 2a
        E 72 90 2a 00
        E 20 90 3e 00
        E 0 90 3e 29
        E 0 90 4a 49
        E 16 90 2d 00
        E 20 90 4e 4c
        E 26 90 4a 00
        E 25 90 51 3f
        E 31 90 3e 00
        E 15 90 4e 00
        E 0 90 4e 43
        E 51 90 32 00
        E 31 90 51 00
        E 10 90 56 3b
        E 67 90 4e 00
        E 0 90 4e 53
        E 41 90 32 4a
        E 46 90 56 00
        E 10 90 42 30
        E 5 90 36 2c
        E 41 90 39 3b
        E 25 90 42 00
        E 11 90 4e 00
        E 15 90 3e 53
        E 46 90 32 00
        E 5 90 42 45
        E 25 90 36 00
        E 31 90 45 4b
        E 41 90 39 00
        E 51 90 42 00
        E 0 90 42 2c
        E 0 90 4e 41
        E 5 90 3e 00
        E 0 90 3e 3c
        E 21 90 45 00
        E 15 90 4a 4d
        E 56 90 3e 00
        E 0 90 3e 3d
        E 0 90 42 00
        E 5 90 4a 00
        E 21 90 4e 00
        E 15 90 51 48
        E 31 90 3e 00
        E 15 90 4a 45
        E 52 90 2f 46
        E 35 90 51 00
        E 5 90 32 50
        E 72 90 4a 00
        E 36 90 4c 4d
        E 15 90 2f 00
        E 0 90 32 00
        E 10 90 2b 55
        E 41 90 4c 00
        E 0 90 4c 32
        E 41 90 2f 4d
        E 5 90 2b 00
        E 0 90 2b 4b
        E 41 90 37 29
        E 5 90 4c 00
        E 26 90 2f 00
        E 15 90 49 3e
        E 5 90 2b 00
        E 46 90 2d 46
        E 5 90 40 2e
        E 10 90 37 00
        E 36 90 31 3d
        E 15 90 2d 00
        E 11 90 40 00
        E 51 90 49 00
        E 5 90 31 00
        E 20 90 4a 4b
        E 5 90 42 42
        E 52 90 3e 37
        E 5 90 32 54
        E 102 90 32 00
        E 0 90 32 4e
        E 0 90 36 27
        E 0 90 3e 00
        E 0 90 3e 39
        E 51 90 2d 39
        E 15 90 36 00
        E 36 90 3e 00
        E 0 90 3e 31
        E 5 90 32 00
        E 0 90 32 43
        E 26 90 42 00
        E 16 90 2a 4a
        E 15 90 4a 00
        E 20 90 3e 00
        E 26 90 2a 00
        E 0 90 2a 40
        E 0 90 2d 00
        E 0 90 2d 5b
        E 30 90 32 00
        E 52 90 39 32
        E 5 90 2a 00
        E 66 90 39 00
        E 5 90 26 50
        E 5 90 2d 00
        E 0 90 2d 45
        E 189 90 2d 00
        E 225 90 26 00
        E 51 90 4e 4a
        E 0 90 51 38
        E 5 90 3e 5d
        E 97 90 4e 00
        E 0 90 4f 30
        E 5 90 4c 3d
        E 6 90 3e 00
        E 0 90 3e 47
        E 66 90 3e 00
        E 0 90 3e 3a
        E 0 90 51 00
        E 6 90 4a 33
        E 10 90 4c 00
        E 36 90 4f 00
        E 10 90 4e 4b
        E 5 90 3e 00
        E 0 90 3e 2d
        E 0 90 4a 00
        E 0 90 4a 4c
        E 71 90 4e 00
        E 0 90 4e 51
        E 6 90 4a 00
        E 0 90 4a 4a
        E 35 90 3e 00
        E 36 90 4a 00
        E 0 90 4a 52
        E 0 90 4e 00
        E 0 90 4e 4d
        E 66 90 4a 00
        E 0 90 4a 58
        E 0 90 4e 00
        E 0 90 4e 48
        E 72 90 4e 00
        E 0 90 4e 4a
        E 5 90 4a 00
        E 0 90 4a 55
        E 66 90 4a 00
        E 0 90 4a 55
        E 72 90 4a 00
        E 5 90 4e 00
        E 0 90 4e 42
        E 10 90 32 53
        E 72 90 43 3e
        E 0 90 4c 26
        E 41 90 4e 00
        E 20 90 4c 00
        E 21 90 3e 22
        E 0 90 42 48
        E 0 90 43 00
        E 0 90 4a 51
        E 10 90 32 00
        E 56 90 42 00
        E 0 90 42 49
        E 0 90 4a 00
        E 0 90 4a 56
        E 26 90 3e 00
        E 46 90 4a 00
        E 0 90 4a 5a
        E 5 90 42 00
        E 0 90 42 53
        E 56 90 4a 00
        E 0 90 4a 59
        E 5 90 42 00
        E 0 90 42 5a
        E 67 90 42 00
        E 0 90 42 50
        E 5 90 4a 00
        E 0 90 4a 58
        E 82 90 42 00
        E 0 90 42 4f
        E 0 90 4a 00
        E 0 90 4a 5b
        E 61 90 4a 00
        E 0 90 4a 51
        E 5 90 42 00
        E 0 90 42 3a
        E 61 90 42 00
        E 11 90 3b 44
        E 61 90 4a 00
        E 0 90 4a 4d
        E 56 90 3b 00
        E 15 90 45 47
        E 77 90 37 3b
        E 0 90 43 1a
        E 46 90 45 00
        E 15 90 4a 00
        E 11 90 43 00
        E 0 90 43 2f
        E 0 90 4c 49
        E 46 90 37 00
        E 25 90 47 46
        E 61 90 43 00
        E 11 90 39 3a
        E 0 90 4c 00
        E 56 90 47 00
        E 10 90 40 3f
        E 0 90 49 51
        E 36 90 39 00
        E 36 90 4c 3c
        E 51 90 40 00
        E 0 90 49 00
        E 5 90 4c 00
        E 11 90 32 4a
        E 0 90 4a 58
        E 61 90 45 43
        E 71 90 47 44
        E 0 90 4a 00
        E 0 90 4a 39
        E 46 90 32 00
        E 16 90 45 00
        E 0 90 4a 00
        E 5 90 49 45
        E 56 90 47 00
        E 5 90 49 00
        E 5 90 4a 40
        E 67 90 4c 39
        E 56 90 4e 44
        E 61 90 4c 00
        E 0 90 4e 00
        E 5 90 4a 00
        E 16 e0 55 4a
        E 0 90 4f 37
        E 5 e0 55 4a
        E 5 e0 55 4a
        E 5 e0 2b 55
        E 6 e0 2b 55
        E 5 e0 2b 55
        E 5 e0 2b 55
        E 6 e0 2b 55
        E 5 e0 2b 55
        E 5 e0 2b 55
        E 6 e0 2b 55
        E 5 e0 55 4a
        E 5 e0 55 4a
        E 5 e0 2b 55
        E 6 e0 2b 55
        E 5 e0 2b 55
        E 5 e0 2b 55
        E 6 e0 2b 55
        E 5 e0 2b 55
        E 5 e0 2b 55
        E 5 e0 2b 55
        E 6 e0 55 4a
        E 5 e0 55 4a
        E 5 e0 55 4a
        E 6 e0 55 4a
        E 5 e0 55 4a
        E 5 e0 55 4a
        E 6 e0 55 4a
        E 0 90 4f 00
        E 10 90 51 4b
        E 5 90 45 45
        E 82 90 43 2d
        E 25 90 40 38
        E 26 90 45 00
        E 15 90 3e 45
        E 15 90 43 00
        E 32 90 40 00
        E 0 90 51 00
        E 20 90 42 58
        E 5 90 3e 00
        E 0 90 3e 44
        E 77 90 42 00
        E 0 90 42 53
        E 56 90 3e 00
        E 0 90 3e 4d
        E 5 90 42 00
        E 0 90 42 44
        E 15 90 51 41
        E 51 90 42 00
        E 0 90 42 50
        E 6 90 3e 00
        E 0 90 3e 56
        E 5 90 51 00
        E 56 90 42 00
        E 0 90 42 55
        E 5 90 3e 00
        E 0 90 3e 55
        E 56 90 42 00
        E 0 90 42 55
        E 10 90 3e 00
        E 0 90 3e 3e
        E 62 90 42 00
        E 0 90 42 3a
        E 0 90 4e 4d
        E 51 90 3e 00
        E 102 90 3e 4f
        E 56 90 42 00
        E 15 90 36 38
        E 0 90 3e 00
        E 0 90 3e 47
        E 82 90 3e 00
        E 0 90 3e 37
        E 36 90 36 00
        E 41 90 4e 00
        E 0 90 4e 4c
        E 5 90 3e 00
        E 0 90 3e 41
        E 57 90 36 2e
        E 15 90 3e 00
        E 0 90 3e 41
        E 61 90 36 00
        E 0 90 36 3a
        E 0 90 4e 00
        E 46 90 3e 00
        E 0 90 3e 3d
        E 62 90 36 00
        E 5 90 3b 45
        E 66 90 4a 4e
        E 5 90 3e 00
        E 0 90 3e 38
        E 62 90 4e 40
        E 40 90 3b 00
        E 16 90 3e 00
        E 15 90 37 3c
        E 10 90 4a 00
        E 51 90 4e 00
        E 16 90 4c 41
        E 41 90 37 00
        E 15 90 47 4b
        E 71 90 39 40
        E 5 90 47 00
        E 0 90 47 31
        E 26 90 4c 00
        E 46 90 39 00
        E 0 90 40 30
        E 5 90 49 42
        E 26 90 47 00
        E 35 90 43 3d
        E 0 90 4c 4a
        E 6 90 49 00
        E 45 90 40 00
        E 36 90 3e 24
        E 0 90 4a 3a
        E 5 90 42 54
        E 0 90 43 00
        E 0 90 4c 00
        E 57 90 3e 00
        E 0 90 3e 3d
        E 77 90 39 4a
        E 102 90 42 00
        E 20 90 4a 00
        E 16 90 32 3d
        E 30 90 39 00
        E 5 90 3e 00
        E 164 90 26 56
        E 5 90 32 00
        E 388 90 26 00
        E 5 90 3e 51
        E 0 90 51 3a
        E 93 90 4f 45
        E 5 90 4c 3b
        E 15 90 3e 00
        E 62 90 4a 3b
        E 5 90 4f 00
        E 0 90 4f 3d
        E 0 90 51 00
        E 25 90 4c 00
        E 36 90 3e 26
        E 0 90 4a 00
        E 0 90 4a 57
        E 0 90 4e 3a
        E 0 90 4f 00
        E 72 90 4e 00
        E 0 90 4e 4b
        E 5 90 4a 00
        E 0 90 4a 4c
        E 20 90 3e 00
        E 46 90 4e 00
        E 0 90 4e 52
        E 5 90 4a 00
        E 0 90 4a 55
        E 72 90 4e 00
        E 0 90 4e 4c
        E 5 90 4a 00
        E 0 90 4a 5e
        E 71 90 4a 00
        E 0 90 4a 51
        E 0 90 4e 00
        E 0 90 4e 46
        E 62 90 4e 00
        E 0 90 4e 53
        E 5 90 4a 00
        E 0 90 4a 4c
        E 76 90 4a 00
        E 11 90 4e 00
        E 0 90 4e 41
        E 5 90 32 53
        E 66 90 4c 46
        E 5 90 43 48
        E 0 90 4e 00
        E 77 90 42 4a
        E 0 90 43 00
        E 0 90 4a 46
        E 5 90 32 00
        E 56 90 4c 00
        E 5 90 42 00
        E 0 90 42 4e
        E 0 90 4a 00
        E 0 90 4a 51
        E 67 90 42 00
        E 0 90 42 54
        E 0 90 4a 00
        E 0 90 4a 55
        E 72 90 4a 00
        E 0 90 4a 5c
        E 5 90 42 00
        E 0 90 42 4e
        E 71 90 42 00
        E 0 90 42 5b
        E 0 90 4a 00
        E 0 90 4a 5f
        E 72 90 42 00
        E 0 90 42 5c
        E 0 90 4a 00
        E 0 90 4a 51
        E 66 90 42 00
        E 0 90 42 48
        E 62 90 4a 00
        E 15 90 3b 52
        E 46 90 42 00
        E 25 90 4a 47
        E 51 90 3b 00
        E 11 90 4e 3f
        E 10 90 45 49
        E 46 90 4a 00
        E 25 90 37 49
        E 0 90 43 1f
        E 21 90 4e 00
        E 5 90 45 00
        E 36 90 4c 41
        E 5 90 43 00
        E 0 90 43 3e
        E 5 90 37 00
        E 0 90 37 40
        E 66 90 4f 2e
        E 5 90 37 00
        E 0 90 47 37
        E 57 90 43 00
        E 10 90 39 42
        E 36 90 47 00
        E 0 90 4c 00
        E 26 90 4f 00
        E 5 90 39 00
        E 0 90 49 40
        E 71 90 4c 52
        E 31 90 49 00
        E 46 90 4a 43
        E 5 90 32 4a
        E 0 90 4c 00
        E 66 90 45 42
        E 67 90 47 44
        E 15 90 4a 00
        E 21 90 45 00
        E 10 90 32 00
        E 25 90 49 4d
        E 57 90 47 00
        E 10 90 49 00
        E 5 90 4a 4f
        E 66 90 4c 4a
        E 72 90 4e 3d
        E 10 90 4a 00
        E 46 90 4c 00
        E 61 90 4e 00
        E 26 e0 55 4a
        E 0 90 50 4a
        E 5 e0 55 4a
        E 6 e0 55 4a
        E 5 e0 55 4a
        E 5 e0 2b 55
        E 6 e0 2b 55
        E 5 e0 2b 55
        E 6 e0 2b 55
        E 5 e0 55 4a
        E 5 e0 55 4a
        E 6 e0 55 4a
        E 5 e0 55 4a
        E 5 e0 55 4a
        E 6 e0 55 4a
        E 5 e0 55 4a
        E 6 e0 55 4a
        E 5 e0 55 4a
        E 5 e0 55 4a
        E 6 e0 55 4a
        E 5 e0 55 4a
        E 0 90 50 00
        E 0 90 51 51
        E 5 90 45 2d
        E 72 90 40 42
        E 10 90 43 32
        E 6 90 45 00
        E 61 90 3e 4e
        E 0 90 43 00
        E 5 90 51 00
        E 5 90 42 25
        E 15 90 40 00
        E 46 90 42 00
        E 0 90 42 57
        E 6 90 3e 00
        E 0 90 3e 4a
        E 71 90 42 00
        E 0 90 42 42
        E 5 90 3e 00
        E 0 90 3e 53
        E 0 90 51 29
        E 61 90 3e 00
        E 0 90 3e 4a
        E 0 90 42 00
        E 0 90 42 4b
        E 0 90 51 00
        E 0 90 51 3c
        E 31 90 56 4b
        E 31 90 51 00
        E 5 90 42 00
        E 0 90 42 50
        E 10 90 3e 00
        E 0 90 3e 52
        E 15 90 56 00
        E 41 90 42 00
        E 0 90 42 54
        E 5 90 3e 00
        E 0 90 3e 58
        E 57 90 42 00
        E 0 90 42 53
        E 0 90 4e 18
        E 5 90 3e 00
        E 0 90 3e 35
        E 66 90 42 00
        E 0 90 42 4d
        E 0 90 4e 00
        E 0 90 4e 4f
        E 112 90 3e 00
        E 46 90 36 2e
        E 0 90 42 00
        E 0 90 42 3d
        E 67 90 42 00
        E 5 90 3e 4f
        E 5 90 36 00
        E 0 90 36 34
        E 72 90 3e 00
        E 0 90 3e 42
        E 36 90 36 00
        E 25 90 3e 00
        E 0 90 3e 3f
        E 16 90 36 2b
        E 0 90 4e 00
        E 0 90 4e 4e
        E 51 90 3e 00
        E 0 90 3e 43
        E 15 90 36 00
        E 0 90 36 39
        E 67 90 36 00
        E 0 90 36 2f
        E 0 90 3e 00
        E 0 90 3e 53
        E 5 90 4e 00
        E 56 90 36 00
        E 0 90 36 3b
        E 0 90 3e 00
        E 0 90 3e 46
        E 0 90 42 2a
        E 61 90 42 00
        E 10 90 36 00
        E 0 90 36 33
        E 0 90 3b 53
        E 11 90 3e 00
        E 61 90 3e 2e
        E 0 90 4a 4e
        E 5 90 3b 00
        E 0 90 3b 32
        E 56 90 36 00
        E 21 90 4e 3e
        E 25 90 3b 00
        E 26 90 3e 00
        E 61 90 4a 00
        E 5 90 4e 00
        E 15 90 4c 47
        E 149 90 39 3e
        E 35 90 4c 00
        E 21 90 39 00
        E 11 90 40 3d
        E 0 90 49 4f
        E 66 90 43 38
        E 5 90 40 00
        E 0 90 40 31
        E 0 90 4c 32
        E 46 90 49 00
        E 15 90 40 00
        E 0 90 4c 00
        E 16 90 43 00
        E 5 90 4a 4e
        E 5 90 42 52
        E 61 90 3e 45
        E 87 90 39 43
        E 56 90 36 2c
        E 11 90 3e 00
        E 0 90 3e 45
        E 61 90 3e 00
        E 0 90 3e 39
        E 5 90 32 44
        E 5 90 4a 00
        E 10 90 39 00
        E 41 90 36 00
        E 15 90 42 00
        E 6 90 3e 00
        E 30 90 32 00
        E 87 e0 55 4a
        E 0 90 26 4e
        E 5 e0 55 4a
        E 5 e0 55 4a
        E 5 e0 55 4a
        E 6 e0 55 4a
        E 5 e0 55 4a
        E 5 e0 55 4a
        E 5 e0 55 4a
        E 5 e0 55 4a
        E 5 e0 55 4a
        E 5 e0 55 4a
        E 5 e0 55 4a
        E 5 e0 55 4a
        E 6 e0 55 4a
        E 5 e0 55 4a
        E 5 e0 55 4a
        E 5 e0 55 4a
        E 5 e0 55 4a
        E 5 e0 55 4a
        E 5 e0 55 4a
        E 5 e0 55 4a
        E 5 e0 55 4a
        E 6 e0 55 4a
        E 5 e0 55 4a
        E 5 e0 55 4a
        E 5 e0 55 4a
        E 5 e0 55 4a
        E 5 e0 55 4a
        E 5 e0 55 4a
        E 5 e0 55 4a
        E 6 e0 55 4a
        E 5 e0 55 4a
        E 5 e0 55 4a
        E 5 e0 55 4a
        E 5 e0 55 4a
        E 5 e0 55 4a
        E 5 e0 55 4a
        E 5 e0 55 4a
        E 5 e0 55 4a
        E 6 e0 55 4a
        E 5 e0 55 4a
        E 5 e0 55 4a
        E 5 e0 55 4a
        E 5 e0 55 4a
        E 5 e0 55 4a
        E 5 e0 55 4a
        E 5 e0 55 4a
        E 6 e0 55 4a
        E 5 e0 55 4a
        E 5 e0 55 4a
        E 5 e0 55 4a
        E 5 e0 55 4a
        E 5 e0 55 4a
        E 5 e0 55 4a
        E 5 e0 55 4a
        E 5 e0 55 4a
        E 6 e0 55 4a
        E 5 e0 55 4a
        E 5 e0 55 4a
        E 5 e0 55 4a
        E 5 e0 55 4a
        E 5 e0 55 4a
        E 5 e0 55 4a
        E 5 e0 55 4a
        E 0 90 26 00
        E 31 90 40 2c
        E 0 90 4c 53
        E 15 90 49 3f
        E 16 90 2d 4a
        E 56 90 40 00
        E 46 90 39 36
        E 0 90 45 4a
        E 15 90 4c 00
        E 31 90 49 00
        E 36 90 4f 53
        E 5 90 39 00
        E 0 90 39 36
        E 0 90 4c 47
        E 46 90 45 00
        E 25 90 4f 00
        E 0 90 4f 5e
        E 77 90 49 4b
        E 61 90 4c 00
        E 5 90 49 00
        E 0 90 49 3a
        E 0 90 4f 00
        E 0 90 4f 54
        E 0 90 55 3e
        E 72 90 55 00
        E 0 90 55 2c
        E 10 90 4f 00
        E 0 90 4f 30
        E 56 90 4c 68
        E 0 90 58 1f
        E 31 90 49 00
        E 36 90 4c 00
        E 0 90 4c 4f
        E 0 90 4f 00
        E 0 90 4f 3a
        E 0 90 58 00
        E 0 90 58 42
        E 56 90 55 00
        E 5 90 39 00
        E 31 90 2d 00
        E 0 90 45 63
        E 0 90 58 00
        E 26 90 4f 00
        E 61 90 45 00
        E 0 90 45 41
        E 0 90 4c 00
        E 66 90 53 51
        E 6 90 56 40
        E 71 90 51 3e
        E 5 90 45 00
        E 0 90 45 2f
        E 61 90 53 00
        E 0 90 53 44
        E 36 90 56 00
        E 36 90 4e 4c
        E 0 90 53 00
        E 5 90 45 00
        E 0 90 45 32
        E 56 90 51 00
        E 10 90 45 00
        E 0 90 4c 29
        E 0 90 4e 00
        E 0 90 4e 36
        E 67 90 4e 00
        E 0 90 4e 33
        E 10 90 4a 3f
        E 66 90 4a 00
        E 0 90 4c 00
        E 0 90 4c 40
        E 6 90 49 45
        E 97 90 4e 00
        E 0 90 4e 4e
        E 10 90 32 44
        E 0 90 3e 3b
        E 5 90 49 00
        E 0 90 4a 20
        E 66 90 45 4d
        E 0 90 51 29
        E 16 90 4a 00
        E 5 90 4c 00
        E 46 90 4e 00
        E 0 90 4e 50
        E 0 90 51 00
        E 0 90 51 50
        E 51 90 3e 00
        E 0 90 45 00
        E 11 90 4e 00
        E 0 90 4e 39
        E 5 90 45 25
        E 0 90 51 00
        E 0 90 51 4f
        E 61 90 45 00
        E 5 90 32 00
        E 0 90 4a 64
        E 0 90 56 26
        E 77 90 4a 00
        E 0 90 4a 45
        E 0 90 56 00
        E 0 90 56 52
        E 36 90 51 00
        E 15 90 4e 00
        E 25 90 4a 00
        E 0 90 4a 34
        E 0 90 56 00
        E 0 90 56 4d
        E 62 90 4a 00
        E 97 90 56 00
        E 0 90 56 4c
        E 5 90 4e 37
        E 102 90 4e 00
        E 21 90 26 4d
        E 30 90 56 00
        E 56 90 49 43
        E 62 90 49 00
        E 0 90 4a 42
        E 102 90 26 00
        E 25 90 4a 00
        E 5 e0 55 4a
        E 0 90 4c 47
        E 6 e0 55 4a
        E 5 e0 55 4a
        E 5 e0 55 4a
        E 5 e0 55 4a
        E 5 e0 2b 55
        E 5 e0 55 4a
        E 5 e0 55 4a
        E 6 e0 55 4a
        E 5 e0 55 4a
        E 5 e0 55 4a
        E 5 e0 55 4a
        E 5 e0 55 4a
        E 5 e0 55 4a
        E 5 e0 55 6a
        E 6 e0 55 6a
        E 5 e0 55 6a
        E 5 e0 55 6a
        E 5 e0 55 6a
        E 0 90 4c 00
        E 36 e0 55 4a
        E 0 90 4e 45
        E 5 e0 55 4a
        E 5 e0 55 4a
        E 6 e0 55 4a
        E 5 e0 55 4a
        E 5 e0 55 4a
        E 6 e0 55 4a
        E 5 e0 55 4a
        E 5 e0 55 4a
        E 6 e0 55 4a
        E 5 e0 55 4a
        E 5 e0 55 4a
        E 6 e0 55 4a
        E 5 e0 55 4a
        E 5 e0 55 4a
        E 6 e0 55 4a
        E 5 e0 55 4a
        E 5 e0 55 4a
        E 6 e0 55 4a
        E 5 e0 55 4a
        E 5 e0 55 4a
        E 6 e0 55 4a
        E 5 e0 55 4a
        E 5 e0 55 4a
        E 0 90 4e 00
        E 16 e0 55 4a
        E 0 90 50 44
        E 5 e0 55 4a
        E 6 e0 55 4a
        E 5 e0 55 4a
        E 6 e0 55 4a
        E 5 e0 55 4a
        E 6 e0 55 4a
        E 5 e0 55 4a
        E 6 e0 55 4a
        E 5 e0 55 4a
        E 6 e0 55 4a
        E 6 e0 55 4a
        E 5 e0 55 4a
        E 0 90 50 00
        E 5 e0 55 4a
        E 0 90 51 51
        E 6 e0 55 4a
        E 5 e0 55 4a
        E 6 e0 55 4a
        E 5 e0 55 4a
        E 6 e0 55 4a
        E 5 e0 55 4a
        E 6 e0 55 4a
        E 5 e0 55 4a
        E 5 e0 55 4a
        E 6 e0 55 4a
        E 5 e0 55 4a
        E 6 e0 55 4a
        E 5 e0 55 4a
        E 6 e0 2b 55
        E 0 90 51 00
        E 0 90 51 3b
        E 5 e0 55 4a
        E 6 e0 55 4a
        E 5 e0 55 4a
        E 6 e0 55 4a
        E 5 e0 55 4a
        E 6 e0 55 4a
        E 5 e0 55 4a
        E 6 e0 55 4a
        E 5 e0 55 4a
        E 6 e0 55 4a
        E 5 e0 55 4a
        E 6 e0 55 4a
        E 5 e0 55 4a
        E 0 90 51 00
        E 57 e0 55 4a
        E 0 90 54 45
        E 5 e0 55 4a
        E 5 e0 55 4a
        E 6 e0 2b 55
        E 5 e0 2b 55
        E 5 e0 2b 55
        E 6 e0 2b 55
        E 5 e0 2b 55
        E 5 e0 55 4a
        E 6 e0 55 4a
        E 5 e0 55 4a
        E 5 e0 55 4a
        E 6 e0 55 4a
        E 5 e0 55 2a
        E 5 e0 55 2a
        E 6 e0 55 2a
        E 5 e0 55 2a
        E 5 e0 55 2a
        E 6 e0 55 2a
        E 5 e0 55 4a
        E 5 e0 55 4a
        E 6 e0 55 4a
        E 5 e0 55 4a
        E 0 90 54 00
        E 15 e0 55 4a
        E 0 90 52 3e
        E 6 e0 55 4a
        E 5 e0 55 4a
        E 6 e0 55 4a
        E 6 e0 55 4a
        E 5 e0 55 4a
        E 6 e0 55 4a
        E 5 e0 55 4a
        E 6 e0 55 4a
        E 6 e0 55 4a
        E 5 e0 55 4a
        E 6 e0 55 4a
        E 0 90 52 00
        E 0 90 52 33
        E 66 90 3d 4c
        E 26 90 52 00
        E 118 90 43 29
        E 66 90 43 00
        E 77 90 42 5f
        E 15 90 3d 00
        E 0 90 3e 5a
        E 66 90 3e 00
        E 0 90 3e 40
        E 0 90 42 00
        E 0 90 42 36
        E 0 90 56 37
        E 62 90 3e 00
        E 61 90 42 00
        E 10 90 56 00
        E 143 e0 55 4a
        E 0 90 52 34
        E 6 e0 55 4a
        E 5 e0 55 4a
        E 6 e0 55 4a
        E 5 e0 55 4a
        E 5 e0 55 4a
        E 6 e0 2b 55
        E 5 e0 55 4a
        E 6 e0 55 4a
        E 5 e0 55 4a
        E 6 e0 55 4a
        E 5 e0 55 4a
        E 5 e0 55 4a
        E 6 e0 55 4a
        E 5 e0 55 4a
        E 6 e0 55 4a
        E 5 e0 55 4a
        E 0 90 52 00
        E 31 90 3d 57
        E 0 90 43 37
        E 255 90 43 00
        E 26 90 3d 00
        E 0 90 3e 4e
        E 0 90 42 4d
        E 67 90 4d 3f
        E 0 90 50 3a
        E 25 90 3e 00
        E 26 90 42 00
        E 10 90 4d 00
        E 72 90 50 00
        E 20 90 37 3f
        E 71 90 4b 43
        E 0 90 4e 4d
        E 16 90 37 00
        E 133 90 38 42
        E 0 90 4e 00
        E 15 90 4b 00
        E 46 90 38 00
        E 10 90 4d 51
        E 10 90 49 32
        E 57 90 4d 00
        E 0 90 4e 43
        E 86 90 49 00
        E 0 90 49 48
        E 0 90 4c 52
        E 16 90 4e 00
        E 61 90 2d 47
        E 36 90 4c 00
        E 5 90 49 00
        E 51 90 31 43
        E 67 90 34 30
        E 51 90 31 00
        E 66 90 2d 00
        E 0 90 34 00
        E 87 e0 55 4a
        E 0 90 3b 45
        E 6 e0 55 4a
        E 5 e0 55 4a
        E 6 e0 55 4a
        E 5 e0 55 4a
        E 6 e0 55 4a
        E 5 e0 55 4a
        E 6 e0 55 4a
        E 5 e0 55 4a
        E 6 e0 55 4a
        E 5 e0 55 4a
        E 5 e0 55 4a
        E 6 e0 2b 55
        E 5 e0 2b 55
        E 6 e0 55 6a
        E 0 90 3b 00
        E 0 90 3c 5d
        E 5 e0 55 4a
        E 6 e0 55 4a
        E 6 e0 55 4a
        E 5 e0 55 4a
        E 6 e0 55 4a
        E 5 e0 55 4a
        E 6 e0 55 4a
        E 5 e0 55 4a
        E 6 e0 55 4a
        E 5 e0 55 4a
        E 6 e0 55 4a
        E 5 e0 55 4a
        E 0 90 3c 00
        E 0 90 3d 48
        E 6 e0 55 4a
        E 5 e0 55 4a
        E 5 e0 55 4a
        E 6 e0 55 4a
        E 5 e0 55 4a
        E 6 e0 55 4a
        E 5 e0 55 4a
        E 5 e0 55 4a
        E 6 e0 55 4a
        E 5 e0 55 4a
        E 5 e0 55 4a
        E 6 e0 55 4a
        E 5 e0 55 4a
        E 6 e0 55 4a
        E 5 e0 55 4a
        E 5 e0 55 4a
        E 6 e0 55 4a
        E 5 e0 55 4a
        E 5 e0 55 4a
        E 0 90 3d 00
        E 11 90 4e 37
        E 10 90 3e 5d
        E 174 90 4e 00
        E 0 90 4e 3e
        E 5 90 3e 00
        E 0 90 3e 3b
        E 0 90 4a 3c
        E 66 90 4e 00
        E 0 90 4e 46
        E 5 90 3e 00
        E 0 90 3e 32
        E 0 90 4a 00
        E 0 90 4a 43
        E 72 90 3e 00
        E 0 90 3e 34
        E 0 90 4a 00
        E 0 90 4a 4c
        E 0 90 4e 00
        E 0 90 4e 46
        E 67 90 4a 00
        E 0 90 4a 44
        E 0 90 4e 00
        E 0 90 4e 3f
        E 30 90 3e 00
        E 36 90 4a 00
        E 0 90 4a 4e
        E 0 90 4e 00
        E 0 90 4e 49
        E 72 90 4e 00
        E 0 90 4e 48
        E 5 90 4a 00
        E 0 90 4a 54
        E 61 90 4a 00
        E 0 90 4a 4a
        E 0 90 4e 00
        E 0 90 4e 4d
        E 66 90 4a 00
        E 21 90 4e 00
        E 0 90 4e 27
        E 5 90 32 4d
        E 56 90 4e 00
        E 16 90 4c 37
        E 71 90 42 4b
        E 5 90 4a 33
        E 0 90 4c 00
        E 82 90 42 00
        E 0 90 42 4d
        E 0 90 4a 00
        E 0 90 4a 53
        E 46 90 32 00
        E 15 90 4a 00
        E 0 90 4a 4f
        E 5 90 42 00
        E 0 90 42 58
        E 72 90 42 00
        E 0 90 42 54
        E 0 90 4a 00
        E 0 90 4a 57
        E 61 90 4a 00
        E 0 90 4a 5a
        E 5 90 42 00
        E 0 90 42 58
        E 82 90 42 00
        E 0 90 42 4e
        E 0 90 4a 00
        E 0 90 4a 5b
        E 57 90 42 00
        E 0 90 42 39
        E 0 90 4a 00
        E 0 90 4a 51
        E 87 90 3b 46
        E 61 90 3b 00
        E 5 90 4a 00
        E 0 90 4a 4e
        E 46 90 42 00
        E 15 90 4e 30
        E 5 90 45 48
        E 82 90 37 3f
        E 21 90 45 00
        E 0 90 4e 00
        E 25 90 4a 00
        E 26 90 43 30
        E 5 90 4c 41
        E 56 90 37 00
        E 10 90 47 42
        E 61 90 43 00
        E 11 90 4c 00
        E 5 90 39 3e
        E 25 90 47 00
        E 41 90 40 34
        E 0 90 49 43
        E 61 90 4c 4a
        E 11 90 39 00
        E 41 90 49 00
        E 5 90 40 00
        E 30 90 32 51
        E 5 90 4c 00
        E 62 90 45 34
        E 67 90 47 40
        E 25 90 45 00
        E 31 90 32 00
        E 10 90 49 51
        E 21 90 47 00
        E 51 90 49 00
        E 0 90 4a 48
        E 66 90 4c 49
        E 66 90 4e 47
        E 6 90 4a 00
        E 30 90 4c 00
        E 26 90 4e 00
        E 87 e0 55 4a
        E 0 90 50 49
        E 5 e0 55 4a
        E 5 e0 55 4a
        E 6 e0 2b 55
        E 5 e0 2b 55
        E 5 e0 55 4a
        E 6 e0 55 4a
        E 5 e0 55 4a
        E 5 e0 55 4a
        E 6 e0 55 4a
        E 5 e0 55 4a
        E 6 e0 55 4a
        E 5 e0 55 4a
        E 5 e0 55 4a
        E 6 e0 55 4a
        E 5 e0 55 4a
        E 5 e0 2b 55
        E 6 e0 2b 55
        E 5 e0 2b 55
        E 5 e0 2b 55
        E 6 e0 2b 55
        E 0 90 50 00
        E 5 90 45 2b
        E 0 90 51 56
        E 87 90 45 00
        E 5 90 40 3b
        E 5 90 43 30
        E 66 90 3e 4d
        E 11 90 51 00
        E 30 90 40 00
        E 5 90 43 00
        E 36 90 3e 00
        E 0 90 3e 49
        E 0 90 42 5d
        E 72 90 3e 00
        E 0 90 3e 44
        E 0 90 42 00
        E 0 90 42 4d
        E 31 90 51 2c
        E 31 90 3e 00
        E 0 90 3e 44
        E 0 90 42 00
        E 0 90 42 3c
        E 30 90 51 00
        E 0 90 51 43
        E 41 90 56 32
        E 5 90 3e 00
        E 0 90 3e 4b
        E 0 90 42 00
        E 0 90 42 48
        E 36 90 51 00
        E 31 90 42 00
        E 0 90 42 57
        E 5 90 3e 00
        E 0 90 3e 56
        E 41 90 56 00
        E 20 90 3e 00
        E 0 90 3e 4d
        E 0 90 42 00
        E 0 90 42 51
        E 77 90 3e 00
        E 10 90 42 00
        E 0 90 42 49
        E 0 90 4e 57
        E 143 90 42 00
        E 5 90 3e 4e
        E 82 90 36 2b
        E 0 90 42 36
        E 5 90 3e 00
        E 0 90 3e 4a
        E 56 90 4e 00
        E 10 90 36 00
        E 0 90 36 3f
        E 0 90 3e 00
        E 0 90 3e 45
        E 5 90 42 00
        E 77 90 3e 00
        E 0 90 3e 47
        E 10 90 36 00
        E 16 90 4e 48
        E 35 90 51 2d
        E 5 90 36 33
        E 0 90 3e 00
        E 0 90 3e 52
        E 67 90 3e 00
        E 0 90 3e 58
        E 46 90 51 00
        E 5 90 4e 00
        E 21 90 36 00
        E 0 90 36 3b
        E 0 90 3e 00
        E 0 90 3e 3a
        E 71 90 3b 54
        E 5 90 36 00
        E 0 90 36 2e
        E 57 90 3b 00
        E 0 90 3b 34
        E 0 90 3e 00
        E 0 90 3e 3b
        E 0 90 42 2f
        E 0 90 4a 4d
        E 35 90 36 00
        E 31 90 4e 3c
        E 31 90 3b 00
        E 25 90 3e 00
        E 16 90 37 3c
        E 0 90 4a 00
        E 0 90 4a 29
        E 51 90 42 00
        E 0 90 4e 00
        E 10 90 4a 00
        E 10 90 4c 31
        E 46 90 37 00
        E 15 90 47 40
        E 67 90 4c 00
        E 15 90 39 40
        E 67 90 40 30
        E 0 90 49 41
        E 5 90 39 00
        E 20 90 47 00
        E 41 90 43 3f
        E 56 90 49 00
        E 10 90 40 00
        E 21 90 3e 22
        E 0 90 43 00
        E 0 90 4a 4a
        E 10 90 42 5a
        E 61 90 3e 00
        E 0 90 3e 3c
        E 72 90 39 47
        E 72 90 36 35
        E 0 90 42 00
        E 0 90 42 29
        E 20 90 39 00
        E 31 90 4a 00
        E 10 90 3e 00
        E 0 90 3e 35
        E 16 90 32 48
        E 0 90 36 00
        E 0 90 36 30
        E 35 90 42 00
        E 11 90 3e 00
        E 81 90 32 00
        E 31 90 36 00
        E 46 90 32 2f
        E 31 90 26 4b
        E 40 90 32 00
        E 353 90 26 00
        E 292 e0 55 4a
        E 0 90 51 54
        E 5 e0 55 4a
        E 5 e0 55 4a
        E 6 e0 55 4a
        E 5 e0 55 4a
        E 5 e0 55 4a
        E 5 e0 2b 55
        E 6 e0 2b 55
        E 5 e0 55 4a
        E 5 e0 55 4a
        E 6 e0 55 4a
        E 5 e0 55 4a
        E 5 e0 55 4a
        E 5 e0 55 4a
        E 6 e0 55 4a
        E 5 e0 55 4a
        E 5 e0 55 4a
        E 6 e0 2b 55
        E 5 e0 2b 55
        E 5 e0 2b 55
        E 5 e0 2b 55
        E 6 e0 2b 55
        E 5 e0 2b 55
        E 5 e0 55 4a
        E 6 e0 2b 55
        E 5 e0 55 4a
        E 5 e0 2b 55
        E 6 e0 55 4a
        E 5 e0 55 4a
        E 0 90 51 00
        E 0 90 51 55
        E 5 e0 55 4a
        E 5 e0 55 4a
        E 6 e0 2b 55
        E 5 e0 2b 55
        E 5 e0 2b 55
        E 6 e0 2b 55
        E 5 e0 2b 55
        E 6 e0 2b 55
        E 5 e0 55 4a
        E 5 e0 55 4a
        E 6 e0 2b 55
        E 5 e0 2b 55
        E 5 e0 2b 55
        E 6 e0 2b 55
        E 5 e0 2b 55
        E 5 e0 2b 55
        E 6 e0 2b 55
        E 5 e0 2b 55
        E 5 e0 2b 55
        E 6 e0 2b 55
        E 5 e0 2b 55
        E 5 e0 2b 55
        E 0 90 51 00
        E 0 90 51 5a
        E 6 e0 55 4a
        E 5 e0 55 4a
        E 5 e0 55 4a
        E 6 e0 55 4a
        E 5 e0 2b 55
        E 5 e0 2b 55
        E 6 e0 2b 55
        E 5 e0 2b 55
        E 5 e0 55 4a
        E 6 e0 55 4a
        E 5 e0 55 4a
        E 6 e0 55 4a
        E 5 e0 2b 55
        E 5 e0 55 4a
        E 6 e0 2b 55
        E 5 e0 2b 55
        E 5 e0 2b 55
        E 6 e0 2b 55
        E 5 e0 2b 55
        E 5 e0 2b 55
        E 6 e0 55 4a
        E 0 90 49 2d
        E 0 90 51 00
        E 0 90 51 5b
        E 71 90 49 00
        E 31 90 51 00
        E 0 90 51 4b
        E 5 90 4e 38
        E 5 90 4a 35
        E 72 90 4e 00
        E 10 90 51 00
        E 0 90 51 4a
        E 10 90 56 44
        E 57 90 4a 00
        E 0 90 56 00
        E 71 90 4e 4a
        E 5 90 51 00
        E 103 e0 55 4a
        E 0 90 4e 00
        E 0 90 4e 55
        E 5 e0 55 4a
        E 5 e0 55 4a
        E 6 e0 55 4a
        E 5 e0 55 4a
        E 5 e0 55 4a
        E 6 e0 55 4a
        E 5 e0 55 4a
        E 5 e0 55 4a
        E 6 e0 55 4a
        E 5 e0 55 4a
        E 5 e0 2b 55
        E 6 e0 2b 55
        E 5 e0 2b 55
        E 5 e0 2b 55
        E 6 e0 2b 55
        E 5 e0 55 4a
        E 6 e0 55 4a
        E 5 e0 55 4a
        E 5 e0 55 4a
        E 6 e0 55 4a
        E 5 e0 55 4a
        E 0 90 4e 00
        E 0 90 4e 5e
        E 5 e0 55 4a
        E 6 e0 55 4a
        E 5 e0 55 4a
        E 5 e0 55 4a
        E 6 e0 55 4a
        E 5 e0 55 4a
        E 5 e0 55 4a
        E 6 e0 55 4a
        E 5 e0 55 4a
        E 6 e0 55 4a
        E 5 e0 55 4a
        E 5 e0 2b 55
        E 6 e0 2b 55
        E 5 e0 2b 55
        E 5 e0 2b 55
        E 6 e0 2b 55
        E 5 e0 2b 55
        E 5 e0 2b 55
        E 6 e0 55 4a
        E 5 e0 55 4a
        E 0 90 4c 2e
        E 0 90 4e 00
        E 0 90 4e 5a
        E 67 90 4c 00
        E 35 90 4e 00
        E 0 90 4e 48
        E 21 90 4a 37
        E 66 90 4a 00
        E 16 e0 55 4a
        E 0 90 4e 00
        E 0 90 4e 5d
        E 5 e0 55 4a
        E 6 e0 55 4a
        E 5 e0 55 4a
        E 6 e0 55 4a
        E 5 e0 55 4a
        E 6 e0 55 4a
        E 6 e0 55 4a
        E 5 e0 55 4a
        E 6 e0 55 4a
        E 5 e0 55 4a
        E 6 e0 55 4a
        E 0 90 4e 00
        E 0 90 4e 40
        E 66 90 4a 54
        E 113 90 4e 00
        E 5 90 42 39
        E 0 90 45 3f
        E 82 90 42 00
        E 26 90 45 00
        E 0 90 4c 51
        E 10 90 4a 00
        E 112 90 43 44
        E 82 90 4c 00
        E 5 90 43 00
        E 20 e0 55 4a
        E 0 90 4f 57
        E 6 e0 2b 55
        E 5 e0 2b 55
        E 6 e0 2b 55
        E 5 e0 2b 55
        E 6 e0 2b 55
        E 5 e0 2b 55
        E 5 e0 2b 55
        E 6 e0 2b 55
        E 5 e0 2b 55
        E 6 e0 2b 55
        E 5 e0 2b 55
        E 5 e0 2b 55
        E 6 e0 2b 55
        E 5 e0 2b 55
        E 6 e0 2b 55
        E 5 e0 2b 55
        E 5 e0 2b 55
        E 0 90 4f 00
        E 0 90 4f 4d
        E 67 90 45 41
        E 46 90 4f 00
        E 5 90 4e 46
        E 10 90 45 00
        E 10 90 3e 52
        E 41 90 4e 00
        E 5 90 4e 47
        E 87 90 4e 00
        E 10 90 4a 38
        E 11 90 4c 5c
        E 51 90 4a 00
        E 46 90 3e 00
        E 10 90 4c 00
        E 0 90 4c 3c
        E 15 90 4e 46
        E 72 90 4c 00
        E 31 90 4e 00
        E 0 90 4f 30
        E 102 90 51 4e
        E 36 90 4f 00
        E 51 90 51 00
        E 0 90 51 45
        E 20 90 53 31
        E 87 90 53 00
        E 10 e0 55 4a
        E 0 90 51 00
        E 0 90 51 56
        E 6 e0 55 4a
        E 5 e0 55 4a
        E 5 e0 55 4a
        E 6 e0 55 4a
        E 5 e0 55 4a
        E 6 e0 55 4a
        E 5 e0 55 4a
        E 5 e0 55 4a
        E 6 e0 55 4a
        E 5 e0 55 4a
        E 5 e0 55 4a
        E 6 e0 55 4a
        E 5 e0 55 4a
        E 5 e0 55 4a
        E 6 e0 55 4a
        E 5 e0 2b 55
        E 5 e0 2b 55
        E 6 e0 2b 55
        E 5 e0 2b 55
        E 5 e0 2b 55
        E 6 e0 2b 55
        E 0 90 51 00
        E 0 90 51 58
        E 5 e0 55 4a
        E 6 e0 55 4a
        E 5 e0 55 4a
        E 5 e0 55 4a
        E 6 e0 55 4a
        E 5 e0 55 4a
        E 5 e0 55 4a
        E 6 e0 55 4a
        E 5 e0 55 4a
        E 6 e0 55 4a
        E 5 e0 55 4a
        E 5 e0 55 4a
        E 6 e0 55 4a
        E 5 e0 55 4a
        E 5 e0 55 4a
        E 6 e0 55 4a
        E 5 e0 55 4a
        E 6 e0 55 4a
        E 5 e0 55 4a
        E 0 90 51 00
        E 0 90 51 57
        E 5 e0 55 4a
        E 6 e0 55 4a
        E 5 e0 55 4a
        E 5 e0 55 4a
        E 6 e0 55 4a
        E 5 e0 2b 55
        E 6 e0 55 4a
        E 5 e0 55 4a
        E 5 e0 55 4a
        E 6 e0 55 4a
        E 5 e0 55 4a
        E 5 e0 55 4a
        E 6 e0 55 4a
        E 5 e0 55 4a
        E 5 e0 55 4a
        E 6 e0 55 4a
        E 5 e0 2b 55
        E 6 e0 2b 55
        E 5 e0 2b 55
        E 5 e0 2b 55
        E 0 90 51 00
        E 0 90 51 58
        E 6 e0 2b 55
        E 5 e0 2b 55
        E 5 e0 55 4a
        E 6 e0 55 4a
        E 5 e0 55 4a
        E 5 e0 55 4a
        E 6 e0 55 4a
        E 5 e0 55 4a
        E 5 e0 55 4a
        E 6 e0 55 4a
        E 5 e0 55 4a
        E 5 e0 55 4a
        E 6 e0 55 4a
        E 5 e0 55 4a
        E 6 e0 2b 55
        E 5 e0 2b 55
        E 5 e0 2b 55
        E 6 e0 2b 55
        E 5 e0 2b 55
        E 5 e0 2b 55
        E 6 e0 55 4a
        E 0 90 51 00
        E 0 90 51 52
        E 5 e0 55 4a
        E 5 e0 55 4a
        E 5 e0 55 4a
        E 5 e0 55 4a
        E 5 e0 55 4a
        E 6 e0 55 4a
        E 5 e0 55 4a
        E 5 e0 55 4a
        E 5 e0 55 4a
        E 5 e0 55 4a
        E 5 e0 55 4a
        E 5 e0 55 4a
        E 5 e0 55 4a
        E 6 e0 55 4a
        E 5 e0 55 4a
        E 5 e0 55 4a
        E 5 e0 55 4a
        E 0 90 51 00
        E 0 90 51 3b
        E 51 90 56 38
        E 10 90 51 00
        E 46 90 4e 55
        E 87 90 56 00
        E 31 90 4c 1e
        E 0 90 4e 00
        E 0 90 4e 57
        E 61 90 4c 00
        E 51 e0 55 4a
        E 0 90 4e 00
        E 0 90 4e 56
        E 6 e0 55 4a
        E 5 e0 55 4a
        E 5 e0 55 4a
        E 6 e0 55 4a
        E 5 e0 55 4a
        E 6 e0 55 4a
        E 5 e0 55 4a
        E 5 e0 55 4a
        E 6 e0 55 4a
        E 5 e0 55 4a
        E 6 e0 55 4a
        E 5 e0 55 4a
        E 5 e0 55 4a
        E 6 e0 55 4a
        E 5 e0 55 4a
        E 5 e0 55 4a
        E 6 e0 55 4a
        E 5 e0 55 4a
        E 0 90 4e 00
        E 0 90 4e 58
        E 6 e0 55 4a
        E 5 e0 55 4a
        E 5 e0 55 4a
        E 6 e0 55 4a
        E 5 e0 55 4a
        E 5 e0 55 4a
        E 6 e0 55 4a
        E 5 e0 55 4a
        E 5 e0 55 4a
        E 6 e0 55 4a
        E 5 e0 55 4a
        E 5 e0 55 4a
        E 6 e0 55 4a
        E 5 e0 55 4a
        E 5 e0 55 4a
        E 6 e0 55 4a
        E 5 e0 55 4a
        E 5 e0 55 4a
        E 6 e0 55 4a
        E 5 e0 55 4a
        E 5 e0 55 4a
        E 6 e0 55 4a
        E 0 90 4e 00
        E 0 90 4e 56
        E 5 e0 55 4a
        E 6 e0 55 4a
        E 5 e0 55 4a
        E 6 e0 55 4a
        E 6 e0 55 4a
        E 5 e0 55 4a
        E 6 e0 55 4a
        E 5 e0 55 4a
        E 6 e0 55 4a
        E 5 e0 55 4a
        E 6 e0 55 4a
        E 0 90 4e 00
        E 0 90 4e 41
        E 6 e0 55 4a
        E 5 e0 55 4a
        E 6 e0 55 4a
        E 5 e0 55 4a
        E 6 e0 55 4a
        E 5 e0 55 4a
        E 6 e0 55 4a
        E 5 e0 55 4a
        E 6 e0 55 4a
        E 5 e0 55 4a
        E 6 e0 55 4a
        E 5 e0 55 4a
        E 6 e0 55 4a
        E 0 90 4e 00
        E 10 90 53 30
        E 71 90 4a 5b
        E 46 90 53 00
        E 67 90 42 44
        E 5 90 45 3f
        E 36 90 4e 4e
        E 46 90 42 00
        E 5 90 45 00
        E 5 90 4a 00
        E 0 90 4a 34
        E 0 90 4c 4f
        E 5 90 4e 00
        E 77 90 4a 00
        E 46 90 43 1f
        E 46 90 4f 3b
        E 26 90 43 00
        E 40 90 49 54
        E 26 90 4f 00
        E 0 90 4f 3f
        E 36 90 4c 00
        E 46 90 4f 00
        E 15 90 43 38
        E 46 90 4c 43
        E 31 90 43 00
        E 10 90 49 00
        E 15 90 4a 49
        E 97 90 4c 00
        E 16 90 2a 43
        E 15 90 36 2e
        E 46 90 2a 00
        E 5 90 2a 46
        E 26 90 4a 00
        E 30 90 36 00
        E 5 90 2a 00
        E 5 90 37 26
        E 6 90 2b 4b
        E 56 90 37 00
        E 46 90 2b 00
        E 16 e0 00 40
        E 0 90 2d 31
        E 5 e0 55 4a
        E 5 e0 55 4a
        E 5 e0 55 4a
        E 6 e0 55 4a
        E 5 e0 55 4a
        E 5 e0 55 4a
        E 6 e0 55 4a
        E 5 e0 55 4a
        E 5 e0 55 4a
        E 5 e0 00 40
        E 6 e0 00 40
        E 5 e0 00 40
        E 5 e0 00 40
        E 6 e0 00 40
        E 5 e0 00 40
        E 5 e0 00 40
        E 5 e0 00 40
        E 6 e0 00 40
        E 5 e0 00 40
        E 5 e0 00 40
        E 6 e0 00 40
        E 5 e0 00 40
        E 5 e0 00 40
        E 5 e0 00 40
        E 6 e0 00 40
        E 5 e0 55 4a
        E 5 e0 55 4a
        E 6 e0 55 4a
        E 5 e0 55 4a
        E 0 90 2d 00
        E 36 90 26 55
        E 92 90 32 34
        E 286 90 32 00
        E 102 90 26 00
        E 46 e0 55 4a
        E 0 90 51 46
        E 5 e0 55 4a
        E 5 e0 55 4a
        E 5 e0 55 4a
        E 5 e0 55 4a
        E 5 e0 2b 55
        E 6 e0 2b 55
        E 5 e0 55 4a
        E 5 e0 55 4a
        E 5 e0 55 4a
        E 5 e0 55 4a
        E 5 e0 55 4a
        E 5 e0 55 4a
        E 5 e0 55 4a
        E 6 e0 55 4a
        E 5 e0 55 4a
        E 5 e0 2b 55
        E 5 e0 2b 55
        E 5 e0 2b 55
        E 5 e0 55 4a
        E 5 e0 2b 55
        E 6 e0 55 4a
        E 5 e0 55 4a
        E 5 e0 55 4a
        E 0 90 51 00
        E 0 90 51 43
        E 5 e0 55 4a
        E 6 e0 55 4a
        E 5 e0 55 4a
        E 5 e0 55 4a
        E 6 e0 55 4a
        E 5 e0 55 4a
        E 5 e0 55 4a
        E 6 e0 55 4a
        E 5 e0 55 4a
        E 6 e0 55 4a
        E 5 e0 55 4a
        E 5 e0 55 4a
        E 6 e0 55 4a
        E 5 e0 55 4a
        E 5 e0 55 4a
        E 6 e0 55 4a
        E 5 e0 55 4a
        E 6 e0 55 4a
        E 5 e0 55 4a
        E 0 90 51 00
        E 0 90 51 52
        E 5 90 49 34
        E 82 90 49 00
        E 25 90 4a 36
        E 0 90 4e 2f
        E 0 90 51 00
        E 0 90 51 36
        E 62 90 4e 00
        E 15 90 4a 00
        E 15 90 4a 2b
        E 0 90 51 00
        E 0 90 51 57
        E 82 90 51 00
        E 0 90 51 39
        E 102 90 4a 00
        E 51 90 51 00
        E 26 e0 55 4a
        E 0 90 4e 57
        E 5 e0 55 4a
        E 6 e0 55 4a
        E 5 e0 55 4a
        E 5 e0 55 4a
        E 6 e0 55 4a
        E 5 e0 2b 55
        E 5 e0 2b 55
        E 6 e0 2b 55
        E 5 e0 2b 55
        E 5 e0 2b 55
        E 6 e0 2b 55
        E 5 e0 55 4a
        E 6 e0 55 4a
        E 5 e0 55 4a
        E 5 e0 55 4a
        E 6 e0 55 4a
        E 5 e0 55 4a
        E 5 e0 55 4a
        E 6 e0 55 4a
        E 5 e0 55 4a
        E 0 90 4e 00
        E 0 90 4e 5b
        E 5 e0 55 4a
        E 6 e0 55 4a
        E 5 e0 55 4a
        E 6 e0 55 4a
        E 5 e0 55 4a
        E 5 e0 2b 55
        E 6 e0 2b 55
        E 5 e0 2b 55
        E 5 e0 2b 55
        E 6 e0 2b 55
        E 5 e0 2b 55
        E 6 e0 2b 55
        E 5 e0 55 4a
        E 5 e0 55 4a
        E 6 e0 55 4a
        E 5 e0 55 4a
        E 6 e0 55 4a
        E 5 e0 55 4a
        E 5 e0 55 4a
        E 0 90 4e 00
        E 0 90 4e 3f
        E 5 90 46 3f
        E 67 90 46 00
        E 41 90 4a 45
        E 62 90 4a 00
        E 15 90 4e 00
        E 0 90 4e 4f
        E 25 90 53 48
        E 62 90 4e 00
        E 0 90 4e 3f
        E 0 90 53 00
        E 0 90 53 37
        E 61 90 4a 3a
        E 0 90 4e 00
        E 61 90 53 00
        E 46 90 42 45
        E 0 90 45 43
        E 87 90 4a 00
        E 10 90 42 00
        E 0 90 45 00
        E 16 90 4c 54
        E 102 90 47 4c
        E 20 90 43 36
        E 46 90 47 00
        E 5 90 47 3d
        E 41 90 4c 00
        E 10 90 4f 3b
        E 11 90 47 00
        E 15 90 43 00
        E 97 90 45 4c
        E 0 90 49 42
        E 31 90 4f 00
        E 56 90 49 00
        E 16 90 4e 50
        E 5 90 3e 42
        E 25 90 45 00
        E 31 90 4e 00
        E 0 90 4e 46
        E 66 90 4e 00
        E 16 90 4c 59
        E 30 90 3e 00
        E 77 90 4c 00
        E 0 90 4c 2b
        E 5 90 4e 5a
        E 87 90 4c 00
        E 20 90 4e 00
        E 0 90 4f 33
        E 108 90 51 43
        E 25 90 4f 00
        E 77 90 53 47
        E 10 90 51 00
        E 102 90 51 4d
        E 5 90 53 00
        E 103 e0 2b 55
        E 0 90 51 00
        E 0 90 51 53
        E 5 e0 55 4a
        E 5 e0 55 4a
        E 5 e0 55 4a
        E 5 e0 55 4a
        E 5 e0 55 4a
        E 5 e0 55 4a
        E 6 e0 55 4a
        E 5 e0 55 4a
        E 5 e0 55 4a
        E 5 e0 55 4a
        E 5 e0 55 4a
        E 5 e0 55 4a
        E 5 e0 55 4a
        E 5 e0 55 4a
        E 6 e0 55 4a
        E 5 e0 2b 55
        E 5 e0 2b 55
        E 5 e0 2b 55
        E 5 e0 2b 55
        E 5 e0 2b 55
        E 0 90 51 00
        E 0 90 51 55
        E 6 e0 55 4a
        E 5 e0 55 4a
        E 5 e0 55 4a
        E 6 e0 55 4a
        E 5 e0 2b 55
        E 6 e0 2b 55
        E 5 e0 55 4a
        E 5 e0 55 4a
        E 6 e0 55 4a
        E 5 e0 55 4a
        E 6 e0 55 4a
        E 5 e0 55 4a
        E 5 e0 55 4a
        E 6 e0 55 4a
        E 5 e0 55 4a
        E 6 e0 55 4a
        E 5 e0 2b 55
        E 5 e0 2b 55
        E 0 90 51 00
        E 0 90 51 59
        E 11 90 49 30
        E 66 90 49 00
        E 41 90 4a 30
        E 0 90 4e 31
        E 0 90 51 00
        E 0 90 51 44
        E 46 90 53 3a
        E 36 90 4a 00
        E 5 90 4e 00
        E 51 90 51 00
        E 10 90 56 31
        E 20 90 53 00
        E 41 90 4e 55
        E 82 90 56 00
        E 31 e0 55 4a
        E 0 90 4e 00
        E 0 90 4e 56
        E 5 e0 55 4a
        E 5 e0 55 4a
        E 6 e0 55 4a
        E 5 e0 55 4a
        E 5 e0 2b 55
        E 6 e0 2b 55
        E 5 e0 2b 55
        E 6 e0 2b 55
        E 5 e0 2b 55
        E 5 e0 2b 55
        E 6 e0 2b 55
        E 5 e0 55 4a
        E 5 e0 55 4a
        E 6 e0 55 4a
        E 5 e0 55 4a
        E 5 e0 55 4a
        E 6 e0 55 4a
        E 5 e0 55 4a
        E 6 e0 55 4a
        E 5 e0 55 4a
        E 0 90 4e 00
        E 0 90 4e 5c
        E 5 90 4a 36
        E 66 90 4a 00
        E 36 90 4e 00
        E 0 90 4e 4f
        E 108 90 4a 3c
        E 5 90 47 24
        E 51 90 4e 00
        E 0 90 4e 3c
        E 16 90 47 00
        E 0 90 4a 00
        E 20 90 52 53
        E 51 90 4e 00
        E 10 90 52 00
        E 5 90 52 38
        E 62 90 4a 4b
        E 81 90 52 00
        E 46 90 42 42
        E 0 90 45 40
        E 52 90 4e 4e
        E 25 90 42 00
        E 20 90 4c 48
        E 6 90 45 00
        E 76 90 4e 00
        E 10 90 4a 00
        E 16 90 43 45
        E 10 90 47 3f
        E 51 90 43 00
        E 5 90 43 3a
        E 0 90 4f 36
        E 41 90 47 00
        E 10 90 49 4d
        E 51 90 4c 00
        E 5 90 43 00
        E 52 90 4f 00
        E 77 90 4c 42
        E 35 90 49 00
        E 31 90 4a 42
        E 107 90 4c 00
        E 21 90 2a 3c
        E 0 90 36 28
        E 97 90 4a 00
        E 5 90 36 00
        E 5 90 2a 00
        E 10 90 37 30
        E 5 90 2b 44
        E 87 90 37 00
        E 11 90 2b 00
        E 224 e0 55 4a
        E 0 90 26 52
        E 5 e0 55 4a
        E 6 e0 55 4a
        E 5 e0 55 4a
        E 5 e0 55 4a
        E 5 e0 55 4a
        E 5 e0 55 4a
        E 5 e0 55 4a
        E 5 e0 55 4a
        E 5 e0 55 4a
        E 5 e0 55 4a
        E 6 e0 55 4a
        E 5 e0 55 4a
        E 5 e0 55 4a
        E 5 e0 55 4a
        E 5 e0 55 4a
        E 5 e0 55 4a
        E 5 e0 55 4a
        E 5 e0 55 4a
        E 5 e0 55 4a
        E 6 e0 55 4a
        E 5 e0 55 4a
        E 5 e0 55 4a
        E 5 e0 55 4a
        E 5 e0 55 4a
        E 5 e0 55 4a
        E 5 e0 55 4a
        E 5 e0 55 4a
        E 6 e0 55 4a
        E 5 e0 55 4a
        E 5 e0 55 4a
        E 5 e0 55 4a
        E 5 e0 55 4a
        E 5 e0 55 4a
        E 5 e0 55 4a
        E 5 e0 55 4a
        E 5 e0 55 4a
        E 6 e0 55 4a
        E 5 e0 55 4a
        E 5 e0 55 4a
        E 5 e0 55 4a
        E 5 e0 55 4a
        E 5 e0 55 4a
        E 5 e0 55 4a
        E 5 e0 55 4a
        E 5 e0 55 4a
        E 6 e0 55 4a
        E 5 e0 55 4a
        E 5 e0 55 4a
        E 5 e0 55 4a
        E 5 e0 55 4a
        E 5 e0 55 4a
        E 5 e0 55 4a
        E 5 e0 55 4a
        E 6 e0 55 4a
        E 5 e0 55 4a
        E 5 e0 55 4a
        E 5 e0 55 4a
        E 5 e0 55 4a
        E 5 e0 55 4a
        E 5 e0 55 4a
        E 5 e0 55 4a
        E 5 e0 55 4a
        E 6 e0 55 4a
        E 5 e0 55 4a
        E 5 e0 55 4a
        E 5 e0 55 4a
        E 5 e0 55 4a
        E 5 e0 55 4a
        E 5 e0 55 4a
        E 5 e0 55 4a
        E 5 e0 55 4a
        E 6 e0 55 4a
        E 5 e0 55 4a
        E 5 e0 55 4a
        E 5 e0 55 4a
        E 5 e0 55 4a
        E 5 e0 55 4a
        E 5 e0 55 4a
        E 5 e0 55 4a
        E 0 90 26 00
        E 46 90 4c 5d
        E 5 90 3d 3d
        E 6 90 39 4c
        E 158 90 4c 00
        E 0 90 4c 5c
        E 5 90 39 00
        E 0 90 39 50
        E 0 90 3d 00
        E 0 90 3d 46
        E 10 90 45 3f
        E 113 90 3d 00
        E 0 90 3d 50
        E 5 90 39 00
        E 0 90 39 4e
        E 0 90 45 00
        E 0 90 45 3c
        E 36 90 4c 00
        E 0 90 4c 5f
        E 71 90 4c 00
        E 0 90 4c 64
        E 5 90 3d 00
        E 0 90 3d 3e
        E 5 90 39 00
        E 0 90 39 44
        E 0 90 45 00
        E 0 90 45 37
        E 102 90 3d 00
        E 16 90 3e 40
        E 0 90 4c 00
        E 0 90 4d 56
        E 46 90 39 00
        E 0 90 39 31
        E 25 90 45 00
        E 26 90 4d 00
        E 0 90 4e 58
        E 11 90 3e 00
        E 0 90 3f 3b
        E 122 90 39 00
        E 41 90 4e 00
        E 0 90 4f 38
        E 5 90 39 34
        E 0 90 45 2a
        E 102 90 3f 00
        E 0 90 40 2e
        E 21 90 45 00
        E 219 90 40 00
        E 11 90 4f 00
        E 15 90 42 53
        E 56 90 39 00
        E 0 90 4a 62
        E 46 90 42 00
        E 0 90 43 45
        E 21 90 4a 00
        E 5 90 49 4d
        E 276 90 43 00
        E 5 90 49 00
        E 10 90 4e 69
        E 11 90 3e 54
        E 5 90 4a 2d
        E 76 90 4a 00
        E 62 90 4e 00
        E 0 90 4e 6b
        E 5 90 3e 00
        E 0 90 3e 56
        E 117 90 3e 00
        E 0 90 3e 5a
        E 0 90 4e 00
        E 0 90 4e 6b
        E 5 90 4a 49
        E 103 90 3e 00
        E 0 90 3e 58
        E 0 90 51 30
        E 5 90 4e 00
        E 0 90 4e 64
        E 5 90 4a 00
        E 0 90 4a 3d
        E 71 90 51 00
        E 31 90 40 4d
        E 0 90 4e 00
        E 0 90 4f 57
        E 5 90 3e 00
        E 0 90 3e 3c
        E 0 90 4a 00
        E 0 90 4a 3f
        E 97 90 4f 00
        E 0 90 50 56
        E 5 90 40 00
        E 0 90 41 35
        E 10 90 4a 00
        E 0 90 4a 38
        E 46 90 3e 00
        E 6 90 50 00
        E 0 90 50 54
        E 81 90 4a 00
        E 5 90 41 00
        E 11 90 4a 31
        E 0 90 50 00
        E 0 90 51 43
        E 10 90 3e 55
        E 0 90 42 40
        E 113 90 4a 00
        E 138 90 42 00
        E 20 90 51 00
        E 10 90 43 2f
        E 16 90 3e 00
        E 10 90 4e 4a
        E 46 90 4c 44
        E 15 90 4e 00
        E 36 90 42 3c
        E 0 90 43 00
        E 0 90 4a 5d
        E 25 90 4c 00
        E 98 90 4a 00
        E 0 90 4a 3f
        E 0 90 53 43
        E 0 90 56 5a
        E 86 90 4a 00
        E 21 90 53 00
        E 15 90 4a 35
        E 0 90 51 52
        E 0 90 55 45
        E 0 90 56 00
        E 26 90 42 00
        E 35 90 4a 00
        E 36 90 53 46
        E 0 90 55 00
        E 10 90 3d 45
        E 16 90 51 00
        E 97 90 3d 00
        E 0 90 3e 48
        E 0 90 4e 45
        E 0 90 51 41
        E 77 90 53 00
        E 31 90 40 44
        E 25 90 3e 00
        E 51 90 4e 00
        E 31 90 51 00
        E 5 90 42 4e
        E 112 90 56 46
        E 6 90 53 41
        E 35 90 40 00
        E 77 90 53 00
        E 10 90 51 38
        E 61 90 56 00
        E 11 90 42 00
        E 30 90 53 44
        E 133 90 51 00
        E 0 90 51 3a
        E 5 90 4a 3e
        E 67 90 53 00
        E 35 90 4a 00
        E 16 90 4c 54
        E 92 90 51 00
        E 41 90 4e 47
        E 15 90 4c 00
        E 97 90 53 52
        E 11 90 4b 3a
        E 56 90 4e 00
        E 25 90 4b 00
        E 21 90 4f 4c
        E 5 90 4c 3d
        E 71 90 53 00
        E 31 90 4c 00
        E 0 90 51 55
        E 97 90 4f 00
        E 16 90 4a 43
        E 0 90 4e 64
        E 102 90 51 00
        E 5 90 4e 00
        E 0 90 4f 48
        E 87 90 4a 00
        E 25 90 51 4c
        E 10 90 42 3d
        E 0 90 4a 40
        E 72 90 4f 00
        E 36 90 42 00
        E 5 90 53 59
        E 51 90 51 00
        E 108 90 4a 00
        E 41 90 4e 57
        E 15 90 53 00
        E 5 90 4a 35
        E 209 90 4a 00
        E 72 90 4e 00
        E 0 90 4e 51
        E 46 90 4c 48
        E 15 90 4e 00
        E 0 90 4e 3f
        E 87 90 4e 00
        E 0 90 4e 67
        E 102 90 4e 00
        E 0 90 4f 56
        E 21 90 4c 00
        E 97 e0 55 2a
        E 0 90 4f 00
        E 0 90 50 3d
        E 5 e0 55 2a
        E 5 e0 55 4a
        E 5 e0 55 4a
        E 5 e0 55 2a
        E 5 e0 55 2a
        E 6 e0 55 2a
        E 5 e0 55 2a
        E 5 e0 55 2a
        E 5 e0 55 2a
        E 5 e0 55 2a
        E 5 e0 55 2a
        E 5 e0 55 2a
        E 6 e0 55 2a
        E 5 e0 55 2a
        E 5 e0 55 4a
        E 5 e0 55 4a
        E 5 e0 55 4a
        E 5 e0 55 4a
        E 0 90 50 00
        E 10 e0 55 4a
        E 0 90 51 53
        E 6 e0 55 4a
        E 5 e0 55 4a
        E 6 e0 55 4a
        E 5 e0 55 4a
        E 6 e0 55 4a
        E 5 e0 55 4a
        E 6 e0 55 4a
        E 5 e0 55 4a
        E 6 e0 55 4a
        E 5 e0 55 4a
        E 5 e0 55 4a
        E 6 e0 55 4a
        E 5 e0 55 4a
        E 6 e0 55 4a
        E 5 e0 55 4a
        E 0 90 51 00
        E 0 90 51 40
        E 6 e0 55 4a
        E 5 e0 55 4a
        E 6 e0 55 4a
        E 6 e0 55 4a
        E 5 e0 55 4a
        E 6 e0 55 4a
        E 5 e0 55 4a
        E 6 e0 55 4a
        E 5 e0 55 4a
        E 6 e0 55 4a
        E 6 e0 55 4a
        E 0 90 51 00
        E 0 90 51 31
        E 5 e0 55 4a
        E 5 e0 55 4a
        E 6 e0 55 4a
        E 5 e0 55 4a
        E 5 e0 55 4a
        E 6 e0 55 4a
        E 5 e0 55 4a
        E 5 e0 55 4a
        E 6 e0 55 4a
        E 5 e0 55 4a
        E 6 e0 55 4a
        E 5 e0 55 4a
        E 5 e0 55 4a
        E 6 e0 55 4a
        E 5 e0 55 4a
        E 5 e0 55 4a
        E 6 e0 55 4a
        E 5 e0 55 4a
        E 5 e0 55 4a
        E 6 e0 55 4a
        E 0 90 51 00
        E 0 90 51 4b
        E 5 e0 55 4a
        E 6 e0 55 4a
        E 5 e0 55 4a
        E 5 e0 55 4a
        E 6 e0 2b 55
        E 5 e0 2b 55
        E 6 e0 55 4a
        E 5 e0 55 4a
        E 5 e0 55 4a
        E 6 e0 55 4a
        E 5 e0 55 4a
        E 6 e0 55 4a
        E 5 e0 55 4a
        E 5 e0 55 4a
        E 6 e0 55 4a
        E 5 e0 55 4a
        E 5 e0 55 4a
        E 6 e0 55 4a
        E 0 90 51 00
        E 0 90 51 4e
        E 5 e0 55 4a
        E 6 e0 55 4a
        E 5 e0 55 4a
        E 5 e0 55 4a
        E 5 e0 55 4a
        E 6 e0 55 4a
        E 5 e0 55 4a
        E 5 e0 55 4a
        E 6 e0 55 4a
        E 5 e0 55 4a
        E 5 e0 55 4a
        E 6 e0 55 4a
        E 5 e0 55 4a
        E 5 e0 55 4a
        E 6 e0 55 4a
        E 5 e0 55 4a
        E 5 e0 55 4a
        E 6 e0 55 4a
        E 5 e0 55 4a
        E 5 e0 55 4a
        E 6 e0 55 4a
        E 5 e0 55 4a
        E 5 e0 55 4a
        E 6 e0 55 4a
        E 0 90 51 00
        E 0 90 51 3c
        E 5 e0 55 4a
        E 5 e0 55 4a
        E 6 e0 55 4a
        E 5 e0 55 4a
        E 5 e0 55 4a
        E 6 e0 7f 7f
        E 5 e0 7f 7f
        E 5 e0 7f 7f
        E 6 e0 55 4a
        E 5 e0 55 4a
        E 6 e0 55 4a
        E 5 e0 55 4a
        E 5 e0 55 4a
        E 6 e0 2b 55
        E 5 e0 2b 55
        E 5 e0 55 2a
        E 6 e0 55 2a
        E 5 e0 55 2a
        E 5 e0 55 2a
        E 6 e0 55 4a
        E 0 90 51 00
        E 0 90 51 4a
        E 25 90 56 39
        E 41 90 51 00
        E 0 90 51 39
        E 77 90 4e 42
        E 5 90 51 00
        E 52 90 56 00
        E 97 e0 55 4a
        E 0 90 4e 00
        E 0 90 4e 4e
        E 5 e0 55 4a
        E 6 e0 55 4a
        E 5 e0 55 4a
        E 6 e0 55 4a
        E 5 e0 55 4a
        E 6 e0 55 4a
        E 5 e0 55 4a
        E 6 e0 55 4a
        E 6 e0 55 4a
        E 5 e0 55 4a
        E 6 e0 55 4a
        E 5 e0 55 4a
        E 0 90 4e 00
        E 0 90 4e 50
        E 6 e0 55 4a
        E 5 e0 55 4a
        E 5 e0 55 4a
        E 6 e0 55 4a
        E 5 e0 55 4a
        E 5 e0 55 4a
        E 6 e0 55 4a
        E 5 e0 55 4a
        E 6 e0 55 4a
        E 5 e0 55 4a
        E 5 e0 55 4a
        E 6 e0 55 4a
        E 5 e0 55 4a
        E 6 e0 55 4a
        E 5 e0 55 4a
        E 5 e0 55 4a
        E 6 e0 55 4a
        E 5 e0 55 4a
        E 0 90 4e 00
        E 0 90 4e 56
        E 97 90 4a 48
        E 87 90 4e 00
        E 0 90 4e 5f
        E 10 90 4a 00
        E 11 90 53 36
        E 51 90 4e 00
        E 0 90 4e 48
        E 10 90 53 00
        E 0 90 53 37
        E 56 90 4a 4b
        E 5 90 53 00
        E 97 90 4e 00
        E 5 90 42 46
        E 5 90 45 46
        E 92 90 42 00
        E 5 90 45 00
        E 6 90 4a 00
        E 25 e0 55 4a
        E 0 90 4c 5f
        E 5 e0 55 4a
        E 5 e0 2b 55
        E 6 e0 2b 55
        E 5 e0 2b 55
        E 5 e0 55 4a
        E 5 e0 55 4a
        E 5 e0 55 4a
        E 5 e0 55 4a
        E 5 e0 55 4a
        E 6 e0 55 4a
        E 5 e0 55 4a
        E 5 e0 55 4a
        E 0 90 4c 00
        E 0 90 4c 53
        E 5 e0 55 4a
        E 6 e0 55 4a
        E 5 e0 55 4a
        E 5 e0 55 4a
        E 6 e0 2b 55
        E 5 e0 2b 55
        E 5 e0 55 4a
        E 6 e0 55 4a
        E 5 e0 55 4a
        E 5 e0 55 4a
        E 6 e0 55 4a
        E 5 e0 55 4a
        E 5 e0 55 4a
        E 6 e0 55 4a
        E 5 e0 55 4a
        E 5 e0 55 4a
        E 6 e0 55 4a
        E 5 e0 55 4a
        E 5 e0 55 4a
        E 6 e0 55 4a
        E 5 e0 55 4a
        E 5 e0 55 4a
        E 0 90 4c 00
        E 11 90 4e 3d
        E 127 90 45 38
        E 0 90 49 3b
        E 87 90 45 00
        E 5 90 49 00
        E 16 90 4e 00
        E 0 90 4e 37
        E 5 90 3e 5c
        E 117 90 4a 4a
        E 5 90 3e 00
        E 0 90 3e 46
        E 5 90 4e 00
        E 57 90 4a 00
        E 41 90 4c 41
        E 51 90 3e 00
        E 51 90 4e 46
        E 15 90 4c 00
        E 82 90 4e 00
        E 5 90 4f 38
        E 87 90 51 45
        E 46 90 4f 00
        E 51 e0 55 4a
        E 0 90 51 00
        E 0 90 51 56
        E 6 e0 55 4a
        E 5 e0 55 4a
        E 5 e0 55 4a
        E 6 e0 55 4a
        E 5 e0 55 4a
        E 6 e0 2b 55
        E 5 e0 55 4a
        E 5 e0 55 4a
        E 6 e0 55 4a
        E 5 e0 55 4a
        E 5 e0 55 4a
        E 6 e0 55 4a
        E 5 e0 2b 55
        E 5 e0 55 4a
        E 6 e0 55 4a
        E 5 e0 55 4a
        E 6 e0 2b 55
        E 5 e0 55 4a
        E 5 e0 55 4a
        E 6 e0 55 4a
        E 0 90 51 00
        E 0 90 51 4b
        E 5 e0 55 4a
        E 5 e0 55 4a
        E 6 e0 55 4a
        E 5 e0 55 4a
        E 6 e0 55 4a
        E 5 e0 55 4a
        E 5 e0 55 4a
        E 6 e0 55 4a
        E 5 e0 55 4a
        E 6 e0 55 4a
        E 5 e0 55 4a
        E 5 e0 55 4a
        E 6 e0 55 4a
        E 5 e0 55 4a
        E 5 e0 55 4a
        E 6 e0 55 4a
        E 5 e0 55 4a
        E 6 e0 55 4a
        E 0 90 51 00
        E 0 90 51 57
        E 5 e0 55 4a
        E 5 e0 55 4a
        E 6 e0 55 4a
        E 5 e0 55 4a
        E 6 e0 2b 55
        E 5 e0 2b 55
        E 5 e0 2b 55
        E 6 e0 55 4a
        E 5 e0 55 4a
        E 5 e0 55 4a
        E 6 e0 55 4a
        E 5 e0 55 4a
        E 6 e0 55 4a
        E 5 e0 55 4a
        E 5 e0 55 4a
        E 6 e0 55 4a
        E 5 e0 2b 55
        E 5 e0 2b 55
        E 6 e0 2b 55
        E 0 90 51 00
        E 0 90 51 5f
        E 97 90 4a 3e
        E 15 90 4e 2c
        E 0 90 51 00
        E 0 90 51 3d
        E 46 90 4a 00
        E 0 90 53 32
        E 67 90 4e 00
        E 15 90 53 00
        E 5 90 51 00
        E 10 90 56 3b
        E 51 90 4e 59
        E 62 90 4e 00
        E 0 90 4e 59
        E 35 90 56 00
        E 26 e0 55 4a
        E 0 90 4e 00
        E 0 90 4e 57
        E 5 e0 55 4a
        E 5 e0 55 4a
        E 5 e0 55 4a
        E 6 e0 55 4a
        E 5 e0 55 4a
        E 5 e0 55 4a
        E 5 e0 55 4a
        E 5 e0 55 4a
        E 5 e0 55 4a
        E 5 e0 55 4a
        E 5 e0 55 4a
        E 6 e0 55 4a
        E 5 e0 55 4a
        E 5 e0 55 4a
        E 5 e0 55 4a
        E 5 e0 55 4a
        E 5 e0 55 4a
        E 5 e0 55 4a
        E 0 90 4e 00
        E 0 90 4e 54
        E 108 90 46 40
        E 71 90 46 00
        E 31 90 4a 3e
        E 5 90 4e 00
        E 0 90 4e 5a
        E 61 90 4a 00
        E 5 90 4e 00
        E 0 90 4e 3a
        E 26 90 52 48
        E 82 90 4e 00
        E 25 90 52 00
        E 5 90 4a 4b
        E 0 90 53 28
        E 62 90 53 00
        E 51 90 45 48
        E 51 90 4e 5f
        E 46 90 45 00
        E 15 90 4c 4f
        E 5 90 4e 00
        E 0 90 4e 41
        E 21 90 4a 00
        E 56 90 4e 00
        E 36 90 43 38
        E 46 90 4f 30
        E 46 90 43 00
        E 15 90 49 52
        E 36 90 4f 00
        E 0 90 4f 36
        E 21 90 4c 00
        E 61 90 4f 00
        E 56 90 4c 47
        E 41 90 49 00
        E 26 90 4a 42
        E 97 90 4c 00
        E 10 90 2a 45
        E 15 90 36 27
        E 51 90 2a 00
        E 5 90 2a 4f
        E 16 90 36 00
        E 0 90 36 3c
        E 46 90 4a 00
        E 20 90 36 00
        E 10 e0 00 40
        E 0 90 2a 00
        E 0 90 2b 3e
        E 6 e0 55 4a
        E 5 e0 55 4a
        E 5 e0 55 4a
        E 6 e0 55 4a
        E 5 e0 55 4a
        E 5 e0 55 4a
        E 6 e0 55 4a
        E 5 e0 55 4a
        E 5 e0 55 4a
        E 6 e0 55 4a
        E 5 e0 55 2a
        E 5 e0 55 2a
        E 6 e0 55 2a
        E 5 e0 55 2a
        E 5 e0 55 4a
        E 6 e0 55 4a
        E 5 e0 55 4a
        E 5 e0 55 4a
        E 6 e0 55 4a
        E 5 e0 55 4a
        E 5 e0 55 4a
        E 6 e0 55 4a
        E 0 90 2b 00
        E 25 e0 55 4a
        E 0 90 2d 30
        E 5 e0 55 4a
        E 6 e0 55 4a
        E 5 e0 55 4a
        E 5 e0 55 4a
        E 5 e0 55 4a
        E 5 e0 55 4a
        E 5 e0 55 4a
        E 5 e0 55 4a
        E 5 e0 55 4a
        E 6 e0 55 4a
        E 5 e0 55 4a
        E 5 e0 00 40
        E 5 e0 00 40
        E 5 e0 00 40
        E 5 e0 55 4a
        E 5 e0 00 40
        E 5 e0 00 40
        E 6 e0 00 40
        E 5 e0 00 40
        E 5 e0 00 40
        E 5 e0 00 40
        E 5 e0 00 40
        E 5 e0 55 4a
        E 5 e0 55 4a
        E 5 e0 55 4a
        E 6 e0 55 4a
        E 5 e0 55 4a
        E 5 e0 55 4a
        E 5 e0 55 4a
        E 5 e0 2b 55
        E 5 e0 2b 55
        E 5 e0 2b 55
        E 5 e0 55 4a
        E 6 e0 55 4a
        E 5 e0 55 4a
        E 5 e0 55 4a
        E 0 90 2d 00
        E 25 90 26 50
        E 0 90 32 38
        E 235 90 32 00
        E 256 90 26 00
        E 368 e0 55 4a
        E 0 90 51 53
        E 5 e0 55 4a
        E 6 e0 55 4a
        E 5 e0 55 4a
        E 5 e0 55 4a
        E 5 e0 55 4a
        E 5 e0 55 4a
        E 5 e0 55 4a
        E 6 e0 55 4a
        E 5 e0 55 4a
        E 5 e0 55 4a
        E 5 e0 55 4a
        E 5 e0 55 4a
        E 6 e0 55 4a
        E 5 e0 55 4a
        E 5 e0 55 4a
        E 5 e0 55 4a
        E 5 e0 55 4a
        E 6 e0 55 4a
        E 5 e0 55 4a
        E 5 e0 55 4a
        E 5 e0 55 4a
        E 5 e0 2b 55
        E 6 e0 55 4a
        E 5 e0 55 4a
        E 5 e0 55 4a
        E 5 e0 55 4a
        E 5 e0 55 4a
        E 6 e0 55 4a
        E 5 e0 55 4a
        E 5 e0 55 4a
        E 5 e0 55 4a
        E 5 e0 55 4a
        E 6 e0 55 4a
        E 5 e0 55 4a
        E 5 e0 55 4a
        E 5 e0 55 4a
        E 5 e0 55 4a
        E 6 e0 55 4a
        E 5 e0 55 4a
        E 5 e0 55 4a
        E 5 e0 55 4a
        E 5 e0 55 4a
        E 5 e0 55 4a
        E 6 e0 55 4a
        E 5 e0 55 4a
        E 5 e0 55 4a
        E 5 e0 55 4a
        E 5 e0 55 4a
        E 6 e0 55 4a
        E 5 e0 55 4a
        E 5 e0 55 4a
        E 5 e0 55 4a
        E 5 e0 55 4a
        E 6 e0 55 4a
        E 5 e0 55 4a
        E 5 e0 55 4a
        E 5 e0 55 4a
        E 5 e0 55 4a
        E 6 e0 55 4a
        E 0 90 51 00
        E 0 90 51 41
        E 5 90 3e 4e
        E 20 90 41 33
        E 0 90 45 3e
        E 133 90 51 00
        E 148 90 45 00
        E 0 90 45 49
        E 5 90 3e 00
        E 0 90 3e 52
        E 46 90 41 00
        E 21 90 3e 00
        E 0 90 3e 3d
        E 0 90 45 00
        E 0 90 4a 38
        E 0 90 56 55
        E 102 90 4a 00
        E 36 90 3e 00
        E 10 90 4d 63
        E 87 90 56 00
        E 199 90 4d 00
        E 0 90 4d 50
        E 6 90 41 39
        E 5 90 45 3e
        E 5 90 3e 44
        E 281 90 45 00
        E 0 90 45 55
        E 0 90 51 2a
        E 5 90 3e 00
        E 0 90 3e 45
        E 0 90 41 00
        E 0 90 41 3a
        E 71 90 4d 00
        E 16 90 3e 00
        E 0 90 3e 3e
        E 0 90 45 00
        E 0 90 45 3f
        E 0 90 51 00
        E 0 90 51 54
        E 56 90 41 00
        E 56 90 51 00
        E 0 90 51 40
        E 10 90 3e 00
        E 21 90 45 00
        E 15 90 4a 56
        E 5 90 3e 2f
        E 0 90 41 34
        E 10 90 39 34
        E 52 90 51 00
        E 51 90 3e 00
        E 15 90 41 00
        E 11 90 4c 41
        E 76 90 4c 00
        E 10 90 4a 00
        E 0 90 4a 4b
        E 57 90 4d 68
        E 66 90 4d 00
        E 0 90 4d 5b
        E 148 90 4a 00
        E 77 90 39 00
        E 25 90 43 56
        E 92 90 43 00
        E 0 90 43 3a
        E 0 90 4c 55
        E 0 90 4d 00
        E 133 90 43 00
        E 36 90 3e 46
        E 0 90 41 38
        E 0 90 4a 47
        E 128 90 4c 00
        E 15 90 4a 00
        E 6 90 41 00
        E 15 90 49 5b
        E 10 90 3e 00
        E 97 90 49 00
        E 5 90 4a 53
        E 102 90 4c 67
        E 46 90 4a 00
        E 72 90 4c 00
        E 0 90 4d 5a
        E 107 90 4f 5b
        E 46 90 4d 00
        E 87 90 51 3a
        E 5 90 3e 4d
        E 113 90 4f 00
        E 30 90 3e 00
        E 0 90 3e 39
        E 52 90 51 00
        E 0 90 51 3d
        E 41 90 45 3a
        E 0 90 53 54
        E 10 90 3e 00
        E 71 90 51 00
        E 31 90 55 53
        E 21 90 53 00
        E 30 90 45 00
        E 41 90 55 00
        E 10 90 56 5b
        E 16 90 45 3b
        E 92 90 45 00
        E 0 90 45 31
        E 0 90 58 52
        E 10 90 56 00
        E 107 90 3e 34
        E 0 90 58 00
        E 0 90 59 48
        E 97 90 45 00
        E 21 90 59 00
        E 10 90 55 4d
        E 122 90 55 00
        E 0 90 56 4d
        E 5 90 3e 00
        E 0 90 3e 36
        E 6 90 41 37
        E 0 90 45 44
        E 76 90 56 00
        E 41 90 50 52
        E 11 90 41 00
        E 10 90 3e 00
        E 10 90 45 00
        E 77 90 50 00
        E 0 90 51 4a
        E 5 90 41 38
        E 0 90 45 4f
        E 97 90 41 00
        E 10 90 45 00
        E 0 90 45 3c
        E 0 90 4c 68
        E 56 90 51 00
        E 11 90 50 2e
        E 76 90 50 00
        E 21 90 4c 00
        E 0 90 4d 60
        E 5 90 45 00
        E 10 90 39 42
        E 46 90 4d 00
        E 0 90 4d 4a
        E 138 90 39 00
        E 26 90 4d 00
        E 0 90 4d 50
        E 56 90 51 42
        E 5 90 41 3e
        E 5 90 39 35
        E 0 90 45 3b
        E 112 90 4d 00
        E 5 90 51 00
        E 77 90 45 00
        E 72 90 39 00
        E 21 90 41 00
        E 20 90 40 4f
        E 0 90 43 3d
        E 92 90 40 00
        E 0 90 40 3c
        E 0 90 49 4f
        E 71 90 43 00
        E 98 90 40 00
        E 0 90 40 3b
        E 0 90 4c 5d
        E 25 90 43 3d
        E 128 90 40 00
        E 127 90 49 00
        E 6 90 43 00
        E 15 90 41 3f
        E 0 90 4a 40
        E 5 90 3e 4d
        E 20 90 4c 00
        E 159 90 4a 00
        E 174 90 32 5c
        E 0 90 45 29
        E 31 90 3e 00
        E 46 90 45 00
        E 81 90 41 00
        E 292 90 32 00
        E 5 e0 2b 55
        E 0 90 51 4a
        E 5 e0 55 4a
        E 5 e0 55 4a
        E 5 e0 55 4a
        E 5 e0 55 4a
        E 5 e0 55 4a
        E 5 e0 55 4a
        E 6 e0 55 4a
        E 5 e0 55 4a
        E 5 e0 55 4a
        E 5 e0 55 4a
        E 5 e0 55 4a
        E 5 e0 55 4a
        E 5 e0 2b 55
        E 5 e0 55 4a
        E 5 e0 55 4a
        E 6 e0 55 4a
        E 5 e0 55 4a
        E 5 e0 55 4a
        E 5 e0 55 4a
        E 5 e0 55 4a
        E 5 e0 2b 55
        E 5 e0 2b 55
        E 5 e0 55 4a
        E 6 e0 55 4a
        E 5 e0 55 4a
        E 5 e0 55 4a
        E 5 e0 55 4a
        E 5 e0 55 4a
        E 5 e0 55 4a
        E 5 e0 55 4a
        E 5 e0 55 4a
        E 5 e0 55 4a
        E 6 e0 55 4a
        E 5 e0 55 4a
        E 5 e0 55 4a
        E 5 e0 55 4a
        E 5 e0 55 4a
        E 5 e0 55 4a
        E 5 e0 55 4a
        E 5 e0 55 4a
        E 5 e0 55 4a
        E 6 e0 55 4a
        E 5 e0 55 4a
        E 5 e0 55 4a
        E 5 e0 55 4a
        E 5 e0 55 4a
        E 5 e0 55 4a
        E 5 e0 55 4a
        E 5 e0 55 4a
        E 6 e0 55 4a
        E 5 e0 55 4a
        E 5 e0 55 4a
        E 5 e0 55 4a
        E 5 e0 55 4a
        E 5 e0 55 4a
        E 5 e0 55 4a
        E 5 e0 55 4a
        E 5 e0 55 4a
        E 6 e0 55 4a
        E 5 e0 55 4a
        E 5 e0 55 4a
        E 5 e0 55 4a
        E 5 e0 55 4a
        E 5 e0 55 4a
        E 5 e0 55 4a
        E 5 e0 55 4a
        E 5 e0 55 4a
        E 6 e0 55 4a
        E 5 e0 55 4a
        E 5 e0 55 4a
        E 5 e0 55 4a
        E 5 e0 55 4a
        E 5 e0 55 4a
        E 5 e0 55 4a
        E 5 e0 55 4a
        E 0 90 51 00
        E 0 90 51 47
        E 26 90 45 39
        E 10 90 3e 4f
        E 0 90 41 32
        E 123 90 51 00
        E 112 90 51 32
        E 36 90 45 00
        E 5 90 41 00
        E 0 90 41 46
        E 0 90 45 48
        E 5 90 3e 00
        E 0 90 3e 52
        E 67 90 51 00
        E 35 90 45 00
        E 0 90 56 64
        E 5 90 3e 00
        E 0 90 3e 3c
        E 0 90 4a 32
        E 16 90 41 00
        E 122 90 56 00
        E 0 90 56 47
        E 16 90 3e 00
        E 5 90 4d 5c
        E 15 90 4a 00
        E 67 90 3e 2a
        E 0 90 56 00
        E 76 90 3e 00
        E 108 90 4d 00
        E 0 90 4d 4b
        E 20 90 3e 3c
        E 0 90 41 37
        E 0 90 45 30
        E 143 90 45 00
        E 133 90 45 3b
        E 5 90 3e 00
        E 0 90 41 00
        E 0 90 41 36
        E 5 90 3e 47
        E 92 90 4d 00
        E 16 90 3e 00
        E 0 90 3e 3c
        E 0 90 51 5e
        E 5 90 45 00
        E 0 90 45 30
        E 36 90 41 00
        E 10 90 4d 2a
        E 51 90 45 00
        E 15 90 51 00
        E 0 90 51 3a
        E 51 90 4d 00
        E 16 90 3e 00
        E 30 90 3e 2b
        E 5 90 4a 5c
        E 31 90 39 3f
        E 36 90 3e 00
        E 41 90 51 00
        E 41 90 4c 3a
        E 77 90 4c 00
        E 5 90 4a 00
        E 0 90 4a 52
        E 31 90 39 00
        E 10 90 4d 59
        E 30 90 45 34
        E 21 90 39 35
        E 15 90 4d 00
        E 5 90 4d 4c
        E 72 90 45 00
        E 107 90 4a 00
        E 5 90 39 00
        E 36 90 43 4c
        E 82 90 39 2d
        E 25 90 4c 53
        E 0 90 4d 00
        E 128 90 39 00
        E 41 90 4a 4a
        E 5 90 3e 42
        E 0 90 41 31
        E 41 90 43 00
        E 102 90 4c 00
        E 41 90 49 55
        E 0 90 4a 00
        E 26 90 3e 00
        E 10 90 41 00
        E 72 90 49 00
        E 10 90 4a 52
        E 102 90 4c 56
        E 5 90 4a 00
        E 97 90 4c 00
        E 5 90 4d 53
        E 113 90 4f 4d
        E 5 90 4d 00
        E 107 90 51 41
        E 5 90 3e 44
        E 72 90 51 00
        E 5 90 4f 00
        E 66 90 51 4b
        E 72 90 45 2b
        E 5 90 41 38
        E 15 90 3e 00
        E 0 90 53 54
        E 15 90 51 00
        E 83 90 41 00
        E 5 90 55 4a
        E 20 90 45 00
        E 5 90 53 00
        E 67 90 55 00
        E 10 90 56 56
        E 5 90 45 31
        E 107 90 58 4f
        E 31 90 56 00
        E 0 90 56 3a
        E 77 90 56 00
        E 5 90 58 00
        E 0 90 59 44
        E 5 90 3e 3a
        E 97 90 45 00
        E 20 90 59 00
        E 11 90 55 51
        E 112 90 3e 00
        E 10 90 55 00
        E 0 90 56 45
        E 5 90 3e 30
        E 11 90 41 35
        E 86 90 3e 00
        E 21 90 50 4f
        E 15 90 41 00
        E 61 90 56 00
        E 36 90 50 00
        E 0 90 51 3d
        E 5 90 41 2a
        E 0 90 45 4a
        E 78 90 41 00
        E 25 90 45 00
        E 0 90 45 3a
        E 0 90 4c 69
        E 158 90 45 00
        E 6 90 4c 00
        E 0 90 4d 65
        E 10 90 39 48
        E 36 90 51 00
        E 20 90 4d 00
        E 0 90 4d 63
        E 158 90 39 00
        E 21 90 4d 00
        E 0 90 4d 57
        E 46 90 39 39
        E 15 90 4d 00
        E 0 90 4d 45
        E 56 90 41 31
        E 5 90 51 34
        E 154 90 4d 00
        E 0 90 4d 2a
        E 97 90 4d 00
        E 31 90 41 00
        E 41 90 40 4f
        E 0 90 43 46
        E 35 90 51 00
        E 16 90 39 00
        E 41 90 40 00
        E 0 90 40 39
        E 0 90 43 00
        E 0 90 43 35
        E 0 90 49 5b
        E 66 90 40 00
        E 36 90 43 00
        E 0 90 49 00
        E 0 90 4a 5c
        E 25 90 47 50
        E 51 90 49 3b
        E 0 90 4a 00
        E 77 90 53 2b
        E 10 90 49 00
        E 5 90 40 27
        E 0 90 4c 59
        E 6 90 43 3b
        E 61 90 40 00
        E 10 90 53 00
        E 118 90 27 32
        E 30 90 47 00
        E 21 90 43 00
        E 25 90 27 00
        E 41 90 4a 40
        E 5 90 3e 47
        E 10 90 41 41
        E 36 90 4c 00
        E 338 90 4a 00
        E 36 90 32 57
        E 10 90 3e 00
        E 199 90 41 00
        E 112 90 4c 4a
        E 36 90 32 00
        E 277 90 3d 57
        E 5 90 39 48
        E 112 90 3d 00
        E 0 90 3d 3a
        E 0 90 4c 00
        E 0 90 4c 6a
        E 118 90 4c 00
        E 0 90 4c 62
        E 5 90 39 00
        E 0 90 39 46
        E 5 90 3d 00
        E 0 90 3d 55
        E 112 90 4c 00
        E 0 90 4c 6a
        E 5 90 3d 00
        E 0 90 3d 42
        E 133 90 4c 00
        E 0 90 4d 42
        E 5 90 39 00
        E 5 90 3d 00
        E 72 e0 55 2a
        E 0 90 4c 5c
        E 0 90 4d 00
        E 5 e0 55 2a
        E 6 e0 55 4a
        E 5 e0 55 4a
        E 6 e0 55 4a
        E 5 e0 55 4a
        E 6 e0 55 4a
        E 5 e0 55 4a
        E 6 e0 55 4a
        E 5 e0 55 4a
        E 6 e0 55 4a
        E 5 e0 55 4a
        E 6 e0 55 4a
        E 5 e0 55 4a
        E 0 90 4c 00
        E 0 90 4c 45
        E 113 90 51 65
        E 82 90 51 00
        E 0 90 51 63
        E 31 90 4c 00
        E 5 90 45 35
        E 107 90 51 00
        E 0 90 51 3a
        E 189 90 45 00
        E 5 90 45 5b
        E 0 90 49 42
        E 5 90 51 00
        E 72 90 49 00
        E 5 90 45 00
        E 0 90 45 3f
        E 0 90 4c 5e
        E 133 90 45 00
        E 5 90 4f 4a
        E 163 90 4c 00
        E 16 90 4d 39
        E 56 90 4f 00
        E 82 90 45 37
        E 10 90 3e 42
        E 97 90 45 00
        E 16 e0 55 4a
        E 0 90 3e 00
        E 0 90 4d 00
        E 0 90 4d 68
        E 5 e0 55 4a
        E 5 e0 55 4a
        E 6 e0 55 4a
        E 5 e0 55 4a
        E 6 e0 55 4a
        E 5 e0 55 4a
        E 5 e0 55 4a
        E 6 e0 55 4a
        E 5 e0 55 4a
        E 5 e0 55 4a
        E 6 e0 55 4a
        E 5 e0 55 4a
        E 5 e0 55 4a
        E 6 e0 55 4a
        E 5 e0 55 4a
        E 6 e0 55 4a
        E 5 e0 55 4a
        E 5 e0 55 4a
        E 6 e0 55 4a
        E 5 e0 55 4a
        E 0 90 4d 00
        E 0 90 4d 67
        E 5 90 3e 3b
        E 5 90 45 3d
        E 102 90 4d 00
        E 0 90 4d 66
        E 87 90 3e 00
        E 10 e0 55 4a
        E 0 90 45 00
        E 0 90 4d 00
        E 0 90 4d 59
        E 6 e0 55 4a
        E 5 e0 55 4a
        E 6 e0 55 4a
        E 5 e0 55 4a
        E 6 e0 55 4a
        E 5 e0 55 4a
        E 6 e0 55 4a
        E 5 e0 55 4a
        E 6 e0 55 4a
        E 5 e0 55 4a
        E 6 e0 55 4a
        E 5 e0 55 4a
        E 6 e0 55 4a
        E 5 e0 55 4a
        E 0 90 4c 47
        E 0 90 4d 00
        E 82 90 4f 45
        E 5 90 4c 00
        E 0 90 4d 41
        E 82 90 4d 00
        E 51 90 51 45
        E 36 90 4a 2f
        E 76 90 4a 00
        E 93 90 4f 00
        E 25 90 4a 55
        E 0 90 4d 40
        E 82 90 51 00
        E 15 90 4a 00
        E 0 90 4a 3c
        E 0 90 56 5a
        E 36 90 4d 00
        E 118 90 4a 00
        E 5 90 54 51
        E 15 90 4f 3f
        E 10 90 49 25
        E 0 90 56 00
        E 97 90 49 00
        E 16 90 52 57
        E 5 90 4f 00
        E 0 90 54 00
        E 194 90 51 40
        E 0 90 52 00
        E 10 90 4d 3b
        E 5 90 4a 2f
        E 77 90 4a 00
        E 0 90 51 00
        E 20 90 4d 00
        E 0 90 4d 44
        E 0 90 59 3a
        E 72 90 4d 00
        E 0 90 59 00
        E 5 90 58 3c
        E 62 90 56 4d
        E 51 90 58 00
        E 66 90 56 00
        E 0 90 56 4d
        E 46 90 58 43
        E 61 90 56 00
        E 0 90 56 3e
        E 57 90 58 00
        E 15 90 54 4a
        E 107 90 56 00
        E 36 90 52 4b
        E 36 90 54 00
        E 133 90 4a 3a
        E 0 90 51 45
        E 0 90 52 00
        E 10 90 4d 3d
        E 92 90 51 00
        E 0 90 52 54
        E 15 90 4a 00
        E 51 90 4d 00
        E 15 e0 55 4a
        E 0 90 52 00
        E 0 90 53 69
        E 6 e0 55 4a
        E 5 e0 55 4a
        E 5 e0 55 4a
        E 5 e0 55 4a
        E 5 e0 55 4a
        E 5 e0 55 4a
        E 6 e0 55 4a
        E 5 e0 55 4a
        E 5 e0 55 4a
        E 5 e0 55 4a
        E 5 e0 55 4a
        E 5 e0 55 4a
        E 0 90 53 00
        E 0 90 54 43
        E 6 e0 2b 35
        E 5 e0 55 4a
        E 6 e0 55 4a
        E 5 e0 55 4a
        E 6 e0 55 4a
        E 5 e0 55 4a
        E 5 e0 55 4a
        E 6 e0 55 4a
        E 5 e0 55 4a
        E 6 e0 55 4a
        E 5 e0 55 4a
        E 6 e0 55 6a
        E 5 e0 55 6a
        E 6 e0 55 6a
        E 5 e0 55 6a
        E 0 90 54 00
        E 26 e0 55 4a
        E 0 90 56 56
        E 5 e0 55 4a
        E 5 e0 55 4a
        E 6 e0 55 4a
        E 5 e0 55 4a
        E 6 e0 55 4a
        E 5 e0 55 4a
        E 6 e0 55 4a
        E 5 e0 55 4a
        E 6 e0 55 4a
        E 5 e0 55 4a
        E 6 e0 55 4a
        E 5 e0 2b 55
        E 5 e0 2b 55
        E 6 e0 2b 55
        E 5 e0 2b 55
        E 0 90 56 00
        E 31 90 59 3f
        E 97 90 47 27
        E 87 90 47 00
        E 31 90 50 51
        E 81 90 59 00
        E 41 90 49 3d
        E 0 90 4f 4a
        E 0 90 50 00
        E 118 90 58 42
        E 15 90 49 00
        E 77 90 4f 00
        E 25 90 58 00
        E 15 90 4d 46
        E 16 90 4a 2f
        E 0 90 4f 22
        E 67 90 4f 00
        E 51 90 4a 00
        E 0 90 4a 3c
        E 0 90 56 4e
        E 199 90 4d 00
        E 15 90 4a 00
        E 0 90 4a 50
        E 0 90 51 3e
        E 16 90 45 3d
        E 0 90 56 00
        E 148 90 51 00
        E 36 90 45 00
        E 132 90 4a 00
        E 41 90 4f 47
        E 77 90 4d 4d
        E 66 90 4d 00
        E 0 90 4d 3d
        E 37 90 4f 00
        E 81 e0 55 2a
        E 0 90 4d 00
        E 0 90 4d 4e
        E 6 e0 55 4a
        E 5 e0 55 2a
        E 6 e0 55 2a
        E 5 e0 55 2a
        E 6 e0 55 4a
        E 5 e0 55 4a
        E 6 e0 55 4a
        E 5 e0 55 4a
        E 6 e0 55 4a
        E 5 e0 55 4a
        E 6 e0 55 4a
        E 5 e0 55 4a
        E 6 e0 55 4a
        E 5 e0 55 4a
        E 0 90 4c 44
        E 0 90 4d 00
        E 26 90 49 36
        E 148 90 49 00
        E 286 90 4c 00
        E 292 e0 55 4a
        E 0 90 51 52
        E 5 e0 55 4a
        E 5 e0 55 4a
        E 5 e0 55 4a
        E 5 e0 55 4a
        E 5 e0 55 4a
        E 6 e0 55 4a
        E 5 e0 55 4a
        E 5 e0 55 4a
        E 5 e0 55 4a
        E 5 e0 55 4a
        E 5 e0 55 4a
        E 6 e0 55 4a
        E 5 e0 55 4a
        E 5 e0 55 4a
        E 5 e0 55 4a
        E 5 e0 55 4a
        E 6 e0 55 4a
        E 5 e0 55 4a
        E 5 e0 55 4a
        E 5 e0 55 4a
        E 5 e0 55 4a
        E 5 e0 55 4a
        E 6 e0 55 4a
        E 5 e0 55 4a
        E 5 e0 55 4a
        E 5 e0 55 4a
        E 5 e0 55 4a
        E 5 e0 55 4a
        E 6 e0 55 4a
        E 5 e0 55 4a
        E 5 e0 55 4a
        E 5 e0 55 4a
        E 5 e0 55 4a
        E 6 e0 55 4a
        E 5 e0 55 4a
        E 5 e0 55 4a
        E 5 e0 55 4a
        E 5 e0 55 4a
        E 5 e0 55 4a
        E 6 e0 55 4a
        E 5 e0 55 4a
        E 5 e0 55 4a
        E 5 e0 55 4a
        E 5 e0 55 4a
        E 5 e0 55 4a
        E 6 e0 55 4a
        E 5 e0 55 4a
        E 5 e0 55 4a
        E 5 e0 55 4a
        E 5 e0 55 4a
        E 6 e0 55 4a
        E 5 e0 55 4a
        E 5 e0 55 4a
        E 5 e0 55 4a
        E 5 e0 55 4a
        E 5 e0 55 4a
        E 6 e0 55 4a
        E 5 e0 55 4a
        E 5 e0 55 4a
        E 5 e0 55 4a
        E 5 e0 55 4a
        E 5 e0 55 4a
        E 6 e0 55 4a
        E 5 e0 55 4a
        E 5 e0 55 4a
        E 5 e0 55 4a
        E 5 e0 55 4a
        E 6 e0 55 4a
        E 5 e0 55 4a
        E 5 e0 55 4a
        E 5 e0 55 4a
        E 5 e0 55 4a
        E 5 e0 55 4a
        E 6 e0 55 4a
        E 5 e0 55 4a
        E 0 90 51 00
        E 0 90 51 49
        E 10 90 45 2d
        E 20 90 3e 4d
        E 0 90 41 3d
        E 77 90 51 00
        E 128 90 45 00
        E 41 90 41 00
        E 15 90 52 49
        E 10 90 3e 00
        E 77 90 52 00
        E 15 90 3e 41
        E 0 90 51 47
        E 5 90 41 32
        E 113 90 41 00
        E 10 90 3e 00
        E 0 90 3e 2d
        E 0 90 56 67
        E 5 90 51 00
        E 128 90 56 00
        E 0 90 56 57
        E 169 90 3e 00
        E 87 90 4d 5f
        E 86 90 4d 00
        E 0 90 4d 62
        E 6 90 3e 40
        E 5 90 41 37
        E 15 90 56 00
        E 36 90 4d 00
        E 0 90 4d 5b
        E 112 90 41 00
        E 15 90 4f 3d
        E 21 90 3e 00
        E 46 90 4c 40
        E 0 90 4d 00
        E 10 90 4f 00
        E 31 90 41 2c
        E 15 90 3e 38
        E 0 90 45 2f
        E 36 90 4c 00
        E 0 90 4d 52
        E 57 90 45 00
        E 35 90 3e 00
        E 0 90 3e 3b
        E 0 90 51 55
        E 5 90 41 00
        E 0 90 41 2c
        E 46 90 4d 00
        E 82 90 4d 3a
        E 41 90 41 00
        E 26 90 3e 00
        E 10 90 51 00
        E 0 90 51 45
        E 15 90 4d 00
        E 15 90 39 4a
        E 154 90 51 00
        E 20 90 39 00
        E 0 90 4a 5b
        E 143 90 45 51
        E 123 90 4d 6a
        E 25 90 4a 00
        E 36 90 4d 00
        E 0 90 4d 5d
        E 41 90 45 00
        E 46 90 43 59
        E 123 90 43 00
        E 0 90 43 40
        E 5 90 4d 00
        E 31 90 4c 4b
        E 122 90 43 00
        E 11 90 4a 55
        E 5 90 3e 45
        E 0 90 41 3d
        E 138 90 41 00
        E 0 90 4c 00
        E 0 90 4c 2f
        E 30 90 3e 00
        E 0 90 3e 36
        E 0 90 4a 00
        E 0 90 4a 46
        E 57 90 4c 00
        E 20 90 3e 00
        E 25 90 4a 00
        E 0 90 4a 47
        E 72 90 4c 4e
        E 61 90 4c 00
        E 0 90 4d 50
        E 5 90 4a 00
        E 57 90 4d 00
        E 0 90 4d 2f
        E 0 90 4f 3e
        E 51 90 51 34
        E 5 90 4d 00
        E 51 90 53 3a
        E 41 90 51 00
        E 5 90 4f 00
        E 52 90 56 53
        E 10 90 53 00
        E 51 90 56 00
        E 5 e0 55 4a
        E 0 90 58 3f
        E 5 e0 55 4a
        E 6 e0 55 4a
        E 5 e0 55 4a
        E 6 e0 2b 55
        E 5 e0 2b 55
        E 5 e0 2b 55
        E 6 e0 2b 55
        E 5 e0 2b 55
        E 6 e0 2b 55
        E 5 e0 2b 55
        E 5 e0 2b 55
        E 6 e0 55 4a
        E 5 e0 55 4a
        E 6 e0 55 4a
        E 5 e0 55 4a
        E 5 e0 55 4a
        E 6 e0 55 4a
        E 0 90 58 00
        E 10 90 59 44
        E 21 90 3e 39
        E 148 90 59 00
        E 5 90 3e 00
        E 20 e0 55 4a
        E 0 90 55 59
        E 5 e0 55 4a
        E 6 e0 55 4a
        E 5 e0 55 4a
        E 5 e0 55 4a
        E 6 e0 55 4a
        E 5 e0 55 4a
        E 5 e0 55 4a
        E 5 e0 55 4a
        E 6 e0 55 4a
        E 5 e0 55 4a
        E 5 e0 55 4a
        E 6 e0 55 4a
        E 5 e0 55 4a
        E 5 e0 55 4a
        E 5 e0 55 4a
        E 6 e0 55 4a
        E 5 e0 55 4a
        E 5 e0 55 4a
        E 6 e0 55 4a
        E 5 e0 55 4a
        E 5 e0 55 4a
        E 5 e0 55 4a
        E 6 e0 55 4a
        E 5 e0 55 4a
        E 5 e0 55 4a
        E 6 e0 55 4a
        E 5 e0 55 4a
        E 5 e0 55 4a
        E 5 e0 55 4a
        E 0 90 55 00
        E 0 90 56 51
        E 6 90 45 3f
        E 5 90 41 3c
        E 117 90 50 52
        E 15 90 45 00
        E 21 90 56 00
        E 10 90 41 00
        E 82 90 50 00
        E 0 90 51 47
        E 6 90 45 40
        E 15 90 41 3f
        E 148 90 50 3e
        E 0 90 51 00
        E 5 90 41 00
        E 10 90 41 2c
        E 0 90 4d 57
        E 21 90 45 00
        E 25 90 50 00
        E 62 90 45 32
        E 168 90 41 00
        E 46 90 45 00
        E 15 90 4b 48
        E 0 90 4d 00
        E 11 90 3f 4f
        E 20 90 37 44
        E 0 90 3a 4a
        E 297 90 4d 3f
        E 20 90 37 00
        E 21 90 3f 00
        E 31 90 3a 00
        E 15 90 4d 00
        E 5 90 4b 00
        E 0 90 4b 5d
        E 82 90 4d 4b
        E 5 90 4b 00
        E 0 90 4b 47
        E 102 90 4b 00
        E 10 90 4b 3a
        E 0 90 4f 59
        E 82 90 4b 00
        E 25 90 4d 00
        E 11 90 51 46
        E 35 90 4f 00
        E 0 90 4f 31
        E 46 90 51 00
        E 41 90 4f 00
        E 0 90 4f 39
        E 118 90 51 3a
        E 87 90 37 2c
        E 143 90 37 00
        E 5 90 4f 00
        E 11 90 51 00
        E 25 90 52 4b
        E 15 90 3a 38
        E 67 90 37 38
        E 10 90 3f 40
        E 0 90 52 00
        E 0 90 52 3e
        E 235 90 52 00
        E 77 90 37 00
        E 127 90 3a 00
        E 16 90 3f 00
        E 455 90 4a 57
        E 20 90 41 3d
        E 11 90 39 38
        E 280 90 41 00
        E 6 90 39 00
        E 25 e0 55 4a
        E 0 90 4a 00
        E 0 90 4a 5d
        E 6 e0 55 4a
        E 5 e0 55 4a
        E 5 e0 55 4a
        E 6 e0 55 4a
        E 5 e0 55 4a
        E 6 e0 55 4a
        E 5 e0 55 4a
        E 6 e0 55 4a
        E 5 e0 55 4a
        E 6 e0 55 2a
        E 5 e0 55 2a
        E 6 e0 55 2a
        E 5 e0 55 2a
        E 5 e0 55 2a
        E 6 e0 55 2a
        E 0 90 4a 00
        E 0 90 4a 45
        E 92 90 4d 3f
        E 5 90 45 53
        E 368 90 4a 00
        E 36 90 2d 52
        E 56 90 4d 00
        E 16 90 39 3c
        E 25 90 45 00
        E 36 90 43 51
        E 31 90 4c 4d
        E 122 90 2d 00
        E 0 90 4a 49
        E 5 90 39 00
        E 5 90 3e 33
        E 0 90 41 3e
        E 5 90 32 40
        E 0 90 4c 00
        E 0 90 4d 21
        E 57 90 43 00
        E 15 90 3e 00
        E 0 90 4d 00
        E 56 90 32 00
        E 10 90 3e 35
        E 108 90 3e 00
        E 61 90 4a 00
        E 5 90 2d 3d
        E 87 90 4a 30
        E 144 90 2d 00
        E 189 90 4a 00
        E 25 90 41 00
        E 46 e0 55 4a
        E 0 90 26 51
        E 5 e0 55 4a
        E 5 e0 55 4a
        E 5 e0 55 4a
        E 5 e0 55 4a
        E 6 e0 55 4a
        E 5 e0 55 4a
        E 5 e0 55 4a
        E 5 e0 55 4a
        E 5 e0 55 4a
        E 5 e0 55 4a
        E 5 e0 55 4a
        E 5 e0 55 4a
        E 6 e0 55 4a
        E 5 e0 55 4a
        E 5 e0 55 4a
        E 5 e0 55 4a
        E 5 e0 55 4a
        E 5 e0 55 4a
        E 5 e0 55 4a
        E 5 e0 55 4a
        E 5 e0 55 4a
        E 6 e0 55 4a
        E 5 e0 55 4a
        E 5 e0 55 4a
        E 5 e0 55 4a
        E 5 e0 55 4a
        E 5 e0 55 4a
        E 5 e0 55 4a
        E 5 e0 55 4a
        E 5 e0 55 4a
        E 6 e0 55 4a
        E 5 e0 55 4a
        E 5 e0 55 4a
        E 5 e0 55 4a
        E 5 e0 55 4a
        E 5 e0 55 4a
        E 5 e0 55 4a
        E 5 e0 55 4a
        E 5 e0 55 4a
        E 6 e0 55 4a
        E 5 e0 55 4a
        E 5 e0 55 4a
        E 5 e0 55 4a
        E 5 e0 55 4a
        E 5 e0 55 4a
        E 5 e0 55 4a
        E 5 e0 55 4a
        E 6 e0 55 4a
        E 5 e0 55 4a
        E 5 e0 55 4a
        E 5 e0 55 4a
        E 5 e0 55 4a
        E 5 e0 55 4a
        E 5 e0 55 4a
        E 5 e0 55 4a
        E 5 e0 55 4a
        E 6 e0 55 4a
        E 5 e0 55 4a
        E 5 e0 55 4a
        E 5 e0 55 4a
        E 5 e0 55 4a
        E 5 e0 55 4a
        E 5 e0 55 4a
        E 5 e0 55 4a
        E 5 e0 55 4a
        E 6 e0 55 4a
        E 5 e0 55 4a
        E 5 e0 55 4a
        E 5 e0 55 4a
        E 5 e0 55 4a
        E 5 e0 55 4a
        E 5 e0 55 4a
        E 5 e0 55 4a
        E 5 e0 55 4a
        E 6 e0 55 4a
        E 5 e0 55 4a
        E 5 e0 55 4a
        E 5 e0 55 4a
        E 5 e0 55 4a
        E 5 e0 55 4a
        E 5 e0 55 4a
        E 5 e0 55 4a
        E 6 e0 55 4a
        E 5 e0 55 4a
        E 5 e0 55 4a
        E 5 e0 55 4a
        E 5 e0 55 4a
        E 5 e0 55 4a
        E 5 e0 55 4a
        E 5 e0 55 4a
        E 5 e0 55 4a
        E 6 e0 55 4a
        E 5 e0 55 4a
        E 5 e0 55 4a
        E 5 e0 55 4a
        E 5 e0 55 4a
        E 5 e0 55 4a
        E 0 90 26 00
        E 930 90 45 48
        E 6 90 3e 59
        E 0 90 42 5d
        E 102 90 3e 00
        E 0 90 3e 46
        E 0 90 41 41
        E 0 90 42 00
        E 76 90 41 00
        E 0 90 42 36
        E 16 90 45 00
        E 0 90 45 53
        E 51 90 42 00
        E 35 90 41 37
        E 0 90 44 38
        E 0 90 45 00
        E 67 90 44 00
        E 20 90 3e 00
        E 0 90 3e 2e
        E 0 90 41 00
        E 0 90 42 35
        E 0 90 51 1f
        E 41 90 45 3d
        E 21 90 51 00
        E 15 90 3e 00
        E 0 90 42 00
        E 20 90 56 48
        E 16 90 4a 45
        E 46 90 56 00
        E 15 90 45 00
        E 26 90 39 3b
        E 0 90 42 51
        E 0 90 4a 00
        E 5 90 32 2c
        E 0 90 3e 35
        E 71 90 3e 00
        E 10 90 39 00
        E 5 90 38 39
        E 0 90 41 3c
        E 0 90 42 00
        E 31 90 32 00
        E 5 90 4d 35
        E 37 90 38 00
        E 5 90 41 00
        E 10 90 39 3d
        E 0 90 42 48
        E 36 90 4d 00
        E 41 90 39 00
        E 5 90 42 00
        E 5 90 41 40
        E 36 90 38 3d
        E 40 90 41 00
        E 0 90 42 56
        E 31 90 38 00
        E 51 90 51 24
        E 5 90 42 00
        E 0 90 42 35
        E 41 90 45 3d
        E 31 90 51 00
        E 20 90 2f 37
        E 10 90 3e 3a
        E 0 90 42 00
        E 0 90 42 2d
        E 72 90 2f 00
        E 15 90 42 00
        E 0 90 42 46
        E 5 90 45 00
        E 31 90 4e 38
        E 36 90 3e 00
        E 20 90 42 00
        E 26 90 4e 00
        E 10 90 40 44
        E 0 90 4c 2d
        E 51 90 43 3e
        E 20 90 4c 00
        E 6 90 4f 30
        E 30 90 40 00
        E 41 90 3d 42
        E 5 90 40 23
        E 61 90 43 00
        E 6 90 4f 00
        E 10 90 3d 00
        E 0 90 40 00
        E 0 90 40 49
        E 87 90 26 4f
        E 0 90 32 34
        E 10 90 40 00
        E 77 90 3d 40
        E 72 90 3d 00
        E 15 90 32 00
        E 0 90 3e 47
        E 46 90 4a 46
        E 15 90 3e 00
        E 5 90 26 00
        E 51 90 40 42
        E 6 90 4a 00
        E 45 90 42 46
        E 31 90 4e 3c
        E 5 90 40 00
        E 26 90 42 00
        E 15 90 43 40
        E 87 90 43 00
        E 15 90 32 3b
        E 0 90 3e 38
        E 0 90 45 45
        E 0 90 4e 00
        E 0 90 4e 46
        E 0 90 51 37
        E 87 90 3e 00
        E 0 90 42 45
        E 5 90 51 00
        E 16 90 32 00
        E 15 90 4e 00
        E 5 90 36 36
        E 56 90 40 2b
        E 0 90 42 00
        E 21 90 36 00
        E 51 90 32 3c
        E 0 90 3e 29
        E 0 90 40 00
        E 0 90 45 00
        E 67 90 3e 00
        E 15 90 4a 31
        E 0 90 4e 33
        E 26 90 32 00
        E 46 90 4e 00
        E 45 90 2f 40
        E 52 90 42 4f
        E 0 90 4a 00
        E 0 90 4a 43
        E 0 90 4e 28
        E 15 90 2f 00
        E 77 90 2b 34
        E 0 90 37 2b
        E 10 90 4e 00
        E 41 90 42 00
        E 10 90 2b 00
        E 20 90 37 00
        E 5 90 4a 00
        E 11 90 2a 35
        E 0 90 36 28
        E 71 90 36 00
        E 5 e0 55 4a
        E 0 90 28 34
        E 0 90 2a 00
        E 6 e0 55 4a
        E 5 e0 55 4a
        E 6 e0 55 4a
        E 6 e0 55 4a
        E 5 e0 55 4a
        E 6 e0 55 4a
        E 5 e0 55 4a
        E 6 e0 55 4a
        E 5 e0 55 4a
        E 6 e0 55 4a
        E 6 e0 55 4a
        E 0 90 28 00
        E 20 90 4e 39
        E 0 90 51 3d
        E 5 90 3e 35
        E 41 90 32 3c
        E 20 90 3e 00
        E 21 90 25 49
        E 0 90 51 00
        E 10 90 4e 00
        E 41 90 32 00
        E 25 90 23 3c
        E 26 90 25 00
        E 20 90 43 3a
        E 41 90 4a 35
        E 51 90 23 00
        E 21 90 43 00
        E 41 90 42 4f
        E 46 90 4a 00
        E 0 90 4a 4b
        E 87 90 4a 00
        E 5 90 2d 28
        E 5 90 42 00
        E 26 90 40 4b
        E 36 90 2d 00
        E 15 90 49 44
        E 31 90 40 00
        E 0 90 40 42
        E 0 90 4c 42
        E 56 90 49 00
        E 10 90 40 00
        E 0 90 4c 00
        E 5 90 3e 56
        E 0 90 4a 41
        E 31 90 32 43
        E 46 90 3e 00
        E 0 90 3e 4f
        E 51 90 32 00
        E 0 90 32 42
        E 46 90 2d 2d
        E 41 90 32 00
        E 0 90 32 40
        E 46 90 2a 40
        E 5 90 3e 00
        E 0 90 3e 41
        E 35 90 2d 00
        E 0 90 2d 46
        E 41 90 32 00
        E 0 90 32 32
        E 11 90 4a 00
        E 15 90 2a 00
        E 5 90 3e 00
        E 5 90 26 4c
        E 20 90 2d 00
        E 26 90 32 00
        E 230 90 45 4e
        E 6 90 3e 3d
        E 0 90 42 46
        E 92 90 41 3e
        E 0 90 42 00
        E 10 90 26 00
        E 0 90 45 00
        E 61 90 45 47
        E 10 90 41 00
        E 10 90 42 43
        E 41 90 45 00
        E 5 90 45 3b
        E 11 90 3e 00
        E 15 90 42 00
        E 10 90 41 3e
        E 118 90 41 00
        E 15 e0 55 4a
        E 0 90 45 00
        E 0 90 45 49
        E 6 e0 55 4a
        E 5 e0 55 4a
        E 5 e0 55 4a
        E 6 e0 55 4a
        E 5 e0 55 4a
        E 6 e0 55 4a
        E 5 e0 55 4a
        E 6 e0 55 4a
        E 5 e0 55 4a
        E 6 e0 55 4a
        E 5 e0 55 4a
        E 6 e0 55 4a
        E 5 e0 55 4a
        E 6 e0 55 4a
        E 0 90 45 00
        E 0 90 4a 40
        E 56 90 3e 37
        E 0 90 42 4c
        E 5 90 32 38
        E 36 90 4a 00
        E 41 90 3e 00
        E 5 90 38 3e
        E 0 90 4d 27
        E 10 90 42 00
        E 0 90 42 2c
        E 66 90 32 00
        E 5 90 4d 00
        E 11 90 38 00
        E 5 90 39 3a
        E 0 90 42 00
        E 0 90 42 48
        E 46 90 32 27
        E 21 90 39 00
        E 10 90 42 00
        E 5 90 4d 25
        E 10 90 42 27
        E 31 90 38 32
        E 5 90 32 00
        E 26 90 4d 00
        E 5 90 42 00
        E 0 90 42 38
        E 41 90 4e 36
        E 30 90 38 00
        E 10 90 51 25
        E 46 90 45 40
        E 16 90 4e 00
        E 10 90 51 00
        E 25 90 2f 2a
        E 0 90 42 00
        E 6 90 3e 3b
        E 35 90 4a 32
        E 26 90 2f 00
        E 20 90 45 00
        E 5 90 42 4d
        E 0 90 4e 2e
        E 62 90 4a 00
        E 20 90 4e 00
        E 10 90 3e 00
        E 16 90 42 00
        E 20 90 40 47
        E 46 90 43 3a
        E 0 90 4c 35
        E 56 90 40 00
        E 5 90 4c 00
        E 31 90 3d 3c
        E 0 90 40 26
        E 46 90 43 00
        E 41 90 40 00
        E 0 90 40 46
        E 31 90 3d 00
        E 61 90 26 51
        E 5 90 40 00
        E 154 90 3e 40
        E 41 90 4a 4a
        E 30 90 26 00
        E 5 90 3e 00
        E 6 90 4c 21
        E 35 90 40 3f
        E 10 90 4a 00
        E 21 90 4c 00
        E 15 90 42 4a
        E 31 90 40 00
        E 51 e0 55 2a
        E 0 90 42 00
        E 0 90 43 2f
        E 5 e0 55 4a
        E 6 e0 55 4a
        E 5 e0 55 4a
        E 6 e0 55 4a
        E 5 e0 55 4a
        E 6 e0 55 4a
        E 5 e0 55 4a
        E 6 e0 55 4a
        E 5 e0 55 4a
        E 6 e0 55 4a
        E 5 e0 55 4a
        E 6 e0 55 4a
        E 5 e0 55 4a
        E 0 90 43 00
        E 21 90 32 41
        E 0 90 3e 39
        E 5 90 45 42
        E 0 90 4e 46
        E 0 90 51 30
        E 77 90 3e 00
        E 5 90 42 45
        E 0 90 51 00
        E 30 90 32 00
        E 0 90 4e 00
        E 11 90 36 2b
        E 56 90 42 00
        E 5 90 36 00
        E 25 90 34 29
        E 0 90 40 2f
        E 41 90 32 41
        E 0 90 3e 25
        E 5 90 45 00
        E 21 90 34 00
        E 36 90 40 00
        E 15 90 32 00
        E 0 90 3e 00
        E 20 90 4e 3b
        E 62 90 3b 27
        E 10 90 4e 00
        E 21 90 4a 29
        E 15 90 2f 3c
        E 36 90 3b 00
        E 15 90 42 4c
        E 0 90 4a 00
        E 0 90 4a 40
        E 0 90 4e 2e
        E 36 90 2f 00
        E 41 90 4e 00
        E 87 90 2a 45
        E 0 90 42 00
        E 10 90 4a 00
        E 51 90 2a 00
        E 5 90 2a 41
        E 0 90 36 30
        E 87 90 2a 00
        E 5 90 36 00
        E 21 90 32 43
        E 0 90 4e 3e
        E 0 90 51 36
        E 5 90 26 35
        E 0 90 45 32
        E 61 90 26 00
        E 20 90 25 3f
        E 6 90 31 28
        E 0 90 32 00
        E 0 90 45 00
        E 10 90 4e 00
        E 20 90 51 00
        E 31 90 31 00
        E 36 90 25 00
        E 20 90 23 46
        E 0 90 43 2c
        E 77 90 43 00
        E 30 90 23 00
        E 62 90 42 56
        E 41 90 4a 4d
        E 31 90 4e 31
        E 5 90 42 00
        E 0 90 42 34
        E 30 90 4a 00
        E 57 90 40 42
        E 5 90 4e 00
        E 5 90 42 00
        E 36 90 49 48
        E 20 90 2d 36
        E 15 90 4c 3c
        E 5 90 40 00
        E 0 90 40 39
        E 67 90 49 00
        E 5 90 2d 00
        E 10 90 4a 4f
        E 0 90 4c 00
        E 41 90 40 00
        E 10 90 32 43
        E 0 90 3e 2e
        E 82 90 3e 00
        E 0 90 3e 2c
        E 5 90 32 00
        E 0 90 32 52
        E 46 90 4a 00
        E 36 90 32 00
        E 0 90 32 3e
        E 5 90 3e 00
        E 0 90 3e 2d
        E 36 90 2a 41
        E 51 90 3e 00
        E 5 90 2d 43
        E 10 90 2a 00
        E 0 90 2a 42
        E 67 90 2a 00
        E 5 90 32 00
        E 5 e0 55 4a
        E 0 90 26 56
        E 0 90 2d 00
        E 5 e0 55 4a
        E 5 e0 55 4a
        E 5 e0 55 4a
        E 5 e0 55 4a
        E 5 e0 55 4a
        E 5 e0 55 4a
        E 6 e0 55 4a
        E 5 e0 55 4a
        E 5 e0 55 4a
        E 5 e0 55 4a
        E 5 e0 55 4a
        E 5 e0 55 4a
        E 5 e0 55 4a
        E 5 e0 55 4a
        E 6 e0 55 4a
        E 5 e0 55 4a
        E 5 e0 55 4a
        E 5 e0 55 4a
        E 5 e0 55 4a
        E 5 e0 55 4a
        E 5 e0 55 4a
        E 5 e0 55 4a
        E 5 e0 55 4a
        E 6 e0 55 4a
        E 5 e0 55 4a
        E 5 e0 55 4a
        E 5 e0 55 4a
        E 5 e0 55 4a
        E 5 e0 55 4a
        E 5 e0 55 4a
        E 5 e0 55 4a
        E 6 e0 55 4a
        E 5 e0 55 4a
        E 5 e0 55 4a
        E 5 e0 55 4a
        E 5 e0 55 4a
        E 5 e0 55 4a
        E 5 e0 55 4a
        E 5 e0 55 4a
        E 5 e0 55 4a
        E 6 e0 55 4a
        E 5 e0 55 4a
        E 5 e0 55 4a
        E 5 e0 55 4a
        E 5 e0 55 4a
        E 5 e0 55 4a
        E 5 e0 55 4a
        E 5 e0 55 4a
        E 6 e0 55 4a
        E 5 e0 55 4a
        E 5 e0 55 4a
        E 5 e0 55 4a
        E 5 e0 55 4a
        E 5 e0 55 4a
        E 5 e0 55 4a
        E 5 e0 55 4a
        E 5 e0 55 4a
        E 6 e0 55 4a
        E 5 e0 55 4a
        E 5 e0 55 4a
        E 5 e0 55 4a
        E 5 e0 55 4a
        E 0 90 26 00
        E 5 90 3d 3e
        E 5 90 39 29
        E 0 90 40 58
        E 67 90 39 00
        E 20 90 3d 00
        E 15 90 3c 50
        E 0 90 3f 4d
        E 0 90 40 00
        E 82 90 3c 00
        E 0 90 3d 44
        E 10 90 3f 00
        E 0 90 40 4f
        E 77 90 3d 00
        E 10 90 3c 3c
        E 0 90 3f 54
        E 0 90 40 00
        E 0 90 4b 22
        E 72 90 4b 00
        E 10 90 3c 00
        E 5 90 3d 42
        E 0 90 3f 00
        E 0 90 40 45
        E 92 90 3f 50
        E 0 90 40 00
        E 0 90 42 46
        E 20 90 3d 00
        E 26 90 4e 2d
        E 46 90 3f 00
        E 0 90 40 4d
        E 26 90 42 00
        E 30 90 4e 00
        E 51 90 3f 3d
        E 0 90 40 00
        E 0 90 42 41
        E 83 90 42 00
        E 0 90 43 41
        E 86 90 3f 00
        E 0 90 3f 4c
        E 0 90 42 4c
        E 0 90 43 00
        E 87 90 3f 00
        E 0 90 40 2c
        E 0 90 42 00
        E 0 90 43 40
        E 92 90 40 00
        E 0 90 40 42
        E 16 90 43 00
        E 71 90 42 49
        E 5 90 40 00
        E 41 90 32 3f
        E 46 90 41 39
        E 0 90 42 00
        E 0 90 4d 1d
        E 5 90 3d 31
        E 56 90 41 00
        E 0 90 4d 00
        E 5 90 3d 00
        E 16 90 42 4c
        E 5 90 3e 3d
        E 25 90 4e 4e
        E 57 90 3e 00
        E 5 90 3d 3b
        E 0 90 4e 00
        E 5 90 41 42
        E 0 90 42 00
        E 0 90 4d 1f
        E 56 90 32 00
        E 5 90 4d 00
        E 0 90 4e 36
        E 15 90 41 00
        E 6 90 3d 00
        E 0 90 3e 45
        E 0 90 42 4b
        E 71 90 40 32
        E 0 90 42 00
        E 10 90 3e 00
        E 0 90 43 41
        E 0 90 4e 00
        E 62 90 40 00
        E 26 90 43 00
        E 5 90 42 47
        E 36 90 3e 39
        E 0 90 45 31
        E 35 90 42 00
        E 11 90 41 3c
        E 76 90 45 00
        E 0 90 45 4e
        E 5 90 3e 00
        E 0 90 3e 32
        E 0 90 41 00
        E 0 90 42 45
        E 0 90 51 2b
        E 72 90 3e 00
        E 0 90 42 00
        E 5 90 41 40
        E 0 90 44 2b
        E 0 90 45 00
        E 0 90 51 00
        E 61 90 44 00
        E 10 90 45 4e
        E 16 90 41 00
        E 0 90 42 42
        E 46 90 45 00
        E 0 90 51 32
        E 5 90 45 47
        E 30 90 42 00
        E 31 90 56 53
        E 15 90 45 00
        E 0 90 4a 4a
        E 0 90 51 00
        E 0 90 51 32
        E 52 90 56 00
        E 10 90 45 26
        E 0 90 4a 00
        E 0 90 51 00
        E 0 90 51 37
        E 5 90 32 39
        E 0 90 49 49
        E 5 90 3e 2f
        E 41 90 2b 37
        E 25 90 45 00
        E 16 90 51 00
        E 5 90 3e 00
        E 5 90 32 00
        E 10 90 2d 40
        E 15 90 49 00
        E 6 90 2b 00
        E 51 90 2d 00
        E 10 90 47 3b
        E 0 90 53 43
        E 10 90 2f 2e
        E 61 90 25 41
        E 5 90 53 00
        E 6 90 2f 00
        E 20 90 47 00
        E 41 90 25 00
        E 16 90 32 3d
        E 0 90 4e 36
        E 0 90 51 2a
        E 5 90 26 3c
        E 66 90 26 00
        E 5 90 2a 35
        E 6 90 32 00
        E 0 90 32 41
        E 0 90 51 00
        E 0 90 51 31
        E 10 90 4e 00
        E 25 90 36 23
        E 26 90 32 00
        E 25 90 51 00
        E 0 90 51 38
        E 5 90 2a 00
        E 0 90 2b 44
        E 0 90 49 41
        E 41 90 36 00
        E 26 90 2d 37
        E 15 90 2b 00
        E 36 90 49 00
        E 10 90 51 00
        E 5 90 2d 00
        E 36 90 2f 46
        E 0 90 53 3f
        E 82 90 2f 00
        E 0 90 3d 35
        E 15 90 53 00
        E 56 90 3d 00
        E 11 90 32 50
        E 0 90 3e 32
        E 91 90 31 31
        E 0 90 32 00
        E 0 90 3e 00
        E 0 90 51 34
        E 6 90 4c 31
        E 56 90 31 00
        E 0 90 51 00
        E 10 90 4c 00
        E 10 90 2f 48
        E 41 90 3b 2f
        E 41 90 2d 37
        E 0 90 2f 00
        E 5 90 49 2b
        E 46 90 3b 00
        E 15 90 2d 00
        E 11 90 49 00
        E 10 90 4c 2f
        E 5 90 2b 35
        E 62 90 4c 00
        E 15 90 2b 00
        E 0 90 4a 43
        E 5 90 45 2d
        E 77 90 45 00
        E 10 90 4a 00
        E 5 90 36 30
        E 5 90 49 49
        E 77 90 32 25
        E 10 90 49 00
        E 26 90 36 00
        E 10 90 4a 47
        E 56 90 32 00
        E 5 90 49 38
        E 0 90 4a 00
        E 10 90 2d 45
        E 11 90 21 34
        E 81 90 49 00
        E 11 90 3d 45
        E 0 90 49 2d
        E 66 90 21 00
        E 20 90 3d 00
        E 0 90 3e 45
        E 11 90 49 00
        E 35 90 4a 41
        E 41 90 3e 00
        E 0 90 40 55
        E 87 90 2d 00
        E 0 90 42 4b
        E 5 90 40 00
        E 0 90 40 2e
        E 0 90 4a 00
        E 36 90 4e 33
        E 46 90 42 00
        E 0 90 43 40
        E 25 90 40 00
        E 37 90 4e 00
        E 25 90 43 00
        E 0 90 45 4d
        E 11 90 42 5a
        E 45 90 3e 49
        E 46 90 45 00
        E 6 90 41 42
        E 0 90 42 00
        E 76 90 41 00
        E 5 90 45 4f
        E 5 90 42 4a
        E 82 90 3e 00
        E 0 90 3e 3a
        E 0 90 41 41
        E 0 90 42 00
        E 0 90 44 2f
        E 0 90 45 00
        E 72 90 44 00
        E 15 90 41 00
        E 0 90 42 42
        E 5 90 51 29
        E 41 90 45 49
        E 5 90 3e 00
        E 10 90 42 00
        E 21 90 51 00
        E 41 90 45 00
        E 0 90 4a 46
        E 56 90 39 40
        E 5 90 32 35
        E 0 90 3e 36
        E 0 90 4a 00
        E 5 90 42 4d
        E 56 90 3e 00
        E 5 90 39 00
        E 5 90 42 00
        E 21 90 41 3d
        E 0 90 4d 22
        E 41 90 38 39
        E 41 90 4d 00
        E 5 90 41 00
        E 10 90 42 47
        E 31 90 38 00
        E 0 90 38 3d
        E 46 90 32 00
        E 10 90 41 44
        E 0 90 42 00
        E 36 90 38 00
        E 0 90 38 33
        E 0 90 4d 26
        E 41 90 41 00
        E 0 90 42 44
        E 25 90 4d 00
        E 41 90 38 00
        E 16 90 51 35
        E 46 90 45 4b
        E 5 90 42 00
        E 30 90 51 00
        E 11 90 2f 2f
        E 15 90 3e 3a
        E 10 90 45 00
        E 41 90 2f 00
        E 31 90 42 4c
        E 41 90 4e 38
        E 30 90 3e 00
        E 16 90 42 00
        E 40 90 4e 00
        E 6 90 40 48
        E 0 90 4c 30
        E 45 90 43 3d
        E 57 90 40 00
        E 5 90 4c 00
        E 36 90 3d 3e
        E 0 90 40 24
        E 35 90 49 37
        E 16 90 43 00
        E 20 90 3d 00
        E 10 90 40 00
        E 0 90 40 49
        E 16 90 49 00
        E 81 90 26 47
        E 0 90 32 35
        E 0 90 40 00
        E 72 90 32 00
        E 6 90 3d 42
        E 71 90 3d 00
        E 61 90 4a 47
        E 26 90 26 00
        E 56 90 40 3c
        E 5 90 4a 00
        E 36 90 42 51
        E 25 90 40 00
        E 16 90 4e 34
        E 36 90 42 00
        E 5 90 43 49
        E 97 90 32 47
        E 0 90 3e 3a
        E 0 90 43 00
        E 5 90 45 44
        E 0 90 4e 00
        E 0 90 4e 45
        E 0 90 51 42
        E 76 90 42 40
        E 6 90 3e 00
        E 5 90 51 00
        E 25 90 32 00
        E 5 90 4e 00
        E 5 90 36 39
        E 41 90 42 00
        E 26 90 36 00
        E 15 90 40 30
        E 41 90 32 47
        E 0 90 45 00
        E 72 90 40 00
        E 25 90 4e 34
        E 31 90 32 00
        E 46 90 2f 4b
        E 0 90 3b 23
        E 0 90 4e 00
        E 67 90 3b 00
        E 20 90 3e 2b
        E 0 90 42 4c
        E 0 90 4a 43
        E 0 90 4e 38
        E 5 90 2f 00
        E 82 90 4e 00
        E 36 90 3e 00
        E 30 90 42 00
        E 6 90 2a 43
        E 0 90 4a 00
        E 10 90 36 25
        E 56 90 2a 00
        E 5 90 2a 2e
        E 26 90 28 30
        E 0 90 36 00
        E 10 90 36 2e
        E 30 90 2a 00
        E 21 90 28 00
        E 10 90 36 00
        E 15 90 45 26
        E 0 90 51 40
        E 6 90 26 39
        E 0 90 4e 3c
        E 61 90 26 00
        E 41 90 45 00
        E 15 90 25 3f
        E 15 90 4e 00
        E 16 90 51 00
        E 56 90 25 00
        E 0 90 43 31
        E 41 90 4a 41
        E 41 90 43 00
        E 51 90 4a 00
        E 46 90 42 58
        E 41 90 4a 3f
        E 36 90 4e 3d
        E 5 90 42 00
        E 0 90 42 32
        E 56 90 4e 00
        E 0 90 4e 2e
        E 21 90 40 43
        E 10 90 4a 00
        E 36 90 42 00
        E 0 90 4e 00
        E 10 90 49 30
        E 20 90 40 00
        E 0 90 40 39
        E 0 90 4c 46
        E 72 90 49 00
        E 20 90 4a 43
        E 36 90 3e 2b
        E 5 90 32 56
        E 5 90 40 00
        E 15 90 4c 00
        E 77 90 32 00
        E 0 90 32 50
        E 10 90 4a 00
        E 31 90 3e 00
        E 51 90 32 00
        E 0 90 32 33
        E 36 90 2a 47
        E 10 90 36 24
        E 46 90 2d 43
        E 0 90 32 00
        E 5 90 2a 00
        E 5 90 2a 46
        E 41 90 36 00
        E 41 90 2a 00
        E 51 90 26 51
        E 174 90 2d 00
        E 245 90 26 00
        E 1227 90 51 48
        E 26 90 3e 51
        E 5 90 42 49
        E 332 90 51 00
        E 138 90 51 2e
        E 159 90 51 00
        E 5 90 42 00
        E 102 90 3e 00
        E 10 90 53 47
        E 82 90 51 47
        E 97 90 53 00
        E 15 90 51 00
        E 0 90 51 41
        E 92 90 55 3c
        E 51 90 58 40
        E 10 90 51 00
        E 11 90 55 00
        E 62 90 56 3d
        E 35 90 58 00
        E 67 90 56 00
        E 602 90 4e 6d
        E 11 90 45 2f
        E 10 90 32 2f
        E 5 90 3e 4a
        E 41 90 4e 00
        E 0 90 4e 48
        E 103 90 45 00
        E 10 90 32 00
        E 337 90 32 2f
        E 66 90 32 00
        E 46 90 3e 00
        E 16 90 4e 00
        E 30 e0 55 4a
        E 0 90 4f 5a
        E 6 e0 55 4a
        E 5 e0 55 4a
        E 6 e0 55 4a
        E 5 e0 55 4a
        E 6 e0 55 4a
        E 5 e0 55 4a
        E 6 e0 55 4a
        E 5 e0 55 4a
        E 6 e0 55 4a
        E 5 e0 55 4a
        E 6 e0 55 4a
        E 5 e0 55 4a
        E 6 e0 55 4a
        E 5 e0 55 4a
        E 0 90 4e 5e
        E 0 90 4f 00
        E 56 90 4c 44
        E 56 90 4e 00
        E 0 90 4e 5a
        E 57 90 51 3c
        E 51 90 4e 00
        E 0 90 4f 39
        E 41 90 53 4d
        E 36 90 4c 00
        E 41 90 51 00
        E 0 90 51 47
        E 15 90 4f 00
        E 5 90 53 00
        E 184 90 51 00
        E 404 90 4a 5f
        E 10 90 42 3c
        E 10 90 39 3f
        E 445 90 4a 00
        E 0 90 4a 65
        E 20 90 42 00
        E 0 90 42 3d
        E 6 90 39 00
        E 0 90 39 35
        E 189 90 39 00
        E 20 90 4a 00
        E 0 90 4a 4d
        E 15 90 42 00
        E 0 90 42 4f
        E 184 90 42 00
        E 5 90 4c 47
        E 5 90 39 42
        E 11 90 43 32
        E 179 90 4a 00
        E 0 90 4a 40
        E 31 90 43 00
        E 25 90 4c 00
        E 0 90 4c 53
        E 5 90 39 00
        E 0 90 39 38
        E 148 90 4a 00
        E 26 90 4e 56
        E 61 90 4c 00
        E 62 90 39 00
        E 15 90 4a 42
        E 0 90 4e 00
        E 5 90 3e 47
        E 5 90 42 41
        E 261 90 4a 00
        E 30 90 3e 00
        E 0 90 3e 50
        E 87 90 42 00
        E 0 90 42 53
        E 62 90 40 49
        E 36 90 3e 00
        E 66 90 42 00
        E 0 90 42 5d
        E 51 90 40 00
        E 0 90 45 4b
        E 62 90 42 00
        E 0 90 43 41
        E 46 90 47 35
        E 51 90 45 00
        E 0 90 45 3f
        E 35 90 43 00
        E 16 90 49 3b
        E 41 90 47 00
        E 0 90 47 43
        E 86 90 49 00
        E 0 90 49 53
        E 26 90 47 00
        E 10 90 45 00
        E 10 90 4c 36
        E 52 90 49 00
        E 0 90 4a 47
        E 45 90 4e 41
        E 52 90 4c 00
        E 0 90 4c 3e
        E 30 90 4a 00
        E 62 90 4e 00
        E 0 90 4e 43
        E 40 90 51 38
        E 21 90 4c 00
        E 26 90 4e 00
        E 0 90 4f 36
        E 36 90 51 00
        E 25 90 53 4e
        E 143 90 4f 00
        E 16 e0 55 4a
        E 0 90 51 5b
        E 0 90 53 00
        E 5 e0 55 4a
        E 5 e0 55 4a
        E 5 e0 55 4a
        E 5 e0 55 4a
        E 6 e0 55 4a
        E 5 e0 55 4a
        E 5 e0 55 4a
        E 5 e0 55 4a
        E 6 e0 55 4a
        E 5 e0 55 4a
        E 5 e0 55 4a
        E 5 e0 55 4a
        E 6 e0 55 4a
        E 5 e0 55 4a
        E 5 e0 55 4a
        E 5 e0 55 4a
        E 5 e0 55 4a
        E 6 e0 55 4a
        E 5 e0 55 4a
        E 5 e0 55 4a
        E 5 e0 2b 55
        E 6 e0 2b 55
        E 5 e0 2b 55
        E 5 e0 2b 55
        E 5 e0 55 4a
        E 5 e0 55 4a
        E 6 e0 55 4a
        E 5 e0 55 4a
        E 5 e0 55 4a
        E 5 e0 55 4a
        E 6 e0 55 4a
        E 5 e0 55 4a
        E 5 e0 55 4a
        E 5 e0 55 4a
        E 5 e0 55 4a
        E 6 e0 55 4a
        E 5 e0 55 4a
        E 5 e0 55 4a
        E 5 e0 55 4a
        E 6 e0 55 4a
        E 5 e0 55 4a
        E 5 e0 55 4a
        E 5 e0 55 4a
        E 5 e0 55 4a
        E 0 90 51 00
        E 52 90 3e 57
        E 0 90 42 4c
        E 281 90 3e 00
        E 0 90 3e 4f
        E 5 90 42 00
        E 0 90 42 45
        E 102 90 53 50
        E 57 90 3e 00
        E 30 90 42 00
        E 31 90 55 54
        E 10 90 53 00
        E 92 90 55 00
        E 0 90 56 48
        E 112 90 58 42
        E 113 90 56 00
        E 0 90 56 44
        E 10 90 58 00
        E 133 e0 55 2a
        E 0 90 56 00
        E 0 90 56 38
        E 5 e0 55 2a
        E 6 e0 55 2a
        E 5 e0 55 2a
        E 6 e0 55 2a
        E 5 e0 55 2a
        E 6 e0 55 2a
        E 5 e0 55 2a
        E 5 e0 55 2a
        E 6 e0 55 2a
        E 5 e0 55 2a
        E 6 e0 55 2a
        E 5 e0 55 2a
        E 6 e0 55 2a
        E 5 e0 55 4a
        E 6 e0 55 4a
        E 0 90 56 00
        E 0 90 56 50
        E 184 90 4e 50
        E 61 90 56 00
        E 256 90 45 37
        E 5 90 3e 56
        E 225 90 4e 00
        E 35 90 3e 00
        E 0 90 3e 50
        E 0 90 45 00
        E 0 90 45 46
        E 113 90 4f 59
        E 5 90 45 00
        E 31 90 3e 00
        E 81 e0 55 2a
        E 0 90 4f 00
        E 0 90 50 60
        E 5 e0 55 4a
        E 6 e0 55 4a
        E 5 e0 55 4a
        E 5 e0 55 4a
        E 5 e0 55 4a
        E 5 e0 55 4a
        E 5 e0 55 4a
        E 5 e0 55 4a
        E 6 e0 55 4a
        E 5 e0 55 4a
        E 5 e0 55 4a
        E 5 e0 55 4a
        E 5 e0 55 4a
        E 5 e0 55 4a
        E 5 e0 55 4a
        E 5 e0 55 4a
        E 6 e0 55 4a
        E 5 e0 55 4a
        E 5 e0 55 4a
        E 0 90 50 00
        E 0 90 51 57
        E 5 e0 55 4a
        E 6 e0 55 4a
        E 5 e0 55 4a
        E 5 e0 55 4a
        E 6 e0 55 4a
        E 5 e0 55 4a
        E 5 e0 55 4a
        E 6 e0 55 4a
        E 5 e0 55 4a
        E 5 e0 55 4a
        E 6 e0 55 4a
        E 5 e0 55 4a
        E 5 e0 55 4a
        E 6 e0 55 4a
        E 5 e0 55 4a
        E 5 e0 55 4a
        E 6 e0 55 4a
        E 5 e0 55 4a
        E 5 e0 55 4a
        E 6 e0 55 4a
        E 5 e0 55 4a
        E 5 e0 55 4a
        E 0 90 51 00
        E 0 90 51 30
        E 0 90 53 4c
        E 113 90 51 00
        E 0 90 51 4c
        E 92 90 53 00
        E 35 e0 55 4a
        E 0 90 50 52
        E 0 90 51 00
        E 6 e0 55 4a
        E 5 e0 55 4a
        E 5 e0 55 4a
        E 6 e0 55 4a
        E 5 e0 55 4a
        E 5 e0 55 4a
        E 6 e0 55 4a
        E 5 e0 55 4a
        E 5 e0 55 4a
        E 6 e0 55 4a
        E 5 e0 55 4a
        E 5 e0 55 4a
        E 6 e0 55 4a
        E 5 e0 55 4a
        E 5 e0 55 4a
        E 6 e0 55 4a
        E 5 e0 55 4a
        E 5 e0 55 4a
        E 6 e0 55 4a
        E 5 e0 55 4a
        E 5 e0 55 4a
        E 6 e0 55 4a
        E 5 e0 55 4a
        E 5 e0 55 4a
        E 0 90 50 00
        E 0 90 51 4c
        E 5 e0 55 4a
        E 6 e0 55 4a
        E 5 e0 55 4a
        E 5 e0 55 4a
        E 5 e0 55 4a
        E 6 e0 55 4a
        E 5 e0 55 4a
        E 5 e0 55 4a
        E 5 e0 55 4a
        E 5 e0 55 4a
        E 6 e0 55 4a
        E 5 e0 55 4a
        E 5 e0 55 4a
        E 5 e0 55 4a
        E 6 e0 55 4a
        E 5 e0 55 4a
        E 5 e0 55 4a
        E 5 e0 55 4a
        E 5 e0 55 4a
        E 6 e0 55 4a
        E 5 e0 55 4a
        E 5 e0 55 4a
        E 5 e0 55 4a
        E 6 e0 55 4a
        E 5 e0 55 4a
        E 5 e0 55 4a
        E 5 e0 55 4a
        E 5 e0 55 4a
        E 6 e0 55 4a
        E 5 e0 55 4a
        E 5 e0 55 4a
        E 5 e0 55 4a
        E 6 e0 55 4a
        E 5 e0 55 4a
        E 5 e0 55 4a
        E 5 e0 55 4a
        E 5 e0 55 4a
        E 6 e0 55 4a
        E 5 e0 55 4a
        E 5 e0 55 2a
        E 5 e0 55 2a
        E 6 e0 55 2a
        E 5 e0 55 4a
        E 5 e0 55 4a
        E 0 90 51 00
        E 0 90 51 4a
        E 31 90 39 4a
        E 87 90 51 00
        E 347 90 39 00
        E 6 90 4e 48
        E 61 90 4a 5b
        E 15 90 39 3f
        E 0 90 42 43
        E 36 90 4e 00
        E 199 90 39 00
        E 10 90 4a 00
        E 0 90 4a 4d
        E 6 90 42 00
        E 0 90 42 56
        E 194 90 4e 4a
        E 26 90 4c 43
        E 10 90 42 00
        E 0 90 42 3a
        E 20 90 39 42
        E 72 90 42 00
        E 0 90 43 32
        E 5 90 4e 00
        E 112 90 4a 00
        E 0 90 4a 48
        E 11 90 43 00
        E 41 90 4c 00
        E 0 90 4c 4e
        E 5 90 39 00
        E 0 90 39 46
        E 97 90 4a 00
        E 112 90 4e 50
        E 92 90 39 00
        E 5 90 4c 00
        E 0 90 4c 4c
        E 31 90 3e 37
        E 5 90 4e 00
        E 25 90 39 2c
        E 143 90 39 00
        E 93 90 43 29
        E 128 90 43 00
        E 255 90 4a 3f
        E 0 90 4c 00
        E 26 90 42 4b
        E 204 90 4a 00
        E 97 90 3e 00
        E 10 90 42 00
        E 10 e0 55 4a
        E 0 90 38 63
        E 6 e0 55 4a
        E 5 e0 55 4a
        E 5 e0 55 4a
        E 5 e0 55 4a
        E 5 e0 55 4a
        E 5 e0 55 4a
        E 5 e0 55 4a
        E 5 e0 55 4a
        E 6 e0 55 4a
        E 5 e0 55 4a
        E 5 e0 55 4a
        E 5 e0 55 4a
        E 5 e0 55 4a
        E 5 e0 55 4a
        E 5 e0 55 4a
        E 5 e0 55 4a
        E 6 e0 55 4a
        E 5 e0 55 4a
        E 5 e0 55 4a
        E 5 e0 55 4a
        E 5 e0 55 4a
        E 5 e0 55 4a
        E 5 e0 55 4a
        E 5 e0 55 4a
        E 6 e0 55 4a
        E 5 e0 55 4a
        E 5 e0 55 4a
        E 5 e0 55 4a
        E 5 e0 55 4a
        E 5 e0 55 4a
        E 5 e0 55 4a
        E 5 e0 55 4a
        E 6 e0 55 4a
        E 0 90 38 00
        E 0 90 38 43
        E 5 e0 55 4a
        E 5 e0 55 4a
        E 6 e0 55 4a
        E 5 e0 55 4a
        E 5 e0 55 4a
        E 6 e0 55 4a
        E 5 e0 55 4a
        E 6 e0 55 4a
        E 5 e0 55 4a
        E 5 e0 55 4a
        E 6 e0 55 4a
        E 5 e0 55 4a
        E 6 e0 55 4a
        E 5 e0 55 4a
        E 5 e0 55 4a
        E 6 e0 55 4a
        E 5 e0 55 4a
        E 5 e0 55 6a
        E 6 e0 55 6a
        E 0 90 38 00
        E 10 90 35 5d
        E 72 90 41 29
        E 45 90 35 00
        E 0 90 36 53
        E 41 90 41 00
        E 41 90 36 00
        E 0 90 36 46
        E 67 90 31 47
        E 5 90 3d 2d
        E 127 90 3d 00
        E 21 90 31 00
        E 0 90 32 59
        E 61 90 36 00
        E 199 90 4c 44
        E 37 90 2d 4c
        E 0 90 39 3f
        E 20 90 58 2d
        E 46 90 32 00
        E 15 90 58 00
        E 378 90 40 2f
        E 21 90 39 00
        E 5 90 3d 52
        E 72 90 39 2e
        E 189 90 40 00
        E 10 90 4c 00
        E 25 90 39 00
        E 0 90 3d 00
        E 0 90 3d 47
        E 5 90 39 3d
        E 52 90 4e 41
        E 36 90 2d 00
        E 5 90 4c 3e
        E 31 90 3d 00
        E 5 90 39 00
        E 10 90 4e 00
        E 41 e0 55 2a
        E 0 90 4c 00
        E 0 90 4c 52
        E 5 e0 55 2a
        E 6 e0 55 2a
        E 5 e0 55 2a
        E 6 e0 55 2a
        E 5 e0 55 2a
        E 6 e0 55 2a
        E 5 e0 55 4a
        E 6 e0 55 2a
        E 5 e0 55 2a
        E 6 e0 55 2a
        E 5 e0 55 2a
        E 6 e0 55 2a
        E 5 e0 55 4a
        E 0 90 4c 00
        E 0 90 4c 50
        E 5 90 4f 53
        E 16 90 39 3a
        E 41 90 3d 34
        E 20 90 4c 00
        E 0 90 4c 3e
        E 77 90 4c 00
        E 20 90 39 00
        E 15 90 3d 00
        E 11 e0 55 4a
        E 0 90 4e 68
        E 0 90 4f 00
        E 5 e0 55 4a
        E 5 e0 55 4a
        E 6 e0 55 4a
        E 5 e0 55 4a
        E 5 e0 55 4a
        E 6 e0 55 4a
        E 5 e0 55 4a
        E 5 e0 55 4a
        E 6 e0 55 4a
        E 5 e0 2b 55
        E 5 e0 2b 55
        E 5 e0 55 4a
        E 6 e0 55 4a
        E 5 e0 55 4a
        E 5 e0 55 4a
        E 6 e0 55 4a
        E 5 e0 55 4a
        E 5 e0 55 4a
        E 6 e0 55 4a
        E 5 e0 55 4a
        E 5 e0 55 4a
        E 6 e0 55 4a
        E 5 e0 55 4a
        E 5 e0 55 4a
        E 0 90 3e 37
        E 0 90 4e 00
        E 0 90 4e 60
        E 16 90 39 32
        E 178 90 39 00
        E 0 90 3e 00
        E 57 90 4e 00
        E 0 90 4e 54
        E 41 90 4c 4a
        E 92 90 4e 00
        E 0 90 4e 4e
        E 15 90 51 3d
        E 5 90 3f 35
        E 6 90 4c 00
        E 10 90 39 47
        E 51 90 51 00
        E 168 90 4e 00
        E 31 90 3f 00
        E 31 90 4f 53
        E 143 90 4f 00
        E 0 90 4f 3f
        E 36 90 40 3e
        E 5 90 39 00
        E 0 90 39 3c
        E 117 90 4f 00
        E 87 90 4f 2e
        E 128 90 4f 00
        E 261 90 40 00
        E 20 90 39 00
        E 0 90 39 50
        E 128 90 3b 4a
        E 56 90 39 00
        E 5 90 3d 53
        E 62 90 3d 00
        E 5 90 3e 48
        E 10 90 3b 00
        E 36 90 40 3e
        E 35 90 42 45
        E 21 90 3e 00
        E 56 90 45 4a
        E 26 90 40 00
        E 66 90 42 00
        E 10 90 4a 3c
        E 10 90 45 00
        E 21 90 4c 34
        E 15 90 4e 52
        E 51 90 4c 00
        E 11 90 4e 00
        E 0 90 4e 3d
        E 0 90 51 42
        E 31 90 4a 00
        E 35 90 4e 00
        E 21 90 56 3b
        E 41 90 58 38
        E 30 90 51 00
        E 72 90 58 00
        E 36 90 56 00
        E 107 90 53 30
        E 77 90 51 3a
        E 30 90 53 00
        E 56 e0 55 4a
        E 0 90 4f 40
        E 0 90 51 00
        E 6 e0 55 4a
        E 6 e0 55 4a
        E 5 e0 55 4a
        E 6 e0 55 4a
        E 5 e0 55 4a
        E 6 e0 55 4a
        E 5 e0 55 4a
        E 6 e0 55 4a
        E 6 e0 55 4a
        E 5 e0 55 4a
        E 6 e0 55 4a
        E 0 90 4f 00
        E 41 e0 55 4a
        E 0 90 4f 35
        E 5 e0 55 4a
        E 5 e0 55 4a
        E 6 e0 55 4a
        E 5 e0 55 4a
        E 6 e0 55 4a
        E 5 e0 55 4a
        E 6 e0 55 4a
        E 5 e0 55 4a
        E 5 e0 55 4a
        E 6 e0 55 4a
        E 5 e0 55 4a
        E 6 e0 55 4a
        E 5 e0 55 4a
        E 6 e0 55 4a
        E 5 e0 55 4a
        E 5 e0 55 4a
        E 0 90 4f 00
        E 26 90 4e 51
        E 41 90 32 4a
        E 307 90 4e 00
        E 5 90 3e 62
        E 255 90 3e 00
        E 0 90 3e 56
        E 0 90 42 50
        E 36 90 32 00
        E 51 90 4a 59
        E 5 90 3e 00
        E 0 90 3e 3a
        E 67 90 42 00
        E 20 90 4c 67
        E 26 90 4a 00
        E 30 90 42 3c
        E 6 90 3e 00
        E 0 90 3e 3b
        E 0 90 4c 00
        E 0 90 4c 3f
        E 0 90 4e 5d
        E 66 90 4e 00
        E 0 90 4f 4e
        E 36 90 4c 00
        E 25 90 3e 00
        E 0 90 3e 3f
        E 0 90 51 3e
        E 67 90 42 00
        E 26 90 40 3c
        E 0 90 43 37
        E 0 90 4f 00
        E 0 90 4f 37
        E 5 90 3e 00
        E 0 90 3e 3d
        E 71 90 40 00
        E 0 90 40 3a
        E 0 90 4c 66
        E 5 90 3e 00
        E 0 90 3e 33
        E 31 90 51 00
        E 15 90 43 00
        E 16 90 4e 5d
        E 0 90 4f 00
        E 5 90 4c 00
        E 0 90 4c 37
        E 36 90 3e 00
        E 35 90 4e 00
        E 0 90 4f 3b
        E 6 90 40 00
        E 0 90 40 43
        E 0 90 43 39
        E 61 90 43 00
        E 5 90 3e 3a
        E 0 90 51 49
        E 25 90 4c 00
        E 36 90 53 44
        E 10 90 3e 00
        E 41 90 4f 00
        E 62 90 3e 41
        E 0 90 51 00
        E 0 90 51 47
        E 10 90 40 00
        E 5 90 45 31
        E 10 90 42 30
        E 61 90 53 00
        E 154 90 51 00
        E 41 90 42 00
        E 15 90 45 00
        E 31 90 3e 00
        E 0 90 3e 5e
        E 0 90 4a 23
        E 97 90 4a 00
        E 194 90 3e 00
        E 0 90 3e 48
        E 21 90 32 4d
        E 378 90 40 46
        E 20 90 3e 00
        E 67 90 3e 45
        E 107 90 3e 00
        E 0 90 3e 46
        E 11 90 32 00
        E 25 90 40 00
        E 0 90 40 3e
        E 82 90 43 40
        E 5 90 3e 00
        E 36 90 45 3a
        E 25 90 40 00
        E 0 90 47 3a
        E 72 90 4a 44
        E 30 90 43 00
        E 6 90 4c 33
        E 5 90 47 00
        E 5 90 45 00
        E 56 90 4f 32
        E 5 90 4c 00
        E 26 90 51 2b
        E 30 90 53 40
        E 5 90 4a 00
        E 26 90 51 00
        E 41 90 4a 2d
        E 5 90 53 00
        E 20 90 4f 00
        E 0 90 56 49
        E 36 90 4a 00
        E 72 90 53 40
        E 51 90 56 00
        E 87 90 53 00
        E 107 e0 55 4a
        E 0 90 53 42
        E 6 e0 55 4a
        E 5 e0 55 4a
        E 5 e0 55 4a
        E 6 e0 55 4a
        E 5 e0 55 4a
        E 5 e0 55 4a
        E 5 e0 55 4a
        E 6 e0 55 4a
        E 5 e0 55 4a
        E 5 e0 55 4a
        E 6 e0 55 4a
        E 5 e0 55 4a
        E 5 e0 55 4a
        E 5 e0 55 4a
        E 6 e0 55 4a
        E 5 e0 55 4a
        E 5 e0 55 4a
        E 6 e0 55 4a
        E 5 e0 55 4a
        E 5 e0 55 4a
        E 6 e0 55 4a
        E 5 e0 55 4a
        E 5 e0 55 4a
        E 5 e0 55 4a
        E 6 e0 55 4a
        E 5 e0 55 4a
        E 5 e0 55 4a
        E 6 e0 55 4a
        E 0 90 53 00
        E 20 90 51 41
        E 26 90 3e 3f
        E 347 90 51 00
        E 15 90 45 55
        E 5 90 42 45
        E 292 90 45 00
        E 0 90 45 4e
        E 5 90 42 00
        E 0 90 42 47
        E 26 90 3e 00
        E 81 90 3e 2f
        E 0 90 4a 4b
        E 92 90 45 00
        E 21 90 4e 53
        E 5 90 42 00
        E 0 90 42 44
        E 0 90 45 26
        E 41 90 3e 00
        E 36 90 4a 00
        E 20 90 3e 2a
        E 0 90 45 00
        E 0 90 45 38
        E 0 90 51 57
        E 31 90 4e 00
        E 56 90 3e 00
        E 20 90 42 00
        E 5 90 45 00
        E 6 90 51 00
        E 0 90 51 3d
        E 0 90 53 54
        E 15 90 47 29
        E 76 90 51 00
        E 6 90 4f 3e
        E 30 90 43 30
        E 10 90 47 00
        E 92 90 43 00
        E 5 90 43 3c
        E 0 90 56 3a
        E 6 90 53 00
        E 71 90 4f 00
        E 31 90 53 4d
        E 143 90 50 3c
        E 5 90 3e 4b
        E 0 90 56 00
        E 46 90 43 00
        E 52 90 53 00
        E 117 90 50 00
        E 82 90 3e 00
        E 0 90 3e 45
        E 0 90 51 3b
        E 5 90 45 39
        E 15 90 42 42
        E 51 90 51 00
        E 97 90 45 00
        E 123 90 45 4b
        E 5 90 3e 00
        E 0 90 3e 38
        E 0 90 42 00
        E 0 90 42 45
        E 61 90 4a 6b
        E 51 90 3e 00
        E 11 90 42 00
        E 0 90 45 00
        E 5 e0 55 2a
        E 0 90 4a 00
        E 0 90 4b 3d
        E 5 e0 55 2a
        E 6 e0 55 2a
        E 5 e0 55 2a
        E 6 e0 55 2a
        E 5 e0 55 2a
        E 6 e0 55 2a
        E 5 e0 55 2a
        E 6 e0 55 2a
        E 5 e0 55 4a
        E 6 e0 55 4a
        E 5 e0 55 6a
        E 6 e0 55 6a
        E 5 e0 55 6a
        E 0 90 4b 00
        E 16 e0 55 2a
        E 0 90 4d 3e
        E 5 e0 55 4a
        E 5 e0 55 4a
        E 5 e0 55 4a
        E 5 e0 55 4a
        E 5 e0 55 4a
        E 5 e0 55 4a
        E 6 e0 55 4a
        E 5 e0 55 4a
        E 5 e0 55 6a
        E 5 e0 55 6a
        E 5 e0 55 6a
        E 5 e0 55 6a
        E 5 e0 55 6a
        E 6 e0 55 6a
        E 5 e0 55 6a
        E 5 e0 55 6a
        E 5 e0 55 6a
        E 0 90 4d 00
        E 0 90 4f 34
        E 82 90 51 3c
        E 71 90 4f 00
        E 102 90 51 00
        E 16 90 55 37
        E 41 90 43 30
        E 46 90 55 00
        E 0 90 55 42
        E 71 90 58 43
        E 31 90 43 00
        E 20 90 55 00
        E 21 90 56 61
        E 25 90 58 00
        E 36 90 55 43
        E 0 90 56 00
        E 46 90 53 57
        E 15 90 55 00
        E 0 90 56 2f
        E 62 90 56 00
        E 5 90 42 37
        E 0 90 45 31
        E 0 90 53 00
        E 0 90 53 4b
        E 61 90 3e 3e
        E 0 90 51 30
        E 46 90 53 00
        E 5 90 45 00
        E 10 90 56 3f
        E 37 90 51 00
        E 30 90 3e 00
        E 5 90 42 00
        E 41 e0 55 4a
        E 0 90 56 00
        E 0 90 56 51
        E 6 e0 55 4a
        E 5 e0 55 4a
        E 6 e0 55 4a
        E 5 e0 55 4a
        E 6 e0 55 4a
        E 5 e0 55 4a
        E 6 e0 55 4a
        E 5 e0 55 4a
        E 6 e0 2b 55
        E 5 e0 2b 55
        E 6 e0 55 2a
        E 5 e0 55 2a
        E 6 e0 55 2a
        E 0 90 56 00
        E 97 90 51 3c
        E 92 90 45 37
        E 5 90 3d 4c
        E 71 90 3d 00
        E 0 90 3d 51
        E 51 90 51 00
        E 16 90 58 39
        E 5 90 3d 00
        E 0 90 3d 41
        E 66 90 45 00
        E 21 90 58 00
        E 15 90 3d 00
        E 66 90 53 3e
        E 57 90 51 40
        E 51 90 4f 54
        E 10 90 53 00
        E 56 90 4f 00
        E 0 90 4f 49
        E 10 90 51 00
        E 6 90 45 2d
        E 5 90 3e 33
        E 0 90 42 3c
        E 102 90 45 00
        E 21 90 56 37
        E 15 90 4f 00
        E 5 90 3e 00
        E 31 90 42 00
        E 56 90 56 00
        E 82 e0 55 4a
        E 0 90 51 4e
        E 5 e0 55 4a
        E 6 e0 55 4a
        E 5 e0 55 4a
        E 6 e0 55 4a
        E 5 e0 55 4a
        E 6 e0 55 4a
        E 5 e0 55 4a
        E 6 e0 55 4a
        E 5 e0 55 4a
        E 5 e0 55 4a
        E 6 e0 55 4a
        E 5 e0 55 4a
        E 6 e0 55 4a
        E 5 e0 55 4a
        E 0 90 51 00
        E 0 90 51 3b
        E 6 e0 55 4a
        E 5 e0 55 4a
        E 6 e0 55 4a
        E 6 e0 55 4a
        E 5 e0 55 4a
        E 6 e0 55 4a
        E 5 e0 55 4a
        E 6 e0 55 4a
        E 5 e0 55 4a
        E 6 e0 55 4a
        E 5 e0 55 4a
        E 6 e0 55 4a
        E 0 90 51 00
        E 5 e0 55 4a
        E 0 90 4e 4f
        E 5 e0 55 4a
        E 5 e0 55 4a
        E 6 e0 55 4a
        E 5 e0 55 4a
        E 5 e0 55 4a
        E 5 e0 55 4a
        E 6 e0 55 4a
        E 5 e0 55 4a
        E 5 e0 55 4a
        E 6 e0 55 4a
        E 5 e0 55 4a
        E 5 e0 55 4a
        E 5 e0 55 4a
        E 6 e0 55 4a
        E 5 e0 55 4a
        E 5 e0 55 4a
        E 5 e0 55 4a
        E 6 e0 55 4a
        E 5 e0 55 4a
        E 5 e0 55 4a
        E 6 e0 55 4a
        E 5 e0 55 4a
        E 5 e0 55 4a
        E 5 e0 55 4a
        E 6 e0 55 4a
        E 5 e0 55 4a
        E 5 e0 55 4a
        E 5 e0 55 4a
        E 6 e0 55 4a
        E 5 e0 55 4a
        E 5 e0 55 4a
        E 5 e0 55 4a
        E 0 90 4e 00
        E 16 90 51 52
        E 117 90 39 30
        E 103 90 51 00
        E 434 90 39 00
        E 133 90 42 53
        E 225 90 50 49
        E 46 90 42 00
        E 36 90 50 00
        E 0 90 51 43
        E 61 90 53 51
        E 97 90 51 00
        E 52 90 4e 50
        E 5 90 3e 56
        E 10 90 53 00
        E 66 90 4c 42
        E 11 90 3d 51
        E 0 90 3e 00
        E 143 90 4c 00
        E 15 90 4e 00
        E 0 90 4e 60
        E 5 90 3d 00
        E 0 90 3d 3a
        E 128 90 3d 00
        E 20 e0 55 4a
        E 0 90 4e 00
        E 0 90 4f 4a
        E 5 e0 55 4a
        E 6 e0 55 4a
        E 5 e0 55 4a
        E 5 e0 55 4a
        E 5 e0 55 4a
        E 6 e0 55 4a
        E 5 e0 55 4a
        E 5 e0 55 4a
        E 5 e0 55 4a
        E 6 e0 55 4a
        E 5 e0 55 4a
        E 5 e0 55 4a
        E 5 e0 55 2a
        E 6 e0 55 2a
        E 5 e0 55 2a
        E 5 e0 55 2a
        E 5 e0 55 4a
        E 5 e0 55 4a
        E 6 e0 55 4a
        E 5 e0 55 4a
        E 5 e0 55 4a
        E 5 e0 55 4a
        E 6 e0 55 4a
        E 5 e0 55 4a
        E 5 e0 55 4a
        E 5 e0 55 4a
        E 6 e0 55 4a
        E 5 e0 55 4a
        E 5 e0 55 4a
        E 5 e0 55 4a
        E 6 e0 55 4a
        E 5 e0 55 4a
        E 5 e0 55 4a
        E 5 e0 55 4a
        E 6 e0 55 4a
        E 5 e0 55 4a
        E 5 e0 55 4a
        E 5 e0 55 4a
        E 0 90 4f 00
        E 0 90 50 4e
        E 5 e0 55 4a
        E 6 e0 55 4a
        E 5 e0 55 4a
        E 5 e0 55 4a
        E 5 e0 55 4a
        E 5 e0 55 4a
        E 5 e0 55 4a
        E 5 e0 55 4a
        E 5 e0 55 4a
        E 6 e0 55 4a
        E 5 e0 55 4a
        E 5 e0 55 4a
        E 5 e0 55 4a
        E 5 e0 55 4a
        E 5 e0 55 4a
        E 5 e0 55 4a
        E 5 e0 55 4a
        E 6 e0 55 4a
        E 5 e0 55 4a
        E 5 e0 55 4a
        E 5 e0 55 4a
        E 5 e0 55 4a
        E 5 e0 55 4a
        E 5 e0 55 4a
        E 5 e0 55 4a
        E 6 e0 55 4a
        E 5 e0 55 4a
        E 5 e0 55 4a
        E 5 e0 55 4a
        E 5 e0 55 4a
        E 5 e0 55 4a
        E 5 e0 55 4a
        E 5 e0 55 4a
        E 5 e0 55 4a
        E 6 e0 55 4a
        E 5 e0 55 4a
        E 5 e0 55 4a
        E 5 e0 55 4a
        E 5 e0 55 4a
        E 5 e0 55 4a
        E 5 e0 55 4a
        E 5 e0 55 4a
        E 0 90 50 00
        E 230 e0 55 4a
        E 0 90 51 56
        E 6 e0 55 4a
        E 5 e0 55 4a
        E 5 e0 55 4a
        E 5 e0 55 4a
        E 6 e0 55 4a
        E 5 e0 55 4a
        E 5 e0 55 4a
        E 5 e0 55 4a
        E 6 e0 55 4a
        E 5 e0 55 4a
        E 5 e0 55 4a
        E 5 e0 55 4a
        E 6 e0 55 4a
        E 5 e0 55 4a
        E 5 e0 55 4a
        E 5 e0 55 4a
        E 6 e0 55 4a
        E 5 e0 55 4a
        E 5 e0 55 4a
        E 5 e0 55 4a
        E 6 e0 55 4a
        E 5 e0 55 4a
        E 5 e0 55 4a
        E 5 e0 55 4a
        E 6 e0 55 4a
        E 5 e0 55 4a
        E 5 e0 55 4a
        E 5 e0 55 4a
        E 6 e0 55 4a
        E 5 e0 55 4a
        E 5 e0 55 4a
        E 5 e0 55 4a
        E 6 e0 55 4a
        E 5 e0 55 4a
        E 5 e0 55 4a
        E 0 90 51 00
        E 174 90 3e 51
        E 0 90 42 57
        E 322 90 3e 00
        E 0 90 3e 49
        E 11 90 42 00
        E 0 90 42 4a
        E 71 90 52 49
        E 82 90 52 00
        E 5 90 53 69
        E 20 90 3e 00
        E 11 90 42 00
        E 40 e0 55 2a
        E 0 90 53 00
        E 0 90 54 3a
        E 6 e0 55 2a
        E 5 e0 55 4a
        E 5 e0 55 4a
        E 6 e0 55 4a
        E 5 e0 55 4a
        E 6 e0 2b 35
        E 5 e0 2b 35
        E 5 e0 2b 35
        E 6 e0 2b 35
        E 5 e0 2b 35
        E 5 e0 2b 35
        E 6 e0 55 4a
        E 5 e0 55 6a
        E 5 e0 55 6a
        E 6 e0 55 6a
        E 5 e0 55 2a
        E 5 e0 55 4a
        E 6 e0 55 6a
        E 5 e0 55 6a
        E 5 e0 55 6a
        E 6 e0 2b 35
        E 0 90 54 00
        E 15 90 56 43
        E 87 90 58 48
        E 117 e0 55 4a
        E 0 90 56 00
        E 0 90 56 5f
        E 0 90 58 00
        E 6 e0 55 4a
        E 5 e0 55 4a
        E 6 e0 55 4a
        E 5 e0 55 4a
        E 5 e0 55 4a
        E 6 e0 55 4a
        E 5 e0 55 4a
        E 5 e0 55 4a
        E 6 e0 55 4a
        E 5 e0 55 4a
        E 5 e0 55 4a
        E 6 e0 55 4a
        E 5 e0 55 4a
        E 6 e0 55 4a
        E 5 e0 55 4a
        E 5 e0 55 4a
        E 6 e0 55 4a
        E 5 e0 55 4a
        E 5 e0 55 4a
        E 6 e0 55 4a
        E 0 90 55 48
        E 0 90 56 00
        E 5 e0 55 4a
        E 5 e0 55 4a
        E 5 e0 55 4a
        E 5 e0 55 4a
        E 5 e0 55 4a
        E 6 e0 55 4a
        E 5 e0 55 4a
        E 5 e0 55 4a
        E 5 e0 55 4a
        E 5 e0 55 4a
        E 5 e0 55 4a
        E 5 e0 55 4a
        E 5 e0 55 4a
        E 6 e0 55 4a
        E 5 e0 55 4a
        E 5 e0 55 4a
        E 5 e0 55 4a
        E 5 e0 55 4a
        E 5 e0 55 4a
        E 5 e0 55 4a
        E 6 e0 55 4a
        E 5 e0 55 4a
        E 0 90 55 00
        E 0 90 56 59
        E 5 e0 55 4a
        E 5 e0 55 4a
        E 5 e0 55 4a
        E 6 e0 55 4a
        E 5 e0 55 4a
        E 5 e0 55 4a
        E 6 e0 55 4a
        E 5 e0 55 4a
        E 5 e0 55 4a
        E 5 e0 55 4a
        E 6 e0 55 4a
        E 5 e0 55 4a
        E 5 e0 55 4a
        E 5 e0 55 4a
        E 6 e0 55 4a
        E 5 e0 55 4a
        E 5 e0 2b 55
        E 5 e0 2b 55
        E 6 e0 2b 55
        E 5 e0 2b 55
        E 5 e0 2b 55
        E 5 e0 2b 55
        E 6 e0 2b 55
        E 5 e0 2b 55
        E 5 e0 2b 55
        E 6 e0 2b 55
        E 5 e0 55 4a
        E 5 e0 55 4a
        E 5 e0 55 4a
        E 6 e0 55 4a
        E 5 e0 55 4a
        E 5 e0 55 4a
        E 5 e0 55 4a
        E 0 90 56 00
        E 0 90 56 50
        E 118 90 4e 69
        E 66 90 4e 00
        E 0 90 4e 44
        E 108 90 56 00
        E 25 90 3e 5d
        E 0 90 45 3b
        E 118 90 45 00
        E 15 90 32 2e
        E 164 90 3e 00
        E 0 90 3e 54
        E 5 90 45 44
        E 82 90 45 00
        E 0 90 4e 00
        E 0 90 4e 59
        E 36 90 32 00
        E 30 90 3e 00
        E 5 e0 55 2a
        E 0 90 4e 00
        E 0 90 4f 59
        E 6 e0 2b 55
        E 5 e0 2b 55
        E 6 e0 55 4a
        E 5 e0 55 4a
        E 6 e0 55 4a
        E 5 e0 55 4a
        E 6 e0 55 4a
        E 5 e0 55 4a
        E 6 e0 55 4a
        E 5 e0 55 4a
        E 6 e0 55 4a
        E 5 e0 2b 55
        E 6 e0 2b 55
        E 0 90 4f 00
        E 0 90 50 4f
        E 5 e0 55 4a
        E 6 e0 55 4a
        E 5 e0 55 4a
        E 6 e0 55 4a
        E 5 e0 55 4a
        E 6 e0 55 4a
        E 6 e0 55 4a
        E 5 e0 55 4a
        E 6 e0 55 4a
        E 5 e0 55 4a
        E 6 e0 55 4a
        E 5 e0 55 4a
        E 0 90 50 00
        E 0 90 51 5e
        E 6 e0 55 4a
        E 5 e0 55 4a
        E 6 e0 55 4a
        E 5 e0 55 4a
        E 6 e0 55 4a
        E 5 e0 55 4a
        E 6 e0 55 4a
        E 5 e0 55 4a
        E 6 e0 55 4a
        E 5 e0 55 4a
        E 6 e0 55 4a
        E 5 e0 55 4a
        E 6 e0 55 4a
        E 0 90 51 00
        E 0 90 52 51
        E 5 e0 55 4a
        E 6 e0 55 4a
        E 5 e0 55 4a
        E 6 e0 55 4a
        E 5 e0 55 4a
        E 5 e0 55 4a
        E 6 e0 55 4a
        E 5 e0 55 4a
        E 6 e0 55 4a
        E 5 e0 55 4a
        E 6 e0 55 4a
        E 5 e0 55 2a
        E 6 e0 55 2a
        E 5 e0 55 2a
        E 5 e0 55 2a
        E 0 90 52 00
        E 0 90 53 52
        E 92 90 51 50
        E 41 90 53 00
        E 56 e0 55 4a
        E 0 90 50 5a
        E 0 90 51 00
        E 6 e0 55 4a
        E 5 e0 55 4a
        E 6 e0 55 4a
        E 5 e0 55 4a
        E 5 e0 55 4a
        E 6 e0 55 4a
        E 5 e0 55 4a
        E 6 e0 55 4a
        E 5 e0 55 4a
        E 5 e0 55 4a
        E 6 e0 55 4a
        E 5 e0 55 4a
        E 6 e0 55 4a
        E 5 e0 55 4a
        E 5 e0 55 4a
        E 6 e0 55 4a
        E 5 e0 55 4a
        E 6 e0 55 4a
        E 0 90 50 00
        E 0 90 51 58
        E 5 e0 55 4a
        E 5 e0 55 4a
        E 5 e0 55 4a
        E 5 e0 55 4a
        E 5 e0 55 4a
        E 5 e0 55 4a
        E 5 e0 55 4a
        E 6 e0 55 4a
        E 5 e0 55 4a
        E 5 e0 55 4a
        E 5 e0 55 4a
        E 5 e0 55 4a
        E 5 e0 55 4a
        E 5 e0 55 4a
        E 5 e0 55 4a
        E 6 e0 55 4a
        E 5 e0 55 4a
        E 5 e0 55 4a
        E 5 e0 55 4a
        E 5 e0 55 4a
        E 5 e0 55 4a
        E 5 e0 55 4a
        E 5 e0 55 4a
        E 6 e0 55 4a
        E 5 e0 55 4a
        E 5 e0 55 4a
        E 5 e0 55 4a
        E 5 e0 55 4a
        E 5 e0 55 4a
        E 5 e0 55 4a
        E 5 e0 55 4a
        E 6 e0 55 4a
        E 5 e0 55 4a
        E 5 e0 55 4a
        E 5 e0 55 4a
        E 0 90 51 00
        E 0 90 51 3c
        E 36 90 39 3a
        E 0 90 42 2d
        E 199 90 42 00
        E 158 90 51 00
        E 123 90 39 00
        E 25 90 4e 5a
        E 46 90 51 46
        E 46 90 4e 00
        E 0 90 4e 49
        E 62 90 4a 67
        E 5 90 51 00
        E 0 90 51 31
        E 5 90 42 4f
        E 71 90 4e 00
        E 11 90 51 00
        E 169 90 4a 00
        E 0 90 4a 64
        E 10 90 42 00
        E 0 90 42 4a
        E 199 90 4e 44
        E 21 90 42 00
        E 15 90 4c 4a
        E 5 90 4a 00
        E 5 90 39 3e
        E 87 90 4e 00
        E 123 90 39 00
        E 51 90 4c 00
        E 0 90 4c 63
        E 35 90 43 33
        E 6 90 39 34
        E 20 90 4c 00
        E 0 90 4c 4b
        E 205 90 43 00
        E 15 90 39 00
        E 36 90 4e 4e
        E 107 90 4c 00
        E 41 90 4a 50
        E 87 90 32 2d
        E 20 90 4e 00
        E 6 90 26 49
        E 51 90 32 00
        E 20 90 4a 00
        E 20 90 28 3f
        E 72 90 26 00
        E 15 90 2a 44
        E 72 90 2a 00
        E 0 90 2b 3b
        E 56 90 2d 40
        E 41 90 28 00
        E 31 90 2f 4a
        E 10 90 2d 00
        E 30 90 2b 00
        E 82 90 32 4e
        E 31 90 2f 00
        E 36 90 34 42
        E 92 90 32 00
        E 20 90 37 4b
        E 72 90 34 00
        E 0 90 39 41
        E 10 90 37 00
        E 0 90 37 3c
        E 46 90 3b 3c
        E 31 90 37 00
        E 10 90 3d 4d
        E 5 90 39 00
        E 61 90 3d 00
        E 6 90 3e 4c
        E 66 90 40 34
        E 26 90 3b 00
        E 10 90 42 58
        E 66 90 42 00
        E 5 90 43 4b
        E 21 90 40 00
        E 25 90 45 3d
        E 41 90 47 38
        E 10 90 3e 00
        E 16 90 43 00
        E 61 90 4a 4a
        E 20 90 47 00
        E 16 90 4c 3c
        E 41 90 45 00
        E 40 90 4f 54
        E 6 90 4a 00
        E 0 90 4a 31
        E 21 90 4c 00
        E 71 90 4e 4b
        E 0 90 4f 00
        E 0 90 51 40
        E 15 90 4a 00
        E 87 90 32 4f
        E 41 90 51 00
        E 36 90 34 3c
        E 61 90 36 43
        E 41 90 32 00
        E 20 90 4e 00
        E 11 90 36 00
        E 0 90 36 3f
        E 30 90 34 00
        E 21 90 39 41
        E 51 90 36 00
        E 10 90 3b 3d
        E 41 90 39 00
        E 15 90 3d 51
        E 62 90 3d 00
        E 0 90 3e 38
        E 56 90 40 4f
        E 51 90 3b 00
        E 10 90 42 5b
        E 61 90 42 00
        E 0 90 43 4a
        E 5 90 3e 00
        E 52 90 45 44
        E 5 90 40 00
        E 41 90 47 3d
        E 10 90 42 36
        E 0 90 43 00
        E 51 90 45 00
        E 26 90 42 00
        E 36 90 4a 57
        E 117 90 3e 53
        E 16 90 4a 00
        E 40 90 47 00
        E 77 90 4f 42
        E 56 90 53 4e
        E 51 90 3e 00
        E 10 90 4c 46
        E 31 90 4f 00
        E 15 90 53 00
        E 6 90 55 4c
        E 56 90 4c 00
        E 0 90 4e 67
        E 0 90 5a 20
        E 36 90 55 00
        E 25 90 4e 00
        E 0 90 4e 58
        E 0 90 56 48
        E 5 90 5a 00
        E 87 90 4e 00
        E 0 90 4e 4e
        E 5 90 4a 3e
        E 67 90 32 41
        E 0 90 42 33
        E 0 90 56 00
        E 5 90 26 48
        E 56 90 3b 33
        E 0 90 4a 00
        E 6 90 28 42
        E 25 90 26 00
        E 0 90 42 00
        E 72 90 32 00
        E 10 90 2b 42
        E 10 90 28 00
        E 31 90 3b 00
        E 66 90 4e 00
        E 10 90 2f 4d
        E 51 90 2b 00
        E 57 90 32 4a
        E 40 90 2f 00
        E 26 90 34 3c
        E 51 90 32 00
        E 61 90 37 40
        E 36 90 34 00
        E 72 90 3b 3d
        E 20 90 37 00
        E 31 90 3d 57
        E 61 90 3d 00
        E 0 90 3e 4c
        E 82 90 3b 00
        E 21 90 32 53
        E 61 90 3e 00
        E 77 90 4c 5a
        E 71 90 4f 4e
        E 56 90 4c 00
        E 5 90 4d 55
        E 31 90 4f 00
        E 5 90 32 00
        E 26 90 50 4e
        E 51 90 4d 00
        E 0 90 4e 4b
        E 31 90 50 00
        E 20 90 51 41
        E 102 90 45 4b
        E 5 90 4e 00
        E 5 90 39 43
        E 133 90 51 00
        E 5 90 56 63
        E 16 90 45 00
        E 86 90 39 00
        E 0 90 39 39
        E 0 90 56 00
        E 0 90 56 36
        E 73 90 54 52
        E 0 90 56 00
        E 71 e0 55 4a
        E 0 90 39 00
        E 0 90 53 50
        E 0 90 54 00
        E 6 e0 55 4a
        E 5 e0 55 4a
        E 6 e0 55 4a
        E 5 e0 55 4a
        E 6 e0 55 4a
        E 5 e0 55 4a
        E 6 e0 2b 55
        E 6 e0 2b 55
        E 5 e0 2b 55
        E 6 e0 2b 55
        E 5 e0 2b 55
        E 0 90 53 00
        E 0 90 53 33
        E 6 e0 55 2a
        E 5 e0 55 2a
        E 6 e0 55 2a
        E 5 e0 55 2a
        E 6 e0 2b 35
        E 5 e0 2b 35
        E 5 e0 55 2a
        E 6 e0 55 2a
        E 5 e0 55 2a
        E 6 e0 55 2a
        E 5 e0 55 2a
        E 6 e0 55 4a
        E 5 e0 55 4a
        E 6 e0 55 4a
        E 5 e0 55 4a
        E 0 90 53 00
        E 10 90 51 3a
        E 5 90 3e 4d
        E 5 90 42 40
        E 67 90 50 44
        E 0 90 51 00
        E 71 90 50 00
        E 41 90 3e 00
        E 0 90 3e 39
        E 0 90 4e 5a
        E 51 90 42 00
        E 21 90 4d 4b
        E 0 90 4e 00
        E 76 90 3e 00
        E 11 90 4d 00
        E 0 90 4d 37
        E 76 90 4b 56
        E 5 90 4d 00
        E 149 90 4a 55
        E 0 90 4b 00
        E 15 90 40 35
        E 15 90 43 25
        E 103 90 43 00
        E 31 90 4a 00
        E 10 90 40 00
        E 0 90 40 35
        E 0 90 49 56
        E 92 90 43 2b
        E 138 90 43 00
        E 15 90 40 00
        E 31 90 4f 4b
        E 86 90 49 00
        E 307 90 43 2c
        E 15 90 4f 00
        E 62 90 43 00
        E 271 90 49 5d
        E 143 90 4c 57
        E 10 90 43 3b
        E 15 90 26 4b
        E 0 90 32 30
        E 57 90 49 00
        E 66 90 39 33
        E 15 90 49 2c
        E 77 90 49 00
        E 51 90 32 00
        E 107 90 43 00
        E 159 90 39 00
        E 36 90 42 2e
        E 5 90 4e 38
        E 51 90 4c 00
        E 0 90 4c 5d
        E 21 90 42 00
        E 30 90 4e 00
        E 5 90 4a 4d
        E 67 90 4c 00
        E 0 90 4c 49
        E 61 90 39 30
        E 67 90 39 00
        E 25 90 4a 00
        E 0 90 4a 3d
        E 5 90 3e 2b
        E 5 90 42 4a
        E 46 90 4c 00
        E 235 90 3e 00
        E 57 90 4a 00
        E 5 90 42 00
        E 46 90 3e 2f
        E 56 90 3e 00
        E 41 90 26 00
        E 414 90 2a 2d
        E 0 90 2e 2d
        E 66 90 2a 00
        E 6 90 2e 00
        E 5 e0 2b 55
        E 0 90 2e 2f
        E 5 e0 2b 55
        E 6 e0 2b 55
        E 5 e0 2b 55
        E 6 e0 2b 55
        E 5 e0 2b 55
        E 6 e0 2b 55
        E 6 e0 2b 55
        E 5 e0 2b 55
        E 6 e0 2b 55
        E 5 e0 2b 55
        E 6 e0 2b 55
        E 0 90 2e 00
        E 1058 90 42 50
        E 5 90 3e 48
        E 56 90 42 00
        E 42 90 3e 00
        E 46 90 51 51
        E 5 90 42 45
        E 97 90 42 00
        E 5 90 43 38
        E 0 90 53 46
        E 92 90 51 00
        E 10 90 40 48
        E 0 90 4f 48
        E 5 90 43 00
        E 0 90 43 3d
        E 67 90 53 00
        E 5 90 43 00
        E 5 90 4f 00
        E 10 90 40 00
        E 0 90 4e 5a
        E 5 90 45 2e
        E 113 90 45 00
        E 0 90 45 50
        E 0 90 4e 00
        E 0 90 4e 56
        E 97 90 4e 00
        E 0 90 4f 4e
        E 5 90 47 3f
        E 46 90 45 00
        E 51 90 4c 5a
        E 0 90 4f 00
        E 0 90 4f 3c
        E 10 90 43 3c
        E 36 90 47 00
        E 35 90 43 00
        E 21 90 3e 3a
        E 0 90 4a 3b
        E 0 90 4f 00
        E 5 90 42 33
        E 93 90 3e 00
        E 0 90 3e 4a
        E 0 90 4a 00
        E 0 90 4a 47
        E 0 90 4c 00
        E 35 90 42 00
        E 41 90 3e 00
        E 21 90 4c 5e
        E 5 90 39 36
        E 0 90 3d 38
        E 10 90 4a 00
        E 87 90 39 00
        E 0 90 39 41
        E 0 90 3d 00
        E 0 90 3d 36
        E 0 90 4c 00
        E 0 90 4c 55
        E 61 90 3d 00
        E 26 90 39 00
        E 15 90 3e 4b
        E 0 90 4c 00
        E 0 90 4d 5f
        E 0 90 51 28
        E 5 90 42 54
        E 77 90 51 00
        E 20 90 42 00
        E 0 90 42 39
        E 0 90 4d 00
        E 0 90 4e 37
        E 92 90 4a 3e
        E 5 90 3e 00
        E 0 90 3e 3a
        E 31 90 4e 00
        E 20 90 42 00
        E 10 90 3e 00
        E 31 90 45 4f
        E 36 90 4a 00
        E 66 90 32 3f
        E 0 90 51 44
        E 10 90 45 00
        E 41 90 3e 3a
        E 16 90 32 00
        E 25 90 51 00
        E 5 90 56 47
        E 46 90 3e 00
        E 0 90 3e 42
        E 16 90 36 2e
        E 26 90 39 3f
        E 30 90 36 00
        E 11 90 3e 00
        E 0 90 3e 3c
        E 25 90 39 00
        E 21 90 4e 49
        E 46 90 3e 00
        E 0 90 3e 2d
        E 20 90 56 00
        E 31 90 32 44
        E 0 90 4e 00
        E 0 90 4e 3f
        E 51 90 3e 00
        E 0 90 3e 39
        E 41 90 4e 00
        E 5 90 36 25
        E 0 90 51 44
        E 5 90 32 00
        E 25 90 3e 00
        E 0 90 3e 4f
        E 72 90 36 00
        E 25 90 3e 00
        E 0 90 3e 53
        E 36 90 4a 33
        E 26 90 51 00
        E 20 90 3e 00
        E 0 90 3e 40
        E 46 90 4e 40
        E 5 90 39 3b
        E 51 90 42 4f
        E 16 90 39 00
        E 25 90 4e 00
        E 0 90 4e 4a
        E 5 90 3e 00
        E 0 90 3e 4d
        E 41 90 42 00
        E 0 90 42 3a
        E 21 90 3e 00
        E 15 90 39 40
        E 5 90 4c 36
        E 5 90 4e 00
        E 26 90 4a 00
        E 0 90 4a 37
        E 5 90 42 00
        E 30 90 39 00
        E 0 90 4c 00
        E 0 90 4c 3f
        E 36 90 4e 44
        E 5 90 42 27
        E 52 90 3e 3b
        E 0 90 4a 00
        E 0 90 4a 55
        E 5 90 4c 00
        E 36 90 42 00
        E 46 90 4e 00
        E 25 90 39 3c
        E 36 90 3e 00
        E 0 90 3e 36
        E 41 90 39 00
        E 41 90 32 56
        E 20 90 4a 00
        E 10 90 3e 00
        E 246 90 3e 40
        E 92 90 3e 00
        E 15 90 32 00
        E 20 90 42 49
        E 0 90 51 3f
        E 108 90 53 49
        E 5 90 42 00
        E 0 90 43 46
        E 20 90 51 00
        E 56 90 53 00
        E 16 90 40 46
        E 0 90 43 00
        E 0 90 43 41
        E 0 90 4f 3b
        E 72 90 43 00
        E 10 90 40 00
        E 5 90 4f 00
        E 10 90 3e 4d
        E 0 90 45 52
        E 0 90 4f 2f
        E 77 90 3e 00
        E 10 90 4f 00
        E 16 90 3e 2c
        E 0 90 45 00
        E 0 90 45 4a
        E 0 90 4e 4d
        E 71 90 3e 00
        E 26 90 47 40
        E 5 90 4e 00
        E 0 90 4f 33
        E 97 90 4c 47
        E 5 90 43 3e
        E 36 90 47 00
        E 20 90 45 00
        E 15 90 4f 00
        E 11 90 43 00
        E 10 90 3e 40
        E 0 90 4a 3c
        E 5 90 42 40
        E 82 90 4c 00
        E 15 90 4a 00
        E 0 90 4a 44
        E 5 90 3e 00
        E 0 90 3e 47
        E 0 90 42 00
        E 0 90 42 44
        E 61 90 42 00
        E 5 90 3e 00
        E 16 90 4a 00
        E 10 90 3d 3a
        E 0 90 4c 57
        E 92 90 39 3b
        E 0 90 4c 00
        E 0 90 4c 3c
        E 61 90 3d 00
        E 21 90 39 00
        E 11 90 4c 00
        E 15 90 3e 43
        E 0 90 4d 55
        E 10 90 42 3f
        E 82 90 4d 00
        E 0 90 4e 38
        E 61 90 3e 00
        E 10 90 42 00
        E 26 90 4a 40
        E 25 90 4e 00
        E 72 90 45 46
        E 51 90 4a 00
        E 5 90 32 35
        E 26 90 45 00
        E 15 90 51 3f
        E 51 90 32 00
        E 0 90 3e 41
        E 56 90 56 50
        E 36 90 3e 00
        E 0 90 3e 4b
        E 0 90 51 00
        E 46 90 39 43
        E 51 90 3e 00
        E 0 90 3e 4a
        E 31 90 39 00
        E 10 90 4e 4b
        E 15 90 56 00
        E 26 90 3e 00
        E 0 90 3e 38
        E 56 90 32 3d
        E 0 90 4e 00
        E 0 90 4e 46
        E 51 90 3e 00
        E 0 90 3e 40
        E 41 90 32 00
        E 5 90 51 41
        E 11 90 4e 00
        E 25 90 3e 00
        E 0 90 3e 50
        E 36 90 39 3f
        E 46 90 3e 00
        E 0 90 3e 53
        E 26 90 39 00
        E 20 90 4a 47
        E 31 90 51 00
        E 10 90 3e 00
        E 0 90 3e 44
        E 46 90 4e 44
        E 5 90 39 3d
        E 31 90 4a 00
        E 0 90 4a 28
        E 10 90 42 46
        E 25 90 39 00
        E 21 90 3e 00
        E 0 90 3e 4a
        E 0 90 4e 00
        E 0 90 4e 47
        E 66 90 3e 00
        E 16 90 4c 36
        E 5 90 39 3a
        E 5 90 42 00
        E 15 90 4e 00
        E 5 90 4a 00
        E 0 90 4a 3e
        E 72 90 39 00
        E 10 90 42 2c
        E 0 90 4e 45
        E 10 90 4c 00
        E 56 90 3e 31
        E 0 90 4a 00
        E 0 90 4a 4e
        E 46 90 42 00
        E 36 90 4e 00
        E 158 90 32 61
        E 26 90 3e 00
        E 72 90 4a 00
        E 107 90 32 00
        E 0 90 45 46
        E 5 90 2b 56
        E 0 90 49 4a
        E 36 90 4c 50
        E 46 90 2b 00
        E 0 90 2b 4c
        E 72 90 49 00
        E 15 90 2b 00
        E 15 90 4c 00
        E 11 90 32 32
        E 0 90 4a 43
        E 0 90 4e 44
        E 5 90 2a 59
        E 35 90 45 00
        E 41 90 2a 00
        E 0 90 2a 38
        E 21 90 32 00
        E 71 90 4a 00
        E 0 90 4e 00
        E 31 90 4f 3e
        E 5 90 25 56
        E 0 90 31 2b
        E 0 90 45 2d
        E 0 90 4c 41
        E 97 90 2a 00
        E 51 90 45 00
        E 36 90 31 00
        E 46 90 4f 00
        E 149 90 42 4a
        E 5 90 4e 48
        E 10 90 4c 00
        E 5 90 25 00
        E 72 90 42 00
        E 0 90 42 39
        E 0 90 4a 47
        E 61 90 42 00
        E 20 90 43 37
        E 0 90 4e 00
        E 0 90 4f 39
        E 26 90 4a 00
        E 41 90 43 00
        E 0 90 43 34
        E 15 90 40 33
        E 0 90 4c 3b
        E 36 90 4f 00
        E 0 90 4f 40
        E 41 90 40 00
        E 10 90 43 00
        E 10 90 42 34
        E 0 90 4c 00
        E 0 90 51 37
        E 10 90 45 3e
        E 118 90 4f 00
        E 61 90 42 00
        E 15 90 51 00
        E 57 90 45 00
        E 56 e0 55 4a
        E 0 90 55 45
        E 5 e0 55 4a
        E 6 e0 55 4a
        E 5 e0 55 4a
        E 5 e0 55 4a
        E 6 e0 55 4a
        E 5 e0 55 4a
        E 6 e0 55 4a
        E 5 e0 55 4a
        E 6 e0 55 4a
        E 5 e0 55 4a
        E 5 e0 55 4a
        E 6 e0 55 4a
        E 5 e0 55 4a
        E 6 e0 55 4a
        E 5 e0 55 4a
        E 5 e0 55 4a
        E 6 e0 55 4a
        E 0 90 55 00
        E 41 90 53 43
        E 31 90 51 46
        E 61 90 51 00
        E 0 90 53 00
        E 5 90 51 35
        E 36 90 4f 3a
        E 56 90 51 00
        E 31 90 4f 00
        E 10 90 4e 48
        E 67 90 53 3c
        E 86 90 4e 00
        E 97 90 53 00
        E 113 90 51 4f
        E 5 90 42 48
        E 5 90 4a 45
        E 72 90 4a 00
        E 15 90 42 00
        E 10 90 40 2b
        E 0 90 50 44
        E 0 90 51 00
        E 72 90 40 00
        E 30 90 4f 52
        E 0 90 50 00
        E 5 90 46 4e
        E 5 90 49 39
        E 67 90 49 00
        E 21 90 46 00
        E 0 90 47 3b
        E 0 90 4a 40
        E 0 90 4f 00
        E 0 90 4f 2e
        E 87 90 4d 58
        E 20 90 4f 00
        E 36 90 4a 00
        E 51 90 47 00
        E 26 90 4c 42
        E 0 90 4d 00
        E 5 90 45 30
        E 5 90 49 40
        E 102 90 4c 00
        E 5 90 4e 63
        E 5 90 49 00
        E 41 90 45 00
        E 72 e0 55 2a
        E 0 90 4e 00
        E 0 90 4f 5d
        E 5 e0 55 4a
        E 5 e0 55 4a
        E 6 e0 55 4a
        E 5 e0 55 4a
        E 5 e0 55 4a
        E 6 e0 55 4a
        E 5 e0 55 4a
        E 6 e0 55 4a
        E 5 e0 55 4a
        E 5 e0 55 4a
        E 6 e0 55 4a
        E 5 e0 55 4a
        E 5 e0 55 4a
        E 6 e0 55 4a
        E 5 e0 55 4a
        E 6 e0 55 4a
        E 5 e0 55 4a
        E 5 e0 55 4a
        E 6 e0 55 4a
        E 0 90 4f 00
        E 0 90 50 45
        E 5 e0 55 2a
        E 5 e0 55 4a
        E 6 e0 55 4a
        E 5 e0 55 4a
        E 6 e0 55 4a
        E 5 e0 55 4a
        E 5 e0 55 4a
        E 6 e0 55 4a
        E 5 e0 55 4a
        E 5 e0 55 4a
        E 6 e0 55 4a
        E 5 e0 55 2a
        E 6 e0 55 2a
        E 5 e0 55 2a
        E 5 e0 55 4a
        E 6 e0 55 4a
        E 5 e0 55 4a
        E 5 e0 55 4a
        E 6 e0 55 4a
        E 0 90 50 00
        E 5 90 51 3c
        E 5 90 3e 45
        E 87 90 3e 00
        E 25 90 3e 33
        E 0 90 42 59
        E 67 90 3e 00
        E 31 90 42 00
        E 0 90 43 46
        E 0 90 53 51
        E 36 90 51 00
        E 56 90 40 4e
        E 10 90 43 00
        E 0 90 43 3f
        E 0 90 4f 43
        E 0 90 53 00
        E 67 90 43 00
        E 20 90 4e 51
        E 0 90 4f 00
        E 5 90 40 00
        E 5 90 45 43
        E 51 90 4e 00
        E 5 90 4e 4e
        E 57 90 45 00
        E 0 90 45 4a
        E 87 90 4e 00
        E 0 90 4f 38
        E 5 90 47 36
        E 56 90 45 00
        E 36 90 43 44
        E 0 90 4c 49
        E 15 90 47 00
        E 82 90 43 00
        E 0 90 4f 00
        E 5 90 3e 40
        E 0 90 4a 46
        E 81 90 4c 00
        E 16 90 3e 00
        E 0 90 3e 48
        E 0 90 4a 00
        E 0 90 4a 4c
        E 71 90 3e 00
        E 21 90 4c 5f
        E 5 90 3d 3d
        E 0 90 4a 00
        E 82 90 4c 00
        E 0 90 4c 46
        E 5 90 39 38
        E 0 90 3d 00
        E 0 90 3d 3e
        E 67 90 3d 00
        E 5 90 39 00
        E 25 90 4c 00
        E 5 90 3e 3a
        E 0 90 4d 61
        E 6 90 42 45
        E 92 90 4d 00
        E 0 90 4e 21
        E 66 90 4e 00
        E 36 90 4a 3e
        E 25 90 3e 00
        E 36 90 42 00
        E 31 90 45 4b
        E 20 90 4a 00
        E 66 90 45 00
        E 6 90 32 39
        E 0 90 51 4b
        E 56 90 3e 36
        E 15 90 51 00
        E 0 90 51 31
        E 10 90 32 00
        E 21 90 56 5d
        E 30 90 51 00
        E 11 90 3e 00
        E 0 90 3e 49
        E 92 90 3e 00
        E 0 90 3e 3d
        E 5 90 56 00
        E 0 90 56 35
        E 46 90 4e 4c
        E 41 90 3e 00
        E 0 90 3e 33
        E 15 90 56 00
        E 36 90 32 44
        E 46 90 3e 00
        E 0 90 3e 3a
        E 5 90 4e 00
        E 0 90 4e 30
        E 41 90 32 00
        E 0 90 51 48
        E 41 90 3e 00
        E 0 90 3e 52
        E 20 90 4e 00
        E 67 90 3e 00
        E 0 90 3e 4f
        E 51 90 4a 42
        E 5 90 51 00
        E 26 90 3e 00
        E 0 90 3e 41
        E 56 90 39 37
        E 0 90 4e 3f
        E 46 90 42 4a
        E 15 90 39 00
        E 20 90 4a 00
        E 11 90 4e 00
        E 0 90 4e 4e
        E 5 90 3e 00
        E 0 90 3e 46
        E 0 90 4a 27
        E 10 90 42 00
        E 51 90 4e 00
        E 0 90 4e 3e
        E 5 90 39 39
        E 0 90 3e 00
        E 16 90 4c 35
        E 35 90 3e 2b
        E 0 90 43 34
        E 0 90 4a 00
        E 0 90 4a 47
        E 11 90 39 00
        E 20 90 4c 00
        E 0 90 4c 36
        E 31 90 4a 00
        E 0 90 4e 00
        E 0 90 4e 42
        E 5 90 3e 00
        E 10 90 43 00
        E 0 90 43 33
        E 56 90 4c 00
        E 21 90 3e 36
        E 0 90 4a 4f
        E 5 90 43 00
        E 66 90 4e 00
        E 57 90 39 2d
        E 128 90 39 00
        E 46 90 32 56
        E 45 90 3e 00
        E 169 90 4a 00
        E 169 90 32 00
        E 25 90 48 34
        E 5 90 3e 37
        E 118 90 48 00
        E 0 90 48 41
        E 66 90 3e 00
        E 10 90 48 00
        E 0 90 48 3c
        E 31 90 3e 3d
        E 0 90 4a 3a
        E 5 90 36 29
        E 26 90 48 00
        E 0 90 48 32
        E 51 90 36 00
        E 0 90 36 2c
        E 5 90 3e 00
        E 0 90 3e 47
        E 26 90 47 4a
        E 0 90 48 00
        E 10 90 4a 00
        E 0 90 4a 43
        E 31 90 36 00
        E 25 90 3e 00
        E 0 90 3e 43
        E 0 90 47 00
        E 0 90 47 50
        E 11 90 37 4e
        E 5 90 4a 00
        E 388 90 37 00
        E 0 90 47 00
        E 15 90 39 3d
        E 0 90 3e 00
        E 0 90 3e 43
        E 46 90 45 60
        E 67 90 3e 00
        E 0 90 3e 43
        E 0 90 45 00
        E 0 90 45 5e
        E 5 90 39 00
        E 0 90 39 49
        E 56 90 45 00
        E 0 90 45 4a
        E 5 90 39 00
        E 0 90 39 35
        E 41 90 3e 00
        E 0 90 3e 48
        E 36 90 44 49
        E 0 90 45 00
        E 0 90 47 3b
        E 5 90 39 00
        E 36 90 39 2d
        E 21 90 3e 00
        E 0 90 3e 42
        E 0 90 47 00
        E 0 90 47 4b
        E 30 90 44 00
        E 0 90 44 3f
        E 16 90 39 00
        E 30 90 3e 00
        E 67 90 44 00
        E 0 90 44 58
        E 0 90 50 27
        E 10 90 3b 45
        E 0 90 3e 51
        E 138 90 50 00
        E 127 90 47 00
        E 31 90 3e 00
        E 77 90 3b 00
        E 20 90 44 00
        E 10 90 4f 3f
        E 6 90 43 3a
        E 5 90 3e 2f
        E 102 90 4f 00
        E 0 90 4f 41
        E 10 90 3e 00
        E 0 90 3e 39
        E 0 90 43 00
        E 0 90 43 44
        E 92 90 3e 00
        E 0 90 3e 3d
        E 0 90 51 33
        E 26 90 43 00
        E 0 90 43 41
        E 0 90 4f 00
        E 0 90 4f 37
        E 76 90 4f 00
        E 0 90 4f 3c
        E 1 90 43 00
        E 0 90 43 3e
        E 25 90 3e 00
        E 0 90 3e 3d
        E 51 90 4f 00
        E 0 90 4f 33
        E 5 90 51 00
        E 6 90 3e 00
        E 0 90 43 00
        E 0 90 43 43
        E 10 90 39 4e
        E 25 90 3d 4e
        E 41 90 4f 00
        E 0 90 4f 3c
        E 5 90 43 00
        E 0 90 43 34
        E 0 90 4c 29
        E 41 90 3d 00
        E 0 90 3d 41
        E 0 90 55 38
        E 51 90 58 3b
        E 21 90 55 00
        E 10 90 43 00
        E 0 90 4c 00
        E 15 90 39 00
        E 0 90 4f 00
        E 0 90 4f 48
        E 36 90 3d 00
        E 5 90 58 00
        E 5 90 56 52
        E 46 90 4f 00
        E 0 90 4f 36
        E 46 90 2d 54
        E 0 90 39 2d
        E 5 90 56 00
        E 41 90 4f 00
        E 0 90 4f 32
        E 77 90 39 00
        E 0 90 39 3a
        E 5 90 4f 00
        E 0 90 4f 3d
        E 46 90 58 32
        E 10 90 39 00
        E 31 90 2d 00
        E 0 90 4f 00
        E 0 90 4f 4e
        E 35 90 2e 35
        E 6 90 56 50
        E 5 90 58 00
        E 41 90 4f 00
        E 0 90 4f 44
        E 25 90 2e 00
        E 20 90 56 00
        E 6 90 2d 57
        E 0 90 39 45
        E 35 90 4f 00
        E 0 90 4f 43
        E 41 90 4c 2e
        E 1 90 39 00
        E 0 90 39 3d
        E 41 90 4f 00
        E 0 90 4f 47
        E 5 90 2d 00
        E 0 90 2d 3c
        E 20 90 4c 00
        E 10 90 39 00
        E 11 90 58 39
        E 51 90 4f 00
        E 0 90 4f 43
        E 30 90 2d 00
        E 5 90 56 42
        E 6 90 58 00
        E 46 90 4f 00
        E 0 90 4f 3c
        E 81 90 4f 00
        E 0 90 4f 50
        E 41 90 56 00
        E 0 90 56 44
        E 5 90 2e 37
        E 41 90 4f 00
        E 0 90 4f 53
        E 21 90 2e 00
        E 66 90 4f 00
        E 0 90 4f 53
        E 41 90 2e 3f
        E 0 90 56 00
        E 0 90 56 53
        E 41 90 4f 00
        E 0 90 4f 39
        E 46 90 2e 00
        E 5 90 39 5e
        E 0 90 56 00
        E 36 90 51 36
        E 51 90 39 00
        E 0 90 39 4e
        E 0 90 58 31
        E 30 90 51 00
        E 41 90 58 00
        E 15 90 4e 42
        E 0 90 4f 00
        E 129 90 56 51
        E 5 90 4e 00
        E 56 90 56 00
        E 20 90 4c 34
        E 6 90 4f 3f
        E 5 90 56 3c
        E 56 90 4c 00
        E 0 90 4f 00
        E 31 90 56 00
        E 30 90 4a 4d
        E 46 90 4e 49
        E 97 90 39 00
        E 10 90 4a 00
        E 16 90 2d 43
        E 0 90 49 42
        E 25 90 4e 00
        E 11 90 40 2d
        E 46 90 49 00
        E 25 90 40 00
        E 15 90 39 2e
        E 0 90 51 40
        E 46 90 47 41
        E 41 90 4a 46
        E 62 90 47 00
        E 20 90 4f 3c
        E 10 90 51 00
        E 21 90 45 53
        E 35 90 4a 00
        E 5 90 39 00
        E 16 90 49 45
        E 5 90 45 00
        E 5 90 45 48
        E 61 90 45 00
        E 0 90 4f 00
        E 6 90 4e 49
        E 31 90 49 00
        E 20 90 43 47
        E 36 90 47 48
        E 71 90 4c 3f
        E 11 90 4e 00
        E 15 90 43 00
        E 25 90 42 46
        E 21 90 4c 00
        E 15 90 47 00
        E 10 90 45 48
        E 72 90 42 00
        E 5 90 4a 4d
        E 31 90 45 00
        E 56 90 40 48
        E 0 90 43 4b
        E 87 90 49 3f
        E 0 90 4a 00
        E 15 90 40 00
        E 26 90 43 00
        E 5 90 3e 4d
        E 41 90 42 5f
        E 40 90 49 00
        E 0 90 49 36
        E 11 90 47 4a
        E 5 90 3e 00
        E 10 90 42 00
        E 0 90 42 44
        E 36 90 49 00
        E 15 90 47 00
        E 5 90 3d 45
        E 0 90 47 3e
        E 15 90 42 00
        E 21 90 40 47
        E 25 90 3d 00
        E 41 90 2d 00
        E 11 90 45 4a
        E 0 90 47 00
        E 46 90 3b 41
        E 0 90 40 00
        E 36 90 3e 4b
        E 31 90 45 00
        E 15 90 3b 00
        E 15 90 3e 00
        E 5 90 4a 56
        E 0 90 4d 24
        E 5 90 41 45
        E 31 90 44 2d
        E 26 90 4d 00
        E 20 90 41 00
        E 10 90 40 4b
        E 10 90 4c 46
        E 26 90 44 00
        E 5 90 44 2b
        E 26 90 4a 00
        E 20 90 3e 39
        E 0 90 4c 00
        E 0 90 4d 4f
        E 15 90 40 00
        E 31 90 44 00
        E 0 90 44 44
        E 15 90 4d 00
        E 0 90 4d 45
        E 26 90 3b 47
        E 31 90 44 00
        E 10 90 4d 00
        E 5 90 3e 00
        E 0 90 3e 3b
        E 31 90 3b 00
        E 5 90 41 45
        E 0 90 4d 2a
        E 5 90 4a 57
        E 25 90 3e 00
        E 16 90 44 2e
        E 40 90 41 00
        E 11 90 4d 00
        E 5 90 40 3d
        E 5 90 4c 4e
        E 41 90 44 00
        E 0 90 44 3a
        E 5 90 4a 00
        E 31 90 4c 00
        E 0 90 4d 41
        E 10 90 3e 3b
        E 46 90 44 00
        E 0 90 44 35
        E 41 90 3b 3a
        E 15 90 4d 00
        E 20 90 3e 00
        E 0 90 3e 43
        E 5 90 40 00
        E 31 90 41 3f
        E 5 90 4a 4a
        E 21 90 3b 00
        E 30 90 3e 00
        E 16 90 41 00
        E 16 90 40 46
        E 5 90 4c 3f
        E 25 90 4a 00
        E 15 90 44 00
        E 0 90 44 26
        E 36 90 4c 00
        E 0 90 4d 53
        E 5 90 3e 49
        E 11 90 40 00
        E 40 90 44 00
        E 0 90 44 2e
        E 41 90 3e 00
        E 0 90 3e 47
        E 0 90 4d 00
        E 0 90 4d 4e
        E 51 90 44 00
        E 0 90 44 2d
        E 16 90 3e 00
        E 30 90 40 56
        E 46 90 44 00
        E 0 90 44 37
        E 31 90 4d 00
        E 10 90 40 00
        E 0 90 40 4e
        E 72 90 44 00
        E 10 90 4a 47
        E 5 90 40 00
        E 0 90 41 3a
        E 51 90 44 44
        E 15 90 4a 00
        E 16 90 41 00
        E 10 90 3d 4e
        E 82 90 43 3a
        E 0 90 44 00
        E 10 90 28 3a
        E 0 90 3d 00
        E 31 90 46 39
        E 30 90 43 00
        E 21 90 41 36
        E 10 90 26 42
        E 41 90 46 00
        E 0 90 46 30
        E 30 90 41 00
        E 11 90 40 30
        E 35 90 46 00
        E 0 90 46 41
        E 6 90 25 49
        E 0 90 26 00
        E 21 90 28 00
        E 61 90 46 00
        E 20 90 25 00
        E 16 90 43 3a
        E 5 90 40 00
        E 5 90 28 5a
        E 30 90 46 31
        E 46 90 43 00
        E 6 90 41 30
        E 15 90 26 48
        E 5 90 28 00
        E 0 90 28 33
        E 31 90 46 00
        E 0 90 46 2e
        E 25 90 41 00
        E 15 90 25 46
        E 0 90 26 00
        E 0 90 40 23
        E 46 90 46 00
        E 0 90 46 30
        E 21 90 40 00
        E 31 90 3d 49
        E 5 90 28 00
        E 66 90 25 00
        E 10 90 28 49
        E 5 90 3d 00
        E 5 90 43 3b
        E 31 90 46 00
        E 0 90 46 2e
        E 41 90 43 00
        E 15 90 26 3e
        E 31 90 46 00
        E 0 90 46 39
        E 5 90 28 00
        E 51 90 40 3a
        E 15 90 26 00
        E 11 90 25 4d
        E 5 90 46 00
        E 0 90 46 43
        E 56 90 25 00
        E 0 90 25 50
        E 26 90 40 00
        E 0 90 40 3b
        E 0 90 46 00
        E 0 90 46 3c
        E 51 90 3e 3a
        E 5 90 25 00
        E 0 90 26 2c
        E 36 90 40 00
        E 5 90 46 00
        E 0 90 46 43
        E 41 90 26 00
        E 0 90 26 3e
        E 41 90 3e 00
        E 0 90 46 00
        E 0 90 46 4d
        E 25 90 26 00
        E 21 90 3d 51
        E 5 90 28 2d
        E 36 90 46 00
        E 0 90 46 3d
        E 61 90 3d 00
        E 0 90 3d 5b
        E 5 90 28 00
        E 0 90 28 4c
        E 184 90 46 00
        E 26 90 26 52
        E 0 90 3d 00
        E 0 90 3d 36
        E 127 90 28 00
        E 46 90 3d 00
        E 41 90 25 51
        E 0 90 26 00
        E 5 90 31 30
        E 220 90 31 00
        E 31 90 22 46
        E 15 90 38 2a
        E 62 90 38 00
        E 30 90 25 00
        E 36 90 2e 2c
        E 123 90 2e 00
        E 76 90 22 00
        E 6 90 34 23
        E 20 90 25 47
        E 15 90 28 46
        E 21 90 2b 36
        E 15 90 34 00
        E 10 90 25 00
        E 0 90 25 43
        E 0 90 2d 3e
        E 67 90 39 39
        E 132 90 21 31
        E 149 90 34 2b
        E 61 90 21 00
        E 46 90 34 00
        E 52 90 2b 00
        E 15 90 25 00
        E 51 90 2f 44
        E 5 90 39 00
        E 15 90 2d 00
        E 0 90 2d 2f
        E 57 90 28 00
        E 25 90 2d 00
        E 0 90 2d 41
        E 61 90 2f 00
        E 67 90 2d 00
        E 0 90 2d 39
        E 51 90 31 2c
        E 15 90 38 1c
        E 41 90 2f 42
        E 21 90 31 00
        E 10 90 38 00
        E 5 90 32 45
        E 46 90 2d 00
        E 0 90 2d 2f
        E 10 90 2f 00
        E 61 90 2d 00
        E 5 90 32 00
        E 0 90 32 40
        E 36 90 36 31
        E 56 90 32 00
        E 52 e0 55 4a
        E 0 90 36 00
        E 0 90 36 3e
        E 5 e0 55 4a
        E 6 e0 55 4a
        E 5 e0 55 4a
        E 6 e0 55 4a
        E 5 e0 55 4a
        E 6 e0 55 4a
        E 5 e0 55 4a
        E 6 e0 55 4a
        E 5 e0 55 4a
        E 6 e0 55 4a
        E 5 e0 55 4a
        E 6 e0 55 4a
        E 0 90 36 00
        E 0 90 36 2f
        E 5 e0 55 4a
        E 5 e0 55 4a
        E 5 e0 55 4a
        E 6 e0 55 4a
        E 5 e0 55 4a
        E 5 e0 55 4a
        E 5 e0 55 4a
        E 5 e0 55 4a
        E 5 e0 55 4a
        E 6 e0 55 4a
        E 5 e0 55 4a
        E 0 90 36 00
        E 10 e0 55 4a
        E 0 90 39 44
        E 5 e0 55 4a
        E 6 e0 55 4a
        E 6 e0 55 4a
        E 5 e0 55 4a
        E 6 e0 55 4a
        E 5 e0 55 4a
        E 6 e0 55 4a
        E 5 e0 55 4a
        E 6 e0 55 4a
        E 6 e0 55 4a
        E 5 e0 55 4a
        E 0 90 39 00
        E 21 90 3b 43
        E 30 90 3e 31
        E 56 90 40 3d
        E 41 90 3e 00
        E 0 90 3e 43
        E 5 90 3b 00
        E 31 90 42 40
        E 41 90 3e 00
        E 0 90 40 00
        E 0 90 40 40
        E 51 90 42 00
        E 0 90 42 46
        E 56 90 40 00
        E 10 90 42 00
        E 6 90 43 41
        E 10 90 45 2e
        E 15 90 47 3b
        E 51 90 45 00
        E 0 90 45 3e
        E 21 90 43 00
        E 40 90 47 00
        E 0 90 47 44
        E 21 90 45 00
        E 5 90 4a 3b
        E 92 90 47 00
        E 5 90 4a 00
        E 0 90 4a 40
        E 31 90 4e 37
        E 46 90 4c 3b
        E 51 90 4e 00
        E 0 90 4e 4e
        E 5 90 4a 00
        E 72 90 4c 00
        E 10 90 4e 00
        E 0 90 4f 41
        E 97 90 51 55
        E 56 90 4f 00
        E 0 90 4f 50
        E 98 90 51 00
        E 0 90 51 4f
        E 30 90 4f 00
        E 0 90 4f 51
        E 31 90 51 00
        E 0 90 51 4c
        E 107 90 51 00
        E 0 90 51 48
        E 36 90 4f 00
        E 0 90 4f 54
        E 61 90 4f 00
        E 0 90 4f 4d
        E 21 90 51 00
        E 0 90 51 56
        E 86 90 4f 00
        E 0 90 4f 50
        E 26 90 51 00
        E 0 90 51 5a
        E 87 90 4f 00
        E 0 90 4f 39
        E 25 90 51 00
        E 0 90 51 60
        E 36 90 4f 00
        E 0 90 4f 40
        E 31 90 51 00
        E 0 90 51 5b
        E 31 90 4f 00
        E 0 90 4f 32
        E 71 90 51 00
        E 0 90 51 38
        E 62 90 4f 00
        E 41 e0 2b 55
        E 0 90 50 52
        E 0 90 51 00
        E 5 e0 2b 55
        E 5 e0 2b 55
        E 6 e0 2b 55
        E 5 e0 2b 55
        E 5 e0 2b 55
        E 6 e0 2b 55
        E 5 e0 2b 55
        E 5 e0 2b 55
        E 6 e0 2b 55
        E 5 e0 2b 55
        E 5 e0 2b 55
        E 6 e0 2b 55
        E 5 e0 2b 55
        E 5 e0 2b 55
        E 5 e0 2b 55
        E 6 e0 2b 55
        E 5 e0 2b 55
        E 5 e0 2b 55
        E 6 e0 2b 55
        E 5 e0 2b 55
        E 5 e0 2b 55
        E 6 e0 55 4a
        E 5 e0 55 4a
        E 5 e0 55 4a
        E 0 90 50 00
        E 0 90 51 42
        E 6 e0 55 2a
        E 5 e0 2b 35
        E 6 e0 2b 35
        E 5 e0 2b 35
        E 5 e0 55 2a
        E 6 e0 55 2a
        E 5 e0 2b 35
        E 6 e0 2b 35
        E 5 e0 2b 35
        E 5 e0 2b 35
        E 6 e0 2b 35
        E 5 e0 55 4a
        E 5 e0 55 4a
        E 6 e0 55 4a
        E 5 e0 55 4a
        E 6 e0 55 4a
        E 5 e0 55 4a
        E 5 e0 2b 55
        E 0 90 50 45
        E 0 90 51 00
        E 6 e0 55 4a
        E 5 e0 2b 55
        E 6 e0 2b 55
        E 5 e0 2b 55
        E 6 e0 2b 55
        E 5 e0 2b 55
        E 5 e0 2b 55
        E 6 e0 2b 55
        E 5 e0 2b 55
        E 6 e0 2b 55
        E 5 e0 2b 55
        E 6 e0 2b 55
        E 5 e0 2b 55
        E 5 e0 2b 55
        E 6 e0 2b 55
        E 5 e0 55 4a
        E 0 90 50 00
        E 0 90 51 49
        E 6 e0 55 4a
        E 5 e0 2b 35
        E 6 e0 2b 35
        E 5 e0 2b 35
        E 6 e0 2b 35
        E 5 e0 2b 35
        E 5 e0 2b 35
        E 6 e0 55 4a
        E 5 e0 55 4a
        E 6 e0 55 4a
        E 5 e0 2b 35
        E 6 e0 2b 35
        E 5 e0 2b 35
        E 6 e0 2b 35
        E 5 e0 55 4a
        E 0 90 51 00
        E 0 90 51 55
        E 6 e0 55 4a
        E 5 e0 55 4a
        E 6 e0 55 4a
        E 5 e0 55 4a
        E 6 e0 55 4a
        E 5 e0 55 4a
        E 6 e0 55 4a
        E 6 e0 55 4a
        E 5 e0 55 4a
        E 6 e0 55 4a
        E 5 e0 55 4a
        E 0 90 51 00
        E 0 90 51 51
        E 6 e0 55 4a
        E 5 e0 55 4a
        E 6 e0 55 4a
        E 5 e0 55 4a
        E 6 e0 55 4a
        E 5 e0 55 4a
        E 6 e0 55 4a
        E 5 e0 55 4a
        E 6 e0 2b 35
        E 5 e0 2b 35
        E 6 e0 55 2a
        E 5 e0 55 2a
        E 6 e0 55 4a
        E 0 90 51 00
        E 0 90 51 3e
        E 5 e0 55 4a
        E 6 e0 55 4a
        E 5 e0 55 4a
        E 6 e0 55 4a
        E 5 e0 55 4a
        E 6 e0 2b 35
        E 6 e0 55 2a
        E 5 e0 55 2a
        E 6 e0 55 2a
        E 5 e0 2b 35
        E 6 e0 55 2a
        E 5 e0 55 2a
        E 0 90 51 00
        E 0 90 51 43
        E 5 e0 55 2a
        E 6 e0 55 2a
        E 5 e0 2b 35
        E 5 e0 2b 35
        E 5 e0 2b 35
        E 5 e0 2b 35
        E 5 e0 2b 35
        E 5 e0 2b 35
        E 5 e0 2b 35
        E 6 e0 2b 35
        E 5 e0 2b 35
        E 5 e0 2b 35
        E 5 e0 2b 35
        E 5 e0 55 4a
        E 5 e0 55 4a
        E 5 e0 55 4a
        E 6 e0 55 4a
        E 5 e0 55 4a
        E 5 e0 55 4a
        E 5 e0 55 4a
        E 5 e0 2b 55
        E 0 90 50 52
        E 0 90 51 00
        E 5 e0 2b 55
        E 6 e0 2b 55
        E 5 e0 2b 55
        E 6 e0 55 4a
        E 5 e0 55 4a
        E 6 e0 55 4a
        E 5 e0 55 4a
        E 5 e0 55 4a
        E 6 e0 55 4a
        E 5 e0 55 4a
        E 6 e0 55 4a
        E 5 e0 55 4a
        E 5 e0 55 4a
        E 6 e0 55 4a
        E 5 e0 55 4a
        E 6 e0 55 4a
        E 5 e0 55 4a
        E 0 90 50 00
        E 0 90 50 5a
        E 6 e0 55 4a
        E 5 e0 55 4a
        E 6 e0 55 4a
        E 5 e0 55 4a
        E 6 e0 55 4a
        E 5 e0 55 4a
        E 6 e0 55 4a
        E 5 e0 55 4a
        E 6 e0 55 4a
        E 5 e0 55 4a
        E 6 e0 55 4a
        E 5 e0 55 4a
        E 0 90 50 00
        E 0 90 51 49
        E 6 e0 55 4a
        E 5 e0 55 4a
        E 5 e0 55 4a
        E 6 e0 55 4a
        E 5 e0 55 4a
        E 5 e0 55 4a
        E 6 e0 55 4a
        E 5 e0 55 4a
        E 5 e0 55 4a
        E 5 e0 55 4a
        E 6 e0 55 4a
        E 5 e0 55 4a
        E 5 e0 55 4a
        E 6 e0 55 4a
        E 5 e0 55 4a
        E 5 e0 55 4a
        E 5 e0 55 4a
        E 6 e0 55 4a
        E 5 e0 55 2a
        E 5 e0 55 4a
        E 6 e0 55 4a
        E 5 e0 55 2a
        E 5 e0 55 2a
        E 6 e0 55 2a
        E 5 e0 55 2a
        E 5 e0 55 2a
        E 5 e0 55 2a
        E 0 90 51 00
        E 16 e0 55 4a
        E 0 90 53 4c
        E 5 e0 55 4a
        E 5 e0 55 4a
        E 5 e0 55 4a
        E 6 e0 55 4a
        E 5 e0 55 4a
        E 5 e0 55 4a
        E 5 e0 55 4a
        E 5 e0 55 4a
        E 5 e0 55 4a
        E 6 e0 55 4a
        E 5 e0 55 4a
        E 5 e0 55 4a
        E 5 e0 55 4a
        E 5 e0 55 4a
        E 5 e0 55 4a
        E 6 e0 55 4a
        E 5 e0 55 4a
        E 5 e0 55 4a
        E 5 e0 55 4a
        E 5 e0 55 4a
        E 6 e0 55 4a
        E 5 e0 55 4a
        E 5 e0 55 4a
        E 5 e0 55 4a
        E 5 e0 55 4a
        E 5 e0 55 4a
        E 6 e0 55 4a
        E 5 e0 55 4a
        E 5 e0 55 4a
        E 5 e0 55 4a
        E 5 e0 55 4a
        E 5 e0 55 4a
        E 6 e0 55 4a
        E 5 e0 55 4a
        E 5 e0 55 4a
        E 5 e0 55 4a
        E 5 e0 55 4a
        E 6 e0 55 4a
        E 5 e0 55 4a
        E 5 e0 55 4a
        E 5 e0 55 4a
        E 5 e0 55 4a
        E 5 e0 55 4a
        E 6 e0 55 4a
        E 5 e0 55 4a
        E 5 e0 55 4a
        E 5 e0 55 4a
        E 5 e0 55 4a
        E 5 e0 55 4a
        E 6 e0 55 4a
        E 5 e0 55 4a
        E 5 e0 55 4a
        E 5 e0 55 4a
        E 5 e0 55 4a
        E 6 e0 55 4a
        E 5 e0 55 4a
        E 5 e0 55 4a
        E 5 e0 55 4a
        E 5 e0 55 4a
        E 5 e0 55 4a
        E 6 e0 55 4a
        E 5 e0 55 4a
        E 5 e0 55 4a
        E 5 e0 55 4a
        E 5 e0 55 4a
        E 5 e0 55 4a
        E 6 e0 55 4a
        E 5 e0 55 4a
        E 5 e0 55 4a
        E 5 e0 55 4a
        E 5 e0 55 4a
        E 6 e0 55 4a
        E 5 e0 55 4a
        E 5 e0 55 4a
        E 5 e0 55 4a
        E 0 90 53 00
        E 20 e0 55 4a
        E 0 90 51 40
        E 6 e0 55 4a
        E 5 e0 55 4a
        E 5 e0 55 4a
        E 5 e0 55 4a
        E 5 e0 55 4a
        E 5 e0 55 4a
        E 5 e0 55 4a
        E 5 e0 55 4a
        E 6 e0 55 4a
        E 5 e0 55 4a
        E 5 e0 55 4a
        E 5 e0 55 4a
        E 5 e0 55 4a
        E 5 e0 55 4a
        E 5 e0 55 4a
        E 5 e0 55 4a
        E 6 e0 55 4a
        E 5 e0 55 4a
        E 5 e0 55 4a
        E 5 e0 55 4a
        E 5 e0 55 4a
        E 5 e0 55 4a
        E 5 e0 55 4a
        E 5 e0 55 4a
        E 6 e0 55 4a
        E 5 e0 55 4a
        E 5 e0 55 4a
        E 5 e0 55 4a
        E 5 e0 55 4a
        E 5 e0 55 4a
        E 5 e0 55 4a
        E 5 e0 55 4a
        E 6 e0 55 4a
        E 5 e0 55 4a
        E 5 e0 55 4a
        E 0 90 51 00
        E 0 90 51 3d
        E 41 90 3e 51
        E 15 90 42 2a
        E 97 90 42 00
        E 10 90 51 00
        E 87 90 45 48
        E 143 90 42 46
        E 92 90 3e 00
        E 0 90 42 00
        E 0 90 45 00
        E 15 90 53 4c
        E 41 90 51 45
        E 46 90 53 00
        E 16 90 51 00
        E 0 90 51 49
        E 51 90 42 3e
        E 0 90 56 58
        E 112 90 51 00
        E 57 90 42 00
        E 20 90 45 32
        E 0 90 51 3c
        E 62 90 4e 48
        E 5 90 3e 3e
        E 0 90 56 00
        E 20 90 42 4c
        E 21 90 45 00
        E 20 90 51 00
        E 66 90 45 4c
        E 118 90 42 00
        E 0 90 42 5f
        E 5 90 4e 00
        E 87 90 45 00
        E 5 90 3e 00
        E 41 90 42 00
        E 0 90 42 29
        E 0 90 4e 58
        E 25 90 4c 36
        E 67 90 4c 00
        E 15 90 42 00
        E 0 90 42 3d
        E 0 90 45 42
        E 0 90 51 4a
        E 5 90 4e 00
        E 0 90 4e 4d
        E 113 90 45 00
        E 0 90 45 4c
        E 46 90 51 00
        E 15 90 42 00
        E 10 90 4e 00
        E 0 90 4e 66
        E 61 90 4a 5a
        E 0 90 4e 00
        E 0 90 4e 3f
        E 11 90 39 2b
        E 5 90 42 4c
        E 21 90 45 00
        E 35 90 4e 00
        E 57 90 45 46
        E 71 90 39 00
        E 26 90 4a 00
        E 0 90 4a 61
        E 20 90 42 00
        E 0 90 42 4f
        E 87 90 45 00
        E 0 90 45 5e
        E 92 90 42 00
        E 0 90 4c 53
        E 10 90 45 00
        E 0 90 45 31
        E 10 90 4a 00
        E 41 90 4c 00
        E 5 90 4c 4a
        E 21 90 4e 4a
        E 30 90 45 00
        E 0 90 45 34
        E 26 90 4a 38
        E 31 90 4c 00
        E 0 90 4c 57
        E 46 90 4e 00
        E 15 90 3e 40
        E 0 90 4c 00
        E 0 90 4d 53
        E 5 90 42 42
        E 46 90 4a 00
        E 66 90 4d 00
        E 0 90 4e 3f
        E 62 90 4e 00
        E 0 90 4e 3e
        E 25 90 3e 00
        E 5 90 45 00
        E 32 90 4e 00
        E 5 90 49 52
        E 112 90 49 00
        E 0 90 4a 3e
        E 15 90 42 00
        E 113 90 4a 00
        E 25 e0 55 4a
        E 0 90 44 45
        E 6 e0 55 4a
        E 5 e0 55 4a
        E 5 e0 55 4a
        E 6 e0 55 4a
        E 5 e0 55 4a
        E 5 e0 55 4a
        E 6 e0 55 4a
        E 5 e0 55 4a
        E 5 e0 55 4a
        E 6 e0 55 4a
        E 5 e0 55 4a
        E 5 e0 55 4a
        E 6 e0 55 4a
        E 5 e0 55 4a
        E 5 e0 55 4a
        E 6 e0 55 4a
        E 5 e0 55 4a
        E 5 e0 55 4a
        E 6 e0 55 4a
        E 5 e0 55 4a
        E 5 e0 55 4a
        E 6 e0 55 4a
        E 5 e0 55 4a
        E 0 90 44 00
        E 5 e0 55 2a
        E 0 90 45 4b
        E 5 e0 55 4a
        E 6 e0 55 4a
        E 5 e0 55 4a
        E 5 e0 55 4a
        E 5 e0 55 4a
        E 6 e0 55 4a
        E 5 e0 55 4a
        E 5 e0 55 4a
        E 5 e0 55 4a
        E 6 e0 55 4a
        E 5 e0 55 4a
        E 5 e0 55 4a
        E 5 e0 55 4a
        E 6 e0 55 4a
        E 5 e0 55 4a
        E 5 e0 55 4a
        E 5 e0 55 4a
        E 5 e0 55 4a
        E 6 e0 55 4a
        E 5 e0 55 4a
        E 5 e0 55 4a
        E 5 e0 55 4a
        E 6 e0 55 4a
        E 5 e0 55 4a
        E 5 e0 55 4a
        E 5 e0 55 4a
        E 6 e0 55 4a
        E 5 e0 55 4a
        E 5 e0 55 4a
        E 5 e0 55 4a
        E 6 e0 55 4a
        E 5 e0 55 4a
        E 5 e0 55 4a
        E 5 e0 55 4a
        E 6 e0 55 4a
        E 5 e0 55 4a
        E 5 e0 55 4a
        E 0 90 45 00
        E 16 90 51 3f
        E 5 90 3e 44
        E 20 90 42 43
        E 87 90 51 00
        E 10 90 52 53
        E 10 90 3e 00
        E 31 90 42 00
        E 66 90 52 00
        E 0 90 53 4e
        E 103 90 55 40
        E 15 90 53 00
        E 123 90 58 38
        E 15 90 55 00
        E 108 90 58 00
        E 168 90 4d 56
        E 10 90 3e 3f
        E 0 90 45 39
        E 108 90 3e 00
        E 0 90 4d 00
        E 0 90 4e 59
        E 46 90 45 00
        E 56 e0 55 2a
        E 0 90 4e 00
        E 0 90 4f 47
        E 5 e0 55 4a
        E 6 e0 55 4a
        E 5 e0 55 4a
        E 5 e0 2b 55
        E 6 e0 55 4a
        E 5 e0 55 4a
        E 6 e0 55 4a
        E 5 e0 2b 55
        E 5 e0 55 4a
        E 6 e0 55 4a
        E 5 e0 55 4a
        E 5 e0 55 4a
        E 6 e0 55 4a
        E 5 e0 55 4a
        E 6 e0 55 4a
        E 5 e0 55 4a
        E 5 e0 55 4a
        E 6 e0 55 4a
        E 5 e0 55 4a
        E 0 90 4f 00
        E 0 90 50 3c
        E 139 90 53 50
        E 5 90 50 00
        E 132 90 53 00
        E 11 e0 55 4a
        E 0 90 51 44
        E 5 e0 55 4a
        E 5 e0 55 4a
        E 6 e0 55 4a
        E 5 e0 55 4a
        E 5 e0 55 4a
        E 6 e0 55 4a
        E 5 e0 55 4a
        E 5 e0 55 4a
        E 6 e0 55 4a
        E 5 e0 55 4a
        E 6 e0 55 4a
        E 5 e0 55 4a
        E 5 e0 55 4a
        E 6 e0 55 4a
        E 5 e0 55 4a
        E 5 e0 55 4a
        E 6 e0 55 4a
        E 5 e0 55 4a
        E 5 e0 55 4a
        E 6 e0 55 4a
        E 5 e0 55 4a
        E 0 90 51 00
        E 133 90 51 51
        E 31 90 39 44
        E 5 90 42 28
        E 86 90 42 00
        E 67 90 45 4d
        E 15 90 51 00
        E 51 90 39 00
        E 31 90 42 4f
        E 0 90 4a 51
        E 25 90 45 00
        E 77 90 45 46
        E 52 90 42 00
        E 10 90 4e 3d
        E 31 90 4c 44
        E 5 90 3d 23
        E 0 90 45 00
        E 41 90 4a 00
        E 0 90 4a 44
        E 35 90 3d 00
        E 16 90 4c 00
        E 0 90 4c 28
        E 5 90 45 31
        E 30 90 4e 00
        E 0 90 4e 50
        E 62 90 45 00
        E 5 90 4c 00
        E 0 90 4e 00
        E 0 90 4e 41
        E 10 90 4a 00
        E 0 90 4a 50
        E 5 90 3e 3f
        E 5 90 42 49
        E 51 90 4e 00
        E 251 90 3e 00
        E 5 90 4a 00
        E 5 e0 55 4a
        E 0 90 42 00
        E 0 90 56 45
        E 5 e0 55 4a
        E 6 e0 55 4a
        E 6 e0 55 4a
        E 5 e0 55 4a
        E 6 e0 55 4a
        E 5 e0 55 4a
        E 6 e0 55 4a
        E 5 e0 2b 55
        E 6 e0 55 4a
        E 6 e0 2b 55
        E 5 e0 2b 55
        E 0 90 56 00
        E 56 90 53 30
        E 46 90 51 37
        E 72 90 53 00
        E 26 90 4e 31
        E 26 90 51 00
        E 15 90 4c 3c
        E 61 90 4e 00
        E 10 90 4a 45
        E 31 90 42 2e
        E 36 90 39 29
        E 36 90 4c 00
        E 25 90 42 00
        E 15 90 45 3d
        E 67 90 39 00
        E 20 90 4a 00
        E 0 90 4a 48
        E 10 90 42 57
        E 87 90 45 00
        E 0 90 45 50
        E 31 90 4a 00
        E 36 90 42 00
        E 5 90 4e 49
        E 30 90 4c 33
        E 6 90 3d 36
        E 25 90 45 00
        E 0 90 4a 3e
        E 0 90 4e 00
        E 0 90 4e 41
        E 56 90 3d 00
        E 21 90 4c 00
        E 5 90 4e 00
        E 0 90 4e 48
        E 92 90 4a 00
        E 0 90 4a 3c
        E 5 90 3e 3d
        E 0 90 42 4b
        E 25 90 4e 00
        E 170 90 4a 00
        E 153 90 3e 00
        E 20 90 42 00
        E 31 e0 55 4a
        E 0 90 56 69
        E 5 e0 55 4a
        E 6 e0 55 4a
        E 5 e0 55 4a
        E 6 e0 55 4a
        E 5 e0 55 4a
        E 6 e0 55 4a
        E 5 e0 55 4a
        E 6 e0 55 4a
        E 5 e0 55 4a
        E 5 e0 55 4a
        E 6 e0 55 4a
        E 5 e0 55 4a
        E 6 e0 55 4a
        E 5 e0 2b 55
        E 6 e0 2b 55
        E 0 90 56 00
        E 0 90 56 32
        E 30 90 53 4a
        E 92 90 56 00
        E 11 90 4e 2e
        E 25 90 4c 41
        E 61 90 53 00
        E 16 90 4a 3b
        E 15 90 47 42
        E 15 90 4e 00
        E 51 90 4a 00
        E 26 90 42 4f
        E 5 90 4c 00
        E 51 90 3e 58
        E 5 90 2d 41
        E 0 90 47 00
        E 16 90 42 00
        E 51 90 42 2e
        E 20 90 36 4b
        E 62 90 42 00
        E 66 90 3e 00
        E 0 90 3e 56
        E 5 90 36 00
        E 0 90 36 41
        E 98 90 2d 00
        E 0 90 2d 35
        E 0 90 36 00
        E 0 90 36 3f
        E 0 90 39 41
        E 61 90 3d 35
        E 0 90 3e 00
        E 0 90 40 35
        E 25 90 36 00
        E 5 90 39 00
        E 6 90 2d 00
        E 0 90 42 43
        E 25 90 3d 00
        E 41 90 3e 3e
        E 41 90 40 00
        E 0 90 40 3a
        E 41 90 42 00
        E 0 90 42 5a
        E 66 90 40 00
        E 21 90 3e 00
        E 0 90 42 00
        E 70 b0 7b 00
        CCINTERP 32
        CHASE_CC_TAKEOFFS 1
        GUID {A848BD6C-2022-4FCA-AF06-5ECA737E2ECC}
        IGNTEMPO 0 120 4 4
        SRCCOLOR 65
        VELLANE -1 100 0
      >
    >
  >
  <UINF 114
    <ITEM {843EECD0-D555-4132-976F-238D4A3EEA53}
      POSITION 0
      SNAPOFFS 0
      LENGTH 579.5
      LOOP 1
      ALLTAKES 0
      FADEIN 1 0 0 1 0 0 0
      FADEOUT 1 0 0 1 0 0 0
      MUTE 0 0
      SEL 1
      IGUID {843EECD0-D555-4132-976F-238D4A3EEA53}
      IID 101
      NAME MIDI-Unprocessed_Chamber2_MID--AUDIO_09_R3_2018_wav--1_basic_pitch.mid
      VOLPAN 1 0 1 -1
      SOFFS 0 0
      PLAYRATE 1 1 0 -1 0 0.0025
      CHANMODE 0
      GUID {1F1ACA7B-6559-44BD-A45F-7CD05E94CCF9}
      <SOURCE MIDI
        HASDATA 1 220 QN
        CCINTERP 32
        POOLEDEVTS {0D537660-2FEF-452E-BFB8-9F79107310DB}
        E 0 c0 04 00
        E 322 90 2f 2e
        E 5 90 32 32
        E 0 90 3e 4a
        E 56 90 2f 00
        E 5 90 32 00
        E 5 90 3e 00
        E 568 90 42 2a
        E 5 90 45 27
        E 107 90 32 24
        E 5 90 3e 25
        E 21 90 45 00
        E 5 90 42 00
        E 92 90 32 00
        E 0 90 3e 00
        E 286 e0 00 20
        E 0 90 26 17
        E 5 e0 00 20
        E 6 e0 00 20
        E 5 e0 00 20
        E 5 e0 55 6a
        E 6 e0 55 6a
        E 5 e0 55 6a
        E 6 e0 55 6a
        E 5 e0 55 6a
        E 5 e0 2b 75
        E 6 e0 55 6a
        E 5 e0 55 6a
        E 5 e0 55 6a
        E 6 e0 55 6a
        E 5 e0 55 6a
        E 5 e0 55 6a
        E 6 e0 55 6a
        E 5 e0 55 6a
        E 6 e0 2b 75
        E 5 e0 2b 75
        E 5 e0 2b 75
        E 0 90 26 00
        E 364 90 36 1e
        E 0 90 39 20
        E 97 90 36 00
        E 0 90 39 00
        E 107 90 36 14
        E 0 90 4c 29
        E 36 90 4e 34
        E 5 90 45 2a
        E 25 90 4c 00
        E 16 90 32 1d
        E 5 90 42 21
        E 5 90 36 00
        E 10 90 45 00
        E 0 90 4e 00
        E 41 90 32 00
        E 15 90 42 00
        E 21 e0 00 60
        E 0 90 40 15
        E 5 e0 00 60
        E 6 e0 00 60
        E 5 e0 00 60
        E 6 e0 00 60
        E 5 e0 00 60
        E 6 e0 00 60
        E 5 e0 00 60
        E 6 e0 00 60
        E 5 e0 00 20
        E 6 e0 00 20
        E 5 e0 00 60
        E 6 e0 00 60
        E 5 e0 00 60
        E 0 90 3e 2a
        E 0 90 40 00
        E 5 90 42 2f
        E 67 90 3e 00
        E 5 90 42 00
        E 567 e0 2b 35
        E 0 90 3e 50
        E 6 e0 55 2a
        E 6 e0 00 20
        E 5 e0 00 20
        E 6 e0 00 20
        E 5 e0 00 20
        E 6 e0 00 20
        E 5 e0 2b 15
        E 6 e0 2b 15
        E 6 e0 2b 15
        E 5 e0 00 20
        E 6 e0 00 20
        E 0 90 3e 00
        E 368 90 45 1c
        E 92 90 32 1c
        E 0 90 39 18
        E 46 90 2f 2d
        E 5 90 3b 19
        E 0 90 3e 38
        E 0 90 4a 22
        E 5 90 45 00
        E 5 90 32 00
        E 0 90 45 38
        E 46 90 32 30
        E 11 90 42 2d
        E 5 90 2f 00
        E 0 90 3b 00
        E 0 90 3e 00
        E 0 90 3e 21
        E 0 90 4a 00
        E 5 90 39 00
        E 5 90 45 00
        E 51 90 32 00
        E 5 90 42 00
        E 46 90 3e 00
        E 266 90 45 26
        E 97 90 26 1c
        E 0 90 2f 1c
        E 0 90 32 2d
        E 0 90 36 20
        E 5 90 39 23
        E 41 90 24 19
        E 10 90 3e 3c
        E 0 90 42 3b
        E 5 90 45 00
        E 0 90 45 2e
        E 46 90 24 00
        E 20 90 2f 00
        E 0 90 32 00
        E 6 90 3e 00
        E 0 90 45 00
        E 10 90 42 00
        E 20 90 26 00
        E 0 90 39 00
        E 5 90 36 00
        E 241 90 36 17
        E 0 90 3e 27
        E 0 90 42 20
        E 5 90 39 25
        E 5 90 45 2b
        E 56 90 32 23
        E 11 90 36 00
        E 0 90 3e 00
        E 5 90 39 00
        E 5 90 45 00
        E 41 90 32 00
        E 0 90 42 00
        E 25 90 45 15
        E 67 90 39 21
        E 5 90 40 1c
        E 0 90 45 00
        E 0 90 45 21
        E 51 90 32 2a
        E 0 90 36 1e
        E 10 90 40 00
        E 0 90 42 31
        E 61 90 32 00
        E 0 90 36 00
        E 0 90 39 00
        E 5 90 45 00
        E 11 90 42 00
        E 143 e0 00 20
        E 0 90 3e 18
        E 5 e0 00 20
        E 6 e0 00 20
        E 5 e0 00 20
        E 6 e0 00 20
        E 5 e0 00 20
        E 6 e0 00 20
        E 5 e0 00 60
        E 6 e0 00 60
        E 5 e0 00 60
        E 6 e0 00 60
        E 5 e0 00 60
        E 6 e0 00 60
        E 5 e0 00 60
        E 0 90 3e 00
        E 241 e0 55 6a
        E 0 90 32 34
        E 5 e0 55 6a
        E 6 e0 55 6a
        E 5 e0 55 6a
        E 6 e0 00 20
        E 5 e0 00 20
        E 6 e0 00 20
        E 5 e0 00 20
        E 6 e0 00 20
        E 5 e0 2b 15
        E 6 e0 2b 15
        E 5 e0 2b 15
        E 6 e0 2b 15
        E 5 e0 00 20
        E 5 e0 00 20
        E 0 90 32 00
        E 225 90 2f 35
        E 0 90 3e 4a
        E 5 90 26 37
        E 0 90 42 3e
        E 57 90 2f 00
        E 5 90 26 00
        E 0 90 42 00
        E 5 90 3e 00
        E 225 90 23 1e
        E 10 90 3e 19
        E 51 90 23 00
        E 51 90 3e 00
        E 87 e0 00 20
        E 0 90 2f 1b
        E 6 e0 00 20
        E 5 e0 00 20
        E 5 e0 00 20
        E 6 e0 00 20
        E 5 e0 00 20
        E 6 e0 00 20
        E 5 e0 55 2a
        E 5 e0 55 2a
        E 6 e0 55 2a
        E 5 e0 00 20
        E 5 e0 00 20
        E 6 e0 00 20
        E 5 e0 00 20
        E 5 e0 00 20
        E 6 e0 00 20
        E 5 e0 00 20
        E 6 e0 55 6a
        E 5 e0 2b 75
        E 5 e0 2b 75
        E 6 e0 00 20
        E 0 90 2f 00
        E 86 90 23 15
        E 0 90 2f 26
        E 0 90 36 25
        E 11 90 42 26
        E 56 90 23 00
        E 0 90 2f 00
        E 66 90 36 00
        E 5 90 42 00
        E 368 e0 2b 75
        E 0 90 42 22
        E 5 e0 2b 75
        E 5 e0 55 6a
        E 6 e0 55 6a
        E 5 e0 55 6a
        E 5 e0 55 6a
        E 5 e0 55 6a
        E 5 e0 55 6a
        E 5 e0 00 20
        E 5 e0 00 20
        E 6 e0 00 20
        E 5 e0 00 20
        E 5 e0 00 20
        E 5 e0 00 20
        E 5 e0 00 20
        E 5 e0 00 20
        E 5 e0 00 20
        E 5 e0 00 20
        E 6 e0 00 20
        E 5 e0 00 20
        E 5 e0 00 20
        E 5 e0 55 6a
        E 5 e0 00 20
        E 0 90 42 00
        E 179 90 26 21
        E 10 90 39 2a
        E 61 90 26 00
        E 52 90 39 00
        E 76 90 4c 2b
        E 31 90 4e 2d
        E 30 90 4c 00
        E 31 90 4e 00
        E 56 90 40 22
        E 5 90 42 1b
        E 0 90 45 20
        E 62 90 42 00
        E 5 90 42 2b
        E 5 90 40 00
        E 5 90 45 00
        E 56 90 42 00
        E 547 90 32 28
        E 0 90 3e 3e
        E 62 90 32 00
        E 5 90 3e 00
        E 362 e0 7f 7f
        E 0 90 42 25
        E 6 e0 7f 7f
        E 6 e0 00 20
        E 5 e0 00 20
        E 6 e0 00 20
        E 5 e0 00 20
        E 6 e0 00 20
        E 5 e0 00 20
        E 6 e0 00 20
        E 6 e0 00 20
        E 5 e0 00 20
        E 6 e0 00 20
        E 0 90 42 00
        E 57 90 2f 23
        E 5 90 3e 35
        E 5 90 45 3b
        E 0 90 4a 27
        E 41 90 26 20
        E 5 90 32 27
        E 10 90 3e 00
        E 0 90 3e 23
        E 0 90 42 30
        E 5 90 2f 00
        E 5 90 4a 00
        E 5 90 45 00
        E 51 90 42 00
        E 41 90 26 00
        E 5 90 32 00
        E 0 90 3e 00
        E 261 90 36 21
        E 10 90 45 26
        E 92 90 39 20
        E 10 90 45 00
        E 36 90 2f 1d
        E 0 90 32 24
        E 0 90 3e 33
        E 5 90 42 31
        E 0 90 45 24
        E 82 90 2f 00
        E 0 90 32 00
        E 5 90 45 00
        E 5 90 36 00
        E 0 90 3e 00
        E 20 90 42 00
        E 52 90 39 00
        E 66 e0 00 20
        E 0 90 39 19
        E 5 e0 00 20
        E 5 e0 00 20
        E 5 e0 00 20
        E 6 e0 00 20
        E 5 e0 00 20
        E 5 e0 00 20
        E 5 e0 00 20
        E 5 e0 00 20
        E 5 e0 00 20
        E 6 e0 00 20
        E 5 e0 55 6a
        E 0 90 39 00
        E 71 90 32 1e
        E 10 90 39 1a
        E 0 90 45 1e
        E 31 90 42 2a
        E 5 90 4e 32
        E 31 90 40 27
        E 0 90 4c 29
        E 20 90 32 00
        E 5 90 45 00
        E 6 90 4e 00
        E 5 90 42 00
        E 5 90 3d 2a
        E 15 90 39 00
        E 10 90 40 00
        E 0 90 4c 00
        E 67 90 39 17
        E 15 90 3d 00
        E 51 90 42 23
        E 5 90 32 23
        E 5 90 39 00
        E 62 90 42 00
        E 51 90 32 00
        E 419 e0 55 6a
        E 0 90 32 2e
        E 6 e0 55 6a
        E 5 e0 55 6a
        E 6 e0 00 20
        E 5 e0 00 20
        E 5 e0 00 20
        E 6 e0 00 20
        E 5 e0 00 20
        E 6 e0 00 20
        E 5 e0 00 20
        E 6 e0 00 20
        E 5 e0 00 20
        E 6 e0 55 6a
        E 5 e0 2b 15
        E 5 e0 00 20
        E 6 e0 00 20
        E 0 90 32 00
        E 250 e0 2b 15
        E 0 90 2d 45
        E 6 e0 2b 15
        E 5 e0 2b 15
        E 5 e0 2b 15
        E 6 e0 2b 15
        E 5 e0 2b 15
        E 6 e0 2b 15
        E 5 e0 2b 15
        E 5 e0 2b 15
        E 6 e0 2b 15
        E 5 e0 2b 15
        E 6 e0 00 20
        E 5 e0 00 20
        E 6 e0 00 20
        E 5 e0 00 20
        E 5 e0 00 20
        E 6 e0 00 20
        E 5 e0 00 20
        E 0 90 2d 00
        E 164 90 3d 2b
        E 0 90 45 35
        E 10 90 40 31
        E 51 90 45 00
        E 10 90 40 00
        E 15 90 3d 00
        E 57 90 40 23
        E 66 90 2d 2b
        E 21 90 40 00
        E 41 90 2d 00
        E 541 90 2d 30
        E 21 90 39 27
        E 128 90 2d 00
        E 5 90 2d 23
        E 20 90 39 00
        E 56 90 45 2a
        E 5 90 32 34
        E 6 90 3e 29
        E 10 90 2d 00
        E 51 90 45 00
        E 36 90 3e 00
        E 10 90 32 00
        E 97 e0 00 20
        E 0 90 45 2b
        E 6 e0 00 20
        E 6 e0 00 20
        E 5 e0 00 20
        E 6 e0 00 20
        E 5 e0 00 20
        E 6 e0 00 20
        E 5 e0 00 20
        E 6 e0 00 20
        E 6 e0 00 20
        E 5 e0 00 20
        E 6 e0 00 20
        E 0 90 45 00
        E 352 e0 00 20
        E 0 90 4e 1d
        E 6 e0 00 20
        E 5 e0 00 20
        E 6 e0 55 2a
        E 6 e0 55 2a
        E 5 e0 55 2a
        E 6 e0 55 2a
        E 5 e0 55 2a
        E 6 e0 55 2a
        E 5 e0 55 2a
        E 6 e0 00 20
        E 6 e0 00 20
        E 0 90 4e 00
        E 45 e0 2b 15
        E 0 90 32 29
        E 6 e0 2b 15
        E 5 e0 2b 15
        E 6 e0 2b 15
        E 5 e0 2b 15
        E 5 e0 2b 15
        E 6 e0 2b 15
        E 5 e0 2b 15
        E 5 e0 2b 15
        E 6 e0 2b 15
        E 5 e0 2b 15
        E 5 e0 2b 15
        E 6 e0 2b 15
        E 5 e0 2b 15
        E 5 e0 00 20
        E 6 e0 00 20
        E 5 e0 00 20
        E 5 e0 00 20
        E 6 e0 00 20
        E 5 e0 00 20
        E 5 e0 00 20
        E 6 e0 00 20
        E 5 e0 00 20
        E 0 90 32 00
        E 66 e0 2b 15
        E 0 90 39 2e
        E 6 e0 2b 15
        E 5 e0 2b 15
        E 5 e0 2b 15
        E 5 e0 2b 15
        E 5 e0 2b 15
        E 5 e0 2b 15
        E 5 e0 2b 15
        E 5 e0 2b 15
        E 6 e0 2b 15
        E 5 e0 2b 15
        E 5 e0 2b 15
        E 5 e0 2b 15
        E 5 e0 2b 15
        E 5 e0 2b 15
        E 5 e0 2b 15
        E 6 e0 2b 15
        E 5 e0 2b 15
        E 5 e0 2b 15
        E 5 e0 2b 15
        E 5 e0 2b 15
        E 5 e0 2b 15
        E 5 e0 2b 15
        E 0 90 39 00
        E 82 e0 00 20
        E 0 90 32 2e
        E 6 e0 00 20
        E 5 e0 00 20
        E 6 e0 00 20
        E 5 e0 00 20
        E 6 e0 00 20
        E 5 e0 00 20
        E 6 e0 00 20
        E 5 e0 00 20
        E 6 e0 00 20
        E 5 e0 00 20
        E 6 e0 00 20
        E 5 e0 00 20
        E 0 90 32 00
        E 67 90 26 1e
        E 5 90 36 27
        E 0 90 39 20
        E 10 90 32 26
        E 36 90 3e 24
        E 15 90 36 00
        E 0 90 39 00
        E 113 90 32 00
        E 0 90 3e 00
        E 87 90 36 1f
        E 10 90 26 00
        E 97 90 36 00
        E 92 90 45 29
        E 0 90 4a 2a
        E 97 90 45 00
        E 0 90 45 29
        E 10 90 4a 00
        E 98 90 45 00
        E 76 90 36 24
        E 46 90 26 1b
        E 72 90 26 00
        E 10 90 36 00
        E 184 e0 2b 75
        E 0 90 42 22
        E 5 e0 2b 75
        E 5 e0 2b 75
        E 6 e0 2b 75
        E 5 e0 55 6a
        E 5 e0 55 6a
        E 5 e0 55 6a
        E 5 e0 00 20
        E 6 e0 00 20
        E 5 e0 00 20
        E 5 e0 55 6a
        E 5 e0 55 6a
        E 6 e0 2b 75
        E 5 e0 2b 75
        E 5 e0 00 20
        E 5 e0 2b 75
        E 6 e0 2b 75
        E 5 e0 2b 75
        E 5 e0 2b 75
        E 5 e0 00 20
        E 5 e0 00 20
        E 6 e0 00 20
        E 5 e0 00 20
        E 5 e0 00 20
        E 5 e0 00 20
        E 6 e0 00 20
        E 5 e0 00 20
        E 5 e0 00 20
        E 5 e0 00 20
        E 5 e0 00 20
        E 6 e0 00 20
        E 5 e0 00 20
        E 5 e0 00 20
        E 5 e0 2b 75
        E 6 e0 2b 75
        E 5 e0 2b 75
        E 5 e0 2b 75
        E 5 e0 2b 75
        E 6 e0 2b 75
        E 5 e0 2b 75
        E 5 e0 2b 75
        E 5 e0 2b 75
        E 5 e0 2b 75
        E 6 e0 2b 75
        E 0 90 42 00
        E 383 90 32 2c
        E 0 90 3e 39
        E 62 90 3e 00
        E 76 90 32 00
        E 118 90 32 1d
        E 5 90 39 38
        E 66 90 39 00
        E 26 90 32 00
        E 71 e0 2b 15
        E 0 90 39 30
        E 6 e0 2b 15
        E 5 e0 55 6a
        E 6 e0 55 6a
        E 5 e0 00 60
        E 6 e0 00 20
        E 6 e0 00 20
        E 5 e0 00 20
        E 6 e0 2b 15
        E 5 e0 2b 15
        E 6 e0 2b 15
        E 5 e0 2b 15
        E 6 e0 00 20
        E 0 90 39 00
        E 92 e0 2b 15
        E 0 90 45 24
        E 5 e0 2b 15
        E 5 e0 00 20
        E 5 e0 00 20
        E 5 e0 00 20
        E 5 e0 00 20
        E 5 e0 00 20
        E 6 e0 00 20
        E 5 e0 00 20
        E 5 e0 00 20
        E 5 e0 00 20
        E 5 e0 00 20
        E 5 e0 00 20
        E 5 e0 00 20
        E 6 e0 00 20
        E 5 e0 00 20
        E 5 e0 00 20
        E 5 e0 00 20
        E 5 e0 00 20
        E 5 e0 00 20
        E 5 e0 00 20
        E 5 e0 00 20
        E 6 e0 00 20
        E 5 e0 00 20
        E 5 e0 00 20
        E 5 e0 00 20
        E 0 90 45 00
        E 337 90 36 23
        E 21 90 42 29
        E 5 90 3e 21
        E 56 90 36 00
        E 0 90 42 00
        E 82 90 3e 00
        E 66 e0 55 6a
        E 0 90 26 20
        E 5 e0 55 6a
        E 6 e0 2b 15
        E 5 e0 2b 15
        E 5 e0 2b 15
        E 6 e0 2b 15
        E 5 e0 55 6a
        E 5 e0 55 6a
        E 6 e0 55 6a
        E 5 e0 55 6a
        E 5 e0 2b 75
        E 6 e0 00 20
        E 5 e0 00 20
        E 5 e0 00 20
        E 6 e0 00 20
        E 5 e0 00 20
        E 5 e0 00 20
        E 6 e0 00 20
        E 5 e0 00 20
        E 5 e0 00 20
        E 6 e0 00 20
        E 5 e0 00 20
        E 6 e0 00 20
        E 0 90 26 00
        E 179 90 36 1d
        E 10 90 45 28
        E 31 90 20 19
        E 0 90 2f 29
        E 5 90 32 31
        E 0 90 3e 3d
        E 0 90 4a 23
        E 5 90 3b 1b
        E 0 90 42 3e
        E 56 90 45 00
        E 0 90 45 2c
        E 5 90 20 00
        E 0 90 3b 00
        E 5 90 2f 00
        E 0 90 32 00
        E 5 90 3e 00
        E 6 90 42 00
        E 25 90 4a 00
        E 61 90 36 00
        E 11 90 45 00
        E 81 e0 2b 75
        E 0 90 42 2f
        E 6 e0 2b 75
        E 5 e0 2b 75
        E 5 e0 2b 75
        E 6 e0 55 6a
        E 5 e0 55 6a
        E 5 e0 55 6a
        E 6 e0 55 6a
        E 5 e0 2b 75
        E 6 e0 00 20
        E 5 e0 00 20
        E 5 e0 00 20
        E 6 e0 00 20
        E 5 e0 00 20
        E 5 e0 55 6a
        E 6 e0 55 6a
        E 5 e0 55 6a
        E 5 e0 2b 75
        E 6 e0 2b 75
        E 5 e0 2b 75
        E 5 e0 2b 75
        E 6 e0 00 20
        E 0 90 42 00
        E 66 90 36 1f
        E 10 90 45 28
        E 97 90 45 00
        E 21 90 2f 1d
        E 0 90 32 2f
        E 5 90 26 20
        E 0 90 39 31
        E 0 90 4a 2f
        E 5 90 3e 38
        E 0 90 45 30
        E 5 90 42 25
        E 56 90 2f 00
        E 6 90 32 00
        E 0 90 42 00
        E 0 90 42 29
        E 5 90 26 00
        E 0 90 4a 00
        E 5 90 3e 00
        E 0 90 45 00
        E 15 90 39 00
        E 15 90 36 00
        E 77 90 42 00
        E 67 90 39 27
        E 5 90 4a 24
        E 102 90 4a 00
        E 26 90 39 00
        E 61 90 3d 2b
        E 0 90 40 2b
        E 0 90 4c 2e
        E 26 90 4e 21
        E 40 90 3d 00
        E 0 90 40 00
        E 0 90 4c 00
        E 21 90 4e 00
        E 15 90 45 20
        E 5 90 4a 2f
        E 21 90 3e 17
        E 30 90 39 25
        E 11 90 4a 00
        E 41 90 3e 00
        E 5 90 3e 28
        E 0 90 42 2d
        E 5 90 39 00
        E 5 90 45 00
        E 51 90 3e 00
        E 10 90 42 00
        E 563 90 32 36
        E 5 90 3e 3b
        E 0 90 42 33
        E 0 90 45 30
        E 61 90 32 00
        E 0 90 3e 00
        E 0 90 42 00
        E 0 90 45 00
        E 358 90 36 28
        E 0 90 3e 2c
        E 51 90 42 39
        E 46 90 2f 15
        E 10 90 36 00
        E 0 90 3e 00
        E 5 90 42 00
        E 26 90 3e 2e
        E 0 90 45 36
        E 0 90 4a 29
        E 5 90 42 3c
        E 61 90 3e 00
        E 0 90 3e 29
        E 5 90 2f 00
        E 5 90 4a 00
        E 5 90 45 00
        E 11 90 42 00
        E 92 90 3e 00
        E 153 90 26 18
        E 113 90 2f 11
        E 0 90 36 22
        E 10 90 45 1f
        E 36 90 26 00
        E 5 90 42 27
        E 41 90 39 28
        E 0 90 3e 25
        E 5 90 45 00
        E 0 90 45 38
        E 46 90 2f 00
        E 10 90 36 00
        E 0 90 39 00
        E 10 90 42 00
        E 0 90 45 00
        E 67 90 3e 00
        E 383 90 2a 29
        E 0 90 3d 41
        E 5 90 37 35
        E 0 90 39 1d
        E 11 90 40 22
        E 0 90 43 2d
        E 51 90 2a 00
        E 5 90 37 00
        E 5 90 3d 00
        E 0 90 43 00
        E 61 90 32 29
        E 5 90 3e 24
        E 5 90 39 00
        E 5 90 40 00
        E 67 90 3e 00
        E 5 90 3e 2d
        E 5 90 32 00
        E 61 90 3e 00
        E 731 90 2f 15
        E 0 90 36 2e
        E 11 90 3e 22
        E 51 90 32 18
        E 5 90 2f 00
        E 5 90 3e 00
        E 5 90 36 00
        E 51 90 3e 2c
        E 5 90 45 2e
        E 46 90 36 16
        E 5 90 3c 0d
        E 5 90 3e 00
        E 41 90 2f 16
        E 0 90 39 1a
        E 0 90 3e 2a
        E 5 90 42 2f
        E 6 90 45 00
        E 0 90 45 24
        E 35 90 2a 13
        E 11 90 36 00
        E 10 90 42 00
        E 20 90 36 17
        E 5 90 32 00
        E 0 90 42 1b
        E 0 90 45 00
        E 0 90 45 2f
        E 11 90 39 00
        E 5 90 3e 00
        E 30 90 2a 00
        E 0 90 2f 00
        E 5 90 3c 00
        E 36 90 32 15
        E 5 90 39 1a
        E 0 90 3e 27
        E 5 90 45 00
        E 0 90 45 36
        E 51 90 42 00
        E 0 90 42 1e
        E 16 90 45 00
        E 30 90 45 29
        E 0 90 4a 2a
        E 6 90 39 00
        E 10 90 3e 00
        E 25 90 3e 26
        E 5 90 32 00
        E 6 90 36 00
        E 10 90 4a 00
        E 46 90 45 00
        E 16 90 26 28
        E 10 90 4a 1b
        E 5 90 3e 00
        E 0 90 3e 2d
        E 41 90 32 24
        E 10 90 26 00
        E 0 90 42 00
        E 0 90 42 29
        E 0 90 4e 25
        E 51 90 3e 00
        E 0 90 3e 25
        E 0 90 45 23
        E 0 90 4a 00
        E 5 90 32 00
        E 10 90 42 00
        E 41 90 4e 00
        E 26 90 42 29
        E 15 90 45 00
        E 46 90 3e 00
        E 26 90 39 15
        E 0 90 3e 1f
        E 5 90 45 21
        E 82 90 36 1b
        E 5 90 3c 11
        E 5 90 39 00
        E 5 90 45 00
        E 36 90 32 1e
        E 15 90 4e 1d
        E 31 90 45 22
        E 10 90 3c 00
        E 0 90 3e 00
        E 0 90 3e 1e
        E 51 90 32 00
        E 10 90 4e 00
        E 31 90 26 2b
        E 5 90 21 15
        E 0 90 2d 20
        E 15 90 39 23
        E 5 90 42 00
        E 0 90 42 23
        E 5 90 45 00
        E 31 90 2a 18
        E 5 90 26 00
        E 5 90 21 00
        E 16 90 3e 00
        E 30 90 45 1f
        E 5 90 2a 00
        E 11 90 2d 00
        E 0 90 36 00
        E 5 90 42 00
        E 30 90 3e 21
        E 5 90 4a 26
        E 31 90 36 1d
        E 5 90 40 1d
        E 5 90 42 21
        E 36 90 3e 00
        E 5 90 3e 22
        E 0 90 4a 00
        E 0 90 4a 2c
        E 41 90 45 00
        E 0 90 45 29
        E 1 90 39 00
        E 0 90 39 1e
        E 5 90 36 00
        E 46 90 40 00
        E 15 90 4a 00
        E 31 90 3d 19
        E 0 90 3e 00
        E 5 90 39 00
        E 0 90 45 00
        E 5 90 42 00
        E 76 90 3d 00
        E 0 90 45 25
        E 87 90 3b 10
        E 11 90 42 29
        E 10 90 45 00
        E 36 90 3e 22
        E 5 90 3b 00
        E 30 90 36 25
        E 26 90 42 00
        E 25 90 40 29
        E 5 90 45 1a
        E 6 90 36 00
        E 51 90 40 00
        E 35 90 42 30
        E 11 90 45 00
        E 30 90 39 1a
        E 5 90 40 24
        E 0 90 4c 1e
        E 11 90 3e 00
        E 5 90 42 00
        E 25 90 34 18
        E 0 90 3c 14
        E 16 90 39 00
        E 35 90 32 23
        E 5 90 3e 20
        E 0 90 42 1c
        E 6 90 34 00
        E 5 90 4c 00
        E 5 90 40 00
        E 25 90 45 31
        E 16 90 32 00
        E 30 90 40 1b
        E 16 90 3e 00
        E 0 90 42 00
        E 0 90 45 00
        E 40 90 3c 00
        E 52 90 2f 17
        E 5 90 3e 21
        E 10 90 40 00
        E 5 90 42 1a
        E 47 90 32 1c
        E 0 90 3e 00
        E 0 90 45 28
        E 5 90 2f 00
        E 0 90 3e 27
        E 41 90 3b 13
        E 10 90 42 00
        E 5 90 45 00
        E 31 90 39 15
        E 0 90 45 3d
        E 15 90 3e 00
        E 25 90 36 20
        E 5 90 3e 2b
        E 0 90 4a 18
        E 6 90 3b 00
        E 15 90 45 00
        E 31 90 3b 18
        E 0 90 42 28
        E 0 90 45 33
        E 51 90 36 00
        E 5 90 3e 00
        E 5 90 45 00
        E 25 90 2f 12
        E 0 90 3e 35
        E 0 90 45 2b
        E 6 90 51 26
        E 5 90 3b 00
        E 0 90 4a 00
        E 5 90 39 00
        E 35 90 32 00
        E 11 90 3e 00
        E 0 90 45 00
        E 5 90 42 00
        E 25 90 3e 2d
        E 0 90 42 27
        E 0 90 45 2c
        E 5 90 2f 00
        E 11 90 51 00
        E 30 90 32 1d
        E 16 90 42 00
        E 51 90 45 00
        E 25 90 2f 1e
        E 11 90 3e 00
        E 0 90 3e 1f
        E 45 90 45 19
        E 6 90 2f 00
        E 92 90 32 00
        E 35 90 36 1a
        E 0 90 42 2b
        E 5 90 45 00
        E 31 90 32 17
        E 46 90 45 2b
        E 15 90 42 00
        E 31 90 42 25
        E 5 90 4e 24
        E 6 90 45 00
        E 20 90 26 23
        E 10 90 2f 11
        E 6 90 3e 00
        E 0 90 3e 21
        E 51 90 26 00
        E 0 90 39 1c
        E 5 90 36 00
        E 0 90 4e 00
        E 0 90 4e 23
        E 5 90 3e 00
        E 30 90 2f 00
        E 0 90 3e 2c
        E 6 90 45 21
        E 46 90 32 00
        E 10 90 3e 00
        E 0 90 4e 00
        E 30 90 36 3b
        E 11 90 39 00
        E 5 90 39 25
        E 56 90 36 00
        E 36 90 39 00
        E 0 90 39 25
        E 5 90 42 00
        E 10 90 45 00
        E 56 90 36 20
        E 5 90 2a 16
        E 5 90 45 13
        E 6 90 42 23
        E 35 90 32 19
        E 0 90 3e 27
        E 46 90 45 00
        E 5 90 2a 00
        E 0 90 40 1f
        E 0 90 45 22
        E 11 90 42 00
        E 35 90 32 00
        E 0 90 36 00
        E 5 90 39 00
        E 6 90 3e 00
        E 30 90 3d 3d
        E 21 90 45 00
        E 30 90 4c 1e
        E 11 90 3d 00
        E 30 90 39 2b
        E 0 90 42 29
        E 16 90 40 00
        E 35 90 45 25
        E 5 90 4c 00
        E 36 90 32 23
        E 21 90 3e 21
        E 0 90 42 00
        E 0 90 42 21
        E 5 90 45 00
        E 5 90 39 00
        E 36 90 32 00
        E 77 90 34 25
        E 0 90 3b 1e
        E 46 90 39 1f
        E 10 90 3e 00
        E 0 90 3e 18
        E 5 90 3b 00
        E 5 90 34 00
        E 0 90 42 00
        E 82 90 39 00
        E 10 90 3e 00
        E 26 90 34 17
        E 5 90 40 2c
        E 5 90 45 17
        E 61 90 3e 2d
        E 5 90 34 00
        E 0 90 45 00
        E 11 90 40 00
        E 51 90 3e 00
        E 189 90 23 0f
        E 5 90 26 17
        E 10 90 2b 0d
        E 0 90 36 1d
        E 5 90 3e 36
        E 0 90 42 21
        E 41 90 32 1a
        E 5 90 23 00
        E 0 90 26 00
        E 20 90 3e 00
        E 31 90 2b 00
        E 5 90 3e 2e
        E 10 90 36 00
        E 0 90 42 00
        E 26 90 45 1f
        E 25 90 3e 00
        E 26 90 3e 32
        E 5 90 36 20
        E 92 90 36 00
        E 5 90 3e 00
        E 42 90 45 00
        E 25 90 2a 1d
        E 0 90 36 19
        E 0 90 39 11
        E 0 90 45 26
        E 5 90 3e 2c
        E 46 90 42 27
        E 46 90 2a 00
        E 10 90 3e 00
        E 31 90 3e 2a
        E 5 90 36 00
        E 0 90 45 00
        E 0 90 45 35
        E 10 90 42 00
        E 41 90 39 00
        E 11 90 45 00
        E 25 90 4a 33
        E 5 90 36 1e
        E 15 90 32 00
        E 26 90 32 2e
        E 5 90 45 36
        E 5 90 3e 00
        E 0 90 3e 27
        E 0 90 42 20
        E 5 90 4a 00
        E 36 90 36 00
        E 15 90 32 00
        E 0 90 45 00
        E 67 90 45 26
        E 5 90 42 00
        E 0 90 42 2a
        E 56 90 45 00
        E 26 90 32 1d
        E 5 90 45 35
        E 15 90 3e 00
        E 26 90 3e 21
        E 20 90 45 00
        E 21 90 36 1b
        E 61 90 36 00
        E 0 90 42 00
        E 0 90 42 2b
        E 25 90 45 21
        E 36 90 3e 00
        E 5 90 42 00
        E 16 90 2f 14
        E 5 90 36 1b
        E 5 90 32 00
        E 36 90 26 23
        E 5 90 2a 1c
        E 0 90 2d 1b
        E 5 90 42 34
        E 5 90 2f 00
        E 0 90 39 2c
        E 0 90 3e 29
        E 20 90 45 00
        E 26 90 26 00
        E 6 90 2a 00
        E 10 90 3e 00
        E 0 90 42 00
        E 35 90 45 1a
        E 6 90 2d 00
        E 0 90 36 00
        E 40 90 4a 20
        E 11 90 39 00
        E 25 90 36 1c
        E 0 90 39 26
        E 5 90 40 1d
        E 5 90 42 20
        E 31 90 3e 1e
        E 5 90 4a 00
        E 0 90 4a 31
        E 46 90 45 00
        E 0 90 45 29
        E 10 90 42 00
        E 36 90 36 00
        E 5 90 40 00
        E 5 90 39 00
        E 11 90 4a 00
        E 30 90 3d 1d
        E 0 90 3e 00
        E 10 90 45 00
        E 31 90 39 1d
        E 51 90 45 18
        E 87 90 32 27
        E 15 90 39 00
        E 0 90 3d 00
        E 0 90 42 2b
        E 5 90 45 00
        E 46 90 3e 2a
        E 6 90 32 00
        E 56 90 42 00
        E 5 90 3e 00
        E 61 90 3e 27
        E 0 90 42 26
        E 87 90 40 24
        E 10 90 42 00
        E 10 90 3e 00
        E 41 90 40 00
        E 21 90 42 2f
        E 5 90 3e 24
        E 0 90 45 26
        E 57 90 42 00
        E 46 90 3e 00
        E 0 90 45 00
        E 30 e0 00 60
        E 0 90 37 19
        E 6 e0 00 60
        E 5 e0 00 60
        E 6 e0 00 60
        E 5 e0 00 60
        E 6 e0 00 60
        E 5 e0 00 60
        E 6 e0 00 60
        E 5 e0 00 60
        E 6 e0 00 60
        E 6 e0 00 60
        E 5 e0 55 6a
        E 6 e0 55 6a
        E 0 90 37 00
        E 0 90 3e 25
        E 81 90 45 23
        E 41 90 32 21
        E 5 90 3b 12
        E 0 90 42 13
        E 11 90 3e 00
        E 30 90 3e 2e
        E 5 90 45 00
        E 0 90 4a 1c
        E 5 90 45 32
        E 36 90 26 17
        E 5 90 36 1c
        E 0 90 42 00
        E 5 90 42 26
        E 16 90 45 00
        E 25 90 45 39
        E 5 90 3e 00
        E 0 90 3e 2d
        E 0 90 4a 00
        E 0 90 4a 18
        E 46 90 47 12
        E 16 90 3e 00
        E 0 90 45 00
        E 25 90 3e 2e
        E 0 90 45 2b
        E 5 90 51 22
        E 5 90 4a 00
        E 36 90 26 00
        E 10 90 32 00
        E 0 90 3b 00
        E 0 90 47 00
        E 11 90 3e 00
        E 0 90 45 00
        E 25 90 3e 33
        E 0 90 45 37
        E 5 90 42 00
        E 0 90 42 20
        E 10 90 51 00
        E 31 90 32 1c
        E 15 90 36 00
        E 6 90 3e 00
        E 0 90 45 00
        E 25 90 2f 1b
        E 0 90 3e 29
        E 0 90 45 2b
        E 61 90 3e 00
        E 0 90 3e 36
        E 0 90 4a 17
        E 16 90 45 00
        E 41 90 45 25
        E 5 90 2f 00
        E 0 90 3e 00
        E 0 90 3e 1f
        E 0 90 42 00
        E 0 90 42 26
        E 87 90 2f 17
        E 0 90 36 1a
        E 10 90 32 00
        E 51 90 42 00
        E 0 90 42 25
        E 0 90 45 00
        E 0 90 4a 00
        E 26 90 32 1e
        E 5 90 2f 00
        E 41 90 39 18
        E 15 90 45 1e
        E 36 90 32 00
        E 41 90 2f 17
        E 10 90 42 00
        E 0 90 42 2a
        E 0 90 45 00
        E 0 90 45 1f
        E 31 90 32 1e
        E 56 90 2f 00
        E 0 90 45 00
        E 0 90 45 27
        E 5 90 36 00
        E 41 90 32 00
        E 5 90 3e 00
        E 26 90 2d 28
        E 15 90 39 00
        E 5 90 39 27
        E 10 90 45 00
        E 51 90 42 00
        E 31 90 39 00
        E 0 90 39 25
        E 5 90 2d 00
        E 0 90 45 21
        E 87 90 42 22
        E 10 90 45 00
        E 26 90 3e 26
        E 5 90 4a 2d
        E 41 90 40 1c
        E 5 90 39 00
        E 0 90 39 1f
        E 10 90 42 00
        E 46 90 3e 00
        E 5 90 4a 00
        E 26 90 3d 2d
        E 41 90 4c 21
        E 41 90 42 25
        E 10 90 3d 00
        E 5 90 40 00
        E 5 90 39 00
        E 67 90 32 23
        E 10 90 36 23
        E 0 90 39 21
        E 0 90 45 17
        E 15 90 42 00
        E 0 90 42 1b
        E 0 90 4c 00
        E 41 90 32 00
        E 0 90 3e 20
        E 51 90 39 00
        E 5 90 45 00
        E 26 90 32 17
        E 0 90 34 11
        E 15 90 36 00
        E 31 90 39 1b
        E 15 90 42 00
        E 5 90 3e 00
        E 31 90 32 00
        E 0 90 34 00
        E 82 90 34 17
        E 5 90 39 00
        E 5 90 40 25
        E 0 90 45 14
        E 66 90 34 00
        E 0 90 45 00
        E 5 90 40 00
        E 230 90 2d 25
        E 51 90 39 27
        E 0 90 40 27
        E 42 90 36 16
        E 20 90 49 1f
        E 31 90 34 20
        E 46 90 3d 31
        E 0 90 4c 3c
        E 5 90 40 00
        E 0 90 40 2c
        E 0 90 45 1e
        E 0 90 49 00
        E 0 90 49 2c
        E 36 90 31 1c
        E 10 90 34 00
        E 15 90 4c 00
        E 26 90 3d 00
        E 0 90 40 00
        E 0 90 40 30
        E 0 90 4c 22
        E 5 90 3d 26
        E 0 90 49 00
        E 0 90 49 21
        E 36 90 34 1e
        E 5 90 36 00
        E 0 90 43 3a
        E 5 90 31 00
        E 10 90 45 00
        E 31 90 4f 1a
        E 5 90 40 00
        E 0 90 40 2c
        E 5 90 3d 00
        E 5 90 43 00
        E 26 90 32 1e
        E 10 90 42 24
        E 5 90 3e 2b
        E 0 90 45 29
        E 0 90 4c 00
        E 5 90 34 00
        E 0 90 4f 00
        E 5 90 2d 00
        E 0 90 39 00
        E 0 90 40 00
        E 0 90 49 00
        E 36 90 4a 23
        E 36 90 36 35
        E 0 90 39 1c
        E 0 90 51 35
        E 5 90 4e 31
        E 5 90 3e 00
        E 0 90 3e 24
        E 0 90 42 00
        E 0 90 42 3e
        E 15 90 45 00
        E 26 90 45 30
        E 10 90 36 00
        E 0 90 51 00
        E 5 90 4e 00
        E 5 90 42 00
        E 26 90 2d 29
        E 5 90 34 1c
        E 5 90 32 00
        E 0 90 39 00
        E 0 90 40 24
        E 5 90 39 23
        E 10 90 45 00
        E 41 90 3e 00
        E 0 90 4a 00
        E 41 90 34 00
        E 10 90 2d 00
        E 41 90 45 23
        E 107 90 2d 1c
        E 0 90 4a 23
        E 21 90 45 00
        E 25 90 45 30
        E 57 90 2d 00
        E 5 90 40 00
        E 0 90 45 00
        E 26 90 45 1c
        E 5 90 4a 00
        E 0 90 4a 1c
        E 36 90 4f 37
        E 51 90 3e 10
        E 0 90 42 1e
        E 5 90 4a 00
        E 5 90 39 00
        E 5 90 4f 00
        E 20 90 39 1d
        E 6 90 40 26
        E 10 90 45 00
        E 41 90 32 25
        E 0 90 3e 00
        E 5 90 3e 34
        E 5 90 40 00
        E 61 90 32 00
        E 5 90 39 00
        E 5 90 3e 00
        E 36 90 42 00
        E 0 90 42 22
        E 36 90 32 1d
        E 0 90 4a 29
        E 36 90 36 1d
        E 0 90 3e 2f
        E 5 90 42 00
        E 0 90 42 25
        E 0 90 45 23
        E 0 90 4e 25
        E 61 90 4e 00
        E 31 90 42 00
        E 0 90 42 37
        E 0 90 45 00
        E 0 90 45 23
        E 5 90 3e 00
        E 0 90 3e 1d
        E 10 90 4a 00
        E 31 90 36 00
        E 15 90 42 00
        E 20 90 34 1b
        E 16 90 32 00
        E 10 90 45 00
        E 36 90 40 2c
        E 5 90 3e 00
        E 36 90 43 38
        E 35 90 3c 1d
        E 11 90 34 00
        E 10 90 40 00
        E 5 90 43 00
        E 25 90 26 1d
        E 11 90 32 1b
        E 10 90 3c 00
        E 0 90 3e 24
        E 46 90 26 00
        E 5 90 42 28
        E 41 90 3e 00
        E 0 90 3e 1d
        E 52 90 32 00
        E 10 90 42 00
        E 25 90 34 11
        E 11 90 40 29
        E 40 90 32 18
        E 11 90 34 00
        E 10 90 40 00
        E 30 90 42 1e
        E 52 90 32 00
        E 40 90 4a 19
        E 6 90 3e 00
        E 5 90 42 00
        E 35 90 3e 35
        E 0 90 42 3d
        E 57 90 4a 00
        E 10 90 3e 00
        E 0 90 42 00
        E 30 e0 00 20
        E 0 90 3e 23
        E 6 e0 00 20
        E 5 e0 00 20
        E 6 e0 00 20
        E 5 e0 00 20
        E 6 e0 00 20
        E 5 e0 00 20
        E 6 e0 00 20
        E 5 e0 00 20
        E 6 e0 00 20
        E 5 e0 00 20
        E 6 e0 00 20
        E 5 e0 00 20
        E 6 e0 00 20
        E 0 90 32 27
        E 0 90 3e 00
        E 0 90 3e 2b
        E 82 90 3e 00
        E 0 90 3e 25
        E 5 90 32 00
        E 25 90 26 17
        E 5 90 2f 2b
        E 46 90 32 24
        E 6 90 42 31
        E 10 90 2f 00
        E 30 90 2a 25
        E 6 90 34 19
        E 5 90 39 23
        E 0 90 40 1c
        E 5 90 45 29
        E 10 90 42 00
        E 36 90 2a 00
        E 0 90 3e 00
        E 0 90 3e 21
        E 0 90 4a 26
        E 5 90 34 00
        E 5 90 32 00
        E 36 90 26 00
        E 5 90 40 00
        E 0 90 42 2d
        E 15 90 39 00
        E 0 90 45 00
        E 26 90 32 14
        E 21 90 42 00
        E 41 90 37 25
        E 5 90 32 00
        E 10 90 4a 00
        E 102 90 34 1e
        E 0 90 3b 28
        E 0 90 43 2f
        E 0 90 4a 1c
        E 20 90 3e 00
        E 26 90 3e 27
        E 5 90 47 2b
        E 10 90 43 00
        E 5 90 37 00
        E 26 90 2f 29
        E 15 90 3e 00
        E 0 90 3e 31
        E 5 90 34 00
        E 6 90 3b 00
        E 0 90 42 24
        E 0 90 47 00
        E 30 90 32 1c
        E 5 90 2f 00
        E 5 90 4a 00
        E 31 90 36 20
        E 0 90 3b 22
        E 0 90 4a 24
        E 20 90 3e 00
        E 26 90 39 29
        E 5 90 3e 2b
        E 5 90 45 31
        E 5 90 36 00
        E 0 90 3b 00
        E 11 90 42 00
        E 40 90 4a 00
        E 6 90 39 00
        E 0 90 45 00
        E 35 90 32 00
        E 0 90 3e 00
        E 31 90 40 26
        E 41 90 3e 27
        E 51 90 37 26
        E 0 90 43 2b
        E 20 90 3e 00
        E 5 90 40 00
        E 41 90 43 00
        E 31 90 3e 21
        E 5 90 3b 27
        E 0 90 43 37
        E 0 90 47 39
        E 0 90 4a 35
        E 56 90 53 27
        E 5 90 37 00
        E 0 90 3b 00
        E 0 90 43 00
        E 0 90 4a 00
        E 5 90 47 00
        E 47 90 2f 1f
        E 5 90 32 19
        E 0 90 4a 1f
        E 5 90 3e 00
        E 5 90 3e 26
        E 0 90 42 1b
        E 11 90 53 00
        E 46 90 2f 00
        E 91 90 45 2a
        E 0 90 51 29
        E 46 90 2d 2d
        E 6 90 34 22
        E 5 90 32 00
        E 0 90 39 1e
        E 5 90 3d 21
        E 0 90 3e 00
        E 0 90 40 25
        E 0 90 45 00
        E 5 90 42 00
        E 0 90 45 19
        E 10 90 51 00
        E 41 90 2d 00
        E 0 90 34 00
        E 0 90 4f 1a
        E 10 90 4a 00
        E 51 90 45 00
        E 0 90 45 25
        E 16 90 39 00
        E 56 90 3d 00
        E 0 90 40 00
        E 30 90 26 2c
        E 0 90 32 26
        E 6 90 36 1e
        E 10 90 3e 2b
        E 5 90 42 26
        E 0 90 4f 00
        E 61 90 26 00
        E 0 90 4a 1e
        E 5 90 42 00
        E 0 90 42 2f
        E 21 90 45 00
        E 92 90 36 00
        E 10 90 32 00
        E 0 90 4a 00
        E 10 90 3e 00
        E 5 90 42 00
        E 92 90 3d 25
        E 82 90 2a 16
        E 0 90 40 1e
        E 5 90 2d 14
        E 0 90 36 17
        E 0 90 42 14
        E 5 90 39 1e
        E 47 90 21 13
        E 5 90 42 00
        E 5 90 42 14
        E 46 90 2d 00
        E 10 90 3d 00
        E 46 90 45 12
        E 5 90 4a 28
        E 46 90 21 00
        E 0 90 3d 2c
        E 51 90 2a 00
        E 0 90 36 00
        E 0 90 40 00
        E 0 90 45 00
        E 5 90 42 00
        E 5 90 3d 00
        E 41 90 39 00
        E 5 90 4a 00
        E 128 e0 00 20
        E 0 90 21 1e
        E 6 e0 00 20
        E 5 e0 00 20
        E 5 e0 00 20
        E 6 e0 00 20
        E 5 e0 2b 15
        E 6 e0 2b 15
        E 5 e0 00 20
        E 6 e0 00 20
        E 5 e0 00 20
        E 6 e0 00 20
        E 5 e0 00 20
        E 5 e0 00 20
        E 6 e0 00 20
        E 5 e0 00 20
        E 6 e0 00 20
        E 0 90 21 00
        E 337 90 32 23
        E 5 90 36 23
        E 5 90 3e 27
        E 0 90 42 24
        E 37 90 3b 15
        E 56 90 2f 1c
        E 10 90 45 30
        E 5 90 3b 00
        E 0 90 3e 00
        E 0 90 3e 27
        E 5 90 32 00
        E 5 90 36 00
        E 5 90 42 00
        E 41 90 2f 00
        E 5 90 3e 00
        E 5 90 45 00
        E 26 90 2a 10
        E 0 90 32 17
        E 0 90 36 1b
        E 0 90 39 1c
        E 0 90 3e 31
        E 0 90 45 29
        E 46 90 2f 19
        E 20 90 42 29
        E 36 90 2a 00
        E 0 90 45 00
        E 0 90 45 36
        E 5 90 39 00
        E 10 90 3e 00
        E 46 90 42 00
        E 0 90 45 00
        E 26 90 3e 28
        E 0 90 42 1e
        E 0 90 45 32
        E 51 90 3b 1a
        E 5 90 32 00
        E 10 90 45 00
        E 31 90 45 2d
        E 5 90 2f 00
        E 15 90 3e 00
        E 26 90 3e 27
        E 10 90 36 00
        E 5 90 3b 00
        E 0 90 42 00
        E 31 90 32 1e
        E 15 90 45 00
        E 31 90 4a 1a
        E 10 90 3e 00
        E 0 90 3e 2d
        E 46 90 45 22
        E 36 90 3a 1b
        E 5 90 4a 00
        E 0 90 4a 12
        E 10 90 3e 00
        E 31 90 3e 20
        E 5 90 4e 28
        E 5 90 45 00
        E 36 90 45 24
        E 5 90 4a 00
        E 5 90 32 00
        E 5 90 3a 00
        E 41 90 4e 00
        E 0 90 4e 2e
        E 5 90 45 00
        E 26 90 45 2b
        E 5 90 42 1f
        E 62 90 4e 00
        E 30 90 36 1d
        E 5 90 42 00
        E 6 90 42 2d
        E 5 90 45 00
        E 30 90 32 20
        E 51 90 39 25
        E 51 90 45 2e
        E 11 90 32 00
        E 0 90 3e 00
        E 35 90 2a 18
        E 6 90 39 00
        E 0 90 39 29
        E 15 90 42 00
        E 0 90 42 19
        E 5 90 45 00
        E 66 90 21 1a
        E 0 90 2d 1f
        E 11 90 45 34
        E 5 90 2a 00
        E 5 90 36 00
        E 36 90 3e 26
        E 10 90 4a 23
        E 5 90 45 00
        E 31 90 21 00
        E 0 90 40 1c
        E 0 90 45 2a
        E 5 90 39 00
        E 0 90 39 1f
        E 0 90 42 00
        E 0 90 42 1f
        E 0 90 4c 1c
        E 46 90 4a 00
        E 0 90 4a 2f
        E 10 90 3e 00
        E 25 90 36 18
        E 16 90 4c 00
        E 10 90 45 00
        E 20 90 3e 2e
        E 6 90 45 26
        E 5 90 40 00
        E 20 90 4a 00
        E 20 90 2d 00
        E 0 90 36 00
        E 16 90 3d 1a
        E 0 90 3e 00
        E 0 90 45 00
        E 5 90 42 00
        E 25 90 40 15
        E 52 90 42 21
        E 0 90 45 28
        E 51 90 3d 00
        E 41 90 32 25
        E 10 90 3e 2b
        E 0 90 40 00
        E 0 90 42 00
        E 0 90 42 2a
        E 5 90 45 00
        E 6 90 39 00
        E 35 90 32 00
        E 51 90 3e 00
        E 5 90 42 00
        E 21 90 40 26
        E 5 90 45 12
        E 46 90 32 1a
        E 0 90 3e 29
        E 10 90 40 00
        E 0 90 42 26
        E 87 90 45 00
        E 5 90 32 00
        E 0 90 42 00
        E 5 90 3e 00
        E 72 90 42 33
        E 10 90 3e 23
        E 41 90 4a 22
        E 10 90 42 00
        E 46 90 3e 00
        E 5 90 4a 00
        E 97 90 3e 1e
        E 5 90 42 1a
        E 82 90 32 1a
        E 0 90 45 2f
        E 5 90 3e 00
        E 0 90 3e 1f
        E 46 90 39 15
        E 15 90 45 00
        E 31 90 3e 00
        E 0 90 3e 28
        E 0 90 45 29
        E 46 90 36 1e
        E 0 90 4a 2d
        E 5 90 2f 19
        E 0 90 3b 1c
        E 10 90 42 00
        E 0 90 42 2c
        E 36 90 45 00
        E 0 90 45 3c
        E 5 90 39 00
        E 0 90 51 1d
        E 5 90 4a 00
        E 32 90 47 13
        E 0 90 4a 1e
        E 5 90 36 00
        E 5 90 2f 00
        E 0 90 3e 00
        E 10 90 42 00
        E 0 90 45 00
        E 26 90 3e 2c
        E 5 90 45 36
        E 5 90 3b 00
        E 5 90 4a 00
        E 46 90 3e 00
        E 5 90 45 00
        E 26 90 3e 35
        E 0 90 45 31
        E 5 90 42 21
        E 5 90 47 00
        E 10 90 51 00
        E 41 90 3e 00
        E 30 90 3e 31
        E 21 90 45 00
        E 87 90 45 20
        E 10 90 3e 00
        E 0 90 3e 20
        E 10 90 42 00
        E 72 90 36 18
        E 15 90 45 00
        E 41 90 42 2f
        E 41 90 3e 00
        E 0 90 3e 20
        E 61 90 3e 00
        E 0 90 42 00
        E 26 90 3e 1d
        E 0 90 42 2d
        E 102 90 32 00
        E 0 90 42 00
        E 0 90 42 22
        E 36 90 32 34
        E 0 90 39 22
        E 10 90 36 00
        E 0 90 3e 00
        E 0 90 3e 24
        E 0 90 45 18
        E 61 90 32 00
        E 26 90 2d 1e
        E 10 90 36 38
        E 5 90 39 00
        E 0 90 39 20
        E 52 90 36 00
        E 5 90 3e 00
        E 5 90 42 00
        E 112 90 36 30
        E 15 90 2d 00
        E 0 90 42 28
        E 6 90 45 00
        E 25 90 3e 2a
        E 10 90 4a 25
        E 5 90 36 00
        E 36 90 39 00
        E 0 90 39 29
        E 10 90 3e 00
        E 6 90 42 00
        E 40 90 4a 00
        E 6 90 39 00
        E 40 90 3d 2a
        E 36 90 40 15
        E 61 90 3d 00
        E 36 90 40 00
        E 148 90 36 29
        E 11 90 3e 1f
        E 5 90 42 1d
        E 35 90 32 1a
        E 16 90 36 00
        E 46 90 32 00
        E 0 90 3e 00
        E 0 90 42 00
        E 81 90 42 28
        E 0 90 45 0f
        E 47 90 40 2c
        E 10 90 42 00
        E 56 90 45 00
        E 11 90 40 00
        E 245 90 26 29
        E 20 90 32 32
        E 0 90 3e 2f
        E 31 90 3b 16
        E 0 90 42 22
        E 5 90 45 22
        E 0 90 4a 2a
        E 0 90 4e 29
        E 51 90 3e 00
        E 0 90 3e 2c
        E 5 90 26 00
        E 0 90 32 00
        E 0 90 32 1e
        E 5 90 4e 00
        E 57 90 32 00
        E 35 90 3b 00
        E 16 90 3e 00
        E 0 90 42 00
        E 0 90 45 00
        E 0 90 4a 00
        E 25 90 32 18
        E 5 90 40 28
        E 51 90 4a 0f
        E 5 90 32 00
        E 11 90 40 00
        E 66 90 32 22
        E 41 90 39 3c
        E 5 90 4a 00
        E 5 90 45 2d
        E 0 90 4a 36
        E 5 90 3e 38
        E 46 90 39 00
        E 5 90 32 00
        E 5 90 45 00
        E 0 90 4a 00
        E 6 90 3e 00
        E 25 90 36 27
        E 26 90 45 2c
        E 10 90 39 27
        E 52 90 26 23
        E 5 90 32 30
        E 0 90 3e 2d
        E 0 90 42 1d
        E 0 90 4a 26
        E 10 90 45 00
        E 5 90 36 00
        E 46 90 32 00
        E 0 90 32 24
        E 0 90 3e 00
        E 0 90 3e 26
        E 5 90 39 00
        E 41 90 26 00
        E 41 90 45 1a
        E 10 90 42 00
        E 5 90 32 00
        E 0 90 4a 00
        E 5 90 3e 00
        E 26 90 40 1d
        E 36 90 4a 1d
        E 15 90 3e 21
        E 46 90 4a 00
        E 5 90 40 00
        E 0 90 45 00
        E 31 90 3e 00
        E 0 90 3e 25
        E 35 90 26 1b
        E 0 90 32 20
        E 5 90 2a 1a
        E 0 90 45 30
        E 0 90 4a 2c
        E 6 90 39 26
        E 0 90 42 19
        E 46 90 3e 00
        E 0 90 3e 2f
        E 10 90 32 00
        E 0 90 4a 00
        E 5 90 45 00
        E 36 90 26 00
        E 0 90 2a 00
        E 10 90 42 00
        E 5 90 3e 00
        E 36 90 39 00
        E 20 90 26 28
        E 0 90 32 34
        E 10 90 2f 3e
        E 0 90 3b 2e
        E 0 90 3e 37
        E 0 90 42 26
        E 0 90 4a 25
        E 67 90 26 00
        E 0 90 32 00
        E 5 90 2f 00
        E 0 90 3e 00
        E 56 90 2f 29
        E 5 90 47 28
        E 5 90 23 1e
        E 0 90 3b 00
        E 0 90 3b 23
        E 0 90 3e 27
        E 16 90 42 00
        E 35 90 34 27
        E 0 90 40 22
        E 5 90 2b 29
        E 11 90 3e 00
        E 0 90 47 00
        E 0 90 4a 00
        E 41 90 3b 00
        E 21 90 23 00
        E 5 90 2f 00
        E 10 90 34 00
        E 5 90 37 29
        E 15 90 43 27
        E 16 90 4c 27
        E 46 90 31 32
        E 0 90 3d 24
        E 10 90 2d 29
        E 0 90 34 2c
        E 0 90 40 00
        E 0 90 40 2c
        E 5 90 2b 00
        E 0 90 37 00
        E 5 90 43 00
        E 0 90 4c 00
        E 72 90 31 00
        E 15 90 34 00
        E 0 90 40 00
        E 5 90 2d 00
        E 10 90 39 24
        E 0 90 3d 00
        E 62 90 3e 2f
        E 5 90 26 22
        E 5 90 34 19
        E 0 90 42 1f
        E 5 90 32 29
        E 5 90 39 00
        E 0 90 45 18
        E 0 90 4a 26
        E 0 90 4e 27
        E 46 90 3e 00
        E 5 90 26 00
        E 0 90 34 00
        E 0 90 3e 20
        E 36 90 2d 1e
        E 15 90 4a 00
        E 5 90 4e 00
        E 26 90 39 17
        E 10 90 42 00
        E 5 90 3e 00
        E 0 90 45 00
        E 31 90 3e 21
        E 0 90 45 26
        E 10 90 2d 00
        E 0 90 4a 20
        E 51 90 32 00
        E 31 90 40 28
        E 5 90 4c 21
        E 5 90 45 00
        E 41 90 39 00
        E 10 90 4a 00
        E 31 90 42 1d
        E 0 90 45 2a
        E 10 90 40 00
        E 0 90 4c 00
        E 30 90 4a 18
        E 21 90 3e 00
        E 36 90 42 00
        E 5 90 45 00
        E 30 90 37 22
        E 0 90 3b 26
        E 0 90 47 1c
        E 47 90 42 1e
        E 0 90 4e 32
        E 5 90 4a 00
        E 5 90 32 2a
        E 0 90 45 2d
        E 0 90 4a 29
        E 5 90 37 00
        E 0 90 47 00
        E 5 90 3b 00
        E 26 90 2c 18
        E 10 90 3e 2d
        E 10 90 4e 00
        E 6 90 45 00
        E 35 90 2c 00
        E 41 90 45 1b
        E 10 90 32 00
        E 0 90 42 00
        E 0 90 4a 00
        E 11 90 3e 00
        E 71 90 3e 28
        E 5 90 45 00
        E 67 90 32 17
        E 10 90 3e 00
        E 0 90 3e 28
        E 30 90 39 42
        E 11 90 45 2d
        E 46 90 42 27
        E 0 90 4a 2e
        E 5 90 32 00
        E 5 90 39 00
        E 5 90 45 00
        E 20 90 2a 15
        E 11 90 36 30
        E 15 90 3e 00
        E 0 90 42 00
        E 0 90 4a 00
        E 36 90 39 1a
        E 30 90 4a 29
        E 5 90 2a 00
        E 0 90 32 32
        E 0 90 45 20
        E 16 90 36 00
        E 41 90 3e 24
        E 5 90 32 00
        E 0 90 32 24
        E 92 90 39 00
        E 5 90 32 00
        E 0 90 4a 00
        E 5 90 3e 00
        E 15 90 40 2b
        E 62 90 40 00
        E 10 90 45 00
        E 61 90 45 2d
        E 5 90 3e 2b
        E 57 90 45 00
        E 46 90 3e 00
        E 10 90 2a 24
        E 15 90 36 26
        E 0 90 39 20
        E 87 90 26 28
        E 0 90 32 36
        E 5 90 39 00
        E 0 90 3e 2c
        E 11 90 2a 00
        E 56 90 32 00
        E 20 90 26 00
        E 5 90 36 00
        E 0 90 3e 00
        E 21 90 2f 20
        E 5 90 2b 27
        E 5 90 3b 22
        E 46 90 37 32
        E 10 90 2b 00
        E 5 90 2b 26
        E 5 90 2f 00
        E 6 90 3b 00
        E 35 90 37 00
        E 77 90 37 23
        E 10 90 43 28
        E 36 90 21 28
        E 5 90 34 26
        E 5 90 3d 39
        E 5 90 2d 26
        E 5 90 2b 00
        E 0 90 37 00
        E 5 90 43 00
        E 36 90 21 00
        E 10 90 3d 00
        E 41 90 2d 00
        E 5 90 34 00
        E 103 90 26 2e
        E 5 90 32 37
        E 0 90 3e 26
        E 0 90 42 24
        E 0 90 4a 35
        E 61 90 32 00
        E 0 90 4a 00
        E 36 90 45 16
        E 0 90 4a 27
        E 36 90 32 27
        E 10 90 3e 00
        E 0 90 3e 24
        E 0 90 42 00
        E 0 90 42 1d
        E 5 90 36 28
        E 16 90 26 00
        E 35 90 45 00
        E 16 90 36 00
        E 0 90 42 00
        E 0 90 4a 00
        E 10 90 3e 00
        E 5 90 32 00
        E 51 90 36 29
        E 5 90 3e 2d
        E 11 90 2a 2d
        E 71 90 2a 00
        E 5 90 36 00
        E 0 90 3e 00
        E 51 90 32 26
        E 5 90 26 29
        E 87 90 32 00
        E 97 90 26 00
        E 72 90 26 25
        E 46 90 39 1c
        E 5 90 32 26
        E 0 90 3e 2b
        E 51 90 26 00
        E 5 90 39 00
        E 87 90 45 1d
        E 15 90 32 00
        E 5 90 3e 00
        E 46 90 45 00
        E 118 e0 00 20
        E 0 90 3e 35
        E 6 e0 00 20
        E 5 e0 00 20
        E 6 e0 00 20
        E 5 e0 00 20
        E 6 e0 00 20
        E 5 e0 00 20
        E 6 e0 00 20
        E 5 e0 00 20
        E 6 e0 00 20
        E 5 e0 00 20
        E 6 e0 00 20
        E 5 e0 00 20
        E 6 e0 00 20
        E 0 90 3e 00
        E 0 90 3e 24
        E 5 e0 00 20
        E 6 e0 00 20
        E 5 e0 00 20
        E 6 e0 00 20
        E 5 e0 00 20
        E 6 e0 00 20
        E 5 e0 00 20
        E 5 e0 00 20
        E 6 e0 00 20
        E 5 e0 00 20
        E 6 e0 00 20
        E 5 e0 00 20
        E 6 e0 00 20
        E 5 e0 00 20
        E 6 e0 00 20
        E 0 90 3e 00
        E 56 90 2c 29
        E 5 90 32 2d
        E 10 90 3e 27
        E 0 90 45 23
        E 0 90 4e 1b
        E 5 90 4a 21
        E 41 90 2c 00
        E 107 90 4a 00
        E 0 90 4e 00
        E 5 90 32 00
        E 0 90 45 00
        E 6 90 3e 00
        E 66 90 3e 27
        E 77 90 32 1d
        E 5 90 45 2e
        E 5 90 3e 00
        E 0 90 3e 28
        E 56 90 45 00
        E 36 90 3e 00
        E 0 90 3e 2b
        E 5 90 32 00
        E 31 90 36 26
        E 46 90 23 28
        E 0 90 3e 00
        E 40 90 26 20
        E 0 90 32 31
        E 5 90 3e 2b
        E 0 90 4a 2c
        E 6 90 2f 2f
        E 0 90 3b 26
        E 0 90 42 28
        E 10 90 36 00
        E 36 90 26 00
        E 36 90 32 00
        E 10 90 2f 00
        E 5 90 23 00
        E 0 90 42 00
        E 10 90 4a 00
        E 62 90 4c 33
        E 5 90 2b 33
        E 15 90 3b 00
        E 0 90 3e 00
        E 21 90 2f 31
        E 20 90 4c 00
        E 5 90 2b 00
        E 15 90 40 1a
        E 21 90 2f 00
        E 25 90 21 22
        E 0 90 43 2e
        E 46 90 39 31
        E 6 90 34 24
        E 0 90 3d 29
        E 0 90 40 00
        E 5 90 2d 24
        E 0 90 31 2f
        E 0 90 40 26
        E 15 90 43 00
        E 36 90 21 00
        E 0 90 39 00
        E 5 90 3d 00
        E 10 90 31 00
        E 31 90 34 00
        E 15 90 40 00
        E 5 90 39 1d
        E 67 90 26 28
        E 5 90 34 13
        E 5 90 32 21
        E 0 90 3e 2c
        E 0 90 42 2c
        E 0 90 45 1a
        E 0 90 4a 23
        E 15 90 2d 00
        E 46 90 26 00
        E 0 90 34 00
        E 0 90 39 00
        E 0 90 3e 00
        E 0 90 3e 1f
        E 10 90 42 00
        E 21 90 2d 31
        E 15 90 4a 00
        E 51 90 2d 00
        E 5 90 45 00
        E 26 90 45 25
        E 5 90 3e 00
        E 0 90 3e 21
        E 0 90 4a 1f
        E 36 90 42 2d
        E 5 90 39 18
        E 46 90 40 22
        E 0 90 4c 20
        E 10 90 42 00
        E 0 90 45 00
        E 41 90 39 00
        E 0 90 4a 00
        E 36 90 45 2f
        E 5 90 40 00
        E 0 90 4c 00
        E 51 90 32 00
        E 11 90 3e 00
        E 5 90 45 00
        E 127 90 3e 3e
        E 5 90 45 19
        E 6 90 32 27
        E 0 90 42 1f
        E 0 90 4a 29
        E 51 90 3e 00
        E 5 90 3e 23
        E 92 90 3e 00
        E 0 90 3e 22
        E 5 90 42 00
        E 5 90 32 00
        E 0 90 4a 00
        E 20 90 40 34
        E 51 90 3e 00
        E 0 90 3e 27
        E 11 90 40 00
        E 0 90 45 00
        E 61 90 32 1c
        E 10 90 3e 00
        E 0 90 3e 25
        E 31 90 39 3e
        E 10 90 45 26
        E 0 90 4a 23
        E 46 90 3e 00
        E 0 90 3e 34
        E 10 90 39 00
        E 5 90 32 00
        E 5 90 45 00
        E 26 90 36 22
        E 5 90 4a 00
        E 10 90 3e 00
        E 16 90 39 1a
        E 46 90 32 38
        E 0 90 36 00
        E 0 90 36 1e
        E 0 90 42 23
        E 0 90 4e 31
        E 5 90 45 2f
        E 0 90 4a 23
        E 51 90 3e 27
        E 5 90 39 00
        E 5 90 32 00
        E 0 90 32 1e
        E 0 90 4e 00
        E 5 90 45 00
        E 36 90 42 00
        E 41 90 36 00
        E 11 90 3e 00
        E 71 90 3e 26
        E 5 90 4a 00
        E 5 90 32 00
        E 56 90 32 1a
        E 0 90 42 12
        E 0 90 4a 22
        E 11 90 3e 00
        E 0 90 3e 26
        E 41 90 36 1d
        E 0 90 45 2b
        E 5 90 39 30
        E 51 90 3e 00
        E 0 90 3e 20
        E 5 90 32 00
        E 0 90 4a 00
        E 5 90 39 00
        E 0 90 45 00
        E 26 90 42 00
        E 10 90 36 00
        E 56 90 23 33
        E 5 90 2f 3e
        E 15 90 3b 26
        E 0 90 3e 00
        E 0 90 3e 32
        E 41 90 23 00
        E 5 90 32 27
        E 5 90 2f 00
        E 11 90 3e 00
        E 51 90 2f 28
        E 0 90 3b 00
        E 0 90 3b 2e
        E 15 90 32 00
        E 36 90 34 28
        E 5 90 2b 31
        E 0 90 37 2a
        E 20 90 3b 00
        E 41 90 37 00
        E 16 90 40 1b
        E 15 90 2f 00
        E 5 90 2b 00
        E 0 90 34 00
        E 26 90 37 21
        E 20 90 40 00
        E 20 90 21 2a
        E 11 90 39 25
        E 5 90 31 33
        E 5 90 2d 28
        E 0 90 3d 35
        E 0 90 40 24
        E 5 90 37 00
        E 41 90 21 00
        E 5 90 39 00
        E 15 90 3d 00
        E 16 90 31 00
        E 10 90 2d 00
        E 10 90 40 00
        E 93 90 32 24
        E 0 90 3e 25
        E 97 90 36 29
        E 76 90 36 00
        E 46 90 2a 21
        E 10 90 36 1f
        E 6 90 32 00
        E 0 90 32 35
        E 0 90 3e 00
        E 0 90 3e 27
        E 51 90 2a 00
        E 5 90 2a 2c
        E 25 90 32 00
        E 16 90 39 20
        E 10 90 2d 27
        E 10 90 3e 00
        E 26 90 2a 00
        E 10 90 36 00
        E 5 90 39 00
        E 56 90 26 37
        E 21 90 2d 00
        E 97 90 26 00
        E 178 90 2d 36
        E 5 90 39 2f
        E 11 90 40 2f
        E 72 90 39 00
        E 0 90 39 1a
        E 10 90 2d 00
        E 5 90 40 00
        E 21 90 2f 2d
        E 51 90 3d 24
        E 5 90 31 28
        E 0 90 40 22
        E 10 90 2f 00
        E 5 90 39 00
        E 31 90 2a 1c
        E 5 90 39 31
        E 5 90 3d 00
        E 0 90 3d 1f
        E 0 90 45 23
        E 5 90 49 24
        E 10 90 31 00
        E 46 90 39 00
        E 26 90 36 26
        E 15 90 2a 00
        E 5 90 3d 00
        E 0 90 40 00
        E 0 90 49 00
        E 72 90 2a 1f
        E 5 90 2d 1a
        E 0 90 2f 1e
        E 0 90 34 1c
        E 0 90 3d 22
        E 5 90 39 29
        E 0 90 40 19
        E 0 90 4c 2c
        E 5 90 49 24
        E 46 90 2a 00
        E 5 90 2d 00
        E 0 90 2f 00
        E 0 90 3d 00
        E 5 90 34 00
        E 5 90 36 00
        E 41 90 49 00
        E 5 90 4c 00
        E 5 90 39 00
        E 26 90 34 16
        E 51 90 2d 22
        E 5 90 40 00
        E 5 90 40 27
        E 0 90 4c 20
        E 21 90 45 00
        E 25 90 34 00
        E 5 90 2d 00
        E 103 90 4c 00
        E 5 90 40 00
        E 15 90 39 2d
        E 51 90 40 1c
        E 15 90 39 00
        E 31 90 42 2c
        E 11 90 40 00
        E 36 90 34 22
        E 5 90 40 24
        E 0 90 4a 32
        E 20 90 42 00
        E 41 90 4a 00
        E 10 90 34 00
        E 10 90 40 00
        E 57 90 2f 21
        E 15 90 2d 26
        E 82 90 3b 19
        E 0 90 3e 23
        E 5 90 42 2a
        E 0 90 4e 2e
        E 5 90 4a 2d
        E 5 90 2d 00
        E 0 90 2f 00
        E 31 90 32 27
        E 20 90 42 00
        E 5 90 4a 00
        E 5 90 4e 00
        E 31 90 45 14
        E 5 90 3b 00
        E 26 90 26 18
        E 5 90 36 1d
        E 56 90 39 2b
        E 5 90 3e 00
        E 0 90 3e 22
        E 0 90 42 34
        E 0 90 45 00
        E 0 90 4e 31
        E 5 90 45 1b
        E 0 90 4a 30
        E 10 90 32 00
        E 31 90 26 00
        E 15 90 39 00
        E 0 90 4e 00
        E 5 90 42 00
        E 0 90 4a 00
        E 26 90 47 25
        E 10 90 3b 27
        E 10 90 3e 00
        E 41 90 45 00
        E 0 90 47 00
        E 26 90 32 2f
        E 5 90 42 2a
        E 0 90 45 28
        E 5 90 3e 25
        E 0 90 4a 25
        E 5 90 36 00
        E 10 90 3b 00
        E 36 90 32 00
        E 51 90 45 00
        E 5 90 42 00
        E 0 90 4a 00
        E 5 90 3e 00
        E 67 90 32 36
        E 5 90 4a 3c
        E 5 90 3e 25
        E 0 90 42 22
        E 0 90 45 2b
        E 47 90 32 00
        E 5 90 4a 00
        E 5 90 45 00
        E 36 90 3e 00
        E 30 90 40 2d
        E 10 90 42 00
        E 51 90 40 00
        E 26 90 34 15
        E 0 90 4a 1b
        E 5 90 3d 1b
        E 82 90 37 1e
        E 5 90 43 27
        E 0 90 45 29
        E 0 90 4c 2b
        E 5 90 39 30
        E 0 90 4f 2c
        E 5 90 34 00
        E 5 90 3d 00
        E 46 90 37 00
        E 0 90 4c 00
        E 5 90 43 00
        E 0 90 45 00
        E 5 90 39 00
        E 0 90 4a 00
        E 0 90 4f 00
        E 67 90 36 20
        E 51 90 32 2e
        E 10 90 36 00
        E 46 90 3e 2a
        E 0 90 4a 1f
        E 15 90 32 00
        E 67 90 3e 00
        E 71 90 3e 21
        E 36 90 32 25
        E 5 90 4e 28
        E 46 90 3e 00
        E 0 90 3e 25
        E 10 90 32 00
        E 6 90 4e 00
        E 81 90 3e 00
        E 0 90 3e 26
        E 6 90 4a 00
        E 87 90 3e 00
        E 30 90 4a 25
        E 41 90 32 26
        E 11 90 3e 30
        E 35 90 36 27
        E 21 90 32 00
        E 5 90 3e 00
        E 0 90 4a 00
        E 92 90 36 00
        E 122 90 3e 28
        E 36 90 32 15
        E 51 90 4a 15
        E 5 90 3e 00
        E 0 90 3e 23
        E 46 90 32 00
        E 46 90 3e 00
        E 41 90 4a 00
        E 41 90 3b 1b
        E 51 90 36 2d
        E 10 90 42 1d
        E 5 90 3b 00
        E 41 90 32 1b
        E 0 90 3e 2a
        E 57 90 39 27
        E 5 90 36 00
        E 0 90 42 00
        E 36 90 3e 00
        E 0 90 3e 2b
        E 10 90 32 00
        E 36 90 45 28
        E 5 90 34 20
        E 15 90 3e 00
        E 36 90 3d 2e
        E 56 90 34 00
        E 5 90 39 00
        E 0 90 45 00
        E 46 90 3d 00
        E 16 90 26 22
        E 20 90 32 2f
        E 0 90 3e 26
        E 87 90 32 00
        E 0 90 32 2f
        E 46 90 26 00
        E 31 90 32 00
        E 0 90 3e 00
        E 46 90 2a 14
        E 5 90 40 17
        E 0 90 45 29
        E 5 90 39 31
        E 0 90 3d 25
        E 71 90 39 00
        E 0 90 39 1b
        E 5 90 45 00
        E 41 90 2a 00
        E 102 90 40 00
        E 46 90 3d 00
        E 6 90 39 00
        E 123 e0 2b 75
        E 0 90 4d 38
        E 5 e0 2b 75
        E 6 e0 2b 75
        E 5 e0 55 6a
        E 6 e0 55 6a
        E 5 e0 55 6a
        E 6 e0 2b 75
        E 5 e0 2b 75
        E 6 e0 2b 75
        E 5 e0 55 6a
        E 6 e0 55 6a
        E 5 e0 55 6a
        E 6 e0 55 6a
        E 5 e0 55 6a
        E 0 90 4d 00
        E 123 90 32 27
        E 0 90 3e 2f
        E 0 90 45 2e
        E 0 90 4a 23
        E 61 90 45 00
        E 77 90 45 12
        E 10 90 32 00
        E 5 90 3e 00
        E 0 90 4a 00
        E 15 90 40 2b
        E 57 90 3e 29
        E 0 90 45 00
        E 5 90 40 00
        E 66 90 32 1e
        E 5 90 4a 2c
        E 5 90 3e 00
        E 0 90 3e 27
        E 0 90 45 0d
        E 62 90 45 00
        E 10 90 4a 00
        E 20 90 3e 00
        E 0 90 3e 24
        E 51 90 36 2c
        E 46 90 26 2a
        E 5 90 39 21
        E 11 90 36 00
        E 25 90 32 00
        E 0 90 36 1f
        E 5 90 32 31
        E 0 90 42 29
        E 0 90 45 2c
        E 5 90 4a 22
        E 46 90 26 00
        E 6 90 39 00
        E 0 90 3e 00
        E 0 90 3e 2b
        E 5 90 45 00
        E 5 90 32 00
        E 0 90 32 23
        E 46 90 42 00
        E 31 90 36 00
        E 5 90 32 00
        E 0 90 4a 00
        E 5 90 3e 00
        E 67 90 3e 2b
        E 86 90 32 1e
        E 46 90 39 27
        E 5 90 3e 00
        E 0 90 3e 2c
        E 57 90 32 00
        E 46 90 3e 00
        E 25 90 23 28
        E 10 90 39 00
        E 26 90 26 26
        E 0 90 42 37
        E 5 90 36 1f
        E 0 90 3e 3e
        E 0 90 4a 25
        E 5 90 2f 27
        E 0 90 3b 2b
        E 41 90 32 1d
        E 10 90 26 00
        E 0 90 42 00
        E 5 90 3e 00
        E 21 90 23 00
        E 20 90 36 00
        E 0 90 4a 00
        E 16 90 3e 26
        E 5 90 47 24
        E 5 90 2b 24
        E 0 90 3b 00
        E 0 90 3b 23
        E 61 90 23 24
        E 0 90 2b 00
        E 5 90 2b 2c
        E 0 90 32 00
        E 5 90 3e 00
        E 5 90 47 00
        E 21 90 2f 00
        E 0 90 2f 29
        E 41 90 34 22
        E 0 90 40 1e
        E 5 90 23 00
        E 15 90 3b 00
        E 15 90 37 27
        E 6 90 43 29
        E 5 90 21 22
        E 15 90 2b 00
        E 0 90 2f 00
        E 46 90 3d 26
        E 5 90 31 2f
        E 0 90 40 00
        E 5 90 40 1f
        E 5 90 21 00
        E 0 90 37 00
        E 5 90 43 00
        E 46 90 3d 00
        E 21 90 2d 1e
        E 0 90 31 00
        E 36 90 39 25
        E 26 90 34 00
        E 46 90 3e 2e
        E 5 90 32 28
        E 5 90 34 17
        E 0 90 42 20
        E 0 90 45 16
        E 15 90 2d 00
        E 0 90 40 00
        E 5 90 39 00
        E 36 90 3e 00
        E 5 90 3e 21
        E 5 90 34 00
        E 0 90 45 00
        E 46 90 42 00
        E 46 90 45 19
        E 46 90 4a 2b
        E 10 90 32 00
        E 31 90 32 20
        E 5 90 39 15
        E 16 90 4a 00
        E 30 90 40 23
        E 0 90 45 00
        E 10 90 3e 00
        E 31 90 39 00
        E 51 90 45 21
        E 5 90 40 00
        E 46 90 32 00
        E 36 90 45 00
        E 36 90 3b 25
        E 46 90 26 2b
        E 0 90 4a 39
        E 15 90 32 29
        E 5 90 3b 00
        E 36 90 3e 23
        E 5 90 26 00
        E 0 90 4a 00
        E 87 90 4a 17
        E 5 90 3e 00
        E 0 90 3e 21
        E 10 90 32 00
        E 31 90 40 29
        E 46 90 3e 00
        E 0 90 3e 28
        E 0 90 4a 00
        E 16 90 40 00
        E 56 90 32 1f
        E 5 90 3e 00
        E 0 90 3e 25
        E 31 90 39 39
        E 10 90 45 27
        E 0 90 4a 28
        E 56 90 39 00
        E 0 90 3e 00
        E 0 90 3e 26
        E 10 90 32 00
        E 5 90 45 00
        E 21 90 36 2e
        E 25 90 4a 00
        E 16 90 39 31
        E 35 90 26 32
        E 16 90 4a 28
        E 5 90 32 27
        E 0 90 42 29
        E 0 90 45 22
        E 0 90 4e 1c
        E 10 90 39 00
        E 5 90 36 00
        E 26 90 26 00
        E 5 90 3e 00
        E 0 90 3e 27
        E 66 90 42 00
        E 31 90 32 00
        E 5 90 3e 00
        E 0 90 4a 00
        E 0 90 4e 00
        E 5 90 45 00
        E 56 90 4a 23
        E 5 90 45 1a
        E 6 90 3e 2b
        E 56 90 45 00
        E 35 90 3e 00
        E 0 90 3e 26
        E 6 90 4a 00
        E 20 90 32 2b
        E 5 90 45 21
        E 5 90 36 11
        E 5 90 39 2d
        E 51 90 3e 00
        E 0 90 3e 22
        E 11 90 32 00
        E 25 90 36 00
        E 36 90 45 00
        E 10 90 39 00
        E 5 90 23 33
        E 16 90 4a 39
        E 5 90 26 25
        E 5 90 3e 00
        E 0 90 3e 36
        E 5 90 2f 29
        E 36 90 23 00
        E 0 90 32 2b
        E 5 90 4a 00
        E 5 90 26 00
        E 6 90 3e 00
        E 61 90 3b 2c
        E 0 90 3e 2a
        E 15 90 32 00
        E 41 90 2b 35
        E 15 90 3e 00
        E 5 90 3b 00
        E 41 90 2b 00
        E 16 90 40 25
        E 15 90 2f 00
        E 31 90 2d 35
        E 0 90 43 30
        E 10 90 37 25
        E 41 90 34 2a
        E 5 90 31 37
        E 5 90 3d 37
        E 15 90 2d 00
        E 0 90 37 00
        E 0 90 40 00
        E 0 90 43 00
        E 51 90 31 00
        E 0 90 3d 00
        E 31 90 34 00
        E 41 90 39 23
        E 76 90 26 31
        E 0 90 32 2c
        E 0 90 3e 3b
        E 6 90 42 30
        E 5 90 39 00
        E 56 90 42 00
        E 5 90 3e 00
        E 10 90 26 00
        E 16 90 36 28
        E 46 90 3e 20
        E 5 90 32 00
        E 0 90 32 2a
        E 10 90 36 00
        E 46 90 2d 22
        E 56 90 32 00
        E 0 90 32 23
        E 41 90 2a 2a
        E 11 90 2d 00
        E 0 90 2d 2d
        E 35 90 36 22
        E 6 90 3e 00
        E 10 90 32 00
        E 30 90 2a 00
        E 0 90 2d 00
        E 82 90 32 27
        E 5 90 26 32
        E 10 90 36 00
        E 87 90 39 12
        E 62 90 39 00
        E 20 90 26 00
        E 0 90 32 00
        E 347 90 32 24
        E 11 90 45 2b
        E 30 90 3e 28
        E 0 90 4a 24
        E 62 90 51 36
        E 15 90 32 00
        E 0 90 4a 00
        E 5 90 3e 00
        E 0 90 45 00
        E 41 90 51 00
        E 21 90 26 28
        E 5 90 3e 23
        E 5 90 45 20
        E 5 90 32 28
        E 46 90 2a 25
        E 5 90 2d 19
        E 11 90 36 28
        E 5 90 45 00
        E 5 90 3e 00
        E 41 90 2d 00
        E 0 90 39 29
        E 40 90 23 17
        E 11 90 2a 00
        E 0 90 3e 25
        E 46 90 39 00
        E 0 90 39 32
        E 0 90 45 1e
        E 5 90 23 00
        E 0 90 26 00
        E 10 90 32 00
        E 5 90 36 00
        E 41 90 39 00
        E 31 90 32 29
        E 0 90 3b 12
        E 0 90 42 38
        E 5 90 36 23
        E 0 90 4a 16
        E 0 90 4e 28
        E 5 90 3e 00
        E 0 90 3e 36
        E 41 90 39 18
        E 10 90 45 00
        E 0 90 45 21
        E 0 90 51 22
        E 10 90 4e 00
        E 5 90 42 00
        E 5 90 3e 00
        E 26 90 42 19
        E 0 90 4e 2d
        E 5 90 3e 29
        E 10 90 36 00
        E 0 90 51 00
        E 31 90 56 37
        E 10 90 39 00
        E 10 90 32 00
        E 0 90 45 00
        E 0 90 4e 00
        E 31 90 4a 00
        E 5 90 3e 00
        E 0 90 3e 2b
        E 0 90 4a 1f
        E 10 90 56 00
        E 51 90 3b 00
        E 5 90 26 21
        E 0 90 32 27
        E 0 90 3b 23
        E 6 90 42 00
        E 0 90 42 2c
        E 5 90 4a 00
        E 5 90 3e 00
        E 56 90 26 00
        E 0 90 2a 2c
        E 0 90 36 1b
        E 5 90 26 28
        E 0 90 32 00
        E 5 90 32 29
        E 5 90 3b 00
        E 11 90 42 00
        E 45 90 2a 00
        E 0 90 2a 26
        E 11 90 32 00
        E 20 90 39 1a
        E 5 90 42 1d
        E 5 90 2d 23
        E 46 90 32 2d
        E 0 90 3e 28
        E 0 90 4a 13
        E 31 90 42 00
        E 5 90 42 21
        E 0 90 45 30
        E 10 90 2a 00
        E 47 90 45 00
        E 30 90 45 23
        E 0 90 4a 00
        E 6 90 32 00
        E 0 90 32 20
        E 0 90 3e 00
        E 0 90 3e 2c
        E 0 90 4a 2d
        E 5 90 26 00
        E 41 90 39 00
        E 0 90 42 00
        E 0 90 42 2a
        E 0 90 4e 1b
        E 51 90 2d 00
        E 5 90 3e 00
        E 5 90 4a 00
        E 25 90 3e 27
        E 6 90 45 00
        E 0 90 45 37
        E 0 90 4a 18
        E 0 90 51 2b
        E 5 90 36 00
        E 0 90 4e 00
        E 10 90 42 00
        E 46 90 45 00
        E 0 90 51 00
        E 30 90 2f 36
        E 16 90 3b 2b
        E 0 90 42 2c
        E 10 90 32 00
        E 0 90 4a 00
        E 61 90 3b 00
        E 0 90 3b 1a
        E 5 90 2f 00
        E 0 90 3e 00
        E 0 90 42 00
        E 72 90 34 10
        E 5 90 37 2c
        E 61 90 34 00
        E 0 90 43 35
        E 5 90 3b 00
        E 36 90 37 00
        E 5 90 37 20
        E 16 90 43 00
        E 25 90 34 14
        E 41 90 40 21
        E 5 90 4c 26
        E 5 90 37 00
        E 41 90 2d 2e
        E 10 90 39 24
        E 11 90 4c 00
        E 40 90 34 00
        E 0 90 40 00
        E 0 90 40 2f
        E 6 90 2d 00
        E 86 90 40 00
        E 1 90 39 00
        E 36 90 3e 3a
        E 10 90 32 2a
        E 5 90 45 2c
        E 0 90 4a 26
        E 46 90 3e 00
        E 5 90 3e 1a
        E 46 90 40 25
        E 15 90 45 00
        E 0 90 4a 00
        E 41 90 32 00
        E 57 90 40 00
        E 20 90 45 30
        E 15 90 3e 00
        E 46 90 45 00
        E 123 90 40 21
        E 97 90 4a 16
        E 10 90 40 00
        E 41 90 3e 20
        E 10 90 45 27
        E 5 90 4a 00
        E 46 90 26 24
        E 0 90 32 2e
        E 10 90 45 00
        E 46 90 2a 23
        E 11 90 32 00
        E 0 90 3e 00
        E 25 90 39 16
        E 5 90 2d 24
        E 46 90 36 19
        E 36 90 45 20
        E 52 90 32 26
        E 10 90 26 00
        E 0 90 39 00
        E 0 90 3e 2e
        E 5 90 2a 00
        E 31 90 42 1f
        E 5 90 4e 22
        E 5 90 45 00
        E 5 90 2d 00
        E 36 90 45 35
        E 15 90 3e 00
        E 31 90 3e 2c
        E 0 90 42 00
        E 0 90 42 2b
        E 5 90 4e 00
        E 0 90 4e 23
        E 10 90 45 00
        E 41 90 36 00
        E 0 90 4a 1c
        E 10 90 42 00
        E 0 90 4e 00
        E 26 90 3e 00
        E 0 90 3e 24
        E 61 90 45 10
        E 5 90 42 26
        E 10 90 4a 00
        E 31 90 26 31
        E 15 90 3e 00
        E 0 90 3e 27
        E 46 90 2a 1b
        E 0 90 36 2a
        E 5 90 26 00
        E 0 90 45 00
        E 6 90 32 00
        E 10 90 3e 00
        E 25 90 39 2f
        E 26 90 26 26
        E 5 90 3e 40
        E 56 90 2a 00
        E 5 90 26 00
        E 5 90 3e 00
        E 5 90 36 00
        E 0 90 39 00
        E 0 90 42 00
        E 77 90 4a 23
        E 36 90 32 23
        E 5 90 3e 28
        E 0 90 42 18
        E 66 90 4a 00
        E 16 90 36 15
        E 10 90 3e 00
        E 0 90 3e 36
        E 0 90 51 37
        E 41 90 45 2f
        E 0 90 4a 35
        E 5 90 2f 25
        E 15 90 3e 00
        E 0 90 51 00
        E 26 90 26 1e
        E 0 90 3e 27
        E 5 90 3b 2d
        E 16 90 32 00
        E 0 90 45 00
        E 0 90 4a 00
        E 20 90 23 29
        E 15 90 2f 00
        E 6 90 2f 2f
        E 0 90 36 00
        E 0 90 42 00
        E 35 90 32 35
        E 0 90 3e 00
        E 0 90 3e 1a
        E 62 90 23 00
        E 0 90 26 00
        E 5 90 2f 00
        E 0 90 32 00
        E 5 90 3b 00
        E 15 90 2b 2f
        E 5 90 37 23
        E 5 90 40 1f
        E 6 90 43 2c
        E 56 90 2b 00
        E 0 90 2f 45
        E 5 90 2b 28
        E 5 90 37 00
        E 0 90 40 00
        E 5 90 43 00
        E 36 90 3e 00
        E 10 90 2f 00
        E 36 90 37 1f
        E 5 90 2b 00
        E 20 90 2d 2a
        E 5 90 40 27
        E 36 90 21 1d
        E 26 90 2d 00
        E 5 90 2d 1f
        E 0 90 40 00
        E 0 90 40 1c
        E 5 90 37 00
        E 25 90 3d 26
        E 6 90 31 2e
        E 46 90 2d 00
        E 0 90 2d 1f
        E 5 90 39 22
        E 5 90 21 00
        E 5 90 31 00
        E 0 90 3d 00
        E 5 90 40 00
        E 26 90 36 21
        E 5 90 26 28
        E 0 90 32 3d
        E 5 90 3e 25
        E 0 90 45 27
        E 5 90 42 27
        E 61 90 26 00
        E 0 90 2d 00
        E 5 90 32 00
        E 0 90 39 00
        E 0 90 45 00
        E 16 90 2a 19
        E 61 90 36 00
        E 5 90 32 23
        E 0 90 36 24
        E 15 90 42 00
        E 16 90 2d 3f
        E 20 90 2a 00
        E 10 90 36 00
        E 0 90 3e 00
        E 31 90 2d 00
        E 36 90 36 2b
        E 10 90 2a 2d
        E 6 90 32 00
        E 56 90 2d 26
        E 25 90 39 1b
        E 5 90 36 00
        E 6 90 2a 00
        E 20 90 32 2e
        E 36 90 26 33
        E 20 90 39 00
        E 5 90 2d 00
        E 5 90 32 00
        E 133 90 26 00
        E 220 90 3e 2c
        E 76 90 26 24
        E 16 90 36 1f
        E 0 90 3e 00
        E 0 90 3e 1d
        E 5 90 32 35
        E 46 90 2a 23
        E 0 90 2d 32
        E 10 90 36 00
        E 5 90 36 27
        E 10 90 3e 00
        E 6 90 32 00
        E 30 90 39 2c
        E 5 90 2d 00
        E 31 90 32 22
        E 5 90 42 13
        E 0 90 45 26
        E 10 90 3e 28
        E 36 90 2a 00
        E 0 90 39 00
        E 0 90 39 24
        E 10 90 36 00
        E 31 90 45 00
        E 6 90 42 00
        E 0 90 45 27
        E 5 90 26 00
        E 0 90 3e 00
        E 0 90 3e 2a
        E 10 90 39 00
        E 20 90 36 1b
        E 5 90 42 21
        E 6 90 4e 2b
        E 46 90 4a 1e
        E 5 90 45 00
        E 0 90 45 26
        E 5 90 3e 00
        E 0 90 3e 27
        E 5 90 4e 00
        E 31 90 4e 2c
        E 5 90 3a 13
        E 0 90 42 00
        E 0 90 42 1f
        E 15 90 45 00
        E 25 90 56 2b
        E 6 90 3e 00
        E 0 90 3e 39
        E 15 90 4e 00
        E 36 90 3a 00
        E 0 90 4a 00
        E 5 90 32 00
        E 0 90 36 00
        E 0 90 56 00
        E 5 90 42 00
        E 10 90 3e 00
        E 56 90 3e 1b
        E 41 90 32 33
        E 0 90 39 1b
        E 5 90 26 29
        E 51 90 36 22
        E 5 90 2a 1c
        E 0 90 3e 00
        E 16 90 32 00
        E 10 90 1e 1c
        E 15 90 2d 24
        E 51 90 1e 00
        E 6 90 32 28
        E 0 90 3e 29
        E 46 90 42 1d
        E 15 90 26 00
        E 36 90 36 00
        E 0 90 45 1d
        E 35 90 32 00
        E 0 90 32 22
        E 5 90 2a 00
        E 0 90 39 00
        E 0 90 3e 00
        E 0 90 3e 2d
        E 0 90 4a 23
        E 6 90 2d 00
        E 35 90 42 00
        E 0 90 42 1d
        E 51 90 4a 00
        E 0 90 4a 1d
        E 36 90 51 31
        E 10 90 45 00
        E 0 90 45 14
        E 11 90 3e 00
        E 30 90 2f 29
        E 0 90 3e 28
        E 10 90 4a 00
        E 0 90 51 00
        E 6 90 32 00
        E 31 90 36 21
        E 0 90 47 20
        E 5 90 3b 2d
        E 66 90 3b 00
        E 0 90 3b 22
        E 0 90 42 00
        E 0 90 42 1b
        E 0 90 45 00
        E 5 90 2f 00
        E 0 90 36 00
        E 6 90 3e 00
        E 46 90 47 00
        E 25 90 37 34
        E 5 90 2b 1c
        E 10 90 3b 00
        E 5 90 42 00
        E 77 90 37 00
        E 0 90 3b 27
        E 5 90 37 21
        E 0 90 43 21
        E 56 90 3b 00
        E 26 90 40 1a
        E 5 90 4c 23
        E 5 90 2b 00
        E 5 90 37 00
        E 5 90 43 00
        E 26 90 45 24
        E 5 90 39 30
        E 15 90 4c 00
        E 31 90 40 00
        E 5 90 40 30
        E 10 90 39 00
        E 0 90 45 00
        E 82 90 40 00
        E 36 90 26 1d
        E 10 90 32 26
        E 5 90 3e 3c
        E 0 90 45 24
        E 0 90 4a 2a
        E 46 90 26 00
        E 5 90 39 15
        E 10 90 4a 00
        E 6 90 3e 00
        E 20 90 36 2d
        E 5 90 40 26
        E 15 90 45 00
        E 36 90 39 00
        E 5 90 36 00
        E 5 90 32 00
        E 0 90 40 00
        E 26 90 43 30
        E 41 90 26 17
        E 0 90 32 20
        E 5 90 39 21
        E 5 90 3e 1e
        E 0 90 45 2e
        E 10 90 43 00
        E 36 90 47 1b
        E 1 90 26 00
        E 0 90 32 00
        E 10 90 45 00
        E 46 90 39 00
        E 25 90 34 19
        E 11 90 45 1d
        E 10 90 3e 00
        E 30 90 40 19
        E 41 90 34 00
        E 5 90 45 00
        E 36 90 4a 25
        E 10 90 40 00
        E 5 90 47 00
        E 41 90 3e 29
        E 5 90 39 1a
        E 6 90 4a 00
        E 35 90 2a 2e
        E 0 90 2d 21
        E 5 90 45 1c
        E 6 90 26 26
        E 0 90 36 22
        E 5 90 32 2d
        E 51 90 2a 00
        E 5 90 2a 1f
        E 5 90 3e 00
        E 5 90 32 00
        E 26 90 2d 00
        E 5 90 2d 26
        E 46 90 32 25
        E 0 90 39 00
        E 0 90 3e 22
        E 10 90 36 00
        E 25 90 45 00
        E 0 90 45 1c
        E 21 90 2d 00
        E 30 90 36 18
        E 6 90 3e 00
        E 0 90 3e 25
        E 5 90 26 00
        E 30 90 42 25
        E 5 90 2a 00
        E 46 90 45 00
        E 0 90 45 28
        E 0 90 4a 12
        E 57 90 36 00
        E 0 90 3e 00
        E 0 90 3e 29
        E 15 90 42 00
        E 20 90 4a 00
        E 6 90 4a 21
        E 0 90 56 28
        E 10 90 45 00
        E 41 90 3e 00
        E 0 90 3e 24
        E 15 90 56 00
        E 51 90 3e 00
        E 0 90 3e 3d
        E 6 90 4a 00
        E 25 90 26 26
        E 31 90 3e 00
        E 31 90 2a 1f
        E 5 90 36 25
        E 5 90 32 00
        E 76 90 2f 20
        E 0 90 32 1f
        E 5 90 42 39
        E 6 90 39 1b
        E 0 90 3e 25
        E 46 90 2a 00
        E 5 90 26 00
        E 5 90 2f 00
        E 5 90 42 00
        E 5 90 36 00
        E 31 90 45 1d
        E 10 90 39 00
        E 25 90 36 1d
        E 41 90 3b 19
        E 5 90 42 23
        E 5 90 45 00
        E 11 90 3e 00
        E 20 90 4a 2f
        E 5 90 3e 3c
        E 10 90 32 00
        E 6 90 3b 00
        E 25 90 51 3a
        E 5 90 2f 24
        E 0 90 32 24
        E 10 90 36 00
        E 0 90 4a 00
        E 11 90 3e 00
        E 25 90 3e 3b
        E 0 90 45 26
        E 0 90 4a 35
        E 16 90 42 00
        E 0 90 51 00
        E 40 90 3b 2b
        E 16 90 32 00
        E 0 90 45 00
        E 5 90 3e 00
        E 0 90 4a 00
        E 56 90 23 25
        E 26 90 32 24
        E 15 90 3e 1a
        E 20 90 2f 00
        E 0 90 47 19
        E 5 90 23 00
        E 0 90 2f 24
        E 6 90 3b 00
        E 0 90 3b 2a
        E 30 90 2b 35
        E 5 90 37 31
        E 5 90 40 1d
        E 5 90 43 24
        E 6 90 47 00
        E 5 90 32 00
        E 5 90 3b 00
        E 30 90 1f 20
        E 0 90 2b 00
        E 6 90 2b 28
        E 5 90 23 2a
        E 5 90 37 00
        E 0 90 40 00
        E 5 90 43 00
        E 31 90 2f 00
        E 0 90 2f 2c
        E 10 90 3e 00
        E 15 90 23 00
        E 21 90 37 1d
        E 15 90 2f 00
        E 16 90 40 33
        E 5 90 2d 2e
        E 5 90 1f 00
        E 0 90 3d 20
        E 15 90 2b 00
        E 41 90 2d 00
        E 0 90 31 38
        E 0 90 40 00
        E 5 90 2d 1f
        E 0 90 40 2d
        E 5 90 37 00
        E 51 90 31 00
        E 6 90 40 00
        E 25 90 39 1d
        E 5 90 3d 00
        E 36 90 32 30
        E 5 90 26 2d
        E 0 90 36 1d
        E 0 90 3e 28
        E 10 90 42 24
        E 46 90 32 00
        E 5 90 32 27
        E 0 90 36 00
        E 11 90 26 00
        E 0 90 2d 00
        E 5 90 39 00
        E 87 90 32 00
        E 0 90 32 25
        E 0 90 3e 00
        E 0 90 3e 24
        E 15 90 42 00
        E 51 90 3e 00
        E 71 90 2d 2c
        E 6 90 2a 2f
        E 15 90 32 00
        E 41 90 2d 00
        E 5 90 2d 2a
        E 36 90 1a 22
        E 0 90 2a 00
        E 20 90 32 25
        E 46 90 26 37
        E 5 90 1a 00
        E 21 90 2d 00
        E 61 90 32 00
        E 15 90 26 00
        E 435 90 2d 2d
        E 5 90 49 31
        E 0 90 4c 33
        E 61 90 49 00
        E 6 90 4c 00
        E 40 90 25 31
        E 5 90 31 1b
        E 6 90 34 2a
        E 20 90 2d 00
        E 41 90 31 00
        E 5 90 31 27
        E 36 90 25 00
        E 0 90 25 1e
        E 0 90 28 23
        E 0 90 3b 1f
        E 0 90 3d 23
        E 0 90 40 23
        E 5 90 34 00
        E 0 90 34 24
        E 41 90 21 21
        E 5 90 2d 2a
        E 10 90 3b 00
        E 0 90 40 00
        E 5 90 31 00
        E 36 90 3d 00
        E 5 90 3d 26
        E 26 90 40 37
        E 5 90 4c 18
        E 5 90 39 23
        E 10 90 25 00
        E 36 90 49 27
        E 5 90 21 00
        E 0 90 40 00
        E 0 90 45 26
        E 5 90 40 31
        E 41 90 31 1a
        E 10 90 49 00
        E 0 90 49 35
        E 5 90 4c 00
        E 5 90 28 00
        E 0 90 34 00
        E 5 90 3d 00
        E 0 90 40 00
        E 27 90 39 00
        E 5 90 39 25
        E 5 90 45 00
        E 5 90 2d 00
        E 0 90 49 00
        E 25 90 34 1f
        E 11 90 3d 25
        E 30 90 2d 1f
        E 5 90 40 2f
        E 51 90 45 28
        E 11 90 3d 00
        E 30 90 3d 1f
        E 0 90 40 00
        E 0 90 40 2c
        E 16 90 39 00
        E 25 90 39 3d
        E 5 90 31 00
        E 0 90 4c 1b
        E 5 90 45 00
        E 0 90 45 29
        E 36 90 49 31
        E 15 90 34 00
        E 6 90 39 00
        E 30 90 39 23
        E 5 90 2d 00
        E 0 90 45 00
        E 0 90 45 28
        E 0 90 4c 00
        E 0 90 4c 1d
        E 11 90 3d 00
        E 0 90 49 00
        E 5 90 40 00
        E 30 90 40 27
        E 57 90 4c 00
        E 5 90 39 00
        E 30 90 4a 37
        E 21 90 40 00
        E 41 90 4a 00
        E 5 90 45 00
        E 25 90 3c 1c
        E 0 90 40 1a
        E 0 90 4a 1f
        E 5 90 4f 25
        E 87 90 40 00
        E 0 90 40 29
        E 10 90 3c 00
        E 0 90 4a 00
        E 0 90 4f 00
        E 72 90 40 00
        E 71 e0 00 20
        E 0 90 32 26
        E 6 e0 00 20
        E 5 e0 00 20
        E 5 e0 00 20
        E 5 e0 00 20
        E 5 e0 00 20
        E 5 e0 00 20
        E 6 e0 00 20
        E 5 e0 00 20
        E 5 e0 00 20
        E 5 e0 00 20
        E 5 e0 00 20
        E 5 e0 00 20
        E 0 90 32 00
        E 16 90 26 20
        E 10 90 32 1f
        E 0 90 39 2e
        E 0 90 45 22
        E 51 90 36 2a
        E 0 90 3e 24
        E 15 90 32 00
        E 26 90 42 25
        E 41 90 32 23
        E 10 90 36 00
        E 5 90 39 00
        E 36 90 26 00
        E 0 90 4a 33
        E 15 90 45 00
        E 26 90 36 22
        E 5 90 45 23
        E 5 90 3e 00
        E 0 90 3e 39
        E 0 90 42 00
        E 0 90 42 27
        E 10 90 4a 00
        E 31 90 26 24
        E 20 90 45 00
        E 5 90 3e 00
        E 31 90 42 00
        E 0 90 42 20
        E 5 90 26 00
        E 26 90 36 00
        E 0 90 45 21
        E 45 90 3e 3e
        E 11 90 4a 1e
        E 51 90 3e 00
        E 25 90 3e 2a
        E 11 90 32 00
        E 0 90 45 00
        E 35 90 45 27
        E 11 90 4a 00
        E 5 90 3e 00
        E 0 90 42 00
        E 30 90 37 1c
        E 0 90 3e 20
        E 0 90 4a 2d
        E 16 90 45 00
        E 51 90 3e 00
        E 30 90 3b 12
        E 16 90 37 00
        E 5 90 4a 00
        E 25 90 4a 23
        E 51 90 4f 21
        E 46 90 42 15
        E 0 90 4a 00
        E 5 90 3b 00
        E 21 90 39 1c
        E 0 90 40 37
        E 16 90 4f 00
        E 30 90 3c 14
        E 0 90 3e 26
        E 21 90 40 00
        E 36 90 26 39
        E 10 90 3e 00
        E 0 90 3e 36
        E 5 90 32 27
        E 0 90 3c 00
        E 0 90 42 00
        E 0 90 42 22
        E 5 90 45 27
        E 51 90 4a 29
        E 5 90 26 00
        E 0 90 39 00
        E 0 90 3e 00
        E 0 90 3e 25
        E 5 90 42 00
        E 62 90 45 00
        E 20 90 26 18
        E 10 90 42 26
        E 5 90 4a 00
        E 0 90 4a 25
        E 62 90 42 00
        E 30 90 26 00
        E 6 90 3e 00
        E 0 90 3e 28
        E 0 90 4a 00
        E 0 90 4a 29
        E 45 90 37 21
        E 16 90 32 00
        E 5 90 3e 00
        E 31 90 4a 00
        E 0 90 4a 21
        E 40 90 45 2d
        E 6 90 3e 2b
        E 5 90 32 28
        E 46 90 4a 00
        E 0 90 4a 2f
        E 5 90 45 00
        E 41 90 37 00
        E 0 90 37 21
        E 10 90 3e 00
        E 25 90 3e 2f
        E 21 90 4a 00
        E 41 90 32 00
        E 0 90 32 23
        E 0 90 45 21
        E 46 90 3e 00
        E 0 90 3e 28
        E 15 90 37 00
        E 36 90 4a 31
        E 41 90 3e 00
        E 0 90 3e 2c
        E 15 90 4a 00
        E 82 90 3e 00
        E 0 90 3e 1d
        E 10 90 45 00
        E 31 90 43 2a
        E 5 90 37 30
        E 41 90 3e 00
        E 0 90 3e 30
        E 15 90 43 00
        E 11 90 37 00
        E 30 90 32 00
        E 0 90 32 23
        E 56 90 3e 00
        E 26 90 43 27
        E 5 90 37 35
        E 41 90 3e 26
        E 20 90 43 00
        E 11 90 37 00
        E 30 90 39 2d
        E 0 90 3e 00
        E 5 90 32 00
        E 0 90 32 32
        E 0 90 3e 2b
        E 36 90 36 2c
        E 5 90 42 30
        E 0 90 45 2a
        E 21 90 39 00
        E 25 90 2a 1f
        E 10 90 4a 24
        E 11 90 45 00
        E 5 90 32 00
        E 25 90 2d 1f
        E 0 90 45 21
        E 11 90 39 1f
        E 5 90 2a 00
        E 5 90 36 00
        E 0 90 42 00
        E 35 90 25 1e
        E 0 90 43 1b
        E 11 90 4a 00
        E 5 90 3e 00
        E 20 90 34 28
        E 5 90 39 00
        E 0 90 39 2a
        E 0 90 40 2a
        E 51 90 25 00
        E 6 90 45 00
        E 0 90 45 21
        E 5 90 34 00
        E 35 90 39 00
        E 0 90 39 2e
        E 11 90 40 00
        E 0 90 43 00
        E 20 90 26 33
        E 10 90 42 2c
        E 5 90 32 31
        E 0 90 4a 28
        E 6 90 2d 00
        E 10 90 39 00
        E 35 90 26 00
        E 0 90 3e 24
        E 32 90 4a 00
        E 61 90 32 00
        E 0 90 3e 00
        E 0 90 45 00
        E 5 90 42 00
        E 51 90 21 1c
        E 0 90 2d 23
        E 5 90 2a 10
        E 0 90 39 36
        E 5 90 36 17
        E 0 90 40 1a
        E 6 90 45 28
        E 71 90 39 00
        E 0 90 45 00
        E 41 90 2a 00
        E 5 90 39 20
        E 5 90 36 00
        E 36 90 32 14
        E 5 90 45 26
        E 41 90 3e 32
        E 10 90 40 00
        E 0 90 40 17
        E 46 90 32 00
        E 0 90 45 00
        E 0 90 45 29
        E 5 90 21 00
        E 5 90 3e 00
        E 31 90 3d 24
        E 0 90 4c 2f
        E 5 90 36 19
        E 0 90 40 00
        E 0 90 40 32
        E 5 90 49 2a
        E 46 90 45 00
        E 0 90 45 2d
        E 5 90 3d 00
        E 5 90 40 00
        E 0 90 4c 00
        E 5 90 49 00
        E 26 90 3e 30
        E 0 90 42 39
        E 5 90 4a 26
        E 0 90 4e 2d
        E 5 90 2d 00
        E 51 90 45 00
        E 0 90 45 20
        E 5 90 36 00
        E 0 90 3e 00
        E 0 90 42 00
        E 0 90 4e 00
        E 36 90 2d 17
        E 0 90 40 23
        E 0 90 43 16
        E 0 90 4c 2f
        E 15 90 4a 00
        E 21 90 26 12
        E 15 90 45 00
        E 0 90 45 29
        E 10 90 4c 00
        E 41 90 26 00
        E 0 90 3e 15
        E 0 90 43 00
        E 11 90 2d 00
        E 0 90 40 00
        E 10 90 39 00
        E 0 90 45 00
        E 20 90 4a 23
        E 51 90 32 35
        E 0 90 3e 00
        E 5 90 3e 38
        E 5 90 45 26
        E 11 90 4a 00
        E 36 90 26 24
        E 10 90 3e 00
        E 0 90 3e 21
        E 5 90 32 00
        E 5 90 32 22
        E 0 90 45 00
        E 41 90 42 1f
        E 5 90 36 1f
        E 16 90 3e 00
        E 20 90 2a 25
        E 5 90 45 21
        E 5 90 39 23
        E 36 90 3e 39
        E 10 90 4a 2f
        E 5 90 2a 00
        E 46 90 3e 00
        E 0 90 45 00
        E 6 90 3e 33
        E 0 90 42 00
        E 0 90 45 2c
        E 56 90 26 00
        E 5 90 32 00
        E 5 90 3e 00
        E 0 90 45 00
        E 0 90 4a 00
        E 20 90 32 24
        E 0 90 42 38
        E 6 90 3e 35
        E 0 90 45 2d
        E 0 90 4a 2a
        E 0 90 51 1e
        E 5 90 4e 22
        E 46 90 3b 11
        E 15 90 42 00
        E 5 90 3e 00
        E 26 90 3e 3a
        E 0 90 42 26
        E 5 90 4e 00
        E 0 90 4e 2e
        E 5 90 45 00
        E 0 90 45 1c
        E 0 90 51 00
        E 5 90 39 00
        E 56 90 42 00
        E 5 90 3e 00
        E 0 90 4a 00
        E 0 90 4e 00
        E 41 90 3b 00
        E 5 90 45 00
        E 46 90 3e 27
        E 5 90 42 36
        E 16 90 36 00
        E 30 90 39 1b
        E 16 90 26 26
        E 0 90 32 00
        E 0 90 32 2d
        E 15 90 42 00
        E 20 90 36 23
        E 11 90 2a 27
        E 10 90 3e 00
        E 5 90 32 00
        E 31 90 2d 27
        E 40 90 3e 25
        E 5 90 32 26
        E 0 90 45 20
        E 21 90 2d 00
        E 20 90 42 26
        E 47 90 2d 16
        E 0 90 45 00
        E 5 90 2a 00
        E 0 90 39 00
        E 0 90 45 21
        E 5 90 36 00
        E 31 90 3e 00
        E 5 90 26 00
        E 0 90 3e 27
        E 46 90 42 00
        E 0 90 42 25
        E 0 90 45 00
        E 0 90 45 24
        E 46 90 2d 00
        E 0 90 3e 00
        E 0 90 3e 37
        E 36 90 36 1d
        E 0 90 51 25
        E 20 90 42 00
        E 5 90 3e 00
        E 26 90 3e 1d
        E 10 90 36 00
        E 0 90 51 00
        E 5 90 32 00
        E 0 90 45 00
        E 31 90 2f 31
        E 81 90 2f 00
        E 11 90 3e 00
        E 66 e0 00 60
        E 0 90 37 2f
        E 5 e0 00 60
        E 6 e0 55 6a
        E 5 e0 00 60
        E 6 e0 2b 15
        E 5 e0 55 0a
        E 5 e0 55 0a
        E 6 e0 55 0a
        E 5 e0 55 0a
        E 6 e0 00 00
        E 5 e0 55 0a
        E 5 e0 2b 15
        E 6 e0 00 20
        E 5 e0 00 20
        E 5 e0 00 20
        E 6 e0 00 20
        E 5 e0 00 20
        E 6 e0 00 20
        E 5 e0 2b 15
        E 0 90 37 00
        E 5 90 37 24
        E 0 90 43 1c
        E 36 90 2b 26
        E 51 90 34 20
        E 5 90 40 1d
        E 5 90 2b 00
        E 5 90 37 00
        E 5 90 43 00
        E 21 90 21 17
        E 10 90 39 2d
        E 56 90 40 00
        E 0 90 40 2b
        E 5 90 39 00
        E 5 90 21 00
        E 0 90 34 00
        E 21 90 37 16
        E 56 90 40 00
        E 31 90 26 21
        E 5 90 3e 39
        E 10 90 32 28
        E 0 90 3b 10
        E 1 90 45 1c
        E 10 90 37 00
        E 0 90 4a 1d
        E 41 90 3e 00
        E 5 90 26 00
        E 0 90 3b 00
        E 0 90 3e 23
        E 41 90 36 28
        E 56 90 45 00
        E 5 90 32 00
        E 0 90 36 00
        E 5 90 3e 00
        E 0 90 4a 00
        E 77 90 45 1a
        E 41 90 47 15
        E 51 90 45 00
        E 46 90 4a 1f
        E 30 90 4c 2c
        E 5 90 39 21
        E 0 90 40 20
        E 0 90 45 29
        E 57 90 4c 00
        E 10 90 39 00
        E 0 90 45 00
        E 36 90 4f 2b
        E 5 90 40 00
        E 0 90 47 00
        E 41 90 39 2f
        E 0 90 3e 28
        E 20 90 4a 00
        E 0 90 4f 00
        E 26 90 2a 2f
        E 5 90 26 2a
        E 0 90 2d 21
        E 0 90 32 26
        E 0 90 45 23
        E 10 90 39 00
        E 36 90 36 1f
        E 20 90 3e 00
        E 5 90 45 00
        E 5 90 1e 22
        E 16 90 2a 00
        E 0 90 39 20
        E 0 90 42 1a
        E 5 90 2a 29
        E 46 90 3e 26
        E 5 90 2d 00
        E 5 90 2d 26
        E 0 90 32 00
        E 0 90 32 26
        E 5 90 1e 00
        E 0 90 42 00
        E 10 90 2a 00
        E 26 90 45 20
        E 5 90 39 00
        E 41 90 3e 00
        E 5 90 3e 2c
        E 0 90 4a 21
        E 10 90 26 00
        E 26 90 51 28
        E 5 90 4e 22
        E 5 90 2d 00
        E 0 90 36 00
        E 41 90 3e 00
        E 0 90 3e 24
        E 0 90 45 00
        E 0 90 45 20
        E 10 90 51 00
        E 98 90 45 00
        E 0 90 4e 00
        E 30 90 3b 19
        E 0 90 3e 00
        E 0 90 3e 2a
        E 0 90 42 15
        E 0 90 4a 00
        E 0 90 4a 1c
        E 0 90 4e 2d
        E 67 90 36 0e
        E 0 90 42 00
        E 5 90 42 1c
        E 5 90 3b 00
        E 10 90 4e 00
        E 20 90 26 25
        E 6 90 32 00
        E 0 90 32 2b
        E 15 90 4a 00
        E 5 90 3e 00
        E 31 90 2a 1d
        E 0 90 36 00
        E 5 90 36 22
        E 0 90 42 00
        E 0 90 42 23
        E 15 90 32 00
        E 31 90 39 26
        E 36 90 32 20
        E 0 90 3e 35
        E 10 90 45 24
        E 0 90 4a 2f
        E 56 90 36 00
        E 0 90 36 23
        E 0 90 3e 00
        E 0 90 42 00
        E 0 90 42 2e
        E 5 90 26 00
        E 0 90 2a 00
        E 0 90 3e 20
        E 10 90 4a 00
        E 46 90 32 00
        E 0 90 42 00
        E 5 90 45 00
        E 46 90 39 00
        E 5 90 36 00
        E 31 90 42 19
        E 36 90 32 24
        E 5 90 3e 00
        E 0 90 3e 2e
        E 0 90 45 27
        E 51 90 2f 1c
        E 0 90 51 31
        E 10 90 45 00
        E 31 90 3b 21
        E 0 90 45 30
        E 20 90 3e 00
        E 0 90 51 00
        E 26 90 3e 2a
        E 5 90 4a 2b
        E 15 90 45 00
        E 21 90 23 29
        E 11 90 26 29
        E 0 90 2f 00
        E 5 90 2f 33
        E 10 90 4a 00
        E 30 90 3e 00
        E 0 90 3e 1a
        E 11 90 42 00
        E 10 90 32 00
        E 31 90 23 00
        E 0 90 26 00
        E 15 90 3b 00
        E 5 90 2f 00
        E 20 90 2b 2d
        E 0 90 34 21
        E 0 90 37 2b
        E 6 90 39 12
        E 5 90 40 26
        E 5 90 43 29
        E 51 90 2f 3a
        E 5 90 2b 00
        E 0 90 39 00
        E 5 90 2b 28
        E 0 90 34 00
        E 5 90 37 00
        E 0 90 43 00
        E 5 90 40 00
        E 51 90 2f 00
        E 0 90 3e 00
        E 31 90 37 20
        E 26 90 21 26
        E 5 90 2d 34
        E 0 90 31 1f
        E 10 90 3d 1d
        E 0 90 40 30
        E 15 90 2b 00
        E 46 90 40 00
        E 0 90 40 20
        E 5 90 2d 00
        E 0 90 37 00
        E 31 90 31 00
        E 0 90 3d 00
        E 0 90 3d 2a
        E 5 90 31 30
        E 5 90 21 00
        E 31 90 2a 1f
        E 5 90 2d 29
        E 5 90 39 2c
        E 15 90 31 00
        E 0 90 3d 00
        E 0 90 40 00
        E 36 90 32 38
        E 0 90 36 1f
        E 5 90 26 2a
        E 5 90 2a 00
        E 0 90 3e 36
        E 0 90 42 2a
        E 5 90 2d 00
        E 0 90 39 00
        E 62 90 26 00
        E 5 90 32 00
        E 0 90 3e 00
        E 15 90 2a 20
        E 26 90 42 00
        E 41 90 26 1d
        E 5 90 36 00
        E 5 90 32 28
        E 0 90 36 23
        E 5 90 2a 00
        E 0 90 3e 1b
        E 61 90 36 00
        E 41 90 26 00
        E 0 90 32 00
        E 0 90 32 1d
        E 36 90 36 23
        E 6 90 2a 33
        E 20 90 3e 00
        E 36 90 2d 3d
        E 0 90 39 29
        E 10 90 32 00
        E 5 90 36 00
        E 36 90 2a 00
        E 36 90 2d 00
        E 10 90 39 00
        E 36 90 1a 25
        E 25 90 26 39
        E 92 90 1a 00
        E 26 90 26 00
        E 362 e0 2b 15
        E 0 90 3e 24
        E 6 e0 2b 15
        E 5 e0 2b 15
        E 5 e0 00 20
        E 6 e0 00 20
        E 5 e0 00 20
        E 5 e0 00 20
        E 6 e0 00 20
        E 5 e0 00 20
        E 6 e0 00 20
        E 5 e0 00 20
        E 5 e0 00 20
        E 6 e0 00 20
        E 5 e0 00 20
        E 5 e0 00 20
        E 6 e0 00 20
        E 5 e0 00 20
        E 5 e0 00 20
        E 6 e0 00 20
        E 5 e0 00 20
        E 6 e0 00 20
        E 0 90 3e 00
        E 0 90 3e 1d
        E 5 e0 00 20
        E 5 e0 00 20
        E 5 e0 00 20
        E 5 e0 00 20
        E 5 e0 00 20
        E 5 e0 00 20
        E 6 e0 00 20
        E 5 e0 00 20
        E 5 e0 00 20
        E 5 e0 00 20
        E 5 e0 00 20
        E 5 e0 00 20
        E 5 e0 00 20
        E 0 90 3e 00
        E 0 90 3e 2c
        E 6 90 37 14
        E 0 90 4a 2f
        E 51 90 32 21
        E 5 90 42 2b
        E 0 90 4e 25
        E 5 90 37 00
        E 0 90 3e 00
        E 0 90 3e 1e
        E 10 90 4a 00
        E 56 90 3e 00
        E 0 90 3e 2f
        E 5 90 4a 26
        E 0 90 4e 00
        E 0 90 4e 1f
        E 11 90 42 00
        E 56 90 3b 1d
        E 0 90 42 10
        E 5 90 4e 00
        E 0 90 4e 22
        E 5 90 4a 00
        E 0 90 4a 1e
        E 51 90 42 00
        E 5 90 36 1b
        E 0 90 42 28
        E 10 90 4a 00
        E 0 90 4a 23
        E 0 90 4e 00
        E 0 90 4e 26
        E 6 90 3b 00
        E 10 90 3e 00
        E 46 90 3e 35
        E 5 90 36 00
        E 0 90 42 00
        E 0 90 42 25
        E 5 90 4a 00
        E 0 90 4a 28
        E 5 90 32 00
        E 5 90 4e 00
        E 67 90 42 00
        E 5 90 3e 00
        E 5 90 4a 00
        E 61 90 26 27
        E 5 90 32 2b
        E 5 90 3e 20
        E 87 90 32 00
        E 56 90 32 1b
        E 5 90 3e 00
        E 0 90 3e 2c
        E 0 90 4a 2e
        E 6 90 42 22
        E 5 90 26 00
        E 51 90 2f 1b
        E 5 90 32 00
        E 0 90 3e 00
        E 0 90 3e 2e
        E 0 90 4a 00
        E 0 90 4a 26
        E 5 90 42 00
        E 0 90 42 2e
        E 61 90 32 1e
        E 0 90 36 28
        E 0 90 3b 17
        E 11 90 3e 00
        E 0 90 3e 29
        E 0 90 4a 00
        E 0 90 4a 27
        E 5 90 42 00
        E 0 90 42 2d
        E 56 90 2f 00
        E 0 90 32 00
        E 0 90 3b 00
        E 0 90 3e 00
        E 0 90 3e 2d
        E 0 90 4a 00
        E 0 90 4a 2a
        E 5 90 42 00
        E 0 90 42 30
        E 6 90 36 00
        E 71 90 3e 00
        E 5 90 4a 00
        E 5 90 42 00
        E 57 90 32 1b
        E 5 90 2f 1b
        E 0 90 36 21
        E 0 90 3e 2d
        E 5 90 42 36
        E 0 90 4a 35
        E 51 90 3b 2d
        E 5 90 3e 00
        E 0 90 3e 21
        E 5 90 32 00
        E 10 90 36 00
        E 5 90 42 00
        E 0 90 4a 00
        E 62 90 3b 00
        E 0 90 3b 2f
        E 0 90 47 1e
        E 5 90 2f 00
        E 46 90 2f 2a
        E 10 90 42 2c
        E 5 90 3b 00
        E 0 90 3b 1e
        E 5 90 3e 00
        E 0 90 47 00
        E 46 90 32 2d
        E 15 90 3b 00
        E 0 90 3b 2b
        E 11 90 2f 00
        E 5 90 42 00
        E 56 90 37 28
        E 5 90 43 25
        E 10 90 32 00
        E 5 90 3b 00
        E 36 90 2a 1e
        E 5 90 34 1d
        E 11 90 40 24
        E 5 90 37 00
        E 0 90 37 2b
        E 0 90 43 00
        E 0 90 43 2f
        E 61 90 2a 00
        E 5 90 40 00
        E 0 90 40 1c
        E 15 90 37 00
        E 5 90 43 00
        E 31 90 2d 25
        E 5 90 21 1b
        E 5 90 3d 1b
        E 11 90 39 2c
        E 66 90 21 00
        E 0 90 36 19
        E 5 90 39 00
        E 0 90 39 26
        E 0 90 40 00
        E 0 90 40 27
        E 66 90 3d 00
        E 0 90 40 00
        E 0 90 40 1b
        E 0 90 43 29
        E 6 90 34 00
        E 0 90 36 00
        E 5 90 2d 00
        E 0 90 39 00
        E 41 90 26 28
        E 15 90 32 28
        E 0 90 3e 23
        E 0 90 45 2d
        E 11 90 43 00
        E 46 90 26 00
        E 5 90 39 18
        E 5 90 45 00
        E 0 90 45 1c
        E 10 90 40 00
        E 46 90 2b 1e
        E 5 90 41 10
        E 5 90 39 00
        E 0 90 3e 00
        E 0 90 3e 23
        E 0 90 47 26
        E 21 90 32 00
        E 41 90 41 00
        E 10 90 2b 00
        E 5 90 45 00
        E 5 90 47 00
        E 46 90 34 20
        E 0 90 37 1c
        E 0 90 40 25
        E 10 90 45 17
        E 0 90 4a 26
        E 10 90 3e 00
        E 57 90 34 00
        E 0 90 37 00
        E 0 90 4a 00
        E 5 90 40 00
        E 0 90 45 00
        E 117 90 24 16
        E 5 90 40 24
        E 72 90 24 00
        E 10 90 40 00
        E 158 90 37 13
        E 0 90 40 24
        E 11 90 43 27
        E 61 90 37 00
        E 0 90 3e 2a
        E 10 90 43 00
        E 5 90 40 00
        E 47 90 36 24
        E 5 90 32 1c
        E 5 90 42 2c
        E 5 90 3e 00
        E 0 90 3e 2e
        E 72 90 32 00
        E 5 90 42 00
        E 0 90 42 21
        E 5 90 36 00
        E 10 90 3e 00
        E 0 90 3e 2b
        E 46 90 42 00
        E 0 90 42 30
        E 5 90 32 1d
        E 0 90 45 23
        E 5 90 4a 34
        E 41 90 4e 22
        E 10 90 26 20
        E 5 90 3e 00
        E 0 90 3e 27
        E 0 90 42 00
        E 0 90 42 25
        E 0 90 45 00
        E 6 90 4a 00
        E 51 90 2f 20
        E 0 90 36 1c
        E 5 90 4a 23
        E 5 90 42 00
        E 0 90 42 26
        E 5 90 3e 00
        E 0 90 3e 2b
        E 5 90 4e 00
        E 46 90 36 00
        E 5 90 36 25
        E 0 90 42 00
        E 0 90 42 36
        E 5 90 3e 00
        E 0 90 3e 2c
        E 67 90 2f 00
        E 5 90 32 00
        E 5 90 26 00
        E 0 90 36 00
        E 0 90 3e 00
        E 0 90 4a 00
        E 10 90 42 00
        E 56 90 42 20
        E 67 90 2a 1a
        E 5 90 36 2b
        E 5 90 3e 2c
        E 61 90 4a 24
        E 5 90 2a 00
        E 0 90 42 00
        E 5 90 36 00
        E 0 90 36 29
        E 0 90 3e 00
        E 0 90 3e 27
        E 0 90 42 20
        E 82 90 3e 00
        E 0 90 3e 2a
        E 0 90 4a 00
        E 5 90 36 00
        E 0 90 42 00
        E 67 90 42 25
        E 5 90 36 22
        E 15 90 3e 00
        E 62 90 3e 26
        E 51 90 4a 2a
        E 36 90 32 22
        E 5 90 2f 26
        E 5 90 3b 1e
        E 5 90 3e 00
        E 0 90 3e 2e
        E 15 90 4a 00
        E 6 90 42 00
        E 46 90 3b 00
        E 5 90 32 00
        E 0 90 3b 2c
        E 5 90 42 19
        E 56 90 32 1d
        E 5 90 42 00
        E 0 90 4a 26
        E 5 90 42 2f
        E 10 90 3e 00
        E 46 90 3e 23
        E 11 90 2f 00
        E 0 90 32 00
        E 0 90 3b 00
        E 0 90 3b 25
        E 5 90 36 00
        E 0 90 4a 00
        E 5 90 42 00
        E 41 90 43 23
        E 15 90 37 23
        E 10 90 3b 00
        E 0 90 3e 00
        E 46 90 2b 26
        E 10 90 40 2c
        E 0 90 43 00
        E 6 90 43 32
        E 46 90 25 19
        E 5 90 34 23
        E 10 90 40 00
        E 0 90 40 1b
        E 0 90 47 23
        E 5 90 2b 00
        E 15 90 43 00
        E 36 90 2d 1d
        E 5 90 21 13
        E 10 90 40 00
        E 0 90 40 21
        E 5 90 37 00
        E 6 90 47 00
        E 51 90 21 00
        E 0 90 31 1b
        E 10 90 25 00
        E 5 90 3d 31
        E 0 90 40 00
        E 0 90 40 37
        E 66 90 2d 00
        E 0 90 31 00
        E 11 90 34 00
        E 0 90 3d 00
        E 10 90 40 00
        E 51 90 26 1b
        E 5 90 36 20
        E 5 90 3e 31
        E 0 90 4a 2c
        E 10 90 42 23
        E 52 90 26 00
        E 0 90 39 26
        E 5 90 3e 00
        E 0 90 3e 23
        E 5 90 36 00
        E 10 90 4a 00
        E 52 90 36 1d
        E 5 90 39 00
        E 5 90 39 29
        E 61 90 36 00
        E 5 90 36 1f
        E 5 90 39 00
        E 56 90 39 1f
        E 6 90 32 31
        E 0 90 36 00
        E 0 90 36 23
        E 5 90 3e 00
        E 0 90 3e 1f
        E 10 90 42 00
        E 61 90 2d 20
        E 0 90 39 00
        E 10 90 36 00
        E 0 90 3e 00
        E 5 90 32 00
        E 98 90 1a 2b
        E 15 90 26 2c
        E 0 90 32 29
        E 15 90 2d 00
        E 82 90 1a 00
        E 0 90 32 00
        E 128 90 26 00
        E 107 90 26 20
        E 0 90 2f 22
        E 5 90 32 41
        E 10 90 3e 3c
        E 51 90 26 00
        E 0 90 2f 00
        E 11 90 32 00
        E 5 90 3e 00
        E 148 90 32 21
        E 5 90 2e 1b
        E 0 90 37 1c
        E 6 90 3e 2f
        E 0 90 4a 2b
        E 56 90 42 21
        E 10 90 3e 00
        E 0 90 3e 33
        E 0 90 4a 00
        E 0 90 4a 22
        E 0 90 4e 1c
        E 5 90 37 00
        E 51 90 24 22
        E 16 90 42 00
        E 0 90 42 25
        E 0 90 4e 00
        E 0 90 4e 28
        E 5 90 2e 00
        E 0 90 4a 00
        E 0 90 4a 20
        E 15 90 3e 00
        E 46 90 3e 28
        E 5 90 24 00
        E 5 90 32 00
        E 0 90 4a 00
        E 0 90 4a 27
        E 0 90 4e 00
        E 0 90 4e 24
        E 5 90 42 00
        E 67 90 3e 00
        E 0 90 3e 27
        E 0 90 42 26
        E 5 90 4a 00
        E 0 90 4a 1e
        E 5 90 4e 00
        E 56 90 32 29
        E 0 90 4e 30
        E 5 90 36 1a
        E 0 90 3b 24
        E 5 90 4a 00
        E 0 90 4a 2c
        E 67 90 32 00
        E 0 90 36 00
        E 0 90 3b 00
        E 5 90 4e 00
        E 5 90 3e 00
        E 0 90 42 00
        E 0 90 4a 00
        E 66 90 36 20
        E 0 90 39 27
        E 5 90 26 28
        E 6 90 32 2c
        E 5 90 3e 22
        E 71 90 26 00
        E 0 90 36 00
        E 0 90 39 00
        E 10 90 32 00
        E 46 90 2a 20
        E 5 90 36 1c
        E 11 90 4a 2a
        E 5 90 3e 00
        E 0 90 3e 27
        E 0 90 42 1f
        E 66 90 2a 00
        E 0 90 3e 00
        E 0 90 3e 26
        E 0 90 42 00
        E 0 90 42 28
        E 0 90 4a 00
        E 0 90 4a 21
        E 67 90 3e 00
        E 0 90 3e 25
        E 0 90 42 00
        E 0 90 42 2c
        E 0 90 4a 00
        E 0 90 4a 28
        E 72 90 3e 00
        E 0 90 3e 25
        E 0 90 4a 00
        E 0 90 4a 29
        E 5 90 42 00
        E 0 90 42 2f
        E 56 90 2f 1a
        E 10 90 3e 00
        E 0 90 3e 29
        E 0 90 4a 00
        E 0 90 4a 25
        E 5 90 42 00
        E 0 90 42 2c
        E 5 90 36 00
        E 62 90 3e 00
        E 0 90 3e 22
        E 0 90 4a 00
        E 0 90 4a 27
        E 5 90 2f 00
        E 0 90 42 00
        E 0 90 42 2b
        E 66 90 3e 00
        E 0 90 3e 1c
        E 5 90 42 00
        E 0 90 42 20
        E 16 90 4a 00
        E 35 90 2f 25
        E 21 90 3b 2e
        E 0 90 3e 00
        E 5 90 42 00
        E 61 90 3e 31
        E 0 90 4a 1e
        E 10 90 3b 00
        E 0 90 3b 2b
        E 62 90 2f 00
        E 10 90 4a 00
        E 5 90 3b 00
        E 0 90 3e 00
        E 56 90 37 2e
        E 0 90 3e 11
        E 5 90 43 2d
        E 57 90 34 24
        E 5 90 3e 00
        E 0 90 40 24
        E 5 90 43 00
        E 0 90 43 2f
        E 71 90 40 00
        E 0 90 40 20
        E 11 90 34 00
        E 5 90 37 00
        E 0 90 43 00
        E 30 90 2d 23
        E 36 90 40 00
        E 47 90 3d 1f
        E 81 90 2d 00
        E 0 90 3d 00
        E 57 90 26 2b
        E 15 90 45 27
        E 5 90 32 27
        E 0 90 3e 28
        E 61 90 26 00
        E 0 90 34 18
        E 10 90 45 00
        E 0 90 45 23
        E 6 90 4a 12
        E 56 90 47 23
        E 5 90 34 00
        E 0 90 4a 00
        E 10 90 3e 00
        E 0 90 45 00
        E 5 90 32 00
        E 51 90 3e 25
        E 16 90 47 00
        E 46 90 34 1f
        E 5 90 40 10
        E 5 90 45 18
        E 5 90 4a 29
        E 10 90 3e 00
        E 46 90 34 00
        E 0 90 40 00
        E 5 90 34 1e
        E 0 90 40 1d
        E 10 90 45 00
        E 6 90 4a 00
        E 61 90 4a 1d
        E 5 90 34 00
        E 61 90 40 00
        E 0 90 40 25
        E 16 90 4a 00
        E 56 90 50 2a
        E 10 90 40 00
        E 56 90 50 00
        E 41 90 21 1a
        E 72 90 40 26
        E 5 90 21 00
        E 77 90 3e 27
        E 0 90 42 12
        E 10 90 40 00
        E 51 90 2f 1d
        E 5 90 42 00
        E 5 90 42 2a
        E 6 90 3e 00
        E 0 90 3e 2e
        E 66 90 36 19
        E 0 90 45 1f
        E 0 90 4a 23
        E 5 90 42 00
        E 0 90 42 1d
        E 0 90 51 25
        E 5 90 3e 00
        E 0 90 3e 1e
        E 61 90 3e 00
        E 0 90 3e 26
        E 0 90 42 00
        E 0 90 42 29
        E 6 90 45 00
        E 5 90 51 00
        E 46 90 4a 00
        E 5 90 26 1e
        E 5 90 32 1f
        E 0 90 42 00
        E 0 90 42 27
        E 5 90 3e 00
        E 0 90 3e 30
        E 56 90 3b 14
        E 0 90 4a 24
        E 5 90 42 00
        E 0 90 42 2e
        E 5 90 3e 00
        E 0 90 3e 2d
        E 57 90 3b 00
        E 0 90 42 00
        E 0 90 42 3a
        E 5 90 3e 00
        E 0 90 3e 2b
        E 66 90 26 00
        E 0 90 32 00
        E 5 90 2f 00
        E 0 90 36 00
        E 5 90 3e 00
        E 0 90 4a 00
        E 11 90 42 00
        E 71 90 42 23
        E 61 90 36 27
        E 0 90 3e 1d
        E 72 90 3e 00
        E 5 90 36 00
        E 0 90 36 28
        E 0 90 3e 2a
        E 10 90 42 00
        E 67 90 3e 00
        E 0 90 3e 22
        E 5 90 36 00
        E 72 90 36 26
        E 0 90 42 25
        E 51 90 3e 00
        E 0 90 3e 2c
        E 76 90 2a 1a
        E 0 90 4a 2c
        E 6 90 36 00
        E 0 90 36 27
        E 0 90 3e 00
        E 0 90 3e 32
        E 51 90 2f 23
        E 5 90 3b 17
        E 5 90 36 00
        E 0 90 36 23
        E 5 90 2a 00
        E 10 90 3e 00
        E 0 90 42 00
        E 0 90 4a 00
        E 51 90 3b 00
        E 5 90 36 00
        E 0 90 36 25
        E 0 90 3b 31
        E 0 90 3e 15
        E 62 90 3e 00
        E 5 90 3e 2f
        E 10 90 3b 00
        E 0 90 3b 2f
        E 0 90 42 2b
        E 77 90 2f 00
        E 5 90 36 00
        E 5 90 3b 00
        E 0 90 42 00
        E 5 90 3e 00
        E 51 90 37 29
        E 5 90 3b 18
        E 56 90 43 24
        E 11 90 3b 00
        E 81 90 37 00
        E 0 90 43 00
        E 36 90 2d 2e
        E 26 90 39 21
        E 56 90 27 1c
        E 5 90 3d 21
        E 6 90 40 32
        E 5 90 2d 00
        E 66 90 27 00
        E 0 90 3d 00
        E 10 90 39 00
        E 5 90 40 00
        E 57 90 36 21
        E 5 90 3e 38
        E 5 90 4a 24
        E 5 90 42 2b
        E 46 90 32 28
        E 10 90 39 19
        E 5 90 3e 00
        E 0 90 3e 29
        E 16 90 4a 00
        E 51 90 39 00
        E 5 90 39 34
        E 5 90 32 00
        E 15 90 3e 00
        E 5 90 42 00
        E 51 90 32 1d
        E 0 90 3e 2c
        E 6 90 36 00
        E 10 90 39 00
        E 35 90 36 1e
        E 16 90 32 00
        E 5 90 32 2a
        E 10 90 3e 00
        E 77 90 32 00
        E 0 90 36 00
        E 102 e0 55 0a
        E 0 90 26 36
        E 5 e0 55 0a
        E 6 e0 55 6a
        E 5 e0 55 6a
        E 5 e0 55 6a
        E 6 e0 55 6a
        E 5 e0 2b 15
        E 5 e0 2b 15
        E 6 e0 2b 15
        E 5 e0 2b 15
        E 5 e0 00 20
        E 6 e0 00 20
        E 5 e0 2b 15
        E 5 e0 2b 15
        E 6 e0 2b 15
        E 5 e0 2b 15
        E 6 e0 2b 15
        E 5 e0 00 20
        E 5 e0 00 20
        E 6 e0 00 20
        E 5 e0 00 20
        E 5 e0 00 20
        E 0 90 26 00
        E 277 90 2d 34
        E 46 90 39 2f
        E 66 90 2d 00
        E 0 90 39 00
        E 72 90 40 28
        E 66 90 2d 20
        E 5 90 43 1c
        E 67 90 3d 2b
        E 10 90 49 33
        E 61 90 39 2a
        E 15 90 3d 00
        E 0 90 43 00
        E 6 90 40 00
        E 5 90 49 00
        E 46 90 21 19
        E 0 90 3d 24
        E 5 90 33 16
        E 0 90 45 0c
        E 0 90 49 21
        E 5 90 4f 1b
        E 56 90 21 00
        E 0 90 40 37
        E 0 90 43 28
        E 0 90 45 00
        E 5 90 33 00
        E 0 90 45 22
        E 0 90 4c 26
        E 72 90 4c 00
        E 0 90 4c 22
        E 5 90 4f 00
        E 5 90 2d 00
        E 0 90 3d 00
        E 0 90 43 00
        E 0 90 45 00
        E 0 90 49 00
        E 5 90 39 00
        E 0 90 40 00
        E 87 90 4c 00
        E 72 90 45 29
        E 71 90 4a 25
        E 16 90 45 00
        E 56 e0 2b 15
        E 0 90 4a 00
        E 0 90 4a 22
        E 5 e0 2b 15
        E 6 e0 2b 15
        E 5 e0 2b 15
        E 6 e0 00 20
        E 5 e0 00 20
        E 6 e0 00 20
        E 5 e0 00 20
        E 6 e0 00 20
        E 5 e0 00 20
        E 6 e0 00 20
        E 5 e0 00 20
        E 6 e0 00 60
        E 5 e0 55 6a
        E 0 90 3e 1c
        E 0 90 4a 00
        E 0 90 4a 1d
        E 6 90 45 13
        E 61 90 39 24
        E 5 90 45 00
        E 0 90 4a 00
        E 0 90 4a 1b
        E 5 90 3e 00
        E 0 90 45 23
        E 66 90 4a 00
        E 6 90 45 00
        E 5 90 39 00
        E 224 90 26 23
        E 6 90 42 24
        E 5 90 32 28
        E 5 90 3e 2b
        E 61 90 36 26
        E 10 90 39 25
        E 0 90 42 00
        E 0 90 42 2a
        E 5 90 45 32
        E 62 90 26 00
        E 5 90 36 00
        E 0 90 39 00
        E 0 90 3e 00
        E 0 90 3e 26
        E 0 90 4e 27
        E 0 90 51 29
        E 10 90 42 00
        E 5 90 45 00
        E 42 90 42 26
        E 0 90 45 2a
        E 5 90 3e 00
        E 0 90 3e 37
        E 0 90 4a 23
        E 10 90 4e 00
        E 5 90 51 00
        E 56 90 4a 00
        E 0 90 4a 25
        E 10 90 32 00
        E 0 90 42 00
        E 0 90 45 00
        E 6 90 3e 00
        E 51 90 3e 2f
        E 10 90 4a 00
        E 0 90 4a 2a
        E 0 90 56 29
        E 87 90 3e 00
        E 0 90 4a 00
        E 0 90 56 00
        E 270 90 26 2d
        E 6 90 32 26
        E 76 90 3e 27
        E 77 90 26 00
        E 5 90 32 00
        E 0 90 3e 00
        E 46 90 3c 10
        E 5 90 34 10
        E 0 90 39 1a
        E 66 90 34 00
        E 0 90 3c 00
        E 0 90 40 18
        E 11 90 39 00
        E 46 90 32 1a
        E 10 90 40 00
        E 51 90 24 15
        E 0 90 3f 1e
        E 6 90 32 00
        E 61 90 2e 1b
        E 5 90 24 00
        E 10 90 3f 00
        E 61 90 2e 00
        E 338 90 37 23
        E 5 90 31 10
        E 5 90 3f 14
        E 5 90 53 16
        E 61 90 31 00
        E 5 e0 55 0a
        E 0 90 37 00
        E 0 90 3f 00
        E 0 90 52 1a
        E 0 90 53 00
        E 6 e0 2b 15
        E 5 e0 00 20
        E 6 e0 55 2a
        E 6 e0 00 20
        E 5 e0 00 20
        E 6 e0 00 20
        E 5 e0 00 20
        E 6 e0 55 2a
        E 6 e0 00 20
        E 5 e0 00 20
        E 6 e0 00 20
        E 0 90 52 00
        E 363 90 3e 35
        E 61 90 36 22
        E 5 90 42 2a
        E 16 90 3e 00
        E 61 90 36 00
        E 5 90 42 00
        E 123 e0 55 2a
        E 0 90 36 22
        E 5 e0 00 20
        E 6 e0 00 20
        E 5 e0 00 20
        E 5 e0 00 20
        E 6 e0 00 20
        E 5 e0 55 2a
        E 6 e0 55 2a
        E 5 e0 55 2a
        E 6 e0 2b 35
        E 5 e0 2b 35
        E 6 e0 2b 35
        E 5 e0 00 60
        E 5 e0 00 60
        E 6 e0 2b 15
        E 5 e0 00 20
        E 0 90 36 00
        E 92 90 21 32
        E 16 90 3d 32
        E 71 90 3d 00
        E 5 90 21 00
        E 200 90 2f 1e
        E 5 90 3e 28
        E 67 90 2f 00
        E 10 90 3e 00
        E 128 90 24 20
        E 10 90 2c 1a
        E 10 90 37 28
        E 66 90 24 00
        E 0 90 3f 29
        E 5 90 2c 00
        E 0 90 42 1e
        E 11 90 37 00
        E 66 90 3f 00
        E 0 90 42 00
        E 72 90 38 1c
        E 61 90 41 20
        E 77 90 38 00
        E 0 90 41 00
        E 76 90 2d 3c
        E 0 90 39 27
        E 67 90 21 2f
        E 15 90 3d 2e
        E 15 90 39 00
        E 10 90 2d 00
        E 46 90 34 21
        E 11 90 25 1b
        E 5 90 2d 28
        E 0 90 31 34
        E 0 90 39 27
        E 10 90 21 00
        E 5 90 3d 00
        E 52 90 21 20
        E 0 90 34 00
        E 5 90 34 1d
        E 5 90 3d 20
        E 0 90 40 17
        E 15 90 31 00
        E 41 90 2d 00
        E 15 90 21 00
        E 0 90 39 00
        E 0 90 3d 00
        E 0 90 40 00
        E 128 90 25 00
        E 0 90 3b 26
        E 10 90 34 00
        E 77 90 3b 00
        E 184 90 3e 25
        E 168 90 32 28
        E 0 90 36 18
        E 6 90 42 22
        E 0 90 4e 2f
        E 5 90 3e 00
        E 0 90 3e 2d
        E 0 90 4a 29
        E 66 90 36 00
        E 5 90 32 00
        E 0 90 3e 00
        E 0 90 3e 26
        E 0 90 4a 00
        E 0 90 4a 21
        E 5 90 42 00
        E 0 90 4e 00
        E 57 90 32 1f
        E 10 90 3e 00
        E 0 90 3e 23
        E 0 90 4a 00
        E 0 90 4a 21
        E 0 90 4e 1e
        E 56 90 36 16
        E 0 90 3b 19
        E 0 90 42 28
        E 11 90 3e 00
        E 0 90 3e 2c
        E 0 90 4a 00
        E 0 90 4a 26
        E 0 90 4e 00
        E 0 90 4e 20
        E 61 90 36 00
        E 5 90 32 00
        E 0 90 3e 00
        E 0 90 3e 28
        E 0 90 42 00
        E 0 90 42 1f
        E 0 90 4a 00
        E 0 90 4a 27
        E 0 90 4e 00
        E 0 90 4e 27
        E 72 90 4e 00
        E 0 90 4e 2f
        E 5 90 4a 00
        E 0 90 4a 33
        E 61 90 3b 00
        E 5 90 42 00
        E 5 90 3e 00
        E 0 90 4e 00
        E 5 90 4a 00
        E 62 90 26 2a
        E 10 90 32 29
        E 0 90 3e 29
        E 0 90 4a 1e
        E 5 90 45 24
        E 72 90 4a 00
        E 10 90 3e 00
        E 5 90 45 00
        E 56 90 42 27
        E 5 90 3e 22
        E 0 90 4a 29
        E 10 90 26 00
        E 0 90 32 00
        E 57 90 26 1a
        E 0 90 32 1e
        E 10 90 36 16
        E 0 90 42 00
        E 0 90 42 2b
        E 5 90 4a 00
        E 0 90 4a 23
        E 56 90 3e 00
        E 0 90 3e 27
        E 5 90 26 00
        E 0 90 4a 00
        E 0 90 4a 23
        E 5 90 32 00
        E 0 90 36 00
        E 0 90 42 00
        E 0 90 42 28
        E 56 90 2a 14
        E 6 90 32 1c
        E 0 90 36 24
        E 10 90 3e 00
        E 0 90 3e 2e
        E 0 90 42 00
        E 0 90 42 3a
        E 0 90 4a 00
        E 0 90 4a 38
        E 61 90 2a 00
        E 0 90 32 00
        E 10 90 36 00
        E 5 90 3e 00
        E 0 90 4a 00
        E 6 90 42 00
        E 56 90 36 1b
        E 5 90 3e 22
        E 0 90 4a 2b
        E 5 90 42 37
        E 57 90 3e 00
        E 0 90 3e 1a
        E 5 90 36 00
        E 5 90 4a 00
        E 10 90 42 00
        E 41 90 2f 28
        E 20 90 3b 2c
        E 0 90 3e 00
        E 62 90 32 2c
        E 0 90 42 2e
        E 5 90 36 12
        E 0 90 3e 2f
        E 5 90 3b 00
        E 0 90 3b 29
        E 0 90 4a 20
        E 61 90 36 00
        E 5 90 2f 00
        E 5 90 32 00
        E 0 90 42 00
        E 6 90 3b 00
        E 0 90 3e 00
        E 0 90 4a 00
        E 66 90 37 29
        E 5 90 43 22
        E 51 90 2b 22
        E 10 90 34 26
        E 11 90 30 11
        E 0 90 39 16
        E 0 90 40 26
        E 0 90 43 00
        E 0 90 43 2f
        E 5 90 37 00
        E 0 90 37 2d
        E 61 90 2b 00
        E 0 90 30 00
        E 10 90 34 00
        E 0 90 40 00
        E 5 90 37 00
        E 0 90 43 00
        E 41 90 2d 27
        E 16 90 39 00
        E 0 90 40 19
        E 5 90 39 2d
        E 61 90 34 23
        E 5 90 3d 20
        E 0 90 40 00
        E 5 90 40 33
        E 0 90 49 1d
        E 67 90 2d 00
        E 0 90 34 00
        E 0 90 49 00
        E 5 90 3d 00
        E 5 90 39 00
        E 0 90 40 00
        E 51 90 26 30
        E 5 90 2a 1b
        E 5 90 36 1e
        E 0 90 42 18
        E 5 90 32 28
        E 0 90 39 1f
        E 0 90 45 2b
        E 5 90 3e 21
        E 57 90 26 00
        E 0 90 2a 00
        E 10 90 36 00
        E 0 90 39 00
        E 0 90 42 00
        E 0 90 45 00
        E 0 90 45 1b
        E 62 90 3e 00
        E 0 90 3e 18
        E 5 90 45 00
        E 15 90 32 00
        E 107 90 34 26
        E 5 90 37 1a
        E 0 90 3e 00
        E 0 90 3e 21
        E 0 90 40 22
        E 11 90 4a 21
        E 66 90 3e 00
        E 5 90 34 00
        E 0 90 37 00
        E 0 90 40 00
        E 0 90 4a 00
        E 67 e0 00 20
        E 0 90 40 17
        E 5 e0 00 60
        E 5 e0 00 60
        E 5 e0 00 60
        E 6 e0 00 60
        E 5 e0 00 60
        E 5 e0 00 60
        E 6 e0 00 60
        E 5 e0 00 60
        E 5 e0 00 20
        E 6 e0 00 20
        E 5 e0 00 20
        E 5 e0 00 60
        E 5 e0 00 60
        E 6 e0 00 60
        E 5 e0 00 60
        E 5 e0 00 60
        E 6 e0 00 60
        E 5 e0 00 60
        E 5 e0 55 2a
        E 6 e0 55 2a
        E 5 e0 55 2a
        E 5 e0 55 2a
        E 5 e0 00 60
        E 6 e0 00 60
        E 5 e0 00 60
        E 5 e0 00 60
        E 6 e0 2b 75
        E 0 90 40 00
        E 0 90 50 27
        E 5 e0 2b 15
        E 6 e0 00 20
        E 5 e0 00 20
        E 6 e0 55 6a
        E 5 e0 55 6a
        E 6 e0 55 6a
        E 6 e0 55 6a
        E 5 e0 55 6a
        E 6 e0 55 6a
        E 5 e0 55 6a
        E 6 e0 55 6a
        E 0 90 50 00
        E 41 e0 55 4a
        E 0 90 45 36
        E 5 e0 2b 75
        E 6 e0 2b 75
        E 5 e0 2b 75
        E 6 e0 00 20
        E 5 e0 00 20
        E 6 e0 00 20
        E 5 e0 00 20
        E 6 e0 00 20
        E 6 e0 00 20
        E 5 e0 00 20
        E 6 e0 00 20
        E 5 e0 00 20
        E 0 90 45 00
        E 21 90 34 2a
        E 5 90 2b 1b
        E 0 90 37 1e
        E 5 90 40 27
        E 5 90 43 2f
        E 71 90 2b 00
        E 0 90 37 00
        E 0 90 3e 27
        E 6 90 34 00
        E 5 90 40 00
        E 5 90 43 00
        E 51 90 36 21
        E 10 90 42 29
        E 5 90 3e 00
        E 0 90 3e 26
        E 56 90 32 21
        E 11 90 3b 18
        E 0 90 47 1a
        E 5 90 36 00
        E 0 90 3e 00
        E 0 90 3e 1f
        E 0 90 42 00
        E 0 90 42 21
        E 62 90 32 00
        E 0 90 3e 00
        E 0 90 3e 35
        E 0 90 42 00
        E 0 90 42 28
        E 5 90 3b 00
        E 0 90 47 00
        E 10 90 36 1a
        E 0 90 45 13
        E 51 90 2f 1c
        E 0 90 32 1c
        E 5 90 4a 21
        E 5 90 3e 00
        E 0 90 3e 2b
        E 0 90 42 00
        E 0 90 42 26
        E 0 90 45 00
        E 56 90 2a 23
        E 5 90 32 00
        E 6 90 32 1a
        E 0 90 42 00
        E 0 90 42 33
        E 5 90 3e 00
        E 0 90 3e 35
        E 66 90 2a 00
        E 5 90 2f 00
        E 0 90 32 00
        E 0 90 36 00
        E 5 90 4a 00
        E 5 90 3e 00
        E 0 90 42 00
        E 57 90 3e 25
        E 10 90 42 23
        E 51 90 3e 00
        E 36 90 40 12
        E 5 90 36 1a
        E 56 90 40 00
        E 15 90 42 00
        E 57 90 32 1b
        E 5 90 36 00
        E 0 90 4a 25
        E 5 90 36 2a
        E 0 90 3e 2c
        E 0 90 42 25
        E 66 90 4a 00
        E 0 90 4a 23
        E 5 90 32 00
        E 0 90 3e 00
        E 0 90 3e 2a
        E 10 90 42 00
        E 6 90 36 00
        E 61 90 3e 00
        E 0 90 3e 1c
        E 5 90 4a 00
        E 10 90 36 29
        E 10 90 42 27
        E 41 90 3e 00
        E 0 90 3e 37
        E 67 90 4a 33
        E 5 90 36 00
        E 0 90 3e 00
        E 0 90 3e 20
        E 0 90 42 00
        E 62 90 2f 24
        E 0 90 36 29
        E 10 90 3e 00
        E 0 90 3e 26
        E 0 90 42 20
        E 20 90 4a 00
        E 41 90 26 14
        E 5 90 3b 30
        E 0 90 47 26
        E 21 90 36 00
        E 35 90 36 27
        E 6 90 26 00
        E 5 90 3b 00
        E 0 90 3b 2e
        E 0 90 3e 00
        E 0 90 3e 31
        E 0 90 42 00
        E 0 90 42 32
        E 10 90 47 00
        E 56 90 3b 00
        E 0 90 3b 25
        E 5 90 2f 00
        E 0 90 36 00
        E 10 90 3e 00
        E 0 90 42 00
        E 52 90 24 19
        E 0 90 43 23
        E 5 90 37 29
        E 15 90 3b 00
        E 36 90 2a 1c
        E 5 90 30 18
        E 0 90 34 2a
        E 5 90 43 00
        E 5 90 24 00
        E 0 90 40 23
        E 0 90 43 24
        E 56 90 2a 00
        E 5 90 30 00
        E 11 90 40 00
        E 5 90 34 00
        E 0 90 37 00
        E 0 90 43 00
        E 56 90 2d 20
        E 5 90 21 17
        E 0 90 34 24
        E 5 90 40 12
        E 5 90 39 23
        E 56 90 40 00
        E 5 90 21 00
        E 0 90 40 31
        E 11 90 34 00
        E 66 90 2d 00
        E 15 90 39 00
        E 0 90 40 00
        E 57 90 2f 1d
        E 0 90 32 1e
        E 0 90 36 1f
        E 10 90 3e 3c
        E 10 90 42 26
        E 51 90 39 23
        E 15 90 2f 00
        E 16 90 3e 00
        E 36 90 2d 23
        E 10 90 39 00
        E 5 90 32 00
        E 0 90 36 00
        E 0 90 39 28
        E 11 90 42 00
        E 51 90 2a 27
        E 5 90 32 1c
        E 5 90 3e 34
        E 5 90 2d 00
        E 10 90 39 00
        E 51 90 32 00
        E 5 90 32 2d
        E 11 90 2a 00
        E 10 90 3e 00
        E 46 e0 00 20
        E 0 90 32 00
        E 0 90 32 23
        E 5 e0 00 20
        E 6 e0 00 20
        E 6 e0 00 20
        E 5 e0 00 20
        E 6 e0 00 20
        E 5 e0 00 20
        E 6 e0 00 20
        E 5 e0 00 20
        E 6 e0 00 20
        E 6 e0 00 20
        E 5 e0 00 20
        E 0 90 32 00
        E 107 e0 55 0a
        E 0 90 26 3b
        E 6 e0 55 0a
        E 6 e0 2b 15
        E 5 e0 2b 15
        E 6 e0 2b 15
        E 5 e0 2b 15
        E 6 e0 2b 15
        E 5 e0 2b 15
        E 6 e0 2b 15
        E 6 e0 2b 15
        E 5 e0 2b 15
        E 6 e0 2b 15
        E 0 90 26 00
        E 0 90 26 25
        E 5 e0 2b 15
        E 5 e0 2b 15
        E 6 e0 2b 15
        E 5 e0 00 20
        E 5 e0 2b 15
        E 6 e0 00 20
        E 5 e0 00 20
        E 5 e0 00 20
        E 6 e0 00 20
        E 5 e0 00 20
        E 5 e0 00 20
        E 6 e0 00 20
        E 5 e0 00 20
        E 6 e0 00 20
        E 5 e0 00 20
        E 5 e0 00 20
        E 6 e0 00 20
        E 5 e0 00 20
        E 5 e0 00 20
        E 6 e0 00 20
        E 5 e0 00 20
        E 5 e0 00 20
        E 0 90 26 00
        E 982 90 3e 2b
        E 5 90 32 1c
        E 5 90 51 21
        E 10 90 4a 27
        E 46 90 32 00
        E 46 90 51 00
        E 20 90 3e 00
        E 6 90 4a 00
        E 204 90 3b 16
        E 118 90 4e 25
        E 5 90 3b 00
        E 92 90 42 21
        E 20 90 4e 00
        E 57 90 42 00
        E 138 90 4e 27
        E 76 90 3b 2b
        E 5 90 4e 00
        E 46 90 4a 2e
        E 10 90 3b 00
        E 57 90 4a 00
        E 159 e0 7f 7f
        E 0 90 4c 28
        E 5 e0 00 20
        E 6 e0 00 20
        E 5 e0 55 2a
        E 6 e0 55 2a
        E 5 e0 55 2a
        E 6 e0 55 2a
        E 6 e0 55 2a
        E 5 e0 55 2a
        E 6 e0 55 2a
        E 5 e0 00 20
        E 6 e0 00 20
        E 0 90 4c 00
        E 56 e0 55 6a
        E 0 90 43 2a
        E 5 e0 55 6a
        E 6 e0 55 6a
        E 5 e0 55 6a
        E 5 e0 55 6a
        E 6 e0 55 6a
        E 5 e0 00 60
        E 5 e0 00 60
        E 6 e0 00 60
        E 5 e0 00 20
        E 5 e0 00 20
        E 6 e0 00 20
        E 5 e0 00 20
        E 5 e0 00 20
        E 6 e0 00 20
        E 5 e0 00 20
        E 5 e0 00 20
        E 6 e0 00 20
        E 5 e0 00 20
        E 5 e0 00 20
        E 6 e0 55 6a
        E 5 e0 55 6a
        E 5 e0 55 6a
        E 5 e0 55 6a
        E 6 e0 00 20
        E 0 90 43 00
        E 189 90 32 3c
        E 10 90 42 25
        E 0 90 45 1b
        E 10 90 3e 30
        E 51 90 45 00
        E 5 90 42 00
        E 11 90 3e 00
        E 5 90 32 00
        E 87 e0 7f 7f
        E 0 90 4c 20
        E 5 e0 7f 7f
        E 5 e0 00 20
        E 6 e0 55 2a
        E 5 e0 55 2a
        E 5 e0 55 2a
        E 6 e0 55 2a
        E 5 e0 55 2a
        E 5 e0 55 2a
        E 6 e0 55 2a
        E 5 e0 55 2a
        E 5 e0 55 2a
        E 6 e0 55 2a
        E 5 e0 55 2a
        E 6 e0 55 2a
        E 5 e0 55 2a
        E 5 e0 55 2a
        E 6 e0 55 2a
        E 5 e0 55 2a
        E 5 e0 00 20
        E 6 e0 00 20
        E 5 e0 00 20
        E 0 90 4c 00
        E 419 e0 2b 75
        E 0 90 51 26
        E 6 e0 00 20
        E 5 e0 00 20
        E 5 e0 55 2a
        E 6 e0 55 2a
        E 5 e0 55 2a
        E 5 e0 55 2a
        E 6 e0 55 2a
        E 5 e0 00 20
        E 5 e0 00 20
        E 6 e0 00 20
        E 5 e0 00 20
        E 5 e0 00 20
        E 6 e0 00 20
        E 5 e0 00 20
        E 5 e0 00 20
        E 6 e0 55 2a
        E 5 e0 55 2a
        E 5 e0 55 2a
        E 6 e0 55 2a
        E 5 e0 55 2a
        E 5 e0 2b 75
        E 6 e0 2b 75
        E 5 e0 2b 75
        E 0 90 51 00
        E 194 90 51 22
        E 107 90 3b 14
        E 6 90 4a 23
        E 15 90 51 00
        E 41 90 3b 00
        E 31 90 3e 1d
        E 10 90 4a 00
        E 36 90 3b 2c
        E 0 90 4a 2b
        E 66 90 4e 23
        E 11 90 3e 00
        E 0 90 4a 00
        E 5 90 3b 00
        E 102 e0 2b 75
        E 0 90 4e 00
        E 0 90 4e 23
        E 5 e0 2b 75
        E 5 e0 00 20
        E 6 e0 55 2a
        E 5 e0 55 2a
        E 5 e0 00 20
        E 6 e0 55 2a
        E 5 e0 55 2a
        E 5 e0 55 2a
        E 6 e0 55 2a
        E 5 e0 55 2a
        E 5 e0 55 2a
        E 6 e0 00 20
        E 5 e0 00 20
        E 5 e0 00 20
        E 6 e0 00 20
        E 5 e0 00 20
        E 5 e0 00 20
        E 6 e0 55 2a
        E 5 e0 55 2a
        E 5 e0 55 2a
        E 6 e0 00 20
        E 5 e0 00 20
        E 5 e0 00 20
        E 6 e0 00 20
        E 0 90 4e 00
        E 81 90 4e 23
        E 97 90 2f 2a
        E 5 90 32 1b
        E 6 90 34 1a
        E 5 90 3e 27
        E 0 90 42 24
        E 5 90 3b 2b
        E 10 90 4e 00
        E 41 90 47 1a
        E 5 90 2f 00
        E 0 90 32 00
        E 0 90 34 00
        E 10 90 3b 00
        E 0 90 3e 00
        E 46 90 42 00
        E 41 90 47 00
        E 46 e0 00 20
        E 0 90 4a 39
        E 6 e0 2b 15
        E 5 e0 7f 7f
        E 6 e0 2b 15
        E 5 e0 2b 15
        E 6 e0 00 20
        E 5 e0 00 20
        E 6 e0 00 20
        E 5 e0 00 20
        E 6 e0 00 20
        E 5 e0 00 20
        E 6 e0 00 20
        E 5 e0 00 20
        E 0 90 4a 00
        E 52 90 32 2a
        E 5 90 39 1a
        E 5 90 36 19
        E 0 90 3e 23
        E 0 90 42 2d
        E 0 90 45 26
        E 56 90 32 00
        E 6 90 3e 00
        E 40 90 36 00
        E 0 90 39 00
        E 0 90 45 00
        E 6 90 42 00
        E 102 90 30 25
        E 56 90 34 1c
        E 0 90 39 19
        E 0 90 40 29
        E 5 90 30 00
        E 0 90 43 29
        E 66 90 34 00
        E 0 90 49 28
        E 6 90 39 00
        E 5 90 40 00
        E 0 90 43 00
        E 56 90 49 00
        E 36 90 2d 26
        E 10 90 37 24
        E 5 90 39 24
        E 41 90 30 20
        E 5 90 34 1f
        E 0 90 40 35
        E 5 90 2d 00
        E 0 90 43 28
        E 51 90 30 00
        E 10 90 34 00
        E 5 90 37 00
        E 0 90 39 00
        E 0 90 40 00
        E 0 90 43 00
        E 108 90 2a 30
        E 5 90 36 29
        E 0 90 4a 1f
        E 56 90 2a 00
        E 0 90 2a 1d
        E 10 90 36 00
        E 0 90 4a 00
        E 51 90 37 34
        E 5 90 2a 00
        E 0 90 2b 2c
        E 0 90 3e 24
        E 57 90 37 00
        E 21 90 2b 00
        E 0 90 3e 00
        E 30 90 39 23
        E 10 90 2d 2c
        E 62 90 39 00
        E 66 90 39 22
        E 5 90 2d 00
        E 46 90 32 36
        E 10 90 26 34
        E 16 90 39 00
        E 61 90 32 00
        E 66 90 26 00
        E 118 e0 00 20
        E 0 90 32 17
        E 6 e0 00 20
        E 5 e0 00 20
        E 6 e0 00 20
        E 5 e0 00 20
        E 6 e0 00 20
        E 5 e0 00 20
        E 6 e0 00 20
        E 6 e0 00 20
        E 5 e0 00 20
        E 6 e0 00 20
        E 5 e0 00 20
        E 0 90 32 00
        E 430 e0 55 6a
        E 0 90 51 1e
        E 6 e0 55 6a
        E 5 e0 55 2a
        E 6 e0 55 2a
        E 5 e0 55 2a
        E 6 e0 55 2a
        E 5 e0 55 2a
        E 6 e0 00 20
        E 6 e0 00 20
        E 5 e0 00 20
        E 6 e0 00 20
        E 5 e0 00 20
        E 0 90 51 00
        E 41 90 4a 2b
        E 5 90 42 1e
        E 5 90 3e 27
        E 51 90 4a 00
        E 11 90 42 00
        E 66 90 3e 00
        E 225 e0 2b 15
        E 0 90 4e 2a
        E 5 e0 00 20
        E 5 e0 00 20
        E 6 e0 00 20
        E 5 e0 55 2a
        E 5 e0 55 2a
        E 6 e0 55 2a
        E 5 e0 55 2a
        E 5 e0 55 2a
        E 6 e0 00 20
        E 5 e0 00 20
        E 5 e0 00 20
        E 6 e0 00 20
        E 5 e0 00 20
        E 5 e0 00 20
        E 6 e0 00 20
        E 5 e0 00 20
        E 5 e0 00 20
        E 6 e0 00 20
        E 5 e0 00 20
        E 5 e0 2b 75
        E 6 e0 7f 7f
        E 5 e0 00 20
        E 5 e0 00 20
        E 0 90 4e 00
        E 190 90 37 26
        E 0 90 3e 25
        E 5 90 3b 1c
        E 61 90 3e 00
        E 16 90 4e 25
        E 30 90 47 2d
        E 16 90 37 00
        E 51 90 4e 00
        E 10 90 47 00
        E 51 90 3b 00
        E 199 e0 2b 35
        E 0 90 4c 32
        E 6 e0 55 6a
        E 5 e0 7f 7f
        E 6 e0 2b 75
        E 5 e0 00 20
        E 6 e0 00 20
        E 6 e0 55 2a
        E 5 e0 55 2a
        E 6 e0 55 2a
        E 5 e0 55 2a
        E 6 e0 00 20
        E 5 e0 00 20
        E 6 e0 00 20
        E 0 90 4c 00
        E 61 90 47 27
        E 61 90 43 31
        E 5 90 47 00
        E 46 90 4f 1c
        E 16 90 43 00
        E 51 90 4f 00
        E 56 e0 2b 75
        E 0 90 49 24
        E 5 e0 2b 75
        E 5 e0 00 20
        E 5 e0 00 20
        E 6 e0 00 20
        E 5 e0 55 2a
        E 5 e0 55 2a
        E 5 e0 55 2a
        E 5 e0 55 2a
        E 5 e0 00 20
        E 6 e0 00 20
        E 5 e0 55 6a
        E 0 90 49 00
        E 30 90 32 2a
        E 16 90 3e 26
        E 143 90 4c 1d
        E 5 90 32 00
        E 5 90 3e 00
        E 102 90 4c 00
        E 429 e0 00 20
        E 0 90 51 1d
        E 6 e0 00 20
        E 5 e0 00 20
        E 5 e0 55 2a
        E 6 e0 55 2a
        E 5 e0 55 2a
        E 5 e0 55 2a
        E 6 e0 55 2a
        E 5 e0 00 20
        E 5 e0 00 20
        E 6 e0 00 20
        E 5 e0 00 20
        E 5 e0 00 20
        E 6 e0 55 2a
        E 5 e0 55 2a
        E 6 e0 55 2a
        E 5 e0 55 2a
        E 5 e0 55 2a
        E 6 e0 55 2a
        E 5 e0 00 20
        E 5 e0 55 6a
        E 6 e0 55 6a
        E 0 90 51 00
        E 189 90 45 15
        E 113 90 3b 20
        E 0 90 42 29
        E 5 90 45 00
        E 0 90 45 20
        E 5 90 3e 32
        E 0 90 4e 1d
        E 41 90 4a 26
        E 10 90 3b 00
        E 15 90 3e 00
        E 41 90 45 00
        E 0 90 4e 00
        E 5 90 42 00
        E 26 90 3a 16
        E 0 90 3e 21
        E 0 90 43 1b
        E 5 90 4a 00
        E 0 90 4a 2b
        E 66 90 4e 26
        E 5 90 3a 00
        E 0 90 3e 00
        E 0 90 43 00
        E 11 90 4a 00
        E 92 90 42 27
        E 5 90 4e 00
        E 0 90 4e 1e
        E 107 90 4e 00
        E 0 90 4e 26
        E 15 90 42 00
        E 102 90 4e 00
        E 93 90 34 26
        E 0 90 3b 29
        E 0 90 42 16
        E 0 90 47 1c
        E 66 90 34 00
        E 0 90 47 00
        E 5 90 3b 00
        E 31 90 46 29
        E 5 90 52 28
        E 5 90 42 00
        E 36 90 34 10
        E 15 90 46 00
        E 11 90 52 00
        E 41 90 34 00
        E 132 90 36 28
        E 0 90 42 2e
        E 5 90 45 24
        E 41 90 32 22
        E 5 90 3e 2c
        E 16 90 36 00
        E 25 90 4c 2b
        E 16 90 45 00
        E 5 90 32 00
        E 0 90 3e 00
        E 0 90 42 00
        E 41 90 4c 00
        E 56 90 34 21
        E 0 90 43 33
        E 5 90 3b 10
        E 0 90 40 20
        E 5 90 47 20
        E 51 90 43 00
        E 5 90 3b 00
        E 0 90 43 2f
        E 5 90 47 00
        E 41 90 34 00
        E 10 90 40 00
        E 5 90 43 00
        E 108 90 2d 20
        E 5 90 30 1d
        E 0 90 40 20
        E 5 90 37 17
        E 0 90 43 22
        E 52 90 2d 00
        E 0 90 39 20
        E 5 90 30 00
        E 5 90 40 00
        E 5 90 43 00
        E 56 90 37 00
        E 10 90 39 00
        E 46 90 1e 1e
        E 67 90 2a 30
        E 0 90 36 30
        E 5 90 1e 00
        E 66 90 2a 00
        E 0 90 36 00
        E 46 90 37 26
        E 5 90 2b 2d
        E 72 90 2b 00
        E 51 90 2d 2f
        E 15 90 37 00
        E 51 e0 00 20
        E 0 90 2d 00
        E 0 90 2d 22
        E 6 e0 00 20
        E 5 e0 2b 75
        E 6 e0 55 6a
        E 6 e0 55 6a
        E 5 e0 55 6a
        E 6 e0 55 6a
        E 5 e0 55 6a
        E 6 e0 2b 75
        E 6 e0 2b 75
        E 5 e0 2b 15
        E 6 e0 2b 15
        E 0 90 2d 00
        E 71 e0 55 0a
        E 0 90 26 3c
        E 6 e0 2b 15
        E 5 e0 2b 15
        E 5 e0 2b 15
        E 6 e0 2b 15
        E 5 e0 2b 15
        E 5 e0 2b 15
        E 6 e0 2b 15
        E 5 e0 2b 15
        E 5 e0 2b 15
        E 6 e0 2b 15
        E 5 e0 2b 15
        E 6 e0 2b 15
        E 5 e0 2b 15
        E 5 e0 00 20
        E 6 e0 00 20
        E 5 e0 00 20
        E 5 e0 00 20
        E 6 e0 00 20
        E 5 e0 00 20
        E 5 e0 55 6a
        E 0 90 26 00
        E 333 90 2a 1d
        E 0 90 39 46
        E 10 90 3d 30
        E 56 90 2a 00
        E 0 90 39 00
        E 31 90 3d 00
        E 77 90 21 23
        E 5 90 40 20
        E 5 90 3d 29
        E 5 90 39 2a
        E 118 90 40 00
        E 0 90 40 1f
        E 0 90 45 30
        E 5 90 3d 00
        E 0 90 3d 29
        E 5 90 39 00
        E 0 90 39 27
        E 5 90 21 00
        E 31 90 4c 1a
        E 20 90 45 00
        E 10 90 40 00
        E 36 90 40 20
        E 0 90 45 2c
        E 5 90 4c 00
        E 0 90 4c 29
        E 61 90 4c 00
        E 5 90 39 00
        E 6 90 3d 00
        E 51 90 3e 1f
        E 5 90 40 00
        E 0 90 4d 36
        E 15 90 45 00
        E 51 90 4d 00
        E 31 90 39 28
        E 0 90 4e 38
        E 5 90 3e 00
        E 0 90 3f 2c
        E 57 90 4e 00
        E 46 90 39 00
        E 20 90 3f 00
        E 409 90 39 1b
        E 5 90 42 24
        E 87 90 42 00
        E 51 90 39 00
        E 276 e0 2b 55
        E 0 90 3e 40
        E 6 e0 00 20
        E 5 e0 00 20
        E 6 e0 00 20
        E 5 e0 2b 15
        E 6 e0 2b 15
        E 5 e0 2b 15
        E 6 e0 00 20
        E 5 e0 00 20
        E 6 e0 00 20
        E 6 e0 00 20
        E 5 e0 00 20
        E 6 e0 00 20
        E 0 90 3e 00
        E 86 90 32 24
        E 6 90 42 24
        E 122 90 32 00
        E 0 90 32 23
        E 5 90 42 00
        E 0 90 42 26
        E 0 90 45 20
        E 0 90 4e 28
        E 67 90 4e 00
        E 35 90 4e 2c
        E 6 90 4a 29
        E 10 90 45 00
        E 5 90 42 00
        E 31 90 32 00
        E 30 90 4e 00
        E 26 90 43 2c
        E 5 90 40 32
        E 20 90 4a 00
        E 36 90 43 00
        E 10 90 40 00
        E 36 90 44 29
        E 5 90 41 28
        E 0 90 50 2e
        E 82 90 50 00
        E 36 90 44 00
        E 40 90 3e 3c
        E 11 90 41 00
        E 0 90 42 27
        E 56 90 3e 00
        E 72 90 42 00
        E 184 90 32 19
        E 5 90 45 1c
        E 5 90 3e 24
        E 26 90 2a 25
        E 5 90 36 23
        E 5 90 39 22
        E 46 90 32 00
        E 5 90 2a 00
        E 5 90 36 00
        E 5 90 39 00
        E 0 90 45 00
        E 5 90 3e 00
        E 97 e0 00 60
        E 0 90 37 38
        E 6 e0 00 60
        E 5 e0 00 00
        E 6 e0 55 6a
        E 5 e0 55 6a
        E 6 e0 00 60
        E 6 e0 00 60
        E 5 e0 00 60
        E 6 e0 00 60
        E 5 e0 00 60
        E 6 e0 00 60
        E 5 e0 2b 15
        E 6 e0 2b 15
        E 0 90 37 00
        E 168 90 3d 22
        E 108 90 32 34
        E 10 90 3d 00
        E 0 90 3e 29
        E 62 90 32 00
        E 46 90 40 28
        E 10 90 3e 00
        E 112 90 40 00
        E 97 e0 00 20
        E 0 90 42 20
        E 6 e0 00 20
        E 5 e0 00 20
        E 5 e0 00 20
        E 5 e0 00 20
        E 6 e0 55 2a
        E 5 e0 55 2a
        E 5 e0 55 2a
        E 6 e0 55 2a
        E 5 e0 00 20
        E 5 e0 00 20
        E 6 e0 00 20
        E 5 e0 00 20
        E 5 e0 00 20
        E 5 e0 00 20
        E 6 e0 00 20
        E 5 e0 00 20
        E 5 e0 55 2a
        E 6 e0 55 2a
        E 5 e0 55 2a
        E 5 e0 55 2a
        E 6 e0 55 2a
        E 5 e0 55 2a
        E 5 e0 55 2a
        E 5 e0 00 20
        E 6 e0 00 20
        E 5 e0 00 20
        E 5 e0 00 20
        E 0 90 42 00
        E 920 e0 00 20
        E 0 90 45 27
        E 6 e0 00 20
        E 5 e0 00 20
        E 6 e0 00 20
        E 6 e0 00 20
        E 5 e0 00 20
        E 6 e0 00 20
        E 5 e0 00 20
        E 6 e0 00 20
        E 5 e0 00 20
        E 6 e0 00 20
        E 5 e0 00 20
        E 6 e0 00 20
        E 0 90 45 00
        E 36 e0 55 0a
        E 0 90 4f 3b
        E 5 e0 55 0a
        E 6 e0 55 0a
        E 5 e0 55 6a
        E 6 e0 55 6a
        E 5 e0 55 6a
        E 6 e0 55 6a
        E 6 e0 55 6a
        E 5 e0 55 6a
        E 6 e0 55 6a
        E 5 e0 55 6a
        E 6 e0 55 6a
        E 0 90 4f 00
        E 680 90 36 28
        E 0 90 42 25
        E 41 90 4c 32
        E 20 90 36 00
        E 0 90 42 00
        E 46 90 4c 00
        E 828 90 3e 2a
        E 5 90 42 1b
        E 0 90 4a 28
        E 62 90 4a 00
        E 5 90 3e 00
        E 0 90 42 00
        E 46 e0 55 0a
        E 0 90 51 16
        E 5 e0 55 0a
        E 6 e0 2b 15
        E 5 e0 2b 15
        E 6 e0 55 0a
        E 5 e0 55 0a
        E 5 e0 2b 75
        E 6 e0 55 6a
        E 5 e0 00 60
        E 6 e0 00 60
        E 5 e0 00 60
        E 6 e0 00 60
        E 5 e0 00 60
        E 6 e0 55 6a
        E 5 e0 55 6a
        E 5 e0 2b 15
        E 0 90 51 00
        E 67 e0 2b 15
        E 0 90 4e 1f
        E 5 e0 00 20
        E 5 e0 00 20
        E 5 e0 00 20
        E 5 e0 55 2a
        E 6 e0 55 2a
        E 5 e0 55 2a
        E 5 e0 55 2a
        E 5 e0 55 2a
        E 5 e0 55 2a
        E 5 e0 55 2a
        E 5 e0 55 2a
        E 5 e0 00 20
        E 6 e0 00 20
        E 5 e0 00 20
        E 5 e0 00 20
        E 5 e0 00 20
        E 5 e0 00 20
        E 5 e0 00 20
        E 5 e0 00 20
        E 6 e0 00 20
        E 5 e0 00 20
        E 5 e0 00 20
        E 0 90 4e 00
        E 0 90 4e 1d
        E 5 e0 00 20
        E 6 e0 00 20
        E 5 e0 55 2a
        E 5 e0 55 2a
        E 6 e0 55 2a
        E 5 e0 55 2a
        E 5 e0 55 2a
        E 6 e0 00 20
        E 5 e0 00 20
        E 5 e0 00 20
        E 6 e0 00 20
        E 5 e0 00 20
        E 5 e0 00 20
        E 6 e0 00 20
        E 5 e0 00 20
        E 5 e0 00 20
        E 6 e0 00 20
        E 5 e0 00 20
        E 6 e0 55 2a
        E 5 e0 00 20
        E 5 e0 2b 75
        E 0 90 4e 00
        E 0 90 4e 26
        E 6 e0 00 20
        E 5 e0 00 20
        E 5 e0 00 20
        E 6 e0 55 2a
        E 5 e0 55 2a
        E 5 e0 55 2a
        E 6 e0 55 2a
        E 5 e0 00 20
        E 6 e0 00 20
        E 5 e0 00 20
        E 5 e0 00 20
        E 6 e0 00 20
        E 5 e0 00 20
        E 6 e0 00 20
        E 5 e0 00 20
        E 5 e0 00 20
        E 6 e0 2b 75
        E 5 e0 2b 75
        E 5 e0 00 20
        E 0 90 4e 00
        E 97 90 3b 25
        E 21 90 42 2f
        E 51 90 4e 21
        E 10 90 42 00
        E 16 90 47 1a
        E 56 90 42 15
        E 15 90 4e 00
        E 46 90 42 00
        E 5 90 47 00
        E 5 90 3b 00
        E 77 e0 2b 15
        E 0 90 32 21
        E 5 e0 2b 15
        E 6 e0 2b 15
        E 5 e0 2b 15
        E 5 e0 2b 15
        E 6 e0 2b 15
        E 5 e0 00 20
        E 6 e0 00 20
        E 5 e0 00 20
        E 6 e0 00 20
        E 5 e0 00 20
        E 5 e0 00 20
        E 6 e0 00 20
        E 5 e0 00 20
        E 6 e0 00 20
        E 5 e0 2b 15
        E 5 e0 2b 15
        E 6 e0 2b 15
        E 0 90 32 00
        E 465 90 32 1e
        E 21 90 3e 26
        E 117 90 3e 00
        E 0 90 3e 35
        E 46 90 4c 29
        E 5 90 2b 12
        E 0 90 34 13
        E 0 90 39 1c
        E 0 90 45 10
        E 21 90 3e 00
        E 35 90 3e 18
        E 0 90 40 20
        E 0 90 4c 00
        E 6 90 2b 00
        E 0 90 39 00
        E 0 90 4c 28
        E 46 90 36 23
        E 0 90 42 32
        E 0 90 4e 36
        E 10 90 34 00
        E 0 90 45 00
        E 5 90 4c 00
        E 36 90 32 00
        E 10 90 36 00
        E 0 90 40 00
        E 0 90 4e 00
        E 5 90 42 00
        E 31 90 43 24
        E 5 90 4f 39
        E 41 90 33 17
        E 5 90 3c 1c
        E 5 90 39 11
        E 5 90 3e 00
        E 0 90 43 00
        E 10 90 4f 00
        E 26 90 3e 27
        E 0 90 45 31
        E 5 90 51 24
        E 46 90 33 00
        E 0 90 39 00
        E 5 90 3c 00
        E 5 90 3e 00
        E 0 90 45 00
        E 0 90 51 00
        E 26 e0 55 2a
        E 0 90 3b 15
        E 6 e0 55 2a
        E 5 e0 55 2a
        E 6 e0 55 2a
        E 5 e0 55 2a
        E 6 e0 55 2a
        E 5 e0 55 2a
        E 6 e0 2b 35
        E 6 e0 2b 35
        E 5 e0 2b 35
        E 6 e0 2b 35
        E 5 e0 55 2a
        E 0 90 3b 00
        E 205 e0 2b 75
        E 0 90 51 1f
        E 5 e0 00 20
        E 5 e0 00 20
        E 6 e0 00 20
        E 5 e0 55 2a
        E 6 e0 55 2a
        E 5 e0 55 2a
        E 5 e0 55 2a
        E 6 e0 55 2a
        E 5 e0 00 20
        E 5 e0 00 20
        E 6 e0 00 20
        E 5 e0 00 20
        E 6 e0 00 20
        E 5 e0 00 20
        E 5 e0 00 20
        E 6 e0 00 20
        E 5 e0 00 20
        E 5 e0 00 20
        E 6 e0 2b 75
        E 0 90 51 00
        E 0 90 51 25
        E 97 90 32 26
        E 5 90 3b 27
        E 0 90 45 21
        E 5 90 3e 22
        E 0 90 42 23
        E 0 90 4a 22
        E 10 90 51 00
        E 36 90 37 21
        E 21 90 32 00
        E 0 90 3b 00
        E 40 90 45 00
        E 6 90 42 00
        E 0 90 4a 00
        E 25 90 4a 2c
        E 5 90 3b 2b
        E 15 90 37 00
        E 52 90 3e 00
        E 0 90 4a 00
        E 5 90 3b 00
        E 107 e0 2b 75
        E 0 90 4e 29
        E 5 e0 00 20
        E 5 e0 00 20
        E 5 e0 55 2a
        E 5 e0 55 2a
        E 6 e0 55 2a
        E 5 e0 55 2a
        E 5 e0 55 2a
        E 5 e0 55 2a
        E 5 e0 55 2a
        E 5 e0 55 2a
        E 5 e0 00 20
        E 6 e0 00 20
        E 5 e0 00 20
        E 5 e0 55 2a
        E 5 e0 55 2a
        E 5 e0 55 2a
        E 5 e0 00 20
        E 5 e0 7f 7f
        E 6 e0 7f 7f
        E 5 e0 00 20
        E 5 e0 00 20
        E 0 90 4e 00
        E 76 90 42 15
        E 0 90 46 31
        E 62 90 46 00
        E 51 90 42 00
        E 5 90 42 23
        E 87 90 32 19
        E 5 90 37 1b
        E 5 90 52 22
        E 10 90 42 00
        E 36 90 3b 1b
        E 0 90 42 20
        E 0 90 47 1f
        E 15 90 52 00
        E 36 90 4a 3a
        E 15 90 32 00
        E 0 90 3b 00
        E 5 90 37 00
        E 0 90 42 00
        E 0 90 47 00
        E 41 90 4a 00
        E 51 90 42 36
        E 0 90 45 33
        E 16 90 36 1a
        E 0 90 39 1e
        E 0 90 3e 26
        E 41 90 2d 12
        E 5 90 32 25
        E 0 90 42 00
        E 0 90 45 00
        E 5 90 42 2a
        E 0 90 45 2b
        E 0 90 4a 18
        E 15 90 3e 00
        E 41 90 2d 00
        E 5 90 36 00
        E 0 90 4a 00
        E 5 90 32 00
        E 0 90 39 00
        E 0 90 45 00
        E 5 90 42 00
        E 92 90 34 1f
        E 0 90 43 2f
        E 5 90 30 1a
        E 0 90 37 1e
        E 6 90 47 1c
        E 46 90 39 21
        E 0 90 40 2c
        E 0 90 43 00
        E 5 90 30 00
        E 0 90 43 30
        E 5 90 47 00
        E 51 90 49 29
        E 5 90 34 00
        E 0 90 37 00
        E 6 90 39 00
        E 0 90 40 00
        E 5 90 43 00
        E 46 90 49 00
        E 41 90 2d 2c
        E 10 90 2a 16
        E 0 90 3d 1e
        E 61 90 39 22
        E 0 90 3d 00
        E 5 90 2a 00
        E 0 90 40 26
        E 5 90 2d 00
        E 72 90 39 00
        E 0 90 40 00
        E 102 90 32 20
        E 5 90 2a 38
        E 0 90 36 35
        E 0 90 42 21
        E 77 90 32 00
        E 0 90 3e 1e
        E 0 90 42 00
        E 10 90 2a 00
        E 5 90 36 00
        E 56 90 2b 2d
        E 16 90 3e 00
        E 66 90 2b 00
        E 66 e0 2b 15
        E 0 90 2d 2c
        E 6 e0 2b 15
        E 5 e0 2b 15
        E 5 e0 00 20
        E 6 e0 00 20
        E 5 e0 00 20
        E 5 e0 00 20
        E 6 e0 00 20
        E 5 e0 00 20
        E 5 e0 00 20
        E 6 e0 00 20
        E 5 e0 2b 15
        E 5 e0 2b 15
        E 6 e0 2b 15
        E 5 e0 2b 15
        E 5 e0 2b 15
        E 5 e0 2b 15
        E 6 e0 2b 15
        E 5 e0 2b 15
        E 5 e0 2b 15
        E 6 e0 2b 15
        E 5 e0 2b 15
        E 5 e0 2b 15
        E 6 e0 2b 15
        E 5 e0 2b 15
        E 0 90 2d 00
        E 31 90 26 3c
        E 5 90 32 37
        E 92 90 32 00
        E 5 90 26 00
        E 1411 90 32 2e
        E 15 90 3e 31
        E 0 90 41 1e
        E 72 90 32 00
        E 0 90 41 00
        E 10 90 3e 00
        E 138 e0 00 20
        E 0 90 4d 24
        E 6 e0 00 20
        E 6 e0 55 2a
        E 5 e0 55 2a
        E 6 e0 55 2a
        E 5 e0 55 2a
        E 6 e0 00 20
        E 5 e0 00 20
        E 6 e0 00 20
        E 6 e0 00 20
        E 5 e0 00 20
        E 6 e0 00 20
        E 0 90 4d 00
        E 209 90 26 1a
        E 16 90 41 2a
        E 45 90 26 00
        E 31 90 41 00
        E 480 90 39 1f
        E 124 90 40 22
        E 66 90 39 00
        E 0 90 40 00
        E 20 90 2e 1c
        E 0 90 3e 2d
        E 5 90 45 22
        E 0 90 4a 2f
        E 52 90 41 2d
        E 5 90 2e 00
        E 0 90 4d 28
        E 10 90 3e 00
        E 0 90 45 00
        E 0 90 4a 00
        E 61 90 4d 00
        E 36 90 41 00
        E 460 e0 2b 55
        E 0 90 32 23
        E 5 e0 00 60
        E 5 e0 00 60
        E 5 e0 00 60
        E 5 e0 00 60
        E 5 e0 00 60
        E 6 e0 00 60
        E 5 e0 00 20
        E 5 e0 00 20
        E 5 e0 00 20
        E 5 e0 00 20
        E 5 e0 00 20
        E 5 e0 00 20
        E 6 e0 00 20
        E 0 90 32 00
        E 30 e0 55 6a
        E 0 90 2e 1a
        E 6 e0 55 6a
        E 5 e0 55 6a
        E 6 e0 55 6a
        E 6 e0 00 20
        E 5 e0 00 20
        E 6 e0 00 20
        E 5 e0 00 20
        E 6 e0 2b 15
        E 5 e0 55 0a
        E 6 e0 55 0a
        E 6 e0 55 0a
        E 0 90 2e 00
        E 112 90 2e 1c
        E 0 90 4a 38
        E 61 90 4a 00
        E 51 90 40 2e
        E 5 90 2e 00
        E 57 90 40 00
        E 61 e0 2b 75
        E 0 90 4d 2a
        E 5 e0 2b 75
        E 6 e0 2b 75
        E 5 e0 55 6a
        E 5 e0 55 6a
        E 6 e0 55 6a
        E 5 e0 55 6a
        E 5 e0 55 6a
        E 6 e0 55 6a
        E 5 e0 55 6a
        E 5 e0 55 0a
        E 6 e0 2b 15
        E 5 e0 2b 15
        E 5 e0 2b 15
        E 6 e0 2b 15
        E 5 e0 55 6a
        E 5 e0 55 6a
        E 6 e0 00 20
        E 5 e0 00 20
        E 5 e0 00 20
        E 6 e0 00 20
        E 5 e0 55 2a
        E 5 e0 55 2a
        E 0 90 4d 00
        E 123 e0 2b 15
        E 0 90 3e 24
        E 5 e0 00 20
        E 6 e0 00 20
        E 5 e0 00 20
        E 5 e0 00 20
        E 6 e0 00 20
        E 5 e0 00 20
        E 5 e0 00 20
        E 6 e0 00 20
        E 5 e0 00 20
        E 5 e0 00 20
        E 6 e0 00 20
        E 5 e0 00 20
        E 5 e0 00 20
        E 6 e0 00 20
        E 5 e0 00 20
        E 5 e0 00 20
        E 6 e0 00 20
        E 5 e0 00 20
        E 5 e0 00 20
        E 6 e0 00 20
        E 5 e0 00 20
        E 5 e0 00 20
        E 6 e0 00 20
        E 0 90 3e 00
        E 15 90 51 2c
        E 5 90 3e 2c
        E 0 90 45 1e
        E 62 90 51 00
        E 31 90 41 1c
        E 0 90 45 00
        E 0 90 45 28
        E 10 90 3e 00
        E 112 90 41 00
        E 10 90 45 00
        E 82 e0 00 60
        E 0 90 45 1d
        E 6 e0 55 2a
        E 5 e0 55 2a
        E 5 e0 00 20
        E 6 e0 00 20
        E 5 e0 00 20
        E 5 e0 00 20
        E 6 e0 55 2a
        E 5 e0 55 2a
        E 5 e0 55 2a
        E 6 e0 00 20
        E 5 e0 00 20
        E 6 e0 00 20
        E 5 e0 00 20
        E 5 e0 00 20
        E 6 e0 00 20
        E 5 e0 00 20
        E 5 e0 00 20
        E 6 e0 00 20
        E 5 e0 55 2a
        E 5 e0 00 20
        E 0 90 45 00
        E 0 90 45 2b
        E 6 e0 00 20
        E 5 e0 00 20
        E 6 e0 00 20
        E 5 e0 00 20
        E 6 e0 00 20
        E 5 e0 00 20
        E 6 e0 00 20
        E 5 e0 00 20
        E 6 e0 00 20
        E 5 e0 00 20
        E 6 e0 00 20
        E 5 e0 00 20
        E 6 e0 00 20
        E 0 90 45 00
        E 41 e0 00 60
        E 0 90 3e 24
        E 5 e0 00 60
        E 5 e0 55 6a
        E 6 e0 55 6a
        E 5 e0 55 6a
        E 5 e0 55 6a
        E 6 e0 55 6a
        E 5 e0 55 6a
        E 5 e0 55 6a
        E 6 e0 2b 15
        E 5 e0 00 60
        E 5 e0 00 60
        E 5 e0 00 60
        E 6 e0 00 60
        E 5 e0 00 60
        E 5 e0 00 60
        E 6 e0 00 60
        E 5 e0 2b 15
        E 5 e0 2b 15
        E 5 e0 55 6a
        E 6 e0 00 60
        E 5 e0 00 60
        E 5 e0 00 20
        E 6 e0 00 60
        E 5 e0 00 60
        E 5 e0 00 60
        E 6 e0 00 60
        E 5 e0 00 60
        E 0 90 3e 00
        E 128 e0 55 2a
        E 0 90 45 17
        E 5 e0 55 2a
        E 5 e0 55 2a
        E 6 e0 55 2a
        E 5 e0 55 2a
        E 5 e0 55 2a
        E 6 e0 55 2a
        E 5 e0 55 2a
        E 5 e0 55 2a
        E 6 e0 55 2a
        E 5 e0 55 2a
        E 5 e0 55 2a
        E 6 e0 55 2a
        E 5 e0 55 2a
        E 5 e0 00 20
        E 6 e0 55 2a
        E 5 e0 55 2a
        E 5 e0 55 2a
        E 6 e0 55 2a
        E 5 e0 55 2a
        E 5 e0 55 2a
        E 6 e0 00 20
        E 5 e0 00 20
        E 5 e0 2b 75
        E 0 90 45 00
        E 103 90 41 33
        E 0 90 45 2c
        E 71 90 41 00
        E 36 90 40 27
        E 16 90 45 00
        E 66 90 40 00
        E 82 90 39 39
        E 0 90 45 1b
        E 5 90 4d 2e
        E 61 90 45 00
        E 10 90 39 00
        E 5 90 4d 00
        E 41 e0 00 20
        E 0 90 39 1f
        E 6 e0 2b 75
        E 5 e0 2b 75
        E 6 e0 55 2a
        E 5 e0 55 2a
        E 6 e0 00 20
        E 5 e0 00 20
        E 6 e0 00 20
        E 5 e0 00 20
        E 6 e0 55 2a
        E 5 e0 55 2a
        E 5 e0 55 2a
        E 6 e0 55 2a
        E 5 e0 55 2a
        E 6 e0 55 2a
        E 0 90 39 00
        E 25 e0 00 60
        E 0 90 41 34
        E 6 e0 55 6a
        E 5 e0 55 6a
        E 6 e0 00 60
        E 5 e0 00 60
        E 6 e0 00 60
        E 5 e0 00 60
        E 5 e0 00 60
        E 6 e0 00 60
        E 5 e0 00 60
        E 6 e0 00 60
        E 5 e0 55 6a
        E 6 e0 55 6a
        E 5 e0 55 6a
        E 5 e0 55 6a
        E 6 e0 55 6a
        E 5 e0 55 6a
        E 0 90 41 00
        E 379 e0 55 0a
        E 0 90 3d 29
        E 5 e0 55 0a
        E 6 e0 2b 75
        E 5 e0 55 6a
        E 6 e0 00 20
        E 6 e0 00 20
        E 5 e0 55 6a
        E 6 e0 55 6a
        E 5 e0 55 6a
        E 6 e0 00 20
        E 5 e0 55 6a
        E 6 e0 55 6a
        E 5 e0 55 6a
        E 0 90 3d 00
        E 409 e0 55 6a
        E 0 90 41 30
        E 5 e0 55 6a
        E 6 e0 55 6a
        E 6 e0 55 6a
        E 5 e0 00 60
        E 6 e0 00 60
        E 5 e0 2b 15
        E 6 e0 2b 15
        E 5 e0 2b 15
        E 6 e0 2b 15
        E 5 e0 2b 15
        E 6 e0 2b 15
        E 5 e0 2b 15
        E 0 90 41 00
        E 287 e0 2b 75
        E 0 90 32 34
        E 5 e0 2b 75
        E 6 e0 55 6a
        E 5 e0 55 6a
        E 6 e0 55 6a
        E 5 e0 55 6a
        E 6 e0 55 6a
        E 5 e0 55 6a
        E 6 e0 55 6a
        E 5 e0 55 6a
        E 6 e0 55 6a
        E 5 e0 55 6a
        E 6 e0 55 6a
        E 5 e0 55 6a
        E 0 90 32 00
        E 379 e0 55 4a
        E 0 90 35 1d
        E 5 e0 55 4a
        E 6 e0 00 40
        E 5 e0 2b 35
        E 6 e0 55 2a
        E 5 e0 55 2a
        E 6 e0 55 2a
        E 5 e0 55 2a
        E 6 e0 00 20
        E 5 e0 00 20
        E 6 e0 00 20
        E 5 e0 00 20
        E 6 e0 00 20
        E 0 90 35 00
        E 317 90 3e 45
        E 0 90 41 31
        E 62 90 41 00
        E 5 90 3e 00
        E 357 e0 55 0a
        E 0 90 3a 2d
        E 6 e0 55 0a
        E 5 e0 55 0a
        E 6 e0 55 6a
        E 5 e0 55 6a
        E 6 e0 55 6a
        E 6 e0 55 6a
        E 5 e0 55 6a
        E 6 e0 55 6a
        E 5 e0 00 60
        E 6 e0 00 60
        E 6 e0 00 60
        E 0 90 3a 00
        E 787 e0 2b 75
        E 0 90 45 2c
        E 5 e0 2b 75
        E 6 e0 00 20
        E 5 e0 00 20
        E 6 e0 00 20
        E 6 e0 00 20
        E 5 e0 00 20
        E 6 e0 00 20
        E 5 e0 00 20
        E 6 e0 00 20
        E 5 e0 00 20
        E 6 e0 00 20
        E 0 90 45 00
        E 255 90 2e 16
        E 52 90 40 1b
        E 26 90 2e 00
        E 56 90 3e 1f
        E 0 90 4a 35
        E 5 90 40 00
        E 51 90 4d 2f
        E 5 90 3e 00
        E 15 90 4a 00
        E 46 90 4d 00
        E 312 90 40 2b
        E 0 90 43 28
        E 77 90 43 00
        E 10 90 40 00
        E 379 e0 55 6a
        E 0 90 2e 1e
        E 5 e0 55 6a
        E 5 e0 00 00
        E 6 e0 00 20
        E 5 e0 00 20
        E 5 e0 00 20
        E 6 e0 00 20
        E 5 e0 00 20
        E 5 e0 00 20
        E 6 e0 55 6a
        E 5 e0 55 6a
        E 5 e0 55 6a
        E 6 e0 55 6a
        E 5 e0 55 6a
        E 5 e0 55 6a
        E 6 e0 55 6a
        E 5 e0 55 6a
        E 5 e0 55 6a
        E 6 e0 2b 35
        E 5 e0 2b 35
        E 5 e0 2b 35
        E 6 e0 55 2a
        E 5 e0 55 2a
        E 0 90 2e 00
        E 107 e0 2b 75
        E 0 90 4d 2a
        E 6 e0 2b 75
        E 5 e0 2b 75
        E 6 e0 00 20
        E 5 e0 00 20
        E 6 e0 00 20
        E 5 e0 00 20
        E 6 e0 00 20
        E 5 e0 00 20
        E 6 e0 00 20
        E 5 e0 00 20
        E 6 e0 00 20
        E 5 e0 2b 15
        E 6 e0 2b 15
        E 0 90 4d 00
        E 296 90 35 18
        E 0 90 3e 25
        E 0 90 45 16
        E 0 90 51 2b
        E 61 90 51 00
        E 21 90 41 28
        E 5 90 45 00
        E 5 90 35 00
        E 0 90 45 25
        E 10 90 3e 00
        E 46 90 41 00
        E 62 90 45 00
        E 87 90 41 27
        E 5 90 3e 17
        E 102 90 45 20
        E 10 90 3e 00
        E 11 90 41 00
        E 92 90 32 25
        E 5 90 3e 35
        E 5 90 41 19
        E 10 90 45 00
        E 51 90 32 00
        E 5 90 41 00
        E 5 90 3e 00
        E 194 e0 2b 15
        E 0 90 41 24
        E 6 e0 2b 15
        E 5 e0 2b 15
        E 5 e0 2b 15
        E 6 e0 2b 15
        E 5 e0 2b 15
        E 5 e0 2b 15
        E 6 e0 2b 15
        E 5 e0 00 20
        E 5 e0 00 20
        E 6 e0 00 20
        E 5 e0 00 20
        E 5 e0 00 20
        E 6 e0 00 20
        E 5 e0 00 20
        E 5 e0 00 20
        E 6 e0 00 20
        E 5 e0 00 20
        E 5 e0 00 20
        E 6 e0 00 20
        E 5 e0 00 20
        E 5 e0 00 20
        E 6 e0 00 20
        E 5 e0 00 20
        E 0 90 41 00
        E 102 90 41 1f
        E 0 90 45 21
        E 103 90 45 00
        E 0 90 45 2a
        E 10 90 41 00
        E 72 90 45 00
        E 87 90 41 2d
        E 0 90 4d 32
        E 76 90 41 00
        E 10 90 4d 00
        E 92 90 41 17
        E 67 90 4d 1d
        E 102 90 4d 00
        E 5 90 39 27
        E 5 90 41 00
        E 5 90 41 29
        E 62 90 39 00
        E 0 90 41 00
        E 337 90 24 22
        E 5 90 21 1b
        E 0 90 2a 12
        E 0 90 2d 21
        E 5 90 34 18
        E 0 90 37 24
        E 0 90 39 29
        E 0 90 40 22
        E 0 90 43 1c
        E 57 90 2a 00
        E 0 90 3e 28
        E 5 90 21 00
        E 0 90 24 00
        E 5 90 2d 00
        E 0 90 34 00
        E 0 90 43 00
        E 5 90 37 00
        E 0 90 40 00
        E 5 90 39 00
        E 118 90 3e 00
        E 393 e0 00 40
        E 0 90 22 22
        E 5 e0 2b 35
        E 6 e0 2b 35
        E 5 e0 2b 35
        E 5 e0 2b 35
        E 6 e0 2b 35
        E 5 e0 55 2a
        E 5 e0 55 2a
        E 6 e0 55 2a
        E 5 e0 55 2a
        E 5 e0 55 2a
        E 6 e0 55 2a
        E 5 e0 00 20
        E 5 e0 00 20
        E 6 e0 00 20
        E 5 e0 00 20
        E 5 e0 00 20
        E 6 e0 00 00
        E 5 e0 2b 75
        E 5 e0 2b 75
        E 6 e0 2b 75
        E 5 e0 00 20
        E 5 e0 00 20
        E 0 90 22 00
        E 307 e0 55 6a
        E 0 90 32 2f
        E 6 e0 55 6a
        E 5 e0 55 6a
        E 6 e0 55 6a
        E 5 e0 55 6a
        E 6 e0 55 6a
        E 5 e0 55 6a
        E 5 e0 55 6a
        E 6 e0 55 6a
        E 5 e0 55 6a
        E 6 e0 2b 15
        E 5 e0 2b 15
        E 6 e0 2b 15
        E 5 e0 2b 15
        E 5 e0 2b 15
        E 6 e0 2b 15
        E 5 e0 2b 15
        E 0 90 32 00
        E 537 e0 2b 75
        E 0 90 3d 40
        E 6 e0 55 0a
        E 5 e0 55 0a
        E 6 e0 55 0a
        E 6 e0 2b 75
        E 5 e0 55 6a
        E 6 e0 55 6a
        E 5 e0 55 6a
        E 6 e0 55 6a
        E 5 e0 55 6a
        E 6 e0 55 6a
        E 6 e0 55 6a
        E 0 90 3d 00
        E 61 90 3d 2b
        E 117 90 40 29
        E 16 90 39 2b
        E 5 90 3d 00
        E 0 90 3d 1d
        E 97 90 21 1b
        E 0 90 2a 21
        E 10 90 3d 00
        E 0 90 3d 34
        E 21 90 40 00
        E 35 90 21 00
        E 0 90 2a 00
        E 5 90 39 00
        E 5 90 3d 00
        E 103 90 4c 2a
        E 51 90 39 12
        E 66 90 39 00
        E 15 90 4c 00
        E 1401 e0 00 20
        E 0 90 45 1f
        E 6 e0 00 20
        E 5 e0 00 20
        E 6 e0 00 20
        E 6 e0 00 20
        E 5 e0 00 20
        E 6 e0 00 20
        E 5 e0 00 20
        E 6 e0 00 20
        E 5 e0 00 20
        E 6 e0 00 20
        E 6 e0 00 20
        E 0 90 45 00
        E 81 e0 00 20
        E 0 90 4d 27
        E 6 e0 00 20
        E 5 e0 00 20
        E 5 e0 55 2a
        E 6 e0 55 2a
        E 5 e0 00 20
        E 5 e0 55 6a
        E 6 e0 55 6a
        E 5 e0 55 6a
        E 5 e0 55 6a
        E 6 e0 55 6a
        E 5 e0 55 6a
        E 5 e0 55 6a
        E 6 e0 2b 75
        E 5 e0 2b 75
        E 5 e0 2b 75
        E 5 e0 55 6a
        E 6 e0 55 6a
        E 5 e0 55 6a
        E 5 e0 55 6a
        E 6 e0 55 6a
        E 5 e0 2b 15
        E 5 e0 00 20
        E 6 e0 55 2a
        E 5 e0 00 60
        E 0 90 4d 00
        E 1135 90 37 1b
        E 0 90 3a 1a
        E 0 90 3c 16
        E 0 90 40 16
        E 51 90 34 11
        E 5 90 4a 26
        E 6 90 3c 00
        E 5 90 3a 00
        E 0 90 40 00
        E 0 90 56 27
        E 46 90 31 0f
        E 5 90 3d 1f
        E 5 90 37 00
        E 0 90 4a 00
        E 46 90 37 19
        E 0 90 4a 25
        E 5 90 31 00
        E 0 90 43 1d
        E 5 90 34 00
        E 5 90 3d 00
        E 0 90 3e 0d
        E 10 90 56 00
        E 26 90 3a 1d
        E 66 90 3e 00
        E 5 90 37 00
        E 0 90 3a 00
        E 6 90 43 00
        E 0 90 4a 00
        E 66 e0 00 20
        E 0 90 48 1e
        E 5 e0 00 20
        E 6 e0 00 20
        E 5 e0 00 20
        E 6 e0 00 20
        E 5 e0 00 20
        E 6 e0 00 20
        E 5 e0 00 20
        E 6 e0 55 2a
        E 5 e0 00 20
        E 6 e0 00 20
        E 5 e0 00 20
        E 6 e0 00 20
        E 5 e0 00 20
        E 0 90 48 00
        E 414 90 31 1c
        E 67 90 41 21
        E 5 90 31 00
        E 62 90 41 00
        E 35 90 37 14
        E 11 90 4a 17
        E 46 90 3c 22
        E 66 90 37 00
        E 5 90 3c 00
        E 0 90 4a 00
        E 706 e0 00 20
        E 0 90 31 1e
        E 5 e0 00 20
        E 6 e0 00 20
        E 5 e0 55 2a
        E 6 e0 55 2a
        E 5 e0 55 2a
        E 6 e0 55 2a
        E 6 e0 55 2a
        E 5 e0 00 20
        E 6 e0 00 20
        E 5 e0 2b 15
        E 6 e0 2b 15
        E 0 90 31 00
        E 592 90 20 1d
        E 6 90 24 18
        E 5 90 37 18
        E 61 90 34 1b
        E 10 90 24 00
        E 0 90 40 2f
        E 5 90 20 00
        E 0 90 3c 1d
        E 0 90 4c 21
        E 57 90 34 00
        E 5 90 37 00
        E 0 90 3c 00
        E 0 90 4c 00
        E 5 90 40 00
        E 869 e0 7f 7f
        E 0 90 35 1f
        E 6 e0 00 40
        E 5 e0 55 2a
        E 6 e0 55 2a
        E 6 e0 55 2a
        E 5 e0 55 2a
        E 6 e0 55 2a
        E 5 e0 55 2a
        E 6 e0 55 2a
        E 5 e0 55 2a
        E 6 e0 55 2a
        E 6 e0 55 2a
        E 0 90 35 00
        E 327 90 32 47
        E 40 90 3e 21
        E 21 90 32 00
        E 82 90 3e 00
        E 199 90 3e 1a
        E 56 90 41 2c
        E 5 90 3e 00
        E 0 90 3e 2e
        E 62 90 41 00
        E 82 90 3e 00
        E 449 90 32 2c
        E 5 90 3e 2d
        E 5 90 4d 23
        E 6 90 41 28
        E 56 90 32 00
        E 0 90 4d 00
        E 15 90 3e 00
        E 31 90 41 00
        E 71 90 3c 1e
        E 36 90 4d 22
        E 46 90 3c 00
        E 31 90 41 2a
        E 5 90 4d 00
        E 0 90 4d 23
        E 67 90 4d 00
        E 20 90 41 00
        E 10 90 3e 2f
        E 36 90 51 34
        E 5 90 41 28
        E 5 90 45 29
        E 16 90 3e 00
        E 35 90 51 00
        E 11 90 45 00
        E 25 90 41 00
        E 113 e0 2b 35
        E 0 90 39 4a
        E 5 e0 55 2a
        E 6 e0 55 2a
        E 5 e0 55 6a
        E 6 e0 00 20
        E 5 e0 00 20
        E 6 e0 2b 75
        E 5 e0 2b 75
        E 6 e0 00 20
        E 5 e0 00 20
        E 6 e0 00 20
        E 5 e0 00 20
        E 6 e0 00 20
        E 0 90 39 00
        E 409 90 45 2b
        E 5 90 4d 32
        E 61 90 45 00
        E 5 90 4d 00
        E 11 e0 00 20
        E 0 90 41 24
        E 5 e0 00 20
        E 6 e0 00 20
        E 5 e0 00 20
        E 6 e0 00 20
        E 5 e0 00 20
        E 6 e0 00 20
        E 5 e0 00 20
        E 6 e0 00 20
        E 5 e0 00 20
        E 6 e0 00 20
        E 5 e0 00 20
        E 6 e0 00 20
        E 5 e0 00 20
        E 6 e0 00 20
        E 0 90 41 00
        E 551 90 34 15
        E 128 90 2e 1d
        E 5 90 2b 14
        E 0 90 37 11
        E 0 90 3a 1f
        E 0 90 41 26
        E 10 90 4d 29
        E 51 90 3c 19
        E 5 90 2b 00
        E 0 90 46 16
        E 0 90 4a 24
        E 6 90 2e 00
        E 0 90 34 00
        E 0 90 4f 1a
        E 5 90 3a 00
        E 5 90 4d 00
        E 41 90 46 00
        E 5 90 41 00
        E 0 90 4a 00
        E 36 90 37 00
        E 5 90 37 1c
        E 5 90 4a 1a
        E 5 90 53 1a
        E 6 90 3c 00
        E 0 90 4f 00
        E 56 90 53 00
        E 46 90 43 21
        E 15 90 4a 00
        E 51 90 37 00
        E 0 90 43 00
        E 445 e0 2b 15
        E 0 90 41 29
        E 5 e0 2b 15
        E 5 e0 2b 15
        E 5 e0 2b 15
        E 6 e0 00 20
        E 5 e0 00 20
        E 5 e0 00 20
        E 6 e0 00 60
        E 5 e0 2b 15
        E 5 e0 00 20
        E 6 e0 00 20
        E 5 e0 00 20
        E 5 e0 00 20
        E 6 e0 00 20
        E 5 e0 00 20
        E 5 e0 00 20
        E 5 e0 00 20
        E 6 e0 00 20
        E 5 e0 00 20
        E 5 e0 00 20
        E 6 e0 00 20
        E 5 e0 00 20
        E 5 e0 00 20
        E 6 e0 00 20
        E 5 e0 2b 15
        E 5 e0 2b 15
        E 5 e0 2b 15
        E 0 90 41 00
        E 113 90 45 34
        E 21 90 41 28
        E 46 90 45 00
        E 20 90 41 00
        E 434 90 3f 38
        E 26 90 3a 28
        E 72 90 3f 00
        E 66 90 3a 00
        E 200 90 3f 2c
        E 0 90 46 14
        E 0 90 4b 34
        E 61 90 46 00
        E 10 90 3f 00
        E 0 90 4b 00
        E 1800 e0 00 00
        E 0 90 2e 32
        E 5 e0 00 00
        E 6 e0 2b 15
        E 5 e0 00 20
        E 6 e0 00 20
        E 5 e0 00 20
        E 6 e0 00 20
        E 5 e0 00 20
        E 6 e0 00 20
        E 5 e0 7f 7f
        E 6 e0 7f 7f
        E 5 e0 2b 75
        E 6 e0 55 6a
        E 0 90 2e 00
        E 276 90 2e 25
        E 15 90 4a 26
        E 87 90 2e 00
        E 46 90 4a 00
        E 445 90 2d 2f
        E 123 90 21 28
        E 5 90 40 2a
        E 10 90 2d 00
        E 71 90 21 00
        E 0 90 40 00
        E 92 90 32 2c
        E 0 90 41 2d
        E 103 90 32 00
        E 5 90 41 00
        E 209 e0 2b 15
        E 0 90 2d 2c
        E 5 e0 2b 15
        E 5 e0 2b 15
        E 5 e0 2b 15
        E 6 e0 2b 15
        E 5 e0 00 20
        E 5 e0 00 20
        E 5 e0 00 20
        E 5 e0 00 20
        E 5 e0 00 20
        E 5 e0 2b 15
        E 6 e0 2b 15
        E 5 e0 2b 15
        E 5 e0 2b 15
        E 5 e0 2b 15
        E 5 e0 2b 15
        E 5 e0 2b 15
        E 5 e0 2b 15
        E 5 e0 2b 15
        E 6 e0 00 20
        E 5 e0 00 20
        E 5 e0 00 20
        E 5 e0 00 20
        E 5 e0 00 20
        E 5 e0 00 20
        E 5 e0 00 20
        E 0 90 2d 00
        E 358 90 26 35
        E 0 90 32 31
        E 87 90 32 00
        E 66 90 26 00
        E 1278 90 32 25
        E 0 90 45 2a
        E 6 90 3e 2c
        E 61 90 45 00
        E 51 90 32 00
        E 5 90 3e 00
        E 153 90 3e 26
        E 10 90 41 22
        E 72 90 32 21
        E 15 90 41 00
        E 36 90 45 24
        E 46 90 32 00
        E 41 90 3e 00
        E 5 90 45 00
        E 66 90 32 1b
        E 0 90 4e 2b
        E 11 90 3e 21
        E 51 90 4e 00
        E 46 90 3e 00
        E 25 90 41 1b
        E 0 90 4d 1e
        E 62 90 41 00
        E 5 90 4d 00
        E 143 90 39 2a
        E 5 90 42 28
        E 5 90 32 00
        E 67 90 32 21
        E 5 90 3e 13
        E 5 90 45 39
        E 41 90 3b 25
        E 10 90 39 00
        E 10 90 45 00
        E 36 90 2f 38
        E 0 90 3e 00
        E 5 90 3e 23
        E 5 90 32 00
        E 5 90 3b 00
        E 6 90 42 00
        E 40 90 2f 00
        E 36 90 42 25
        E 41 90 3e 00
        E 41 90 4c 24
        E 15 90 42 00
        E 31 90 40 27
        E 46 90 43 2c
        E 0 90 4c 00
        E 41 90 40 00
        E 61 90 40 26
        E 21 90 43 00
        E 45 90 34 1d
        E 16 90 40 00
        E 0 90 40 27
        E 82 90 26 38
        E 0 90 32 33
        E 5 90 34 00
        E 10 90 40 00
        E 92 90 26 00
        E 0 90 32 00
        E 138 90 40 33
        E 16 90 39 12
        E 46 90 40 00
        E 40 90 39 00
        E 113 90 4f 1a
        E 61 90 32 39
        E 0 90 42 2c
        E 0 90 4a 26
        E 5 90 45 1f
        E 5 90 4f 00
        E 31 90 3e 20
        E 20 90 32 00
        E 46 90 3e 00
        E 0 90 4a 00
        E 26 90 36 1e
        E 15 90 42 00
        E 82 90 36 00
        E 5 90 45 00
        E 21 90 32 2a
        E 0 90 4a 2c
        E 5 90 3e 26
        E 77 90 3b 21
        E 5 90 3e 00
        E 0 90 3e 22
        E 15 90 32 00
        E 5 90 4a 00
        E 57 90 2f 28
        E 81 90 39 23
        E 5 90 45 24
        E 0 90 4a 3b
        E 6 90 42 30
        E 5 90 2f 00
        E 0 90 3b 00
        E 46 90 39 00
        E 5 90 45 00
        E 10 90 42 00
        E 0 90 4a 00
        E 41 90 3e 00
        E 444 e0 2b 75
        E 0 90 43 27
        E 6 e0 2b 15
        E 5 e0 00 20
        E 6 e0 00 20
        E 5 e0 00 20
        E 5 e0 00 20
        E 6 e0 00 20
        E 5 e0 00 20
        E 6 e0 00 20
        E 5 e0 00 20
        E 6 e0 00 20
        E 5 e0 00 20
        E 5 e0 55 6a
        E 6 e0 55 6a
        E 5 e0 55 6a
        E 6 e0 00 20
        E 5 e0 00 20
        E 0 90 43 00
        E 72 e0 2b 15
        E 0 90 42 31
        E 6 e0 2b 15
        E 5 e0 2b 15
        E 5 e0 00 20
        E 6 e0 00 20
        E 5 e0 00 20
        E 6 e0 00 20
        E 5 e0 00 20
        E 5 e0 00 20
        E 6 e0 00 20
        E 5 e0 00 20
        E 6 e0 00 20
        E 5 e0 00 20
        E 6 e0 00 20
        E 5 e0 00 20
        E 5 e0 00 20
        E 6 e0 00 20
        E 5 e0 00 20
        E 0 90 42 00
        E 21 90 21 2d
        E 15 90 2d 2b
        E 41 90 40 26
        E 5 90 21 00
        E 71 90 40 00
        E 0 90 40 1f
        E 21 90 2d 00
        E 56 90 3e 28
        E 5 90 40 00
        E 61 90 36 2e
        E 21 90 3e 00
        E 51 90 36 00
        E 77 90 32 1c
        E 35 90 3e 2e
        E 5 90 2a 25
        E 36 90 26 22
        E 10 90 2d 28
        E 0 90 32 00
        E 11 90 3e 00
        E 61 90 26 00
        E 0 90 36 1e
        E 5 90 26 2c
        E 10 90 2a 00
        E 5 90 2d 00
        E 62 90 36 00
        E 128 90 26 00
        E 61 90 39 32
        E 0 90 42 37
        E 10 90 32 23
        E 0 90 3e 35
        E 0 90 45 33
        E 52 90 39 00
        E 5 90 42 00
        E 5 90 3e 00
        E 0 90 45 00
        E 30 90 3e 29
        E 16 90 32 00
        E 97 90 3e 00
        E 66 90 3e 14
        E 0 90 41 29
        E 97 90 41 00
        E 36 90 45 1d
        E 31 90 3e 00
        E 5 90 3e 2d
        E 41 90 4a 2c
        E 46 90 26 2b
        E 10 90 32 2a
        E 5 90 45 00
        E 10 90 3e 00
        E 0 90 4a 00
        E 72 90 38 27
        E 5 90 26 00
        E 36 90 4d 24
        E 15 90 32 00
        E 41 90 38 00
        E 5 90 4d 00
        E 16 90 32 23
        E 36 90 2c 2f
        E 5 90 41 36
        E 56 90 2c 00
        E 5 90 32 00
        E 5 90 41 00
        E 15 90 39 28
        E 21 90 42 23
        E 25 90 32 1c
        E 46 90 51 29
        E 46 90 2f 31
        E 0 90 3e 2c
        E 0 90 45 1e
        E 5 90 39 00
        E 11 90 51 00
        E 56 90 42 00
        E 20 90 3e 00
        E 5 90 3e 24
        E 0 90 4a 17
        E 11 90 2f 00
        E 40 90 42 22
        E 6 90 45 00
        E 25 90 2b 22
        E 15 90 4a 00
        E 11 90 3e 00
        E 25 90 4c 29
        E 5 90 32 00
        E 0 90 40 29
        E 10 90 2b 00
        E 0 90 42 00
        E 67 90 37 25
        E 10 90 40 00
        E 0 90 40 1e
        E 0 90 43 24
        E 5 90 4c 00
        E 82 90 2d 2a
        E 5 90 40 00
        E 0 90 40 2f
        E 10 90 37 00
        E 10 90 43 00
        E 57 90 34 13
        E 15 90 2d 00
        E 46 90 40 00
        E 36 90 26 27
        E 0 90 32 2b
        E 0 90 34 00
        E 92 90 32 00
        E 51 90 3e 3a
        E 11 90 32 27
        E 0 90 4a 42
        E 61 90 3e 00
        E 0 90 4a 00
        E 20 90 39 1d
        E 5 90 45 1a
        E 6 90 32 00
        E 10 90 26 00
        E 20 90 40 1b
        E 36 90 42 3a
        E 20 90 39 00
        E 0 90 45 00
        E 41 90 42 00
        E 56 90 4a 1c
        E 6 90 4f 1f
        E 10 90 40 00
        E 41 90 26 22
        E 5 90 39 22
        E 5 90 32 3b
        E 5 90 3e 25
        E 10 90 4f 00
        E 36 90 26 00
        E 0 90 4a 00
        E 10 90 39 00
        E 5 90 32 00
        E 21 90 42 27
        E 15 90 3e 00
        E 26 90 45 19
        E 5 90 36 18
        E 46 90 42 00
        E 40 90 36 00
        E 41 90 32 24
        E 0 90 3e 2c
        E 31 90 34 1a
        E 10 90 45 00
        E 46 90 4a 24
        E 5 90 34 00
        E 11 90 32 00
        E 5 90 3e 00
        E 46 90 3b 2a
        E 10 90 2f 2b
        E 82 90 36 23
        E 0 90 39 20
        E 0 90 3e 20
        E 5 90 4e 23
        E 5 90 42 2b
        E 0 90 4a 00
        E 0 90 4a 24
        E 5 90 3b 00
        E 6 90 2f 00
        E 46 90 36 00
        E 40 90 39 00
        E 0 90 3e 00
        E 11 90 42 00
        E 0 90 4e 00
        E 30 90 4a 00
        E 26 90 36 1e
        E 10 90 2a 23
        E 97 90 2a 00
        E 72 90 32 24
        E 10 90 36 00
        E 92 90 32 00
        E 46 90 23 32
        E 56 90 43 25
        E 10 90 23 00
        E 56 90 43 00
        E 36 e0 00 60
        E 0 90 21 31
        E 6 e0 00 60
        E 5 e0 00 60
        E 6 e0 00 60
        E 5 e0 2b 15
        E 6 e0 2b 15
        E 5 e0 2b 15
        E 6 e0 2b 15
        E 5 e0 2b 15
        E 6 e0 2b 15
        E 5 e0 2b 15
        E 6 e0 2b 15
        E 6 e0 2b 15
        E 0 90 21 00
        E 5 90 42 21
        E 113 90 21 22
        E 5 90 2d 2c
        E 0 90 34 21
        E 10 90 42 00
        E 31 90 40 2f
        E 97 90 34 00
        E 5 90 40 00
        E 5 90 21 00
        E 0 90 2d 00
        E 61 90 3e 37
        E 56 90 32 27
        E 16 90 3e 00
        E 66 90 2d 23
        E 0 90 32 00
        E 0 90 32 30
        E 0 90 3e 2b
        E 61 90 2d 00
        E 26 90 32 00
        E 0 90 32 20
        E 5 90 3e 00
        E 0 90 3e 20
        E 31 90 36 29
        E 10 90 2a 25
        E 25 90 3e 00
        E 31 90 32 00
        E 10 90 36 00
        E 67 90 36 23
        E 5 90 26 2f
        E 0 90 32 2c
        E 71 90 2a 00
        E 0 90 36 00
        E 21 90 32 00
        E 113 90 26 00
        E 102 e0 00 60
        E 0 90 40 3c
        E 5 e0 7f 7f
        E 6 e0 7f 7f
        E 5 e0 2b 15
        E 6 e0 2b 15
        E 6 e0 2b 15
        E 5 e0 2b 15
        E 6 e0 00 20
        E 5 e0 00 20
        E 6 e0 00 20
        E 5 e0 00 20
        E 6 e0 00 20
        E 5 e0 00 20
        E 0 90 40 00
        E 5 e0 2b 15
        E 0 90 40 1e
        E 6 e0 2b 15
        E 6 e0 2b 15
        E 5 e0 00 20
        E 6 e0 00 20
        E 5 e0 00 20
        E 6 e0 55 6a
        E 5 e0 55 6a
        E 6 e0 55 6a
        E 6 e0 55 6a
        E 5 e0 55 6a
        E 6 e0 00 60
        E 0 90 40 00
        E 76 e0 55 0a
        E 0 90 40 28
        E 6 e0 55 0a
        E 5 e0 55 0a
        E 5 e0 55 0a
        E 6 e0 55 0a
        E 5 e0 55 0a
        E 6 e0 55 0a
        E 5 e0 55 0a
        E 5 e0 55 0a
        E 6 e0 55 0a
        E 5 e0 2b 75
        E 6 e0 2b 75
        E 5 e0 2b 75
        E 5 e0 2b 75
        E 6 e0 2b 75
        E 5 e0 2b 75
        E 6 e0 2b 75
        E 5 e0 55 6a
        E 5 e0 00 60
        E 0 90 40 00
        E 77 90 39 10
        E 5 90 3d 21
        E 77 90 42 3b
        E 15 90 39 00
        E 10 90 3d 00
        E 36 90 42 00
        E 46 e0 55 6a
        E 0 90 43 2a
        E 6 e0 55 6a
        E 5 e0 55 6a
        E 6 e0 55 6a
        E 5 e0 55 6a
        E 6 e0 55 6a
        E 5 e0 00 60
        E 6 e0 00 60
        E 5 e0 00 60
        E 6 e0 55 0a
        E 5 e0 55 0a
        E 6 e0 55 0a
        E 5 e0 55 0a
        E 0 90 43 00
        E 195 90 42 3e
        E 5 90 33 28
        E 10 90 3f 24
        E 52 90 42 00
        E 30 90 3d 26
        E 5 90 43 27
        E 5 90 33 00
        E 0 90 3f 00
        E 82 90 3d 00
        E 0 90 40 28
        E 10 90 43 00
        E 62 90 26 27
        E 10 90 42 37
        E 5 90 4e 36
        E 5 90 32 24
        E 0 90 3e 24
        E 10 90 40 00
        E 41 90 42 00
        E 5 90 4e 00
        E 36 90 26 00
        E 5 90 3e 00
        E 77 90 45 1c
        E 5 90 3e 1f
        E 87 90 4d 17
        E 10 90 3e 00
        E 0 90 45 00
        E 87 90 4d 00
        E 30 90 32 00
        E 31 e0 00 20
        E 0 90 40 2c
        E 6 e0 00 20
        E 5 e0 00 20
        E 6 e0 00 20
        E 5 e0 00 20
        E 6 e0 00 20
        E 5 e0 00 20
        E 6 e0 00 20
        E 6 e0 00 20
        E 5 e0 55 2a
        E 6 e0 00 20
        E 5 e0 00 20
        E 0 90 40 00
        E 21 90 32 24
        E 0 90 39 33
        E 11 90 45 33
        E 5 90 3e 1c
        E 46 90 39 00
        E 10 90 45 00
        E 31 90 32 00
        E 66 90 45 3d
        E 10 90 32 1f
        E 51 90 45 00
        E 21 90 35 25
        E 10 90 32 00
        E 0 90 41 26
        E 77 90 32 1c
        E 10 90 35 00
        E 0 90 3e 00
        E 0 90 3e 18
        E 0 90 45 25
        E 0 90 51 35
        E 10 90 41 00
        E 51 90 51 00
        E 26 90 3e 00
        E 0 90 3e 2b
        E 5 90 32 00
        E 30 90 51 29
        E 5 90 4a 1d
        E 52 90 1f 31
        E 0 90 2b 2c
        E 10 90 32 24
        E 5 90 3e 00
        E 0 90 3e 31
        E 10 90 4a 00
        E 0 90 51 00
        E 41 90 1f 00
        E 0 90 45 00
        E 5 90 2b 00
        E 0 90 32 00
        E 5 90 3e 00
        E 128 90 47 27
        E 71 90 25 25
        E 16 90 47 00
        E 67 90 32 33
        E 5 90 25 00
        E 0 90 26 26
        E 76 90 45 27
        E 6 90 4a 1d
        E 5 90 26 00
        E 5 90 32 00
        E 71 90 2d 22
        E 16 90 45 00
        E 0 90 4a 00
        E 81 90 2d 00
        E 77 90 3b 1c
        E 66 90 3d 2c
        E 67 90 3d 00
        E 30 90 32 28
        E 0 90 4a 1b
        E 6 90 3e 2a
        E 10 90 3b 00
        E 81 90 4a 00
        E 6 90 32 00
        E 5 90 3e 00
        E 51 90 2f 3a
        E 10 90 3b 26
        E 51 90 2f 00
        E 56 90 3b 00
        E 246 90 36 1c
        E 87 90 4a 3e
        E 5 90 36 00
        E 56 90 4a 00
        E 51 90 21 2f
        E 0 90 2d 31
        E 123 90 21 00
        E 0 90 2d 00
        E 56 90 3e 39
        E 10 90 2d 29
        E 5 90 21 25
        E 41 90 34 23
        E 5 90 4a 15
        E 5 90 3e 00
        E 36 90 21 00
        E 0 90 40 2a
        E 36 90 4c 19
        E 10 90 2d 00
        E 26 90 42 3a
        E 10 90 3e 14
        E 5 90 34 00
        E 10 90 40 00
        E 0 90 4c 00
        E 36 90 42 00
        E 0 90 4a 00
        E 41 90 3e 00
        E 77 90 39 21
        E 10 90 45 2f
        E 5 90 3e 25
        E 57 90 45 00
        E 5 90 39 00
        E 199 90 41 34
        E 20 90 3e 00
        E 41 90 41 00
        E 26 90 32 24
        E 5 90 3e 2c
        E 51 90 45 1d
        E 41 90 32 00
        E 5 90 3e 00
        E 25 90 3e 2a
        E 6 90 4a 1e
        E 61 90 32 2d
        E 5 90 3e 00
        E 0 90 3e 21
        E 5 90 45 00
        E 41 90 4a 00
        E 51 90 3e 00
        E 5 90 32 00
        E 26 90 4d 16
        E 41 90 32 25
        E 10 90 3e 17
        E 15 90 4d 00
        E 21 90 2c 21
        E 0 90 38 2a
        E 35 90 41 37
        E 21 90 32 00
        E 5 90 2c 00
        E 0 90 38 00
        E 31 90 3e 00
        E 5 90 41 00
        E 36 90 42 27
        E 25 90 32 24
        E 57 90 3e 24
        E 0 90 45 3c
        E 41 90 3b 23
        E 10 90 42 00
        E 10 90 45 00
        E 31 90 2f 25
        E 15 90 3b 00
        E 15 90 3e 00
        E 5 90 32 00
        E 5 90 3e 1c
        E 98 90 2f 00
        E 0 90 42 18
        E 5 90 3e 00
        E 46 90 40 26
        E 10 90 42 00
        E 61 90 37 2a
        E 15 90 40 00
        E 0 90 40 24
        E 0 90 43 23
        E 92 90 2d 22
        E 6 90 37 00
        E 10 90 40 00
        E 36 90 43 00
        E 25 90 34 1c
        E 41 90 39 2a
        E 5 90 40 25
        E 51 90 32 2e
        E 5 90 26 2b
        E 5 90 34 00
        E 5 90 39 00
        E 0 90 40 00
        E 11 90 2d 00
        E 72 90 32 00
        E 61 90 3e 39
        E 15 90 4a 42
        E 16 90 26 00
        E 35 90 3e 00
        E 11 90 4a 00
        E 25 90 40 28
        E 0 90 4c 1f
        E 87 90 4c 00
        E 5 90 40 00
        E 138 90 26 33
        E 5 90 32 47
        E 10 90 36 29
        E 0 90 39 23
        E 16 90 45 26
        E 30 90 26 00
        E 5 90 32 00
        E 26 90 39 00
        E 36 90 45 00
        E 25 90 36 00
        E 5 90 36 1e
        E 36 90 40 24
        E 5 90 34 20
        E 51 90 36 00
        E 31 90 3e 2d
        E 10 90 34 00
        E 0 90 40 00
        E 87 90 4a 21
        E 10 90 3e 00
        E 51 90 3b 2d
        E 16 90 2f 28
        E 26 90 47 2b
        E 5 90 3e 20
        E 10 90 4a 00
        E 31 90 36 20
        E 5 90 39 24
        E 5 90 4a 2b
        E 5 90 42 28
        E 5 90 2f 00
        E 0 90 3b 00
        E 0 90 3e 00
        E 5 90 47 00
        E 41 90 36 00
        E 0 90 39 00
        E 46 90 4a 00
        E 5 90 42 00
        E 317 90 25 25
        E 128 90 37 24
        E 15 90 25 00
        E 66 90 2d 28
        E 6 90 37 00
        E 35 90 21 24
        E 26 90 2d 00
        E 36 90 42 2b
        E 87 90 42 00
        E 26 90 2d 2e
        E 46 90 40 27
        E 66 90 34 1c
        E 10 90 40 00
        E 0 90 40 2b
        E 5 90 21 00
        E 11 90 2d 00
        E 45 90 40 00
        E 21 90 26 1e
        E 0 90 32 41
        E 5 90 3e 34
        E 5 90 34 00
        E 36 90 39 15
        E 15 90 26 00
        E 5 90 32 00
        E 0 90 3e 00
        E 41 90 36 20
        E 36 90 2d 33
        E 5 90 32 2b
        E 46 90 39 00
        E 10 90 2d 00
        E 5 90 36 00
        E 31 90 32 00
        E 0 90 32 1d
        E 41 90 36 23
        E 0 90 3d 1c
        E 5 90 2a 31
        E 46 90 2d 2d
        E 10 90 3d 00
        E 31 90 26 1a
        E 0 90 36 00
        E 10 90 32 00
        E 5 90 2a 00
        E 46 90 26 00
        E 5 90 26 40
        E 10 90 1a 28
        E 21 90 32 31
        E 5 90 39 1b
        E 26 90 26 00
        E 0 90 26 2d
        E 35 90 39 00
        E 5 90 32 00
        E 16 90 1a 00
        E 20 90 2d 00
        E 72 90 26 00
        E 1457 90 26 20
        E 5 90 42 46
        E 46 90 3e 28
        E 15 90 42 00
        E 21 90 26 00
        E 46 90 3e 00
        E 725 90 2f 1c
        E 0 90 31 14
        E 6 90 3b 18
        E 0 90 3e 25
        E 0 90 41 19
        E 51 90 34 1a
        E 0 90 37 11
        E 5 90 44 25
        E 10 90 31 00
        E 0 90 3b 00
        E 5 90 41 00
        E 56 90 2f 00
        E 0 90 44 00
        E 36 90 37 00
        E 5 90 34 00
        E 10 90 3e 00
        E 31 e0 00 60
        E 0 90 45 20
        E 6 e0 00 60
        E 5 e0 00 60
        E 6 e0 00 60
        E 5 e0 00 60
        E 6 e0 00 60
        E 5 e0 00 60
        E 6 e0 00 60
        E 6 e0 00 60
        E 5 e0 55 6a
        E 6 e0 55 6a
        E 5 e0 55 6a
        E 0 90 45 00
        E 767 e0 55 4a
        E 0 90 32 40
        E 6 e0 55 2a
        E 5 e0 2b 15
        E 6 e0 2b 15
        E 5 e0 2b 15
        E 6 e0 00 20
        E 6 e0 00 20
        E 5 e0 00 20
        E 6 e0 00 20
        E 5 e0 55 6a
        E 6 e0 00 20
        E 5 e0 00 20
        E 0 90 32 00
        E 691 90 36 1c
        E 5 90 2a 14
        E 0 90 3e 18
        E 0 90 42 31
        E 56 90 30 21
        E 0 90 34 17
        E 0 90 39 1e
        E 5 90 2a 00
        E 5 90 40 31
        E 0 90 4c 28
        E 10 90 42 00
        E 36 90 32 14
        E 0 90 3c 14
        E 0 90 42 26
        E 5 90 30 00
        E 0 90 34 00
        E 10 90 4c 00
        E 6 90 40 00
        E 40 90 45 2b
        E 6 90 32 00
        E 0 90 3c 00
        E 0 90 3e 00
        E 0 90 3e 1b
        E 5 90 36 00
        E 5 90 42 00
        E 30 90 37 23
        E 0 90 40 30
        E 11 90 39 00
        E 5 90 45 00
        E 41 90 37 00
        E 0 90 3e 00
        E 5 90 40 00
        E 664 90 39 3e
        E 21 90 42 1c
        E 56 90 39 00
        E 5 90 42 00
        E 629 90 4a 2e
        E 15 90 42 20
        E 46 90 4a 00
        E 51 90 42 00
        E 92 e0 2b 15
        E 0 90 39 2d
        E 6 e0 2b 15
        E 5 e0 2b 15
        E 5 e0 2b 15
        E 6 e0 00 20
        E 5 e0 00 20
        E 6 e0 00 20
        E 5 e0 00 20
        E 5 e0 00 20
        E 6 e0 00 20
        E 5 e0 00 20
        E 6 e0 00 20
        E 5 e0 00 20
        E 5 e0 00 20
        E 6 e0 00 20
        E 5 e0 00 20
        E 5 e0 00 20
        E 6 e0 00 20
        E 5 e0 00 20
        E 6 e0 00 20
        E 0 90 39 00
        E 72 90 24 1f
        E 5 90 21 19
        E 5 90 3e 2e
        E 5 90 34 1f
        E 0 90 37 26
        E 0 90 39 2d
        E 0 90 40 28
        E 5 90 43 25
        E 46 90 24 00
        E 10 90 21 00
        E 0 90 34 00
        E 0 90 37 00
        E 0 90 3e 00
        E 5 90 40 00
        E 0 90 43 00
        E 36 90 39 00
        E 654 90 36 28
        E 5 90 2f 17
        E 0 90 3e 1f
        E 5 90 42 26
        E 47 90 34 1e
        E 10 90 2f 00
        E 5 90 40 17
        E 5 90 36 00
        E 0 90 3e 00
        E 5 90 42 00
        E 77 90 26 20
        E 0 90 2a 28
        E 0 90 36 2c
        E 5 90 2f 12
        E 5 90 34 00
        E 0 90 3e 1d
        E 5 90 42 1d
        E 51 90 26 00
        E 0 90 2a 00
        E 0 90 2f 00
        E 5 90 36 00
        E 57 90 3e 00
        E 0 90 40 00
        E 40 90 47 27
        E 62 90 47 00
        E 5 90 42 00
        E 82 90 47 18
        E 35 90 34 1b
        E 5 90 45 13
        E 36 90 39 1f
        E 10 90 49 2a
        E 6 90 47 00
        E 40 90 40 35
        E 6 90 39 00
        E 10 90 49 00
        E 36 90 4a 21
        E 5 90 34 00
        E 5 90 40 00
        E 30 90 3e 27
        E 0 90 42 30
        E 11 90 45 00
        E 51 90 3e 00
        E 0 90 4a 00
        E 5 90 42 00
        E 25 e0 00 60
        E 0 90 40 26
        E 6 e0 00 60
        E 5 e0 00 60
        E 6 e0 00 60
        E 6 e0 00 60
        E 5 e0 00 60
        E 6 e0 00 60
        E 5 e0 00 20
        E 6 e0 00 20
        E 5 e0 00 20
        E 6 e0 00 20
        E 6 e0 00 60
        E 0 90 40 00
        E 291 90 45 2c
        E 11 90 51 2a
        E 51 90 45 00
        E 10 90 51 00
        E 1206 e0 2b 35
        E 0 90 2e 0c
        E 6 e0 2b 35
        E 5 e0 55 2a
        E 6 e0 55 2a
        E 5 e0 55 2a
        E 6 e0 55 2a
        E 5 e0 55 2a
        E 6 e0 2b 35
        E 6 e0 2b 35
        E 5 e0 2b 35
        E 6 e0 2b 35
        E 5 e0 2b 35
        E 0 90 2e 00
        E 486 e0 00 60
        E 0 90 23 21
        E 6 e0 00 60
        E 5 e0 00 60
        E 5 e0 00 60
        E 6 e0 55 6a
        E 5 e0 55 6a
        E 6 e0 55 6a
        E 5 e0 55 6a
        E 5 e0 55 6a
        E 6 e0 2b 15
        E 5 e0 2b 15
        E 6 e0 2b 15
        E 5 e0 2b 15
        E 6 e0 2b 75
        E 5 e0 2b 75
        E 5 e0 2b 75
        E 6 e0 2b 75
        E 5 e0 2b 75
        E 0 90 23 00
        E 184 e0 55 6a
        E 0 90 32 21
        E 5 e0 55 6a
        E 6 e0 2b 15
        E 5 e0 2b 15
        E 5 e0 55 6a
        E 5 e0 55 6a
        E 6 e0 55 6a
        E 5 e0 00 20
        E 5 e0 00 20
        E 5 e0 00 20
        E 6 e0 00 20
        E 5 e0 00 20
        E 5 e0 00 20
        E 5 e0 00 20
        E 6 e0 00 20
        E 5 e0 00 20
        E 5 e0 00 20
        E 6 e0 00 20
        E 5 e0 00 20
        E 5 e0 00 20
        E 5 e0 00 20
        E 6 e0 00 20
        E 5 e0 00 20
        E 5 e0 00 20
        E 5 e0 00 20
        E 6 e0 00 20
        E 5 e0 00 20
        E 5 e0 00 20
        E 5 e0 00 20
        E 6 e0 00 20
        E 5 e0 00 20
        E 5 e0 00 20
        E 5 e0 00 20
        E 6 e0 00 20
        E 0 90 32 00
        E 66 90 32 0f
        E 5 90 50 2b
        E 62 90 50 00
        E 77 90 32 00
        E 306 e0 00 40
        E 0 90 50 23
        E 6 e0 00 20
        E 5 e0 2b 15
        E 6 e0 2b 15
        E 6 e0 00 20
        E 5 e0 00 20
        E 6 e0 55 2a
        E 5 e0 55 2a
        E 6 e0 55 2a
        E 5 e0 55 2a
        E 6 e0 55 2a
        E 6 e0 00 20
        E 0 90 50 00
        E 296 e0 2b 55
        E 0 90 39 49
        E 5 e0 00 60
        E 6 e0 00 60
        E 5 e0 00 60
        E 6 e0 00 60
        E 5 e0 00 60
        E 6 e0 00 60
        E 5 e0 55 0a
        E 6 e0 2b 15
        E 5 e0 2b 15
        E 6 e0 55 6a
        E 5 e0 55 6a
        E 6 e0 55 6a
        E 5 e0 2b 15
        E 5 e0 2b 15
        E 0 90 39 00
        E 389 90 36 1f
        E 5 90 32 2c
        E 5 90 42 25
        E 72 90 32 00
        E 31 90 42 00
        E 5 90 36 00
        E 225 90 42 22
        E 220 90 39 30
        E 15 90 42 00
        E 92 90 39 00
        E 36 90 21 22
        E 61 90 2e 18
        E 5 90 37 25
        E 0 90 40 1e
        E 5 90 21 00
        E 0 90 39 2d
        E 0 90 3e 27
        E 51 90 2e 00
        E 6 90 40 00
        E 5 90 37 00
        E 0 90 3e 00
        E 46 90 39 00
        E 495 e0 00 20
        E 0 90 26 1b
        E 5 e0 00 20
        E 5 e0 00 20
        E 6 e0 00 20
        E 5 e0 00 20
        E 5 e0 00 20
        E 5 e0 00 20
        E 5 e0 00 20
        E 5 e0 00 20
        E 6 e0 00 20
        E 5 e0 00 20
        E 5 e0 00 20
        E 0 90 26 00
        E 715 90 2c 3f
        E 20 90 38 2f
        E 41 90 2c 00
        E 57 90 38 00
        E 61 90 39 2e
        E 123 90 35 30
        E 15 90 39 00
        E 46 90 35 00
        E 51 90 36 28
        E 72 90 2a 21
        E 77 90 31 40
        E 5 90 2a 00
        E 0 90 3d 27
        E 56 90 36 00
        E 10 90 3d 00
        E 15 90 31 00
        E 46 90 26 37
        E 21 90 32 2f
        E 0 90 3e 26
        E 41 90 26 00
        E 25 90 3e 00
        E 67 90 32 00
        E 112 90 21 1c
        E 5 90 34 29
        E 0 90 3c 21
        E 5 90 32 29
        E 0 90 39 31
        E 47 90 2d 2c
        E 0 90 40 26
        E 5 90 3c 00
        E 5 90 34 00
        E 10 90 32 00
        E 41 90 40 00
        E 5 90 39 00
        E 56 90 21 00
        E 87 90 2d 00
        E 562 90 2d 26
        E 0 90 31 2c
        E 10 90 3d 2f
        E 5 90 39 31
        E 41 90 36 2f
        E 16 90 31 00
        E 5 90 39 00
        E 0 90 3d 00
        E 21 90 2a 14
        E 5 90 21 19
        E 0 90 39 25
        E 0 90 3d 1f
        E 0 90 40 1c
        E 0 90 42 23
        E 5 90 4c 1e
        E 5 90 36 00
        E 77 90 2a 00
        E 0 90 4c 00
        E 0 90 4c 29
        E 5 90 42 00
        E 5 90 3d 00
        E 5 90 21 00
        E 0 90 2d 00
        E 112 90 39 00
        E 26 90 40 00
        E 5 90 4c 00
        E 496 90 42 1c
        E 40 90 39 2a
        E 0 90 40 34
        E 46 90 45 27
        E 16 90 40 00
        E 36 90 3f 2d
        E 20 90 42 00
        E 6 90 45 00
        E 30 90 39 00
        E 41 90 3f 00
        E 215 e0 55 6a
        E 0 90 33 29
        E 5 e0 55 6a
        E 6 e0 55 2a
        E 5 e0 55 2a
        E 6 e0 55 2a
        E 5 e0 55 2a
        E 6 e0 00 20
        E 5 e0 00 20
        E 6 e0 00 20
        E 5 e0 55 6a
        E 6 e0 55 6a
        E 6 e0 55 6a
        E 5 e0 55 6a
        E 0 90 33 00
        E 112 e0 2b 15
        E 0 90 21 11
        E 6 e0 2b 15
        E 6 e0 2b 15
        E 5 e0 2b 15
        E 6 e0 2b 15
        E 5 e0 2b 15
        E 6 e0 2b 15
        E 5 e0 00 20
        E 6 e0 2b 55
        E 5 e0 2b 55
        E 6 e0 2b 55
        E 5 e0 2b 55
        E 6 e0 2b 55
        E 0 90 21 00
        E 542 e0 55 6a
        E 0 90 39 41
        E 5 e0 2b 75
        E 6 e0 2b 75
        E 6 e0 2b 75
        E 5 e0 2b 75
        E 6 e0 55 6a
        E 5 e0 55 6a
        E 6 e0 00 20
        E 5 e0 00 20
        E 6 e0 00 20
        E 5 e0 00 20
        E 6 e0 00 20
        E 5 e0 00 20
        E 0 90 39 00
        E 138 90 34 16
        E 62 90 3e 21
        E 51 90 34 00
        E 46 90 3e 00
        E 66 e0 55 0a
        E 0 90 45 20
        E 6 e0 55 6a
        E 5 e0 55 6a
        E 6 e0 55 6a
        E 5 e0 55 6a
        E 6 e0 2b 15
        E 5 e0 2b 15
        E 6 e0 2b 15
        E 5 e0 2b 15
        E 6 e0 2b 15
        E 5 e0 00 60
        E 6 e0 00 60
        E 5 e0 00 60
        E 6 e0 55 6a
        E 0 90 45 00
        E 20 90 3e 26
        E 46 90 45 21
        E 10 90 42 21
        E 51 90 39 17
        E 5 90 45 00
        E 1 90 45 2f
        E 10 90 3e 00
        E 46 90 39 00
        E 10 90 42 00
        E 0 90 45 00
        E 675 90 26 27
        E 5 90 32 43
        E 56 90 26 00
        E 46 90 32 00
        E 680 90 2a 1e
        E 0 90 34 25
        E 5 90 32 1d
        E 0 90 39 18
        E 0 90 3c 16
        E 0 90 3e 1d
        E 5 90 40 17
        E 0 90 4c 28
        E 51 90 36 18
        E 5 90 3e 00
        E 5 90 2a 00
        E 0 90 34 00
        E 0 90 3e 28
        E 0 90 42 1d
        E 16 90 4c 00
        E 46 90 4a 2b
        E 10 90 3c 00
        E 0 90 4f 29
        E 61 90 40 00
        E 5 90 32 00
        E 0 90 39 00
        E 5 90 4a 00
        E 0 90 4f 00
        E 6 90 3e 00
        E 31 90 36 00
        E 0 90 42 00
        E 30 90 43 22
        E 6 90 3e 20
        E 5 90 40 25
        E 66 90 30 1f
        E 5 90 34 16
        E 0 90 39 18
        E 5 90 40 00
        E 0 90 40 2e
        E 5 90 4c 23
        E 57 90 34 00
        E 10 90 30 00
        E 5 90 39 00
        E 0 90 3e 00
        E 0 90 43 00
        E 5 90 40 00
        E 0 90 4c 00
        E 56 90 40 25
        E 5 90 37 19
        E 0 90 3e 11
        E 0 90 45 14
        E 5 90 43 1c
        E 57 90 3b 20
        E 5 90 3e 00
        E 5 90 3e 26
        E 0 90 45 00
        E 0 90 4a 28
        E 5 90 45 1e
        E 66 90 3b 00
        E 5 90 3e 00
        E 0 90 40 00
        E 0 90 45 00
        E 0 90 4a 00
        E 36 90 37 00
        E 16 90 43 00
        E 654 90 32 41
        E 5 90 45 26
        E 10 90 3e 25
        E 62 90 45 00
        E 5 90 32 00
        E 5 90 3e 00
        E 322 90 40 22
        E 81 90 32 1c
        E 0 90 34 1d
        E 11 90 3e 1f
        E 0 90 4a 1c
        E 51 90 45 1a
        E 10 90 34 00
        E 5 90 40 00
        E 36 90 3e 00
        E 0 90 3e 24
        E 41 90 32 00
        E 0 90 40 19
        E 46 90 45 00
        E 5 90 3e 00
        E 0 90 4a 00
        E 77 90 40 00
        E 82 90 3e 22
        E 10 90 4a 1f
        E 61 90 45 15
        E 5 90 3e 00
        E 31 90 40 19
        E 36 90 45 00
        E 10 90 4a 00
        E 20 90 40 00
        E 36 90 43 13
        E 0 90 4a 2c
        E 72 90 4a 00
        E 86 90 37 17
        E 6 90 40 0f
        E 132 90 43 00
        E 51 90 40 00
        E 11 90 37 00
        E 705 e0 7f 7f
        E 0 90 23 15
        E 6 e0 7f 7f
        E 5 e0 55 0a
        E 6 e0 55 0a
        E 5 e0 2b 15
        E 6 e0 2b 15
        E 6 e0 2b 15
        E 5 e0 2b 15
        E 6 e0 2b 15
        E 5 e0 2b 15
        E 6 e0 2b 15
        E 5 e0 2b 15
        E 0 90 23 00
        E 461 e0 00 20
        E 0 90 45 31
        E 5 e0 2b 15
        E 6 e0 2b 15
        E 5 e0 00 20
        E 6 e0 00 20
        E 5 e0 00 20
        E 6 e0 00 20
        E 6 e0 00 20
        E 5 e0 00 20
        E 6 e0 00 20
        E 5 e0 00 20
        E 6 e0 00 20
        E 5 e0 00 20
        E 0 90 45 00
        E 51 e0 2b 55
        E 0 90 37 23
        E 6 e0 2b 55
        E 5 e0 00 60
        E 5 e0 00 60
        E 5 e0 00 60
        E 6 e0 00 60
        E 5 e0 00 20
        E 5 e0 00 20
        E 6 e0 00 20
        E 5 e0 00 20
        E 5 e0 00 60
        E 5 e0 00 60
        E 6 e0 00 60
        E 5 e0 00 60
        E 5 e0 00 60
        E 5 e0 00 60
        E 6 e0 00 60
        E 5 e0 00 60
        E 5 e0 00 60
        E 6 e0 00 60
        E 5 e0 00 60
        E 5 e0 00 60
        E 5 e0 00 60
        E 6 e0 00 60
        E 5 e0 00 60
        E 5 e0 00 60
        E 6 e0 00 60
        E 5 e0 00 60
        E 5 e0 00 60
        E 5 e0 00 60
        E 6 e0 00 60
        E 0 90 37 00
        E 920 90 2a 18
        E 0 90 2f 1c
        E 0 90 32 21
        E 5 90 39 1f
        E 5 90 3e 20
        E 0 90 45 21
        E 5 90 42 13
        E 51 90 37 15
        E 5 90 3e 00
        E 0 90 3e 28
        E 5 90 32 00
        E 5 90 39 00
        E 0 90 45 00
        E 46 90 2a 00
        E 11 90 2f 00
        E 0 90 42 00
        E 5 90 3e 00
        E 46 90 37 00
        E 72 90 2f 17
        E 10 90 3e 1d
        E 0 90 42 1c
        E 128 90 2f 00
        E 10 90 42 00
        E 5 90 3e 00
        E 210 90 43 20
        E 183 90 34 14
        E 0 90 37 1f
        E 0 90 4a 23
        E 6 90 2b 19
        E 5 90 43 00
        E 0 90 43 22
        E 107 90 2b 00
        E 5 90 34 00
        E 0 90 37 00
        E 5 90 4a 00
        E 5 90 43 00
        E 51 90 32 19
        E 5 90 2f 13
        E 6 90 42 21
        E 0 90 45 24
        E 5 90 3e 25
        E 51 90 4a 21
        E 10 90 3e 00
        E 0 90 3e 38
        E 0 90 45 00
        E 0 90 45 24
        E 51 90 2f 00
        E 10 90 4a 00
        E 6 90 3e 00
        E 0 90 42 00
        E 31 90 42 19
        E 5 90 3e 21
        E 5 90 32 00
        E 10 90 45 00
        E 112 90 42 00
        E 46 90 3b 13
        E 0 90 4a 0e
        E 62 90 4a 00
        E 5 90 3b 00
        E 10 90 3e 00
        E 82 90 3d 36
        E 61 90 31 21
        E 31 90 3d 00
        E 41 90 45 1f
        E 5 90 3d 2f
        E 0 90 40 13
        E 10 90 31 00
        E 107 90 45 00
        E 0 90 45 16
        E 15 90 3d 00
        E 46 90 40 00
        E 0 90 45 00
        E 41 90 2f 28
        E 5 90 39 26
        E 0 90 3e 21
        E 0 90 45 2c
        E 0 90 4a 26
        E 6 90 33 23
        E 56 90 2f 00
        E 0 90 3e 00
        E 0 90 4f 25
        E 5 90 33 00
        E 0 90 39 00
        E 0 90 45 00
        E 0 90 4a 00
        E 56 90 3e 2a
        E 5 90 32 1d
        E 10 90 4f 00
        E 1 90 42 17
        E 61 90 42 00
        E 62 90 32 00
        E 15 90 3e 00
        E 112 90 3e 0f
        E 5 90 32 0e
        E 62 90 3e 00
        E 5 e0 00 20
        E 0 90 32 00
        E 0 90 3e 24
        E 5 e0 2b 15
        E 6 e0 2b 15
        E 5 e0 2b 15
        E 6 e0 00 20
        E 5 e0 00 20
        E 6 e0 00 20
        E 5 e0 00 20
        E 6 e0 00 20
        E 5 e0 00 20
        E 5 e0 00 20
        E 6 e0 00 20
        E 5 e0 00 20
        E 6 e0 00 60
        E 5 e0 00 60
        E 0 90 3e 00
        E 246 90 36 2a
        E 5 90 39 28
        E 0 90 42 28
        E 66 90 36 00
        E 0 90 39 00
        E 0 90 42 00
        E 1017 90 24 18
        E 5 90 2f 1e
        E 0 90 31 0d
        E 0 90 3e 21
        E 11 90 42 14
        E 51 90 24 00
        E 0 90 31 00
        E 0 90 3b 21
        E 10 90 2f 00
        E 0 90 42 00
        E 87 90 2b 12
        E 0 90 32 2d
        E 5 90 37 21
        E 0 90 43 2c
        E 0 90 4a 30
        E 11 90 3e 00
        E 0 90 3e 37
        E 46 90 2b 00
        E 5 90 32 00
        E 0 90 37 00
        E 0 90 43 00
        E 5 90 4a 00
        E 5 90 3b 00
        E 5 90 3e 00
        E 72 e0 00 00
        E 0 90 3d 36
        E 5 e0 7f 7f
        E 6 e0 00 20
        E 5 e0 00 20
        E 6 e0 00 20
        E 5 e0 00 20
        E 6 e0 00 20
        E 6 e0 00 20
        E 5 e0 00 20
        E 6 e0 00 20
        E 5 e0 00 20
        E 6 e0 00 20
        E 0 90 3d 00
        E 1585 e0 55 6a
        E 0 90 42 2a
        E 5 e0 00 20
        E 5 e0 00 20
        E 6 e0 00 20
        E 5 e0 00 20
        E 6 e0 00 20
        E 5 e0 00 20
        E 6 e0 00 20
        E 5 e0 00 20
        E 5 e0 00 20
        E 6 e0 00 20
        E 5 e0 00 20
        E 6 e0 00 20
        E 5 e0 55 6a
        E 6 e0 55 6a
        E 5 e0 00 20
        E 5 e0 00 20
        E 0 90 42 00
        E 67 90 3e 1d
        E 71 90 42 26
        E 56 90 4a 1e
        E 16 90 42 00
        E 61 90 4a 00
        E 10 90 3e 00
        E 880 90 26 26
        E 5 90 3e 3d
        E 61 90 26 00
        E 5 90 3e 00
        E 241 e0 00 20
        E 0 90 32 37
        E 5 e0 00 20
        E 5 e0 2b 15
        E 6 e0 2b 15
        E 5 e0 2b 15
        E 6 e0 00 20
        E 5 e0 00 20
        E 5 e0 00 20
        E 6 e0 00 20
        E 5 e0 00 20
        E 5 e0 00 20
        E 6 e0 00 20
        E 5 e0 00 20
        E 5 e0 00 20
        E 6 e0 00 20
        E 5 e0 00 20
        E 6 e0 00 20
        E 5 e0 00 20
        E 5 e0 00 20
        E 6 e0 2b 15
        E 5 e0 00 20
        E 0 90 32 00
        E 56 e0 2b 55
        E 0 90 40 14
        E 6 e0 00 60
        E 5 e0 00 60
        E 6 e0 2b 55
        E 5 e0 2b 55
        E 6 e0 2b 35
        E 5 e0 2b 35
        E 6 e0 00 40
        E 5 e0 55 4a
        E 5 e0 2b 55
        E 6 e0 2b 55
        E 5 e0 00 60
        E 6 e0 00 60
        E 5 e0 00 60
        E 6 e0 55 2a
        E 0 90 40 00
        E 56 e0 55 2a
        E 0 90 3e 28
        E 5 e0 55 2a
        E 6 e0 55 2a
        E 5 e0 55 2a
        E 6 e0 00 20
        E 5 e0 00 20
        E 6 e0 55 6a
        E 5 e0 55 6a
        E 5 e0 55 6a
        E 6 e0 00 20
        E 5 e0 00 20
        E 6 e0 00 20
        E 5 e0 00 20
        E 6 e0 00 20
        E 5 e0 00 20
        E 5 e0 55 2a
        E 6 e0 55 2a
        E 0 90 3e 00
        E 61 e0 2b 55
        E 0 90 37 19
        E 6 e0 00 60
        E 5 e0 00 60
        E 5 e0 00 60
        E 6 e0 00 60
        E 5 e0 00 60
        E 5 e0 00 60
        E 6 e0 00 60
        E 5 e0 00 60
        E 6 e0 00 60
        E 5 e0 00 20
        E 5 e0 00 20
        E 6 e0 00 20
        E 5 e0 00 20
        E 5 e0 00 20
        E 6 e0 00 20
        E 5 e0 00 60
        E 6 e0 00 60
        E 5 e0 00 60
        E 5 e0 55 6a
        E 0 90 37 00
        E 364 90 2f 23
        E 10 90 39 31
        E 51 90 2f 00
        E 15 90 39 00
        E 470 90 2c 14
        E 0 90 32 26
        E 0 90 42 31
        E 46 90 2f 21
        E 0 90 36 25
        E 5 90 3b 16
        E 10 90 32 00
        E 0 90 42 00
        E 31 90 32 26
        E 5 90 2c 00
        E 0 90 3e 35
        E 0 90 42 36
        E 0 90 45 16
        E 51 90 4a 38
        E 21 90 3b 00
        E 0 90 45 00
        E 5 90 2f 00
        E 0 90 32 00
        E 10 90 3e 00
        E 5 90 42 00
        E 21 90 4a 00
        E 5 90 36 00
        E 200 e0 55 6a
        E 0 90 42 36
        E 5 e0 2b 75
        E 6 e0 7f 7f
        E 5 e0 2b 75
        E 6 e0 2b 75
        E 5 e0 2b 75
        E 6 e0 2b 75
        E 5 e0 55 6a
        E 6 e0 00 20
        E 5 e0 00 20
        E 6 e0 00 20
        E 5 e0 2b 75
        E 6 e0 2b 75
        E 0 90 42 00
        E 403 90 37 1a
        E 6 90 39 16
        E 51 90 4c 2a
        E 41 90 39 00
        E 5 90 37 00
        E 20 90 4c 00
        E 680 90 34 19
        E 72 90 40 21
        E 76 90 34 00
        E 0 90 40 00
        E 41 90 3b 1a
        E 15 90 2f 2a
        E 67 90 26 22
        E 20 90 2f 00
        E 26 90 3e 1b
        E 15 90 32 30
        E 10 90 26 00
        E 42 90 40 1e
        E 10 90 3b 00
        E 10 90 32 00
        E 107 90 40 00
        E 6 90 3e 00
        E 61 90 34 14
        E 51 90 47 2a
        E 5 90 3b 2a
        E 72 90 3b 00
        E 0 90 47 00
        E 35 90 40 22
        E 5 90 3e 1e
        E 72 90 34 00
        E 5 90 40 00
        E 133 90 45 30
        E 61 90 45 00
        E 77 90 34 16
        E 5 90 3e 00
        E 0 90 3e 1b
        E 0 90 45 16
        E 31 90 40 20
        E 5 90 4c 17
        E 35 90 34 00
        E 41 90 4f 24
        E 5 90 45 00
        E 1 90 3e 00
        E 0 90 40 00
        E 0 90 4c 00
        E 92 90 45 28
        E 10 90 4f 00
        E 92 90 32 20
        E 15 90 45 00
        E 62 90 34 25
        E 0 90 40 1f
        E 71 90 32 00
        E 0 90 34 00
        E 5 90 40 00
        E 46 e0 00 60
        E 0 90 3e 23
        E 6 e0 00 60
        E 5 e0 00 60
        E 6 e0 00 60
        E 5 e0 00 60
        E 6 e0 00 60
        E 6 e0 00 60
        E 5 e0 00 60
        E 6 e0 00 60
        E 5 e0 00 60
        E 6 e0 00 60
        E 5 e0 00 60
        E 6 e0 00 60
        E 0 90 3e 00
        E 51 e0 00 60
        E 0 90 37 19
        E 5 e0 00 60
        E 6 e0 00 60
        E 5 e0 00 60
        E 6 e0 00 60
        E 5 e0 00 60
        E 6 e0 00 60
        E 5 e0 00 60
        E 6 e0 00 60
        E 5 e0 00 60
        E 6 e0 00 60
        E 5 e0 00 60
        E 6 e0 00 60
        E 5 e0 00 60
        E 0 90 37 00
        E 51 90 3b 1b
        E 0 90 3e 2a
        E 62 90 40 25
        E 5 90 3e 00
        E 5 90 3b 00
        E 66 90 40 00
        E 41 90 43 28
        E 51 90 32 25
        E 16 90 43 00
        E 36 90 42 1a
        E 5 90 47 25
        E 5 90 32 00
        E 61 90 47 00
        E 46 90 3e 1c
        E 11 90 42 00
        E 112 90 3e 00
        E 5 e0 2b 15
        E 0 90 3e 2e
        E 6 e0 2b 15
        E 5 e0 2b 15
        E 6 e0 00 20
        E 5 e0 00 20
        E 6 e0 00 20
        E 6 e0 00 20
        E 5 e0 00 20
        E 6 e0 55 6a
        E 5 e0 00 20
        E 6 e0 00 20
        E 5 e0 00 20
        E 0 90 3e 00
        E 67 90 32 27
        E 0 90 43 1e
        E 51 90 24 0f
        E 0 90 26 16
        E 0 90 37 1c
        E 0 90 40 2a
        E 5 90 3e 20
        E 10 90 32 00
        E 41 90 34 1e
        E 5 90 24 00
        E 0 90 39 2d
        E 0 90 4c 2f
        E 5 90 26 00
        E 11 90 3e 00
        E 0 90 40 00
        E 0 90 43 00
        E 35 90 49 26
        E 5 90 40 1e
        E 6 90 4c 00
        E 5 90 37 00
        E 0 90 39 00
        E 35 90 32 1a
        E 0 90 36 1b
        E 0 90 3b 20
        E 6 90 34 00
        E 5 90 3e 2e
        E 0 90 42 2b
        E 5 90 40 00
        E 0 90 49 00
        E 0 90 4e 20
        E 56 90 36 00
        E 5 90 32 00
        E 0 90 3b 00
        E 5 90 4e 00
        E 5 90 3e 00
        E 0 90 42 00
        E 72 90 3e 20
        E 0 90 42 2b
        E 0 90 4e 2d
        E 5 90 32 19
        E 56 90 4e 00
        E 5 90 20 20
        E 5 90 2c 22
        E 5 90 32 00
        E 0 90 36 1b
        E 0 90 3b 19
        E 6 90 26 2e
        E 0 90 32 28
        E 0 90 42 00
        E 0 90 42 19
        E 46 90 34 25
        E 5 90 38 19
        E 5 90 20 00
        E 0 90 3b 00
        E 5 90 3b 1d
        E 6 90 28 24
        E 0 90 2c 00
        E 10 90 26 00
        E 41 90 38 00
        E 10 90 34 00
        E 0 90 36 00
        E 0 90 42 00
        E 5 90 28 00
        E 0 90 32 00
        E 56 90 3e 00
        E 36 90 23 1d
        E 66 90 2b 1d
        E 0 90 2f 2e
        E 62 90 2b 00
        E 15 90 2f 00
        E 31 90 23 00
        E 0 90 32 2d
        E 15 90 3b 00
        E 46 90 40 23
        E 25 90 32 00
        E 51 90 40 00
        E 36 e0 55 0a
        E 0 90 37 21
        E 6 e0 55 0a
        E 5 e0 55 0a
        E 5 e0 55 0a
        E 6 e0 55 0a
        E 5 e0 55 0a
        E 5 e0 55 0a
        E 6 e0 55 0a
        E 5 e0 55 0a
        E 5 e0 00 00
        E 6 e0 00 00
        E 5 e0 00 00
        E 5 e0 00 00
        E 6 e0 00 00
        E 5 e0 55 0a
        E 6 e0 55 0a
        E 5 e0 55 0a
        E 5 e0 00 60
        E 6 e0 00 60
        E 5 e0 00 60
        E 5 e0 00 60
        E 6 e0 00 60
        E 0 90 37 00
        E 102 90 32 21
        E 10 90 3e 2a
        E 87 90 26 34
        E 11 90 32 00
        E 5 90 32 3b
        E 56 90 3e 00
        E 5 90 26 00
        E 5 90 32 00
        E 67 90 32 1c
        E 0 90 39 2b
        E 0 90 3e 1d
        E 5 90 40 32
        E 61 90 3c 23
        E 5 90 26 16
        E 5 90 43 22
        E 10 90 3e 00
        E 6 90 39 00
        E 0 90 40 00
        E 30 90 2e 19
        E 5 90 2b 19
        E 0 90 37 17
        E 0 90 3a 21
        E 0 90 3e 1b
        E 0 90 41 38
        E 5 90 26 00
        E 0 90 3c 00
        E 5 90 4d 29
        E 6 90 43 00
        E 46 90 44 36
        E 5 90 2b 00
        E 0 90 2e 00
        E 0 90 37 00
        E 10 90 3a 00
        E 5 90 41 00
        E 0 90 4d 00
        E 31 90 42 30
        E 20 90 44 00
        E 41 90 51 31
        E 5 90 32 00
        E 5 90 42 00
        E 5 90 3e 00
        E 56 90 51 00
        E 31 e0 2b 15
        E 0 90 39 27
        E 5 e0 2b 15
        E 6 e0 2b 15
        E 5 e0 55 6a
        E 5 e0 2b 15
        E 5 e0 2b 15
        E 5 e0 2b 15
        E 6 e0 2b 15
        E 5 e0 2b 15
        E 5 e0 00 20
        E 5 e0 00 20
        E 5 e0 00 20
        E 6 e0 00 20
        E 5 e0 00 20
        E 5 e0 00 20
        E 5 e0 00 20
        E 5 e0 00 20
        E 6 e0 2b 15
        E 5 e0 55 6a
        E 5 e0 55 6a
        E 5 e0 55 6a
        E 6 e0 55 6a
        E 5 e0 55 6a
        E 5 e0 00 20
        E 5 e0 00 20
        E 5 e0 00 20
        E 6 e0 00 20
        E 5 e0 00 20
        E 5 e0 00 20
        E 5 e0 00 20
        E 5 e0 00 20
        E 6 e0 00 20
        E 5 e0 00 20
        E 5 e0 00 20
        E 5 e0 00 20
        E 5 e0 00 20
        E 6 e0 00 20
        E 5 e0 00 20
        E 5 e0 00 20
        E 5 e0 00 20
        E 6 e0 00 20
        E 5 e0 00 20
        E 5 e0 00 20
        E 5 e0 00 20
        E 5 e0 00 20
        E 6 e0 00 20
        E 5 e0 00 20
        E 5 e0 00 20
        E 5 e0 00 20
        E 5 e0 00 20
        E 6 e0 00 20
        E 0 90 39 00
        E 56 90 39 18
        E 6 90 54 1d
        E 61 90 24 11
        E 0 90 2d 14
        E 0 90 33 14
        E 0 90 37 15
        E 5 90 3f 19
        E 0 90 4a 19
        E 5 90 53 1f
        E 0 90 54 00
        E 51 90 24 00
        E 0 90 37 00
        E 5 90 2d 00
        E 0 90 33 00
        E 5 90 3f 00
        E 0 90 4a 00
        E 5 90 53 00
        E 82 90 36 28
        E 0 90 42 22
        E 5 90 3e 24
        E 5 90 39 00
        E 72 90 50 21
        E 5 90 36 00
        E 46 90 4a 23
        E 15 90 50 00
        E 36 90 32 1f
        E 5 90 3a 1d
        E 5 90 42 00
        E 0 90 42 22
        E 0 90 4e 2a
        E 5 90 4a 00
        E 67 90 32 00
        E 5 90 3a 00
        E 5 90 3e 00
        E 0 90 42 00
        E 5 90 4e 00
        E 291 e0 00 60
        E 0 90 37 37
        E 6 e0 00 60
        E 5 e0 00 60
        E 6 e0 55 6a
        E 5 e0 55 6a
        E 6 e0 00 60
        E 6 e0 00 60
        E 5 e0 00 60
        E 6 e0 00 60
        E 5 e0 00 60
        E 6 e0 2b 15
        E 5 e0 2b 15
        E 6 e0 2b 15
        E 0 90 37 00
        E 108 90 43 17
        E 5 90 3d 27
        E 5 90 49 2b
        E 51 90 43 00
        E 10 90 3d 00
        E 0 90 49 00
        E 1089 90 39 3a
        E 30 90 26 30
        E 5 90 32 32
        E 26 90 39 00
        E 56 90 32 00
        E 189 90 26 00
        E 292 90 26 19
        E 0 90 36 1c
        E 0 90 3e 14
        E 10 90 42 19
        E 41 90 2a 21
        E 0 90 32 25
        E 0 90 40 1a
        E 5 90 39 1e
        E 51 90 2e 17
        E 5 90 3e 00
        E 5 90 2a 00
        E 0 90 3e 2d
        E 6 90 36 00
        E 5 90 42 00
        E 51 90 2e 00
        E 5 90 40 00
        E 5 90 32 00
        E 0 90 39 00
        E 0 90 3e 00
        E 26 90 26 00
        E 1400 e0 2b 75
        E 0 90 23 2b
        E 5 e0 2b 75
        E 5 e0 2b 75
        E 5 e0 2b 75
        E 5 e0 2b 75
        E 6 e0 2b 75
        E 5 e0 55 6a
        E 5 e0 55 6a
        E 5 e0 55 6a
        E 5 e0 55 6a
        E 5 e0 55 6a
        E 5 e0 55 0a
        E 6 e0 55 0a
        E 5 e0 2b 75
        E 5 e0 2b 75
        E 5 e0 2b 75
        E 0 90 23 00
        E 741 e0 2b 55
        E 0 90 32 2a
        E 5 e0 55 0a
        E 5 e0 55 0a
        E 5 e0 2b 15
        E 5 e0 2b 15
        E 5 e0 2b 15
        E 6 e0 2b 15
        E 5 e0 00 20
        E 5 e0 00 20
        E 5 e0 00 20
        E 5 e0 00 20
        E 5 e0 00 20
        E 5 e0 00 20
        E 6 e0 00 60
        E 5 e0 00 20
        E 5 e0 00 60
        E 5 e0 00 60
        E 5 e0 55 6a
        E 0 90 32 00
        E 179 e0 55 6a
        E 0 90 37 25
        E 5 e0 55 6a
        E 6 e0 55 6a
        E 5 e0 55 6a
        E 5 e0 00 60
        E 6 e0 55 6a
        E 5 e0 55 6a
        E 5 e0 00 60
        E 6 e0 00 20
        E 5 e0 00 20
        E 5 e0 55 6a
        E 6 e0 55 6a
        E 5 e0 55 6a
        E 5 e0 55 6a
        E 6 e0 00 60
        E 5 e0 00 60
        E 6 e0 00 60
        E 5 e0 00 60
        E 5 e0 55 6a
        E 6 e0 55 6a
        E 5 e0 55 6a
        E 5 e0 55 6a
        E 0 90 37 00
        E 67 90 32 2e
        E 5 90 3b 19
        E 66 90 3b 00
        E 67 90 32 00
        E 92 90 47 27
        E 86 90 40 35
        E 31 90 47 00
        E 31 90 40 00
        E 240 90 34 1b
        E 5 90 40 2a
        E 67 90 40 00
        E 31 90 40 2b
        E 5 90 3d 30
        E 0 90 45 1b
        E 5 90 34 00
        E 0 90 39 2f
        E 56 90 40 00
        E 5 90 3d 00
        E 36 90 3e 34
        E 5 90 4d 33
        E 5 90 42 2e
        E 5 90 45 00
        E 5 90 39 00
        E 51 90 4d 00
        E 51 90 3e 00
        E 11 90 42 00
        E 163 90 45 1d
        E 92 90 42 1e
        E 0 90 4a 27
        E 5 90 32 27
        E 0 90 45 00
        E 0 90 45 1f
        E 5 90 3e 38
        E 51 90 4a 00
        E 0 90 4a 3a
        E 11 90 3e 00
        E 30 90 36 25
        E 0 90 3e 38
        E 5 90 42 00
        E 0 90 42 18
        E 5 90 32 00
        E 0 90 45 00
        E 16 90 4a 00
        E 41 90 3e 00
        E 5 90 39 38
        E 31 90 42 00
        E 5 90 36 00
        E 26 90 39 00
        E 5 90 3e 1b
        E 30 90 32 29
        E 5 90 45 18
        E 0 90 4a 2a
        E 0 90 4e 26
        E 46 90 3e 00
        E 0 90 3e 2e
        E 21 90 4a 00
        E 31 90 4a 25
        E 0 90 4e 00
        E 0 90 4e 29
        E 51 90 32 00
        E 5 90 32 2b
        E 0 90 3e 00
        E 0 90 3e 34
        E 0 90 45 00
        E 35 90 36 2b
        E 0 90 42 34
        E 0 90 45 2c
        E 16 90 4e 00
        E 41 90 4a 00
        E 5 90 3e 00
        E 5 90 32 00
        E 0 90 42 00
        E 41 90 36 00
        E 5 90 45 00
        E 25 90 3e 2d
        E 36 90 45 1b
        E 41 90 32 22
        E 20 90 3e 00
        E 31 90 39 26
        E 0 90 42 30
        E 0 90 4e 30
        E 41 90 3e 3b
        E 5 90 4a 38
        E 51 90 45 00
        E 5 90 32 00
        E 0 90 39 00
        E 5 90 3e 00
        E 6 90 42 00
        E 0 90 4a 00
        E 0 90 4e 00
        E 30 90 42 1c
        E 36 90 39 22
        E 5 90 4c 1b
        E 31 90 4a 25
        E 5 90 42 00
        E 30 90 45 13
        E 41 90 42 22
        E 5 90 4c 00
        E 6 90 39 00
        E 41 90 3e 2d
        E 10 90 45 00
        E 5 90 42 00
        E 0 90 4a 00
        E 46 90 3e 00
        E 87 90 3e 22
        E 56 90 26 2f
        E 21 90 32 38
        E 5 90 3e 00
        E 0 90 3e 25
        E 46 90 26 00
        E 10 90 32 00
        E 10 90 3e 00
        E 51 90 32 2f
        E 5 90 26 2b
        E 57 90 32 00
        E 5 90 26 00
        E 81 90 32 21
        E 11 90 3e 26
        E 133 90 32 00
        E 5 90 3e 00
        E 281 90 32 2b
        E 10 90 45 2d
        E 97 90 3e 1b
        E 16 90 32 00
        E 5 90 45 00
        E 97 90 3e 00
        E 189 e0 7f 7f
        E 0 90 42 29
        E 5 e0 7f 7f
        E 6 e0 2b 75
        E 5 e0 2b 75
        E 5 e0 2b 75
        E 6 e0 55 2a
        E 5 e0 55 2a
        E 5 e0 55 2a
        E 6 e0 55 2a
        E 5 e0 55 2a
        E 5 e0 55 2a
        E 6 e0 55 2a
        E 5 e0 55 2a
        E 5 e0 55 2a
        E 6 e0 55 2a
        E 5 e0 55 2a
        E 5 e0 55 2a
        E 6 e0 2b 75
        E 5 e0 2b 75
        E 5 e0 7f 7f
        E 6 e0 7f 7f
        E 5 e0 00 20
        E 5 e0 00 20
        E 0 90 42 00
        E 72 e0 55 6a
        E 0 90 40 25
        E 5 e0 00 20
        E 6 e0 00 20
        E 5 e0 00 20
        E 5 e0 00 20
        E 6 e0 00 20
        E 5 e0 00 20
        E 5 e0 00 20
        E 6 e0 55 6a
        E 5 e0 55 6a
        E 6 e0 00 20
        E 5 e0 00 20
        E 5 e0 00 20
        E 6 e0 00 20
        E 5 e0 00 20
        E 5 e0 00 20
        E 6 e0 00 20
        E 5 e0 00 20
        E 5 e0 00 60
        E 6 e0 00 60
        E 5 e0 00 60
        E 0 90 40 00
        E 98 e0 55 0a
        E 0 90 3e 2d
        E 5 e0 2b 15
        E 6 e0 55 6a
        E 5 e0 55 6a
        E 5 e0 55 6a
        E 6 e0 55 6a
        E 5 e0 55 6a
        E 5 e0 55 6a
        E 6 e0 55 6a
        E 5 e0 55 6a
        E 5 e0 55 6a
        E 6 e0 55 6a
        E 5 e0 55 6a
        E 5 e0 55 6a
        E 6 e0 55 6a
        E 5 e0 55 6a
        E 5 e0 00 20
        E 6 e0 00 20
        E 5 e0 00 20
        E 6 e0 00 20
        E 5 e0 00 20
        E 5 e0 00 20
        E 0 90 3e 00
        E 266 90 32 25
        E 0 90 3e 3e
        E 46 90 4a 37
        E 25 90 3e 00
        E 31 90 3e 3f
        E 10 90 32 00
        E 16 90 4a 00
        E 35 90 3e 00
        E 31 90 39 1e
        E 36 90 32 25
        E 10 90 3e 25
        E 46 90 42 1b
        E 0 90 45 1a
        E 0 90 4a 20
        E 0 90 4e 25
        E 5 90 39 00
        E 36 90 3e 00
        E 0 90 3e 2d
        E 51 90 4e 00
        E 0 90 4e 2a
        E 51 90 32 00
        E 5 90 32 27
        E 0 90 3e 00
        E 0 90 3e 2c
        E 0 90 45 00
        E 36 90 45 29
        E 0 90 51 31
        E 5 90 36 28
        E 0 90 39 27
        E 0 90 42 00
        E 0 90 42 38
        E 11 90 4e 00
        E 25 90 3e 00
        E 0 90 3e 26
        E 10 90 32 00
        E 6 90 4a 00
        E 0 90 51 00
        E 5 90 42 00
        E 30 90 45 00
        E 5 90 39 00
        E 6 90 36 00
        E 15 90 4a 29
        E 10 90 3e 00
        E 0 90 3e 2b
        E 87 90 3e 00
        E 0 90 3e 25
        E 5 90 4a 00
        E 26 90 39 34
        E 10 90 4e 2f
        E 5 90 42 2f
        E 36 90 4a 2f
        E 15 90 39 00
        E 36 90 45 29
        E 15 90 42 00
        E 0 90 4a 00
        E 5 90 3e 00
        E 0 90 4e 00
        E 77 90 45 00
        E 25 e0 00 60
        E 0 90 43 18
        E 6 e0 00 60
        E 5 e0 00 60
        E 6 e0 00 60
        E 5 e0 00 60
        E 6 e0 00 60
        E 6 e0 00 60
        E 5 e0 00 60
        E 6 e0 00 60
        E 5 e0 00 60
        E 6 e0 00 60
        E 5 e0 00 60
        E 6 e0 00 60
        E 0 90 43 00
        E 5 90 42 24
        E 0 90 45 12
        E 66 90 45 00
        E 5 90 3e 22
        E 0 90 45 13
        E 21 90 42 00
        E 97 90 45 00
        E 15 90 3e 00
        E 102 90 32 35
        E 5 90 3e 28
        E 57 90 3e 00
        E 5 90 32 00
        E 133 90 4c 21
        E 5 90 40 2b
        E 5 90 49 2e
        E 87 90 49 00
        E 5 90 40 00
        E 36 90 2a 22
        E 0 90 45 0e
        E 61 90 45 00
        E 6 90 3e 26
        E 0 90 45 2a
        E 0 90 4e 35
        E 5 90 2a 00
        E 0 90 4a 27
        E 5 90 2a 2f
        E 0 90 4c 00
        E 66 90 4e 00
        E 31 90 45 00
        E 10 90 2a 00
        E 20 90 4a 00
        E 11 90 3e 00
        E 61 90 25 25
        E 0 90 31 2d
        E 0 90 4c 2c
        E 97 90 4c 00
        E 92 90 31 00
        E 179 90 36 22
        E 5 90 4e 34
        E 6 90 42 2a
        E 0 90 49 2a
        E 5 90 25 00
        E 51 90 4e 00
        E 5 90 49 00
        E 30 90 4a 27
        E 41 90 36 00
        E 11 90 42 00
        E 46 90 4a 00
        E 56 e0 55 6a
        E 0 90 43 34
        E 5 e0 55 6a
        E 6 e0 55 6a
        E 5 e0 55 6a
        E 6 e0 55 6a
        E 5 e0 55 6a
        E 6 e0 55 6a
        E 5 e0 55 6a
        E 6 e0 55 0a
        E 5 e0 55 0a
        E 6 e0 2b 75
        E 5 e0 2b 75
        E 6 e0 2b 75
        E 5 e0 2b 75
        E 0 90 43 00
        E 36 e0 2b 35
        E 0 90 42 26
        E 5 e0 00 40
        E 6 e0 00 40
        E 5 e0 7f 7f
        E 6 e0 7f 7f
        E 5 e0 00 20
        E 6 e0 00 20
        E 5 e0 00 20
        E 6 e0 00 20
        E 5 e0 00 20
        E 6 e0 00 20
        E 5 e0 00 20
        E 6 e0 00 20
        E 5 e0 00 20
        E 6 e0 00 20
        E 0 90 42 00
        E 199 90 39 17
        E 36 90 42 1d
        E 0 90 49 22
        E 0 90 55 32
        E 5 90 45 22
        E 46 90 3f 11
        E 10 90 39 00
        E 0 90 49 00
        E 5 90 45 00
        E 0 90 55 00
        E 31 90 53 36
        E 10 90 42 00
        E 41 90 3f 00
        E 5 90 53 00
        E 26 90 3e 1f
        E 5 90 39 2a
        E 0 90 45 33
        E 0 90 51 32
        E 56 90 3e 00
        E 5 90 39 00
        E 0 90 45 00
        E 0 90 51 00
        E 31 90 4f 18
        E 87 90 42 21
        E 15 90 4f 00
        E 77 90 42 00
        E 271 e0 7f 7f
        E 0 90 36 2c
        E 5 e0 7f 7f
        E 6 e0 7f 7f
        E 5 e0 00 20
        E 6 e0 00 20
        E 5 e0 2b 75
        E 6 e0 2b 75
        E 5 e0 2b 75
        E 6 e0 2b 75
        E 5 e0 2b 75
        E 6 e0 00 20
        E 5 e0 00 20
        E 6 e0 00 20
        E 0 90 36 00
        E 148 90 49 2b
        E 5 90 46 30
        E 56 90 49 00
        E 1 90 46 00
        E 36 e0 00 00
        E 0 90 47 28
        E 5 e0 55 0a
        E 6 e0 55 6a
        E 5 e0 55 6a
        E 5 e0 55 6a
        E 6 e0 55 6a
        E 5 e0 55 6a
        E 5 e0 55 6a
        E 6 e0 55 6a
        E 5 e0 55 6a
        E 6 e0 55 6a
        E 5 e0 55 6a
        E 5 e0 00 60
        E 6 e0 55 6a
        E 5 e0 55 6a
        E 5 e0 55 6a
        E 6 e0 55 6a
        E 5 e0 2b 75
        E 6 e0 2b 75
        E 5 e0 55 6a
        E 0 90 47 00
        E 358 e0 2b 75
        E 0 90 4f 1c
        E 5 e0 2b 75
        E 5 e0 55 6a
        E 6 e0 00 60
        E 5 e0 00 60
        E 5 e0 00 60
        E 6 e0 00 60
        E 5 e0 55 6a
        E 5 e0 55 6a
        E 6 e0 55 6a
        E 5 e0 55 6a
        E 6 e0 55 6a
        E 5 e0 55 6a
        E 5 e0 55 6a
        E 6 e0 55 6a
        E 5 e0 2b 15
        E 5 e0 55 6a
        E 6 e0 55 6a
        E 5 e0 55 6a
        E 5 e0 2b 15
        E 6 e0 00 20
        E 0 90 4f 00
        E 102 e0 2b 15
        E 0 90 3e 2b
        E 5 e0 2b 15
        E 6 e0 2b 15
        E 5 e0 2b 15
        E 5 e0 00 20
        E 6 e0 00 20
        E 5 e0 00 20
        E 5 e0 00 20
        E 5 e0 00 20
        E 6 e0 00 20
        E 5 e0 00 20
        E 5 e0 00 20
        E 6 e0 00 20
        E 5 e0 00 20
        E 5 e0 00 20
        E 6 e0 00 20
        E 5 e0 00 20
        E 5 e0 00 20
        E 6 e0 00 20
        E 5 e0 00 20
        E 5 e0 00 20
        E 6 e0 00 20
        E 5 e0 00 20
        E 5 e0 00 20
        E 5 e0 00 20
        E 6 e0 00 20
        E 0 90 3e 00
        E 174 90 40 26
        E 97 90 42 27
        E 10 90 40 00
        E 0 90 45 2b
        E 67 90 42 00
        E 56 90 45 00
        E 460 e0 55 6a
        E 0 90 39 2c
        E 5 e0 55 6a
        E 5 e0 55 6a
        E 5 e0 2b 15
        E 5 e0 00 20
        E 5 e0 00 20
        E 5 e0 00 20
        E 6 e0 00 20
        E 5 e0 00 20
        E 5 e0 00 20
        E 5 e0 2b 15
        E 5 e0 2b 15
        E 5 e0 2b 15
        E 5 e0 2b 15
        E 6 e0 00 60
        E 5 e0 00 20
        E 5 e0 2b 15
        E 5 e0 2b 15
        E 5 e0 55 0a
        E 5 e0 2b 75
        E 5 e0 2b 75
        E 5 e0 7f 7f
        E 6 e0 7f 7f
        E 5 e0 2b 15
        E 5 e0 2b 15
        E 0 90 39 00
        E 71 90 3e 2f
        E 0 90 4d 1f
        E 97 90 42 22
        E 16 90 4d 00
        E 10 90 3e 00
        E 87 90 42 00
        E 168 90 4a 23
        E 5 90 32 28
        E 6 90 3e 37
        E 66 90 3e 00
        E 31 90 36 26
        E 0 90 3e 3c
        E 15 90 32 00
        E 0 90 4a 00
        E 46 90 3e 00
        E 15 90 39 38
        E 31 90 36 00
        E 31 90 39 00
        E 0 90 3e 26
        E 40 90 32 23
        E 6 90 42 1d
        E 5 90 4e 22
        E 41 90 3e 00
        E 0 90 3e 2b
        E 41 90 32 00
        E 0 90 4e 00
        E 0 90 4e 29
        E 5 90 32 28
        E 51 90 3e 00
        E 0 90 3e 30
        E 36 90 26 1c
        E 0 90 45 2d
        E 5 90 36 25
        E 0 90 42 00
        E 0 90 42 1c
        E 0 90 4a 30
        E 15 90 4e 00
        E 46 90 32 00
        E 0 90 3e 00
        E 0 90 4a 00
        E 31 90 26 00
        E 10 90 45 00
        E 21 90 32 14
        E 0 90 4a 2f
        E 10 90 36 00
        E 0 90 3e 2f
        E 51 90 32 00
        E 5 90 42 00
        E 5 90 4a 00
        E 21 90 3e 00
        E 0 90 3e 28
        E 46 90 45 2d
        E 10 90 39 24
        E 46 90 42 29
        E 0 90 4a 3c
        E 10 90 45 00
        E 25 90 32 20
        E 6 90 45 26
        E 20 90 3e 00
        E 0 90 4a 00
        E 51 90 32 00
        E 15 90 45 00
        E 0 90 4c 21
        E 6 90 42 00
        E 10 90 39 00
        E 20 90 3e 26
        E 5 90 43 2a
        E 36 90 4c 00
        E 36 90 3e 00
        E 10 90 43 00
        E 56 e0 00 20
        E 0 90 3e 3b
        E 6 e0 00 20
        E 5 e0 2b 15
        E 6 e0 2b 15
        E 6 e0 00 20
        E 5 e0 00 20
        E 6 e0 00 20
        E 5 e0 00 20
        E 6 e0 00 20
        E 5 e0 00 20
        E 6 e0 00 20
        E 6 e0 00 20
        E 0 90 3e 00
        E 199 90 26 27
        E 5 90 32 3a
        E 67 90 32 00
        E 56 90 26 00
        E 450 90 32 26
        E 5 90 3c 26
        E 5 90 48 21
        E 10 90 36 27
        E 0 90 42 1b
        E 66 90 3c 00
        E 0 90 48 00
        E 0 90 48 1e
        E 26 90 4a 21
        E 5 90 3e 23
        E 0 90 42 00
        E 0 90 42 21
        E 15 90 36 00
        E 21 90 48 00
        E 16 90 47 1f
        E 30 90 3e 00
        E 0 90 3e 28
        E 11 90 32 00
        E 5 90 42 00
        E 30 90 4a 00
        E 36 90 2b 33
        E 15 90 3e 00
        E 0 90 3e 38
        E 6 90 37 2c
        E 5 90 47 00
        E 35 90 2b 00
        E 21 90 3e 00
        E 128 90 37 00
        E 219 90 45 22
        E 107 90 40 15
        E 6 90 45 00
        E 0 90 45 29
        E 5 90 39 2d
        E 92 90 34 23
        E 5 90 40 00
        E 10 90 3e 1d
        E 0 90 45 00
        E 10 90 39 00
        E 21 90 38 1e
        E 0 90 44 23
        E 0 90 47 28
        E 51 90 3e 00
        E 0 90 3e 30
        E 16 90 38 00
        E 0 90 47 00
        E 0 90 47 31
        E 10 90 34 00
        E 41 90 44 00
        E 5 90 3e 00
        E 5 90 47 00
        E 10 90 38 15
        E 61 90 3e 25
        E 11 90 38 00
        E 0 90 44 29
        E 5 90 3b 32
        E 76 90 3b 00
        E 21 90 44 00
        E 92 90 3e 00
        E 219 90 4f 23
        E 6 90 3a 2b
        E 0 90 43 27
        E 0 90 46 2a
        E 97 90 37 23
        E 5 90 4a 1f
        E 5 90 4f 00
        E 0 90 4f 1c
        E 5 90 43 00
        E 0 90 43 2c
        E 15 90 46 00
        E 5 90 3a 00
        E 77 90 3a 23
        E 0 90 3e 2b
        E 20 90 37 00
        E 6 90 43 00
        E 0 90 43 21
        E 0 90 4f 00
        E 0 90 4f 22
        E 82 90 4f 00
        E 5 90 3a 00
        E 0 90 43 00
        E 25 90 3e 00
        E 6 90 4a 00
        E 30 90 2d 23
        E 0 90 43 24
        E 21 90 3d 28
        E 5 90 39 29
        E 10 90 40 1c
        E 10 90 4c 25
        E 41 90 31 15
        E 41 90 45 29
        E 10 90 49 20
        E 51 90 2d 00
        E 5 90 43 00
        E 0 90 45 00
        E 5 90 39 00
        E 0 90 4c 00
        E 31 90 31 00
        E 0 90 43 22
        E 5 90 4f 29
        E 5 90 40 00
        E 0 90 49 00
        E 46 90 3d 00
        E 51 90 4f 00
        E 31 90 39 27
        E 5 90 2d 2d
        E 5 90 43 00
        E 62 90 40 27
        E 15 90 4c 1c
        E 36 90 45 2c
        E 61 90 45 00
        E 31 90 37 14
        E 0 90 43 28
        E 5 90 4f 27
        E 5 90 2d 00
        E 0 90 39 00
        E 0 90 40 00
        E 0 90 4c 00
        E 76 90 37 00
        E 0 90 43 00
        E 0 90 43 23
        E 16 90 4f 00
        E 30 90 45 1f
        E 11 90 2d 2b
        E 0 90 39 23
        E 0 90 40 1e
        E 51 90 43 00
        E 25 90 40 00
        E 0 90 40 22
        E 0 90 4c 26
        E 98 90 4c 00
        E 5 90 45 00
        E 31 90 4f 1a
        E 10 90 2d 00
        E 20 90 34 21
        E 5 90 43 2e
        E 11 90 40 00
        E 5 90 39 00
        E 35 90 2d 2d
        E 6 90 4f 00
        E 5 90 43 00
        E 15 90 39 31
        E 20 90 34 00
        E 36 90 43 23
        E 0 90 4a 21
        E 5 90 2d 00
        E 0 90 39 00
        E 82 90 43 00
        E 0 90 43 21
        E 0 90 4a 00
        E 87 90 4a 29
        E 5 90 4f 23
        E 31 90 3a 34
        E 15 90 43 00
        E 26 90 2d 1e
        E 5 90 43 2f
        E 5 90 4a 00
        E 0 90 4f 00
        E 0 90 4f 1e
        E 10 90 3a 00
        E 41 90 39 24
        E 0 90 51 1e
        E 10 90 43 00
        E 20 90 4a 16
        E 6 90 45 28
        E 40 90 3c 23
        E 0 90 4c 20
        E 11 90 51 00
        E 51 90 3c 00
        E 5 90 4f 00
        E 25 90 3e 18
        E 11 90 4c 00
        E 40 90 4a 00
        E 11 90 3e 00
        E 0 90 45 00
        E 0 90 45 1c
        E 5 90 2d 00
        E 62 90 2d 19
        E 5 90 4a 1c
        E 36 90 40 2f
        E 51 90 2d 00
        E 5 90 45 00
        E 5 90 40 00
        E 66 90 45 15
        E 36 90 3e 32
        E 10 90 4a 00
        E 0 90 4a 2a
        E 46 90 45 00
        E 10 90 3e 00
        E 36 90 2d 30
        E 5 90 39 00
        E 0 90 4a 00
        E 21 90 21 29
        E 41 90 39 1e
        E 0 90 40 2d
        E 5 90 2d 00
        E 5 90 2d 32
        E 10 90 21 00
        E 72 90 40 00
        E 30 90 3b 17
        E 5 90 4a 28
        E 5 90 45 1a
        E 11 90 2d 00
        E 15 90 21 1c
        E 5 90 34 28
        E 0 90 47 32
        E 46 90 3e 20
        E 10 90 21 00
        E 5 90 34 00
        E 0 90 3b 00
        E 0 90 47 00
        E 5 90 4a 00
        E 67 90 2d 1d
        E 0 90 40 22
        E 10 90 3e 00
        E 36 90 45 00
        E 0 90 45 2e
        E 46 90 49 2d
        E 5 90 40 00
        E 10 90 45 00
        E 67 90 39 00
        E 5 90 2d 00
        E 5 90 49 00
        E 16 90 21 2c
        E 15 90 43 34
        E 46 90 21 00
        E 15 90 43 00
        E 46 90 40 19
        E 5 90 39 1d
        E 36 90 42 3a
        E 5 90 21 1e
        E 36 90 2d 22
        E 26 90 42 00
        E 35 90 21 00
        E 41 90 39 00
        E 36 90 40 00
        E 5 90 40 29
        E 26 90 37 28
        E 10 90 43 25
        E 5 90 2d 00
        E 46 90 37 00
        E 5 90 40 00
        E 26 90 39 17
        E 25 90 43 00
        E 10 90 3e 41
        E 62 90 39 00
        E 0 90 42 2f
        E 10 90 3e 00
        E 51 90 47 27
        E 15 90 42 00
        E 21 90 3d 33
        E 35 90 47 00
        E 36 90 3d 00
        E 92 90 3b 33
        E 15 90 32 22
        E 37 90 4a 22
        E 5 90 3e 2f
        E 5 90 3b 00
        E 36 90 41 3a
        E 20 90 4a 00
        E 5 90 4a 23
        E 10 90 32 00
        E 6 90 3e 00
        E 20 90 41 00
        E 41 90 40 34
        E 25 90 4a 00
        E 31 90 44 25
        E 5 90 40 00
        E 123 90 3b 1f
        E 15 90 44 00
        E 67 90 41 28
        E 0 90 4d 26
        E 5 90 3e 1d
        E 35 90 44 26
        E 31 90 4d 00
        E 36 90 40 20
        E 0 90 41 00
        E 5 90 3e 00
        E 41 90 44 00
        E 0 90 44 21
        E 5 90 3b 00
        E 31 90 4d 26
        E 10 90 40 00
        E 61 90 4d 00
        E 15 90 3e 28
        E 5 90 3b 1f
        E 16 90 44 00
        E 71 90 3e 00
        E 62 90 40 32
        E 26 90 3b 00
        E 35 90 40 00
        E 36 90 3e 30
        E 51 90 44 2b
        E 41 90 41 33
        E 21 90 3e 00
        E 41 90 41 00
        E 10 90 44 00
        E 25 90 40 2e
        E 36 90 44 1a
        E 72 90 40 00
        E 71 90 41 33
        E 0 90 44 00
        E 41 90 44 31
        E 20 90 41 00
        E 21 90 28 25
        E 5 90 34 24
        E 20 90 44 00
        E 72 90 28 00
        E 5 90 28 25
        E 10 90 34 00
        E 87 90 28 00
        E 61 90 31 27
        E 5 90 25 2e
        E 41 90 46 27
        E 57 90 31 00
        E 0 90 46 00
        E 5 90 25 00
        E 15 90 4c 11
        E 6 90 40 21
        E 5 90 34 2e
        E 46 90 28 28
        E 5 90 4c 00
        E 10 90 40 00
        E 5 90 34 00
        E 61 90 41 24
        E 26 90 28 00
        E 36 90 41 00
        E 20 90 25 2b
        E 5 90 31 26
        E 46 90 46 25
        E 62 90 3d 23
        E 5 90 46 00
        E 5 90 31 00
        E 20 90 40 30
        E 10 90 25 00
        E 0 90 34 32
        E 51 90 40 00
        E 11 90 34 00
        E 0 90 3d 00
        E 153 90 25 2e
        E 10 90 31 2a
        E 31 90 46 29
        E 82 90 31 00
        E 10 90 46 00
        E 5 90 25 00
        E 82 e0 00 20
        E 0 90 46 23
        E 5 e0 00 20
        E 5 e0 00 20
        E 5 e0 00 20
        E 5 e0 00 20
        E 5 e0 00 20
        E 5 e0 00 20
        E 6 e0 00 20
        E 5 e0 55 6a
        E 5 e0 55 6a
        E 5 e0 55 6a
        E 5 e0 55 6a
        E 5 e0 55 6a
        E 5 e0 55 6a
        E 6 e0 55 6a
        E 5 e0 55 6a
        E 5 e0 55 6a
        E 0 90 46 00
        E 0 90 46 28
        E 46 90 3d 25
        E 41 90 46 00
        E 0 90 46 24
        E 41 90 1c 2b
        E 5 90 34 2b
        E 5 90 25 1e
        E 5 90 28 3b
        E 0 90 3d 00
        E 0 90 3d 28
        E 5 90 49 23
        E 10 90 46 00
        E 31 90 1c 00
        E 15 90 25 00
        E 5 90 34 00
        E 5 90 49 00
        E 6 90 28 00
        E 81 90 3d 00
        E 51 90 26 32
        E 5 90 49 32
        E 62 90 49 00
        E 56 90 26 00
        E 102 90 31 29
        E 5 90 25 30
        E 169 90 31 00
        E 5 90 25 00
        E 67 90 25 39
        E 10 90 22 2a
        E 51 90 25 00
        E 159 90 22 00
        E 143 90 2b 21
        E 5 90 25 2b
        E 0 90 31 24
        E 10 90 3d 20
        E 0 90 40 21
        E 10 90 28 29
        E 0 90 34 20
        E 41 90 21 25
        E 5 90 2b 00
        E 5 90 2d 23
        E 5 90 3d 00
        E 5 90 34 00
        E 0 90 40 00
        E 52 90 21 00
        E 0 90 2b 1d
        E 20 90 34 22
        E 46 90 2b 00
        E 15 90 31 00
        E 10 90 39 26
        E 11 90 25 00
        E 5 90 28 00
        E 61 90 34 00
        E 0 90 39 00
        E 51 90 2d 00
        E 466 e0 00 60
        E 0 90 39 1e
        E 5 e0 00 60
        E 6 e0 00 60
        E 5 e0 55 6a
        E 6 e0 55 6a
        E 5 e0 00 60
        E 6 e0 00 60
        E 5 e0 00 60
        E 6 e0 00 60
        E 5 e0 55 0a
        E 6 e0 55 0a
        E 5 e0 2b 15
        E 6 e0 2b 15
        E 5 e0 2b 15
        E 0 90 39 00
        E 72 90 2f 2c
        E 5 90 3b 28
        E 61 90 2f 00
        E 0 90 3b 00
        E 660 e0 2b 15
        E 0 90 21 22
        E 5 e0 2b 15
        E 5 e0 2b 15
        E 6 e0 2b 15
        E 5 e0 2b 15
        E 6 e0 2b 15
        E 5 e0 2b 15
        E 5 e0 2b 15
        E 6 e0 2b 15
        E 5 e0 2b 15
        E 6 e0 2b 15
        E 5 e0 2b 15
        E 5 e0 2b 15
        E 6 e0 2b 15
        E 5 e0 00 60
        E 6 e0 00 60
        E 5 e0 2b 15
        E 5 e0 2b 15
        E 6 e0 2b 15
        E 0 90 21 00
        E 41 e0 55 6a
        E 0 90 43 1a
        E 5 e0 55 6a
        E 5 e0 55 6a
        E 6 e0 55 6a
        E 5 e0 55 6a
        E 6 e0 55 6a
        E 5 e0 55 6a
        E 6 e0 55 6a
        E 5 e0 00 60
        E 6 e0 00 60
        E 5 e0 00 60
        E 5 e0 00 60
        E 6 e0 00 60
        E 5 e0 00 60
        E 6 e0 00 60
        E 5 e0 00 60
        E 0 90 43 00
        E 476 90 33 17
        E 5 90 3c 21
        E 5 90 45 2d
        E 5 90 4a 17
        E 46 90 33 00
        E 10 90 3c 00
        E 6 90 45 00
        E 0 90 4a 00
        E 240 e0 00 20
        E 0 90 4f 23
        E 5 e0 00 20
        E 6 e0 55 2a
        E 5 e0 55 2a
        E 6 e0 55 2a
        E 6 e0 55 2a
        E 5 e0 55 2a
        E 6 e0 55 2a
        E 5 e0 55 2a
        E 6 e0 00 20
        E 5 e0 00 20
        E 6 e0 55 2a
        E 0 90 4f 00
        E 51 90 3c 17
        E 51 90 4f 27
        E 15 90 3c 00
        E 46 90 4f 00
        E 87 90 51 24
        E 46 90 45 19
        E 16 90 51 00
        E 25 90 4f 1b
        E 26 90 51 15
        E 41 90 4f 00
        E 31 90 45 00
        E 30 e0 7f 7f
        E 0 90 50 2d
        E 0 90 51 00
        E 6 e0 7f 7f
        E 5 e0 2b 15
        E 6 e0 00 20
        E 5 e0 00 20
        E 6 e0 2b 15
        E 5 e0 2b 15
        E 6 e0 2b 15
        E 5 e0 2b 15
        E 6 e0 2b 15
        E 5 e0 2b 15
        E 6 e0 2b 15
        E 5 e0 7f 7f
        E 6 e0 7f 7f
        E 5 e0 00 20
        E 0 90 50 00
        E 153 e0 00 60
        E 0 90 51 1f
        E 6 e0 55 6a
        E 5 e0 55 6a
        E 6 e0 00 60
        E 5 e0 00 60
        E 6 e0 00 60
        E 5 e0 00 60
        E 6 e0 00 60
        E 6 e0 00 60
        E 5 e0 00 60
        E 6 e0 00 60
        E 5 e0 00 60
        E 6 e0 55 6a
        E 0 90 51 00
        E 158 90 3e 14
        E 41 90 45 14
        E 0 90 51 19
        E 61 90 3e 00
        E 0 90 45 00
        E 5 90 51 00
        E 1141 90 2f 24
        E 0 90 32 34
        E 5 90 3e 49
        E 56 90 2f 00
        E 5 90 32 00
        E 10 90 3e 00
        E 465 90 51 25
        E 67 90 3e 3c
        E 0 90 45 28
        E 15 90 51 00
        E 25 90 26 1c
        E 11 90 36 19
        E 10 90 45 00
        E 10 90 3e 00
        E 31 90 26 00
        E 10 90 36 00
        E 118 90 2f 1d
        E 0 90 32 24
        E 0 90 3e 38
        E 5 90 39 15
        E 0 90 45 2c
        E 66 90 39 00
        E 6 90 2f 00
        E 0 90 32 00
        E 5 90 45 00
        E 5 90 3e 00
        E 51 90 36 18
        E 5 90 32 1b
        E 66 90 36 00
        E 6 90 32 00
        E 214 90 39 1b
        E 0 90 42 29
        E 61 90 39 00
        E 0 90 45 26
        E 31 90 4e 28
        E 41 90 36 34
        E 10 90 45 00
        E 0 90 45 1d
        E 10 90 4e 00
        E 5 90 42 00
        E 36 90 36 00
        E 61 90 39 23
        E 6 90 32 1f
        E 0 90 3e 14
        E 0 90 45 00
        E 0 90 45 19
        E 5 90 42 11
        E 56 90 2f 16
        E 0 90 36 1a
        E 0 90 3e 00
        E 5 90 3e 33
        E 0 90 42 00
        E 0 90 45 00
        E 0 90 45 23
        E 5 90 42 34
        E 67 90 2f 00
        E 0 90 32 00
        E 10 90 3e 00
        E 0 90 45 00
        E 11 90 39 00
        E 10 90 42 00
        E 10 90 36 00
        E 460 90 40 1d
        E 35 90 39 18
        E 0 90 45 20
        E 6 90 4c 1f
        E 46 90 42 24
        E 10 90 40 00
        E 5 90 4c 00
        E 41 90 26 27
        E 5 90 4d 30
        E 5 90 3e 29
        E 5 90 39 00
        E 5 90 45 00
        E 5 90 42 00
        E 46 90 26 00
        E 0 90 4d 00
        E 46 90 32 24
        E 0 90 36 11
        E 0 90 42 30
        E 62 90 36 00
        E 0 90 3e 00
        E 5 90 32 00
        E 10 90 42 00
        E 46 e0 00 40
        E 0 90 49 34
        E 6 e0 00 20
        E 6 e0 00 20
        E 5 e0 00 20
        E 6 e0 00 20
        E 5 e0 00 20
        E 6 e0 00 20
        E 5 e0 00 20
        E 6 e0 00 20
        E 6 e0 00 20
        E 5 e0 00 20
        E 6 e0 00 20
        E 0 90 49 00
        E 679 e0 7f 7f
        E 0 90 52 27
        E 6 e0 55 0a
        E 5 e0 00 20
        E 6 e0 00 20
        E 5 e0 00 20
        E 6 e0 00 20
        E 5 e0 00 20
        E 6 e0 55 2a
        E 5 e0 55 2a
        E 6 e0 55 2a
        E 5 e0 00 20
        E 6 e0 00 20
        E 6 e0 00 20
        E 0 90 52 00
        E 679 90 32 23
        E 11 90 4e 25
        E 61 90 4e 00
        E 41 90 32 00
        E 629 e0 2b 35
        E 0 90 39 45
        E 5 e0 55 6a
        E 6 e0 55 6a
        E 5 e0 55 6a
        E 6 e0 55 6a
        E 5 e0 55 6a
        E 6 e0 2b 15
        E 5 e0 2b 15
        E 6 e0 2b 15
        E 5 e0 55 6a
        E 6 e0 55 6a
        E 5 e0 2b 15
        E 5 e0 2b 15
        E 6 e0 2b 15
        E 5 e0 2b 15
        E 0 90 39 00
        E 92 90 24 1c
        E 11 90 2a 15
        E 0 90 2d 1c
        E 5 90 39 27
        E 10 90 45 21
        E 36 90 32 39
        E 0 90 3e 48
        E 10 90 4a 42
        E 46 90 24 00
        E 0 90 2a 00
        E 0 90 2d 00
        E 10 90 32 00
        E 0 90 39 00
        E 5 90 3e 00
        E 0 90 45 00
        E 0 90 4a 00
        E 72 90 32 19
        E 10 90 42 23
        E 5 90 39 24
        E 0 90 45 29
        E 36 90 2a 1a
        E 11 90 40 21
        E 0 90 4c 29
        E 15 90 32 00
        E 10 90 39 00
        E 0 90 42 00
        E 0 90 45 00
        E 26 90 3d 27
        E 10 90 4c 00
        E 31 90 2a 00
        E 15 90 40 00
        E 5 90 3d 00
        E 153 e0 00 20
        E 0 90 3e 2b
        E 6 e0 00 20
        E 5 e0 00 20
        E 6 e0 2b 15
        E 5 e0 2b 15
        E 6 e0 2b 15
        E 5 e0 00 20
        E 6 e0 00 20
        E 5 e0 00 20
        E 6 e0 00 20
        E 5 e0 00 20
        E 6 e0 00 20
        E 5 e0 00 20
        E 6 e0 00 20
        E 0 90 3e 00
        E 250 90 37 17
        E 0 90 3a 1b
        E 0 90 3e 1e
        E 5 90 42 1c
        E 61 90 42 00
        E 46 90 37 00
        E 0 90 3a 00
        E 41 90 45 21
        E 0 90 4a 21
        E 21 90 3e 00
        E 25 90 33 1b
        E 16 90 4a 00
        E 5 90 45 00
        E 36 90 33 00
        E 112 e0 00 20
        E 0 90 39 21
        E 6 e0 00 20
        E 5 e0 00 20
        E 6 e0 00 20
        E 6 e0 00 20
        E 5 e0 00 20
        E 6 e0 00 20
        E 5 e0 00 20
        E 6 e0 00 20
        E 5 e0 00 20
        E 6 e0 00 60
        E 5 e0 00 60
        E 6 e0 55 6a
        E 0 90 39 00
        E 255 90 42 21
        E 51 90 40 0f
        E 0 90 4c 0d
        E 26 90 42 00
        E 36 90 40 00
        E 0 90 4c 00
        E 199 e0 55 6a
        E 0 90 3e 29
        E 5 e0 55 6a
        E 6 e0 55 6a
        E 5 e0 00 20
        E 6 e0 00 20
        E 5 e0 00 20
        E 6 e0 00 20
        E 5 e0 00 20
        E 6 e0 00 20
        E 5 e0 00 20
        E 6 e0 00 20
        E 5 e0 00 20
        E 6 e0 00 20
        E 5 e0 00 20
        E 0 90 3e 00
        E 440 e0 55 6a
        E 0 90 4a 28
        E 6 e0 55 6a
        E 5 e0 55 6a
        E 6 e0 00 60
        E 5 e0 00 60
        E 6 e0 00 60
        E 5 e0 55 6a
        E 6 e0 2b 15
        E 5 e0 55 6a
        E 6 e0 55 6a
        E 5 e0 55 6a
        E 6 e0 55 6a
        E 5 e0 00 20
        E 6 e0 00 20
        E 0 90 40 24
        E 0 90 4a 00
        E 0 90 4a 1e
        E 66 90 4a 00
        E 5 90 40 00
        E 26 e0 00 60
        E 0 90 4a 20
        E 5 e0 55 6a
        E 6 e0 00 60
        E 5 e0 00 60
        E 6 e0 00 60
        E 5 e0 00 60
        E 6 e0 00 60
        E 6 e0 00 60
        E 5 e0 00 60
        E 6 e0 00 60
        E 5 e0 00 60
        E 6 e0 00 60
        E 5 e0 00 60
        E 0 90 4a 00
        E 72 90 36 1c
        E 0 90 4e 1a
        E 5 90 4a 23
        E 36 90 26 1d
        E 15 90 2d 27
        E 10 90 3e 25
        E 5 90 36 00
        E 5 90 4e 00
        E 41 90 4a 00
        E 10 90 42 22
        E 6 90 36 31
        E 41 90 26 00
        E 15 90 36 00
        E 0 90 42 00
        E 11 90 3e 00
        E 5 90 2d 00
        E 168 90 2d 23
        E 5 90 36 20
        E 5 90 42 1d
        E 6 90 39 1e
        E 97 90 4a 1a
        E 5 90 2d 00
        E 0 90 36 00
        E 5 90 42 00
        E 10 90 39 00
        E 46 90 3e 25
        E 26 90 39 1b
        E 10 90 40 1a
        E 41 90 36 2a
        E 0 90 4e 21
        E 5 90 42 26
        E 66 90 39 00
        E 0 90 40 00
        E 10 90 4a 00
        E 0 90 4e 00
        E 5 90 36 00
        E 0 90 3e 00
        E 0 90 42 00
        E 76 b0 7b 00
        CCINTERP 32
        CHASE_CC_TAKEOFFS 1
        GUID {44FE5C71-A9BF-4268-8154-4BC31293D349}
        IGNTEMPO 0 120 4 4
        SRCCOLOR 159
        VELLANE -1 100 0
      >
    >
  >
  <UINF 115
    <ITEM {FFA15785-1E4E-4DBD-97D0-08096AF55E61}
      POSITION 0
      SNAPOFFS 0
      LENGTH 575.5
      LOOP 1
      ALLTAKES 0
      FADEIN 1 0 0 1 0 0 0
      FADEOUT 1 0 0 1 0 0 0
      MUTE 0 0
      SEL 1
      IGUID {FFA15785-1E4E-4DBD-97D0-08096AF55E61}
      IID 69
      NAME MIDI-Unprocessed_Chamber2_MID--AUDIO_09_R3_2018_wav--1_basic_pitch.mid
      VOLPAN 1 0 1 -1
      SOFFS 0 0
      PLAYRATE 1 1 0 -1 0 0.0025
      CHANMODE 0
      GUID {E25C11D9-6B82-40DF-AF9A-0D395EF7BB20}
      <SOURCE MIDI
        HASDATA 1 220 QN
        CCINTERP 32
        POOLEDEVTS {F1A48F5D-6FEC-4116-9FC5-A536674FDC59}
        E 0 c0 04 00
        E 2188 e0 55 2a
        E 0 90 4e 22
        E 5 e0 55 6a
        E 6 e0 55 6a
        E 5 e0 55 6a
        E 6 e0 55 2a
        E 5 e0 55 2a
        E 6 e0 55 2a
        E 6 e0 55 2a
        E 5 e0 55 2a
        E 6 e0 55 2a
        E 5 e0 55 2a
        E 6 e0 55 2a
        E 0 90 4e 00
        E 1324 e0 55 2a
        E 0 90 45 15
        E 6 e0 55 2a
        E 5 e0 00 20
        E 6 e0 55 2a
        E 5 e0 55 2a
        E 6 e0 55 2a
        E 5 e0 55 2a
        E 6 e0 55 2a
        E 6 e0 55 2a
        E 5 e0 55 2a
        E 6 e0 55 2a
        E 5 e0 55 2a
        E 0 90 45 00
        E 1007 e0 55 2a
        E 0 90 4e 23
        E 6 e0 55 2a
        E 5 e0 00 20
        E 6 e0 00 20
        E 6 e0 00 20
        E 5 e0 00 20
        E 6 e0 55 2a
        E 5 e0 55 2a
        E 6 e0 55 2a
        E 5 e0 55 2a
        E 6 e0 55 2a
        E 6 e0 55 2a
        E 0 90 4e 00
        E 2668 90 4c 23
        E 30 90 4e 23
        E 31 90 4c 00
        E 31 90 4e 00
        E 2295 90 4e 24
        E 31 90 4c 19
        E 30 90 4e 00
        E 31 90 4c 00
        E 7867 90 4c 1e
        E 15 90 4e 1b
        E 46 90 4c 00
        E 16 90 4e 00
        E 3598 e0 55 2a
        E 0 90 45 17
        E 6 e0 55 2a
        E 5 e0 55 2a
        E 6 e0 00 20
        E 5 e0 00 20
        E 6 e0 00 60
        E 5 e0 00 60
        E 6 e0 00 60
        E 5 e0 00 60
        E 6 e0 00 60
        E 6 e0 55 2a
        E 5 e0 55 2a
        E 6 e0 00 20
        E 0 90 45 00
        E 4585 e0 55 2a
        E 0 90 45 10
        E 5 e0 55 2a
        E 6 e0 55 2a
        E 5 e0 55 2a
        E 6 e0 55 2a
        E 5 e0 55 2a
        E 6 e0 55 2a
        E 5 e0 00 60
        E 6 e0 00 60
        E 5 e0 55 2a
        E 6 e0 55 2a
        E 6 e0 55 2a
        E 5 e0 55 2a
        E 0 90 45 00
        E 8148 e0 55 2a
        E 0 90 51 1b
        E 6 e0 55 2a
        E 5 e0 55 2a
        E 6 e0 55 2a
        E 5 e0 55 2a
        E 6 e0 55 2a
        E 5 e0 55 2a
        E 6 e0 55 2a
        E 5 e0 55 2a
        E 6 e0 55 2a
        E 5 e0 55 2a
        E 6 e0 55 2a
        E 5 e0 55 2a
        E 6 e0 00 20
        E 0 90 51 00
        E 4192 e0 55 2a
        E 0 90 51 16
        E 5 e0 55 2a
        E 5 e0 55 2a
        E 6 e0 55 2a
        E 5 e0 55 2a
        E 6 e0 55 2a
        E 5 e0 55 2a
        E 5 e0 55 2a
        E 6 e0 00 60
        E 5 e0 00 60
        E 5 e0 00 60
        E 6 e0 00 60
        E 5 e0 00 60
        E 6 e0 00 60
        E 5 e0 00 60
        E 5 e0 00 60
        E 6 e0 00 60
        E 5 e0 00 60
        E 5 e0 55 6a
        E 6 e0 55 6a
        E 0 90 51 00
        E 21290 e0 00 40
        E 0 90 56 2b
        E 5 e0 55 2a
        E 6 e0 55 6a
        E 6 e0 00 20
        E 5 e0 00 20
        E 6 e0 00 20
        E 5 e0 55 2a
        E 6 e0 55 2a
        E 5 e0 55 2a
        E 6 e0 55 2a
        E 6 e0 55 2a
        E 5 e0 55 2a
        E 0 90 56 00
        E 542 e0 2b 35
        E 0 90 51 26
        E 6 e0 2b 35
        E 5 e0 55 2a
        E 6 e0 00 20
        E 5 e0 00 20
        E 6 e0 00 20
        E 5 e0 00 20
        E 6 e0 55 2a
        E 5 e0 55 2a
        E 6 e0 55 2a
        E 6 e0 55 2a
        E 5 e0 55 2a
        E 6 e0 00 20
        E 0 90 51 00
        E 2264 e0 00 60
        E 0 90 51 29
        E 5 e0 55 6a
        E 6 e0 00 20
        E 5 e0 00 20
        E 6 e0 00 20
        E 6 e0 00 20
        E 5 e0 55 2a
        E 6 e0 55 2a
        E 5 e0 55 2a
        E 6 e0 55 2a
        E 5 e0 00 20
        E 6 e0 00 20
        E 0 90 51 00
        E 1825 e0 00 20
        E 0 90 4e 1d
        E 6 e0 00 20
        E 5 e0 00 20
        E 6 e0 00 20
        E 5 e0 00 20
        E 5 e0 00 20
        E 6 e0 55 2a
        E 5 e0 55 2a
        E 5 e0 55 2a
        E 6 e0 55 2a
        E 5 e0 55 2a
        E 5 e0 55 2a
        E 6 e0 00 20
        E 5 e0 00 20
        E 5 e0 00 20
        E 6 e0 55 2a
        E 5 e0 55 2a
        E 5 e0 55 2a
        E 6 e0 55 2a
        E 5 e0 55 2a
        E 5 e0 00 20
        E 6 e0 00 20
        E 0 90 4e 00
        E 623 e0 2b 35
        E 0 90 51 27
        E 6 e0 55 2a
        E 5 e0 00 20
        E 6 e0 00 20
        E 5 e0 00 20
        E 6 e0 00 20
        E 5 e0 00 20
        E 6 e0 55 2a
        E 6 e0 55 2a
        E 5 e0 55 2a
        E 6 e0 55 2a
        E 5 e0 00 20
        E 0 90 51 00
        E 614 e0 2b 55
        E 0 90 3e 16
        E 6 e0 2b 55
        E 5 e0 00 60
        E 6 e0 00 60
        E 5 e0 00 20
        E 6 e0 55 2a
        E 5 e0 55 2a
        E 6 e0 55 2a
        E 6 e0 55 2a
        E 5 e0 55 2a
        E 6 e0 55 2a
        E 5 e0 00 20
        E 0 90 3e 00
        E 971 e0 55 2a
        E 0 90 56 23
        E 6 e0 00 20
        E 5 e0 00 20
        E 6 e0 00 20
        E 5 e0 55 2a
        E 6 e0 55 2a
        E 5 e0 55 2a
        E 6 e0 55 2a
        E 5 e0 55 2a
        E 6 e0 55 2a
        E 5 e0 55 2a
        E 6 e0 55 2a
        E 5 e0 00 20
        E 6 e0 00 20
        E 0 90 56 00
        E 501 e0 2b 35
        E 0 90 51 2e
        E 6 e0 55 2a
        E 5 e0 00 20
        E 6 e0 00 20
        E 5 e0 00 20
        E 6 e0 00 20
        E 6 e0 00 20
        E 5 e0 55 2a
        E 6 e0 55 2a
        E 5 e0 55 2a
        E 6 e0 55 2a
        E 5 e0 00 20
        E 0 90 51 00
        E 7545 e0 2b 35
        E 0 90 51 23
        E 6 e0 55 2a
        E 6 e0 55 2a
        E 5 e0 55 2a
        E 6 e0 55 2a
        E 5 e0 55 2a
        E 6 e0 55 2a
        E 5 e0 55 2a
        E 6 e0 55 2a
        E 6 e0 55 2a
        E 5 e0 55 2a
        E 6 e0 55 2a
        E 0 90 51 00
        E 623 e0 2b 55
        E 0 90 3e 18
        E 5 e0 2b 55
        E 5 e0 00 20
        E 5 e0 00 20
        E 6 e0 00 20
        E 5 e0 55 2a
        E 5 e0 55 2a
        E 5 e0 55 2a
        E 5 e0 55 2a
        E 5 e0 55 2a
        E 6 e0 55 2a
        E 5 e0 55 2a
        E 5 e0 00 20
        E 5 e0 00 20
        E 0 90 3e 00
        E 1574 e0 55 2a
        E 0 90 51 29
        E 5 e0 55 2a
        E 6 e0 00 20
        E 6 e0 55 2a
        E 5 e0 55 2a
        E 6 e0 55 2a
        E 5 e0 55 2a
        E 6 e0 55 2a
        E 5 e0 55 2a
        E 6 e0 00 20
        E 6 e0 00 20
        E 5 e0 00 20
        E 0 90 51 00
        E 1815 e0 55 2a
        E 0 90 4a 24
        E 6 e0 55 2a
        E 5 e0 55 2a
        E 6 e0 00 20
        E 5 e0 55 2a
        E 6 e0 55 2a
        E 5 e0 55 2a
        E 6 e0 55 2a
        E 5 e0 55 2a
        E 6 e0 55 2a
        E 5 e0 55 2a
        E 6 e0 2b 35
        E 5 e0 55 2a
        E 6 e0 00 20
        E 5 e0 00 20
        E 0 90 4a 00
        E 582 90 4a 25
        E 72 90 42 13
        E 5 90 4a 00
        E 66 90 42 00
        E 0 90 4a 1a
        E 6 90 42 20
        E 61 90 4a 00
        E 11 90 42 00
        E 143 e0 00 20
        E 0 90 4a 27
        E 5 e0 00 20
        E 6 e0 00 20
        E 5 e0 00 20
        E 6 e0 00 20
        E 5 e0 00 20
        E 6 e0 00 20
        E 5 e0 00 20
        E 6 e0 00 20
        E 5 e0 00 20
        E 6 e0 55 2a
        E 5 e0 55 2a
        E 6 e0 00 20
        E 5 e0 00 20
        E 0 90 4a 00
        E 1641 90 51 1a
        E 46 90 3e 12
        E 20 90 51 00
        E 41 e0 55 2a
        E 0 90 3e 00
        E 0 90 42 14
        E 6 e0 55 2a
        E 5 e0 00 20
        E 6 e0 00 20
        E 5 e0 00 60
        E 6 e0 00 60
        E 6 e0 55 2a
        E 5 e0 55 2a
        E 6 e0 55 2a
        E 5 e0 55 2a
        E 6 e0 55 2a
        E 5 e0 55 2a
        E 6 e0 55 2a
        E 0 90 3e 15
        E 0 90 42 00
        E 0 90 42 13
        E 66 90 42 00
        E 10 90 3e 00
        E 389 e0 55 2a
        E 0 90 4e 1c
        E 5 e0 55 2a
        E 6 e0 55 2a
        E 5 e0 55 2a
        E 6 e0 55 2a
        E 5 e0 55 2a
        E 6 e0 2b 35
        E 5 e0 2b 35
        E 6 e0 2b 35
        E 5 e0 55 2a
        E 6 e0 55 2a
        E 5 e0 00 20
        E 6 e0 00 20
        E 0 90 4e 00
        E 113 e0 55 2a
        E 0 90 3e 1b
        E 6 e0 00 20
        E 5 e0 00 20
        E 6 e0 00 20
        E 5 e0 00 20
        E 6 e0 00 20
        E 5 e0 55 2a
        E 6 e0 55 2a
        E 6 e0 00 20
        E 5 e0 55 2a
        E 6 e0 00 20
        E 5 e0 00 20
        E 0 90 3e 00
        E 1748 e0 55 2a
        E 0 90 4a 27
        E 6 e0 55 2a
        E 5 e0 55 2a
        E 6 e0 00 20
        E 5 e0 00 20
        E 6 e0 55 2a
        E 5 e0 55 2a
        E 6 e0 55 2a
        E 5 e0 55 2a
        E 6 e0 55 2a
        E 5 e0 55 2a
        E 6 e0 55 2a
        E 5 e0 55 2a
        E 6 e0 55 2a
        E 5 e0 00 20
        E 0 90 4a 00
        E 72 e0 00 20
        E 0 90 4a 18
        E 5 e0 00 20
        E 6 e0 00 20
        E 5 e0 55 2a
        E 6 e0 55 2a
        E 5 e0 55 2a
        E 5 e0 55 2a
        E 6 e0 55 2a
        E 5 e0 55 2a
        E 6 e0 55 2a
        E 5 e0 55 2a
        E 6 e0 55 2a
        E 5 e0 55 2a
        E 6 e0 55 2a
        E 5 e0 00 20
        E 0 90 4a 00
        E 133 e0 00 60
        E 0 90 4e 21
        E 6 e0 00 20
        E 5 e0 00 20
        E 5 e0 00 20
        E 6 e0 00 20
        E 5 e0 00 20
        E 6 e0 00 20
        E 5 e0 55 2a
        E 6 e0 55 2a
        E 5 e0 55 2a
        E 6 e0 55 2a
        E 5 e0 55 2a
        E 6 e0 55 2a
        E 5 e0 00 20
        E 6 e0 00 20
        E 0 90 4e 00
        E 230 e0 55 2a
        E 0 90 4a 17
        E 5 e0 55 2a
        E 6 e0 00 20
        E 5 e0 00 20
        E 6 e0 55 2a
        E 5 e0 55 2a
        E 6 e0 55 2a
        E 5 e0 55 2a
        E 6 e0 55 2a
        E 5 e0 55 2a
        E 6 e0 55 2a
        E 5 e0 55 2a
        E 6 e0 55 2a
        E 5 e0 55 2a
        E 0 90 4a 00
        E 0 90 4a 13
        E 5 e0 00 20
        E 5 e0 00 20
        E 6 e0 00 20
        E 5 e0 00 20
        E 5 e0 55 2a
        E 5 e0 55 2a
        E 5 e0 55 2a
        E 5 e0 55 2a
        E 5 e0 55 2a
        E 6 e0 55 2a
        E 5 e0 55 2a
        E 5 e0 55 2a
        E 5 e0 55 2a
        E 0 90 4a 00
        E 0 90 4a 23
        E 77 90 42 15
        E 5 90 4a 00
        E 61 e0 55 6a
        E 0 90 42 00
        E 0 90 42 1b
        E 6 e0 55 6a
        E 5 e0 55 6a
        E 6 e0 55 6a
        E 5 e0 55 6a
        E 5 e0 55 6a
        E 6 e0 55 6a
        E 5 e0 00 20
        E 6 e0 55 2a
        E 5 e0 55 2a
        E 6 e0 55 2a
        E 5 e0 00 60
        E 6 e0 00 60
        E 5 e0 00 60
        E 6 e0 55 6a
        E 0 90 42 00
        E 0 90 42 1d
        E 5 e0 55 6a
        E 6 e0 55 6a
        E 5 e0 55 6a
        E 6 e0 55 6a
        E 5 e0 00 20
        E 6 e0 00 20
        E 5 e0 00 20
        E 6 e0 00 20
        E 5 e0 00 20
        E 5 e0 00 60
        E 6 e0 00 60
        E 5 e0 00 20
        E 6 e0 00 20
        E 5 e0 55 6a
        E 0 90 42 00
        E 1672 90 3e 13
        E 0 90 51 1d
        E 66 90 42 1a
        E 5 90 3e 00
        E 6 90 51 00
        E 61 90 3e 15
        E 5 90 42 00
        E 51 90 42 18
        E 5 90 3e 00
        E 0 90 3e 18
        E 61 90 42 00
        E 0 90 42 21
        E 11 90 3e 00
        E 71 90 42 00
        E 317 e0 55 2a
        E 0 90 4e 1c
        E 6 e0 55 2a
        E 6 e0 55 2a
        E 5 e0 55 2a
        E 6 e0 55 2a
        E 5 e0 55 2a
        E 6 e0 55 2a
        E 5 e0 55 2a
        E 6 e0 2b 35
        E 6 e0 2b 35
        E 5 e0 55 2a
        E 6 e0 55 2a
        E 0 90 4e 00
        E 3312 e0 00 20
        E 0 90 51 21
        E 5 e0 00 20
        E 5 e0 00 20
        E 5 e0 55 2a
        E 5 e0 55 2a
        E 5 e0 55 2a
        E 6 e0 55 2a
        E 5 e0 55 2a
        E 5 e0 55 2a
        E 5 e0 55 2a
        E 5 e0 55 2a
        E 5 e0 55 2a
        E 5 e0 55 2a
        E 6 e0 00 20
        E 5 e0 00 20
        E 5 e0 00 20
        E 0 90 51 00
        E 4165 90 4e 1a
        E 6 90 4a 18
        E 76 90 4a 00
        E 0 90 4e 00
        E 134 e0 55 2a
        E 0 90 4a 1d
        E 5 e0 00 20
        E 6 e0 00 20
        E 5 e0 00 20
        E 6 e0 00 20
        E 5 e0 00 20
        E 5 e0 55 2a
        E 6 e0 55 2a
        E 5 e0 55 2a
        E 6 e0 55 2a
        E 5 e0 55 2a
        E 6 e0 55 2a
        E 5 e0 55 2a
        E 6 e0 55 2a
        E 5 e0 00 20
        E 0 90 4a 00
        E 56 90 4e 1a
        E 11 90 4a 1d
        E 66 90 4e 00
        E 5 90 4a 00
        E 307 90 42 1b
        E 5 90 4a 19
        E 66 90 4a 00
        E 10 90 42 00
        E 57 90 42 1f
        E 5 90 4a 1e
        E 71 90 4a 00
        E 5 90 42 00
        E 67 e0 00 20
        E 0 90 42 19
        E 5 e0 00 20
        E 5 e0 00 20
        E 5 e0 00 20
        E 5 e0 00 20
        E 5 e0 00 20
        E 6 e0 00 20
        E 5 e0 55 2a
        E 5 e0 55 2a
        E 5 e0 00 60
        E 5 e0 00 60
        E 5 e0 00 60
        E 6 e0 55 2a
        E 5 e0 00 20
        E 5 e0 00 20
        E 0 90 42 00
        E 1733 e0 55 2a
        E 0 90 51 24
        E 5 e0 00 20
        E 6 e0 00 20
        E 5 e0 00 20
        E 6 e0 00 20
        E 5 e0 00 20
        E 6 e0 00 60
        E 5 e0 2b 55
        E 5 e0 2b 55
        E 6 e0 2b 55
        E 5 e0 00 60
        E 6 e0 55 6a
        E 5 e0 55 6a
        E 6 e0 2b 15
        E 5 e0 2b 15
        E 0 90 51 00
        E 36 e0 55 2a
        E 0 90 42 14
        E 6 e0 55 2a
        E 5 e0 55 2a
        E 6 e0 55 2a
        E 5 e0 55 2a
        E 6 e0 55 2a
        E 5 e0 55 2a
        E 6 e0 55 2a
        E 5 e0 55 2a
        E 6 e0 55 2a
        E 5 e0 55 2a
        E 6 e0 55 2a
        E 5 e0 00 60
        E 0 90 42 00
        E 0 90 42 13
        E 6 e0 00 60
        E 5 e0 00 60
        E 6 e0 00 60
        E 5 e0 00 60
        E 6 e0 00 60
        E 5 e0 55 2a
        E 6 e0 55 2a
        E 5 e0 55 2a
        E 6 e0 55 2a
        E 5 e0 55 2a
        E 6 e0 55 2a
        E 5 e0 55 2a
        E 6 e0 00 20
        E 5 e0 55 6a
        E 0 90 42 00
        E 434 e0 55 2a
        E 0 90 4e 21
        E 6 e0 55 2a
        E 5 e0 55 2a
        E 6 e0 55 2a
        E 6 e0 2b 35
        E 5 e0 2b 35
        E 6 e0 55 2a
        E 5 e0 55 2a
        E 6 e0 55 2a
        E 5 e0 55 2a
        E 6 e0 00 20
        E 6 e0 00 20
        E 0 90 4e 00
        E 25 e0 55 2a
        E 0 90 3e 1d
        E 5 e0 55 2a
        E 5 e0 55 2a
        E 6 e0 55 2a
        E 5 e0 55 2a
        E 5 e0 55 2a
        E 5 e0 55 2a
        E 5 e0 55 2a
        E 5 e0 55 2a
        E 5 e0 55 2a
        E 6 e0 55 2a
        E 5 e0 55 2a
        E 5 e0 55 2a
        E 5 e0 55 2a
        E 5 e0 00 20
        E 5 e0 00 20
        E 0 90 3e 00
        E 2464 e0 55 2a
        E 0 90 51 1a
        E 5 e0 00 20
        E 6 e0 55 2a
        E 5 e0 55 2a
        E 6 e0 55 2a
        E 6 e0 55 2a
        E 5 e0 55 2a
        E 6 e0 2b 35
        E 5 e0 55 2a
        E 6 e0 00 20
        E 5 e0 00 20
        E 6 e0 00 20
        E 0 90 51 00
        E 1043 e0 00 40
        E 0 90 4c 25
        E 6 e0 55 2a
        E 5 e0 00 20
        E 6 e0 00 20
        E 6 e0 00 20
        E 5 e0 00 20
        E 6 e0 55 2a
        E 5 e0 55 2a
        E 6 e0 55 2a
        E 5 e0 55 2a
        E 6 e0 55 2a
        E 6 e0 55 2a
        E 0 90 4c 00
        E 4825 e0 00 20
        E 0 90 4e 1c
        E 5 e0 00 20
        E 5 e0 00 20
        E 6 e0 00 20
        E 5 e0 00 20
        E 5 e0 00 20
        E 6 e0 55 2a
        E 5 e0 55 2a
        E 5 e0 55 2a
        E 6 e0 55 2a
        E 5 e0 55 2a
        E 5 e0 00 20
        E 6 e0 00 20
        E 5 e0 00 20
        E 5 e0 00 20
        E 6 e0 00 20
        E 5 e0 00 20
        E 6 e0 00 20
        E 5 e0 00 20
        E 5 e0 55 2a
        E 6 e0 00 20
        E 5 e0 00 20
        E 5 e0 00 20
        E 0 90 4e 00
        E 874 e0 00 20
        E 0 90 4f 15
        E 6 e0 00 20
        E 5 e0 00 20
        E 6 e0 00 20
        E 6 e0 55 2a
        E 5 e0 55 2a
        E 6 e0 55 2a
        E 5 e0 55 2a
        E 6 e0 55 2a
        E 5 e0 55 2a
        E 6 e0 55 2a
        E 6 e0 00 20
        E 0 90 4f 00
        E 1482 e0 00 20
        E 0 90 4e 19
        E 6 e0 00 20
        E 5 e0 00 20
        E 5 e0 00 20
        E 6 e0 55 2a
        E 5 e0 55 2a
        E 5 e0 55 2a
        E 6 e0 55 2a
        E 5 e0 55 2a
        E 5 e0 55 2a
        E 6 e0 55 2a
        E 5 e0 55 2a
        E 5 e0 00 20
        E 6 e0 00 20
        E 5 e0 00 20
        E 5 e0 00 20
        E 6 e0 00 20
        E 5 e0 55 2a
        E 5 e0 55 2a
        E 6 e0 55 2a
        E 5 e0 55 2a
        E 5 e0 55 2a
        E 6 e0 00 20
        E 0 90 4e 00
        E 419 e0 55 2a
        E 0 90 52 27
        E 6 e0 2b 75
        E 5 e0 55 6a
        E 6 e0 55 2a
        E 5 e0 55 2a
        E 6 e0 55 2a
        E 5 e0 55 2a
        E 6 e0 55 2a
        E 5 e0 55 2a
        E 6 e0 55 2a
        E 5 e0 55 2a
        E 6 e0 00 20
        E 6 e0 00 20
        E 0 90 52 00
        E 393 e0 2b 55
        E 0 90 43 1c
        E 5 e0 00 60
        E 6 e0 00 60
        E 5 e0 00 60
        E 6 e0 00 60
        E 6 e0 00 60
        E 5 e0 00 60
        E 6 e0 00 60
        E 5 e0 00 60
        E 6 e0 2b 55
        E 5 e0 55 2a
        E 6 e0 00 60
        E 5 e0 00 60
        E 0 90 43 00
        E 7739 e0 00 20
        E 0 90 51 16
        E 6 e0 55 6a
        E 5 e0 00 20
        E 6 e0 55 2a
        E 5 e0 55 2a
        E 5 e0 55 2a
        E 6 e0 2b 35
        E 5 e0 2b 35
        E 5 e0 2b 35
        E 6 e0 55 2a
        E 5 e0 00 20
        E 5 e0 00 20
        E 6 e0 00 20
        E 5 e0 00 20
        E 6 e0 00 20
        E 5 e0 55 6a
        E 5 e0 00 60
        E 6 e0 00 60
        E 5 e0 00 60
        E 5 e0 00 60
        E 6 e0 55 6a
        E 0 90 51 00
        E 583 e0 55 2a
        E 0 90 4e 2d
        E 5 e0 00 20
        E 6 e0 00 20
        E 5 e0 00 20
        E 6 e0 00 20
        E 6 e0 00 20
        E 5 e0 00 20
        E 6 e0 00 20
        E 5 e0 55 6a
        E 6 e0 55 6a
        E 5 e0 55 6a
        E 6 e0 55 6a
        E 0 90 4e 00
        E 976 e0 55 2a
        E 0 90 4c 26
        E 6 e0 55 2a
        E 5 e0 55 2a
        E 6 e0 55 2a
        E 5 e0 55 2a
        E 6 e0 55 2a
        E 5 e0 55 2a
        E 6 e0 55 2a
        E 6 e0 55 2a
        E 5 e0 55 2a
        E 6 e0 55 2a
        E 5 e0 00 20
        E 6 e0 00 20
        E 0 90 4c 00
        E 138 e0 55 6a
        E 0 90 4f 2a
        E 5 e0 2b 75
        E 6 e0 55 6a
        E 5 e0 55 6a
        E 6 e0 55 6a
        E 5 e0 55 6a
        E 6 e0 55 6a
        E 5 e0 55 6a
        E 6 e0 55 6a
        E 5 e0 00 60
        E 6 e0 55 6a
        E 5 e0 2b 75
        E 6 e0 2b 75
        E 0 90 4f 00
        E 31 e0 55 6a
        E 0 90 51 1a
        E 5 e0 55 6a
        E 5 e0 55 6a
        E 5 e0 55 6a
        E 5 e0 55 6a
        E 5 e0 55 6a
        E 6 e0 55 6a
        E 5 e0 55 2a
        E 5 e0 55 2a
        E 5 e0 55 2a
        E 5 e0 55 2a
        E 5 e0 55 2a
        E 0 90 51 00
        E 450 e0 00 20
        E 0 90 51 0d
        E 5 e0 00 20
        E 6 e0 00 20
        E 6 e0 00 20
        E 5 e0 00 20
        E 6 e0 55 2a
        E 5 e0 55 2a
        E 6 e0 00 20
        E 6 e0 00 20
        E 5 e0 55 2a
        E 6 e0 00 20
        E 5 e0 55 6a
        E 0 90 51 00
        E 711 e0 2b 15
        E 0 90 52 1b
        E 5 e0 2b 75
        E 6 e0 00 20
        E 6 e0 55 2a
        E 5 e0 00 20
        E 6 e0 00 20
        E 5 e0 55 2a
        E 6 e0 55 2a
        E 5 e0 55 2a
        E 6 e0 55 2a
        E 6 e0 55 2a
        E 5 e0 00 20
        E 0 90 52 00
        E 388 e0 2b 55
        E 0 90 43 12
        E 6 e0 2b 55
        E 5 e0 2b 55
        E 5 e0 00 60
        E 5 e0 00 60
        E 5 e0 00 60
        E 5 e0 00 60
        E 6 e0 00 60
        E 5 e0 2b 55
        E 5 e0 2b 55
        E 5 e0 2b 55
        E 5 e0 00 60
        E 0 90 43 00
        E 3619 e0 00 20
        E 0 90 4a 24
        E 6 e0 00 20
        E 5 e0 00 20
        E 6 e0 00 20
        E 5 e0 00 60
        E 6 e0 00 60
        E 5 e0 00 60
        E 6 e0 00 60
        E 5 e0 00 60
        E 6 e0 00 60
        E 5 e0 00 60
        E 6 e0 55 0a
        E 6 e0 55 0a
        E 0 90 4a 00
        E 1109 e0 55 4a
        E 0 90 4d 2f
        E 5 e0 00 60
        E 6 e0 2b 75
        E 5 e0 2b 75
        E 6 e0 2b 75
        E 6 e0 55 6a
        E 5 e0 55 6a
        E 6 e0 55 6a
        E 5 e0 55 6a
        E 6 e0 55 6a
        E 5 e0 55 6a
        E 6 e0 55 6a
        E 0 90 4d 00
        E 342 e0 00 20
        E 0 90 51 1f
        E 5 e0 00 20
        E 6 e0 00 20
        E 5 e0 55 2a
        E 5 e0 55 2a
        E 5 e0 55 2a
        E 5 e0 55 2a
        E 5 e0 55 6a
        E 5 e0 00 60
        E 6 e0 55 2a
        E 5 e0 00 20
        E 5 e0 00 20
        E 0 90 51 00
        E 1232 e0 55 0a
        E 0 90 4d 22
        E 5 e0 2b 75
        E 6 e0 55 6a
        E 5 e0 55 6a
        E 6 e0 55 6a
        E 5 e0 00 60
        E 6 e0 00 60
        E 5 e0 00 60
        E 6 e0 00 60
        E 5 e0 00 60
        E 6 e0 00 60
        E 6 e0 55 6a
        E 5 e0 55 6a
        E 0 90 4d 00
        E 3952 e0 00 20
        E 0 90 4a 26
        E 5 e0 00 20
        E 6 e0 00 20
        E 5 e0 00 20
        E 6 e0 00 60
        E 5 e0 00 60
        E 6 e0 00 60
        E 5 e0 00 60
        E 6 e0 00 60
        E 5 e0 00 60
        E 6 e0 00 60
        E 6 e0 55 0a
        E 5 e0 55 6a
        E 0 90 4a 00
        E 41 e0 00 20
        E 0 90 4d 26
        E 6 e0 00 20
        E 5 e0 00 20
        E 6 e0 00 20
        E 5 e0 00 20
        E 6 e0 00 20
        E 5 e0 00 20
        E 6 e0 00 20
        E 6 e0 00 20
        E 5 e0 00 20
        E 6 e0 55 6a
        E 5 e0 55 6a
        E 0 90 4d 00
        E 7289 e0 00 20
        E 0 90 4d 18
        E 6 e0 00 20
        E 5 e0 00 20
        E 6 e0 55 2a
        E 5 e0 55 2a
        E 6 e0 00 20
        E 5 e0 00 60
        E 6 e0 00 60
        E 5 e0 00 60
        E 6 e0 00 60
        E 5 e0 00 60
        E 6 e0 55 6a
        E 5 e0 55 6a
        E 5 e0 55 6a
        E 6 e0 2b 75
        E 0 90 4d 00
        E 6318 e0 00 20
        E 0 90 4d 14
        E 5 e0 00 20
        E 6 e0 00 20
        E 5 e0 55 2a
        E 6 e0 55 2a
        E 5 e0 55 2a
        E 6 e0 55 2a
        E 5 e0 00 60
        E 5 e0 55 6a
        E 6 e0 00 60
        E 5 e0 00 60
        E 6 e0 00 60
        E 5 e0 00 60
        E 6 e0 00 60
        E 5 e0 00 60
        E 6 e0 55 6a
        E 0 90 4d 00
        E 1840 e0 55 6a
        E 0 90 53 11
        E 6 e0 55 6a
        E 5 e0 55 6a
        E 6 e0 55 6a
        E 6 e0 55 6a
        E 5 e0 55 6a
        E 6 e0 55 2a
        E 5 e0 55 2a
        E 6 e0 55 2a
        E 5 e0 55 2a
        E 6 e0 55 2a
        E 6 e0 55 2a
        E 0 90 53 00
        E 1692 e0 00 20
        E 0 90 4b 25
        E 5 e0 00 20
        E 6 e0 00 20
        E 5 e0 00 20
        E 6 e0 00 20
        E 5 e0 00 60
        E 6 e0 00 60
        E 5 e0 00 60
        E 6 e0 00 60
        E 5 e0 00 60
        E 6 e0 00 60
        E 6 e0 2b 15
        E 5 e0 2b 15
        E 0 90 4b 00
        E 39027 e0 00 20
        E 0 90 4e 18
        E 6 e0 00 20
        E 6 e0 00 20
        E 5 e0 00 20
        E 6 e0 55 2a
        E 5 e0 55 2a
        E 6 e0 00 20
        E 5 e0 55 2a
        E 6 e0 55 2a
        E 6 e0 55 2a
        E 5 e0 00 20
        E 6 e0 00 20
        E 0 90 4e 00
        E 23785 e0 00 20
        E 0 90 53 18
        E 5 e0 00 20
        E 6 e0 00 20
        E 5 e0 00 20
        E 6 e0 55 2a
        E 5 e0 55 2a
        E 6 e0 55 2a
        E 5 e0 55 2a
        E 6 e0 55 2a
        E 5 e0 55 2a
        E 6 e0 55 2a
        E 5 e0 00 20
        E 6 e0 55 0a
        E 5 e0 55 0a
        E 0 90 53 00
        E 6681 e0 55 2a
        E 0 90 3e 13
        E 6 e0 00 20
        E 5 e0 00 20
        E 6 e0 55 2a
        E 5 e0 55 2a
        E 6 e0 55 2a
        E 5 e0 55 2a
        E 6 e0 55 2a
        E 6 e0 55 2a
        E 5 e0 55 2a
        E 6 e0 55 2a
        E 5 e0 00 20
        E 0 90 3e 00
        E 3114 e0 2b 55
        E 0 90 3e 17
        E 5 e0 00 20
        E 6 e0 00 20
        E 5 e0 00 20
        E 6 e0 00 20
        E 5 e0 55 2a
        E 6 e0 55 2a
        E 6 e0 55 2a
        E 5 e0 55 2a
        E 6 e0 55 2a
        E 5 e0 55 2a
        E 6 e0 55 2a
        E 0 90 3e 00
        E 767 e0 00 20
        E 0 90 4e 0d
        E 5 e0 00 20
        E 6 e0 55 2a
        E 5 e0 55 2a
        E 6 e0 55 2a
        E 5 e0 55 2a
        E 6 e0 55 2a
        E 5 e0 55 2a
        E 6 e0 55 2a
        E 6 e0 55 2a
        E 5 e0 55 2a
        E 6 e0 55 2a
        E 5 e0 55 2a
        E 0 90 4e 00
        E 2229 90 53 15
        E 31 90 51 22
        E 30 90 53 00
        E 36 90 51 00
        E 1360 e0 00 60
        E 0 90 50 19
        E 5 e0 55 6a
        E 6 e0 55 6a
        E 5 e0 00 60
        E 6 e0 00 60
        E 5 e0 00 60
        E 6 e0 00 60
        E 5 e0 55 6a
        E 6 e0 55 6a
        E 5 e0 55 6a
        E 6 e0 55 6a
        E 5 e0 55 6a
        E 6 e0 55 6a
        E 0 90 50 00
        E 2535 e0 55 2a
        E 0 90 4c 0e
        E 6 e0 55 2a
        E 6 e0 55 2a
        E 5 e0 55 2a
        E 6 e0 55 2a
        E 5 e0 55 2a
        E 6 e0 55 2a
        E 5 e0 2b 35
        E 6 e0 2b 35
        E 5 e0 2b 35
        E 6 e0 2b 35
        E 5 e0 55 2a
        E 6 e0 55 2a
        E 0 90 4c 00
        E 1027 e0 55 2a
        E 0 90 48 17
        E 6 e0 00 20
        E 5 e0 00 20
        E 6 e0 55 2a
        E 5 e0 55 2a
        E 6 e0 55 2a
        E 5 e0 55 2a
        E 6 e0 55 2a
        E 5 e0 2b 35
        E 6 e0 2b 35
        E 5 e0 2b 35
        E 6 e0 2b 35
        E 5 e0 55 2a
        E 6 e0 55 2a
        E 0 90 48 00
        E 557 e0 55 2a
        E 0 90 45 15
        E 6 e0 55 2a
        E 5 e0 55 2a
        E 6 e0 55 2a
        E 5 e0 55 2a
        E 6 e0 55 2a
        E 6 e0 55 2a
        E 5 e0 55 2a
        E 6 e0 55 2a
        E 5 e0 55 2a
        E 6 e0 55 2a
        E 5 e0 55 2a
        E 0 90 45 00
        E 51 e0 55 2a
        E 0 90 45 19
        E 6 e0 00 20
        E 5 e0 00 20
        E 6 e0 55 2a
        E 5 e0 55 2a
        E 6 e0 55 2a
        E 5 e0 55 2a
        E 6 e0 55 2a
        E 5 e0 55 2a
        E 6 e0 55 2a
        E 5 e0 55 2a
        E 6 e0 55 2a
        E 5 e0 55 2a
        E 6 e0 00 20
        E 0 90 45 00
        E 695 e0 00 20
        E 0 90 4f 13
        E 6 e0 00 20
        E 5 e0 55 2a
        E 5 e0 55 2a
        E 6 e0 55 2a
        E 5 e0 55 2a
        E 5 e0 55 2a
        E 6 e0 55 2a
        E 5 e0 55 2a
        E 5 e0 55 2a
        E 6 e0 55 2a
        E 5 e0 55 2a
        E 6 e0 55 2a
        E 5 e0 55 2a
        E 5 e0 55 2a
        E 6 e0 55 2a
        E 5 e0 55 2a
        E 5 e0 55 2a
        E 6 e0 55 2a
        E 5 e0 55 2a
        E 5 e0 55 2a
        E 6 e0 55 2a
        E 0 90 4f 00
        E 71 e0 55 2a
        E 0 90 4f 16
        E 6 e0 55 2a
        E 5 e0 55 2a
        E 6 e0 55 2a
        E 5 e0 55 2a
        E 6 e0 55 2a
        E 5 e0 55 2a
        E 6 e0 55 2a
        E 5 e0 2b 35
        E 6 e0 2b 35
        E 6 e0 2b 35
        E 5 e0 55 2a
        E 6 e0 55 2a
        E 0 90 4f 00
        E 10448 e0 55 2a
        E 0 90 51 16
        E 5 e0 55 2a
        E 6 e0 55 2a
        E 5 e0 55 2a
        E 6 e0 55 2a
        E 5 e0 55 2a
        E 6 e0 55 2a
        E 5 e0 55 2a
        E 6 e0 55 6a
        E 5 e0 55 2a
        E 6 e0 55 2a
        E 5 e0 55 2a
        E 6 e0 55 2a
        E 5 e0 55 2a
        E 0 90 51 00
        E 394 e0 55 6a
        E 0 90 51 16
        E 6 e0 55 6a
        E 6 e0 55 6a
        E 5 e0 55 6a
        E 6 e0 00 60
        E 5 e0 00 60
        E 6 e0 00 60
        E 5 e0 00 60
        E 6 e0 00 60
        E 6 e0 00 60
        E 5 e0 55 6a
        E 6 e0 55 6a
        E 0 90 51 00
        E 199 e0 55 6a
        E 0 90 51 11
        E 5 e0 55 6a
        E 6 e0 55 6a
        E 5 e0 55 6a
        E 6 e0 00 60
        E 6 e0 00 60
        E 5 e0 00 60
        E 6 e0 55 6a
        E 5 e0 55 6a
        E 6 e0 55 6a
        E 5 e0 55 6a
        E 6 e0 55 6a
        E 5 e0 55 6a
        E 0 90 51 00
        E 1682 e0 55 2a
        E 0 90 51 26
        E 6 e0 00 20
        E 5 e0 00 20
        E 5 e0 00 20
        E 6 e0 00 20
        E 5 e0 55 2a
        E 6 e0 00 60
        E 5 e0 00 60
        E 6 e0 00 60
        E 5 e0 00 60
        E 6 e0 00 60
        E 5 e0 00 60
        E 5 e0 00 60
        E 6 e0 55 6a
        E 5 e0 55 6a
        E 6 e0 55 6a
        E 0 90 51 00
        E 670 e0 55 2a
        E 0 90 4e 22
        E 5 e0 00 20
        E 6 e0 00 20
        E 5 e0 00 20
        E 6 e0 00 20
        E 5 e0 55 2a
        E 6 e0 55 2a
        E 5 e0 55 2a
        E 6 e0 55 2a
        E 5 e0 55 2a
        E 6 e0 55 2a
        E 5 e0 55 2a
        E 6 e0 00 20
        E 5 e0 00 20
        E 0 90 4e 00
        E 3650 e0 55 2a
        E 0 90 4a 2e
        E 5 e0 00 20
        E 6 e0 00 20
        E 5 e0 00 20
        E 6 e0 00 20
        E 6 e0 00 20
        E 5 e0 55 2a
        E 6 e0 55 2a
        E 5 e0 55 2a
        E 6 e0 55 2a
        E 5 e0 00 20
        E 6 e0 00 20
        E 0 90 4a 00
        E 133 e0 55 2a
        E 0 90 4c 17
        E 6 e0 55 2a
        E 6 e0 55 2a
        E 5 e0 55 2a
        E 6 e0 55 2a
        E 5 e0 55 2a
        E 6 e0 55 2a
        E 5 e0 55 2a
        E 6 e0 55 2a
        E 6 e0 55 2a
        E 5 e0 55 2a
        E 6 e0 00 20
        E 0 90 4c 00
        E 638 e0 00 20
        E 0 90 53 13
        E 6 e0 00 20
        E 5 e0 00 20
        E 6 e0 00 20
        E 5 e0 00 20
        E 6 e0 00 20
        E 6 e0 55 2a
        E 5 e0 55 2a
        E 6 e0 2b 35
        E 5 e0 2b 35
        E 6 e0 2b 35
        E 5 e0 00 60
        E 6 e0 00 60
        E 0 90 53 00
        E 562 e0 00 60
        E 0 90 4c 0c
        E 6 e0 00 60
        E 5 e0 00 60
        E 6 e0 55 2a
        E 5 e0 55 2a
        E 6 e0 55 2a
        E 6 e0 55 2a
        E 5 e0 2b 35
        E 6 e0 2b 35
        E 5 e0 2b 35
        E 6 e0 55 2a
        E 5 e0 55 2a
        E 0 90 4c 00
        E 54 b0 7b 00
        CCINTERP 32
        CHASE_CC_TAKEOFFS 1
        GUID {ED453611-FB5B-4F43-B63B-90EF3B4CE65E}
        IGNTEMPO 0 120 4 4
        SRCCOLOR 120
        VELLANE -1 100 0
      >
    >
  >
  <UINF 116
    <ITEM {187F738F-BABF-4B16-BEA8-907428C2E52F}
      POSITION 0
      SNAPOFFS 0
      LENGTH 165.5
      LOOP 1
      ALLTAKES 0
      FADEIN 1 0 0 1 0 0 0
      FADEOUT 1 0 0 1 0 0 0
      MUTE 0 0
      SEL 1
      IGUID {187F738F-BABF-4B16-BEA8-907428C2E52F}
      IID 133
      NAME MIDI-Unprocessed_Recital1-3_MID--AUDIO_03_R1_2018_wav--5_basic_pitch.mid
      VOLPAN 1 0 1 -1
      SOFFS 0 0
      PLAYRATE 1 1 0 -1 0 0.0025
      CHANMODE 0
      GUID {FF3198CB-F13B-4E2C-9922-E3087F636E7A}
      <SOURCE MIDI
        HASDATA 1 220 QN
        CCINTERP 32
        POOLEDEVTS {49BD1A88-06B4-42FD-8963-298097197B24}
        E 0 c0 04 00
        E 358 90 28 44
        E 92 90 2f 42
        E 66 90 37 48
        E 56 90 42 21
        E 15 90 37 00
        E 0 90 37 51
        E 46 90 42 00
        E 21 90 34 2b
        E 31 90 2f 00
        E 40 90 34 00
        E 51 90 33 35
        E 0 90 3f 25
        E 31 90 37 00
        E 0 90 37 54
        E 46 90 3f 00
        E 21 90 32 39
        E 0 90 33 00
        E 0 90 3e 27
        E 10 90 37 00
        E 0 90 37 39
        E 31 90 34 2a
        E 36 90 3e 00
        E 0 90 3e 2a
        E 20 90 28 00
        E 26 90 31 35
        E 0 90 32 00
        E 10 90 37 00
        E 20 90 34 00
        E 0 90 34 36
        E 57 90 3e 00
        E 25 90 30 34
        E 0 90 31 00
        E 15 90 34 00
        E 62 90 30 00
        E 0 90 31 34
        E 30 90 2f 33
        E 16 90 34 29
        E 56 90 2f 00
        E 5 90 2e 31
        E 0 90 30 35
        E 0 90 31 00
        E 36 90 34 00
        E 61 90 2e 00
        E 0 90 2f 4e
        E 0 90 30 00
        E 10 90 34 2b
        E 5 90 28 36
        E 67 90 2f 00
        E 0 90 2f 3b
        E 61 90 34 00
        E 56 90 37 51
        E 31 90 2f 00
        E 5 90 34 33
        E 46 90 37 00
        E 0 90 37 53
        E 77 90 37 00
        E 0 90 37 3e
        E 31 90 34 00
        E 10 90 28 00
        E 15 90 33 3e
        E 62 90 28 29
        E 46 90 33 00
        E 0 90 34 37
        E 20 90 28 00
        E 26 90 31 30
        E 107 90 30 3a
        E 0 90 31 00
        E 46 90 37 00
        E 41 90 34 00
        E 66 e0 55 4a
        E 0 90 30 00
        E 0 90 30 3b
        E 6 e0 55 4a
        E 5 e0 55 4a
        E 5 e0 55 4a
        E 6 e0 55 4a
        E 5 e0 55 4a
        E 6 e0 55 4a
        E 5 e0 55 4a
        E 5 e0 55 4a
        E 6 e0 55 4a
        E 5 e0 55 4a
        E 6 e0 55 4a
        E 5 e0 55 4a
        E 5 e0 55 4a
        E 6 e0 55 4a
        E 5 e0 55 4a
        E 6 e0 55 4a
        E 5 e0 55 2a
        E 0 90 2f 3b
        E 0 90 30 00
        E 51 90 34 2d
        E 5 90 28 2f
        E 21 90 40 3a
        E 10 90 43 3e
        E 77 90 37 3e
        E 25 90 43 00
        E 67 90 37 00
        E 0 90 37 44
        E 20 90 2f 00
        E 113 90 40 00
        E 20 90 33 39
        E 0 90 34 00
        E 11 90 28 00
        E 86 90 32 31
        E 0 90 33 00
        E 118 90 31 37
        E 0 90 32 00
        E 41 90 37 00
        E 66 90 37 28
        E 56 90 31 00
        E 0 90 31 34
        E 72 90 2f 2d
        E 25 90 37 00
        E 92 90 31 00
        E 5 90 2f 00
        E 0 90 2f 2f
        E 57 90 40 40
        E 10 90 28 33
        E 25 90 43 3d
        E 98 90 2f 00
        E 5 90 43 00
        E 5 90 36 31
        E 77 90 36 00
        E 0 90 37 41
        E 0 90 40 00
        E 0 90 40 2c
        E 87 90 40 00
        E 0 90 40 27
        E 46 90 33 2f
        E 30 90 37 00
        E 0 90 37 42
        E 62 90 40 00
        E 10 90 33 00
        E 46 90 37 00
        E 15 90 34 29
        E 21 90 28 00
        E 30 90 31 31
        E 36 90 34 00
        E 5 90 34 36
        E 113 90 31 00
        E 0 90 31 35
        E 66 90 34 00
        E 5 90 2f 33
        E 10 90 31 00
        E 67 90 2e 2d
        E 0 90 2f 00
        E 0 90 30 2f
        E 87 90 2e 00
        E 0 90 30 00
        E 5 90 30 2e
        E 0 90 40 3f
        E 0 90 4f 24
        E 10 90 28 38
        E 41 90 43 37
        E 10 90 4f 00
        E 6 90 30 00
        E 5 90 2f 2f
        E 35 90 37 42
        E 11 90 34 2a
        E 71 90 37 00
        E 0 90 37 44
        E 0 90 43 00
        E 46 90 2f 00
        E 0 90 34 00
        E 56 90 37 00
        E 0 90 37 49
        E 16 90 40 00
        E 10 90 31 2f
        E 77 90 37 00
        E 0 90 37 3a
        E 20 90 30 39
        E 0 90 31 00
        E 51 90 45 41
        E 10 90 30 00
        E 0 90 37 00
        E 36 90 2f 35
        E 10 90 28 00
        E 0 90 47 3b
        E 5 90 28 38
        E 5 90 45 00
        E 26 90 43 3c
        E 20 90 2f 00
        E 0 90 2f 38
        E 21 90 3b 2b
        E 15 90 37 43
        E 51 90 43 00
        E 31 90 3b 00
        E 10 90 37 00
        E 0 90 37 44
        E 56 90 34 34
        E 0 90 47 00
        E 21 90 2f 00
        E 46 90 2d 39
        E 0 90 34 00
        E 0 90 34 35
        E 0 90 42 2f
        E 25 90 28 00
        E 31 90 37 00
        E 5 90 42 00
        E 77 90 2d 00
        E 0 90 2d 3a
        E 5 90 34 00
        E 0 90 34 36
        E 0 90 3c 3d
        E 5 90 40 37
        E 21 90 43 42
        E 77 90 45 42
        E 5 90 34 00
        E 10 90 43 00
        E 5 90 42 3a
        E 25 90 3c 00
        E 0 90 3c 3e
        E 72 90 28 3b
        E 0 90 40 00
        E 15 90 45 00
        E 11 90 2d 00
        E 5 90 3c 00
        E 5 90 42 00
        E 0 90 43 4f
        E 0 90 47 3f
        E 30 90 28 00
        E 6 90 28 3f
        E 25 90 2f 2f
        E 5 90 43 00
        E 0 90 43 3c
        E 51 90 37 40
        E 46 90 43 00
        E 26 90 37 00
        E 0 90 37 41
        E 51 90 47 00
        E 10 90 2f 00
        E 46 90 37 00
        E 0 90 37 45
        E 61 90 33 36
        E 138 90 33 00
        E 11 90 34 27
        E 25 90 37 00
        E 36 90 28 00
        E 21 90 31 38
        E 51 90 34 00
        E 56 e0 55 6a
        E 0 90 30 2d
        E 0 90 31 00
        E 6 e0 55 4a
        E 5 e0 55 4a
        E 6 e0 55 4a
        E 5 e0 55 4a
        E 6 e0 55 4a
        E 5 e0 55 4a
        E 6 e0 55 4a
        E 5 e0 55 4a
        E 6 e0 55 6a
        E 5 e0 55 6a
        E 6 e0 55 6a
        E 5 e0 55 6a
        E 6 e0 55 6a
        E 0 90 30 00
        E 0 90 30 35
        E 5 e0 55 4a
        E 6 e0 55 4a
        E 5 e0 55 4a
        E 5 e0 55 4a
        E 6 e0 55 4a
        E 5 e0 55 4a
        E 6 e0 55 4a
        E 5 e0 55 6a
        E 6 e0 55 4a
        E 5 e0 55 4a
        E 6 e0 55 4a
        E 5 e0 55 4a
        E 6 e0 55 4a
        E 5 e0 55 4a
        E 0 90 30 00
        E 0 90 30 31
        E 46 90 2e 2d
        E 26 90 40 38
        E 5 90 34 2c
        E 31 90 2e 00
        E 0 90 2f 38
        E 0 90 30 00
        E 76 90 34 00
        E 21 90 2d 2b
        E 5 90 2f 00
        E 20 90 30 2c
        E 0 90 43 36
        E 0 90 48 28
        E 5 90 3c 37
        E 56 90 40 00
        E 11 90 30 00
        E 51 90 37 33
        E 15 90 43 00
        E 0 90 48 00
        E 72 90 37 00
        E 0 90 37 46
        E 51 90 2d 00
        E 20 90 3c 00
        E 0 90 3c 3e
        E 72 90 34 2d
        E 77 90 37 00
        E 0 90 37 43
        E 25 90 3c 00
        E 0 90 40 22
        E 21 90 3b 3a
        E 76 90 34 00
        E 0 90 40 00
        E 16 90 2f 2f
        E 15 90 37 00
        E 26 90 23 39
        E 5 90 3f 39
        E 20 90 3b 00
        E 21 90 39 45
        E 40 90 36 2b
        E 51 90 39 00
        E 0 90 39 45
        E 26 90 36 00
        E 10 90 37 40
        E 41 90 23 00
        E 5 90 39 00
        E 0 90 39 38
        E 26 90 36 39
        E 0 90 37 00
        E 30 90 2f 00
        E 0 90 3b 28
        E 52 90 39 00
        E 0 90 39 34
        E 40 90 3f 00
        E 51 90 3b 00
        E 6 90 36 00
        E 0 90 37 46
        E 61 90 39 00
        E 0 90 39 36
        E 41 90 36 43
        E 0 90 37 00
        E 10 90 40 47
        E 107 90 39 00
        E 42 90 40 00
        E 0 90 40 34
        E 5 90 36 00
        E 0 90 37 48
        E 5 90 28 3e
        E 61 90 34 2a
        E 164 90 37 00
        E 0 90 37 45
        E 25 90 40 00
        E 10 90 34 00
        E 87 90 3f 31
        E 10 90 33 38
        E 77 90 3f 00
        E 5 90 28 00
        E 5 90 3e 2e
        E 5 90 33 00
        E 6 90 32 2c
        E 30 90 34 26
        E 51 90 3e 00
        E 16 90 37 00
        E 10 90 34 00
        E 5 90 32 00
        E 25 90 40 2c
        E 21 90 31 31
        E 56 90 37 2a
        E 15 90 31 00
        E 6 90 31 37
        E 51 90 48 29
        E 15 90 31 00
        E 0 90 31 31
        E 41 90 37 00
        E 10 90 48 00
        E 0 90 48 26
        E 10 90 40 00
        E 47 90 31 00
        E 20 90 2f 3b
        E 0 90 48 00
        E 36 90 28 36
        E 97 90 2f 00
        E 0 90 2f 33
        E 36 90 36 2c
        E 76 90 34 2a
        E 31 90 2f 00
        E 26 90 36 00
        E 0 90 37 38
        E 10 90 34 00
        E 36 90 3f 36
        E 81 90 28 00
        E 21 90 32 2b
        E 0 90 37 00
        E 0 90 3e 32
        E 0 90 3f 00
        E 5 90 37 2f
        E 30 90 40 2c
        E 103 90 32 00
        E 0 90 3e 00
        E 10 90 40 00
        E 0 90 40 31
        E 31 90 37 00
        E 10 90 3d 38
        E 35 90 30 2e
        E 0 90 32 2c
        E 0 90 48 23
        E 26 90 3d 00
        E 31 90 40 00
        E 35 90 48 00
        E 31 90 32 00
        E 26 e0 55 4a
        E 0 90 30 00
        E 0 90 30 31
        E 6 e0 55 4a
        E 5 e0 55 4a
        E 6 e0 55 4a
        E 5 e0 55 4a
        E 6 e0 55 4a
        E 5 e0 55 4a
        E 6 e0 55 4a
        E 5 e0 55 4a
        E 6 e0 55 4a
        E 5 e0 55 4a
        E 6 e0 55 4a
        E 5 e0 55 4a
        E 6 e0 55 4a
        E 0 90 30 00
        E 10 90 2f 36
        E 92 90 40 3d
        E 0 90 43 3c
        E 20 90 28 2b
        E 46 90 43 00
        E 0 90 43 32
        E 87 90 2f 00
        E 61 90 37 42
        E 57 90 43 00
        E 0 90 43 31
        E 5 90 37 00
        E 0 90 37 3e
        E 15 90 28 00
        E 46 90 43 00
        E 10 90 40 00
        E 5 90 3f 3a
        E 11 90 33 2b
        E 81 90 33 00
        E 11 90 3e 37
        E 0 90 3f 00
        E 10 90 32 2e
        E 76 90 3e 00
        E 0 90 3e 36
        E 5 90 32 00
        E 0 90 32 34
        E 62 90 40 37
        E 36 90 32 00
        E 0 90 3e 00
        E 15 90 34 28
        E 20 90 30 38
        E 37 90 40 00
        E 15 90 37 00
        E 5 90 34 00
        E 10 90 3c 27
        E 10 90 30 00
        E 0 90 30 33
        E 57 90 3c 00
        E 20 90 30 00
        E 0 90 30 35
        E 31 90 2e 30
        E 41 90 30 00
        E 25 90 2e 00
        E 0 90 2f 33
        E 31 90 40 3f
        E 5 90 28 2f
        E 20 90 43 39
        E 57 90 2f 00
        E 0 90 2f 2d
        E 20 90 37 39
        E 36 90 28 00
        E 0 90 43 00
        E 25 90 37 00
        E 5 90 36 32
        E 92 90 34 2c
        E 26 90 2f 00
        E 41 90 36 00
        E 0 90 37 49
        E 25 90 34 00
        E 0 90 3f 3a
        E 0 90 40 00
        E 36 90 37 00
        E 5 90 37 40
        E 61 90 3e 36
        E 0 90 3f 00
        E 6 90 32 2e
        E 46 90 40 31
        E 86 90 37 00
        E 11 90 32 00
        E 5 90 40 00
        E 0 90 40 3b
        E 21 90 3e 00
        E 46 90 30 3c
        E 66 90 30 00
        E 0 90 30 31
        E 0 90 40 00
        E 0 90 40 2c
        E 92 90 40 00
        E 36 90 30 00
        E 20 90 3b 28
        E 5 90 2f 37
        E 67 90 3b 00
        E 15 90 28 37
        E 15 90 2f 00
        E 11 90 40 3a
        E 0 90 43 41
        E 61 90 43 00
        E 0 90 43 39
        E 41 90 2f 2f
        E 46 90 43 00
        E 25 90 36 36
        E 5 90 2f 00
        E 67 90 36 00
        E 0 90 37 3d
        E 87 90 31 34
        E 5 90 40 00
        E 107 90 31 00
        E 10 90 4a 29
        E 5 90 42 3c
        E 21 90 2f 31
        E 11 90 45 41
        E 25 90 42 00
        E 0 90 42 2d
        E 5 90 4a 00
        E 36 90 37 00
        E 0 90 37 26
        E 0 90 47 3c
        E 10 90 2f 00
        E 0 90 2f 30
        E 0 90 45 00
        E 10 90 42 00
        E 6 90 28 00
        E 0 90 28 3f
        E 15 90 43 39
        E 41 90 2f 00
        E 0 90 2f 30
        E 15 90 37 00
        E 0 90 37 45
        E 41 90 43 00
        E 36 90 37 00
        E 0 90 37 43
        E 51 90 47 00
        E 41 90 2f 00
        E 46 90 28 00
        E 5 90 26 2d
        E 0 90 32 2e
        E 10 90 37 00
        E 0 90 42 2d
        E 0 90 45 2e
        E 66 90 32 00
        E 72 90 26 00
        E 0 90 42 00
        E 10 90 40 46
        E 21 90 3c 35
        E 15 90 43 40
        E 71 90 45 00
        E 0 90 45 2e
        E 5 90 40 00
        E 0 90 40 38
        E 11 90 26 33
        E 0 90 42 3c
        E 0 90 43 00
        E 10 90 3c 00
        E 56 90 37 2f
        E 21 90 26 00
        E 10 90 45 00
        E 10 90 42 00
        E 10 90 2b 41
        E 21 90 40 00
        E 5 90 37 00
        E 0 90 47 2d
        E 5 90 37 36
        E 205 90 37 00
        E 5 90 3b 36
        E 87 90 3b 00
        E 0 90 3b 37
        E 25 90 37 2b
        E 16 90 2b 00
        E 15 90 42 26
        E 36 90 3b 00
        E 0 90 3b 35
        E 25 90 36 30
        E 0 90 37 00
        E 10 90 47 00
        E 11 90 42 00
        E 25 90 3b 00
        E 46 90 36 00
        E 15 90 35 2d
        E 0 90 37 42
        E 128 90 35 00
        E 0 90 35 28
        E 31 90 33 2b
        E 46 90 35 00
        E 112 90 3f 27
        E 5 90 33 00
        E 0 90 33 36
        E 0 90 37 00
        E 67 90 32 3a
        E 0 90 33 00
        E 0 90 45 3d
        E 56 90 3f 00
        E 62 90 45 00
        E 10 90 32 00
        E 15 90 2d 34
        E 0 90 48 41
        E 11 90 40 32
        E 35 90 3c 43
        E 82 90 48 00
        E 0 90 48 38
        E 31 90 40 00
        E 25 90 36 37
        E 5 90 48 00
        E 82 90 3c 00
        E 0 90 3c 40
        E 77 90 36 00
        E 0 90 37 49
        E 81 90 34 2e
        E 16 90 2d 00
        E 0 90 37 00
        E 0 90 37 46
        E 30 90 47 44
        E 67 90 2f 44
        E 25 90 3c 00
        E 5 90 34 00
        E 6 90 23 38
        E 0 90 3b 1d
        E 30 90 47 00
        E 10 90 37 00
        E 0 90 3f 4b
        E 6 90 2f 00
        E 0 90 2f 33
        E 0 90 45 34
        E 0 90 4b 36
        E 25 90 3b 00
        E 82 90 3f 00
        E 0 90 3f 48
        E 16 90 45 00
        E 10 90 4b 00
        E 51 90 37 42
        E 0 90 39 29
        E 51 90 2f 00
        E 10 90 23 00
        E 16 90 37 00
        E 0 90 37 35
        E 0 90 39 00
        E 25 90 3f 00
        E 0 90 3f 3f
        E 61 90 39 33
        E 31 90 3f 00
        E 0 90 3f 37
        E 46 90 39 00
        E 15 90 37 00
        E 0 90 37 3d
        E 41 90 39 3a
        E 21 90 3f 00
        E 46 90 39 00
        E 5 90 39 2f
        E 0 90 40 3f
        E 0 90 4c 2c
        E 5 90 37 00
        E 0 90 37 33
        E 5 90 2d 2c
        E 61 90 4c 00
        E 31 90 39 00
        E 15 90 2d 00
        E 16 90 37 00
        E 10 90 28 38
        E 56 90 40 00
        E 0 90 40 41
        E 10 90 43 35
        E 128 90 2f 2a
        E 36 90 43 00
        E 35 90 2f 00
        E 6 90 37 36
        E 143 90 40 00
        E 10 90 37 00
        E 0 90 37 42
        E 51 90 28 00
        E 21 90 3e 4a
        E 5 90 37 00
        E 0 90 37 3c
        E 5 90 1c 2d
        E 61 90 37 00
        E 0 90 37 3d
        E 26 90 1c 00
        E 61 90 28 2c
        E 10 90 3c 44
        E 0 90 48 28
        E 62 90 48 00
        E 10 90 28 00
        E 56 90 37 00
        E 16 90 3c 00
        E 0 90 3e 00
        E 0 90 3e 33
        E 0 90 4a 47
        E 5 90 40 2b
        E 30 90 28 2f
        E 21 90 2f 2c
        E 15 90 3e 00
        E 0 90 40 00
        E 36 90 37 3f
        E 36 90 4a 00
        E 5 90 28 00
        E 5 90 48 2f
        E 51 90 37 00
        E 0 90 37 49
        E 31 90 2f 00
        E 35 90 37 00
        E 0 90 37 41
        E 0 90 3e 47
        E 21 90 4f 34
        E 15 90 48 00
        E 56 90 1c 26
        E 11 90 4f 00
        E 20 90 3c 39
        E 36 90 1c 00
        E 61 90 3c 00
        E 11 90 47 41
        E 5 90 37 00
        E 5 90 28 3b
        E 56 90 3e 00
        E 61 90 45 2e
        E 0 90 51 31
        E 36 90 47 00
        E 67 90 51 00
        E 66 90 45 00
        E 41 90 39 38
        E 87 90 39 00
        E 15 90 47 3d
        E 46 90 34 2e
        E 5 90 4c 31
        E 56 90 34 00
        E 11 90 45 2f
        E 0 90 51 39
        E 5 90 4c 00
        E 10 90 47 00
        E 61 90 30 32
        E 26 90 28 00
        E 0 90 3b 3a
        E 5 90 28 3e
        E 5 90 51 00
        E 25 90 40 32
        E 26 90 34 29
        E 52 90 3b 00
        E 15 90 39 38
        E 5 90 45 00
        E 31 90 34 00
        E 25 90 40 00
        E 10 90 39 00
        E 0 90 43 3a
        E 62 90 28 00
        E 0 90 28 43
        E 46 90 39 28
        E 30 90 41 37
        E 6 90 4d 3a
        E 5 90 28 00
        E 0 90 28 37
        E 40 90 3c 38
        E 0 90 48 3a
        E 21 90 39 00
        E 0 90 39 38
        E 20 90 4d 00
        E 16 90 43 00
        E 0 90 43 31
        E 5 90 3c 00
        E 0 90 3c 38
        E 61 90 48 00
        E 0 90 48 41
        E 51 90 3c 00
        E 10 90 41 00
        E 16 90 48 00
        E 0 90 48 3b
        E 46 90 40 3c
        E 0 90 43 00
        E 0 90 4c 3c
        E 10 90 30 00
        E 5 90 28 00
        E 0 90 48 00
        E 15 90 39 00
        E 51 90 4c 00
        E 41 90 4b 27
        E 21 90 40 00
        E 15 90 39 31
        E 0 90 3f 34
        E 36 90 36 32
        E 5 90 4b 00
        E 36 90 45 2b
        E 5 90 38 3d
        E 0 90 39 00
        E 30 90 3f 00
        E 0 90 40 49
        E 62 90 38 00
        E 0 90 3f 46
        E 0 90 40 00
        E 5 90 38 36
        E 16 90 45 00
        E 87 90 38 00
        E 20 90 36 00
        E 0 90 4c 39
        E 5 90 3f 00
        E 0 90 40 40
        E 82 90 4c 00
        E 36 90 36 30
        E 81 90 40 00
        E 16 90 3e 4c
        E 5 90 34 31
        E 56 90 40 2f
        E 5 90 36 00
        E 0 90 37 41
        E 92 90 3c 46
        E 0 90 48 29
        E 36 90 34 00
        E 46 90 48 00
        E 15 90 40 00
        E 15 90 37 00
        E 0 90 4a 43
        E 6 90 37 3d
        E 0 90 3e 00
        E 0 90 3e 39
        E 20 90 28 2f
        E 10 90 3c 00
        E 56 90 37 00
        E 0 90 37 4a
        E 21 90 3e 00
        E 30 90 28 00
        E 72 90 34 24
        E 5 90 37 00
        E 0 90 37 44
        E 10 90 4a 00
        E 16 90 3e 47
        E 26 90 34 00
        E 56 90 34 27
        E 20 90 3c 40
        E 97 90 37 00
        E 0 90 3c 00
        E 0 90 47 42
        E 6 90 28 34
        E 71 90 40 31
        E 10 90 3c 36
        E 10 90 3e 00
        E 31 90 45 3c
        E 26 90 34 00
        E 5 90 34 35
        E 0 90 40 00
        E 0 90 40 32
        E 30 90 30 3c
        E 0 90 3c 00
        E 11 90 45 00
        E 51 90 47 00
        E 20 90 30 00
        E 0 90 30 31
        E 0 90 3c 2d
        E 15 90 28 00
        E 31 90 3f 2b
        E 0 90 40 00
        E 5 90 39 38
        E 10 90 30 00
        E 11 90 34 00
        E 35 90 3f 00
        E 46 90 34 2e
        E 0 90 3b 2f
        E 0 90 3c 00
        E 0 90 40 26
        E 0 90 47 44
        E 26 90 39 00
        E 15 90 28 37
        E 21 90 3b 00
        E 25 90 34 00
        E 0 90 34 2b
        E 0 90 3c 3b
        E 16 90 40 00
        E 51 90 34 00
        E 0 90 34 32
        E 5 90 47 00
        E 36 90 30 3c
        E 25 90 3b 31
        E 0 90 3c 00
        E 31 90 34 00
        E 26 90 34 34
        E 5 90 30 00
        E 0 90 30 38
        E 87 90 34 00
        E 0 90 34 3c
        E 46 90 3b 00
        E 30 90 43 3e
        E 16 90 34 00
        E 41 90 3c 2d
        E 15 90 30 00
        E 0 90 30 3b
        E 56 90 3c 00
        E 26 90 28 00
        E 20 90 2f 2e
        E 0 90 30 00
        E 26 90 43 00
        E 5 90 39 28
        E 5 90 2d 2a
        E 41 90 2f 00
        E 0 90 37 3c
        E 30 90 39 00
        E 5 90 30 41
        E 26 90 3c 29
        E 5 90 2d 00
        E 0 90 2d 3a
        E 46 90 35 31
        E 15 90 3c 00
        E 0 90 3c 28
        E 21 90 30 00
        E 0 90 30 35
        E 41 90 35 00
        E 5 90 2d 00
        E 0 90 40 43
        E 5 90 37 00
        E 20 90 3c 00
        E 72 90 36 30
        E 25 90 30 00
        E 0 90 38 25
        E 11 90 40 00
        E 0 90 40 32
        E 56 90 2c 33
        E 5 90 2a 2c
        E 15 90 36 00
        E 0 90 36 39
        E 5 90 3f 36
        E 0 90 40 00
        E 6 90 38 00
        E 20 90 34 36
        E 31 90 30 41
        E 31 90 3f 00
        E 36 90 30 00
        E 5 90 2f 2f
        E 51 90 33 30
        E 0 90 34 00
        E 0 90 36 00
        E 10 90 2a 00
        E 148 90 2f 00
        E 0 90 30 39
        E 5 90 33 00
        E 10 90 2c 00
        E 26 90 28 39
        E 10 90 40 33
        E 72 90 30 00
        E 5 90 2f 3f
        E 61 90 36 4a
        E 41 90 28 00
        E 20 90 36 00
        E 6 90 37 58
        E 46 90 2f 00
        E 20 90 40 00
        E 51 90 37 00
        E 0 90 37 4a
        E 20 90 33 4f
        E 0 90 3f 27
        E 52 90 2f 30
        E 10 90 3f 00
        E 41 90 32 3f
        E 0 90 33 00
        E 20 90 2f 00
        E 77 90 37 00
        E 16 e0 55 6a
        E 0 90 31 35
        E 0 90 32 00
        E 5 e0 55 4a
        E 6 e0 55 4a
        E 5 e0 55 4a
        E 6 e0 55 4a
        E 5 e0 55 4a
        E 6 e0 55 4a
        E 6 e0 55 6a
        E 5 e0 55 6a
        E 6 e0 55 6a
        E 5 e0 55 4a
        E 6 e0 55 4a
        E 0 90 31 00
        E 0 90 31 3f
        E 5 e0 55 4a
        E 6 e0 55 4a
        E 5 e0 55 4a
        E 6 e0 55 4a
        E 5 e0 55 4a
        E 6 e0 55 4a
        E 5 e0 55 4a
        E 6 e0 55 4a
        E 5 e0 55 4a
        E 6 e0 55 4a
        E 5 e0 55 2a
        E 6 e0 55 2a
        E 5 e0 55 2a
        E 6 e0 55 4a
        E 0 90 30 40
        E 0 90 31 00
        E 5 e0 55 4a
        E 5 e0 55 4a
        E 6 e0 55 4a
        E 5 e0 55 4a
        E 6 e0 55 4a
        E 5 e0 55 4a
        E 5 e0 55 4a
        E 6 e0 55 4a
        E 5 e0 55 4a
        E 6 e0 55 4a
        E 5 e0 55 4a
        E 5 e0 55 4a
        E 6 e0 55 4a
        E 5 e0 55 4a
        E 6 e0 55 4a
        E 5 e0 55 4a
        E 5 e0 55 4a
        E 0 90 2f 3b
        E 0 90 30 00
        E 6 e0 55 4a
        E 5 e0 55 4a
        E 5 e0 55 4a
        E 6 e0 55 4a
        E 5 e0 55 4a
        E 5 e0 55 4a
        E 5 e0 55 4a
        E 6 e0 55 4a
        E 5 e0 55 4a
        E 5 e0 55 4a
        E 6 e0 55 4a
        E 5 e0 55 4a
        E 5 e0 55 4a
        E 5 e0 55 4a
        E 6 e0 55 4a
        E 5 e0 55 4a
        E 5 e0 55 6a
        E 6 e0 55 2a
        E 5 e0 55 2a
        E 5 e0 55 2a
        E 5 e0 55 2a
        E 6 e0 55 2a
        E 5 e0 55 2a
        E 5 e0 55 2a
        E 6 e0 55 2a
        E 5 e0 55 4a
        E 5 e0 55 4a
        E 5 e0 55 4a
        E 6 e0 55 4a
        E 0 90 2f 00
        E 0 90 2f 48
        E 122 90 28 49
        E 5 90 2f 00
        E 0 90 2f 3b
        E 113 90 2f 00
        E 0 90 2f 40
        E 76 90 37 51
        E 46 90 28 00
        E 0 90 2f 00
        E 6 90 4f 4a
        E 10 90 4c 38
        E 25 90 36 2f
        E 0 90 37 00
        E 21 90 28 2f
        E 108 90 4c 00
        E 5 90 4f 00
        E 15 90 36 00
        E 20 90 4e 4e
        E 6 90 37 48
        E 0 90 4a 2e
        E 76 90 3b 49
        E 31 90 4a 00
        E 25 90 28 00
        E 0 90 4e 00
        E 21 90 37 00
        E 0 90 37 50
        E 0 90 4c 4f
        E 10 90 48 3f
        E 46 90 3b 00
        E 0 90 3c 3d
        E 26 90 48 00
        E 61 90 4a 49
        E 5 90 37 00
        E 0 90 37 3c
        E 0 90 4c 00
        E 36 90 32 39
        E 5 90 3b 2c
        E 0 90 3c 00
        E 10 90 3e 2c
        E 15 90 39 2f
        E 51 90 37 00
        E 6 90 48 4c
        E 10 90 38 37
        E 0 90 39 00
        E 0 90 4a 00
        E 41 90 3b 00
        E 71 90 3b 2f
        E 0 90 47 44
        E 0 90 48 00
        E 5 90 32 00
        E 0 90 43 37
        E 10 90 3e 00
        E 52 90 3b 00
        E 0 90 3b 41
        E 56 90 38 00
        E 15 90 43 00
        E 0 90 45 39
        E 20 90 42 3e
        E 52 90 47 00
        E 46 90 42 00
        E 10 90 33 42
        E 0 90 3b 00
        E 0 90 3c 3c
        E 72 90 40 39
        E 0 90 43 2b
        E 5 90 37 2a
        E 5 90 45 00
        E 5 90 2b 34
        E 5 90 33 00
        E 10 90 3c 00
        E 36 90 43 00
        E 21 90 34 3e
        E 15 90 40 00
        E 82 90 4c 4d
        E 5 90 40 3b
        E 15 90 37 00
        E 31 90 3b 39
        E 5 90 2b 00
        E 20 90 40 00
        E 36 90 34 00
        E 0 90 34 45
        E 0 90 3b 00
        E 21 90 4c 00
        E 25 90 4a 4f
        E 56 90 34 00
        E 0 90 34 41
        E 26 90 39 3c
        E 46 90 48 47
        E 56 90 39 00
        E 0 90 39 33
        E 0 90 4a 00
        E 36 90 36 2f
        E 5 90 34 00
        E 31 90 4a 2b
        E 5 90 39 00
        E 5 90 43 2e
        E 35 90 3c 35
        E 6 90 48 00
        E 0 90 48 31
        E 25 90 43 00
        E 15 90 4a 00
        E 16 90 39 3b
        E 20 90 45 42
        E 11 90 3e 39
        E 20 90 42 3d
        E 46 90 48 00
        E 46 90 36 00
        E 5 90 39 00
        E 6 90 42 00
        E 15 90 45 00
        E 5 90 40 37
        E 0 90 43 3d
        E 5 90 2f 3c
        E 56 90 39 45
        E 21 90 2f 00
        E 25 90 3b 44
        E 0 90 3c 00
        E 0 90 3e 00
        E 46 90 39 00
        E 0 90 39 41
        E 0 90 45 2b
        E 72 90 3b 00
        E 0 90 3b 43
        E 36 90 43 00
        E 20 90 2f 53
        E 0 90 40 00
        E 5 90 3b 00
        E 0 90 3b 38
        E 0 90 3f 3a
        E 0 90 42 34
        E 0 90 4b 1e
        E 77 90 4b 00
        E 51 90 2f 00
        E 0 90 30 34
        E 36 90 45 00
        E 5 90 3f 00
        E 0 90 40 3e
        E 10 90 3b 00
        E 56 90 42 00
        E 5 90 39 00
        E 31 90 48 36
        E 5 90 3c 52
        E 46 90 30 00
        E 41 90 3c 00
        E 0 90 3c 4a
        E 0 90 48 00
        E 0 90 48 34
        E 41 90 39 45
        E 41 90 48 00
        E 5 90 3c 00
        E 0 90 3c 48
        E 21 90 40 00
        E 10 90 45 39
        E 46 90 38 47
        E 0 90 39 00
        E 41 90 48 2c
        E 15 90 42 45
        E 5 90 38 00
        E 0 90 38 45
        E 0 90 3f 42
        E 92 90 38 00
        E 0 90 38 3c
        E 0 90 48 00
        E 31 90 3c 00
        E 0 90 42 00
        E 10 90 45 00
        E 10 90 3f 00
        E 0 90 40 3c
        E 21 90 30 45
        E 15 90 43 33
        E 36 90 37 4b
        E 0 90 38 00
        E 35 90 48 2f
        E 6 90 30 00
        E 0 90 30 39
        E 35 90 37 00
        E 0 90 37 48
        E 0 90 3b 47
        E 36 90 43 00
        E 10 90 48 00
        E 0 90 48 31
        E 41 90 37 00
        E 0 90 37 54
        E 5 90 3b 00
        E 0 90 3c 3b
        E 51 90 30 00
        E 5 90 37 00
        E 0 90 38 2d
        E 0 90 44 4d
        E 0 90 48 00
        E 11 90 40 00
        E 0 90 40 44
        E 5 90 2f 3f
        E 5 90 3c 00
        E 61 90 38 00
        E 0 90 38 5b
        E 46 90 40 00
        E 0 90 40 2f
        E 5 90 42 41
        E 0 90 44 00
        E 0 90 45 43
        E 5 90 2f 00
        E 0 90 2f 33
        E 0 90 3c 40
        E 0 90 48 37
        E 16 90 38 00
        E 0 90 38 4a
        E 71 90 48 00
        E 10 90 47 48
        E 6 90 3b 3f
        E 0 90 3c 00
        E 0 90 44 36
        E 0 90 45 00
        E 15 90 42 00
        E 15 90 38 00
        E 0 90 38 47
        E 67 90 2f 00
        E 21 90 40 00
        E 15 90 2d 34
        E 31 90 47 00
        E 0 90 48 58
        E 10 90 44 00
        E 0 90 45 2f
        E 5 90 3b 00
        E 20 90 2d 00
        E 31 90 34 2e
        E 41 90 38 00
        E 0 90 3c 3b
        E 0 90 48 00
        E 0 90 48 4f
        E 56 90 34 00
        E 0 90 45 00
        E 15 90 48 00
        E 0 90 48 3c
        E 11 90 3c 00
        E 0 90 3c 4c
        E 40 90 39 4e
        E 41 90 3c 00
        E 0 90 3c 54
        E 11 90 48 00
        E 56 90 38 4f
        E 0 90 39 00
        E 30 90 3c 00
        E 0 90 3c 3d
        E 82 90 37 3c
        E 0 90 38 00
        E 26 90 39 2f
        E 92 90 36 45
        E 0 90 37 00
        E 102 90 39 00
        E 10 90 35 35
        E 0 90 36 00
        E 77 90 35 00
        E 0 90 35 3d
        E 5 90 3c 00
        E 0 90 3c 2f
        E 67 90 35 00
        E 0 90 35 3d
        E 25 90 3c 00
        E 10 90 33 35
        E 36 90 47 3d
        E 51 90 33 00
        E 0 90 34 47
        E 0 90 35 00
        E 62 90 2d 3a
        E 0 90 34 00
        E 0 90 34 30
        E 46 90 51 2f
        E 5 90 39 2b
        E 5 90 47 00
        E 20 90 48 4e
        E 123 90 3c 3d
        E 5 90 48 00
        E 0 90 48 49
        E 5 90 51 00
        E 15 90 39 00
        E 5 90 34 00
        E 77 90 2d 00
        E 0 90 2d 32
        E 0 90 3c 00
        E 0 90 3c 3a
        E 0 90 48 00
        E 0 90 48 48
        E 5 90 34 2e
        E 31 90 45 2c
        E 61 90 38 5b
        E 5 90 48 00
        E 0 90 48 2d
        E 36 90 3c 00
        E 0 90 3c 38
        E 5 90 45 00
        E 15 90 37 3e
        E 0 90 38 00
        E 36 90 34 00
        E 5 90 39 25
        E 5 90 3c 00
        E 41 90 37 00
        E 0 90 37 3f
        E 51 90 48 00
        E 27 90 37 00
        E 0 90 37 3b
        E 35 90 39 00
        E 26 90 35 2a
        E 76 90 35 00
        E 0 90 36 42
        E 0 90 37 00
        E 36 90 34 2b
        E 56 90 36 00
        E 0 90 36 37
        E 21 90 34 00
        E 30 90 3f 28
        E 21 90 36 00
        E 0 90 37 36
        E 15 90 35 2a
        E 67 90 3f 00
        E 25 90 35 00
        E 0 90 36 34
        E 0 90 37 00
        E 164 90 36 00
        E 86 90 39 36
        E 103 90 39 00
        E 56 90 3c 3a
        E 41 90 3e 57
        E 41 90 2d 00
        E 15 90 3c 00
        E 16 90 45 2e
        E 0 90 51 3e
        E 5 90 3e 00
        E 0 90 3e 41
        E 112 90 51 00
        E 16 90 4f 4d
        E 5 90 40 33
        E 0 90 43 3e
        E 46 90 45 00
        E 0 90 45 42
        E 76 90 40 00
        E 31 90 3e 00
        E 0 90 3e 43
        E 0 90 4e 2f
        E 0 90 4f 00
        E 5 90 45 00
        E 0 90 45 3e
        E 0 90 4a 2d
        E 61 90 45 00
        E 0 90 4a 00
        E 6 90 4e 00
        E 25 90 42 42
        E 0 90 43 00
        E 46 90 48 40
        E 36 90 4d 23
        E 5 90 3e 00
        E 0 90 3e 4f
        E 0 90 40 36
        E 25 90 3c 3b
        E 16 90 42 00
        E 15 90 48 00
        E 0 90 48 31
        E 10 90 3e 00
        E 0 90 3e 3e
        E 0 90 4a 3e
        E 11 90 4d 00
        E 15 90 3c 00
        E 5 90 3b 2c
        E 41 90 39 26
        E 20 90 37 3d
        E 16 90 3b 00
        E 20 90 48 00
        E 0 90 48 39
        E 0 90 4a 00
        E 5 90 3c 33
        E 0 90 40 00
        E 26 90 39 00
        E 5 90 36 34
        E 0 90 37 00
        E 41 90 34 30
        E 30 90 45 29
        E 16 90 32 31
        E 36 90 34 00
        E 0 90 3e 00
        E 15 90 3c 00
        E 10 90 36 00
        E 6 90 45 00
        E 0 90 48 00
        E 5 90 2b 3b
        E 10 90 37 35
        E 71 90 32 00
        E 0 90 32 35
        E 57 90 37 00
        E 0 90 37 3c
        E 40 90 3e 42
        E 0 90 4e 37
        E 0 90 51 4a
        E 31 90 2b 00
        E 21 90 39 26
        E 25 90 4e 00
        E 36 90 3c 41
        E 0 90 3e 00
        E 15 90 39 00
        E 0 90 4f 46
        E 0 90 51 00
        E 5 90 39 2e
        E 5 90 37 00
        E 72 90 3e 35
        E 15 90 32 00
        E 0 90 39 00
        E 16 90 40 34
        E 10 90 4f 00
        E 10 90 4e 40
        E 10 90 3e 00
        E 0 90 3e 3b
        E 0 90 4a 3a
        E 36 90 42 37
        E 15 90 3c 00
        E 51 90 45 33
        E 26 90 3e 00
        E 5 90 3c 35
        E 0 90 48 39
        E 5 90 40 00
        E 0 90 40 3b
        E 15 90 4a 00
        E 36 90 42 00
        E 0 90 42 37
        E 21 90 4e 00
        E 25 90 45 00
        E 5 90 40 00
        E 0 90 40 3f
        E 5 90 4a 36
        E 6 90 47 39
        E 0 90 48 00
        E 25 90 3e 4f
        E 36 90 3c 00
        E 0 90 3c 44
        E 0 90 40 00
        E 0 90 40 35
        E 0 90 47 00
        E 0 90 48 2d
        E 72 90 3c 00
        E 0 90 3c 3d
        E 0 90 3e 00
        E 0 90 3e 34
        E 0 90 48 00
        E 0 90 48 39
        E 10 90 42 00
        E 56 90 4a 00
        E 26 90 40 00
        E 5 90 36 40
        E 5 90 48 00
        E 0 90 48 30
        E 46 90 3b 38
        E 0 90 3c 00
        E 0 90 45 2c
        E 10 90 34 29
        E 0 90 3e 00
        E 5 90 48 00
        E 26 90 32 30
        E 77 90 32 00
        E 0 90 45 00
        E 5 90 31 2e
        E 5 90 34 00
        E 82 90 30 40
        E 0 90 31 00
        E 0 90 3b 00
        E 35 90 45 31
        E 56 90 36 00
        E 21 90 39 47
        E 0 90 43 31
        E 36 90 40 61
        E 46 90 30 00
        E 15 90 40 00
        E 0 90 40 4d
        E 0 90 4f 33
        E 15 90 45 00
        E 31 90 3b 33
        E 15 90 4f 00
        E 21 90 39 00
        E 0 90 39 34
        E 30 90 3b 00
        E 21 90 43 00
        E 20 90 2f 3f
        E 5 90 4f 33
        E 5 90 4b 35
        E 52 90 39 00
        E 0 90 39 3e
        E 5 90 40 00
        E 25 90 3f 4a
        E 0 90 4b 00
        E 0 90 4b 2c
        E 31 90 45 37
        E 10 90 43 3a
        E 1 90 4f 00
        E 40 90 3b 39
        E 0 90 4b 00
        E 31 90 2f 00
        E 5 90 39 00
        E 0 90 39 40
        E 46 90 30 48
        E 0 90 43 00
        E 0 90 43 2f
        E 5 90 3f 00
        E 26 90 3b 00
        E 0 90 45 00
        E 5 90 45 3b
        E 5 90 39 00
        E 0 90 39 4a
        E 41 90 43 00
        E 36 90 40 44
        E 0 90 43 31
        E 0 90 4f 40
        E 5 90 39 00
        E 0 90 39 42
        E 0 90 45 00
        E 66 90 45 2f
        E 41 90 39 00
        E 5 90 43 00
        E 5 90 30 00
        E 5 90 4f 00
        E 5 90 2f 3e
        E 6 90 4b 31
        E 0 90 4e 35
        E 15 90 45 00
        E 46 90 40 00
        E 25 90 3f 4a
        E 0 90 4b 00
        E 0 90 4b 2b
        E 6 90 39 47
        E 30 90 2f 00
        E 0 90 2f 31
        E 5 90 42 40
        E 0 90 45 3e
        E 21 90 4e 00
        E 36 90 47 24
        E 10 90 4b 00
        E 20 90 39 00
        E 0 90 39 49
        E 41 90 47 00
        E 5 90 2f 00
        E 10 90 42 00
        E 5 90 30 36
        E 16 90 41 24
        E 0 90 45 00
        E 5 90 3f 00
        E 31 90 39 00
        E 0 90 39 3b
        E 86 90 41 00
        E 0 90 41 36
        E 0 90 4d 4c
        E 5 90 3e 4f
        E 0 90 4a 37
        E 36 90 30 00
        E 26 90 39 00
        E 0 90 39 3f
        E 0 90 4d 00
        E 0 90 4d 3b
        E 51 90 2f 39
        E 0 90 41 00
        E 11 90 4d 00
        E 0 90 4d 46
        E 5 90 3e 00
        E 0 90 3e 3f
        E 0 90 4a 00
        E 0 90 4a 46
        E 20 90 39 00
        E 31 90 2f 00
        E 10 90 4d 00
        E 0 90 4d 3a
        E 5 90 38 42
        E 5 90 3e 00
        E 0 90 3e 49
        E 31 90 4a 00
        E 10 90 41 3a
        E 0 90 44 41
        E 56 90 38 00
        E 0 90 39 41
        E 0 90 4d 00
        E 72 90 30 43
        E 5 90 41 00
        E 0 90 41 3d
        E 10 90 44 00
        E 0 90 45 37
        E 82 90 30 00
        E 0 90 30 37
        E 5 90 39 00
        E 0 90 39 40
        E 10 90 45 00
        E 21 90 3e 00
        E 0 90 3e 47
        E 0 90 41 00
        E 0 90 41 37
        E 0 90 4a 3f
        E 0 90 4d 43
        E 61 90 30 00
        E 15 90 39 00
        E 0 90 39 3b
        E 36 90 41 00
        E 5 90 4d 00
        E 10 90 2f 2d
        E 11 90 4c 3f
        E 5 90 3e 00
        E 0 90 3e 3f
        E 5 90 4a 00
        E 0 90 4a 3f
        E 41 90 38 48
        E 0 90 39 00
        E 5 90 2f 00
        E 30 90 3e 00
        E 0 90 3e 4b
        E 26 90 4c 00
        E 15 90 40 4a
        E 5 90 38 00
        E 0 90 38 51
        E 0 90 44 2e
        E 11 90 4a 00
        E 117 90 44 00
        E 15 90 2f 37
        E 26 90 40 00
        E 0 90 40 42
        E 0 90 43 2a
        E 36 90 37 3e
        E 0 90 38 00
        E 5 90 2f 00
        E 0 90 3e 00
        E 11 90 3c 47
        E 10 90 43 00
        E 51 90 3c 00
        E 0 90 48 37
        E 5 90 3c 3e
        E 0 90 4c 46
        E 61 90 37 00
        E 0 90 37 3e
        E 36 90 4c 00
        E 10 90 40 00
        E 16 90 4b 42
        E 20 90 3c 00
        E 10 90 37 00
        E 16 90 36 43
        E 41 90 3c 3f
        E 20 90 48 00
        E 15 90 36 00
        E 0 90 36 47
        E 0 90 42 42
        E 0 90 4b 00
        E 5 90 3f 44
        E 62 90 42 00
        E 0 90 42 2b
        E 5 90 36 00
        E 0 90 36 4d
        E 51 90 3c 00
        E 5 90 3f 00
        E 0 90 3f 45
        E 41 90 36 00
        E 0 90 36 44
        E 36 90 47 24
        E 10 90 42 00
        E 25 90 3f 00
        E 0 90 3f 3f
        E 5 90 3b 41
        E 0 90 4b 40
        E 52 90 47 00
        E 5 90 36 00
        E 0 90 37 41
        E 61 90 4b 00
        E 10 90 3f 00
        E 10 90 4a 49
        E 6 90 3b 00
        E 0 90 3b 2c
        E 0 90 47 3b
        E 20 90 2c 2e
        E 15 90 37 00
        E 16 90 35 3e
        E 56 90 3b 00
        E 0 90 3b 35
        E 10 90 3e 53
        E 0 90 41 25
        E 0 90 47 00
        E 0 90 47 36
        E 41 90 4a 00
        E 31 90 37 2b
        E 15 90 35 00
        E 0 90 35 3b
        E 46 90 47 00
        E 5 90 37 00
        E 6 90 41 00
        E 5 90 35 00
        E 0 90 3b 00
        E 10 90 2c 00
        E 0 90 3e 00
        E 0 90 3e 47
        E 0 90 40 37
        E 5 90 2c 3a
        E 36 90 38 29
        E 10 90 34 40
        E 51 90 47 23
        E 10 90 3b 29
        E 31 90 3e 00
        E 0 90 3e 41
        E 5 90 4a 42
        E 31 90 38 00
        E 0 90 47 00
        E 15 90 40 00
        E 5 90 34 00
        E 0 90 35 33
        E 0 90 3b 00
        E 56 90 2b 2f
        E 0 90 2c 00
        E 11 90 35 00
        E 15 90 46 31
        E 0 90 49 41
        E 0 90 4a 00
        E 15 90 3e 00
        E 21 90 34 39
        E 5 90 2b 00
        E 20 90 49 00
        E 0 90 49 37
        E 51 90 34 00
        E 0 90 34 3b
        E 0 90 3d 43
        E 0 90 40 38
        E 41 90 49 00
        E 0 90 49 33
        E 31 90 34 00
        E 0 90 35 3d
        E 10 90 46 00
        E 41 90 2b 2c
        E 0 90 49 00
        E 5 90 37 22
        E 10 90 3d 00
        E 0 90 3d 39
        E 0 90 40 00
        E 0 90 40 30
        E 26 90 35 00
        E 5 90 34 33
        E 20 90 37 00
        E 56 90 2b 00
        E 0 90 2d 2a
        E 16 90 49 47
        E 5 90 39 3f
        E 0 90 45 41
        E 41 90 34 00
        E 0 90 3d 00
        E 5 90 2d 00
        E 5 90 35 31
        E 41 90 49 00
        E 11 90 39 00
        E 25 90 45 00
        E 0 90 45 36
        E 0 90 48 4f
        E 5 90 2a 28
        E 16 90 40 00
        E 15 90 35 00
        E 20 90 33 2e
        E 5 90 45 00
        E 31 90 39 3f
        E 21 90 2a 00
        E 10 90 33 00
        E 20 90 3c 44
        E 0 90 48 00
        E 0 90 48 3b
        E 21 90 3f 44
        E 35 90 33 2e
        E 87 90 48 00
        E 5 90 2b 33
        E 16 90 39 00
        E 5 90 33 00
        E 0 90 3c 00
        E 0 90 47 43
        E 5 90 3f 00
        E 0 90 43 38
        E 41 90 34 3c
        E 46 90 3b 35
        E 25 90 2b 00
        E 10 90 43 00
        E 6 90 34 00
        E 0 90 34 39
        E 5 90 40 37
        E 0 90 46 2b
        E 0 90 47 00
        E 30 90 3b 00
        E 0 90 3b 3c
        E 21 90 43 22
        E 30 90 40 00
        E 21 90 28 2f
        E 15 90 3b 00
        E 5 90 34 00
        E 0 90 43 00
        E 5 90 43 36
        E 26 90 2e 4b
        E 20 90 46 00
        E 6 90 37 3f
        E 20 90 43 00
        E 41 90 37 00
        E 0 90 40 2c
        E 5 90 36 36
        E 5 90 3a 31
        E 56 90 36 00
        E 0 90 37 3d
        E 62 90 28 00
        E 0 90 2e 00
        E 0 90 3a 00
        E 5 90 40 00
        E 0 90 40 2f
        E 0 90 45 3e
        E 31 90 37 00
        E 51 90 34 34
        E 31 90 40 00
        E 35 90 2d 39
        E 5 90 33 30
        E 0 90 34 00
        E 6 90 39 36
        E 61 90 33 00
        E 0 90 34 32
        E 5 90 45 00
        E 20 90 39 00
        E 21 90 40 26
        E 0 90 44 45
        E 15 90 2d 00
        E 26 90 38 2e
        E 5 90 24 31
        E 5 90 2c 38
        E 56 90 24 00
        E 26 90 34 00
        E 0 90 38 00
        E 0 90 38 3f
        E 5 90 33 29
        E 41 90 44 00
        E 25 90 40 00
        E 10 90 38 00
        E 26 90 33 00
        E 25 90 40 3a
        E 0 90 43 3d
        E 11 90 2c 00
        E 87 90 2e 3b
        E 5 90 23 29
        E 30 90 43 00
        E 10 90 37 3e
        E 21 90 2e 00
        E 0 90 2f 2d
        E 61 90 37 00
        E 0 90 37 30
        E 5 90 2f 00
        E 36 90 3d 3a
        E 0 90 40 00
        E 0 90 40 30
        E 31 90 37 00
        E 0 90 43 3b
        E 51 90 2e 2e
        E 6 90 23 00
        E 30 90 40 00
        E 5 90 43 00
        E 10 90 37 37
        E 16 90 2e 00
        E 5 90 2e 35
        E 41 90 3d 00
        E 30 90 2e 00
        E 26 90 3c 4c
        E 10 90 43 36
        E 5 90 37 00
        E 0 90 40 32
        E 0 90 48 32
        E 51 90 3c 00
        E 5 90 3c 39
        E 0 90 43 00
        E 0 90 43 36
        E 11 90 2c 2e
        E 20 90 48 00
        E 5 90 40 00
        E 31 90 43 00
        E 20 90 37 3a
        E 31 90 3c 00
        E 46 90 2c 00
        E 41 90 37 00
        E 0 90 37 2b
        E 0 90 3b 2f
        E 0 90 43 35
        E 5 90 40 2d
        E 71 90 40 00
        E 0 90 40 2e
        E 46 90 43 00
        E 11 90 37 00
        E 0 90 37 2c
        E 15 90 40 00
        E 20 90 2a 28
        E 46 90 1f 2b
        E 77 90 1f 00
        E 5 90 3b 00
        E 51 90 2a 00
        E 0 90 3a 2f
        E 0 90 43 2c
        E 0 90 46 2e
        E 5 90 2a 3a
        E 0 90 37 00
        E 0 90 37 29
        E 11 90 40 3b
        E 67 90 37 00
        E 10 90 3a 00
        E 0 90 3a 36
        E 117 90 43 00
        E 10 90 1e 29
        E 21 90 46 00
        E 25 90 2a 00
        E 57 90 40 00
        E 25 90 3a 00
        E 31 90 4c 39
        E 15 90 40 29
        E 67 90 4f 37
        E 40 90 40 00
        E 5 90 1e 00
        E 6 90 4c 00
        E 61 90 4f 00
        E 0 90 4f 37
        E 15 90 1e 2d
        E 16 90 40 2f
        E 10 90 4c 37
        E 51 90 40 00
        E 0 90 4f 00
        E 0 90 4f 49
        E 71 90 40 28
        E 0 90 4f 00
        E 0 90 4f 48
        E 46 90 4b 4a
        E 0 90 4c 00
        E 26 90 40 00
        E 15 90 4f 00
        E 0 90 4f 37
        E 41 90 57 26
        E 41 90 4a 3f
        E 0 90 4b 00
        E 41 90 57 00
        E 16 90 4a 00
        E 0 90 4a 3f
        E 10 90 4f 00
        E 46 90 4f 2f
        E 20 90 36 2f
        E 36 90 46 25
        E 21 90 4f 00
        E 15 90 51 32
        E 56 90 4a 00
        E 5 90 1e 00
        E 10 90 51 00
        E 5 90 44 2e
        E 6 90 46 00
        E 15 90 52 34
        E 61 90 1e 33
        E 10 90 52 00
        E 36 90 36 00
        E 16 90 4b 2c
        E 5 90 3f 42
        E 35 90 44 00
        E 36 90 3f 00
        E 0 90 3f 3c
        E 10 90 1e 00
        E 26 90 45 2d
        E 31 90 4b 00
        E 10 90 3f 00
        E 0 90 40 38
        E 20 90 45 00
        E 46 90 42 3d
        E 123 90 42 00
        E 5 90 40 00
        E 5 e0 55 4a
        E 0 90 40 37
        E 5 e0 55 4a
        E 6 e0 55 4a
        E 5 e0 55 4a
        E 5 e0 55 4a
        E 6 e0 55 4a
        E 5 e0 55 4a
        E 6 e0 55 4a
        E 5 e0 55 4a
        E 5 e0 55 4a
        E 6 e0 55 4a
        E 5 e0 55 4a
        E 5 e0 55 2a
        E 6 e0 55 2a
        E 5 e0 55 2a
        E 5 e0 55 2a
        E 6 e0 55 2a
        E 5 e0 55 2a
        E 6 e0 55 2a
        E 5 e0 55 2a
        E 5 e0 55 2a
        E 0 90 3a 3c
        E 0 90 40 00
        E 0 90 40 30
        E 37 90 37 46
        E 10 90 46 35
        E 10 90 40 00
        E 26 90 3a 00
        E 0 90 3a 33
        E 61 90 36 4c
        E 0 90 37 00
        E 31 90 46 00
        E 56 90 36 00
        E 0 90 36 41
        E 41 90 3a 00
        E 30 90 39 41
        E 5 90 45 2f
        E 5 90 3f 48
        E 82 90 42 34
        E 5 90 36 00
        E 0 90 36 3c
        E 0 90 3f 00
        E 0 90 3f 43
        E 26 90 45 00
        E 46 90 42 00
        E 15 90 43 35
        E 5 90 39 00
        E 5 90 36 00
        E 5 90 3f 00
        E 26 90 40 38
        E 92 90 2f 39
        E 15 90 40 00
        E 46 90 2f 00
        E 0 90 2f 4a
        E 5 90 43 00
        E 67 90 2f 00
        E 0 90 2f 46
        E 41 90 23 38
        E 35 90 2e 34
        E 0 90 2f 00
        E 67 90 2e 00
        E 5 90 2f 26
        E 46 90 42 32
        E 21 90 2f 00
        E 0 90 2f 31
        E 5 90 3f 3c
        E 41 90 42 00
        E 0 90 43 3b
        E 20 90 2f 00
        E 31 90 3f 00
        E 0 90 40 28
        E 5 90 23 00
        E 56 90 40 00
        E 5 90 2f 46
        E 41 90 43 00
        E 31 e0 55 2a
        E 0 90 2f 00
        E 0 90 2f 48
        E 5 e0 55 2a
        E 6 e0 55 2a
        E 5 e0 55 4a
        E 6 e0 55 4a
        E 6 e0 55 4a
        E 5 e0 55 2a
        E 6 e0 55 2a
        E 5 e0 55 2a
        E 6 e0 55 2a
        E 5 e0 55 2a
        E 6 e0 55 2a
        E 5 e0 55 2a
        E 0 90 2f 00
        E 0 90 2f 4a
        E 6 e0 55 4a
        E 5 e0 55 4a
        E 6 e0 55 4a
        E 5 e0 55 4a
        E 5 e0 55 4a
        E 6 e0 55 4a
        E 5 e0 55 4a
        E 6 e0 55 4a
        E 5 e0 55 4a
        E 5 e0 55 4a
        E 6 e0 55 4a
        E 5 e0 55 4a
        E 6 e0 55 4a
        E 5 e0 55 4a
        E 5 e0 55 4a
        E 6 e0 55 4a
        E 5 e0 55 4a
        E 0 90 2f 00
        E 0 90 2f 4b
        E 6 e0 55 4a
        E 5 e0 55 4a
        E 6 e0 55 4a
        E 5 e0 55 4a
        E 6 e0 55 4a
        E 5 e0 55 4a
        E 6 e0 55 4a
        E 5 e0 55 4a
        E 6 e0 55 4a
        E 5 e0 55 4a
        E 6 e0 55 4a
        E 5 e0 55 4a
        E 6 e0 55 4a
        E 0 90 2f 00
        E 0 90 2f 3d
        E 5 e0 55 4a
        E 6 e0 55 4a
        E 5 e0 55 4a
        E 6 e0 55 4a
        E 5 e0 55 4a
        E 6 e0 55 4a
        E 5 e0 55 4a
        E 6 e0 55 4a
        E 5 e0 55 4a
        E 5 e0 55 4a
        E 6 e0 55 4a
        E 5 e0 55 4a
        E 6 e0 55 4a
        E 5 e0 55 4a
        E 0 90 2f 00
        E 0 90 40 35
        E 11 90 25 2f
        E 15 90 43 31
        E 46 90 2e 37
        E 102 90 43 00
        E 20 90 2e 00
        E 0 90 2f 37
        E 6 90 25 00
        E 0 90 4b 3a
        E 10 90 40 00
        E 30 90 43 45
        E 0 90 4f 3e
        E 6 90 37 37
        E 46 90 4b 00
        E 10 90 42 3b
        E 0 90 43 00
        E 77 90 42 00
        E 0 90 42 4a
        E 0 90 4e 26
        E 0 90 4f 00
        E 10 90 2f 00
        E 61 90 42 00
        E 0 90 42 31
        E 0 90 4e 00
        E 0 90 4e 49
        E 0 90 57 3a
        E 31 90 40 3e
        E 82 90 42 00
        E 0 90 4e 00
        E 0 90 57 00
        E 10 90 40 00
        E 0 90 40 4a
        E 0 90 43 31
        E 0 90 4f 3e
        E 0 90 5b 2b
        E 87 90 40 00
        E 0 90 40 4b
        E 25 90 37 00
        E 0 90 5b 00
        E 62 90 43 00
        E 0 90 43 49
        E 51 90 40 00
        E 0 90 40 51
        E 36 90 43 00
        E 0 90 43 4b
        E 35 90 40 00
        E 0 90 40 45
        E 16 90 37 4e
        E 10 90 4f 00
        E 51 90 43 00
        E 5 90 37 00
        E 5 90 36 4c
        E 10 90 4f 2f
        E 52 90 36 00
        E 0 90 37 51
        E 40 90 34 38
        E 5 90 40 00
        E 0 90 4f 00
        E 6 90 46 26
        E 35 90 36 3c
        E 0 90 37 00
        E 42 90 46 00
        E 66 90 36 00
        E 0 90 37 46
        E 26 90 34 00
        E 81 90 2f 4c
        E 87 90 2f 00
        E 0 90 2f 49
        E 62 90 2f 00
        E 0 90 2f 58
        E 117 90 26 33
        E 26 90 2f 00
        E 0 90 2f 4f
        E 35 90 37 00
        E 31 90 26 00
        E 15 90 2f 00
        E 0 90 2f 35
        E 41 90 37 40
        E 0 90 43 3c
        E 5 90 27 35
        E 0 90 3b 34
        E 72 90 3b 00
        E 20 90 2f 00
        E 0 90 2f 4b
        E 21 90 43 00
        E 30 90 27 00
        E 16 90 2f 00
        E 0 90 2f 51
        E 87 90 2f 00
        E 0 90 2f 49
        E 36 90 27 2d
        E 87 90 2f 00
        E 0 90 2f 3d
        E 35 90 27 00
        E 0 90 27 2f
        E 46 90 2f 00
        E 0 90 2f 39
        E 21 90 27 00
        E 31 90 37 00
        E 0 90 37 54
        E 20 90 2e 47
        E 0 90 2f 00
        E 15 90 28 2f
        E 0 90 3b 27
        E 26 90 37 00
        E 0 90 37 44
        E 36 90 2e 00
        E 5 90 2f 2d
        E 0 90 42 3c
        E 35 90 3b 00
        E 16 90 28 00
        E 15 90 42 00
        E 0 90 43 48
        E 0 90 4f 50
        E 41 90 2f 00
        E 36 90 43 00
        E 0 90 43 34
        E 0 90 4f 00
        E 0 90 4f 3b
        E 15 90 37 00
        E 0 90 37 40
        E 56 90 4e 31
        E 0 90 4f 00
        E 16 90 43 00
        E 10 90 3b 28
        E 0 90 57 31
        E 10 90 43 24
        E 46 90 4e 00
        E 10 90 57 00
        E 16 90 4f 3b
        E 5 90 43 00
        E 0 90 43 3f
        E 61 90 40 45
        E 10 90 3b 00
        E 61 90 37 00
        E 0 90 40 00
        E 0 90 40 4e
        E 0 90 43 00
        E 0 90 43 3e
        E 0 90 4c 3e
        E 0 90 4f 00
        E 0 90 4f 4b
        E 67 90 43 00
        E 0 90 43 44
        E 25 90 40 00
        E 0 90 40 53
        E 21 90 4c 00
        E 31 90 42 41
        E 0 90 43 00
        E 31 90 4f 00
        E 46 90 40 00
        E 0 90 40 53
        E 0 90 42 00
        E 0 90 43 54
        E 61 90 37 47
        E 20 90 40 00
        E 0 90 40 4e
        E 0 90 43 00
        E 0 90 43 3d
        E 82 90 37 00
        E 5 90 36 40
        E 5 90 43 00
        E 72 90 34 3f
        E 0 90 40 00
        E 0 90 40 2e
        E 97 90 40 00
        E 15 90 34 00
        E 16 90 36 00
        E 20 90 24 39
        E 0 90 30 31
        E 123 90 2b 28
        E 0 90 37 30
        E 5 90 30 00
        E 0 90 3c 35
        E 20 90 34 32
        E 41 90 37 00
        E 0 90 37 38
        E 41 90 3c 00
        E 20 90 30 30
        E 190 90 34 00
        E 5 90 2b 00
        E 20 90 30 00
        E 6 90 37 00
        E 0 90 42 3f
        E 0 90 4e 2b
        E 0 90 57 29
        E 5 90 3f 39
        E 10 90 24 00
        E 56 90 57 00
        E 10 90 4e 00
        E 16 90 42 00
        E 10 90 30 29
        E 0 90 37 31
        E 0 90 3f 00
        E 0 90 3f 3c
        E 0 90 4f 44
        E 20 90 34 2b
        E 16 90 43 3b
        E 61 90 3f 00
        E 0 90 40 42
        E 51 90 4f 00
        E 0 90 4f 26
        E 36 90 24 2b
        E 0 90 34 00
        E 5 90 3f 3e
        E 0 90 40 00
        E 25 90 30 00
        E 26 90 4f 00
        E 0 90 4f 37
        E 31 90 43 00
        E 0 90 43 35
        E 15 90 3f 00
        E 0 90 3f 50
        E 5 90 57 28
        E 26 90 24 00
        E 20 90 43 00
        E 0 90 43 31
        E 10 90 3e 34
        E 0 90 3f 00
        E 21 90 4f 00
        E 0 90 4f 40
        E 0 90 57 00
        E 30 90 43 00
        E 16 90 3e 00
        E 0 90 3e 36
        E 25 90 37 00
        E 21 90 43 38
        E 25 90 4f 00
        E 0 90 4f 3f
        E 5 90 37 26
        E 5 90 3e 00
        E 0 90 3e 31
        E 31 90 43 00
        E 5 90 43 2f
        E 31 90 3c 28
        E 0 90 48 24
        E 25 90 4f 00
        E 0 90 4f 40
        E 5 90 24 2e
        E 0 90 43 00
        E 0 90 43 31
        E 26 90 37 00
        E 5 90 48 00
        E 0 90 48 39
        E 15 90 3e 00
        E 16 90 24 00
        E 5 90 3c 00
        E 0 90 4f 00
        E 36 90 37 3a
        E 0 90 48 00
        E 10 90 43 00
        E 0 90 43 2c
        E 72 90 39 24
        E 0 90 43 00
        E 61 90 39 00
        E 0 90 39 37
        E 82 90 39 00
        E 5 90 30 2f
        E 20 90 24 2f
        E 62 90 30 00
        E 36 90 37 00
        E 0 90 37 3d
        E 5 90 34 35
        E 0 90 3c 2c
        E 5 90 40 28
        E 102 90 3c 00
        E 36 90 40 00
        E 15 90 30 30
        E 77 90 30 00
        E 10 90 34 00
        E 10 90 37 00
        E 5 90 3f 2b
        E 0 90 57 2b
        E 5 90 4e 35
        E 67 90 4e 00
        E 10 90 57 00
        E 15 90 3f 00
        E 0 90 40 37
        E 0 90 43 36
        E 5 90 4f 43
        E 82 90 43 00
        E 0 90 43 39
        E 0 90 4f 00
        E 0 90 4f 32
        E 41 90 40 00
        E 0 90 40 42
        E 36 90 34 29
        E 21 90 30 2f
        E 20 90 24 00
        E 10 90 43 00
        E 0 90 43 3c
        E 16 90 3f 33
        E 0 90 40 00
        E 25 90 4f 00
        E 5 90 57 2b
        E 36 90 3f 00
        E 5 90 37 2b
        E 0 90 3e 2f
        E 5 90 43 00
        E 16 90 34 00
        E 20 90 30 00
        E 15 90 57 00
        E 31 90 37 00
        E 15 90 3d 2d
        E 0 90 3e 00
        E 11 90 43 2f
        E 71 90 30 2d
        E 21 90 43 00
        E 30 90 3c 30
        E 0 90 3d 00
        E 0 90 4f 30
        E 41 90 30 00
        E 31 90 43 31
        E 5 90 3c 00
        E 0 90 3c 30
        E 36 90 4f 00
        E 0 90 4f 2c
        E 5 90 37 44
        E 10 90 3e 26
        E 41 90 2f 2e
        E 0 90 3c 00
        E 0 90 43 00
        E 5 90 43 33
        E 5 90 37 00
        E 0 90 37 3c
        E 5 90 4f 00
        E 21 90 3e 00
        E 81 90 2b 2f
        E 0 90 2f 00
        E 0 90 30 30
        E 21 90 43 00
        E 81 90 2b 00
        E 6 90 30 00
        E 5 e0 55 4a
        E 0 90 37 00
        E 0 90 37 35
        E 5 e0 55 4a
        E 5 e0 55 4a
        E 5 e0 55 4a
        E 5 e0 55 4a
        E 5 e0 55 4a
        E 5 e0 55 4a
        E 6 e0 55 4a
        E 5 e0 55 4a
        E 5 e0 55 4a
        E 5 e0 55 4a
        E 5 e0 55 4a
        E 5 e0 55 4a
        E 5 e0 55 4a
        E 6 e0 55 4a
        E 5 e0 55 4a
        E 5 e0 55 4a
        E 5 e0 55 4a
        E 5 e0 55 4a
        E 5 e0 55 4a
        E 0 90 37 00
        E 0 90 3e 35
        E 77 90 40 42
        E 5 90 43 3e
        E 87 90 3e 00
        E 0 90 3e 3a
        E 25 90 43 00
        E 0 90 43 33
        E 5 90 40 00
        E 0 90 40 38
        E 36 90 3c 3d
        E 67 90 3c 00
        E 0 90 3c 34
        E 0 90 40 00
        E 0 90 40 49
        E 25 90 43 00
        E 0 90 43 2f
        E 82 90 43 00
        E 0 90 43 36
        E 10 90 40 00
        E 0 90 40 47
        E 15 90 46 2a
        E 6 90 3c 00
        E 30 90 3e 00
        E 16 90 3b 33
        E 10 90 46 00
        E 20 90 40 00
        E 0 90 40 46
        E 72 90 3b 00
        E 0 90 3c 48
        E 35 90 40 00
        E 0 90 40 52
        E 67 90 3c 00
        E 0 90 3d 2f
        E 25 90 40 00
        E 0 90 40 4d
        E 41 90 3d 00
        E 16 90 3e 4d
        E 0 90 43 00
        E 0 90 43 35
        E 35 90 40 00
        E 0 90 40 3d
        E 37 90 3e 00
        E 0 90 3e 51
        E 66 90 40 00
        E 0 90 40 37
        E 31 90 3d 36
        E 0 90 3e 00
        E 61 90 2d 3b
        E 0 90 3d 00
        E 0 90 40 00
        E 0 90 40 2d
        E 51 90 3c 39
        E 61 90 40 00
        E 77 90 3e 30
        E 5 90 3c 00
        E 10 90 2d 00
        E 26 90 43 00
        E 0 90 43 3a
        E 51 90 22 2e
        E 0 90 2e 34
        E 10 90 43 00
        E 0 90 43 31
        E 10 90 3e 00
        E 6 90 40 2e
        E 81 90 2e 00
        E 26 90 40 00
        E 5 90 22 00
        E 51 90 2f 37
        E 5 90 23 33
        E 0 90 3f 30
        E 61 90 46 29
        E 26 90 2f 00
        E 51 90 3f 00
        E 0 90 3f 36
        E 26 90 46 00
        E 5 90 43 00
        E 0 90 43 33
        E 61 90 3c 30
        E 57 90 43 00
        E 10 90 23 00
        E 0 90 3c 00
        E 0 90 3f 00
        E 36 90 35 31
        E 30 90 28 34
        E 87 90 1c 2a
        E 67 90 1c 00
        E 20 90 37 2d
        E 0 90 3e 2d
        E 61 90 35 00
        E 21 90 37 00
        E 0 90 37 39
        E 0 90 43 21
        E 0 90 4f 3c
        E 46 90 3e 00
        E 66 90 37 00
        E 0 90 37 2d
        E 0 90 3f 37
        E 5 90 43 00
        E 0 90 43 30
        E 0 90 4f 00
        E 0 90 4f 2c
        E 67 90 3f 00
        E 5 90 3e 47
        E 25 90 4f 00
        E 0 90 4f 38
        E 36 90 4a 2c
        E 5 90 3e 00
        E 0 90 3e 4b
        E 0 90 43 00
        E 46 90 4f 00
        E 16 90 4a 00
        E 35 90 3e 00
        E 0 90 3e 38
        E 11 90 37 00
        E 0 90 37 34
        E 40 90 43 2d
        E 26 90 30 27
        E 36 90 28 00
        E 46 90 37 00
        E 0 90 3e 00
        E 5 90 43 00
        E 51 90 30 00
        E 46 90 28 36
        E 51 90 1c 31
        E 118 90 36 2f
        E 26 90 28 00
        E 5 90 1c 00
        E 66 90 28 2b
        E 26 90 4f 4f
        E 15 90 36 00
        E 20 90 43 31
        E 26 90 4f 00
        E 0 90 4f 36
        E 25 90 3f 37
        E 6 90 28 00
        E 30 90 43 00
        E 0 90 43 37
        E 36 90 3f 00
        E 0 90 3f 39
        E 61 90 4f 00
        E 0 90 4f 34
        E 26 90 3e 3f
        E 0 90 3f 00
        E 0 90 43 00
        E 82 90 37 3c
        E 35 90 31 2a
        E 21 90 4f 00
        E 20 90 28 28
        E 0 90 3c 28
        E 46 90 31 00
        E 0 90 31 2d
        E 16 90 3c 00
        E 5 90 2f 28
        E 46 90 28 00
        E 72 90 28 2a
        E 0 90 2f 00
        E 0 90 2f 39
        E 0 90 47 3a
        E 20 90 3e 00
        E 66 90 31 00
        E 0 90 37 00
        E 31 90 28 00
        E 5 90 28 35
        E 0 90 43 36
        E 0 90 47 00
        E 5 90 2f 00
        E 62 90 1c 2e
        E 66 90 37 44
        E 5 90 2f 29
        E 41 90 1c 00
        E 15 90 43 00
        E 5 90 2f 00
        E 6 90 37 00
        E 0 90 37 46
        E 51 90 4f 3f
        E 51 90 37 00
        E 0 90 37 3d
        E 71 90 3f 39
        E 10 90 2f 2b
        E 21 90 37 00
        E 0 90 37 43
        E 31 90 4a 26
        E 5 90 3e 2c
        E 0 90 3f 00
        E 10 90 2f 00
        E 15 90 43 35
        E 0 90 4f 00
        E 0 90 4f 35
        E 36 90 37 00
        E 0 90 37 38
        E 5 90 3c 2e
        E 5 90 4a 00
        E 15 90 3e 00
        E 6 90 43 00
        E 10 90 28 00
        E 56 90 3c 00
        E 10 90 30 33
        E 11 90 4f 00
        E 41 90 37 00
        E 5 90 3d 2f
        E 102 90 3d 00
        E 10 90 30 00
        E 26 90 2f 42
        E 25 90 3b 24
        E 0 90 47 2c
        E 97 90 47 00
        E 11 90 3b 00
        E 15 90 2f 00
        E 0 90 30 2a
        E 0 90 4f 32
        E 36 90 43 43
        E 20 90 29 2f
        E 21 90 2f 30
        E 0 90 30 00
        E 41 90 43 00
        E 0 90 43 3d
        E 30 90 3c 30
        E 0 90 40 34
        E 21 90 37 2a
        E 25 90 2f 00
        E 31 90 4f 00
        E 0 90 4f 2d
        E 5 90 43 00
        E 0 90 43 33
        E 15 90 29 00
        E 16 90 37 00
        E 10 90 3c 00
        E 25 90 3f 2f
        E 0 90 40 00
        E 67 90 3f 00
        E 10 90 3e 45
        E 5 90 42 42
        E 0 90 43 00
        E 41 90 4f 00
        E 0 90 4f 38
        E 36 90 3e 00
        E 0 90 3e 36
        E 5 90 45 2f
        E 20 90 42 00
        E 36 90 4f 00
        E 0 90 4f 2c
        E 5 90 37 3a
        E 21 90 45 00
        E 26 90 3e 00
        E 20 90 3c 24
        E 5 90 48 3e
        E 41 90 40 38
        E 0 90 4f 00
        E 0 90 4f 38
        E 5 90 37 00
        E 0 90 37 30
        E 26 90 3c 00
        E 10 90 2f 2c
        E 5 90 43 34
        E 0 90 48 00
        E 10 90 31 30
        E 62 90 31 00
        E 5 90 48 36
        E 30 90 2f 00
        E 0 90 2f 3e
        E 5 90 4f 00
        E 16 90 40 00
        E 0 90 4b 3c
        E 10 90 48 00
        E 10 90 3f 54
        E 5 90 47 27
        E 16 90 43 00
        E 10 90 37 00
        E 25 90 4b 00
        E 5 90 3f 00
        E 0 90 3f 45
        E 0 90 4b 39
        E 41 90 47 00
        E 21 90 4b 00
        E 41 90 3f 00
        E 0 90 40 29
        E 0 90 43 49
        E 5 90 28 34
        E 0 90 4c 34
        E 0 90 4f 3d
        E 10 90 1c 2e
        E 15 90 2f 00
        E 46 90 4c 00
        E 21 90 43 00
        E 0 90 43 43
        E 15 90 40 00
        E 36 90 4f 00
        E 41 90 37 4b
        E 10 90 43 00
        E 0 90 43 27
        E 82 90 37 00
        E 0 90 37 55
        E 5 90 43 00
        E 0 90 43 38
        E 76 90 37 00
        E 0 90 37 43
        E 21 90 3c 30
        E 62 90 3c 00
        E 10 90 43 00
        E 20 90 2f 30
        E 10 90 37 00
        E 0 90 45 4a
        E 0 90 4e 3b
        E 0 90 51 36
        E 6 90 3b 31
        E 46 90 1c 00
        E 61 90 28 00
        E 0 90 28 41
        E 5 90 2f 00
        E 0 90 2f 2c
        E 5 90 4e 00
        E 5 90 51 00
        E 21 90 47 50
        E 5 90 3b 00
        E 0 90 3b 29
        E 15 90 45 00
        E 41 90 2f 00
        E 0 90 2f 34
        E 5 90 3b 00
        E 0 90 3b 28
        E 20 90 47 00
        E 0 90 47 40
        E 46 90 37 46
        E 31 90 2f 00
        E 5 90 3b 00
        E 62 90 37 00
        E 0 90 37 41
        E 0 90 47 00
        E 5 90 34 34
        E 61 90 39 25
        E 15 90 37 00
        E 5 90 2d 3a
        E 5 90 34 00
        E 11 90 51 3a
        E 35 90 39 00
        E 0 90 39 2f
        E 0 90 45 38
        E 21 90 28 00
        E 56 90 51 00
        E 26 90 39 00
        E 0 90 39 32
        E 0 90 43 39
        E 0 90 4f 33
        E 5 90 3c 39
        E 71 90 39 00
        E 10 90 4f 00
        E 21 90 3c 00
        E 0 90 3c 32
        E 0 90 45 00
        E 0 90 45 48
        E 0 90 4e 32
        E 5 90 2d 00
        E 0 90 2d 37
        E 46 90 43 00
        E 15 90 4e 00
        E 26 90 3c 00
        E 36 90 34 29
        E 0 90 47 35
        E 5 90 28 41
        E 0 90 45 00
        E 62 90 2f 39
        E 5 90 2d 00
        E 51 90 37 37
        E 56 90 47 00
        E 5 90 34 00
        E 5 90 37 00
        E 5 90 37 2a
        E 10 90 40 2b
        E 6 90 2f 00
        E 56 90 40 00
        E 10 90 37 00
        E 0 90 37 37
        E 0 90 4f 2c
        E 5 90 43 33
        E 87 90 4b 21
        E 10 90 3f 3d
        E 15 90 4f 00
        E 0 90 4f 34
        E 36 90 37 00
        E 31 90 3e 50
        E 0 90 3f 00
        E 0 90 4b 00
        E 25 90 4f 00
        E 0 90 4f 32
        E 41 90 43 00
        E 0 90 43 3a
        E 41 90 3e 00
        E 0 90 3e 3c
        E 46 90 37 38
        E 0 90 43 00
        E 0 90 43 33
        E 0 90 4f 00
        E 0 90 4f 2f
        E 51 90 28 00
        E 16 90 30 33
        E 0 90 3c 33
        E 10 90 4f 00
        E 15 90 43 00
        E 56 90 30 00
        E 0 90 30 38
        E 5 90 3c 00
        E 93 90 3e 00
        E 15 90 37 00
        E 16 90 2f 36
        E 0 90 30 00
        E 0 90 3b 35
        E 5 90 34 30
        E 0 90 40 40
        E 25 90 31 2d
        E 51 90 40 00
        E 0 90 40 2c
        E 5 90 2f 00
        E 11 90 31 00
        E 25 90 34 00
        E 0 90 3b 00
        E 26 90 43 32
        E 5 90 3c 38
        E 46 90 40 00
        E 87 90 43 00
        E 51 90 36 3a
        E 92 90 3c 00
        E 0 90 3c 42
        E 10 90 36 00
        E 0 90 37 37
        E 97 90 36 37
        E 0 90 37 00
        E 87 90 34 2e
        E 5 90 3b 3e
        E 0 90 3c 00
        E 31 90 36 00
        E 0 90 37 41
        E 40 90 34 00
        E 16 90 23 3b
        E 10 90 2f 38
        E 0 90 3f 36
        E 5 90 3b 00
        E 15 90 37 00
        E 26 90 39 38
        E 25 90 3f 00
        E 0 90 3f 3a
        E 57 90 36 30
        E 51 90 45 27
        E 51 90 2f 00
        E 26 90 45 00
        E 5 90 23 00
        E 0 90 39 00
        E 0 90 39 3c
        E 0 90 45 26
        E 10 90 36 00
        E 0 90 37 3c
        E 72 90 37 00
        E 0 90 37 3d
        E 25 90 45 00
        E 5 90 39 00
        E 0 90 39 2e
        E 67 90 3f 00
        E 25 90 37 00
        E 0 90 37 4c
        E 57 90 39 00
        E 0 90 39 2d
        E 20 90 2d 33
        E 26 90 36 37
        E 0 90 37 00
        E 5 90 40 3b
        E 87 90 39 00
        E 35 90 2d 00
        E 10 90 28 35
        E 0 90 36 00
        E 67 90 40 00
        E 0 90 40 31
        E 31 90 37 4c
        E 215 90 40 00
        E 10 90 37 00
        E 0 90 37 49
        E 61 90 37 00
        E 0 90 37 41
        E 0 90 40 29
        E 0 90 4c 30
        E 0 90 51 40
        E 67 90 1c 2b
        E 25 90 4c 00
        E 5 90 37 00
        E 0 90 37 4b
        E 26 90 51 00
        E 10 90 40 00
        E 10 90 1c 00
        E 46 90 51 2d
        E 5 90 4a 3b
        E 0 90 4e 3d
        E 5 90 37 00
        E 0 90 37 46
        E 21 90 1c 2a
        E 36 90 3b 30
        E 10 90 51 00
        E 30 90 4e 00
        E 6 90 28 00
        E 10 90 37 00
        E 0 90 37 42
        E 5 90 3b 00
        E 15 90 4a 00
        E 10 90 40 2e
        E 0 90 48 46
        E 0 90 4c 36
        E 21 90 28 27
        E 20 90 1c 00
        E 11 90 3c 32
        E 40 90 40 00
        E 26 90 4c 00
        E 5 90 37 00
        E 0 90 37 37
        E 5 90 3c 00
        E 0 90 4a 3d
        E 5 90 47 40
        E 0 90 48 00
        E 31 90 28 00
        E 10 90 32 2a
        E 5 90 3e 34
        E 46 90 37 00
        E 21 90 3e 00
        E 10 90 47 00
        E 0 90 48 45
        E 5 90 39 38
        E 0 90 45 35
        E 36 90 4a 00
        E 35 90 39 00
        E 0 90 39 40
        E 21 90 45 00
        E 15 90 32 00
        E 5 90 48 00
        E 5 90 47 38
        E 27 90 39 00
        E 0 90 39 35
        E 10 90 43 32
        E 61 90 43 00
        E 31 90 42 3e
        E 0 90 45 2d
        E 15 90 3b 29
        E 56 90 47 00
        E 36 90 3b 00
        E 15 90 39 00
        E 11 90 42 00
        E 20 90 40 4a
        E 0 90 43 39
        E 5 90 37 25
        E 21 90 2d 31
        E 0 90 45 00
        E 40 90 37 00
        E 36 90 2d 00
        E 5 90 34 2f
        E 10 90 3b 2d
        E 41 90 40 00
        E 0 90 40 3a
        E 0 90 4c 3f
        E 51 90 3b 00
        E 0 90 3b 35
        E 41 90 43 00
        E 16 90 34 00
        E 0 90 34 32
        E 5 90 40 00
        E 10 90 4c 00
        E 25 90 4a 4a
        E 6 90 47 2d
        E 5 90 40 2c
        E 46 90 34 00
        E 0 90 34 32
        E 15 90 40 00
        E 5 90 3b 00
        E 36 90 47 00
        E 15 90 2d 31
        E 10 90 48 4c
        E 46 90 38 32
        E 0 90 4a 00
        E 82 90 34 00
        E 0 90 47 39
        E 0 90 48 00
        E 31 90 43 3c
        E 16 90 3c 3d
        E 35 90 38 00
        E 21 90 39 27
        E 10 90 45 40
        E 5 90 2d 00
        E 0 90 3b 29
        E 0 90 3c 00
        E 0 90 43 00
        E 5 90 47 00
        E 5 90 42 39
        E 11 90 3f 34
        E 25 90 39 00
        E 0 90 48 39
        E 15 90 3b 00
        E 0 90 3c 2d
        E 31 90 3f 00
        E 15 90 48 00
        E 6 90 45 00
        E 5 90 42 00
        E 0 90 43 41
        E 5 90 2f 45
        E 0 90 40 30
        E 61 90 39 3b
        E 56 90 3c 00
        E 5 90 42 34
        E 0 90 43 00
        E 21 90 2f 00
        E 0 90 2f 43
        E 0 90 39 00
        E 0 90 39 3c
        E 5 90 3f 30
        E 0 90 40 00
        E 82 90 2f 00
        E 0 90 2f 4a
        E 0 90 3b 2b
        E 0 90 42 00
        E 0 90 47 37
        E 41 90 3f 00
        E 20 90 40 28
        E 41 90 3b 00
        E 0 90 47 00
        E 10 90 39 00
        E 20 90 4f 48
        E 21 90 2f 00
        E 31 90 28 41
        E 0 90 40 00
        E 81 90 30 2d
        E 11 90 4f 00
        E 30 90 36 33
        E 46 90 28 00
        E 56 90 43 2c
        E 0 90 4f 30
        E 16 90 30 00
        E 15 90 28 2a
        E 26 90 36 00
        E 21 90 57 29
        E 5 90 3f 36
        E 35 90 4f 00
        E 6 90 28 00
        E 30 90 1c 32
        E 5 90 43 00
        E 0 90 43 4b
        E 26 90 3e 33
        E 0 90 3f 00
        E 10 90 57 00
        E 15 90 4f 29
        E 36 90 37 2f
        E 0 90 3e 00
        E 0 90 3e 44
        E 0 90 43 00
        E 0 90 43 3c
        E 82 90 37 00
        E 0 90 37 39
        E 0 90 4f 00
        E 15 90 1c 00
        E 26 90 28 27
        E 10 90 43 00
        E 15 90 30 3f
        E 0 90 48 36
        E 26 90 3e 00
        E 0 90 3e 2d
        E 61 90 28 00
        E 0 90 2f 34
        E 0 90 30 00
        E 26 90 3e 00
        E 5 90 37 00
        E 10 90 48 00
        E 0 90 48 29
        E 41 90 2f 00
        E 5 90 2e 3b
        E 5 90 30 2e
        E 26 90 28 29
        E 15 90 48 00
        E 0 90 48 30
        E 87 90 48 00
        E 5 90 28 00
        E 0 90 30 00
        E 5 90 28 27
        E 26 90 2e 00
        E 25 90 4f 39
        E 15 90 2f 28
        E 21 90 28 00
        E 0 90 28 37
        E 10 90 1c 2a
        E 15 90 4f 00
        E 57 90 2f 00
        E 5 90 2f 2d
        E 56 90 37 3f
        E 41 90 2f 00
        E 41 90 4d 39
        E 15 90 28 00
        E 16 90 37 00
        E 0 90 37 31
        E 36 90 4d 00
        E 0 90 4d 38
        E 15 90 3f 2e
        E 51 90 4d 00
        E 5 90 2f 28
        E 21 90 3f 00
        E 5 90 37 00
        E 5 90 36 31
        E 15 90 4e 49
        E 26 90 57 29
        E 15 90 2f 00
        E 10 90 1c 00
        E 10 90 4e 00
        E 5 90 36 00
        E 0 90 3e 2d
        E 6 90 37 33
        E 0 90 4f 3f
        E 40 90 57 00
        E 31 90 3e 00
        E 5 90 4f 00
        E 0 90 4f 36
        E 5 90 4c 3e
        E 0 90 55 32
        E 56 90 37 00
        E 0 90 37 36
        E 16 90 4f 00
        E 0 90 4f 35
        E 25 90 4c 00
        E 11 90 55 00
        E 15 90 57 22
        E 5 90 4b 3c
        E 41 90 2f 3d
        E 10 90 37 00
        E 0 90 37 36
        E 0 90 4f 00
        E 0 90 4f 3d
        E 21 90 57 00
        E 35 90 4b 00
        E 41 90 37 00
        E 15 90 2e 34
        E 0 90 2f 00
        E 36 90 4f 00
        E 0 90 4f 37
        E 72 90 4f 00
        E 0 90 4f 3e
        E 10 90 2e 00
        E 0 90 2f 3b
        E 62 90 4f 00
        E 5 90 2f 00
        E 5 90 2f 3b
        E 0 90 47 41
        E 123 90 4f 4e
        E 10 90 47 00
        E 10 90 1c 35
        E 46 90 5b 2f
        E 61 90 5b 00
        E 21 90 4f 00
        E 5 90 36 31
        E 46 90 1c 00
        E 0 90 2f 00
        E 5 90 26 27
        E 10 90 36 00
        E 46 90 4f 2d
        E 5 90 43 39
        E 51 90 26 00
        E 31 90 43 00
        E 0 90 43 3a
        E 61 90 2f 31
        E 0 90 4f 00
        E 16 90 45 48
        E 0 90 51 37
        E 5 90 3b 30
        E 0 90 43 00
        E 0 90 4e 3f
        E 97 90 2f 00
        E 5 90 47 3b
        E 0 90 4e 00
        E 0 90 51 00
        E 5 90 28 43
        E 10 90 3b 00
        E 10 90 45 00
        E 52 90 28 00
        E 0 90 28 3b
        E 0 90 47 00
        E 0 90 47 3c
        E 5 90 2f 35
        E 61 90 3b 30
        E 10 90 37 3c
        E 57 90 37 00
        E 0 90 37 48
        E 31 90 3b 00
        E 0 90 47 00
        E 20 90 2f 00
        E 92 90 37 00
        E 5 90 26 2b
        E 5 90 32 3e
        E 0 90 45 37
        E 5 90 28 00
        E 128 90 32 00
        E 5 90 43 34
        E 92 90 51 37
        E 26 90 32 2b
        E 5 90 45 00
        E 0 90 45 28
        E 20 90 43 00
        E 0 90 43 32
        E 46 90 51 00
        E 5 90 26 00
        E 5 90 2b 2e
        E 5 90 43 00
        E 21 90 45 00
        E 15 90 32 00
        E 21 90 1f 2c
        E 0 90 2b 00
        E 0 90 2b 34
        E 5 90 47 34
        E 61 90 2b 00
        E 82 90 2b 28
        E 36 90 37 34
        E 15 90 1f 00
        E 61 90 53 31
        E 5 90 47 00
        E 0 90 47 39
        E 67 90 2b 00
        E 26 90 47 00
        E 0 90 47 40
        E 36 90 53 00
        E 5 90 32 2e
        E 25 90 37 00
        E 0 90 37 34
        E 31 90 47 00
        E 0 90 47 39
        E 0 90 53 32
        E 5 90 2b 2a
        E 46 90 40 46
        E 15 90 47 00
        E 16 90 32 00
        E 0 90 3b 3f
        E 30 90 53 00
        E 10 90 35 2c
        E 26 90 37 00
        E 5 90 40 00
        E 0 90 40 3c
        E 72 90 35 00
        E 15 90 33 3b
        E 15 90 40 00
        E 16 90 3f 3b
        E 35 90 2b 00
        E 31 90 3b 00
        E 5 90 3f 00
        E 0 90 3f 2d
        E 41 90 32 3b
        E 0 90 33 00
        E 10 90 45 22
        E 41 90 39 40
        E 31 90 45 00
        E 10 90 3f 00
        E 51 90 39 00
        E 10 90 48 3e
        E 5 90 2d 35
        E 0 90 32 00
        E 5 90 40 2e
        E 26 90 3c 3f
        E 41 90 48 00
        E 71 90 40 00
        E 37 90 36 36
        E 97 90 3c 00
        E 0 90 3c 3e
        E 173 90 36 00
        E 0 90 37 3d
        E 21 90 2d 00
        E 5 90 34 38
        E 0 90 3c 00
        E 15 90 47 2e
        E 5 90 3b 48
        E 103 90 3b 00
        E 10 90 2f 39
        E 10 90 37 00
        E 5 90 34 00
        E 5 90 47 00
        E 5 90 3f 42
        E 26 90 23 37
        E 87 90 36 27
        E 51 90 39 25
        E 5 90 2f 00
        E 51 90 23 00
        E 15 90 39 00
        E 0 90 39 31
        E 31 90 36 00
        E 31 90 3f 00
        E 0 90 3f 39
        E 102 90 36 35
        E 0 90 38 26
        E 0 90 39 00
        E 67 90 38 00
        E 5 90 38 30
        E 77 90 3f 00
        E 20 90 38 00
        E 20 90 36 00
        E 0 90 36 3c
        E 0 90 40 4c
        E 16 90 2d 2a
        E 30 90 38 2f
        E 41 90 40 00
        E 0 90 40 3a
        E 5 90 2d 00
        E 41 90 38 00
        E 26 90 28 36
        E 20 90 36 00
        E 46 90 40 00
        E 0 90 40 3a
        E 10 90 43 36
        E 123 90 43 00
        E 66 90 37 3b
        E 51 90 40 00
        E 67 90 1c 34
        E 87 90 40 2e
        E 30 90 4a 40
        E 5 90 37 00
        E 0 90 37 30
        E 0 90 4f 36
        E 47 90 40 00
        E 15 90 4f 00
        E 11 90 43 27
        E 61 90 40 38
        E 0 90 48 3a
        E 20 90 43 00
        E 67 90 1c 00
        E 5 90 48 00
        E 0 90 4a 00
        E 15 90 40 00
        E 0 90 40 35
        E 0 90 4a 2a
        E 0 90 56 39
        E 5 90 34 31
        E 0 90 43 2c
        E 82 90 4a 00
        E 5 90 43 00
        E 0 90 43 31
        E 21 90 28 00
        E 5 90 34 00
        E 5 90 56 00
        E 35 90 40 00
        E 0 90 4a 27
        E 6 90 37 00
        E 61 90 40 2e
        E 20 90 4a 00
        E 5 90 4a 49
        E 46 90 43 00
        E 6 90 28 2c
        E 51 90 48 3f
        E 71 90 48 00
        E 15 90 40 00
        E 0 90 40 35
        E 0 90 53 3f
        E 6 90 4a 00
        E 10 90 2f 34
        E 15 90 36 39
        E 26 90 28 00
        E 56 90 53 00
        E 5 90 51 2e
        E 5 90 3f 32
        E 0 90 40 00
        E 46 90 36 00
        E 20 90 3f 00
        E 0 90 40 41
        E 16 90 4c 3d
        E 5 90 47 38
        E 21 90 3c 33
        E 20 90 40 00
        E 0 90 40 3d
        E 5 90 51 00
        E 31 90 47 00
        E 0 90 48 29
        E 15 90 4c 00
        E 57 90 2f 00
        E 0 90 3c 00
        E 0 90 48 00
        E 15 90 30 58
        E 5 90 40 00
        E 0 90 40 3d
        E 0 90 53 2e
        E 5 90 48 28
        E 87 90 53 00
        E 5 90 40 00
        E 0 90 40 48
        E 0 90 48 00
        E 5 90 30 00
        E 0 90 30 44
        E 92 90 40 00
        E 0 90 40 3c
        E 10 90 47 45
        E 36 90 4c 34
        E 0 90 58 2e
        E 21 90 40 00
        E 0 90 40 34
        E 81 90 40 00
        E 11 90 4c 00
        E 0 90 58 00
        E 20 90 47 00
        E 5 90 4f 35
        E 5 90 3c 26
        E 0 90 40 2f
        E 5 90 2d 41
        E 51 90 4f 00
        E 16 90 3c 00
        E 5 90 40 00
        E 15 90 51 25
        E 5 90 30 00
        E 31 90 4d 29
        E 25 90 51 00
        E 62 90 4d 00
        E 20 90 3c 38
        E 0 90 43 2f
        E 103 90 43 00
        E 41 90 3c 00
        E 5 90 2d 00
        E 0 90 4c 46
        E 10 90 2f 44
        E 36 90 51 3b
        E 30 90 4e 30
        E 36 90 4b 3b
        E 0 90 4c 00
        E 46 90 38 35
        E 0 90 4e 00
        E 10 90 36 2e
        E 6 90 51 00
        E 10 90 4b 00
        E 20 90 40 41
        E 46 90 2f 00
        E 10 90 51 27
        E 5 90 36 00
        E 0 90 36 3b
        E 41 90 3f 39
        E 0 90 40 00
        E 57 90 51 00
        E 46 90 38 00
        E 10 90 28 31
        E 0 90 3f 00
        E 0 90 40 2e
        E 0 90 4c 28
        E 5 90 4a 3b
        E 20 90 36 00
        E 36 90 40 00
        E 41 90 36 33
        E 0 90 4a 00
        E 20 90 4c 00
        E 41 90 36 00
        E 5 90 28 00
        E 31 90 37 34
        E 0 90 3e 58
        E 51 90 4f 2b
        E 56 90 3e 00
        E 0 90 3e 49
        E 5 90 3c 36
        E 21 90 4f 00
        E 46 90 37 00
        E 10 90 3e 00
        E 0 90 3e 3c
        E 5 90 4a 3e
        E 6 90 3c 00
        E 46 90 28 2e
        E 15 90 37 38
        E 61 90 48 39
        E 31 90 37 00
        E 0 90 37 37
        E 26 90 34 27
        E 0 90 4a 00
        E 30 90 3e 00
        E 0 90 3e 44
        E 36 90 48 00
        E 15 90 34 00
        E 26 90 28 00
        E 56 90 37 00
        E 41 90 47 35
        E 5 90 3b 2e
        E 15 90 28 3c
        E 51 90 3b 00
        E 62 90 33 2a
        E 35 90 3e 00
        E 21 90 3b 2b
        E 36 90 47 00
        E 30 90 30 2d
        E 46 90 33 00
        E 0 90 3b 00
        E 36 90 30 00
        E 31 90 47 31
        E 76 90 34 2b
        E 57 90 34 00
        E 41 90 34 28
        E 0 90 3b 29
        E 0 90 40 2e
        E 20 90 47 00
        E 108 90 34 00
        E 25 90 40 00
        E 16 90 28 00
        E 5 90 28 43
        E 0 90 43 46
        E 0 90 4f 41
        E 5 90 3b 00
        E 46 90 37 32
        E 61 90 41 32
        E 0 90 4d 2d
        E 5 90 3b 28
        E 5 90 43 00
        E 0 90 43 32
        E 0 90 4f 00
        E 46 90 39 36
        E 5 90 41 00
        E 0 90 41 31
        E 11 90 3b 00
        E 5 90 4d 00
        E 5 90 37 00
        E 15 90 3c 3c
        E 36 90 43 00
        E 0 90 43 2e
        E 0 90 48 2a
        E 20 90 39 00
        E 0 90 39 3e
        E 36 90 41 00
        E 26 90 3c 00
        E 15 90 43 00
        E 5 90 39 00
        E 20 90 40 37
        E 0 90 48 00
        E 0 90 4c 2d
        E 11 90 2f 34
        E 5 90 28 00
        E 0 90 28 38
        E 46 90 4c 00
        E 56 90 3f 34
        E 0 90 40 00
        E 15 90 39 2b
        E 16 90 2f 00
        E 0 90 36 3e
        E 61 90 39 00
        E 0 90 3f 00
        E 0 90 3f 34
        E 15 90 38 34
        E 5 90 28 00
        E 31 90 36 00
        E 0 90 36 40
        E 26 90 28 2d
        E 0 90 3f 00
        E 0 90 3f 45
        E 36 90 38 00
        E 0 90 38 33
        E 56 90 28 00
        E 15 90 38 00
        E 31 90 3f 00
        E 0 90 40 57
        E 5 90 36 00
        E 0 90 37 43
        E 215 90 40 00
        E 0 90 40 4d
        E 76 90 3e 3c
        E 97 90 40 00
        E 0 90 40 4d
        E 77 90 3e 00
        E 0 90 3e 41
        E 31 90 40 00
        E 0 90 40 4d
        E 56 90 3d 2e
        E 0 90 3e 00
        E 41 90 40 00
        E 0 90 40 4b
        E 76 90 3d 00
        E 5 90 3c 2d
        E 0 90 43 34
        E 21 90 40 00
        E 0 90 40 50
        E 72 90 3c 00
        E 10 90 37 00
        E 10 90 43 00
        E 5 90 40 00
        E 0 90 40 3f
        E 0 90 43 3c
        E 21 90 39 34
        E 87 90 43 00
        E 0 90 43 41
        E 20 90 37 30
        E 0 90 40 00
        E 0 90 40 43
        E 36 90 39 00
        E 10 90 3b 35
        E 56 90 40 00
        E 0 90 40 48
        E 0 90 43 00
        E 0 90 43 3a
        E 51 90 37 00
        E 11 90 39 39
        E 0 90 3b 00
        E 76 90 40 00
        E 0 90 40 49
        E 5 90 3b 40
        E 5 90 43 00
        E 11 90 39 00
        E 15 90 34 2d
        E 66 90 37 44
        E 6 90 3b 00
        E 0 90 3b 33
        E 5 90 40 00
        E 0 90 40 2c
        E 61 90 40 00
        E 31 90 34 00
        E 5 90 34 33
        E 5 90 37 00
        E 0 90 37 38
        E 41 90 3b 00
        E 25 90 37 00
        E 0 90 37 34
        E 56 90 2f 3c
        E 31 90 37 00
        E 15 90 28 29
        E 6 90 34 00
        E 20 90 2b 33
        E 0 90 2f 00
        E 0 90 2f 3c
        E 67 90 37 29
        E 61 90 28 00
        E 0 90 28 38
        E 5 90 37 00
        E 21 90 2f 00
        E 15 90 37 24
        E 10 90 30 22
        E 21 90 28 00
        E 0 90 28 41
        E 15 90 24 2b
        E 10 90 2b 00
        E 16 90 30 00
        E 15 90 37 00
        E 31 90 28 00
        E 0 90 28 30
        E 15 90 24 00
        E 123 90 1c 30
        E 15 90 2f 2c
        E 128 90 2f 00
        E 56 90 28 00
        E 0 90 28 37
        E 0 90 4f 3a
        E 5 90 40 4d
        E 41 90 37 3f
        E 35 90 40 00
        E 0 90 40 36
        E 52 90 4f 00
        E 189 90 40 00
        E 26 90 28 00
        E 153 90 1c 00
        E 5 90 37 00
        E 45 b0 7b 00
        CCINTERP 32
        CHASE_CC_TAKEOFFS 1
        GUID {C2F949AB-1DB5-4DB3-B36C-8201785ED0A3}
        IGNTEMPO 0 120 4 4
        SRCCOLOR 217
      >
    >
  >
  <UINF 117
    <ITEM {E614481E-FB20-49D6-AAE5-3F759AC251CC}
      POSITION 0
      SNAPOFFS 0
      LENGTH 214.5
      LOOP 1
      ALLTAKES 0
      FADEIN 1 0 0 1 0 0 0
      FADEOUT 1 0 0 1 0 0 0
      MUTE 0 0
      SEL 1
      IGUID {E614481E-FB20-49D6-AAE5-3F759AC251CC}
      IID 134
      NAME "Gwyn, Lord of Cinder_basic_pitch.mid"
      VOLPAN 1 0 1 -1
      SOFFS 0 0
      PLAYRATE 1 1 0 -1 0 0.0025
      CHANMODE 0
      GUID {21C3840F-76B9-4CCA-8907-CE12D2A6F882}
      <SOURCE MIDI
        HASDATA 1 220 QN
        CCINTERP 32
        POOLEDEVTS {7B63AA91-2331-416D-954D-D71A8642F8D2}
        E 0 c0 04 00
        E 143 90 3c 59
        E 0 90 41 49
        E 5 90 2d 50
        E 107 90 2d 00
        E 0 90 2d 3e
        E 0 90 34 4c
        E 0 90 3b 4b
        E 0 90 3c 00
        E 92 90 34 00
        E 0 90 34 30
        E 16 90 3b 00
        E 0 90 41 00
        E 0 90 41 43
        E 5 90 2d 00
        E 0 90 2d 37
        E 10 90 39 42
        E 0 90 3c 50
        E 0 90 45 35
        E 0 90 4c 3a
        E 0 90 58 47
        E 97 90 28 37
        E 10 90 3b 3e
        E 0 90 3c 00
        E 0 90 4c 00
        E 62 90 34 00
        E 0 90 58 00
        E 25 90 28 00
        E 0 90 45 00
        E 15 90 3b 00
        E 11 90 4a 42
        E 0 90 56 38
        E 5 90 3c 45
        E 0 90 41 00
        E 0 90 41 3a
        E 5 90 45 37
        E 31 90 28 2e
        E 66 90 39 00
        E 0 90 56 00
        E 10 90 3b 47
        E 0 90 3c 00
        E 107 90 4a 00
        E 6 90 2d 00
        E 0 90 2d 40
        E 0 90 3b 00
        E 5 90 3c 39
        E 10 90 41 00
        E 0 90 41 2f
        E 0 90 45 00
        E 0 90 45 47
        E 0 90 51 2b
        E 87 90 51 00
        E 11 90 28 00
        E 0 90 39 24
        E 5 90 28 32
        E 0 90 34 29
        E 0 90 3b 2f
        E 0 90 3c 00
        E 66 90 34 00
        E 0 90 3b 00
        E 46 90 2d 00
        E 0 90 2d 40
        E 0 90 3c 33
        E 0 90 41 00
        E 0 90 41 44
        E 5 90 39 00
        E 5 90 39 30
        E 5 90 45 00
        E 0 90 45 36
        E 97 90 3b 39
        E 0 90 3c 00
        E 118 90 3b 00
        E 0 90 3c 43
        E 5 90 41 00
        E 0 90 41 39
        E 0 90 45 00
        E 87 90 39 00
        E 20 90 3b 45
        E 0 90 3c 00
        E 5 90 45 32
        E 92 90 45 00
        E 26 90 3b 00
        E 0 90 3c 4c
        E 0 90 41 00
        E 0 90 41 40
        E 51 90 28 00
        E 0 90 2d 00
        E 0 90 2d 39
        E 56 90 28 36
        E 0 90 34 2b
        E 10 90 3b 40
        E 0 90 3c 00
        E 92 90 3b 00
        E 16 90 41 00
        E 0 90 41 3c
        E 16 90 39 3a
        E 0 90 3c 4f
        E 0 90 45 31
        E 0 90 4c 35
        E 0 90 58 43
        E 91 90 3b 42
        E 0 90 3c 00
        E 11 90 4c 00
        E 46 90 2d 00
        E 5 90 34 00
        E 30 90 3b 00
        E 21 90 58 00
        E 5 90 3c 45
        E 5 90 41 00
        E 0 90 41 32
        E 0 90 4a 3a
        E 0 90 56 33
        E 26 90 2d 34
        E 40 90 39 00
        E 31 90 3b 41
        E 0 90 3c 00
        E 87 90 45 00
        E 20 90 41 00
        E 0 90 56 00
        E 11 90 2d 00
        E 5 90 2d 54
        E 0 90 4f 3c
        E 5 90 41 2a
        E 20 90 28 00
        E 0 90 3b 00
        E 0 90 3c 4a
        E 0 90 5b 2d
        E 56 90 41 00
        E 26 90 34 2b
        E 0 90 3b 38
        E 0 90 3c 00
        E 15 90 28 34
        E 51 90 34 00
        E 31 90 3b 00
        E 15 90 3c 41
        E 0 90 41 3c
        E 6 90 4a 00
        E 0 90 4f 00
        E 5 90 2d 00
        E 0 90 2d 3e
        E 0 90 39 3e
        E 0 90 45 34
        E 25 90 5b 00
        E 82 90 3b 3d
        E 0 90 3c 00
        E 92 90 3b 00
        E 6 90 45 00
        E 10 90 3c 48
        E 5 90 39 00
        E 0 90 39 30
        E 0 90 41 00
        E 0 90 41 49
        E 0 90 4d 37
        E 82 90 39 00
        E 15 90 4d 00
        E 20 90 3b 49
        E 0 90 3c 00
        E 87 90 28 00
        E 5 90 41 00
        E 16 90 2d 00
        E 0 90 2d 4a
        E 0 90 4c 39
        E 0 90 58 3e
        E 5 90 39 31
        E 0 90 40 2f
        E 0 90 43 31
        E 5 90 3e 30
        E 10 90 3b 00
        E 61 90 40 00
        E 31 90 3c 40
        E 5 90 34 37
        E 0 90 4c 00
        E 5 90 43 00
        E 5 90 58 00
        E 21 90 3e 00
        E 66 90 34 00
        E 10 90 28 29
        E 11 90 3e 42
        E 0 90 43 3d
        E 5 90 39 00
        E 0 90 39 3b
        E 5 90 2d 00
        E 0 90 2d 3e
        E 41 90 28 00
        E 56 90 3c 00
        E 0 90 3c 40
        E 10 90 43 00
        E 21 90 48 29
        E 91 90 43 34
        E 6 90 3e 00
        E 0 90 3e 3b
        E 56 90 48 00
        E 36 90 3c 00
        E 0 90 3c 42
        E 61 90 39 00
        E 57 90 2d 00
        E 0 90 2d 4d
        E 0 90 39 26
        E 0 90 43 00
        E 0 90 43 3c
        E 5 90 3e 00
        E 0 90 3e 3f
        E 81 90 39 00
        E 6 90 3e 00
        E 15 90 34 2c
        E 0 90 43 00
        E 5 90 3c 00
        E 0 90 3c 40
        E 71 90 3e 3d
        E 31 90 34 00
        E 15 90 43 36
        E 6 90 2d 00
        E 0 90 2d 41
        E 0 90 39 38
        E 107 90 3c 00
        E 0 90 3c 3a
        E 20 90 43 00
        E 97 90 3e 00
        E 5 90 3e 44
        E 0 90 43 37
        E 26 90 39 00
        E 77 90 3c 00
        E 0 90 3c 46
        E 10 90 3e 00
        E 0 90 3e 3d
        E 20 90 43 00
        E 87 90 2d 00
        E 0 90 2d 52
        E 0 90 3c 00
        E 0 90 3c 33
        E 0 90 43 36
        E 5 90 3e 00
        E 0 90 3e 52
        E 62 90 3e 00
        E 0 90 3e 45
        E 45 90 3c 00
        E 0 90 3c 39
        E 6 90 34 2d
        E 77 90 28 2e
        E 36 90 2d 00
        E 0 90 2d 44
        E 0 90 43 00
        E 0 90 43 3d
        E 5 90 3e 00
        E 0 90 3e 4e
        E 102 90 3c 00
        E 0 90 3c 46
        E 0 90 48 2a
        E 5 90 3e 00
        E 0 90 3e 43
        E 20 90 34 00
        E 0 90 43 00
        E 21 90 39 2e
        E 30 90 28 00
        E 36 90 3e 00
        E 0 90 3e 58
        E 0 90 43 3a
        E 113 90 3c 00
        E 0 90 3c 48
        E 0 90 3e 00
        E 0 90 3e 45
        E 0 90 48 00
        E 0 90 48 31
        E 61 90 39 00
        E 51 90 43 00
        E 0 90 43 43
        E 5 90 2d 00
        E 0 90 2d 4d
        E 0 90 3c 00
        E 0 90 3c 30
        E 0 90 3e 00
        E 0 90 3e 3f
        E 87 90 28 2a
        E 10 90 34 39
        E 10 90 3c 00
        E 0 90 3c 38
        E 11 90 43 00
        E 30 90 48 00
        E 16 90 28 00
        E 61 90 43 41
        E 5 90 2d 00
        E 0 90 2d 48
        E 0 90 39 3a
        E 0 90 3e 00
        E 0 90 3e 51
        E 92 90 28 29
        E 11 90 3e 00
        E 0 90 3e 4c
        E 0 90 48 2e
        E 5 90 3c 00
        E 0 90 3c 3d
        E 30 90 43 00
        E 46 90 28 00
        E 11 90 34 00
        E 5 90 48 00
        E 15 90 43 41
        E 5 90 39 00
        E 0 90 39 36
        E 0 90 3e 00
        E 0 90 3e 4b
        E 26 90 30 27
        E 66 90 39 00
        E 15 90 30 00
        E 0 90 3c 00
        E 0 90 3c 47
        E 0 90 48 2b
        E 6 90 30 29
        E 5 90 3e 00
        E 0 90 3e 41
        E 35 90 43 00
        E 31 90 30 00
        E 21 90 48 00
        E 10 90 41 46
        E 5 90 2d 00
        E 0 90 2d 40
        E 5 90 3c 00
        E 0 90 3c 46
        E 15 90 3e 00
        E 87 90 28 2e
        E 10 90 34 38
        E 0 90 3b 43
        E 0 90 3c 00
        E 26 90 41 00
        E 71 90 34 00
        E 0 90 3b 00
        E 21 90 41 2e
        E 5 90 2d 00
        E 0 90 2d 36
        E 0 90 39 41
        E 0 90 3c 3e
        E 0 90 45 34
        E 5 90 4c 3a
        E 0 90 58 43
        E 31 90 34 29
        E 66 90 3b 40
        E 0 90 3c 00
        E 21 90 4c 00
        E 40 90 34 00
        E 6 90 2d 00
        E 10 90 58 00
        E 5 90 28 00
        E 10 90 3b 00
        E 26 90 3c 3e
        E 0 90 41 00
        E 0 90 41 3c
        E 5 90 28 2e
        E 0 90 45 00
        E 0 90 45 2d
        E 0 90 4a 46
        E 0 90 56 30
        E 30 90 2d 31
        E 16 90 39 00
        E 51 90 3b 3b
        E 0 90 3c 00
        E 16 90 56 00
        E 20 90 45 00
        E 51 90 28 00
        E 26 90 2d 00
        E 0 90 4a 00
        E 5 90 2d 45
        E 5 90 41 00
        E 0 90 41 38
        E 5 90 3b 00
        E 0 90 3c 38
        E 0 90 45 49
        E 0 90 51 38
        E 15 90 28 2e
        E 72 90 51 00
        E 15 90 4a 34
        E 5 90 28 00
        E 0 90 28 36
        E 0 90 3b 30
        E 0 90 3c 00
        E 92 90 3b 00
        E 26 90 4a 00
        E 5 90 39 2f
        E 0 90 3c 38
        E 0 90 41 00
        E 0 90 41 36
        E 0 90 45 00
        E 0 90 45 2f
        E 5 90 2d 00
        E 0 90 2d 3e
        E 77 90 3c 00
        E 25 90 3b 3e
        E 102 90 28 00
        E 0 90 3b 00
        E 5 90 3c 41
        E 0 90 41 00
        E 0 90 41 46
        E 62 90 39 00
        E 51 90 3b 36
        E 0 90 3c 00
        E 41 90 2d 00
        E 10 90 28 29
        E 41 90 45 00
        E 20 90 3b 00
        E 0 90 41 00
        E 0 90 41 3b
        E 5 90 3c 31
        E 21 90 2d 38
        E 57 90 28 00
        E 20 90 28 35
        E 0 90 3c 00
        E 5 90 3b 39
        E 97 90 3b 00
        E 21 90 3c 46
        E 0 90 41 00
        E 0 90 41 3a
        E 10 90 45 37
        E 0 90 4c 34
        E 0 90 58 4b
        E 5 90 39 3d
        E 87 90 4c 00
        E 5 90 28 00
        E 0 90 28 3f
        E 5 90 3b 33
        E 0 90 3c 00
        E 97 90 28 00
        E 5 90 3b 00
        E 0 90 58 00
        E 21 90 3c 35
        E 5 90 28 31
        E 0 90 41 00
        E 0 90 41 39
        E 0 90 45 00
        E 0 90 45 2f
        E 0 90 4a 41
        E 0 90 56 3d
        E 20 90 39 00
        E 41 90 45 00
        E 31 90 28 00
        E 0 90 28 37
        E 0 90 3c 00
        E 5 90 3b 34
        E 0 90 56 00
        E 112 90 3b 00
        E 5 90 2d 00
        E 0 90 2d 4f
        E 0 90 3c 42
        E 0 90 41 00
        E 0 90 41 2c
        E 0 90 4f 3e
        E 21 90 5b 34
        E 61 90 4a 00
        E 15 90 28 00
        E 0 90 28 39
        E 5 90 5b 00
        E 6 90 34 31
        E 5 90 2d 00
        E 0 90 2d 49
        E 30 90 41 00
        E 56 90 4f 00
        E 11 90 3c 00
        E 0 90 3c 3a
        E 10 90 41 37
        E 5 90 39 3a
        E 0 90 45 2e
        E 5 90 2d 00
        E 0 90 2d 3d
        E 98 90 3b 38
        E 0 90 3c 00
        E 10 90 45 00
        E 66 90 3b 00
        E 5 90 34 00
        E 36 90 3c 41
        E 5 90 41 00
        E 0 90 41 49
        E 5 90 39 00
        E 0 90 39 33
        E 0 90 4d 3f
        E 98 90 39 00
        E 10 90 3b 42
        E 0 90 3c 00
        E 0 90 4d 00
        E 112 90 2d 00
        E 0 90 2d 48
        E 0 90 43 30
        E 5 90 3b 00
        E 0 90 3e 30
        E 0 90 40 29
        E 0 90 41 00
        E 0 90 4c 36
        E 0 90 58 39
        E 5 90 3c 2d
        E 26 90 28 00
        E 66 90 28 2f
        E 5 90 34 31
        E 11 90 43 00
        E 5 90 3c 00
        E 0 90 3c 3c
        E 0 90 40 00
        E 5 90 58 00
        E 102 90 39 3c
        E 5 90 2d 00
        E 0 90 2d 48
        E 0 90 3e 00
        E 0 90 3e 41
        E 0 90 43 31
        E 0 90 4c 00
        E 112 90 3c 00
        E 0 90 3c 47
        E 11 90 43 00
        E 20 90 28 00
        E 82 90 34 00
        E 6 90 43 36
        E 0 90 48 2e
        E 5 90 3e 00
        E 0 90 3e 39
        E 81 90 48 00
        E 26 90 3c 00
        E 0 90 3c 43
        E 5 90 39 00
        E 0 90 39 2f
        E 61 90 39 00
        E 41 90 2d 00
        E 0 90 2d 4b
        E 0 90 43 00
        E 0 90 43 3b
        E 10 90 3e 00
        E 0 90 3e 4c
        E 6 90 3c 00
        E 91 90 3c 42
        E 6 90 34 3a
        E 0 90 48 27
        E 46 90 43 00
        E 40 90 34 00
        E 16 90 48 00
        E 15 90 2d 00
        E 0 90 2d 43
        E 0 90 3c 00
        E 0 90 3c 33
        E 0 90 43 39
        E 5 90 39 36
        E 0 90 3e 00
        E 0 90 3e 4a
        E 102 90 3c 00
        E 0 90 3c 39
        E 0 90 3e 00
        E 0 90 3e 40
        E 0 90 48 30
        E 118 90 43 00
        E 0 90 43 3b
        E 0 90 48 00
        E 0 90 48 32
        E 5 90 3e 00
        E 0 90 3e 4e
        E 112 90 3c 00
        E 0 90 3c 44
        E 0 90 48 00
        E 0 90 48 2a
        E 62 90 48 00
        E 5 90 43 00
        E 31 90 39 00
        E 0 90 39 32
        E 0 90 3e 00
        E 5 90 2d 00
        E 0 90 2d 48
        E 5 90 3c 00
        E 0 90 3c 38
        E 0 90 40 3d
        E 0 90 45 3b
        E 5 90 58 37
        E 82 90 40 00
        E 15 90 58 00
        E 5 90 3e 31
        E 6 90 34 39
        E 0 90 3c 00
        E 107 90 45 00
        E 0 90 45 47
        E 5 90 2d 00
        E 0 90 2d 3f
        E 0 90 34 00
        E 0 90 34 34
        E 0 90 39 00
        E 0 90 39 3e
        E 0 90 40 33
        E 97 90 40 00
        E 10 90 3e 00
        E 0 90 3e 48
        E 118 90 40 39
        E 0 90 45 00
        E 0 90 45 42
        E 5 90 39 00
        E 0 90 39 33
        E 36 90 34 00
        E 71 90 3e 00
        E 0 90 3e 38
        E 61 90 39 00
        E 46 90 2d 00
        E 0 90 2d 54
        E 5 90 40 00
        E 0 90 40 39
        E 0 90 45 00
        E 0 90 45 3e
        E 108 90 34 3a
        E 5 90 28 2d
        E 0 90 3e 00
        E 0 90 3e 39
        E 25 90 40 00
        E 78 90 2d 00
        E 0 90 2d 4c
        E 0 90 45 00
        E 0 90 45 3f
        E 5 90 39 41
        E 0 90 40 38
        E 107 90 3e 00
        E 0 90 3e 4a
        E 0 90 40 00
        E 82 90 34 00
        E 10 90 28 00
        E 36 90 2d 00
        E 0 90 2d 41
        E 0 90 34 2b
        E 0 90 39 00
        E 0 90 39 31
        E 0 90 40 35
        E 0 90 45 00
        E 0 90 45 46
        E 5 90 51 42
        E 56 90 34 00
        E 46 90 51 00
        E 5 90 3e 00
        E 0 90 3e 42
        E 0 90 45 00
        E 0 90 45 2d
        E 21 90 40 00
        E 97 90 2d 00
        E 0 90 2d 51
        E 0 90 39 00
        E 5 90 41 40
        E 0 90 47 35
        E 0 90 4c 44
        E 5 90 58 39
        E 46 90 3e 00
        E 10 90 45 00
        E 0 90 47 00
        E 26 90 4c 00
        E 10 90 34 48
        E 5 90 40 44
        E 0 90 41 00
        E 107 90 40 00
        E 0 90 41 4a
        E 5 90 2d 00
        E 0 90 2d 4e
        E 0 90 34 00
        E 0 90 34 3b
        E 0 90 39 3b
        E 87 90 45 2c
        E 15 90 58 00
        E 6 90 40 40
        E 0 90 41 00
        E 87 90 45 00
        E 25 90 34 00
        E 0 90 34 39
        E 0 90 40 00
        E 0 90 40 31
        E 0 90 47 41
        E 57 90 39 00
        E 41 90 34 00
        E 0 90 34 3a
        E 5 90 40 00
        E 0 90 40 50
        E 56 90 47 00
        E 41 90 34 00
        E 20 90 47 33
        E 5 90 2d 00
        E 0 90 2d 54
        E 5 90 4c 2c
        E 5 90 40 00
        E 0 90 40 38
        E 0 90 58 41
        E 67 90 28 24
        E 10 90 47 00
        E 10 90 2d 00
        E 0 90 2d 46
        E 0 90 34 3b
        E 5 90 4c 00
        E 46 90 40 00
        E 0 90 41 2a
        E 26 90 28 00
        E 31 90 34 00
        E 0 90 58 00
        E 10 90 41 00
        E 5 90 2d 00
        E 0 90 2d 42
        E 0 90 39 3e
        E 0 90 41 48
        E 0 90 47 34
        E 5 90 45 28
        E 0 90 4d 3a
        E 5 90 34 2b
        E 10 90 28 2b
        E 62 90 45 00
        E 25 90 40 36
        E 0 90 41 00
        E 26 90 4d 00
        E 51 90 47 00
        E 5 90 28 00
        E 5 90 34 00
        E 15 90 39 00
        E 11 90 4f 41
        E 5 90 2d 00
        E 0 90 2d 52
        E 0 90 40 00
        E 0 90 41 35
        E 5 90 48 45
        E 36 90 39 2b
        E 61 90 40 2d
        E 0 90 41 00
        E 21 90 39 00
        E 61 90 40 00
        E 26 90 41 41
        E 5 90 2d 00
        E 0 90 2d 58
        E 0 90 4a 32
        E 5 90 4c 34
        E 10 90 48 00
        E 15 90 58 3e
        E 41 90 4c 00
        E 16 90 40 35
        E 0 90 41 00
        E 0 90 4a 00
        E 5 90 34 3a
        E 25 90 4f 00
        E 67 90 58 00
        E 10 90 40 00
        E 10 90 34 00
        E 5 90 41 48
        E 5 90 2d 00
        E 0 90 2d 4f
        E 0 90 39 3b
        E 97 90 40 38
        E 0 90 41 00
        E 46 90 4a 25
        E 62 90 4a 00
        E 5 90 4a 33
        E 10 90 40 00
        E 0 90 41 49
        E 20 90 28 2e
        E 41 90 39 00
        E 41 90 40 43
        E 0 90 41 00
        E 67 90 28 00
        E 20 90 4a 00
        E 26 90 48 38
        E 5 90 2d 00
        E 0 90 2d 51
        E 5 90 40 00
        E 97 90 34 31
        E 0 90 40 2e
        E 67 90 40 00
        E 25 90 28 2c
        E 21 90 39 2f
        E 0 90 45 1f
        E 0 90 48 00
        E 0 90 48 2c
        E 0 90 4a 32
        E 0 90 56 49
        E 61 90 45 00
        E 66 90 56 00
        E 6 90 41 2b
        E 10 90 4a 00
        E 56 90 39 00
        E 5 90 34 00
        E 21 90 48 00
        E 0 90 48 50
        E 5 90 41 00
        E 5 90 41 44
        E 112 90 40 3d
        E 0 90 41 00
        E 72 90 28 00
        E 15 90 40 00
        E 20 90 41 30
        E 0 90 47 3f
        E 0 90 48 00
        E 6 90 2d 00
        E 0 90 2d 42
        E 15 90 53 3e
        E 66 90 41 00
        E 5 90 47 00
        E 21 90 34 3e
        E 5 90 40 37
        E 10 90 53 00
        E 87 90 40 00
        E 5 90 28 2e
        E 10 90 41 4b
        E 0 90 47 39
        E 11 90 39 42
        E 0 90 45 27
        E 66 90 28 00
        E 6 90 47 00
        E 15 90 39 00
        E 0 90 39 2f
        E 5 90 34 00
        E 0 90 34 38
        E 0 90 40 45
        E 0 90 41 00
        E 51 90 45 00
        E 15 90 28 27
        E 46 90 40 00
        E 0 90 41 57
        E 6 90 34 00
        E 0 90 34 2f
        E 0 90 47 3c
        E 71 90 28 00
        E 0 90 39 00
        E 31 90 40 57
        E 0 90 41 00
        E 92 90 34 00
        E 10 90 2d 00
        E 0 90 2d 47
        E 5 90 31 2a
        E 5 90 40 00
        E 0 90 41 46
        E 5 90 47 00
        E 0 90 47 3a
        E 56 90 31 00
        E 41 90 34 39
        E 0 90 47 00
        E 92 90 34 00
        E 16 90 28 29
        E 0 90 41 00
        E 0 90 41 4f
        E 5 90 34 2b
        E 0 90 39 35
        E 0 90 45 25
        E 66 90 28 00
        E 41 90 45 00
        E 5 90 34 00
        E 0 90 34 30
        E 0 90 40 3f
        E 0 90 41 00
        E 72 90 34 00
        E 40 90 40 00
        E 0 90 41 49
        E 0 90 48 40
        E 6 90 45 27
        E 77 90 45 00
        E 20 90 2d 00
        E 0 90 2d 45
        E 0 90 40 4a
        E 0 90 41 00
        E 87 90 39 00
        E 20 90 40 00
        E 0 90 41 4d
        E 6 90 2d 00
        E 0 90 2d 51
        E 0 90 4a 35
        E 20 90 48 00
        E 71 90 28 29
        E 0 90 2d 00
        E 0 90 2d 4f
        E 6 90 34 2a
        E 5 90 40 38
        E 0 90 41 00
        E 5 90 4a 00
        E 71 90 34 00
        E 36 90 2d 00
        E 0 90 2d 45
        E 0 90 40 00
        E 0 90 41 41
        E 0 90 4a 31
        E 5 90 39 30
        E 0 90 45 26
        E 97 90 45 00
        E 5 90 34 2e
        E 0 90 39 00
        E 0 90 39 33
        E 0 90 40 36
        E 0 90 41 00
        E 67 90 28 00
        E 30 90 34 00
        E 0 90 40 00
        E 21 90 41 52
        E 0 90 4a 00
        E 0 90 4a 39
        E 41 90 28 2a
        E 41 90 4a 00
        E 0 90 4a 3c
        E 20 90 40 4e
        E 0 90 41 00
        E 36 90 39 00
        E 30 90 28 00
        E 36 90 4a 00
        E 5 90 39 31
        E 0 90 4c 40
        E 10 90 40 00
        E 0 90 41 2f
        E 6 90 2d 00
        E 0 90 2d 5b
        E 51 90 4c 00
        E 10 90 39 00
        E 5 90 41 00
        E 21 90 40 41
        E 5 90 34 3a
        E 107 90 40 00
        E 0 90 41 4c
        E 6 90 2d 00
        E 0 90 2d 4f
        E 5 90 39 47
        E 0 90 45 25
        E 66 90 45 00
        E 41 90 2d 00
        E 0 90 2d 4a
        E 0 90 40 2f
        E 0 90 41 00
        E 97 90 34 00
        E 15 90 51 3d
        E 5 90 39 00
        E 0 90 39 35
        E 0 90 45 40
        E 41 90 40 00
        E 0 90 40 35
        E 16 90 51 00
        E 46 90 40 00
        E 0 90 40 4e
        E 25 90 51 30
        E 56 90 4c 33
        E 16 90 51 00
        E 20 90 2d 00
        E 0 90 2d 47
        E 0 90 39 00
        E 0 90 39 36
        E 0 90 58 44
        E 5 90 40 00
        E 0 90 41 39
        E 31 90 45 00
        E 20 90 4c 00
        E 36 90 28 2a
        E 5 90 40 4e
        E 0 90 41 00
        E 5 90 34 3f
        E 0 90 58 00
        E 62 90 28 00
        E 51 90 40 00
        E 0 90 41 4e
        E 0 90 4c 21
        E 5 90 39 00
        E 0 90 39 30
        E 10 90 45 31
        E 46 90 4c 00
        E 46 90 34 00
        E 0 90 34 37
        E 0 90 40 48
        E 0 90 41 00
        E 26 90 45 00
        E 10 90 28 26
        E 77 90 39 00
        E 0 90 39 3d
        E 0 90 4c 2f
        E 5 90 40 00
        E 0 90 41 53
        E 36 90 28 00
        E 35 90 34 00
        E 26 90 2d 00
        E 0 90 2d 48
        E 0 90 40 3f
        E 0 90 41 00
        E 102 90 39 00
        E 0 90 39 30
        E 5 90 4c 00
        E 0 90 4c 4d
        E 0 90 58 41
        E 21 90 2d 00
        E 0 90 2d 3c
        E 0 90 40 00
        E 0 90 41 44
        E 71 90 39 00
        E 16 90 40 48
        E 0 90 41 00
        E 5 90 34 37
        E 0 90 58 00
        E 10 90 4c 00
        E 61 90 34 00
        E 26 90 4d 41
        E 5 90 40 00
        E 0 90 41 43
        E 10 90 39 44
        E 5 90 45 2a
        E 10 90 2d 00
        E 0 90 2d 49
        E 92 90 40 3e
        E 0 90 41 00
        E 36 90 45 00
        E 46 90 4d 00
        E 15 90 40 00
        E 16 90 4f 47
        E 10 90 39 00
        E 0 90 39 36
        E 0 90 40 29
        E 0 90 4c 30
        E 82 90 4c 00
        E 16 90 40 00
        E 0 90 40 36
        E 86 90 39 00
        E 5 90 39 2d
        E 11 90 2d 00
        E 0 90 2d 57
        E 0 90 4a 2d
        E 10 90 40 00
        E 0 90 40 26
        E 0 90 4c 3a
        E 5 90 58 45
        E 61 90 4c 00
        E 5 90 39 00
        E 16 90 2d 00
        E 0 90 2d 4f
        E 0 90 40 00
        E 0 90 40 38
        E 0 90 4a 00
        E 15 90 34 33
        E 36 90 4f 00
        E 56 90 34 00
        E 10 90 4a 32
        E 10 90 2d 00
        E 0 90 2d 4d
        E 0 90 40 00
        E 0 90 40 36
        E 6 90 45 2e
        E 25 90 58 00
        E 67 90 2d 00
        E 0 90 2d 3d
        E 0 90 34 2a
        E 0 90 40 00
        E 0 90 40 4c
        E 10 90 28 2e
        E 71 90 28 00
        E 5 90 34 00
        E 26 90 4a 00
        E 0 90 4a 3a
        E 10 90 40 00
        E 0 90 41 4b
        E 15 90 45 00
        E 16 90 39 2d
        E 61 90 28 34
        E 5 90 40 52
        E 0 90 41 00
        E 36 90 39 00
        E 36 90 28 00
        E 41 90 47 44
        E 5 90 2d 00
        E 0 90 2d 53
        E 0 90 40 00
        E 0 90 41 40
        E 25 90 4a 00
        E 62 90 28 26
        E 5 90 34 48
        E 0 90 40 3e
        E 0 90 41 00
        E 5 90 47 00
        E 77 90 28 00
        E 5 90 40 00
        E 26 90 41 56
        E 0 90 4d 30
        E 5 90 34 00
        E 0 90 34 35
        E 0 90 47 35
        E 5 90 2d 00
        E 0 90 2d 4f
        E 0 90 39 2d
        E 71 90 4d 00
        E 46 90 40 30
        E 0 90 41 00
        E 16 90 47 00
        E 51 90 40 00
        E 20 90 4f 49
        E 10 90 41 4c
        E 0 90 47 35
        E 113 90 40 30
        E 0 90 41 00
        E 56 90 39 00
        E 10 90 47 00
        E 15 90 34 00
        E 0 90 40 00
        E 26 90 2d 00
        E 0 90 2d 56
        E 0 90 41 36
        E 5 90 51 30
        E 0 90 5d 35
        E 56 90 4f 00
        E 41 90 34 38
        E 5 90 40 34
        E 0 90 41 00
        E 36 90 5d 00
        E 51 90 40 00
        E 26 90 2d 00
        E 0 90 2d 52
        E 0 90 39 31
        E 0 90 41 37
        E 0 90 48 3a
        E 0 90 51 00
        E 108 90 34 00
        E 0 90 34 33
        E 0 90 41 00
        E 5 90 40 37
        E 112 90 40 00
        E 0 90 41 4b
        E 5 90 48 00
        E 0 90 48 35
        E 72 90 34 00
        E 30 90 34 2c
        E 0 90 40 43
        E 0 90 41 00
        E 26 90 39 00
        E 20 90 48 00
        E 21 90 34 00
        E 10 90 51 30
        E 20 90 40 00
        E 11 90 5d 36
        E 5 90 31 26
        E 5 90 41 4e
        E 5 90 2d 00
        E 0 90 2d 4e
        E 20 90 51 00
        E 41 90 31 00
        E 31 90 34 2f
        E 5 90 2d 00
        E 0 90 2d 45
        E 5 90 40 33
        E 0 90 41 00
        E 5 90 5d 00
        E 51 90 34 00
        E 36 90 40 00
        E 0 90 48 32
        E 0 90 4f 49
        E 5 90 5b 26
        E 5 90 41 3b
        E 10 90 39 33
        E 72 90 5b 00
        E 31 90 2d 00
        E 0 90 2d 46
        E 5 90 40 36
        E 0 90 41 00
        E 81 90 39 00
        E 6 90 4f 00
        E 10 90 40 00
        E 0 90 4d 30
        E 25 90 41 51
        E 0 90 48 00
        E 0 90 48 42
        E 93 90 4d 00
        E 10 90 40 3e
        E 0 90 41 00
        E 102 90 2d 00
        E 0 90 4c 3d
        E 5 90 58 44
        E 5 90 39 28
        E 6 90 40 00
        E 0 90 41 34
        E 5 90 47 34
        E 0 90 48 00
        E 10 90 2d 49
        E 76 90 39 00
        E 0 90 47 00
        E 11 90 41 00
        E 5 90 34 34
        E 0 90 4c 00
        E 5 90 40 39
        E 31 90 28 2c
        E 86 90 2d 00
        E 0 90 2d 47
        E 0 90 40 00
        E 0 90 41 49
        E 0 90 45 2c
        E 6 90 39 39
        E 35 90 58 00
        E 16 90 28 00
        E 46 90 45 00
        E 5 90 34 00
        E 0 90 34 2f
        E 5 90 40 3d
        E 0 90 41 00
        E 71 90 39 00
        E 36 90 39 26
        E 0 90 47 32
        E 5 90 40 00
        E 0 90 40 38
        E 56 90 39 00
        E 11 90 34 00
        E 40 90 40 00
        E 0 90 40 41
        E 118 90 2d 00
        E 0 90 2d 4d
        E 0 90 40 00
        E 0 90 41 4e
        E 0 90 47 00
        E 0 90 47 3b
        E 77 90 47 00
        E 21 90 34 48
        E 5 90 39 2a
        E 0 90 40 40
        E 0 90 41 00
        E 112 90 40 00
        E 0 90 41 55
        E 5 90 2d 00
        E 0 90 2d 49
        E 0 90 39 00
        E 0 90 39 40
        E 97 90 34 00
        E 0 90 34 3c
        E 5 90 40 3f
        E 0 90 41 00
        E 118 90 34 00
        E 0 90 34 34
        E 0 90 40 00
        E 0 90 41 53
        E 5 90 47 36
        E 61 90 47 00
        E 36 90 28 2d
        E 5 90 39 00
        E 0 90 39 2c
        E 0 90 40 4d
        E 0 90 41 00
        E 5 90 2d 00
        E 0 90 2d 45
        E 0 90 34 00
        E 0 90 34 3e
        E 72 90 39 00
        E 5 90 28 00
        E 25 90 34 00
        E 6 90 2d 00
        E 0 90 2d 48
        E 0 90 3c 49
        E 0 90 40 00
        E 0 90 41 45
        E 112 90 28 31
        E 10 90 34 2d
        E 0 90 3b 3d
        E 0 90 3c 00
        E 102 90 3b 00
        E 5 90 28 00
        E 0 90 28 33
        E 5 90 39 26
        E 0 90 3c 53
        E 0 90 41 00
        E 0 90 41 37
        E 0 90 45 3b
        E 0 90 58 48
        E 73 90 34 00
        E 20 90 3b 3d
        E 0 90 3c 00
        E 77 90 45 00
        E 15 90 58 00
        E 5 90 39 00
        E 5 90 3b 00
        E 16 90 3c 41
        E 0 90 41 00
        E 0 90 41 4b
        E 0 90 56 3b
        E 51 90 45 31
        E 46 90 28 00
        E 0 90 28 37
        E 5 90 3b 47
        E 0 90 3c 00
        E 87 90 45 00
        E 5 90 28 00
        E 10 90 56 00
        E 15 90 41 00
        E 0 90 41 36
        E 5 90 3b 00
        E 0 90 3c 45
        E 5 90 2d 00
        E 0 90 2d 43
        E 0 90 51 42
        E 97 90 28 33
        E 0 90 34 2f
        E 11 90 3b 42
        E 0 90 3c 00
        E 5 90 51 00
        E 0 90 51 33
        E 66 90 51 00
        E 31 90 3b 00
        E 5 90 41 00
        E 0 90 41 47
        E 5 90 2d 00
        E 0 90 2d 3e
        E 0 90 3c 3d
        E 5 90 39 36
        E 0 90 45 2f
        E 97 90 28 00
        E 0 90 28 36
        E 5 90 3b 3b
        E 0 90 3c 00
        E 102 90 3b 00
        E 11 90 3c 48
        E 0 90 41 00
        E 0 90 41 42
        E 56 90 45 00
        E 16 90 28 00
        E 0 90 39 00
        E 5 90 34 00
        E 25 90 3c 00
        E 6 90 3b 53
        E 20 90 28 2a
        E 56 90 2d 00
        E 0 90 2d 40
        E 36 90 3b 00
        E 0 90 3c 2b
        E 0 90 43 30
        E 5 90 3e 35
        E 10 90 41 00
        E 21 90 2d 00
        E 0 90 2d 47
        E 10 90 28 00
        E 20 90 43 00
        E 36 90 34 3c
        E 5 90 3c 00
        E 0 90 3c 43
        E 97 90 34 00
        E 21 90 3c 00
        E 0 90 3c 46
        E 0 90 43 37
        E 10 90 3e 00
        E 0 90 3e 3f
        E 5 90 39 37
        E 0 90 58 44
        E 15 90 21 33
        E 5 90 34 31
        E 77 90 3c 00
        E 0 90 3c 46
        E 5 90 21 00
        E 36 90 43 00
        E 20 90 58 00
        E 5 90 34 00
        E 46 90 43 3b
        E 6 90 56 39
        E 5 90 3e 00
        E 0 90 3e 4a
        E 51 90 39 00
        E 25 90 56 00
        E 21 90 3c 00
        E 0 90 3c 4b
        E 112 90 3c 00
        E 0 90 3c 41
        E 1 90 2d 00
        E 0 90 2d 4f
        E 10 90 3e 00
        E 0 90 3e 3d
        E 0 90 5b 3f
        E 5 90 43 00
        E 0 90 43 41
        E 92 90 34 3b
        E 0 90 5b 00
        E 5 90 3c 00
        E 0 90 3c 41
        E 5 90 43 00
        E 0 90 48 2e
        E 113 90 43 42
        E 5 90 2d 00
        E 0 90 2d 43
        E 0 90 39 36
        E 0 90 3e 00
        E 0 90 3e 4e
        E 97 90 3c 00
        E 0 90 3c 3f
        E 56 90 48 00
        E 46 90 34 00
        E 10 90 43 00
        E 0 90 43 44
        E 10 90 3e 00
        E 0 90 3e 50
        E 5 90 59 34
        E 72 90 59 00
        E 26 90 3c 00
        E 0 90 3c 4d
        E 0 90 43 00
        E 0 90 43 39
        E 0 90 48 2a
        E 10 90 3e 00
        E 0 90 3e 3b
        E 56 90 48 00
        E 5 90 39 00
        E 20 90 43 00
        E 16 90 41 37
        E 15 90 2d 00
        E 0 90 2d 30
        E 5 90 3c 00
        E 0 90 3c 42
        E 0 90 58 3f
        E 26 90 3e 00
        E 56 90 28 33
        E 5 90 34 28
        E 10 90 3b 35
        E 0 90 3c 00
        E 62 90 34 00
        E 25 90 3b 00
        E 16 90 41 00
        E 0 90 41 3d
        E 5 90 3c 3c
        E 5 90 39 2e
        E 0 90 45 34
        E 31 90 3e 29
        E 41 90 2d 00
        E 5 90 58 00
        E 15 90 3e 00
        E 21 90 3b 37
        E 0 90 3c 00
        E 112 90 3b 00
        E 0 90 3c 4d
        E 0 90 41 00
        E 0 90 41 3f
        E 10 90 2d 2f
        E 67 90 39 00
        E 25 90 3b 42
        E 0 90 3c 00
        E 46 90 2d 00
        E 10 90 45 00
        E 51 90 41 00
        E 0 90 41 44
        E 11 90 2d 41
        E 0 90 3b 00
        E 0 90 3c 3b
        E 35 90 28 00
        E 62 90 34 30
        E 5 90 28 3c
        E 0 90 3c 00
        E 5 90 3b 3e
        E 87 90 34 00
        E 15 90 28 00
        E 0 90 41 00
        E 0 90 41 42
        E 5 90 2d 00
        E 0 90 2d 3a
        E 5 90 39 3a
        E 0 90 3b 00
        E 0 90 3c 2f
        E 92 90 3c 00
        E 16 90 28 38
        E 5 90 3b 3b
        E 87 90 3b 00
        E 15 90 3c 46
        E 6 90 41 00
        E 0 90 41 48
        E 35 90 39 00
        E 72 90 28 00
        E 0 90 28 35
        E 0 90 3b 43
        E 0 90 3c 00
        E 107 90 3e 34
        E 0 90 43 2a
        E 5 90 2d 00
        E 0 90 2d 4c
        E 0 90 41 00
        E 5 90 58 45
        E 46 90 3b 00
        E 5 90 28 00
        E 46 90 34 29
        E 5 90 3c 45
        E 16 90 43 00
        E 30 90 58 00
        E 36 90 34 00
        E 36 90 2d 00
        E 0 90 2d 47
        E 0 90 43 33
        E 5 90 39 36
        E 0 90 3e 00
        E 0 90 3e 40
        E 41 90 34 27
        E 66 90 3c 00
        E 0 90 3c 4a
        E 57 90 34 00
        E 56 90 43 00
        E 0 90 43 3e
        E 5 90 3e 00
        E 0 90 3e 3e
        E 61 90 39 00
        E 41 90 48 33
        E 5 90 3c 00
        E 0 90 3c 40
        E 103 90 48 00
        E 5 90 2d 00
        E 0 90 2d 50
        E 5 90 43 00
        E 0 90 43 38
        E 5 90 3e 00
        E 0 90 3e 3f
        E 21 90 30 2f
        E 66 90 30 00
        E 5 90 34 37
        E 10 90 3c 00
        E 0 90 3c 40
        E 5 90 3e 00
        E 0 90 48 2e
        E 103 90 48 00
        E 5 90 43 00
        E 0 90 43 3b
        E 5 90 2d 00
        E 0 90 2d 49
        E 0 90 39 32
        E 0 90 3e 43
        E 87 90 21 2a
        E 20 90 3c 00
        E 0 90 3c 44
        E 0 90 48 28
        E 87 90 34 00
        E 26 90 3c 00
        E 0 90 3c 46
        E 0 90 43 00
        E 0 90 43 3a
        E 0 90 48 00
        E 0 90 48 28
        E 5 90 3e 00
        E 0 90 3e 4c
        E 15 90 28 2a
        E 82 90 21 00
        E 10 90 3c 00
        E 0 90 3c 3a
        E 0 90 3e 00
        E 0 90 3e 45
        E 0 90 48 00
        E 0 90 48 35
        E 20 90 28 00
        E 87 90 39 00
        E 0 90 48 00
        E 5 90 34 39
        E 0 90 47 40
        E 5 90 2d 00
        E 0 90 2d 33
        E 0 90 40 30
        E 5 90 28 50
        E 41 90 3e 00
        E 16 90 34 00
        E 15 90 3c 00
        E 10 90 2d 00
        E 21 90 37 43
        E 5 90 28 00
        E 0 90 28 52
        E 15 90 43 00
        E 15 90 34 31
        E 57 90 40 00
        E 10 90 3b 46
        E 0 90 47 00
        E 0 90 47 2b
        E 11 90 28 00
        E 0 90 28 53
        E 92 90 37 00
        E 0 90 37 3b
        E 0 90 3b 00
        E 0 90 3c 5a
        E 0 90 47 00
        E 0 90 48 2c
        E 5 90 28 00
        E 0 90 28 4c
        E 66 90 34 00
        E 26 90 48 00
        E 5 90 28 00
        E 0 90 28 4e
        E 0 90 3b 4f
        E 0 90 3c 00
        E 20 90 30 2a
        E 82 90 30 00
        E 5 90 30 2b
        E 5 90 28 00
        E 0 90 28 4a
        E 0 90 37 00
        E 0 90 37 4a
        E 0 90 3b 00
        E 0 90 3b 45
        E 36 90 47 3d
        E 20 90 30 00
        E 36 90 3b 00
        E 0 90 3b 2b
        E 5 90 28 00
        E 0 90 28 42
        E 10 90 30 2d
        E 16 90 47 00
        E 0 90 53 36
        E 5 90 34 3b
        E 0 90 37 00
        E 0 90 37 43
        E 0 90 40 32
        E 0 90 47 46
        E 66 90 53 00
        E 21 90 30 00
        E 5 90 28 00
        E 0 90 28 4b
        E 0 90 37 00
        E 0 90 37 4a
        E 87 90 47 00
        E 15 90 3b 00
        E 0 90 3b 51
        E 5 90 28 00
        E 0 90 28 51
        E 97 90 28 00
        E 0 90 28 46
        E 5 90 37 00
        E 0 90 37 49
        E 0 90 3b 00
        E 0 90 3b 45
        E 0 90 48 2e
        E 5 90 30 2c
        E 26 90 40 00
        E 52 90 34 00
        E 10 90 48 00
        E 10 90 3b 00
        E 0 90 3b 49
        E 5 90 28 00
        E 0 90 28 3e
        E 0 90 47 29
        E 102 90 37 00
        E 0 90 37 3c
        E 31 90 47 00
        E 46 90 30 00
        E 36 90 28 00
        E 0 90 28 31
        E 0 90 3b 00
        E 0 90 3c 3c
        E 0 90 48 4d
        E 0 90 54 23
        E 5 90 30 27
        E 0 90 34 3a
        E 0 90 40 2d
        E 87 90 54 00
        E 5 90 28 00
        E 20 90 37 00
        E 0 90 37 43
        E 0 90 40 00
        E 46 90 30 00
        E 56 90 3b 5a
        E 0 90 3c 00
        E 5 90 48 00
        E 11 90 28 3a
        E 86 90 48 37
        E 6 90 37 00
        E 0 90 37 3c
        E 5 90 3b 00
        E 0 90 3b 42
        E 107 90 3b 00
        E 0 90 3b 56
        E 46 90 48 00
        E 10 90 34 00
        E 51 90 3b 00
        E 0 90 3b 39
        E 5 90 37 00
        E 0 90 37 4a
        E 98 90 34 31
        E 0 90 4a 32
        E 5 90 37 00
        E 0 90 37 48
        E 107 90 37 00
        E 0 90 37 45
        E 108 90 3b 00
        E 0 90 3b 4c
        E 86 90 28 00
        E 31 90 3b 00
        E 0 90 3b 3b
        E 67 90 4a 00
        E 35 90 3b 00
        E 0 90 3b 40
        E 16 90 28 34
        E 61 90 34 00
        E 41 90 37 00
        E 0 90 37 41
        E 71 90 28 00
        E 5 90 26 2e
        E 16 90 37 00
        E 10 90 41 3c
        E 0 90 47 36
        E 5 90 32 37
        E 56 90 3b 00
        E 67 90 35 35
        E 10 90 41 00
        E 0 90 47 00
        E 77 90 39 41
        E 107 90 3b 37
        E 123 90 39 00
        E 0 90 39 3a
        E 102 90 35 00
        E 5 90 35 3b
        E 51 90 26 00
        E 41 90 3b 00
        E 0 90 3b 33
        E 5 90 47 3b
        E 21 90 26 30
        E 15 90 32 00
        E 0 90 32 48
        E 41 90 47 00
        E 143 90 3b 00
        E 20 90 39 00
        E 0 90 39 44
        E 92 90 26 00
        E 16 90 3b 3f
        E 5 90 32 00
        E 0 90 32 3b
        E 97 90 39 00
        E 0 90 39 4c
        E 174 90 3b 00
        E 10 90 3e 2b
        E 26 90 39 00
        E 0 90 41 37
        E 5 90 26 2f
        E 0 90 32 00
        E 0 90 32 44
        E 0 90 35 00
        E 0 90 35 40
        E 0 90 48 33
        E 56 90 3e 00
        E 92 90 48 00
        E 56 90 41 00
        E 5 90 39 3f
        E 108 90 3b 3d
        E 10 90 26 00
        E 76 90 41 29
        E 16 90 39 00
        E 0 90 39 41
        E 71 90 41 00
        E 123 90 3b 00
        E 6 90 35 00
        E 15 90 32 00
        E 0 90 32 51
        E 0 90 41 3a
        E 0 90 45 30
        E 0 90 56 23
        E 5 90 4a 3c
        E 41 90 39 00
        E 20 90 56 00
        E 41 90 35 43
        E 5 90 45 00
        E 0 90 4a 00
        E 5 90 26 2d
        E 0 90 41 00
        E 92 90 39 51
        E 97 90 26 00
        E 21 90 41 3f
        E 5 90 32 00
        E 0 90 32 3a
        E 0 90 35 00
        E 0 90 35 38
        E 0 90 39 00
        E 0 90 39 3d
        E 0 90 3b 39
        E 0 90 45 41
        E 235 90 41 00
        E 25 90 32 00
        E 16 90 3b 00
        E 5 90 45 00
        E 5 90 40 38
        E 0 90 47 1b
        E 5 90 39 00
        E 10 90 35 00
        E 26 90 43 46
        E 20 90 28 47
        E 0 90 47 00
        E 0 90 47 42
        E 108 90 37 39
        E 25 90 47 00
        E 15 90 43 00
        E 47 90 34 33
        E 10 90 3b 41
        E 108 90 3b 00
        E 0 90 3c 59
        E 0 90 48 32
        E 102 90 3b 48
        E 0 90 3c 00
        E 76 90 34 00
        E 0 90 40 00
        E 0 90 43 2f
        E 5 90 48 00
        E 26 90 37 00
        E 0 90 37 43
        E 31 90 43 00
        E 56 90 3b 00
        E 0 90 3c 2b
        E 41 90 34 48
        E 0 90 40 3d
        E 0 90 47 42
        E 20 90 28 00
        E 0 90 28 49
        E 67 90 47 00
        E 5 90 37 00
        E 0 90 37 42
        E 0 90 3c 00
        E 5 90 3c 3e
        E 0 90 40 00
        E 0 90 40 37
        E 97 90 28 00
        E 0 90 28 41
        E 0 90 34 00
        E 0 90 34 3c
        E 0 90 3b 58
        E 0 90 3c 00
        E 107 90 3b 00
        E 0 90 3c 5a
        E 0 90 40 00
        E 0 90 48 2d
        E 103 90 3b 4b
        E 0 90 3c 00
        E 61 90 48 00
        E 10 90 34 00
        E 36 90 37 00
        E 0 90 37 46
        E 0 90 3b 00
        E 0 90 3b 37
        E 77 90 3b 00
        E 20 90 34 33
        E 0 90 37 00
        E 0 90 37 2f
        E 0 90 3c 44
        E 0 90 40 3f
        E 0 90 43 3c
        E 5 90 28 00
        E 0 90 28 41
        E 0 90 48 4c
        E 108 90 37 00
        E 0 90 37 3c
        E 10 90 48 00
        E 0 90 48 3c
        E 41 90 43 00
        E 51 90 28 00
        E 0 90 28 49
        E 0 90 3b 4f
        E 0 90 3c 00
        E 107 90 40 00
        E 0 90 48 00
        E 0 90 48 34
        E 25 90 3b 00
        E 0 90 3c 5b
        E 82 90 3b 4e
        E 0 90 3c 00
        E 5 90 28 00
        E 0 90 28 3b
        E 72 90 34 00
        E 41 90 37 00
        E 0 90 37 46
        E 5 90 3b 00
        E 0 90 3c 42
        E 71 90 48 00
        E 26 90 28 00
        E 0 90 28 46
        E 0 90 40 3e
        E 5 90 37 00
        E 0 90 37 48
        E 0 90 43 3a
        E 0 90 4a 3c
        E 0 90 4f 27
        E 5 90 34 2f
        E 0 90 3c 00
        E 0 90 3c 35
        E 0 90 56 2a
        E 62 90 56 00
        E 26 90 3c 00
        E 5 90 4f 00
        E 10 90 37 00
        E 0 90 37 49
        E 0 90 4a 00
        E 30 90 43 00
        E 77 90 28 00
        E 0 90 28 43
        E 0 90 2f 23
        E 0 90 34 00
        E 0 90 34 3a
        E 0 90 3b 51
        E 61 90 2f 00
        E 41 90 48 2e
        E 5 90 37 00
        E 0 90 37 3a
        E 5 90 3b 00
        E 0 90 3b 39
        E 103 90 34 00
        E 0 90 34 3c
        E 0 90 3b 00
        E 0 90 3b 57
        E 81 90 40 00
        E 6 90 34 00
        E 15 90 37 00
        E 0 90 37 43
        E 5 90 3b 00
        E 0 90 3c 3e
        E 31 90 48 00
        E 20 90 28 00
        E 26 90 37 00
        E 15 90 3c 00
        E 0 90 41 44
        E 10 90 3b 3a
        E 5 90 47 34
        E 16 90 32 3d
        E 46 90 3b 00
        E 45 90 35 38
        E 16 90 41 00
        E 25 90 47 00
        E 67 90 39 3d
        E 97 90 3e 2c
        E 6 90 3b 38
        E 107 90 39 00
        E 0 90 39 38
        E 51 90 3e 00
        E 31 90 32 00
        E 30 90 35 00
        E 5 90 35 3d
        E 77 90 47 3a
        E 20 90 2d 2d
        E 11 90 32 51
        E 56 90 2d 00
        E 97 90 47 00
        E 46 90 3b 00
        E 20 90 32 00
        E 0 90 32 42
        E 0 90 39 00
        E 0 90 39 47
        E 102 90 3b 3f
        E 108 90 32 00
        E 0 90 32 38
        E 0 90 39 00
        E 0 90 39 48
        E 82 90 32 00
        E 25 90 35 00
        E 0 90 35 3e
        E 92 90 35 00
        E 0 90 35 37
        E 0 90 41 3a
        E 6 90 26 2f
        E 0 90 32 4a
        E 0 90 48 34
        E 5 90 39 00
        E 20 90 3b 00
        E 107 90 35 00
        E 0 90 35 3f
        E 5 90 48 00
        E 26 90 41 00
        E 56 90 32 00
        E 0 90 32 46
        E 0 90 39 3c
        E 16 90 3e 2a
        E 61 90 26 00
        E 25 90 3b 41
        E 11 90 32 00
        E 0 90 32 43
        E 107 90 39 00
        E 0 90 39 42
        E 71 90 3e 00
        E 31 90 32 00
        E 0 90 32 38
        E 5 90 35 00
        E 0 90 35 43
        E 72 90 3b 00
        E 10 90 35 00
        E 10 90 39 00
        E 10 90 41 3e
        E 5 90 32 00
        E 0 90 32 4a
        E 0 90 45 39
        E 0 90 4a 38
        E 41 90 26 2a
        E 37 90 45 00
        E 20 90 35 36
        E 10 90 4a 00
        E 92 90 35 00
        E 5 90 35 2d
        E 5 90 32 00
        E 0 90 32 3a
        E 0 90 39 44
        E 0 90 41 00
        E 0 90 41 3c
        E 6 90 45 35
        E 91 90 3b 3c
        E 36 90 26 00
        E 31 90 35 00
        E 41 90 41 00
        E 0 90 41 3d
        E 0 90 56 2d
        E 5 90 32 00
        E 0 90 32 2f
        E 0 90 3b 00
        E 0 90 45 00
        E 0 90 45 36
        E 0 90 4a 47
        E 5 90 39 00
        E 0 90 39 4a
        E 61 90 32 00
        E 0 90 56 00
        E 31 90 4a 00
        E 5 90 41 00
        E 0 90 41 3f
        E 5 90 35 42
        E 0 90 39 00
        E 0 90 39 3f
        E 0 90 45 00
        E 0 90 45 40
        E 102 90 39 00
        E 16 90 34 3a
        E 0 90 35 00
        E 0 90 45 00
        E 0 90 45 41
        E 0 90 47 2d
        E 5 90 2d 40
        E 20 90 41 00
        E 46 90 47 00
        E 51 90 39 2a
        E 102 90 39 00
        E 6 90 34 00
        E 0 90 34 3c
        E 0 90 39 35
        E 0 90 45 00
        E 0 90 45 50
        E 0 90 47 32
        E 107 90 47 00
        E 62 90 39 00
        E 41 90 34 00
        E 0 90 34 3a
        E 0 90 39 2d
        E 0 90 45 00
        E 0 90 45 57
        E 0 90 47 36
        E 214 90 45 00
        E 0 90 45 5a
        E 5 90 47 00
        E 0 90 47 3c
        E 36 90 39 00
        E 169 90 34 00
        E 5 90 45 00
        E 0 90 45 5e
        E 5 90 34 33
        E 0 90 47 00
        E 0 90 47 49
        E 219 90 45 00
        E 0 90 45 59
        E 6 90 47 00
        E 0 90 47 43
        E 10 90 39 2b
        E 159 90 39 00
        E 5 90 34 00
        E 25 90 47 00
        E 16 90 3b 4b
        E 0 90 45 00
        E 0 90 45 55
        E 46 90 28 30
        E 102 90 28 00
        E 51 90 47 2c
        E 5 90 3b 00
        E 0 90 3b 50
        E 0 90 45 00
        E 0 90 45 50
        E 56 90 47 00
        E 159 90 3b 00
        E 0 90 3b 55
        E 0 90 45 00
        E 0 90 45 55
        E 30 90 28 2e
        E 77 90 28 00
        E 76 90 2d 00
        E 26 90 45 00
        E 0 90 45 56
        E 5 90 3b 00
        E 0 90 3b 5a
        E 31 90 2d 33
        E 174 90 45 00
        E 0 90 45 55
        E 5 90 3b 00
        E 0 90 3b 52
        E 0 90 47 2c
        E 87 90 47 00
        E 133 90 3b 00
        E 0 90 3b 51
        E 0 90 45 00
        E 0 90 45 55
        E 179 90 2d 00
        E 35 90 47 30
        E 5 90 3b 00
        E 0 90 3c 43
        E 0 90 45 00
        E 0 90 45 51
        E 41 90 2d 2c
        E 31 90 47 00
        E 92 90 2d 00
        E 41 90 47 33
        E 5 90 3c 00
        E 0 90 3c 4a
        E 0 90 45 00
        E 0 90 45 54
        E 92 90 47 00
        E 118 90 3c 00
        E 0 90 3c 39
        E 0 90 45 00
        E 0 90 45 52
        E 214 90 3c 00
        E 0 90 3c 47
        E 0 90 45 00
        E 0 90 45 55
        E 210 90 3c 00
        E 0 90 3c 4a
        E 0 90 45 00
        E 0 90 45 52
        E 0 90 48 2e
        E 92 90 48 00
        E 112 90 3c 00
        E 0 90 3c 46
        E 0 90 45 00
        E 0 90 45 55
        E 0 90 48 2a
        E 97 90 48 00
        E 113 90 3c 00
        E 0 90 3c 49
        E 0 90 45 00
        E 0 90 45 54
        E 210 90 47 32
        E 5 90 3c 00
        E 0 90 3c 41
        E 0 90 45 00
        E 0 90 45 4f
        E 81 90 47 00
        E 128 90 3c 00
        E 0 90 3c 4d
        E 0 90 45 00
        E 0 90 45 57
        E 0 90 48 2a
        E 97 90 48 00
        E 118 90 3c 00
        E 0 90 3c 43
        E 0 90 45 00
        E 0 90 45 4e
        E 210 90 45 00
        E 0 90 45 54
        E 5 90 3b 49
        E 0 90 3c 00
        E 220 90 3b 00
        E 0 90 3c 46
        E 0 90 45 00
        E 0 90 45 4c
        E 189 90 3c 00
        E 5 90 4c 1f
        E 5 90 2d 47
        E 0 90 40 3b
        E 5 90 3e 3f
        E 5 90 47 39
        E 10 90 45 00
        E 5 90 58 3b
        E 41 90 4c 00
        E 41 90 34 34
        E 5 90 47 00
        E 15 90 58 00
        E 87 90 39 3e
        E 0 90 40 00
        E 82 90 45 2e
        E 15 90 28 36
        E 5 90 3b 41
        E 46 90 45 00
        E 67 90 3b 00
        E 0 90 3c 38
        E 46 90 34 00
        E 41 90 3e 00
        E 26 90 28 00
        E 76 90 4c 38
        E 11 90 39 00
        E 15 90 28 34
        E 0 90 34 26
        E 5 90 3e 3f
        E 0 90 40 53
        E 0 90 45 2d
        E 0 90 47 37
        E 46 90 4c 00
        E 61 90 47 00
        E 31 90 34 00
        E 5 90 28 00
        E 56 90 3e 00
        E 0 90 3e 2c
        E 0 90 40 00
        E 0 90 40 41
        E 0 90 47 2d
        E 0 90 4d 3d
        E 67 90 47 00
        E 20 90 45 00
        E 31 90 3c 00
        E 92 90 3c 3c
        E 5 90 2d 00
        E 0 90 2d 49
        E 0 90 40 00
        E 0 90 40 35
        E 0 90 4f 45
        E 97 90 4d 00
        E 10 90 3e 00
        E 87 90 3c 00
        E 10 90 39 29
        E 0 90 4c 33
        E 5 90 3e 37
        E 0 90 40 00
        E 0 90 40 38
        E 5 90 2d 00
        E 0 90 2d 57
        E 0 90 47 39
        E 6 90 58 36
        E 46 90 4c 00
        E 5 90 39 00
        E 36 90 34 33
        E 31 90 4f 00
        E 15 90 58 00
        E 25 90 47 00
        E 36 90 39 37
        E 5 90 2d 00
        E 0 90 2d 44
        E 21 90 28 23
        E 41 90 40 00
        E 10 90 34 00
        E 25 90 28 00
        E 5 90 28 30
        E 0 90 3b 44
        E 62 90 40 2a
        E 56 90 3b 00
        E 0 90 3c 3d
        E 82 90 40 00
        E 61 90 28 00
        E 20 90 39 00
        E 36 90 34 2b
        E 0 90 47 3e
        E 5 90 3e 00
        E 0 90 3e 3e
        E 0 90 40 49
        E 87 90 34 00
        E 31 90 45 27
        E 56 90 47 00
        E 15 90 3c 00
        E 16 90 2d 00
        E 0 90 2d 36
        E 0 90 45 00
        E 5 90 32 2a
        E 0 90 3e 00
        E 0 90 3e 3d
        E 0 90 40 00
        E 0 90 40 3f
        E 0 90 45 45
        E 205 90 3c 31
        E 0 90 48 4d
        E 5 90 45 00
        E 0 90 45 37
        E 122 90 45 00
        E 31 90 32 00
        E 0 90 3c 00
        E 61 90 34 28
        E 0 90 3e 00
        E 0 90 3e 44
        E 5 90 2d 00
        E 0 90 2d 45
        E 0 90 40 00
        E 0 90 40 32
        E 0 90 47 3a
        E 0 90 48 00
        E 0 90 56 2e
        E 72 90 56 00
        E 15 90 34 00
        E 0 90 34 3a
        E 87 90 40 00
        E 0 90 47 00
        E 41 90 39 35
        E 0 90 40 2b
        E 5 90 58 34
        E 61 90 34 00
        E 21 90 40 00
        E 5 90 28 3b
        E 0 90 3b 37
        E 0 90 58 00
        E 82 90 28 00
        E 35 90 47 4b
        E 6 90 3b 00
        E 0 90 3c 37
        E 10 90 3e 00
        E 10 90 28 36
        E 0 90 34 2a
        E 57 90 34 00
        E 25 90 47 00
        E 21 90 40 33
        E 10 90 28 00
        E 20 90 39 00
        E 51 90 40 00
        E 6 90 28 34
        E 0 90 34 27
        E 0 90 3e 46
        E 0 90 40 3e
        E 0 90 47 37
        E 163 90 28 00
        E 255 90 47 00
        E 6 90 34 00
        E 137 90 3c 00
        E 57 90 2d 00
        E 0 90 2d 4a
        E 5 90 3e 00
        E 0 90 3e 3f
        E 0 90 40 00
        E 0 90 40 39
        E 0 90 47 3b
        E 71 90 40 00
        E 21 90 34 38
        E 46 90 40 28
        E 51 90 39 31
        E 0 90 47 00
        E 21 90 28 33
        E 76 90 40 00
        E 11 90 3b 49
        E 86 90 34 00
        E 6 90 39 00
        E 10 90 3b 00
        E 0 90 3c 3b
        E 0 90 48 2a
        E 148 90 48 00
        E 10 90 28 00
        E 41 90 34 2b
        E 0 90 3e 00
        E 0 90 3e 47
        E 0 90 40 4a
        E 0 90 47 3b
        E 77 90 34 00
        E 25 90 45 2c
        E 67 90 45 00
        E 0 90 47 00
        E 40 90 34 2f
        E 0 90 3e 00
        E 0 90 3e 46
        E 0 90 40 00
        E 0 90 40 53
        E 0 90 45 34
        E 0 90 48 3c
        E 6 90 3c 00
        E 0 90 3c 33
        E 137 90 48 00
        E 6 90 34 00
        E 15 90 3c 00
        E 41 90 3e 00
        E 0 90 3e 3d
        E 0 90 4a 36
        E 5 90 2d 00
        E 0 90 2d 42
        E 6 90 40 00
        E 0 90 40 4e
        E 10 90 45 00
        E 0 90 45 48
        E 41 90 4a 00
        E 51 90 48 2c
        E 81 90 2d 00
        E 21 90 48 00
        E 5 90 2b 4e
        E 0 90 32 34
        E 0 90 3e 00
        E 0 90 3e 38
        E 0 90 40 00
        E 0 90 40 3d
        E 0 90 48 45
        E 20 90 45 00
        E 0 90 45 39
        E 77 90 3e 00
        E 10 90 32 00
        E 0 90 32 4e
        E 0 90 45 00
        E 102 90 2b 00
        E 0 90 2b 3d
        E 92 90 3e 30
        E 6 90 48 00
        E 15 90 39 41
        E 0 90 45 25
        E 61 90 45 00
        E 51 90 3b 4b
        E 31 90 3e 00
        E 159 90 3b 00
        E 15 90 39 00
        E 5 90 32 00
        E 0 90 32 31
        E 0 90 48 40
        E 10 90 40 00
        E 0 90 40 4d
        E 6 90 58 3b
        E 35 90 2b 00
        E 31 90 32 00
        E 46 90 3e 2d
        E 31 90 48 00
        E 10 90 58 00
        E 41 90 4d 38
        E 5 90 40 00
        E 0 90 40 49
        E 0 90 47 32
        E 25 90 3e 00
        E 57 90 2b 2f
        E 61 90 2b 00
        E 0 90 4d 00
        E 46 90 47 00
        E 20 90 32 2b
        E 0 90 45 45
        E 5 90 40 00
        E 0 90 40 48
        E 0 90 4f 37
        E 200 90 32 00
        E 0 90 4f 00
        E 15 90 2b 40
        E 0 90 40 00
        E 0 90 40 49
        E 15 90 47 3b
        E 0 90 4c 3a
        E 5 90 45 00
        E 0 90 58 37
        E 72 90 1f 2e
        E 5 90 4c 00
        E 15 90 58 00
        E 21 90 32 43
        E 0 90 47 00
        E 41 90 1f 00
        E 31 90 37 29
        E 0 90 45 43
        E 5 90 32 00
        E 0 90 32 42
        E 0 90 40 00
        E 0 90 40 3c
        E 36 90 2b 00
        E 56 90 39 3b
        E 5 90 37 00
        E 5 90 2b 33
        E 21 90 45 00
        E 66 90 2b 00
        E 15 90 2b 36
        E 5 90 32 00
        E 0 90 32 34
        E 0 90 3b 3d
        E 0 90 40 00
        E 0 90 40 46
        E 0 90 47 2d
        E 26 90 1f 2c
        E 5 90 28 33
        E 72 90 1f 00
        E 10 90 28 00
        E 71 90 2b 00
        E 10 90 3b 00
        E 0 90 47 00
        E 21 90 32 00
        E 0 90 32 33
        E 0 90 39 00
        E 0 90 39 2d
        E 0 90 3e 32
        E 0 90 48 46
        E 5 90 40 00
        E 0 90 40 46
        E 56 90 2b 37
        E 26 90 39 00
        E 15 90 45 2f
        E 61 90 48 00
        E 26 90 45 00
        E 5 90 32 00
        E 5 90 2b 00
        E 5 90 28 28
        E 0 90 2b 3f
        E 0 90 32 28
        E 0 90 47 40
        E 5 90 3e 00
        E 0 90 40 00
        E 0 90 40 54
        E 0 90 4d 3d
        E 87 90 47 00
        E 0 90 48 3b
        E 16 90 28 00
        E 45 90 32 00
        E 31 90 2b 00
        E 0 90 4d 00
        E 15 90 48 00
        E 16 90 40 00
        E 0 90 40 45
        E 0 90 45 47
        E 0 90 4f 41
        E 5 90 28 29
        E 16 90 32 2e
        E 46 90 28 00
        E 112 90 32 00
        E 10 90 4f 00
        E 5 90 29 4a
        E 6 90 45 00
        E 0 90 45 35
        E 5 90 3e 3d
        E 0 90 40 00
        E 0 90 40 3c
        E 5 90 4a 28
        E 82 90 45 00
        E 15 90 30 3d
        E 0 90 43 29
        E 5 90 29 00
        E 0 90 29 3b
        E 20 90 4a 00
        E 72 90 43 00
        E 97 90 30 00
        E 0 90 30 31
        E 5 90 37 3c
        E 77 90 37 00
        E 35 90 39 55
        E 36 90 40 00
        E 164 90 30 00
        E 30 90 30 25
        E 0 90 39 00
        E 0 90 39 2c
        E 5 90 3e 00
        E 0 90 3e 3f
        E 0 90 40 3f
        E 0 90 4a 35
        E 16 90 2d 2d
        E 67 90 30 00
        E 41 90 3e 00
        E 0 90 3e 3b
        E 46 90 39 00
        E 20 90 29 00
        E 82 90 2d 00
        E 36 90 3e 00
        E 0 90 3e 38
        E 25 90 4a 00
        E 72 90 29 2b
        E 168 90 29 00
        E 72 90 4a 3c
        E 5 90 3e 00
        E 0 90 3e 48
        E 0 90 40 00
        E 0 90 40 43
        E 36 90 29 4c
        E 61 90 30 36
        E 0 90 43 35
        E 51 90 4a 00
        E 82 90 43 00
        E 20 90 29 00
        E 0 90 29 34
        E 5 90 30 00
        E 37 90 30 2f
        E 5 90 37 40
        E 76 90 30 00
        E 21 90 37 00
        E 10 90 2d 22
        E 10 90 39 55
        E 5 90 3e 00
        E 0 90 3e 3a
        E 0 90 40 00
        E 56 90 2d 00
        E 154 90 37 26
        E 0 90 39 00
        E 0 90 39 3a
        E 0 90 3e 00
        E 0 90 3e 40
        E 0 90 40 4c
        E 0 90 4a 39
        E 30 90 2d 2e
        E 41 90 4a 00
        E 16 90 37 00
        E 76 90 2d 00
        E 15 90 29 00
        E 26 90 3e 00
        E 0 90 3e 48
        E 0 90 40 00
        E 0 90 40 50
        E 0 90 45 27
        E 0 90 48 41
        E 36 90 39 00
        E 30 90 32 27
        E 6 90 2d 25
        E 25 90 45 00
        E 61 90 2d 00
        E 11 90 48 00
        E 10 90 32 00
        E 36 90 3e 00
        E 0 90 3e 46
        E 0 90 40 00
        E 0 90 40 4d
        E 0 90 47 41
        E 189 90 47 00
        E 15 90 45 46
        E 6 90 40 00
        E 0 90 40 3c
        E 10 90 28 37
        E 25 90 3e 00
        E 0 90 3e 35
        E 72 90 40 00
        E 102 90 3e 00
        E 0 90 3e 27
        E 0 90 45 00
        E 0 90 45 4f
        E 5 90 40 44
        E 0 90 4c 3b
        E 0 90 58 2c
        E 67 90 3e 00
        E 15 90 58 00
        E 51 90 28 00
        E 66 90 40 00
        E 0 90 40 45
        E 0 90 45 00
        E 0 90 45 4b
        E 0 90 4c 00
        E 5 90 28 3b
        E 0 90 3e 2c
        E 0 90 4a 3d
        E 0 90 56 34
        E 77 90 4a 00
        E 36 90 56 00
        E 76 90 28 00
        E 21 90 40 00
        E 0 90 40 3c
        E 0 90 45 00
        E 0 90 45 51
        E 5 90 28 39
        E 0 90 3e 00
        E 0 90 3e 3c
        E 133 90 40 00
        E 67 90 45 00
        E 0 90 45 52
        E 0 90 4c 34
        E 5 90 34 30
        E 0 90 3e 00
        E 0 90 3e 2f
        E 0 90 40 46
        E 138 90 4c 00
        E 41 90 34 00
        E 30 90 34 30
        E 0 90 3e 00
        E 0 90 3e 3d
        E 0 90 40 00
        E 0 90 40 44
        E 0 90 45 00
        E 0 90 45 47
        E 5 90 28 00
        E 0 90 28 3d
        E 123 90 4c 2c
        E 41 90 34 00
        E 20 90 28 00
        E 21 90 4c 00
        E 5 90 34 31
        E 0 90 40 00
        E 0 90 40 4a
        E 0 90 45 00
        E 0 90 45 52
        E 0 90 4c 33
        E 5 90 3e 00
        E 0 90 3e 33
        E 31 90 28 2c
        E 117 90 28 00
        E 15 90 34 00
        E 36 90 40 00
        E 0 90 40 4a
        E 0 90 45 00
        E 0 90 45 4c
        E 0 90 4c 00
        E 0 90 4c 2f
        E 5 90 34 32
        E 0 90 3e 00
        E 0 90 3e 39
        E 0 90 58 31
        E 11 90 28 31
        E 56 90 58 00
        E 51 90 28 00
        E 15 90 4c 00
        E 52 90 34 00
        E 20 90 34 34
        E 0 90 3e 00
        E 0 90 3e 46
        E 0 90 45 00
        E 0 90 45 49
        E 0 90 56 37
        E 5 90 28 28
        E 0 90 40 00
        E 0 90 40 44
        E 82 90 56 00
        E 77 90 28 00
        E 0 90 34 00
        E 41 90 28 31
        E 5 90 45 00
        E 0 90 45 4c
        E 0 90 4c 2a
        E 5 90 3e 00
        E 0 90 3e 3e
        E 0 90 40 00
        E 0 90 40 40
        E 0 90 4f 3c
        E 87 90 4c 00
        E 76 90 28 00
        E 36 90 40 00
        E 0 90 40 45
        E 0 90 45 00
        E 0 90 45 49
        E 0 90 4c 34
        E 5 90 3e 00
        E 0 90 3e 42
        E 15 90 28 2f
        E 57 90 4c 00
        E 51 90 4f 00
        E 41 90 28 00
        E 40 90 45 00
        E 0 90 45 48
        E 6 90 3e 00
        E 0 90 3e 34
        E 0 90 40 00
        E 0 90 40 4a
        E 0 90 4d 37
        E 30 90 28 2e
        E 46 90 34 2d
        E 51 90 28 00
        E 16 90 34 00
        E 10 90 4d 00
        E 46 90 32 33
        E 5 90 3e 00
        E 0 90 3e 2b
        E 0 90 40 00
        E 0 90 40 33
        E 0 90 45 00
        E 0 90 45 46
        E 0 90 4c 3e
        E 0 90 58 28
        E 11 90 28 55
        E 76 90 58 00
        E 21 90 4c 00
        E 10 90 32 00
        E 87 90 45 00
        E 0 90 45 48
        E 0 90 4c 35
        E 5 90 28 00
        E 0 90 28 49
        E 0 90 3e 00
        E 0 90 3e 32
        E 0 90 40 00
        E 0 90 40 41
        E 102 90 4c 00
        E 61 90 3e 00
        E 41 90 40 00
        E 0 90 40 41
        E 0 90 45 00
        E 0 90 45 4a
        E 0 90 4c 25
        E 5 90 28 00
        E 0 90 28 4b
        E 0 90 3e 34
        E 108 90 4c 00
        E 76 90 3e 00
        E 21 90 34 29
        E 0 90 40 00
        E 0 90 40 3d
        E 0 90 45 00
        E 0 90 45 49
        E 0 90 4c 34
        E 5 90 28 00
        E 0 90 28 40
        E 61 90 4c 00
        E 67 90 40 00
        E 15 90 34 00
        E 46 90 45 00
        E 0 90 45 47
        E 5 90 34 24
        E 0 90 40 3e
        E 5 90 3e 2a
        E 5 90 4d 36
        E 31 90 1c 2b
        E 87 90 34 00
        E 0 90 40 00
        E 5 90 1c 00
        E 41 90 4d 00
        E 21 90 28 00
        E 0 90 28 45
        E 5 90 40 39
        E 0 90 45 00
        E 0 90 45 49
        E 5 90 3e 00
        E 0 90 3e 33
        E 0 90 4c 2c
        E 174 90 3e 00
        E 35 90 32 2f
        E 0 90 34 32
        E 0 90 45 00
        E 0 90 45 42
        E 5 90 28 00
        E 0 90 28 5a
        E 21 90 4c 00
        E 25 90 40 00
        E 82 90 28 00
        E 0 90 28 58
        E 10 90 40 22
        E 5 90 34 00
        E 26 90 32 00
        E 41 90 3e 36
        E 0 90 40 00
        E 0 90 45 00
        E 0 90 45 47
        E 5 90 28 00
        E 0 90 28 53
        E 0 90 34 29
        E 0 90 40 35
        E 61 90 34 00
        E 67 90 40 00
        E 61 90 3e 00
        E 15 90 40 3c
        E 0 90 45 00
        E 0 90 45 4d
        E 5 90 28 00
        E 0 90 28 43
        E 67 90 3e 2f
        E 77 90 4c 28
        E 26 90 3e 00
        E 5 90 28 00
        E 15 90 28 42
        E 10 90 45 00
        E 0 90 45 4e
        E 5 90 34 27
        E 0 90 40 00
        E 0 90 40 43
        E 0 90 47 32
        E 26 90 4c 00
        E 41 90 3e 29
        E 5 90 34 00
        E 10 90 47 00
        E 92 90 3e 00
        E 36 90 40 00
        E 0 90 40 3c
        E 0 90 45 00
        E 0 90 45 4f
        E 5 90 28 00
        E 0 90 28 4e
        E 0 90 32 2f
        E 0 90 3e 2a
        E 0 90 48 48
        E 82 90 32 00
        E 117 90 56 3f
        E 5 90 28 00
        E 0 90 28 4b
        E 0 90 3e 00
        E 0 90 3e 36
        E 0 90 45 00
        E 0 90 45 46
        E 0 90 4c 2d
        E 5 90 40 00
        E 0 90 40 40
        E 41 90 32 29
        E 36 90 4c 00
        E 5 90 48 00
        E 26 90 56 00
        E 51 90 4c 35
        E 10 90 3e 00
        E 25 90 32 00
        E 6 90 26 2d
        E 0 90 32 34
        E 0 90 47 33
        E 5 90 28 00
        E 0 90 28 37
        E 0 90 58 34
        E 5 90 40 00
        E 0 90 40 32
        E 30 90 45 00
        E 5 90 4c 00
        E 21 90 28 00
        E 36 90 2d 42
        E 0 90 40 00
        E 0 90 40 41
        E 21 90 47 00
        E 5 90 32 00
        E 30 90 58 00
        E 36 90 32 36
        E 5 90 40 00
        E 0 90 41 48
        E 0 90 47 3b
        E 92 90 47 00
        E 5 90 40 3d
        E 0 90 41 00
        E 5 90 34 47
        E 77 90 40 00
        E 26 90 34 00
        E 0 90 35 45
        E 0 90 41 33
        E 71 90 41 00
        E 21 90 26 00
        E 5 90 40 4e
        E 97 90 2d 00
        E 0 90 2d 2a
        E 0 90 40 00
        E 0 90 41 38
        E 10 90 32 00
        E 0 90 32 3f
        E 0 90 4a 31
        E 15 90 26 34
        E 11 90 35 00
        E 51 90 4a 00
        E 15 90 2d 00
        E 0 90 2d 44
        E 5 90 40 3d
        E 0 90 41 00
        E 102 90 32 00
        E 0 90 32 3e
        E 0 90 40 00
        E 5 90 40 27
        E 0 90 4c 2b
        E 77 90 4c 00
        E 20 90 40 00
        E 0 90 40 3f
        E 16 90 34 3e
        E 87 90 26 00
        E 5 90 47 3f
        E 0 90 4f 32
        E 5 90 40 00
        E 0 90 40 2b
        E 5 90 34 00
        E 0 90 35 34
        E 97 90 47 00
        E 21 90 26 3b
        E 56 90 4f 00
        E 21 90 35 00
        E 0 90 35 2f
        E 5 90 48 3b
        E 5 90 32 00
        E 0 90 32 33
        E 5 90 40 00
        E 0 90 40 2f
        E 0 90 58 2f
        E 77 90 40 00
        E 0 90 40 40
        E 0 90 58 00
        E 10 90 2d 00
        E 0 90 2d 40
        E 0 90 32 00
        E 0 90 32 30
        E 41 90 35 00
        E 61 90 26 00
        E 5 90 26 3c
        E 0 90 32 00
        E 0 90 32 36
        E 0 90 40 00
        E 0 90 41 47
        E 0 90 48 00
        E 0 90 48 3e
        E 92 90 40 39
        E 0 90 41 00
        E 25 90 34 34
        E 72 90 40 00
        E 20 90 34 00
        E 0 90 41 34
        E 0 90 48 00
        E 0 90 48 32
        E 6 90 35 40
        E 81 90 41 00
        E 21 90 40 4c
        E 56 90 32 00
        E 25 90 26 00
        E 11 90 48 00
        E 5 90 2d 00
        E 0 90 32 3b
        E 5 90 47 35
        E 10 90 26 43
        E 5 90 40 00
        E 0 90 41 37
        E 77 90 2d 3e
        E 0 90 47 00
        E 6 90 35 00
        E 102 90 32 00
        E 0 90 32 41
        E 5 90 26 00
        E 0 90 26 41
        E 82 90 41 00
        E 30 90 34 37
        E 113 90 34 00
        E 0 90 35 39
        E 260 90 26 00
        E 0 90 32 00
        E 21 90 2d 00
        E 0 90 35 00
        E 30 90 4c 36
        E 5 90 41 39
        E 0 90 47 39
        E 0 90 58 42
        E 5 90 26 2b
        E 57 90 4c 00
        E 35 90 2d 3a
        E 5 90 40 3c
        E 0 90 41 00
        E 11 90 47 00
        E 25 90 58 00
        E 47 90 40 00
        E 15 90 26 00
        E 5 90 26 2d
        E 0 90 41 53
        E 5 90 32 46
        E 0 90 47 43
        E 92 90 34 45
        E 0 90 40 37
        E 0 90 41 00
        E 0 90 47 00
        E 10 90 32 00
        E 0 90 32 3f
        E 31 90 26 00
        E 51 90 40 00
        E 16 90 32 00
        E 0 90 32 2c
        E 0 90 41 39
        E 5 90 34 00
        E 0 90 35 42
        E 0 90 48 31
        E 10 90 26 29
        E 46 90 41 00
        E 41 90 40 44
        E 15 90 48 00
        E 31 90 26 00
        E 5 90 32 00
        E 56 90 32 3d
        E 5 90 40 00
        E 0 90 40 37
        E 36 90 35 00
        E 51 90 2d 00
        E 0 90 2d 40
        E 5 90 40 00
        E 0 90 40 3a
        E 92 90 40 00
        E 10 90 32 00
        E 0 90 32 36
        E 5 90 40 27
        E 97 90 40 00
        E 0 90 40 40
        E 16 90 34 30
        E 81 90 40 00
        E 6 90 41 3a
        E 0 90 4f 34
        E 5 90 47 3a
        E 10 90 34 00
        E 0 90 35 30
        E 57 90 47 00
        E 30 90 35 00
        E 0 90 40 29
        E 0 90 41 00
        E 5 90 34 38
        E 92 90 4f 00
        E 11 90 40 00
        E 10 90 34 00
        E 0 90 35 32
        E 0 90 48 43
        E 5 90 2d 00
        E 0 90 2d 32
        E 10 90 26 3f
        E 0 90 32 00
        E 0 90 32 32
        E 0 90 58 29
        E 5 90 45 30
        E 10 90 41 44
        E 46 90 58 00
        E 21 90 40 39
        E 0 90 41 00
        E 5 90 2d 00
        E 0 90 2d 41
        E 25 90 45 00
        E 16 90 35 00
        E 66 90 26 00
        E 0 90 26 38
        E 0 90 32 00
        E 0 90 32 37
        E 5 90 48 00
        E 0 90 48 3f
        E 5 90 40 00
        E 0 90 41 3b
        E 87 90 40 33
        E 0 90 41 00
        E 5 90 34 38
        E 108 90 48 00
        E 0 90 48 34
        E 5 90 34 00
        E 0 90 35 46
        E 81 90 32 00
        E 21 90 40 00
        E 0 90 40 44
        E 66 90 26 00
        E 31 90 40 00
        E 0 90 40 39
        E 10 90 48 00
        E 5 90 35 00
        E 11 90 26 32
        E 0 90 32 3d
        E 0 90 39 2d
        E 0 90 47 33
        E 0 90 4c 2e
        E 0 90 58 37
        E 61 90 39 00
        E 16 90 4c 00
        E 20 90 47 00
        E 5 90 2d 00
        E 0 90 2d 48
        E 0 90 58 00
        E 31 90 40 00
        E 66 90 32 00
        E 0 90 32 4c
        E 123 90 34 3e
        E 117 90 34 00
        E 0 90 35 3a
        E 6 90 32 00
        E 0 90 32 42
        E 204 90 26 00
        E 25 90 45 46
        E 57 90 32 00
        E 15 90 35 00
        E 15 90 2d 00
        E 26 90 40 41
        E 5 90 34 36
        E 0 90 3b 49
        E 82 90 40 00
        E 0 90 41 57
        E 10 90 3b 00
        E 0 90 3c 4d
        E 77 90 34 00
        E 15 90 40 30
        E 0 90 41 00
        E 0 90 45 00
        E 0 90 45 4b
        E 11 90 3b 4c
        E 0 90 3c 00
        E 10 90 28 29
        E 76 90 3b 00
        E 0 90 3c 4c
        E 6 90 40 00
        E 0 90 40 4e
        E 35 90 28 00
        E 62 90 3b 49
        E 0 90 3c 00
        E 5 90 40 00
        E 0 90 40 36
        E 92 90 3b 00
        E 0 90 3b 2d
        E 0 90 40 00
        E 0 90 40 32
        E 0 90 45 00
        E 0 90 47 4c
        E 71 90 37 2d
        E 26 90 40 00
        E 0 90 40 50
        E 15 90 3b 00
        E 0 90 3b 46
        E 31 90 37 00
        E 0 90 47 00
        E 61 90 3b 00
        E 0 90 48 48
        E 5 90 3c 52
        E 5 90 40 00
        E 0 90 40 32
        E 87 90 3b 43
        E 0 90 3c 00
        E 5 90 40 00
        E 0 90 40 4b
        E 107 90 40 00
        E 0 90 41 5a
        E 0 90 47 36
        E 0 90 48 00
        E 6 90 3b 00
        E 0 90 3c 4e
        E 92 90 3b 3e
        E 0 90 3c 00
        E 5 90 40 40
        E 0 90 41 00
        E 87 90 47 00
        E 26 90 35 3f
        E 0 90 40 00
        E 0 90 41 3c
        E 0 90 45 46
        E 5 90 3b 00
        E 0 90 3c 3f
        E 30 90 29 2d
        E 62 90 3b 4b
        E 0 90 3c 00
        E 107 90 3b 00
        E 0 90 3c 54
        E 107 90 3b 2f
        E 0 90 3c 00
        E 0 90 41 00
        E 0 90 41 3f
        E 67 90 29 00
        E 40 90 41 00
        E 0 90 41 55
        E 36 90 29 30
        E 41 90 3b 00
        E 0 90 3c 34
        E 31 90 40 38
        E 0 90 41 00
        E 0 90 45 00
        E 0 90 45 47
        E 66 90 40 00
        E 0 90 41 51
        E 51 90 29 00
        E 5 90 35 00
        E 5 90 41 00
        E 6 90 40 30
        E 0 90 47 37
        E 51 90 35 30
        E 204 90 47 00
        E 62 90 3c 00
        E 61 90 3b 29
        E 67 90 3b 00
        E 61 90 3c 30
        E 10 90 35 00
        E 97 90 47 2a
        E 66 90 47 00
        E 16 90 3c 00
        E 25 90 40 00
        E 21 90 34 4e
        E 0 90 45 00
        E 0 90 45 4c
        E 107 90 34 00
        E 0 90 34 3a
        E 0 90 40 4d
        E 5 90 3b 4d
        E 93 90 40 00
        E 0 90 41 52
        E 10 90 3b 00
        E 0 90 3b 2a
        E 87 90 3b 00
        E 0 90 3b 40
        E 5 90 45 00
        E 0 90 45 55
        E 36 90 48 26
        E 20 90 34 00
        E 41 90 3b 00
        E 0 90 3c 45
        E 0 90 40 57
        E 0 90 41 00
        E 36 90 48 00
        E 66 90 3c 00
        E 0 90 3c 28
        E 0 90 40 00
        E 0 90 40 34
        E 0 90 45 00
        E 0 90 45 40
        E 10 90 28 32
        E 51 90 3c 00
        E 11 90 28 00
        E 20 90 3b 43
        E 0 90 47 4c
        E 5 90 37 2c
        E 0 90 45 00
        E 92 90 40 00
        E 0 90 40 55
        E 5 90 3b 00
        E 0 90 3b 4a
        E 10 90 47 00
        E 16 90 37 00
        E 71 90 40 00
        E 0 90 41 4d
        E 5 90 48 45
        E 16 90 3b 00
        E 0 90 3b 30
        E 15 90 28 31
        E 46 90 3b 00
        E 0 90 3b 46
        E 31 90 40 4a
        E 0 90 41 00
        E 35 90 28 00
        E 62 90 3b 00
        E 0 90 3c 49
        E 5 90 4a 3e
        E 5 90 48 00
        E 5 90 40 00
        E 0 90 40 36
        E 87 90 3b 3d
        E 0 90 3c 00
        E 6 90 40 00
        E 0 90 40 4b
        E 20 90 48 28
        E 71 90 29 27
        E 6 90 48 00
        E 0 90 4a 00
        E 5 90 3b 00
        E 0 90 3c 3a
        E 0 90 40 00
        E 0 90 41 37
        E 0 90 48 38
        E 5 90 35 3e
        E 61 90 29 00
        E 36 90 3b 47
        E 0 90 3c 00
        E 36 90 41 00
        E 51 90 48 00
        E 10 90 40 40
        E 15 90 3b 00
        E 0 90 3b 31
        E 5 90 47 3d
        E 92 90 3b 00
        E 0 90 3b 49
        E 26 90 47 00
        E 92 90 3b 00
        E 0 90 3c 48
        E 0 90 48 24
        E 5 90 40 00
        E 0 90 40 53
        E 5 90 45 39
        E 31 90 29 2a
        E 20 90 48 00
        E 56 90 3b 48
        E 0 90 3c 00
        E 77 90 35 00
        E 46 90 3b 00
        E 0 90 3c 3f
        E 0 90 40 00
        E 0 90 40 47
        E 0 90 43 36
        E 57 90 29 00
        E 71 90 29 2c
        E 26 90 48 2c
        E 112 90 29 00
        E 0 90 48 00
        E 61 90 29 2b
        E 261 90 45 00
        E 46 90 29 00
        E 56 90 43 00
        E 36 90 40 00
        E 20 90 3c 00
        E 0 90 3c 55
        E 0 90 41 45
        E 5 90 2d 47
        E 108 90 3b 4a
        E 0 90 3c 00
        E 5 90 34 4d
        E 82 90 34 00
        E 0 90 34 2e
        E 15 90 3b 00
        E 6 90 41 00
        E 0 90 41 42
        E 5 90 2d 00
        E 0 90 2d 36
        E 5 90 39 42
        E 0 90 3c 4e
        E 0 90 45 34
        E 5 90 4c 39
        E 0 90 58 45
        E 97 90 28 3b
        E 5 90 3b 3f
        E 0 90 3c 00
        E 5 90 4c 00
        E 56 90 58 00
        E 16 90 34 00
        E 15 90 28 00
        E 10 90 3b 00
        E 16 90 3c 44
        E 0 90 4a 40
        E 0 90 56 3c
        E 5 90 41 00
        E 0 90 41 3a
        E 46 90 28 2e
        E 56 90 39 00
        E 0 90 56 00
        E 10 90 3b 43
        E 0 90 3c 00
        E 107 90 3b 00
        E 0 90 4a 00
        E 5 90 2d 00
        E 0 90 2d 40
        E 0 90 3c 38
        E 11 90 41 00
        E 0 90 41 30
        E 0 90 45 00
        E 0 90 45 47
        E 5 90 51 2e
        E 51 90 28 00
        E 46 90 28 34
        E 0 90 51 00
        E 30 90 3c 00
        E 87 90 41 00
        E 0 90 41 45
        E 5 90 2d 00
        E 0 90 2d 41
        E 0 90 3c 34
        E 5 90 39 30
        E 0 90 45 00
        E 0 90 45 37
        E 108 90 3b 39
        E 0 90 3c 00
        E 102 90 2d 00
        E 0 90 2d 3a
        E 6 90 45 00
        E 5 90 3b 00
        E 0 90 3c 43
        E 0 90 41 00
        E 0 90 41 3a
        E 61 90 28 00
        E 46 90 39 00
        E 0 90 3b 46
        E 0 90 3c 00
        E 10 90 28 2d
        E 0 90 45 34
        E 92 90 45 00
        E 21 90 2d 00
        E 0 90 2d 3c
        E 0 90 3b 00
        E 0 90 3c 4d
        E 0 90 41 00
        E 0 90 41 40
        E 56 90 28 00
        E 56 90 34 2b
        E 5 90 28 38
        E 0 90 3b 3f
        E 0 90 3c 00
        E 97 90 3b 00
        E 10 90 41 00
        E 0 90 41 3a
        E 21 90 39 3d
        E 0 90 3c 4f
        E 0 90 45 30
        E 0 90 4c 38
        E 0 90 58 44
        E 51 90 34 00
        E 46 90 3b 3c
        E 0 90 3c 00
        E 5 90 4c 00
        E 51 90 2d 00
        E 36 90 3b 00
        E 20 90 58 00
        E 10 90 39 00
        E 0 90 39 2b
        E 0 90 3c 46
        E 0 90 41 00
        E 0 90 41 30
        E 0 90 45 00
        E 0 90 45 32
        E 0 90 4a 3a
        E 0 90 56 40
        E 16 90 2d 35
        E 66 90 39 00
        E 11 90 3b 46
        E 0 90 3c 00
        E 26 90 56 00
        E 66 90 45 00
        E 25 90 2d 00
        E 0 90 4f 3b
        E 6 90 2d 54
        E 0 90 3b 00
        E 0 90 3c 47
        E 0 90 41 00
        E 0 90 41 2a
        E 25 90 5b 2c
        E 10 90 28 00
        E 57 90 41 00
        E 15 90 34 2b
        E 0 90 3b 39
        E 0 90 3c 00
        E 15 90 28 36
        E 56 90 34 00
        E 16 90 3b 00
        E 20 90 3c 42
        E 5 90 41 3c
        E 0 90 4a 00
        E 5 90 2d 00
        E 0 90 2d 3d
        E 0 90 39 3d
        E 0 90 45 34
        E 11 90 4f 00
        E 15 90 5b 00
        E 87 90 3b 3c
        E 0 90 3c 00
        E 92 90 3b 00
        E 5 90 45 00
        E 15 90 39 00
        E 0 90 39 2e
        E 0 90 3c 46
        E 5 90 41 00
        E 0 90 41 47
        E 0 90 4d 39
        E 82 90 39 00
        E 36 90 3b 48
        E 0 90 3c 00
        E 0 90 4d 00
        E 30 90 35 32
        E 51 90 28 00
        E 6 90 41 00
        E 5 90 35 00
        E 15 90 2d 00
        E 0 90 2d 48
        E 5 90 39 30
        E 0 90 40 2e
        E 0 90 43 30
        E 0 90 4c 38
        E 0 90 58 3e
        E 5 90 3e 2f
        E 10 90 3b 00
        E 52 90 40 00
        E 36 90 34 36
        E 0 90 3c 41
        E 10 90 43 00
        E 0 90 58 00
        E 10 90 4c 00
        E 5 90 3e 00
        E 5 90 41 2e
        E 62 90 41 00
        E 10 90 34 00
        E 20 90 3e 41
        E 0 90 43 3c
        E 6 90 2d 00
        E 0 90 2d 40
        E 0 90 39 00
        E 0 90 39 3d
        E 97 90 3c 00
        E 0 90 3c 3f
        E 15 90 43 00
        E 97 90 48 2c
        E 10 90 3e 00
        E 0 90 3e 39
        E 0 90 43 34
        E 61 90 48 00
        E 36 90 39 00
        E 5 90 3c 00
        E 0 90 3c 3f
        E 118 90 43 00
        E 0 90 43 3c
        E 5 90 2d 00
        E 0 90 2d 4c
        E 0 90 39 22
        E 0 90 3e 00
        E 0 90 3e 41
        E 71 90 39 00
        E 16 90 3e 00
        E 15 90 43 00
        E 5 90 34 2b
        E 5 90 3c 00
        E 0 90 3c 40
        E 67 90 3e 3e
        E 36 90 34 00
        E 15 90 2d 00
        E 0 90 2d 3f
        E 0 90 39 39
        E 0 90 43 35
        E 103 90 3c 00
        E 0 90 3c 3a
        E 20 90 43 00
        E 20 90 28 2a
        E 77 90 3e 00
        E 5 90 3e 42
        E 0 90 43 37
        E 26 90 28 00
        E 0 90 39 00
        E 76 90 3c 00
        E 0 90 3c 3d
        E 11 90 3e 00
        E 0 90 3e 3a
        E 20 90 43 00
        E 92 90 2d 00
        E 0 90 2d 52
        E 0 90 3e 00
        E 0 90 3e 4f
        E 0 90 43 35
        E 61 90 3e 00
        E 0 90 3e 45
        E 51 90 34 2e
        E 0 90 3c 00
        E 0 90 3c 3a
        E 87 90 28 2d
        E 31 90 43 00
        E 0 90 43 3c
        E 5 90 2d 00
        E 0 90 2d 44
        E 0 90 3e 00
        E 0 90 3e 4c
        E 102 90 3c 00
        E 0 90 3c 45
        E 0 90 3e 00
        E 0 90 3e 42
        E 0 90 48 2c
        E 15 90 34 00
        E 16 90 43 00
        E 15 90 39 29
        E 15 90 28 00
        E 51 90 39 00
        E 0 90 43 3a
        E 6 90 39 2f
        E 0 90 3e 00
        E 0 90 3e 56
        E 107 90 39 00
        E 0 90 39 2f
        E 0 90 3c 00
        E 0 90 3c 3c
        E 0 90 3e 00
        E 0 90 3e 47
        E 0 90 48 00
        E 0 90 48 31
        E 62 90 39 00
        E 51 90 43 00
        E 0 90 43 42
        E 5 90 2d 00
        E 0 90 2d 51
        E 0 90 3e 00
        E 0 90 3e 41
        E 87 90 28 32
        E 5 90 34 3b
        E 10 90 3c 00
        E 0 90 3c 39
        E 21 90 43 00
        E 20 90 48 00
        E 36 90 28 00
        E 46 90 43 41
        E 5 90 2d 00
        E 0 90 2d 48
        E 0 90 39 3c
        E 0 90 3e 00
        E 0 90 3e 50
        E 87 90 28 2d
        E 20 90 3c 00
        E 0 90 3c 3e
        E 0 90 48 31
        E 31 90 43 00
        E 56 90 28 00
        E 0 90 34 00
        E 15 90 48 00
        E 10 90 39 00
        E 0 90 39 36
        E 0 90 43 49
        E 6 90 3e 00
        E 0 90 3e 4f
        E 25 90 30 2a
        E 77 90 30 00
        E 5 90 30 29
        E 0 90 3c 00
        E 0 90 3c 47
        E 0 90 43 00
        E 0 90 43 2a
        E 0 90 48 2d
        E 5 90 3e 00
        E 0 90 3e 41
        E 5 90 39 00
        E 56 90 30 00
        E 31 90 41 42
        E 0 90 43 00
        E 6 90 48 00
        E 5 90 2d 00
        E 0 90 2d 45
        E 0 90 3c 00
        E 0 90 3c 46
        E 15 90 3e 00
        E 87 90 28 31
        E 10 90 34 39
        E 5 90 3b 46
        E 0 90 3c 00
        E 41 90 41 00
        E 51 90 34 00
        E 0 90 3b 00
        E 15 90 41 2e
        E 11 90 2d 00
        E 0 90 2d 36
        E 0 90 39 42
        E 5 90 3c 3e
        E 0 90 45 34
        E 0 90 4c 3c
        E 5 90 58 47
        E 97 90 3b 3d
        E 0 90 3c 00
        E 10 90 4c 00
        E 61 90 2d 00
        E 6 90 28 00
        E 0 90 58 00
        E 15 90 3b 00
        E 25 90 3c 3e
        E 0 90 41 00
        E 0 90 41 3d
        E 0 90 56 33
        E 6 90 28 2b
        E 0 90 45 00
        E 0 90 45 2d
        E 0 90 4a 46
        E 25 90 2d 31
        E 10 90 39 00
        E 67 90 3b 3c
        E 0 90 3c 00
        E 0 90 56 00
        E 30 90 45 00
        E 77 90 4a 00
        E 5 90 2d 00
        E 5 90 2d 46
        E 5 90 3b 00
        E 0 90 41 00
        E 0 90 41 39
        E 0 90 45 48
        E 0 90 51 37
        E 5 90 3c 38
        E 16 90 28 00
        E 0 90 28 32
        E 66 90 51 00
        E 15 90 4a 32
        E 11 90 3b 2e
        E 0 90 3c 00
        E 92 90 3b 00
        E 21 90 39 2f
        E 0 90 3c 38
        E 0 90 41 00
        E 0 90 41 39
        E 0 90 4a 00
        E 5 90 2d 00
        E 0 90 2d 3d
        E 0 90 45 00
        E 0 90 45 2e
        E 82 90 3c 00
        E 25 90 3b 3e
        E 107 90 3b 00
        E 0 90 3c 40
        E 0 90 41 00
        E 0 90 41 44
        E 31 90 39 00
        E 82 90 3b 35
        E 0 90 3c 00
        E 35 90 2d 00
        E 57 90 45 00
        E 15 90 41 00
        E 0 90 41 3b
        E 5 90 3b 00
        E 5 90 3c 32
        E 21 90 2d 37
        E 76 90 28 00
        E 0 90 28 3a
        E 5 90 34 24
        E 0 90 3b 39
        E 0 90 3c 00
        E 67 90 34 00
        E 30 90 3b 00
        E 26 90 41 00
        E 0 90 41 3b
        E 5 90 3c 47
        E 0 90 45 34
        E 0 90 4c 31
        E 5 90 39 3d
        E 0 90 58 4a
        E 87 90 28 00
        E 0 90 28 3e
        E 10 90 3b 34
        E 0 90 3c 00
        E 21 90 4c 00
        E 67 90 3b 00
        E 10 90 28 00
        E 0 90 58 00
        E 20 90 3c 35
        E 5 90 41 00
        E 0 90 41 37
        E 0 90 4a 41
        E 0 90 56 3c
        E 6 90 28 30
        E 25 90 39 00
        E 26 90 45 00
        E 40 90 3b 34
        E 0 90 3c 00
        E 6 90 56 00
        E 112 90 3b 00
        E 0 90 3c 4c
        E 0 90 41 00
        E 0 90 41 2d
        E 5 90 2d 00
        E 0 90 2d 4f
        E 21 90 4f 3c
        E 0 90 5b 30
        E 56 90 4a 00
        E 15 90 28 00
        E 0 90 28 3a
        E 10 90 34 30
        E 0 90 3b 26
        E 0 90 3c 00
        E 5 90 2d 00
        E 0 90 2d 4b
        E 0 90 5b 00
        E 31 90 4a 2a
        E 61 90 3b 00
        E 0 90 4f 00
        E 11 90 3c 39
        E 0 90 4a 00
        E 5 90 41 00
        E 0 90 41 39
        E 5 90 2d 00
        E 0 90 2d 3e
        E 0 90 39 3a
        E 0 90 45 2c
        E 112 90 3b 39
        E 0 90 3c 00
        E 21 90 45 00
        E 56 90 34 00
        E 5 90 3b 00
        E 36 90 3c 40
        E 5 90 39 00
        E 0 90 39 2e
        E 0 90 41 00
        E 0 90 41 48
        E 0 90 4d 3f
        E 0 90 59 1e
        E 61 90 59 00
        E 46 90 3b 3f
        E 0 90 3c 00
        E 0 90 4d 00
        E 41 90 39 00
        E 36 90 28 00
        E 31 90 43 2d
        E 5 90 2d 00
        E 0 90 2d 4c
        E 0 90 3e 2f
        E 5 90 3b 00
        E 0 90 3c 2d
        E 0 90 40 26
        E 0 90 41 00
        E 0 90 4c 3e
        E 0 90 58 3d
        E 97 90 34 31
        E 10 90 28 2b
        E 0 90 43 00
        E 5 90 3c 00
        E 0 90 3c 3d
        E 0 90 40 00
        E 0 90 48 2a
        E 6 90 58 00
        E 20 90 4c 00
        E 10 90 39 28
        E 36 90 48 00
        E 36 90 39 00
        E 5 90 2d 00
        E 0 90 2d 49
        E 0 90 39 3a
        E 0 90 3e 00
        E 0 90 3e 42
        E 0 90 43 31
        E 61 90 21 29
        E 56 90 3c 00
        E 0 90 3c 47
        E 11 90 43 00
        E 10 90 28 00
        E 10 90 21 00
        E 82 90 34 00
        E 5 90 43 36
        E 10 90 3e 00
        E 0 90 3e 39
        E 0 90 48 2c
        E 77 90 48 00
        E 25 90 3c 00
        E 0 90 3c 43
        E 56 90 39 00
        E 57 90 2d 00
        E 0 90 2d 4b
        E 0 90 43 00
        E 0 90 43 36
        E 10 90 3c 00
        E 0 90 3e 00
        E 0 90 3e 4b
        E 92 90 3c 3b
        E 0 90 48 28
        E 5 90 34 36
        E 82 90 34 00
        E 15 90 48 00
        E 16 90 43 00
        E 0 90 43 39
        E 5 90 2d 00
        E 0 90 2d 42
        E 0 90 39 35
        E 0 90 3e 00
        E 0 90 3e 4a
        E 102 90 3c 00
        E 0 90 3c 39
        E 0 90 48 2f
        E 5 90 3e 00
        E 0 90 3e 40
        E 113 90 43 00
        E 0 90 43 3b
        E 5 90 3e 00
        E 0 90 3e 57
        E 112 90 3c 00
        E 0 90 3c 43
        E 0 90 48 00
        E 0 90 48 27
        E 5 90 3e 00
        E 0 90 3e 45
        E 56 90 48 00
        E 11 90 43 00
        E 30 90 2d 00
        E 0 90 2d 4a
        E 0 90 39 00
        E 0 90 39 31
        E 5 90 3e 00
        E 5 90 40 3e
        E 6 90 3c 00
        E 0 90 3c 36
        E 0 90 45 3d
        E 0 90 58 39
        E 81 90 40 00
        E 16 90 58 00
        E 10 90 3e 30
        E 5 90 34 3c
        E 10 90 3c 00
        E 92 90 45 00
        E 0 90 45 46
        E 5 90 28 25
        E 0 90 2d 00
        E 0 90 2d 3f
        E 0 90 34 00
        E 0 90 34 34
        E 0 90 39 00
        E 0 90 39 3f
        E 0 90 40 31
        E 77 90 28 00
        E 26 90 40 00
        E 5 90 3e 00
        E 0 90 3e 47
        E 118 90 39 00
        E 0 90 39 33
        E 0 90 40 3a
        E 0 90 45 00
        E 0 90 45 41
        E 25 90 34 00
        E 82 90 3e 00
        E 0 90 3e 38
        E 61 90 39 00
        E 51 90 2d 00
        E 0 90 2d 54
        E 0 90 45 00
        E 0 90 45 3f
        E 5 90 40 00
        E 0 90 40 38
        E 102 90 34 3b
        E 6 90 3e 00
        E 0 90 3e 37
        E 15 90 28 30
        E 5 90 40 00
        E 87 90 2d 00
        E 0 90 2d 4a
        E 5 90 39 40
        E 0 90 40 35
        E 5 90 45 00
        E 0 90 45 3d
        E 102 90 3e 00
        E 0 90 3e 48
        E 0 90 40 00
        E 82 90 28 00
        E 0 90 34 00
        E 46 90 2d 00
        E 0 90 2d 42
        E 0 90 34 29
        E 0 90 39 00
        E 0 90 39 33
        E 0 90 40 34
        E 5 90 45 00
        E 0 90 45 44
        E 0 90 51 40
        E 67 90 34 00
        E 26 90 51 00
        E 10 90 3e 00
        E 0 90 3e 49
        E 5 90 45 00
        E 0 90 45 38
        E 15 90 40 00
        E 51 90 45 00
        E 41 90 39 00
        E 5 90 47 35
        E 5 90 41 3e
        E 6 90 3e 00
        E 0 90 3e 28
        E 0 90 45 2f
        E 0 90 4c 41
        E 0 90 58 38
        E 20 90 2d 00
        E 0 90 2d 51
        E 31 90 47 00
        E 10 90 45 00
        E 20 90 4c 00
        E 10 90 28 24
        E 0 90 34 4c
        E 6 90 40 41
        E 0 90 41 00
        E 25 90 3e 00
        E 41 90 28 00
        E 41 90 40 00
        E 0 90 41 49
        E 5 90 2d 00
        E 0 90 2d 4f
        E 5 90 34 00
        E 0 90 34 3b
        E 0 90 39 3b
        E 0 90 45 2a
        E 46 90 3e 24
        E 56 90 58 00
        E 5 90 40 3d
        E 0 90 41 00
        E 41 90 3e 00
        E 56 90 45 00
        E 21 90 34 00
        E 0 90 34 3b
        E 0 90 40 00
        E 0 90 40 30
        E 0 90 47 40
        E 46 90 39 00
        E 51 90 34 00
        E 0 90 34 39
        E 5 90 40 00
        E 0 90 40 4f
        E 51 90 47 00
        E 41 90 34 00
        E 5 90 28 27
        E 21 90 2d 00
        E 0 90 2d 55
        E 0 90 47 38
        E 0 90 4c 2c
        E 5 90 40 00
        E 0 90 40 36
        E 0 90 58 44
        E 36 90 28 00
        E 36 90 28 2a
        E 0 90 4c 00
        E 5 90 47 00
        E 10 90 40 00
        E 0 90 40 37
        E 5 90 2d 00
        E 0 90 2d 47
        E 0 90 34 3a
        E 56 90 40 00
        E 21 90 28 00
        E 15 90 58 00
        E 26 90 41 44
        E 0 90 47 37
        E 5 90 2d 00
        E 0 90 2d 41
        E 0 90 39 35
        E 0 90 4d 3d
        E 5 90 34 00
        E 0 90 34 2b
        E 10 90 28 2b
        E 87 90 40 3a
        E 0 90 41 00
        E 5 90 34 00
        E 0 90 34 2f
        E 20 90 4d 00
        E 36 90 28 00
        E 10 90 47 00
        E 21 90 34 00
        E 25 90 2d 00
        E 0 90 2d 4d
        E 0 90 40 00
        E 0 90 41 36
        E 0 90 48 46
        E 0 90 4f 43
        E 103 90 2d 00
        E 0 90 2d 52
        E 0 90 40 2e
        E 0 90 41 00
        E 35 90 39 00
        E 51 90 40 00
        E 36 90 2d 00
        E 0 90 2d 59
        E 0 90 4a 2e
        E 0 90 4c 30
        E 10 90 48 00
        E 11 90 40 23
        E 5 90 58 3f
        E 46 90 4a 00
        E 0 90 4c 00
        E 15 90 34 3b
        E 0 90 40 00
        E 0 90 40 35
        E 5 90 4f 00
        E 87 90 40 00
        E 0 90 58 00
        E 25 90 34 00
        E 0 90 41 47
        E 6 90 28 2e
        E 0 90 2d 00
        E 0 90 2d 50
        E 0 90 39 38
        E 61 90 28 00
        E 31 90 40 35
        E 0 90 41 00
        E 36 90 4a 24
        E 76 90 4a 00
        E 6 90 4a 33
        E 10 90 40 00
        E 0 90 40 33
        E 82 90 28 30
        E 15 90 39 00
        E 5 90 40 00
        E 0 90 40 43
        E 56 90 28 00
        E 46 90 4a 00
        E 10 90 2d 00
        E 0 90 2d 51
        E 0 90 48 36
        E 16 90 40 00
        E 87 90 34 33
        E 0 90 40 2e
        E 71 90 40 00
        E 46 90 4a 31
        E 5 90 39 2e
        E 0 90 56 47
        E 46 90 48 00
        E 46 90 28 2b
        E 36 90 56 00
        E 5 90 41 2a
        E 0 90 48 30
        E 10 90 4a 00
        E 56 90 34 00
        E 0 90 39 00
        E 16 90 48 00
        E 5 90 41 00
        E 0 90 48 4e
        E 5 90 41 40
        E 113 90 40 3d
        E 0 90 41 00
        E 71 90 28 00
        E 21 90 40 00
        E 15 90 41 2f
        E 0 90 47 3d
        E 0 90 48 00
        E 5 90 2d 00
        E 0 90 2d 52
        E 21 90 53 37
        E 71 90 47 00
        E 5 90 41 00
        E 11 90 2d 00
        E 0 90 2d 3f
        E 5 90 34 48
        E 0 90 40 38
        E 15 90 53 00
        E 87 90 40 00
        E 5 90 28 2a
        E 5 90 34 00
        E 0 90 34 31
        E 0 90 41 4d
        E 0 90 47 3a
        E 10 90 39 45
        E 0 90 45 27
        E 72 90 28 00
        E 10 90 47 00
        E 15 90 34 00
        E 0 90 34 38
        E 0 90 39 00
        E 0 90 39 30
        E 0 90 40 47
        E 0 90 41 00
        E 41 90 45 00
        E 72 90 40 00
        E 0 90 41 57
        E 5 90 47 3b
        E 5 90 34 00
        E 0 90 34 2e
        E 5 90 28 2f
        E 66 90 28 00
        E 6 90 39 00
        E 20 90 40 5a
        E 0 90 41 00
        E 87 90 34 00
        E 11 90 2d 00
        E 0 90 2d 45
        E 5 90 31 2a
        E 5 90 40 00
        E 0 90 41 44
        E 5 90 28 2c
        E 0 90 47 00
        E 0 90 47 37
        E 77 90 28 00
        E 5 90 31 00
        E 10 90 47 00
        E 10 90 34 2e
        E 102 90 41 00
        E 0 90 41 4c
        E 5 90 2d 00
        E 0 90 2d 47
        E 0 90 39 32
        E 67 90 28 24
        E 51 90 34 00
        E 0 90 34 31
        E 0 90 40 40
        E 0 90 41 00
        E 41 90 28 00
        E 35 90 34 00
        E 31 90 40 00
        E 0 90 41 4a
        E 0 90 48 42
        E 5 90 45 27
        E 102 90 2d 00
        E 0 90 2d 45
        E 0 90 40 48
        E 0 90 41 00
        E 11 90 45 00
        E 97 90 48 00
        E 5 90 2d 00
        E 0 90 2d 52
        E 0 90 40 00
        E 0 90 41 4e
        E 0 90 4a 34
        E 46 90 39 00
        E 51 90 28 30
        E 0 90 2d 00
        E 0 90 2d 50
        E 5 90 34 2c
        E 0 90 40 38
        E 0 90 41 00
        E 15 90 4a 00
        E 51 90 28 00
        E 26 90 34 00
        E 16 90 40 00
        E 0 90 41 41
        E 5 90 2d 00
        E 0 90 2d 46
        E 0 90 39 2f
        E 0 90 45 26
        E 0 90 4a 31
        E 20 90 28 2d
        E 72 90 45 00
        E 10 90 40 39
        E 0 90 41 00
        E 5 90 34 2d
        E 67 90 28 00
        E 30 90 34 00
        E 5 90 40 00
        E 11 90 41 51
        E 5 90 4a 00
        E 0 90 4a 37
        E 20 90 28 2e
        E 61 90 4a 00
        E 0 90 4a 3d
        E 21 90 40 50
        E 0 90 41 00
        E 41 90 28 00
        E 61 90 4a 00
        E 5 90 39 00
        E 0 90 39 31
        E 0 90 4c 40
        E 5 90 40 00
        E 0 90 41 30
        E 5 90 2d 00
        E 0 90 2d 5b
        E 51 90 4c 00
        E 16 90 39 00
        E 5 90 41 00
        E 20 90 40 3f
        E 10 90 34 39
        E 113 90 40 00
        E 0 90 40 2a
        E 5 90 2d 00
        E 0 90 2d 52
        E 0 90 39 46
        E 20 90 28 2b
        E 82 90 40 00
        E 0 90 40 33
        E 5 90 2d 00
        E 0 90 2d 4f
        E 16 90 28 00
        E 82 90 40 00
        E 0 90 51 3d
        E 5 90 2d 00
        E 0 90 2d 47
        E 0 90 34 00
        E 0 90 41 41
        E 5 90 39 00
        E 0 90 39 37
        E 0 90 45 40
        E 51 90 51 00
        E 51 90 45 00
        E 0 90 45 3c
        E 5 90 40 4f
        E 0 90 41 00
        E 11 90 51 2c
        E 71 90 51 00
        E 36 90 2d 00
        E 0 90 2d 46
        E 0 90 39 00
        E 0 90 39 35
        E 0 90 40 00
        E 0 90 41 36
        E 0 90 4c 39
        E 0 90 58 41
        E 25 90 45 00
        E 41 90 4c 00
        E 26 90 40 4f
        E 0 90 41 00
        E 5 90 34 40
        E 5 90 58 00
        E 107 90 40 00
        E 0 90 41 4f
        E 0 90 4c 23
        E 11 90 39 00
        E 0 90 39 30
        E 5 90 28 2a
        E 0 90 45 31
        E 51 90 4c 00
        E 20 90 28 00
        E 26 90 40 4c
        E 0 90 41 00
        E 5 90 34 00
        E 0 90 34 31
        E 10 90 45 00
        E 97 90 39 00
        E 0 90 39 3c
        E 0 90 4c 2d
        E 5 90 40 00
        E 0 90 41 52
        E 97 90 40 3f
        E 0 90 41 00
        E 10 90 4c 00
        E 36 90 34 00
        E 57 90 39 00
        E 0 90 39 30
        E 0 90 4c 4d
        E 0 90 58 39
        E 20 90 2d 00
        E 0 90 2d 3f
        E 6 90 40 00
        E 0 90 41 44
        E 61 90 39 00
        E 20 90 40 4b
        E 0 90 41 00
        E 5 90 34 35
        E 16 90 4c 00
        E 41 90 58 00
        E 15 90 34 00
        E 15 90 2d 00
        E 16 90 40 00
        E 0 90 41 44
        E 0 90 4d 43
        E 15 90 39 44
        E 0 90 45 2b
        E 10 90 2d 48
        E 56 90 45 00
        E 36 90 40 41
        E 0 90 41 00
        E 10 90 34 2d
        E 67 90 34 00
        E 10 90 4d 00
        E 15 90 40 00
        E 10 90 4f 48
        E 11 90 40 2b
        E 0 90 4c 2f
        E 5 90 39 00
        E 0 90 39 36
        E 81 90 4c 00
        E 21 90 40 00
        E 0 90 40 38
        E 87 90 2d 00
        E 0 90 2d 52
        E 0 90 39 00
        E 0 90 39 2c
        E 0 90 4c 37
        E 5 90 40 00
        E 5 90 4a 2b
        E 15 90 58 49
        E 56 90 4c 00
        E 11 90 39 00
        E 15 90 4a 00
        E 5 90 40 39
        E 10 90 34 33
        E 21 90 28 2d
        E 15 90 4f 00
        E 57 90 34 00
        E 5 90 4a 32
        E 10 90 40 00
        E 0 90 41 44
        E 5 90 2d 00
        E 0 90 2d 4f
        E 0 90 45 34
        E 16 90 28 00
        E 0 90 58 00
        E 76 90 2d 00
        E 0 90 2d 3d
        E 0 90 34 2d
        E 0 90 40 4f
        E 0 90 41 00
        E 0 90 45 00
        E 0 90 45 30
        E 62 90 39 29
        E 15 90 45 00
        E 25 90 34 00
        E 11 90 4a 00
        E 0 90 4a 3a
        E 15 90 40 00
        E 0 90 41 49
        E 87 90 28 32
        E 10 90 40 53
        E 0 90 41 00
        E 41 90 39 00
        E 25 90 28 00
        E 46 90 40 00
        E 0 90 41 40
        E 0 90 47 47
        E 6 90 2d 00
        E 0 90 2d 54
        E 30 90 4a 00
        E 67 90 34 49
        E 0 90 40 3e
        E 0 90 41 00
        E 5 90 47 00
        E 71 90 40 00
        E 10 90 4d 2c
        E 21 90 41 56
        E 10 90 34 00
        E 0 90 34 3a
        E 0 90 47 34
        E 5 90 2d 00
        E 0 90 2d 52
        E 0 90 39 35
        E 41 90 4d 00
        E 72 90 40 2e
        E 0 90 41 00
        E 20 90 47 00
        E 51 90 40 00
        E 10 90 39 00
        E 1 90 4f 49
        E 10 90 41 4d
        E 0 90 47 37
        E 72 90 34 00
        E 35 90 39 2a
        E 5 90 40 2f
        E 0 90 41 00
        E 57 90 39 00
        E 20 90 47 00
        E 15 90 40 00
        E 16 90 2d 00
        E 0 90 2d 58
        E 5 90 41 37
        E 0 90 51 2f
        E 0 90 5d 36
        E 10 90 35 2e
        E 66 90 35 00
        E 0 90 4f 00
        E 26 90 34 3a
        E 5 90 40 33
        E 0 90 41 00
        E 26 90 5d 00
        E 61 90 40 00
        E 20 90 2d 00
        E 0 90 2d 53
        E 0 90 39 34
        E 0 90 48 39
        E 6 90 41 36
        E 5 90 51 00
        E 107 90 34 00
        E 0 90 34 37
        E 0 90 40 36
        E 0 90 41 00
        E 117 90 40 00
        E 0 90 41 4b
        E 0 90 48 00
        E 0 90 48 38
        E 26 90 39 00
        E 25 90 34 00
        E 62 90 40 41
        E 0 90 41 00
        E 56 90 48 00
        E 20 90 39 23
        E 11 90 40 00
        E 10 90 5d 39
        E 6 90 31 29
        E 0 90 41 4f
        E 10 90 2d 00
        E 0 90 2d 4e
        E 25 90 39 00
        E 41 90 31 00
        E 31 90 2d 00
        E 0 90 2d 44
        E 0 90 40 32
        E 0 90 41 00
        E 5 90 34 32
        E 20 90 5d 00
        E 41 90 34 00
        E 16 90 40 00
        E 10 90 4f 3c
        E 5 90 48 30
        E 0 90 5b 26
        E 10 90 41 3f
        E 10 90 39 35
        E 67 90 5b 00
        E 35 90 40 39
        E 0 90 41 00
        E 6 90 48 00
        E 0 90 48 38
        E 76 90 39 00
        E 15 90 40 00
        E 6 90 4d 30
        E 25 90 41 51
        E 0 90 48 00
        E 0 90 48 4b
        E 72 90 48 00
        E 0 90 48 3e
        E 0 90 4f 00
        E 15 90 4d 00
        E 20 90 40 3f
        E 0 90 41 00
        E 103 90 4c 3d
        E 5 90 58 46
        E 10 90 39 2d
        E 0 90 40 00
        E 0 90 41 34
        E 0 90 47 37
        E 0 90 48 00
        E 15 90 2d 00
        E 0 90 2d 4b
        E 77 90 47 00
        E 0 90 4c 00
        E 5 90 39 00
        E 10 90 34 36
        E 0 90 40 3a
        E 0 90 41 00
        E 26 90 28 2e
        E 87 90 40 00
        E 5 90 2d 00
        E 0 90 2d 46
        E 0 90 39 38
        E 0 90 45 2b
        E 5 90 41 47
        E 11 90 58 00
        E 92 90 40 3e
        E 0 90 41 00
        E 25 90 28 00
        E 10 90 45 00
        E 46 90 39 00
        E 26 90 47 32
        E 5 90 28 2e
        E 0 90 40 00
        E 0 90 40 3b
        E 46 90 34 00
        E 15 90 28 00
        E 46 90 40 00
        E 0 90 40 44
        E 118 90 2d 00
        E 0 90 2d 4d
        E 0 90 40 00
        E 0 90 41 54
        E 0 90 47 00
        E 0 90 47 3e
        E 81 90 47 00
        E 26 90 34 47
        E 0 90 39 2d
        E 0 90 40 43
        E 0 90 41 00
        E 112 90 40 00
        E 0 90 41 56
        E 5 90 2d 00
        E 0 90 2d 47
        E 0 90 39 00
        E 0 90 39 40
        E 103 90 34 00
        E 0 90 34 3e
        E 0 90 40 40
        E 0 90 41 00
        E 107 90 47 38
        E 6 90 40 00
        E 0 90 41 54
        E 5 90 34 00
        E 0 90 34 3b
        E 51 90 47 00
        E 56 90 40 50
        E 0 90 41 00
        E 5 90 34 00
        E 0 90 34 3c
        E 31 90 39 00
        E 61 90 34 00
        E 10 90 40 00
        E 0 90 41 48
        E 5 90 2d 00
        E 0 90 2d 49
        E 0 90 3c 4c
        E 108 90 28 34
        E 10 90 3b 3b
        E 0 90 3c 00
        E 5 90 34 30
        E 102 90 3b 00
        E 5 90 3c 55
        E 5 90 39 29
        E 0 90 41 00
        E 0 90 41 37
        E 0 90 45 3e
        E 0 90 58 4c
        E 77 90 34 00
        E 20 90 3b 3d
        E 0 90 3c 00
        E 82 90 45 00
        E 5 90 58 00
        E 16 90 39 00
        E 0 90 3b 00
        E 10 90 3c 45
        E 5 90 41 00
        E 0 90 41 4c
        E 0 90 56 46
        E 87 90 45 34
        E 10 90 3b 48
        E 0 90 3c 00
        E 36 90 56 00
        E 41 90 28 00
        E 10 90 45 00
        E 31 90 3b 00
        E 0 90 3c 49
        E 0 90 41 00
        E 0 90 41 3a
        E 10 90 2d 00
        E 0 90 2d 46
        E 0 90 51 47
        E 97 90 34 35
        E 5 90 28 38
        E 0 90 3b 3f
        E 0 90 3c 00
        E 5 90 51 00
        E 0 90 51 39
        E 92 90 51 00
        E 11 90 41 00
        E 0 90 41 4c
        E 5 90 2d 00
        E 0 90 2d 3e
        E 5 90 39 39
        E 0 90 3b 00
        E 0 90 3c 3e
        E 0 90 45 30
        E 107 90 3b 3d
        E 0 90 3c 00
        E 102 90 3b 00
        E 11 90 3c 4a
        E 0 90 41 00
        E 0 90 41 46
        E 71 90 28 00
        E 5 90 34 00
        E 15 90 39 00
        E 6 90 35 27
        E 15 90 3b 4e
        E 0 90 3c 00
        E 20 90 28 2a
        E 0 90 45 00
        E 77 90 35 00
        E 10 90 2d 00
        E 0 90 2d 4b
        E 5 90 3e 39
        E 0 90 41 00
        E 0 90 43 34
        E 31 90 3b 00
        E 15 90 28 00
        E 26 90 43 00
        E 25 90 34 35
        E 11 90 3c 49
        E 77 90 28 2a
        E 30 90 43 39
        E 6 90 3e 00
        E 0 90 3e 46
        E 10 90 39 3c
        E 5 90 21 32
        E 0 90 58 4a
        E 46 90 28 00
        E 46 90 3c 00
        E 0 90 3c 4a
        E 10 90 21 00
        E 36 90 43 00
        E 0 90 58 00
        E 41 90 34 00
        E 30 90 43 40
        E 5 90 3e 00
        E 0 90 3e 4f
        E 0 90 56 40
        E 67 90 39 00
        E 20 90 56 00
        E 10 90 3c 00
        E 0 90 3c 4c
        E 21 90 34 32
        E 66 90 34 00
        E 26 90 43 00
        E 0 90 43 45
        E 5 90 2d 00
        E 0 90 2d 52
        E 5 90 39 25
        E 5 90 3e 00
        E 0 90 3e 40
        E 5 90 5b 3f
        E 10 90 48 2b
        E 41 90 39 00
        E 41 90 34 3f
        E 5 90 48 00
        E 0 90 5b 00
        E 5 90 3c 00
        E 0 90 3c 46
        E 0 90 48 32
        E 6 90 43 00
        E 107 90 43 47
        E 5 90 39 3d
        E 0 90 3e 00
        E 0 90 3e 56
        E 5 90 2d 00
        E 0 90 2d 3f
        E 10 90 28 27
        E 83 90 3c 00
        E 0 90 3c 46
        E 40 90 28 00
        E 31 90 48 00
        E 36 90 34 00
        E 0 90 43 00
        E 0 90 43 42
        E 15 90 3e 00
        E 0 90 3e 4e
        E 0 90 59 31
        E 67 90 59 00
        E 30 90 48 2e
        E 5 90 3c 00
        E 0 90 3c 51
        E 87 90 39 00
        E 10 90 43 00
        E 6 90 41 39
        E 25 90 3c 00
        E 0 90 3c 4a
        E 0 90 58 3e
        E 5 90 3e 00
        E 10 90 48 00
        E 72 90 28 3b
        E 0 90 34 2a
        E 10 90 3b 36
        E 0 90 3c 00
        E 51 90 34 00
        E 41 90 3b 00
        E 15 90 41 00
        E 0 90 41 48
        E 5 90 3c 48
        E 6 90 39 33
        E 0 90 45 3b
        E 20 90 3e 33
        E 46 90 58 00
        E 20 90 2d 00
        E 21 90 3b 42
        E 0 90 3c 00
        E 51 90 2d 30
        E 0 90 3e 00
        E 61 90 3b 00
        E 0 90 3c 57
        E 0 90 41 00
        E 0 90 41 47
        E 5 90 28 00
        E 67 90 28 33
        E 21 90 39 00
        E 5 90 3b 49
        E 0 90 3c 00
        E 46 90 45 00
        E 66 90 41 00
        E 0 90 41 4d
        E 5 90 2d 00
        E 5 90 2d 42
        E 0 90 3b 00
        E 0 90 3c 45
        E 98 90 28 00
        E 0 90 34 31
        E 5 90 28 3d
        E 0 90 3b 40
        E 0 90 3c 00
        E 107 90 41 00
        E 0 90 41 4b
        E 5 90 39 42
        E 0 90 3b 00
        E 0 90 3c 3a
        E 5 90 45 28
        E 5 90 28 00
        E 77 90 28 3d
        E 20 90 3b 43
        E 0 90 3c 00
        E 36 90 45 00
        E 66 90 34 00
        E 11 90 3b 00
        E 0 90 3c 51
        E 5 90 41 00
        E 0 90 41 50
        E 36 90 45 2c
        E 30 90 39 00
        E 31 90 45 00
        E 10 90 3b 4b
        E 0 90 3c 00
        E 82 90 28 00
        E 15 90 41 00
        E 5 90 43 33
        E 5 90 2d 00
        E 0 90 2d 4c
        E 11 90 3e 2c
        E 56 90 3b 00
        E 15 90 43 00
        E 31 90 3c 46
        E 36 90 3e 00
        E 82 90 3e 2a
        E 25 90 45 32
        E 36 90 3e 00
        E 61 90 45 00
        E 16 90 2d 00
        E 0 90 2d 3a
        E 0 90 3e 42
        E 0 90 45 37
        E 76 90 43 31
        E 5 90 3e 00
        E 0 90 3e 3e
        E 82 90 45 00
        E 46 90 3e 00
        E 10 90 43 00
        E 97 90 3c 00
        E 133 90 2d 00
        E 116 b0 7b 00
        CCINTERP 32
        CHASE_CC_TAKEOFFS 1
        GUID {6D57FD42-2977-4C7F-B49E-1FA12412EE29}
        IGNTEMPO 0 120 4 4
        SRCCOLOR 221
      >
    >
  >
  <UINF 118
    <ITEM {187F738F-BABF-4B16-BEA8-907428C2E52F}
      POSITION 0
      SNAPOFFS 0
      LENGTH 165.5
      LOOP 1
      ALLTAKES 0
      FADEIN 1 0 0 1 0 0 0
      FADEOUT 1 0 0 1 0 0 0
      MUTE 0 0
      SEL 0
      IGUID {187F738F-BABF-4B16-BEA8-907428C2E52F}
      IID 133
      NAME MIDI-Unprocessed_Recital1-3_MID--AUDIO_03_R1_2018_wav--5_basic_pitch.mid
      VOLPAN 1 0 1 -1
      SOFFS 0 0
      PLAYRATE 1 1 0 -1 0 0.0025
      CHANMODE 0
      GUID {FF3198CB-F13B-4E2C-9922-E3087F636E7A}
      <SOURCE MIDI
        HASDATA 1 220 QN
        CCINTERP 32
        POOLEDEVTS {49BD1A88-06B4-42FD-8963-298097197B24}
        E 0 c0 04 00
        E 358 90 28 44
        E 92 90 2f 42
        E 66 90 37 48
        E 56 90 42 21
        E 15 90 37 00
        E 0 90 37 51
        E 46 90 42 00
        E 21 90 34 2b
        E 31 90 2f 00
        E 40 90 34 00
        E 51 90 33 35
        E 0 90 3f 25
        E 31 90 37 00
        E 0 90 37 54
        E 46 90 3f 00
        E 21 90 32 39
        E 0 90 33 00
        E 0 90 3e 27
        E 10 90 37 00
        E 0 90 37 39
        E 31 90 34 2a
        E 36 90 3e 00
        E 0 90 3e 2a
        E 20 90 28 00
        E 26 90 31 35
        E 0 90 32 00
        E 10 90 37 00
        E 20 90 34 00
        E 0 90 34 36
        E 57 90 3e 00
        E 25 90 30 34
        E 0 90 31 00
        E 15 90 34 00
        E 62 90 30 00
        E 0 90 31 34
        E 30 90 2f 33
        E 16 90 34 29
        E 56 90 2f 00
        E 5 90 2e 31
        E 0 90 30 35
        E 0 90 31 00
        E 36 90 34 00
        E 61 90 2e 00
        E 0 90 2f 4e
        E 0 90 30 00
        E 10 90 34 2b
        E 5 90 28 36
        E 67 90 2f 00
        E 0 90 2f 3b
        E 61 90 34 00
        E 56 90 37 51
        E 31 90 2f 00
        E 5 90 34 33
        E 46 90 37 00
        E 0 90 37 53
        E 77 90 37 00
        E 0 90 37 3e
        E 31 90 34 00
        E 10 90 28 00
        E 15 90 33 3e
        E 62 90 28 29
        E 46 90 33 00
        E 0 90 34 37
        E 20 90 28 00
        E 26 90 31 30
        E 107 90 30 3a
        E 0 90 31 00
        E 46 90 37 00
        E 41 90 34 00
        E 66 e0 55 4a
        E 0 90 30 00
        E 0 90 30 3b
        E 6 e0 55 4a
        E 5 e0 55 4a
        E 5 e0 55 4a
        E 6 e0 55 4a
        E 5 e0 55 4a
        E 6 e0 55 4a
        E 5 e0 55 4a
        E 5 e0 55 4a
        E 6 e0 55 4a
        E 5 e0 55 4a
        E 6 e0 55 4a
        E 5 e0 55 4a
        E 5 e0 55 4a
        E 6 e0 55 4a
        E 5 e0 55 4a
        E 6 e0 55 4a
        E 5 e0 55 2a
        E 0 90 2f 3b
        E 0 90 30 00
        E 51 90 34 2d
        E 5 90 28 2f
        E 21 90 40 3a
        E 10 90 43 3e
        E 77 90 37 3e
        E 25 90 43 00
        E 67 90 37 00
        E 0 90 37 44
        E 20 90 2f 00
        E 113 90 40 00
        E 20 90 33 39
        E 0 90 34 00
        E 11 90 28 00
        E 86 90 32 31
        E 0 90 33 00
        E 118 90 31 37
        E 0 90 32 00
        E 41 90 37 00
        E 66 90 37 28
        E 56 90 31 00
        E 0 90 31 34
        E 72 90 2f 2d
        E 25 90 37 00
        E 92 90 31 00
        E 5 90 2f 00
        E 0 90 2f 2f
        E 57 90 40 40
        E 10 90 28 33
        E 25 90 43 3d
        E 98 90 2f 00
        E 5 90 43 00
        E 5 90 36 31
        E 77 90 36 00
        E 0 90 37 41
        E 0 90 40 00
        E 0 90 40 2c
        E 87 90 40 00
        E 0 90 40 27
        E 46 90 33 2f
        E 30 90 37 00
        E 0 90 37 42
        E 62 90 40 00
        E 10 90 33 00
        E 46 90 37 00
        E 15 90 34 29
        E 21 90 28 00
        E 30 90 31 31
        E 36 90 34 00
        E 5 90 34 36
        E 113 90 31 00
        E 0 90 31 35
        E 66 90 34 00
        E 5 90 2f 33
        E 10 90 31 00
        E 67 90 2e 2d
        E 0 90 2f 00
        E 0 90 30 2f
        E 87 90 2e 00
        E 0 90 30 00
        E 5 90 30 2e
        E 0 90 40 3f
        E 0 90 4f 24
        E 10 90 28 38
        E 41 90 43 37
        E 10 90 4f 00
        E 6 90 30 00
        E 5 90 2f 2f
        E 35 90 37 42
        E 11 90 34 2a
        E 71 90 37 00
        E 0 90 37 44
        E 0 90 43 00
        E 46 90 2f 00
        E 0 90 34 00
        E 56 90 37 00
        E 0 90 37 49
        E 16 90 40 00
        E 10 90 31 2f
        E 77 90 37 00
        E 0 90 37 3a
        E 20 90 30 39
        E 0 90 31 00
        E 51 90 45 41
        E 10 90 30 00
        E 0 90 37 00
        E 36 90 2f 35
        E 10 90 28 00
        E 0 90 47 3b
        E 5 90 28 38
        E 5 90 45 00
        E 26 90 43 3c
        E 20 90 2f 00
        E 0 90 2f 38
        E 21 90 3b 2b
        E 15 90 37 43
        E 51 90 43 00
        E 31 90 3b 00
        E 10 90 37 00
        E 0 90 37 44
        E 56 90 34 34
        E 0 90 47 00
        E 21 90 2f 00
        E 46 90 2d 39
        E 0 90 34 00
        E 0 90 34 35
        E 0 90 42 2f
        E 25 90 28 00
        E 31 90 37 00
        E 5 90 42 00
        E 77 90 2d 00
        E 0 90 2d 3a
        E 5 90 34 00
        E 0 90 34 36
        E 0 90 3c 3d
        E 5 90 40 37
        E 21 90 43 42
        E 77 90 45 42
        E 5 90 34 00
        E 10 90 43 00
        E 5 90 42 3a
        E 25 90 3c 00
        E 0 90 3c 3e
        E 72 90 28 3b
        E 0 90 40 00
        E 15 90 45 00
        E 11 90 2d 00
        E 5 90 3c 00
        E 5 90 42 00
        E 0 90 43 4f
        E 0 90 47 3f
        E 30 90 28 00
        E 6 90 28 3f
        E 25 90 2f 2f
        E 5 90 43 00
        E 0 90 43 3c
        E 51 90 37 40
        E 46 90 43 00
        E 26 90 37 00
        E 0 90 37 41
        E 51 90 47 00
        E 10 90 2f 00
        E 46 90 37 00
        E 0 90 37 45
        E 61 90 33 36
        E 138 90 33 00
        E 11 90 34 27
        E 25 90 37 00
        E 36 90 28 00
        E 21 90 31 38
        E 51 90 34 00
        E 56 e0 55 6a
        E 0 90 30 2d
        E 0 90 31 00
        E 6 e0 55 4a
        E 5 e0 55 4a
        E 6 e0 55 4a
        E 5 e0 55 4a
        E 6 e0 55 4a
        E 5 e0 55 4a
        E 6 e0 55 4a
        E 5 e0 55 4a
        E 6 e0 55 6a
        E 5 e0 55 6a
        E 6 e0 55 6a
        E 5 e0 55 6a
        E 6 e0 55 6a
        E 0 90 30 00
        E 0 90 30 35
        E 5 e0 55 4a
        E 6 e0 55 4a
        E 5 e0 55 4a
        E 5 e0 55 4a
        E 6 e0 55 4a
        E 5 e0 55 4a
        E 6 e0 55 4a
        E 5 e0 55 6a
        E 6 e0 55 4a
        E 5 e0 55 4a
        E 6 e0 55 4a
        E 5 e0 55 4a
        E 6 e0 55 4a
        E 5 e0 55 4a
        E 0 90 30 00
        E 0 90 30 31
        E 46 90 2e 2d
        E 26 90 40 38
        E 5 90 34 2c
        E 31 90 2e 00
        E 0 90 2f 38
        E 0 90 30 00
        E 76 90 34 00
        E 21 90 2d 2b
        E 5 90 2f 00
        E 20 90 30 2c
        E 0 90 43 36
        E 0 90 48 28
        E 5 90 3c 37
        E 56 90 40 00
        E 11 90 30 00
        E 51 90 37 33
        E 15 90 43 00
        E 0 90 48 00
        E 72 90 37 00
        E 0 90 37 46
        E 51 90 2d 00
        E 20 90 3c 00
        E 0 90 3c 3e
        E 72 90 34 2d
        E 77 90 37 00
        E 0 90 37 43
        E 25 90 3c 00
        E 0 90 40 22
        E 21 90 3b 3a
        E 76 90 34 00
        E 0 90 40 00
        E 16 90 2f 2f
        E 15 90 37 00
        E 26 90 23 39
        E 5 90 3f 39
        E 20 90 3b 00
        E 21 90 39 45
        E 40 90 36 2b
        E 51 90 39 00
        E 0 90 39 45
        E 26 90 36 00
        E 10 90 37 40
        E 41 90 23 00
        E 5 90 39 00
        E 0 90 39 38
        E 26 90 36 39
        E 0 90 37 00
        E 30 90 2f 00
        E 0 90 3b 28
        E 52 90 39 00
        E 0 90 39 34
        E 40 90 3f 00
        E 51 90 3b 00
        E 6 90 36 00
        E 0 90 37 46
        E 61 90 39 00
        E 0 90 39 36
        E 41 90 36 43
        E 0 90 37 00
        E 10 90 40 47
        E 107 90 39 00
        E 42 90 40 00
        E 0 90 40 34
        E 5 90 36 00
        E 0 90 37 48
        E 5 90 28 3e
        E 61 90 34 2a
        E 164 90 37 00
        E 0 90 37 45
        E 25 90 40 00
        E 10 90 34 00
        E 87 90 3f 31
        E 10 90 33 38
        E 77 90 3f 00
        E 5 90 28 00
        E 5 90 3e 2e
        E 5 90 33 00
        E 6 90 32 2c
        E 30 90 34 26
        E 51 90 3e 00
        E 16 90 37 00
        E 10 90 34 00
        E 5 90 32 00
        E 25 90 40 2c
        E 21 90 31 31
        E 56 90 37 2a
        E 15 90 31 00
        E 6 90 31 37
        E 51 90 48 29
        E 15 90 31 00
        E 0 90 31 31
        E 41 90 37 00
        E 10 90 48 00
        E 0 90 48 26
        E 10 90 40 00
        E 47 90 31 00
        E 20 90 2f 3b
        E 0 90 48 00
        E 36 90 28 36
        E 97 90 2f 00
        E 0 90 2f 33
        E 36 90 36 2c
        E 76 90 34 2a
        E 31 90 2f 00
        E 26 90 36 00
        E 0 90 37 38
        E 10 90 34 00
        E 36 90 3f 36
        E 81 90 28 00
        E 21 90 32 2b
        E 0 90 37 00
        E 0 90 3e 32
        E 0 90 3f 00
        E 5 90 37 2f
        E 30 90 40 2c
        E 103 90 32 00
        E 0 90 3e 00
        E 10 90 40 00
        E 0 90 40 31
        E 31 90 37 00
        E 10 90 3d 38
        E 35 90 30 2e
        E 0 90 32 2c
        E 0 90 48 23
        E 26 90 3d 00
        E 31 90 40 00
        E 35 90 48 00
        E 31 90 32 00
        E 26 e0 55 4a
        E 0 90 30 00
        E 0 90 30 31
        E 6 e0 55 4a
        E 5 e0 55 4a
        E 6 e0 55 4a
        E 5 e0 55 4a
        E 6 e0 55 4a
        E 5 e0 55 4a
        E 6 e0 55 4a
        E 5 e0 55 4a
        E 6 e0 55 4a
        E 5 e0 55 4a
        E 6 e0 55 4a
        E 5 e0 55 4a
        E 6 e0 55 4a
        E 0 90 30 00
        E 10 90 2f 36
        E 92 90 40 3d
        E 0 90 43 3c
        E 20 90 28 2b
        E 46 90 43 00
        E 0 90 43 32
        E 87 90 2f 00
        E 61 90 37 42
        E 57 90 43 00
        E 0 90 43 31
        E 5 90 37 00
        E 0 90 37 3e
        E 15 90 28 00
        E 46 90 43 00
        E 10 90 40 00
        E 5 90 3f 3a
        E 11 90 33 2b
        E 81 90 33 00
        E 11 90 3e 37
        E 0 90 3f 00
        E 10 90 32 2e
        E 76 90 3e 00
        E 0 90 3e 36
        E 5 90 32 00
        E 0 90 32 34
        E 62 90 40 37
        E 36 90 32 00
        E 0 90 3e 00
        E 15 90 34 28
        E 20 90 30 38
        E 37 90 40 00
        E 15 90 37 00
        E 5 90 34 00
        E 10 90 3c 27
        E 10 90 30 00
        E 0 90 30 33
        E 57 90 3c 00
        E 20 90 30 00
        E 0 90 30 35
        E 31 90 2e 30
        E 41 90 30 00
        E 25 90 2e 00
        E 0 90 2f 33
        E 31 90 40 3f
        E 5 90 28 2f
        E 20 90 43 39
        E 57 90 2f 00
        E 0 90 2f 2d
        E 20 90 37 39
        E 36 90 28 00
        E 0 90 43 00
        E 25 90 37 00
        E 5 90 36 32
        E 92 90 34 2c
        E 26 90 2f 00
        E 41 90 36 00
        E 0 90 37 49
        E 25 90 34 00
        E 0 90 3f 3a
        E 0 90 40 00
        E 36 90 37 00
        E 5 90 37 40
        E 61 90 3e 36
        E 0 90 3f 00
        E 6 90 32 2e
        E 46 90 40 31
        E 86 90 37 00
        E 11 90 32 00
        E 5 90 40 00
        E 0 90 40 3b
        E 21 90 3e 00
        E 46 90 30 3c
        E 66 90 30 00
        E 0 90 30 31
        E 0 90 40 00
        E 0 90 40 2c
        E 92 90 40 00
        E 36 90 30 00
        E 20 90 3b 28
        E 5 90 2f 37
        E 67 90 3b 00
        E 15 90 28 37
        E 15 90 2f 00
        E 11 90 40 3a
        E 0 90 43 41
        E 61 90 43 00
        E 0 90 43 39
        E 41 90 2f 2f
        E 46 90 43 00
        E 25 90 36 36
        E 5 90 2f 00
        E 67 90 36 00
        E 0 90 37 3d
        E 87 90 31 34
        E 5 90 40 00
        E 107 90 31 00
        E 10 90 4a 29
        E 5 90 42 3c
        E 21 90 2f 31
        E 11 90 45 41
        E 25 90 42 00
        E 0 90 42 2d
        E 5 90 4a 00
        E 36 90 37 00
        E 0 90 37 26
        E 0 90 47 3c
        E 10 90 2f 00
        E 0 90 2f 30
        E 0 90 45 00
        E 10 90 42 00
        E 6 90 28 00
        E 0 90 28 3f
        E 15 90 43 39
        E 41 90 2f 00
        E 0 90 2f 30
        E 15 90 37 00
        E 0 90 37 45
        E 41 90 43 00
        E 36 90 37 00
        E 0 90 37 43
        E 51 90 47 00
        E 41 90 2f 00
        E 46 90 28 00
        E 5 90 26 2d
        E 0 90 32 2e
        E 10 90 37 00
        E 0 90 42 2d
        E 0 90 45 2e
        E 66 90 32 00
        E 72 90 26 00
        E 0 90 42 00
        E 10 90 40 46
        E 21 90 3c 35
        E 15 90 43 40
        E 71 90 45 00
        E 0 90 45 2e
        E 5 90 40 00
        E 0 90 40 38
        E 11 90 26 33
        E 0 90 42 3c
        E 0 90 43 00
        E 10 90 3c 00
        E 56 90 37 2f
        E 21 90 26 00
        E 10 90 45 00
        E 10 90 42 00
        E 10 90 2b 41
        E 21 90 40 00
        E 5 90 37 00
        E 0 90 47 2d
        E 5 90 37 36
        E 205 90 37 00
        E 5 90 3b 36
        E 87 90 3b 00
        E 0 90 3b 37
        E 25 90 37 2b
        E 16 90 2b 00
        E 15 90 42 26
        E 36 90 3b 00
        E 0 90 3b 35
        E 25 90 36 30
        E 0 90 37 00
        E 10 90 47 00
        E 11 90 42 00
        E 25 90 3b 00
        E 46 90 36 00
        E 15 90 35 2d
        E 0 90 37 42
        E 128 90 35 00
        E 0 90 35 28
        E 31 90 33 2b
        E 46 90 35 00
        E 112 90 3f 27
        E 5 90 33 00
        E 0 90 33 36
        E 0 90 37 00
        E 67 90 32 3a
        E 0 90 33 00
        E 0 90 45 3d
        E 56 90 3f 00
        E 62 90 45 00
        E 10 90 32 00
        E 15 90 2d 34
        E 0 90 48 41
        E 11 90 40 32
        E 35 90 3c 43
        E 82 90 48 00
        E 0 90 48 38
        E 31 90 40 00
        E 25 90 36 37
        E 5 90 48 00
        E 82 90 3c 00
        E 0 90 3c 40
        E 77 90 36 00
        E 0 90 37 49
        E 81 90 34 2e
        E 16 90 2d 00
        E 0 90 37 00
        E 0 90 37 46
        E 30 90 47 44
        E 67 90 2f 44
        E 25 90 3c 00
        E 5 90 34 00
        E 6 90 23 38
        E 0 90 3b 1d
        E 30 90 47 00
        E 10 90 37 00
        E 0 90 3f 4b
        E 6 90 2f 00
        E 0 90 2f 33
        E 0 90 45 34
        E 0 90 4b 36
        E 25 90 3b 00
        E 82 90 3f 00
        E 0 90 3f 48
        E 16 90 45 00
        E 10 90 4b 00
        E 51 90 37 42
        E 0 90 39 29
        E 51 90 2f 00
        E 10 90 23 00
        E 16 90 37 00
        E 0 90 37 35
        E 0 90 39 00
        E 25 90 3f 00
        E 0 90 3f 3f
        E 61 90 39 33
        E 31 90 3f 00
        E 0 90 3f 37
        E 46 90 39 00
        E 15 90 37 00
        E 0 90 37 3d
        E 41 90 39 3a
        E 21 90 3f 00
        E 46 90 39 00
        E 5 90 39 2f
        E 0 90 40 3f
        E 0 90 4c 2c
        E 5 90 37 00
        E 0 90 37 33
        E 5 90 2d 2c
        E 61 90 4c 00
        E 31 90 39 00
        E 15 90 2d 00
        E 16 90 37 00
        E 10 90 28 38
        E 56 90 40 00
        E 0 90 40 41
        E 10 90 43 35
        E 128 90 2f 2a
        E 36 90 43 00
        E 35 90 2f 00
        E 6 90 37 36
        E 143 90 40 00
        E 10 90 37 00
        E 0 90 37 42
        E 51 90 28 00
        E 21 90 3e 4a
        E 5 90 37 00
        E 0 90 37 3c
        E 5 90 1c 2d
        E 61 90 37 00
        E 0 90 37 3d
        E 26 90 1c 00
        E 61 90 28 2c
        E 10 90 3c 44
        E 0 90 48 28
        E 62 90 48 00
        E 10 90 28 00
        E 56 90 37 00
        E 16 90 3c 00
        E 0 90 3e 00
        E 0 90 3e 33
        E 0 90 4a 47
        E 5 90 40 2b
        E 30 90 28 2f
        E 21 90 2f 2c
        E 15 90 3e 00
        E 0 90 40 00
        E 36 90 37 3f
        E 36 90 4a 00
        E 5 90 28 00
        E 5 90 48 2f
        E 51 90 37 00
        E 0 90 37 49
        E 31 90 2f 00
        E 35 90 37 00
        E 0 90 37 41
        E 0 90 3e 47
        E 21 90 4f 34
        E 15 90 48 00
        E 56 90 1c 26
        E 11 90 4f 00
        E 20 90 3c 39
        E 36 90 1c 00
        E 61 90 3c 00
        E 11 90 47 41
        E 5 90 37 00
        E 5 90 28 3b
        E 56 90 3e 00
        E 61 90 45 2e
        E 0 90 51 31
        E 36 90 47 00
        E 67 90 51 00
        E 66 90 45 00
        E 41 90 39 38
        E 87 90 39 00
        E 15 90 47 3d
        E 46 90 34 2e
        E 5 90 4c 31
        E 56 90 34 00
        E 11 90 45 2f
        E 0 90 51 39
        E 5 90 4c 00
        E 10 90 47 00
        E 61 90 30 32
        E 26 90 28 00
        E 0 90 3b 3a
        E 5 90 28 3e
        E 5 90 51 00
        E 25 90 40 32
        E 26 90 34 29
        E 52 90 3b 00
        E 15 90 39 38
        E 5 90 45 00
        E 31 90 34 00
        E 25 90 40 00
        E 10 90 39 00
        E 0 90 43 3a
        E 62 90 28 00
        E 0 90 28 43
        E 46 90 39 28
        E 30 90 41 37
        E 6 90 4d 3a
        E 5 90 28 00
        E 0 90 28 37
        E 40 90 3c 38
        E 0 90 48 3a
        E 21 90 39 00
        E 0 90 39 38
        E 20 90 4d 00
        E 16 90 43 00
        E 0 90 43 31
        E 5 90 3c 00
        E 0 90 3c 38
        E 61 90 48 00
        E 0 90 48 41
        E 51 90 3c 00
        E 10 90 41 00
        E 16 90 48 00
        E 0 90 48 3b
        E 46 90 40 3c
        E 0 90 43 00
        E 0 90 4c 3c
        E 10 90 30 00
        E 5 90 28 00
        E 0 90 48 00
        E 15 90 39 00
        E 51 90 4c 00
        E 41 90 4b 27
        E 21 90 40 00
        E 15 90 39 31
        E 0 90 3f 34
        E 36 90 36 32
        E 5 90 4b 00
        E 36 90 45 2b
        E 5 90 38 3d
        E 0 90 39 00
        E 30 90 3f 00
        E 0 90 40 49
        E 62 90 38 00
        E 0 90 3f 46
        E 0 90 40 00
        E 5 90 38 36
        E 16 90 45 00
        E 87 90 38 00
        E 20 90 36 00
        E 0 90 4c 39
        E 5 90 3f 00
        E 0 90 40 40
        E 82 90 4c 00
        E 36 90 36 30
        E 81 90 40 00
        E 16 90 3e 4c
        E 5 90 34 31
        E 56 90 40 2f
        E 5 90 36 00
        E 0 90 37 41
        E 92 90 3c 46
        E 0 90 48 29
        E 36 90 34 00
        E 46 90 48 00
        E 15 90 40 00
        E 15 90 37 00
        E 0 90 4a 43
        E 6 90 37 3d
        E 0 90 3e 00
        E 0 90 3e 39
        E 20 90 28 2f
        E 10 90 3c 00
        E 56 90 37 00
        E 0 90 37 4a
        E 21 90 3e 00
        E 30 90 28 00
        E 72 90 34 24
        E 5 90 37 00
        E 0 90 37 44
        E 10 90 4a 00
        E 16 90 3e 47
        E 26 90 34 00
        E 56 90 34 27
        E 20 90 3c 40
        E 97 90 37 00
        E 0 90 3c 00
        E 0 90 47 42
        E 6 90 28 34
        E 71 90 40 31
        E 10 90 3c 36
        E 10 90 3e 00
        E 31 90 45 3c
        E 26 90 34 00
        E 5 90 34 35
        E 0 90 40 00
        E 0 90 40 32
        E 30 90 30 3c
        E 0 90 3c 00
        E 11 90 45 00
        E 51 90 47 00
        E 20 90 30 00
        E 0 90 30 31
        E 0 90 3c 2d
        E 15 90 28 00
        E 31 90 3f 2b
        E 0 90 40 00
        E 5 90 39 38
        E 10 90 30 00
        E 11 90 34 00
        E 35 90 3f 00
        E 46 90 34 2e
        E 0 90 3b 2f
        E 0 90 3c 00
        E 0 90 40 26
        E 0 90 47 44
        E 26 90 39 00
        E 15 90 28 37
        E 21 90 3b 00
        E 25 90 34 00
        E 0 90 34 2b
        E 0 90 3c 3b
        E 16 90 40 00
        E 51 90 34 00
        E 0 90 34 32
        E 5 90 47 00
        E 36 90 30 3c
        E 25 90 3b 31
        E 0 90 3c 00
        E 31 90 34 00
        E 26 90 34 34
        E 5 90 30 00
        E 0 90 30 38
        E 87 90 34 00
        E 0 90 34 3c
        E 46 90 3b 00
        E 30 90 43 3e
        E 16 90 34 00
        E 41 90 3c 2d
        E 15 90 30 00
        E 0 90 30 3b
        E 56 90 3c 00
        E 26 90 28 00
        E 20 90 2f 2e
        E 0 90 30 00
        E 26 90 43 00
        E 5 90 39 28
        E 5 90 2d 2a
        E 41 90 2f 00
        E 0 90 37 3c
        E 30 90 39 00
        E 5 90 30 41
        E 26 90 3c 29
        E 5 90 2d 00
        E 0 90 2d 3a
        E 46 90 35 31
        E 15 90 3c 00
        E 0 90 3c 28
        E 21 90 30 00
        E 0 90 30 35
        E 41 90 35 00
        E 5 90 2d 00
        E 0 90 40 43
        E 5 90 37 00
        E 20 90 3c 00
        E 72 90 36 30
        E 25 90 30 00
        E 0 90 38 25
        E 11 90 40 00
        E 0 90 40 32
        E 56 90 2c 33
        E 5 90 2a 2c
        E 15 90 36 00
        E 0 90 36 39
        E 5 90 3f 36
        E 0 90 40 00
        E 6 90 38 00
        E 20 90 34 36
        E 31 90 30 41
        E 31 90 3f 00
        E 36 90 30 00
        E 5 90 2f 2f
        E 51 90 33 30
        E 0 90 34 00
        E 0 90 36 00
        E 10 90 2a 00
        E 148 90 2f 00
        E 0 90 30 39
        E 5 90 33 00
        E 10 90 2c 00
        E 26 90 28 39
        E 10 90 40 33
        E 72 90 30 00
        E 5 90 2f 3f
        E 61 90 36 4a
        E 41 90 28 00
        E 20 90 36 00
        E 6 90 37 58
        E 46 90 2f 00
        E 20 90 40 00
        E 51 90 37 00
        E 0 90 37 4a
        E 20 90 33 4f
        E 0 90 3f 27
        E 52 90 2f 30
        E 10 90 3f 00
        E 41 90 32 3f
        E 0 90 33 00
        E 20 90 2f 00
        E 77 90 37 00
        E 16 e0 55 6a
        E 0 90 31 35
        E 0 90 32 00
        E 5 e0 55 4a
        E 6 e0 55 4a
        E 5 e0 55 4a
        E 6 e0 55 4a
        E 5 e0 55 4a
        E 6 e0 55 4a
        E 6 e0 55 6a
        E 5 e0 55 6a
        E 6 e0 55 6a
        E 5 e0 55 4a
        E 6 e0 55 4a
        E 0 90 31 00
        E 0 90 31 3f
        E 5 e0 55 4a
        E 6 e0 55 4a
        E 5 e0 55 4a
        E 6 e0 55 4a
        E 5 e0 55 4a
        E 6 e0 55 4a
        E 5 e0 55 4a
        E 6 e0 55 4a
        E 5 e0 55 4a
        E 6 e0 55 4a
        E 5 e0 55 2a
        E 6 e0 55 2a
        E 5 e0 55 2a
        E 6 e0 55 4a
        E 0 90 30 40
        E 0 90 31 00
        E 5 e0 55 4a
        E 5 e0 55 4a
        E 6 e0 55 4a
        E 5 e0 55 4a
        E 6 e0 55 4a
        E 5 e0 55 4a
        E 5 e0 55 4a
        E 6 e0 55 4a
        E 5 e0 55 4a
        E 6 e0 55 4a
        E 5 e0 55 4a
        E 5 e0 55 4a
        E 6 e0 55 4a
        E 5 e0 55 4a
        E 6 e0 55 4a
        E 5 e0 55 4a
        E 5 e0 55 4a
        E 0 90 2f 3b
        E 0 90 30 00
        E 6 e0 55 4a
        E 5 e0 55 4a
        E 5 e0 55 4a
        E 6 e0 55 4a
        E 5 e0 55 4a
        E 5 e0 55 4a
        E 5 e0 55 4a
        E 6 e0 55 4a
        E 5 e0 55 4a
        E 5 e0 55 4a
        E 6 e0 55 4a
        E 5 e0 55 4a
        E 5 e0 55 4a
        E 5 e0 55 4a
        E 6 e0 55 4a
        E 5 e0 55 4a
        E 5 e0 55 6a
        E 6 e0 55 2a
        E 5 e0 55 2a
        E 5 e0 55 2a
        E 5 e0 55 2a
        E 6 e0 55 2a
        E 5 e0 55 2a
        E 5 e0 55 2a
        E 6 e0 55 2a
        E 5 e0 55 4a
        E 5 e0 55 4a
        E 5 e0 55 4a
        E 6 e0 55 4a
        E 0 90 2f 00
        E 0 90 2f 48
        E 122 90 28 49
        E 5 90 2f 00
        E 0 90 2f 3b
        E 113 90 2f 00
        E 0 90 2f 40
        E 76 90 37 51
        E 46 90 28 00
        E 0 90 2f 00
        E 6 90 4f 4a
        E 10 90 4c 38
        E 25 90 36 2f
        E 0 90 37 00
        E 21 90 28 2f
        E 108 90 4c 00
        E 5 90 4f 00
        E 15 90 36 00
        E 20 90 4e 4e
        E 6 90 37 48
        E 0 90 4a 2e
        E 76 90 3b 49
        E 31 90 4a 00
        E 25 90 28 00
        E 0 90 4e 00
        E 21 90 37 00
        E 0 90 37 50
        E 0 90 4c 4f
        E 10 90 48 3f
        E 46 90 3b 00
        E 0 90 3c 3d
        E 26 90 48 00
        E 61 90 4a 49
        E 5 90 37 00
        E 0 90 37 3c
        E 0 90 4c 00
        E 36 90 32 39
        E 5 90 3b 2c
        E 0 90 3c 00
        E 10 90 3e 2c
        E 15 90 39 2f
        E 51 90 37 00
        E 6 90 48 4c
        E 10 90 38 37
        E 0 90 39 00
        E 0 90 4a 00
        E 41 90 3b 00
        E 71 90 3b 2f
        E 0 90 47 44
        E 0 90 48 00
        E 5 90 32 00
        E 0 90 43 37
        E 10 90 3e 00
        E 52 90 3b 00
        E 0 90 3b 41
        E 56 90 38 00
        E 15 90 43 00
        E 0 90 45 39
        E 20 90 42 3e
        E 52 90 47 00
        E 46 90 42 00
        E 10 90 33 42
        E 0 90 3b 00
        E 0 90 3c 3c
        E 72 90 40 39
        E 0 90 43 2b
        E 5 90 37 2a
        E 5 90 45 00
        E 5 90 2b 34
        E 5 90 33 00
        E 10 90 3c 00
        E 36 90 43 00
        E 21 90 34 3e
        E 15 90 40 00
        E 82 90 4c 4d
        E 5 90 40 3b
        E 15 90 37 00
        E 31 90 3b 39
        E 5 90 2b 00
        E 20 90 40 00
        E 36 90 34 00
        E 0 90 34 45
        E 0 90 3b 00
        E 21 90 4c 00
        E 25 90 4a 4f
        E 56 90 34 00
        E 0 90 34 41
        E 26 90 39 3c
        E 46 90 48 47
        E 56 90 39 00
        E 0 90 39 33
        E 0 90 4a 00
        E 36 90 36 2f
        E 5 90 34 00
        E 31 90 4a 2b
        E 5 90 39 00
        E 5 90 43 2e
        E 35 90 3c 35
        E 6 90 48 00
        E 0 90 48 31
        E 25 90 43 00
        E 15 90 4a 00
        E 16 90 39 3b
        E 20 90 45 42
        E 11 90 3e 39
        E 20 90 42 3d
        E 46 90 48 00
        E 46 90 36 00
        E 5 90 39 00
        E 6 90 42 00
        E 15 90 45 00
        E 5 90 40 37
        E 0 90 43 3d
        E 5 90 2f 3c
        E 56 90 39 45
        E 21 90 2f 00
        E 25 90 3b 44
        E 0 90 3c 00
        E 0 90 3e 00
        E 46 90 39 00
        E 0 90 39 41
        E 0 90 45 2b
        E 72 90 3b 00
        E 0 90 3b 43
        E 36 90 43 00
        E 20 90 2f 53
        E 0 90 40 00
        E 5 90 3b 00
        E 0 90 3b 38
        E 0 90 3f 3a
        E 0 90 42 34
        E 0 90 4b 1e
        E 77 90 4b 00
        E 51 90 2f 00
        E 0 90 30 34
        E 36 90 45 00
        E 5 90 3f 00
        E 0 90 40 3e
        E 10 90 3b 00
        E 56 90 42 00
        E 5 90 39 00
        E 31 90 48 36
        E 5 90 3c 52
        E 46 90 30 00
        E 41 90 3c 00
        E 0 90 3c 4a
        E 0 90 48 00
        E 0 90 48 34
        E 41 90 39 45
        E 41 90 48 00
        E 5 90 3c 00
        E 0 90 3c 48
        E 21 90 40 00
        E 10 90 45 39
        E 46 90 38 47
        E 0 90 39 00
        E 41 90 48 2c
        E 15 90 42 45
        E 5 90 38 00
        E 0 90 38 45
        E 0 90 3f 42
        E 92 90 38 00
        E 0 90 38 3c
        E 0 90 48 00
        E 31 90 3c 00
        E 0 90 42 00
        E 10 90 45 00
        E 10 90 3f 00
        E 0 90 40 3c
        E 21 90 30 45
        E 15 90 43 33
        E 36 90 37 4b
        E 0 90 38 00
        E 35 90 48 2f
        E 6 90 30 00
        E 0 90 30 39
        E 35 90 37 00
        E 0 90 37 48
        E 0 90 3b 47
        E 36 90 43 00
        E 10 90 48 00
        E 0 90 48 31
        E 41 90 37 00
        E 0 90 37 54
        E 5 90 3b 00
        E 0 90 3c 3b
        E 51 90 30 00
        E 5 90 37 00
        E 0 90 38 2d
        E 0 90 44 4d
        E 0 90 48 00
        E 11 90 40 00
        E 0 90 40 44
        E 5 90 2f 3f
        E 5 90 3c 00
        E 61 90 38 00
        E 0 90 38 5b
        E 46 90 40 00
        E 0 90 40 2f
        E 5 90 42 41
        E 0 90 44 00
        E 0 90 45 43
        E 5 90 2f 00
        E 0 90 2f 33
        E 0 90 3c 40
        E 0 90 48 37
        E 16 90 38 00
        E 0 90 38 4a
        E 71 90 48 00
        E 10 90 47 48
        E 6 90 3b 3f
        E 0 90 3c 00
        E 0 90 44 36
        E 0 90 45 00
        E 15 90 42 00
        E 15 90 38 00
        E 0 90 38 47
        E 67 90 2f 00
        E 21 90 40 00
        E 15 90 2d 34
        E 31 90 47 00
        E 0 90 48 58
        E 10 90 44 00
        E 0 90 45 2f
        E 5 90 3b 00
        E 20 90 2d 00
        E 31 90 34 2e
        E 41 90 38 00
        E 0 90 3c 3b
        E 0 90 48 00
        E 0 90 48 4f
        E 56 90 34 00
        E 0 90 45 00
        E 15 90 48 00
        E 0 90 48 3c
        E 11 90 3c 00
        E 0 90 3c 4c
        E 40 90 39 4e
        E 41 90 3c 00
        E 0 90 3c 54
        E 11 90 48 00
        E 56 90 38 4f
        E 0 90 39 00
        E 30 90 3c 00
        E 0 90 3c 3d
        E 82 90 37 3c
        E 0 90 38 00
        E 26 90 39 2f
        E 92 90 36 45
        E 0 90 37 00
        E 102 90 39 00
        E 10 90 35 35
        E 0 90 36 00
        E 77 90 35 00
        E 0 90 35 3d
        E 5 90 3c 00
        E 0 90 3c 2f
        E 67 90 35 00
        E 0 90 35 3d
        E 25 90 3c 00
        E 10 90 33 35
        E 36 90 47 3d
        E 51 90 33 00
        E 0 90 34 47
        E 0 90 35 00
        E 62 90 2d 3a
        E 0 90 34 00
        E 0 90 34 30
        E 46 90 51 2f
        E 5 90 39 2b
        E 5 90 47 00
        E 20 90 48 4e
        E 123 90 3c 3d
        E 5 90 48 00
        E 0 90 48 49
        E 5 90 51 00
        E 15 90 39 00
        E 5 90 34 00
        E 77 90 2d 00
        E 0 90 2d 32
        E 0 90 3c 00
        E 0 90 3c 3a
        E 0 90 48 00
        E 0 90 48 48
        E 5 90 34 2e
        E 31 90 45 2c
        E 61 90 38 5b
        E 5 90 48 00
        E 0 90 48 2d
        E 36 90 3c 00
        E 0 90 3c 38
        E 5 90 45 00
        E 15 90 37 3e
        E 0 90 38 00
        E 36 90 34 00
        E 5 90 39 25
        E 5 90 3c 00
        E 41 90 37 00
        E 0 90 37 3f
        E 51 90 48 00
        E 27 90 37 00
        E 0 90 37 3b
        E 35 90 39 00
        E 26 90 35 2a
        E 76 90 35 00
        E 0 90 36 42
        E 0 90 37 00
        E 36 90 34 2b
        E 56 90 36 00
        E 0 90 36 37
        E 21 90 34 00
        E 30 90 3f 28
        E 21 90 36 00
        E 0 90 37 36
        E 15 90 35 2a
        E 67 90 3f 00
        E 25 90 35 00
        E 0 90 36 34
        E 0 90 37 00
        E 164 90 36 00
        E 86 90 39 36
        E 103 90 39 00
        E 56 90 3c 3a
        E 41 90 3e 57
        E 41 90 2d 00
        E 15 90 3c 00
        E 16 90 45 2e
        E 0 90 51 3e
        E 5 90 3e 00
        E 0 90 3e 41
        E 112 90 51 00
        E 16 90 4f 4d
        E 5 90 40 33
        E 0 90 43 3e
        E 46 90 45 00
        E 0 90 45 42
        E 76 90 40 00
        E 31 90 3e 00
        E 0 90 3e 43
        E 0 90 4e 2f
        E 0 90 4f 00
        E 5 90 45 00
        E 0 90 45 3e
        E 0 90 4a 2d
        E 61 90 45 00
        E 0 90 4a 00
        E 6 90 4e 00
        E 25 90 42 42
        E 0 90 43 00
        E 46 90 48 40
        E 36 90 4d 23
        E 5 90 3e 00
        E 0 90 3e 4f
        E 0 90 40 36
        E 25 90 3c 3b
        E 16 90 42 00
        E 15 90 48 00
        E 0 90 48 31
        E 10 90 3e 00
        E 0 90 3e 3e
        E 0 90 4a 3e
        E 11 90 4d 00
        E 15 90 3c 00
        E 5 90 3b 2c
        E 41 90 39 26
        E 20 90 37 3d
        E 16 90 3b 00
        E 20 90 48 00
        E 0 90 48 39
        E 0 90 4a 00
        E 5 90 3c 33
        E 0 90 40 00
        E 26 90 39 00
        E 5 90 36 34
        E 0 90 37 00
        E 41 90 34 30
        E 30 90 45 29
        E 16 90 32 31
        E 36 90 34 00
        E 0 90 3e 00
        E 15 90 3c 00
        E 10 90 36 00
        E 6 90 45 00
        E 0 90 48 00
        E 5 90 2b 3b
        E 10 90 37 35
        E 71 90 32 00
        E 0 90 32 35
        E 57 90 37 00
        E 0 90 37 3c
        E 40 90 3e 42
        E 0 90 4e 37
        E 0 90 51 4a
        E 31 90 2b 00
        E 21 90 39 26
        E 25 90 4e 00
        E 36 90 3c 41
        E 0 90 3e 00
        E 15 90 39 00
        E 0 90 4f 46
        E 0 90 51 00
        E 5 90 39 2e
        E 5 90 37 00
        E 72 90 3e 35
        E 15 90 32 00
        E 0 90 39 00
        E 16 90 40 34
        E 10 90 4f 00
        E 10 90 4e 40
        E 10 90 3e 00
        E 0 90 3e 3b
        E 0 90 4a 3a
        E 36 90 42 37
        E 15 90 3c 00
        E 51 90 45 33
        E 26 90 3e 00
        E 5 90 3c 35
        E 0 90 48 39
        E 5 90 40 00
        E 0 90 40 3b
        E 15 90 4a 00
        E 36 90 42 00
        E 0 90 42 37
        E 21 90 4e 00
        E 25 90 45 00
        E 5 90 40 00
        E 0 90 40 3f
        E 5 90 4a 36
        E 6 90 47 39
        E 0 90 48 00
        E 25 90 3e 4f
        E 36 90 3c 00
        E 0 90 3c 44
        E 0 90 40 00
        E 0 90 40 35
        E 0 90 47 00
        E 0 90 48 2d
        E 72 90 3c 00
        E 0 90 3c 3d
        E 0 90 3e 00
        E 0 90 3e 34
        E 0 90 48 00
        E 0 90 48 39
        E 10 90 42 00
        E 56 90 4a 00
        E 26 90 40 00
        E 5 90 36 40
        E 5 90 48 00
        E 0 90 48 30
        E 46 90 3b 38
        E 0 90 3c 00
        E 0 90 45 2c
        E 10 90 34 29
        E 0 90 3e 00
        E 5 90 48 00
        E 26 90 32 30
        E 77 90 32 00
        E 0 90 45 00
        E 5 90 31 2e
        E 5 90 34 00
        E 82 90 30 40
        E 0 90 31 00
        E 0 90 3b 00
        E 35 90 45 31
        E 56 90 36 00
        E 21 90 39 47
        E 0 90 43 31
        E 36 90 40 61
        E 46 90 30 00
        E 15 90 40 00
        E 0 90 40 4d
        E 0 90 4f 33
        E 15 90 45 00
        E 31 90 3b 33
        E 15 90 4f 00
        E 21 90 39 00
        E 0 90 39 34
        E 30 90 3b 00
        E 21 90 43 00
        E 20 90 2f 3f
        E 5 90 4f 33
        E 5 90 4b 35
        E 52 90 39 00
        E 0 90 39 3e
        E 5 90 40 00
        E 25 90 3f 4a
        E 0 90 4b 00
        E 0 90 4b 2c
        E 31 90 45 37
        E 10 90 43 3a
        E 1 90 4f 00
        E 40 90 3b 39
        E 0 90 4b 00
        E 31 90 2f 00
        E 5 90 39 00
        E 0 90 39 40
        E 46 90 30 48
        E 0 90 43 00
        E 0 90 43 2f
        E 5 90 3f 00
        E 26 90 3b 00
        E 0 90 45 00
        E 5 90 45 3b
        E 5 90 39 00
        E 0 90 39 4a
        E 41 90 43 00
        E 36 90 40 44
        E 0 90 43 31
        E 0 90 4f 40
        E 5 90 39 00
        E 0 90 39 42
        E 0 90 45 00
        E 66 90 45 2f
        E 41 90 39 00
        E 5 90 43 00
        E 5 90 30 00
        E 5 90 4f 00
        E 5 90 2f 3e
        E 6 90 4b 31
        E 0 90 4e 35
        E 15 90 45 00
        E 46 90 40 00
        E 25 90 3f 4a
        E 0 90 4b 00
        E 0 90 4b 2b
        E 6 90 39 47
        E 30 90 2f 00
        E 0 90 2f 31
        E 5 90 42 40
        E 0 90 45 3e
        E 21 90 4e 00
        E 36 90 47 24
        E 10 90 4b 00
        E 20 90 39 00
        E 0 90 39 49
        E 41 90 47 00
        E 5 90 2f 00
        E 10 90 42 00
        E 5 90 30 36
        E 16 90 41 24
        E 0 90 45 00
        E 5 90 3f 00
        E 31 90 39 00
        E 0 90 39 3b
        E 86 90 41 00
        E 0 90 41 36
        E 0 90 4d 4c
        E 5 90 3e 4f
        E 0 90 4a 37
        E 36 90 30 00
        E 26 90 39 00
        E 0 90 39 3f
        E 0 90 4d 00
        E 0 90 4d 3b
        E 51 90 2f 39
        E 0 90 41 00
        E 11 90 4d 00
        E 0 90 4d 46
        E 5 90 3e 00
        E 0 90 3e 3f
        E 0 90 4a 00
        E 0 90 4a 46
        E 20 90 39 00
        E 31 90 2f 00
        E 10 90 4d 00
        E 0 90 4d 3a
        E 5 90 38 42
        E 5 90 3e 00
        E 0 90 3e 49
        E 31 90 4a 00
        E 10 90 41 3a
        E 0 90 44 41
        E 56 90 38 00
        E 0 90 39 41
        E 0 90 4d 00
        E 72 90 30 43
        E 5 90 41 00
        E 0 90 41 3d
        E 10 90 44 00
        E 0 90 45 37
        E 82 90 30 00
        E 0 90 30 37
        E 5 90 39 00
        E 0 90 39 40
        E 10 90 45 00
        E 21 90 3e 00
        E 0 90 3e 47
        E 0 90 41 00
        E 0 90 41 37
        E 0 90 4a 3f
        E 0 90 4d 43
        E 61 90 30 00
        E 15 90 39 00
        E 0 90 39 3b
        E 36 90 41 00
        E 5 90 4d 00
        E 10 90 2f 2d
        E 11 90 4c 3f
        E 5 90 3e 00
        E 0 90 3e 3f
        E 5 90 4a 00
        E 0 90 4a 3f
        E 41 90 38 48
        E 0 90 39 00
        E 5 90 2f 00
        E 30 90 3e 00
        E 0 90 3e 4b
        E 26 90 4c 00
        E 15 90 40 4a
        E 5 90 38 00
        E 0 90 38 51
        E 0 90 44 2e
        E 11 90 4a 00
        E 117 90 44 00
        E 15 90 2f 37
        E 26 90 40 00
        E 0 90 40 42
        E 0 90 43 2a
        E 36 90 37 3e
        E 0 90 38 00
        E 5 90 2f 00
        E 0 90 3e 00
        E 11 90 3c 47
        E 10 90 43 00
        E 51 90 3c 00
        E 0 90 48 37
        E 5 90 3c 3e
        E 0 90 4c 46
        E 61 90 37 00
        E 0 90 37 3e
        E 36 90 4c 00
        E 10 90 40 00
        E 16 90 4b 42
        E 20 90 3c 00
        E 10 90 37 00
        E 16 90 36 43
        E 41 90 3c 3f
        E 20 90 48 00
        E 15 90 36 00
        E 0 90 36 47
        E 0 90 42 42
        E 0 90 4b 00
        E 5 90 3f 44
        E 62 90 42 00
        E 0 90 42 2b
        E 5 90 36 00
        E 0 90 36 4d
        E 51 90 3c 00
        E 5 90 3f 00
        E 0 90 3f 45
        E 41 90 36 00
        E 0 90 36 44
        E 36 90 47 24
        E 10 90 42 00
        E 25 90 3f 00
        E 0 90 3f 3f
        E 5 90 3b 41
        E 0 90 4b 40
        E 52 90 47 00
        E 5 90 36 00
        E 0 90 37 41
        E 61 90 4b 00
        E 10 90 3f 00
        E 10 90 4a 49
        E 6 90 3b 00
        E 0 90 3b 2c
        E 0 90 47 3b
        E 20 90 2c 2e
        E 15 90 37 00
        E 16 90 35 3e
        E 56 90 3b 00
        E 0 90 3b 35
        E 10 90 3e 53
        E 0 90 41 25
        E 0 90 47 00
        E 0 90 47 36
        E 41 90 4a 00
        E 31 90 37 2b
        E 15 90 35 00
        E 0 90 35 3b
        E 46 90 47 00
        E 5 90 37 00
        E 6 90 41 00
        E 5 90 35 00
        E 0 90 3b 00
        E 10 90 2c 00
        E 0 90 3e 00
        E 0 90 3e 47
        E 0 90 40 37
        E 5 90 2c 3a
        E 36 90 38 29
        E 10 90 34 40
        E 51 90 47 23
        E 10 90 3b 29
        E 31 90 3e 00
        E 0 90 3e 41
        E 5 90 4a 42
        E 31 90 38 00
        E 0 90 47 00
        E 15 90 40 00
        E 5 90 34 00
        E 0 90 35 33
        E 0 90 3b 00
        E 56 90 2b 2f
        E 0 90 2c 00
        E 11 90 35 00
        E 15 90 46 31
        E 0 90 49 41
        E 0 90 4a 00
        E 15 90 3e 00
        E 21 90 34 39
        E 5 90 2b 00
        E 20 90 49 00
        E 0 90 49 37
        E 51 90 34 00
        E 0 90 34 3b
        E 0 90 3d 43
        E 0 90 40 38
        E 41 90 49 00
        E 0 90 49 33
        E 31 90 34 00
        E 0 90 35 3d
        E 10 90 46 00
        E 41 90 2b 2c
        E 0 90 49 00
        E 5 90 37 22
        E 10 90 3d 00
        E 0 90 3d 39
        E 0 90 40 00
        E 0 90 40 30
        E 26 90 35 00
        E 5 90 34 33
        E 20 90 37 00
        E 56 90 2b 00
        E 0 90 2d 2a
        E 16 90 49 47
        E 5 90 39 3f
        E 0 90 45 41
        E 41 90 34 00
        E 0 90 3d 00
        E 5 90 2d 00
        E 5 90 35 31
        E 41 90 49 00
        E 11 90 39 00
        E 25 90 45 00
        E 0 90 45 36
        E 0 90 48 4f
        E 5 90 2a 28
        E 16 90 40 00
        E 15 90 35 00
        E 20 90 33 2e
        E 5 90 45 00
        E 31 90 39 3f
        E 21 90 2a 00
        E 10 90 33 00
        E 20 90 3c 44
        E 0 90 48 00
        E 0 90 48 3b
        E 21 90 3f 44
        E 35 90 33 2e
        E 87 90 48 00
        E 5 90 2b 33
        E 16 90 39 00
        E 5 90 33 00
        E 0 90 3c 00
        E 0 90 47 43
        E 5 90 3f 00
        E 0 90 43 38
        E 41 90 34 3c
        E 46 90 3b 35
        E 25 90 2b 00
        E 10 90 43 00
        E 6 90 34 00
        E 0 90 34 39
        E 5 90 40 37
        E 0 90 46 2b
        E 0 90 47 00
        E 30 90 3b 00
        E 0 90 3b 3c
        E 21 90 43 22
        E 30 90 40 00
        E 21 90 28 2f
        E 15 90 3b 00
        E 5 90 34 00
        E 0 90 43 00
        E 5 90 43 36
        E 26 90 2e 4b
        E 20 90 46 00
        E 6 90 37 3f
        E 20 90 43 00
        E 41 90 37 00
        E 0 90 40 2c
        E 5 90 36 36
        E 5 90 3a 31
        E 56 90 36 00
        E 0 90 37 3d
        E 62 90 28 00
        E 0 90 2e 00
        E 0 90 3a 00
        E 5 90 40 00
        E 0 90 40 2f
        E 0 90 45 3e
        E 31 90 37 00
        E 51 90 34 34
        E 31 90 40 00
        E 35 90 2d 39
        E 5 90 33 30
        E 0 90 34 00
        E 6 90 39 36
        E 61 90 33 00
        E 0 90 34 32
        E 5 90 45 00
        E 20 90 39 00
        E 21 90 40 26
        E 0 90 44 45
        E 15 90 2d 00
        E 26 90 38 2e
        E 5 90 24 31
        E 5 90 2c 38
        E 56 90 24 00
        E 26 90 34 00
        E 0 90 38 00
        E 0 90 38 3f
        E 5 90 33 29
        E 41 90 44 00
        E 25 90 40 00
        E 10 90 38 00
        E 26 90 33 00
        E 25 90 40 3a
        E 0 90 43 3d
        E 11 90 2c 00
        E 87 90 2e 3b
        E 5 90 23 29
        E 30 90 43 00
        E 10 90 37 3e
        E 21 90 2e 00
        E 0 90 2f 2d
        E 61 90 37 00
        E 0 90 37 30
        E 5 90 2f 00
        E 36 90 3d 3a
        E 0 90 40 00
        E 0 90 40 30
        E 31 90 37 00
        E 0 90 43 3b
        E 51 90 2e 2e
        E 6 90 23 00
        E 30 90 40 00
        E 5 90 43 00
        E 10 90 37 37
        E 16 90 2e 00
        E 5 90 2e 35
        E 41 90 3d 00
        E 30 90 2e 00
        E 26 90 3c 4c
        E 10 90 43 36
        E 5 90 37 00
        E 0 90 40 32
        E 0 90 48 32
        E 51 90 3c 00
        E 5 90 3c 39
        E 0 90 43 00
        E 0 90 43 36
        E 11 90 2c 2e
        E 20 90 48 00
        E 5 90 40 00
        E 31 90 43 00
        E 20 90 37 3a
        E 31 90 3c 00
        E 46 90 2c 00
        E 41 90 37 00
        E 0 90 37 2b
        E 0 90 3b 2f
        E 0 90 43 35
        E 5 90 40 2d
        E 71 90 40 00
        E 0 90 40 2e
        E 46 90 43 00
        E 11 90 37 00
        E 0 90 37 2c
        E 15 90 40 00
        E 20 90 2a 28
        E 46 90 1f 2b
        E 77 90 1f 00
        E 5 90 3b 00
        E 51 90 2a 00
        E 0 90 3a 2f
        E 0 90 43 2c
        E 0 90 46 2e
        E 5 90 2a 3a
        E 0 90 37 00
        E 0 90 37 29
        E 11 90 40 3b
        E 67 90 37 00
        E 10 90 3a 00
        E 0 90 3a 36
        E 117 90 43 00
        E 10 90 1e 29
        E 21 90 46 00
        E 25 90 2a 00
        E 57 90 40 00
        E 25 90 3a 00
        E 31 90 4c 39
        E 15 90 40 29
        E 67 90 4f 37
        E 40 90 40 00
        E 5 90 1e 00
        E 6 90 4c 00
        E 61 90 4f 00
        E 0 90 4f 37
        E 15 90 1e 2d
        E 16 90 40 2f
        E 10 90 4c 37
        E 51 90 40 00
        E 0 90 4f 00
        E 0 90 4f 49
        E 71 90 40 28
        E 0 90 4f 00
        E 0 90 4f 48
        E 46 90 4b 4a
        E 0 90 4c 00
        E 26 90 40 00
        E 15 90 4f 00
        E 0 90 4f 37
        E 41 90 57 26
        E 41 90 4a 3f
        E 0 90 4b 00
        E 41 90 57 00
        E 16 90 4a 00
        E 0 90 4a 3f
        E 10 90 4f 00
        E 46 90 4f 2f
        E 20 90 36 2f
        E 36 90 46 25
        E 21 90 4f 00
        E 15 90 51 32
        E 56 90 4a 00
        E 5 90 1e 00
        E 10 90 51 00
        E 5 90 44 2e
        E 6 90 46 00
        E 15 90 52 34
        E 61 90 1e 33
        E 10 90 52 00
        E 36 90 36 00
        E 16 90 4b 2c
        E 5 90 3f 42
        E 35 90 44 00
        E 36 90 3f 00
        E 0 90 3f 3c
        E 10 90 1e 00
        E 26 90 45 2d
        E 31 90 4b 00
        E 10 90 3f 00
        E 0 90 40 38
        E 20 90 45 00
        E 46 90 42 3d
        E 123 90 42 00
        E 5 90 40 00
        E 5 e0 55 4a
        E 0 90 40 37
        E 5 e0 55 4a
        E 6 e0 55 4a
        E 5 e0 55 4a
        E 5 e0 55 4a
        E 6 e0 55 4a
        E 5 e0 55 4a
        E 6 e0 55 4a
        E 5 e0 55 4a
        E 5 e0 55 4a
        E 6 e0 55 4a
        E 5 e0 55 4a
        E 5 e0 55 2a
        E 6 e0 55 2a
        E 5 e0 55 2a
        E 5 e0 55 2a
        E 6 e0 55 2a
        E 5 e0 55 2a
        E 6 e0 55 2a
        E 5 e0 55 2a
        E 5 e0 55 2a
        E 0 90 3a 3c
        E 0 90 40 00
        E 0 90 40 30
        E 37 90 37 46
        E 10 90 46 35
        E 10 90 40 00
        E 26 90 3a 00
        E 0 90 3a 33
        E 61 90 36 4c
        E 0 90 37 00
        E 31 90 46 00
        E 56 90 36 00
        E 0 90 36 41
        E 41 90 3a 00
        E 30 90 39 41
        E 5 90 45 2f
        E 5 90 3f 48
        E 82 90 42 34
        E 5 90 36 00
        E 0 90 36 3c
        E 0 90 3f 00
        E 0 90 3f 43
        E 26 90 45 00
        E 46 90 42 00
        E 15 90 43 35
        E 5 90 39 00
        E 5 90 36 00
        E 5 90 3f 00
        E 26 90 40 38
        E 92 90 2f 39
        E 15 90 40 00
        E 46 90 2f 00
        E 0 90 2f 4a
        E 5 90 43 00
        E 67 90 2f 00
        E 0 90 2f 46
        E 41 90 23 38
        E 35 90 2e 34
        E 0 90 2f 00
        E 67 90 2e 00
        E 5 90 2f 26
        E 46 90 42 32
        E 21 90 2f 00
        E 0 90 2f 31
        E 5 90 3f 3c
        E 41 90 42 00
        E 0 90 43 3b
        E 20 90 2f 00
        E 31 90 3f 00
        E 0 90 40 28
        E 5 90 23 00
        E 56 90 40 00
        E 5 90 2f 46
        E 41 90 43 00
        E 31 e0 55 2a
        E 0 90 2f 00
        E 0 90 2f 48
        E 5 e0 55 2a
        E 6 e0 55 2a
        E 5 e0 55 4a
        E 6 e0 55 4a
        E 6 e0 55 4a
        E 5 e0 55 2a
        E 6 e0 55 2a
        E 5 e0 55 2a
        E 6 e0 55 2a
        E 5 e0 55 2a
        E 6 e0 55 2a
        E 5 e0 55 2a
        E 0 90 2f 00
        E 0 90 2f 4a
        E 6 e0 55 4a
        E 5 e0 55 4a
        E 6 e0 55 4a
        E 5 e0 55 4a
        E 5 e0 55 4a
        E 6 e0 55 4a
        E 5 e0 55 4a
        E 6 e0 55 4a
        E 5 e0 55 4a
        E 5 e0 55 4a
        E 6 e0 55 4a
        E 5 e0 55 4a
        E 6 e0 55 4a
        E 5 e0 55 4a
        E 5 e0 55 4a
        E 6 e0 55 4a
        E 5 e0 55 4a
        E 0 90 2f 00
        E 0 90 2f 4b
        E 6 e0 55 4a
        E 5 e0 55 4a
        E 6 e0 55 4a
        E 5 e0 55 4a
        E 6 e0 55 4a
        E 5 e0 55 4a
        E 6 e0 55 4a
        E 5 e0 55 4a
        E 6 e0 55 4a
        E 5 e0 55 4a
        E 6 e0 55 4a
        E 5 e0 55 4a
        E 6 e0 55 4a
        E 0 90 2f 00
        E 0 90 2f 3d
        E 5 e0 55 4a
        E 6 e0 55 4a
        E 5 e0 55 4a
        E 6 e0 55 4a
        E 5 e0 55 4a
        E 6 e0 55 4a
        E 5 e0 55 4a
        E 6 e0 55 4a
        E 5 e0 55 4a
        E 5 e0 55 4a
        E 6 e0 55 4a
        E 5 e0 55 4a
        E 6 e0 55 4a
        E 5 e0 55 4a
        E 0 90 2f 00
        E 0 90 40 35
        E 11 90 25 2f
        E 15 90 43 31
        E 46 90 2e 37
        E 102 90 43 00
        E 20 90 2e 00
        E 0 90 2f 37
        E 6 90 25 00
        E 0 90 4b 3a
        E 10 90 40 00
        E 30 90 43 45
        E 0 90 4f 3e
        E 6 90 37 37
        E 46 90 4b 00
        E 10 90 42 3b
        E 0 90 43 00
        E 77 90 42 00
        E 0 90 42 4a
        E 0 90 4e 26
        E 0 90 4f 00
        E 10 90 2f 00
        E 61 90 42 00
        E 0 90 42 31
        E 0 90 4e 00
        E 0 90 4e 49
        E 0 90 57 3a
        E 31 90 40 3e
        E 82 90 42 00
        E 0 90 4e 00
        E 0 90 57 00
        E 10 90 40 00
        E 0 90 40 4a
        E 0 90 43 31
        E 0 90 4f 3e
        E 0 90 5b 2b
        E 87 90 40 00
        E 0 90 40 4b
        E 25 90 37 00
        E 0 90 5b 00
        E 62 90 43 00
        E 0 90 43 49
        E 51 90 40 00
        E 0 90 40 51
        E 36 90 43 00
        E 0 90 43 4b
        E 35 90 40 00
        E 0 90 40 45
        E 16 90 37 4e
        E 10 90 4f 00
        E 51 90 43 00
        E 5 90 37 00
        E 5 90 36 4c
        E 10 90 4f 2f
        E 52 90 36 00
        E 0 90 37 51
        E 40 90 34 38
        E 5 90 40 00
        E 0 90 4f 00
        E 6 90 46 26
        E 35 90 36 3c
        E 0 90 37 00
        E 42 90 46 00
        E 66 90 36 00
        E 0 90 37 46
        E 26 90 34 00
        E 81 90 2f 4c
        E 87 90 2f 00
        E 0 90 2f 49
        E 62 90 2f 00
        E 0 90 2f 58
        E 117 90 26 33
        E 26 90 2f 00
        E 0 90 2f 4f
        E 35 90 37 00
        E 31 90 26 00
        E 15 90 2f 00
        E 0 90 2f 35
        E 41 90 37 40
        E 0 90 43 3c
        E 5 90 27 35
        E 0 90 3b 34
        E 72 90 3b 00
        E 20 90 2f 00
        E 0 90 2f 4b
        E 21 90 43 00
        E 30 90 27 00
        E 16 90 2f 00
        E 0 90 2f 51
        E 87 90 2f 00
        E 0 90 2f 49
        E 36 90 27 2d
        E 87 90 2f 00
        E 0 90 2f 3d
        E 35 90 27 00
        E 0 90 27 2f
        E 46 90 2f 00
        E 0 90 2f 39
        E 21 90 27 00
        E 31 90 37 00
        E 0 90 37 54
        E 20 90 2e 47
        E 0 90 2f 00
        E 15 90 28 2f
        E 0 90 3b 27
        E 26 90 37 00
        E 0 90 37 44
        E 36 90 2e 00
        E 5 90 2f 2d
        E 0 90 42 3c
        E 35 90 3b 00
        E 16 90 28 00
        E 15 90 42 00
        E 0 90 43 48
        E 0 90 4f 50
        E 41 90 2f 00
        E 36 90 43 00
        E 0 90 43 34
        E 0 90 4f 00
        E 0 90 4f 3b
        E 15 90 37 00
        E 0 90 37 40
        E 56 90 4e 31
        E 0 90 4f 00
        E 16 90 43 00
        E 10 90 3b 28
        E 0 90 57 31
        E 10 90 43 24
        E 46 90 4e 00
        E 10 90 57 00
        E 16 90 4f 3b
        E 5 90 43 00
        E 0 90 43 3f
        E 61 90 40 45
        E 10 90 3b 00
        E 61 90 37 00
        E 0 90 40 00
        E 0 90 40 4e
        E 0 90 43 00
        E 0 90 43 3e
        E 0 90 4c 3e
        E 0 90 4f 00
        E 0 90 4f 4b
        E 67 90 43 00
        E 0 90 43 44
        E 25 90 40 00
        E 0 90 40 53
        E 21 90 4c 00
        E 31 90 42 41
        E 0 90 43 00
        E 31 90 4f 00
        E 46 90 40 00
        E 0 90 40 53
        E 0 90 42 00
        E 0 90 43 54
        E 61 90 37 47
        E 20 90 40 00
        E 0 90 40 4e
        E 0 90 43 00
        E 0 90 43 3d
        E 82 90 37 00
        E 5 90 36 40
        E 5 90 43 00
        E 72 90 34 3f
        E 0 90 40 00
        E 0 90 40 2e
        E 97 90 40 00
        E 15 90 34 00
        E 16 90 36 00
        E 20 90 24 39
        E 0 90 30 31
        E 123 90 2b 28
        E 0 90 37 30
        E 5 90 30 00
        E 0 90 3c 35
        E 20 90 34 32
        E 41 90 37 00
        E 0 90 37 38
        E 41 90 3c 00
        E 20 90 30 30
        E 190 90 34 00
        E 5 90 2b 00
        E 20 90 30 00
        E 6 90 37 00
        E 0 90 42 3f
        E 0 90 4e 2b
        E 0 90 57 29
        E 5 90 3f 39
        E 10 90 24 00
        E 56 90 57 00
        E 10 90 4e 00
        E 16 90 42 00
        E 10 90 30 29
        E 0 90 37 31
        E 0 90 3f 00
        E 0 90 3f 3c
        E 0 90 4f 44
        E 20 90 34 2b
        E 16 90 43 3b
        E 61 90 3f 00
        E 0 90 40 42
        E 51 90 4f 00
        E 0 90 4f 26
        E 36 90 24 2b
        E 0 90 34 00
        E 5 90 3f 3e
        E 0 90 40 00
        E 25 90 30 00
        E 26 90 4f 00
        E 0 90 4f 37
        E 31 90 43 00
        E 0 90 43 35
        E 15 90 3f 00
        E 0 90 3f 50
        E 5 90 57 28
        E 26 90 24 00
        E 20 90 43 00
        E 0 90 43 31
        E 10 90 3e 34
        E 0 90 3f 00
        E 21 90 4f 00
        E 0 90 4f 40
        E 0 90 57 00
        E 30 90 43 00
        E 16 90 3e 00
        E 0 90 3e 36
        E 25 90 37 00
        E 21 90 43 38
        E 25 90 4f 00
        E 0 90 4f 3f
        E 5 90 37 26
        E 5 90 3e 00
        E 0 90 3e 31
        E 31 90 43 00
        E 5 90 43 2f
        E 31 90 3c 28
        E 0 90 48 24
        E 25 90 4f 00
        E 0 90 4f 40
        E 5 90 24 2e
        E 0 90 43 00
        E 0 90 43 31
        E 26 90 37 00
        E 5 90 48 00
        E 0 90 48 39
        E 15 90 3e 00
        E 16 90 24 00
        E 5 90 3c 00
        E 0 90 4f 00
        E 36 90 37 3a
        E 0 90 48 00
        E 10 90 43 00
        E 0 90 43 2c
        E 72 90 39 24
        E 0 90 43 00
        E 61 90 39 00
        E 0 90 39 37
        E 82 90 39 00
        E 5 90 30 2f
        E 20 90 24 2f
        E 62 90 30 00
        E 36 90 37 00
        E 0 90 37 3d
        E 5 90 34 35
        E 0 90 3c 2c
        E 5 90 40 28
        E 102 90 3c 00
        E 36 90 40 00
        E 15 90 30 30
        E 77 90 30 00
        E 10 90 34 00
        E 10 90 37 00
        E 5 90 3f 2b
        E 0 90 57 2b
        E 5 90 4e 35
        E 67 90 4e 00
        E 10 90 57 00
        E 15 90 3f 00
        E 0 90 40 37
        E 0 90 43 36
        E 5 90 4f 43
        E 82 90 43 00
        E 0 90 43 39
        E 0 90 4f 00
        E 0 90 4f 32
        E 41 90 40 00
        E 0 90 40 42
        E 36 90 34 29
        E 21 90 30 2f
        E 20 90 24 00
        E 10 90 43 00
        E 0 90 43 3c
        E 16 90 3f 33
        E 0 90 40 00
        E 25 90 4f 00
        E 5 90 57 2b
        E 36 90 3f 00
        E 5 90 37 2b
        E 0 90 3e 2f
        E 5 90 43 00
        E 16 90 34 00
        E 20 90 30 00
        E 15 90 57 00
        E 31 90 37 00
        E 15 90 3d 2d
        E 0 90 3e 00
        E 11 90 43 2f
        E 71 90 30 2d
        E 21 90 43 00
        E 30 90 3c 30
        E 0 90 3d 00
        E 0 90 4f 30
        E 41 90 30 00
        E 31 90 43 31
        E 5 90 3c 00
        E 0 90 3c 30
        E 36 90 4f 00
        E 0 90 4f 2c
        E 5 90 37 44
        E 10 90 3e 26
        E 41 90 2f 2e
        E 0 90 3c 00
        E 0 90 43 00
        E 5 90 43 33
        E 5 90 37 00
        E 0 90 37 3c
        E 5 90 4f 00
        E 21 90 3e 00
        E 81 90 2b 2f
        E 0 90 2f 00
        E 0 90 30 30
        E 21 90 43 00
        E 81 90 2b 00
        E 6 90 30 00
        E 5 e0 55 4a
        E 0 90 37 00
        E 0 90 37 35
        E 5 e0 55 4a
        E 5 e0 55 4a
        E 5 e0 55 4a
        E 5 e0 55 4a
        E 5 e0 55 4a
        E 5 e0 55 4a
        E 6 e0 55 4a
        E 5 e0 55 4a
        E 5 e0 55 4a
        E 5 e0 55 4a
        E 5 e0 55 4a
        E 5 e0 55 4a
        E 5 e0 55 4a
        E 6 e0 55 4a
        E 5 e0 55 4a
        E 5 e0 55 4a
        E 5 e0 55 4a
        E 5 e0 55 4a
        E 5 e0 55 4a
        E 0 90 37 00
        E 0 90 3e 35
        E 77 90 40 42
        E 5 90 43 3e
        E 87 90 3e 00
        E 0 90 3e 3a
        E 25 90 43 00
        E 0 90 43 33
        E 5 90 40 00
        E 0 90 40 38
        E 36 90 3c 3d
        E 67 90 3c 00
        E 0 90 3c 34
        E 0 90 40 00
        E 0 90 40 49
        E 25 90 43 00
        E 0 90 43 2f
        E 82 90 43 00
        E 0 90 43 36
        E 10 90 40 00
        E 0 90 40 47
        E 15 90 46 2a
        E 6 90 3c 00
        E 30 90 3e 00
        E 16 90 3b 33
        E 10 90 46 00
        E 20 90 40 00
        E 0 90 40 46
        E 72 90 3b 00
        E 0 90 3c 48
        E 35 90 40 00
        E 0 90 40 52
        E 67 90 3c 00
        E 0 90 3d 2f
        E 25 90 40 00
        E 0 90 40 4d
        E 41 90 3d 00
        E 16 90 3e 4d
        E 0 90 43 00
        E 0 90 43 35
        E 35 90 40 00
        E 0 90 40 3d
        E 37 90 3e 00
        E 0 90 3e 51
        E 66 90 40 00
        E 0 90 40 37
        E 31 90 3d 36
        E 0 90 3e 00
        E 61 90 2d 3b
        E 0 90 3d 00
        E 0 90 40 00
        E 0 90 40 2d
        E 51 90 3c 39
        E 61 90 40 00
        E 77 90 3e 30
        E 5 90 3c 00
        E 10 90 2d 00
        E 26 90 43 00
        E 0 90 43 3a
        E 51 90 22 2e
        E 0 90 2e 34
        E 10 90 43 00
        E 0 90 43 31
        E 10 90 3e 00
        E 6 90 40 2e
        E 81 90 2e 00
        E 26 90 40 00
        E 5 90 22 00
        E 51 90 2f 37
        E 5 90 23 33
        E 0 90 3f 30
        E 61 90 46 29
        E 26 90 2f 00
        E 51 90 3f 00
        E 0 90 3f 36
        E 26 90 46 00
        E 5 90 43 00
        E 0 90 43 33
        E 61 90 3c 30
        E 57 90 43 00
        E 10 90 23 00
        E 0 90 3c 00
        E 0 90 3f 00
        E 36 90 35 31
        E 30 90 28 34
        E 87 90 1c 2a
        E 67 90 1c 00
        E 20 90 37 2d
        E 0 90 3e 2d
        E 61 90 35 00
        E 21 90 37 00
        E 0 90 37 39
        E 0 90 43 21
        E 0 90 4f 3c
        E 46 90 3e 00
        E 66 90 37 00
        E 0 90 37 2d
        E 0 90 3f 37
        E 5 90 43 00
        E 0 90 43 30
        E 0 90 4f 00
        E 0 90 4f 2c
        E 67 90 3f 00
        E 5 90 3e 47
        E 25 90 4f 00
        E 0 90 4f 38
        E 36 90 4a 2c
        E 5 90 3e 00
        E 0 90 3e 4b
        E 0 90 43 00
        E 46 90 4f 00
        E 16 90 4a 00
        E 35 90 3e 00
        E 0 90 3e 38
        E 11 90 37 00
        E 0 90 37 34
        E 40 90 43 2d
        E 26 90 30 27
        E 36 90 28 00
        E 46 90 37 00
        E 0 90 3e 00
        E 5 90 43 00
        E 51 90 30 00
        E 46 90 28 36
        E 51 90 1c 31
        E 118 90 36 2f
        E 26 90 28 00
        E 5 90 1c 00
        E 66 90 28 2b
        E 26 90 4f 4f
        E 15 90 36 00
        E 20 90 43 31
        E 26 90 4f 00
        E 0 90 4f 36
        E 25 90 3f 37
        E 6 90 28 00
        E 30 90 43 00
        E 0 90 43 37
        E 36 90 3f 00
        E 0 90 3f 39
        E 61 90 4f 00
        E 0 90 4f 34
        E 26 90 3e 3f
        E 0 90 3f 00
        E 0 90 43 00
        E 82 90 37 3c
        E 35 90 31 2a
        E 21 90 4f 00
        E 20 90 28 28
        E 0 90 3c 28
        E 46 90 31 00
        E 0 90 31 2d
        E 16 90 3c 00
        E 5 90 2f 28
        E 46 90 28 00
        E 72 90 28 2a
        E 0 90 2f 00
        E 0 90 2f 39
        E 0 90 47 3a
        E 20 90 3e 00
        E 66 90 31 00
        E 0 90 37 00
        E 31 90 28 00
        E 5 90 28 35
        E 0 90 43 36
        E 0 90 47 00
        E 5 90 2f 00
        E 62 90 1c 2e
        E 66 90 37 44
        E 5 90 2f 29
        E 41 90 1c 00
        E 15 90 43 00
        E 5 90 2f 00
        E 6 90 37 00
        E 0 90 37 46
        E 51 90 4f 3f
        E 51 90 37 00
        E 0 90 37 3d
        E 71 90 3f 39
        E 10 90 2f 2b
        E 21 90 37 00
        E 0 90 37 43
        E 31 90 4a 26
        E 5 90 3e 2c
        E 0 90 3f 00
        E 10 90 2f 00
        E 15 90 43 35
        E 0 90 4f 00
        E 0 90 4f 35
        E 36 90 37 00
        E 0 90 37 38
        E 5 90 3c 2e
        E 5 90 4a 00
        E 15 90 3e 00
        E 6 90 43 00
        E 10 90 28 00
        E 56 90 3c 00
        E 10 90 30 33
        E 11 90 4f 00
        E 41 90 37 00
        E 5 90 3d 2f
        E 102 90 3d 00
        E 10 90 30 00
        E 26 90 2f 42
        E 25 90 3b 24
        E 0 90 47 2c
        E 97 90 47 00
        E 11 90 3b 00
        E 15 90 2f 00
        E 0 90 30 2a
        E 0 90 4f 32
        E 36 90 43 43
        E 20 90 29 2f
        E 21 90 2f 30
        E 0 90 30 00
        E 41 90 43 00
        E 0 90 43 3d
        E 30 90 3c 30
        E 0 90 40 34
        E 21 90 37 2a
        E 25 90 2f 00
        E 31 90 4f 00
        E 0 90 4f 2d
        E 5 90 43 00
        E 0 90 43 33
        E 15 90 29 00
        E 16 90 37 00
        E 10 90 3c 00
        E 25 90 3f 2f
        E 0 90 40 00
        E 67 90 3f 00
        E 10 90 3e 45
        E 5 90 42 42
        E 0 90 43 00
        E 41 90 4f 00
        E 0 90 4f 38
        E 36 90 3e 00
        E 0 90 3e 36
        E 5 90 45 2f
        E 20 90 42 00
        E 36 90 4f 00
        E 0 90 4f 2c
        E 5 90 37 3a
        E 21 90 45 00
        E 26 90 3e 00
        E 20 90 3c 24
        E 5 90 48 3e
        E 41 90 40 38
        E 0 90 4f 00
        E 0 90 4f 38
        E 5 90 37 00
        E 0 90 37 30
        E 26 90 3c 00
        E 10 90 2f 2c
        E 5 90 43 34
        E 0 90 48 00
        E 10 90 31 30
        E 62 90 31 00
        E 5 90 48 36
        E 30 90 2f 00
        E 0 90 2f 3e
        E 5 90 4f 00
        E 16 90 40 00
        E 0 90 4b 3c
        E 10 90 48 00
        E 10 90 3f 54
        E 5 90 47 27
        E 16 90 43 00
        E 10 90 37 00
        E 25 90 4b 00
        E 5 90 3f 00
        E 0 90 3f 45
        E 0 90 4b 39
        E 41 90 47 00
        E 21 90 4b 00
        E 41 90 3f 00
        E 0 90 40 29
        E 0 90 43 49
        E 5 90 28 34
        E 0 90 4c 34
        E 0 90 4f 3d
        E 10 90 1c 2e
        E 15 90 2f 00
        E 46 90 4c 00
        E 21 90 43 00
        E 0 90 43 43
        E 15 90 40 00
        E 36 90 4f 00
        E 41 90 37 4b
        E 10 90 43 00
        E 0 90 43 27
        E 82 90 37 00
        E 0 90 37 55
        E 5 90 43 00
        E 0 90 43 38
        E 76 90 37 00
        E 0 90 37 43
        E 21 90 3c 30
        E 62 90 3c 00
        E 10 90 43 00
        E 20 90 2f 30
        E 10 90 37 00
        E 0 90 45 4a
        E 0 90 4e 3b
        E 0 90 51 36
        E 6 90 3b 31
        E 46 90 1c 00
        E 61 90 28 00
        E 0 90 28 41
        E 5 90 2f 00
        E 0 90 2f 2c
        E 5 90 4e 00
        E 5 90 51 00
        E 21 90 47 50
        E 5 90 3b 00
        E 0 90 3b 29
        E 15 90 45 00
        E 41 90 2f 00
        E 0 90 2f 34
        E 5 90 3b 00
        E 0 90 3b 28
        E 20 90 47 00
        E 0 90 47 40
        E 46 90 37 46
        E 31 90 2f 00
        E 5 90 3b 00
        E 62 90 37 00
        E 0 90 37 41
        E 0 90 47 00
        E 5 90 34 34
        E 61 90 39 25
        E 15 90 37 00
        E 5 90 2d 3a
        E 5 90 34 00
        E 11 90 51 3a
        E 35 90 39 00
        E 0 90 39 2f
        E 0 90 45 38
        E 21 90 28 00
        E 56 90 51 00
        E 26 90 39 00
        E 0 90 39 32
        E 0 90 43 39
        E 0 90 4f 33
        E 5 90 3c 39
        E 71 90 39 00
        E 10 90 4f 00
        E 21 90 3c 00
        E 0 90 3c 32
        E 0 90 45 00
        E 0 90 45 48
        E 0 90 4e 32
        E 5 90 2d 00
        E 0 90 2d 37
        E 46 90 43 00
        E 15 90 4e 00
        E 26 90 3c 00
        E 36 90 34 29
        E 0 90 47 35
        E 5 90 28 41
        E 0 90 45 00
        E 62 90 2f 39
        E 5 90 2d 00
        E 51 90 37 37
        E 56 90 47 00
        E 5 90 34 00
        E 5 90 37 00
        E 5 90 37 2a
        E 10 90 40 2b
        E 6 90 2f 00
        E 56 90 40 00
        E 10 90 37 00
        E 0 90 37 37
        E 0 90 4f 2c
        E 5 90 43 33
        E 87 90 4b 21
        E 10 90 3f 3d
        E 15 90 4f 00
        E 0 90 4f 34
        E 36 90 37 00
        E 31 90 3e 50
        E 0 90 3f 00
        E 0 90 4b 00
        E 25 90 4f 00
        E 0 90 4f 32
        E 41 90 43 00
        E 0 90 43 3a
        E 41 90 3e 00
        E 0 90 3e 3c
        E 46 90 37 38
        E 0 90 43 00
        E 0 90 43 33
        E 0 90 4f 00
        E 0 90 4f 2f
        E 51 90 28 00
        E 16 90 30 33
        E 0 90 3c 33
        E 10 90 4f 00
        E 15 90 43 00
        E 56 90 30 00
        E 0 90 30 38
        E 5 90 3c 00
        E 93 90 3e 00
        E 15 90 37 00
        E 16 90 2f 36
        E 0 90 30 00
        E 0 90 3b 35
        E 5 90 34 30
        E 0 90 40 40
        E 25 90 31 2d
        E 51 90 40 00
        E 0 90 40 2c
        E 5 90 2f 00
        E 11 90 31 00
        E 25 90 34 00
        E 0 90 3b 00
        E 26 90 43 32
        E 5 90 3c 38
        E 46 90 40 00
        E 87 90 43 00
        E 51 90 36 3a
        E 92 90 3c 00
        E 0 90 3c 42
        E 10 90 36 00
        E 0 90 37 37
        E 97 90 36 37
        E 0 90 37 00
        E 87 90 34 2e
        E 5 90 3b 3e
        E 0 90 3c 00
        E 31 90 36 00
        E 0 90 37 41
        E 40 90 34 00
        E 16 90 23 3b
        E 10 90 2f 38
        E 0 90 3f 36
        E 5 90 3b 00
        E 15 90 37 00
        E 26 90 39 38
        E 25 90 3f 00
        E 0 90 3f 3a
        E 57 90 36 30
        E 51 90 45 27
        E 51 90 2f 00
        E 26 90 45 00
        E 5 90 23 00
        E 0 90 39 00
        E 0 90 39 3c
        E 0 90 45 26
        E 10 90 36 00
        E 0 90 37 3c
        E 72 90 37 00
        E 0 90 37 3d
        E 25 90 45 00
        E 5 90 39 00
        E 0 90 39 2e
        E 67 90 3f 00
        E 25 90 37 00
        E 0 90 37 4c
        E 57 90 39 00
        E 0 90 39 2d
        E 20 90 2d 33
        E 26 90 36 37
        E 0 90 37 00
        E 5 90 40 3b
        E 87 90 39 00
        E 35 90 2d 00
        E 10 90 28 35
        E 0 90 36 00
        E 67 90 40 00
        E 0 90 40 31
        E 31 90 37 4c
        E 215 90 40 00
        E 10 90 37 00
        E 0 90 37 49
        E 61 90 37 00
        E 0 90 37 41
        E 0 90 40 29
        E 0 90 4c 30
        E 0 90 51 40
        E 67 90 1c 2b
        E 25 90 4c 00
        E 5 90 37 00
        E 0 90 37 4b
        E 26 90 51 00
        E 10 90 40 00
        E 10 90 1c 00
        E 46 90 51 2d
        E 5 90 4a 3b
        E 0 90 4e 3d
        E 5 90 37 00
        E 0 90 37 46
        E 21 90 1c 2a
        E 36 90 3b 30
        E 10 90 51 00
        E 30 90 4e 00
        E 6 90 28 00
        E 10 90 37 00
        E 0 90 37 42
        E 5 90 3b 00
        E 15 90 4a 00
        E 10 90 40 2e
        E 0 90 48 46
        E 0 90 4c 36
        E 21 90 28 27
        E 20 90 1c 00
        E 11 90 3c 32
        E 40 90 40 00
        E 26 90 4c 00
        E 5 90 37 00
        E 0 90 37 37
        E 5 90 3c 00
        E 0 90 4a 3d
        E 5 90 47 40
        E 0 90 48 00
        E 31 90 28 00
        E 10 90 32 2a
        E 5 90 3e 34
        E 46 90 37 00
        E 21 90 3e 00
        E 10 90 47 00
        E 0 90 48 45
        E 5 90 39 38
        E 0 90 45 35
        E 36 90 4a 00
        E 35 90 39 00
        E 0 90 39 40
        E 21 90 45 00
        E 15 90 32 00
        E 5 90 48 00
        E 5 90 47 38
        E 27 90 39 00
        E 0 90 39 35
        E 10 90 43 32
        E 61 90 43 00
        E 31 90 42 3e
        E 0 90 45 2d
        E 15 90 3b 29
        E 56 90 47 00
        E 36 90 3b 00
        E 15 90 39 00
        E 11 90 42 00
        E 20 90 40 4a
        E 0 90 43 39
        E 5 90 37 25
        E 21 90 2d 31
        E 0 90 45 00
        E 40 90 37 00
        E 36 90 2d 00
        E 5 90 34 2f
        E 10 90 3b 2d
        E 41 90 40 00
        E 0 90 40 3a
        E 0 90 4c 3f
        E 51 90 3b 00
        E 0 90 3b 35
        E 41 90 43 00
        E 16 90 34 00
        E 0 90 34 32
        E 5 90 40 00
        E 10 90 4c 00
        E 25 90 4a 4a
        E 6 90 47 2d
        E 5 90 40 2c
        E 46 90 34 00
        E 0 90 34 32
        E 15 90 40 00
        E 5 90 3b 00
        E 36 90 47 00
        E 15 90 2d 31
        E 10 90 48 4c
        E 46 90 38 32
        E 0 90 4a 00
        E 82 90 34 00
        E 0 90 47 39
        E 0 90 48 00
        E 31 90 43 3c
        E 16 90 3c 3d
        E 35 90 38 00
        E 21 90 39 27
        E 10 90 45 40
        E 5 90 2d 00
        E 0 90 3b 29
        E 0 90 3c 00
        E 0 90 43 00
        E 5 90 47 00
        E 5 90 42 39
        E 11 90 3f 34
        E 25 90 39 00
        E 0 90 48 39
        E 15 90 3b 00
        E 0 90 3c 2d
        E 31 90 3f 00
        E 15 90 48 00
        E 6 90 45 00
        E 5 90 42 00
        E 0 90 43 41
        E 5 90 2f 45
        E 0 90 40 30
        E 61 90 39 3b
        E 56 90 3c 00
        E 5 90 42 34
        E 0 90 43 00
        E 21 90 2f 00
        E 0 90 2f 43
        E 0 90 39 00
        E 0 90 39 3c
        E 5 90 3f 30
        E 0 90 40 00
        E 82 90 2f 00
        E 0 90 2f 4a
        E 0 90 3b 2b
        E 0 90 42 00
        E 0 90 47 37
        E 41 90 3f 00
        E 20 90 40 28
        E 41 90 3b 00
        E 0 90 47 00
        E 10 90 39 00
        E 20 90 4f 48
        E 21 90 2f 00
        E 31 90 28 41
        E 0 90 40 00
        E 81 90 30 2d
        E 11 90 4f 00
        E 30 90 36 33
        E 46 90 28 00
        E 56 90 43 2c
        E 0 90 4f 30
        E 16 90 30 00
        E 15 90 28 2a
        E 26 90 36 00
        E 21 90 57 29
        E 5 90 3f 36
        E 35 90 4f 00
        E 6 90 28 00
        E 30 90 1c 32
        E 5 90 43 00
        E 0 90 43 4b
        E 26 90 3e 33
        E 0 90 3f 00
        E 10 90 57 00
        E 15 90 4f 29
        E 36 90 37 2f
        E 0 90 3e 00
        E 0 90 3e 44
        E 0 90 43 00
        E 0 90 43 3c
        E 82 90 37 00
        E 0 90 37 39
        E 0 90 4f 00
        E 15 90 1c 00
        E 26 90 28 27
        E 10 90 43 00
        E 15 90 30 3f
        E 0 90 48 36
        E 26 90 3e 00
        E 0 90 3e 2d
        E 61 90 28 00
        E 0 90 2f 34
        E 0 90 30 00
        E 26 90 3e 00
        E 5 90 37 00
        E 10 90 48 00
        E 0 90 48 29
        E 41 90 2f 00
        E 5 90 2e 3b
        E 5 90 30 2e
        E 26 90 28 29
        E 15 90 48 00
        E 0 90 48 30
        E 87 90 48 00
        E 5 90 28 00
        E 0 90 30 00
        E 5 90 28 27
        E 26 90 2e 00
        E 25 90 4f 39
        E 15 90 2f 28
        E 21 90 28 00
        E 0 90 28 37
        E 10 90 1c 2a
        E 15 90 4f 00
        E 57 90 2f 00
        E 5 90 2f 2d
        E 56 90 37 3f
        E 41 90 2f 00
        E 41 90 4d 39
        E 15 90 28 00
        E 16 90 37 00
        E 0 90 37 31
        E 36 90 4d 00
        E 0 90 4d 38
        E 15 90 3f 2e
        E 51 90 4d 00
        E 5 90 2f 28
        E 21 90 3f 00
        E 5 90 37 00
        E 5 90 36 31
        E 15 90 4e 49
        E 26 90 57 29
        E 15 90 2f 00
        E 10 90 1c 00
        E 10 90 4e 00
        E 5 90 36 00
        E 0 90 3e 2d
        E 6 90 37 33
        E 0 90 4f 3f
        E 40 90 57 00
        E 31 90 3e 00
        E 5 90 4f 00
        E 0 90 4f 36
        E 5 90 4c 3e
        E 0 90 55 32
        E 56 90 37 00
        E 0 90 37 36
        E 16 90 4f 00
        E 0 90 4f 35
        E 25 90 4c 00
        E 11 90 55 00
        E 15 90 57 22
        E 5 90 4b 3c
        E 41 90 2f 3d
        E 10 90 37 00
        E 0 90 37 36
        E 0 90 4f 00
        E 0 90 4f 3d
        E 21 90 57 00
        E 35 90 4b 00
        E 41 90 37 00
        E 15 90 2e 34
        E 0 90 2f 00
        E 36 90 4f 00
        E 0 90 4f 37
        E 72 90 4f 00
        E 0 90 4f 3e
        E 10 90 2e 00
        E 0 90 2f 3b
        E 62 90 4f 00
        E 5 90 2f 00
        E 5 90 2f 3b
        E 0 90 47 41
        E 123 90 4f 4e
        E 10 90 47 00
        E 10 90 1c 35
        E 46 90 5b 2f
        E 61 90 5b 00
        E 21 90 4f 00
        E 5 90 36 31
        E 46 90 1c 00
        E 0 90 2f 00
        E 5 90 26 27
        E 10 90 36 00
        E 46 90 4f 2d
        E 5 90 43 39
        E 51 90 26 00
        E 31 90 43 00
        E 0 90 43 3a
        E 61 90 2f 31
        E 0 90 4f 00
        E 16 90 45 48
        E 0 90 51 37
        E 5 90 3b 30
        E 0 90 43 00
        E 0 90 4e 3f
        E 97 90 2f 00
        E 5 90 47 3b
        E 0 90 4e 00
        E 0 90 51 00
        E 5 90 28 43
        E 10 90 3b 00
        E 10 90 45 00
        E 52 90 28 00
        E 0 90 28 3b
        E 0 90 47 00
        E 0 90 47 3c
        E 5 90 2f 35
        E 61 90 3b 30
        E 10 90 37 3c
        E 57 90 37 00
        E 0 90 37 48
        E 31 90 3b 00
        E 0 90 47 00
        E 20 90 2f 00
        E 92 90 37 00
        E 5 90 26 2b
        E 5 90 32 3e
        E 0 90 45 37
        E 5 90 28 00
        E 128 90 32 00
        E 5 90 43 34
        E 92 90 51 37
        E 26 90 32 2b
        E 5 90 45 00
        E 0 90 45 28
        E 20 90 43 00
        E 0 90 43 32
        E 46 90 51 00
        E 5 90 26 00
        E 5 90 2b 2e
        E 5 90 43 00
        E 21 90 45 00
        E 15 90 32 00
        E 21 90 1f 2c
        E 0 90 2b 00
        E 0 90 2b 34
        E 5 90 47 34
        E 61 90 2b 00
        E 82 90 2b 28
        E 36 90 37 34
        E 15 90 1f 00
        E 61 90 53 31
        E 5 90 47 00
        E 0 90 47 39
        E 67 90 2b 00
        E 26 90 47 00
        E 0 90 47 40
        E 36 90 53 00
        E 5 90 32 2e
        E 25 90 37 00
        E 0 90 37 34
        E 31 90 47 00
        E 0 90 47 39
        E 0 90 53 32
        E 5 90 2b 2a
        E 46 90 40 46
        E 15 90 47 00
        E 16 90 32 00
        E 0 90 3b 3f
        E 30 90 53 00
        E 10 90 35 2c
        E 26 90 37 00
        E 5 90 40 00
        E 0 90 40 3c
        E 72 90 35 00
        E 15 90 33 3b
        E 15 90 40 00
        E 16 90 3f 3b
        E 35 90 2b 00
        E 31 90 3b 00
        E 5 90 3f 00
        E 0 90 3f 2d
        E 41 90 32 3b
        E 0 90 33 00
        E 10 90 45 22
        E 41 90 39 40
        E 31 90 45 00
        E 10 90 3f 00
        E 51 90 39 00
        E 10 90 48 3e
        E 5 90 2d 35
        E 0 90 32 00
        E 5 90 40 2e
        E 26 90 3c 3f
        E 41 90 48 00
        E 71 90 40 00
        E 37 90 36 36
        E 97 90 3c 00
        E 0 90 3c 3e
        E 173 90 36 00
        E 0 90 37 3d
        E 21 90 2d 00
        E 5 90 34 38
        E 0 90 3c 00
        E 15 90 47 2e
        E 5 90 3b 48
        E 103 90 3b 00
        E 10 90 2f 39
        E 10 90 37 00
        E 5 90 34 00
        E 5 90 47 00
        E 5 90 3f 42
        E 26 90 23 37
        E 87 90 36 27
        E 51 90 39 25
        E 5 90 2f 00
        E 51 90 23 00
        E 15 90 39 00
        E 0 90 39 31
        E 31 90 36 00
        E 31 90 3f 00
        E 0 90 3f 39
        E 102 90 36 35
        E 0 90 38 26
        E 0 90 39 00
        E 67 90 38 00
        E 5 90 38 30
        E 77 90 3f 00
        E 20 90 38 00
        E 20 90 36 00
        E 0 90 36 3c
        E 0 90 40 4c
        E 16 90 2d 2a
        E 30 90 38 2f
        E 41 90 40 00
        E 0 90 40 3a
        E 5 90 2d 00
        E 41 90 38 00
        E 26 90 28 36
        E 20 90 36 00
        E 46 90 40 00
        E 0 90 40 3a
        E 10 90 43 36
        E 123 90 43 00
        E 66 90 37 3b
        E 51 90 40 00
        E 67 90 1c 34
        E 87 90 40 2e
        E 30 90 4a 40
        E 5 90 37 00
        E 0 90 37 30
        E 0 90 4f 36
        E 47 90 40 00
        E 15 90 4f 00
        E 11 90 43 27
        E 61 90 40 38
        E 0 90 48 3a
        E 20 90 43 00
        E 67 90 1c 00
        E 5 90 48 00
        E 0 90 4a 00
        E 15 90 40 00
        E 0 90 40 35
        E 0 90 4a 2a
        E 0 90 56 39
        E 5 90 34 31
        E 0 90 43 2c
        E 82 90 4a 00
        E 5 90 43 00
        E 0 90 43 31
        E 21 90 28 00
        E 5 90 34 00
        E 5 90 56 00
        E 35 90 40 00
        E 0 90 4a 27
        E 6 90 37 00
        E 61 90 40 2e
        E 20 90 4a 00
        E 5 90 4a 49
        E 46 90 43 00
        E 6 90 28 2c
        E 51 90 48 3f
        E 71 90 48 00
        E 15 90 40 00
        E 0 90 40 35
        E 0 90 53 3f
        E 6 90 4a 00
        E 10 90 2f 34
        E 15 90 36 39
        E 26 90 28 00
        E 56 90 53 00
        E 5 90 51 2e
        E 5 90 3f 32
        E 0 90 40 00
        E 46 90 36 00
        E 20 90 3f 00
        E 0 90 40 41
        E 16 90 4c 3d
        E 5 90 47 38
        E 21 90 3c 33
        E 20 90 40 00
        E 0 90 40 3d
        E 5 90 51 00
        E 31 90 47 00
        E 0 90 48 29
        E 15 90 4c 00
        E 57 90 2f 00
        E 0 90 3c 00
        E 0 90 48 00
        E 15 90 30 58
        E 5 90 40 00
        E 0 90 40 3d
        E 0 90 53 2e
        E 5 90 48 28
        E 87 90 53 00
        E 5 90 40 00
        E 0 90 40 48
        E 0 90 48 00
        E 5 90 30 00
        E 0 90 30 44
        E 92 90 40 00
        E 0 90 40 3c
        E 10 90 47 45
        E 36 90 4c 34
        E 0 90 58 2e
        E 21 90 40 00
        E 0 90 40 34
        E 81 90 40 00
        E 11 90 4c 00
        E 0 90 58 00
        E 20 90 47 00
        E 5 90 4f 35
        E 5 90 3c 26
        E 0 90 40 2f
        E 5 90 2d 41
        E 51 90 4f 00
        E 16 90 3c 00
        E 5 90 40 00
        E 15 90 51 25
        E 5 90 30 00
        E 31 90 4d 29
        E 25 90 51 00
        E 62 90 4d 00
        E 20 90 3c 38
        E 0 90 43 2f
        E 103 90 43 00
        E 41 90 3c 00
        E 5 90 2d 00
        E 0 90 4c 46
        E 10 90 2f 44
        E 36 90 51 3b
        E 30 90 4e 30
        E 36 90 4b 3b
        E 0 90 4c 00
        E 46 90 38 35
        E 0 90 4e 00
        E 10 90 36 2e
        E 6 90 51 00
        E 10 90 4b 00
        E 20 90 40 41
        E 46 90 2f 00
        E 10 90 51 27
        E 5 90 36 00
        E 0 90 36 3b
        E 41 90 3f 39
        E 0 90 40 00
        E 57 90 51 00
        E 46 90 38 00
        E 10 90 28 31
        E 0 90 3f 00
        E 0 90 40 2e
        E 0 90 4c 28
        E 5 90 4a 3b
        E 20 90 36 00
        E 36 90 40 00
        E 41 90 36 33
        E 0 90 4a 00
        E 20 90 4c 00
        E 41 90 36 00
        E 5 90 28 00
        E 31 90 37 34
        E 0 90 3e 58
        E 51 90 4f 2b
        E 56 90 3e 00
        E 0 90 3e 49
        E 5 90 3c 36
        E 21 90 4f 00
        E 46 90 37 00
        E 10 90 3e 00
        E 0 90 3e 3c
        E 5 90 4a 3e
        E 6 90 3c 00
        E 46 90 28 2e
        E 15 90 37 38
        E 61 90 48 39
        E 31 90 37 00
        E 0 90 37 37
        E 26 90 34 27
        E 0 90 4a 00
        E 30 90 3e 00
        E 0 90 3e 44
        E 36 90 48 00
        E 15 90 34 00
        E 26 90 28 00
        E 56 90 37 00
        E 41 90 47 35
        E 5 90 3b 2e
        E 15 90 28 3c
        E 51 90 3b 00
        E 62 90 33 2a
        E 35 90 3e 00
        E 21 90 3b 2b
        E 36 90 47 00
        E 30 90 30 2d
        E 46 90 33 00
        E 0 90 3b 00
        E 36 90 30 00
        E 31 90 47 31
        E 76 90 34 2b
        E 57 90 34 00
        E 41 90 34 28
        E 0 90 3b 29
        E 0 90 40 2e
        E 20 90 47 00
        E 108 90 34 00
        E 25 90 40 00
        E 16 90 28 00
        E 5 90 28 43
        E 0 90 43 46
        E 0 90 4f 41
        E 5 90 3b 00
        E 46 90 37 32
        E 61 90 41 32
        E 0 90 4d 2d
        E 5 90 3b 28
        E 5 90 43 00
        E 0 90 43 32
        E 0 90 4f 00
        E 46 90 39 36
        E 5 90 41 00
        E 0 90 41 31
        E 11 90 3b 00
        E 5 90 4d 00
        E 5 90 37 00
        E 15 90 3c 3c
        E 36 90 43 00
        E 0 90 43 2e
        E 0 90 48 2a
        E 20 90 39 00
        E 0 90 39 3e
        E 36 90 41 00
        E 26 90 3c 00
        E 15 90 43 00
        E 5 90 39 00
        E 20 90 40 37
        E 0 90 48 00
        E 0 90 4c 2d
        E 11 90 2f 34
        E 5 90 28 00
        E 0 90 28 38
        E 46 90 4c 00
        E 56 90 3f 34
        E 0 90 40 00
        E 15 90 39 2b
        E 16 90 2f 00
        E 0 90 36 3e
        E 61 90 39 00
        E 0 90 3f 00
        E 0 90 3f 34
        E 15 90 38 34
        E 5 90 28 00
        E 31 90 36 00
        E 0 90 36 40
        E 26 90 28 2d
        E 0 90 3f 00
        E 0 90 3f 45
        E 36 90 38 00
        E 0 90 38 33
        E 56 90 28 00
        E 15 90 38 00
        E 31 90 3f 00
        E 0 90 40 57
        E 5 90 36 00
        E 0 90 37 43
        E 215 90 40 00
        E 0 90 40 4d
        E 76 90 3e 3c
        E 97 90 40 00
        E 0 90 40 4d
        E 77 90 3e 00
        E 0 90 3e 41
        E 31 90 40 00
        E 0 90 40 4d
        E 56 90 3d 2e
        E 0 90 3e 00
        E 41 90 40 00
        E 0 90 40 4b
        E 76 90 3d 00
        E 5 90 3c 2d
        E 0 90 43 34
        E 21 90 40 00
        E 0 90 40 50
        E 72 90 3c 00
        E 10 90 37 00
        E 10 90 43 00
        E 5 90 40 00
        E 0 90 40 3f
        E 0 90 43 3c
        E 21 90 39 34
        E 87 90 43 00
        E 0 90 43 41
        E 20 90 37 30
        E 0 90 40 00
        E 0 90 40 43
        E 36 90 39 00
        E 10 90 3b 35
        E 56 90 40 00
        E 0 90 40 48
        E 0 90 43 00
        E 0 90 43 3a
        E 51 90 37 00
        E 11 90 39 39
        E 0 90 3b 00
        E 76 90 40 00
        E 0 90 40 49
        E 5 90 3b 40
        E 5 90 43 00
        E 11 90 39 00
        E 15 90 34 2d
        E 66 90 37 44
        E 6 90 3b 00
        E 0 90 3b 33
        E 5 90 40 00
        E 0 90 40 2c
        E 61 90 40 00
        E 31 90 34 00
        E 5 90 34 33
        E 5 90 37 00
        E 0 90 37 38
        E 41 90 3b 00
        E 25 90 37 00
        E 0 90 37 34
        E 56 90 2f 3c
        E 31 90 37 00
        E 15 90 28 29
        E 6 90 34 00
        E 20 90 2b 33
        E 0 90 2f 00
        E 0 90 2f 3c
        E 67 90 37 29
        E 61 90 28 00
        E 0 90 28 38
        E 5 90 37 00
        E 21 90 2f 00
        E 15 90 37 24
        E 10 90 30 22
        E 21 90 28 00
        E 0 90 28 41
        E 15 90 24 2b
        E 10 90 2b 00
        E 16 90 30 00
        E 15 90 37 00
        E 31 90 28 00
        E 0 90 28 30
        E 15 90 24 00
        E 123 90 1c 30
        E 15 90 2f 2c
        E 128 90 2f 00
        E 56 90 28 00
        E 0 90 28 37
        E 0 90 4f 3a
        E 5 90 40 4d
        E 41 90 37 3f
        E 35 90 40 00
        E 0 90 40 36
        E 52 90 4f 00
        E 189 90 40 00
        E 26 90 28 00
        E 153 90 1c 00
        E 5 90 37 00
        E 45 b0 7b 00
        CCINTERP 32
        CHASE_CC_TAKEOFFS 1
        GUID {C2F949AB-1DB5-4DB3-B36C-8201785ED0A3}
        IGNTEMPO 0 120 4 4
        SRCCOLOR 217
      >
    >
  >
  <UINF 119
    <ITEM {E614481E-FB20-49D6-AAE5-3F759AC251CC}
      POSITION 0
      SNAPOFFS 0
      LENGTH 214.5
      LOOP 1
      ALLTAKES 0
      FADEIN 1 0 0 1 0 0 0
      FADEOUT 1 0 0 1 0 0 0
      MUTE 0 0
      SEL 0
      IGUID {E614481E-FB20-49D6-AAE5-3F759AC251CC}
      IID 134
      NAME "Gwyn, Lord of Cinder_basic_pitch.mid"
      VOLPAN 1 0 1 -1
      SOFFS 0 0
      PLAYRATE 1 1 0 -1 0 0.0025
      CHANMODE 0
      GUID {21C3840F-76B9-4CCA-8907-CE12D2A6F882}
      <SOURCE MIDI
        HASDATA 1 220 QN
        CCINTERP 32
        POOLEDEVTS {7B63AA91-2331-416D-954D-D71A8642F8D2}
        E 0 c0 04 00
        E 143 90 3c 59
        E 0 90 41 49
        E 5 90 2d 50
        E 107 90 2d 00
        E 0 90 2d 3e
        E 0 90 34 4c
        E 0 90 3b 4b
        E 0 90 3c 00
        E 92 90 34 00
        E 0 90 34 30
        E 16 90 3b 00
        E 0 90 41 00
        E 0 90 41 43
        E 5 90 2d 00
        E 0 90 2d 37
        E 10 90 39 42
        E 0 90 3c 50
        E 0 90 45 35
        E 0 90 4c 3a
        E 0 90 58 47
        E 97 90 28 37
        E 10 90 3b 3e
        E 0 90 3c 00
        E 0 90 4c 00
        E 62 90 34 00
        E 0 90 58 00
        E 25 90 28 00
        E 0 90 45 00
        E 15 90 3b 00
        E 11 90 4a 42
        E 0 90 56 38
        E 5 90 3c 45
        E 0 90 41 00
        E 0 90 41 3a
        E 5 90 45 37
        E 31 90 28 2e
        E 66 90 39 00
        E 0 90 56 00
        E 10 90 3b 47
        E 0 90 3c 00
        E 107 90 4a 00
        E 6 90 2d 00
        E 0 90 2d 40
        E 0 90 3b 00
        E 5 90 3c 39
        E 10 90 41 00
        E 0 90 41 2f
        E 0 90 45 00
        E 0 90 45 47
        E 0 90 51 2b
        E 87 90 51 00
        E 11 90 28 00
        E 0 90 39 24
        E 5 90 28 32
        E 0 90 34 29
        E 0 90 3b 2f
        E 0 90 3c 00
        E 66 90 34 00
        E 0 90 3b 00
        E 46 90 2d 00
        E 0 90 2d 40
        E 0 90 3c 33
        E 0 90 41 00
        E 0 90 41 44
        E 5 90 39 00
        E 5 90 39 30
        E 5 90 45 00
        E 0 90 45 36
        E 97 90 3b 39
        E 0 90 3c 00
        E 118 90 3b 00
        E 0 90 3c 43
        E 5 90 41 00
        E 0 90 41 39
        E 0 90 45 00
        E 87 90 39 00
        E 20 90 3b 45
        E 0 90 3c 00
        E 5 90 45 32
        E 92 90 45 00
        E 26 90 3b 00
        E 0 90 3c 4c
        E 0 90 41 00
        E 0 90 41 40
        E 51 90 28 00
        E 0 90 2d 00
        E 0 90 2d 39
        E 56 90 28 36
        E 0 90 34 2b
        E 10 90 3b 40
        E 0 90 3c 00
        E 92 90 3b 00
        E 16 90 41 00
        E 0 90 41 3c
        E 16 90 39 3a
        E 0 90 3c 4f
        E 0 90 45 31
        E 0 90 4c 35
        E 0 90 58 43
        E 91 90 3b 42
        E 0 90 3c 00
        E 11 90 4c 00
        E 46 90 2d 00
        E 5 90 34 00
        E 30 90 3b 00
        E 21 90 58 00
        E 5 90 3c 45
        E 5 90 41 00
        E 0 90 41 32
        E 0 90 4a 3a
        E 0 90 56 33
        E 26 90 2d 34
        E 40 90 39 00
        E 31 90 3b 41
        E 0 90 3c 00
        E 87 90 45 00
        E 20 90 41 00
        E 0 90 56 00
        E 11 90 2d 00
        E 5 90 2d 54
        E 0 90 4f 3c
        E 5 90 41 2a
        E 20 90 28 00
        E 0 90 3b 00
        E 0 90 3c 4a
        E 0 90 5b 2d
        E 56 90 41 00
        E 26 90 34 2b
        E 0 90 3b 38
        E 0 90 3c 00
        E 15 90 28 34
        E 51 90 34 00
        E 31 90 3b 00
        E 15 90 3c 41
        E 0 90 41 3c
        E 6 90 4a 00
        E 0 90 4f 00
        E 5 90 2d 00
        E 0 90 2d 3e
        E 0 90 39 3e
        E 0 90 45 34
        E 25 90 5b 00
        E 82 90 3b 3d
        E 0 90 3c 00
        E 92 90 3b 00
        E 6 90 45 00
        E 10 90 3c 48
        E 5 90 39 00
        E 0 90 39 30
        E 0 90 41 00
        E 0 90 41 49
        E 0 90 4d 37
        E 82 90 39 00
        E 15 90 4d 00
        E 20 90 3b 49
        E 0 90 3c 00
        E 87 90 28 00
        E 5 90 41 00
        E 16 90 2d 00
        E 0 90 2d 4a
        E 0 90 4c 39
        E 0 90 58 3e
        E 5 90 39 31
        E 0 90 40 2f
        E 0 90 43 31
        E 5 90 3e 30
        E 10 90 3b 00
        E 61 90 40 00
        E 31 90 3c 40
        E 5 90 34 37
        E 0 90 4c 00
        E 5 90 43 00
        E 5 90 58 00
        E 21 90 3e 00
        E 66 90 34 00
        E 10 90 28 29
        E 11 90 3e 42
        E 0 90 43 3d
        E 5 90 39 00
        E 0 90 39 3b
        E 5 90 2d 00
        E 0 90 2d 3e
        E 41 90 28 00
        E 56 90 3c 00
        E 0 90 3c 40
        E 10 90 43 00
        E 21 90 48 29
        E 91 90 43 34
        E 6 90 3e 00
        E 0 90 3e 3b
        E 56 90 48 00
        E 36 90 3c 00
        E 0 90 3c 42
        E 61 90 39 00
        E 57 90 2d 00
        E 0 90 2d 4d
        E 0 90 39 26
        E 0 90 43 00
        E 0 90 43 3c
        E 5 90 3e 00
        E 0 90 3e 3f
        E 81 90 39 00
        E 6 90 3e 00
        E 15 90 34 2c
        E 0 90 43 00
        E 5 90 3c 00
        E 0 90 3c 40
        E 71 90 3e 3d
        E 31 90 34 00
        E 15 90 43 36
        E 6 90 2d 00
        E 0 90 2d 41
        E 0 90 39 38
        E 107 90 3c 00
        E 0 90 3c 3a
        E 20 90 43 00
        E 97 90 3e 00
        E 5 90 3e 44
        E 0 90 43 37
        E 26 90 39 00
        E 77 90 3c 00
        E 0 90 3c 46
        E 10 90 3e 00
        E 0 90 3e 3d
        E 20 90 43 00
        E 87 90 2d 00
        E 0 90 2d 52
        E 0 90 3c 00
        E 0 90 3c 33
        E 0 90 43 36
        E 5 90 3e 00
        E 0 90 3e 52
        E 62 90 3e 00
        E 0 90 3e 45
        E 45 90 3c 00
        E 0 90 3c 39
        E 6 90 34 2d
        E 77 90 28 2e
        E 36 90 2d 00
        E 0 90 2d 44
        E 0 90 43 00
        E 0 90 43 3d
        E 5 90 3e 00
        E 0 90 3e 4e
        E 102 90 3c 00
        E 0 90 3c 46
        E 0 90 48 2a
        E 5 90 3e 00
        E 0 90 3e 43
        E 20 90 34 00
        E 0 90 43 00
        E 21 90 39 2e
        E 30 90 28 00
        E 36 90 3e 00
        E 0 90 3e 58
        E 0 90 43 3a
        E 113 90 3c 00
        E 0 90 3c 48
        E 0 90 3e 00
        E 0 90 3e 45
        E 0 90 48 00
        E 0 90 48 31
        E 61 90 39 00
        E 51 90 43 00
        E 0 90 43 43
        E 5 90 2d 00
        E 0 90 2d 4d
        E 0 90 3c 00
        E 0 90 3c 30
        E 0 90 3e 00
        E 0 90 3e 3f
        E 87 90 28 2a
        E 10 90 34 39
        E 10 90 3c 00
        E 0 90 3c 38
        E 11 90 43 00
        E 30 90 48 00
        E 16 90 28 00
        E 61 90 43 41
        E 5 90 2d 00
        E 0 90 2d 48
        E 0 90 39 3a
        E 0 90 3e 00
        E 0 90 3e 51
        E 92 90 28 29
        E 11 90 3e 00
        E 0 90 3e 4c
        E 0 90 48 2e
        E 5 90 3c 00
        E 0 90 3c 3d
        E 30 90 43 00
        E 46 90 28 00
        E 11 90 34 00
        E 5 90 48 00
        E 15 90 43 41
        E 5 90 39 00
        E 0 90 39 36
        E 0 90 3e 00
        E 0 90 3e 4b
        E 26 90 30 27
        E 66 90 39 00
        E 15 90 30 00
        E 0 90 3c 00
        E 0 90 3c 47
        E 0 90 48 2b
        E 6 90 30 29
        E 5 90 3e 00
        E 0 90 3e 41
        E 35 90 43 00
        E 31 90 30 00
        E 21 90 48 00
        E 10 90 41 46
        E 5 90 2d 00
        E 0 90 2d 40
        E 5 90 3c 00
        E 0 90 3c 46
        E 15 90 3e 00
        E 87 90 28 2e
        E 10 90 34 38
        E 0 90 3b 43
        E 0 90 3c 00
        E 26 90 41 00
        E 71 90 34 00
        E 0 90 3b 00
        E 21 90 41 2e
        E 5 90 2d 00
        E 0 90 2d 36
        E 0 90 39 41
        E 0 90 3c 3e
        E 0 90 45 34
        E 5 90 4c 3a
        E 0 90 58 43
        E 31 90 34 29
        E 66 90 3b 40
        E 0 90 3c 00
        E 21 90 4c 00
        E 40 90 34 00
        E 6 90 2d 00
        E 10 90 58 00
        E 5 90 28 00
        E 10 90 3b 00
        E 26 90 3c 3e
        E 0 90 41 00
        E 0 90 41 3c
        E 5 90 28 2e
        E 0 90 45 00
        E 0 90 45 2d
        E 0 90 4a 46
        E 0 90 56 30
        E 30 90 2d 31
        E 16 90 39 00
        E 51 90 3b 3b
        E 0 90 3c 00
        E 16 90 56 00
        E 20 90 45 00
        E 51 90 28 00
        E 26 90 2d 00
        E 0 90 4a 00
        E 5 90 2d 45
        E 5 90 41 00
        E 0 90 41 38
        E 5 90 3b 00
        E 0 90 3c 38
        E 0 90 45 49
        E 0 90 51 38
        E 15 90 28 2e
        E 72 90 51 00
        E 15 90 4a 34
        E 5 90 28 00
        E 0 90 28 36
        E 0 90 3b 30
        E 0 90 3c 00
        E 92 90 3b 00
        E 26 90 4a 00
        E 5 90 39 2f
        E 0 90 3c 38
        E 0 90 41 00
        E 0 90 41 36
        E 0 90 45 00
        E 0 90 45 2f
        E 5 90 2d 00
        E 0 90 2d 3e
        E 77 90 3c 00
        E 25 90 3b 3e
        E 102 90 28 00
        E 0 90 3b 00
        E 5 90 3c 41
        E 0 90 41 00
        E 0 90 41 46
        E 62 90 39 00
        E 51 90 3b 36
        E 0 90 3c 00
        E 41 90 2d 00
        E 10 90 28 29
        E 41 90 45 00
        E 20 90 3b 00
        E 0 90 41 00
        E 0 90 41 3b
        E 5 90 3c 31
        E 21 90 2d 38
        E 57 90 28 00
        E 20 90 28 35
        E 0 90 3c 00
        E 5 90 3b 39
        E 97 90 3b 00
        E 21 90 3c 46
        E 0 90 41 00
        E 0 90 41 3a
        E 10 90 45 37
        E 0 90 4c 34
        E 0 90 58 4b
        E 5 90 39 3d
        E 87 90 4c 00
        E 5 90 28 00
        E 0 90 28 3f
        E 5 90 3b 33
        E 0 90 3c 00
        E 97 90 28 00
        E 5 90 3b 00
        E 0 90 58 00
        E 21 90 3c 35
        E 5 90 28 31
        E 0 90 41 00
        E 0 90 41 39
        E 0 90 45 00
        E 0 90 45 2f
        E 0 90 4a 41
        E 0 90 56 3d
        E 20 90 39 00
        E 41 90 45 00
        E 31 90 28 00
        E 0 90 28 37
        E 0 90 3c 00
        E 5 90 3b 34
        E 0 90 56 00
        E 112 90 3b 00
        E 5 90 2d 00
        E 0 90 2d 4f
        E 0 90 3c 42
        E 0 90 41 00
        E 0 90 41 2c
        E 0 90 4f 3e
        E 21 90 5b 34
        E 61 90 4a 00
        E 15 90 28 00
        E 0 90 28 39
        E 5 90 5b 00
        E 6 90 34 31
        E 5 90 2d 00
        E 0 90 2d 49
        E 30 90 41 00
        E 56 90 4f 00
        E 11 90 3c 00
        E 0 90 3c 3a
        E 10 90 41 37
        E 5 90 39 3a
        E 0 90 45 2e
        E 5 90 2d 00
        E 0 90 2d 3d
        E 98 90 3b 38
        E 0 90 3c 00
        E 10 90 45 00
        E 66 90 3b 00
        E 5 90 34 00
        E 36 90 3c 41
        E 5 90 41 00
        E 0 90 41 49
        E 5 90 39 00
        E 0 90 39 33
        E 0 90 4d 3f
        E 98 90 39 00
        E 10 90 3b 42
        E 0 90 3c 00
        E 0 90 4d 00
        E 112 90 2d 00
        E 0 90 2d 48
        E 0 90 43 30
        E 5 90 3b 00
        E 0 90 3e 30
        E 0 90 40 29
        E 0 90 41 00
        E 0 90 4c 36
        E 0 90 58 39
        E 5 90 3c 2d
        E 26 90 28 00
        E 66 90 28 2f
        E 5 90 34 31
        E 11 90 43 00
        E 5 90 3c 00
        E 0 90 3c 3c
        E 0 90 40 00
        E 5 90 58 00
        E 102 90 39 3c
        E 5 90 2d 00
        E 0 90 2d 48
        E 0 90 3e 00
        E 0 90 3e 41
        E 0 90 43 31
        E 0 90 4c 00
        E 112 90 3c 00
        E 0 90 3c 47
        E 11 90 43 00
        E 20 90 28 00
        E 82 90 34 00
        E 6 90 43 36
        E 0 90 48 2e
        E 5 90 3e 00
        E 0 90 3e 39
        E 81 90 48 00
        E 26 90 3c 00
        E 0 90 3c 43
        E 5 90 39 00
        E 0 90 39 2f
        E 61 90 39 00
        E 41 90 2d 00
        E 0 90 2d 4b
        E 0 90 43 00
        E 0 90 43 3b
        E 10 90 3e 00
        E 0 90 3e 4c
        E 6 90 3c 00
        E 91 90 3c 42
        E 6 90 34 3a
        E 0 90 48 27
        E 46 90 43 00
        E 40 90 34 00
        E 16 90 48 00
        E 15 90 2d 00
        E 0 90 2d 43
        E 0 90 3c 00
        E 0 90 3c 33
        E 0 90 43 39
        E 5 90 39 36
        E 0 90 3e 00
        E 0 90 3e 4a
        E 102 90 3c 00
        E 0 90 3c 39
        E 0 90 3e 00
        E 0 90 3e 40
        E 0 90 48 30
        E 118 90 43 00
        E 0 90 43 3b
        E 0 90 48 00
        E 0 90 48 32
        E 5 90 3e 00
        E 0 90 3e 4e
        E 112 90 3c 00
        E 0 90 3c 44
        E 0 90 48 00
        E 0 90 48 2a
        E 62 90 48 00
        E 5 90 43 00
        E 31 90 39 00
        E 0 90 39 32
        E 0 90 3e 00
        E 5 90 2d 00
        E 0 90 2d 48
        E 5 90 3c 00
        E 0 90 3c 38
        E 0 90 40 3d
        E 0 90 45 3b
        E 5 90 58 37
        E 82 90 40 00
        E 15 90 58 00
        E 5 90 3e 31
        E 6 90 34 39
        E 0 90 3c 00
        E 107 90 45 00
        E 0 90 45 47
        E 5 90 2d 00
        E 0 90 2d 3f
        E 0 90 34 00
        E 0 90 34 34
        E 0 90 39 00
        E 0 90 39 3e
        E 0 90 40 33
        E 97 90 40 00
        E 10 90 3e 00
        E 0 90 3e 48
        E 118 90 40 39
        E 0 90 45 00
        E 0 90 45 42
        E 5 90 39 00
        E 0 90 39 33
        E 36 90 34 00
        E 71 90 3e 00
        E 0 90 3e 38
        E 61 90 39 00
        E 46 90 2d 00
        E 0 90 2d 54
        E 5 90 40 00
        E 0 90 40 39
        E 0 90 45 00
        E 0 90 45 3e
        E 108 90 34 3a
        E 5 90 28 2d
        E 0 90 3e 00
        E 0 90 3e 39
        E 25 90 40 00
        E 78 90 2d 00
        E 0 90 2d 4c
        E 0 90 45 00
        E 0 90 45 3f
        E 5 90 39 41
        E 0 90 40 38
        E 107 90 3e 00
        E 0 90 3e 4a
        E 0 90 40 00
        E 82 90 34 00
        E 10 90 28 00
        E 36 90 2d 00
        E 0 90 2d 41
        E 0 90 34 2b
        E 0 90 39 00
        E 0 90 39 31
        E 0 90 40 35
        E 0 90 45 00
        E 0 90 45 46
        E 5 90 51 42
        E 56 90 34 00
        E 46 90 51 00
        E 5 90 3e 00
        E 0 90 3e 42
        E 0 90 45 00
        E 0 90 45 2d
        E 21 90 40 00
        E 97 90 2d 00
        E 0 90 2d 51
        E 0 90 39 00
        E 5 90 41 40
        E 0 90 47 35
        E 0 90 4c 44
        E 5 90 58 39
        E 46 90 3e 00
        E 10 90 45 00
        E 0 90 47 00
        E 26 90 4c 00
        E 10 90 34 48
        E 5 90 40 44
        E 0 90 41 00
        E 107 90 40 00
        E 0 90 41 4a
        E 5 90 2d 00
        E 0 90 2d 4e
        E 0 90 34 00
        E 0 90 34 3b
        E 0 90 39 3b
        E 87 90 45 2c
        E 15 90 58 00
        E 6 90 40 40
        E 0 90 41 00
        E 87 90 45 00
        E 25 90 34 00
        E 0 90 34 39
        E 0 90 40 00
        E 0 90 40 31
        E 0 90 47 41
        E 57 90 39 00
        E 41 90 34 00
        E 0 90 34 3a
        E 5 90 40 00
        E 0 90 40 50
        E 56 90 47 00
        E 41 90 34 00
        E 20 90 47 33
        E 5 90 2d 00
        E 0 90 2d 54
        E 5 90 4c 2c
        E 5 90 40 00
        E 0 90 40 38
        E 0 90 58 41
        E 67 90 28 24
        E 10 90 47 00
        E 10 90 2d 00
        E 0 90 2d 46
        E 0 90 34 3b
        E 5 90 4c 00
        E 46 90 40 00
        E 0 90 41 2a
        E 26 90 28 00
        E 31 90 34 00
        E 0 90 58 00
        E 10 90 41 00
        E 5 90 2d 00
        E 0 90 2d 42
        E 0 90 39 3e
        E 0 90 41 48
        E 0 90 47 34
        E 5 90 45 28
        E 0 90 4d 3a
        E 5 90 34 2b
        E 10 90 28 2b
        E 62 90 45 00
        E 25 90 40 36
        E 0 90 41 00
        E 26 90 4d 00
        E 51 90 47 00
        E 5 90 28 00
        E 5 90 34 00
        E 15 90 39 00
        E 11 90 4f 41
        E 5 90 2d 00
        E 0 90 2d 52
        E 0 90 40 00
        E 0 90 41 35
        E 5 90 48 45
        E 36 90 39 2b
        E 61 90 40 2d
        E 0 90 41 00
        E 21 90 39 00
        E 61 90 40 00
        E 26 90 41 41
        E 5 90 2d 00
        E 0 90 2d 58
        E 0 90 4a 32
        E 5 90 4c 34
        E 10 90 48 00
        E 15 90 58 3e
        E 41 90 4c 00
        E 16 90 40 35
        E 0 90 41 00
        E 0 90 4a 00
        E 5 90 34 3a
        E 25 90 4f 00
        E 67 90 58 00
        E 10 90 40 00
        E 10 90 34 00
        E 5 90 41 48
        E 5 90 2d 00
        E 0 90 2d 4f
        E 0 90 39 3b
        E 97 90 40 38
        E 0 90 41 00
        E 46 90 4a 25
        E 62 90 4a 00
        E 5 90 4a 33
        E 10 90 40 00
        E 0 90 41 49
        E 20 90 28 2e
        E 41 90 39 00
        E 41 90 40 43
        E 0 90 41 00
        E 67 90 28 00
        E 20 90 4a 00
        E 26 90 48 38
        E 5 90 2d 00
        E 0 90 2d 51
        E 5 90 40 00
        E 97 90 34 31
        E 0 90 40 2e
        E 67 90 40 00
        E 25 90 28 2c
        E 21 90 39 2f
        E 0 90 45 1f
        E 0 90 48 00
        E 0 90 48 2c
        E 0 90 4a 32
        E 0 90 56 49
        E 61 90 45 00
        E 66 90 56 00
        E 6 90 41 2b
        E 10 90 4a 00
        E 56 90 39 00
        E 5 90 34 00
        E 21 90 48 00
        E 0 90 48 50
        E 5 90 41 00
        E 5 90 41 44
        E 112 90 40 3d
        E 0 90 41 00
        E 72 90 28 00
        E 15 90 40 00
        E 20 90 41 30
        E 0 90 47 3f
        E 0 90 48 00
        E 6 90 2d 00
        E 0 90 2d 42
        E 15 90 53 3e
        E 66 90 41 00
        E 5 90 47 00
        E 21 90 34 3e
        E 5 90 40 37
        E 10 90 53 00
        E 87 90 40 00
        E 5 90 28 2e
        E 10 90 41 4b
        E 0 90 47 39
        E 11 90 39 42
        E 0 90 45 27
        E 66 90 28 00
        E 6 90 47 00
        E 15 90 39 00
        E 0 90 39 2f
        E 5 90 34 00
        E 0 90 34 38
        E 0 90 40 45
        E 0 90 41 00
        E 51 90 45 00
        E 15 90 28 27
        E 46 90 40 00
        E 0 90 41 57
        E 6 90 34 00
        E 0 90 34 2f
        E 0 90 47 3c
        E 71 90 28 00
        E 0 90 39 00
        E 31 90 40 57
        E 0 90 41 00
        E 92 90 34 00
        E 10 90 2d 00
        E 0 90 2d 47
        E 5 90 31 2a
        E 5 90 40 00
        E 0 90 41 46
        E 5 90 47 00
        E 0 90 47 3a
        E 56 90 31 00
        E 41 90 34 39
        E 0 90 47 00
        E 92 90 34 00
        E 16 90 28 29
        E 0 90 41 00
        E 0 90 41 4f
        E 5 90 34 2b
        E 0 90 39 35
        E 0 90 45 25
        E 66 90 28 00
        E 41 90 45 00
        E 5 90 34 00
        E 0 90 34 30
        E 0 90 40 3f
        E 0 90 41 00
        E 72 90 34 00
        E 40 90 40 00
        E 0 90 41 49
        E 0 90 48 40
        E 6 90 45 27
        E 77 90 45 00
        E 20 90 2d 00
        E 0 90 2d 45
        E 0 90 40 4a
        E 0 90 41 00
        E 87 90 39 00
        E 20 90 40 00
        E 0 90 41 4d
        E 6 90 2d 00
        E 0 90 2d 51
        E 0 90 4a 35
        E 20 90 48 00
        E 71 90 28 29
        E 0 90 2d 00
        E 0 90 2d 4f
        E 6 90 34 2a
        E 5 90 40 38
        E 0 90 41 00
        E 5 90 4a 00
        E 71 90 34 00
        E 36 90 2d 00
        E 0 90 2d 45
        E 0 90 40 00
        E 0 90 41 41
        E 0 90 4a 31
        E 5 90 39 30
        E 0 90 45 26
        E 97 90 45 00
        E 5 90 34 2e
        E 0 90 39 00
        E 0 90 39 33
        E 0 90 40 36
        E 0 90 41 00
        E 67 90 28 00
        E 30 90 34 00
        E 0 90 40 00
        E 21 90 41 52
        E 0 90 4a 00
        E 0 90 4a 39
        E 41 90 28 2a
        E 41 90 4a 00
        E 0 90 4a 3c
        E 20 90 40 4e
        E 0 90 41 00
        E 36 90 39 00
        E 30 90 28 00
        E 36 90 4a 00
        E 5 90 39 31
        E 0 90 4c 40
        E 10 90 40 00
        E 0 90 41 2f
        E 6 90 2d 00
        E 0 90 2d 5b
        E 51 90 4c 00
        E 10 90 39 00
        E 5 90 41 00
        E 21 90 40 41
        E 5 90 34 3a
        E 107 90 40 00
        E 0 90 41 4c
        E 6 90 2d 00
        E 0 90 2d 4f
        E 5 90 39 47
        E 0 90 45 25
        E 66 90 45 00
        E 41 90 2d 00
        E 0 90 2d 4a
        E 0 90 40 2f
        E 0 90 41 00
        E 97 90 34 00
        E 15 90 51 3d
        E 5 90 39 00
        E 0 90 39 35
        E 0 90 45 40
        E 41 90 40 00
        E 0 90 40 35
        E 16 90 51 00
        E 46 90 40 00
        E 0 90 40 4e
        E 25 90 51 30
        E 56 90 4c 33
        E 16 90 51 00
        E 20 90 2d 00
        E 0 90 2d 47
        E 0 90 39 00
        E 0 90 39 36
        E 0 90 58 44
        E 5 90 40 00
        E 0 90 41 39
        E 31 90 45 00
        E 20 90 4c 00
        E 36 90 28 2a
        E 5 90 40 4e
        E 0 90 41 00
        E 5 90 34 3f
        E 0 90 58 00
        E 62 90 28 00
        E 51 90 40 00
        E 0 90 41 4e
        E 0 90 4c 21
        E 5 90 39 00
        E 0 90 39 30
        E 10 90 45 31
        E 46 90 4c 00
        E 46 90 34 00
        E 0 90 34 37
        E 0 90 40 48
        E 0 90 41 00
        E 26 90 45 00
        E 10 90 28 26
        E 77 90 39 00
        E 0 90 39 3d
        E 0 90 4c 2f
        E 5 90 40 00
        E 0 90 41 53
        E 36 90 28 00
        E 35 90 34 00
        E 26 90 2d 00
        E 0 90 2d 48
        E 0 90 40 3f
        E 0 90 41 00
        E 102 90 39 00
        E 0 90 39 30
        E 5 90 4c 00
        E 0 90 4c 4d
        E 0 90 58 41
        E 21 90 2d 00
        E 0 90 2d 3c
        E 0 90 40 00
        E 0 90 41 44
        E 71 90 39 00
        E 16 90 40 48
        E 0 90 41 00
        E 5 90 34 37
        E 0 90 58 00
        E 10 90 4c 00
        E 61 90 34 00
        E 26 90 4d 41
        E 5 90 40 00
        E 0 90 41 43
        E 10 90 39 44
        E 5 90 45 2a
        E 10 90 2d 00
        E 0 90 2d 49
        E 92 90 40 3e
        E 0 90 41 00
        E 36 90 45 00
        E 46 90 4d 00
        E 15 90 40 00
        E 16 90 4f 47
        E 10 90 39 00
        E 0 90 39 36
        E 0 90 40 29
        E 0 90 4c 30
        E 82 90 4c 00
        E 16 90 40 00
        E 0 90 40 36
        E 86 90 39 00
        E 5 90 39 2d
        E 11 90 2d 00
        E 0 90 2d 57
        E 0 90 4a 2d
        E 10 90 40 00
        E 0 90 40 26
        E 0 90 4c 3a
        E 5 90 58 45
        E 61 90 4c 00
        E 5 90 39 00
        E 16 90 2d 00
        E 0 90 2d 4f
        E 0 90 40 00
        E 0 90 40 38
        E 0 90 4a 00
        E 15 90 34 33
        E 36 90 4f 00
        E 56 90 34 00
        E 10 90 4a 32
        E 10 90 2d 00
        E 0 90 2d 4d
        E 0 90 40 00
        E 0 90 40 36
        E 6 90 45 2e
        E 25 90 58 00
        E 67 90 2d 00
        E 0 90 2d 3d
        E 0 90 34 2a
        E 0 90 40 00
        E 0 90 40 4c
        E 10 90 28 2e
        E 71 90 28 00
        E 5 90 34 00
        E 26 90 4a 00
        E 0 90 4a 3a
        E 10 90 40 00
        E 0 90 41 4b
        E 15 90 45 00
        E 16 90 39 2d
        E 61 90 28 34
        E 5 90 40 52
        E 0 90 41 00
        E 36 90 39 00
        E 36 90 28 00
        E 41 90 47 44
        E 5 90 2d 00
        E 0 90 2d 53
        E 0 90 40 00
        E 0 90 41 40
        E 25 90 4a 00
        E 62 90 28 26
        E 5 90 34 48
        E 0 90 40 3e
        E 0 90 41 00
        E 5 90 47 00
        E 77 90 28 00
        E 5 90 40 00
        E 26 90 41 56
        E 0 90 4d 30
        E 5 90 34 00
        E 0 90 34 35
        E 0 90 47 35
        E 5 90 2d 00
        E 0 90 2d 4f
        E 0 90 39 2d
        E 71 90 4d 00
        E 46 90 40 30
        E 0 90 41 00
        E 16 90 47 00
        E 51 90 40 00
        E 20 90 4f 49
        E 10 90 41 4c
        E 0 90 47 35
        E 113 90 40 30
        E 0 90 41 00
        E 56 90 39 00
        E 10 90 47 00
        E 15 90 34 00
        E 0 90 40 00
        E 26 90 2d 00
        E 0 90 2d 56
        E 0 90 41 36
        E 5 90 51 30
        E 0 90 5d 35
        E 56 90 4f 00
        E 41 90 34 38
        E 5 90 40 34
        E 0 90 41 00
        E 36 90 5d 00
        E 51 90 40 00
        E 26 90 2d 00
        E 0 90 2d 52
        E 0 90 39 31
        E 0 90 41 37
        E 0 90 48 3a
        E 0 90 51 00
        E 108 90 34 00
        E 0 90 34 33
        E 0 90 41 00
        E 5 90 40 37
        E 112 90 40 00
        E 0 90 41 4b
        E 5 90 48 00
        E 0 90 48 35
        E 72 90 34 00
        E 30 90 34 2c
        E 0 90 40 43
        E 0 90 41 00
        E 26 90 39 00
        E 20 90 48 00
        E 21 90 34 00
        E 10 90 51 30
        E 20 90 40 00
        E 11 90 5d 36
        E 5 90 31 26
        E 5 90 41 4e
        E 5 90 2d 00
        E 0 90 2d 4e
        E 20 90 51 00
        E 41 90 31 00
        E 31 90 34 2f
        E 5 90 2d 00
        E 0 90 2d 45
        E 5 90 40 33
        E 0 90 41 00
        E 5 90 5d 00
        E 51 90 34 00
        E 36 90 40 00
        E 0 90 48 32
        E 0 90 4f 49
        E 5 90 5b 26
        E 5 90 41 3b
        E 10 90 39 33
        E 72 90 5b 00
        E 31 90 2d 00
        E 0 90 2d 46
        E 5 90 40 36
        E 0 90 41 00
        E 81 90 39 00
        E 6 90 4f 00
        E 10 90 40 00
        E 0 90 4d 30
        E 25 90 41 51
        E 0 90 48 00
        E 0 90 48 42
        E 93 90 4d 00
        E 10 90 40 3e
        E 0 90 41 00
        E 102 90 2d 00
        E 0 90 4c 3d
        E 5 90 58 44
        E 5 90 39 28
        E 6 90 40 00
        E 0 90 41 34
        E 5 90 47 34
        E 0 90 48 00
        E 10 90 2d 49
        E 76 90 39 00
        E 0 90 47 00
        E 11 90 41 00
        E 5 90 34 34
        E 0 90 4c 00
        E 5 90 40 39
        E 31 90 28 2c
        E 86 90 2d 00
        E 0 90 2d 47
        E 0 90 40 00
        E 0 90 41 49
        E 0 90 45 2c
        E 6 90 39 39
        E 35 90 58 00
        E 16 90 28 00
        E 46 90 45 00
        E 5 90 34 00
        E 0 90 34 2f
        E 5 90 40 3d
        E 0 90 41 00
        E 71 90 39 00
        E 36 90 39 26
        E 0 90 47 32
        E 5 90 40 00
        E 0 90 40 38
        E 56 90 39 00
        E 11 90 34 00
        E 40 90 40 00
        E 0 90 40 41
        E 118 90 2d 00
        E 0 90 2d 4d
        E 0 90 40 00
        E 0 90 41 4e
        E 0 90 47 00
        E 0 90 47 3b
        E 77 90 47 00
        E 21 90 34 48
        E 5 90 39 2a
        E 0 90 40 40
        E 0 90 41 00
        E 112 90 40 00
        E 0 90 41 55
        E 5 90 2d 00
        E 0 90 2d 49
        E 0 90 39 00
        E 0 90 39 40
        E 97 90 34 00
        E 0 90 34 3c
        E 5 90 40 3f
        E 0 90 41 00
        E 118 90 34 00
        E 0 90 34 34
        E 0 90 40 00
        E 0 90 41 53
        E 5 90 47 36
        E 61 90 47 00
        E 36 90 28 2d
        E 5 90 39 00
        E 0 90 39 2c
        E 0 90 40 4d
        E 0 90 41 00
        E 5 90 2d 00
        E 0 90 2d 45
        E 0 90 34 00
        E 0 90 34 3e
        E 72 90 39 00
        E 5 90 28 00
        E 25 90 34 00
        E 6 90 2d 00
        E 0 90 2d 48
        E 0 90 3c 49
        E 0 90 40 00
        E 0 90 41 45
        E 112 90 28 31
        E 10 90 34 2d
        E 0 90 3b 3d
        E 0 90 3c 00
        E 102 90 3b 00
        E 5 90 28 00
        E 0 90 28 33
        E 5 90 39 26
        E 0 90 3c 53
        E 0 90 41 00
        E 0 90 41 37
        E 0 90 45 3b
        E 0 90 58 48
        E 73 90 34 00
        E 20 90 3b 3d
        E 0 90 3c 00
        E 77 90 45 00
        E 15 90 58 00
        E 5 90 39 00
        E 5 90 3b 00
        E 16 90 3c 41
        E 0 90 41 00
        E 0 90 41 4b
        E 0 90 56 3b
        E 51 90 45 31
        E 46 90 28 00
        E 0 90 28 37
        E 5 90 3b 47
        E 0 90 3c 00
        E 87 90 45 00
        E 5 90 28 00
        E 10 90 56 00
        E 15 90 41 00
        E 0 90 41 36
        E 5 90 3b 00
        E 0 90 3c 45
        E 5 90 2d 00
        E 0 90 2d 43
        E 0 90 51 42
        E 97 90 28 33
        E 0 90 34 2f
        E 11 90 3b 42
        E 0 90 3c 00
        E 5 90 51 00
        E 0 90 51 33
        E 66 90 51 00
        E 31 90 3b 00
        E 5 90 41 00
        E 0 90 41 47
        E 5 90 2d 00
        E 0 90 2d 3e
        E 0 90 3c 3d
        E 5 90 39 36
        E 0 90 45 2f
        E 97 90 28 00
        E 0 90 28 36
        E 5 90 3b 3b
        E 0 90 3c 00
        E 102 90 3b 00
        E 11 90 3c 48
        E 0 90 41 00
        E 0 90 41 42
        E 56 90 45 00
        E 16 90 28 00
        E 0 90 39 00
        E 5 90 34 00
        E 25 90 3c 00
        E 6 90 3b 53
        E 20 90 28 2a
        E 56 90 2d 00
        E 0 90 2d 40
        E 36 90 3b 00
        E 0 90 3c 2b
        E 0 90 43 30
        E 5 90 3e 35
        E 10 90 41 00
        E 21 90 2d 00
        E 0 90 2d 47
        E 10 90 28 00
        E 20 90 43 00
        E 36 90 34 3c
        E 5 90 3c 00
        E 0 90 3c 43
        E 97 90 34 00
        E 21 90 3c 00
        E 0 90 3c 46
        E 0 90 43 37
        E 10 90 3e 00
        E 0 90 3e 3f
        E 5 90 39 37
        E 0 90 58 44
        E 15 90 21 33
        E 5 90 34 31
        E 77 90 3c 00
        E 0 90 3c 46
        E 5 90 21 00
        E 36 90 43 00
        E 20 90 58 00
        E 5 90 34 00
        E 46 90 43 3b
        E 6 90 56 39
        E 5 90 3e 00
        E 0 90 3e 4a
        E 51 90 39 00
        E 25 90 56 00
        E 21 90 3c 00
        E 0 90 3c 4b
        E 112 90 3c 00
        E 0 90 3c 41
        E 1 90 2d 00
        E 0 90 2d 4f
        E 10 90 3e 00
        E 0 90 3e 3d
        E 0 90 5b 3f
        E 5 90 43 00
        E 0 90 43 41
        E 92 90 34 3b
        E 0 90 5b 00
        E 5 90 3c 00
        E 0 90 3c 41
        E 5 90 43 00
        E 0 90 48 2e
        E 113 90 43 42
        E 5 90 2d 00
        E 0 90 2d 43
        E 0 90 39 36
        E 0 90 3e 00
        E 0 90 3e 4e
        E 97 90 3c 00
        E 0 90 3c 3f
        E 56 90 48 00
        E 46 90 34 00
        E 10 90 43 00
        E 0 90 43 44
        E 10 90 3e 00
        E 0 90 3e 50
        E 5 90 59 34
        E 72 90 59 00
        E 26 90 3c 00
        E 0 90 3c 4d
        E 0 90 43 00
        E 0 90 43 39
        E 0 90 48 2a
        E 10 90 3e 00
        E 0 90 3e 3b
        E 56 90 48 00
        E 5 90 39 00
        E 20 90 43 00
        E 16 90 41 37
        E 15 90 2d 00
        E 0 90 2d 30
        E 5 90 3c 00
        E 0 90 3c 42
        E 0 90 58 3f
        E 26 90 3e 00
        E 56 90 28 33
        E 5 90 34 28
        E 10 90 3b 35
        E 0 90 3c 00
        E 62 90 34 00
        E 25 90 3b 00
        E 16 90 41 00
        E 0 90 41 3d
        E 5 90 3c 3c
        E 5 90 39 2e
        E 0 90 45 34
        E 31 90 3e 29
        E 41 90 2d 00
        E 5 90 58 00
        E 15 90 3e 00
        E 21 90 3b 37
        E 0 90 3c 00
        E 112 90 3b 00
        E 0 90 3c 4d
        E 0 90 41 00
        E 0 90 41 3f
        E 10 90 2d 2f
        E 67 90 39 00
        E 25 90 3b 42
        E 0 90 3c 00
        E 46 90 2d 00
        E 10 90 45 00
        E 51 90 41 00
        E 0 90 41 44
        E 11 90 2d 41
        E 0 90 3b 00
        E 0 90 3c 3b
        E 35 90 28 00
        E 62 90 34 30
        E 5 90 28 3c
        E 0 90 3c 00
        E 5 90 3b 3e
        E 87 90 34 00
        E 15 90 28 00
        E 0 90 41 00
        E 0 90 41 42
        E 5 90 2d 00
        E 0 90 2d 3a
        E 5 90 39 3a
        E 0 90 3b 00
        E 0 90 3c 2f
        E 92 90 3c 00
        E 16 90 28 38
        E 5 90 3b 3b
        E 87 90 3b 00
        E 15 90 3c 46
        E 6 90 41 00
        E 0 90 41 48
        E 35 90 39 00
        E 72 90 28 00
        E 0 90 28 35
        E 0 90 3b 43
        E 0 90 3c 00
        E 107 90 3e 34
        E 0 90 43 2a
        E 5 90 2d 00
        E 0 90 2d 4c
        E 0 90 41 00
        E 5 90 58 45
        E 46 90 3b 00
        E 5 90 28 00
        E 46 90 34 29
        E 5 90 3c 45
        E 16 90 43 00
        E 30 90 58 00
        E 36 90 34 00
        E 36 90 2d 00
        E 0 90 2d 47
        E 0 90 43 33
        E 5 90 39 36
        E 0 90 3e 00
        E 0 90 3e 40
        E 41 90 34 27
        E 66 90 3c 00
        E 0 90 3c 4a
        E 57 90 34 00
        E 56 90 43 00
        E 0 90 43 3e
        E 5 90 3e 00
        E 0 90 3e 3e
        E 61 90 39 00
        E 41 90 48 33
        E 5 90 3c 00
        E 0 90 3c 40
        E 103 90 48 00
        E 5 90 2d 00
        E 0 90 2d 50
        E 5 90 43 00
        E 0 90 43 38
        E 5 90 3e 00
        E 0 90 3e 3f
        E 21 90 30 2f
        E 66 90 30 00
        E 5 90 34 37
        E 10 90 3c 00
        E 0 90 3c 40
        E 5 90 3e 00
        E 0 90 48 2e
        E 103 90 48 00
        E 5 90 43 00
        E 0 90 43 3b
        E 5 90 2d 00
        E 0 90 2d 49
        E 0 90 39 32
        E 0 90 3e 43
        E 87 90 21 2a
        E 20 90 3c 00
        E 0 90 3c 44
        E 0 90 48 28
        E 87 90 34 00
        E 26 90 3c 00
        E 0 90 3c 46
        E 0 90 43 00
        E 0 90 43 3a
        E 0 90 48 00
        E 0 90 48 28
        E 5 90 3e 00
        E 0 90 3e 4c
        E 15 90 28 2a
        E 82 90 21 00
        E 10 90 3c 00
        E 0 90 3c 3a
        E 0 90 3e 00
        E 0 90 3e 45
        E 0 90 48 00
        E 0 90 48 35
        E 20 90 28 00
        E 87 90 39 00
        E 0 90 48 00
        E 5 90 34 39
        E 0 90 47 40
        E 5 90 2d 00
        E 0 90 2d 33
        E 0 90 40 30
        E 5 90 28 50
        E 41 90 3e 00
        E 16 90 34 00
        E 15 90 3c 00
        E 10 90 2d 00
        E 21 90 37 43
        E 5 90 28 00
        E 0 90 28 52
        E 15 90 43 00
        E 15 90 34 31
        E 57 90 40 00
        E 10 90 3b 46
        E 0 90 47 00
        E 0 90 47 2b
        E 11 90 28 00
        E 0 90 28 53
        E 92 90 37 00
        E 0 90 37 3b
        E 0 90 3b 00
        E 0 90 3c 5a
        E 0 90 47 00
        E 0 90 48 2c
        E 5 90 28 00
        E 0 90 28 4c
        E 66 90 34 00
        E 26 90 48 00
        E 5 90 28 00
        E 0 90 28 4e
        E 0 90 3b 4f
        E 0 90 3c 00
        E 20 90 30 2a
        E 82 90 30 00
        E 5 90 30 2b
        E 5 90 28 00
        E 0 90 28 4a
        E 0 90 37 00
        E 0 90 37 4a
        E 0 90 3b 00
        E 0 90 3b 45
        E 36 90 47 3d
        E 20 90 30 00
        E 36 90 3b 00
        E 0 90 3b 2b
        E 5 90 28 00
        E 0 90 28 42
        E 10 90 30 2d
        E 16 90 47 00
        E 0 90 53 36
        E 5 90 34 3b
        E 0 90 37 00
        E 0 90 37 43
        E 0 90 40 32
        E 0 90 47 46
        E 66 90 53 00
        E 21 90 30 00
        E 5 90 28 00
        E 0 90 28 4b
        E 0 90 37 00
        E 0 90 37 4a
        E 87 90 47 00
        E 15 90 3b 00
        E 0 90 3b 51
        E 5 90 28 00
        E 0 90 28 51
        E 97 90 28 00
        E 0 90 28 46
        E 5 90 37 00
        E 0 90 37 49
        E 0 90 3b 00
        E 0 90 3b 45
        E 0 90 48 2e
        E 5 90 30 2c
        E 26 90 40 00
        E 52 90 34 00
        E 10 90 48 00
        E 10 90 3b 00
        E 0 90 3b 49
        E 5 90 28 00
        E 0 90 28 3e
        E 0 90 47 29
        E 102 90 37 00
        E 0 90 37 3c
        E 31 90 47 00
        E 46 90 30 00
        E 36 90 28 00
        E 0 90 28 31
        E 0 90 3b 00
        E 0 90 3c 3c
        E 0 90 48 4d
        E 0 90 54 23
        E 5 90 30 27
        E 0 90 34 3a
        E 0 90 40 2d
        E 87 90 54 00
        E 5 90 28 00
        E 20 90 37 00
        E 0 90 37 43
        E 0 90 40 00
        E 46 90 30 00
        E 56 90 3b 5a
        E 0 90 3c 00
        E 5 90 48 00
        E 11 90 28 3a
        E 86 90 48 37
        E 6 90 37 00
        E 0 90 37 3c
        E 5 90 3b 00
        E 0 90 3b 42
        E 107 90 3b 00
        E 0 90 3b 56
        E 46 90 48 00
        E 10 90 34 00
        E 51 90 3b 00
        E 0 90 3b 39
        E 5 90 37 00
        E 0 90 37 4a
        E 98 90 34 31
        E 0 90 4a 32
        E 5 90 37 00
        E 0 90 37 48
        E 107 90 37 00
        E 0 90 37 45
        E 108 90 3b 00
        E 0 90 3b 4c
        E 86 90 28 00
        E 31 90 3b 00
        E 0 90 3b 3b
        E 67 90 4a 00
        E 35 90 3b 00
        E 0 90 3b 40
        E 16 90 28 34
        E 61 90 34 00
        E 41 90 37 00
        E 0 90 37 41
        E 71 90 28 00
        E 5 90 26 2e
        E 16 90 37 00
        E 10 90 41 3c
        E 0 90 47 36
        E 5 90 32 37
        E 56 90 3b 00
        E 67 90 35 35
        E 10 90 41 00
        E 0 90 47 00
        E 77 90 39 41
        E 107 90 3b 37
        E 123 90 39 00
        E 0 90 39 3a
        E 102 90 35 00
        E 5 90 35 3b
        E 51 90 26 00
        E 41 90 3b 00
        E 0 90 3b 33
        E 5 90 47 3b
        E 21 90 26 30
        E 15 90 32 00
        E 0 90 32 48
        E 41 90 47 00
        E 143 90 3b 00
        E 20 90 39 00
        E 0 90 39 44
        E 92 90 26 00
        E 16 90 3b 3f
        E 5 90 32 00
        E 0 90 32 3b
        E 97 90 39 00
        E 0 90 39 4c
        E 174 90 3b 00
        E 10 90 3e 2b
        E 26 90 39 00
        E 0 90 41 37
        E 5 90 26 2f
        E 0 90 32 00
        E 0 90 32 44
        E 0 90 35 00
        E 0 90 35 40
        E 0 90 48 33
        E 56 90 3e 00
        E 92 90 48 00
        E 56 90 41 00
        E 5 90 39 3f
        E 108 90 3b 3d
        E 10 90 26 00
        E 76 90 41 29
        E 16 90 39 00
        E 0 90 39 41
        E 71 90 41 00
        E 123 90 3b 00
        E 6 90 35 00
        E 15 90 32 00
        E 0 90 32 51
        E 0 90 41 3a
        E 0 90 45 30
        E 0 90 56 23
        E 5 90 4a 3c
        E 41 90 39 00
        E 20 90 56 00
        E 41 90 35 43
        E 5 90 45 00
        E 0 90 4a 00
        E 5 90 26 2d
        E 0 90 41 00
        E 92 90 39 51
        E 97 90 26 00
        E 21 90 41 3f
        E 5 90 32 00
        E 0 90 32 3a
        E 0 90 35 00
        E 0 90 35 38
        E 0 90 39 00
        E 0 90 39 3d
        E 0 90 3b 39
        E 0 90 45 41
        E 235 90 41 00
        E 25 90 32 00
        E 16 90 3b 00
        E 5 90 45 00
        E 5 90 40 38
        E 0 90 47 1b
        E 5 90 39 00
        E 10 90 35 00
        E 26 90 43 46
        E 20 90 28 47
        E 0 90 47 00
        E 0 90 47 42
        E 108 90 37 39
        E 25 90 47 00
        E 15 90 43 00
        E 47 90 34 33
        E 10 90 3b 41
        E 108 90 3b 00
        E 0 90 3c 59
        E 0 90 48 32
        E 102 90 3b 48
        E 0 90 3c 00
        E 76 90 34 00
        E 0 90 40 00
        E 0 90 43 2f
        E 5 90 48 00
        E 26 90 37 00
        E 0 90 37 43
        E 31 90 43 00
        E 56 90 3b 00
        E 0 90 3c 2b
        E 41 90 34 48
        E 0 90 40 3d
        E 0 90 47 42
        E 20 90 28 00
        E 0 90 28 49
        E 67 90 47 00
        E 5 90 37 00
        E 0 90 37 42
        E 0 90 3c 00
        E 5 90 3c 3e
        E 0 90 40 00
        E 0 90 40 37
        E 97 90 28 00
        E 0 90 28 41
        E 0 90 34 00
        E 0 90 34 3c
        E 0 90 3b 58
        E 0 90 3c 00
        E 107 90 3b 00
        E 0 90 3c 5a
        E 0 90 40 00
        E 0 90 48 2d
        E 103 90 3b 4b
        E 0 90 3c 00
        E 61 90 48 00
        E 10 90 34 00
        E 36 90 37 00
        E 0 90 37 46
        E 0 90 3b 00
        E 0 90 3b 37
        E 77 90 3b 00
        E 20 90 34 33
        E 0 90 37 00
        E 0 90 37 2f
        E 0 90 3c 44
        E 0 90 40 3f
        E 0 90 43 3c
        E 5 90 28 00
        E 0 90 28 41
        E 0 90 48 4c
        E 108 90 37 00
        E 0 90 37 3c
        E 10 90 48 00
        E 0 90 48 3c
        E 41 90 43 00
        E 51 90 28 00
        E 0 90 28 49
        E 0 90 3b 4f
        E 0 90 3c 00
        E 107 90 40 00
        E 0 90 48 00
        E 0 90 48 34
        E 25 90 3b 00
        E 0 90 3c 5b
        E 82 90 3b 4e
        E 0 90 3c 00
        E 5 90 28 00
        E 0 90 28 3b
        E 72 90 34 00
        E 41 90 37 00
        E 0 90 37 46
        E 5 90 3b 00
        E 0 90 3c 42
        E 71 90 48 00
        E 26 90 28 00
        E 0 90 28 46
        E 0 90 40 3e
        E 5 90 37 00
        E 0 90 37 48
        E 0 90 43 3a
        E 0 90 4a 3c
        E 0 90 4f 27
        E 5 90 34 2f
        E 0 90 3c 00
        E 0 90 3c 35
        E 0 90 56 2a
        E 62 90 56 00
        E 26 90 3c 00
        E 5 90 4f 00
        E 10 90 37 00
        E 0 90 37 49
        E 0 90 4a 00
        E 30 90 43 00
        E 77 90 28 00
        E 0 90 28 43
        E 0 90 2f 23
        E 0 90 34 00
        E 0 90 34 3a
        E 0 90 3b 51
        E 61 90 2f 00
        E 41 90 48 2e
        E 5 90 37 00
        E 0 90 37 3a
        E 5 90 3b 00
        E 0 90 3b 39
        E 103 90 34 00
        E 0 90 34 3c
        E 0 90 3b 00
        E 0 90 3b 57
        E 81 90 40 00
        E 6 90 34 00
        E 15 90 37 00
        E 0 90 37 43
        E 5 90 3b 00
        E 0 90 3c 3e
        E 31 90 48 00
        E 20 90 28 00
        E 26 90 37 00
        E 15 90 3c 00
        E 0 90 41 44
        E 10 90 3b 3a
        E 5 90 47 34
        E 16 90 32 3d
        E 46 90 3b 00
        E 45 90 35 38
        E 16 90 41 00
        E 25 90 47 00
        E 67 90 39 3d
        E 97 90 3e 2c
        E 6 90 3b 38
        E 107 90 39 00
        E 0 90 39 38
        E 51 90 3e 00
        E 31 90 32 00
        E 30 90 35 00
        E 5 90 35 3d
        E 77 90 47 3a
        E 20 90 2d 2d
        E 11 90 32 51
        E 56 90 2d 00
        E 97 90 47 00
        E 46 90 3b 00
        E 20 90 32 00
        E 0 90 32 42
        E 0 90 39 00
        E 0 90 39 47
        E 102 90 3b 3f
        E 108 90 32 00
        E 0 90 32 38
        E 0 90 39 00
        E 0 90 39 48
        E 82 90 32 00
        E 25 90 35 00
        E 0 90 35 3e
        E 92 90 35 00
        E 0 90 35 37
        E 0 90 41 3a
        E 6 90 26 2f
        E 0 90 32 4a
        E 0 90 48 34
        E 5 90 39 00
        E 20 90 3b 00
        E 107 90 35 00
        E 0 90 35 3f
        E 5 90 48 00
        E 26 90 41 00
        E 56 90 32 00
        E 0 90 32 46
        E 0 90 39 3c
        E 16 90 3e 2a
        E 61 90 26 00
        E 25 90 3b 41
        E 11 90 32 00
        E 0 90 32 43
        E 107 90 39 00
        E 0 90 39 42
        E 71 90 3e 00
        E 31 90 32 00
        E 0 90 32 38
        E 5 90 35 00
        E 0 90 35 43
        E 72 90 3b 00
        E 10 90 35 00
        E 10 90 39 00
        E 10 90 41 3e
        E 5 90 32 00
        E 0 90 32 4a
        E 0 90 45 39
        E 0 90 4a 38
        E 41 90 26 2a
        E 37 90 45 00
        E 20 90 35 36
        E 10 90 4a 00
        E 92 90 35 00
        E 5 90 35 2d
        E 5 90 32 00
        E 0 90 32 3a
        E 0 90 39 44
        E 0 90 41 00
        E 0 90 41 3c
        E 6 90 45 35
        E 91 90 3b 3c
        E 36 90 26 00
        E 31 90 35 00
        E 41 90 41 00
        E 0 90 41 3d
        E 0 90 56 2d
        E 5 90 32 00
        E 0 90 32 2f
        E 0 90 3b 00
        E 0 90 45 00
        E 0 90 45 36
        E 0 90 4a 47
        E 5 90 39 00
        E 0 90 39 4a
        E 61 90 32 00
        E 0 90 56 00
        E 31 90 4a 00
        E 5 90 41 00
        E 0 90 41 3f
        E 5 90 35 42
        E 0 90 39 00
        E 0 90 39 3f
        E 0 90 45 00
        E 0 90 45 40
        E 102 90 39 00
        E 16 90 34 3a
        E 0 90 35 00
        E 0 90 45 00
        E 0 90 45 41
        E 0 90 47 2d
        E 5 90 2d 40
        E 20 90 41 00
        E 46 90 47 00
        E 51 90 39 2a
        E 102 90 39 00
        E 6 90 34 00
        E 0 90 34 3c
        E 0 90 39 35
        E 0 90 45 00
        E 0 90 45 50
        E 0 90 47 32
        E 107 90 47 00
        E 62 90 39 00
        E 41 90 34 00
        E 0 90 34 3a
        E 0 90 39 2d
        E 0 90 45 00
        E 0 90 45 57
        E 0 90 47 36
        E 214 90 45 00
        E 0 90 45 5a
        E 5 90 47 00
        E 0 90 47 3c
        E 36 90 39 00
        E 169 90 34 00
        E 5 90 45 00
        E 0 90 45 5e
        E 5 90 34 33
        E 0 90 47 00
        E 0 90 47 49
        E 219 90 45 00
        E 0 90 45 59
        E 6 90 47 00
        E 0 90 47 43
        E 10 90 39 2b
        E 159 90 39 00
        E 5 90 34 00
        E 25 90 47 00
        E 16 90 3b 4b
        E 0 90 45 00
        E 0 90 45 55
        E 46 90 28 30
        E 102 90 28 00
        E 51 90 47 2c
        E 5 90 3b 00
        E 0 90 3b 50
        E 0 90 45 00
        E 0 90 45 50
        E 56 90 47 00
        E 159 90 3b 00
        E 0 90 3b 55
        E 0 90 45 00
        E 0 90 45 55
        E 30 90 28 2e
        E 77 90 28 00
        E 76 90 2d 00
        E 26 90 45 00
        E 0 90 45 56
        E 5 90 3b 00
        E 0 90 3b 5a
        E 31 90 2d 33
        E 174 90 45 00
        E 0 90 45 55
        E 5 90 3b 00
        E 0 90 3b 52
        E 0 90 47 2c
        E 87 90 47 00
        E 133 90 3b 00
        E 0 90 3b 51
        E 0 90 45 00
        E 0 90 45 55
        E 179 90 2d 00
        E 35 90 47 30
        E 5 90 3b 00
        E 0 90 3c 43
        E 0 90 45 00
        E 0 90 45 51
        E 41 90 2d 2c
        E 31 90 47 00
        E 92 90 2d 00
        E 41 90 47 33
        E 5 90 3c 00
        E 0 90 3c 4a
        E 0 90 45 00
        E 0 90 45 54
        E 92 90 47 00
        E 118 90 3c 00
        E 0 90 3c 39
        E 0 90 45 00
        E 0 90 45 52
        E 214 90 3c 00
        E 0 90 3c 47
        E 0 90 45 00
        E 0 90 45 55
        E 210 90 3c 00
        E 0 90 3c 4a
        E 0 90 45 00
        E 0 90 45 52
        E 0 90 48 2e
        E 92 90 48 00
        E 112 90 3c 00
        E 0 90 3c 46
        E 0 90 45 00
        E 0 90 45 55
        E 0 90 48 2a
        E 97 90 48 00
        E 113 90 3c 00
        E 0 90 3c 49
        E 0 90 45 00
        E 0 90 45 54
        E 210 90 47 32
        E 5 90 3c 00
        E 0 90 3c 41
        E 0 90 45 00
        E 0 90 45 4f
        E 81 90 47 00
        E 128 90 3c 00
        E 0 90 3c 4d
        E 0 90 45 00
        E 0 90 45 57
        E 0 90 48 2a
        E 97 90 48 00
        E 118 90 3c 00
        E 0 90 3c 43
        E 0 90 45 00
        E 0 90 45 4e
        E 210 90 45 00
        E 0 90 45 54
        E 5 90 3b 49
        E 0 90 3c 00
        E 220 90 3b 00
        E 0 90 3c 46
        E 0 90 45 00
        E 0 90 45 4c
        E 189 90 3c 00
        E 5 90 4c 1f
        E 5 90 2d 47
        E 0 90 40 3b
        E 5 90 3e 3f
        E 5 90 47 39
        E 10 90 45 00
        E 5 90 58 3b
        E 41 90 4c 00
        E 41 90 34 34
        E 5 90 47 00
        E 15 90 58 00
        E 87 90 39 3e
        E 0 90 40 00
        E 82 90 45 2e
        E 15 90 28 36
        E 5 90 3b 41
        E 46 90 45 00
        E 67 90 3b 00
        E 0 90 3c 38
        E 46 90 34 00
        E 41 90 3e 00
        E 26 90 28 00
        E 76 90 4c 38
        E 11 90 39 00
        E 15 90 28 34
        E 0 90 34 26
        E 5 90 3e 3f
        E 0 90 40 53
        E 0 90 45 2d
        E 0 90 47 37
        E 46 90 4c 00
        E 61 90 47 00
        E 31 90 34 00
        E 5 90 28 00
        E 56 90 3e 00
        E 0 90 3e 2c
        E 0 90 40 00
        E 0 90 40 41
        E 0 90 47 2d
        E 0 90 4d 3d
        E 67 90 47 00
        E 20 90 45 00
        E 31 90 3c 00
        E 92 90 3c 3c
        E 5 90 2d 00
        E 0 90 2d 49
        E 0 90 40 00
        E 0 90 40 35
        E 0 90 4f 45
        E 97 90 4d 00
        E 10 90 3e 00
        E 87 90 3c 00
        E 10 90 39 29
        E 0 90 4c 33
        E 5 90 3e 37
        E 0 90 40 00
        E 0 90 40 38
        E 5 90 2d 00
        E 0 90 2d 57
        E 0 90 47 39
        E 6 90 58 36
        E 46 90 4c 00
        E 5 90 39 00
        E 36 90 34 33
        E 31 90 4f 00
        E 15 90 58 00
        E 25 90 47 00
        E 36 90 39 37
        E 5 90 2d 00
        E 0 90 2d 44
        E 21 90 28 23
        E 41 90 40 00
        E 10 90 34 00
        E 25 90 28 00
        E 5 90 28 30
        E 0 90 3b 44
        E 62 90 40 2a
        E 56 90 3b 00
        E 0 90 3c 3d
        E 82 90 40 00
        E 61 90 28 00
        E 20 90 39 00
        E 36 90 34 2b
        E 0 90 47 3e
        E 5 90 3e 00
        E 0 90 3e 3e
        E 0 90 40 49
        E 87 90 34 00
        E 31 90 45 27
        E 56 90 47 00
        E 15 90 3c 00
        E 16 90 2d 00
        E 0 90 2d 36
        E 0 90 45 00
        E 5 90 32 2a
        E 0 90 3e 00
        E 0 90 3e 3d
        E 0 90 40 00
        E 0 90 40 3f
        E 0 90 45 45
        E 205 90 3c 31
        E 0 90 48 4d
        E 5 90 45 00
        E 0 90 45 37
        E 122 90 45 00
        E 31 90 32 00
        E 0 90 3c 00
        E 61 90 34 28
        E 0 90 3e 00
        E 0 90 3e 44
        E 5 90 2d 00
        E 0 90 2d 45
        E 0 90 40 00
        E 0 90 40 32
        E 0 90 47 3a
        E 0 90 48 00
        E 0 90 56 2e
        E 72 90 56 00
        E 15 90 34 00
        E 0 90 34 3a
        E 87 90 40 00
        E 0 90 47 00
        E 41 90 39 35
        E 0 90 40 2b
        E 5 90 58 34
        E 61 90 34 00
        E 21 90 40 00
        E 5 90 28 3b
        E 0 90 3b 37
        E 0 90 58 00
        E 82 90 28 00
        E 35 90 47 4b
        E 6 90 3b 00
        E 0 90 3c 37
        E 10 90 3e 00
        E 10 90 28 36
        E 0 90 34 2a
        E 57 90 34 00
        E 25 90 47 00
        E 21 90 40 33
        E 10 90 28 00
        E 20 90 39 00
        E 51 90 40 00
        E 6 90 28 34
        E 0 90 34 27
        E 0 90 3e 46
        E 0 90 40 3e
        E 0 90 47 37
        E 163 90 28 00
        E 255 90 47 00
        E 6 90 34 00
        E 137 90 3c 00
        E 57 90 2d 00
        E 0 90 2d 4a
        E 5 90 3e 00
        E 0 90 3e 3f
        E 0 90 40 00
        E 0 90 40 39
        E 0 90 47 3b
        E 71 90 40 00
        E 21 90 34 38
        E 46 90 40 28
        E 51 90 39 31
        E 0 90 47 00
        E 21 90 28 33
        E 76 90 40 00
        E 11 90 3b 49
        E 86 90 34 00
        E 6 90 39 00
        E 10 90 3b 00
        E 0 90 3c 3b
        E 0 90 48 2a
        E 148 90 48 00
        E 10 90 28 00
        E 41 90 34 2b
        E 0 90 3e 00
        E 0 90 3e 47
        E 0 90 40 4a
        E 0 90 47 3b
        E 77 90 34 00
        E 25 90 45 2c
        E 67 90 45 00
        E 0 90 47 00
        E 40 90 34 2f
        E 0 90 3e 00
        E 0 90 3e 46
        E 0 90 40 00
        E 0 90 40 53
        E 0 90 45 34
        E 0 90 48 3c
        E 6 90 3c 00
        E 0 90 3c 33
        E 137 90 48 00
        E 6 90 34 00
        E 15 90 3c 00
        E 41 90 3e 00
        E 0 90 3e 3d
        E 0 90 4a 36
        E 5 90 2d 00
        E 0 90 2d 42
        E 6 90 40 00
        E 0 90 40 4e
        E 10 90 45 00
        E 0 90 45 48
        E 41 90 4a 00
        E 51 90 48 2c
        E 81 90 2d 00
        E 21 90 48 00
        E 5 90 2b 4e
        E 0 90 32 34
        E 0 90 3e 00
        E 0 90 3e 38
        E 0 90 40 00
        E 0 90 40 3d
        E 0 90 48 45
        E 20 90 45 00
        E 0 90 45 39
        E 77 90 3e 00
        E 10 90 32 00
        E 0 90 32 4e
        E 0 90 45 00
        E 102 90 2b 00
        E 0 90 2b 3d
        E 92 90 3e 30
        E 6 90 48 00
        E 15 90 39 41
        E 0 90 45 25
        E 61 90 45 00
        E 51 90 3b 4b
        E 31 90 3e 00
        E 159 90 3b 00
        E 15 90 39 00
        E 5 90 32 00
        E 0 90 32 31
        E 0 90 48 40
        E 10 90 40 00
        E 0 90 40 4d
        E 6 90 58 3b
        E 35 90 2b 00
        E 31 90 32 00
        E 46 90 3e 2d
        E 31 90 48 00
        E 10 90 58 00
        E 41 90 4d 38
        E 5 90 40 00
        E 0 90 40 49
        E 0 90 47 32
        E 25 90 3e 00
        E 57 90 2b 2f
        E 61 90 2b 00
        E 0 90 4d 00
        E 46 90 47 00
        E 20 90 32 2b
        E 0 90 45 45
        E 5 90 40 00
        E 0 90 40 48
        E 0 90 4f 37
        E 200 90 32 00
        E 0 90 4f 00
        E 15 90 2b 40
        E 0 90 40 00
        E 0 90 40 49
        E 15 90 47 3b
        E 0 90 4c 3a
        E 5 90 45 00
        E 0 90 58 37
        E 72 90 1f 2e
        E 5 90 4c 00
        E 15 90 58 00
        E 21 90 32 43
        E 0 90 47 00
        E 41 90 1f 00
        E 31 90 37 29
        E 0 90 45 43
        E 5 90 32 00
        E 0 90 32 42
        E 0 90 40 00
        E 0 90 40 3c
        E 36 90 2b 00
        E 56 90 39 3b
        E 5 90 37 00
        E 5 90 2b 33
        E 21 90 45 00
        E 66 90 2b 00
        E 15 90 2b 36
        E 5 90 32 00
        E 0 90 32 34
        E 0 90 3b 3d
        E 0 90 40 00
        E 0 90 40 46
        E 0 90 47 2d
        E 26 90 1f 2c
        E 5 90 28 33
        E 72 90 1f 00
        E 10 90 28 00
        E 71 90 2b 00
        E 10 90 3b 00
        E 0 90 47 00
        E 21 90 32 00
        E 0 90 32 33
        E 0 90 39 00
        E 0 90 39 2d
        E 0 90 3e 32
        E 0 90 48 46
        E 5 90 40 00
        E 0 90 40 46
        E 56 90 2b 37
        E 26 90 39 00
        E 15 90 45 2f
        E 61 90 48 00
        E 26 90 45 00
        E 5 90 32 00
        E 5 90 2b 00
        E 5 90 28 28
        E 0 90 2b 3f
        E 0 90 32 28
        E 0 90 47 40
        E 5 90 3e 00
        E 0 90 40 00
        E 0 90 40 54
        E 0 90 4d 3d
        E 87 90 47 00
        E 0 90 48 3b
        E 16 90 28 00
        E 45 90 32 00
        E 31 90 2b 00
        E 0 90 4d 00
        E 15 90 48 00
        E 16 90 40 00
        E 0 90 40 45
        E 0 90 45 47
        E 0 90 4f 41
        E 5 90 28 29
        E 16 90 32 2e
        E 46 90 28 00
        E 112 90 32 00
        E 10 90 4f 00
        E 5 90 29 4a
        E 6 90 45 00
        E 0 90 45 35
        E 5 90 3e 3d
        E 0 90 40 00
        E 0 90 40 3c
        E 5 90 4a 28
        E 82 90 45 00
        E 15 90 30 3d
        E 0 90 43 29
        E 5 90 29 00
        E 0 90 29 3b
        E 20 90 4a 00
        E 72 90 43 00
        E 97 90 30 00
        E 0 90 30 31
        E 5 90 37 3c
        E 77 90 37 00
        E 35 90 39 55
        E 36 90 40 00
        E 164 90 30 00
        E 30 90 30 25
        E 0 90 39 00
        E 0 90 39 2c
        E 5 90 3e 00
        E 0 90 3e 3f
        E 0 90 40 3f
        E 0 90 4a 35
        E 16 90 2d 2d
        E 67 90 30 00
        E 41 90 3e 00
        E 0 90 3e 3b
        E 46 90 39 00
        E 20 90 29 00
        E 82 90 2d 00
        E 36 90 3e 00
        E 0 90 3e 38
        E 25 90 4a 00
        E 72 90 29 2b
        E 168 90 29 00
        E 72 90 4a 3c
        E 5 90 3e 00
        E 0 90 3e 48
        E 0 90 40 00
        E 0 90 40 43
        E 36 90 29 4c
        E 61 90 30 36
        E 0 90 43 35
        E 51 90 4a 00
        E 82 90 43 00
        E 20 90 29 00
        E 0 90 29 34
        E 5 90 30 00
        E 37 90 30 2f
        E 5 90 37 40
        E 76 90 30 00
        E 21 90 37 00
        E 10 90 2d 22
        E 10 90 39 55
        E 5 90 3e 00
        E 0 90 3e 3a
        E 0 90 40 00
        E 56 90 2d 00
        E 154 90 37 26
        E 0 90 39 00
        E 0 90 39 3a
        E 0 90 3e 00
        E 0 90 3e 40
        E 0 90 40 4c
        E 0 90 4a 39
        E 30 90 2d 2e
        E 41 90 4a 00
        E 16 90 37 00
        E 76 90 2d 00
        E 15 90 29 00
        E 26 90 3e 00
        E 0 90 3e 48
        E 0 90 40 00
        E 0 90 40 50
        E 0 90 45 27
        E 0 90 48 41
        E 36 90 39 00
        E 30 90 32 27
        E 6 90 2d 25
        E 25 90 45 00
        E 61 90 2d 00
        E 11 90 48 00
        E 10 90 32 00
        E 36 90 3e 00
        E 0 90 3e 46
        E 0 90 40 00
        E 0 90 40 4d
        E 0 90 47 41
        E 189 90 47 00
        E 15 90 45 46
        E 6 90 40 00
        E 0 90 40 3c
        E 10 90 28 37
        E 25 90 3e 00
        E 0 90 3e 35
        E 72 90 40 00
        E 102 90 3e 00
        E 0 90 3e 27
        E 0 90 45 00
        E 0 90 45 4f
        E 5 90 40 44
        E 0 90 4c 3b
        E 0 90 58 2c
        E 67 90 3e 00
        E 15 90 58 00
        E 51 90 28 00
        E 66 90 40 00
        E 0 90 40 45
        E 0 90 45 00
        E 0 90 45 4b
        E 0 90 4c 00
        E 5 90 28 3b
        E 0 90 3e 2c
        E 0 90 4a 3d
        E 0 90 56 34
        E 77 90 4a 00
        E 36 90 56 00
        E 76 90 28 00
        E 21 90 40 00
        E 0 90 40 3c
        E 0 90 45 00
        E 0 90 45 51
        E 5 90 28 39
        E 0 90 3e 00
        E 0 90 3e 3c
        E 133 90 40 00
        E 67 90 45 00
        E 0 90 45 52
        E 0 90 4c 34
        E 5 90 34 30
        E 0 90 3e 00
        E 0 90 3e 2f
        E 0 90 40 46
        E 138 90 4c 00
        E 41 90 34 00
        E 30 90 34 30
        E 0 90 3e 00
        E 0 90 3e 3d
        E 0 90 40 00
        E 0 90 40 44
        E 0 90 45 00
        E 0 90 45 47
        E 5 90 28 00
        E 0 90 28 3d
        E 123 90 4c 2c
        E 41 90 34 00
        E 20 90 28 00
        E 21 90 4c 00
        E 5 90 34 31
        E 0 90 40 00
        E 0 90 40 4a
        E 0 90 45 00
        E 0 90 45 52
        E 0 90 4c 33
        E 5 90 3e 00
        E 0 90 3e 33
        E 31 90 28 2c
        E 117 90 28 00
        E 15 90 34 00
        E 36 90 40 00
        E 0 90 40 4a
        E 0 90 45 00
        E 0 90 45 4c
        E 0 90 4c 00
        E 0 90 4c 2f
        E 5 90 34 32
        E 0 90 3e 00
        E 0 90 3e 39
        E 0 90 58 31
        E 11 90 28 31
        E 56 90 58 00
        E 51 90 28 00
        E 15 90 4c 00
        E 52 90 34 00
        E 20 90 34 34
        E 0 90 3e 00
        E 0 90 3e 46
        E 0 90 45 00
        E 0 90 45 49
        E 0 90 56 37
        E 5 90 28 28
        E 0 90 40 00
        E 0 90 40 44
        E 82 90 56 00
        E 77 90 28 00
        E 0 90 34 00
        E 41 90 28 31
        E 5 90 45 00
        E 0 90 45 4c
        E 0 90 4c 2a
        E 5 90 3e 00
        E 0 90 3e 3e
        E 0 90 40 00
        E 0 90 40 40
        E 0 90 4f 3c
        E 87 90 4c 00
        E 76 90 28 00
        E 36 90 40 00
        E 0 90 40 45
        E 0 90 45 00
        E 0 90 45 49
        E 0 90 4c 34
        E 5 90 3e 00
        E 0 90 3e 42
        E 15 90 28 2f
        E 57 90 4c 00
        E 51 90 4f 00
        E 41 90 28 00
        E 40 90 45 00
        E 0 90 45 48
        E 6 90 3e 00
        E 0 90 3e 34
        E 0 90 40 00
        E 0 90 40 4a
        E 0 90 4d 37
        E 30 90 28 2e
        E 46 90 34 2d
        E 51 90 28 00
        E 16 90 34 00
        E 10 90 4d 00
        E 46 90 32 33
        E 5 90 3e 00
        E 0 90 3e 2b
        E 0 90 40 00
        E 0 90 40 33
        E 0 90 45 00
        E 0 90 45 46
        E 0 90 4c 3e
        E 0 90 58 28
        E 11 90 28 55
        E 76 90 58 00
        E 21 90 4c 00
        E 10 90 32 00
        E 87 90 45 00
        E 0 90 45 48
        E 0 90 4c 35
        E 5 90 28 00
        E 0 90 28 49
        E 0 90 3e 00
        E 0 90 3e 32
        E 0 90 40 00
        E 0 90 40 41
        E 102 90 4c 00
        E 61 90 3e 00
        E 41 90 40 00
        E 0 90 40 41
        E 0 90 45 00
        E 0 90 45 4a
        E 0 90 4c 25
        E 5 90 28 00
        E 0 90 28 4b
        E 0 90 3e 34
        E 108 90 4c 00
        E 76 90 3e 00
        E 21 90 34 29
        E 0 90 40 00
        E 0 90 40 3d
        E 0 90 45 00
        E 0 90 45 49
        E 0 90 4c 34
        E 5 90 28 00
        E 0 90 28 40
        E 61 90 4c 00
        E 67 90 40 00
        E 15 90 34 00
        E 46 90 45 00
        E 0 90 45 47
        E 5 90 34 24
        E 0 90 40 3e
        E 5 90 3e 2a
        E 5 90 4d 36
        E 31 90 1c 2b
        E 87 90 34 00
        E 0 90 40 00
        E 5 90 1c 00
        E 41 90 4d 00
        E 21 90 28 00
        E 0 90 28 45
        E 5 90 40 39
        E 0 90 45 00
        E 0 90 45 49
        E 5 90 3e 00
        E 0 90 3e 33
        E 0 90 4c 2c
        E 174 90 3e 00
        E 35 90 32 2f
        E 0 90 34 32
        E 0 90 45 00
        E 0 90 45 42
        E 5 90 28 00
        E 0 90 28 5a
        E 21 90 4c 00
        E 25 90 40 00
        E 82 90 28 00
        E 0 90 28 58
        E 10 90 40 22
        E 5 90 34 00
        E 26 90 32 00
        E 41 90 3e 36
        E 0 90 40 00
        E 0 90 45 00
        E 0 90 45 47
        E 5 90 28 00
        E 0 90 28 53
        E 0 90 34 29
        E 0 90 40 35
        E 61 90 34 00
        E 67 90 40 00
        E 61 90 3e 00
        E 15 90 40 3c
        E 0 90 45 00
        E 0 90 45 4d
        E 5 90 28 00
        E 0 90 28 43
        E 67 90 3e 2f
        E 77 90 4c 28
        E 26 90 3e 00
        E 5 90 28 00
        E 15 90 28 42
        E 10 90 45 00
        E 0 90 45 4e
        E 5 90 34 27
        E 0 90 40 00
        E 0 90 40 43
        E 0 90 47 32
        E 26 90 4c 00
        E 41 90 3e 29
        E 5 90 34 00
        E 10 90 47 00
        E 92 90 3e 00
        E 36 90 40 00
        E 0 90 40 3c
        E 0 90 45 00
        E 0 90 45 4f
        E 5 90 28 00
        E 0 90 28 4e
        E 0 90 32 2f
        E 0 90 3e 2a
        E 0 90 48 48
        E 82 90 32 00
        E 117 90 56 3f
        E 5 90 28 00
        E 0 90 28 4b
        E 0 90 3e 00
        E 0 90 3e 36
        E 0 90 45 00
        E 0 90 45 46
        E 0 90 4c 2d
        E 5 90 40 00
        E 0 90 40 40
        E 41 90 32 29
        E 36 90 4c 00
        E 5 90 48 00
        E 26 90 56 00
        E 51 90 4c 35
        E 10 90 3e 00
        E 25 90 32 00
        E 6 90 26 2d
        E 0 90 32 34
        E 0 90 47 33
        E 5 90 28 00
        E 0 90 28 37
        E 0 90 58 34
        E 5 90 40 00
        E 0 90 40 32
        E 30 90 45 00
        E 5 90 4c 00
        E 21 90 28 00
        E 36 90 2d 42
        E 0 90 40 00
        E 0 90 40 41
        E 21 90 47 00
        E 5 90 32 00
        E 30 90 58 00
        E 36 90 32 36
        E 5 90 40 00
        E 0 90 41 48
        E 0 90 47 3b
        E 92 90 47 00
        E 5 90 40 3d
        E 0 90 41 00
        E 5 90 34 47
        E 77 90 40 00
        E 26 90 34 00
        E 0 90 35 45
        E 0 90 41 33
        E 71 90 41 00
        E 21 90 26 00
        E 5 90 40 4e
        E 97 90 2d 00
        E 0 90 2d 2a
        E 0 90 40 00
        E 0 90 41 38
        E 10 90 32 00
        E 0 90 32 3f
        E 0 90 4a 31
        E 15 90 26 34
        E 11 90 35 00
        E 51 90 4a 00
        E 15 90 2d 00
        E 0 90 2d 44
        E 5 90 40 3d
        E 0 90 41 00
        E 102 90 32 00
        E 0 90 32 3e
        E 0 90 40 00
        E 5 90 40 27
        E 0 90 4c 2b
        E 77 90 4c 00
        E 20 90 40 00
        E 0 90 40 3f
        E 16 90 34 3e
        E 87 90 26 00
        E 5 90 47 3f
        E 0 90 4f 32
        E 5 90 40 00
        E 0 90 40 2b
        E 5 90 34 00
        E 0 90 35 34
        E 97 90 47 00
        E 21 90 26 3b
        E 56 90 4f 00
        E 21 90 35 00
        E 0 90 35 2f
        E 5 90 48 3b
        E 5 90 32 00
        E 0 90 32 33
        E 5 90 40 00
        E 0 90 40 2f
        E 0 90 58 2f
        E 77 90 40 00
        E 0 90 40 40
        E 0 90 58 00
        E 10 90 2d 00
        E 0 90 2d 40
        E 0 90 32 00
        E 0 90 32 30
        E 41 90 35 00
        E 61 90 26 00
        E 5 90 26 3c
        E 0 90 32 00
        E 0 90 32 36
        E 0 90 40 00
        E 0 90 41 47
        E 0 90 48 00
        E 0 90 48 3e
        E 92 90 40 39
        E 0 90 41 00
        E 25 90 34 34
        E 72 90 40 00
        E 20 90 34 00
        E 0 90 41 34
        E 0 90 48 00
        E 0 90 48 32
        E 6 90 35 40
        E 81 90 41 00
        E 21 90 40 4c
        E 56 90 32 00
        E 25 90 26 00
        E 11 90 48 00
        E 5 90 2d 00
        E 0 90 32 3b
        E 5 90 47 35
        E 10 90 26 43
        E 5 90 40 00
        E 0 90 41 37
        E 77 90 2d 3e
        E 0 90 47 00
        E 6 90 35 00
        E 102 90 32 00
        E 0 90 32 41
        E 5 90 26 00
        E 0 90 26 41
        E 82 90 41 00
        E 30 90 34 37
        E 113 90 34 00
        E 0 90 35 39
        E 260 90 26 00
        E 0 90 32 00
        E 21 90 2d 00
        E 0 90 35 00
        E 30 90 4c 36
        E 5 90 41 39
        E 0 90 47 39
        E 0 90 58 42
        E 5 90 26 2b
        E 57 90 4c 00
        E 35 90 2d 3a
        E 5 90 40 3c
        E 0 90 41 00
        E 11 90 47 00
        E 25 90 58 00
        E 47 90 40 00
        E 15 90 26 00
        E 5 90 26 2d
        E 0 90 41 53
        E 5 90 32 46
        E 0 90 47 43
        E 92 90 34 45
        E 0 90 40 37
        E 0 90 41 00
        E 0 90 47 00
        E 10 90 32 00
        E 0 90 32 3f
        E 31 90 26 00
        E 51 90 40 00
        E 16 90 32 00
        E 0 90 32 2c
        E 0 90 41 39
        E 5 90 34 00
        E 0 90 35 42
        E 0 90 48 31
        E 10 90 26 29
        E 46 90 41 00
        E 41 90 40 44
        E 15 90 48 00
        E 31 90 26 00
        E 5 90 32 00
        E 56 90 32 3d
        E 5 90 40 00
        E 0 90 40 37
        E 36 90 35 00
        E 51 90 2d 00
        E 0 90 2d 40
        E 5 90 40 00
        E 0 90 40 3a
        E 92 90 40 00
        E 10 90 32 00
        E 0 90 32 36
        E 5 90 40 27
        E 97 90 40 00
        E 0 90 40 40
        E 16 90 34 30
        E 81 90 40 00
        E 6 90 41 3a
        E 0 90 4f 34
        E 5 90 47 3a
        E 10 90 34 00
        E 0 90 35 30
        E 57 90 47 00
        E 30 90 35 00
        E 0 90 40 29
        E 0 90 41 00
        E 5 90 34 38
        E 92 90 4f 00
        E 11 90 40 00
        E 10 90 34 00
        E 0 90 35 32
        E 0 90 48 43
        E 5 90 2d 00
        E 0 90 2d 32
        E 10 90 26 3f
        E 0 90 32 00
        E 0 90 32 32
        E 0 90 58 29
        E 5 90 45 30
        E 10 90 41 44
        E 46 90 58 00
        E 21 90 40 39
        E 0 90 41 00
        E 5 90 2d 00
        E 0 90 2d 41
        E 25 90 45 00
        E 16 90 35 00
        E 66 90 26 00
        E 0 90 26 38
        E 0 90 32 00
        E 0 90 32 37
        E 5 90 48 00
        E 0 90 48 3f
        E 5 90 40 00
        E 0 90 41 3b
        E 87 90 40 33
        E 0 90 41 00
        E 5 90 34 38
        E 108 90 48 00
        E 0 90 48 34
        E 5 90 34 00
        E 0 90 35 46
        E 81 90 32 00
        E 21 90 40 00
        E 0 90 40 44
        E 66 90 26 00
        E 31 90 40 00
        E 0 90 40 39
        E 10 90 48 00
        E 5 90 35 00
        E 11 90 26 32
        E 0 90 32 3d
        E 0 90 39 2d
        E 0 90 47 33
        E 0 90 4c 2e
        E 0 90 58 37
        E 61 90 39 00
        E 16 90 4c 00
        E 20 90 47 00
        E 5 90 2d 00
        E 0 90 2d 48
        E 0 90 58 00
        E 31 90 40 00
        E 66 90 32 00
        E 0 90 32 4c
        E 123 90 34 3e
        E 117 90 34 00
        E 0 90 35 3a
        E 6 90 32 00
        E 0 90 32 42
        E 204 90 26 00
        E 25 90 45 46
        E 57 90 32 00
        E 15 90 35 00
        E 15 90 2d 00
        E 26 90 40 41
        E 5 90 34 36
        E 0 90 3b 49
        E 82 90 40 00
        E 0 90 41 57
        E 10 90 3b 00
        E 0 90 3c 4d
        E 77 90 34 00
        E 15 90 40 30
        E 0 90 41 00
        E 0 90 45 00
        E 0 90 45 4b
        E 11 90 3b 4c
        E 0 90 3c 00
        E 10 90 28 29
        E 76 90 3b 00
        E 0 90 3c 4c
        E 6 90 40 00
        E 0 90 40 4e
        E 35 90 28 00
        E 62 90 3b 49
        E 0 90 3c 00
        E 5 90 40 00
        E 0 90 40 36
        E 92 90 3b 00
        E 0 90 3b 2d
        E 0 90 40 00
        E 0 90 40 32
        E 0 90 45 00
        E 0 90 47 4c
        E 71 90 37 2d
        E 26 90 40 00
        E 0 90 40 50
        E 15 90 3b 00
        E 0 90 3b 46
        E 31 90 37 00
        E 0 90 47 00
        E 61 90 3b 00
        E 0 90 48 48
        E 5 90 3c 52
        E 5 90 40 00
        E 0 90 40 32
        E 87 90 3b 43
        E 0 90 3c 00
        E 5 90 40 00
        E 0 90 40 4b
        E 107 90 40 00
        E 0 90 41 5a
        E 0 90 47 36
        E 0 90 48 00
        E 6 90 3b 00
        E 0 90 3c 4e
        E 92 90 3b 3e
        E 0 90 3c 00
        E 5 90 40 40
        E 0 90 41 00
        E 87 90 47 00
        E 26 90 35 3f
        E 0 90 40 00
        E 0 90 41 3c
        E 0 90 45 46
        E 5 90 3b 00
        E 0 90 3c 3f
        E 30 90 29 2d
        E 62 90 3b 4b
        E 0 90 3c 00
        E 107 90 3b 00
        E 0 90 3c 54
        E 107 90 3b 2f
        E 0 90 3c 00
        E 0 90 41 00
        E 0 90 41 3f
        E 67 90 29 00
        E 40 90 41 00
        E 0 90 41 55
        E 36 90 29 30
        E 41 90 3b 00
        E 0 90 3c 34
        E 31 90 40 38
        E 0 90 41 00
        E 0 90 45 00
        E 0 90 45 47
        E 66 90 40 00
        E 0 90 41 51
        E 51 90 29 00
        E 5 90 35 00
        E 5 90 41 00
        E 6 90 40 30
        E 0 90 47 37
        E 51 90 35 30
        E 204 90 47 00
        E 62 90 3c 00
        E 61 90 3b 29
        E 67 90 3b 00
        E 61 90 3c 30
        E 10 90 35 00
        E 97 90 47 2a
        E 66 90 47 00
        E 16 90 3c 00
        E 25 90 40 00
        E 21 90 34 4e
        E 0 90 45 00
        E 0 90 45 4c
        E 107 90 34 00
        E 0 90 34 3a
        E 0 90 40 4d
        E 5 90 3b 4d
        E 93 90 40 00
        E 0 90 41 52
        E 10 90 3b 00
        E 0 90 3b 2a
        E 87 90 3b 00
        E 0 90 3b 40
        E 5 90 45 00
        E 0 90 45 55
        E 36 90 48 26
        E 20 90 34 00
        E 41 90 3b 00
        E 0 90 3c 45
        E 0 90 40 57
        E 0 90 41 00
        E 36 90 48 00
        E 66 90 3c 00
        E 0 90 3c 28
        E 0 90 40 00
        E 0 90 40 34
        E 0 90 45 00
        E 0 90 45 40
        E 10 90 28 32
        E 51 90 3c 00
        E 11 90 28 00
        E 20 90 3b 43
        E 0 90 47 4c
        E 5 90 37 2c
        E 0 90 45 00
        E 92 90 40 00
        E 0 90 40 55
        E 5 90 3b 00
        E 0 90 3b 4a
        E 10 90 47 00
        E 16 90 37 00
        E 71 90 40 00
        E 0 90 41 4d
        E 5 90 48 45
        E 16 90 3b 00
        E 0 90 3b 30
        E 15 90 28 31
        E 46 90 3b 00
        E 0 90 3b 46
        E 31 90 40 4a
        E 0 90 41 00
        E 35 90 28 00
        E 62 90 3b 00
        E 0 90 3c 49
        E 5 90 4a 3e
        E 5 90 48 00
        E 5 90 40 00
        E 0 90 40 36
        E 87 90 3b 3d
        E 0 90 3c 00
        E 6 90 40 00
        E 0 90 40 4b
        E 20 90 48 28
        E 71 90 29 27
        E 6 90 48 00
        E 0 90 4a 00
        E 5 90 3b 00
        E 0 90 3c 3a
        E 0 90 40 00
        E 0 90 41 37
        E 0 90 48 38
        E 5 90 35 3e
        E 61 90 29 00
        E 36 90 3b 47
        E 0 90 3c 00
        E 36 90 41 00
        E 51 90 48 00
        E 10 90 40 40
        E 15 90 3b 00
        E 0 90 3b 31
        E 5 90 47 3d
        E 92 90 3b 00
        E 0 90 3b 49
        E 26 90 47 00
        E 92 90 3b 00
        E 0 90 3c 48
        E 0 90 48 24
        E 5 90 40 00
        E 0 90 40 53
        E 5 90 45 39
        E 31 90 29 2a
        E 20 90 48 00
        E 56 90 3b 48
        E 0 90 3c 00
        E 77 90 35 00
        E 46 90 3b 00
        E 0 90 3c 3f
        E 0 90 40 00
        E 0 90 40 47
        E 0 90 43 36
        E 57 90 29 00
        E 71 90 29 2c
        E 26 90 48 2c
        E 112 90 29 00
        E 0 90 48 00
        E 61 90 29 2b
        E 261 90 45 00
        E 46 90 29 00
        E 56 90 43 00
        E 36 90 40 00
        E 20 90 3c 00
        E 0 90 3c 55
        E 0 90 41 45
        E 5 90 2d 47
        E 108 90 3b 4a
        E 0 90 3c 00
        E 5 90 34 4d
        E 82 90 34 00
        E 0 90 34 2e
        E 15 90 3b 00
        E 6 90 41 00
        E 0 90 41 42
        E 5 90 2d 00
        E 0 90 2d 36
        E 5 90 39 42
        E 0 90 3c 4e
        E 0 90 45 34
        E 5 90 4c 39
        E 0 90 58 45
        E 97 90 28 3b
        E 5 90 3b 3f
        E 0 90 3c 00
        E 5 90 4c 00
        E 56 90 58 00
        E 16 90 34 00
        E 15 90 28 00
        E 10 90 3b 00
        E 16 90 3c 44
        E 0 90 4a 40
        E 0 90 56 3c
        E 5 90 41 00
        E 0 90 41 3a
        E 46 90 28 2e
        E 56 90 39 00
        E 0 90 56 00
        E 10 90 3b 43
        E 0 90 3c 00
        E 107 90 3b 00
        E 0 90 4a 00
        E 5 90 2d 00
        E 0 90 2d 40
        E 0 90 3c 38
        E 11 90 41 00
        E 0 90 41 30
        E 0 90 45 00
        E 0 90 45 47
        E 5 90 51 2e
        E 51 90 28 00
        E 46 90 28 34
        E 0 90 51 00
        E 30 90 3c 00
        E 87 90 41 00
        E 0 90 41 45
        E 5 90 2d 00
        E 0 90 2d 41
        E 0 90 3c 34
        E 5 90 39 30
        E 0 90 45 00
        E 0 90 45 37
        E 108 90 3b 39
        E 0 90 3c 00
        E 102 90 2d 00
        E 0 90 2d 3a
        E 6 90 45 00
        E 5 90 3b 00
        E 0 90 3c 43
        E 0 90 41 00
        E 0 90 41 3a
        E 61 90 28 00
        E 46 90 39 00
        E 0 90 3b 46
        E 0 90 3c 00
        E 10 90 28 2d
        E 0 90 45 34
        E 92 90 45 00
        E 21 90 2d 00
        E 0 90 2d 3c
        E 0 90 3b 00
        E 0 90 3c 4d
        E 0 90 41 00
        E 0 90 41 40
        E 56 90 28 00
        E 56 90 34 2b
        E 5 90 28 38
        E 0 90 3b 3f
        E 0 90 3c 00
        E 97 90 3b 00
        E 10 90 41 00
        E 0 90 41 3a
        E 21 90 39 3d
        E 0 90 3c 4f
        E 0 90 45 30
        E 0 90 4c 38
        E 0 90 58 44
        E 51 90 34 00
        E 46 90 3b 3c
        E 0 90 3c 00
        E 5 90 4c 00
        E 51 90 2d 00
        E 36 90 3b 00
        E 20 90 58 00
        E 10 90 39 00
        E 0 90 39 2b
        E 0 90 3c 46
        E 0 90 41 00
        E 0 90 41 30
        E 0 90 45 00
        E 0 90 45 32
        E 0 90 4a 3a
        E 0 90 56 40
        E 16 90 2d 35
        E 66 90 39 00
        E 11 90 3b 46
        E 0 90 3c 00
        E 26 90 56 00
        E 66 90 45 00
        E 25 90 2d 00
        E 0 90 4f 3b
        E 6 90 2d 54
        E 0 90 3b 00
        E 0 90 3c 47
        E 0 90 41 00
        E 0 90 41 2a
        E 25 90 5b 2c
        E 10 90 28 00
        E 57 90 41 00
        E 15 90 34 2b
        E 0 90 3b 39
        E 0 90 3c 00
        E 15 90 28 36
        E 56 90 34 00
        E 16 90 3b 00
        E 20 90 3c 42
        E 5 90 41 3c
        E 0 90 4a 00
        E 5 90 2d 00
        E 0 90 2d 3d
        E 0 90 39 3d
        E 0 90 45 34
        E 11 90 4f 00
        E 15 90 5b 00
        E 87 90 3b 3c
        E 0 90 3c 00
        E 92 90 3b 00
        E 5 90 45 00
        E 15 90 39 00
        E 0 90 39 2e
        E 0 90 3c 46
        E 5 90 41 00
        E 0 90 41 47
        E 0 90 4d 39
        E 82 90 39 00
        E 36 90 3b 48
        E 0 90 3c 00
        E 0 90 4d 00
        E 30 90 35 32
        E 51 90 28 00
        E 6 90 41 00
        E 5 90 35 00
        E 15 90 2d 00
        E 0 90 2d 48
        E 5 90 39 30
        E 0 90 40 2e
        E 0 90 43 30
        E 0 90 4c 38
        E 0 90 58 3e
        E 5 90 3e 2f
        E 10 90 3b 00
        E 52 90 40 00
        E 36 90 34 36
        E 0 90 3c 41
        E 10 90 43 00
        E 0 90 58 00
        E 10 90 4c 00
        E 5 90 3e 00
        E 5 90 41 2e
        E 62 90 41 00
        E 10 90 34 00
        E 20 90 3e 41
        E 0 90 43 3c
        E 6 90 2d 00
        E 0 90 2d 40
        E 0 90 39 00
        E 0 90 39 3d
        E 97 90 3c 00
        E 0 90 3c 3f
        E 15 90 43 00
        E 97 90 48 2c
        E 10 90 3e 00
        E 0 90 3e 39
        E 0 90 43 34
        E 61 90 48 00
        E 36 90 39 00
        E 5 90 3c 00
        E 0 90 3c 3f
        E 118 90 43 00
        E 0 90 43 3c
        E 5 90 2d 00
        E 0 90 2d 4c
        E 0 90 39 22
        E 0 90 3e 00
        E 0 90 3e 41
        E 71 90 39 00
        E 16 90 3e 00
        E 15 90 43 00
        E 5 90 34 2b
        E 5 90 3c 00
        E 0 90 3c 40
        E 67 90 3e 3e
        E 36 90 34 00
        E 15 90 2d 00
        E 0 90 2d 3f
        E 0 90 39 39
        E 0 90 43 35
        E 103 90 3c 00
        E 0 90 3c 3a
        E 20 90 43 00
        E 20 90 28 2a
        E 77 90 3e 00
        E 5 90 3e 42
        E 0 90 43 37
        E 26 90 28 00
        E 0 90 39 00
        E 76 90 3c 00
        E 0 90 3c 3d
        E 11 90 3e 00
        E 0 90 3e 3a
        E 20 90 43 00
        E 92 90 2d 00
        E 0 90 2d 52
        E 0 90 3e 00
        E 0 90 3e 4f
        E 0 90 43 35
        E 61 90 3e 00
        E 0 90 3e 45
        E 51 90 34 2e
        E 0 90 3c 00
        E 0 90 3c 3a
        E 87 90 28 2d
        E 31 90 43 00
        E 0 90 43 3c
        E 5 90 2d 00
        E 0 90 2d 44
        E 0 90 3e 00
        E 0 90 3e 4c
        E 102 90 3c 00
        E 0 90 3c 45
        E 0 90 3e 00
        E 0 90 3e 42
        E 0 90 48 2c
        E 15 90 34 00
        E 16 90 43 00
        E 15 90 39 29
        E 15 90 28 00
        E 51 90 39 00
        E 0 90 43 3a
        E 6 90 39 2f
        E 0 90 3e 00
        E 0 90 3e 56
        E 107 90 39 00
        E 0 90 39 2f
        E 0 90 3c 00
        E 0 90 3c 3c
        E 0 90 3e 00
        E 0 90 3e 47
        E 0 90 48 00
        E 0 90 48 31
        E 62 90 39 00
        E 51 90 43 00
        E 0 90 43 42
        E 5 90 2d 00
        E 0 90 2d 51
        E 0 90 3e 00
        E 0 90 3e 41
        E 87 90 28 32
        E 5 90 34 3b
        E 10 90 3c 00
        E 0 90 3c 39
        E 21 90 43 00
        E 20 90 48 00
        E 36 90 28 00
        E 46 90 43 41
        E 5 90 2d 00
        E 0 90 2d 48
        E 0 90 39 3c
        E 0 90 3e 00
        E 0 90 3e 50
        E 87 90 28 2d
        E 20 90 3c 00
        E 0 90 3c 3e
        E 0 90 48 31
        E 31 90 43 00
        E 56 90 28 00
        E 0 90 34 00
        E 15 90 48 00
        E 10 90 39 00
        E 0 90 39 36
        E 0 90 43 49
        E 6 90 3e 00
        E 0 90 3e 4f
        E 25 90 30 2a
        E 77 90 30 00
        E 5 90 30 29
        E 0 90 3c 00
        E 0 90 3c 47
        E 0 90 43 00
        E 0 90 43 2a
        E 0 90 48 2d
        E 5 90 3e 00
        E 0 90 3e 41
        E 5 90 39 00
        E 56 90 30 00
        E 31 90 41 42
        E 0 90 43 00
        E 6 90 48 00
        E 5 90 2d 00
        E 0 90 2d 45
        E 0 90 3c 00
        E 0 90 3c 46
        E 15 90 3e 00
        E 87 90 28 31
        E 10 90 34 39
        E 5 90 3b 46
        E 0 90 3c 00
        E 41 90 41 00
        E 51 90 34 00
        E 0 90 3b 00
        E 15 90 41 2e
        E 11 90 2d 00
        E 0 90 2d 36
        E 0 90 39 42
        E 5 90 3c 3e
        E 0 90 45 34
        E 0 90 4c 3c
        E 5 90 58 47
        E 97 90 3b 3d
        E 0 90 3c 00
        E 10 90 4c 00
        E 61 90 2d 00
        E 6 90 28 00
        E 0 90 58 00
        E 15 90 3b 00
        E 25 90 3c 3e
        E 0 90 41 00
        E 0 90 41 3d
        E 0 90 56 33
        E 6 90 28 2b
        E 0 90 45 00
        E 0 90 45 2d
        E 0 90 4a 46
        E 25 90 2d 31
        E 10 90 39 00
        E 67 90 3b 3c
        E 0 90 3c 00
        E 0 90 56 00
        E 30 90 45 00
        E 77 90 4a 00
        E 5 90 2d 00
        E 5 90 2d 46
        E 5 90 3b 00
        E 0 90 41 00
        E 0 90 41 39
        E 0 90 45 48
        E 0 90 51 37
        E 5 90 3c 38
        E 16 90 28 00
        E 0 90 28 32
        E 66 90 51 00
        E 15 90 4a 32
        E 11 90 3b 2e
        E 0 90 3c 00
        E 92 90 3b 00
        E 21 90 39 2f
        E 0 90 3c 38
        E 0 90 41 00
        E 0 90 41 39
        E 0 90 4a 00
        E 5 90 2d 00
        E 0 90 2d 3d
        E 0 90 45 00
        E 0 90 45 2e
        E 82 90 3c 00
        E 25 90 3b 3e
        E 107 90 3b 00
        E 0 90 3c 40
        E 0 90 41 00
        E 0 90 41 44
        E 31 90 39 00
        E 82 90 3b 35
        E 0 90 3c 00
        E 35 90 2d 00
        E 57 90 45 00
        E 15 90 41 00
        E 0 90 41 3b
        E 5 90 3b 00
        E 5 90 3c 32
        E 21 90 2d 37
        E 76 90 28 00
        E 0 90 28 3a
        E 5 90 34 24
        E 0 90 3b 39
        E 0 90 3c 00
        E 67 90 34 00
        E 30 90 3b 00
        E 26 90 41 00
        E 0 90 41 3b
        E 5 90 3c 47
        E 0 90 45 34
        E 0 90 4c 31
        E 5 90 39 3d
        E 0 90 58 4a
        E 87 90 28 00
        E 0 90 28 3e
        E 10 90 3b 34
        E 0 90 3c 00
        E 21 90 4c 00
        E 67 90 3b 00
        E 10 90 28 00
        E 0 90 58 00
        E 20 90 3c 35
        E 5 90 41 00
        E 0 90 41 37
        E 0 90 4a 41
        E 0 90 56 3c
        E 6 90 28 30
        E 25 90 39 00
        E 26 90 45 00
        E 40 90 3b 34
        E 0 90 3c 00
        E 6 90 56 00
        E 112 90 3b 00
        E 0 90 3c 4c
        E 0 90 41 00
        E 0 90 41 2d
        E 5 90 2d 00
        E 0 90 2d 4f
        E 21 90 4f 3c
        E 0 90 5b 30
        E 56 90 4a 00
        E 15 90 28 00
        E 0 90 28 3a
        E 10 90 34 30
        E 0 90 3b 26
        E 0 90 3c 00
        E 5 90 2d 00
        E 0 90 2d 4b
        E 0 90 5b 00
        E 31 90 4a 2a
        E 61 90 3b 00
        E 0 90 4f 00
        E 11 90 3c 39
        E 0 90 4a 00
        E 5 90 41 00
        E 0 90 41 39
        E 5 90 2d 00
        E 0 90 2d 3e
        E 0 90 39 3a
        E 0 90 45 2c
        E 112 90 3b 39
        E 0 90 3c 00
        E 21 90 45 00
        E 56 90 34 00
        E 5 90 3b 00
        E 36 90 3c 40
        E 5 90 39 00
        E 0 90 39 2e
        E 0 90 41 00
        E 0 90 41 48
        E 0 90 4d 3f
        E 0 90 59 1e
        E 61 90 59 00
        E 46 90 3b 3f
        E 0 90 3c 00
        E 0 90 4d 00
        E 41 90 39 00
        E 36 90 28 00
        E 31 90 43 2d
        E 5 90 2d 00
        E 0 90 2d 4c
        E 0 90 3e 2f
        E 5 90 3b 00
        E 0 90 3c 2d
        E 0 90 40 26
        E 0 90 41 00
        E 0 90 4c 3e
        E 0 90 58 3d
        E 97 90 34 31
        E 10 90 28 2b
        E 0 90 43 00
        E 5 90 3c 00
        E 0 90 3c 3d
        E 0 90 40 00
        E 0 90 48 2a
        E 6 90 58 00
        E 20 90 4c 00
        E 10 90 39 28
        E 36 90 48 00
        E 36 90 39 00
        E 5 90 2d 00
        E 0 90 2d 49
        E 0 90 39 3a
        E 0 90 3e 00
        E 0 90 3e 42
        E 0 90 43 31
        E 61 90 21 29
        E 56 90 3c 00
        E 0 90 3c 47
        E 11 90 43 00
        E 10 90 28 00
        E 10 90 21 00
        E 82 90 34 00
        E 5 90 43 36
        E 10 90 3e 00
        E 0 90 3e 39
        E 0 90 48 2c
        E 77 90 48 00
        E 25 90 3c 00
        E 0 90 3c 43
        E 56 90 39 00
        E 57 90 2d 00
        E 0 90 2d 4b
        E 0 90 43 00
        E 0 90 43 36
        E 10 90 3c 00
        E 0 90 3e 00
        E 0 90 3e 4b
        E 92 90 3c 3b
        E 0 90 48 28
        E 5 90 34 36
        E 82 90 34 00
        E 15 90 48 00
        E 16 90 43 00
        E 0 90 43 39
        E 5 90 2d 00
        E 0 90 2d 42
        E 0 90 39 35
        E 0 90 3e 00
        E 0 90 3e 4a
        E 102 90 3c 00
        E 0 90 3c 39
        E 0 90 48 2f
        E 5 90 3e 00
        E 0 90 3e 40
        E 113 90 43 00
        E 0 90 43 3b
        E 5 90 3e 00
        E 0 90 3e 57
        E 112 90 3c 00
        E 0 90 3c 43
        E 0 90 48 00
        E 0 90 48 27
        E 5 90 3e 00
        E 0 90 3e 45
        E 56 90 48 00
        E 11 90 43 00
        E 30 90 2d 00
        E 0 90 2d 4a
        E 0 90 39 00
        E 0 90 39 31
        E 5 90 3e 00
        E 5 90 40 3e
        E 6 90 3c 00
        E 0 90 3c 36
        E 0 90 45 3d
        E 0 90 58 39
        E 81 90 40 00
        E 16 90 58 00
        E 10 90 3e 30
        E 5 90 34 3c
        E 10 90 3c 00
        E 92 90 45 00
        E 0 90 45 46
        E 5 90 28 25
        E 0 90 2d 00
        E 0 90 2d 3f
        E 0 90 34 00
        E 0 90 34 34
        E 0 90 39 00
        E 0 90 39 3f
        E 0 90 40 31
        E 77 90 28 00
        E 26 90 40 00
        E 5 90 3e 00
        E 0 90 3e 47
        E 118 90 39 00
        E 0 90 39 33
        E 0 90 40 3a
        E 0 90 45 00
        E 0 90 45 41
        E 25 90 34 00
        E 82 90 3e 00
        E 0 90 3e 38
        E 61 90 39 00
        E 51 90 2d 00
        E 0 90 2d 54
        E 0 90 45 00
        E 0 90 45 3f
        E 5 90 40 00
        E 0 90 40 38
        E 102 90 34 3b
        E 6 90 3e 00
        E 0 90 3e 37
        E 15 90 28 30
        E 5 90 40 00
        E 87 90 2d 00
        E 0 90 2d 4a
        E 5 90 39 40
        E 0 90 40 35
        E 5 90 45 00
        E 0 90 45 3d
        E 102 90 3e 00
        E 0 90 3e 48
        E 0 90 40 00
        E 82 90 28 00
        E 0 90 34 00
        E 46 90 2d 00
        E 0 90 2d 42
        E 0 90 34 29
        E 0 90 39 00
        E 0 90 39 33
        E 0 90 40 34
        E 5 90 45 00
        E 0 90 45 44
        E 0 90 51 40
        E 67 90 34 00
        E 26 90 51 00
        E 10 90 3e 00
        E 0 90 3e 49
        E 5 90 45 00
        E 0 90 45 38
        E 15 90 40 00
        E 51 90 45 00
        E 41 90 39 00
        E 5 90 47 35
        E 5 90 41 3e
        E 6 90 3e 00
        E 0 90 3e 28
        E 0 90 45 2f
        E 0 90 4c 41
        E 0 90 58 38
        E 20 90 2d 00
        E 0 90 2d 51
        E 31 90 47 00
        E 10 90 45 00
        E 20 90 4c 00
        E 10 90 28 24
        E 0 90 34 4c
        E 6 90 40 41
        E 0 90 41 00
        E 25 90 3e 00
        E 41 90 28 00
        E 41 90 40 00
        E 0 90 41 49
        E 5 90 2d 00
        E 0 90 2d 4f
        E 5 90 34 00
        E 0 90 34 3b
        E 0 90 39 3b
        E 0 90 45 2a
        E 46 90 3e 24
        E 56 90 58 00
        E 5 90 40 3d
        E 0 90 41 00
        E 41 90 3e 00
        E 56 90 45 00
        E 21 90 34 00
        E 0 90 34 3b
        E 0 90 40 00
        E 0 90 40 30
        E 0 90 47 40
        E 46 90 39 00
        E 51 90 34 00
        E 0 90 34 39
        E 5 90 40 00
        E 0 90 40 4f
        E 51 90 47 00
        E 41 90 34 00
        E 5 90 28 27
        E 21 90 2d 00
        E 0 90 2d 55
        E 0 90 47 38
        E 0 90 4c 2c
        E 5 90 40 00
        E 0 90 40 36
        E 0 90 58 44
        E 36 90 28 00
        E 36 90 28 2a
        E 0 90 4c 00
        E 5 90 47 00
        E 10 90 40 00
        E 0 90 40 37
        E 5 90 2d 00
        E 0 90 2d 47
        E 0 90 34 3a
        E 56 90 40 00
        E 21 90 28 00
        E 15 90 58 00
        E 26 90 41 44
        E 0 90 47 37
        E 5 90 2d 00
        E 0 90 2d 41
        E 0 90 39 35
        E 0 90 4d 3d
        E 5 90 34 00
        E 0 90 34 2b
        E 10 90 28 2b
        E 87 90 40 3a
        E 0 90 41 00
        E 5 90 34 00
        E 0 90 34 2f
        E 20 90 4d 00
        E 36 90 28 00
        E 10 90 47 00
        E 21 90 34 00
        E 25 90 2d 00
        E 0 90 2d 4d
        E 0 90 40 00
        E 0 90 41 36
        E 0 90 48 46
        E 0 90 4f 43
        E 103 90 2d 00
        E 0 90 2d 52
        E 0 90 40 2e
        E 0 90 41 00
        E 35 90 39 00
        E 51 90 40 00
        E 36 90 2d 00
        E 0 90 2d 59
        E 0 90 4a 2e
        E 0 90 4c 30
        E 10 90 48 00
        E 11 90 40 23
        E 5 90 58 3f
        E 46 90 4a 00
        E 0 90 4c 00
        E 15 90 34 3b
        E 0 90 40 00
        E 0 90 40 35
        E 5 90 4f 00
        E 87 90 40 00
        E 0 90 58 00
        E 25 90 34 00
        E 0 90 41 47
        E 6 90 28 2e
        E 0 90 2d 00
        E 0 90 2d 50
        E 0 90 39 38
        E 61 90 28 00
        E 31 90 40 35
        E 0 90 41 00
        E 36 90 4a 24
        E 76 90 4a 00
        E 6 90 4a 33
        E 10 90 40 00
        E 0 90 40 33
        E 82 90 28 30
        E 15 90 39 00
        E 5 90 40 00
        E 0 90 40 43
        E 56 90 28 00
        E 46 90 4a 00
        E 10 90 2d 00
        E 0 90 2d 51
        E 0 90 48 36
        E 16 90 40 00
        E 87 90 34 33
        E 0 90 40 2e
        E 71 90 40 00
        E 46 90 4a 31
        E 5 90 39 2e
        E 0 90 56 47
        E 46 90 48 00
        E 46 90 28 2b
        E 36 90 56 00
        E 5 90 41 2a
        E 0 90 48 30
        E 10 90 4a 00
        E 56 90 34 00
        E 0 90 39 00
        E 16 90 48 00
        E 5 90 41 00
        E 0 90 48 4e
        E 5 90 41 40
        E 113 90 40 3d
        E 0 90 41 00
        E 71 90 28 00
        E 21 90 40 00
        E 15 90 41 2f
        E 0 90 47 3d
        E 0 90 48 00
        E 5 90 2d 00
        E 0 90 2d 52
        E 21 90 53 37
        E 71 90 47 00
        E 5 90 41 00
        E 11 90 2d 00
        E 0 90 2d 3f
        E 5 90 34 48
        E 0 90 40 38
        E 15 90 53 00
        E 87 90 40 00
        E 5 90 28 2a
        E 5 90 34 00
        E 0 90 34 31
        E 0 90 41 4d
        E 0 90 47 3a
        E 10 90 39 45
        E 0 90 45 27
        E 72 90 28 00
        E 10 90 47 00
        E 15 90 34 00
        E 0 90 34 38
        E 0 90 39 00
        E 0 90 39 30
        E 0 90 40 47
        E 0 90 41 00
        E 41 90 45 00
        E 72 90 40 00
        E 0 90 41 57
        E 5 90 47 3b
        E 5 90 34 00
        E 0 90 34 2e
        E 5 90 28 2f
        E 66 90 28 00
        E 6 90 39 00
        E 20 90 40 5a
        E 0 90 41 00
        E 87 90 34 00
        E 11 90 2d 00
        E 0 90 2d 45
        E 5 90 31 2a
        E 5 90 40 00
        E 0 90 41 44
        E 5 90 28 2c
        E 0 90 47 00
        E 0 90 47 37
        E 77 90 28 00
        E 5 90 31 00
        E 10 90 47 00
        E 10 90 34 2e
        E 102 90 41 00
        E 0 90 41 4c
        E 5 90 2d 00
        E 0 90 2d 47
        E 0 90 39 32
        E 67 90 28 24
        E 51 90 34 00
        E 0 90 34 31
        E 0 90 40 40
        E 0 90 41 00
        E 41 90 28 00
        E 35 90 34 00
        E 31 90 40 00
        E 0 90 41 4a
        E 0 90 48 42
        E 5 90 45 27
        E 102 90 2d 00
        E 0 90 2d 45
        E 0 90 40 48
        E 0 90 41 00
        E 11 90 45 00
        E 97 90 48 00
        E 5 90 2d 00
        E 0 90 2d 52
        E 0 90 40 00
        E 0 90 41 4e
        E 0 90 4a 34
        E 46 90 39 00
        E 51 90 28 30
        E 0 90 2d 00
        E 0 90 2d 50
        E 5 90 34 2c
        E 0 90 40 38
        E 0 90 41 00
        E 15 90 4a 00
        E 51 90 28 00
        E 26 90 34 00
        E 16 90 40 00
        E 0 90 41 41
        E 5 90 2d 00
        E 0 90 2d 46
        E 0 90 39 2f
        E 0 90 45 26
        E 0 90 4a 31
        E 20 90 28 2d
        E 72 90 45 00
        E 10 90 40 39
        E 0 90 41 00
        E 5 90 34 2d
        E 67 90 28 00
        E 30 90 34 00
        E 5 90 40 00
        E 11 90 41 51
        E 5 90 4a 00
        E 0 90 4a 37
        E 20 90 28 2e
        E 61 90 4a 00
        E 0 90 4a 3d
        E 21 90 40 50
        E 0 90 41 00
        E 41 90 28 00
        E 61 90 4a 00
        E 5 90 39 00
        E 0 90 39 31
        E 0 90 4c 40
        E 5 90 40 00
        E 0 90 41 30
        E 5 90 2d 00
        E 0 90 2d 5b
        E 51 90 4c 00
        E 16 90 39 00
        E 5 90 41 00
        E 20 90 40 3f
        E 10 90 34 39
        E 113 90 40 00
        E 0 90 40 2a
        E 5 90 2d 00
        E 0 90 2d 52
        E 0 90 39 46
        E 20 90 28 2b
        E 82 90 40 00
        E 0 90 40 33
        E 5 90 2d 00
        E 0 90 2d 4f
        E 16 90 28 00
        E 82 90 40 00
        E 0 90 51 3d
        E 5 90 2d 00
        E 0 90 2d 47
        E 0 90 34 00
        E 0 90 41 41
        E 5 90 39 00
        E 0 90 39 37
        E 0 90 45 40
        E 51 90 51 00
        E 51 90 45 00
        E 0 90 45 3c
        E 5 90 40 4f
        E 0 90 41 00
        E 11 90 51 2c
        E 71 90 51 00
        E 36 90 2d 00
        E 0 90 2d 46
        E 0 90 39 00
        E 0 90 39 35
        E 0 90 40 00
        E 0 90 41 36
        E 0 90 4c 39
        E 0 90 58 41
        E 25 90 45 00
        E 41 90 4c 00
        E 26 90 40 4f
        E 0 90 41 00
        E 5 90 34 40
        E 5 90 58 00
        E 107 90 40 00
        E 0 90 41 4f
        E 0 90 4c 23
        E 11 90 39 00
        E 0 90 39 30
        E 5 90 28 2a
        E 0 90 45 31
        E 51 90 4c 00
        E 20 90 28 00
        E 26 90 40 4c
        E 0 90 41 00
        E 5 90 34 00
        E 0 90 34 31
        E 10 90 45 00
        E 97 90 39 00
        E 0 90 39 3c
        E 0 90 4c 2d
        E 5 90 40 00
        E 0 90 41 52
        E 97 90 40 3f
        E 0 90 41 00
        E 10 90 4c 00
        E 36 90 34 00
        E 57 90 39 00
        E 0 90 39 30
        E 0 90 4c 4d
        E 0 90 58 39
        E 20 90 2d 00
        E 0 90 2d 3f
        E 6 90 40 00
        E 0 90 41 44
        E 61 90 39 00
        E 20 90 40 4b
        E 0 90 41 00
        E 5 90 34 35
        E 16 90 4c 00
        E 41 90 58 00
        E 15 90 34 00
        E 15 90 2d 00
        E 16 90 40 00
        E 0 90 41 44
        E 0 90 4d 43
        E 15 90 39 44
        E 0 90 45 2b
        E 10 90 2d 48
        E 56 90 45 00
        E 36 90 40 41
        E 0 90 41 00
        E 10 90 34 2d
        E 67 90 34 00
        E 10 90 4d 00
        E 15 90 40 00
        E 10 90 4f 48
        E 11 90 40 2b
        E 0 90 4c 2f
        E 5 90 39 00
        E 0 90 39 36
        E 81 90 4c 00
        E 21 90 40 00
        E 0 90 40 38
        E 87 90 2d 00
        E 0 90 2d 52
        E 0 90 39 00
        E 0 90 39 2c
        E 0 90 4c 37
        E 5 90 40 00
        E 5 90 4a 2b
        E 15 90 58 49
        E 56 90 4c 00
        E 11 90 39 00
        E 15 90 4a 00
        E 5 90 40 39
        E 10 90 34 33
        E 21 90 28 2d
        E 15 90 4f 00
        E 57 90 34 00
        E 5 90 4a 32
        E 10 90 40 00
        E 0 90 41 44
        E 5 90 2d 00
        E 0 90 2d 4f
        E 0 90 45 34
        E 16 90 28 00
        E 0 90 58 00
        E 76 90 2d 00
        E 0 90 2d 3d
        E 0 90 34 2d
        E 0 90 40 4f
        E 0 90 41 00
        E 0 90 45 00
        E 0 90 45 30
        E 62 90 39 29
        E 15 90 45 00
        E 25 90 34 00
        E 11 90 4a 00
        E 0 90 4a 3a
        E 15 90 40 00
        E 0 90 41 49
        E 87 90 28 32
        E 10 90 40 53
        E 0 90 41 00
        E 41 90 39 00
        E 25 90 28 00
        E 46 90 40 00
        E 0 90 41 40
        E 0 90 47 47
        E 6 90 2d 00
        E 0 90 2d 54
        E 30 90 4a 00
        E 67 90 34 49
        E 0 90 40 3e
        E 0 90 41 00
        E 5 90 47 00
        E 71 90 40 00
        E 10 90 4d 2c
        E 21 90 41 56
        E 10 90 34 00
        E 0 90 34 3a
        E 0 90 47 34
        E 5 90 2d 00
        E 0 90 2d 52
        E 0 90 39 35
        E 41 90 4d 00
        E 72 90 40 2e
        E 0 90 41 00
        E 20 90 47 00
        E 51 90 40 00
        E 10 90 39 00
        E 1 90 4f 49
        E 10 90 41 4d
        E 0 90 47 37
        E 72 90 34 00
        E 35 90 39 2a
        E 5 90 40 2f
        E 0 90 41 00
        E 57 90 39 00
        E 20 90 47 00
        E 15 90 40 00
        E 16 90 2d 00
        E 0 90 2d 58
        E 5 90 41 37
        E 0 90 51 2f
        E 0 90 5d 36
        E 10 90 35 2e
        E 66 90 35 00
        E 0 90 4f 00
        E 26 90 34 3a
        E 5 90 40 33
        E 0 90 41 00
        E 26 90 5d 00
        E 61 90 40 00
        E 20 90 2d 00
        E 0 90 2d 53
        E 0 90 39 34
        E 0 90 48 39
        E 6 90 41 36
        E 5 90 51 00
        E 107 90 34 00
        E 0 90 34 37
        E 0 90 40 36
        E 0 90 41 00
        E 117 90 40 00
        E 0 90 41 4b
        E 0 90 48 00
        E 0 90 48 38
        E 26 90 39 00
        E 25 90 34 00
        E 62 90 40 41
        E 0 90 41 00
        E 56 90 48 00
        E 20 90 39 23
        E 11 90 40 00
        E 10 90 5d 39
        E 6 90 31 29
        E 0 90 41 4f
        E 10 90 2d 00
        E 0 90 2d 4e
        E 25 90 39 00
        E 41 90 31 00
        E 31 90 2d 00
        E 0 90 2d 44
        E 0 90 40 32
        E 0 90 41 00
        E 5 90 34 32
        E 20 90 5d 00
        E 41 90 34 00
        E 16 90 40 00
        E 10 90 4f 3c
        E 5 90 48 30
        E 0 90 5b 26
        E 10 90 41 3f
        E 10 90 39 35
        E 67 90 5b 00
        E 35 90 40 39
        E 0 90 41 00
        E 6 90 48 00
        E 0 90 48 38
        E 76 90 39 00
        E 15 90 40 00
        E 6 90 4d 30
        E 25 90 41 51
        E 0 90 48 00
        E 0 90 48 4b
        E 72 90 48 00
        E 0 90 48 3e
        E 0 90 4f 00
        E 15 90 4d 00
        E 20 90 40 3f
        E 0 90 41 00
        E 103 90 4c 3d
        E 5 90 58 46
        E 10 90 39 2d
        E 0 90 40 00
        E 0 90 41 34
        E 0 90 47 37
        E 0 90 48 00
        E 15 90 2d 00
        E 0 90 2d 4b
        E 77 90 47 00
        E 0 90 4c 00
        E 5 90 39 00
        E 10 90 34 36
        E 0 90 40 3a
        E 0 90 41 00
        E 26 90 28 2e
        E 87 90 40 00
        E 5 90 2d 00
        E 0 90 2d 46
        E 0 90 39 38
        E 0 90 45 2b
        E 5 90 41 47
        E 11 90 58 00
        E 92 90 40 3e
        E 0 90 41 00
        E 25 90 28 00
        E 10 90 45 00
        E 46 90 39 00
        E 26 90 47 32
        E 5 90 28 2e
        E 0 90 40 00
        E 0 90 40 3b
        E 46 90 34 00
        E 15 90 28 00
        E 46 90 40 00
        E 0 90 40 44
        E 118 90 2d 00
        E 0 90 2d 4d
        E 0 90 40 00
        E 0 90 41 54
        E 0 90 47 00
        E 0 90 47 3e
        E 81 90 47 00
        E 26 90 34 47
        E 0 90 39 2d
        E 0 90 40 43
        E 0 90 41 00
        E 112 90 40 00
        E 0 90 41 56
        E 5 90 2d 00
        E 0 90 2d 47
        E 0 90 39 00
        E 0 90 39 40
        E 103 90 34 00
        E 0 90 34 3e
        E 0 90 40 40
        E 0 90 41 00
        E 107 90 47 38
        E 6 90 40 00
        E 0 90 41 54
        E 5 90 34 00
        E 0 90 34 3b
        E 51 90 47 00
        E 56 90 40 50
        E 0 90 41 00
        E 5 90 34 00
        E 0 90 34 3c
        E 31 90 39 00
        E 61 90 34 00
        E 10 90 40 00
        E 0 90 41 48
        E 5 90 2d 00
        E 0 90 2d 49
        E 0 90 3c 4c
        E 108 90 28 34
        E 10 90 3b 3b
        E 0 90 3c 00
        E 5 90 34 30
        E 102 90 3b 00
        E 5 90 3c 55
        E 5 90 39 29
        E 0 90 41 00
        E 0 90 41 37
        E 0 90 45 3e
        E 0 90 58 4c
        E 77 90 34 00
        E 20 90 3b 3d
        E 0 90 3c 00
        E 82 90 45 00
        E 5 90 58 00
        E 16 90 39 00
        E 0 90 3b 00
        E 10 90 3c 45
        E 5 90 41 00
        E 0 90 41 4c
        E 0 90 56 46
        E 87 90 45 34
        E 10 90 3b 48
        E 0 90 3c 00
        E 36 90 56 00
        E 41 90 28 00
        E 10 90 45 00
        E 31 90 3b 00
        E 0 90 3c 49
        E 0 90 41 00
        E 0 90 41 3a
        E 10 90 2d 00
        E 0 90 2d 46
        E 0 90 51 47
        E 97 90 34 35
        E 5 90 28 38
        E 0 90 3b 3f
        E 0 90 3c 00
        E 5 90 51 00
        E 0 90 51 39
        E 92 90 51 00
        E 11 90 41 00
        E 0 90 41 4c
        E 5 90 2d 00
        E 0 90 2d 3e
        E 5 90 39 39
        E 0 90 3b 00
        E 0 90 3c 3e
        E 0 90 45 30
        E 107 90 3b 3d
        E 0 90 3c 00
        E 102 90 3b 00
        E 11 90 3c 4a
        E 0 90 41 00
        E 0 90 41 46
        E 71 90 28 00
        E 5 90 34 00
        E 15 90 39 00
        E 6 90 35 27
        E 15 90 3b 4e
        E 0 90 3c 00
        E 20 90 28 2a
        E 0 90 45 00
        E 77 90 35 00
        E 10 90 2d 00
        E 0 90 2d 4b
        E 5 90 3e 39
        E 0 90 41 00
        E 0 90 43 34
        E 31 90 3b 00
        E 15 90 28 00
        E 26 90 43 00
        E 25 90 34 35
        E 11 90 3c 49
        E 77 90 28 2a
        E 30 90 43 39
        E 6 90 3e 00
        E 0 90 3e 46
        E 10 90 39 3c
        E 5 90 21 32
        E 0 90 58 4a
        E 46 90 28 00
        E 46 90 3c 00
        E 0 90 3c 4a
        E 10 90 21 00
        E 36 90 43 00
        E 0 90 58 00
        E 41 90 34 00
        E 30 90 43 40
        E 5 90 3e 00
        E 0 90 3e 4f
        E 0 90 56 40
        E 67 90 39 00
        E 20 90 56 00
        E 10 90 3c 00
        E 0 90 3c 4c
        E 21 90 34 32
        E 66 90 34 00
        E 26 90 43 00
        E 0 90 43 45
        E 5 90 2d 00
        E 0 90 2d 52
        E 5 90 39 25
        E 5 90 3e 00
        E 0 90 3e 40
        E 5 90 5b 3f
        E 10 90 48 2b
        E 41 90 39 00
        E 41 90 34 3f
        E 5 90 48 00
        E 0 90 5b 00
        E 5 90 3c 00
        E 0 90 3c 46
        E 0 90 48 32
        E 6 90 43 00
        E 107 90 43 47
        E 5 90 39 3d
        E 0 90 3e 00
        E 0 90 3e 56
        E 5 90 2d 00
        E 0 90 2d 3f
        E 10 90 28 27
        E 83 90 3c 00
        E 0 90 3c 46
        E 40 90 28 00
        E 31 90 48 00
        E 36 90 34 00
        E 0 90 43 00
        E 0 90 43 42
        E 15 90 3e 00
        E 0 90 3e 4e
        E 0 90 59 31
        E 67 90 59 00
        E 30 90 48 2e
        E 5 90 3c 00
        E 0 90 3c 51
        E 87 90 39 00
        E 10 90 43 00
        E 6 90 41 39
        E 25 90 3c 00
        E 0 90 3c 4a
        E 0 90 58 3e
        E 5 90 3e 00
        E 10 90 48 00
        E 72 90 28 3b
        E 0 90 34 2a
        E 10 90 3b 36
        E 0 90 3c 00
        E 51 90 34 00
        E 41 90 3b 00
        E 15 90 41 00
        E 0 90 41 48
        E 5 90 3c 48
        E 6 90 39 33
        E 0 90 45 3b
        E 20 90 3e 33
        E 46 90 58 00
        E 20 90 2d 00
        E 21 90 3b 42
        E 0 90 3c 00
        E 51 90 2d 30
        E 0 90 3e 00
        E 61 90 3b 00
        E 0 90 3c 57
        E 0 90 41 00
        E 0 90 41 47
        E 5 90 28 00
        E 67 90 28 33
        E 21 90 39 00
        E 5 90 3b 49
        E 0 90 3c 00
        E 46 90 45 00
        E 66 90 41 00
        E 0 90 41 4d
        E 5 90 2d 00
        E 5 90 2d 42
        E 0 90 3b 00
        E 0 90 3c 45
        E 98 90 28 00
        E 0 90 34 31
        E 5 90 28 3d
        E 0 90 3b 40
        E 0 90 3c 00
        E 107 90 41 00
        E 0 90 41 4b
        E 5 90 39 42
        E 0 90 3b 00
        E 0 90 3c 3a
        E 5 90 45 28
        E 5 90 28 00
        E 77 90 28 3d
        E 20 90 3b 43
        E 0 90 3c 00
        E 36 90 45 00
        E 66 90 34 00
        E 11 90 3b 00
        E 0 90 3c 51
        E 5 90 41 00
        E 0 90 41 50
        E 36 90 45 2c
        E 30 90 39 00
        E 31 90 45 00
        E 10 90 3b 4b
        E 0 90 3c 00
        E 82 90 28 00
        E 15 90 41 00
        E 5 90 43 33
        E 5 90 2d 00
        E 0 90 2d 4c
        E 11 90 3e 2c
        E 56 90 3b 00
        E 15 90 43 00
        E 31 90 3c 46
        E 36 90 3e 00
        E 82 90 3e 2a
        E 25 90 45 32
        E 36 90 3e 00
        E 61 90 45 00
        E 16 90 2d 00
        E 0 90 2d 3a
        E 0 90 3e 42
        E 0 90 45 37
        E 76 90 43 31
        E 5 90 3e 00
        E 0 90 3e 3e
        E 82 90 45 00
        E 46 90 3e 00
        E 10 90 43 00
        E 97 90 3c 00
        E 133 90 2d 00
        E 116 b0 7b 00
        CCINTERP 32
        CHASE_CC_TAKEOFFS 1
        GUID {6D57FD42-2977-4C7F-B49E-1FA12412EE29}
        IGNTEMPO 0 120 4 4
        SRCCOLOR 221
      >
    >
  >
  <UINF 120
    <ITEM {3DFA5932-A37A-41E9-8BC6-6129A918E445}
      POSITION 0
      SNAPOFFS 0
      LENGTH 166.52947916666668
      LOOP 1
      ALLTAKES 0
      FADEIN 1 0.001 0 1 0 0 0
      FADEOUT 1 0.001 0 1 0 0 0
      MUTE 0 0
      SEL 1
      IGUID {3DFA5932-A37A-41E9-8BC6-6129A918E445}
      IID 135
      NAME MIDI-Unprocessed_Recital1-3_MID--AUDIO_03_R1_2018_wav--5.wav
      VOLPAN 1 0 1 -1
      SOFFS 0
      PLAYRATE 1 1 0 -1 0 0.0025
      CHANMODE 0
      GUID {C8E2DC59-41A5-4D3A-BC46-DB4B05BFF4A0}
      <SOURCE WAVE
        FILE "C:\_AlexFiles\Coding\Python\FALL2023_IndependentStudy\audio_to_midi_vst\independent_study\model_predictions\_test_audio\MIDI-Unprocessed_Recital1-3_MID--AUDIO_03_R1_2018_wav--5.wav"
      >
    >
  >
  <UINF 121
    <ITEM {3DFA5932-A37A-41E9-8BC6-6129A918E445}
      POSITION 0
      SNAPOFFS 0
      LENGTH 166.52947916666668
      LOOP 1
      ALLTAKES 0
      FADEIN 1 0.001 0 1 0 0 0
      FADEOUT 1 0.001 0 1 0 0 0
      MUTE 0 0
      SEL 0
      IGUID {3DFA5932-A37A-41E9-8BC6-6129A918E445}
      IID 135
      NAME MIDI-Unprocessed_Recital1-3_MID--AUDIO_03_R1_2018_wav--5.wav
      VOLPAN 1 0 1 -1
      SOFFS 0
      PLAYRATE 1 1 0 -1 0 0.0025
      CHANMODE 0
      GUID {C8E2DC59-41A5-4D3A-BC46-DB4B05BFF4A0}
      <SOURCE WAVE
        FILE "C:\_AlexFiles\Coding\Python\FALL2023_IndependentStudy\audio_to_midi_vst\independent_study\model_predictions\_test_audio\MIDI-Unprocessed_Recital1-3_MID--AUDIO_03_R1_2018_wav--5.wav"
      >
    >
  >
  <UINF 122
    <ITEM {A0D1E0BF-9E6C-4B21-ABFA-25CB703BB497}
      POSITION 0
      SNAPOFFS 0
      LENGTH 165.5
      LOOP 1
      ALLTAKES 0
      FADEIN 1 0 0 1 0 0 0
      FADEOUT 1 0 0 1 0 0 0
      MUTE 0 0
      SEL 1
      IGUID {A0D1E0BF-9E6C-4B21-ABFA-25CB703BB497}
      IID 136
      NAME MIDI-Unprocessed_Recital1-3_MID--AUDIO_03_R1_2018_wav--5_basic_pitch.mid
      VOLPAN 1 0 1 -1
      SOFFS 0 0
      PLAYRATE 1 1 0 -1 0 0.0025
      CHANMODE 0
      GUID {354B6A63-6DF2-4BEB-894C-EA7C2B1251D0}
      <SOURCE MIDI
        HASDATA 1 220 QN
        CCINTERP 32
        POOLEDEVTS {3F4AF227-B470-481B-94D7-532758C214E8}
        E 0 c0 04 00
        E 419 90 1c 22
        E 15 90 28 29
        E 10 90 2f 2e
        E 67 90 23 23
        E 5 90 37 28
        E 0 90 3b 20
        E 56 90 1c 00
        E 10 90 3b 00
        E 5 90 28 00
        E 6 90 2f 00
        E 5 90 37 00
        E 56 90 23 00
        E 31 e0 00 00
        E 0 90 37 28
        E 5 e0 00 00
        E 5 e0 55 6a
        E 5 e0 55 6a
        E 5 e0 55 6a
        E 5 e0 00 00
        E 5 e0 55 0a
        E 5 e0 55 0a
        E 6 e0 55 0a
        E 5 e0 55 0a
        E 5 e0 55 0a
        E 5 e0 55 0a
        E 5 e0 55 0a
        E 5 e0 55 0a
        E 5 e0 55 0a
        E 5 e0 55 0a
        E 5 e0 55 0a
        E 6 e0 55 0a
        E 5 e0 55 0a
        E 5 e0 55 0a
        E 5 e0 55 0a
        E 5 e0 55 0a
        E 5 e0 55 0a
        E 5 e0 55 0a
        E 5 e0 7f 7f
        E 6 e0 7f 7f
        E 5 e0 55 6a
        E 5 e0 00 00
        E 5 e0 00 00
        E 5 e0 00 00
        E 5 e0 55 0a
        E 5 e0 55 0a
        E 5 e0 55 0a
        E 6 e0 55 0a
        E 5 e0 55 0a
        E 5 e0 55 0a
        E 5 e0 55 0a
        E 5 e0 55 0a
        E 5 e0 55 0a
        E 5 e0 55 0a
        E 0 90 37 00
        E 394 e0 00 40
        E 0 90 2e 26
        E 5 e0 00 00
        E 6 e0 55 0a
        E 5 e0 55 0a
        E 6 e0 55 0a
        E 5 e0 55 0a
        E 6 e0 2b 15
        E 5 e0 55 0a
        E 6 e0 55 0a
        E 5 e0 2b 15
        E 6 e0 2b 15
        E 5 e0 2b 15
        E 6 e0 2b 15
        E 5 e0 2b 15
        E 0 90 28 24
        E 0 90 2e 00
        E 36 90 34 1f
        E 71 90 2f 23
        E 6 90 1c 21
        E 66 90 28 00
        E 0 90 34 00
        E 10 90 1c 00
        E 41 90 37 2b
        E 5 90 43 1b
        E 5 90 2f 00
        E 118 90 43 00
        E 97 90 37 00
        E 496 90 47 1b
        E 0 90 4a 1f
        E 5 90 34 26
        E 0 90 37 27
        E 41 90 28 29
        E 5 90 4f 2d
        E 5 90 40 2b
        E 5 90 43 25
        E 5 90 47 00
        E 0 90 4a 00
        E 5 90 37 00
        E 41 90 4f 00
        E 46 90 34 00
        E 0 90 40 00
        E 31 90 28 00
        E 56 90 43 00
        E 61 e0 55 6a
        E 0 90 37 26
        E 6 e0 55 0a
        E 5 e0 55 0a
        E 5 e0 55 0a
        E 5 e0 55 0a
        E 5 e0 55 0a
        E 5 e0 55 0a
        E 5 e0 55 0a
        E 5 e0 55 0a
        E 6 e0 55 0a
        E 5 e0 55 0a
        E 5 e0 55 0a
        E 5 e0 55 0a
        E 5 e0 55 0a
        E 5 e0 55 0a
        E 5 e0 55 0a
        E 5 e0 55 0a
        E 5 e0 55 0a
        E 6 e0 55 0a
        E 5 e0 55 0a
        E 5 e0 55 0a
        E 5 e0 55 0a
        E 5 e0 55 0a
        E 5 e0 55 0a
        E 5 e0 55 0a
        E 5 e0 00 00
        E 6 e0 00 00
        E 5 e0 00 00
        E 5 e0 55 0a
        E 5 e0 55 0a
        E 5 e0 55 0a
        E 5 e0 55 0a
        E 5 e0 55 0a
        E 5 e0 55 0a
        E 6 e0 55 0a
        E 5 e0 55 0a
        E 5 e0 55 0a
        E 5 e0 55 0a
        E 5 e0 55 0a
        E 5 e0 55 0a
        E 5 e0 55 0a
        E 5 e0 55 0a
        E 6 e0 55 0a
        E 0 90 37 00
        E 229 e0 2b 75
        E 0 90 37 19
        E 6 e0 55 6a
        E 5 e0 55 6a
        E 5 e0 55 6a
        E 6 e0 2b 15
        E 5 e0 2b 15
        E 5 e0 55 6a
        E 6 e0 55 6a
        E 5 e0 00 60
        E 5 e0 00 60
        E 6 e0 55 0a
        E 5 e0 2b 75
        E 5 e0 2b 75
        E 6 e0 2b 75
        E 5 e0 2b 75
        E 5 e0 2b 75
        E 6 e0 2b 75
        E 5 e0 2b 75
        E 5 e0 2b 75
        E 6 e0 55 6a
        E 5 e0 2b 75
        E 5 e0 2b 75
        E 6 e0 2b 75
        E 5 e0 55 0a
        E 0 90 37 00
        E 61 90 2e 20
        E 51 90 28 24
        E 11 90 2e 00
        E 35 90 43 26
        E 118 90 40 19
        E 41 90 28 00
        E 16 90 43 00
        E 51 90 37 25
        E 10 90 40 00
        E 235 90 37 00
        E 449 90 47 1b
        E 57 90 43 25
        E 5 90 47 00
        E 67 90 40 1c
        E 15 90 37 29
        E 5 90 28 22
        E 77 90 40 00
        E 10 90 28 00
        E 15 90 37 00
        E 0 90 43 00
        E 72 e0 7f 7f
        E 0 90 37 27
        E 5 e0 7f 7f
        E 5 e0 7f 7f
        E 6 e0 2b 75
        E 5 e0 2b 75
        E 5 e0 2b 75
        E 6 e0 55 0a
        E 5 e0 55 0a
        E 5 e0 55 0a
        E 6 e0 55 0a
        E 5 e0 55 0a
        E 5 e0 55 0a
        E 6 e0 55 0a
        E 5 e0 55 6a
        E 5 e0 55 6a
        E 6 e0 55 6a
        E 5 e0 55 0a
        E 5 e0 55 0a
        E 6 e0 55 0a
        E 5 e0 55 0a
        E 5 e0 2b 15
        E 6 e0 55 0a
        E 5 e0 55 0a
        E 5 e0 55 0a
        E 0 90 37 00
        E 67 90 3b 22
        E 5 90 2f 27
        E 0 90 4a 2a
        E 51 90 28 26
        E 5 90 47 21
        E 15 90 4a 00
        E 62 90 2f 00
        E 30 90 3b 00
        E 0 90 47 00
        E 11 90 28 00
        E 112 90 34 20
        E 10 90 40 1f
        E 0 90 4c 14
        E 72 90 34 00
        E 0 90 4c 00
        E 5 90 40 00
        E 66 90 34 20
        E 5 90 2d 21
        E 0 90 40 1d
        E 113 90 34 00
        E 46 90 3c 2b
        E 11 90 40 00
        E 5 90 2d 00
        E 61 90 3c 00
        E 71 90 28 28
        E 6 90 1c 2c
        E 0 90 2f 22
        E 5 90 43 29
        E 66 90 1c 00
        E 5 90 2f 00
        E 41 90 43 00
        E 77 90 28 00
        E 61 e0 7f 7f
        E 0 90 37 29
        E 5 e0 00 00
        E 5 e0 00 00
        E 6 e0 00 00
        E 5 e0 55 0a
        E 5 e0 55 0a
        E 5 e0 55 0a
        E 6 e0 55 0a
        E 5 e0 55 0a
        E 5 e0 55 0a
        E 5 e0 55 0a
        E 6 e0 55 0a
        E 5 e0 55 0a
        E 5 e0 55 0a
        E 5 e0 55 0a
        E 6 e0 55 0a
        E 5 e0 55 0a
        E 5 e0 55 0a
        E 5 e0 55 0a
        E 6 e0 55 0a
        E 5 e0 55 0a
        E 5 e0 55 0a
        E 5 e0 55 0a
        E 6 e0 55 0a
        E 5 e0 55 0a
        E 5 e0 55 0a
        E 5 e0 55 0a
        E 6 e0 00 00
        E 5 e0 00 00
        E 5 e0 00 00
        E 5 e0 00 00
        E 6 e0 00 00
        E 5 e0 55 6a
        E 5 e0 55 6a
        E 5 e0 00 00
        E 6 e0 55 0a
        E 5 e0 55 0a
        E 0 90 37 00
        E 450 e0 00 20
        E 0 90 34 1e
        E 6 e0 00 20
        E 5 e0 00 20
        E 6 e0 00 20
        E 5 e0 00 20
        E 5 e0 00 20
        E 6 e0 00 20
        E 5 e0 55 6a
        E 6 e0 55 6a
        E 5 e0 00 20
        E 6 e0 00 20
        E 5 e0 00 20
        E 6 e0 00 20
        E 5 e0 00 20
        E 6 e0 00 20
        E 0 90 34 00
        E 51 90 2d 28
        E 51 90 3c 33
        E 5 90 43 27
        E 5 90 2d 00
        E 51 90 3c 00
        E 5 90 43 00
        E 491 90 23 2c
        E 16 90 2f 29
        E 5 90 3f 38
        E 30 90 45 1f
        E 36 90 3f 00
        E 31 90 45 00
        E 41 90 23 00
        E 0 90 2f 00
        E 168 e0 55 2a
        E 0 90 3b 1f
        E 6 e0 00 20
        E 5 e0 00 20
        E 6 e0 00 20
        E 5 e0 00 20
        E 6 e0 00 20
        E 6 e0 00 20
        E 5 e0 00 20
        E 6 e0 00 20
        E 5 e0 00 20
        E 6 e0 00 20
        E 6 e0 00 20
        E 0 90 3b 00
        E 148 90 39 1c
        E 0 90 4c 1c
        E 66 90 4c 00
        E 51 90 39 00
        E 41 90 28 2f
        E 47 90 37 27
        E 10 90 28 00
        E 189 90 40 14
        E 61 90 40 00
        E 97 90 2b 16
        E 0 90 3f 27
        E 5 90 43 28
        E 56 90 2b 00
        E 6 90 43 00
        E 5 90 37 00
        E 0 90 3f 00
        E 30 e0 55 0a
        E 0 90 3e 1d
        E 6 e0 2b 15
        E 5 e0 00 20
        E 6 e0 00 20
        E 5 e0 00 20
        E 6 e0 00 20
        E 5 e0 00 20
        E 5 e0 00 20
        E 6 e0 00 20
        E 5 e0 00 20
        E 6 e0 00 20
        E 5 e0 00 20
        E 6 e0 00 20
        E 5 e0 2b 15
        E 6 e0 55 0a
        E 5 e0 55 0a
        E 0 90 3e 00
        E 379 90 28 23
        E 56 90 2f 26
        E 51 90 43 1f
        E 117 90 37 23
        E 5 90 28 00
        E 0 90 2f 00
        E 67 90 43 00
        E 143 90 37 00
        E 527 90 4f 25
        E 5 90 43 28
        E 66 90 4f 00
        E 138 90 43 00
        E 51 90 37 29
        E 5 90 43 29
        E 92 90 4b 17
        E 36 90 43 00
        E 41 90 4b 00
        E 46 90 37 00
        E 128 e0 00 60
        E 0 90 40 25
        E 5 e0 00 60
        E 6 e0 00 60
        E 5 e0 00 60
        E 6 e0 00 60
        E 5 e0 00 60
        E 6 e0 55 6a
        E 6 e0 55 6a
        E 5 e0 55 6a
        E 6 e0 55 6a
        E 5 e0 55 6a
        E 6 e0 55 6a
        E 0 90 40 00
        E 20 e0 55 6a
        E 0 90 48 15
        E 5 e0 55 6a
        E 6 e0 00 20
        E 5 e0 00 20
        E 5 e0 00 20
        E 5 e0 00 20
        E 5 e0 00 20
        E 5 e0 00 20
        E 6 e0 00 20
        E 5 e0 00 20
        E 5 e0 00 20
        E 5 e0 00 20
        E 5 e0 00 20
        E 0 90 48 00
        E 199 90 28 27
        E 6 90 43 25
        E 10 90 40 24
        E 92 90 28 00
        E 0 90 40 00
        E 35 90 43 00
        E 82 90 43 26
        E 41 90 37 26
        E 26 90 43 00
        E 92 90 43 2c
        E 61 90 43 00
        E 92 90 37 00
        E 138 e0 2b 35
        E 0 90 3c 1e
        E 6 e0 2b 15
        E 5 e0 2b 15
        E 6 e0 2b 15
        E 5 e0 00 20
        E 6 e0 00 20
        E 5 e0 00 20
        E 5 e0 00 20
        E 6 e0 00 20
        E 5 e0 00 20
        E 6 e0 00 20
        E 5 e0 00 20
        E 6 e0 00 20
        E 5 e0 00 20
        E 6 e0 00 20
        E 5 e0 00 20
        E 0 90 3c 00
        E 102 e0 00 00
        E 0 90 2e 24
        E 6 e0 00 00
        E 5 e0 00 00
        E 6 e0 55 0a
        E 5 e0 55 0a
        E 6 e0 55 0a
        E 5 e0 55 0a
        E 6 e0 55 0a
        E 5 e0 55 0a
        E 6 e0 2b 15
        E 6 e0 2b 15
        E 5 e0 2b 15
        E 6 e0 2b 15
        E 0 90 2e 00
        E 51 90 28 27
        E 20 90 34 25
        E 5 90 43 25
        E 118 90 28 00
        E 0 90 34 00
        E 10 90 43 00
        E 143 90 37 24
        E 10 90 40 1a
        E 77 90 40 00
        E 51 90 37 00
        E 41 90 24 1f
        E 10 90 45 38
        E 52 90 24 00
        E 5 90 45 00
        E 46 90 28 2a
        E 5 90 2f 24
        E 5 90 1c 21
        E 82 90 2f 00
        E 10 90 1c 00
        E 25 90 28 00
        E 200 e0 00 20
        E 0 90 26 29
        E 5 e0 00 20
        E 5 e0 00 20
        E 6 e0 00 20
        E 5 e0 00 20
        E 6 e0 00 20
        E 5 e0 00 20
        E 6 e0 00 20
        E 5 e0 2b 15
        E 5 e0 2b 15
        E 6 e0 2b 15
        E 5 e0 2b 15
        E 6 e0 00 20
        E 5 e0 00 20
        E 6 e0 00 20
        E 5 e0 00 20
        E 5 e0 00 20
        E 0 90 26 00
        E 307 90 1f 20
        E 5 90 2b 39
        E 5 90 37 30
        E 56 90 1f 00
        E 11 90 2b 00
        E 5 90 37 00
        E 46 90 2b 1f
        E 10 90 47 17
        E 57 90 32 22
        E 15 90 2b 00
        E 46 90 32 00
        E 51 90 47 00
        E 51 90 3e 19
        E 31 90 42 24
        E 5 90 36 21
        E 61 90 3e 00
        E 5 90 36 00
        E 0 90 42 00
        E 51 90 37 21
        E 200 90 2b 1e
        E 15 90 37 00
        E 66 90 2b 00
        E 272 90 2d 2d
        E 0 90 48 2e
        E 15 90 24 1e
        E 15 90 3c 33
        E 51 90 48 00
        E 21 90 24 00
        E 0 90 2d 00
        E 0 90 3c 00
        E 403 90 37 20
        E 92 90 3f 2f
        E 5 90 23 28
        E 0 90 2f 34
        E 6 90 37 00
        E 56 90 2f 00
        E 30 90 3f 00
        E 83 90 23 00
        E 168 e0 00 20
        E 0 90 45 1a
        E 6 e0 00 20
        E 5 e0 55 6a
        E 5 e0 55 6a
        E 6 e0 55 6a
        E 5 e0 00 60
        E 5 e0 00 60
        E 6 e0 00 60
        E 5 e0 00 60
        E 6 e0 00 60
        E 5 e0 00 20
        E 5 e0 00 20
        E 6 e0 00 20
        E 5 e0 00 20
        E 5 e0 00 60
        E 6 e0 00 60
        E 5 e0 00 60
        E 5 e0 00 60
        E 6 e0 00 60
        E 5 e0 00 60
        E 6 e0 00 20
        E 0 90 45 00
        E 86 90 2a 15
        E 0 90 45 1d
        E 5 90 2d 27
        E 0 90 51 10
        E 6 90 39 23
        E 0 90 4c 26
        E 56 90 2a 00
        E 0 90 45 00
        E 5 90 2d 00
        E 0 90 51 00
        E 5 90 4c 00
        E 5 90 39 00
        E 113 90 1c 25
        E 0 90 34 2d
        E 5 90 40 2c
        E 0 90 43 22
        E 5 90 28 2b
        E 0 90 37 1b
        E 66 90 1c 00
        E 0 90 34 00
        E 0 90 37 00
        E 31 90 40 00
        E 36 90 28 00
        E 0 90 43 00
        E 358 90 37 25
        E 5 90 4a 25
        E 5 90 3e 27
        E 71 90 3e 00
        E 6 90 4a 00
        E 91 90 3c 27
        E 11 90 37 00
        E 56 90 3c 00
        E 71 90 34 19
        E 87 90 37 26
        E 72 90 34 00
        E 112 90 4a 14
        E 5 90 3e 22
        E 0 90 4f 1b
        E 56 90 4a 00
        E 6 90 4f 00
        E 5 90 3e 00
        E 56 90 37 00
        E 108 90 3b 25
        E 0 90 47 2a
        E 61 90 3b 00
        E 0 90 47 00
        E 107 90 28 26
        E 0 90 34 1f
        E 128 90 28 00
        E 0 90 34 00
        E 133 90 28 25
        E 5 90 47 2c
        E 5 90 3b 1c
        E 56 90 47 00
        E 67 90 3b 00
        E 225 90 40 1f
        E 71 90 43 2c
        E 6 90 40 00
        E 51 90 28 00
        E 5 90 43 00
        E 76 90 28 22
        E 0 90 41 23
        E 0 90 48 22
        E 41 90 30 20
        E 10 90 3c 27
        E 26 90 28 00
        E 5 90 41 00
        E 36 90 30 00
        E 102 90 3c 00
        E 36 90 48 00
        E 36 90 30 1a
        E 5 90 40 27
        E 46 90 23 25
        E 10 90 30 00
        E 25 90 40 00
        E 82 90 23 00
        E 292 90 28 1a
        E 0 90 40 2b
        E 5 90 43 22
        E 51 90 37 26
        E 15 90 28 00
        E 6 90 40 00
        E 0 90 43 00
        E 413 90 3e 22
        E 62 90 3e 00
        E 56 90 37 00
        E 5 90 37 24
        E 128 90 4a 16
        E 102 90 4a 00
        E 41 90 37 00
        E 41 e0 00 20
        E 0 90 28 28
        E 6 e0 00 20
        E 5 e0 00 20
        E 6 e0 00 20
        E 5 e0 00 20
        E 6 e0 00 20
        E 5 e0 00 20
        E 6 e0 00 20
        E 5 e0 00 20
        E 6 e0 00 20
        E 5 e0 00 20
        E 6 e0 00 20
        E 5 e0 00 20
        E 6 e0 00 20
        E 0 90 28 00
        E 66 90 28 23
        E 31 90 30 23
        E 122 90 28 00
        E 46 90 30 00
        E 87 90 28 26
        E 0 90 34 23
        E 92 90 30 22
        E 82 90 34 00
        E 0 90 47 1b
        E 66 90 47 00
        E 37 90 34 23
        E 15 90 28 00
        E 66 90 40 1e
        E 36 90 28 28
        E 128 90 28 00
        E 0 90 30 00
        E 0 90 34 00
        E 0 90 40 00
        E 184 90 24 1e
        E 35 90 30 26
        E 11 90 3c 29
        E 20 90 24 00
        E 77 90 3c 00
        E 25 90 30 00
        E 225 90 2a 1f
        E 0 90 36 21
        E 108 90 2a 00
        E 0 90 36 00
        E 82 90 33 23
        E 5 90 30 24
        E 51 90 36 1d
        E 10 90 23 19
        E 0 90 3f 1b
        E 5 90 33 00
        E 66 90 3f 00
        E 6 90 23 00
        E 0 90 36 00
        E 25 90 30 00
        E 21 90 28 29
        E 20 90 34 1d
        E 77 90 34 00
        E 10 90 28 00
        E 0 90 2f 24
        E 66 90 23 21
        E 62 90 23 00
        E 5 90 2f 00
        E 30 90 37 27
        E 41 90 3b 17
        E 67 90 3b 00
        E 97 e0 2b 15
        E 0 90 32 24
        E 0 90 37 00
        E 5 e0 2b 15
        E 5 e0 2b 15
        E 5 e0 2b 15
        E 5 e0 2b 15
        E 5 e0 2b 15
        E 6 e0 2b 15
        E 5 e0 2b 15
        E 5 e0 00 20
        E 5 e0 00 20
        E 5 e0 00 20
        E 5 e0 00 20
        E 5 e0 2b 15
        E 6 e0 2b 15
        E 5 e0 2b 15
        E 5 e0 2b 15
        E 0 90 32 00
        E 36 90 3d 23
        E 5 90 31 29
        E 66 90 3d 00
        E 5 90 31 00
        E 36 90 30 26
        E 0 90 3c 23
        E 77 90 30 00
        E 0 90 3c 00
        E 194 e0 00 00
        E 0 90 2f 2a
        E 5 e0 55 6a
        E 5 e0 55 6a
        E 6 e0 55 6a
        E 5 e0 55 6a
        E 5 e0 55 6a
        E 5 e0 55 6a
        E 6 e0 55 6a
        E 5 e0 55 6a
        E 5 e0 55 6a
        E 6 e0 55 6a
        E 5 e0 55 6a
        E 5 e0 55 6a
        E 6 e0 55 6a
        E 5 e0 55 6a
        E 5 e0 00 00
        E 5 e0 00 00
        E 6 e0 55 0a
        E 5 e0 55 0a
        E 5 e0 55 0a
        E 6 e0 55 0a
        E 5 e0 55 0a
        E 5 e0 55 0a
        E 6 e0 00 00
        E 5 e0 00 00
        E 5 e0 55 0a
        E 5 e0 55 0a
        E 6 e0 2b 15
        E 0 90 2f 00
        E 92 90 28 1d
        E 5 90 2f 23
        E 71 90 43 24
        E 5 90 37 26
        E 6 90 28 00
        E 46 90 2f 00
        E 45 90 43 00
        E 88 90 34 24
        E 71 90 34 00
        E 133 90 37 00
        E 0 90 37 33
        E 0 90 43 20
        E 21 90 40 20
        E 5 90 3b 24
        E 76 90 43 00
        E 6 90 37 00
        E 0 90 3b 00
        E 51 90 32 37
        E 10 90 3e 2c
        E 0 90 40 00
        E 56 90 32 00
        E 5 90 3e 00
        E 179 90 3b 27
        E 5 90 43 27
        E 5 90 47 24
        E 72 90 43 00
        E 5 90 3b 00
        E 0 90 47 00
        E 118 90 3c 29
        E 15 90 33 37
        E 61 90 3c 00
        E 6 90 33 00
        E 51 90 40 28
        E 15 90 37 2f
        E 5 90 2b 29
        E 61 90 34 29
        E 21 90 40 00
        E 5 90 2b 00
        E 0 90 37 00
        E 97 90 34 00
        E 82 90 2e 1c
        E 5 90 34 24
        E 15 90 40 1a
        E 36 90 3e 2c
        E 10 90 2e 00
        E 56 90 40 00
        E 5 90 3e 00
        E 62 90 2d 25
        E 5 90 48 2c
        E 10 90 34 00
        E 46 90 2d 00
        E 10 90 48 00
        E 174 90 3c 1f
        E 5 90 42 24
        E 52 90 3c 00
        E 41 90 42 00
        E 61 90 43 2b
        E 5 90 2d 1f
        E 77 90 43 00
        E 40 90 2d 00
        E 0 90 40 1d
        E 36 90 39 21
        E 61 90 40 00
        E 6 90 3b 21
        E 15 90 39 00
        E 51 90 2f 35
        E 5 90 3f 21
        E 0 90 42 2d
        E 10 90 3b 00
        E 51 90 2f 00
        E 16 90 42 00
        E 35 90 30 21
        E 21 90 3f 00
        E 25 90 24 25
        E 108 90 24 00
        E 5 90 3c 28
        E 0 90 40 22
        E 0 90 48 1e
        E 143 90 40 00
        E 0 90 48 00
        E 31 90 3c 00
        E 0 90 3c 26
        E 5 90 30 00
        E 26 90 45 1c
        E 51 90 38 22
        E 51 90 42 31
        E 10 90 3f 24
        E 10 90 38 00
        E 5 90 45 00
        E 46 90 42 00
        E 26 90 30 23
        E 5 90 3c 00
        E 26 90 24 2a
        E 15 90 43 32
        E 20 90 3f 00
        E 46 90 37 29
        E 26 90 43 00
        E 20 90 48 1f
        E 5 90 24 00
        E 0 90 3c 20
        E 87 90 30 00
        E 5 90 48 00
        E 26 90 37 00
        E 10 90 2b 1a
        E 51 90 38 29
        E 10 90 2b 00
        E 0 90 44 35
        E 16 90 3c 00
        E 46 90 44 00
        E 10 90 2c 1d
        E 61 90 3c 28
        E 0 90 48 2f
        E 62 90 2c 00
        E 5 90 48 00
        E 5 90 3c 00
        E 20 90 44 24
        E 41 90 38 00
        E 5 90 38 20
        E 37 90 42 14
        E 10 90 44 00
        E 56 90 42 00
        E 25 90 3c 27
        E 6 90 48 25
        E 56 90 38 00
        E 250 90 48 00
        E 31 90 44 1c
        E 5 90 38 25
        E 71 90 44 00
        E 57 90 38 00
        E 61 90 3c 00
        E 31 90 42 22
        E 5 90 36 25
        E 76 90 36 00
        E 0 90 42 00
        E 251 90 34 25
        E 0 90 47 27
        E 72 90 34 00
        E 20 90 2d 24
        E 31 90 47 00
        E 30 90 39 27
        E 11 90 48 29
        E 66 90 2d 00
        E 10 90 35 1f
        E 36 90 3c 26
        E 5 90 39 00
        E 31 90 35 00
        E 148 90 38 28
        E 5 90 3c 00
        E 15 90 44 24
        E 46 90 48 00
        E 41 90 28 19
        E 5 90 44 00
        E 10 90 38 00
        E 52 90 28 00
        E 56 90 36 21
        E 5 90 2d 20
        E 0 90 42 20
        E 77 90 42 00
        E 41 90 36 00
        E 41 90 2d 00
        E 383 e0 2b 15
        E 0 90 2d 23
        E 5 e0 2b 15
        E 6 e0 2b 15
        E 5 e0 2b 15
        E 6 e0 2b 15
        E 5 e0 2b 15
        E 5 e0 2b 15
        E 6 e0 2b 15
        E 5 e0 2b 15
        E 6 e0 2b 15
        E 5 e0 2b 15
        E 6 e0 2b 15
        E 5 e0 2b 15
        E 5 e0 2b 15
        E 6 e0 55 6a
        E 5 e0 55 6a
        E 6 e0 55 6a
        E 0 90 2d 00
        E 281 90 3e 2a
        E 5 90 39 1b
        E 72 90 39 00
        E 15 90 3e 00
        E 108 90 40 23
        E 0 90 43 34
        E 61 90 40 00
        E 5 90 43 00
        E 97 e0 00 20
        E 0 90 3e 2b
        E 6 e0 00 20
        E 5 e0 00 20
        E 6 e0 00 20
        E 5 e0 00 20
        E 6 e0 00 20
        E 5 e0 00 20
        E 6 e0 00 20
        E 5 e0 00 20
        E 6 e0 00 20
        E 5 e0 00 20
        E 6 e0 00 20
        E 5 e0 00 20
        E 0 90 3e 00
        E 62 90 40 2b
        E 46 90 2b 14
        E 10 90 3e 25
        E 5 90 40 00
        E 56 90 2b 00
        E 16 90 3e 00
        E 296 90 2b 26
        E 11 90 37 20
        E 153 90 2b 00
        E 30 90 37 00
        E 113 e0 55 0a
        E 0 90 3c 2c
        E 5 e0 55 0a
        E 6 e0 55 0a
        E 6 e0 55 0a
        E 5 e0 2b 15
        E 6 e0 2b 15
        E 5 e0 2b 15
        E 6 e0 2b 15
        E 5 e0 2b 15
        E 6 e0 55 0a
        E 6 e0 55 0a
        E 5 e0 55 0a
        E 0 90 3c 00
        E 21 90 32 25
        E 10 90 3e 1d
        E 46 90 42 2b
        E 30 90 32 00
        E 0 90 3e 00
        E 46 90 42 00
        E 72 90 3c 20
        E 123 90 47 17
        E 66 90 3c 00
        E 0 90 47 00
        E 52 e0 2b 55
        E 0 90 2d 23
        E 5 e0 2b 55
        E 5 e0 2b 15
        E 6 e0 2b 15
        E 5 e0 2b 15
        E 5 e0 2b 15
        E 6 e0 2b 15
        E 5 e0 2b 15
        E 5 e0 2b 15
        E 6 e0 2b 15
        E 5 e0 2b 15
        E 5 e0 2b 15
        E 6 e0 2b 15
        E 5 e0 2b 15
        E 5 e0 00 20
        E 6 e0 00 20
        E 5 e0 00 20
        E 5 e0 00 20
        E 6 e0 00 20
        E 5 e0 00 20
        E 5 e0 00 20
        E 6 e0 00 20
        E 5 e0 00 20
        E 0 90 2d 00
        E 358 90 30 22
        E 5 90 2d 1d
        E 5 90 39 22
        E 31 90 34 24
        E 5 90 40 2d
        E 61 90 40 00
        E 0 90 40 23
        E 5 90 2d 00
        E 0 90 30 00
        E 5 90 39 00
        E 31 90 34 00
        E 92 90 23 28
        E 20 90 2f 2a
        E 16 90 40 00
        E 35 90 39 20
        E 16 90 2f 00
        E 10 90 23 00
        E 5 90 4b 21
        E 10 90 3f 24
        E 5 90 45 1a
        E 36 90 39 00
        E 0 90 43 21
        E 6 90 4b 00
        E 41 90 45 00
        E 10 90 3f 00
        E 5 90 39 21
        E 51 90 3c 1e
        E 5 90 30 2e
        E 15 90 43 00
        E 21 90 2d 22
        E 82 90 43 2b
        E 10 90 2d 00
        E 41 90 30 00
        E 5 90 39 00
        E 0 90 3c 00
        E 10 90 43 00
        E 66 90 45 25
        E 41 90 39 25
        E 41 90 23 21
        E 46 90 2f 20
        E 0 90 36 27
        E 10 90 42 27
        E 11 90 45 00
        E 40 90 23 00
        E 6 90 2f 00
        E 0 90 36 00
        E 30 90 45 13
        E 5 90 39 00
        E 5 90 42 00
        E 62 90 45 00
        E 71 90 32 37
        E 0 90 3e 3f
        E 56 90 41 27
        E 0 90 4d 29
        E 5 90 32 00
        E 0 90 3e 00
        E 0 90 3e 20
        E 0 90 4a 1d
        E 52 90 39 20
        E 10 90 4a 00
        E 15 90 4d 00
        E 36 90 4d 2b
        E 6 90 39 00
        E 46 90 44 1e
        E 15 90 4d 00
        E 15 90 3e 00
        E 0 90 3e 29
        E 41 90 44 00
        E 5 90 44 1f
        E 21 90 3e 00
        E 5 90 41 00
        E 102 90 30 21
        E 15 90 44 00
        E 26 90 39 26
        E 46 90 32 1d
        E 5 90 41 2b
        E 5 90 3e 24
        E 36 90 4d 2c
        E 5 90 30 00
        E 5 90 39 00
        E 41 90 32 00
        E 15 90 3e 00
        E 0 90 41 00
        E 0 90 4d 00
        E 67 90 3e 23
        E 25 90 1c 21
        E 15 90 38 26
        E 46 90 1c 00
        E 0 90 3e 00
        E 5 90 3e 1c
        E 31 90 44 23
        E 87 90 44 00
        E 20 90 3e 00
        E 57 90 43 35
        E 20 90 38 00
        E 36 90 43 00
        E 26 90 30 23
        E 5 90 3c 24
        E 41 90 37 21
        E 0 90 40 27
        E 0 90 48 2b
        E 15 90 30 00
        E 36 90 2d 23
        E 15 90 48 00
        E 16 90 37 00
        E 0 90 40 00
        E 46 90 3f 18
        E 15 90 3c 00
        E 31 90 36 2d
        E 5 90 2d 00
        E 0 90 42 26
        E 10 90 3f 00
        E 10 90 3c 36
        E 56 90 3f 27
        E 0 90 42 00
        E 0 90 42 25
        E 10 90 3c 00
        E 62 90 36 00
        E 0 90 36 2b
        E 117 90 3b 3a
        E 5 90 47 35
        E 21 90 36 00
        E 25 90 4b 2c
        E 16 90 3b 00
        E 5 90 42 00
        E 0 90 47 00
        E 5 90 3f 00
        E 20 90 37 25
        E 36 90 4b 00
        E 56 90 2f 18
        E 0 90 3b 2d
        E 0 90 47 25
        E 5 90 4a 28
        E 11 90 37 00
        E 30 90 41 2d
        E 10 90 35 2e
        E 77 90 2f 00
        E 0 90 3b 00
        E 0 90 47 00
        E 5 90 41 00
        E 5 90 35 00
        E 0 90 4a 00
        E 57 90 35 1d
        E 15 90 3e 13
        E 62 90 2c 26
        E 0 90 38 26
        E 5 90 3e 00
        E 5 90 35 00
        E 0 90 3e 1c
        E 51 90 38 00
        E 41 90 34 25
        E 0 90 3b 21
        E 46 90 32 16
        E 0 90 38 27
        E 0 90 4a 33
        E 5 90 47 20
        E 10 90 34 00
        E 46 90 32 00
        E 0 90 4a 00
        E 5 90 3b 00
        E 0 90 3e 00
        E 5 90 2c 00
        E 0 90 38 00
        E 0 90 47 00
        E 97 90 34 23
        E 6 90 40 1c
        E 76 90 3d 28
        E 0 90 40 00
        E 5 90 40 25
        E 0 90 49 1f
        E 138 90 3d 00
        E 0 90 3d 28
        E 0 90 40 00
        E 0 90 40 28
        E 10 90 49 00
        E 51 90 2d 2d
        E 6 90 45 34
        E 5 90 39 33
        E 10 90 34 00
        E 46 90 2d 00
        E 5 90 45 00
        E 5 90 39 00
        E 0 90 3d 00
        E 0 90 40 00
        E 108 90 3c 20
        E 10 90 48 2d
        E 61 90 3c 00
        E 6 90 48 00
        E 25 90 39 26
        E 51 90 3c 2e
        E 26 90 39 00
        E 41 90 3c 00
        E 66 90 2b 29
        E 0 90 37 24
        E 26 90 34 22
        E 0 90 43 27
        E 5 90 47 21
        E 92 90 3b 28
        E 5 90 2b 00
        E 5 90 37 00
        E 0 90 43 00
        E 0 90 47 00
        E 36 90 40 1e
        E 30 90 28 1d
        E 21 90 3b 00
        E 20 90 46 27
        E 46 90 2e 2d
        E 5 90 37 24
        E 0 90 3a 24
        E 5 90 28 00
        E 0 90 43 32
        E 5 90 34 00
        E 6 90 40 00
        E 0 90 46 00
        E 51 90 43 00
        E 20 90 37 00
        E 112 90 34 1e
        E 6 90 2e 00
        E 0 90 3a 00
        E 56 90 34 00
        E 82 90 39 23
        E 41 90 2d 2d
        E 61 90 34 25
        E 10 90 2d 00
        E 0 90 39 00
        E 52 90 24 2e
        E 5 90 30 28
        E 5 90 38 26
        E 0 90 40 26
        E 5 90 44 2e
        E 5 90 34 00
        E 25 90 2c 2f
        E 21 90 20 1d
        E 5 90 30 00
        E 5 90 40 00
        E 0 90 44 00
        E 5 90 24 00
        E 51 90 2c 00
        E 11 90 20 00
        E 66 90 38 00
        E 163 90 37 23
        E 6 90 3a 1e
        E 97 90 3a 00
        E 15 90 43 1c
        E 51 90 2d 19
        E 5 90 37 00
        E 41 90 43 00
        E 20 90 2d 00
        E 32 e0 00 20
        E 0 90 3d 1c
        E 5 e0 00 20
        E 6 e0 00 20
        E 5 e0 00 20
        E 6 e0 00 20
        E 5 e0 00 20
        E 6 e0 00 20
        E 5 e0 00 20
        E 6 e0 00 20
        E 5 e0 00 20
        E 6 e0 00 20
        E 5 e0 00 20
        E 6 e0 00 20
        E 0 90 3d 00
        E 51 90 37 22
        E 46 90 24 21
        E 0 90 40 1c
        E 5 90 3c 21
        E 0 90 43 28
        E 21 90 37 00
        E 40 90 40 00
        E 6 90 24 00
        E 10 90 43 00
        E 51 90 3c 00
        E 10 90 37 22
        E 31 90 40 17
        E 102 90 40 00
        E 5 90 37 00
        E 327 90 43 1e
        E 5 90 3a 20
        E 56 90 43 00
        E 113 90 3a 00
        E 199 90 40 26
        E 31 90 1e 1f
        E 77 90 40 00
        E 5 90 1e 00
        E 128 90 40 1e
        E 56 90 4f 2e
        E 51 90 4c 2d
        E 36 90 4f 00
        E 30 90 4c 00
        E 5 90 40 00
        E 0 90 4b 23
        E 72 90 3f 1d
        E 5 90 4b 00
        E 0 90 4b 29
        E 61 90 3f 00
        E 21 90 4b 00
        E 16 90 4a 20
        E 35 90 36 1e
        E 16 90 2a 1a
        E 25 90 4a 00
        E 82 90 36 00
        E 5 90 2a 00
        E 659 90 46 1f
        E 41 90 2e 18
        E 72 90 2e 00
        E 41 e0 2b 75
        E 0 90 42 20
        E 0 90 46 00
        E 5 e0 2b 75
        E 6 e0 2b 75
        E 5 e0 00 20
        E 6 e0 00 20
        E 5 e0 00 20
        E 6 e0 00 20
        E 5 e0 55 6a
        E 6 e0 55 6a
        E 5 e0 2b 75
        E 6 e0 2b 75
        E 5 e0 7f 7f
        E 6 e0 7f 7f
        E 5 e0 7f 7f
        E 0 90 42 00
        E 36 90 45 1d
        E 5 90 39 25
        E 67 90 39 00
        E 81 90 45 00
        E 67 e0 00 60
        E 0 90 43 24
        E 5 e0 00 60
        E 6 e0 00 60
        E 5 e0 00 60
        E 5 e0 00 60
        E 6 e0 00 60
        E 5 e0 00 60
        E 5 e0 00 60
        E 6 e0 55 6a
        E 5 e0 55 6a
        E 5 e0 55 6a
        E 6 e0 00 60
        E 5 e0 00 60
        E 5 e0 00 60
        E 6 e0 00 60
        E 5 e0 00 60
        E 5 e0 00 60
        E 6 e0 00 60
        E 5 e0 00 60
        E 5 e0 00 60
        E 6 e0 00 60
        E 5 e0 55 6a
        E 0 90 43 00
        E 26 e0 00 00
        E 0 90 2f 28
        E 5 e0 00 00
        E 5 e0 00 00
        E 6 e0 00 00
        E 5 e0 7f 7f
        E 5 e0 7f 7f
        E 6 e0 2b 75
        E 5 e0 2b 75
        E 5 e0 7f 7f
        E 5 e0 7f 7f
        E 6 e0 7f 7f
        E 5 e0 7f 7f
        E 5 e0 7f 7f
        E 6 e0 2b 75
        E 5 e0 2b 75
        E 5 e0 2b 75
        E 6 e0 2b 75
        E 5 e0 2b 75
        E 5 e0 2b 75
        E 6 e0 2b 75
        E 5 e0 2b 75
        E 5 e0 7f 7f
        E 5 e0 7f 7f
        E 6 e0 7f 7f
        E 5 e0 7f 7f
        E 5 e0 7f 7f
        E 6 e0 7f 7f
        E 0 90 2f 00
        E 5 90 2f 27
        E 15 90 23 29
        E 200 90 2f 00
        E 0 90 2f 24
        E 41 90 23 00
        E 41 90 2f 00
        E 35 90 2e 26
        E 77 90 3a 1c
        E 123 90 2e 00
        E 40 90 3a 00
        E 424 90 37 27
        E 0 90 43 26
        E 6 90 3a 1d
        E 67 90 3a 00
        E 35 90 43 00
        E 97 90 4b 1b
        E 5 90 42 22
        E 11 90 37 00
        E 71 90 42 00
        E 41 90 43 28
        E 0 90 4b 00
        E 0 90 4f 29
        E 153 90 4f 00
        E 57 90 37 1c
        E 81 90 40 1c
        E 16 90 37 00
        E 40 90 43 00
        E 41 90 40 00
        E 82 90 2e 39
        E 0 90 34 28
        E 10 90 37 2c
        E 0 90 3a 3a
        E 51 90 34 00
        E 11 90 2e 00
        E 0 90 37 00
        E 5 90 3a 00
        E 67 90 37 24
        E 204 90 2f 24
        E 72 90 2f 00
        E 5 90 2f 24
        E 0 90 37 00
        E 25 90 26 24
        E 10 90 32 27
        E 72 90 32 00
        E 5 90 2f 00
        E 61 90 26 00
        E 41 90 3b 21
        E 36 90 27 28
        E 0 90 33 1b
        E 5 90 4f 18
        E 5 90 43 29
        E 36 90 37 24
        E 5 90 2e 26
        E 26 90 4f 00
        E 5 90 43 00
        E 30 90 33 00
        E 0 90 3b 00
        E 11 90 27 00
        E 25 90 37 00
        E 77 90 2e 00
        E 230 90 37 25
        E 158 90 2f 24
        E 11 90 46 16
        E 46 90 3e 1d
        E 20 90 2f 00
        E 0 90 46 00
        E 0 90 4f 32
        E 10 90 43 28
        E 51 90 3e 00
        E 21 90 43 00
        E 15 90 4f 00
        E 77 90 37 00
        E 0 90 43 26
        E 76 90 37 23
        E 6 90 40 27
        E 0 90 4f 31
        E 56 90 34 22
        E 71 90 37 00
        E 5 90 37 23
        E 0 90 43 00
        E 5 90 43 26
        E 6 90 34 00
        E 5 90 40 00
        E 5 90 4f 00
        E 56 90 37 00
        E 15 90 40 2a
        E 57 90 40 00
        E 179 90 2d 19
        E 10 90 37 24
        E 56 90 2d 00
        E 10 90 37 00
        E 62 90 37 2b
        E 20 90 43 00
        E 51 90 37 00
        E 36 90 24 27
        E 153 90 3c 33
        E 11 90 2b 2b
        E 5 90 37 2d
        E 51 90 3c 00
        E 20 90 2b 00
        E 26 90 24 00
        E 10 90 37 00
        E 66 e0 2b 15
        E 0 90 2b 29
        E 5 e0 2b 15
        E 6 e0 2b 15
        E 5 e0 2b 15
        E 5 e0 2b 15
        E 5 e0 2b 15
        E 5 e0 2b 15
        E 5 e0 2b 15
        E 6 e0 2b 15
        E 5 e0 2b 15
        E 5 e0 2b 15
        E 5 e0 2b 15
        E 5 e0 2b 15
        E 5 e0 2b 15
        E 0 90 2b 00
        E 46 90 30 1c
        E 62 90 4e 26
        E 5 90 30 00
        E 61 90 4e 00
        E 20 90 37 2e
        E 16 90 43 2c
        E 5 90 4f 2a
        E 82 90 30 26
        E 15 90 4f 00
        E 0 90 4f 26
        E 51 90 30 00
        E 5 90 37 00
        E 5 90 43 00
        E 0 90 4f 00
        E 26 90 3f 22
        E 5 90 4b 1e
        E 122 90 43 24
        E 0 90 4f 25
        E 36 90 4b 00
        E 16 90 37 1f
        E 10 90 3f 00
        E 5 90 43 00
        E 0 90 4f 00
        E 87 90 43 2a
        E 20 90 4f 21
        E 72 90 48 20
        E 30 90 37 00
        E 11 90 4f 00
        E 30 90 43 00
        E 31 90 48 00
        E 31 e0 55 6a
        E 0 90 43 24
        E 6 e0 55 6a
        E 5 e0 55 6a
        E 6 e0 2b 75
        E 5 e0 2b 75
        E 6 e0 55 6a
        E 5 e0 55 6a
        E 6 e0 55 6a
        E 6 e0 55 6a
        E 5 e0 55 6a
        E 6 e0 00 20
        E 5 e0 00 20
        E 0 90 43 00
        E 16 e0 00 60
        E 0 90 39 1d
        E 5 e0 55 2a
        E 6 e0 55 2a
        E 5 e0 55 2a
        E 6 e0 00 60
        E 5 e0 00 60
        E 6 e0 00 60
        E 5 e0 00 60
        E 6 e0 00 60
        E 5 e0 00 60
        E 6 e0 55 2a
        E 5 e0 55 2a
        E 6 e0 55 2a
        E 5 e0 55 2a
        E 0 90 39 00
        E 118 90 24 26
        E 87 90 37 2f
        E 66 90 24 00
        E 36 90 37 00
        E 87 90 30 1d
        E 0 90 37 23
        E 15 90 24 16
        E 46 90 3f 2e
        E 15 90 24 00
        E 5 90 30 00
        E 10 90 37 00
        E 31 90 3f 00
        E 41 90 24 28
        E 0 90 37 21
        E 10 90 43 2d
        E 51 90 24 00
        E 51 90 43 00
        E 57 90 4b 25
        E 15 90 37 00
        E 41 90 43 1d
        E 11 90 4b 00
        E 107 90 43 00
        E 189 90 43 22
        E 133 90 37 22
        E 97 90 43 00
        E 76 90 37 00
        E 399 90 43 1e
        E 26 90 30 23
        E 10 90 3c 1f
        E 41 90 34 21
        E 20 90 37 1e
        E 11 90 43 00
        E 41 90 30 00
        E 5 90 34 00
        E 5 90 37 00
        E 5 90 3c 00
        E 51 90 43 23
        E 66 90 3b 21
        E 41 90 43 00
        E 77 90 3b 00
        E 25 90 34 19
        E 97 90 40 1e
        E 0 90 43 1d
        E 52 90 34 00
        E 5 90 3e 25
        E 40 90 40 00
        E 42 90 3e 00
        E 82 90 37 17
        E 35 90 21 20
        E 6 90 2d 28
        E 30 90 37 00
        E 56 90 43 00
        E 77 90 21 00
        E 5 90 2d 00
        E 61 90 2e 28
        E 16 90 43 27
        E 76 90 22 25
        E 0 90 43 00
        E 46 90 2e 00
        E 21 90 22 00
        E 414 90 34 24
        E 15 90 28 29
        E 57 90 34 00
        E 15 90 1c 1e
        E 61 90 28 00
        E 82 90 28 1f
        E 71 90 43 27
        E 16 90 37 24
        E 41 90 1c 00
        E 5 90 28 00
        E 66 90 28 25
        E 10 90 43 00
        E 6 90 37 00
        E 61 90 3e 21
        E 5 90 28 00
        E 107 90 3e 00
        E 21 e0 7f 7f
        E 0 90 37 23
        E 5 e0 7f 7f
        E 5 e0 2b 75
        E 6 e0 2b 75
        E 5 e0 2b 75
        E 5 e0 2b 75
        E 6 e0 2b 75
        E 5 e0 2b 75
        E 5 e0 2b 75
        E 6 e0 2b 75
        E 5 e0 2b 75
        E 5 e0 2b 75
        E 5 e0 2b 75
        E 6 e0 2b 75
        E 5 e0 2b 75
        E 5 e0 2b 75
        E 6 e0 2b 75
        E 5 e0 7f 7f
        E 5 e0 7f 7f
        E 6 e0 7f 7f
        E 5 e0 7f 7f
        E 5 e0 7f 7f
        E 6 e0 7f 7f
        E 5 e0 7f 7f
        E 5 e0 7f 7f
        E 0 90 37 00
        E 149 90 28 27
        E 5 90 1c 29
        E 118 90 28 00
        E 5 90 1c 00
        E 158 90 28 20
        E 5 90 43 28
        E 62 90 28 00
        E 35 90 4b 1c
        E 46 90 43 00
        E 26 90 4b 00
        E 36 e0 00 20
        E 0 90 3e 20
        E 5 e0 00 20
        E 5 e0 00 20
        E 6 e0 00 20
        E 5 e0 00 20
        E 5 e0 00 20
        E 6 e0 00 20
        E 5 e0 00 20
        E 5 e0 00 20
        E 6 e0 00 20
        E 5 e0 00 20
        E 6 e0 00 20
        E 5 e0 00 20
        E 5 e0 00 20
        E 6 e0 00 20
        E 5 e0 00 20
        E 5 e0 00 20
        E 6 e0 00 20
        E 5 e0 00 20
        E 5 e0 2b 15
        E 6 e0 2b 15
        E 0 90 3e 00
        E 15 e0 00 00
        E 0 90 37 2e
        E 6 e0 00 00
        E 5 e0 00 00
        E 6 e0 00 00
        E 5 e0 55 0a
        E 6 e0 55 0a
        E 6 e0 55 0a
        E 5 e0 55 0a
        E 6 e0 2b 15
        E 5 e0 2b 75
        E 6 e0 2b 75
        E 5 e0 7f 7f
        E 0 90 37 00
        E 323 90 34 23
        E 10 90 43 22
        E 82 90 28 1f
        E 0 90 34 00
        E 46 90 2f 23
        E 0 90 37 27
        E 10 90 3b 17
        E 72 90 3b 00
        E 5 90 28 00
        E 5 90 2f 00
        E 30 90 40 19
        E 16 90 37 00
        E 46 90 43 00
        E 30 90 2f 1e
        E 11 90 40 00
        E 15 90 4f 1f
        E 41 90 2f 00
        E 0 90 43 24
        E 30 90 37 29
        E 41 90 4f 00
        E 41 90 37 00
        E 5 90 43 00
        E 297 e0 00 40
        E 0 90 47 2d
        E 6 e0 00 40
        E 5 e0 2b 55
        E 6 e0 00 20
        E 5 e0 00 20
        E 6 e0 00 20
        E 5 e0 00 20
        E 6 e0 00 20
        E 5 e0 00 20
        E 6 e0 00 20
        E 5 e0 00 20
        E 6 e0 00 20
        E 6 e0 55 2a
        E 0 90 40 1d
        E 0 90 47 00
        E 51 90 1c 22
        E 5 90 2f 21
        E 15 90 43 26
        E 5 90 40 00
        E 51 90 1c 00
        E 51 90 2f 00
        E 46 90 3c 1c
        E 77 90 3c 00
        E 10 90 28 21
        E 77 90 28 00
        E 5 90 43 00
        E 36 e0 00 20
        E 0 90 3e 27
        E 5 e0 00 20
        E 6 e0 00 20
        E 5 e0 00 20
        E 6 e0 00 20
        E 5 e0 00 20
        E 6 e0 00 20
        E 5 e0 00 20
        E 6 e0 00 20
        E 5 e0 00 20
        E 6 e0 00 20
        E 5 e0 00 20
        E 6 e0 00 20
        E 0 90 3e 00
        E 154 90 4c 2b
        E 5 90 28 1a
        E 5 90 37 22
        E 0 90 40 2e
        E 0 90 43 25
        E 0 90 4f 2b
        E 51 90 4c 00
        E 5 90 28 00
        E 5 90 40 00
        E 0 90 4f 00
        E 31 90 37 00
        E 0 90 43 00
        E 107 90 2f 22
        E 41 90 3f 25
        E 0 90 47 14
        E 0 90 4b 29
        E 67 90 4b 00
        E 46 90 34 20
        E 5 90 28 23
        E 0 90 4c 25
        E 10 90 2f 00
        E 10 90 3f 00
        E 26 90 43 2f
        E 5 90 47 00
        E 0 90 4f 2b
        E 5 90 34 00
        E 5 90 4c 00
        E 61 90 4f 00
        E 26 90 2f 21
        E 20 90 43 00
        E 62 90 37 29
        E 25 90 2f 00
        E 10 90 43 28
        E 56 90 28 00
        E 113 90 37 00
        E 5 90 43 00
        E 77 90 3b 25
        E 113 90 28 2c
        E 10 90 2f 24
        E 25 90 47 30
        E 31 90 3b 00
        E 36 90 47 00
        E 20 90 2f 00
        E 41 90 28 00
        E 194 90 45 37
        E 5 90 2d 23
        E 21 90 51 25
        E 41 90 45 00
        E 35 90 51 00
        E 51 90 37 20
        E 0 90 39 21
        E 11 90 3c 21
        E 0 90 43 25
        E 0 90 48 20
        E 0 90 4f 20
        E 56 90 37 00
        E 56 90 43 00
        E 0 90 4f 00
        E 10 90 39 00
        E 0 90 48 00
        E 5 90 2d 00
        E 31 90 3c 00
        E 72 90 28 2c
        E 5 90 34 20
        E 0 90 3b 20
        E 67 90 3b 00
        E 46 90 34 00
        E 15 90 28 00
        E 61 90 28 29
        E 15 90 34 1f
        E 62 90 37 26
        E 0 90 43 32
        E 15 90 34 00
        E 10 90 28 00
        E 36 90 43 00
        E 31 90 4b 22
        E 35 90 43 20
        E 41 90 37 00
        E 0 90 4b 00
        E 26 90 3e 24
        E 61 90 37 23
        E 56 90 3e 00
        E 72 90 43 00
        E 15 90 3c 24
        E 36 90 37 00
        E 46 90 3c 00
        E 98 90 34 24
        E 51 90 40 21
        E 10 90 34 00
        E 117 90 40 00
        E 297 90 3c 32
        E 0 90 48 26
        E 66 90 3c 00
        E 0 90 48 00
        E 118 e0 55 4a
        E 0 90 2f 26
        E 5 e0 7f 7f
        E 5 e0 7f 7f
        E 6 e0 2b 15
        E 5 e0 2b 15
        E 5 e0 2b 15
        E 6 e0 2b 15
        E 5 e0 2b 15
        E 5 e0 00 20
        E 6 e0 00 20
        E 5 e0 00 20
        E 6 e0 00 20
        E 5 e0 00 20
        E 5 e0 00 20
        E 6 e0 2b 75
        E 5 e0 2b 75
        E 5 e0 7f 7f
        E 6 e0 2b 15
        E 5 e0 2b 15
        E 5 e0 2b 15
        E 6 e0 2b 15
        E 0 90 2f 00
        E 5 90 23 2e
        E 0 90 2f 2f
        E 0 90 3f 31
        E 61 90 23 00
        E 0 90 2f 00
        E 5 90 3f 00
        E 42 e0 55 6a
        E 0 90 45 1c
        E 5 e0 55 6a
        E 6 e0 55 6a
        E 5 e0 55 6a
        E 6 e0 55 6a
        E 5 e0 55 6a
        E 6 e0 55 6a
        E 5 e0 00 60
        E 6 e0 00 60
        E 5 e0 00 60
        E 6 e0 00 60
        E 5 e0 00 60
        E 6 e0 00 20
        E 5 e0 00 20
        E 0 90 45 00
        E 26 90 23 19
        E 46 90 45 17
        E 71 90 23 00
        E 97 90 45 00
        E 92 90 39 1c
        E 62 90 40 2b
        E 5 90 39 00
        E 66 90 40 00
        E 41 90 1c 2a
        E 0 90 28 28
        E 5 90 34 22
        E 10 90 4a 1d
        E 5 90 37 28
        E 0 90 40 1e
        E 57 90 1c 00
        E 5 90 34 00
        E 5 90 40 00
        E 0 90 4a 00
        E 148 90 28 00
        E 20 90 37 00
        E 62 90 37 25
        E 21 90 28 1b
        E 0 90 2f 1b
        E 66 90 28 00
        E 0 90 2f 00
        E 128 e0 00 60
        E 0 90 2b 16
        E 0 90 37 00
        E 5 e0 55 0a
        E 6 e0 55 0a
        E 5 e0 55 0a
        E 6 e0 2b 15
        E 6 e0 2b 15
        E 5 e0 2b 15
        E 6 e0 2b 15
        E 5 e0 2b 15
        E 6 e0 2b 15
        E 5 e0 2b 15
        E 6 e0 2b 15
        E 5 e0 55 0a
        E 0 90 2b 00
        E 0 90 2f 1f
        E 0 90 37 27
        E 0 90 3b 1d
        E 0 90 4a 2d
        E 67 90 4a 00
        E 5 90 3b 00
        E 25 90 2f 00
        E 128 90 37 00
        E 46 e0 2b 55
        E 0 90 3e 2d
        E 6 e0 00 60
        E 5 e0 00 60
        E 6 e0 00 60
        E 5 e0 00 60
        E 6 e0 00 60
        E 5 e0 00 60
        E 6 e0 00 60
        E 6 e0 00 60
        E 5 e0 2b 15
        E 6 e0 2b 15
        E 5 e0 2b 15
        E 0 90 3e 00
        E 62 e0 00 60
        E 0 90 48 33
        E 5 e0 00 60
        E 6 e0 00 60
        E 5 e0 55 6a
        E 6 e0 55 6a
        E 6 e0 55 6a
        E 5 e0 55 6a
        E 6 e0 55 6a
        E 5 e0 55 6a
        E 6 e0 55 6a
        E 5 e0 55 6a
        E 6 e0 55 6a
        E 0 90 48 00
        E 200 e0 7f 7f
        E 0 90 42 28
        E 5 e0 7f 7f
        E 6 e0 2b 15
        E 5 e0 2b 15
        E 5 e0 2b 15
        E 6 e0 2b 15
        E 5 e0 2b 15
        E 6 e0 2b 15
        E 5 e0 2b 15
        E 5 e0 2b 15
        E 6 e0 00 20
        E 5 e0 00 20
        E 6 e0 00 20
        E 5 e0 2b 15
        E 5 e0 2b 15
        E 6 e0 00 20
        E 5 e0 2b 15
        E 6 e0 2b 15
        E 0 90 42 00
        E 51 90 34 21
        E 0 90 43 2c
        E 10 90 40 26
        E 77 90 40 00
        E 5 90 43 00
        E 71 90 4c 2d
        E 16 90 34 00
        E 56 90 4c 00
        E 30 90 34 2a
        E 51 90 3e 24
        E 0 90 40 1e
        E 67 90 40 00
        E 5 90 34 00
        E 10 90 3e 00
        E 169 90 43 2e
        E 51 90 3c 25
        E 11 90 43 00
        E 61 90 3f 21
        E 5 90 48 24
        E 10 90 42 22
        E 46 90 3f 00
        E 10 90 2f 2c
        E 6 90 3c 00
        E 5 90 42 00
        E 0 90 48 00
        E 35 90 34 19
        E 0 90 43 2c
        E 26 90 2f 00
        E 41 90 43 00
        E 5 90 34 00
        E 36 90 3b 24
        E 46 90 47 16
        E 71 90 2f 34
        E 10 90 47 00
        E 6 90 47 28
        E 15 90 3b 00
        E 36 90 2f 00
        E 10 90 47 00
        E 76 90 28 25
        E 113 90 30 23
        E 25 90 28 00
        E 123 90 43 25
        E 20 90 30 00
        E 62 90 3f 24
        E 5 90 4b 1f
        E 128 90 3f 00
        E 5 90 4f 20
        E 5 90 4b 00
        E 77 90 4f 00
        E 82 90 43 00
        E 5 90 30 22
        E 5 90 48 20
        E 56 90 30 00
        E 51 90 48 00
        E 46 90 3a 25
        E 10 90 2e 26
        E 62 90 48 1f
        E 10 90 3a 00
        E 15 90 2e 00
        E 36 90 48 00
        E 36 90 28 25
        E 5 90 3c 1f
        E 61 90 3c 00
        E 241 90 28 00
        E 10 e0 55 6a
        E 0 90 4d 26
        E 5 e0 55 6a
        E 6 e0 55 6a
        E 5 e0 55 2a
        E 6 e0 55 2a
        E 5 e0 55 2a
        E 6 e0 55 2a
        E 5 e0 55 2a
        E 6 e0 55 2a
        E 5 e0 55 2a
        E 6 e0 55 2a
        E 5 e0 55 6a
        E 5 e0 55 6a
        E 6 e0 2b 75
        E 5 e0 2b 75
        E 6 e0 55 6a
        E 0 90 4d 00
        E 250 90 37 25
        E 0 90 43 22
        E 5 90 40 19
        E 0 90 4c 27
        E 0 90 4f 19
        E 67 90 4f 00
        E 5 90 4f 25
        E 0 90 57 0d
        E 10 90 37 00
        E 0 90 40 00
        E 0 90 43 00
        E 0 90 4c 00
        E 46 90 4b 28
        E 51 90 57 00
        E 20 90 4b 00
        E 0 90 4f 00
        E 272 90 2f 35
        E 10 90 47 30
        E 51 90 2f 00
        E 15 90 47 00
        E 51 e0 2b 75
        E 0 90 43 29
        E 6 e0 00 00
        E 6 e0 55 0a
        E 5 e0 55 0a
        E 6 e0 55 0a
        E 5 e0 55 0a
        E 6 e0 55 0a
        E 5 e0 55 0a
        E 6 e0 55 0a
        E 5 e0 55 0a
        E 6 e0 55 0a
        E 5 e0 2b 75
        E 6 e0 2b 75
        E 0 90 43 00
        E 460 90 34 1f
        E 5 90 28 27
        E 20 90 2f 24
        E 5 90 3b 21
        E 67 90 34 00
        E 10 90 2f 00
        E 15 90 1c 22
        E 72 90 1c 00
        E 11 90 28 00
        E 0 90 3b 00
        E 153 90 3e 22
        E 10 90 32 29
        E 5 90 42 1b
        E 72 90 42 00
        E 5 90 32 00
        E 0 90 3e 00
        E 230 90 4a 1b
        E 46 90 37 24
        E 5 90 1f 26
        E 10 90 2b 26
        E 0 90 32 1f
        E 10 90 4a 00
        E 56 90 37 00
        E 62 90 1f 00
        E 5 90 2b 00
        E 10 90 32 00
        E 61 e0 00 20
        E 0 90 37 21
        E 6 e0 00 20
        E 5 e0 00 20
        E 5 e0 2b 15
        E 6 e0 2b 15
        E 5 e0 2b 15
        E 6 e0 2b 15
        E 5 e0 2b 15
        E 5 e0 00 20
        E 6 e0 00 20
        E 5 e0 00 20
        E 6 e0 00 20
        E 5 e0 00 20
        E 6 e0 00 20
        E 5 e0 00 20
        E 5 e0 00 20
        E 6 e0 00 20
        E 5 e0 00 20
        E 0 90 37 00
        E 82 90 37 20
        E 52 90 4e 16
        E 56 90 40 30
        E 5 90 4e 00
        E 51 90 37 00
        E 5 90 40 00
        E 455 90 3c 3e
        E 5 90 48 41
        E 61 90 48 00
        E 5 90 3c 00
        E 215 e0 2b 15
        E 0 90 3c 36
        E 6 e0 2b 15
        E 5 e0 2b 15
        E 6 e0 2b 15
        E 5 e0 2b 15
        E 6 e0 2b 15
        E 6 e0 2b 15
        E 5 e0 2b 15
        E 6 e0 2b 15
        E 5 e0 2b 15
        E 6 e0 2b 15
        E 5 e0 2b 15
        E 6 e0 00 20
        E 0 90 3c 00
        E 158 e0 55 2a
        E 0 90 3b 37
        E 6 e0 00 20
        E 5 e0 00 20
        E 6 e0 2b 15
        E 5 e0 00 20
        E 6 e0 00 20
        E 6 e0 00 20
        E 5 e0 00 20
        E 6 e0 00 20
        E 5 e0 00 20
        E 6 e0 00 20
        E 5 e0 00 20
        E 0 90 3b 00
        E 57 90 23 2f
        E 10 90 2f 2e
        E 5 90 36 17
        E 51 90 23 00
        E 15 90 2f 00
        E 46 90 3f 1f
        E 21 90 36 00
        E 46 90 3f 00
        E 230 e0 2b 15
        E 0 90 36 21
        E 5 e0 2b 15
        E 5 e0 2b 15
        E 5 e0 2b 15
        E 5 e0 2b 15
        E 5 e0 2b 15
        E 6 e0 00 20
        E 5 e0 00 20
        E 5 e0 00 20
        E 5 e0 00 20
        E 5 e0 00 20
        E 5 e0 00 20
        E 0 90 36 00
        E 138 e0 55 0a
        E 0 90 40 29
        E 6 e0 55 0a
        E 5 e0 55 6a
        E 5 e0 55 6a
        E 6 e0 00 20
        E 5 e0 00 20
        E 5 e0 00 20
        E 6 e0 00 20
        E 5 e0 00 20
        E 6 e0 00 20
        E 5 e0 00 20
        E 5 e0 00 20
        E 6 e0 00 20
        E 5 e0 00 20
        E 5 e0 00 20
        E 6 e0 00 20
        E 5 e0 00 20
        E 5 e0 55 6a
        E 6 e0 55 6a
        E 5 e0 55 6a
        E 6 e0 00 20
        E 0 90 40 00
        E 35 90 28 31
        E 11 90 34 2a
        E 10 90 40 2a
        E 36 90 43 26
        E 10 90 28 00
        E 35 90 34 00
        E 6 90 40 00
        E 46 90 43 00
        E 81 90 28 26
        E 41 90 37 2c
        E 31 90 28 00
        E 36 90 37 00
        E 178 90 43 20
        E 5 90 37 26
        E 93 90 37 00
        E 31 90 43 00
        E 107 90 4a 28
        E 5 90 37 23
        E 5 90 40 25
        E 0 90 43 2a
        E 51 90 4a 00
        E 10 90 40 00
        E 6 90 43 00
        E 30 90 37 00
        E 56 90 43 21
        E 97 90 4a 1f
        E 11 90 43 00
        E 102 90 4a 00
        E 5 90 40 1d
        E 5 90 43 1a
        E 66 90 40 00
        E 0 90 43 00
        E 221 90 30 1d
        E 61 90 3c 22
        E 10 90 30 00
        E 72 90 24 28
        E 0 90 40 28
        E 0 90 43 2b
        E 5 90 37 21
        E 0 90 4f 2d
        E 5 90 30 29
        E 15 90 3c 00
        E 36 90 24 00
        E 0 90 43 00
        E 5 90 40 00
        E 0 90 4f 00
        E 15 90 37 00
        E 57 90 3f 23
        E 71 90 4c 29
        E 5 90 47 24
        E 10 90 30 00
        E 0 90 3f 00
        E 46 90 4c 00
        E 6 90 47 00
        E 56 90 3c 23
        E 0 90 4c 1a
        E 5 90 47 18
        E 46 90 24 1e
        E 0 90 30 27
        E 0 90 34 21
        E 0 90 39 22
        E 10 90 2d 28
        E 5 90 40 26
        E 5 90 47 00
        E 0 90 4c 00
        E 5 90 3c 00
        E 51 90 24 00
        E 0 90 30 00
        E 0 90 39 00
        E 6 90 34 00
        E 5 90 40 00
        E 66 90 2d 00
        E 31 90 3c 24
        E 0 90 48 26
        E 71 90 3c 00
        E 0 90 48 00
        E 159 90 2f 25
        E 31 90 51 11
        E 56 90 38 26
        E 15 90 51 00
        E 11 90 2f 00
        E 40 90 38 00
        E 26 e0 00 20
        E 0 90 2f 1e
        E 5 e0 00 20
        E 6 e0 00 20
        E 5 e0 00 20
        E 6 e0 00 20
        E 5 e0 00 20
        E 6 e0 00 20
        E 5 e0 00 20
        E 6 e0 00 20
        E 5 e0 00 20
        E 6 e0 00 20
        E 5 e0 00 20
        E 6 e0 00 20
        E 5 e0 00 20
        E 6 e0 00 20
        E 0 90 2f 00
        E 347 e0 00 20
        E 0 90 4a 18
        E 5 e0 00 20
        E 6 e0 00 20
        E 5 e0 55 2a
        E 5 e0 55 2a
        E 6 e0 55 2a
        E 5 e0 55 2a
        E 5 e0 55 2a
        E 6 e0 00 20
        E 5 e0 00 20
        E 5 e0 00 20
        E 6 e0 00 20
        E 5 e0 00 20
        E 5 e0 00 20
        E 6 e0 00 20
        E 5 e0 55 2a
        E 5 e0 55 2a
        E 6 e0 55 2a
        E 5 e0 55 2a
        E 5 e0 55 2a
        E 6 e0 55 2a
        E 5 e0 00 20
        E 5 e0 55 2a
        E 0 90 4a 00
        E 451 e0 2b 15
        E 0 90 47 3a
        E 5 e0 2b 15
        E 6 e0 2b 15
        E 5 e0 2b 15
        E 6 e0 2b 15
        E 5 e0 00 20
        E 6 e0 00 20
        E 6 e0 00 20
        E 5 e0 00 20
        E 6 e0 00 20
        E 5 e0 00 20
        E 6 e0 00 20
        E 0 90 47 00
        E 66 90 23 20
        E 11 90 28 24
        E 66 90 23 00
        E 5 90 28 00
        E 163 90 28 24
        E 77 90 3b 1e
        E 41 90 47 19
        E 57 90 2f 1e
        E 10 90 47 00
        E 10 90 3b 00
        E 46 90 2f 00
        E 46 90 34 1b
        E 61 90 4f 24
        E 57 90 34 00
        E 56 90 41 24
        E 20 90 4f 00
        E 46 90 28 00
        E 46 90 41 00
        E 337 e0 00 60
        E 0 90 42 17
        E 6 e0 00 60
        E 5 e0 00 60
        E 6 e0 00 60
        E 5 e0 00 60
        E 6 e0 55 6a
        E 6 e0 55 6a
        E 5 e0 55 6a
        E 6 e0 55 6a
        E 5 e0 00 60
        E 6 e0 00 60
        E 5 e0 55 6a
        E 6 e0 55 6a
        E 0 90 42 00
        E 159 90 37 2d
        E 10 90 43 27
        E 5 90 40 2b
        E 5 90 24 24
        E 61 90 24 00
        E 57 90 43 00
        E 112 90 40 00
        E 72 90 37 00
        E 76 90 37 25
        E 0 90 43 20
        E 87 90 37 00
        E 20 90 43 00
        E 149 90 43 1f
        E 56 90 34 21
        E 0 90 37 25
        E 10 90 43 00
        E 47 90 34 00
        E 0 90 37 00
        E 148 90 40 23
        E 112 90 34 26
        E 31 90 40 00
        E 46 90 34 00
        E 766 e0 00 20
        E 0 90 28 24
        E 6 e0 00 20
        E 5 e0 00 20
        E 6 e0 00 20
        E 5 e0 00 20
        E 5 e0 00 20
        E 6 e0 00 20
        E 5 e0 00 20
        E 5 e0 00 20
        E 6 e0 00 20
        E 5 e0 00 20
        E 6 e0 00 20
        E 5 e0 00 20
        E 5 e0 00 20
        E 6 e0 00 20
        E 5 e0 00 20
        E 6 e0 00 20
        E 5 e0 00 60
        E 5 e0 00 60
        E 6 e0 00 60
        E 0 90 28 00
        E 224 90 4f 32
        E 16 90 37 2c
        E 51 90 4f 00
        E 61 90 37 00
        E 61 e0 2b 15
        E 0 90 37 21
        E 6 e0 2b 15
        E 5 e0 2b 15
        E 5 e0 2b 15
        E 5 e0 2b 15
        E 5 e0 2b 15
        E 5 e0 2b 15
        E 5 e0 2b 15
        E 5 e0 2b 15
        E 6 e0 2b 15
        E 5 e0 2b 15
        E 5 e0 2b 15
        E 5 e0 2b 15
        E 5 e0 2b 15
        E 5 e0 2b 15
        E 5 e0 2b 15
        E 5 e0 2b 15
        E 6 e0 2b 15
        E 5 e0 2b 15
        E 5 e0 2b 15
        E 5 e0 2b 15
        E 5 e0 2b 15
        E 5 e0 2b 15
        E 5 e0 55 0a
        E 5 e0 55 0a
        E 6 e0 55 0a
        E 5 e0 55 0a
        E 5 e0 2b 15
        E 5 e0 2b 15
        E 5 e0 00 20
        E 5 e0 00 20
        E 5 e0 00 20
        E 5 e0 2b 15
        E 0 90 37 00
        E 62 e0 2b 15
        E 0 90 37 26
        E 5 e0 2b 15
        E 6 e0 2b 15
        E 5 e0 00 20
        E 6 e0 00 20
        E 6 e0 00 20
        E 5 e0 00 20
        E 6 e0 00 20
        E 5 e0 00 20
        E 6 e0 00 20
        E 5 e0 2b 15
        E 6 e0 2b 15
        E 0 90 37 00
        E 91 b0 7b 00
        CCINTERP 32
        CHASE_CC_TAKEOFFS 1
        GUID {CF201223-AE90-44BD-870C-6BBF12E76672}
        IGNTEMPO 0 120 4 4
        SRCCOLOR 224
      >
    >
  >
  <UINF 123
    <ITEM {04CB7BBB-3936-49BF-A0E1-3E1D3413B193}
      POSITION 0
      SNAPOFFS 0
      LENGTH 213
      LOOP 1
      ALLTAKES 0
      FADEIN 1 0 0 1 0 0 0
      FADEOUT 1 0 0 1 0 0 0
      MUTE 0 0
      SEL 1
      IGUID {04CB7BBB-3936-49BF-A0E1-3E1D3413B193}
      IID 137
      NAME "Gwyn, Lord of Cinder_basic_pitch.mid"
      VOLPAN 1 0 1 -1
      SOFFS 0 0
      PLAYRATE 1 1 0 -1 0 0.0025
      CHANMODE 0
      GUID {7D14F8B2-6FA7-4882-B0DE-4DF717DB1C50}
      <SOURCE MIDI
        HASDATA 1 220 QN
        CCINTERP 32
        POOLEDEVTS {F5A31A2E-CFEA-474C-99E5-A38F96A19B5F}
        E 0 c0 04 00
        E 117 e0 55 6a
        E 0 90 2d 47
        E 6 e0 00 00
        E 6 e0 00 00
        E 5 e0 00 00
        E 6 e0 00 00
        E 5 e0 00 00
        E 6 e0 00 00
        E 5 e0 2b 75
        E 6 e0 2b 75
        E 5 e0 2b 75
        E 6 e0 2b 75
        E 5 e0 2b 75
        E 6 e0 2b 75
        E 0 90 2d 00
        E 168 90 41 21
        E 21 90 3c 28
        E 5 90 45 26
        E 118 90 3c 00
        E 0 90 45 00
        E 97 90 45 22
        E 5 90 3c 1e
        E 0 90 41 00
        E 5 90 41 1f
        E 112 90 3c 00
        E 5 90 45 00
        E 102 90 45 28
        E 6 90 2d 2c
        E 0 90 3c 2f
        E 10 90 41 00
        E 0 90 41 22
        E 46 90 3c 00
        E 26 90 41 00
        E 51 90 45 00
        E 5 90 2d 00
        E 77 90 41 28
        E 5 90 2d 25
        E 10 90 45 20
        E 123 90 45 00
        E 15 90 2d 00
        E 15 90 41 00
        E 297 90 41 36
        E 5 90 39 22
        E 5 90 2d 29
        E 46 90 45 16
        E 5 90 41 00
        E 5 90 39 00
        E 66 90 45 00
        E 21 90 2d 00
        E 97 90 45 24
        E 82 90 28 25
        E 26 90 45 00
        E 35 90 28 00
        E 179 e0 00 20
        E 0 90 2d 1b
        E 6 e0 00 20
        E 5 e0 00 20
        E 5 e0 00 20
        E 6 e0 00 20
        E 5 e0 00 20
        E 5 e0 00 20
        E 6 e0 2b 15
        E 5 e0 2b 15
        E 5 e0 2b 15
        E 6 e0 2b 15
        E 5 e0 2b 15
        E 5 e0 2b 15
        E 6 e0 2b 15
        E 5 e0 00 20
        E 6 e0 00 20
        E 5 e0 00 20
        E 5 e0 00 20
        E 6 e0 2b 15
        E 5 e0 2b 15
        E 5 e0 2b 15
        E 6 e0 2b 15
        E 0 90 2d 00
        E 5 e0 2b 15
        E 0 90 2d 2b
        E 5 e0 2b 15
        E 5 e0 2b 15
        E 6 e0 2b 15
        E 5 e0 2b 15
        E 5 e0 00 20
        E 6 e0 00 20
        E 5 e0 00 20
        E 5 e0 00 20
        E 5 e0 00 20
        E 6 e0 00 20
        E 5 e0 00 20
        E 5 e0 00 20
        E 6 e0 00 20
        E 5 e0 00 20
        E 5 e0 00 20
        E 5 e0 00 20
        E 6 e0 00 20
        E 5 e0 00 20
        E 5 e0 00 20
        E 6 e0 00 20
        E 5 e0 00 20
        E 5 e0 2b 15
        E 6 e0 2b 15
        E 5 e0 2b 15
        E 5 e0 2b 15
        E 5 e0 2b 15
        E 6 e0 2b 15
        E 0 90 2d 00
        E 189 90 2d 20
        E 51 90 41 18
        E 10 90 39 1c
        E 36 90 35 2a
        E 11 90 41 00
        E 5 90 3c 2c
        E 0 90 41 26
        E 10 90 2d 00
        E 5 90 39 00
        E 56 90 3c 00
        E 67 90 35 00
        E 41 90 41 00
        E 40 90 39 33
        E 6 90 3c 23
        E 5 90 2d 28
        E 0 90 45 1a
        E 51 90 39 00
        E 10 90 45 00
        E 66 90 3c 00
        E 36 90 2d 00
        E 291 e0 55 6a
        E 0 90 2d 29
        E 6 e0 55 6a
        E 5 e0 2b 75
        E 5 e0 2b 75
        E 6 e0 2b 75
        E 5 e0 2b 75
        E 5 e0 2b 75
        E 6 e0 2b 75
        E 5 e0 2b 75
        E 5 e0 2b 75
        E 6 e0 2b 75
        E 5 e0 2b 75
        E 5 e0 2b 75
        E 6 e0 2b 75
        E 5 e0 2b 75
        E 6 e0 2b 75
        E 5 e0 2b 75
        E 5 e0 2b 75
        E 6 e0 2b 75
        E 5 e0 00 20
        E 5 e0 00 20
        E 6 e0 00 20
        E 0 90 2d 00
        E 51 90 21 24
        E 56 90 2d 29
        E 21 90 21 00
        E 220 90 39 26
        E 15 90 2d 00
        E 107 90 39 00
        E 312 90 28 20
        E 15 90 2d 2b
        E 0 90 3e 1c
        E 112 90 28 00
        E 16 90 3e 00
        E 5 90 2d 00
        E 297 90 21 29
        E 5 90 2d 26
        E 0 90 30 21
        E 0 90 3e 25
        E 5 90 39 24
        E 51 90 21 00
        E 61 90 48 23
        E 21 90 2d 00
        E 0 90 30 00
        E 0 90 39 00
        E 0 90 3e 00
        E 87 90 21 2a
        E 0 90 2d 3d
        E 25 90 48 00
        E 41 90 2d 00
        E 46 90 21 00
        E 72 90 21 25
        E 5 90 2d 2d
        E 102 90 2d 00
        E 57 90 2d 27
        E 0 90 39 29
        E 25 90 21 00
        E 72 90 21 32
        E 41 90 2d 00
        E 0 90 39 00
        E 20 90 21 00
        E 184 e0 7f 7f
        E 0 90 2d 34
        E 5 e0 7f 7f
        E 6 e0 2b 75
        E 6 e0 2b 75
        E 5 e0 2b 75
        E 6 e0 2b 75
        E 5 e0 7f 7f
        E 6 e0 2b 75
        E 5 e0 2b 75
        E 6 e0 2b 75
        E 6 e0 2b 75
        E 5 e0 2b 75
        E 0 90 2d 00
        E 56 90 34 21
        E 77 90 4c 46
        E 56 90 34 00
        E 5 90 4c 00
        E 415 90 39 31
        E 10 90 2d 34
        E 0 90 48 20
        E 5 90 41 21
        E 0 90 45 26
        E 51 90 39 00
        E 10 90 2d 00
        E 0 90 48 00
        E 62 90 41 00
        E 5 90 45 00
        E 245 e0 2b 15
        E 0 90 2d 26
        E 5 e0 2b 15
        E 6 e0 2b 15
        E 5 e0 00 20
        E 5 e0 00 20
        E 6 e0 2b 15
        E 5 e0 2b 15
        E 6 e0 2b 15
        E 5 e0 2b 15
        E 6 e0 2b 15
        E 5 e0 2b 15
        E 5 e0 2b 15
        E 6 e0 2b 15
        E 5 e0 2b 15
        E 6 e0 2b 15
        E 5 e0 2b 15
        E 5 e0 00 20
        E 6 e0 00 20
        E 0 90 2d 00
        E 138 e0 2b 15
        E 0 90 41 29
        E 5 e0 2b 15
        E 6 e0 2b 15
        E 5 e0 2b 15
        E 5 e0 2b 15
        E 6 e0 2b 15
        E 5 e0 2b 15
        E 6 e0 55 6a
        E 5 e0 00 60
        E 5 e0 00 60
        E 6 e0 00 60
        E 5 e0 55 6a
        E 6 e0 55 6a
        E 5 e0 55 6a
        E 5 e0 55 6a
        E 6 e0 55 6a
        E 5 e0 55 6a
        E 6 e0 55 6a
        E 0 90 41 00
        E 189 90 30 1e
        E 26 90 45 25
        E 97 90 30 00
        E 15 90 45 00
        E 194 e0 00 60
        E 0 90 41 21
        E 6 e0 00 60
        E 5 e0 00 60
        E 6 e0 00 60
        E 6 e0 00 60
        E 5 e0 00 60
        E 6 e0 00 60
        E 5 e0 00 60
        E 6 e0 00 60
        E 5 e0 00 60
        E 6 e0 00 60
        E 6 e0 00 60
        E 0 90 41 00
        E 71 e0 00 00
        E 0 90 2d 29
        E 5 e0 00 00
        E 6 e0 55 0a
        E 5 e0 2b 15
        E 5 e0 2b 15
        E 6 e0 00 20
        E 5 e0 00 20
        E 5 e0 00 20
        E 6 e0 00 20
        E 5 e0 00 20
        E 5 e0 00 20
        E 6 e0 00 20
        E 5 e0 00 20
        E 5 e0 00 20
        E 6 e0 00 20
        E 5 e0 00 20
        E 5 e0 00 20
        E 5 e0 00 20
        E 6 e0 00 20
        E 5 e0 00 20
        E 5 e0 00 20
        E 6 e0 00 20
        E 5 e0 2b 15
        E 5 e0 2b 15
        E 6 e0 2b 15
        E 5 e0 2b 15
        E 0 90 2d 00
        E 317 e0 55 6a
        E 0 90 3c 2d
        E 6 e0 55 6a
        E 5 e0 55 6a
        E 6 e0 55 6a
        E 6 e0 00 60
        E 5 e0 00 60
        E 6 e0 00 60
        E 5 e0 55 6a
        E 6 e0 2b 15
        E 5 e0 2b 15
        E 6 e0 55 0a
        E 6 e0 55 0a
        E 0 90 3c 00
        E 40 90 28 21
        E 118 90 30 20
        E 5 90 3c 27
        E 10 90 28 00
        E 0 90 4c 1e
        E 128 90 30 00
        E 5 90 3c 00
        E 51 90 4c 00
        E 26 e0 2b 15
        E 0 90 21 33
        E 5 e0 2b 15
        E 6 e0 2b 15
        E 5 e0 2b 15
        E 6 e0 2b 15
        E 6 e0 2b 15
        E 5 e0 2b 15
        E 6 e0 2b 15
        E 5 e0 2b 15
        E 6 e0 2b 15
        E 5 e0 2b 15
        E 6 e0 2b 15
        E 0 90 21 00
        E 56 e0 00 20
        E 0 90 3c 33
        E 6 e0 00 20
        E 5 e0 00 20
        E 6 e0 2b 15
        E 5 e0 2b 15
        E 6 e0 2b 15
        E 5 e0 2b 15
        E 6 e0 2b 15
        E 5 e0 00 20
        E 6 e0 00 20
        E 5 e0 00 20
        E 6 e0 00 20
        E 5 e0 00 20
        E 6 e0 00 20
        E 0 90 3c 00
        E 225 90 43 29
        E 5 90 48 16
        E 36 90 21 27
        E 31 90 43 00
        E 0 90 48 00
        E 76 90 2d 2c
        E 56 90 21 00
        E 103 90 2d 00
        E 311 90 48 21
        E 108 90 2d 38
        E 0 90 39 2f
        E 15 90 48 00
        E 51 90 2d 00
        E 5 90 39 00
        E 46 e0 55 2a
        E 0 90 28 23
        E 6 e0 00 20
        E 5 e0 00 20
        E 5 e0 00 20
        E 6 e0 00 20
        E 5 e0 00 20
        E 5 e0 00 20
        E 6 e0 00 20
        E 5 e0 00 20
        E 5 e0 00 20
        E 6 e0 2b 75
        E 5 e0 2b 75
        E 5 e0 2b 75
        E 6 e0 2b 75
        E 5 e0 2b 75
        E 5 e0 2b 75
        E 6 e0 2b 75
        E 5 e0 2b 75
        E 5 e0 2b 75
        E 6 e0 2b 75
        E 5 e0 2b 75
        E 5 e0 00 20
        E 6 e0 00 20
        E 5 e0 00 20
        E 5 e0 00 20
        E 0 90 28 00
        E 199 90 28 1f
        E 0 90 34 1f
        E 128 90 34 00
        E 5 90 28 00
        E 184 90 21 23
        E 15 90 2d 2d
        E 16 90 34 23
        E 5 90 28 22
        E 113 90 21 00
        E 5 90 28 00
        E 15 90 2d 00
        E 72 90 2d 28
        E 20 90 34 00
        E 67 90 45 40
        E 61 90 2d 00
        E 0 90 45 00
        E 194 90 2d 2a
        E 26 90 41 2b
        E 35 90 2d 00
        E 16 90 21 26
        E 10 90 41 00
        E 31 90 2d 2a
        E 35 90 21 00
        E 92 90 45 1a
        E 10 90 2d 00
        E 103 90 45 00
        E 322 e0 2b 15
        E 0 90 2d 2a
        E 5 e0 2b 15
        E 6 e0 2b 15
        E 5 e0 2b 15
        E 5 e0 00 20
        E 5 e0 00 20
        E 6 e0 00 20
        E 5 e0 00 20
        E 5 e0 00 20
        E 5 e0 00 20
        E 6 e0 00 20
        E 5 e0 00 20
        E 5 e0 00 20
        E 6 e0 00 20
        E 5 e0 00 20
        E 5 e0 00 20
        E 5 e0 00 20
        E 6 e0 00 20
        E 5 e0 55 6a
        E 5 e0 00 20
        E 5 e0 2b 15
        E 6 e0 2b 15
        E 5 e0 2b 15
        E 5 e0 2b 15
        E 6 e0 2b 15
        E 5 e0 2b 15
        E 5 e0 2b 15
        E 5 e0 2b 15
        E 6 e0 00 20
        E 5 e0 00 20
        E 5 e0 00 20
        E 5 e0 00 20
        E 0 90 2d 00
        E 67 90 39 21
        E 220 90 48 2d
        E 20 90 39 00
        E 108 90 48 00
        E 92 90 2d 2a
        E 66 90 28 26
        E 61 90 28 00
        E 113 90 2d 00
        E 56 90 2d 25
        E 15 90 40 18
        E 108 90 28 24
        E 15 90 40 00
        E 107 90 28 00
        E 0 90 2d 00
        E 41 90 45 1c
        E 67 90 2d 31
        E 5 90 45 00
        E 133 90 2d 00
        E 66 e0 2b 15
        E 0 90 2d 2f
        E 6 e0 2b 15
        E 5 e0 55 0a
        E 5 e0 55 0a
        E 6 e0 55 0a
        E 5 e0 2b 15
        E 5 e0 2b 15
        E 5 e0 2b 15
        E 6 e0 2b 15
        E 5 e0 2b 15
        E 5 e0 2b 15
        E 5 e0 2b 15
        E 6 e0 2b 15
        E 5 e0 2b 15
        E 5 e0 2b 15
        E 6 e0 2b 15
        E 5 e0 2b 15
        E 5 e0 2b 15
        E 5 e0 2b 15
        E 6 e0 2b 15
        E 5 e0 2b 15
        E 5 e0 2b 15
        E 5 e0 2b 15
        E 6 e0 2b 15
        E 5 e0 2b 15
        E 5 e0 2b 15
        E 6 e0 2b 15
        E 5 e0 2b 15
        E 5 e0 2b 15
        E 5 e0 2b 15
        E 6 e0 2b 15
        E 5 e0 2b 15
        E 0 90 2d 00
        E 66 90 2d 2b
        E 5 90 41 2b
        E 72 90 41 00
        E 56 90 2d 00
        E 107 e0 7f 7f
        E 0 90 2d 2c
        E 6 e0 7f 7f
        E 5 e0 2b 15
        E 5 e0 00 20
        E 6 e0 55 6a
        E 5 e0 00 20
        E 5 e0 00 20
        E 5 e0 00 20
        E 6 e0 00 20
        E 5 e0 00 20
        E 5 e0 00 20
        E 5 e0 00 20
        E 6 e0 00 20
        E 5 e0 00 20
        E 5 e0 00 20
        E 6 e0 00 20
        E 5 e0 00 20
        E 5 e0 00 20
        E 5 e0 00 20
        E 6 e0 2b 15
        E 5 e0 2b 15
        E 5 e0 2b 15
        E 5 e0 2b 15
        E 6 e0 2b 15
        E 5 e0 2b 15
        E 5 e0 2b 15
        E 6 e0 2b 15
        E 5 e0 2b 15
        E 5 e0 00 20
        E 5 e0 00 20
        E 6 e0 00 20
        E 5 e0 00 20
        E 0 90 2d 00
        E 154 e0 2b 15
        E 0 90 28 1f
        E 5 e0 2b 15
        E 5 e0 2b 15
        E 6 e0 2b 15
        E 5 e0 2b 15
        E 5 e0 2b 15
        E 6 e0 2b 15
        E 5 e0 2b 15
        E 5 e0 2b 15
        E 6 e0 2b 15
        E 5 e0 00 20
        E 5 e0 00 20
        E 5 e0 00 20
        E 6 e0 00 20
        E 5 e0 00 20
        E 5 e0 00 20
        E 6 e0 00 20
        E 5 e0 00 20
        E 5 e0 00 20
        E 6 e0 00 20
        E 5 e0 00 20
        E 5 e0 00 20
        E 6 e0 00 20
        E 5 e0 00 20
        E 5 e0 00 20
        E 6 e0 00 20
        E 0 90 28 00
        E 199 90 2d 29
        E 209 90 28 2b
        E 5 90 41 2a
        E 16 90 39 20
        E 20 90 2d 00
        E 26 90 28 00
        E 30 90 41 00
        E 143 90 48 2b
        E 21 90 39 00
        E 92 90 48 00
        E 97 90 2d 2c
        E 5 90 41 23
        E 113 90 41 00
        E 30 90 2d 00
        E 169 90 2d 26
        E 128 90 45 17
        E 112 90 2d 00
        E 0 90 45 00
        E 97 90 21 26
        E 21 90 2d 28
        E 87 90 21 00
        E 97 90 41 26
        E 118 90 28 22
        E 5 90 39 27
        E 5 90 41 00
        E 5 90 40 1f
        E 66 90 28 00
        E 0 90 39 00
        E 5 90 39 26
        E 41 90 45 25
        E 10 90 40 00
        E 98 90 40 24
        E 10 90 2d 00
        E 5 90 39 00
        E 5 90 45 00
        E 51 90 4c 3f
        E 5 90 2d 35
        E 56 90 40 00
        E 5 90 4c 00
        E 6 90 2d 00
        E 276 90 28 22
        E 10 90 39 25
        E 107 90 2d 2d
        E 6 90 45 27
        E 10 90 28 00
        E 15 90 39 00
        E 36 90 45 00
        E 46 90 40 23
        E 10 90 2d 00
        E 61 90 2d 2f
        E 51 90 40 00
        E 26 90 2d 00
        E 169 90 2d 27
        E 0 90 41 25
        E 5 90 28 1c
        E 15 90 39 25
        E 92 90 34 26
        E 10 90 28 00
        E 16 90 39 00
        E 10 90 41 00
        E 25 90 34 00
        E 56 90 3c 1d
        E 36 90 2d 00
        E 41 90 3c 00
        E 149 e0 2b 15
        E 0 90 2d 28
        E 5 e0 2b 15
        E 5 e0 2b 15
        E 5 e0 2b 15
        E 6 e0 00 20
        E 5 e0 00 20
        E 5 e0 00 20
        E 5 e0 00 20
        E 6 e0 00 20
        E 5 e0 00 20
        E 5 e0 00 20
        E 5 e0 00 20
        E 5 e0 00 20
        E 6 e0 00 20
        E 5 e0 00 20
        E 5 e0 00 20
        E 5 e0 00 20
        E 6 e0 2b 15
        E 5 e0 2b 15
        E 5 e0 2b 15
        E 5 e0 2b 15
        E 5 e0 2b 15
        E 6 e0 2b 15
        E 5 e0 00 20
        E 5 e0 00 20
        E 5 e0 00 20
        E 6 e0 00 20
        E 5 e0 00 20
        E 5 e0 00 20
        E 5 e0 00 20
        E 5 e0 00 20
        E 6 e0 00 20
        E 5 e0 00 20
        E 5 e0 00 20
        E 5 e0 00 20
        E 5 e0 00 20
        E 6 e0 00 20
        E 5 e0 00 20
        E 5 e0 00 20
        E 5 e0 00 20
        E 6 e0 2b 15
        E 5 e0 2b 15
        E 5 e0 2b 15
        E 5 e0 2b 15
        E 5 e0 2b 15
        E 6 e0 2b 15
        E 5 e0 00 20
        E 0 90 2d 00
        E 77 e0 00 20
        E 0 90 40 26
        E 5 e0 00 20
        E 6 e0 00 20
        E 5 e0 00 20
        E 6 e0 00 20
        E 5 e0 00 20
        E 6 e0 00 20
        E 5 e0 00 20
        E 6 e0 00 20
        E 5 e0 00 20
        E 6 e0 00 20
        E 5 e0 00 20
        E 6 e0 00 20
        E 5 e0 00 20
        E 0 90 40 00
        E 148 90 40 20
        E 102 90 28 26
        E 11 90 47 20
        E 5 90 2d 2b
        E 10 90 40 00
        E 82 90 34 28
        E 10 90 28 00
        E 0 90 47 00
        E 31 90 2d 00
        E 41 90 41 27
        E 25 90 21 1f
        E 0 90 4d 2d
        E 26 90 34 00
        E 41 90 4d 00
        E 5 90 21 00
        E 92 90 47 26
        E 71 90 47 00
        E 6 90 41 00
        E 178 90 2d 3c
        E 62 90 34 26
        E 5 90 2d 00
        E 56 90 28 21
        E 31 90 34 00
        E 92 90 48 26
        E 5 90 28 00
        E 143 90 48 00
        E 82 e0 00 00
        E 0 90 41 24
        E 5 e0 00 00
        E 6 e0 00 00
        E 5 e0 55 6a
        E 5 e0 55 6a
        E 6 e0 55 6a
        E 5 e0 55 6a
        E 5 e0 55 6a
        E 6 e0 00 60
        E 5 e0 00 60
        E 5 e0 00 60
        E 6 e0 00 60
        E 5 e0 55 6a
        E 5 e0 55 6a
        E 6 e0 55 6a
        E 5 e0 55 6a
        E 5 e0 55 6a
        E 6 e0 55 6a
        E 5 e0 55 6a
        E 5 e0 55 6a
        E 6 e0 55 6a
        E 5 e0 55 6a
        E 6 e0 55 6a
        E 0 90 41 00
        E 97 e0 2b 15
        E 0 90 2d 30
        E 5 e0 2b 15
        E 5 e0 2b 15
        E 5 e0 2b 15
        E 6 e0 2b 15
        E 5 e0 2b 75
        E 5 e0 2b 75
        E 6 e0 2b 75
        E 5 e0 2b 75
        E 5 e0 2b 75
        E 6 e0 00 20
        E 5 e0 00 20
        E 5 e0 00 20
        E 5 e0 00 20
        E 6 e0 00 20
        E 5 e0 00 20
        E 5 e0 00 20
        E 6 e0 00 20
        E 5 e0 2b 15
        E 5 e0 2b 15
        E 6 e0 2b 75
        E 5 e0 2b 75
        E 5 e0 2b 75
        E 5 e0 2b 75
        E 6 e0 2b 15
        E 5 e0 2b 15
        E 5 e0 2b 15
        E 6 e0 2b 15
        E 0 90 2d 00
        E 286 90 2d 33
        E 35 90 48 23
        E 26 90 2d 00
        E 47 90 48 00
        E 240 90 2d 29
        E 10 90 34 24
        E 5 90 40 1e
        E 77 90 40 00
        E 30 90 41 2e
        E 21 90 34 00
        E 25 90 2d 00
        E 16 90 41 00
        E 51 90 2d 26
        E 107 90 34 24
        E 31 90 2d 00
        E 97 90 34 00
        E 107 90 2d 29
        E 0 90 41 25
        E 103 90 34 2a
        E 10 90 41 00
        E 30 90 2d 00
        E 21 90 21 28
        E 46 90 45 27
        E 20 90 21 00
        E 5 90 34 00
        E 36 90 45 00
        E 46 90 2d 2b
        E 10 90 40 1a
        E 118 90 40 00
        E 30 90 2d 00
        E 179 90 41 31
        E 5 90 2d 2d
        E 0 90 3c 37
        E 67 90 3c 00
        E 0 90 41 00
        E 82 90 2d 00
        E 240 90 2d 25
        E 56 90 41 29
        E 16 90 2d 00
        E 133 90 41 00
        E 66 90 2d 2a
        E 117 90 41 2c
        E 36 90 2d 00
        E 97 90 41 00
        E 199 90 41 2b
        E 11 90 3c 22
        E 113 90 3c 00
        E 10 90 41 00
        E 76 90 21 25
        E 21 90 2d 2f
        E 112 90 21 00
        E 26 90 2d 00
        E 194 90 3c 26
        E 36 90 21 21
        E 87 90 21 00
        E 10 90 3c 00
        E 76 90 3c 26
        E 129 90 2d 2d
        E 10 90 48 21
        E 5 90 3c 00
        E 87 90 3c 23
        E 36 90 48 00
        E 25 90 2d 00
        E 67 90 2d 2c
        E 0 90 48 20
        E 5 90 3c 00
        E 117 90 2d 00
        E 0 90 48 00
        E 307 90 2d 21
        E 97 90 28 2a
        E 15 90 2d 00
        E 77 90 28 00
        E 153 e0 2b 15
        E 0 90 28 1e
        E 6 e0 2b 15
        E 5 e0 2b 15
        E 6 e0 2b 15
        E 5 e0 2b 15
        E 5 e0 2b 15
        E 6 e0 00 20
        E 5 e0 00 20
        E 5 e0 00 20
        E 6 e0 00 20
        E 5 e0 00 20
        E 5 e0 00 20
        E 6 e0 2b 15
        E 5 e0 00 20
        E 5 e0 00 20
        E 6 e0 00 20
        E 5 e0 00 20
        E 5 e0 00 20
        E 6 e0 00 20
        E 5 e0 00 20
        E 6 e0 00 20
        E 5 e0 2b 15
        E 0 90 28 00
        E 0 90 3c 24
        E 0 90 41 25
        E 117 90 3c 00
        E 154 90 41 00
        E 56 e0 55 0a
        E 0 90 41 23
        E 5 e0 55 0a
        E 6 e0 55 0a
        E 5 e0 55 0a
        E 5 e0 55 0a
        E 6 e0 55 0a
        E 5 e0 55 0a
        E 5 e0 55 0a
        E 6 e0 2b 75
        E 5 e0 2b 75
        E 6 e0 2b 75
        E 5 e0 2b 15
        E 5 e0 2b 15
        E 6 e0 2b 15
        E 5 e0 2b 15
        E 5 e0 2b 15
        E 6 e0 2b 15
        E 5 e0 2b 15
        E 6 e0 2b 15
        E 5 e0 2b 75
        E 0 90 41 00
        E 5 90 41 26
        E 220 90 45 20
        E 31 90 41 00
        E 36 90 45 00
        E 153 90 2d 2d
        E 0 90 43 27
        E 72 90 43 00
        E 20 90 21 28
        E 31 90 3c 23
        E 25 90 2d 00
        E 77 90 2d 27
        E 20 90 21 00
        E 5 90 3c 00
        E 102 90 2d 00
        E 98 90 2d 24
        E 10 90 48 20
        E 117 90 48 00
        E 5 90 2d 00
        E 52 90 48 18
        E 36 90 21 27
        E 10 90 2d 30
        E 15 90 48 00
        E 138 90 2d 00
        E 205 90 21 00
        E 66 90 21 24
        E 15 90 2d 2a
        E 0 90 34 1d
        E 118 90 34 00
        E 46 90 2d 00
        E 5 90 21 00
        E 51 90 34 33
        E 15 90 47 24
        E 5 90 28 2d
        E 46 90 34 00
        E 62 90 34 25
        E 0 90 43 1b
        E 10 90 47 00
        E 108 90 34 00
        E 10 90 28 00
        E 61 90 28 2c
        E 5 90 34 25
        E 0 90 37 24
        E 0 90 48 21
        E 5 90 30 22
        E 16 90 43 00
        E 97 90 34 00
        E 0 90 37 00
        E 5 90 48 00
        E 20 90 30 00
        E 92 90 28 00
        E 72 e0 00 20
        E 0 90 28 38
        E 5 e0 00 20
        E 6 e0 00 20
        E 6 e0 00 20
        E 5 e0 00 20
        E 6 e0 00 20
        E 5 e0 00 20
        E 6 e0 2b 15
        E 5 e0 2b 15
        E 6 e0 2b 15
        E 6 e0 2b 15
        E 5 e0 00 20
        E 0 90 28 00
        E 67 90 34 25
        E 5 90 47 23
        E 117 90 47 00
        E 5 90 34 00
        E 185 90 28 2e
        E 0 90 40 1e
        E 5 90 43 25
        E 107 90 3c 2a
        E 15 90 40 00
        E 0 90 43 00
        E 6 90 28 00
        E 97 90 43 24
        E 46 90 3c 00
        E 81 90 43 00
        E 179 90 30 22
        E 5 90 48 26
        E 62 90 48 00
        E 66 90 30 00
        E 195 90 28 37
        E 0 90 3b 27
        E 61 90 28 00
        E 0 90 3b 00
        E 56 90 28 23
        E 5 90 34 1b
        E 5 90 37 22
        E 102 90 3b 27
        E 6 90 34 00
        E 117 90 28 00
        E 5 90 3b 00
        E 113 90 37 00
        E 178 90 26 29
        E 5 90 32 28
        E 16 90 41 25
        E 133 90 26 00
        E 10 90 32 00
        E 15 90 41 00
        E 52 90 35 1e
        E 5 90 32 25
        E 128 90 32 00
        E 0 90 35 00
        E 296 90 26 2a
        E 0 90 47 3d
        E 20 90 32 36
        E 41 90 47 00
        E 21 90 32 00
        E 76 90 26 00
        E 471 90 3e 36
        E 41 90 32 29
        E 5 90 26 28
        E 15 90 3e 00
        E 61 90 35 1f
        E 0 90 41 20
        E 57 90 26 00
        E 15 90 32 00
        E 5 90 41 00
        E 66 90 41 16
        E 103 90 41 00
        E 35 90 35 00
        E 67 e0 2b 15
        E 0 90 39 25
        E 5 e0 2b 15
        E 6 e0 2b 15
        E 5 e0 00 20
        E 6 e0 00 20
        E 5 e0 00 20
        E 6 e0 00 20
        E 5 e0 00 20
        E 6 e0 00 20
        E 5 e0 00 20
        E 6 e0 00 20
        E 5 e0 00 20
        E 6 e0 00 20
        E 5 e0 00 20
        E 0 90 39 00
        E 129 90 26 2c
        E 15 90 32 2e
        E 0 90 3e 22
        E 0 90 41 24
        E 0 90 45 1f
        E 0 90 4a 32
        E 61 90 4a 00
        E 36 90 29 23
        E 0 90 35 24
        E 20 90 26 00
        E 0 90 3e 00
        E 0 90 45 00
        E 6 90 32 00
        E 0 90 41 00
        E 91 90 29 00
        E 113 90 41 29
        E 20 90 35 00
        E 72 90 35 28
        E 61 90 35 00
        E 15 90 41 00
        E 57 90 3b 1c
        E 46 90 40 3a
        E 5 90 34 34
        E 15 90 47 27
        E 31 90 28 2c
        E 5 90 1c 24
        E 0 90 43 31
        E 15 90 40 00
        E 21 90 3b 00
        E 0 90 47 00
        E 15 90 34 00
        E 10 90 43 00
        E 26 90 40 20
        E 56 90 1c 00
        E 10 90 40 00
        E 62 90 34 25
        E 5 90 43 1a
        E 5 90 37 20
        E 0 90 40 1e
        E 5 90 3b 23
        E 113 90 40 00
        E 10 90 37 00
        E 0 90 3b 00
        E 5 90 34 00
        E 10 90 28 00
        E 61 90 28 2b
        E 16 90 43 00
        E 112 90 28 00
        E 72 90 28 2c
        E 133 90 34 25
        E 5 90 37 28
        E 117 90 34 00
        E 0 90 37 00
        E 5 90 28 00
        E 72 90 28 2a
        E 15 90 37 20
        E 123 90 37 00
        E 97 90 28 00
        E 77 90 54 30
        E 5 90 30 28
        E 0 90 40 25
        E 5 90 3c 25
        E 0 90 48 25
        E 51 90 21 1c
        E 5 90 30 00
        E 0 90 54 00
        E 41 90 28 2c
        E 16 90 21 00
        E 10 90 3c 00
        E 0 90 40 00
        E 107 90 48 00
        E 15 90 28 00
        E 67 90 48 26
        E 117 90 3b 25
        E 16 90 48 00
        E 97 90 37 2f
        E 15 90 3b 00
        E 0 90 3c 1e
        E 77 90 30 29
        E 10 90 28 27
        E 0 90 4f 25
        E 20 90 3c 00
        E 6 90 37 00
        E 25 90 30 00
        E 67 90 34 21
        E 5 90 4f 00
        E 97 90 28 00
        E 0 90 28 2e
        E 20 90 34 00
        E 77 90 48 27
        E 5 90 43 22
        E 5 90 3c 24
        E 46 90 28 00
        E 77 90 43 00
        E 10 90 48 00
        E 10 90 3c 00
        E 133 90 1f 25
        E 10 90 32 26
        E 21 90 41 2f
        E 5 90 47 30
        E 51 90 1f 00
        E 10 90 47 00
        E 16 90 41 00
        E 56 90 32 00
        E 491 90 26 31
        E 5 90 32 3b
        E 61 90 26 00
        E 10 90 32 00
        E 578 90 26 2d
        E 5 90 35 31
        E 5 90 32 39
        E 67 90 35 00
        E 5 90 32 00
        E 36 90 48 15
        E 5 90 26 00
        E 122 90 48 00
        E 92 e0 00 60
        E 0 90 41 1c
        E 6 e0 00 60
        E 5 e0 55 6a
        E 6 e0 00 20
        E 5 e0 00 20
        E 5 e0 00 20
        E 6 e0 00 20
        E 5 e0 00 20
        E 6 e0 2b 15
        E 5 e0 2b 15
        E 6 e0 2b 15
        E 5 e0 2b 15
        E 5 e0 2b 15
        E 6 e0 2b 15
        E 5 e0 2b 15
        E 6 e0 2b 15
        E 5 e0 2b 15
        E 0 90 41 00
        E 235 90 26 26
        E 5 90 32 2f
        E 0 90 41 2d
        E 98 90 26 00
        E 5 90 32 00
        E 10 90 41 00
        E 92 90 26 26
        E 15 90 41 29
        E 0 90 45 2d
        E 0 90 4c 24
        E 62 90 45 00
        E 0 90 4c 00
        E 56 90 41 00
        E 5 90 26 00
        E 189 90 41 22
        E 0 90 4d 27
        E 66 90 2d 21
        E 6 90 4d 00
        E 76 90 41 00
        E 87 90 2d 00
        E 746 90 34 31
        E 11 90 45 2a
        E 51 90 34 00
        E 10 90 45 00
        E 368 e0 2b 15
        E 0 90 28 25
        E 6 e0 2b 15
        E 5 e0 2b 15
        E 6 e0 2b 15
        E 5 e0 2b 15
        E 6 e0 2b 15
        E 5 e0 2b 15
        E 6 e0 2b 15
        E 5 e0 00 20
        E 6 e0 00 20
        E 5 e0 00 20
        E 6 e0 00 20
        E 5 e0 00 20
        E 5 e0 00 20
        E 6 e0 00 20
        E 0 90 28 00
        E 281 90 3b 28
        E 61 90 2f 2a
        E 5 90 28 30
        E 26 90 3b 00
        E 36 90 28 00
        E 0 90 2f 00
        E 138 e0 2b 15
        E 0 90 28 2b
        E 5 e0 2b 15
        E 6 e0 2b 15
        E 5 e0 2b 15
        E 6 e0 2b 15
        E 5 e0 2b 15
        E 6 e0 2b 15
        E 5 e0 2b 15
        E 6 e0 2b 15
        E 5 e0 2b 15
        E 6 e0 2b 15
        E 5 e0 2b 15
        E 6 e0 2b 15
        E 0 90 28 00
        E 593 e0 2b 15
        E 0 90 28 1f
        E 6 e0 55 0a
        E 5 e0 55 0a
        E 6 e0 55 0a
        E 5 e0 2b 15
        E 5 e0 2b 15
        E 6 e0 2b 15
        E 5 e0 00 20
        E 6 e0 00 20
        E 5 e0 55 2a
        E 6 e0 7f 7f
        E 5 e0 7f 7f
        E 6 e0 00 20
        E 5 e0 00 20
        E 6 e0 00 20
        E 0 90 28 00
        E 133 e0 00 20
        E 0 90 32 1f
        E 5 e0 2b 15
        E 5 e0 2b 55
        E 6 e0 00 60
        E 5 e0 00 60
        E 6 e0 00 60
        E 5 e0 00 60
        E 6 e0 00 60
        E 5 e0 00 20
        E 6 e0 00 20
        E 5 e0 55 6a
        E 6 e0 55 6a
        E 5 e0 00 60
        E 6 e0 00 60
        E 5 e0 00 60
        E 0 90 32 00
        E 363 e0 00 00
        E 0 90 3c 24
        E 6 e0 00 00
        E 5 e0 00 00
        E 5 e0 00 00
        E 6 e0 00 00
        E 5 e0 55 6a
        E 5 e0 55 6a
        E 6 e0 55 6a
        E 5 e0 55 6a
        E 5 e0 55 6a
        E 6 e0 55 0a
        E 5 e0 55 0a
        E 5 e0 55 0a
        E 6 e0 55 0a
        E 5 e0 55 0a
        E 5 e0 55 6a
        E 6 e0 55 6a
        E 5 e0 55 6a
        E 5 e0 55 6a
        E 6 e0 55 6a
        E 5 e0 55 6a
        E 5 e0 55 0a
        E 6 e0 55 6a
        E 5 e0 55 6a
        E 0 90 3c 00
        E 225 e0 00 20
        E 0 90 45 22
        E 5 e0 00 20
        E 6 e0 00 20
        E 5 e0 00 20
        E 6 e0 00 20
        E 5 e0 00 20
        E 6 e0 00 20
        E 5 e0 2b 15
        E 6 e0 2b 15
        E 5 e0 2b 15
        E 6 e0 2b 15
        E 5 e0 2b 15
        E 5 e0 2b 15
        E 6 e0 00 20
        E 5 e0 00 60
        E 0 90 45 00
        E 185 90 29 2c
        E 5 90 32 1e
        E 66 90 29 00
        E 0 90 32 00
        E 348 90 29 23
        E 5 90 32 22
        E 15 90 3c 28
        E 51 90 32 00
        E 62 90 29 00
        E 10 90 3c 00
        E 92 e0 00 00
        E 0 90 3c 27
        E 5 e0 00 00
        E 6 e0 00 00
        E 5 e0 00 00
        E 6 e0 00 60
        E 5 e0 00 60
        E 6 e0 00 60
        E 5 e0 00 60
        E 6 e0 00 00
        E 6 e0 00 00
        E 5 e0 00 00
        E 6 e0 00 00
        E 5 e0 00 00
        E 0 90 3c 00
        E 123 e0 00 00
        E 0 90 29 28
        E 6 e0 00 00
        E 5 e0 00 00
        E 6 e0 55 6a
        E 5 e0 55 6a
        E 6 e0 55 6a
        E 6 e0 55 6a
        E 5 e0 55 6a
        E 6 e0 00 60
        E 5 e0 00 60
        E 6 e0 00 60
        E 5 e0 00 60
        E 6 e0 00 60
        E 0 90 29 00
        E 66 90 32 19
        E 56 90 29 22
        E 5 90 45 38
        E 41 90 51 33
        E 11 90 32 00
        E 0 90 3c 23
        E 5 90 29 00
        E 10 90 45 00
        E 36 90 51 00
        E 66 90 3c 00
        E 501 e0 2b 15
        E 0 90 2d 2b
        E 6 e0 2b 15
        E 5 e0 2b 15
        E 6 e0 2b 15
        E 5 e0 2b 15
        E 5 e0 2b 15
        E 6 e0 2b 15
        E 5 e0 2b 15
        E 6 e0 2b 15
        E 5 e0 2b 15
        E 6 e0 2b 15
        E 5 e0 2b 15
        E 6 e0 2b 15
        E 5 e0 2b 15
        E 5 e0 2b 15
        E 6 e0 2b 15
        E 0 90 2d 00
        E 138 90 2d 29
        E 10 90 47 21
        E 56 90 2d 00
        E 10 90 47 00
        E 77 90 2d 18
        E 51 90 4d 32
        E 51 90 2d 00
        E 16 90 4d 00
        E 291 90 40 28
        E 0 90 43 1f
        E 66 90 2d 29
        E 10 90 43 00
        E 6 90 40 00
        E 82 90 3e 1a
        E 25 90 2d 00
        E 41 90 3e 00
        E 46 90 34 22
        E 0 90 40 1e
        E 92 90 28 39
        E 26 90 40 00
        E 5 90 34 00
        E 30 90 28 00
        E 62 90 2d 2a
        E 10 90 3c 26
        E 51 90 2d 00
        E 77 90 3c 00
        E 66 e0 2b 15
        E 0 90 2d 21
        E 6 e0 00 20
        E 5 e0 00 20
        E 6 e0 00 20
        E 5 e0 00 20
        E 5 e0 00 60
        E 6 e0 00 60
        E 5 e0 00 60
        E 6 e0 00 60
        E 5 e0 00 60
        E 6 e0 00 60
        E 5 e0 00 60
        E 6 e0 00 60
        E 5 e0 00 60
        E 6 e0 00 60
        E 0 90 2d 00
        E 348 e0 55 6a
        E 0 90 48 31
        E 5 e0 55 6a
        E 6 e0 2b 15
        E 5 e0 2b 15
        E 6 e0 00 20
        E 5 e0 00 20
        E 6 e0 00 20
        E 5 e0 00 20
        E 6 e0 00 20
        E 5 e0 00 20
        E 6 e0 00 20
        E 6 e0 00 20
        E 5 e0 00 20
        E 0 90 48 00
        E 148 90 2d 29
        E 0 90 4a 23
        E 62 90 4a 00
        E 132 90 39 2a
        E 51 90 2d 00
        E 82 90 39 00
        E 312 e0 00 20
        E 0 90 28 2e
        E 6 e0 00 20
        E 5 e0 00 20
        E 6 e0 00 20
        E 5 e0 00 20
        E 6 e0 00 20
        E 5 e0 00 20
        E 6 e0 00 20
        E 5 e0 00 20
        E 6 e0 00 20
        E 5 e0 00 20
        E 6 e0 00 20
        E 5 e0 00 20
        E 5 e0 00 20
        E 6 e0 00 20
        E 0 90 28 00
        E 541 90 21 29
        E 6 90 4a 21
        E 5 90 2d 2a
        E 92 90 47 17
        E 5 90 4a 00
        E 26 90 21 00
        E 76 90 47 00
        E 16 90 2d 00
        E 76 90 2d 22
        E 6 90 34 1f
        E 148 90 34 00
        E 20 90 2d 00
        E 123 e0 55 2a
        E 0 90 3b 22
        E 5 e0 00 20
        E 6 e0 00 20
        E 5 e0 00 20
        E 5 e0 00 20
        E 6 e0 00 20
        E 5 e0 00 20
        E 6 e0 00 20
        E 5 e0 00 20
        E 5 e0 00 20
        E 6 e0 00 20
        E 5 e0 00 20
        E 6 e0 00 20
        E 5 e0 00 20
        E 5 e0 00 20
        E 6 e0 00 20
        E 5 e0 00 20
        E 6 e0 00 20
        E 0 90 3b 00
        E 117 e0 7f 7f
        E 0 90 34 35
        E 6 e0 7f 7f
        E 5 e0 7f 7f
        E 6 e0 7f 7f
        E 5 e0 00 20
        E 6 e0 00 20
        E 6 e0 00 20
        E 5 e0 00 20
        E 6 e0 00 20
        E 5 e0 00 20
        E 6 e0 00 20
        E 5 e0 00 20
        E 0 90 34 00
        E 144 90 2d 30
        E 5 90 45 2d
        E 72 90 2d 00
        E 35 90 45 00
        E 108 e0 2b 15
        E 0 90 2b 29
        E 5 e0 2b 15
        E 5 e0 2b 15
        E 6 e0 2b 15
        E 5 e0 2b 15
        E 5 e0 2b 15
        E 6 e0 2b 15
        E 5 e0 2b 15
        E 5 e0 2b 15
        E 5 e0 2b 15
        E 6 e0 2b 15
        E 5 e0 2b 15
        E 5 e0 2b 15
        E 6 e0 2b 15
        E 5 e0 2b 15
        E 5 e0 2b 15
        E 6 e0 2b 15
        E 5 e0 2b 15
        E 5 e0 2b 15
        E 5 e0 2b 15
        E 6 e0 2b 15
        E 5 e0 2b 15
        E 5 e0 2b 15
        E 6 e0 2b 15
        E 5 e0 2b 15
        E 5 e0 2b 15
        E 6 e0 2b 15
        E 0 90 2b 00
        E 194 90 32 27
        E 97 90 28 2c
        E 30 90 32 00
        E 31 90 28 00
        E 159 90 1f 1e
        E 5 90 40 28
        E 56 90 1f 00
        E 72 90 40 00
        E 82 e0 2b 75
        E 0 90 4d 2b
        E 5 e0 2b 75
        E 6 e0 2b 75
        E 5 e0 2b 75
        E 6 e0 2b 75
        E 5 e0 2b 75
        E 6 e0 55 6a
        E 5 e0 55 6a
        E 6 e0 55 6a
        E 5 e0 55 6a
        E 6 e0 55 6a
        E 5 e0 2b 75
        E 6 e0 2b 75
        E 0 90 4d 00
        E 77 e0 2b 75
        E 0 90 40 1b
        E 5 e0 2b 75
        E 6 e0 2b 75
        E 5 e0 2b 75
        E 6 e0 2b 75
        E 5 e0 2b 75
        E 6 e0 2b 75
        E 5 e0 2b 75
        E 6 e0 2b 75
        E 5 e0 00 20
        E 6 e0 00 20
        E 5 e0 00 20
        E 6 e0 00 20
        E 5 e0 00 20
        E 0 90 40 00
        E 5 90 40 23
        E 194 90 1f 26
        E 26 90 2b 32
        E 0 90 40 00
        E 0 90 40 29
        E 71 90 32 2a
        E 21 90 2b 00
        E 41 90 32 00
        E 10 90 40 00
        E 67 90 1f 00
        E 613 e0 55 2a
        E 0 90 28 2a
        E 5 e0 55 2a
        E 6 e0 55 2a
        E 5 e0 00 20
        E 6 e0 55 6a
        E 5 e0 2b 75
        E 6 e0 2b 75
        E 5 e0 2b 75
        E 6 e0 2b 75
        E 5 e0 2b 75
        E 6 e0 2b 75
        E 5 e0 2b 75
        E 6 e0 2b 75
        E 5 e0 00 20
        E 6 e0 00 20
        E 0 90 28 00
        E 132 e0 00 20
        E 0 90 28 29
        E 5 e0 00 20
        E 6 e0 00 20
        E 5 e0 00 20
        E 5 e0 00 20
        E 5 e0 00 20
        E 5 e0 00 20
        E 5 e0 00 20
        E 5 e0 00 20
        E 6 e0 00 20
        E 5 e0 00 20
        E 5 e0 00 20
        E 5 e0 00 20
        E 5 e0 00 20
        E 5 e0 00 20
        E 5 e0 00 20
        E 6 e0 00 20
        E 5 e0 00 20
        E 5 e0 2b 75
        E 0 90 28 00
        E 122 e0 55 0a
        E 0 90 29 26
        E 6 e0 55 0a
        E 5 e0 55 0a
        E 5 e0 55 0a
        E 6 e0 55 0a
        E 5 e0 55 0a
        E 5 e0 55 0a
        E 6 e0 55 0a
        E 5 e0 55 0a
        E 5 e0 55 0a
        E 6 e0 55 0a
        E 5 e0 55 0a
        E 5 e0 55 0a
        E 6 e0 55 0a
        E 5 e0 55 0a
        E 5 e0 55 0a
        E 6 e0 55 0a
        E 5 e0 00 60
        E 5 e0 55 0a
        E 6 e0 55 0a
        E 5 e0 55 0a
        E 5 e0 00 60
        E 6 e0 00 60
        E 5 e0 00 60
        E 0 90 29 00
        E 301 e0 00 00
        E 0 90 39 2d
        E 6 e0 2b 15
        E 5 e0 00 20
        E 6 e0 00 20
        E 5 e0 00 20
        E 6 e0 00 20
        E 5 e0 00 20
        E 6 e0 00 20
        E 5 e0 00 20
        E 6 e0 00 20
        E 5 e0 00 20
        E 6 e0 00 20
        E 5 e0 00 20
        E 6 e0 00 20
        E 0 90 39 00
        E 148 90 2d 21
        E 10 90 40 20
        E 62 90 2d 00
        E 82 90 40 00
        E 501 e0 55 0a
        E 0 90 29 24
        E 5 e0 00 00
        E 5 e0 00 00
        E 5 e0 00 00
        E 5 e0 55 0a
        E 6 e0 55 0a
        E 5 e0 55 0a
        E 5 e0 55 0a
        E 5 e0 55 0a
        E 5 e0 55 0a
        E 6 e0 55 0a
        E 5 e0 00 60
        E 5 e0 00 60
        E 5 e0 00 60
        E 5 e0 00 60
        E 6 e0 00 60
        E 5 e0 00 60
        E 5 e0 00 60
        E 5 e0 00 60
        E 6 e0 00 60
        E 5 e0 55 0a
        E 5 e0 55 0a
        E 5 e0 55 0a
        E 5 e0 2b 15
        E 6 e0 2b 15
        E 5 e0 2b 15
        E 5 e0 2b 15
        E 5 e0 00 60
        E 5 e0 00 60
        E 6 e0 2b 15
        E 5 e0 2b 15
        E 5 e0 2b 15
        E 5 e0 2b 15
        E 5 e0 2b 15
        E 6 e0 00 60
        E 5 e0 00 60
        E 5 e0 00 60
        E 5 e0 00 60
        E 5 e0 00 60
        E 6 e0 00 60
        E 5 e0 00 60
        E 5 e0 00 60
        E 5 e0 00 60
        E 6 e0 00 60
        E 5 e0 00 60
        E 5 e0 00 60
        E 5 e0 00 60
        E 5 e0 00 60
        E 6 e0 00 60
        E 5 e0 00 60
        E 5 e0 00 60
        E 5 e0 00 60
        E 0 90 29 00
        E 144 e0 00 20
        E 0 90 2d 27
        E 5 e0 00 20
        E 6 e0 00 20
        E 5 e0 00 20
        E 6 e0 00 20
        E 5 e0 00 20
        E 5 e0 00 20
        E 6 e0 00 20
        E 5 e0 00 20
        E 6 e0 00 20
        E 5 e0 00 20
        E 6 e0 00 20
        E 5 e0 00 20
        E 6 e0 00 20
        E 5 e0 00 20
        E 6 e0 55 6a
        E 0 90 2d 00
        E 97 90 39 1c
        E 35 90 2d 24
        E 77 90 39 00
        E 61 90 2d 00
        E 67 e0 55 0a
        E 0 90 32 22
        E 5 e0 55 0a
        E 6 e0 2b 15
        E 5 e0 2b 15
        E 6 e0 55 6a
        E 5 e0 55 6a
        E 6 e0 00 60
        E 5 e0 00 60
        E 5 e0 00 60
        E 6 e0 00 20
        E 5 e0 00 20
        E 6 e0 00 20
        E 5 e0 00 60
        E 6 e0 00 60
        E 5 e0 00 60
        E 0 90 32 00
        E 338 e0 00 20
        E 0 90 28 2e
        E 5 e0 00 20
        E 6 e0 00 20
        E 5 e0 00 20
        E 6 e0 00 20
        E 5 e0 00 20
        E 5 e0 00 20
        E 6 e0 00 20
        E 5 e0 00 20
        E 5 e0 00 20
        E 6 e0 00 20
        E 5 e0 00 20
        E 6 e0 00 20
        E 5 e0 00 20
        E 5 e0 00 20
        E 6 e0 00 20
        E 5 e0 00 20
        E 5 e0 00 20
        E 6 e0 00 20
        E 5 e0 00 20
        E 0 90 28 00
        E 133 e0 2b 15
        E 0 90 45 24
        E 5 e0 00 20
        E 5 e0 00 20
        E 6 e0 00 20
        E 5 e0 00 20
        E 5 e0 00 20
        E 5 e0 00 20
        E 6 e0 00 20
        E 5 e0 00 20
        E 5 e0 00 20
        E 5 e0 00 20
        E 6 e0 00 20
        E 5 e0 00 20
        E 5 e0 00 20
        E 5 e0 00 20
        E 5 e0 55 6a
        E 6 e0 55 6a
        E 5 e0 55 6a
        E 5 e0 00 20
        E 5 e0 00 20
        E 6 e0 00 20
        E 5 e0 00 20
        E 5 e0 00 20
        E 5 e0 00 20
        E 6 e0 00 20
        E 5 e0 00 20
        E 5 e0 00 20
        E 5 e0 00 20
        E 5 e0 00 20
        E 6 e0 00 20
        E 5 e0 00 20
        E 5 e0 00 20
        E 5 e0 00 20
        E 6 e0 00 20
        E 5 e0 00 20
        E 5 e0 00 20
        E 5 e0 00 20
        E 6 e0 00 20
        E 5 e0 00 20
        E 5 e0 00 20
        E 5 e0 00 20
        E 5 e0 00 60
        E 6 e0 00 60
        E 0 90 45 00
        E 189 90 28 2f
        E 10 90 45 2f
        E 56 90 28 00
        E 10 90 45 00
        E 123 90 28 2b
        E 16 90 45 27
        E 102 90 28 00
        E 26 90 45 00
        E 66 90 28 37
        E 5 90 2f 18
        E 10 90 34 33
        E 0 90 45 24
        E 51 90 2f 00
        E 5 90 28 00
        E 6 90 34 00
        E 10 90 45 00
        E 133 90 28 2e
        E 15 90 34 2b
        E 0 90 40 28
        E 0 90 45 29
        E 61 90 45 00
        E 16 90 28 00
        E 10 90 34 00
        E 5 90 40 00
        E 97 e0 00 20
        E 0 90 28 2f
        E 5 e0 00 20
        E 6 e0 00 20
        E 5 e0 00 20
        E 5 e0 2b 15
        E 6 e0 2b 15
        E 5 e0 2b 15
        E 6 e0 2b 15
        E 5 e0 2b 15
        E 5 e0 00 20
        E 6 e0 00 20
        E 5 e0 00 20
        E 6 e0 00 20
        E 5 e0 00 20
        E 5 e0 00 20
        E 6 e0 00 20
        E 5 e0 00 20
        E 6 e0 00 20
        E 5 e0 00 20
        E 0 90 28 00
        E 113 e0 00 20
        E 0 90 28 2f
        E 5 e0 00 20
        E 6 e0 00 20
        E 6 e0 00 20
        E 5 e0 00 20
        E 6 e0 00 20
        E 5 e0 00 20
        E 6 e0 00 20
        E 5 e0 00 20
        E 6 e0 00 20
        E 5 e0 00 20
        E 6 e0 00 20
        E 5 e0 00 20
        E 0 90 28 00
        E 143 e0 00 20
        E 0 90 28 35
        E 6 e0 00 20
        E 5 e0 2b 15
        E 6 e0 2b 15
        E 5 e0 00 20
        E 6 e0 00 20
        E 5 e0 00 20
        E 6 e0 00 20
        E 5 e0 00 20
        E 6 e0 00 20
        E 5 e0 00 20
        E 6 e0 00 20
        E 5 e0 00 20
        E 6 e0 00 20
        E 0 90 28 00
        E 97 90 45 27
        E 51 90 34 29
        E 0 90 40 28
        E 10 90 45 00
        E 56 90 34 00
        E 6 e0 00 20
        E 0 90 40 00
        E 0 90 45 1c
        E 5 e0 00 60
        E 6 e0 00 60
        E 5 e0 00 60
        E 6 e0 00 60
        E 5 e0 00 60
        E 6 e0 00 60
        E 6 e0 00 60
        E 5 e0 00 60
        E 6 e0 00 60
        E 5 e0 00 60
        E 6 e0 55 6a
        E 0 90 45 00
        E 61 90 28 2c
        E 15 90 45 20
        E 6 90 40 26
        E 66 90 28 00
        E 5 90 40 00
        E 36 90 45 00
        E 87 90 28 2b
        E 0 90 3e 1d
        E 5 90 45 25
        E 0 90 4c 2b
        E 77 90 4c 00
        E 46 90 3e 00
        E 15 90 28 00
        E 0 90 45 00
        E 62 90 28 2b
        E 10 90 45 27
        E 117 90 28 00
        E 5 90 45 00
        E 246 90 45 26
        E 25 90 1c 26
        E 21 90 28 27
        E 20 90 45 00
        E 46 90 1c 00
        E 133 90 45 24
        E 15 90 4d 2a
        E 67 90 4d 00
        E 138 90 45 00
        E 5 90 28 00
        E 123 e0 00 20
        E 0 90 45 16
        E 5 e0 55 6a
        E 6 e0 55 6a
        E 5 e0 55 6a
        E 6 e0 55 0a
        E 5 e0 55 0a
        E 6 e0 55 0a
        E 6 e0 2b 15
        E 5 e0 2b 15
        E 6 e0 2b 15
        E 5 e0 2b 15
        E 6 e0 2b 15
        E 5 e0 00 20
        E 0 90 45 00
        E 5 90 28 2c
        E 0 90 45 1d
        E 102 90 45 00
        E 179 90 28 00
        E 5 90 45 1b
        E 123 90 28 37
        E 10 90 45 00
        E 5 90 45 29
        E 51 90 28 00
        E 11 90 45 00
        E 61 90 28 16
        E 26 90 45 26
        E 36 90 28 00
        E 5 90 28 27
        E 20 90 45 00
        E 138 90 45 22
        E 72 90 48 2a
        E 51 90 45 00
        E 76 90 28 00
        E 11 90 48 00
        E 56 90 28 2d
        E 15 90 40 26
        E 77 90 28 00
        E 10 90 40 00
        E 220 90 2d 28
        E 82 90 41 33
        E 26 90 2d 00
        E 35 90 41 00
        E 82 90 26 20
        E 72 90 35 28
        E 10 90 26 00
        E 87 90 40 1e
        E 15 90 35 00
        E 77 90 26 26
        E 25 90 40 00
        E 87 90 2d 2a
        E 5 90 26 00
        E 82 90 26 26
        E 46 90 2d 00
        E 81 90 2d 24
        E 16 90 26 00
        E 97 90 2d 00
        E 179 e0 00 60
        E 0 90 26 28
        E 6 e0 00 60
        E 5 e0 00 60
        E 5 e0 2b 15
        E 5 e0 00 20
        E 6 e0 00 20
        E 5 e0 00 60
        E 5 e0 00 60
        E 6 e0 00 60
        E 5 e0 00 60
        E 5 e0 55 6a
        E 5 e0 2b 15
        E 6 e0 2b 15
        E 5 e0 2b 15
        E 5 e0 2b 15
        E 6 e0 2b 15
        E 5 e0 2b 15
        E 5 e0 2b 15
        E 6 e0 2b 15
        E 5 e0 2b 15
        E 5 e0 2b 15
        E 5 e0 2b 15
        E 6 e0 2b 15
        E 5 e0 2b 15
        E 5 e0 2b 15
        E 6 e0 2b 15
        E 5 e0 2b 15
        E 5 e0 2b 15
        E 0 90 26 00
        E 496 90 41 26
        E 97 90 2d 24
        E 51 90 41 00
        E 41 90 26 2c
        E 113 90 26 00
        E 56 90 2d 00
        E 179 e0 55 0a
        E 0 90 35 21
        E 5 e0 55 0a
        E 6 e0 55 0a
        E 5 e0 55 0a
        E 5 e0 55 0a
        E 6 e0 55 0a
        E 5 e0 55 0a
        E 5 e0 55 0a
        E 6 e0 55 0a
        E 5 e0 55 6a
        E 6 e0 55 6a
        E 5 e0 55 6a
        E 5 e0 55 6a
        E 6 e0 55 0a
        E 5 e0 55 0a
        E 6 e0 55 6a
        E 5 e0 55 6a
        E 5 e0 55 6a
        E 6 e0 55 6a
        E 0 90 35 00
        E 61 90 34 28
        E 5 90 4c 37
        E 31 90 26 23
        E 25 90 34 00
        E 5 90 4c 00
        E 92 90 26 00
        E 103 e0 00 00
        E 0 90 41 2a
        E 6 e0 2b 75
        E 5 e0 2b 75
        E 5 e0 2b 75
        E 6 e0 55 6a
        E 5 e0 55 6a
        E 5 e0 55 6a
        E 6 e0 55 6a
        E 5 e0 55 6a
        E 5 e0 55 6a
        E 6 e0 55 6a
        E 5 e0 2b 75
        E 5 e0 2b 75
        E 6 e0 2b 75
        E 5 e0 2b 75
        E 5 e0 2b 75
        E 6 e0 2b 75
        E 5 e0 2b 75
        E 6 e0 2b 75
        E 5 e0 2b 75
        E 5 e0 00 00
        E 6 e0 00 00
        E 0 90 41 00
        E 81 90 48 38
        E 11 90 35 27
        E 51 90 48 00
        E 35 90 40 1f
        E 26 90 35 00
        E 107 90 40 00
        E 82 90 2d 27
        E 102 90 41 2d
        E 72 90 41 00
        E 46 90 2d 00
        E 296 90 26 2d
        E 113 90 40 1c
        E 10 90 26 00
        E 97 90 2d 28
        E 21 90 40 00
        E 107 90 2d 00
        E 30 90 48 2a
        E 46 90 35 29
        E 21 90 48 00
        E 112 90 35 00
        E 185 90 2d 2f
        E 117 90 26 27
        E 41 90 2d 00
        E 87 90 26 00
        E 352 e0 55 6a
        E 0 90 45 22
        E 6 e0 55 6a
        E 5 e0 55 6a
        E 5 e0 55 6a
        E 6 e0 00 20
        E 5 e0 00 20
        E 5 e0 00 20
        E 6 e0 00 20
        E 5 e0 00 20
        E 5 e0 00 20
        E 6 e0 00 20
        E 5 e0 00 20
        E 5 e0 00 20
        E 6 e0 00 20
        E 5 e0 00 20
        E 5 e0 00 20
        E 6 e0 00 20
        E 5 e0 00 20
        E 5 e0 00 20
        E 5 e0 00 60
        E 6 e0 55 6a
        E 5 e0 55 6a
        E 5 e0 00 20
        E 6 e0 00 20
        E 5 e0 00 20
        E 0 90 45 00
        E 77 e0 00 00
        E 0 90 3c 28
        E 6 e0 00 00
        E 5 e0 00 00
        E 5 e0 55 0a
        E 6 e0 55 6a
        E 5 e0 55 6a
        E 5 e0 55 6a
        E 6 e0 55 6a
        E 5 e0 55 6a
        E 5 e0 55 6a
        E 6 e0 55 6a
        E 5 e0 55 6a
        E 5 e0 55 6a
        E 6 e0 55 6a
        E 5 e0 55 6a
        E 5 e0 55 6a
        E 6 e0 55 6a
        E 5 e0 55 6a
        E 5 e0 55 6a
        E 6 e0 55 6a
        E 5 e0 55 6a
        E 5 e0 55 6a
        E 6 e0 55 6a
        E 0 90 3c 00
        E 76 e0 00 20
        E 0 90 45 25
        E 6 e0 00 20
        E 5 e0 00 20
        E 5 e0 00 20
        E 6 e0 00 20
        E 5 e0 00 20
        E 5 e0 00 20
        E 6 e0 00 20
        E 5 e0 00 20
        E 5 e0 00 20
        E 6 e0 00 20
        E 5 e0 00 20
        E 5 e0 00 20
        E 6 e0 00 20
        E 5 e0 00 20
        E 6 e0 00 20
        E 5 e0 00 20
        E 5 e0 00 20
        E 6 e0 00 20
        E 5 e0 00 20
        E 5 e0 00 20
        E 6 e0 00 20
        E 5 e0 55 6a
        E 0 90 45 00
        E 286 e0 2b 75
        E 0 90 48 25
        E 5 e0 2b 75
        E 6 e0 2b 75
        E 5 e0 2b 15
        E 5 e0 2b 15
        E 5 e0 55 6a
        E 6 e0 55 6a
        E 5 e0 55 6a
        E 5 e0 55 6a
        E 6 e0 55 6a
        E 5 e0 55 6a
        E 5 e0 55 6a
        E 5 e0 55 6a
        E 6 e0 55 6a
        E 5 e0 55 6a
        E 5 e0 55 6a
        E 6 e0 55 6a
        E 5 e0 55 6a
        E 5 e0 55 6a
        E 5 e0 55 6a
        E 6 e0 55 6a
        E 5 e0 55 6a
        E 5 e0 55 6a
        E 6 e0 00 60
        E 5 e0 00 60
        E 5 e0 00 60
        E 5 e0 55 6a
        E 6 e0 55 6a
        E 5 e0 55 6a
        E 5 e0 55 6a
        E 0 90 48 00
        E 149 90 41 22
        E 107 90 29 27
        E 0 90 35 29
        E 220 90 29 00
        E 5 90 35 00
        E 0 90 41 00
        E 194 90 3c 2a
        E 15 90 41 23
        E 97 90 29 22
        E 6 90 35 21
        E 20 90 3c 00
        E 174 90 29 00
        E 5 90 41 00
        E 46 90 35 00
        E 731 90 28 2a
        E 108 90 41 27
        E 10 90 28 00
        E 117 90 41 00
        E 57 90 28 26
        E 112 90 41 2d
        E 10 90 28 00
        E 102 90 41 00
        E 184 e0 2b 75
        E 0 90 48 25
        E 6 e0 2b 75
        E 5 e0 55 6a
        E 5 e0 55 6a
        E 5 e0 55 6a
        E 6 e0 55 6a
        E 5 e0 55 6a
        E 5 e0 55 6a
        E 6 e0 55 6a
        E 5 e0 55 6a
        E 5 e0 55 6a
        E 5 e0 55 6a
        E 6 e0 55 6a
        E 5 e0 55 6a
        E 5 e0 55 6a
        E 6 e0 55 6a
        E 5 e0 55 6a
        E 5 e0 55 0a
        E 5 e0 55 6a
        E 6 e0 55 6a
        E 5 e0 55 6a
        E 5 e0 55 6a
        E 6 e0 55 6a
        E 5 e0 55 6a
        E 5 e0 55 6a
        E 6 e0 55 6a
        E 5 e0 55 6a
        E 5 e0 55 6a
        E 5 e0 55 6a
        E 0 90 48 00
        E 272 e0 55 6a
        E 0 90 48 23
        E 5 e0 55 6a
        E 5 e0 55 6a
        E 6 e0 55 0a
        E 5 e0 55 0a
        E 5 e0 2b 15
        E 6 e0 2b 15
        E 5 e0 2b 15
        E 6 e0 2b 15
        E 5 e0 2b 15
        E 5 e0 2b 15
        E 6 e0 2b 15
        E 5 e0 00 20
        E 5 e0 00 20
        E 6 e0 00 20
        E 5 e0 00 20
        E 5 e0 00 20
        E 6 e0 00 20
        E 5 e0 00 20
        E 5 e0 55 6a
        E 6 e0 55 6a
        E 5 e0 00 60
        E 0 90 48 00
        E 87 e0 2b 15
        E 0 90 40 23
        E 5 e0 2b 15
        E 6 e0 00 20
        E 5 e0 00 20
        E 6 e0 00 20
        E 5 e0 00 20
        E 6 e0 00 20
        E 5 e0 00 20
        E 6 e0 00 20
        E 5 e0 00 20
        E 6 e0 00 20
        E 5 e0 00 20
        E 6 e0 00 20
        E 5 e0 00 20
        E 0 90 40 00
        E 373 90 28 31
        E 26 90 3c 26
        E 0 90 40 2b
        E 46 90 28 00
        E 16 90 3c 00
        E 0 90 40 00
        E 679 90 29 29
        E 0 90 41 23
        E 16 90 2d 2b
        E 45 90 29 00
        E 77 90 2d 00
        E 52 90 4c 47
        E 10 90 30 23
        E 31 90 3c 29
        E 5 90 45 27
        E 15 90 4c 00
        E 36 90 30 00
        E 66 90 45 00
        E 5 90 3c 00
        E 97 90 45 20
        E 6 90 41 00
        E 0 90 41 26
        E 132 90 41 00
        E 92 90 3c 2e
        E 5 90 2d 2b
        E 21 90 45 00
        E 36 90 3c 00
        E 81 90 2d 00
        E 82 90 41 29
        E 15 90 45 22
        E 113 90 2d 24
        E 10 90 45 00
        E 15 90 41 00
        E 93 90 2d 00
        E 219 90 30 18
        E 0 90 39 21
        E 0 90 3c 24
        E 6 90 2d 28
        E 61 90 30 00
        E 0 90 39 00
        E 71 90 2d 00
        E 97 90 41 1e
        E 21 90 3c 00
        E 220 90 41 00
        E 87 e0 55 6a
        E 0 90 4a 1d
        E 5 e0 55 6a
        E 6 e0 55 6a
        E 5 e0 55 6a
        E 6 e0 55 6a
        E 5 e0 55 6a
        E 6 e0 55 6a
        E 5 e0 55 6a
        E 6 e0 55 6a
        E 5 e0 55 6a
        E 6 e0 55 6a
        E 5 e0 55 6a
        E 6 e0 55 6a
        E 5 e0 55 6a
        E 0 90 4a 00
        E 389 e0 00 60
        E 0 90 41 19
        E 5 e0 00 60
        E 5 e0 00 60
        E 6 e0 00 60
        E 5 e0 00 60
        E 6 e0 00 60
        E 5 e0 55 6a
        E 5 e0 00 60
        E 6 e0 00 60
        E 5 e0 55 6a
        E 5 e0 55 6a
        E 6 e0 55 6a
        E 5 e0 2b 15
        E 5 e0 2b 15
        E 6 e0 2b 15
        E 5 e0 00 60
        E 6 e0 00 60
        E 5 e0 55 6a
        E 5 e0 55 6a
        E 6 e0 55 6a
        E 5 e0 55 6a
        E 0 90 41 00
        E 5 e0 55 6a
        E 0 90 41 25
        E 5 e0 55 6a
        E 6 e0 55 6a
        E 5 e0 00 20
        E 5 e0 00 20
        E 5 e0 00 20
        E 6 e0 00 20
        E 5 e0 00 20
        E 5 e0 00 20
        E 6 e0 2b 15
        E 5 e0 2b 15
        E 5 e0 2b 15
        E 5 e0 2b 15
        E 6 e0 2b 15
        E 5 e0 2b 15
        E 5 e0 2b 15
        E 5 e0 2b 15
        E 6 e0 2b 15
        E 5 e0 2b 15
        E 5 e0 55 6a
        E 6 e0 55 6a
        E 5 e0 55 6a
        E 5 e0 55 6a
        E 5 e0 55 6a
        E 6 e0 55 6a
        E 5 e0 55 6a
        E 5 e0 55 6a
        E 5 e0 55 6a
        E 6 e0 55 6a
        E 5 e0 55 6a
        E 5 e0 2b 15
        E 6 e0 2b 15
        E 0 90 41 00
        E 66 e0 55 6a
        E 0 90 2d 29
        E 5 e0 55 6a
        E 5 e0 00 20
        E 5 e0 00 20
        E 6 e0 00 20
        E 5 e0 00 20
        E 5 e0 00 20
        E 5 e0 00 20
        E 5 e0 00 20
        E 5 e0 00 20
        E 5 e0 00 20
        E 5 e0 00 20
        E 6 e0 00 20
        E 5 e0 00 20
        E 5 e0 00 20
        E 5 e0 00 20
        E 5 e0 00 20
        E 5 e0 00 20
        E 5 e0 00 20
        E 5 e0 00 20
        E 6 e0 00 20
        E 5 e0 00 20
        E 5 e0 00 20
        E 5 e0 00 20
        E 5 e0 00 20
        E 5 e0 00 20
        E 5 e0 00 20
        E 0 90 2d 00
        E 317 e0 55 6a
        E 0 90 2d 26
        E 5 e0 55 6a
        E 6 e0 2b 75
        E 5 e0 2b 75
        E 5 e0 2b 75
        E 6 e0 2b 75
        E 5 e0 2b 75
        E 6 e0 2b 75
        E 5 e0 2b 75
        E 5 e0 2b 75
        E 6 e0 2b 75
        E 5 e0 2b 75
        E 5 e0 2b 75
        E 6 e0 2b 75
        E 5 e0 2b 75
        E 5 e0 2b 75
        E 6 e0 00 20
        E 5 e0 00 20
        E 5 e0 00 20
        E 6 e0 00 20
        E 5 e0 00 20
        E 5 e0 00 20
        E 0 90 2d 00
        E 103 90 39 1c
        E 10 90 2d 2d
        E 117 90 39 00
        E 26 90 2d 00
        E 82 90 2d 26
        E 10 90 39 27
        E 108 90 2d 00
        E 10 90 39 00
        E 439 90 2d 29
        E 107 90 21 29
        E 31 90 2d 00
        E 97 90 21 00
        E 317 90 2d 3a
        E 11 90 48 20
        E 56 90 2d 00
        E 51 90 43 20
        E 15 90 48 00
        E 36 90 2d 2c
        E 92 90 43 00
        E 26 90 2d 00
        E 61 90 2d 29
        E 0 90 39 29
        E 153 90 39 00
        E 5 90 2d 00
        E 180 90 2d 28
        E 92 90 28 39
        E 25 90 34 23
        E 31 90 2d 00
        E 5 90 28 00
        E 41 90 4c 42
        E 61 90 34 00
        E 0 90 4c 00
        E 429 90 2d 34
        E 10 90 41 24
        E 57 90 2d 00
        E 20 90 41 00
        E 46 90 2d 23
        E 92 90 41 23
        E 6 90 3e 14
        E 5 90 45 1c
        E 56 90 3e 00
        E 5 90 2d 00
        E 46 90 45 00
        E 5 90 41 00
        E 97 90 2d 24
        E 5 90 41 27
        E 87 90 2d 00
        E 164 90 41 00
        E 214 e0 55 0a
        E 0 90 45 25
        E 5 e0 2b 15
        E 6 e0 2b 15
        E 5 e0 00 20
        E 5 e0 2b 15
        E 6 e0 00 20
        E 5 e0 00 20
        E 6 e0 00 20
        E 5 e0 00 20
        E 5 e0 00 20
        E 6 e0 00 20
        E 5 e0 00 20
        E 5 e0 00 20
        E 6 e0 00 20
        E 5 e0 00 20
        E 5 e0 00 20
        E 6 e0 2b 15
        E 5 e0 2b 15
        E 5 e0 00 60
        E 6 e0 00 60
        E 5 e0 00 60
        E 5 e0 00 20
        E 0 90 45 00
        E 772 90 4d 3a
        E 11 90 3c 2a
        E 0 90 41 29
        E 51 90 4d 00
        E 10 90 3c 00
        E 113 90 41 00
        E 41 90 30 20
        E 5 90 3c 26
        E 5 90 4c 2b
        E 71 90 4c 00
        E 62 90 3c 00
        E 5 90 30 00
        E 76 90 21 26
        E 6 90 28 22
        E 5 90 34 1b
        E 102 90 39 26
        E 5 90 2d 25
        E 10 90 21 00
        E 10 90 28 00
        E 36 90 39 00
        E 36 90 48 20
        E 25 90 21 26
        E 21 90 34 00
        E 10 90 2d 00
        E 5 90 48 00
        E 36 90 21 00
        E 117 e0 55 0a
        E 0 90 48 14
        E 6 e0 55 0a
        E 6 e0 55 0a
        E 5 e0 55 6a
        E 6 e0 55 6a
        E 5 e0 00 60
        E 6 e0 00 60
        E 6 e0 00 60
        E 5 e0 00 60
        E 6 e0 00 20
        E 5 e0 00 20
        E 6 e0 00 20
        E 0 90 48 00
        E 547 90 48 1e
        E 92 90 2d 41
        E 15 90 39 30
        E 0 90 3c 27
        E 16 90 48 00
        E 35 90 2d 00
        E 21 90 3c 00
        E 5 90 39 00
        E 271 90 45 22
        E 92 90 28 1e
        E 5 90 2d 25
        E 26 90 45 00
        E 102 90 28 00
        E 0 90 2d 00
        E 97 90 21 22
        E 10 90 2d 2d
        E 215 90 34 29
        E 25 90 21 00
        E 16 90 2d 00
        E 86 90 34 00
        E 72 90 34 2b
        E 0 90 39 3f
        E 10 90 45 26
        E 51 90 34 00
        E 0 90 39 00
        E 88 90 39 22
        E 20 90 45 00
        E 107 90 2d 27
        E 16 90 39 00
        E 127 90 2d 00
        E 72 90 2d 28
        E 0 90 45 1b
        E 112 90 45 00
        E 16 90 2d 00
        E 97 e0 7f 7f
        E 0 90 47 23
        E 5 e0 2b 75
        E 5 e0 2b 75
        E 6 e0 00 20
        E 5 e0 00 20
        E 5 e0 00 20
        E 6 e0 00 20
        E 5 e0 00 20
        E 5 e0 00 20
        E 6 e0 00 20
        E 5 e0 00 20
        E 5 e0 00 20
        E 6 e0 00 20
        E 5 e0 00 20
        E 5 e0 00 20
        E 6 e0 00 20
        E 5 e0 00 20
        E 6 e0 00 20
        E 5 e0 00 20
        E 5 e0 00 20
        E 6 e0 00 20
        E 5 e0 00 20
        E 5 e0 00 20
        E 0 90 47 00
        E 87 e0 2b 15
        E 0 90 2d 2b
        E 5 e0 2b 15
        E 5 e0 2b 15
        E 5 e0 2b 15
        E 6 e0 2b 15
        E 5 e0 2b 15
        E 5 e0 00 20
        E 5 e0 00 20
        E 5 e0 00 20
        E 5 e0 00 20
        E 5 e0 00 20
        E 5 e0 00 20
        E 6 e0 00 20
        E 5 e0 00 20
        E 5 e0 00 20
        E 5 e0 00 20
        E 5 e0 00 20
        E 5 e0 00 20
        E 5 e0 00 20
        E 5 e0 00 20
        E 6 e0 00 20
        E 5 e0 00 20
        E 5 e0 2b 15
        E 5 e0 2b 15
        E 5 e0 2b 15
        E 5 e0 2b 15
        E 5 e0 2b 15
        E 6 e0 2b 15
        E 5 e0 2b 15
        E 5 e0 2b 15
        E 5 e0 2b 15
        E 0 90 2d 00
        E 71 90 28 25
        E 0 90 41 31
        E 62 90 41 00
        E 66 90 28 00
        E 107 e0 55 6a
        E 0 90 48 2b
        E 6 e0 55 6a
        E 5 e0 55 6a
        E 5 e0 55 6a
        E 6 e0 2b 15
        E 5 e0 55 0a
        E 5 e0 55 0a
        E 6 e0 55 0a
        E 5 e0 55 0a
        E 5 e0 2b 15
        E 5 e0 2b 15
        E 6 e0 55 6a
        E 5 e0 55 6a
        E 5 e0 55 6a
        E 6 e0 55 6a
        E 5 e0 55 6a
        E 5 e0 55 6a
        E 6 e0 55 6a
        E 5 e0 55 6a
        E 5 e0 55 6a
        E 5 e0 55 6a
        E 6 e0 55 0a
        E 5 e0 55 0a
        E 5 e0 55 0a
        E 6 e0 55 0a
        E 5 e0 55 0a
        E 5 e0 55 0a
        E 0 90 48 00
        E 72 90 39 27
        E 10 90 2d 2b
        E 77 90 28 22
        E 10 90 41 20
        E 5 90 39 00
        E 46 90 28 00
        E 5 90 2d 00
        E 72 90 2d 25
        E 46 90 41 00
        E 46 90 40 1a
        E 112 90 28 25
        E 0 90 39 1c
        E 16 90 40 00
        E 102 90 28 00
        E 0 90 39 00
        E 10 90 2d 00
        E 97 e0 7f 7f
        E 0 90 2d 31
        E 6 e0 7f 7f
        E 5 e0 2b 15
        E 5 e0 2b 15
        E 5 e0 2b 15
        E 6 e0 2b 15
        E 5 e0 2b 15
        E 5 e0 2b 15
        E 6 e0 2b 15
        E 5 e0 2b 15
        E 5 e0 00 20
        E 5 e0 00 20
        E 6 e0 00 20
        E 5 e0 00 20
        E 5 e0 2b 15
        E 6 e0 2b 15
        E 5 e0 2b 15
        E 5 e0 2b 15
        E 6 e0 2b 15
        E 5 e0 2b 15
        E 5 e0 2b 15
        E 5 e0 2b 15
        E 6 e0 2b 15
        E 5 e0 2b 15
        E 5 e0 2b 15
        E 6 e0 2b 15
        E 5 e0 2b 15
        E 5 e0 2b 15
        E 5 e0 00 20
        E 0 90 2d 00
        E 67 e0 2b 15
        E 0 90 2d 2f
        E 5 e0 2b 15
        E 5 e0 2b 15
        E 6 e0 55 0a
        E 5 e0 55 0a
        E 5 e0 2b 15
        E 5 e0 2b 15
        E 6 e0 2b 15
        E 5 e0 2b 15
        E 5 e0 2b 15
        E 6 e0 2b 15
        E 5 e0 2b 15
        E 5 e0 2b 15
        E 5 e0 2b 15
        E 6 e0 2b 15
        E 5 e0 2b 15
        E 5 e0 2b 15
        E 6 e0 2b 15
        E 5 e0 2b 15
        E 5 e0 2b 15
        E 5 e0 2b 15
        E 6 e0 2b 15
        E 5 e0 2b 15
        E 5 e0 2b 15
        E 6 e0 2b 15
        E 5 e0 2b 15
        E 5 e0 2b 15
        E 5 e0 2b 15
        E 6 e0 2b 15
        E 5 e0 2b 15
        E 5 e0 2b 15
        E 0 90 2d 00
        E 72 e0 2b 15
        E 0 90 2d 24
        E 5 e0 2b 15
        E 5 e0 00 60
        E 5 e0 00 60
        E 5 e0 2b 15
        E 5 e0 2b 15
        E 5 e0 2b 15
        E 6 e0 2b 15
        E 5 e0 2b 15
        E 5 e0 2b 15
        E 5 e0 00 20
        E 5 e0 2b 15
        E 5 e0 2b 15
        E 5 e0 2b 15
        E 5 e0 2b 15
        E 6 e0 2b 15
        E 5 e0 2b 15
        E 5 e0 00 20
        E 5 e0 00 20
        E 5 e0 00 20
        E 5 e0 00 20
        E 5 e0 00 20
        E 5 e0 2b 15
        E 5 e0 2b 75
        E 6 e0 2b 75
        E 5 e0 2b 75
        E 5 e0 2b 15
        E 5 e0 2b 15
        E 5 e0 2b 15
        E 5 e0 2b 15
        E 5 e0 2b 15
        E 5 e0 2b 15
        E 6 e0 2b 15
        E 5 e0 2b 15
        E 5 e0 2b 15
        E 5 e0 2b 15
        E 5 e0 2b 15
        E 5 e0 2b 15
        E 5 e0 2b 75
        E 5 e0 2b 75
        E 6 e0 2b 75
        E 5 e0 7f 7f
        E 5 e0 7f 7f
        E 5 e0 7f 7f
        E 5 e0 7f 7f
        E 5 e0 7f 7f
        E 0 90 2d 00
        E 5 e0 2b 15
        E 0 90 2d 2c
        E 6 e0 2b 15
        E 5 e0 2b 15
        E 5 e0 2b 15
        E 5 e0 2b 15
        E 6 e0 00 20
        E 5 e0 00 20
        E 5 e0 00 20
        E 6 e0 00 20
        E 5 e0 00 20
        E 5 e0 00 20
        E 5 e0 00 20
        E 6 e0 00 20
        E 5 e0 00 20
        E 5 e0 00 20
        E 6 e0 00 20
        E 5 e0 00 20
        E 5 e0 00 20
        E 5 e0 2b 15
        E 6 e0 2b 15
        E 5 e0 2b 15
        E 5 e0 2b 15
        E 6 e0 2b 15
        E 5 e0 2b 15
        E 5 e0 2b 15
        E 5 e0 2b 15
        E 6 e0 00 20
        E 5 e0 00 20
        E 5 e0 00 20
        E 6 e0 00 20
        E 0 90 2d 00
        E 496 90 2d 29
        E 0 90 41 25
        E 112 90 41 00
        E 97 90 28 2a
        E 41 90 2d 00
        E 25 90 28 00
        E 62 90 39 21
        E 102 90 48 36
        E 5 90 2d 2b
        E 15 90 39 00
        E 41 90 48 00
        E 67 90 2d 00
        E 194 e0 2b 15
        E 0 90 2d 29
        E 5 e0 2b 15
        E 5 e0 2b 15
        E 5 e0 2b 15
        E 5 e0 2b 15
        E 5 e0 2b 15
        E 6 e0 2b 15
        E 5 e0 2b 15
        E 5 e0 00 20
        E 5 e0 00 20
        E 5 e0 00 20
        E 5 e0 00 20
        E 5 e0 00 20
        E 5 e0 00 20
        E 6 e0 00 20
        E 5 e0 00 20
        E 5 e0 00 20
        E 5 e0 00 20
        E 5 e0 00 20
        E 5 e0 00 20
        E 5 e0 00 20
        E 5 e0 2b 15
        E 6 e0 2b 15
        E 5 e0 2b 15
        E 5 e0 55 0a
        E 5 e0 55 0a
        E 5 e0 2b 15
        E 5 e0 2b 15
        E 5 e0 00 20
        E 0 90 2d 00
        E 62 e0 2b 15
        E 0 90 2d 26
        E 5 e0 2b 15
        E 5 e0 2b 15
        E 5 e0 2b 15
        E 6 e0 2b 15
        E 5 e0 2b 15
        E 5 e0 2b 15
        E 6 e0 2b 15
        E 5 e0 2b 15
        E 5 e0 2b 15
        E 5 e0 00 20
        E 6 e0 00 20
        E 5 e0 00 20
        E 5 e0 00 20
        E 5 e0 00 20
        E 6 e0 00 20
        E 5 e0 00 20
        E 5 e0 00 20
        E 5 e0 00 20
        E 6 e0 00 20
        E 5 e0 00 20
        E 5 e0 00 20
        E 6 e0 00 20
        E 5 e0 00 20
        E 5 e0 00 20
        E 5 e0 00 20
        E 6 e0 00 20
        E 5 e0 00 20
        E 5 e0 00 20
        E 5 e0 00 20
        E 6 e0 00 20
        E 5 e0 00 20
        E 5 e0 00 20
        E 0 90 2d 00
        E 174 90 21 25
        E 15 90 2d 30
        E 82 90 34 3b
        E 10 90 21 00
        E 51 90 34 00
        E 5 90 2d 00
        E 51 90 41 28
        E 21 90 2d 28
        E 92 90 28 1d
        E 10 90 39 2c
        E 0 90 41 00
        E 5 90 40 1f
        E 77 90 39 00
        E 26 90 39 27
        E 5 90 28 00
        E 5 90 45 22
        E 5 90 40 00
        E 97 90 40 25
        E 10 90 2d 00
        E 31 90 39 00
        E 31 90 4c 3f
        E 51 90 2d 2a
        E 10 90 40 00
        E 0 90 45 00
        E 0 90 4c 00
        E 133 90 2d 00
        E 168 90 34 24
        E 123 90 4c 21
        E 15 90 34 00
        E 57 90 4c 00
        E 25 90 34 1f
        E 5 90 40 21
        E 72 90 2d 31
        E 5 90 34 00
        E 36 90 40 00
        E 26 90 2d 00
        E 173 90 2d 2b
        E 6 90 4d 2e
        E 81 90 4d 00
        E 21 90 34 27
        E 10 90 39 27
        E 5 90 2d 00
        E 46 90 34 00
        E 56 90 3c 1c
        E 31 90 39 00
        E 51 90 3c 00
        E 133 e0 00 20
        E 0 90 2d 2a
        E 5 e0 2b 15
        E 5 e0 2b 15
        E 5 e0 2b 15
        E 5 e0 2b 15
        E 5 e0 7f 7f
        E 5 e0 00 20
        E 6 e0 00 20
        E 5 e0 00 20
        E 5 e0 00 20
        E 5 e0 00 20
        E 5 e0 00 20
        E 5 e0 00 20
        E 5 e0 00 20
        E 5 e0 00 20
        E 6 e0 00 20
        E 5 e0 00 20
        E 5 e0 00 20
        E 5 e0 00 20
        E 5 e0 00 20
        E 5 e0 00 20
        E 5 e0 00 20
        E 5 e0 00 20
        E 6 e0 00 20
        E 5 e0 00 20
        E 5 e0 00 20
        E 5 e0 00 20
        E 5 e0 00 20
        E 5 e0 00 20
        E 5 e0 00 20
        E 5 e0 00 20
        E 5 e0 00 20
        E 6 e0 00 20
        E 5 e0 00 20
        E 5 e0 00 20
        E 5 e0 00 20
        E 5 e0 00 20
        E 5 e0 00 20
        E 5 e0 00 20
        E 5 e0 00 20
        E 6 e0 00 20
        E 5 e0 00 20
        E 5 e0 00 20
        E 5 e0 00 20
        E 5 e0 2b 15
        E 5 e0 2b 15
        E 5 e0 2b 15
        E 5 e0 2b 15
        E 6 e0 2b 15
        E 5 e0 00 20
        E 0 90 2d 00
        E 66 90 2d 20
        E 10 90 40 29
        E 77 90 40 00
        E 148 90 40 1d
        E 5 90 2d 00
        E 102 90 47 22
        E 5 90 2d 2b
        E 6 90 40 00
        E 97 90 34 28
        E 5 90 47 00
        E 35 90 2d 00
        E 46 90 41 28
        E 46 90 34 00
        E 205 90 41 00
        E 189 90 2d 30
        E 56 90 21 1a
        E 67 90 21 00
        E 46 90 2d 00
        E 61 90 21 20
        E 10 90 48 29
        E 67 90 48 00
        E 41 90 2d 29
        E 10 90 21 00
        E 0 90 34 24
        E 5 90 48 2b
        E 46 90 45 19
        E 66 90 45 00
        E 5 90 34 00
        E 11 90 48 00
        E 102 90 2d 00
        E 77 90 28 20
        E 10 90 2d 31
        E 11 90 41 20
        E 112 90 28 00
        E 0 90 41 00
        E 20 90 2d 00
        E 82 e0 00 20
        E 0 90 28 23
        E 5 e0 00 20
        E 6 e0 00 20
        E 5 e0 00 20
        E 5 e0 00 20
        E 6 e0 00 20
        E 5 e0 00 20
        E 5 e0 00 20
        E 6 e0 00 20
        E 5 e0 2b 15
        E 5 e0 2b 15
        E 6 e0 2b 15
        E 5 e0 2b 15
        E 5 e0 2b 15
        E 6 e0 00 20
        E 5 e0 00 20
        E 5 e0 00 20
        E 6 e0 00 20
        E 5 e0 00 20
        E 5 e0 00 20
        E 6 e0 2b 75
        E 5 e0 2b 15
        E 5 e0 2b 15
        E 6 e0 2b 15
        E 0 90 28 00
        E 117 e0 7f 7f
        E 0 90 48 1e
        E 5 e0 2b 15
        E 6 e0 00 20
        E 5 e0 00 20
        E 6 e0 00 20
        E 5 e0 00 20
        E 5 e0 00 20
        E 6 e0 00 20
        E 5 e0 00 20
        E 5 e0 00 20
        E 6 e0 00 20
        E 5 e0 00 20
        E 5 e0 00 20
        E 6 e0 2b 15
        E 5 e0 2b 15
        E 5 e0 2b 15
        E 6 e0 2b 15
        E 5 e0 00 20
        E 5 e0 00 20
        E 6 e0 00 20
        E 5 e0 00 20
        E 5 e0 00 20
        E 6 e0 00 20
        E 0 90 48 00
        E 71 90 2d 2d
        E 5 90 39 26
        E 16 90 4c 26
        E 46 90 2d 00
        E 15 90 4c 00
        E 25 90 39 00
        E 36 90 34 27
        E 0 90 40 21
        E 77 90 40 00
        E 26 90 41 30
        E 31 90 34 00
        E 35 90 41 00
        E 16 90 28 28
        E 35 90 2d 24
        E 6 90 40 1a
        E 25 90 28 00
        E 92 90 2d 00
        E 5 90 40 00
        E 97 e0 2b 15
        E 0 90 40 1c
        E 6 e0 00 20
        E 5 e0 00 20
        E 6 e0 00 20
        E 5 e0 00 20
        E 6 e0 00 20
        E 5 e0 00 20
        E 6 e0 55 2a
        E 5 e0 55 2a
        E 6 e0 55 2a
        E 5 e0 55 2a
        E 6 e0 55 2a
        E 5 e0 00 20
        E 6 e0 00 20
        E 0 90 40 00
        E 46 90 2d 27
        E 97 90 39 2d
        E 5 90 34 2c
        E 122 90 2d 00
        E 0 90 2d 27
        E 11 90 34 00
        E 5 90 39 00
        E 87 90 40 1d
        E 61 90 39 23
        E 11 90 40 00
        E 30 90 34 2a
        E 21 90 39 00
        E 15 90 2d 00
        E 138 90 34 00
        E 41 90 3c 46
        E 5 90 30 24
        E 0 90 41 2e
        E 10 90 2d 3d
        E 51 90 3c 00
        E 5 90 30 00
        E 0 90 41 00
        E 6 90 2d 00
        E 56 90 2d 2c
        E 117 90 3c 2b
        E 16 90 2d 00
        E 81 90 2d 1e
        E 56 90 3c 00
        E 62 90 41 27
        E 10 90 2d 00
        E 128 90 41 00
        E 67 90 30 2e
        E 15 90 2d 27
        E 5 90 3c 20
        E 41 90 30 00
        E 61 90 41 2d
        E 16 90 3c 00
        E 15 90 2d 00
        E 97 90 41 00
        E 97 90 41 2b
        E 118 90 3c 20
        E 20 90 41 00
        E 92 90 3c 00
        E 107 90 2d 2e
        E 92 90 3c 30
        E 62 90 3c 00
        E 5 90 2d 00
        E 169 90 2d 27
        E 56 90 21 1a
        E 66 90 21 00
        E 16 90 2d 00
        E 204 90 2d 32
        E 153 90 21 1f
        E 10 90 2d 00
        E 67 90 21 00
        E 5 e0 2b 15
        E 0 90 2d 2c
        E 5 e0 2b 15
        E 5 e0 2b 15
        E 5 e0 2b 15
        E 5 e0 00 20
        E 6 e0 00 20
        E 5 e0 00 20
        E 5 e0 00 20
        E 5 e0 00 20
        E 5 e0 00 20
        E 5 e0 00 20
        E 5 e0 00 20
        E 6 e0 00 20
        E 5 e0 00 20
        E 5 e0 00 20
        E 5 e0 00 20
        E 5 e0 00 20
        E 5 e0 00 20
        E 5 e0 00 20
        E 5 e0 00 20
        E 6 e0 00 20
        E 5 e0 00 20
        E 5 e0 00 20
        E 5 e0 00 20
        E 5 e0 00 20
        E 0 90 2d 00
        E 184 e0 2b 15
        E 0 90 3c 34
        E 6 e0 2b 15
        E 5 e0 2b 15
        E 6 e0 2b 15
        E 5 e0 2b 15
        E 6 e0 00 20
        E 5 e0 00 20
        E 6 e0 00 20
        E 6 e0 00 20
        E 5 e0 00 20
        E 6 e0 00 20
        E 5 e0 00 20
        E 0 90 3c 00
        E 164 e0 2b 15
        E 0 90 28 23
        E 5 e0 2b 15
        E 5 e0 2b 15
        E 6 e0 2b 15
        E 5 e0 00 20
        E 5 e0 00 20
        E 6 e0 00 20
        E 5 e0 00 20
        E 5 e0 00 20
        E 6 e0 00 20
        E 5 e0 00 20
        E 5 e0 00 20
        E 6 e0 00 20
        E 5 e0 00 20
        E 5 e0 00 20
        E 6 e0 00 20
        E 5 e0 00 20
        E 5 e0 00 20
        E 6 e0 00 20
        E 5 e0 00 20
        E 5 e0 00 20
        E 6 e0 00 20
        E 5 e0 00 20
        E 5 e0 00 20
        E 5 e0 2b 15
        E 0 90 28 00
        E 440 e0 00 00
        E 0 90 2d 2c
        E 6 e0 00 00
        E 5 e0 00 00
        E 5 e0 00 00
        E 6 e0 00 00
        E 5 e0 00 00
        E 5 e0 00 20
        E 6 e0 00 20
        E 5 e0 00 20
        E 5 e0 00 20
        E 6 e0 00 20
        E 5 e0 00 20
        E 5 e0 00 20
        E 6 e0 00 20
        E 5 e0 00 20
        E 5 e0 00 20
        E 6 e0 00 20
        E 5 e0 00 20
        E 5 e0 00 20
        E 6 e0 00 20
        E 5 e0 00 20
        E 5 e0 2b 15
        E 6 e0 2b 15
        E 5 e0 2b 15
        E 0 90 2d 00
        E 189 e0 00 20
        E 0 90 28 21
        E 5 e0 00 20
        E 6 e0 00 20
        E 5 e0 00 20
        E 5 e0 00 20
        E 6 e0 00 20
        E 5 e0 00 20
        E 5 e0 00 20
        E 5 e0 00 20
        E 6 e0 00 20
        E 5 e0 00 20
        E 5 e0 00 20
        E 6 e0 00 20
        E 5 e0 00 20
        E 5 e0 00 20
        E 6 e0 00 20
        E 5 e0 00 20
        E 5 e0 00 20
        E 5 e0 00 20
        E 6 e0 00 20
        E 5 e0 00 20
        E 5 e0 00 20
        E 6 e0 00 20
        E 5 e0 00 20
        E 5 e0 2b 15
        E 6 e0 2b 15
        E 5 e0 2b 15
        E 0 90 28 00
        E 199 90 2d 2e
        E 15 90 32 18
        E 72 90 32 00
        E 41 90 2d 00
        E 156 b0 7b 00
        CCINTERP 32
        CHASE_CC_TAKEOFFS 1
        GUID {3673DE90-2408-4C4C-A1E1-458BD6BFD4D7}
        IGNTEMPO 0 120 4 4
        SRCCOLOR 227
      >
    >
  >
  <UINF 124
    <ITEM {A0D1E0BF-9E6C-4B21-ABFA-25CB703BB497}
      POSITION 0
      SNAPOFFS 0
      LENGTH 165.5
      LOOP 1
      ALLTAKES 0
      FADEIN 1 0 0 1 0 0 0
      FADEOUT 1 0 0 1 0 0 0
      MUTE 0 0
      SEL 0
      IGUID {A0D1E0BF-9E6C-4B21-ABFA-25CB703BB497}
      IID 136
      NAME MIDI-Unprocessed_Recital1-3_MID--AUDIO_03_R1_2018_wav--5_basic_pitch.mid
      VOLPAN 1 0 1 -1
      SOFFS 0 0
      PLAYRATE 1 1 0 -1 0 0.0025
      CHANMODE 0
      GUID {354B6A63-6DF2-4BEB-894C-EA7C2B1251D0}
      <SOURCE MIDI
        HASDATA 1 220 QN
        CCINTERP 32
        POOLEDEVTS {3F4AF227-B470-481B-94D7-532758C214E8}
        E 0 c0 04 00
        E 419 90 1c 22
        E 15 90 28 29
        E 10 90 2f 2e
        E 67 90 23 23
        E 5 90 37 28
        E 0 90 3b 20
        E 56 90 1c 00
        E 10 90 3b 00
        E 5 90 28 00
        E 6 90 2f 00
        E 5 90 37 00
        E 56 90 23 00
        E 31 e0 00 00
        E 0 90 37 28
        E 5 e0 00 00
        E 5 e0 55 6a
        E 5 e0 55 6a
        E 5 e0 55 6a
        E 5 e0 00 00
        E 5 e0 55 0a
        E 5 e0 55 0a
        E 6 e0 55 0a
        E 5 e0 55 0a
        E 5 e0 55 0a
        E 5 e0 55 0a
        E 5 e0 55 0a
        E 5 e0 55 0a
        E 5 e0 55 0a
        E 5 e0 55 0a
        E 5 e0 55 0a
        E 6 e0 55 0a
        E 5 e0 55 0a
        E 5 e0 55 0a
        E 5 e0 55 0a
        E 5 e0 55 0a
        E 5 e0 55 0a
        E 5 e0 55 0a
        E 5 e0 7f 7f
        E 6 e0 7f 7f
        E 5 e0 55 6a
        E 5 e0 00 00
        E 5 e0 00 00
        E 5 e0 00 00
        E 5 e0 55 0a
        E 5 e0 55 0a
        E 5 e0 55 0a
        E 6 e0 55 0a
        E 5 e0 55 0a
        E 5 e0 55 0a
        E 5 e0 55 0a
        E 5 e0 55 0a
        E 5 e0 55 0a
        E 5 e0 55 0a
        E 0 90 37 00
        E 394 e0 00 40
        E 0 90 2e 26
        E 5 e0 00 00
        E 6 e0 55 0a
        E 5 e0 55 0a
        E 6 e0 55 0a
        E 5 e0 55 0a
        E 6 e0 2b 15
        E 5 e0 55 0a
        E 6 e0 55 0a
        E 5 e0 2b 15
        E 6 e0 2b 15
        E 5 e0 2b 15
        E 6 e0 2b 15
        E 5 e0 2b 15
        E 0 90 28 24
        E 0 90 2e 00
        E 36 90 34 1f
        E 71 90 2f 23
        E 6 90 1c 21
        E 66 90 28 00
        E 0 90 34 00
        E 10 90 1c 00
        E 41 90 37 2b
        E 5 90 43 1b
        E 5 90 2f 00
        E 118 90 43 00
        E 97 90 37 00
        E 496 90 47 1b
        E 0 90 4a 1f
        E 5 90 34 26
        E 0 90 37 27
        E 41 90 28 29
        E 5 90 4f 2d
        E 5 90 40 2b
        E 5 90 43 25
        E 5 90 47 00
        E 0 90 4a 00
        E 5 90 37 00
        E 41 90 4f 00
        E 46 90 34 00
        E 0 90 40 00
        E 31 90 28 00
        E 56 90 43 00
        E 61 e0 55 6a
        E 0 90 37 26
        E 6 e0 55 0a
        E 5 e0 55 0a
        E 5 e0 55 0a
        E 5 e0 55 0a
        E 5 e0 55 0a
        E 5 e0 55 0a
        E 5 e0 55 0a
        E 5 e0 55 0a
        E 6 e0 55 0a
        E 5 e0 55 0a
        E 5 e0 55 0a
        E 5 e0 55 0a
        E 5 e0 55 0a
        E 5 e0 55 0a
        E 5 e0 55 0a
        E 5 e0 55 0a
        E 5 e0 55 0a
        E 6 e0 55 0a
        E 5 e0 55 0a
        E 5 e0 55 0a
        E 5 e0 55 0a
        E 5 e0 55 0a
        E 5 e0 55 0a
        E 5 e0 55 0a
        E 5 e0 00 00
        E 6 e0 00 00
        E 5 e0 00 00
        E 5 e0 55 0a
        E 5 e0 55 0a
        E 5 e0 55 0a
        E 5 e0 55 0a
        E 5 e0 55 0a
        E 5 e0 55 0a
        E 6 e0 55 0a
        E 5 e0 55 0a
        E 5 e0 55 0a
        E 5 e0 55 0a
        E 5 e0 55 0a
        E 5 e0 55 0a
        E 5 e0 55 0a
        E 5 e0 55 0a
        E 6 e0 55 0a
        E 0 90 37 00
        E 229 e0 2b 75
        E 0 90 37 19
        E 6 e0 55 6a
        E 5 e0 55 6a
        E 5 e0 55 6a
        E 6 e0 2b 15
        E 5 e0 2b 15
        E 5 e0 55 6a
        E 6 e0 55 6a
        E 5 e0 00 60
        E 5 e0 00 60
        E 6 e0 55 0a
        E 5 e0 2b 75
        E 5 e0 2b 75
        E 6 e0 2b 75
        E 5 e0 2b 75
        E 5 e0 2b 75
        E 6 e0 2b 75
        E 5 e0 2b 75
        E 5 e0 2b 75
        E 6 e0 55 6a
        E 5 e0 2b 75
        E 5 e0 2b 75
        E 6 e0 2b 75
        E 5 e0 55 0a
        E 0 90 37 00
        E 61 90 2e 20
        E 51 90 28 24
        E 11 90 2e 00
        E 35 90 43 26
        E 118 90 40 19
        E 41 90 28 00
        E 16 90 43 00
        E 51 90 37 25
        E 10 90 40 00
        E 235 90 37 00
        E 449 90 47 1b
        E 57 90 43 25
        E 5 90 47 00
        E 67 90 40 1c
        E 15 90 37 29
        E 5 90 28 22
        E 77 90 40 00
        E 10 90 28 00
        E 15 90 37 00
        E 0 90 43 00
        E 72 e0 7f 7f
        E 0 90 37 27
        E 5 e0 7f 7f
        E 5 e0 7f 7f
        E 6 e0 2b 75
        E 5 e0 2b 75
        E 5 e0 2b 75
        E 6 e0 55 0a
        E 5 e0 55 0a
        E 5 e0 55 0a
        E 6 e0 55 0a
        E 5 e0 55 0a
        E 5 e0 55 0a
        E 6 e0 55 0a
        E 5 e0 55 6a
        E 5 e0 55 6a
        E 6 e0 55 6a
        E 5 e0 55 0a
        E 5 e0 55 0a
        E 6 e0 55 0a
        E 5 e0 55 0a
        E 5 e0 2b 15
        E 6 e0 55 0a
        E 5 e0 55 0a
        E 5 e0 55 0a
        E 0 90 37 00
        E 67 90 3b 22
        E 5 90 2f 27
        E 0 90 4a 2a
        E 51 90 28 26
        E 5 90 47 21
        E 15 90 4a 00
        E 62 90 2f 00
        E 30 90 3b 00
        E 0 90 47 00
        E 11 90 28 00
        E 112 90 34 20
        E 10 90 40 1f
        E 0 90 4c 14
        E 72 90 34 00
        E 0 90 4c 00
        E 5 90 40 00
        E 66 90 34 20
        E 5 90 2d 21
        E 0 90 40 1d
        E 113 90 34 00
        E 46 90 3c 2b
        E 11 90 40 00
        E 5 90 2d 00
        E 61 90 3c 00
        E 71 90 28 28
        E 6 90 1c 2c
        E 0 90 2f 22
        E 5 90 43 29
        E 66 90 1c 00
        E 5 90 2f 00
        E 41 90 43 00
        E 77 90 28 00
        E 61 e0 7f 7f
        E 0 90 37 29
        E 5 e0 00 00
        E 5 e0 00 00
        E 6 e0 00 00
        E 5 e0 55 0a
        E 5 e0 55 0a
        E 5 e0 55 0a
        E 6 e0 55 0a
        E 5 e0 55 0a
        E 5 e0 55 0a
        E 5 e0 55 0a
        E 6 e0 55 0a
        E 5 e0 55 0a
        E 5 e0 55 0a
        E 5 e0 55 0a
        E 6 e0 55 0a
        E 5 e0 55 0a
        E 5 e0 55 0a
        E 5 e0 55 0a
        E 6 e0 55 0a
        E 5 e0 55 0a
        E 5 e0 55 0a
        E 5 e0 55 0a
        E 6 e0 55 0a
        E 5 e0 55 0a
        E 5 e0 55 0a
        E 5 e0 55 0a
        E 6 e0 00 00
        E 5 e0 00 00
        E 5 e0 00 00
        E 5 e0 00 00
        E 6 e0 00 00
        E 5 e0 55 6a
        E 5 e0 55 6a
        E 5 e0 00 00
        E 6 e0 55 0a
        E 5 e0 55 0a
        E 0 90 37 00
        E 450 e0 00 20
        E 0 90 34 1e
        E 6 e0 00 20
        E 5 e0 00 20
        E 6 e0 00 20
        E 5 e0 00 20
        E 5 e0 00 20
        E 6 e0 00 20
        E 5 e0 55 6a
        E 6 e0 55 6a
        E 5 e0 00 20
        E 6 e0 00 20
        E 5 e0 00 20
        E 6 e0 00 20
        E 5 e0 00 20
        E 6 e0 00 20
        E 0 90 34 00
        E 51 90 2d 28
        E 51 90 3c 33
        E 5 90 43 27
        E 5 90 2d 00
        E 51 90 3c 00
        E 5 90 43 00
        E 491 90 23 2c
        E 16 90 2f 29
        E 5 90 3f 38
        E 30 90 45 1f
        E 36 90 3f 00
        E 31 90 45 00
        E 41 90 23 00
        E 0 90 2f 00
        E 168 e0 55 2a
        E 0 90 3b 1f
        E 6 e0 00 20
        E 5 e0 00 20
        E 6 e0 00 20
        E 5 e0 00 20
        E 6 e0 00 20
        E 6 e0 00 20
        E 5 e0 00 20
        E 6 e0 00 20
        E 5 e0 00 20
        E 6 e0 00 20
        E 6 e0 00 20
        E 0 90 3b 00
        E 148 90 39 1c
        E 0 90 4c 1c
        E 66 90 4c 00
        E 51 90 39 00
        E 41 90 28 2f
        E 47 90 37 27
        E 10 90 28 00
        E 189 90 40 14
        E 61 90 40 00
        E 97 90 2b 16
        E 0 90 3f 27
        E 5 90 43 28
        E 56 90 2b 00
        E 6 90 43 00
        E 5 90 37 00
        E 0 90 3f 00
        E 30 e0 55 0a
        E 0 90 3e 1d
        E 6 e0 2b 15
        E 5 e0 00 20
        E 6 e0 00 20
        E 5 e0 00 20
        E 6 e0 00 20
        E 5 e0 00 20
        E 5 e0 00 20
        E 6 e0 00 20
        E 5 e0 00 20
        E 6 e0 00 20
        E 5 e0 00 20
        E 6 e0 00 20
        E 5 e0 2b 15
        E 6 e0 55 0a
        E 5 e0 55 0a
        E 0 90 3e 00
        E 379 90 28 23
        E 56 90 2f 26
        E 51 90 43 1f
        E 117 90 37 23
        E 5 90 28 00
        E 0 90 2f 00
        E 67 90 43 00
        E 143 90 37 00
        E 527 90 4f 25
        E 5 90 43 28
        E 66 90 4f 00
        E 138 90 43 00
        E 51 90 37 29
        E 5 90 43 29
        E 92 90 4b 17
        E 36 90 43 00
        E 41 90 4b 00
        E 46 90 37 00
        E 128 e0 00 60
        E 0 90 40 25
        E 5 e0 00 60
        E 6 e0 00 60
        E 5 e0 00 60
        E 6 e0 00 60
        E 5 e0 00 60
        E 6 e0 55 6a
        E 6 e0 55 6a
        E 5 e0 55 6a
        E 6 e0 55 6a
        E 5 e0 55 6a
        E 6 e0 55 6a
        E 0 90 40 00
        E 20 e0 55 6a
        E 0 90 48 15
        E 5 e0 55 6a
        E 6 e0 00 20
        E 5 e0 00 20
        E 5 e0 00 20
        E 5 e0 00 20
        E 5 e0 00 20
        E 5 e0 00 20
        E 6 e0 00 20
        E 5 e0 00 20
        E 5 e0 00 20
        E 5 e0 00 20
        E 5 e0 00 20
        E 0 90 48 00
        E 199 90 28 27
        E 6 90 43 25
        E 10 90 40 24
        E 92 90 28 00
        E 0 90 40 00
        E 35 90 43 00
        E 82 90 43 26
        E 41 90 37 26
        E 26 90 43 00
        E 92 90 43 2c
        E 61 90 43 00
        E 92 90 37 00
        E 138 e0 2b 35
        E 0 90 3c 1e
        E 6 e0 2b 15
        E 5 e0 2b 15
        E 6 e0 2b 15
        E 5 e0 00 20
        E 6 e0 00 20
        E 5 e0 00 20
        E 5 e0 00 20
        E 6 e0 00 20
        E 5 e0 00 20
        E 6 e0 00 20
        E 5 e0 00 20
        E 6 e0 00 20
        E 5 e0 00 20
        E 6 e0 00 20
        E 5 e0 00 20
        E 0 90 3c 00
        E 102 e0 00 00
        E 0 90 2e 24
        E 6 e0 00 00
        E 5 e0 00 00
        E 6 e0 55 0a
        E 5 e0 55 0a
        E 6 e0 55 0a
        E 5 e0 55 0a
        E 6 e0 55 0a
        E 5 e0 55 0a
        E 6 e0 2b 15
        E 6 e0 2b 15
        E 5 e0 2b 15
        E 6 e0 2b 15
        E 0 90 2e 00
        E 51 90 28 27
        E 20 90 34 25
        E 5 90 43 25
        E 118 90 28 00
        E 0 90 34 00
        E 10 90 43 00
        E 143 90 37 24
        E 10 90 40 1a
        E 77 90 40 00
        E 51 90 37 00
        E 41 90 24 1f
        E 10 90 45 38
        E 52 90 24 00
        E 5 90 45 00
        E 46 90 28 2a
        E 5 90 2f 24
        E 5 90 1c 21
        E 82 90 2f 00
        E 10 90 1c 00
        E 25 90 28 00
        E 200 e0 00 20
        E 0 90 26 29
        E 5 e0 00 20
        E 5 e0 00 20
        E 6 e0 00 20
        E 5 e0 00 20
        E 6 e0 00 20
        E 5 e0 00 20
        E 6 e0 00 20
        E 5 e0 2b 15
        E 5 e0 2b 15
        E 6 e0 2b 15
        E 5 e0 2b 15
        E 6 e0 00 20
        E 5 e0 00 20
        E 6 e0 00 20
        E 5 e0 00 20
        E 5 e0 00 20
        E 0 90 26 00
        E 307 90 1f 20
        E 5 90 2b 39
        E 5 90 37 30
        E 56 90 1f 00
        E 11 90 2b 00
        E 5 90 37 00
        E 46 90 2b 1f
        E 10 90 47 17
        E 57 90 32 22
        E 15 90 2b 00
        E 46 90 32 00
        E 51 90 47 00
        E 51 90 3e 19
        E 31 90 42 24
        E 5 90 36 21
        E 61 90 3e 00
        E 5 90 36 00
        E 0 90 42 00
        E 51 90 37 21
        E 200 90 2b 1e
        E 15 90 37 00
        E 66 90 2b 00
        E 272 90 2d 2d
        E 0 90 48 2e
        E 15 90 24 1e
        E 15 90 3c 33
        E 51 90 48 00
        E 21 90 24 00
        E 0 90 2d 00
        E 0 90 3c 00
        E 403 90 37 20
        E 92 90 3f 2f
        E 5 90 23 28
        E 0 90 2f 34
        E 6 90 37 00
        E 56 90 2f 00
        E 30 90 3f 00
        E 83 90 23 00
        E 168 e0 00 20
        E 0 90 45 1a
        E 6 e0 00 20
        E 5 e0 55 6a
        E 5 e0 55 6a
        E 6 e0 55 6a
        E 5 e0 00 60
        E 5 e0 00 60
        E 6 e0 00 60
        E 5 e0 00 60
        E 6 e0 00 60
        E 5 e0 00 20
        E 5 e0 00 20
        E 6 e0 00 20
        E 5 e0 00 20
        E 5 e0 00 60
        E 6 e0 00 60
        E 5 e0 00 60
        E 5 e0 00 60
        E 6 e0 00 60
        E 5 e0 00 60
        E 6 e0 00 20
        E 0 90 45 00
        E 86 90 2a 15
        E 0 90 45 1d
        E 5 90 2d 27
        E 0 90 51 10
        E 6 90 39 23
        E 0 90 4c 26
        E 56 90 2a 00
        E 0 90 45 00
        E 5 90 2d 00
        E 0 90 51 00
        E 5 90 4c 00
        E 5 90 39 00
        E 113 90 1c 25
        E 0 90 34 2d
        E 5 90 40 2c
        E 0 90 43 22
        E 5 90 28 2b
        E 0 90 37 1b
        E 66 90 1c 00
        E 0 90 34 00
        E 0 90 37 00
        E 31 90 40 00
        E 36 90 28 00
        E 0 90 43 00
        E 358 90 37 25
        E 5 90 4a 25
        E 5 90 3e 27
        E 71 90 3e 00
        E 6 90 4a 00
        E 91 90 3c 27
        E 11 90 37 00
        E 56 90 3c 00
        E 71 90 34 19
        E 87 90 37 26
        E 72 90 34 00
        E 112 90 4a 14
        E 5 90 3e 22
        E 0 90 4f 1b
        E 56 90 4a 00
        E 6 90 4f 00
        E 5 90 3e 00
        E 56 90 37 00
        E 108 90 3b 25
        E 0 90 47 2a
        E 61 90 3b 00
        E 0 90 47 00
        E 107 90 28 26
        E 0 90 34 1f
        E 128 90 28 00
        E 0 90 34 00
        E 133 90 28 25
        E 5 90 47 2c
        E 5 90 3b 1c
        E 56 90 47 00
        E 67 90 3b 00
        E 225 90 40 1f
        E 71 90 43 2c
        E 6 90 40 00
        E 51 90 28 00
        E 5 90 43 00
        E 76 90 28 22
        E 0 90 41 23
        E 0 90 48 22
        E 41 90 30 20
        E 10 90 3c 27
        E 26 90 28 00
        E 5 90 41 00
        E 36 90 30 00
        E 102 90 3c 00
        E 36 90 48 00
        E 36 90 30 1a
        E 5 90 40 27
        E 46 90 23 25
        E 10 90 30 00
        E 25 90 40 00
        E 82 90 23 00
        E 292 90 28 1a
        E 0 90 40 2b
        E 5 90 43 22
        E 51 90 37 26
        E 15 90 28 00
        E 6 90 40 00
        E 0 90 43 00
        E 413 90 3e 22
        E 62 90 3e 00
        E 56 90 37 00
        E 5 90 37 24
        E 128 90 4a 16
        E 102 90 4a 00
        E 41 90 37 00
        E 41 e0 00 20
        E 0 90 28 28
        E 6 e0 00 20
        E 5 e0 00 20
        E 6 e0 00 20
        E 5 e0 00 20
        E 6 e0 00 20
        E 5 e0 00 20
        E 6 e0 00 20
        E 5 e0 00 20
        E 6 e0 00 20
        E 5 e0 00 20
        E 6 e0 00 20
        E 5 e0 00 20
        E 6 e0 00 20
        E 0 90 28 00
        E 66 90 28 23
        E 31 90 30 23
        E 122 90 28 00
        E 46 90 30 00
        E 87 90 28 26
        E 0 90 34 23
        E 92 90 30 22
        E 82 90 34 00
        E 0 90 47 1b
        E 66 90 47 00
        E 37 90 34 23
        E 15 90 28 00
        E 66 90 40 1e
        E 36 90 28 28
        E 128 90 28 00
        E 0 90 30 00
        E 0 90 34 00
        E 0 90 40 00
        E 184 90 24 1e
        E 35 90 30 26
        E 11 90 3c 29
        E 20 90 24 00
        E 77 90 3c 00
        E 25 90 30 00
        E 225 90 2a 1f
        E 0 90 36 21
        E 108 90 2a 00
        E 0 90 36 00
        E 82 90 33 23
        E 5 90 30 24
        E 51 90 36 1d
        E 10 90 23 19
        E 0 90 3f 1b
        E 5 90 33 00
        E 66 90 3f 00
        E 6 90 23 00
        E 0 90 36 00
        E 25 90 30 00
        E 21 90 28 29
        E 20 90 34 1d
        E 77 90 34 00
        E 10 90 28 00
        E 0 90 2f 24
        E 66 90 23 21
        E 62 90 23 00
        E 5 90 2f 00
        E 30 90 37 27
        E 41 90 3b 17
        E 67 90 3b 00
        E 97 e0 2b 15
        E 0 90 32 24
        E 0 90 37 00
        E 5 e0 2b 15
        E 5 e0 2b 15
        E 5 e0 2b 15
        E 5 e0 2b 15
        E 5 e0 2b 15
        E 6 e0 2b 15
        E 5 e0 2b 15
        E 5 e0 00 20
        E 5 e0 00 20
        E 5 e0 00 20
        E 5 e0 00 20
        E 5 e0 2b 15
        E 6 e0 2b 15
        E 5 e0 2b 15
        E 5 e0 2b 15
        E 0 90 32 00
        E 36 90 3d 23
        E 5 90 31 29
        E 66 90 3d 00
        E 5 90 31 00
        E 36 90 30 26
        E 0 90 3c 23
        E 77 90 30 00
        E 0 90 3c 00
        E 194 e0 00 00
        E 0 90 2f 2a
        E 5 e0 55 6a
        E 5 e0 55 6a
        E 6 e0 55 6a
        E 5 e0 55 6a
        E 5 e0 55 6a
        E 5 e0 55 6a
        E 6 e0 55 6a
        E 5 e0 55 6a
        E 5 e0 55 6a
        E 6 e0 55 6a
        E 5 e0 55 6a
        E 5 e0 55 6a
        E 6 e0 55 6a
        E 5 e0 55 6a
        E 5 e0 00 00
        E 5 e0 00 00
        E 6 e0 55 0a
        E 5 e0 55 0a
        E 5 e0 55 0a
        E 6 e0 55 0a
        E 5 e0 55 0a
        E 5 e0 55 0a
        E 6 e0 00 00
        E 5 e0 00 00
        E 5 e0 55 0a
        E 5 e0 55 0a
        E 6 e0 2b 15
        E 0 90 2f 00
        E 92 90 28 1d
        E 5 90 2f 23
        E 71 90 43 24
        E 5 90 37 26
        E 6 90 28 00
        E 46 90 2f 00
        E 45 90 43 00
        E 88 90 34 24
        E 71 90 34 00
        E 133 90 37 00
        E 0 90 37 33
        E 0 90 43 20
        E 21 90 40 20
        E 5 90 3b 24
        E 76 90 43 00
        E 6 90 37 00
        E 0 90 3b 00
        E 51 90 32 37
        E 10 90 3e 2c
        E 0 90 40 00
        E 56 90 32 00
        E 5 90 3e 00
        E 179 90 3b 27
        E 5 90 43 27
        E 5 90 47 24
        E 72 90 43 00
        E 5 90 3b 00
        E 0 90 47 00
        E 118 90 3c 29
        E 15 90 33 37
        E 61 90 3c 00
        E 6 90 33 00
        E 51 90 40 28
        E 15 90 37 2f
        E 5 90 2b 29
        E 61 90 34 29
        E 21 90 40 00
        E 5 90 2b 00
        E 0 90 37 00
        E 97 90 34 00
        E 82 90 2e 1c
        E 5 90 34 24
        E 15 90 40 1a
        E 36 90 3e 2c
        E 10 90 2e 00
        E 56 90 40 00
        E 5 90 3e 00
        E 62 90 2d 25
        E 5 90 48 2c
        E 10 90 34 00
        E 46 90 2d 00
        E 10 90 48 00
        E 174 90 3c 1f
        E 5 90 42 24
        E 52 90 3c 00
        E 41 90 42 00
        E 61 90 43 2b
        E 5 90 2d 1f
        E 77 90 43 00
        E 40 90 2d 00
        E 0 90 40 1d
        E 36 90 39 21
        E 61 90 40 00
        E 6 90 3b 21
        E 15 90 39 00
        E 51 90 2f 35
        E 5 90 3f 21
        E 0 90 42 2d
        E 10 90 3b 00
        E 51 90 2f 00
        E 16 90 42 00
        E 35 90 30 21
        E 21 90 3f 00
        E 25 90 24 25
        E 108 90 24 00
        E 5 90 3c 28
        E 0 90 40 22
        E 0 90 48 1e
        E 143 90 40 00
        E 0 90 48 00
        E 31 90 3c 00
        E 0 90 3c 26
        E 5 90 30 00
        E 26 90 45 1c
        E 51 90 38 22
        E 51 90 42 31
        E 10 90 3f 24
        E 10 90 38 00
        E 5 90 45 00
        E 46 90 42 00
        E 26 90 30 23
        E 5 90 3c 00
        E 26 90 24 2a
        E 15 90 43 32
        E 20 90 3f 00
        E 46 90 37 29
        E 26 90 43 00
        E 20 90 48 1f
        E 5 90 24 00
        E 0 90 3c 20
        E 87 90 30 00
        E 5 90 48 00
        E 26 90 37 00
        E 10 90 2b 1a
        E 51 90 38 29
        E 10 90 2b 00
        E 0 90 44 35
        E 16 90 3c 00
        E 46 90 44 00
        E 10 90 2c 1d
        E 61 90 3c 28
        E 0 90 48 2f
        E 62 90 2c 00
        E 5 90 48 00
        E 5 90 3c 00
        E 20 90 44 24
        E 41 90 38 00
        E 5 90 38 20
        E 37 90 42 14
        E 10 90 44 00
        E 56 90 42 00
        E 25 90 3c 27
        E 6 90 48 25
        E 56 90 38 00
        E 250 90 48 00
        E 31 90 44 1c
        E 5 90 38 25
        E 71 90 44 00
        E 57 90 38 00
        E 61 90 3c 00
        E 31 90 42 22
        E 5 90 36 25
        E 76 90 36 00
        E 0 90 42 00
        E 251 90 34 25
        E 0 90 47 27
        E 72 90 34 00
        E 20 90 2d 24
        E 31 90 47 00
        E 30 90 39 27
        E 11 90 48 29
        E 66 90 2d 00
        E 10 90 35 1f
        E 36 90 3c 26
        E 5 90 39 00
        E 31 90 35 00
        E 148 90 38 28
        E 5 90 3c 00
        E 15 90 44 24
        E 46 90 48 00
        E 41 90 28 19
        E 5 90 44 00
        E 10 90 38 00
        E 52 90 28 00
        E 56 90 36 21
        E 5 90 2d 20
        E 0 90 42 20
        E 77 90 42 00
        E 41 90 36 00
        E 41 90 2d 00
        E 383 e0 2b 15
        E 0 90 2d 23
        E 5 e0 2b 15
        E 6 e0 2b 15
        E 5 e0 2b 15
        E 6 e0 2b 15
        E 5 e0 2b 15
        E 5 e0 2b 15
        E 6 e0 2b 15
        E 5 e0 2b 15
        E 6 e0 2b 15
        E 5 e0 2b 15
        E 6 e0 2b 15
        E 5 e0 2b 15
        E 5 e0 2b 15
        E 6 e0 55 6a
        E 5 e0 55 6a
        E 6 e0 55 6a
        E 0 90 2d 00
        E 281 90 3e 2a
        E 5 90 39 1b
        E 72 90 39 00
        E 15 90 3e 00
        E 108 90 40 23
        E 0 90 43 34
        E 61 90 40 00
        E 5 90 43 00
        E 97 e0 00 20
        E 0 90 3e 2b
        E 6 e0 00 20
        E 5 e0 00 20
        E 6 e0 00 20
        E 5 e0 00 20
        E 6 e0 00 20
        E 5 e0 00 20
        E 6 e0 00 20
        E 5 e0 00 20
        E 6 e0 00 20
        E 5 e0 00 20
        E 6 e0 00 20
        E 5 e0 00 20
        E 0 90 3e 00
        E 62 90 40 2b
        E 46 90 2b 14
        E 10 90 3e 25
        E 5 90 40 00
        E 56 90 2b 00
        E 16 90 3e 00
        E 296 90 2b 26
        E 11 90 37 20
        E 153 90 2b 00
        E 30 90 37 00
        E 113 e0 55 0a
        E 0 90 3c 2c
        E 5 e0 55 0a
        E 6 e0 55 0a
        E 6 e0 55 0a
        E 5 e0 2b 15
        E 6 e0 2b 15
        E 5 e0 2b 15
        E 6 e0 2b 15
        E 5 e0 2b 15
        E 6 e0 55 0a
        E 6 e0 55 0a
        E 5 e0 55 0a
        E 0 90 3c 00
        E 21 90 32 25
        E 10 90 3e 1d
        E 46 90 42 2b
        E 30 90 32 00
        E 0 90 3e 00
        E 46 90 42 00
        E 72 90 3c 20
        E 123 90 47 17
        E 66 90 3c 00
        E 0 90 47 00
        E 52 e0 2b 55
        E 0 90 2d 23
        E 5 e0 2b 55
        E 5 e0 2b 15
        E 6 e0 2b 15
        E 5 e0 2b 15
        E 5 e0 2b 15
        E 6 e0 2b 15
        E 5 e0 2b 15
        E 5 e0 2b 15
        E 6 e0 2b 15
        E 5 e0 2b 15
        E 5 e0 2b 15
        E 6 e0 2b 15
        E 5 e0 2b 15
        E 5 e0 00 20
        E 6 e0 00 20
        E 5 e0 00 20
        E 5 e0 00 20
        E 6 e0 00 20
        E 5 e0 00 20
        E 5 e0 00 20
        E 6 e0 00 20
        E 5 e0 00 20
        E 0 90 2d 00
        E 358 90 30 22
        E 5 90 2d 1d
        E 5 90 39 22
        E 31 90 34 24
        E 5 90 40 2d
        E 61 90 40 00
        E 0 90 40 23
        E 5 90 2d 00
        E 0 90 30 00
        E 5 90 39 00
        E 31 90 34 00
        E 92 90 23 28
        E 20 90 2f 2a
        E 16 90 40 00
        E 35 90 39 20
        E 16 90 2f 00
        E 10 90 23 00
        E 5 90 4b 21
        E 10 90 3f 24
        E 5 90 45 1a
        E 36 90 39 00
        E 0 90 43 21
        E 6 90 4b 00
        E 41 90 45 00
        E 10 90 3f 00
        E 5 90 39 21
        E 51 90 3c 1e
        E 5 90 30 2e
        E 15 90 43 00
        E 21 90 2d 22
        E 82 90 43 2b
        E 10 90 2d 00
        E 41 90 30 00
        E 5 90 39 00
        E 0 90 3c 00
        E 10 90 43 00
        E 66 90 45 25
        E 41 90 39 25
        E 41 90 23 21
        E 46 90 2f 20
        E 0 90 36 27
        E 10 90 42 27
        E 11 90 45 00
        E 40 90 23 00
        E 6 90 2f 00
        E 0 90 36 00
        E 30 90 45 13
        E 5 90 39 00
        E 5 90 42 00
        E 62 90 45 00
        E 71 90 32 37
        E 0 90 3e 3f
        E 56 90 41 27
        E 0 90 4d 29
        E 5 90 32 00
        E 0 90 3e 00
        E 0 90 3e 20
        E 0 90 4a 1d
        E 52 90 39 20
        E 10 90 4a 00
        E 15 90 4d 00
        E 36 90 4d 2b
        E 6 90 39 00
        E 46 90 44 1e
        E 15 90 4d 00
        E 15 90 3e 00
        E 0 90 3e 29
        E 41 90 44 00
        E 5 90 44 1f
        E 21 90 3e 00
        E 5 90 41 00
        E 102 90 30 21
        E 15 90 44 00
        E 26 90 39 26
        E 46 90 32 1d
        E 5 90 41 2b
        E 5 90 3e 24
        E 36 90 4d 2c
        E 5 90 30 00
        E 5 90 39 00
        E 41 90 32 00
        E 15 90 3e 00
        E 0 90 41 00
        E 0 90 4d 00
        E 67 90 3e 23
        E 25 90 1c 21
        E 15 90 38 26
        E 46 90 1c 00
        E 0 90 3e 00
        E 5 90 3e 1c
        E 31 90 44 23
        E 87 90 44 00
        E 20 90 3e 00
        E 57 90 43 35
        E 20 90 38 00
        E 36 90 43 00
        E 26 90 30 23
        E 5 90 3c 24
        E 41 90 37 21
        E 0 90 40 27
        E 0 90 48 2b
        E 15 90 30 00
        E 36 90 2d 23
        E 15 90 48 00
        E 16 90 37 00
        E 0 90 40 00
        E 46 90 3f 18
        E 15 90 3c 00
        E 31 90 36 2d
        E 5 90 2d 00
        E 0 90 42 26
        E 10 90 3f 00
        E 10 90 3c 36
        E 56 90 3f 27
        E 0 90 42 00
        E 0 90 42 25
        E 10 90 3c 00
        E 62 90 36 00
        E 0 90 36 2b
        E 117 90 3b 3a
        E 5 90 47 35
        E 21 90 36 00
        E 25 90 4b 2c
        E 16 90 3b 00
        E 5 90 42 00
        E 0 90 47 00
        E 5 90 3f 00
        E 20 90 37 25
        E 36 90 4b 00
        E 56 90 2f 18
        E 0 90 3b 2d
        E 0 90 47 25
        E 5 90 4a 28
        E 11 90 37 00
        E 30 90 41 2d
        E 10 90 35 2e
        E 77 90 2f 00
        E 0 90 3b 00
        E 0 90 47 00
        E 5 90 41 00
        E 5 90 35 00
        E 0 90 4a 00
        E 57 90 35 1d
        E 15 90 3e 13
        E 62 90 2c 26
        E 0 90 38 26
        E 5 90 3e 00
        E 5 90 35 00
        E 0 90 3e 1c
        E 51 90 38 00
        E 41 90 34 25
        E 0 90 3b 21
        E 46 90 32 16
        E 0 90 38 27
        E 0 90 4a 33
        E 5 90 47 20
        E 10 90 34 00
        E 46 90 32 00
        E 0 90 4a 00
        E 5 90 3b 00
        E 0 90 3e 00
        E 5 90 2c 00
        E 0 90 38 00
        E 0 90 47 00
        E 97 90 34 23
        E 6 90 40 1c
        E 76 90 3d 28
        E 0 90 40 00
        E 5 90 40 25
        E 0 90 49 1f
        E 138 90 3d 00
        E 0 90 3d 28
        E 0 90 40 00
        E 0 90 40 28
        E 10 90 49 00
        E 51 90 2d 2d
        E 6 90 45 34
        E 5 90 39 33
        E 10 90 34 00
        E 46 90 2d 00
        E 5 90 45 00
        E 5 90 39 00
        E 0 90 3d 00
        E 0 90 40 00
        E 108 90 3c 20
        E 10 90 48 2d
        E 61 90 3c 00
        E 6 90 48 00
        E 25 90 39 26
        E 51 90 3c 2e
        E 26 90 39 00
        E 41 90 3c 00
        E 66 90 2b 29
        E 0 90 37 24
        E 26 90 34 22
        E 0 90 43 27
        E 5 90 47 21
        E 92 90 3b 28
        E 5 90 2b 00
        E 5 90 37 00
        E 0 90 43 00
        E 0 90 47 00
        E 36 90 40 1e
        E 30 90 28 1d
        E 21 90 3b 00
        E 20 90 46 27
        E 46 90 2e 2d
        E 5 90 37 24
        E 0 90 3a 24
        E 5 90 28 00
        E 0 90 43 32
        E 5 90 34 00
        E 6 90 40 00
        E 0 90 46 00
        E 51 90 43 00
        E 20 90 37 00
        E 112 90 34 1e
        E 6 90 2e 00
        E 0 90 3a 00
        E 56 90 34 00
        E 82 90 39 23
        E 41 90 2d 2d
        E 61 90 34 25
        E 10 90 2d 00
        E 0 90 39 00
        E 52 90 24 2e
        E 5 90 30 28
        E 5 90 38 26
        E 0 90 40 26
        E 5 90 44 2e
        E 5 90 34 00
        E 25 90 2c 2f
        E 21 90 20 1d
        E 5 90 30 00
        E 5 90 40 00
        E 0 90 44 00
        E 5 90 24 00
        E 51 90 2c 00
        E 11 90 20 00
        E 66 90 38 00
        E 163 90 37 23
        E 6 90 3a 1e
        E 97 90 3a 00
        E 15 90 43 1c
        E 51 90 2d 19
        E 5 90 37 00
        E 41 90 43 00
        E 20 90 2d 00
        E 32 e0 00 20
        E 0 90 3d 1c
        E 5 e0 00 20
        E 6 e0 00 20
        E 5 e0 00 20
        E 6 e0 00 20
        E 5 e0 00 20
        E 6 e0 00 20
        E 5 e0 00 20
        E 6 e0 00 20
        E 5 e0 00 20
        E 6 e0 00 20
        E 5 e0 00 20
        E 6 e0 00 20
        E 0 90 3d 00
        E 51 90 37 22
        E 46 90 24 21
        E 0 90 40 1c
        E 5 90 3c 21
        E 0 90 43 28
        E 21 90 37 00
        E 40 90 40 00
        E 6 90 24 00
        E 10 90 43 00
        E 51 90 3c 00
        E 10 90 37 22
        E 31 90 40 17
        E 102 90 40 00
        E 5 90 37 00
        E 327 90 43 1e
        E 5 90 3a 20
        E 56 90 43 00
        E 113 90 3a 00
        E 199 90 40 26
        E 31 90 1e 1f
        E 77 90 40 00
        E 5 90 1e 00
        E 128 90 40 1e
        E 56 90 4f 2e
        E 51 90 4c 2d
        E 36 90 4f 00
        E 30 90 4c 00
        E 5 90 40 00
        E 0 90 4b 23
        E 72 90 3f 1d
        E 5 90 4b 00
        E 0 90 4b 29
        E 61 90 3f 00
        E 21 90 4b 00
        E 16 90 4a 20
        E 35 90 36 1e
        E 16 90 2a 1a
        E 25 90 4a 00
        E 82 90 36 00
        E 5 90 2a 00
        E 659 90 46 1f
        E 41 90 2e 18
        E 72 90 2e 00
        E 41 e0 2b 75
        E 0 90 42 20
        E 0 90 46 00
        E 5 e0 2b 75
        E 6 e0 2b 75
        E 5 e0 00 20
        E 6 e0 00 20
        E 5 e0 00 20
        E 6 e0 00 20
        E 5 e0 55 6a
        E 6 e0 55 6a
        E 5 e0 2b 75
        E 6 e0 2b 75
        E 5 e0 7f 7f
        E 6 e0 7f 7f
        E 5 e0 7f 7f
        E 0 90 42 00
        E 36 90 45 1d
        E 5 90 39 25
        E 67 90 39 00
        E 81 90 45 00
        E 67 e0 00 60
        E 0 90 43 24
        E 5 e0 00 60
        E 6 e0 00 60
        E 5 e0 00 60
        E 5 e0 00 60
        E 6 e0 00 60
        E 5 e0 00 60
        E 5 e0 00 60
        E 6 e0 55 6a
        E 5 e0 55 6a
        E 5 e0 55 6a
        E 6 e0 00 60
        E 5 e0 00 60
        E 5 e0 00 60
        E 6 e0 00 60
        E 5 e0 00 60
        E 5 e0 00 60
        E 6 e0 00 60
        E 5 e0 00 60
        E 5 e0 00 60
        E 6 e0 00 60
        E 5 e0 55 6a
        E 0 90 43 00
        E 26 e0 00 00
        E 0 90 2f 28
        E 5 e0 00 00
        E 5 e0 00 00
        E 6 e0 00 00
        E 5 e0 7f 7f
        E 5 e0 7f 7f
        E 6 e0 2b 75
        E 5 e0 2b 75
        E 5 e0 7f 7f
        E 5 e0 7f 7f
        E 6 e0 7f 7f
        E 5 e0 7f 7f
        E 5 e0 7f 7f
        E 6 e0 2b 75
        E 5 e0 2b 75
        E 5 e0 2b 75
        E 6 e0 2b 75
        E 5 e0 2b 75
        E 5 e0 2b 75
        E 6 e0 2b 75
        E 5 e0 2b 75
        E 5 e0 7f 7f
        E 5 e0 7f 7f
        E 6 e0 7f 7f
        E 5 e0 7f 7f
        E 5 e0 7f 7f
        E 6 e0 7f 7f
        E 0 90 2f 00
        E 5 90 2f 27
        E 15 90 23 29
        E 200 90 2f 00
        E 0 90 2f 24
        E 41 90 23 00
        E 41 90 2f 00
        E 35 90 2e 26
        E 77 90 3a 1c
        E 123 90 2e 00
        E 40 90 3a 00
        E 424 90 37 27
        E 0 90 43 26
        E 6 90 3a 1d
        E 67 90 3a 00
        E 35 90 43 00
        E 97 90 4b 1b
        E 5 90 42 22
        E 11 90 37 00
        E 71 90 42 00
        E 41 90 43 28
        E 0 90 4b 00
        E 0 90 4f 29
        E 153 90 4f 00
        E 57 90 37 1c
        E 81 90 40 1c
        E 16 90 37 00
        E 40 90 43 00
        E 41 90 40 00
        E 82 90 2e 39
        E 0 90 34 28
        E 10 90 37 2c
        E 0 90 3a 3a
        E 51 90 34 00
        E 11 90 2e 00
        E 0 90 37 00
        E 5 90 3a 00
        E 67 90 37 24
        E 204 90 2f 24
        E 72 90 2f 00
        E 5 90 2f 24
        E 0 90 37 00
        E 25 90 26 24
        E 10 90 32 27
        E 72 90 32 00
        E 5 90 2f 00
        E 61 90 26 00
        E 41 90 3b 21
        E 36 90 27 28
        E 0 90 33 1b
        E 5 90 4f 18
        E 5 90 43 29
        E 36 90 37 24
        E 5 90 2e 26
        E 26 90 4f 00
        E 5 90 43 00
        E 30 90 33 00
        E 0 90 3b 00
        E 11 90 27 00
        E 25 90 37 00
        E 77 90 2e 00
        E 230 90 37 25
        E 158 90 2f 24
        E 11 90 46 16
        E 46 90 3e 1d
        E 20 90 2f 00
        E 0 90 46 00
        E 0 90 4f 32
        E 10 90 43 28
        E 51 90 3e 00
        E 21 90 43 00
        E 15 90 4f 00
        E 77 90 37 00
        E 0 90 43 26
        E 76 90 37 23
        E 6 90 40 27
        E 0 90 4f 31
        E 56 90 34 22
        E 71 90 37 00
        E 5 90 37 23
        E 0 90 43 00
        E 5 90 43 26
        E 6 90 34 00
        E 5 90 40 00
        E 5 90 4f 00
        E 56 90 37 00
        E 15 90 40 2a
        E 57 90 40 00
        E 179 90 2d 19
        E 10 90 37 24
        E 56 90 2d 00
        E 10 90 37 00
        E 62 90 37 2b
        E 20 90 43 00
        E 51 90 37 00
        E 36 90 24 27
        E 153 90 3c 33
        E 11 90 2b 2b
        E 5 90 37 2d
        E 51 90 3c 00
        E 20 90 2b 00
        E 26 90 24 00
        E 10 90 37 00
        E 66 e0 2b 15
        E 0 90 2b 29
        E 5 e0 2b 15
        E 6 e0 2b 15
        E 5 e0 2b 15
        E 5 e0 2b 15
        E 5 e0 2b 15
        E 5 e0 2b 15
        E 5 e0 2b 15
        E 6 e0 2b 15
        E 5 e0 2b 15
        E 5 e0 2b 15
        E 5 e0 2b 15
        E 5 e0 2b 15
        E 5 e0 2b 15
        E 0 90 2b 00
        E 46 90 30 1c
        E 62 90 4e 26
        E 5 90 30 00
        E 61 90 4e 00
        E 20 90 37 2e
        E 16 90 43 2c
        E 5 90 4f 2a
        E 82 90 30 26
        E 15 90 4f 00
        E 0 90 4f 26
        E 51 90 30 00
        E 5 90 37 00
        E 5 90 43 00
        E 0 90 4f 00
        E 26 90 3f 22
        E 5 90 4b 1e
        E 122 90 43 24
        E 0 90 4f 25
        E 36 90 4b 00
        E 16 90 37 1f
        E 10 90 3f 00
        E 5 90 43 00
        E 0 90 4f 00
        E 87 90 43 2a
        E 20 90 4f 21
        E 72 90 48 20
        E 30 90 37 00
        E 11 90 4f 00
        E 30 90 43 00
        E 31 90 48 00
        E 31 e0 55 6a
        E 0 90 43 24
        E 6 e0 55 6a
        E 5 e0 55 6a
        E 6 e0 2b 75
        E 5 e0 2b 75
        E 6 e0 55 6a
        E 5 e0 55 6a
        E 6 e0 55 6a
        E 6 e0 55 6a
        E 5 e0 55 6a
        E 6 e0 00 20
        E 5 e0 00 20
        E 0 90 43 00
        E 16 e0 00 60
        E 0 90 39 1d
        E 5 e0 55 2a
        E 6 e0 55 2a
        E 5 e0 55 2a
        E 6 e0 00 60
        E 5 e0 00 60
        E 6 e0 00 60
        E 5 e0 00 60
        E 6 e0 00 60
        E 5 e0 00 60
        E 6 e0 55 2a
        E 5 e0 55 2a
        E 6 e0 55 2a
        E 5 e0 55 2a
        E 0 90 39 00
        E 118 90 24 26
        E 87 90 37 2f
        E 66 90 24 00
        E 36 90 37 00
        E 87 90 30 1d
        E 0 90 37 23
        E 15 90 24 16
        E 46 90 3f 2e
        E 15 90 24 00
        E 5 90 30 00
        E 10 90 37 00
        E 31 90 3f 00
        E 41 90 24 28
        E 0 90 37 21
        E 10 90 43 2d
        E 51 90 24 00
        E 51 90 43 00
        E 57 90 4b 25
        E 15 90 37 00
        E 41 90 43 1d
        E 11 90 4b 00
        E 107 90 43 00
        E 189 90 43 22
        E 133 90 37 22
        E 97 90 43 00
        E 76 90 37 00
        E 399 90 43 1e
        E 26 90 30 23
        E 10 90 3c 1f
        E 41 90 34 21
        E 20 90 37 1e
        E 11 90 43 00
        E 41 90 30 00
        E 5 90 34 00
        E 5 90 37 00
        E 5 90 3c 00
        E 51 90 43 23
        E 66 90 3b 21
        E 41 90 43 00
        E 77 90 3b 00
        E 25 90 34 19
        E 97 90 40 1e
        E 0 90 43 1d
        E 52 90 34 00
        E 5 90 3e 25
        E 40 90 40 00
        E 42 90 3e 00
        E 82 90 37 17
        E 35 90 21 20
        E 6 90 2d 28
        E 30 90 37 00
        E 56 90 43 00
        E 77 90 21 00
        E 5 90 2d 00
        E 61 90 2e 28
        E 16 90 43 27
        E 76 90 22 25
        E 0 90 43 00
        E 46 90 2e 00
        E 21 90 22 00
        E 414 90 34 24
        E 15 90 28 29
        E 57 90 34 00
        E 15 90 1c 1e
        E 61 90 28 00
        E 82 90 28 1f
        E 71 90 43 27
        E 16 90 37 24
        E 41 90 1c 00
        E 5 90 28 00
        E 66 90 28 25
        E 10 90 43 00
        E 6 90 37 00
        E 61 90 3e 21
        E 5 90 28 00
        E 107 90 3e 00
        E 21 e0 7f 7f
        E 0 90 37 23
        E 5 e0 7f 7f
        E 5 e0 2b 75
        E 6 e0 2b 75
        E 5 e0 2b 75
        E 5 e0 2b 75
        E 6 e0 2b 75
        E 5 e0 2b 75
        E 5 e0 2b 75
        E 6 e0 2b 75
        E 5 e0 2b 75
        E 5 e0 2b 75
        E 5 e0 2b 75
        E 6 e0 2b 75
        E 5 e0 2b 75
        E 5 e0 2b 75
        E 6 e0 2b 75
        E 5 e0 7f 7f
        E 5 e0 7f 7f
        E 6 e0 7f 7f
        E 5 e0 7f 7f
        E 5 e0 7f 7f
        E 6 e0 7f 7f
        E 5 e0 7f 7f
        E 5 e0 7f 7f
        E 0 90 37 00
        E 149 90 28 27
        E 5 90 1c 29
        E 118 90 28 00
        E 5 90 1c 00
        E 158 90 28 20
        E 5 90 43 28
        E 62 90 28 00
        E 35 90 4b 1c
        E 46 90 43 00
        E 26 90 4b 00
        E 36 e0 00 20
        E 0 90 3e 20
        E 5 e0 00 20
        E 5 e0 00 20
        E 6 e0 00 20
        E 5 e0 00 20
        E 5 e0 00 20
        E 6 e0 00 20
        E 5 e0 00 20
        E 5 e0 00 20
        E 6 e0 00 20
        E 5 e0 00 20
        E 6 e0 00 20
        E 5 e0 00 20
        E 5 e0 00 20
        E 6 e0 00 20
        E 5 e0 00 20
        E 5 e0 00 20
        E 6 e0 00 20
        E 5 e0 00 20
        E 5 e0 2b 15
        E 6 e0 2b 15
        E 0 90 3e 00
        E 15 e0 00 00
        E 0 90 37 2e
        E 6 e0 00 00
        E 5 e0 00 00
        E 6 e0 00 00
        E 5 e0 55 0a
        E 6 e0 55 0a
        E 6 e0 55 0a
        E 5 e0 55 0a
        E 6 e0 2b 15
        E 5 e0 2b 75
        E 6 e0 2b 75
        E 5 e0 7f 7f
        E 0 90 37 00
        E 323 90 34 23
        E 10 90 43 22
        E 82 90 28 1f
        E 0 90 34 00
        E 46 90 2f 23
        E 0 90 37 27
        E 10 90 3b 17
        E 72 90 3b 00
        E 5 90 28 00
        E 5 90 2f 00
        E 30 90 40 19
        E 16 90 37 00
        E 46 90 43 00
        E 30 90 2f 1e
        E 11 90 40 00
        E 15 90 4f 1f
        E 41 90 2f 00
        E 0 90 43 24
        E 30 90 37 29
        E 41 90 4f 00
        E 41 90 37 00
        E 5 90 43 00
        E 297 e0 00 40
        E 0 90 47 2d
        E 6 e0 00 40
        E 5 e0 2b 55
        E 6 e0 00 20
        E 5 e0 00 20
        E 6 e0 00 20
        E 5 e0 00 20
        E 6 e0 00 20
        E 5 e0 00 20
        E 6 e0 00 20
        E 5 e0 00 20
        E 6 e0 00 20
        E 6 e0 55 2a
        E 0 90 40 1d
        E 0 90 47 00
        E 51 90 1c 22
        E 5 90 2f 21
        E 15 90 43 26
        E 5 90 40 00
        E 51 90 1c 00
        E 51 90 2f 00
        E 46 90 3c 1c
        E 77 90 3c 00
        E 10 90 28 21
        E 77 90 28 00
        E 5 90 43 00
        E 36 e0 00 20
        E 0 90 3e 27
        E 5 e0 00 20
        E 6 e0 00 20
        E 5 e0 00 20
        E 6 e0 00 20
        E 5 e0 00 20
        E 6 e0 00 20
        E 5 e0 00 20
        E 6 e0 00 20
        E 5 e0 00 20
        E 6 e0 00 20
        E 5 e0 00 20
        E 6 e0 00 20
        E 0 90 3e 00
        E 154 90 4c 2b
        E 5 90 28 1a
        E 5 90 37 22
        E 0 90 40 2e
        E 0 90 43 25
        E 0 90 4f 2b
        E 51 90 4c 00
        E 5 90 28 00
        E 5 90 40 00
        E 0 90 4f 00
        E 31 90 37 00
        E 0 90 43 00
        E 107 90 2f 22
        E 41 90 3f 25
        E 0 90 47 14
        E 0 90 4b 29
        E 67 90 4b 00
        E 46 90 34 20
        E 5 90 28 23
        E 0 90 4c 25
        E 10 90 2f 00
        E 10 90 3f 00
        E 26 90 43 2f
        E 5 90 47 00
        E 0 90 4f 2b
        E 5 90 34 00
        E 5 90 4c 00
        E 61 90 4f 00
        E 26 90 2f 21
        E 20 90 43 00
        E 62 90 37 29
        E 25 90 2f 00
        E 10 90 43 28
        E 56 90 28 00
        E 113 90 37 00
        E 5 90 43 00
        E 77 90 3b 25
        E 113 90 28 2c
        E 10 90 2f 24
        E 25 90 47 30
        E 31 90 3b 00
        E 36 90 47 00
        E 20 90 2f 00
        E 41 90 28 00
        E 194 90 45 37
        E 5 90 2d 23
        E 21 90 51 25
        E 41 90 45 00
        E 35 90 51 00
        E 51 90 37 20
        E 0 90 39 21
        E 11 90 3c 21
        E 0 90 43 25
        E 0 90 48 20
        E 0 90 4f 20
        E 56 90 37 00
        E 56 90 43 00
        E 0 90 4f 00
        E 10 90 39 00
        E 0 90 48 00
        E 5 90 2d 00
        E 31 90 3c 00
        E 72 90 28 2c
        E 5 90 34 20
        E 0 90 3b 20
        E 67 90 3b 00
        E 46 90 34 00
        E 15 90 28 00
        E 61 90 28 29
        E 15 90 34 1f
        E 62 90 37 26
        E 0 90 43 32
        E 15 90 34 00
        E 10 90 28 00
        E 36 90 43 00
        E 31 90 4b 22
        E 35 90 43 20
        E 41 90 37 00
        E 0 90 4b 00
        E 26 90 3e 24
        E 61 90 37 23
        E 56 90 3e 00
        E 72 90 43 00
        E 15 90 3c 24
        E 36 90 37 00
        E 46 90 3c 00
        E 98 90 34 24
        E 51 90 40 21
        E 10 90 34 00
        E 117 90 40 00
        E 297 90 3c 32
        E 0 90 48 26
        E 66 90 3c 00
        E 0 90 48 00
        E 118 e0 55 4a
        E 0 90 2f 26
        E 5 e0 7f 7f
        E 5 e0 7f 7f
        E 6 e0 2b 15
        E 5 e0 2b 15
        E 5 e0 2b 15
        E 6 e0 2b 15
        E 5 e0 2b 15
        E 5 e0 00 20
        E 6 e0 00 20
        E 5 e0 00 20
        E 6 e0 00 20
        E 5 e0 00 20
        E 5 e0 00 20
        E 6 e0 2b 75
        E 5 e0 2b 75
        E 5 e0 7f 7f
        E 6 e0 2b 15
        E 5 e0 2b 15
        E 5 e0 2b 15
        E 6 e0 2b 15
        E 0 90 2f 00
        E 5 90 23 2e
        E 0 90 2f 2f
        E 0 90 3f 31
        E 61 90 23 00
        E 0 90 2f 00
        E 5 90 3f 00
        E 42 e0 55 6a
        E 0 90 45 1c
        E 5 e0 55 6a
        E 6 e0 55 6a
        E 5 e0 55 6a
        E 6 e0 55 6a
        E 5 e0 55 6a
        E 6 e0 55 6a
        E 5 e0 00 60
        E 6 e0 00 60
        E 5 e0 00 60
        E 6 e0 00 60
        E 5 e0 00 60
        E 6 e0 00 20
        E 5 e0 00 20
        E 0 90 45 00
        E 26 90 23 19
        E 46 90 45 17
        E 71 90 23 00
        E 97 90 45 00
        E 92 90 39 1c
        E 62 90 40 2b
        E 5 90 39 00
        E 66 90 40 00
        E 41 90 1c 2a
        E 0 90 28 28
        E 5 90 34 22
        E 10 90 4a 1d
        E 5 90 37 28
        E 0 90 40 1e
        E 57 90 1c 00
        E 5 90 34 00
        E 5 90 40 00
        E 0 90 4a 00
        E 148 90 28 00
        E 20 90 37 00
        E 62 90 37 25
        E 21 90 28 1b
        E 0 90 2f 1b
        E 66 90 28 00
        E 0 90 2f 00
        E 128 e0 00 60
        E 0 90 2b 16
        E 0 90 37 00
        E 5 e0 55 0a
        E 6 e0 55 0a
        E 5 e0 55 0a
        E 6 e0 2b 15
        E 6 e0 2b 15
        E 5 e0 2b 15
        E 6 e0 2b 15
        E 5 e0 2b 15
        E 6 e0 2b 15
        E 5 e0 2b 15
        E 6 e0 2b 15
        E 5 e0 55 0a
        E 0 90 2b 00
        E 0 90 2f 1f
        E 0 90 37 27
        E 0 90 3b 1d
        E 0 90 4a 2d
        E 67 90 4a 00
        E 5 90 3b 00
        E 25 90 2f 00
        E 128 90 37 00
        E 46 e0 2b 55
        E 0 90 3e 2d
        E 6 e0 00 60
        E 5 e0 00 60
        E 6 e0 00 60
        E 5 e0 00 60
        E 6 e0 00 60
        E 5 e0 00 60
        E 6 e0 00 60
        E 6 e0 00 60
        E 5 e0 2b 15
        E 6 e0 2b 15
        E 5 e0 2b 15
        E 0 90 3e 00
        E 62 e0 00 60
        E 0 90 48 33
        E 5 e0 00 60
        E 6 e0 00 60
        E 5 e0 55 6a
        E 6 e0 55 6a
        E 6 e0 55 6a
        E 5 e0 55 6a
        E 6 e0 55 6a
        E 5 e0 55 6a
        E 6 e0 55 6a
        E 5 e0 55 6a
        E 6 e0 55 6a
        E 0 90 48 00
        E 200 e0 7f 7f
        E 0 90 42 28
        E 5 e0 7f 7f
        E 6 e0 2b 15
        E 5 e0 2b 15
        E 5 e0 2b 15
        E 6 e0 2b 15
        E 5 e0 2b 15
        E 6 e0 2b 15
        E 5 e0 2b 15
        E 5 e0 2b 15
        E 6 e0 00 20
        E 5 e0 00 20
        E 6 e0 00 20
        E 5 e0 2b 15
        E 5 e0 2b 15
        E 6 e0 00 20
        E 5 e0 2b 15
        E 6 e0 2b 15
        E 0 90 42 00
        E 51 90 34 21
        E 0 90 43 2c
        E 10 90 40 26
        E 77 90 40 00
        E 5 90 43 00
        E 71 90 4c 2d
        E 16 90 34 00
        E 56 90 4c 00
        E 30 90 34 2a
        E 51 90 3e 24
        E 0 90 40 1e
        E 67 90 40 00
        E 5 90 34 00
        E 10 90 3e 00
        E 169 90 43 2e
        E 51 90 3c 25
        E 11 90 43 00
        E 61 90 3f 21
        E 5 90 48 24
        E 10 90 42 22
        E 46 90 3f 00
        E 10 90 2f 2c
        E 6 90 3c 00
        E 5 90 42 00
        E 0 90 48 00
        E 35 90 34 19
        E 0 90 43 2c
        E 26 90 2f 00
        E 41 90 43 00
        E 5 90 34 00
        E 36 90 3b 24
        E 46 90 47 16
        E 71 90 2f 34
        E 10 90 47 00
        E 6 90 47 28
        E 15 90 3b 00
        E 36 90 2f 00
        E 10 90 47 00
        E 76 90 28 25
        E 113 90 30 23
        E 25 90 28 00
        E 123 90 43 25
        E 20 90 30 00
        E 62 90 3f 24
        E 5 90 4b 1f
        E 128 90 3f 00
        E 5 90 4f 20
        E 5 90 4b 00
        E 77 90 4f 00
        E 82 90 43 00
        E 5 90 30 22
        E 5 90 48 20
        E 56 90 30 00
        E 51 90 48 00
        E 46 90 3a 25
        E 10 90 2e 26
        E 62 90 48 1f
        E 10 90 3a 00
        E 15 90 2e 00
        E 36 90 48 00
        E 36 90 28 25
        E 5 90 3c 1f
        E 61 90 3c 00
        E 241 90 28 00
        E 10 e0 55 6a
        E 0 90 4d 26
        E 5 e0 55 6a
        E 6 e0 55 6a
        E 5 e0 55 2a
        E 6 e0 55 2a
        E 5 e0 55 2a
        E 6 e0 55 2a
        E 5 e0 55 2a
        E 6 e0 55 2a
        E 5 e0 55 2a
        E 6 e0 55 2a
        E 5 e0 55 6a
        E 5 e0 55 6a
        E 6 e0 2b 75
        E 5 e0 2b 75
        E 6 e0 55 6a
        E 0 90 4d 00
        E 250 90 37 25
        E 0 90 43 22
        E 5 90 40 19
        E 0 90 4c 27
        E 0 90 4f 19
        E 67 90 4f 00
        E 5 90 4f 25
        E 0 90 57 0d
        E 10 90 37 00
        E 0 90 40 00
        E 0 90 43 00
        E 0 90 4c 00
        E 46 90 4b 28
        E 51 90 57 00
        E 20 90 4b 00
        E 0 90 4f 00
        E 272 90 2f 35
        E 10 90 47 30
        E 51 90 2f 00
        E 15 90 47 00
        E 51 e0 2b 75
        E 0 90 43 29
        E 6 e0 00 00
        E 6 e0 55 0a
        E 5 e0 55 0a
        E 6 e0 55 0a
        E 5 e0 55 0a
        E 6 e0 55 0a
        E 5 e0 55 0a
        E 6 e0 55 0a
        E 5 e0 55 0a
        E 6 e0 55 0a
        E 5 e0 2b 75
        E 6 e0 2b 75
        E 0 90 43 00
        E 460 90 34 1f
        E 5 90 28 27
        E 20 90 2f 24
        E 5 90 3b 21
        E 67 90 34 00
        E 10 90 2f 00
        E 15 90 1c 22
        E 72 90 1c 00
        E 11 90 28 00
        E 0 90 3b 00
        E 153 90 3e 22
        E 10 90 32 29
        E 5 90 42 1b
        E 72 90 42 00
        E 5 90 32 00
        E 0 90 3e 00
        E 230 90 4a 1b
        E 46 90 37 24
        E 5 90 1f 26
        E 10 90 2b 26
        E 0 90 32 1f
        E 10 90 4a 00
        E 56 90 37 00
        E 62 90 1f 00
        E 5 90 2b 00
        E 10 90 32 00
        E 61 e0 00 20
        E 0 90 37 21
        E 6 e0 00 20
        E 5 e0 00 20
        E 5 e0 2b 15
        E 6 e0 2b 15
        E 5 e0 2b 15
        E 6 e0 2b 15
        E 5 e0 2b 15
        E 5 e0 00 20
        E 6 e0 00 20
        E 5 e0 00 20
        E 6 e0 00 20
        E 5 e0 00 20
        E 6 e0 00 20
        E 5 e0 00 20
        E 5 e0 00 20
        E 6 e0 00 20
        E 5 e0 00 20
        E 0 90 37 00
        E 82 90 37 20
        E 52 90 4e 16
        E 56 90 40 30
        E 5 90 4e 00
        E 51 90 37 00
        E 5 90 40 00
        E 455 90 3c 3e
        E 5 90 48 41
        E 61 90 48 00
        E 5 90 3c 00
        E 215 e0 2b 15
        E 0 90 3c 36
        E 6 e0 2b 15
        E 5 e0 2b 15
        E 6 e0 2b 15
        E 5 e0 2b 15
        E 6 e0 2b 15
        E 6 e0 2b 15
        E 5 e0 2b 15
        E 6 e0 2b 15
        E 5 e0 2b 15
        E 6 e0 2b 15
        E 5 e0 2b 15
        E 6 e0 00 20
        E 0 90 3c 00
        E 158 e0 55 2a
        E 0 90 3b 37
        E 6 e0 00 20
        E 5 e0 00 20
        E 6 e0 2b 15
        E 5 e0 00 20
        E 6 e0 00 20
        E 6 e0 00 20
        E 5 e0 00 20
        E 6 e0 00 20
        E 5 e0 00 20
        E 6 e0 00 20
        E 5 e0 00 20
        E 0 90 3b 00
        E 57 90 23 2f
        E 10 90 2f 2e
        E 5 90 36 17
        E 51 90 23 00
        E 15 90 2f 00
        E 46 90 3f 1f
        E 21 90 36 00
        E 46 90 3f 00
        E 230 e0 2b 15
        E 0 90 36 21
        E 5 e0 2b 15
        E 5 e0 2b 15
        E 5 e0 2b 15
        E 5 e0 2b 15
        E 5 e0 2b 15
        E 6 e0 00 20
        E 5 e0 00 20
        E 5 e0 00 20
        E 5 e0 00 20
        E 5 e0 00 20
        E 5 e0 00 20
        E 0 90 36 00
        E 138 e0 55 0a
        E 0 90 40 29
        E 6 e0 55 0a
        E 5 e0 55 6a
        E 5 e0 55 6a
        E 6 e0 00 20
        E 5 e0 00 20
        E 5 e0 00 20
        E 6 e0 00 20
        E 5 e0 00 20
        E 6 e0 00 20
        E 5 e0 00 20
        E 5 e0 00 20
        E 6 e0 00 20
        E 5 e0 00 20
        E 5 e0 00 20
        E 6 e0 00 20
        E 5 e0 00 20
        E 5 e0 55 6a
        E 6 e0 55 6a
        E 5 e0 55 6a
        E 6 e0 00 20
        E 0 90 40 00
        E 35 90 28 31
        E 11 90 34 2a
        E 10 90 40 2a
        E 36 90 43 26
        E 10 90 28 00
        E 35 90 34 00
        E 6 90 40 00
        E 46 90 43 00
        E 81 90 28 26
        E 41 90 37 2c
        E 31 90 28 00
        E 36 90 37 00
        E 178 90 43 20
        E 5 90 37 26
        E 93 90 37 00
        E 31 90 43 00
        E 107 90 4a 28
        E 5 90 37 23
        E 5 90 40 25
        E 0 90 43 2a
        E 51 90 4a 00
        E 10 90 40 00
        E 6 90 43 00
        E 30 90 37 00
        E 56 90 43 21
        E 97 90 4a 1f
        E 11 90 43 00
        E 102 90 4a 00
        E 5 90 40 1d
        E 5 90 43 1a
        E 66 90 40 00
        E 0 90 43 00
        E 221 90 30 1d
        E 61 90 3c 22
        E 10 90 30 00
        E 72 90 24 28
        E 0 90 40 28
        E 0 90 43 2b
        E 5 90 37 21
        E 0 90 4f 2d
        E 5 90 30 29
        E 15 90 3c 00
        E 36 90 24 00
        E 0 90 43 00
        E 5 90 40 00
        E 0 90 4f 00
        E 15 90 37 00
        E 57 90 3f 23
        E 71 90 4c 29
        E 5 90 47 24
        E 10 90 30 00
        E 0 90 3f 00
        E 46 90 4c 00
        E 6 90 47 00
        E 56 90 3c 23
        E 0 90 4c 1a
        E 5 90 47 18
        E 46 90 24 1e
        E 0 90 30 27
        E 0 90 34 21
        E 0 90 39 22
        E 10 90 2d 28
        E 5 90 40 26
        E 5 90 47 00
        E 0 90 4c 00
        E 5 90 3c 00
        E 51 90 24 00
        E 0 90 30 00
        E 0 90 39 00
        E 6 90 34 00
        E 5 90 40 00
        E 66 90 2d 00
        E 31 90 3c 24
        E 0 90 48 26
        E 71 90 3c 00
        E 0 90 48 00
        E 159 90 2f 25
        E 31 90 51 11
        E 56 90 38 26
        E 15 90 51 00
        E 11 90 2f 00
        E 40 90 38 00
        E 26 e0 00 20
        E 0 90 2f 1e
        E 5 e0 00 20
        E 6 e0 00 20
        E 5 e0 00 20
        E 6 e0 00 20
        E 5 e0 00 20
        E 6 e0 00 20
        E 5 e0 00 20
        E 6 e0 00 20
        E 5 e0 00 20
        E 6 e0 00 20
        E 5 e0 00 20
        E 6 e0 00 20
        E 5 e0 00 20
        E 6 e0 00 20
        E 0 90 2f 00
        E 347 e0 00 20
        E 0 90 4a 18
        E 5 e0 00 20
        E 6 e0 00 20
        E 5 e0 55 2a
        E 5 e0 55 2a
        E 6 e0 55 2a
        E 5 e0 55 2a
        E 5 e0 55 2a
        E 6 e0 00 20
        E 5 e0 00 20
        E 5 e0 00 20
        E 6 e0 00 20
        E 5 e0 00 20
        E 5 e0 00 20
        E 6 e0 00 20
        E 5 e0 55 2a
        E 5 e0 55 2a
        E 6 e0 55 2a
        E 5 e0 55 2a
        E 5 e0 55 2a
        E 6 e0 55 2a
        E 5 e0 00 20
        E 5 e0 55 2a
        E 0 90 4a 00
        E 451 e0 2b 15
        E 0 90 47 3a
        E 5 e0 2b 15
        E 6 e0 2b 15
        E 5 e0 2b 15
        E 6 e0 2b 15
        E 5 e0 00 20
        E 6 e0 00 20
        E 6 e0 00 20
        E 5 e0 00 20
        E 6 e0 00 20
        E 5 e0 00 20
        E 6 e0 00 20
        E 0 90 47 00
        E 66 90 23 20
        E 11 90 28 24
        E 66 90 23 00
        E 5 90 28 00
        E 163 90 28 24
        E 77 90 3b 1e
        E 41 90 47 19
        E 57 90 2f 1e
        E 10 90 47 00
        E 10 90 3b 00
        E 46 90 2f 00
        E 46 90 34 1b
        E 61 90 4f 24
        E 57 90 34 00
        E 56 90 41 24
        E 20 90 4f 00
        E 46 90 28 00
        E 46 90 41 00
        E 337 e0 00 60
        E 0 90 42 17
        E 6 e0 00 60
        E 5 e0 00 60
        E 6 e0 00 60
        E 5 e0 00 60
        E 6 e0 55 6a
        E 6 e0 55 6a
        E 5 e0 55 6a
        E 6 e0 55 6a
        E 5 e0 00 60
        E 6 e0 00 60
        E 5 e0 55 6a
        E 6 e0 55 6a
        E 0 90 42 00
        E 159 90 37 2d
        E 10 90 43 27
        E 5 90 40 2b
        E 5 90 24 24
        E 61 90 24 00
        E 57 90 43 00
        E 112 90 40 00
        E 72 90 37 00
        E 76 90 37 25
        E 0 90 43 20
        E 87 90 37 00
        E 20 90 43 00
        E 149 90 43 1f
        E 56 90 34 21
        E 0 90 37 25
        E 10 90 43 00
        E 47 90 34 00
        E 0 90 37 00
        E 148 90 40 23
        E 112 90 34 26
        E 31 90 40 00
        E 46 90 34 00
        E 766 e0 00 20
        E 0 90 28 24
        E 6 e0 00 20
        E 5 e0 00 20
        E 6 e0 00 20
        E 5 e0 00 20
        E 5 e0 00 20
        E 6 e0 00 20
        E 5 e0 00 20
        E 5 e0 00 20
        E 6 e0 00 20
        E 5 e0 00 20
        E 6 e0 00 20
        E 5 e0 00 20
        E 5 e0 00 20
        E 6 e0 00 20
        E 5 e0 00 20
        E 6 e0 00 20
        E 5 e0 00 60
        E 5 e0 00 60
        E 6 e0 00 60
        E 0 90 28 00
        E 224 90 4f 32
        E 16 90 37 2c
        E 51 90 4f 00
        E 61 90 37 00
        E 61 e0 2b 15
        E 0 90 37 21
        E 6 e0 2b 15
        E 5 e0 2b 15
        E 5 e0 2b 15
        E 5 e0 2b 15
        E 5 e0 2b 15
        E 5 e0 2b 15
        E 5 e0 2b 15
        E 5 e0 2b 15
        E 6 e0 2b 15
        E 5 e0 2b 15
        E 5 e0 2b 15
        E 5 e0 2b 15
        E 5 e0 2b 15
        E 5 e0 2b 15
        E 5 e0 2b 15
        E 5 e0 2b 15
        E 6 e0 2b 15
        E 5 e0 2b 15
        E 5 e0 2b 15
        E 5 e0 2b 15
        E 5 e0 2b 15
        E 5 e0 2b 15
        E 5 e0 55 0a
        E 5 e0 55 0a
        E 6 e0 55 0a
        E 5 e0 55 0a
        E 5 e0 2b 15
        E 5 e0 2b 15
        E 5 e0 00 20
        E 5 e0 00 20
        E 5 e0 00 20
        E 5 e0 2b 15
        E 0 90 37 00
        E 62 e0 2b 15
        E 0 90 37 26
        E 5 e0 2b 15
        E 6 e0 2b 15
        E 5 e0 00 20
        E 6 e0 00 20
        E 6 e0 00 20
        E 5 e0 00 20
        E 6 e0 00 20
        E 5 e0 00 20
        E 6 e0 00 20
        E 5 e0 2b 15
        E 6 e0 2b 15
        E 0 90 37 00
        E 91 b0 7b 00
        CCINTERP 32
        CHASE_CC_TAKEOFFS 1
        GUID {CF201223-AE90-44BD-870C-6BBF12E76672}
        IGNTEMPO 0 120 4 4
        SRCCOLOR 224
      >
    >
  >
  <UINF 125
    <TRACK {AF3E723C-8BD9-455D-B7D3-14026E7EBD13}
      NAME "Nov26_02 (Preprocessed data)"
      PEAKCOL 32334866
      BEAT -1
      AUTOMODE 0
      VOLPAN 1 0 -1 -1 1
      MUTESOLO 0 2 0
      IPHASE 0
      PLAYOFFS 0 1
      ISBUS 0 0
      BUSCOMP 0 0 0 0 0
      SHOWINMIX 1 0.6667 0.5 1 0.5 -1 -1 -1
      REC 0 0 1 0 0 0 0 0
      VU 2
      TRACKHEIGHT 0 0 0 0 0 0
      INQ 0 0 0 0.5 100 0 0 100
      NCHAN 2
      FX 1
      TRACKID {AF3E723C-8BD9-455D-B7D3-14026E7EBD13}
      PERF 0
      UNDO_HAS_TRACKENV
      MIDIOUT -1
      MAINSEND 1 0
    >
  >
  <UINF 126
    <TRACK {C11D002C-F0F0-4D5E-9781-EDB846A46007}
      NAME "Beethoven - Fur Elise"
      PEAKCOL 33554431
      BEAT -1
      AUTOMODE 0
      VOLPAN 1 0 -1 -1 1
      MUTESOLO 0 0 0
      IPHASE 0
      PLAYOFFS 0 1
      ISBUS 1 1
      BUSCOMP 0 0 0 0 0
      SHOWINMIX 1 0.6667 0.5 1 0.5 -1 -1 -1
      REC 0 0 1 0 0 0 0 0
      VU 2
      TRACKHEIGHT 0 0 0 0 0 0
      INQ 0 0 0 0.5 100 0 0 100
      NCHAN 2
      FX 1
      TRACKID {C11D002C-F0F0-4D5E-9781-EDB846A46007}
      PERF 0
      UNDO_HAS_TRACKENV
      MIDIOUT -1
      MAINSEND 1 0
    >
  >
  <UINF 127
    <TRACK {A5678F31-C014-4D18-8F56-99370EBED686}
      NAME wii_music
      PEAKCOL 33554431
      BEAT -1
      AUTOMODE 0
      VOLPAN 1 0 -1 -1 1
      MUTESOLO 1 0 0
      IPHASE 0
      PLAYOFFS 0 1
      ISBUS 1 1
      BUSCOMP 0 0 0 0 0
      SHOWINMIX 1 0.6667 0.5 1 0.5 -1 -1 -1
      REC 0 0 1 0 0 0 0 0
      VU 2
      TRACKHEIGHT 0 0 0 0 0 0
      INQ 0 0 0 0.5 100 0 0 100
      NCHAN 2
      FX 1
      TRACKID {A5678F31-C014-4D18-8F56-99370EBED686}
      PERF 0
      UNDO_HAS_TRACKENV
      MIDIOUT -1
      MAINSEND 1 0
    >
  >
  <UINF 128
    <TRACK {1BF2D52A-E1A6-420A-AECA-267DE1ED5B3B}
      NAME "Training Dataset Song"
      PEAKCOL 33554431
      BEAT -1
      AUTOMODE 0
      VOLPAN 1 0 -1 -1 1
      MUTESOLO 1 0 0
      IPHASE 0
      PLAYOFFS 0 1
      ISBUS 1 1
      BUSCOMP 0 0 0 0 0
      SHOWINMIX 1 0.6667 0.5 1 0.5 -1 -1 -1
      REC 0 0 1 0 0 0 0 0
      VU 2
      TRACKHEIGHT 0 0 0 0 0 0
      INQ 0 0 0 0.5 100 0 0 100
      NCHAN 2
      FX 1
      TRACKID {1BF2D52A-E1A6-420A-AECA-267DE1ED5B3B}
      PERF 0
      UNDO_HAS_TRACKENV
      MIDIOUT -1
      MAINSEND 1 0
    >
  >
  <UINF 129
    WNDRECT 23 51 855 480
    SHOW 0
    LASTSEL 0
    DOCKED 0
    BYPASS 0 0 0
    FXID_NEXT {6AB6CA0B-EEB2-4779-B560-7C533AA370C6}
    <VST "VSTi: BassMidiVsti (Falcosoft)" BassMidiVsti.dll 0 "" 1112755524<56535442534D44626173736D69646976> ""
      RE1TQu5e7f4AAAAAAgAAAAEAAAAAAAAAAgAAAAAAAAD1DAAAAQAAAAAAEAA=
      RwA6AFwATQB5ACAARAByAGkAdgBlAFwATQB1AHMAaQBjACAAUAByAG8AZAB1AGMAdABpAG8AbgBcAFMAbwB1AG4AZABmAG8AbgB0AHMAXABFAHMAcwBlAG4AdABpAGEAbAAgAEsAZQB5AHMALQBzAGYAegBCAGEAbgBrAHMALQB2ADkALgA2AC4AcwBmADIAAAAAAAAAAAAAAAAAAAAAAAAAAAAAAAAAAAAAAAAAAAAAAAAAAAAAAAAAAAAAAAAAAAAAAAAAAAAAAAAAAAAAAAAA
      AAAAAAAAAAAAAAAAAAAAAAAAAAAAAAAAAAAAAAAAAAAAAAAAAAAAAAAAAAAAAAAAAAAAAAAAAAAAAAAAAAAAAAAAAAAAAAAAAAAAAAAAAAAAAAAAAAAAAAAAAAAAAAAAAAAAAAAAAAAAAAAAAAAAAAAAAAAAAAAAAAAAAAAAAAAAAAAAAAAAAAAAAAAAAAAAAAAAAAAAAAAAAAAAAAAAAAAAAAAAAAAAAAAAAAAAAAAAAAAAAAAAAAAAAAAAAAAAAAAAAAAAAAAAAAAAAAAAAAAA
      AAAAAAAAAAAAAAAAAAAAAAAAAAAAAAAAAAAAAAAAAAAAAAAAAAAAAAAAAAAAAAAAAAAAAAAAAAAAAAAAAAAAAAAAAAAAAAAAAAAAAAAAAAAAAAAAAAAAAAAAAAAAAAAAAAAAAAAAZAAAAAEAAAAAAAAAAAAAAAAAAAAAAAAAAAAAAAAAAAAAAAAAAAAAAAAAAAAAAAAAAAAAAAAAAAAAAAAAAAAAAAAAAAAAAAAAAAAAAAAAAAAAAAAAAAAAAAAAAAAAAAAAAAAAAAAAAAAAAAAA
      AAAAAAAAAAAAAAAAAAAAAAAAAAAAAAAAAAAAAAAAAAAAAAAAAAAAAAAAAAAAAAAAAAAAAAAAAAAAAAAAAAAAAAAAAAAAAAAAAAAAAAAAAAAAAAAAAAAAAAAAAAAAAAAAAAAAAAAAAAAAAAAAAAAAAAAAAAAAAAAAAAAAAAAAAAAAAAAAAAAAAAAAAAAAAAAAAAAAAAAAAAAAAAAAAAAAAAAAAAAAAAAAAAAAAAAAAAAAAAAAAAAAAAAAAAAAAAAAAAAAAAAAAAAAAAAAAAAAAAAA
      AAAAAAAAAAAAAAAAAAAAAAAAAAAAAAAAAAAAAAAAAAAAAAAAAAAAAAAAAAAAAAAAAAAAAAAAAAAAAAAAAAAAAAAAAAAAAAAAAAAAAAAAAAAAAAAAAAAAAAAAAAAAAAAAAAAAAAAAAAAAAAAAAAAAAAAAAAAAAAAAAAAAAAAAAAAAAAAAAAAAAAAAAAAAAAAAAAAAAAAAAAAAAAAAAAAAAAAAAAAAAAAAAAAAAAAAAAAAAAAAAAAAAAAAAAAAAAAAAAAAAAAAAAAAAAAAAAAAAABk
      AAEAAAAAAAAAAAAAAAAAAAAAAAAAAAAAAAAAAAAAAAAAAAAAAAAAAAAAAAAAAAAAAAAAAAAAAAAAAAAAAAAAAAAAAAAAAAAAAAAAAAAAAAAAAAAAAAAAAAAAAAAAAAAAAAAAAAAAAAAAAAAAAAAAAAAAAAAAAAAAAAAAAAAAAAAAAAAAAAAAAAAAAAAAAAAAAAAAAAAAAAAAAAAAAAAAAAAAAAAAAAAAAAAAAAAAAAAAAAAAAAAAAAAAAAAAAAAAAAAAAAAAAAAAAAAAAAAAAAAA
      AAAAAAAAAAAAAAAAAAAAAAAAAAAAAAAAAAAAAAAAAAAAAAAAAAAAAAAAAAAAAAAAAAAAAAAAAAAAAAAAAAAAAAAAAAAAAAAAAAAAAAAAAAAAAAAAAAAAAAAAAAAAAAAAAAAAAAAAAAAAAAAAAAAAAAAAAAAAAAAAAAAAAAAAAAAAAAAAAAAAAAAAAAAAAAAAAAAAAAAAAAAAAAAAAAAAAAAAAAAAAAAAAAAAAAAAAAAAAAAAAAAAAAAAAAAAAAAAAAAAAAAAAAAAAAAAAAAAAAAA
      AAAAAAAAAAAAAAAAAAAAAAAAAAAAAAAAAAAAAAAAAAAAAAAAAAAAAAAAAAAAAAAAAAAAAAAAAAAAAAAAAAAAAAAAAAAAAAAAAAAAAAAAAAAAAAAAAAAAAAAAAAAAAAAAAAAAAAAAAAAAAGQAAgAAAAAAAAAAAAAAAAAAAAAAAAAAAAAAAAAAAAAAAAAAAAAAAAAAAAAAAAAAAAAAAAAAAAAAAAAAAAAAAAAAAAAAAAAAAAAAAAAAAAAAAAAAAAAAAAAAAAAAAAAAAAAAAAAAAAAA
      AAAAAAAAAAAAAAAAAAAAAAAAAAAAAAAAAAAAAAAAAAAAAAAAAAAAAAAAAAAAAAAAAAAAAAAAAAAAAAAAAAAAAAAAAAAAAAAAAAAAAAAAAAAAAAAAAAAAAAAAAAAAAAAAAAAAAAAAAAAAAAAAAAAAAAAAAAAAAAAAAAAAAAAAAAAAAAAAAAAAAAAAAAAAAAAAAAAAAAAAAAAAAAAAAAAAAAAAAAAAAAAAAAAAAAAAAAAAAAAAAAAAAAAAAAAAAAAAAAAAAAAAAAAAAAAAAAAAAAAA
      AAAAAAAAAAAAAAAAAAAAAAAAAAAAAAAAAAAAAAAAAAAAAAAAAAAAAAAAAAAAAAAAAAAAAAAAAAAAAAAAAAAAAAAAAAAAAAAAAAAAAAAAAAAAAAAAAAAAAAAAAAAAAAAAAAAAAAAAAAAAAAAAAAAAAAAAAAAAAAAAAAAAAAAAAAAAAAAAAAAAAAAAAAAAAAAAAAAAAAAAAAAAAAAAAAAAAAAAAAAAAAAAAAAAAAAAAAAAAAAAAAAAAAAAAAAAAAAAAAAAAAAAAAAAAAAAAAAAAAAA
      AAAAZAADAAAAAAAAAAAAAAAAAAAAAAAAAAAAAAAAAAAAAAAAAAAAAAAAAAAAAAAAAAAAAAAAAAAAAAAAAAAAAAAAAAAAAAAAAAAAAAAAAAAAAAAAAAAAAAAAAAAAAAAAAAAAAAAAAAAAAAAAAAAAAAAAAAAAAAAAAAAAAAAAAAAAAAAAAAAAAAAAAAAAAAAAAAAAAAAAAAAAAAAAAAAAAAAAAAAAAAAAAAAAAAAAAAAAAAAAAAAAAAAAAAAAAAAAAAAAAAAAAAAAAAAAAAAAAAAA
      AAAAAAAAAAAAAAAAAAAAAAAAAAAAAAAAAAAAAAAAAAAAAAAAAAAAAAAAAAAAAAAAAAAAAAAAAAAAAAAAAAAAAAAAAAAAAAAAAAAAAAAAAAAAAAAAAAAAAAAAAAAAAAAAAAAAAAAAAAAAAAAAAAAAAAAAAAAAAAAAAAAAAAAAAAAAAAAAAAAAAAAAAAAAAAAAAAAAAAAAAAAAAAAAAAAAAAAAAAAAAAAAAAAAAAAAAAAAAAAAAAAAAAAAAAAAAAAAAAAAAAAAAAAAAAAAAAAAAAAA
      AAAAAAAAAAAAAAAAAAAAAAAAAAAAAAAAAAAAAAAAAAAAAAAAAAAAAAAAAAAAAAAAAAAAAAAAAAAAAAAAAAAAAAAAAAAAAAAAAAAAAAAAAAAAAAAAAAAAAAAAAAAAAAAAAAAAAAAAAAAAAAAAAABkAAQAAAAAAAAAAAAAAACAPwAAgD8AAAAAAACAQgAAAAAAAIBCAACAQwAAAAAAAAAAABAAAAAAAAAAAAAAZAAAAEAAAAAoAAAAAAAAAEAAAAAAAAAAAAAAAAAgAAAAAAAAAAAA
      AGQAAABAAAAAKAAAAAAAAABAAAAAAAAAAAAAAAAAIAAAAAAAAAAAAABkAAAAQAAAACgAAAAAAAAAQAAAAAAAAAAAAAAAACAAAAAAAAAAAAAAZAAAAEAAAAAoAAAAAAAAAEAAAAAAAAAAAAAAAAAgAAAAAAAAAAAAAGQAAABAAAAAKAAAAAAAAABAAAAAAAAAAAAAAAAAIAAAAAAAAAAAAABkAAAAQAAAACgAAAAAAAAAQAAAAAAAAAAAAAAAACAAAAAAAAAAAAAAZAAAAEAAAAAo
      AAAAAAAAAEAAAAAAAAAAAAAAAAAgAAAAAAAAAAAAAGQAAABAAAAAKAAAAAAAAABAAAAAAAAAAAAAAAAAIAAAAAAAAAAAAABkAAAAQAAAACgAAAAAAAAAQAAAAAAAAAAAAAAAACAAAAAAAAAAAAAAZAAAAEAAAAAoAAAAAAAAAEAAAAAAAAAAAAAAAAAgAAAAAAAAAAAAAGQAAABAAAAAKAAAAAAAAABAAAAAAAAAAAAAAAAAIAAAAAAAAAAAAABkAAAAQAAAACgAAAAAAAAAQAAA
      AAAAAAAAAAAAACAAAAAAAAAAAAAAZAAAAEAAAAAoAAAAAAAAAEAAAAAAAAAAAAAAAAAgAAAAAAAAAAAAAGQAAABAAAAAKAAAAAAAAABAAAAAAAAAAAAAAAAAIAAAAAAAAAAAAABkAAAAQAAAACgAAAAAAAAAQAAAAAAAAAAAAAAAACAAAAAAAAAAAAAAZAAAAEAAAAAoAAAAAAAAAEAAAAAAAAAAAAA=
      AEJhc3NNaWRpABAAAAA=
    >
    PRESETNAME BassMidi
    FLOATPOS 0 0 0 0
    WAK 0 0
  >
  <UINF 130
    <TRACK {07837CA4-3164-4E81-BBF1-E93DB5B57D54}
      NAME "Spotify MIDI Transcription"
      PEAKCOL 16842496
      BEAT -1
      AUTOMODE 0
      VOLPAN 1 0 -1 -1 1
      MUTESOLO 0 2 0
      IPHASE 0
      PLAYOFFS 0 1
      ISBUS 0 0
      BUSCOMP 0 0 0 0 0
      SHOWINMIX 1 0.6667 0.5 1 0.5 -1 -1 -1
      REC 0 0 1 0 0 0 0 0
      VU 2
      TRACKHEIGHT 0 0 0 0 0 0
      INQ 0 0 0 0.5 100 0 0 100
      NCHAN 2
      FX 1
      TRACKID {07837CA4-3164-4E81-BBF1-E93DB5B57D54}
      PERF 0
      UNDO_HAS_TRACKENV
      MIDIOUT -1
      MAINSEND 1 0
    >
  >
  <UINF 131
    <TRACK {F609B9AB-AE56-48E0-A89C-0CFCCA4D7894}
      NAME MIDI
      PEAKCOL 16777216
      BEAT -1
      AUTOMODE 0
      VOLPAN 1 0 -1 -1 1
      MUTESOLO 0 2 0
      IPHASE 0
      PLAYOFFS 0 1
      ISBUS 1 1
      BUSCOMP 0 0 0 0 0
      SHOWINMIX 1 0.6667 0.5 1 0.5 -1 -1 -1
      REC 0 0 1 0 0 0 0 0
      VU 2
      TRACKHEIGHT 0 0 0 0 0 0
      INQ 0 0 0 0.5 100 0 0 100
      NCHAN 2
      FX 1
      TRACKID {F609B9AB-AE56-48E0-A89C-0CFCCA4D7894}
      PERF 0
      UNDO_HAS_TRACKENV
      MIDIOUT -1
      MAINSEND 1 0
    >
  >
  <UINF 132
    <ITEM {04CB7BBB-3936-49BF-A0E1-3E1D3413B193}
      POSITION 0
      SNAPOFFS 0
      LENGTH 213
      LOOP 1
      ALLTAKES 0
      FADEIN 1 0 0 1 0 0 0
      FADEOUT 1 0 0 1 0 0 0
      MUTE 0 0
      SEL 0
      IGUID {04CB7BBB-3936-49BF-A0E1-3E1D3413B193}
      IID 137
      NAME "Gwyn, Lord of Cinder_basic_pitch.mid"
      VOLPAN 1 0 1 -1
      SOFFS 0 0
      PLAYRATE 1 1 0 -1 0 0.0025
      CHANMODE 0
      GUID {7D14F8B2-6FA7-4882-B0DE-4DF717DB1C50}
      <SOURCE MIDI
        HASDATA 1 220 QN
        CCINTERP 32
        POOLEDEVTS {F5A31A2E-CFEA-474C-99E5-A38F96A19B5F}
        E 0 c0 04 00
        E 117 e0 55 6a
        E 0 90 2d 47
        E 6 e0 00 00
        E 6 e0 00 00
        E 5 e0 00 00
        E 6 e0 00 00
        E 5 e0 00 00
        E 6 e0 00 00
        E 5 e0 2b 75
        E 6 e0 2b 75
        E 5 e0 2b 75
        E 6 e0 2b 75
        E 5 e0 2b 75
        E 6 e0 2b 75
        E 0 90 2d 00
        E 168 90 41 21
        E 21 90 3c 28
        E 5 90 45 26
        E 118 90 3c 00
        E 0 90 45 00
        E 97 90 45 22
        E 5 90 3c 1e
        E 0 90 41 00
        E 5 90 41 1f
        E 112 90 3c 00
        E 5 90 45 00
        E 102 90 45 28
        E 6 90 2d 2c
        E 0 90 3c 2f
        E 10 90 41 00
        E 0 90 41 22
        E 46 90 3c 00
        E 26 90 41 00
        E 51 90 45 00
        E 5 90 2d 00
        E 77 90 41 28
        E 5 90 2d 25
        E 10 90 45 20
        E 123 90 45 00
        E 15 90 2d 00
        E 15 90 41 00
        E 297 90 41 36
        E 5 90 39 22
        E 5 90 2d 29
        E 46 90 45 16
        E 5 90 41 00
        E 5 90 39 00
        E 66 90 45 00
        E 21 90 2d 00
        E 97 90 45 24
        E 82 90 28 25
        E 26 90 45 00
        E 35 90 28 00
        E 179 e0 00 20
        E 0 90 2d 1b
        E 6 e0 00 20
        E 5 e0 00 20
        E 5 e0 00 20
        E 6 e0 00 20
        E 5 e0 00 20
        E 5 e0 00 20
        E 6 e0 2b 15
        E 5 e0 2b 15
        E 5 e0 2b 15
        E 6 e0 2b 15
        E 5 e0 2b 15
        E 5 e0 2b 15
        E 6 e0 2b 15
        E 5 e0 00 20
        E 6 e0 00 20
        E 5 e0 00 20
        E 5 e0 00 20
        E 6 e0 2b 15
        E 5 e0 2b 15
        E 5 e0 2b 15
        E 6 e0 2b 15
        E 0 90 2d 00
        E 5 e0 2b 15
        E 0 90 2d 2b
        E 5 e0 2b 15
        E 5 e0 2b 15
        E 6 e0 2b 15
        E 5 e0 2b 15
        E 5 e0 00 20
        E 6 e0 00 20
        E 5 e0 00 20
        E 5 e0 00 20
        E 5 e0 00 20
        E 6 e0 00 20
        E 5 e0 00 20
        E 5 e0 00 20
        E 6 e0 00 20
        E 5 e0 00 20
        E 5 e0 00 20
        E 5 e0 00 20
        E 6 e0 00 20
        E 5 e0 00 20
        E 5 e0 00 20
        E 6 e0 00 20
        E 5 e0 00 20
        E 5 e0 2b 15
        E 6 e0 2b 15
        E 5 e0 2b 15
        E 5 e0 2b 15
        E 5 e0 2b 15
        E 6 e0 2b 15
        E 0 90 2d 00
        E 189 90 2d 20
        E 51 90 41 18
        E 10 90 39 1c
        E 36 90 35 2a
        E 11 90 41 00
        E 5 90 3c 2c
        E 0 90 41 26
        E 10 90 2d 00
        E 5 90 39 00
        E 56 90 3c 00
        E 67 90 35 00
        E 41 90 41 00
        E 40 90 39 33
        E 6 90 3c 23
        E 5 90 2d 28
        E 0 90 45 1a
        E 51 90 39 00
        E 10 90 45 00
        E 66 90 3c 00
        E 36 90 2d 00
        E 291 e0 55 6a
        E 0 90 2d 29
        E 6 e0 55 6a
        E 5 e0 2b 75
        E 5 e0 2b 75
        E 6 e0 2b 75
        E 5 e0 2b 75
        E 5 e0 2b 75
        E 6 e0 2b 75
        E 5 e0 2b 75
        E 5 e0 2b 75
        E 6 e0 2b 75
        E 5 e0 2b 75
        E 5 e0 2b 75
        E 6 e0 2b 75
        E 5 e0 2b 75
        E 6 e0 2b 75
        E 5 e0 2b 75
        E 5 e0 2b 75
        E 6 e0 2b 75
        E 5 e0 00 20
        E 5 e0 00 20
        E 6 e0 00 20
        E 0 90 2d 00
        E 51 90 21 24
        E 56 90 2d 29
        E 21 90 21 00
        E 220 90 39 26
        E 15 90 2d 00
        E 107 90 39 00
        E 312 90 28 20
        E 15 90 2d 2b
        E 0 90 3e 1c
        E 112 90 28 00
        E 16 90 3e 00
        E 5 90 2d 00
        E 297 90 21 29
        E 5 90 2d 26
        E 0 90 30 21
        E 0 90 3e 25
        E 5 90 39 24
        E 51 90 21 00
        E 61 90 48 23
        E 21 90 2d 00
        E 0 90 30 00
        E 0 90 39 00
        E 0 90 3e 00
        E 87 90 21 2a
        E 0 90 2d 3d
        E 25 90 48 00
        E 41 90 2d 00
        E 46 90 21 00
        E 72 90 21 25
        E 5 90 2d 2d
        E 102 90 2d 00
        E 57 90 2d 27
        E 0 90 39 29
        E 25 90 21 00
        E 72 90 21 32
        E 41 90 2d 00
        E 0 90 39 00
        E 20 90 21 00
        E 184 e0 7f 7f
        E 0 90 2d 34
        E 5 e0 7f 7f
        E 6 e0 2b 75
        E 6 e0 2b 75
        E 5 e0 2b 75
        E 6 e0 2b 75
        E 5 e0 7f 7f
        E 6 e0 2b 75
        E 5 e0 2b 75
        E 6 e0 2b 75
        E 6 e0 2b 75
        E 5 e0 2b 75
        E 0 90 2d 00
        E 56 90 34 21
        E 77 90 4c 46
        E 56 90 34 00
        E 5 90 4c 00
        E 415 90 39 31
        E 10 90 2d 34
        E 0 90 48 20
        E 5 90 41 21
        E 0 90 45 26
        E 51 90 39 00
        E 10 90 2d 00
        E 0 90 48 00
        E 62 90 41 00
        E 5 90 45 00
        E 245 e0 2b 15
        E 0 90 2d 26
        E 5 e0 2b 15
        E 6 e0 2b 15
        E 5 e0 00 20
        E 5 e0 00 20
        E 6 e0 2b 15
        E 5 e0 2b 15
        E 6 e0 2b 15
        E 5 e0 2b 15
        E 6 e0 2b 15
        E 5 e0 2b 15
        E 5 e0 2b 15
        E 6 e0 2b 15
        E 5 e0 2b 15
        E 6 e0 2b 15
        E 5 e0 2b 15
        E 5 e0 00 20
        E 6 e0 00 20
        E 0 90 2d 00
        E 138 e0 2b 15
        E 0 90 41 29
        E 5 e0 2b 15
        E 6 e0 2b 15
        E 5 e0 2b 15
        E 5 e0 2b 15
        E 6 e0 2b 15
        E 5 e0 2b 15
        E 6 e0 55 6a
        E 5 e0 00 60
        E 5 e0 00 60
        E 6 e0 00 60
        E 5 e0 55 6a
        E 6 e0 55 6a
        E 5 e0 55 6a
        E 5 e0 55 6a
        E 6 e0 55 6a
        E 5 e0 55 6a
        E 6 e0 55 6a
        E 0 90 41 00
        E 189 90 30 1e
        E 26 90 45 25
        E 97 90 30 00
        E 15 90 45 00
        E 194 e0 00 60
        E 0 90 41 21
        E 6 e0 00 60
        E 5 e0 00 60
        E 6 e0 00 60
        E 6 e0 00 60
        E 5 e0 00 60
        E 6 e0 00 60
        E 5 e0 00 60
        E 6 e0 00 60
        E 5 e0 00 60
        E 6 e0 00 60
        E 6 e0 00 60
        E 0 90 41 00
        E 71 e0 00 00
        E 0 90 2d 29
        E 5 e0 00 00
        E 6 e0 55 0a
        E 5 e0 2b 15
        E 5 e0 2b 15
        E 6 e0 00 20
        E 5 e0 00 20
        E 5 e0 00 20
        E 6 e0 00 20
        E 5 e0 00 20
        E 5 e0 00 20
        E 6 e0 00 20
        E 5 e0 00 20
        E 5 e0 00 20
        E 6 e0 00 20
        E 5 e0 00 20
        E 5 e0 00 20
        E 5 e0 00 20
        E 6 e0 00 20
        E 5 e0 00 20
        E 5 e0 00 20
        E 6 e0 00 20
        E 5 e0 2b 15
        E 5 e0 2b 15
        E 6 e0 2b 15
        E 5 e0 2b 15
        E 0 90 2d 00
        E 317 e0 55 6a
        E 0 90 3c 2d
        E 6 e0 55 6a
        E 5 e0 55 6a
        E 6 e0 55 6a
        E 6 e0 00 60
        E 5 e0 00 60
        E 6 e0 00 60
        E 5 e0 55 6a
        E 6 e0 2b 15
        E 5 e0 2b 15
        E 6 e0 55 0a
        E 6 e0 55 0a
        E 0 90 3c 00
        E 40 90 28 21
        E 118 90 30 20
        E 5 90 3c 27
        E 10 90 28 00
        E 0 90 4c 1e
        E 128 90 30 00
        E 5 90 3c 00
        E 51 90 4c 00
        E 26 e0 2b 15
        E 0 90 21 33
        E 5 e0 2b 15
        E 6 e0 2b 15
        E 5 e0 2b 15
        E 6 e0 2b 15
        E 6 e0 2b 15
        E 5 e0 2b 15
        E 6 e0 2b 15
        E 5 e0 2b 15
        E 6 e0 2b 15
        E 5 e0 2b 15
        E 6 e0 2b 15
        E 0 90 21 00
        E 56 e0 00 20
        E 0 90 3c 33
        E 6 e0 00 20
        E 5 e0 00 20
        E 6 e0 2b 15
        E 5 e0 2b 15
        E 6 e0 2b 15
        E 5 e0 2b 15
        E 6 e0 2b 15
        E 5 e0 00 20
        E 6 e0 00 20
        E 5 e0 00 20
        E 6 e0 00 20
        E 5 e0 00 20
        E 6 e0 00 20
        E 0 90 3c 00
        E 225 90 43 29
        E 5 90 48 16
        E 36 90 21 27
        E 31 90 43 00
        E 0 90 48 00
        E 76 90 2d 2c
        E 56 90 21 00
        E 103 90 2d 00
        E 311 90 48 21
        E 108 90 2d 38
        E 0 90 39 2f
        E 15 90 48 00
        E 51 90 2d 00
        E 5 90 39 00
        E 46 e0 55 2a
        E 0 90 28 23
        E 6 e0 00 20
        E 5 e0 00 20
        E 5 e0 00 20
        E 6 e0 00 20
        E 5 e0 00 20
        E 5 e0 00 20
        E 6 e0 00 20
        E 5 e0 00 20
        E 5 e0 00 20
        E 6 e0 2b 75
        E 5 e0 2b 75
        E 5 e0 2b 75
        E 6 e0 2b 75
        E 5 e0 2b 75
        E 5 e0 2b 75
        E 6 e0 2b 75
        E 5 e0 2b 75
        E 5 e0 2b 75
        E 6 e0 2b 75
        E 5 e0 2b 75
        E 5 e0 00 20
        E 6 e0 00 20
        E 5 e0 00 20
        E 5 e0 00 20
        E 0 90 28 00
        E 199 90 28 1f
        E 0 90 34 1f
        E 128 90 34 00
        E 5 90 28 00
        E 184 90 21 23
        E 15 90 2d 2d
        E 16 90 34 23
        E 5 90 28 22
        E 113 90 21 00
        E 5 90 28 00
        E 15 90 2d 00
        E 72 90 2d 28
        E 20 90 34 00
        E 67 90 45 40
        E 61 90 2d 00
        E 0 90 45 00
        E 194 90 2d 2a
        E 26 90 41 2b
        E 35 90 2d 00
        E 16 90 21 26
        E 10 90 41 00
        E 31 90 2d 2a
        E 35 90 21 00
        E 92 90 45 1a
        E 10 90 2d 00
        E 103 90 45 00
        E 322 e0 2b 15
        E 0 90 2d 2a
        E 5 e0 2b 15
        E 6 e0 2b 15
        E 5 e0 2b 15
        E 5 e0 00 20
        E 5 e0 00 20
        E 6 e0 00 20
        E 5 e0 00 20
        E 5 e0 00 20
        E 5 e0 00 20
        E 6 e0 00 20
        E 5 e0 00 20
        E 5 e0 00 20
        E 6 e0 00 20
        E 5 e0 00 20
        E 5 e0 00 20
        E 5 e0 00 20
        E 6 e0 00 20
        E 5 e0 55 6a
        E 5 e0 00 20
        E 5 e0 2b 15
        E 6 e0 2b 15
        E 5 e0 2b 15
        E 5 e0 2b 15
        E 6 e0 2b 15
        E 5 e0 2b 15
        E 5 e0 2b 15
        E 5 e0 2b 15
        E 6 e0 00 20
        E 5 e0 00 20
        E 5 e0 00 20
        E 5 e0 00 20
        E 0 90 2d 00
        E 67 90 39 21
        E 220 90 48 2d
        E 20 90 39 00
        E 108 90 48 00
        E 92 90 2d 2a
        E 66 90 28 26
        E 61 90 28 00
        E 113 90 2d 00
        E 56 90 2d 25
        E 15 90 40 18
        E 108 90 28 24
        E 15 90 40 00
        E 107 90 28 00
        E 0 90 2d 00
        E 41 90 45 1c
        E 67 90 2d 31
        E 5 90 45 00
        E 133 90 2d 00
        E 66 e0 2b 15
        E 0 90 2d 2f
        E 6 e0 2b 15
        E 5 e0 55 0a
        E 5 e0 55 0a
        E 6 e0 55 0a
        E 5 e0 2b 15
        E 5 e0 2b 15
        E 5 e0 2b 15
        E 6 e0 2b 15
        E 5 e0 2b 15
        E 5 e0 2b 15
        E 5 e0 2b 15
        E 6 e0 2b 15
        E 5 e0 2b 15
        E 5 e0 2b 15
        E 6 e0 2b 15
        E 5 e0 2b 15
        E 5 e0 2b 15
        E 5 e0 2b 15
        E 6 e0 2b 15
        E 5 e0 2b 15
        E 5 e0 2b 15
        E 5 e0 2b 15
        E 6 e0 2b 15
        E 5 e0 2b 15
        E 5 e0 2b 15
        E 6 e0 2b 15
        E 5 e0 2b 15
        E 5 e0 2b 15
        E 5 e0 2b 15
        E 6 e0 2b 15
        E 5 e0 2b 15
        E 0 90 2d 00
        E 66 90 2d 2b
        E 5 90 41 2b
        E 72 90 41 00
        E 56 90 2d 00
        E 107 e0 7f 7f
        E 0 90 2d 2c
        E 6 e0 7f 7f
        E 5 e0 2b 15
        E 5 e0 00 20
        E 6 e0 55 6a
        E 5 e0 00 20
        E 5 e0 00 20
        E 5 e0 00 20
        E 6 e0 00 20
        E 5 e0 00 20
        E 5 e0 00 20
        E 5 e0 00 20
        E 6 e0 00 20
        E 5 e0 00 20
        E 5 e0 00 20
        E 6 e0 00 20
        E 5 e0 00 20
        E 5 e0 00 20
        E 5 e0 00 20
        E 6 e0 2b 15
        E 5 e0 2b 15
        E 5 e0 2b 15
        E 5 e0 2b 15
        E 6 e0 2b 15
        E 5 e0 2b 15
        E 5 e0 2b 15
        E 6 e0 2b 15
        E 5 e0 2b 15
        E 5 e0 00 20
        E 5 e0 00 20
        E 6 e0 00 20
        E 5 e0 00 20
        E 0 90 2d 00
        E 154 e0 2b 15
        E 0 90 28 1f
        E 5 e0 2b 15
        E 5 e0 2b 15
        E 6 e0 2b 15
        E 5 e0 2b 15
        E 5 e0 2b 15
        E 6 e0 2b 15
        E 5 e0 2b 15
        E 5 e0 2b 15
        E 6 e0 2b 15
        E 5 e0 00 20
        E 5 e0 00 20
        E 5 e0 00 20
        E 6 e0 00 20
        E 5 e0 00 20
        E 5 e0 00 20
        E 6 e0 00 20
        E 5 e0 00 20
        E 5 e0 00 20
        E 6 e0 00 20
        E 5 e0 00 20
        E 5 e0 00 20
        E 6 e0 00 20
        E 5 e0 00 20
        E 5 e0 00 20
        E 6 e0 00 20
        E 0 90 28 00
        E 199 90 2d 29
        E 209 90 28 2b
        E 5 90 41 2a
        E 16 90 39 20
        E 20 90 2d 00
        E 26 90 28 00
        E 30 90 41 00
        E 143 90 48 2b
        E 21 90 39 00
        E 92 90 48 00
        E 97 90 2d 2c
        E 5 90 41 23
        E 113 90 41 00
        E 30 90 2d 00
        E 169 90 2d 26
        E 128 90 45 17
        E 112 90 2d 00
        E 0 90 45 00
        E 97 90 21 26
        E 21 90 2d 28
        E 87 90 21 00
        E 97 90 41 26
        E 118 90 28 22
        E 5 90 39 27
        E 5 90 41 00
        E 5 90 40 1f
        E 66 90 28 00
        E 0 90 39 00
        E 5 90 39 26
        E 41 90 45 25
        E 10 90 40 00
        E 98 90 40 24
        E 10 90 2d 00
        E 5 90 39 00
        E 5 90 45 00
        E 51 90 4c 3f
        E 5 90 2d 35
        E 56 90 40 00
        E 5 90 4c 00
        E 6 90 2d 00
        E 276 90 28 22
        E 10 90 39 25
        E 107 90 2d 2d
        E 6 90 45 27
        E 10 90 28 00
        E 15 90 39 00
        E 36 90 45 00
        E 46 90 40 23
        E 10 90 2d 00
        E 61 90 2d 2f
        E 51 90 40 00
        E 26 90 2d 00
        E 169 90 2d 27
        E 0 90 41 25
        E 5 90 28 1c
        E 15 90 39 25
        E 92 90 34 26
        E 10 90 28 00
        E 16 90 39 00
        E 10 90 41 00
        E 25 90 34 00
        E 56 90 3c 1d
        E 36 90 2d 00
        E 41 90 3c 00
        E 149 e0 2b 15
        E 0 90 2d 28
        E 5 e0 2b 15
        E 5 e0 2b 15
        E 5 e0 2b 15
        E 6 e0 00 20
        E 5 e0 00 20
        E 5 e0 00 20
        E 5 e0 00 20
        E 6 e0 00 20
        E 5 e0 00 20
        E 5 e0 00 20
        E 5 e0 00 20
        E 5 e0 00 20
        E 6 e0 00 20
        E 5 e0 00 20
        E 5 e0 00 20
        E 5 e0 00 20
        E 6 e0 2b 15
        E 5 e0 2b 15
        E 5 e0 2b 15
        E 5 e0 2b 15
        E 5 e0 2b 15
        E 6 e0 2b 15
        E 5 e0 00 20
        E 5 e0 00 20
        E 5 e0 00 20
        E 6 e0 00 20
        E 5 e0 00 20
        E 5 e0 00 20
        E 5 e0 00 20
        E 5 e0 00 20
        E 6 e0 00 20
        E 5 e0 00 20
        E 5 e0 00 20
        E 5 e0 00 20
        E 5 e0 00 20
        E 6 e0 00 20
        E 5 e0 00 20
        E 5 e0 00 20
        E 5 e0 00 20
        E 6 e0 2b 15
        E 5 e0 2b 15
        E 5 e0 2b 15
        E 5 e0 2b 15
        E 5 e0 2b 15
        E 6 e0 2b 15
        E 5 e0 00 20
        E 0 90 2d 00
        E 77 e0 00 20
        E 0 90 40 26
        E 5 e0 00 20
        E 6 e0 00 20
        E 5 e0 00 20
        E 6 e0 00 20
        E 5 e0 00 20
        E 6 e0 00 20
        E 5 e0 00 20
        E 6 e0 00 20
        E 5 e0 00 20
        E 6 e0 00 20
        E 5 e0 00 20
        E 6 e0 00 20
        E 5 e0 00 20
        E 0 90 40 00
        E 148 90 40 20
        E 102 90 28 26
        E 11 90 47 20
        E 5 90 2d 2b
        E 10 90 40 00
        E 82 90 34 28
        E 10 90 28 00
        E 0 90 47 00
        E 31 90 2d 00
        E 41 90 41 27
        E 25 90 21 1f
        E 0 90 4d 2d
        E 26 90 34 00
        E 41 90 4d 00
        E 5 90 21 00
        E 92 90 47 26
        E 71 90 47 00
        E 6 90 41 00
        E 178 90 2d 3c
        E 62 90 34 26
        E 5 90 2d 00
        E 56 90 28 21
        E 31 90 34 00
        E 92 90 48 26
        E 5 90 28 00
        E 143 90 48 00
        E 82 e0 00 00
        E 0 90 41 24
        E 5 e0 00 00
        E 6 e0 00 00
        E 5 e0 55 6a
        E 5 e0 55 6a
        E 6 e0 55 6a
        E 5 e0 55 6a
        E 5 e0 55 6a
        E 6 e0 00 60
        E 5 e0 00 60
        E 5 e0 00 60
        E 6 e0 00 60
        E 5 e0 55 6a
        E 5 e0 55 6a
        E 6 e0 55 6a
        E 5 e0 55 6a
        E 5 e0 55 6a
        E 6 e0 55 6a
        E 5 e0 55 6a
        E 5 e0 55 6a
        E 6 e0 55 6a
        E 5 e0 55 6a
        E 6 e0 55 6a
        E 0 90 41 00
        E 97 e0 2b 15
        E 0 90 2d 30
        E 5 e0 2b 15
        E 5 e0 2b 15
        E 5 e0 2b 15
        E 6 e0 2b 15
        E 5 e0 2b 75
        E 5 e0 2b 75
        E 6 e0 2b 75
        E 5 e0 2b 75
        E 5 e0 2b 75
        E 6 e0 00 20
        E 5 e0 00 20
        E 5 e0 00 20
        E 5 e0 00 20
        E 6 e0 00 20
        E 5 e0 00 20
        E 5 e0 00 20
        E 6 e0 00 20
        E 5 e0 2b 15
        E 5 e0 2b 15
        E 6 e0 2b 75
        E 5 e0 2b 75
        E 5 e0 2b 75
        E 5 e0 2b 75
        E 6 e0 2b 15
        E 5 e0 2b 15
        E 5 e0 2b 15
        E 6 e0 2b 15
        E 0 90 2d 00
        E 286 90 2d 33
        E 35 90 48 23
        E 26 90 2d 00
        E 47 90 48 00
        E 240 90 2d 29
        E 10 90 34 24
        E 5 90 40 1e
        E 77 90 40 00
        E 30 90 41 2e
        E 21 90 34 00
        E 25 90 2d 00
        E 16 90 41 00
        E 51 90 2d 26
        E 107 90 34 24
        E 31 90 2d 00
        E 97 90 34 00
        E 107 90 2d 29
        E 0 90 41 25
        E 103 90 34 2a
        E 10 90 41 00
        E 30 90 2d 00
        E 21 90 21 28
        E 46 90 45 27
        E 20 90 21 00
        E 5 90 34 00
        E 36 90 45 00
        E 46 90 2d 2b
        E 10 90 40 1a
        E 118 90 40 00
        E 30 90 2d 00
        E 179 90 41 31
        E 5 90 2d 2d
        E 0 90 3c 37
        E 67 90 3c 00
        E 0 90 41 00
        E 82 90 2d 00
        E 240 90 2d 25
        E 56 90 41 29
        E 16 90 2d 00
        E 133 90 41 00
        E 66 90 2d 2a
        E 117 90 41 2c
        E 36 90 2d 00
        E 97 90 41 00
        E 199 90 41 2b
        E 11 90 3c 22
        E 113 90 3c 00
        E 10 90 41 00
        E 76 90 21 25
        E 21 90 2d 2f
        E 112 90 21 00
        E 26 90 2d 00
        E 194 90 3c 26
        E 36 90 21 21
        E 87 90 21 00
        E 10 90 3c 00
        E 76 90 3c 26
        E 129 90 2d 2d
        E 10 90 48 21
        E 5 90 3c 00
        E 87 90 3c 23
        E 36 90 48 00
        E 25 90 2d 00
        E 67 90 2d 2c
        E 0 90 48 20
        E 5 90 3c 00
        E 117 90 2d 00
        E 0 90 48 00
        E 307 90 2d 21
        E 97 90 28 2a
        E 15 90 2d 00
        E 77 90 28 00
        E 153 e0 2b 15
        E 0 90 28 1e
        E 6 e0 2b 15
        E 5 e0 2b 15
        E 6 e0 2b 15
        E 5 e0 2b 15
        E 5 e0 2b 15
        E 6 e0 00 20
        E 5 e0 00 20
        E 5 e0 00 20
        E 6 e0 00 20
        E 5 e0 00 20
        E 5 e0 00 20
        E 6 e0 2b 15
        E 5 e0 00 20
        E 5 e0 00 20
        E 6 e0 00 20
        E 5 e0 00 20
        E 5 e0 00 20
        E 6 e0 00 20
        E 5 e0 00 20
        E 6 e0 00 20
        E 5 e0 2b 15
        E 0 90 28 00
        E 0 90 3c 24
        E 0 90 41 25
        E 117 90 3c 00
        E 154 90 41 00
        E 56 e0 55 0a
        E 0 90 41 23
        E 5 e0 55 0a
        E 6 e0 55 0a
        E 5 e0 55 0a
        E 5 e0 55 0a
        E 6 e0 55 0a
        E 5 e0 55 0a
        E 5 e0 55 0a
        E 6 e0 2b 75
        E 5 e0 2b 75
        E 6 e0 2b 75
        E 5 e0 2b 15
        E 5 e0 2b 15
        E 6 e0 2b 15
        E 5 e0 2b 15
        E 5 e0 2b 15
        E 6 e0 2b 15
        E 5 e0 2b 15
        E 6 e0 2b 15
        E 5 e0 2b 75
        E 0 90 41 00
        E 5 90 41 26
        E 220 90 45 20
        E 31 90 41 00
        E 36 90 45 00
        E 153 90 2d 2d
        E 0 90 43 27
        E 72 90 43 00
        E 20 90 21 28
        E 31 90 3c 23
        E 25 90 2d 00
        E 77 90 2d 27
        E 20 90 21 00
        E 5 90 3c 00
        E 102 90 2d 00
        E 98 90 2d 24
        E 10 90 48 20
        E 117 90 48 00
        E 5 90 2d 00
        E 52 90 48 18
        E 36 90 21 27
        E 10 90 2d 30
        E 15 90 48 00
        E 138 90 2d 00
        E 205 90 21 00
        E 66 90 21 24
        E 15 90 2d 2a
        E 0 90 34 1d
        E 118 90 34 00
        E 46 90 2d 00
        E 5 90 21 00
        E 51 90 34 33
        E 15 90 47 24
        E 5 90 28 2d
        E 46 90 34 00
        E 62 90 34 25
        E 0 90 43 1b
        E 10 90 47 00
        E 108 90 34 00
        E 10 90 28 00
        E 61 90 28 2c
        E 5 90 34 25
        E 0 90 37 24
        E 0 90 48 21
        E 5 90 30 22
        E 16 90 43 00
        E 97 90 34 00
        E 0 90 37 00
        E 5 90 48 00
        E 20 90 30 00
        E 92 90 28 00
        E 72 e0 00 20
        E 0 90 28 38
        E 5 e0 00 20
        E 6 e0 00 20
        E 6 e0 00 20
        E 5 e0 00 20
        E 6 e0 00 20
        E 5 e0 00 20
        E 6 e0 2b 15
        E 5 e0 2b 15
        E 6 e0 2b 15
        E 6 e0 2b 15
        E 5 e0 00 20
        E 0 90 28 00
        E 67 90 34 25
        E 5 90 47 23
        E 117 90 47 00
        E 5 90 34 00
        E 185 90 28 2e
        E 0 90 40 1e
        E 5 90 43 25
        E 107 90 3c 2a
        E 15 90 40 00
        E 0 90 43 00
        E 6 90 28 00
        E 97 90 43 24
        E 46 90 3c 00
        E 81 90 43 00
        E 179 90 30 22
        E 5 90 48 26
        E 62 90 48 00
        E 66 90 30 00
        E 195 90 28 37
        E 0 90 3b 27
        E 61 90 28 00
        E 0 90 3b 00
        E 56 90 28 23
        E 5 90 34 1b
        E 5 90 37 22
        E 102 90 3b 27
        E 6 90 34 00
        E 117 90 28 00
        E 5 90 3b 00
        E 113 90 37 00
        E 178 90 26 29
        E 5 90 32 28
        E 16 90 41 25
        E 133 90 26 00
        E 10 90 32 00
        E 15 90 41 00
        E 52 90 35 1e
        E 5 90 32 25
        E 128 90 32 00
        E 0 90 35 00
        E 296 90 26 2a
        E 0 90 47 3d
        E 20 90 32 36
        E 41 90 47 00
        E 21 90 32 00
        E 76 90 26 00
        E 471 90 3e 36
        E 41 90 32 29
        E 5 90 26 28
        E 15 90 3e 00
        E 61 90 35 1f
        E 0 90 41 20
        E 57 90 26 00
        E 15 90 32 00
        E 5 90 41 00
        E 66 90 41 16
        E 103 90 41 00
        E 35 90 35 00
        E 67 e0 2b 15
        E 0 90 39 25
        E 5 e0 2b 15
        E 6 e0 2b 15
        E 5 e0 00 20
        E 6 e0 00 20
        E 5 e0 00 20
        E 6 e0 00 20
        E 5 e0 00 20
        E 6 e0 00 20
        E 5 e0 00 20
        E 6 e0 00 20
        E 5 e0 00 20
        E 6 e0 00 20
        E 5 e0 00 20
        E 0 90 39 00
        E 129 90 26 2c
        E 15 90 32 2e
        E 0 90 3e 22
        E 0 90 41 24
        E 0 90 45 1f
        E 0 90 4a 32
        E 61 90 4a 00
        E 36 90 29 23
        E 0 90 35 24
        E 20 90 26 00
        E 0 90 3e 00
        E 0 90 45 00
        E 6 90 32 00
        E 0 90 41 00
        E 91 90 29 00
        E 113 90 41 29
        E 20 90 35 00
        E 72 90 35 28
        E 61 90 35 00
        E 15 90 41 00
        E 57 90 3b 1c
        E 46 90 40 3a
        E 5 90 34 34
        E 15 90 47 27
        E 31 90 28 2c
        E 5 90 1c 24
        E 0 90 43 31
        E 15 90 40 00
        E 21 90 3b 00
        E 0 90 47 00
        E 15 90 34 00
        E 10 90 43 00
        E 26 90 40 20
        E 56 90 1c 00
        E 10 90 40 00
        E 62 90 34 25
        E 5 90 43 1a
        E 5 90 37 20
        E 0 90 40 1e
        E 5 90 3b 23
        E 113 90 40 00
        E 10 90 37 00
        E 0 90 3b 00
        E 5 90 34 00
        E 10 90 28 00
        E 61 90 28 2b
        E 16 90 43 00
        E 112 90 28 00
        E 72 90 28 2c
        E 133 90 34 25
        E 5 90 37 28
        E 117 90 34 00
        E 0 90 37 00
        E 5 90 28 00
        E 72 90 28 2a
        E 15 90 37 20
        E 123 90 37 00
        E 97 90 28 00
        E 77 90 54 30
        E 5 90 30 28
        E 0 90 40 25
        E 5 90 3c 25
        E 0 90 48 25
        E 51 90 21 1c
        E 5 90 30 00
        E 0 90 54 00
        E 41 90 28 2c
        E 16 90 21 00
        E 10 90 3c 00
        E 0 90 40 00
        E 107 90 48 00
        E 15 90 28 00
        E 67 90 48 26
        E 117 90 3b 25
        E 16 90 48 00
        E 97 90 37 2f
        E 15 90 3b 00
        E 0 90 3c 1e
        E 77 90 30 29
        E 10 90 28 27
        E 0 90 4f 25
        E 20 90 3c 00
        E 6 90 37 00
        E 25 90 30 00
        E 67 90 34 21
        E 5 90 4f 00
        E 97 90 28 00
        E 0 90 28 2e
        E 20 90 34 00
        E 77 90 48 27
        E 5 90 43 22
        E 5 90 3c 24
        E 46 90 28 00
        E 77 90 43 00
        E 10 90 48 00
        E 10 90 3c 00
        E 133 90 1f 25
        E 10 90 32 26
        E 21 90 41 2f
        E 5 90 47 30
        E 51 90 1f 00
        E 10 90 47 00
        E 16 90 41 00
        E 56 90 32 00
        E 491 90 26 31
        E 5 90 32 3b
        E 61 90 26 00
        E 10 90 32 00
        E 578 90 26 2d
        E 5 90 35 31
        E 5 90 32 39
        E 67 90 35 00
        E 5 90 32 00
        E 36 90 48 15
        E 5 90 26 00
        E 122 90 48 00
        E 92 e0 00 60
        E 0 90 41 1c
        E 6 e0 00 60
        E 5 e0 55 6a
        E 6 e0 00 20
        E 5 e0 00 20
        E 5 e0 00 20
        E 6 e0 00 20
        E 5 e0 00 20
        E 6 e0 2b 15
        E 5 e0 2b 15
        E 6 e0 2b 15
        E 5 e0 2b 15
        E 5 e0 2b 15
        E 6 e0 2b 15
        E 5 e0 2b 15
        E 6 e0 2b 15
        E 5 e0 2b 15
        E 0 90 41 00
        E 235 90 26 26
        E 5 90 32 2f
        E 0 90 41 2d
        E 98 90 26 00
        E 5 90 32 00
        E 10 90 41 00
        E 92 90 26 26
        E 15 90 41 29
        E 0 90 45 2d
        E 0 90 4c 24
        E 62 90 45 00
        E 0 90 4c 00
        E 56 90 41 00
        E 5 90 26 00
        E 189 90 41 22
        E 0 90 4d 27
        E 66 90 2d 21
        E 6 90 4d 00
        E 76 90 41 00
        E 87 90 2d 00
        E 746 90 34 31
        E 11 90 45 2a
        E 51 90 34 00
        E 10 90 45 00
        E 368 e0 2b 15
        E 0 90 28 25
        E 6 e0 2b 15
        E 5 e0 2b 15
        E 6 e0 2b 15
        E 5 e0 2b 15
        E 6 e0 2b 15
        E 5 e0 2b 15
        E 6 e0 2b 15
        E 5 e0 00 20
        E 6 e0 00 20
        E 5 e0 00 20
        E 6 e0 00 20
        E 5 e0 00 20
        E 5 e0 00 20
        E 6 e0 00 20
        E 0 90 28 00
        E 281 90 3b 28
        E 61 90 2f 2a
        E 5 90 28 30
        E 26 90 3b 00
        E 36 90 28 00
        E 0 90 2f 00
        E 138 e0 2b 15
        E 0 90 28 2b
        E 5 e0 2b 15
        E 6 e0 2b 15
        E 5 e0 2b 15
        E 6 e0 2b 15
        E 5 e0 2b 15
        E 6 e0 2b 15
        E 5 e0 2b 15
        E 6 e0 2b 15
        E 5 e0 2b 15
        E 6 e0 2b 15
        E 5 e0 2b 15
        E 6 e0 2b 15
        E 0 90 28 00
        E 593 e0 2b 15
        E 0 90 28 1f
        E 6 e0 55 0a
        E 5 e0 55 0a
        E 6 e0 55 0a
        E 5 e0 2b 15
        E 5 e0 2b 15
        E 6 e0 2b 15
        E 5 e0 00 20
        E 6 e0 00 20
        E 5 e0 55 2a
        E 6 e0 7f 7f
        E 5 e0 7f 7f
        E 6 e0 00 20
        E 5 e0 00 20
        E 6 e0 00 20
        E 0 90 28 00
        E 133 e0 00 20
        E 0 90 32 1f
        E 5 e0 2b 15
        E 5 e0 2b 55
        E 6 e0 00 60
        E 5 e0 00 60
        E 6 e0 00 60
        E 5 e0 00 60
        E 6 e0 00 60
        E 5 e0 00 20
        E 6 e0 00 20
        E 5 e0 55 6a
        E 6 e0 55 6a
        E 5 e0 00 60
        E 6 e0 00 60
        E 5 e0 00 60
        E 0 90 32 00
        E 363 e0 00 00
        E 0 90 3c 24
        E 6 e0 00 00
        E 5 e0 00 00
        E 5 e0 00 00
        E 6 e0 00 00
        E 5 e0 55 6a
        E 5 e0 55 6a
        E 6 e0 55 6a
        E 5 e0 55 6a
        E 5 e0 55 6a
        E 6 e0 55 0a
        E 5 e0 55 0a
        E 5 e0 55 0a
        E 6 e0 55 0a
        E 5 e0 55 0a
        E 5 e0 55 6a
        E 6 e0 55 6a
        E 5 e0 55 6a
        E 5 e0 55 6a
        E 6 e0 55 6a
        E 5 e0 55 6a
        E 5 e0 55 0a
        E 6 e0 55 6a
        E 5 e0 55 6a
        E 0 90 3c 00
        E 225 e0 00 20
        E 0 90 45 22
        E 5 e0 00 20
        E 6 e0 00 20
        E 5 e0 00 20
        E 6 e0 00 20
        E 5 e0 00 20
        E 6 e0 00 20
        E 5 e0 2b 15
        E 6 e0 2b 15
        E 5 e0 2b 15
        E 6 e0 2b 15
        E 5 e0 2b 15
        E 5 e0 2b 15
        E 6 e0 00 20
        E 5 e0 00 60
        E 0 90 45 00
        E 185 90 29 2c
        E 5 90 32 1e
        E 66 90 29 00
        E 0 90 32 00
        E 348 90 29 23
        E 5 90 32 22
        E 15 90 3c 28
        E 51 90 32 00
        E 62 90 29 00
        E 10 90 3c 00
        E 92 e0 00 00
        E 0 90 3c 27
        E 5 e0 00 00
        E 6 e0 00 00
        E 5 e0 00 00
        E 6 e0 00 60
        E 5 e0 00 60
        E 6 e0 00 60
        E 5 e0 00 60
        E 6 e0 00 00
        E 6 e0 00 00
        E 5 e0 00 00
        E 6 e0 00 00
        E 5 e0 00 00
        E 0 90 3c 00
        E 123 e0 00 00
        E 0 90 29 28
        E 6 e0 00 00
        E 5 e0 00 00
        E 6 e0 55 6a
        E 5 e0 55 6a
        E 6 e0 55 6a
        E 6 e0 55 6a
        E 5 e0 55 6a
        E 6 e0 00 60
        E 5 e0 00 60
        E 6 e0 00 60
        E 5 e0 00 60
        E 6 e0 00 60
        E 0 90 29 00
        E 66 90 32 19
        E 56 90 29 22
        E 5 90 45 38
        E 41 90 51 33
        E 11 90 32 00
        E 0 90 3c 23
        E 5 90 29 00
        E 10 90 45 00
        E 36 90 51 00
        E 66 90 3c 00
        E 501 e0 2b 15
        E 0 90 2d 2b
        E 6 e0 2b 15
        E 5 e0 2b 15
        E 6 e0 2b 15
        E 5 e0 2b 15
        E 5 e0 2b 15
        E 6 e0 2b 15
        E 5 e0 2b 15
        E 6 e0 2b 15
        E 5 e0 2b 15
        E 6 e0 2b 15
        E 5 e0 2b 15
        E 6 e0 2b 15
        E 5 e0 2b 15
        E 5 e0 2b 15
        E 6 e0 2b 15
        E 0 90 2d 00
        E 138 90 2d 29
        E 10 90 47 21
        E 56 90 2d 00
        E 10 90 47 00
        E 77 90 2d 18
        E 51 90 4d 32
        E 51 90 2d 00
        E 16 90 4d 00
        E 291 90 40 28
        E 0 90 43 1f
        E 66 90 2d 29
        E 10 90 43 00
        E 6 90 40 00
        E 82 90 3e 1a
        E 25 90 2d 00
        E 41 90 3e 00
        E 46 90 34 22
        E 0 90 40 1e
        E 92 90 28 39
        E 26 90 40 00
        E 5 90 34 00
        E 30 90 28 00
        E 62 90 2d 2a
        E 10 90 3c 26
        E 51 90 2d 00
        E 77 90 3c 00
        E 66 e0 2b 15
        E 0 90 2d 21
        E 6 e0 00 20
        E 5 e0 00 20
        E 6 e0 00 20
        E 5 e0 00 20
        E 5 e0 00 60
        E 6 e0 00 60
        E 5 e0 00 60
        E 6 e0 00 60
        E 5 e0 00 60
        E 6 e0 00 60
        E 5 e0 00 60
        E 6 e0 00 60
        E 5 e0 00 60
        E 6 e0 00 60
        E 0 90 2d 00
        E 348 e0 55 6a
        E 0 90 48 31
        E 5 e0 55 6a
        E 6 e0 2b 15
        E 5 e0 2b 15
        E 6 e0 00 20
        E 5 e0 00 20
        E 6 e0 00 20
        E 5 e0 00 20
        E 6 e0 00 20
        E 5 e0 00 20
        E 6 e0 00 20
        E 6 e0 00 20
        E 5 e0 00 20
        E 0 90 48 00
        E 148 90 2d 29
        E 0 90 4a 23
        E 62 90 4a 00
        E 132 90 39 2a
        E 51 90 2d 00
        E 82 90 39 00
        E 312 e0 00 20
        E 0 90 28 2e
        E 6 e0 00 20
        E 5 e0 00 20
        E 6 e0 00 20
        E 5 e0 00 20
        E 6 e0 00 20
        E 5 e0 00 20
        E 6 e0 00 20
        E 5 e0 00 20
        E 6 e0 00 20
        E 5 e0 00 20
        E 6 e0 00 20
        E 5 e0 00 20
        E 5 e0 00 20
        E 6 e0 00 20
        E 0 90 28 00
        E 541 90 21 29
        E 6 90 4a 21
        E 5 90 2d 2a
        E 92 90 47 17
        E 5 90 4a 00
        E 26 90 21 00
        E 76 90 47 00
        E 16 90 2d 00
        E 76 90 2d 22
        E 6 90 34 1f
        E 148 90 34 00
        E 20 90 2d 00
        E 123 e0 55 2a
        E 0 90 3b 22
        E 5 e0 00 20
        E 6 e0 00 20
        E 5 e0 00 20
        E 5 e0 00 20
        E 6 e0 00 20
        E 5 e0 00 20
        E 6 e0 00 20
        E 5 e0 00 20
        E 5 e0 00 20
        E 6 e0 00 20
        E 5 e0 00 20
        E 6 e0 00 20
        E 5 e0 00 20
        E 5 e0 00 20
        E 6 e0 00 20
        E 5 e0 00 20
        E 6 e0 00 20
        E 0 90 3b 00
        E 117 e0 7f 7f
        E 0 90 34 35
        E 6 e0 7f 7f
        E 5 e0 7f 7f
        E 6 e0 7f 7f
        E 5 e0 00 20
        E 6 e0 00 20
        E 6 e0 00 20
        E 5 e0 00 20
        E 6 e0 00 20
        E 5 e0 00 20
        E 6 e0 00 20
        E 5 e0 00 20
        E 0 90 34 00
        E 144 90 2d 30
        E 5 90 45 2d
        E 72 90 2d 00
        E 35 90 45 00
        E 108 e0 2b 15
        E 0 90 2b 29
        E 5 e0 2b 15
        E 5 e0 2b 15
        E 6 e0 2b 15
        E 5 e0 2b 15
        E 5 e0 2b 15
        E 6 e0 2b 15
        E 5 e0 2b 15
        E 5 e0 2b 15
        E 5 e0 2b 15
        E 6 e0 2b 15
        E 5 e0 2b 15
        E 5 e0 2b 15
        E 6 e0 2b 15
        E 5 e0 2b 15
        E 5 e0 2b 15
        E 6 e0 2b 15
        E 5 e0 2b 15
        E 5 e0 2b 15
        E 5 e0 2b 15
        E 6 e0 2b 15
        E 5 e0 2b 15
        E 5 e0 2b 15
        E 6 e0 2b 15
        E 5 e0 2b 15
        E 5 e0 2b 15
        E 6 e0 2b 15
        E 0 90 2b 00
        E 194 90 32 27
        E 97 90 28 2c
        E 30 90 32 00
        E 31 90 28 00
        E 159 90 1f 1e
        E 5 90 40 28
        E 56 90 1f 00
        E 72 90 40 00
        E 82 e0 2b 75
        E 0 90 4d 2b
        E 5 e0 2b 75
        E 6 e0 2b 75
        E 5 e0 2b 75
        E 6 e0 2b 75
        E 5 e0 2b 75
        E 6 e0 55 6a
        E 5 e0 55 6a
        E 6 e0 55 6a
        E 5 e0 55 6a
        E 6 e0 55 6a
        E 5 e0 2b 75
        E 6 e0 2b 75
        E 0 90 4d 00
        E 77 e0 2b 75
        E 0 90 40 1b
        E 5 e0 2b 75
        E 6 e0 2b 75
        E 5 e0 2b 75
        E 6 e0 2b 75
        E 5 e0 2b 75
        E 6 e0 2b 75
        E 5 e0 2b 75
        E 6 e0 2b 75
        E 5 e0 00 20
        E 6 e0 00 20
        E 5 e0 00 20
        E 6 e0 00 20
        E 5 e0 00 20
        E 0 90 40 00
        E 5 90 40 23
        E 194 90 1f 26
        E 26 90 2b 32
        E 0 90 40 00
        E 0 90 40 29
        E 71 90 32 2a
        E 21 90 2b 00
        E 41 90 32 00
        E 10 90 40 00
        E 67 90 1f 00
        E 613 e0 55 2a
        E 0 90 28 2a
        E 5 e0 55 2a
        E 6 e0 55 2a
        E 5 e0 00 20
        E 6 e0 55 6a
        E 5 e0 2b 75
        E 6 e0 2b 75
        E 5 e0 2b 75
        E 6 e0 2b 75
        E 5 e0 2b 75
        E 6 e0 2b 75
        E 5 e0 2b 75
        E 6 e0 2b 75
        E 5 e0 00 20
        E 6 e0 00 20
        E 0 90 28 00
        E 132 e0 00 20
        E 0 90 28 29
        E 5 e0 00 20
        E 6 e0 00 20
        E 5 e0 00 20
        E 5 e0 00 20
        E 5 e0 00 20
        E 5 e0 00 20
        E 5 e0 00 20
        E 5 e0 00 20
        E 6 e0 00 20
        E 5 e0 00 20
        E 5 e0 00 20
        E 5 e0 00 20
        E 5 e0 00 20
        E 5 e0 00 20
        E 5 e0 00 20
        E 6 e0 00 20
        E 5 e0 00 20
        E 5 e0 2b 75
        E 0 90 28 00
        E 122 e0 55 0a
        E 0 90 29 26
        E 6 e0 55 0a
        E 5 e0 55 0a
        E 5 e0 55 0a
        E 6 e0 55 0a
        E 5 e0 55 0a
        E 5 e0 55 0a
        E 6 e0 55 0a
        E 5 e0 55 0a
        E 5 e0 55 0a
        E 6 e0 55 0a
        E 5 e0 55 0a
        E 5 e0 55 0a
        E 6 e0 55 0a
        E 5 e0 55 0a
        E 5 e0 55 0a
        E 6 e0 55 0a
        E 5 e0 00 60
        E 5 e0 55 0a
        E 6 e0 55 0a
        E 5 e0 55 0a
        E 5 e0 00 60
        E 6 e0 00 60
        E 5 e0 00 60
        E 0 90 29 00
        E 301 e0 00 00
        E 0 90 39 2d
        E 6 e0 2b 15
        E 5 e0 00 20
        E 6 e0 00 20
        E 5 e0 00 20
        E 6 e0 00 20
        E 5 e0 00 20
        E 6 e0 00 20
        E 5 e0 00 20
        E 6 e0 00 20
        E 5 e0 00 20
        E 6 e0 00 20
        E 5 e0 00 20
        E 6 e0 00 20
        E 0 90 39 00
        E 148 90 2d 21
        E 10 90 40 20
        E 62 90 2d 00
        E 82 90 40 00
        E 501 e0 55 0a
        E 0 90 29 24
        E 5 e0 00 00
        E 5 e0 00 00
        E 5 e0 00 00
        E 5 e0 55 0a
        E 6 e0 55 0a
        E 5 e0 55 0a
        E 5 e0 55 0a
        E 5 e0 55 0a
        E 5 e0 55 0a
        E 6 e0 55 0a
        E 5 e0 00 60
        E 5 e0 00 60
        E 5 e0 00 60
        E 5 e0 00 60
        E 6 e0 00 60
        E 5 e0 00 60
        E 5 e0 00 60
        E 5 e0 00 60
        E 6 e0 00 60
        E 5 e0 55 0a
        E 5 e0 55 0a
        E 5 e0 55 0a
        E 5 e0 2b 15
        E 6 e0 2b 15
        E 5 e0 2b 15
        E 5 e0 2b 15
        E 5 e0 00 60
        E 5 e0 00 60
        E 6 e0 2b 15
        E 5 e0 2b 15
        E 5 e0 2b 15
        E 5 e0 2b 15
        E 5 e0 2b 15
        E 6 e0 00 60
        E 5 e0 00 60
        E 5 e0 00 60
        E 5 e0 00 60
        E 5 e0 00 60
        E 6 e0 00 60
        E 5 e0 00 60
        E 5 e0 00 60
        E 5 e0 00 60
        E 6 e0 00 60
        E 5 e0 00 60
        E 5 e0 00 60
        E 5 e0 00 60
        E 5 e0 00 60
        E 6 e0 00 60
        E 5 e0 00 60
        E 5 e0 00 60
        E 5 e0 00 60
        E 0 90 29 00
        E 144 e0 00 20
        E 0 90 2d 27
        E 5 e0 00 20
        E 6 e0 00 20
        E 5 e0 00 20
        E 6 e0 00 20
        E 5 e0 00 20
        E 5 e0 00 20
        E 6 e0 00 20
        E 5 e0 00 20
        E 6 e0 00 20
        E 5 e0 00 20
        E 6 e0 00 20
        E 5 e0 00 20
        E 6 e0 00 20
        E 5 e0 00 20
        E 6 e0 55 6a
        E 0 90 2d 00
        E 97 90 39 1c
        E 35 90 2d 24
        E 77 90 39 00
        E 61 90 2d 00
        E 67 e0 55 0a
        E 0 90 32 22
        E 5 e0 55 0a
        E 6 e0 2b 15
        E 5 e0 2b 15
        E 6 e0 55 6a
        E 5 e0 55 6a
        E 6 e0 00 60
        E 5 e0 00 60
        E 5 e0 00 60
        E 6 e0 00 20
        E 5 e0 00 20
        E 6 e0 00 20
        E 5 e0 00 60
        E 6 e0 00 60
        E 5 e0 00 60
        E 0 90 32 00
        E 338 e0 00 20
        E 0 90 28 2e
        E 5 e0 00 20
        E 6 e0 00 20
        E 5 e0 00 20
        E 6 e0 00 20
        E 5 e0 00 20
        E 5 e0 00 20
        E 6 e0 00 20
        E 5 e0 00 20
        E 5 e0 00 20
        E 6 e0 00 20
        E 5 e0 00 20
        E 6 e0 00 20
        E 5 e0 00 20
        E 5 e0 00 20
        E 6 e0 00 20
        E 5 e0 00 20
        E 5 e0 00 20
        E 6 e0 00 20
        E 5 e0 00 20
        E 0 90 28 00
        E 133 e0 2b 15
        E 0 90 45 24
        E 5 e0 00 20
        E 5 e0 00 20
        E 6 e0 00 20
        E 5 e0 00 20
        E 5 e0 00 20
        E 5 e0 00 20
        E 6 e0 00 20
        E 5 e0 00 20
        E 5 e0 00 20
        E 5 e0 00 20
        E 6 e0 00 20
        E 5 e0 00 20
        E 5 e0 00 20
        E 5 e0 00 20
        E 5 e0 55 6a
        E 6 e0 55 6a
        E 5 e0 55 6a
        E 5 e0 00 20
        E 5 e0 00 20
        E 6 e0 00 20
        E 5 e0 00 20
        E 5 e0 00 20
        E 5 e0 00 20
        E 6 e0 00 20
        E 5 e0 00 20
        E 5 e0 00 20
        E 5 e0 00 20
        E 5 e0 00 20
        E 6 e0 00 20
        E 5 e0 00 20
        E 5 e0 00 20
        E 5 e0 00 20
        E 6 e0 00 20
        E 5 e0 00 20
        E 5 e0 00 20
        E 5 e0 00 20
        E 6 e0 00 20
        E 5 e0 00 20
        E 5 e0 00 20
        E 5 e0 00 20
        E 5 e0 00 60
        E 6 e0 00 60
        E 0 90 45 00
        E 189 90 28 2f
        E 10 90 45 2f
        E 56 90 28 00
        E 10 90 45 00
        E 123 90 28 2b
        E 16 90 45 27
        E 102 90 28 00
        E 26 90 45 00
        E 66 90 28 37
        E 5 90 2f 18
        E 10 90 34 33
        E 0 90 45 24
        E 51 90 2f 00
        E 5 90 28 00
        E 6 90 34 00
        E 10 90 45 00
        E 133 90 28 2e
        E 15 90 34 2b
        E 0 90 40 28
        E 0 90 45 29
        E 61 90 45 00
        E 16 90 28 00
        E 10 90 34 00
        E 5 90 40 00
        E 97 e0 00 20
        E 0 90 28 2f
        E 5 e0 00 20
        E 6 e0 00 20
        E 5 e0 00 20
        E 5 e0 2b 15
        E 6 e0 2b 15
        E 5 e0 2b 15
        E 6 e0 2b 15
        E 5 e0 2b 15
        E 5 e0 00 20
        E 6 e0 00 20
        E 5 e0 00 20
        E 6 e0 00 20
        E 5 e0 00 20
        E 5 e0 00 20
        E 6 e0 00 20
        E 5 e0 00 20
        E 6 e0 00 20
        E 5 e0 00 20
        E 0 90 28 00
        E 113 e0 00 20
        E 0 90 28 2f
        E 5 e0 00 20
        E 6 e0 00 20
        E 6 e0 00 20
        E 5 e0 00 20
        E 6 e0 00 20
        E 5 e0 00 20
        E 6 e0 00 20
        E 5 e0 00 20
        E 6 e0 00 20
        E 5 e0 00 20
        E 6 e0 00 20
        E 5 e0 00 20
        E 0 90 28 00
        E 143 e0 00 20
        E 0 90 28 35
        E 6 e0 00 20
        E 5 e0 2b 15
        E 6 e0 2b 15
        E 5 e0 00 20
        E 6 e0 00 20
        E 5 e0 00 20
        E 6 e0 00 20
        E 5 e0 00 20
        E 6 e0 00 20
        E 5 e0 00 20
        E 6 e0 00 20
        E 5 e0 00 20
        E 6 e0 00 20
        E 0 90 28 00
        E 97 90 45 27
        E 51 90 34 29
        E 0 90 40 28
        E 10 90 45 00
        E 56 90 34 00
        E 6 e0 00 20
        E 0 90 40 00
        E 0 90 45 1c
        E 5 e0 00 60
        E 6 e0 00 60
        E 5 e0 00 60
        E 6 e0 00 60
        E 5 e0 00 60
        E 6 e0 00 60
        E 6 e0 00 60
        E 5 e0 00 60
        E 6 e0 00 60
        E 5 e0 00 60
        E 6 e0 55 6a
        E 0 90 45 00
        E 61 90 28 2c
        E 15 90 45 20
        E 6 90 40 26
        E 66 90 28 00
        E 5 90 40 00
        E 36 90 45 00
        E 87 90 28 2b
        E 0 90 3e 1d
        E 5 90 45 25
        E 0 90 4c 2b
        E 77 90 4c 00
        E 46 90 3e 00
        E 15 90 28 00
        E 0 90 45 00
        E 62 90 28 2b
        E 10 90 45 27
        E 117 90 28 00
        E 5 90 45 00
        E 246 90 45 26
        E 25 90 1c 26
        E 21 90 28 27
        E 20 90 45 00
        E 46 90 1c 00
        E 133 90 45 24
        E 15 90 4d 2a
        E 67 90 4d 00
        E 138 90 45 00
        E 5 90 28 00
        E 123 e0 00 20
        E 0 90 45 16
        E 5 e0 55 6a
        E 6 e0 55 6a
        E 5 e0 55 6a
        E 6 e0 55 0a
        E 5 e0 55 0a
        E 6 e0 55 0a
        E 6 e0 2b 15
        E 5 e0 2b 15
        E 6 e0 2b 15
        E 5 e0 2b 15
        E 6 e0 2b 15
        E 5 e0 00 20
        E 0 90 45 00
        E 5 90 28 2c
        E 0 90 45 1d
        E 102 90 45 00
        E 179 90 28 00
        E 5 90 45 1b
        E 123 90 28 37
        E 10 90 45 00
        E 5 90 45 29
        E 51 90 28 00
        E 11 90 45 00
        E 61 90 28 16
        E 26 90 45 26
        E 36 90 28 00
        E 5 90 28 27
        E 20 90 45 00
        E 138 90 45 22
        E 72 90 48 2a
        E 51 90 45 00
        E 76 90 28 00
        E 11 90 48 00
        E 56 90 28 2d
        E 15 90 40 26
        E 77 90 28 00
        E 10 90 40 00
        E 220 90 2d 28
        E 82 90 41 33
        E 26 90 2d 00
        E 35 90 41 00
        E 82 90 26 20
        E 72 90 35 28
        E 10 90 26 00
        E 87 90 40 1e
        E 15 90 35 00
        E 77 90 26 26
        E 25 90 40 00
        E 87 90 2d 2a
        E 5 90 26 00
        E 82 90 26 26
        E 46 90 2d 00
        E 81 90 2d 24
        E 16 90 26 00
        E 97 90 2d 00
        E 179 e0 00 60
        E 0 90 26 28
        E 6 e0 00 60
        E 5 e0 00 60
        E 5 e0 2b 15
        E 5 e0 00 20
        E 6 e0 00 20
        E 5 e0 00 60
        E 5 e0 00 60
        E 6 e0 00 60
        E 5 e0 00 60
        E 5 e0 55 6a
        E 5 e0 2b 15
        E 6 e0 2b 15
        E 5 e0 2b 15
        E 5 e0 2b 15
        E 6 e0 2b 15
        E 5 e0 2b 15
        E 5 e0 2b 15
        E 6 e0 2b 15
        E 5 e0 2b 15
        E 5 e0 2b 15
        E 5 e0 2b 15
        E 6 e0 2b 15
        E 5 e0 2b 15
        E 5 e0 2b 15
        E 6 e0 2b 15
        E 5 e0 2b 15
        E 5 e0 2b 15
        E 0 90 26 00
        E 496 90 41 26
        E 97 90 2d 24
        E 51 90 41 00
        E 41 90 26 2c
        E 113 90 26 00
        E 56 90 2d 00
        E 179 e0 55 0a
        E 0 90 35 21
        E 5 e0 55 0a
        E 6 e0 55 0a
        E 5 e0 55 0a
        E 5 e0 55 0a
        E 6 e0 55 0a
        E 5 e0 55 0a
        E 5 e0 55 0a
        E 6 e0 55 0a
        E 5 e0 55 6a
        E 6 e0 55 6a
        E 5 e0 55 6a
        E 5 e0 55 6a
        E 6 e0 55 0a
        E 5 e0 55 0a
        E 6 e0 55 6a
        E 5 e0 55 6a
        E 5 e0 55 6a
        E 6 e0 55 6a
        E 0 90 35 00
        E 61 90 34 28
        E 5 90 4c 37
        E 31 90 26 23
        E 25 90 34 00
        E 5 90 4c 00
        E 92 90 26 00
        E 103 e0 00 00
        E 0 90 41 2a
        E 6 e0 2b 75
        E 5 e0 2b 75
        E 5 e0 2b 75
        E 6 e0 55 6a
        E 5 e0 55 6a
        E 5 e0 55 6a
        E 6 e0 55 6a
        E 5 e0 55 6a
        E 5 e0 55 6a
        E 6 e0 55 6a
        E 5 e0 2b 75
        E 5 e0 2b 75
        E 6 e0 2b 75
        E 5 e0 2b 75
        E 5 e0 2b 75
        E 6 e0 2b 75
        E 5 e0 2b 75
        E 6 e0 2b 75
        E 5 e0 2b 75
        E 5 e0 00 00
        E 6 e0 00 00
        E 0 90 41 00
        E 81 90 48 38
        E 11 90 35 27
        E 51 90 48 00
        E 35 90 40 1f
        E 26 90 35 00
        E 107 90 40 00
        E 82 90 2d 27
        E 102 90 41 2d
        E 72 90 41 00
        E 46 90 2d 00
        E 296 90 26 2d
        E 113 90 40 1c
        E 10 90 26 00
        E 97 90 2d 28
        E 21 90 40 00
        E 107 90 2d 00
        E 30 90 48 2a
        E 46 90 35 29
        E 21 90 48 00
        E 112 90 35 00
        E 185 90 2d 2f
        E 117 90 26 27
        E 41 90 2d 00
        E 87 90 26 00
        E 352 e0 55 6a
        E 0 90 45 22
        E 6 e0 55 6a
        E 5 e0 55 6a
        E 5 e0 55 6a
        E 6 e0 00 20
        E 5 e0 00 20
        E 5 e0 00 20
        E 6 e0 00 20
        E 5 e0 00 20
        E 5 e0 00 20
        E 6 e0 00 20
        E 5 e0 00 20
        E 5 e0 00 20
        E 6 e0 00 20
        E 5 e0 00 20
        E 5 e0 00 20
        E 6 e0 00 20
        E 5 e0 00 20
        E 5 e0 00 20
        E 5 e0 00 60
        E 6 e0 55 6a
        E 5 e0 55 6a
        E 5 e0 00 20
        E 6 e0 00 20
        E 5 e0 00 20
        E 0 90 45 00
        E 77 e0 00 00
        E 0 90 3c 28
        E 6 e0 00 00
        E 5 e0 00 00
        E 5 e0 55 0a
        E 6 e0 55 6a
        E 5 e0 55 6a
        E 5 e0 55 6a
        E 6 e0 55 6a
        E 5 e0 55 6a
        E 5 e0 55 6a
        E 6 e0 55 6a
        E 5 e0 55 6a
        E 5 e0 55 6a
        E 6 e0 55 6a
        E 5 e0 55 6a
        E 5 e0 55 6a
        E 6 e0 55 6a
        E 5 e0 55 6a
        E 5 e0 55 6a
        E 6 e0 55 6a
        E 5 e0 55 6a
        E 5 e0 55 6a
        E 6 e0 55 6a
        E 0 90 3c 00
        E 76 e0 00 20
        E 0 90 45 25
        E 6 e0 00 20
        E 5 e0 00 20
        E 5 e0 00 20
        E 6 e0 00 20
        E 5 e0 00 20
        E 5 e0 00 20
        E 6 e0 00 20
        E 5 e0 00 20
        E 5 e0 00 20
        E 6 e0 00 20
        E 5 e0 00 20
        E 5 e0 00 20
        E 6 e0 00 20
        E 5 e0 00 20
        E 6 e0 00 20
        E 5 e0 00 20
        E 5 e0 00 20
        E 6 e0 00 20
        E 5 e0 00 20
        E 5 e0 00 20
        E 6 e0 00 20
        E 5 e0 55 6a
        E 0 90 45 00
        E 286 e0 2b 75
        E 0 90 48 25
        E 5 e0 2b 75
        E 6 e0 2b 75
        E 5 e0 2b 15
        E 5 e0 2b 15
        E 5 e0 55 6a
        E 6 e0 55 6a
        E 5 e0 55 6a
        E 5 e0 55 6a
        E 6 e0 55 6a
        E 5 e0 55 6a
        E 5 e0 55 6a
        E 5 e0 55 6a
        E 6 e0 55 6a
        E 5 e0 55 6a
        E 5 e0 55 6a
        E 6 e0 55 6a
        E 5 e0 55 6a
        E 5 e0 55 6a
        E 5 e0 55 6a
        E 6 e0 55 6a
        E 5 e0 55 6a
        E 5 e0 55 6a
        E 6 e0 00 60
        E 5 e0 00 60
        E 5 e0 00 60
        E 5 e0 55 6a
        E 6 e0 55 6a
        E 5 e0 55 6a
        E 5 e0 55 6a
        E 0 90 48 00
        E 149 90 41 22
        E 107 90 29 27
        E 0 90 35 29
        E 220 90 29 00
        E 5 90 35 00
        E 0 90 41 00
        E 194 90 3c 2a
        E 15 90 41 23
        E 97 90 29 22
        E 6 90 35 21
        E 20 90 3c 00
        E 174 90 29 00
        E 5 90 41 00
        E 46 90 35 00
        E 731 90 28 2a
        E 108 90 41 27
        E 10 90 28 00
        E 117 90 41 00
        E 57 90 28 26
        E 112 90 41 2d
        E 10 90 28 00
        E 102 90 41 00
        E 184 e0 2b 75
        E 0 90 48 25
        E 6 e0 2b 75
        E 5 e0 55 6a
        E 5 e0 55 6a
        E 5 e0 55 6a
        E 6 e0 55 6a
        E 5 e0 55 6a
        E 5 e0 55 6a
        E 6 e0 55 6a
        E 5 e0 55 6a
        E 5 e0 55 6a
        E 5 e0 55 6a
        E 6 e0 55 6a
        E 5 e0 55 6a
        E 5 e0 55 6a
        E 6 e0 55 6a
        E 5 e0 55 6a
        E 5 e0 55 0a
        E 5 e0 55 6a
        E 6 e0 55 6a
        E 5 e0 55 6a
        E 5 e0 55 6a
        E 6 e0 55 6a
        E 5 e0 55 6a
        E 5 e0 55 6a
        E 6 e0 55 6a
        E 5 e0 55 6a
        E 5 e0 55 6a
        E 5 e0 55 6a
        E 0 90 48 00
        E 272 e0 55 6a
        E 0 90 48 23
        E 5 e0 55 6a
        E 5 e0 55 6a
        E 6 e0 55 0a
        E 5 e0 55 0a
        E 5 e0 2b 15
        E 6 e0 2b 15
        E 5 e0 2b 15
        E 6 e0 2b 15
        E 5 e0 2b 15
        E 5 e0 2b 15
        E 6 e0 2b 15
        E 5 e0 00 20
        E 5 e0 00 20
        E 6 e0 00 20
        E 5 e0 00 20
        E 5 e0 00 20
        E 6 e0 00 20
        E 5 e0 00 20
        E 5 e0 55 6a
        E 6 e0 55 6a
        E 5 e0 00 60
        E 0 90 48 00
        E 87 e0 2b 15
        E 0 90 40 23
        E 5 e0 2b 15
        E 6 e0 00 20
        E 5 e0 00 20
        E 6 e0 00 20
        E 5 e0 00 20
        E 6 e0 00 20
        E 5 e0 00 20
        E 6 e0 00 20
        E 5 e0 00 20
        E 6 e0 00 20
        E 5 e0 00 20
        E 6 e0 00 20
        E 5 e0 00 20
        E 0 90 40 00
        E 373 90 28 31
        E 26 90 3c 26
        E 0 90 40 2b
        E 46 90 28 00
        E 16 90 3c 00
        E 0 90 40 00
        E 679 90 29 29
        E 0 90 41 23
        E 16 90 2d 2b
        E 45 90 29 00
        E 77 90 2d 00
        E 52 90 4c 47
        E 10 90 30 23
        E 31 90 3c 29
        E 5 90 45 27
        E 15 90 4c 00
        E 36 90 30 00
        E 66 90 45 00
        E 5 90 3c 00
        E 97 90 45 20
        E 6 90 41 00
        E 0 90 41 26
        E 132 90 41 00
        E 92 90 3c 2e
        E 5 90 2d 2b
        E 21 90 45 00
        E 36 90 3c 00
        E 81 90 2d 00
        E 82 90 41 29
        E 15 90 45 22
        E 113 90 2d 24
        E 10 90 45 00
        E 15 90 41 00
        E 93 90 2d 00
        E 219 90 30 18
        E 0 90 39 21
        E 0 90 3c 24
        E 6 90 2d 28
        E 61 90 30 00
        E 0 90 39 00
        E 71 90 2d 00
        E 97 90 41 1e
        E 21 90 3c 00
        E 220 90 41 00
        E 87 e0 55 6a
        E 0 90 4a 1d
        E 5 e0 55 6a
        E 6 e0 55 6a
        E 5 e0 55 6a
        E 6 e0 55 6a
        E 5 e0 55 6a
        E 6 e0 55 6a
        E 5 e0 55 6a
        E 6 e0 55 6a
        E 5 e0 55 6a
        E 6 e0 55 6a
        E 5 e0 55 6a
        E 6 e0 55 6a
        E 5 e0 55 6a
        E 0 90 4a 00
        E 389 e0 00 60
        E 0 90 41 19
        E 5 e0 00 60
        E 5 e0 00 60
        E 6 e0 00 60
        E 5 e0 00 60
        E 6 e0 00 60
        E 5 e0 55 6a
        E 5 e0 00 60
        E 6 e0 00 60
        E 5 e0 55 6a
        E 5 e0 55 6a
        E 6 e0 55 6a
        E 5 e0 2b 15
        E 5 e0 2b 15
        E 6 e0 2b 15
        E 5 e0 00 60
        E 6 e0 00 60
        E 5 e0 55 6a
        E 5 e0 55 6a
        E 6 e0 55 6a
        E 5 e0 55 6a
        E 0 90 41 00
        E 5 e0 55 6a
        E 0 90 41 25
        E 5 e0 55 6a
        E 6 e0 55 6a
        E 5 e0 00 20
        E 5 e0 00 20
        E 5 e0 00 20
        E 6 e0 00 20
        E 5 e0 00 20
        E 5 e0 00 20
        E 6 e0 2b 15
        E 5 e0 2b 15
        E 5 e0 2b 15
        E 5 e0 2b 15
        E 6 e0 2b 15
        E 5 e0 2b 15
        E 5 e0 2b 15
        E 5 e0 2b 15
        E 6 e0 2b 15
        E 5 e0 2b 15
        E 5 e0 55 6a
        E 6 e0 55 6a
        E 5 e0 55 6a
        E 5 e0 55 6a
        E 5 e0 55 6a
        E 6 e0 55 6a
        E 5 e0 55 6a
        E 5 e0 55 6a
        E 5 e0 55 6a
        E 6 e0 55 6a
        E 5 e0 55 6a
        E 5 e0 2b 15
        E 6 e0 2b 15
        E 0 90 41 00
        E 66 e0 55 6a
        E 0 90 2d 29
        E 5 e0 55 6a
        E 5 e0 00 20
        E 5 e0 00 20
        E 6 e0 00 20
        E 5 e0 00 20
        E 5 e0 00 20
        E 5 e0 00 20
        E 5 e0 00 20
        E 5 e0 00 20
        E 5 e0 00 20
        E 5 e0 00 20
        E 6 e0 00 20
        E 5 e0 00 20
        E 5 e0 00 20
        E 5 e0 00 20
        E 5 e0 00 20
        E 5 e0 00 20
        E 5 e0 00 20
        E 5 e0 00 20
        E 6 e0 00 20
        E 5 e0 00 20
        E 5 e0 00 20
        E 5 e0 00 20
        E 5 e0 00 20
        E 5 e0 00 20
        E 5 e0 00 20
        E 0 90 2d 00
        E 317 e0 55 6a
        E 0 90 2d 26
        E 5 e0 55 6a
        E 6 e0 2b 75
        E 5 e0 2b 75
        E 5 e0 2b 75
        E 6 e0 2b 75
        E 5 e0 2b 75
        E 6 e0 2b 75
        E 5 e0 2b 75
        E 5 e0 2b 75
        E 6 e0 2b 75
        E 5 e0 2b 75
        E 5 e0 2b 75
        E 6 e0 2b 75
        E 5 e0 2b 75
        E 5 e0 2b 75
        E 6 e0 00 20
        E 5 e0 00 20
        E 5 e0 00 20
        E 6 e0 00 20
        E 5 e0 00 20
        E 5 e0 00 20
        E 0 90 2d 00
        E 103 90 39 1c
        E 10 90 2d 2d
        E 117 90 39 00
        E 26 90 2d 00
        E 82 90 2d 26
        E 10 90 39 27
        E 108 90 2d 00
        E 10 90 39 00
        E 439 90 2d 29
        E 107 90 21 29
        E 31 90 2d 00
        E 97 90 21 00
        E 317 90 2d 3a
        E 11 90 48 20
        E 56 90 2d 00
        E 51 90 43 20
        E 15 90 48 00
        E 36 90 2d 2c
        E 92 90 43 00
        E 26 90 2d 00
        E 61 90 2d 29
        E 0 90 39 29
        E 153 90 39 00
        E 5 90 2d 00
        E 180 90 2d 28
        E 92 90 28 39
        E 25 90 34 23
        E 31 90 2d 00
        E 5 90 28 00
        E 41 90 4c 42
        E 61 90 34 00
        E 0 90 4c 00
        E 429 90 2d 34
        E 10 90 41 24
        E 57 90 2d 00
        E 20 90 41 00
        E 46 90 2d 23
        E 92 90 41 23
        E 6 90 3e 14
        E 5 90 45 1c
        E 56 90 3e 00
        E 5 90 2d 00
        E 46 90 45 00
        E 5 90 41 00
        E 97 90 2d 24
        E 5 90 41 27
        E 87 90 2d 00
        E 164 90 41 00
        E 214 e0 55 0a
        E 0 90 45 25
        E 5 e0 2b 15
        E 6 e0 2b 15
        E 5 e0 00 20
        E 5 e0 2b 15
        E 6 e0 00 20
        E 5 e0 00 20
        E 6 e0 00 20
        E 5 e0 00 20
        E 5 e0 00 20
        E 6 e0 00 20
        E 5 e0 00 20
        E 5 e0 00 20
        E 6 e0 00 20
        E 5 e0 00 20
        E 5 e0 00 20
        E 6 e0 2b 15
        E 5 e0 2b 15
        E 5 e0 00 60
        E 6 e0 00 60
        E 5 e0 00 60
        E 5 e0 00 20
        E 0 90 45 00
        E 772 90 4d 3a
        E 11 90 3c 2a
        E 0 90 41 29
        E 51 90 4d 00
        E 10 90 3c 00
        E 113 90 41 00
        E 41 90 30 20
        E 5 90 3c 26
        E 5 90 4c 2b
        E 71 90 4c 00
        E 62 90 3c 00
        E 5 90 30 00
        E 76 90 21 26
        E 6 90 28 22
        E 5 90 34 1b
        E 102 90 39 26
        E 5 90 2d 25
        E 10 90 21 00
        E 10 90 28 00
        E 36 90 39 00
        E 36 90 48 20
        E 25 90 21 26
        E 21 90 34 00
        E 10 90 2d 00
        E 5 90 48 00
        E 36 90 21 00
        E 117 e0 55 0a
        E 0 90 48 14
        E 6 e0 55 0a
        E 6 e0 55 0a
        E 5 e0 55 6a
        E 6 e0 55 6a
        E 5 e0 00 60
        E 6 e0 00 60
        E 6 e0 00 60
        E 5 e0 00 60
        E 6 e0 00 20
        E 5 e0 00 20
        E 6 e0 00 20
        E 0 90 48 00
        E 547 90 48 1e
        E 92 90 2d 41
        E 15 90 39 30
        E 0 90 3c 27
        E 16 90 48 00
        E 35 90 2d 00
        E 21 90 3c 00
        E 5 90 39 00
        E 271 90 45 22
        E 92 90 28 1e
        E 5 90 2d 25
        E 26 90 45 00
        E 102 90 28 00
        E 0 90 2d 00
        E 97 90 21 22
        E 10 90 2d 2d
        E 215 90 34 29
        E 25 90 21 00
        E 16 90 2d 00
        E 86 90 34 00
        E 72 90 34 2b
        E 0 90 39 3f
        E 10 90 45 26
        E 51 90 34 00
        E 0 90 39 00
        E 88 90 39 22
        E 20 90 45 00
        E 107 90 2d 27
        E 16 90 39 00
        E 127 90 2d 00
        E 72 90 2d 28
        E 0 90 45 1b
        E 112 90 45 00
        E 16 90 2d 00
        E 97 e0 7f 7f
        E 0 90 47 23
        E 5 e0 2b 75
        E 5 e0 2b 75
        E 6 e0 00 20
        E 5 e0 00 20
        E 5 e0 00 20
        E 6 e0 00 20
        E 5 e0 00 20
        E 5 e0 00 20
        E 6 e0 00 20
        E 5 e0 00 20
        E 5 e0 00 20
        E 6 e0 00 20
        E 5 e0 00 20
        E 5 e0 00 20
        E 6 e0 00 20
        E 5 e0 00 20
        E 6 e0 00 20
        E 5 e0 00 20
        E 5 e0 00 20
        E 6 e0 00 20
        E 5 e0 00 20
        E 5 e0 00 20
        E 0 90 47 00
        E 87 e0 2b 15
        E 0 90 2d 2b
        E 5 e0 2b 15
        E 5 e0 2b 15
        E 5 e0 2b 15
        E 6 e0 2b 15
        E 5 e0 2b 15
        E 5 e0 00 20
        E 5 e0 00 20
        E 5 e0 00 20
        E 5 e0 00 20
        E 5 e0 00 20
        E 5 e0 00 20
        E 6 e0 00 20
        E 5 e0 00 20
        E 5 e0 00 20
        E 5 e0 00 20
        E 5 e0 00 20
        E 5 e0 00 20
        E 5 e0 00 20
        E 5 e0 00 20
        E 6 e0 00 20
        E 5 e0 00 20
        E 5 e0 2b 15
        E 5 e0 2b 15
        E 5 e0 2b 15
        E 5 e0 2b 15
        E 5 e0 2b 15
        E 6 e0 2b 15
        E 5 e0 2b 15
        E 5 e0 2b 15
        E 5 e0 2b 15
        E 0 90 2d 00
        E 71 90 28 25
        E 0 90 41 31
        E 62 90 41 00
        E 66 90 28 00
        E 107 e0 55 6a
        E 0 90 48 2b
        E 6 e0 55 6a
        E 5 e0 55 6a
        E 5 e0 55 6a
        E 6 e0 2b 15
        E 5 e0 55 0a
        E 5 e0 55 0a
        E 6 e0 55 0a
        E 5 e0 55 0a
        E 5 e0 2b 15
        E 5 e0 2b 15
        E 6 e0 55 6a
        E 5 e0 55 6a
        E 5 e0 55 6a
        E 6 e0 55 6a
        E 5 e0 55 6a
        E 5 e0 55 6a
        E 6 e0 55 6a
        E 5 e0 55 6a
        E 5 e0 55 6a
        E 5 e0 55 6a
        E 6 e0 55 0a
        E 5 e0 55 0a
        E 5 e0 55 0a
        E 6 e0 55 0a
        E 5 e0 55 0a
        E 5 e0 55 0a
        E 0 90 48 00
        E 72 90 39 27
        E 10 90 2d 2b
        E 77 90 28 22
        E 10 90 41 20
        E 5 90 39 00
        E 46 90 28 00
        E 5 90 2d 00
        E 72 90 2d 25
        E 46 90 41 00
        E 46 90 40 1a
        E 112 90 28 25
        E 0 90 39 1c
        E 16 90 40 00
        E 102 90 28 00
        E 0 90 39 00
        E 10 90 2d 00
        E 97 e0 7f 7f
        E 0 90 2d 31
        E 6 e0 7f 7f
        E 5 e0 2b 15
        E 5 e0 2b 15
        E 5 e0 2b 15
        E 6 e0 2b 15
        E 5 e0 2b 15
        E 5 e0 2b 15
        E 6 e0 2b 15
        E 5 e0 2b 15
        E 5 e0 00 20
        E 5 e0 00 20
        E 6 e0 00 20
        E 5 e0 00 20
        E 5 e0 2b 15
        E 6 e0 2b 15
        E 5 e0 2b 15
        E 5 e0 2b 15
        E 6 e0 2b 15
        E 5 e0 2b 15
        E 5 e0 2b 15
        E 5 e0 2b 15
        E 6 e0 2b 15
        E 5 e0 2b 15
        E 5 e0 2b 15
        E 6 e0 2b 15
        E 5 e0 2b 15
        E 5 e0 2b 15
        E 5 e0 00 20
        E 0 90 2d 00
        E 67 e0 2b 15
        E 0 90 2d 2f
        E 5 e0 2b 15
        E 5 e0 2b 15
        E 6 e0 55 0a
        E 5 e0 55 0a
        E 5 e0 2b 15
        E 5 e0 2b 15
        E 6 e0 2b 15
        E 5 e0 2b 15
        E 5 e0 2b 15
        E 6 e0 2b 15
        E 5 e0 2b 15
        E 5 e0 2b 15
        E 5 e0 2b 15
        E 6 e0 2b 15
        E 5 e0 2b 15
        E 5 e0 2b 15
        E 6 e0 2b 15
        E 5 e0 2b 15
        E 5 e0 2b 15
        E 5 e0 2b 15
        E 6 e0 2b 15
        E 5 e0 2b 15
        E 5 e0 2b 15
        E 6 e0 2b 15
        E 5 e0 2b 15
        E 5 e0 2b 15
        E 5 e0 2b 15
        E 6 e0 2b 15
        E 5 e0 2b 15
        E 5 e0 2b 15
        E 0 90 2d 00
        E 72 e0 2b 15
        E 0 90 2d 24
        E 5 e0 2b 15
        E 5 e0 00 60
        E 5 e0 00 60
        E 5 e0 2b 15
        E 5 e0 2b 15
        E 5 e0 2b 15
        E 6 e0 2b 15
        E 5 e0 2b 15
        E 5 e0 2b 15
        E 5 e0 00 20
        E 5 e0 2b 15
        E 5 e0 2b 15
        E 5 e0 2b 15
        E 5 e0 2b 15
        E 6 e0 2b 15
        E 5 e0 2b 15
        E 5 e0 00 20
        E 5 e0 00 20
        E 5 e0 00 20
        E 5 e0 00 20
        E 5 e0 00 20
        E 5 e0 2b 15
        E 5 e0 2b 75
        E 6 e0 2b 75
        E 5 e0 2b 75
        E 5 e0 2b 15
        E 5 e0 2b 15
        E 5 e0 2b 15
        E 5 e0 2b 15
        E 5 e0 2b 15
        E 5 e0 2b 15
        E 6 e0 2b 15
        E 5 e0 2b 15
        E 5 e0 2b 15
        E 5 e0 2b 15
        E 5 e0 2b 15
        E 5 e0 2b 15
        E 5 e0 2b 75
        E 5 e0 2b 75
        E 6 e0 2b 75
        E 5 e0 7f 7f
        E 5 e0 7f 7f
        E 5 e0 7f 7f
        E 5 e0 7f 7f
        E 5 e0 7f 7f
        E 0 90 2d 00
        E 5 e0 2b 15
        E 0 90 2d 2c
        E 6 e0 2b 15
        E 5 e0 2b 15
        E 5 e0 2b 15
        E 5 e0 2b 15
        E 6 e0 00 20
        E 5 e0 00 20
        E 5 e0 00 20
        E 6 e0 00 20
        E 5 e0 00 20
        E 5 e0 00 20
        E 5 e0 00 20
        E 6 e0 00 20
        E 5 e0 00 20
        E 5 e0 00 20
        E 6 e0 00 20
        E 5 e0 00 20
        E 5 e0 00 20
        E 5 e0 2b 15
        E 6 e0 2b 15
        E 5 e0 2b 15
        E 5 e0 2b 15
        E 6 e0 2b 15
        E 5 e0 2b 15
        E 5 e0 2b 15
        E 5 e0 2b 15
        E 6 e0 00 20
        E 5 e0 00 20
        E 5 e0 00 20
        E 6 e0 00 20
        E 0 90 2d 00
        E 496 90 2d 29
        E 0 90 41 25
        E 112 90 41 00
        E 97 90 28 2a
        E 41 90 2d 00
        E 25 90 28 00
        E 62 90 39 21
        E 102 90 48 36
        E 5 90 2d 2b
        E 15 90 39 00
        E 41 90 48 00
        E 67 90 2d 00
        E 194 e0 2b 15
        E 0 90 2d 29
        E 5 e0 2b 15
        E 5 e0 2b 15
        E 5 e0 2b 15
        E 5 e0 2b 15
        E 5 e0 2b 15
        E 6 e0 2b 15
        E 5 e0 2b 15
        E 5 e0 00 20
        E 5 e0 00 20
        E 5 e0 00 20
        E 5 e0 00 20
        E 5 e0 00 20
        E 5 e0 00 20
        E 6 e0 00 20
        E 5 e0 00 20
        E 5 e0 00 20
        E 5 e0 00 20
        E 5 e0 00 20
        E 5 e0 00 20
        E 5 e0 00 20
        E 5 e0 2b 15
        E 6 e0 2b 15
        E 5 e0 2b 15
        E 5 e0 55 0a
        E 5 e0 55 0a
        E 5 e0 2b 15
        E 5 e0 2b 15
        E 5 e0 00 20
        E 0 90 2d 00
        E 62 e0 2b 15
        E 0 90 2d 26
        E 5 e0 2b 15
        E 5 e0 2b 15
        E 5 e0 2b 15
        E 6 e0 2b 15
        E 5 e0 2b 15
        E 5 e0 2b 15
        E 6 e0 2b 15
        E 5 e0 2b 15
        E 5 e0 2b 15
        E 5 e0 00 20
        E 6 e0 00 20
        E 5 e0 00 20
        E 5 e0 00 20
        E 5 e0 00 20
        E 6 e0 00 20
        E 5 e0 00 20
        E 5 e0 00 20
        E 5 e0 00 20
        E 6 e0 00 20
        E 5 e0 00 20
        E 5 e0 00 20
        E 6 e0 00 20
        E 5 e0 00 20
        E 5 e0 00 20
        E 5 e0 00 20
        E 6 e0 00 20
        E 5 e0 00 20
        E 5 e0 00 20
        E 5 e0 00 20
        E 6 e0 00 20
        E 5 e0 00 20
        E 5 e0 00 20
        E 0 90 2d 00
        E 174 90 21 25
        E 15 90 2d 30
        E 82 90 34 3b
        E 10 90 21 00
        E 51 90 34 00
        E 5 90 2d 00
        E 51 90 41 28
        E 21 90 2d 28
        E 92 90 28 1d
        E 10 90 39 2c
        E 0 90 41 00
        E 5 90 40 1f
        E 77 90 39 00
        E 26 90 39 27
        E 5 90 28 00
        E 5 90 45 22
        E 5 90 40 00
        E 97 90 40 25
        E 10 90 2d 00
        E 31 90 39 00
        E 31 90 4c 3f
        E 51 90 2d 2a
        E 10 90 40 00
        E 0 90 45 00
        E 0 90 4c 00
        E 133 90 2d 00
        E 168 90 34 24
        E 123 90 4c 21
        E 15 90 34 00
        E 57 90 4c 00
        E 25 90 34 1f
        E 5 90 40 21
        E 72 90 2d 31
        E 5 90 34 00
        E 36 90 40 00
        E 26 90 2d 00
        E 173 90 2d 2b
        E 6 90 4d 2e
        E 81 90 4d 00
        E 21 90 34 27
        E 10 90 39 27
        E 5 90 2d 00
        E 46 90 34 00
        E 56 90 3c 1c
        E 31 90 39 00
        E 51 90 3c 00
        E 133 e0 00 20
        E 0 90 2d 2a
        E 5 e0 2b 15
        E 5 e0 2b 15
        E 5 e0 2b 15
        E 5 e0 2b 15
        E 5 e0 7f 7f
        E 5 e0 00 20
        E 6 e0 00 20
        E 5 e0 00 20
        E 5 e0 00 20
        E 5 e0 00 20
        E 5 e0 00 20
        E 5 e0 00 20
        E 5 e0 00 20
        E 5 e0 00 20
        E 6 e0 00 20
        E 5 e0 00 20
        E 5 e0 00 20
        E 5 e0 00 20
        E 5 e0 00 20
        E 5 e0 00 20
        E 5 e0 00 20
        E 5 e0 00 20
        E 6 e0 00 20
        E 5 e0 00 20
        E 5 e0 00 20
        E 5 e0 00 20
        E 5 e0 00 20
        E 5 e0 00 20
        E 5 e0 00 20
        E 5 e0 00 20
        E 5 e0 00 20
        E 6 e0 00 20
        E 5 e0 00 20
        E 5 e0 00 20
        E 5 e0 00 20
        E 5 e0 00 20
        E 5 e0 00 20
        E 5 e0 00 20
        E 5 e0 00 20
        E 6 e0 00 20
        E 5 e0 00 20
        E 5 e0 00 20
        E 5 e0 00 20
        E 5 e0 2b 15
        E 5 e0 2b 15
        E 5 e0 2b 15
        E 5 e0 2b 15
        E 6 e0 2b 15
        E 5 e0 00 20
        E 0 90 2d 00
        E 66 90 2d 20
        E 10 90 40 29
        E 77 90 40 00
        E 148 90 40 1d
        E 5 90 2d 00
        E 102 90 47 22
        E 5 90 2d 2b
        E 6 90 40 00
        E 97 90 34 28
        E 5 90 47 00
        E 35 90 2d 00
        E 46 90 41 28
        E 46 90 34 00
        E 205 90 41 00
        E 189 90 2d 30
        E 56 90 21 1a
        E 67 90 21 00
        E 46 90 2d 00
        E 61 90 21 20
        E 10 90 48 29
        E 67 90 48 00
        E 41 90 2d 29
        E 10 90 21 00
        E 0 90 34 24
        E 5 90 48 2b
        E 46 90 45 19
        E 66 90 45 00
        E 5 90 34 00
        E 11 90 48 00
        E 102 90 2d 00
        E 77 90 28 20
        E 10 90 2d 31
        E 11 90 41 20
        E 112 90 28 00
        E 0 90 41 00
        E 20 90 2d 00
        E 82 e0 00 20
        E 0 90 28 23
        E 5 e0 00 20
        E 6 e0 00 20
        E 5 e0 00 20
        E 5 e0 00 20
        E 6 e0 00 20
        E 5 e0 00 20
        E 5 e0 00 20
        E 6 e0 00 20
        E 5 e0 2b 15
        E 5 e0 2b 15
        E 6 e0 2b 15
        E 5 e0 2b 15
        E 5 e0 2b 15
        E 6 e0 00 20
        E 5 e0 00 20
        E 5 e0 00 20
        E 6 e0 00 20
        E 5 e0 00 20
        E 5 e0 00 20
        E 6 e0 2b 75
        E 5 e0 2b 15
        E 5 e0 2b 15
        E 6 e0 2b 15
        E 0 90 28 00
        E 117 e0 7f 7f
        E 0 90 48 1e
        E 5 e0 2b 15
        E 6 e0 00 20
        E 5 e0 00 20
        E 6 e0 00 20
        E 5 e0 00 20
        E 5 e0 00 20
        E 6 e0 00 20
        E 5 e0 00 20
        E 5 e0 00 20
        E 6 e0 00 20
        E 5 e0 00 20
        E 5 e0 00 20
        E 6 e0 2b 15
        E 5 e0 2b 15
        E 5 e0 2b 15
        E 6 e0 2b 15
        E 5 e0 00 20
        E 5 e0 00 20
        E 6 e0 00 20
        E 5 e0 00 20
        E 5 e0 00 20
        E 6 e0 00 20
        E 0 90 48 00
        E 71 90 2d 2d
        E 5 90 39 26
        E 16 90 4c 26
        E 46 90 2d 00
        E 15 90 4c 00
        E 25 90 39 00
        E 36 90 34 27
        E 0 90 40 21
        E 77 90 40 00
        E 26 90 41 30
        E 31 90 34 00
        E 35 90 41 00
        E 16 90 28 28
        E 35 90 2d 24
        E 6 90 40 1a
        E 25 90 28 00
        E 92 90 2d 00
        E 5 90 40 00
        E 97 e0 2b 15
        E 0 90 40 1c
        E 6 e0 00 20
        E 5 e0 00 20
        E 6 e0 00 20
        E 5 e0 00 20
        E 6 e0 00 20
        E 5 e0 00 20
        E 6 e0 55 2a
        E 5 e0 55 2a
        E 6 e0 55 2a
        E 5 e0 55 2a
        E 6 e0 55 2a
        E 5 e0 00 20
        E 6 e0 00 20
        E 0 90 40 00
        E 46 90 2d 27
        E 97 90 39 2d
        E 5 90 34 2c
        E 122 90 2d 00
        E 0 90 2d 27
        E 11 90 34 00
        E 5 90 39 00
        E 87 90 40 1d
        E 61 90 39 23
        E 11 90 40 00
        E 30 90 34 2a
        E 21 90 39 00
        E 15 90 2d 00
        E 138 90 34 00
        E 41 90 3c 46
        E 5 90 30 24
        E 0 90 41 2e
        E 10 90 2d 3d
        E 51 90 3c 00
        E 5 90 30 00
        E 0 90 41 00
        E 6 90 2d 00
        E 56 90 2d 2c
        E 117 90 3c 2b
        E 16 90 2d 00
        E 81 90 2d 1e
        E 56 90 3c 00
        E 62 90 41 27
        E 10 90 2d 00
        E 128 90 41 00
        E 67 90 30 2e
        E 15 90 2d 27
        E 5 90 3c 20
        E 41 90 30 00
        E 61 90 41 2d
        E 16 90 3c 00
        E 15 90 2d 00
        E 97 90 41 00
        E 97 90 41 2b
        E 118 90 3c 20
        E 20 90 41 00
        E 92 90 3c 00
        E 107 90 2d 2e
        E 92 90 3c 30
        E 62 90 3c 00
        E 5 90 2d 00
        E 169 90 2d 27
        E 56 90 21 1a
        E 66 90 21 00
        E 16 90 2d 00
        E 204 90 2d 32
        E 153 90 21 1f
        E 10 90 2d 00
        E 67 90 21 00
        E 5 e0 2b 15
        E 0 90 2d 2c
        E 5 e0 2b 15
        E 5 e0 2b 15
        E 5 e0 2b 15
        E 5 e0 00 20
        E 6 e0 00 20
        E 5 e0 00 20
        E 5 e0 00 20
        E 5 e0 00 20
        E 5 e0 00 20
        E 5 e0 00 20
        E 5 e0 00 20
        E 6 e0 00 20
        E 5 e0 00 20
        E 5 e0 00 20
        E 5 e0 00 20
        E 5 e0 00 20
        E 5 e0 00 20
        E 5 e0 00 20
        E 5 e0 00 20
        E 6 e0 00 20
        E 5 e0 00 20
        E 5 e0 00 20
        E 5 e0 00 20
        E 5 e0 00 20
        E 0 90 2d 00
        E 184 e0 2b 15
        E 0 90 3c 34
        E 6 e0 2b 15
        E 5 e0 2b 15
        E 6 e0 2b 15
        E 5 e0 2b 15
        E 6 e0 00 20
        E 5 e0 00 20
        E 6 e0 00 20
        E 6 e0 00 20
        E 5 e0 00 20
        E 6 e0 00 20
        E 5 e0 00 20
        E 0 90 3c 00
        E 164 e0 2b 15
        E 0 90 28 23
        E 5 e0 2b 15
        E 5 e0 2b 15
        E 6 e0 2b 15
        E 5 e0 00 20
        E 5 e0 00 20
        E 6 e0 00 20
        E 5 e0 00 20
        E 5 e0 00 20
        E 6 e0 00 20
        E 5 e0 00 20
        E 5 e0 00 20
        E 6 e0 00 20
        E 5 e0 00 20
        E 5 e0 00 20
        E 6 e0 00 20
        E 5 e0 00 20
        E 5 e0 00 20
        E 6 e0 00 20
        E 5 e0 00 20
        E 5 e0 00 20
        E 6 e0 00 20
        E 5 e0 00 20
        E 5 e0 00 20
        E 5 e0 2b 15
        E 0 90 28 00
        E 440 e0 00 00
        E 0 90 2d 2c
        E 6 e0 00 00
        E 5 e0 00 00
        E 5 e0 00 00
        E 6 e0 00 00
        E 5 e0 00 00
        E 5 e0 00 20
        E 6 e0 00 20
        E 5 e0 00 20
        E 5 e0 00 20
        E 6 e0 00 20
        E 5 e0 00 20
        E 5 e0 00 20
        E 6 e0 00 20
        E 5 e0 00 20
        E 5 e0 00 20
        E 6 e0 00 20
        E 5 e0 00 20
        E 5 e0 00 20
        E 6 e0 00 20
        E 5 e0 00 20
        E 5 e0 2b 15
        E 6 e0 2b 15
        E 5 e0 2b 15
        E 0 90 2d 00
        E 189 e0 00 20
        E 0 90 28 21
        E 5 e0 00 20
        E 6 e0 00 20
        E 5 e0 00 20
        E 5 e0 00 20
        E 6 e0 00 20
        E 5 e0 00 20
        E 5 e0 00 20
        E 5 e0 00 20
        E 6 e0 00 20
        E 5 e0 00 20
        E 5 e0 00 20
        E 6 e0 00 20
        E 5 e0 00 20
        E 5 e0 00 20
        E 6 e0 00 20
        E 5 e0 00 20
        E 5 e0 00 20
        E 5 e0 00 20
        E 6 e0 00 20
        E 5 e0 00 20
        E 5 e0 00 20
        E 6 e0 00 20
        E 5 e0 00 20
        E 5 e0 2b 15
        E 6 e0 2b 15
        E 5 e0 2b 15
        E 0 90 28 00
        E 199 90 2d 2e
        E 15 90 32 18
        E 72 90 32 00
        E 41 90 2d 00
        E 156 b0 7b 00
        CCINTERP 32
        CHASE_CC_TAKEOFFS 1
        GUID {3673DE90-2408-4C4C-A1E1-458BD6BFD4D7}
        IGNTEMPO 0 120 4 4
        SRCCOLOR 227
      >
    >
  >
  <UINF 133
    <ITEM {E614481E-FB20-49D6-AAE5-3F759AC251CC}
      POSITION 0
      SNAPOFFS 0
      LENGTH 214.5
      LOOP 1
      ALLTAKES 0
      FADEIN 1 0 0 1 0 0 0
      FADEOUT 1 0 0 1 0 0 0
      MUTE 0 0
      SEL 1
      IGUID {E614481E-FB20-49D6-AAE5-3F759AC251CC}
      IID 134
      NAME "Gwyn, Lord of Cinder_basic_pitch.mid"
      VOLPAN 1 0 1 -1
      SOFFS 0 0
      PLAYRATE 1 1 0 -1 0 0.0025
      CHANMODE 0
      GUID {21C3840F-76B9-4CCA-8907-CE12D2A6F882}
      <SOURCE MIDI
        HASDATA 1 220 QN
        CCINTERP 32
        POOLEDEVTS {7B63AA91-2331-416D-954D-D71A8642F8D2}
        E 0 c0 04 00
        E 143 90 3c 59
        E 0 90 41 49
        E 5 90 2d 50
        E 107 90 2d 00
        E 0 90 2d 3e
        E 0 90 34 4c
        E 0 90 3b 4b
        E 0 90 3c 00
        E 92 90 34 00
        E 0 90 34 30
        E 16 90 3b 00
        E 0 90 41 00
        E 0 90 41 43
        E 5 90 2d 00
        E 0 90 2d 37
        E 10 90 39 42
        E 0 90 3c 50
        E 0 90 45 35
        E 0 90 4c 3a
        E 0 90 58 47
        E 97 90 28 37
        E 10 90 3b 3e
        E 0 90 3c 00
        E 0 90 4c 00
        E 62 90 34 00
        E 0 90 58 00
        E 25 90 28 00
        E 0 90 45 00
        E 15 90 3b 00
        E 11 90 4a 42
        E 0 90 56 38
        E 5 90 3c 45
        E 0 90 41 00
        E 0 90 41 3a
        E 5 90 45 37
        E 31 90 28 2e
        E 66 90 39 00
        E 0 90 56 00
        E 10 90 3b 47
        E 0 90 3c 00
        E 107 90 4a 00
        E 6 90 2d 00
        E 0 90 2d 40
        E 0 90 3b 00
        E 5 90 3c 39
        E 10 90 41 00
        E 0 90 41 2f
        E 0 90 45 00
        E 0 90 45 47
        E 0 90 51 2b
        E 87 90 51 00
        E 11 90 28 00
        E 0 90 39 24
        E 5 90 28 32
        E 0 90 34 29
        E 0 90 3b 2f
        E 0 90 3c 00
        E 66 90 34 00
        E 0 90 3b 00
        E 46 90 2d 00
        E 0 90 2d 40
        E 0 90 3c 33
        E 0 90 41 00
        E 0 90 41 44
        E 5 90 39 00
        E 5 90 39 30
        E 5 90 45 00
        E 0 90 45 36
        E 97 90 3b 39
        E 0 90 3c 00
        E 118 90 3b 00
        E 0 90 3c 43
        E 5 90 41 00
        E 0 90 41 39
        E 0 90 45 00
        E 87 90 39 00
        E 20 90 3b 45
        E 0 90 3c 00
        E 5 90 45 32
        E 92 90 45 00
        E 26 90 3b 00
        E 0 90 3c 4c
        E 0 90 41 00
        E 0 90 41 40
        E 51 90 28 00
        E 0 90 2d 00
        E 0 90 2d 39
        E 56 90 28 36
        E 0 90 34 2b
        E 10 90 3b 40
        E 0 90 3c 00
        E 92 90 3b 00
        E 16 90 41 00
        E 0 90 41 3c
        E 16 90 39 3a
        E 0 90 3c 4f
        E 0 90 45 31
        E 0 90 4c 35
        E 0 90 58 43
        E 91 90 3b 42
        E 0 90 3c 00
        E 11 90 4c 00
        E 46 90 2d 00
        E 5 90 34 00
        E 30 90 3b 00
        E 21 90 58 00
        E 5 90 3c 45
        E 5 90 41 00
        E 0 90 41 32
        E 0 90 4a 3a
        E 0 90 56 33
        E 26 90 2d 34
        E 40 90 39 00
        E 31 90 3b 41
        E 0 90 3c 00
        E 87 90 45 00
        E 20 90 41 00
        E 0 90 56 00
        E 11 90 2d 00
        E 5 90 2d 54
        E 0 90 4f 3c
        E 5 90 41 2a
        E 20 90 28 00
        E 0 90 3b 00
        E 0 90 3c 4a
        E 0 90 5b 2d
        E 56 90 41 00
        E 26 90 34 2b
        E 0 90 3b 38
        E 0 90 3c 00
        E 15 90 28 34
        E 51 90 34 00
        E 31 90 3b 00
        E 15 90 3c 41
        E 0 90 41 3c
        E 6 90 4a 00
        E 0 90 4f 00
        E 5 90 2d 00
        E 0 90 2d 3e
        E 0 90 39 3e
        E 0 90 45 34
        E 25 90 5b 00
        E 82 90 3b 3d
        E 0 90 3c 00
        E 92 90 3b 00
        E 6 90 45 00
        E 10 90 3c 48
        E 5 90 39 00
        E 0 90 39 30
        E 0 90 41 00
        E 0 90 41 49
        E 0 90 4d 37
        E 82 90 39 00
        E 15 90 4d 00
        E 20 90 3b 49
        E 0 90 3c 00
        E 87 90 28 00
        E 5 90 41 00
        E 16 90 2d 00
        E 0 90 2d 4a
        E 0 90 4c 39
        E 0 90 58 3e
        E 5 90 39 31
        E 0 90 40 2f
        E 0 90 43 31
        E 5 90 3e 30
        E 10 90 3b 00
        E 61 90 40 00
        E 31 90 3c 40
        E 5 90 34 37
        E 0 90 4c 00
        E 5 90 43 00
        E 5 90 58 00
        E 21 90 3e 00
        E 66 90 34 00
        E 10 90 28 29
        E 11 90 3e 42
        E 0 90 43 3d
        E 5 90 39 00
        E 0 90 39 3b
        E 5 90 2d 00
        E 0 90 2d 3e
        E 41 90 28 00
        E 56 90 3c 00
        E 0 90 3c 40
        E 10 90 43 00
        E 21 90 48 29
        E 91 90 43 34
        E 6 90 3e 00
        E 0 90 3e 3b
        E 56 90 48 00
        E 36 90 3c 00
        E 0 90 3c 42
        E 61 90 39 00
        E 57 90 2d 00
        E 0 90 2d 4d
        E 0 90 39 26
        E 0 90 43 00
        E 0 90 43 3c
        E 5 90 3e 00
        E 0 90 3e 3f
        E 81 90 39 00
        E 6 90 3e 00
        E 15 90 34 2c
        E 0 90 43 00
        E 5 90 3c 00
        E 0 90 3c 40
        E 71 90 3e 3d
        E 31 90 34 00
        E 15 90 43 36
        E 6 90 2d 00
        E 0 90 2d 41
        E 0 90 39 38
        E 107 90 3c 00
        E 0 90 3c 3a
        E 20 90 43 00
        E 97 90 3e 00
        E 5 90 3e 44
        E 0 90 43 37
        E 26 90 39 00
        E 77 90 3c 00
        E 0 90 3c 46
        E 10 90 3e 00
        E 0 90 3e 3d
        E 20 90 43 00
        E 87 90 2d 00
        E 0 90 2d 52
        E 0 90 3c 00
        E 0 90 3c 33
        E 0 90 43 36
        E 5 90 3e 00
        E 0 90 3e 52
        E 62 90 3e 00
        E 0 90 3e 45
        E 45 90 3c 00
        E 0 90 3c 39
        E 6 90 34 2d
        E 77 90 28 2e
        E 36 90 2d 00
        E 0 90 2d 44
        E 0 90 43 00
        E 0 90 43 3d
        E 5 90 3e 00
        E 0 90 3e 4e
        E 102 90 3c 00
        E 0 90 3c 46
        E 0 90 48 2a
        E 5 90 3e 00
        E 0 90 3e 43
        E 20 90 34 00
        E 0 90 43 00
        E 21 90 39 2e
        E 30 90 28 00
        E 36 90 3e 00
        E 0 90 3e 58
        E 0 90 43 3a
        E 113 90 3c 00
        E 0 90 3c 48
        E 0 90 3e 00
        E 0 90 3e 45
        E 0 90 48 00
        E 0 90 48 31
        E 61 90 39 00
        E 51 90 43 00
        E 0 90 43 43
        E 5 90 2d 00
        E 0 90 2d 4d
        E 0 90 3c 00
        E 0 90 3c 30
        E 0 90 3e 00
        E 0 90 3e 3f
        E 87 90 28 2a
        E 10 90 34 39
        E 10 90 3c 00
        E 0 90 3c 38
        E 11 90 43 00
        E 30 90 48 00
        E 16 90 28 00
        E 61 90 43 41
        E 5 90 2d 00
        E 0 90 2d 48
        E 0 90 39 3a
        E 0 90 3e 00
        E 0 90 3e 51
        E 92 90 28 29
        E 11 90 3e 00
        E 0 90 3e 4c
        E 0 90 48 2e
        E 5 90 3c 00
        E 0 90 3c 3d
        E 30 90 43 00
        E 46 90 28 00
        E 11 90 34 00
        E 5 90 48 00
        E 15 90 43 41
        E 5 90 39 00
        E 0 90 39 36
        E 0 90 3e 00
        E 0 90 3e 4b
        E 26 90 30 27
        E 66 90 39 00
        E 15 90 30 00
        E 0 90 3c 00
        E 0 90 3c 47
        E 0 90 48 2b
        E 6 90 30 29
        E 5 90 3e 00
        E 0 90 3e 41
        E 35 90 43 00
        E 31 90 30 00
        E 21 90 48 00
        E 10 90 41 46
        E 5 90 2d 00
        E 0 90 2d 40
        E 5 90 3c 00
        E 0 90 3c 46
        E 15 90 3e 00
        E 87 90 28 2e
        E 10 90 34 38
        E 0 90 3b 43
        E 0 90 3c 00
        E 26 90 41 00
        E 71 90 34 00
        E 0 90 3b 00
        E 21 90 41 2e
        E 5 90 2d 00
        E 0 90 2d 36
        E 0 90 39 41
        E 0 90 3c 3e
        E 0 90 45 34
        E 5 90 4c 3a
        E 0 90 58 43
        E 31 90 34 29
        E 66 90 3b 40
        E 0 90 3c 00
        E 21 90 4c 00
        E 40 90 34 00
        E 6 90 2d 00
        E 10 90 58 00
        E 5 90 28 00
        E 10 90 3b 00
        E 26 90 3c 3e
        E 0 90 41 00
        E 0 90 41 3c
        E 5 90 28 2e
        E 0 90 45 00
        E 0 90 45 2d
        E 0 90 4a 46
        E 0 90 56 30
        E 30 90 2d 31
        E 16 90 39 00
        E 51 90 3b 3b
        E 0 90 3c 00
        E 16 90 56 00
        E 20 90 45 00
        E 51 90 28 00
        E 26 90 2d 00
        E 0 90 4a 00
        E 5 90 2d 45
        E 5 90 41 00
        E 0 90 41 38
        E 5 90 3b 00
        E 0 90 3c 38
        E 0 90 45 49
        E 0 90 51 38
        E 15 90 28 2e
        E 72 90 51 00
        E 15 90 4a 34
        E 5 90 28 00
        E 0 90 28 36
        E 0 90 3b 30
        E 0 90 3c 00
        E 92 90 3b 00
        E 26 90 4a 00
        E 5 90 39 2f
        E 0 90 3c 38
        E 0 90 41 00
        E 0 90 41 36
        E 0 90 45 00
        E 0 90 45 2f
        E 5 90 2d 00
        E 0 90 2d 3e
        E 77 90 3c 00
        E 25 90 3b 3e
        E 102 90 28 00
        E 0 90 3b 00
        E 5 90 3c 41
        E 0 90 41 00
        E 0 90 41 46
        E 62 90 39 00
        E 51 90 3b 36
        E 0 90 3c 00
        E 41 90 2d 00
        E 10 90 28 29
        E 41 90 45 00
        E 20 90 3b 00
        E 0 90 41 00
        E 0 90 41 3b
        E 5 90 3c 31
        E 21 90 2d 38
        E 57 90 28 00
        E 20 90 28 35
        E 0 90 3c 00
        E 5 90 3b 39
        E 97 90 3b 00
        E 21 90 3c 46
        E 0 90 41 00
        E 0 90 41 3a
        E 10 90 45 37
        E 0 90 4c 34
        E 0 90 58 4b
        E 5 90 39 3d
        E 87 90 4c 00
        E 5 90 28 00
        E 0 90 28 3f
        E 5 90 3b 33
        E 0 90 3c 00
        E 97 90 28 00
        E 5 90 3b 00
        E 0 90 58 00
        E 21 90 3c 35
        E 5 90 28 31
        E 0 90 41 00
        E 0 90 41 39
        E 0 90 45 00
        E 0 90 45 2f
        E 0 90 4a 41
        E 0 90 56 3d
        E 20 90 39 00
        E 41 90 45 00
        E 31 90 28 00
        E 0 90 28 37
        E 0 90 3c 00
        E 5 90 3b 34
        E 0 90 56 00
        E 112 90 3b 00
        E 5 90 2d 00
        E 0 90 2d 4f
        E 0 90 3c 42
        E 0 90 41 00
        E 0 90 41 2c
        E 0 90 4f 3e
        E 21 90 5b 34
        E 61 90 4a 00
        E 15 90 28 00
        E 0 90 28 39
        E 5 90 5b 00
        E 6 90 34 31
        E 5 90 2d 00
        E 0 90 2d 49
        E 30 90 41 00
        E 56 90 4f 00
        E 11 90 3c 00
        E 0 90 3c 3a
        E 10 90 41 37
        E 5 90 39 3a
        E 0 90 45 2e
        E 5 90 2d 00
        E 0 90 2d 3d
        E 98 90 3b 38
        E 0 90 3c 00
        E 10 90 45 00
        E 66 90 3b 00
        E 5 90 34 00
        E 36 90 3c 41
        E 5 90 41 00
        E 0 90 41 49
        E 5 90 39 00
        E 0 90 39 33
        E 0 90 4d 3f
        E 98 90 39 00
        E 10 90 3b 42
        E 0 90 3c 00
        E 0 90 4d 00
        E 112 90 2d 00
        E 0 90 2d 48
        E 0 90 43 30
        E 5 90 3b 00
        E 0 90 3e 30
        E 0 90 40 29
        E 0 90 41 00
        E 0 90 4c 36
        E 0 90 58 39
        E 5 90 3c 2d
        E 26 90 28 00
        E 66 90 28 2f
        E 5 90 34 31
        E 11 90 43 00
        E 5 90 3c 00
        E 0 90 3c 3c
        E 0 90 40 00
        E 5 90 58 00
        E 102 90 39 3c
        E 5 90 2d 00
        E 0 90 2d 48
        E 0 90 3e 00
        E 0 90 3e 41
        E 0 90 43 31
        E 0 90 4c 00
        E 112 90 3c 00
        E 0 90 3c 47
        E 11 90 43 00
        E 20 90 28 00
        E 82 90 34 00
        E 6 90 43 36
        E 0 90 48 2e
        E 5 90 3e 00
        E 0 90 3e 39
        E 81 90 48 00
        E 26 90 3c 00
        E 0 90 3c 43
        E 5 90 39 00
        E 0 90 39 2f
        E 61 90 39 00
        E 41 90 2d 00
        E 0 90 2d 4b
        E 0 90 43 00
        E 0 90 43 3b
        E 10 90 3e 00
        E 0 90 3e 4c
        E 6 90 3c 00
        E 91 90 3c 42
        E 6 90 34 3a
        E 0 90 48 27
        E 46 90 43 00
        E 40 90 34 00
        E 16 90 48 00
        E 15 90 2d 00
        E 0 90 2d 43
        E 0 90 3c 00
        E 0 90 3c 33
        E 0 90 43 39
        E 5 90 39 36
        E 0 90 3e 00
        E 0 90 3e 4a
        E 102 90 3c 00
        E 0 90 3c 39
        E 0 90 3e 00
        E 0 90 3e 40
        E 0 90 48 30
        E 118 90 43 00
        E 0 90 43 3b
        E 0 90 48 00
        E 0 90 48 32
        E 5 90 3e 00
        E 0 90 3e 4e
        E 112 90 3c 00
        E 0 90 3c 44
        E 0 90 48 00
        E 0 90 48 2a
        E 62 90 48 00
        E 5 90 43 00
        E 31 90 39 00
        E 0 90 39 32
        E 0 90 3e 00
        E 5 90 2d 00
        E 0 90 2d 48
        E 5 90 3c 00
        E 0 90 3c 38
        E 0 90 40 3d
        E 0 90 45 3b
        E 5 90 58 37
        E 82 90 40 00
        E 15 90 58 00
        E 5 90 3e 31
        E 6 90 34 39
        E 0 90 3c 00
        E 107 90 45 00
        E 0 90 45 47
        E 5 90 2d 00
        E 0 90 2d 3f
        E 0 90 34 00
        E 0 90 34 34
        E 0 90 39 00
        E 0 90 39 3e
        E 0 90 40 33
        E 97 90 40 00
        E 10 90 3e 00
        E 0 90 3e 48
        E 118 90 40 39
        E 0 90 45 00
        E 0 90 45 42
        E 5 90 39 00
        E 0 90 39 33
        E 36 90 34 00
        E 71 90 3e 00
        E 0 90 3e 38
        E 61 90 39 00
        E 46 90 2d 00
        E 0 90 2d 54
        E 5 90 40 00
        E 0 90 40 39
        E 0 90 45 00
        E 0 90 45 3e
        E 108 90 34 3a
        E 5 90 28 2d
        E 0 90 3e 00
        E 0 90 3e 39
        E 25 90 40 00
        E 78 90 2d 00
        E 0 90 2d 4c
        E 0 90 45 00
        E 0 90 45 3f
        E 5 90 39 41
        E 0 90 40 38
        E 107 90 3e 00
        E 0 90 3e 4a
        E 0 90 40 00
        E 82 90 34 00
        E 10 90 28 00
        E 36 90 2d 00
        E 0 90 2d 41
        E 0 90 34 2b
        E 0 90 39 00
        E 0 90 39 31
        E 0 90 40 35
        E 0 90 45 00
        E 0 90 45 46
        E 5 90 51 42
        E 56 90 34 00
        E 46 90 51 00
        E 5 90 3e 00
        E 0 90 3e 42
        E 0 90 45 00
        E 0 90 45 2d
        E 21 90 40 00
        E 97 90 2d 00
        E 0 90 2d 51
        E 0 90 39 00
        E 5 90 41 40
        E 0 90 47 35
        E 0 90 4c 44
        E 5 90 58 39
        E 46 90 3e 00
        E 10 90 45 00
        E 0 90 47 00
        E 26 90 4c 00
        E 10 90 34 48
        E 5 90 40 44
        E 0 90 41 00
        E 107 90 40 00
        E 0 90 41 4a
        E 5 90 2d 00
        E 0 90 2d 4e
        E 0 90 34 00
        E 0 90 34 3b
        E 0 90 39 3b
        E 87 90 45 2c
        E 15 90 58 00
        E 6 90 40 40
        E 0 90 41 00
        E 87 90 45 00
        E 25 90 34 00
        E 0 90 34 39
        E 0 90 40 00
        E 0 90 40 31
        E 0 90 47 41
        E 57 90 39 00
        E 41 90 34 00
        E 0 90 34 3a
        E 5 90 40 00
        E 0 90 40 50
        E 56 90 47 00
        E 41 90 34 00
        E 20 90 47 33
        E 5 90 2d 00
        E 0 90 2d 54
        E 5 90 4c 2c
        E 5 90 40 00
        E 0 90 40 38
        E 0 90 58 41
        E 67 90 28 24
        E 10 90 47 00
        E 10 90 2d 00
        E 0 90 2d 46
        E 0 90 34 3b
        E 5 90 4c 00
        E 46 90 40 00
        E 0 90 41 2a
        E 26 90 28 00
        E 31 90 34 00
        E 0 90 58 00
        E 10 90 41 00
        E 5 90 2d 00
        E 0 90 2d 42
        E 0 90 39 3e
        E 0 90 41 48
        E 0 90 47 34
        E 5 90 45 28
        E 0 90 4d 3a
        E 5 90 34 2b
        E 10 90 28 2b
        E 62 90 45 00
        E 25 90 40 36
        E 0 90 41 00
        E 26 90 4d 00
        E 51 90 47 00
        E 5 90 28 00
        E 5 90 34 00
        E 15 90 39 00
        E 11 90 4f 41
        E 5 90 2d 00
        E 0 90 2d 52
        E 0 90 40 00
        E 0 90 41 35
        E 5 90 48 45
        E 36 90 39 2b
        E 61 90 40 2d
        E 0 90 41 00
        E 21 90 39 00
        E 61 90 40 00
        E 26 90 41 41
        E 5 90 2d 00
        E 0 90 2d 58
        E 0 90 4a 32
        E 5 90 4c 34
        E 10 90 48 00
        E 15 90 58 3e
        E 41 90 4c 00
        E 16 90 40 35
        E 0 90 41 00
        E 0 90 4a 00
        E 5 90 34 3a
        E 25 90 4f 00
        E 67 90 58 00
        E 10 90 40 00
        E 10 90 34 00
        E 5 90 41 48
        E 5 90 2d 00
        E 0 90 2d 4f
        E 0 90 39 3b
        E 97 90 40 38
        E 0 90 41 00
        E 46 90 4a 25
        E 62 90 4a 00
        E 5 90 4a 33
        E 10 90 40 00
        E 0 90 41 49
        E 20 90 28 2e
        E 41 90 39 00
        E 41 90 40 43
        E 0 90 41 00
        E 67 90 28 00
        E 20 90 4a 00
        E 26 90 48 38
        E 5 90 2d 00
        E 0 90 2d 51
        E 5 90 40 00
        E 97 90 34 31
        E 0 90 40 2e
        E 67 90 40 00
        E 25 90 28 2c
        E 21 90 39 2f
        E 0 90 45 1f
        E 0 90 48 00
        E 0 90 48 2c
        E 0 90 4a 32
        E 0 90 56 49
        E 61 90 45 00
        E 66 90 56 00
        E 6 90 41 2b
        E 10 90 4a 00
        E 56 90 39 00
        E 5 90 34 00
        E 21 90 48 00
        E 0 90 48 50
        E 5 90 41 00
        E 5 90 41 44
        E 112 90 40 3d
        E 0 90 41 00
        E 72 90 28 00
        E 15 90 40 00
        E 20 90 41 30
        E 0 90 47 3f
        E 0 90 48 00
        E 6 90 2d 00
        E 0 90 2d 42
        E 15 90 53 3e
        E 66 90 41 00
        E 5 90 47 00
        E 21 90 34 3e
        E 5 90 40 37
        E 10 90 53 00
        E 87 90 40 00
        E 5 90 28 2e
        E 10 90 41 4b
        E 0 90 47 39
        E 11 90 39 42
        E 0 90 45 27
        E 66 90 28 00
        E 6 90 47 00
        E 15 90 39 00
        E 0 90 39 2f
        E 5 90 34 00
        E 0 90 34 38
        E 0 90 40 45
        E 0 90 41 00
        E 51 90 45 00
        E 15 90 28 27
        E 46 90 40 00
        E 0 90 41 57
        E 6 90 34 00
        E 0 90 34 2f
        E 0 90 47 3c
        E 71 90 28 00
        E 0 90 39 00
        E 31 90 40 57
        E 0 90 41 00
        E 92 90 34 00
        E 10 90 2d 00
        E 0 90 2d 47
        E 5 90 31 2a
        E 5 90 40 00
        E 0 90 41 46
        E 5 90 47 00
        E 0 90 47 3a
        E 56 90 31 00
        E 41 90 34 39
        E 0 90 47 00
        E 92 90 34 00
        E 16 90 28 29
        E 0 90 41 00
        E 0 90 41 4f
        E 5 90 34 2b
        E 0 90 39 35
        E 0 90 45 25
        E 66 90 28 00
        E 41 90 45 00
        E 5 90 34 00
        E 0 90 34 30
        E 0 90 40 3f
        E 0 90 41 00
        E 72 90 34 00
        E 40 90 40 00
        E 0 90 41 49
        E 0 90 48 40
        E 6 90 45 27
        E 77 90 45 00
        E 20 90 2d 00
        E 0 90 2d 45
        E 0 90 40 4a
        E 0 90 41 00
        E 87 90 39 00
        E 20 90 40 00
        E 0 90 41 4d
        E 6 90 2d 00
        E 0 90 2d 51
        E 0 90 4a 35
        E 20 90 48 00
        E 71 90 28 29
        E 0 90 2d 00
        E 0 90 2d 4f
        E 6 90 34 2a
        E 5 90 40 38
        E 0 90 41 00
        E 5 90 4a 00
        E 71 90 34 00
        E 36 90 2d 00
        E 0 90 2d 45
        E 0 90 40 00
        E 0 90 41 41
        E 0 90 4a 31
        E 5 90 39 30
        E 0 90 45 26
        E 97 90 45 00
        E 5 90 34 2e
        E 0 90 39 00
        E 0 90 39 33
        E 0 90 40 36
        E 0 90 41 00
        E 67 90 28 00
        E 30 90 34 00
        E 0 90 40 00
        E 21 90 41 52
        E 0 90 4a 00
        E 0 90 4a 39
        E 41 90 28 2a
        E 41 90 4a 00
        E 0 90 4a 3c
        E 20 90 40 4e
        E 0 90 41 00
        E 36 90 39 00
        E 30 90 28 00
        E 36 90 4a 00
        E 5 90 39 31
        E 0 90 4c 40
        E 10 90 40 00
        E 0 90 41 2f
        E 6 90 2d 00
        E 0 90 2d 5b
        E 51 90 4c 00
        E 10 90 39 00
        E 5 90 41 00
        E 21 90 40 41
        E 5 90 34 3a
        E 107 90 40 00
        E 0 90 41 4c
        E 6 90 2d 00
        E 0 90 2d 4f
        E 5 90 39 47
        E 0 90 45 25
        E 66 90 45 00
        E 41 90 2d 00
        E 0 90 2d 4a
        E 0 90 40 2f
        E 0 90 41 00
        E 97 90 34 00
        E 15 90 51 3d
        E 5 90 39 00
        E 0 90 39 35
        E 0 90 45 40
        E 41 90 40 00
        E 0 90 40 35
        E 16 90 51 00
        E 46 90 40 00
        E 0 90 40 4e
        E 25 90 51 30
        E 56 90 4c 33
        E 16 90 51 00
        E 20 90 2d 00
        E 0 90 2d 47
        E 0 90 39 00
        E 0 90 39 36
        E 0 90 58 44
        E 5 90 40 00
        E 0 90 41 39
        E 31 90 45 00
        E 20 90 4c 00
        E 36 90 28 2a
        E 5 90 40 4e
        E 0 90 41 00
        E 5 90 34 3f
        E 0 90 58 00
        E 62 90 28 00
        E 51 90 40 00
        E 0 90 41 4e
        E 0 90 4c 21
        E 5 90 39 00
        E 0 90 39 30
        E 10 90 45 31
        E 46 90 4c 00
        E 46 90 34 00
        E 0 90 34 37
        E 0 90 40 48
        E 0 90 41 00
        E 26 90 45 00
        E 10 90 28 26
        E 77 90 39 00
        E 0 90 39 3d
        E 0 90 4c 2f
        E 5 90 40 00
        E 0 90 41 53
        E 36 90 28 00
        E 35 90 34 00
        E 26 90 2d 00
        E 0 90 2d 48
        E 0 90 40 3f
        E 0 90 41 00
        E 102 90 39 00
        E 0 90 39 30
        E 5 90 4c 00
        E 0 90 4c 4d
        E 0 90 58 41
        E 21 90 2d 00
        E 0 90 2d 3c
        E 0 90 40 00
        E 0 90 41 44
        E 71 90 39 00
        E 16 90 40 48
        E 0 90 41 00
        E 5 90 34 37
        E 0 90 58 00
        E 10 90 4c 00
        E 61 90 34 00
        E 26 90 4d 41
        E 5 90 40 00
        E 0 90 41 43
        E 10 90 39 44
        E 5 90 45 2a
        E 10 90 2d 00
        E 0 90 2d 49
        E 92 90 40 3e
        E 0 90 41 00
        E 36 90 45 00
        E 46 90 4d 00
        E 15 90 40 00
        E 16 90 4f 47
        E 10 90 39 00
        E 0 90 39 36
        E 0 90 40 29
        E 0 90 4c 30
        E 82 90 4c 00
        E 16 90 40 00
        E 0 90 40 36
        E 86 90 39 00
        E 5 90 39 2d
        E 11 90 2d 00
        E 0 90 2d 57
        E 0 90 4a 2d
        E 10 90 40 00
        E 0 90 40 26
        E 0 90 4c 3a
        E 5 90 58 45
        E 61 90 4c 00
        E 5 90 39 00
        E 16 90 2d 00
        E 0 90 2d 4f
        E 0 90 40 00
        E 0 90 40 38
        E 0 90 4a 00
        E 15 90 34 33
        E 36 90 4f 00
        E 56 90 34 00
        E 10 90 4a 32
        E 10 90 2d 00
        E 0 90 2d 4d
        E 0 90 40 00
        E 0 90 40 36
        E 6 90 45 2e
        E 25 90 58 00
        E 67 90 2d 00
        E 0 90 2d 3d
        E 0 90 34 2a
        E 0 90 40 00
        E 0 90 40 4c
        E 10 90 28 2e
        E 71 90 28 00
        E 5 90 34 00
        E 26 90 4a 00
        E 0 90 4a 3a
        E 10 90 40 00
        E 0 90 41 4b
        E 15 90 45 00
        E 16 90 39 2d
        E 61 90 28 34
        E 5 90 40 52
        E 0 90 41 00
        E 36 90 39 00
        E 36 90 28 00
        E 41 90 47 44
        E 5 90 2d 00
        E 0 90 2d 53
        E 0 90 40 00
        E 0 90 41 40
        E 25 90 4a 00
        E 62 90 28 26
        E 5 90 34 48
        E 0 90 40 3e
        E 0 90 41 00
        E 5 90 47 00
        E 77 90 28 00
        E 5 90 40 00
        E 26 90 41 56
        E 0 90 4d 30
        E 5 90 34 00
        E 0 90 34 35
        E 0 90 47 35
        E 5 90 2d 00
        E 0 90 2d 4f
        E 0 90 39 2d
        E 71 90 4d 00
        E 46 90 40 30
        E 0 90 41 00
        E 16 90 47 00
        E 51 90 40 00
        E 20 90 4f 49
        E 10 90 41 4c
        E 0 90 47 35
        E 113 90 40 30
        E 0 90 41 00
        E 56 90 39 00
        E 10 90 47 00
        E 15 90 34 00
        E 0 90 40 00
        E 26 90 2d 00
        E 0 90 2d 56
        E 0 90 41 36
        E 5 90 51 30
        E 0 90 5d 35
        E 56 90 4f 00
        E 41 90 34 38
        E 5 90 40 34
        E 0 90 41 00
        E 36 90 5d 00
        E 51 90 40 00
        E 26 90 2d 00
        E 0 90 2d 52
        E 0 90 39 31
        E 0 90 41 37
        E 0 90 48 3a
        E 0 90 51 00
        E 108 90 34 00
        E 0 90 34 33
        E 0 90 41 00
        E 5 90 40 37
        E 112 90 40 00
        E 0 90 41 4b
        E 5 90 48 00
        E 0 90 48 35
        E 72 90 34 00
        E 30 90 34 2c
        E 0 90 40 43
        E 0 90 41 00
        E 26 90 39 00
        E 20 90 48 00
        E 21 90 34 00
        E 10 90 51 30
        E 20 90 40 00
        E 11 90 5d 36
        E 5 90 31 26
        E 5 90 41 4e
        E 5 90 2d 00
        E 0 90 2d 4e
        E 20 90 51 00
        E 41 90 31 00
        E 31 90 34 2f
        E 5 90 2d 00
        E 0 90 2d 45
        E 5 90 40 33
        E 0 90 41 00
        E 5 90 5d 00
        E 51 90 34 00
        E 36 90 40 00
        E 0 90 48 32
        E 0 90 4f 49
        E 5 90 5b 26
        E 5 90 41 3b
        E 10 90 39 33
        E 72 90 5b 00
        E 31 90 2d 00
        E 0 90 2d 46
        E 5 90 40 36
        E 0 90 41 00
        E 81 90 39 00
        E 6 90 4f 00
        E 10 90 40 00
        E 0 90 4d 30
        E 25 90 41 51
        E 0 90 48 00
        E 0 90 48 42
        E 93 90 4d 00
        E 10 90 40 3e
        E 0 90 41 00
        E 102 90 2d 00
        E 0 90 4c 3d
        E 5 90 58 44
        E 5 90 39 28
        E 6 90 40 00
        E 0 90 41 34
        E 5 90 47 34
        E 0 90 48 00
        E 10 90 2d 49
        E 76 90 39 00
        E 0 90 47 00
        E 11 90 41 00
        E 5 90 34 34
        E 0 90 4c 00
        E 5 90 40 39
        E 31 90 28 2c
        E 86 90 2d 00
        E 0 90 2d 47
        E 0 90 40 00
        E 0 90 41 49
        E 0 90 45 2c
        E 6 90 39 39
        E 35 90 58 00
        E 16 90 28 00
        E 46 90 45 00
        E 5 90 34 00
        E 0 90 34 2f
        E 5 90 40 3d
        E 0 90 41 00
        E 71 90 39 00
        E 36 90 39 26
        E 0 90 47 32
        E 5 90 40 00
        E 0 90 40 38
        E 56 90 39 00
        E 11 90 34 00
        E 40 90 40 00
        E 0 90 40 41
        E 118 90 2d 00
        E 0 90 2d 4d
        E 0 90 40 00
        E 0 90 41 4e
        E 0 90 47 00
        E 0 90 47 3b
        E 77 90 47 00
        E 21 90 34 48
        E 5 90 39 2a
        E 0 90 40 40
        E 0 90 41 00
        E 112 90 40 00
        E 0 90 41 55
        E 5 90 2d 00
        E 0 90 2d 49
        E 0 90 39 00
        E 0 90 39 40
        E 97 90 34 00
        E 0 90 34 3c
        E 5 90 40 3f
        E 0 90 41 00
        E 118 90 34 00
        E 0 90 34 34
        E 0 90 40 00
        E 0 90 41 53
        E 5 90 47 36
        E 61 90 47 00
        E 36 90 28 2d
        E 5 90 39 00
        E 0 90 39 2c
        E 0 90 40 4d
        E 0 90 41 00
        E 5 90 2d 00
        E 0 90 2d 45
        E 0 90 34 00
        E 0 90 34 3e
        E 72 90 39 00
        E 5 90 28 00
        E 25 90 34 00
        E 6 90 2d 00
        E 0 90 2d 48
        E 0 90 3c 49
        E 0 90 40 00
        E 0 90 41 45
        E 112 90 28 31
        E 10 90 34 2d
        E 0 90 3b 3d
        E 0 90 3c 00
        E 102 90 3b 00
        E 5 90 28 00
        E 0 90 28 33
        E 5 90 39 26
        E 0 90 3c 53
        E 0 90 41 00
        E 0 90 41 37
        E 0 90 45 3b
        E 0 90 58 48
        E 73 90 34 00
        E 20 90 3b 3d
        E 0 90 3c 00
        E 77 90 45 00
        E 15 90 58 00
        E 5 90 39 00
        E 5 90 3b 00
        E 16 90 3c 41
        E 0 90 41 00
        E 0 90 41 4b
        E 0 90 56 3b
        E 51 90 45 31
        E 46 90 28 00
        E 0 90 28 37
        E 5 90 3b 47
        E 0 90 3c 00
        E 87 90 45 00
        E 5 90 28 00
        E 10 90 56 00
        E 15 90 41 00
        E 0 90 41 36
        E 5 90 3b 00
        E 0 90 3c 45
        E 5 90 2d 00
        E 0 90 2d 43
        E 0 90 51 42
        E 97 90 28 33
        E 0 90 34 2f
        E 11 90 3b 42
        E 0 90 3c 00
        E 5 90 51 00
        E 0 90 51 33
        E 66 90 51 00
        E 31 90 3b 00
        E 5 90 41 00
        E 0 90 41 47
        E 5 90 2d 00
        E 0 90 2d 3e
        E 0 90 3c 3d
        E 5 90 39 36
        E 0 90 45 2f
        E 97 90 28 00
        E 0 90 28 36
        E 5 90 3b 3b
        E 0 90 3c 00
        E 102 90 3b 00
        E 11 90 3c 48
        E 0 90 41 00
        E 0 90 41 42
        E 56 90 45 00
        E 16 90 28 00
        E 0 90 39 00
        E 5 90 34 00
        E 25 90 3c 00
        E 6 90 3b 53
        E 20 90 28 2a
        E 56 90 2d 00
        E 0 90 2d 40
        E 36 90 3b 00
        E 0 90 3c 2b
        E 0 90 43 30
        E 5 90 3e 35
        E 10 90 41 00
        E 21 90 2d 00
        E 0 90 2d 47
        E 10 90 28 00
        E 20 90 43 00
        E 36 90 34 3c
        E 5 90 3c 00
        E 0 90 3c 43
        E 97 90 34 00
        E 21 90 3c 00
        E 0 90 3c 46
        E 0 90 43 37
        E 10 90 3e 00
        E 0 90 3e 3f
        E 5 90 39 37
        E 0 90 58 44
        E 15 90 21 33
        E 5 90 34 31
        E 77 90 3c 00
        E 0 90 3c 46
        E 5 90 21 00
        E 36 90 43 00
        E 20 90 58 00
        E 5 90 34 00
        E 46 90 43 3b
        E 6 90 56 39
        E 5 90 3e 00
        E 0 90 3e 4a
        E 51 90 39 00
        E 25 90 56 00
        E 21 90 3c 00
        E 0 90 3c 4b
        E 112 90 3c 00
        E 0 90 3c 41
        E 1 90 2d 00
        E 0 90 2d 4f
        E 10 90 3e 00
        E 0 90 3e 3d
        E 0 90 5b 3f
        E 5 90 43 00
        E 0 90 43 41
        E 92 90 34 3b
        E 0 90 5b 00
        E 5 90 3c 00
        E 0 90 3c 41
        E 5 90 43 00
        E 0 90 48 2e
        E 113 90 43 42
        E 5 90 2d 00
        E 0 90 2d 43
        E 0 90 39 36
        E 0 90 3e 00
        E 0 90 3e 4e
        E 97 90 3c 00
        E 0 90 3c 3f
        E 56 90 48 00
        E 46 90 34 00
        E 10 90 43 00
        E 0 90 43 44
        E 10 90 3e 00
        E 0 90 3e 50
        E 5 90 59 34
        E 72 90 59 00
        E 26 90 3c 00
        E 0 90 3c 4d
        E 0 90 43 00
        E 0 90 43 39
        E 0 90 48 2a
        E 10 90 3e 00
        E 0 90 3e 3b
        E 56 90 48 00
        E 5 90 39 00
        E 20 90 43 00
        E 16 90 41 37
        E 15 90 2d 00
        E 0 90 2d 30
        E 5 90 3c 00
        E 0 90 3c 42
        E 0 90 58 3f
        E 26 90 3e 00
        E 56 90 28 33
        E 5 90 34 28
        E 10 90 3b 35
        E 0 90 3c 00
        E 62 90 34 00
        E 25 90 3b 00
        E 16 90 41 00
        E 0 90 41 3d
        E 5 90 3c 3c
        E 5 90 39 2e
        E 0 90 45 34
        E 31 90 3e 29
        E 41 90 2d 00
        E 5 90 58 00
        E 15 90 3e 00
        E 21 90 3b 37
        E 0 90 3c 00
        E 112 90 3b 00
        E 0 90 3c 4d
        E 0 90 41 00
        E 0 90 41 3f
        E 10 90 2d 2f
        E 67 90 39 00
        E 25 90 3b 42
        E 0 90 3c 00
        E 46 90 2d 00
        E 10 90 45 00
        E 51 90 41 00
        E 0 90 41 44
        E 11 90 2d 41
        E 0 90 3b 00
        E 0 90 3c 3b
        E 35 90 28 00
        E 62 90 34 30
        E 5 90 28 3c
        E 0 90 3c 00
        E 5 90 3b 3e
        E 87 90 34 00
        E 15 90 28 00
        E 0 90 41 00
        E 0 90 41 42
        E 5 90 2d 00
        E 0 90 2d 3a
        E 5 90 39 3a
        E 0 90 3b 00
        E 0 90 3c 2f
        E 92 90 3c 00
        E 16 90 28 38
        E 5 90 3b 3b
        E 87 90 3b 00
        E 15 90 3c 46
        E 6 90 41 00
        E 0 90 41 48
        E 35 90 39 00
        E 72 90 28 00
        E 0 90 28 35
        E 0 90 3b 43
        E 0 90 3c 00
        E 107 90 3e 34
        E 0 90 43 2a
        E 5 90 2d 00
        E 0 90 2d 4c
        E 0 90 41 00
        E 5 90 58 45
        E 46 90 3b 00
        E 5 90 28 00
        E 46 90 34 29
        E 5 90 3c 45
        E 16 90 43 00
        E 30 90 58 00
        E 36 90 34 00
        E 36 90 2d 00
        E 0 90 2d 47
        E 0 90 43 33
        E 5 90 39 36
        E 0 90 3e 00
        E 0 90 3e 40
        E 41 90 34 27
        E 66 90 3c 00
        E 0 90 3c 4a
        E 57 90 34 00
        E 56 90 43 00
        E 0 90 43 3e
        E 5 90 3e 00
        E 0 90 3e 3e
        E 61 90 39 00
        E 41 90 48 33
        E 5 90 3c 00
        E 0 90 3c 40
        E 103 90 48 00
        E 5 90 2d 00
        E 0 90 2d 50
        E 5 90 43 00
        E 0 90 43 38
        E 5 90 3e 00
        E 0 90 3e 3f
        E 21 90 30 2f
        E 66 90 30 00
        E 5 90 34 37
        E 10 90 3c 00
        E 0 90 3c 40
        E 5 90 3e 00
        E 0 90 48 2e
        E 103 90 48 00
        E 5 90 43 00
        E 0 90 43 3b
        E 5 90 2d 00
        E 0 90 2d 49
        E 0 90 39 32
        E 0 90 3e 43
        E 87 90 21 2a
        E 20 90 3c 00
        E 0 90 3c 44
        E 0 90 48 28
        E 87 90 34 00
        E 26 90 3c 00
        E 0 90 3c 46
        E 0 90 43 00
        E 0 90 43 3a
        E 0 90 48 00
        E 0 90 48 28
        E 5 90 3e 00
        E 0 90 3e 4c
        E 15 90 28 2a
        E 82 90 21 00
        E 10 90 3c 00
        E 0 90 3c 3a
        E 0 90 3e 00
        E 0 90 3e 45
        E 0 90 48 00
        E 0 90 48 35
        E 20 90 28 00
        E 87 90 39 00
        E 0 90 48 00
        E 5 90 34 39
        E 0 90 47 40
        E 5 90 2d 00
        E 0 90 2d 33
        E 0 90 40 30
        E 5 90 28 50
        E 41 90 3e 00
        E 16 90 34 00
        E 15 90 3c 00
        E 10 90 2d 00
        E 21 90 37 43
        E 5 90 28 00
        E 0 90 28 52
        E 15 90 43 00
        E 15 90 34 31
        E 57 90 40 00
        E 10 90 3b 46
        E 0 90 47 00
        E 0 90 47 2b
        E 11 90 28 00
        E 0 90 28 53
        E 92 90 37 00
        E 0 90 37 3b
        E 0 90 3b 00
        E 0 90 3c 5a
        E 0 90 47 00
        E 0 90 48 2c
        E 5 90 28 00
        E 0 90 28 4c
        E 66 90 34 00
        E 26 90 48 00
        E 5 90 28 00
        E 0 90 28 4e
        E 0 90 3b 4f
        E 0 90 3c 00
        E 20 90 30 2a
        E 82 90 30 00
        E 5 90 30 2b
        E 5 90 28 00
        E 0 90 28 4a
        E 0 90 37 00
        E 0 90 37 4a
        E 0 90 3b 00
        E 0 90 3b 45
        E 36 90 47 3d
        E 20 90 30 00
        E 36 90 3b 00
        E 0 90 3b 2b
        E 5 90 28 00
        E 0 90 28 42
        E 10 90 30 2d
        E 16 90 47 00
        E 0 90 53 36
        E 5 90 34 3b
        E 0 90 37 00
        E 0 90 37 43
        E 0 90 40 32
        E 0 90 47 46
        E 66 90 53 00
        E 21 90 30 00
        E 5 90 28 00
        E 0 90 28 4b
        E 0 90 37 00
        E 0 90 37 4a
        E 87 90 47 00
        E 15 90 3b 00
        E 0 90 3b 51
        E 5 90 28 00
        E 0 90 28 51
        E 97 90 28 00
        E 0 90 28 46
        E 5 90 37 00
        E 0 90 37 49
        E 0 90 3b 00
        E 0 90 3b 45
        E 0 90 48 2e
        E 5 90 30 2c
        E 26 90 40 00
        E 52 90 34 00
        E 10 90 48 00
        E 10 90 3b 00
        E 0 90 3b 49
        E 5 90 28 00
        E 0 90 28 3e
        E 0 90 47 29
        E 102 90 37 00
        E 0 90 37 3c
        E 31 90 47 00
        E 46 90 30 00
        E 36 90 28 00
        E 0 90 28 31
        E 0 90 3b 00
        E 0 90 3c 3c
        E 0 90 48 4d
        E 0 90 54 23
        E 5 90 30 27
        E 0 90 34 3a
        E 0 90 40 2d
        E 87 90 54 00
        E 5 90 28 00
        E 20 90 37 00
        E 0 90 37 43
        E 0 90 40 00
        E 46 90 30 00
        E 56 90 3b 5a
        E 0 90 3c 00
        E 5 90 48 00
        E 11 90 28 3a
        E 86 90 48 37
        E 6 90 37 00
        E 0 90 37 3c
        E 5 90 3b 00
        E 0 90 3b 42
        E 107 90 3b 00
        E 0 90 3b 56
        E 46 90 48 00
        E 10 90 34 00
        E 51 90 3b 00
        E 0 90 3b 39
        E 5 90 37 00
        E 0 90 37 4a
        E 98 90 34 31
        E 0 90 4a 32
        E 5 90 37 00
        E 0 90 37 48
        E 107 90 37 00
        E 0 90 37 45
        E 108 90 3b 00
        E 0 90 3b 4c
        E 86 90 28 00
        E 31 90 3b 00
        E 0 90 3b 3b
        E 67 90 4a 00
        E 35 90 3b 00
        E 0 90 3b 40
        E 16 90 28 34
        E 61 90 34 00
        E 41 90 37 00
        E 0 90 37 41
        E 71 90 28 00
        E 5 90 26 2e
        E 16 90 37 00
        E 10 90 41 3c
        E 0 90 47 36
        E 5 90 32 37
        E 56 90 3b 00
        E 67 90 35 35
        E 10 90 41 00
        E 0 90 47 00
        E 77 90 39 41
        E 107 90 3b 37
        E 123 90 39 00
        E 0 90 39 3a
        E 102 90 35 00
        E 5 90 35 3b
        E 51 90 26 00
        E 41 90 3b 00
        E 0 90 3b 33
        E 5 90 47 3b
        E 21 90 26 30
        E 15 90 32 00
        E 0 90 32 48
        E 41 90 47 00
        E 143 90 3b 00
        E 20 90 39 00
        E 0 90 39 44
        E 92 90 26 00
        E 16 90 3b 3f
        E 5 90 32 00
        E 0 90 32 3b
        E 97 90 39 00
        E 0 90 39 4c
        E 174 90 3b 00
        E 10 90 3e 2b
        E 26 90 39 00
        E 0 90 41 37
        E 5 90 26 2f
        E 0 90 32 00
        E 0 90 32 44
        E 0 90 35 00
        E 0 90 35 40
        E 0 90 48 33
        E 56 90 3e 00
        E 92 90 48 00
        E 56 90 41 00
        E 5 90 39 3f
        E 108 90 3b 3d
        E 10 90 26 00
        E 76 90 41 29
        E 16 90 39 00
        E 0 90 39 41
        E 71 90 41 00
        E 123 90 3b 00
        E 6 90 35 00
        E 15 90 32 00
        E 0 90 32 51
        E 0 90 41 3a
        E 0 90 45 30
        E 0 90 56 23
        E 5 90 4a 3c
        E 41 90 39 00
        E 20 90 56 00
        E 41 90 35 43
        E 5 90 45 00
        E 0 90 4a 00
        E 5 90 26 2d
        E 0 90 41 00
        E 92 90 39 51
        E 97 90 26 00
        E 21 90 41 3f
        E 5 90 32 00
        E 0 90 32 3a
        E 0 90 35 00
        E 0 90 35 38
        E 0 90 39 00
        E 0 90 39 3d
        E 0 90 3b 39
        E 0 90 45 41
        E 235 90 41 00
        E 25 90 32 00
        E 16 90 3b 00
        E 5 90 45 00
        E 5 90 40 38
        E 0 90 47 1b
        E 5 90 39 00
        E 10 90 35 00
        E 26 90 43 46
        E 20 90 28 47
        E 0 90 47 00
        E 0 90 47 42
        E 108 90 37 39
        E 25 90 47 00
        E 15 90 43 00
        E 47 90 34 33
        E 10 90 3b 41
        E 108 90 3b 00
        E 0 90 3c 59
        E 0 90 48 32
        E 102 90 3b 48
        E 0 90 3c 00
        E 76 90 34 00
        E 0 90 40 00
        E 0 90 43 2f
        E 5 90 48 00
        E 26 90 37 00
        E 0 90 37 43
        E 31 90 43 00
        E 56 90 3b 00
        E 0 90 3c 2b
        E 41 90 34 48
        E 0 90 40 3d
        E 0 90 47 42
        E 20 90 28 00
        E 0 90 28 49
        E 67 90 47 00
        E 5 90 37 00
        E 0 90 37 42
        E 0 90 3c 00
        E 5 90 3c 3e
        E 0 90 40 00
        E 0 90 40 37
        E 97 90 28 00
        E 0 90 28 41
        E 0 90 34 00
        E 0 90 34 3c
        E 0 90 3b 58
        E 0 90 3c 00
        E 107 90 3b 00
        E 0 90 3c 5a
        E 0 90 40 00
        E 0 90 48 2d
        E 103 90 3b 4b
        E 0 90 3c 00
        E 61 90 48 00
        E 10 90 34 00
        E 36 90 37 00
        E 0 90 37 46
        E 0 90 3b 00
        E 0 90 3b 37
        E 77 90 3b 00
        E 20 90 34 33
        E 0 90 37 00
        E 0 90 37 2f
        E 0 90 3c 44
        E 0 90 40 3f
        E 0 90 43 3c
        E 5 90 28 00
        E 0 90 28 41
        E 0 90 48 4c
        E 108 90 37 00
        E 0 90 37 3c
        E 10 90 48 00
        E 0 90 48 3c
        E 41 90 43 00
        E 51 90 28 00
        E 0 90 28 49
        E 0 90 3b 4f
        E 0 90 3c 00
        E 107 90 40 00
        E 0 90 48 00
        E 0 90 48 34
        E 25 90 3b 00
        E 0 90 3c 5b
        E 82 90 3b 4e
        E 0 90 3c 00
        E 5 90 28 00
        E 0 90 28 3b
        E 72 90 34 00
        E 41 90 37 00
        E 0 90 37 46
        E 5 90 3b 00
        E 0 90 3c 42
        E 71 90 48 00
        E 26 90 28 00
        E 0 90 28 46
        E 0 90 40 3e
        E 5 90 37 00
        E 0 90 37 48
        E 0 90 43 3a
        E 0 90 4a 3c
        E 0 90 4f 27
        E 5 90 34 2f
        E 0 90 3c 00
        E 0 90 3c 35
        E 0 90 56 2a
        E 62 90 56 00
        E 26 90 3c 00
        E 5 90 4f 00
        E 10 90 37 00
        E 0 90 37 49
        E 0 90 4a 00
        E 30 90 43 00
        E 77 90 28 00
        E 0 90 28 43
        E 0 90 2f 23
        E 0 90 34 00
        E 0 90 34 3a
        E 0 90 3b 51
        E 61 90 2f 00
        E 41 90 48 2e
        E 5 90 37 00
        E 0 90 37 3a
        E 5 90 3b 00
        E 0 90 3b 39
        E 103 90 34 00
        E 0 90 34 3c
        E 0 90 3b 00
        E 0 90 3b 57
        E 81 90 40 00
        E 6 90 34 00
        E 15 90 37 00
        E 0 90 37 43
        E 5 90 3b 00
        E 0 90 3c 3e
        E 31 90 48 00
        E 20 90 28 00
        E 26 90 37 00
        E 15 90 3c 00
        E 0 90 41 44
        E 10 90 3b 3a
        E 5 90 47 34
        E 16 90 32 3d
        E 46 90 3b 00
        E 45 90 35 38
        E 16 90 41 00
        E 25 90 47 00
        E 67 90 39 3d
        E 97 90 3e 2c
        E 6 90 3b 38
        E 107 90 39 00
        E 0 90 39 38
        E 51 90 3e 00
        E 31 90 32 00
        E 30 90 35 00
        E 5 90 35 3d
        E 77 90 47 3a
        E 20 90 2d 2d
        E 11 90 32 51
        E 56 90 2d 00
        E 97 90 47 00
        E 46 90 3b 00
        E 20 90 32 00
        E 0 90 32 42
        E 0 90 39 00
        E 0 90 39 47
        E 102 90 3b 3f
        E 108 90 32 00
        E 0 90 32 38
        E 0 90 39 00
        E 0 90 39 48
        E 82 90 32 00
        E 25 90 35 00
        E 0 90 35 3e
        E 92 90 35 00
        E 0 90 35 37
        E 0 90 41 3a
        E 6 90 26 2f
        E 0 90 32 4a
        E 0 90 48 34
        E 5 90 39 00
        E 20 90 3b 00
        E 107 90 35 00
        E 0 90 35 3f
        E 5 90 48 00
        E 26 90 41 00
        E 56 90 32 00
        E 0 90 32 46
        E 0 90 39 3c
        E 16 90 3e 2a
        E 61 90 26 00
        E 25 90 3b 41
        E 11 90 32 00
        E 0 90 32 43
        E 107 90 39 00
        E 0 90 39 42
        E 71 90 3e 00
        E 31 90 32 00
        E 0 90 32 38
        E 5 90 35 00
        E 0 90 35 43
        E 72 90 3b 00
        E 10 90 35 00
        E 10 90 39 00
        E 10 90 41 3e
        E 5 90 32 00
        E 0 90 32 4a
        E 0 90 45 39
        E 0 90 4a 38
        E 41 90 26 2a
        E 37 90 45 00
        E 20 90 35 36
        E 10 90 4a 00
        E 92 90 35 00
        E 5 90 35 2d
        E 5 90 32 00
        E 0 90 32 3a
        E 0 90 39 44
        E 0 90 41 00
        E 0 90 41 3c
        E 6 90 45 35
        E 91 90 3b 3c
        E 36 90 26 00
        E 31 90 35 00
        E 41 90 41 00
        E 0 90 41 3d
        E 0 90 56 2d
        E 5 90 32 00
        E 0 90 32 2f
        E 0 90 3b 00
        E 0 90 45 00
        E 0 90 45 36
        E 0 90 4a 47
        E 5 90 39 00
        E 0 90 39 4a
        E 61 90 32 00
        E 0 90 56 00
        E 31 90 4a 00
        E 5 90 41 00
        E 0 90 41 3f
        E 5 90 35 42
        E 0 90 39 00
        E 0 90 39 3f
        E 0 90 45 00
        E 0 90 45 40
        E 102 90 39 00
        E 16 90 34 3a
        E 0 90 35 00
        E 0 90 45 00
        E 0 90 45 41
        E 0 90 47 2d
        E 5 90 2d 40
        E 20 90 41 00
        E 46 90 47 00
        E 51 90 39 2a
        E 102 90 39 00
        E 6 90 34 00
        E 0 90 34 3c
        E 0 90 39 35
        E 0 90 45 00
        E 0 90 45 50
        E 0 90 47 32
        E 107 90 47 00
        E 62 90 39 00
        E 41 90 34 00
        E 0 90 34 3a
        E 0 90 39 2d
        E 0 90 45 00
        E 0 90 45 57
        E 0 90 47 36
        E 214 90 45 00
        E 0 90 45 5a
        E 5 90 47 00
        E 0 90 47 3c
        E 36 90 39 00
        E 169 90 34 00
        E 5 90 45 00
        E 0 90 45 5e
        E 5 90 34 33
        E 0 90 47 00
        E 0 90 47 49
        E 219 90 45 00
        E 0 90 45 59
        E 6 90 47 00
        E 0 90 47 43
        E 10 90 39 2b
        E 159 90 39 00
        E 5 90 34 00
        E 25 90 47 00
        E 16 90 3b 4b
        E 0 90 45 00
        E 0 90 45 55
        E 46 90 28 30
        E 102 90 28 00
        E 51 90 47 2c
        E 5 90 3b 00
        E 0 90 3b 50
        E 0 90 45 00
        E 0 90 45 50
        E 56 90 47 00
        E 159 90 3b 00
        E 0 90 3b 55
        E 0 90 45 00
        E 0 90 45 55
        E 30 90 28 2e
        E 77 90 28 00
        E 76 90 2d 00
        E 26 90 45 00
        E 0 90 45 56
        E 5 90 3b 00
        E 0 90 3b 5a
        E 31 90 2d 33
        E 174 90 45 00
        E 0 90 45 55
        E 5 90 3b 00
        E 0 90 3b 52
        E 0 90 47 2c
        E 87 90 47 00
        E 133 90 3b 00
        E 0 90 3b 51
        E 0 90 45 00
        E 0 90 45 55
        E 179 90 2d 00
        E 35 90 47 30
        E 5 90 3b 00
        E 0 90 3c 43
        E 0 90 45 00
        E 0 90 45 51
        E 41 90 2d 2c
        E 31 90 47 00
        E 92 90 2d 00
        E 41 90 47 33
        E 5 90 3c 00
        E 0 90 3c 4a
        E 0 90 45 00
        E 0 90 45 54
        E 92 90 47 00
        E 118 90 3c 00
        E 0 90 3c 39
        E 0 90 45 00
        E 0 90 45 52
        E 214 90 3c 00
        E 0 90 3c 47
        E 0 90 45 00
        E 0 90 45 55
        E 210 90 3c 00
        E 0 90 3c 4a
        E 0 90 45 00
        E 0 90 45 52
        E 0 90 48 2e
        E 92 90 48 00
        E 112 90 3c 00
        E 0 90 3c 46
        E 0 90 45 00
        E 0 90 45 55
        E 0 90 48 2a
        E 97 90 48 00
        E 113 90 3c 00
        E 0 90 3c 49
        E 0 90 45 00
        E 0 90 45 54
        E 210 90 47 32
        E 5 90 3c 00
        E 0 90 3c 41
        E 0 90 45 00
        E 0 90 45 4f
        E 81 90 47 00
        E 128 90 3c 00
        E 0 90 3c 4d
        E 0 90 45 00
        E 0 90 45 57
        E 0 90 48 2a
        E 97 90 48 00
        E 118 90 3c 00
        E 0 90 3c 43
        E 0 90 45 00
        E 0 90 45 4e
        E 210 90 45 00
        E 0 90 45 54
        E 5 90 3b 49
        E 0 90 3c 00
        E 220 90 3b 00
        E 0 90 3c 46
        E 0 90 45 00
        E 0 90 45 4c
        E 189 90 3c 00
        E 5 90 4c 1f
        E 5 90 2d 47
        E 0 90 40 3b
        E 5 90 3e 3f
        E 5 90 47 39
        E 10 90 45 00
        E 5 90 58 3b
        E 41 90 4c 00
        E 41 90 34 34
        E 5 90 47 00
        E 15 90 58 00
        E 87 90 39 3e
        E 0 90 40 00
        E 82 90 45 2e
        E 15 90 28 36
        E 5 90 3b 41
        E 46 90 45 00
        E 67 90 3b 00
        E 0 90 3c 38
        E 46 90 34 00
        E 41 90 3e 00
        E 26 90 28 00
        E 76 90 4c 38
        E 11 90 39 00
        E 15 90 28 34
        E 0 90 34 26
        E 5 90 3e 3f
        E 0 90 40 53
        E 0 90 45 2d
        E 0 90 47 37
        E 46 90 4c 00
        E 61 90 47 00
        E 31 90 34 00
        E 5 90 28 00
        E 56 90 3e 00
        E 0 90 3e 2c
        E 0 90 40 00
        E 0 90 40 41
        E 0 90 47 2d
        E 0 90 4d 3d
        E 67 90 47 00
        E 20 90 45 00
        E 31 90 3c 00
        E 92 90 3c 3c
        E 5 90 2d 00
        E 0 90 2d 49
        E 0 90 40 00
        E 0 90 40 35
        E 0 90 4f 45
        E 97 90 4d 00
        E 10 90 3e 00
        E 87 90 3c 00
        E 10 90 39 29
        E 0 90 4c 33
        E 5 90 3e 37
        E 0 90 40 00
        E 0 90 40 38
        E 5 90 2d 00
        E 0 90 2d 57
        E 0 90 47 39
        E 6 90 58 36
        E 46 90 4c 00
        E 5 90 39 00
        E 36 90 34 33
        E 31 90 4f 00
        E 15 90 58 00
        E 25 90 47 00
        E 36 90 39 37
        E 5 90 2d 00
        E 0 90 2d 44
        E 21 90 28 23
        E 41 90 40 00
        E 10 90 34 00
        E 25 90 28 00
        E 5 90 28 30
        E 0 90 3b 44
        E 62 90 40 2a
        E 56 90 3b 00
        E 0 90 3c 3d
        E 82 90 40 00
        E 61 90 28 00
        E 20 90 39 00
        E 36 90 34 2b
        E 0 90 47 3e
        E 5 90 3e 00
        E 0 90 3e 3e
        E 0 90 40 49
        E 87 90 34 00
        E 31 90 45 27
        E 56 90 47 00
        E 15 90 3c 00
        E 16 90 2d 00
        E 0 90 2d 36
        E 0 90 45 00
        E 5 90 32 2a
        E 0 90 3e 00
        E 0 90 3e 3d
        E 0 90 40 00
        E 0 90 40 3f
        E 0 90 45 45
        E 205 90 3c 31
        E 0 90 48 4d
        E 5 90 45 00
        E 0 90 45 37
        E 122 90 45 00
        E 31 90 32 00
        E 0 90 3c 00
        E 61 90 34 28
        E 0 90 3e 00
        E 0 90 3e 44
        E 5 90 2d 00
        E 0 90 2d 45
        E 0 90 40 00
        E 0 90 40 32
        E 0 90 47 3a
        E 0 90 48 00
        E 0 90 56 2e
        E 72 90 56 00
        E 15 90 34 00
        E 0 90 34 3a
        E 87 90 40 00
        E 0 90 47 00
        E 41 90 39 35
        E 0 90 40 2b
        E 5 90 58 34
        E 61 90 34 00
        E 21 90 40 00
        E 5 90 28 3b
        E 0 90 3b 37
        E 0 90 58 00
        E 82 90 28 00
        E 35 90 47 4b
        E 6 90 3b 00
        E 0 90 3c 37
        E 10 90 3e 00
        E 10 90 28 36
        E 0 90 34 2a
        E 57 90 34 00
        E 25 90 47 00
        E 21 90 40 33
        E 10 90 28 00
        E 20 90 39 00
        E 51 90 40 00
        E 6 90 28 34
        E 0 90 34 27
        E 0 90 3e 46
        E 0 90 40 3e
        E 0 90 47 37
        E 163 90 28 00
        E 255 90 47 00
        E 6 90 34 00
        E 137 90 3c 00
        E 57 90 2d 00
        E 0 90 2d 4a
        E 5 90 3e 00
        E 0 90 3e 3f
        E 0 90 40 00
        E 0 90 40 39
        E 0 90 47 3b
        E 71 90 40 00
        E 21 90 34 38
        E 46 90 40 28
        E 51 90 39 31
        E 0 90 47 00
        E 21 90 28 33
        E 76 90 40 00
        E 11 90 3b 49
        E 86 90 34 00
        E 6 90 39 00
        E 10 90 3b 00
        E 0 90 3c 3b
        E 0 90 48 2a
        E 148 90 48 00
        E 10 90 28 00
        E 41 90 34 2b
        E 0 90 3e 00
        E 0 90 3e 47
        E 0 90 40 4a
        E 0 90 47 3b
        E 77 90 34 00
        E 25 90 45 2c
        E 67 90 45 00
        E 0 90 47 00
        E 40 90 34 2f
        E 0 90 3e 00
        E 0 90 3e 46
        E 0 90 40 00
        E 0 90 40 53
        E 0 90 45 34
        E 0 90 48 3c
        E 6 90 3c 00
        E 0 90 3c 33
        E 137 90 48 00
        E 6 90 34 00
        E 15 90 3c 00
        E 41 90 3e 00
        E 0 90 3e 3d
        E 0 90 4a 36
        E 5 90 2d 00
        E 0 90 2d 42
        E 6 90 40 00
        E 0 90 40 4e
        E 10 90 45 00
        E 0 90 45 48
        E 41 90 4a 00
        E 51 90 48 2c
        E 81 90 2d 00
        E 21 90 48 00
        E 5 90 2b 4e
        E 0 90 32 34
        E 0 90 3e 00
        E 0 90 3e 38
        E 0 90 40 00
        E 0 90 40 3d
        E 0 90 48 45
        E 20 90 45 00
        E 0 90 45 39
        E 77 90 3e 00
        E 10 90 32 00
        E 0 90 32 4e
        E 0 90 45 00
        E 102 90 2b 00
        E 0 90 2b 3d
        E 92 90 3e 30
        E 6 90 48 00
        E 15 90 39 41
        E 0 90 45 25
        E 61 90 45 00
        E 51 90 3b 4b
        E 31 90 3e 00
        E 159 90 3b 00
        E 15 90 39 00
        E 5 90 32 00
        E 0 90 32 31
        E 0 90 48 40
        E 10 90 40 00
        E 0 90 40 4d
        E 6 90 58 3b
        E 35 90 2b 00
        E 31 90 32 00
        E 46 90 3e 2d
        E 31 90 48 00
        E 10 90 58 00
        E 41 90 4d 38
        E 5 90 40 00
        E 0 90 40 49
        E 0 90 47 32
        E 25 90 3e 00
        E 57 90 2b 2f
        E 61 90 2b 00
        E 0 90 4d 00
        E 46 90 47 00
        E 20 90 32 2b
        E 0 90 45 45
        E 5 90 40 00
        E 0 90 40 48
        E 0 90 4f 37
        E 200 90 32 00
        E 0 90 4f 00
        E 15 90 2b 40
        E 0 90 40 00
        E 0 90 40 49
        E 15 90 47 3b
        E 0 90 4c 3a
        E 5 90 45 00
        E 0 90 58 37
        E 72 90 1f 2e
        E 5 90 4c 00
        E 15 90 58 00
        E 21 90 32 43
        E 0 90 47 00
        E 41 90 1f 00
        E 31 90 37 29
        E 0 90 45 43
        E 5 90 32 00
        E 0 90 32 42
        E 0 90 40 00
        E 0 90 40 3c
        E 36 90 2b 00
        E 56 90 39 3b
        E 5 90 37 00
        E 5 90 2b 33
        E 21 90 45 00
        E 66 90 2b 00
        E 15 90 2b 36
        E 5 90 32 00
        E 0 90 32 34
        E 0 90 3b 3d
        E 0 90 40 00
        E 0 90 40 46
        E 0 90 47 2d
        E 26 90 1f 2c
        E 5 90 28 33
        E 72 90 1f 00
        E 10 90 28 00
        E 71 90 2b 00
        E 10 90 3b 00
        E 0 90 47 00
        E 21 90 32 00
        E 0 90 32 33
        E 0 90 39 00
        E 0 90 39 2d
        E 0 90 3e 32
        E 0 90 48 46
        E 5 90 40 00
        E 0 90 40 46
        E 56 90 2b 37
        E 26 90 39 00
        E 15 90 45 2f
        E 61 90 48 00
        E 26 90 45 00
        E 5 90 32 00
        E 5 90 2b 00
        E 5 90 28 28
        E 0 90 2b 3f
        E 0 90 32 28
        E 0 90 47 40
        E 5 90 3e 00
        E 0 90 40 00
        E 0 90 40 54
        E 0 90 4d 3d
        E 87 90 47 00
        E 0 90 48 3b
        E 16 90 28 00
        E 45 90 32 00
        E 31 90 2b 00
        E 0 90 4d 00
        E 15 90 48 00
        E 16 90 40 00
        E 0 90 40 45
        E 0 90 45 47
        E 0 90 4f 41
        E 5 90 28 29
        E 16 90 32 2e
        E 46 90 28 00
        E 112 90 32 00
        E 10 90 4f 00
        E 5 90 29 4a
        E 6 90 45 00
        E 0 90 45 35
        E 5 90 3e 3d
        E 0 90 40 00
        E 0 90 40 3c
        E 5 90 4a 28
        E 82 90 45 00
        E 15 90 30 3d
        E 0 90 43 29
        E 5 90 29 00
        E 0 90 29 3b
        E 20 90 4a 00
        E 72 90 43 00
        E 97 90 30 00
        E 0 90 30 31
        E 5 90 37 3c
        E 77 90 37 00
        E 35 90 39 55
        E 36 90 40 00
        E 164 90 30 00
        E 30 90 30 25
        E 0 90 39 00
        E 0 90 39 2c
        E 5 90 3e 00
        E 0 90 3e 3f
        E 0 90 40 3f
        E 0 90 4a 35
        E 16 90 2d 2d
        E 67 90 30 00
        E 41 90 3e 00
        E 0 90 3e 3b
        E 46 90 39 00
        E 20 90 29 00
        E 82 90 2d 00
        E 36 90 3e 00
        E 0 90 3e 38
        E 25 90 4a 00
        E 72 90 29 2b
        E 168 90 29 00
        E 72 90 4a 3c
        E 5 90 3e 00
        E 0 90 3e 48
        E 0 90 40 00
        E 0 90 40 43
        E 36 90 29 4c
        E 61 90 30 36
        E 0 90 43 35
        E 51 90 4a 00
        E 82 90 43 00
        E 20 90 29 00
        E 0 90 29 34
        E 5 90 30 00
        E 37 90 30 2f
        E 5 90 37 40
        E 76 90 30 00
        E 21 90 37 00
        E 10 90 2d 22
        E 10 90 39 55
        E 5 90 3e 00
        E 0 90 3e 3a
        E 0 90 40 00
        E 56 90 2d 00
        E 154 90 37 26
        E 0 90 39 00
        E 0 90 39 3a
        E 0 90 3e 00
        E 0 90 3e 40
        E 0 90 40 4c
        E 0 90 4a 39
        E 30 90 2d 2e
        E 41 90 4a 00
        E 16 90 37 00
        E 76 90 2d 00
        E 15 90 29 00
        E 26 90 3e 00
        E 0 90 3e 48
        E 0 90 40 00
        E 0 90 40 50
        E 0 90 45 27
        E 0 90 48 41
        E 36 90 39 00
        E 30 90 32 27
        E 6 90 2d 25
        E 25 90 45 00
        E 61 90 2d 00
        E 11 90 48 00
        E 10 90 32 00
        E 36 90 3e 00
        E 0 90 3e 46
        E 0 90 40 00
        E 0 90 40 4d
        E 0 90 47 41
        E 189 90 47 00
        E 15 90 45 46
        E 6 90 40 00
        E 0 90 40 3c
        E 10 90 28 37
        E 25 90 3e 00
        E 0 90 3e 35
        E 72 90 40 00
        E 102 90 3e 00
        E 0 90 3e 27
        E 0 90 45 00
        E 0 90 45 4f
        E 5 90 40 44
        E 0 90 4c 3b
        E 0 90 58 2c
        E 67 90 3e 00
        E 15 90 58 00
        E 51 90 28 00
        E 66 90 40 00
        E 0 90 40 45
        E 0 90 45 00
        E 0 90 45 4b
        E 0 90 4c 00
        E 5 90 28 3b
        E 0 90 3e 2c
        E 0 90 4a 3d
        E 0 90 56 34
        E 77 90 4a 00
        E 36 90 56 00
        E 76 90 28 00
        E 21 90 40 00
        E 0 90 40 3c
        E 0 90 45 00
        E 0 90 45 51
        E 5 90 28 39
        E 0 90 3e 00
        E 0 90 3e 3c
        E 133 90 40 00
        E 67 90 45 00
        E 0 90 45 52
        E 0 90 4c 34
        E 5 90 34 30
        E 0 90 3e 00
        E 0 90 3e 2f
        E 0 90 40 46
        E 138 90 4c 00
        E 41 90 34 00
        E 30 90 34 30
        E 0 90 3e 00
        E 0 90 3e 3d
        E 0 90 40 00
        E 0 90 40 44
        E 0 90 45 00
        E 0 90 45 47
        E 5 90 28 00
        E 0 90 28 3d
        E 123 90 4c 2c
        E 41 90 34 00
        E 20 90 28 00
        E 21 90 4c 00
        E 5 90 34 31
        E 0 90 40 00
        E 0 90 40 4a
        E 0 90 45 00
        E 0 90 45 52
        E 0 90 4c 33
        E 5 90 3e 00
        E 0 90 3e 33
        E 31 90 28 2c
        E 117 90 28 00
        E 15 90 34 00
        E 36 90 40 00
        E 0 90 40 4a
        E 0 90 45 00
        E 0 90 45 4c
        E 0 90 4c 00
        E 0 90 4c 2f
        E 5 90 34 32
        E 0 90 3e 00
        E 0 90 3e 39
        E 0 90 58 31
        E 11 90 28 31
        E 56 90 58 00
        E 51 90 28 00
        E 15 90 4c 00
        E 52 90 34 00
        E 20 90 34 34
        E 0 90 3e 00
        E 0 90 3e 46
        E 0 90 45 00
        E 0 90 45 49
        E 0 90 56 37
        E 5 90 28 28
        E 0 90 40 00
        E 0 90 40 44
        E 82 90 56 00
        E 77 90 28 00
        E 0 90 34 00
        E 41 90 28 31
        E 5 90 45 00
        E 0 90 45 4c
        E 0 90 4c 2a
        E 5 90 3e 00
        E 0 90 3e 3e
        E 0 90 40 00
        E 0 90 40 40
        E 0 90 4f 3c
        E 87 90 4c 00
        E 76 90 28 00
        E 36 90 40 00
        E 0 90 40 45
        E 0 90 45 00
        E 0 90 45 49
        E 0 90 4c 34
        E 5 90 3e 00
        E 0 90 3e 42
        E 15 90 28 2f
        E 57 90 4c 00
        E 51 90 4f 00
        E 41 90 28 00
        E 40 90 45 00
        E 0 90 45 48
        E 6 90 3e 00
        E 0 90 3e 34
        E 0 90 40 00
        E 0 90 40 4a
        E 0 90 4d 37
        E 30 90 28 2e
        E 46 90 34 2d
        E 51 90 28 00
        E 16 90 34 00
        E 10 90 4d 00
        E 46 90 32 33
        E 5 90 3e 00
        E 0 90 3e 2b
        E 0 90 40 00
        E 0 90 40 33
        E 0 90 45 00
        E 0 90 45 46
        E 0 90 4c 3e
        E 0 90 58 28
        E 11 90 28 55
        E 76 90 58 00
        E 21 90 4c 00
        E 10 90 32 00
        E 87 90 45 00
        E 0 90 45 48
        E 0 90 4c 35
        E 5 90 28 00
        E 0 90 28 49
        E 0 90 3e 00
        E 0 90 3e 32
        E 0 90 40 00
        E 0 90 40 41
        E 102 90 4c 00
        E 61 90 3e 00
        E 41 90 40 00
        E 0 90 40 41
        E 0 90 45 00
        E 0 90 45 4a
        E 0 90 4c 25
        E 5 90 28 00
        E 0 90 28 4b
        E 0 90 3e 34
        E 108 90 4c 00
        E 76 90 3e 00
        E 21 90 34 29
        E 0 90 40 00
        E 0 90 40 3d
        E 0 90 45 00
        E 0 90 45 49
        E 0 90 4c 34
        E 5 90 28 00
        E 0 90 28 40
        E 61 90 4c 00
        E 67 90 40 00
        E 15 90 34 00
        E 46 90 45 00
        E 0 90 45 47
        E 5 90 34 24
        E 0 90 40 3e
        E 5 90 3e 2a
        E 5 90 4d 36
        E 31 90 1c 2b
        E 87 90 34 00
        E 0 90 40 00
        E 5 90 1c 00
        E 41 90 4d 00
        E 21 90 28 00
        E 0 90 28 45
        E 5 90 40 39
        E 0 90 45 00
        E 0 90 45 49
        E 5 90 3e 00
        E 0 90 3e 33
        E 0 90 4c 2c
        E 174 90 3e 00
        E 35 90 32 2f
        E 0 90 34 32
        E 0 90 45 00
        E 0 90 45 42
        E 5 90 28 00
        E 0 90 28 5a
        E 21 90 4c 00
        E 25 90 40 00
        E 82 90 28 00
        E 0 90 28 58
        E 10 90 40 22
        E 5 90 34 00
        E 26 90 32 00
        E 41 90 3e 36
        E 0 90 40 00
        E 0 90 45 00
        E 0 90 45 47
        E 5 90 28 00
        E 0 90 28 53
        E 0 90 34 29
        E 0 90 40 35
        E 61 90 34 00
        E 67 90 40 00
        E 61 90 3e 00
        E 15 90 40 3c
        E 0 90 45 00
        E 0 90 45 4d
        E 5 90 28 00
        E 0 90 28 43
        E 67 90 3e 2f
        E 77 90 4c 28
        E 26 90 3e 00
        E 5 90 28 00
        E 15 90 28 42
        E 10 90 45 00
        E 0 90 45 4e
        E 5 90 34 27
        E 0 90 40 00
        E 0 90 40 43
        E 0 90 47 32
        E 26 90 4c 00
        E 41 90 3e 29
        E 5 90 34 00
        E 10 90 47 00
        E 92 90 3e 00
        E 36 90 40 00
        E 0 90 40 3c
        E 0 90 45 00
        E 0 90 45 4f
        E 5 90 28 00
        E 0 90 28 4e
        E 0 90 32 2f
        E 0 90 3e 2a
        E 0 90 48 48
        E 82 90 32 00
        E 117 90 56 3f
        E 5 90 28 00
        E 0 90 28 4b
        E 0 90 3e 00
        E 0 90 3e 36
        E 0 90 45 00
        E 0 90 45 46
        E 0 90 4c 2d
        E 5 90 40 00
        E 0 90 40 40
        E 41 90 32 29
        E 36 90 4c 00
        E 5 90 48 00
        E 26 90 56 00
        E 51 90 4c 35
        E 10 90 3e 00
        E 25 90 32 00
        E 6 90 26 2d
        E 0 90 32 34
        E 0 90 47 33
        E 5 90 28 00
        E 0 90 28 37
        E 0 90 58 34
        E 5 90 40 00
        E 0 90 40 32
        E 30 90 45 00
        E 5 90 4c 00
        E 21 90 28 00
        E 36 90 2d 42
        E 0 90 40 00
        E 0 90 40 41
        E 21 90 47 00
        E 5 90 32 00
        E 30 90 58 00
        E 36 90 32 36
        E 5 90 40 00
        E 0 90 41 48
        E 0 90 47 3b
        E 92 90 47 00
        E 5 90 40 3d
        E 0 90 41 00
        E 5 90 34 47
        E 77 90 40 00
        E 26 90 34 00
        E 0 90 35 45
        E 0 90 41 33
        E 71 90 41 00
        E 21 90 26 00
        E 5 90 40 4e
        E 97 90 2d 00
        E 0 90 2d 2a
        E 0 90 40 00
        E 0 90 41 38
        E 10 90 32 00
        E 0 90 32 3f
        E 0 90 4a 31
        E 15 90 26 34
        E 11 90 35 00
        E 51 90 4a 00
        E 15 90 2d 00
        E 0 90 2d 44
        E 5 90 40 3d
        E 0 90 41 00
        E 102 90 32 00
        E 0 90 32 3e
        E 0 90 40 00
        E 5 90 40 27
        E 0 90 4c 2b
        E 77 90 4c 00
        E 20 90 40 00
        E 0 90 40 3f
        E 16 90 34 3e
        E 87 90 26 00
        E 5 90 47 3f
        E 0 90 4f 32
        E 5 90 40 00
        E 0 90 40 2b
        E 5 90 34 00
        E 0 90 35 34
        E 97 90 47 00
        E 21 90 26 3b
        E 56 90 4f 00
        E 21 90 35 00
        E 0 90 35 2f
        E 5 90 48 3b
        E 5 90 32 00
        E 0 90 32 33
        E 5 90 40 00
        E 0 90 40 2f
        E 0 90 58 2f
        E 77 90 40 00
        E 0 90 40 40
        E 0 90 58 00
        E 10 90 2d 00
        E 0 90 2d 40
        E 0 90 32 00
        E 0 90 32 30
        E 41 90 35 00
        E 61 90 26 00
        E 5 90 26 3c
        E 0 90 32 00
        E 0 90 32 36
        E 0 90 40 00
        E 0 90 41 47
        E 0 90 48 00
        E 0 90 48 3e
        E 92 90 40 39
        E 0 90 41 00
        E 25 90 34 34
        E 72 90 40 00
        E 20 90 34 00
        E 0 90 41 34
        E 0 90 48 00
        E 0 90 48 32
        E 6 90 35 40
        E 81 90 41 00
        E 21 90 40 4c
        E 56 90 32 00
        E 25 90 26 00
        E 11 90 48 00
        E 5 90 2d 00
        E 0 90 32 3b
        E 5 90 47 35
        E 10 90 26 43
        E 5 90 40 00
        E 0 90 41 37
        E 77 90 2d 3e
        E 0 90 47 00
        E 6 90 35 00
        E 102 90 32 00
        E 0 90 32 41
        E 5 90 26 00
        E 0 90 26 41
        E 82 90 41 00
        E 30 90 34 37
        E 113 90 34 00
        E 0 90 35 39
        E 260 90 26 00
        E 0 90 32 00
        E 21 90 2d 00
        E 0 90 35 00
        E 30 90 4c 36
        E 5 90 41 39
        E 0 90 47 39
        E 0 90 58 42
        E 5 90 26 2b
        E 57 90 4c 00
        E 35 90 2d 3a
        E 5 90 40 3c
        E 0 90 41 00
        E 11 90 47 00
        E 25 90 58 00
        E 47 90 40 00
        E 15 90 26 00
        E 5 90 26 2d
        E 0 90 41 53
        E 5 90 32 46
        E 0 90 47 43
        E 92 90 34 45
        E 0 90 40 37
        E 0 90 41 00
        E 0 90 47 00
        E 10 90 32 00
        E 0 90 32 3f
        E 31 90 26 00
        E 51 90 40 00
        E 16 90 32 00
        E 0 90 32 2c
        E 0 90 41 39
        E 5 90 34 00
        E 0 90 35 42
        E 0 90 48 31
        E 10 90 26 29
        E 46 90 41 00
        E 41 90 40 44
        E 15 90 48 00
        E 31 90 26 00
        E 5 90 32 00
        E 56 90 32 3d
        E 5 90 40 00
        E 0 90 40 37
        E 36 90 35 00
        E 51 90 2d 00
        E 0 90 2d 40
        E 5 90 40 00
        E 0 90 40 3a
        E 92 90 40 00
        E 10 90 32 00
        E 0 90 32 36
        E 5 90 40 27
        E 97 90 40 00
        E 0 90 40 40
        E 16 90 34 30
        E 81 90 40 00
        E 6 90 41 3a
        E 0 90 4f 34
        E 5 90 47 3a
        E 10 90 34 00
        E 0 90 35 30
        E 57 90 47 00
        E 30 90 35 00
        E 0 90 40 29
        E 0 90 41 00
        E 5 90 34 38
        E 92 90 4f 00
        E 11 90 40 00
        E 10 90 34 00
        E 0 90 35 32
        E 0 90 48 43
        E 5 90 2d 00
        E 0 90 2d 32
        E 10 90 26 3f
        E 0 90 32 00
        E 0 90 32 32
        E 0 90 58 29
        E 5 90 45 30
        E 10 90 41 44
        E 46 90 58 00
        E 21 90 40 39
        E 0 90 41 00
        E 5 90 2d 00
        E 0 90 2d 41
        E 25 90 45 00
        E 16 90 35 00
        E 66 90 26 00
        E 0 90 26 38
        E 0 90 32 00
        E 0 90 32 37
        E 5 90 48 00
        E 0 90 48 3f
        E 5 90 40 00
        E 0 90 41 3b
        E 87 90 40 33
        E 0 90 41 00
        E 5 90 34 38
        E 108 90 48 00
        E 0 90 48 34
        E 5 90 34 00
        E 0 90 35 46
        E 81 90 32 00
        E 21 90 40 00
        E 0 90 40 44
        E 66 90 26 00
        E 31 90 40 00
        E 0 90 40 39
        E 10 90 48 00
        E 5 90 35 00
        E 11 90 26 32
        E 0 90 32 3d
        E 0 90 39 2d
        E 0 90 47 33
        E 0 90 4c 2e
        E 0 90 58 37
        E 61 90 39 00
        E 16 90 4c 00
        E 20 90 47 00
        E 5 90 2d 00
        E 0 90 2d 48
        E 0 90 58 00
        E 31 90 40 00
        E 66 90 32 00
        E 0 90 32 4c
        E 123 90 34 3e
        E 117 90 34 00
        E 0 90 35 3a
        E 6 90 32 00
        E 0 90 32 42
        E 204 90 26 00
        E 25 90 45 46
        E 57 90 32 00
        E 15 90 35 00
        E 15 90 2d 00
        E 26 90 40 41
        E 5 90 34 36
        E 0 90 3b 49
        E 82 90 40 00
        E 0 90 41 57
        E 10 90 3b 00
        E 0 90 3c 4d
        E 77 90 34 00
        E 15 90 40 30
        E 0 90 41 00
        E 0 90 45 00
        E 0 90 45 4b
        E 11 90 3b 4c
        E 0 90 3c 00
        E 10 90 28 29
        E 76 90 3b 00
        E 0 90 3c 4c
        E 6 90 40 00
        E 0 90 40 4e
        E 35 90 28 00
        E 62 90 3b 49
        E 0 90 3c 00
        E 5 90 40 00
        E 0 90 40 36
        E 92 90 3b 00
        E 0 90 3b 2d
        E 0 90 40 00
        E 0 90 40 32
        E 0 90 45 00
        E 0 90 47 4c
        E 71 90 37 2d
        E 26 90 40 00
        E 0 90 40 50
        E 15 90 3b 00
        E 0 90 3b 46
        E 31 90 37 00
        E 0 90 47 00
        E 61 90 3b 00
        E 0 90 48 48
        E 5 90 3c 52
        E 5 90 40 00
        E 0 90 40 32
        E 87 90 3b 43
        E 0 90 3c 00
        E 5 90 40 00
        E 0 90 40 4b
        E 107 90 40 00
        E 0 90 41 5a
        E 0 90 47 36
        E 0 90 48 00
        E 6 90 3b 00
        E 0 90 3c 4e
        E 92 90 3b 3e
        E 0 90 3c 00
        E 5 90 40 40
        E 0 90 41 00
        E 87 90 47 00
        E 26 90 35 3f
        E 0 90 40 00
        E 0 90 41 3c
        E 0 90 45 46
        E 5 90 3b 00
        E 0 90 3c 3f
        E 30 90 29 2d
        E 62 90 3b 4b
        E 0 90 3c 00
        E 107 90 3b 00
        E 0 90 3c 54
        E 107 90 3b 2f
        E 0 90 3c 00
        E 0 90 41 00
        E 0 90 41 3f
        E 67 90 29 00
        E 40 90 41 00
        E 0 90 41 55
        E 36 90 29 30
        E 41 90 3b 00
        E 0 90 3c 34
        E 31 90 40 38
        E 0 90 41 00
        E 0 90 45 00
        E 0 90 45 47
        E 66 90 40 00
        E 0 90 41 51
        E 51 90 29 00
        E 5 90 35 00
        E 5 90 41 00
        E 6 90 40 30
        E 0 90 47 37
        E 51 90 35 30
        E 204 90 47 00
        E 62 90 3c 00
        E 61 90 3b 29
        E 67 90 3b 00
        E 61 90 3c 30
        E 10 90 35 00
        E 97 90 47 2a
        E 66 90 47 00
        E 16 90 3c 00
        E 25 90 40 00
        E 21 90 34 4e
        E 0 90 45 00
        E 0 90 45 4c
        E 107 90 34 00
        E 0 90 34 3a
        E 0 90 40 4d
        E 5 90 3b 4d
        E 93 90 40 00
        E 0 90 41 52
        E 10 90 3b 00
        E 0 90 3b 2a
        E 87 90 3b 00
        E 0 90 3b 40
        E 5 90 45 00
        E 0 90 45 55
        E 36 90 48 26
        E 20 90 34 00
        E 41 90 3b 00
        E 0 90 3c 45
        E 0 90 40 57
        E 0 90 41 00
        E 36 90 48 00
        E 66 90 3c 00
        E 0 90 3c 28
        E 0 90 40 00
        E 0 90 40 34
        E 0 90 45 00
        E 0 90 45 40
        E 10 90 28 32
        E 51 90 3c 00
        E 11 90 28 00
        E 20 90 3b 43
        E 0 90 47 4c
        E 5 90 37 2c
        E 0 90 45 00
        E 92 90 40 00
        E 0 90 40 55
        E 5 90 3b 00
        E 0 90 3b 4a
        E 10 90 47 00
        E 16 90 37 00
        E 71 90 40 00
        E 0 90 41 4d
        E 5 90 48 45
        E 16 90 3b 00
        E 0 90 3b 30
        E 15 90 28 31
        E 46 90 3b 00
        E 0 90 3b 46
        E 31 90 40 4a
        E 0 90 41 00
        E 35 90 28 00
        E 62 90 3b 00
        E 0 90 3c 49
        E 5 90 4a 3e
        E 5 90 48 00
        E 5 90 40 00
        E 0 90 40 36
        E 87 90 3b 3d
        E 0 90 3c 00
        E 6 90 40 00
        E 0 90 40 4b
        E 20 90 48 28
        E 71 90 29 27
        E 6 90 48 00
        E 0 90 4a 00
        E 5 90 3b 00
        E 0 90 3c 3a
        E 0 90 40 00
        E 0 90 41 37
        E 0 90 48 38
        E 5 90 35 3e
        E 61 90 29 00
        E 36 90 3b 47
        E 0 90 3c 00
        E 36 90 41 00
        E 51 90 48 00
        E 10 90 40 40
        E 15 90 3b 00
        E 0 90 3b 31
        E 5 90 47 3d
        E 92 90 3b 00
        E 0 90 3b 49
        E 26 90 47 00
        E 92 90 3b 00
        E 0 90 3c 48
        E 0 90 48 24
        E 5 90 40 00
        E 0 90 40 53
        E 5 90 45 39
        E 31 90 29 2a
        E 20 90 48 00
        E 56 90 3b 48
        E 0 90 3c 00
        E 77 90 35 00
        E 46 90 3b 00
        E 0 90 3c 3f
        E 0 90 40 00
        E 0 90 40 47
        E 0 90 43 36
        E 57 90 29 00
        E 71 90 29 2c
        E 26 90 48 2c
        E 112 90 29 00
        E 0 90 48 00
        E 61 90 29 2b
        E 261 90 45 00
        E 46 90 29 00
        E 56 90 43 00
        E 36 90 40 00
        E 20 90 3c 00
        E 0 90 3c 55
        E 0 90 41 45
        E 5 90 2d 47
        E 108 90 3b 4a
        E 0 90 3c 00
        E 5 90 34 4d
        E 82 90 34 00
        E 0 90 34 2e
        E 15 90 3b 00
        E 6 90 41 00
        E 0 90 41 42
        E 5 90 2d 00
        E 0 90 2d 36
        E 5 90 39 42
        E 0 90 3c 4e
        E 0 90 45 34
        E 5 90 4c 39
        E 0 90 58 45
        E 97 90 28 3b
        E 5 90 3b 3f
        E 0 90 3c 00
        E 5 90 4c 00
        E 56 90 58 00
        E 16 90 34 00
        E 15 90 28 00
        E 10 90 3b 00
        E 16 90 3c 44
        E 0 90 4a 40
        E 0 90 56 3c
        E 5 90 41 00
        E 0 90 41 3a
        E 46 90 28 2e
        E 56 90 39 00
        E 0 90 56 00
        E 10 90 3b 43
        E 0 90 3c 00
        E 107 90 3b 00
        E 0 90 4a 00
        E 5 90 2d 00
        E 0 90 2d 40
        E 0 90 3c 38
        E 11 90 41 00
        E 0 90 41 30
        E 0 90 45 00
        E 0 90 45 47
        E 5 90 51 2e
        E 51 90 28 00
        E 46 90 28 34
        E 0 90 51 00
        E 30 90 3c 00
        E 87 90 41 00
        E 0 90 41 45
        E 5 90 2d 00
        E 0 90 2d 41
        E 0 90 3c 34
        E 5 90 39 30
        E 0 90 45 00
        E 0 90 45 37
        E 108 90 3b 39
        E 0 90 3c 00
        E 102 90 2d 00
        E 0 90 2d 3a
        E 6 90 45 00
        E 5 90 3b 00
        E 0 90 3c 43
        E 0 90 41 00
        E 0 90 41 3a
        E 61 90 28 00
        E 46 90 39 00
        E 0 90 3b 46
        E 0 90 3c 00
        E 10 90 28 2d
        E 0 90 45 34
        E 92 90 45 00
        E 21 90 2d 00
        E 0 90 2d 3c
        E 0 90 3b 00
        E 0 90 3c 4d
        E 0 90 41 00
        E 0 90 41 40
        E 56 90 28 00
        E 56 90 34 2b
        E 5 90 28 38
        E 0 90 3b 3f
        E 0 90 3c 00
        E 97 90 3b 00
        E 10 90 41 00
        E 0 90 41 3a
        E 21 90 39 3d
        E 0 90 3c 4f
        E 0 90 45 30
        E 0 90 4c 38
        E 0 90 58 44
        E 51 90 34 00
        E 46 90 3b 3c
        E 0 90 3c 00
        E 5 90 4c 00
        E 51 90 2d 00
        E 36 90 3b 00
        E 20 90 58 00
        E 10 90 39 00
        E 0 90 39 2b
        E 0 90 3c 46
        E 0 90 41 00
        E 0 90 41 30
        E 0 90 45 00
        E 0 90 45 32
        E 0 90 4a 3a
        E 0 90 56 40
        E 16 90 2d 35
        E 66 90 39 00
        E 11 90 3b 46
        E 0 90 3c 00
        E 26 90 56 00
        E 66 90 45 00
        E 25 90 2d 00
        E 0 90 4f 3b
        E 6 90 2d 54
        E 0 90 3b 00
        E 0 90 3c 47
        E 0 90 41 00
        E 0 90 41 2a
        E 25 90 5b 2c
        E 10 90 28 00
        E 57 90 41 00
        E 15 90 34 2b
        E 0 90 3b 39
        E 0 90 3c 00
        E 15 90 28 36
        E 56 90 34 00
        E 16 90 3b 00
        E 20 90 3c 42
        E 5 90 41 3c
        E 0 90 4a 00
        E 5 90 2d 00
        E 0 90 2d 3d
        E 0 90 39 3d
        E 0 90 45 34
        E 11 90 4f 00
        E 15 90 5b 00
        E 87 90 3b 3c
        E 0 90 3c 00
        E 92 90 3b 00
        E 5 90 45 00
        E 15 90 39 00
        E 0 90 39 2e
        E 0 90 3c 46
        E 5 90 41 00
        E 0 90 41 47
        E 0 90 4d 39
        E 82 90 39 00
        E 36 90 3b 48
        E 0 90 3c 00
        E 0 90 4d 00
        E 30 90 35 32
        E 51 90 28 00
        E 6 90 41 00
        E 5 90 35 00
        E 15 90 2d 00
        E 0 90 2d 48
        E 5 90 39 30
        E 0 90 40 2e
        E 0 90 43 30
        E 0 90 4c 38
        E 0 90 58 3e
        E 5 90 3e 2f
        E 10 90 3b 00
        E 52 90 40 00
        E 36 90 34 36
        E 0 90 3c 41
        E 10 90 43 00
        E 0 90 58 00
        E 10 90 4c 00
        E 5 90 3e 00
        E 5 90 41 2e
        E 62 90 41 00
        E 10 90 34 00
        E 20 90 3e 41
        E 0 90 43 3c
        E 6 90 2d 00
        E 0 90 2d 40
        E 0 90 39 00
        E 0 90 39 3d
        E 97 90 3c 00
        E 0 90 3c 3f
        E 15 90 43 00
        E 97 90 48 2c
        E 10 90 3e 00
        E 0 90 3e 39
        E 0 90 43 34
        E 61 90 48 00
        E 36 90 39 00
        E 5 90 3c 00
        E 0 90 3c 3f
        E 118 90 43 00
        E 0 90 43 3c
        E 5 90 2d 00
        E 0 90 2d 4c
        E 0 90 39 22
        E 0 90 3e 00
        E 0 90 3e 41
        E 71 90 39 00
        E 16 90 3e 00
        E 15 90 43 00
        E 5 90 34 2b
        E 5 90 3c 00
        E 0 90 3c 40
        E 67 90 3e 3e
        E 36 90 34 00
        E 15 90 2d 00
        E 0 90 2d 3f
        E 0 90 39 39
        E 0 90 43 35
        E 103 90 3c 00
        E 0 90 3c 3a
        E 20 90 43 00
        E 20 90 28 2a
        E 77 90 3e 00
        E 5 90 3e 42
        E 0 90 43 37
        E 26 90 28 00
        E 0 90 39 00
        E 76 90 3c 00
        E 0 90 3c 3d
        E 11 90 3e 00
        E 0 90 3e 3a
        E 20 90 43 00
        E 92 90 2d 00
        E 0 90 2d 52
        E 0 90 3e 00
        E 0 90 3e 4f
        E 0 90 43 35
        E 61 90 3e 00
        E 0 90 3e 45
        E 51 90 34 2e
        E 0 90 3c 00
        E 0 90 3c 3a
        E 87 90 28 2d
        E 31 90 43 00
        E 0 90 43 3c
        E 5 90 2d 00
        E 0 90 2d 44
        E 0 90 3e 00
        E 0 90 3e 4c
        E 102 90 3c 00
        E 0 90 3c 45
        E 0 90 3e 00
        E 0 90 3e 42
        E 0 90 48 2c
        E 15 90 34 00
        E 16 90 43 00
        E 15 90 39 29
        E 15 90 28 00
        E 51 90 39 00
        E 0 90 43 3a
        E 6 90 39 2f
        E 0 90 3e 00
        E 0 90 3e 56
        E 107 90 39 00
        E 0 90 39 2f
        E 0 90 3c 00
        E 0 90 3c 3c
        E 0 90 3e 00
        E 0 90 3e 47
        E 0 90 48 00
        E 0 90 48 31
        E 62 90 39 00
        E 51 90 43 00
        E 0 90 43 42
        E 5 90 2d 00
        E 0 90 2d 51
        E 0 90 3e 00
        E 0 90 3e 41
        E 87 90 28 32
        E 5 90 34 3b
        E 10 90 3c 00
        E 0 90 3c 39
        E 21 90 43 00
        E 20 90 48 00
        E 36 90 28 00
        E 46 90 43 41
        E 5 90 2d 00
        E 0 90 2d 48
        E 0 90 39 3c
        E 0 90 3e 00
        E 0 90 3e 50
        E 87 90 28 2d
        E 20 90 3c 00
        E 0 90 3c 3e
        E 0 90 48 31
        E 31 90 43 00
        E 56 90 28 00
        E 0 90 34 00
        E 15 90 48 00
        E 10 90 39 00
        E 0 90 39 36
        E 0 90 43 49
        E 6 90 3e 00
        E 0 90 3e 4f
        E 25 90 30 2a
        E 77 90 30 00
        E 5 90 30 29
        E 0 90 3c 00
        E 0 90 3c 47
        E 0 90 43 00
        E 0 90 43 2a
        E 0 90 48 2d
        E 5 90 3e 00
        E 0 90 3e 41
        E 5 90 39 00
        E 56 90 30 00
        E 31 90 41 42
        E 0 90 43 00
        E 6 90 48 00
        E 5 90 2d 00
        E 0 90 2d 45
        E 0 90 3c 00
        E 0 90 3c 46
        E 15 90 3e 00
        E 87 90 28 31
        E 10 90 34 39
        E 5 90 3b 46
        E 0 90 3c 00
        E 41 90 41 00
        E 51 90 34 00
        E 0 90 3b 00
        E 15 90 41 2e
        E 11 90 2d 00
        E 0 90 2d 36
        E 0 90 39 42
        E 5 90 3c 3e
        E 0 90 45 34
        E 0 90 4c 3c
        E 5 90 58 47
        E 97 90 3b 3d
        E 0 90 3c 00
        E 10 90 4c 00
        E 61 90 2d 00
        E 6 90 28 00
        E 0 90 58 00
        E 15 90 3b 00
        E 25 90 3c 3e
        E 0 90 41 00
        E 0 90 41 3d
        E 0 90 56 33
        E 6 90 28 2b
        E 0 90 45 00
        E 0 90 45 2d
        E 0 90 4a 46
        E 25 90 2d 31
        E 10 90 39 00
        E 67 90 3b 3c
        E 0 90 3c 00
        E 0 90 56 00
        E 30 90 45 00
        E 77 90 4a 00
        E 5 90 2d 00
        E 5 90 2d 46
        E 5 90 3b 00
        E 0 90 41 00
        E 0 90 41 39
        E 0 90 45 48
        E 0 90 51 37
        E 5 90 3c 38
        E 16 90 28 00
        E 0 90 28 32
        E 66 90 51 00
        E 15 90 4a 32
        E 11 90 3b 2e
        E 0 90 3c 00
        E 92 90 3b 00
        E 21 90 39 2f
        E 0 90 3c 38
        E 0 90 41 00
        E 0 90 41 39
        E 0 90 4a 00
        E 5 90 2d 00
        E 0 90 2d 3d
        E 0 90 45 00
        E 0 90 45 2e
        E 82 90 3c 00
        E 25 90 3b 3e
        E 107 90 3b 00
        E 0 90 3c 40
        E 0 90 41 00
        E 0 90 41 44
        E 31 90 39 00
        E 82 90 3b 35
        E 0 90 3c 00
        E 35 90 2d 00
        E 57 90 45 00
        E 15 90 41 00
        E 0 90 41 3b
        E 5 90 3b 00
        E 5 90 3c 32
        E 21 90 2d 37
        E 76 90 28 00
        E 0 90 28 3a
        E 5 90 34 24
        E 0 90 3b 39
        E 0 90 3c 00
        E 67 90 34 00
        E 30 90 3b 00
        E 26 90 41 00
        E 0 90 41 3b
        E 5 90 3c 47
        E 0 90 45 34
        E 0 90 4c 31
        E 5 90 39 3d
        E 0 90 58 4a
        E 87 90 28 00
        E 0 90 28 3e
        E 10 90 3b 34
        E 0 90 3c 00
        E 21 90 4c 00
        E 67 90 3b 00
        E 10 90 28 00
        E 0 90 58 00
        E 20 90 3c 35
        E 5 90 41 00
        E 0 90 41 37
        E 0 90 4a 41
        E 0 90 56 3c
        E 6 90 28 30
        E 25 90 39 00
        E 26 90 45 00
        E 40 90 3b 34
        E 0 90 3c 00
        E 6 90 56 00
        E 112 90 3b 00
        E 0 90 3c 4c
        E 0 90 41 00
        E 0 90 41 2d
        E 5 90 2d 00
        E 0 90 2d 4f
        E 21 90 4f 3c
        E 0 90 5b 30
        E 56 90 4a 00
        E 15 90 28 00
        E 0 90 28 3a
        E 10 90 34 30
        E 0 90 3b 26
        E 0 90 3c 00
        E 5 90 2d 00
        E 0 90 2d 4b
        E 0 90 5b 00
        E 31 90 4a 2a
        E 61 90 3b 00
        E 0 90 4f 00
        E 11 90 3c 39
        E 0 90 4a 00
        E 5 90 41 00
        E 0 90 41 39
        E 5 90 2d 00
        E 0 90 2d 3e
        E 0 90 39 3a
        E 0 90 45 2c
        E 112 90 3b 39
        E 0 90 3c 00
        E 21 90 45 00
        E 56 90 34 00
        E 5 90 3b 00
        E 36 90 3c 40
        E 5 90 39 00
        E 0 90 39 2e
        E 0 90 41 00
        E 0 90 41 48
        E 0 90 4d 3f
        E 0 90 59 1e
        E 61 90 59 00
        E 46 90 3b 3f
        E 0 90 3c 00
        E 0 90 4d 00
        E 41 90 39 00
        E 36 90 28 00
        E 31 90 43 2d
        E 5 90 2d 00
        E 0 90 2d 4c
        E 0 90 3e 2f
        E 5 90 3b 00
        E 0 90 3c 2d
        E 0 90 40 26
        E 0 90 41 00
        E 0 90 4c 3e
        E 0 90 58 3d
        E 97 90 34 31
        E 10 90 28 2b
        E 0 90 43 00
        E 5 90 3c 00
        E 0 90 3c 3d
        E 0 90 40 00
        E 0 90 48 2a
        E 6 90 58 00
        E 20 90 4c 00
        E 10 90 39 28
        E 36 90 48 00
        E 36 90 39 00
        E 5 90 2d 00
        E 0 90 2d 49
        E 0 90 39 3a
        E 0 90 3e 00
        E 0 90 3e 42
        E 0 90 43 31
        E 61 90 21 29
        E 56 90 3c 00
        E 0 90 3c 47
        E 11 90 43 00
        E 10 90 28 00
        E 10 90 21 00
        E 82 90 34 00
        E 5 90 43 36
        E 10 90 3e 00
        E 0 90 3e 39
        E 0 90 48 2c
        E 77 90 48 00
        E 25 90 3c 00
        E 0 90 3c 43
        E 56 90 39 00
        E 57 90 2d 00
        E 0 90 2d 4b
        E 0 90 43 00
        E 0 90 43 36
        E 10 90 3c 00
        E 0 90 3e 00
        E 0 90 3e 4b
        E 92 90 3c 3b
        E 0 90 48 28
        E 5 90 34 36
        E 82 90 34 00
        E 15 90 48 00
        E 16 90 43 00
        E 0 90 43 39
        E 5 90 2d 00
        E 0 90 2d 42
        E 0 90 39 35
        E 0 90 3e 00
        E 0 90 3e 4a
        E 102 90 3c 00
        E 0 90 3c 39
        E 0 90 48 2f
        E 5 90 3e 00
        E 0 90 3e 40
        E 113 90 43 00
        E 0 90 43 3b
        E 5 90 3e 00
        E 0 90 3e 57
        E 112 90 3c 00
        E 0 90 3c 43
        E 0 90 48 00
        E 0 90 48 27
        E 5 90 3e 00
        E 0 90 3e 45
        E 56 90 48 00
        E 11 90 43 00
        E 30 90 2d 00
        E 0 90 2d 4a
        E 0 90 39 00
        E 0 90 39 31
        E 5 90 3e 00
        E 5 90 40 3e
        E 6 90 3c 00
        E 0 90 3c 36
        E 0 90 45 3d
        E 0 90 58 39
        E 81 90 40 00
        E 16 90 58 00
        E 10 90 3e 30
        E 5 90 34 3c
        E 10 90 3c 00
        E 92 90 45 00
        E 0 90 45 46
        E 5 90 28 25
        E 0 90 2d 00
        E 0 90 2d 3f
        E 0 90 34 00
        E 0 90 34 34
        E 0 90 39 00
        E 0 90 39 3f
        E 0 90 40 31
        E 77 90 28 00
        E 26 90 40 00
        E 5 90 3e 00
        E 0 90 3e 47
        E 118 90 39 00
        E 0 90 39 33
        E 0 90 40 3a
        E 0 90 45 00
        E 0 90 45 41
        E 25 90 34 00
        E 82 90 3e 00
        E 0 90 3e 38
        E 61 90 39 00
        E 51 90 2d 00
        E 0 90 2d 54
        E 0 90 45 00
        E 0 90 45 3f
        E 5 90 40 00
        E 0 90 40 38
        E 102 90 34 3b
        E 6 90 3e 00
        E 0 90 3e 37
        E 15 90 28 30
        E 5 90 40 00
        E 87 90 2d 00
        E 0 90 2d 4a
        E 5 90 39 40
        E 0 90 40 35
        E 5 90 45 00
        E 0 90 45 3d
        E 102 90 3e 00
        E 0 90 3e 48
        E 0 90 40 00
        E 82 90 28 00
        E 0 90 34 00
        E 46 90 2d 00
        E 0 90 2d 42
        E 0 90 34 29
        E 0 90 39 00
        E 0 90 39 33
        E 0 90 40 34
        E 5 90 45 00
        E 0 90 45 44
        E 0 90 51 40
        E 67 90 34 00
        E 26 90 51 00
        E 10 90 3e 00
        E 0 90 3e 49
        E 5 90 45 00
        E 0 90 45 38
        E 15 90 40 00
        E 51 90 45 00
        E 41 90 39 00
        E 5 90 47 35
        E 5 90 41 3e
        E 6 90 3e 00
        E 0 90 3e 28
        E 0 90 45 2f
        E 0 90 4c 41
        E 0 90 58 38
        E 20 90 2d 00
        E 0 90 2d 51
        E 31 90 47 00
        E 10 90 45 00
        E 20 90 4c 00
        E 10 90 28 24
        E 0 90 34 4c
        E 6 90 40 41
        E 0 90 41 00
        E 25 90 3e 00
        E 41 90 28 00
        E 41 90 40 00
        E 0 90 41 49
        E 5 90 2d 00
        E 0 90 2d 4f
        E 5 90 34 00
        E 0 90 34 3b
        E 0 90 39 3b
        E 0 90 45 2a
        E 46 90 3e 24
        E 56 90 58 00
        E 5 90 40 3d
        E 0 90 41 00
        E 41 90 3e 00
        E 56 90 45 00
        E 21 90 34 00
        E 0 90 34 3b
        E 0 90 40 00
        E 0 90 40 30
        E 0 90 47 40
        E 46 90 39 00
        E 51 90 34 00
        E 0 90 34 39
        E 5 90 40 00
        E 0 90 40 4f
        E 51 90 47 00
        E 41 90 34 00
        E 5 90 28 27
        E 21 90 2d 00
        E 0 90 2d 55
        E 0 90 47 38
        E 0 90 4c 2c
        E 5 90 40 00
        E 0 90 40 36
        E 0 90 58 44
        E 36 90 28 00
        E 36 90 28 2a
        E 0 90 4c 00
        E 5 90 47 00
        E 10 90 40 00
        E 0 90 40 37
        E 5 90 2d 00
        E 0 90 2d 47
        E 0 90 34 3a
        E 56 90 40 00
        E 21 90 28 00
        E 15 90 58 00
        E 26 90 41 44
        E 0 90 47 37
        E 5 90 2d 00
        E 0 90 2d 41
        E 0 90 39 35
        E 0 90 4d 3d
        E 5 90 34 00
        E 0 90 34 2b
        E 10 90 28 2b
        E 87 90 40 3a
        E 0 90 41 00
        E 5 90 34 00
        E 0 90 34 2f
        E 20 90 4d 00
        E 36 90 28 00
        E 10 90 47 00
        E 21 90 34 00
        E 25 90 2d 00
        E 0 90 2d 4d
        E 0 90 40 00
        E 0 90 41 36
        E 0 90 48 46
        E 0 90 4f 43
        E 103 90 2d 00
        E 0 90 2d 52
        E 0 90 40 2e
        E 0 90 41 00
        E 35 90 39 00
        E 51 90 40 00
        E 36 90 2d 00
        E 0 90 2d 59
        E 0 90 4a 2e
        E 0 90 4c 30
        E 10 90 48 00
        E 11 90 40 23
        E 5 90 58 3f
        E 46 90 4a 00
        E 0 90 4c 00
        E 15 90 34 3b
        E 0 90 40 00
        E 0 90 40 35
        E 5 90 4f 00
        E 87 90 40 00
        E 0 90 58 00
        E 25 90 34 00
        E 0 90 41 47
        E 6 90 28 2e
        E 0 90 2d 00
        E 0 90 2d 50
        E 0 90 39 38
        E 61 90 28 00
        E 31 90 40 35
        E 0 90 41 00
        E 36 90 4a 24
        E 76 90 4a 00
        E 6 90 4a 33
        E 10 90 40 00
        E 0 90 40 33
        E 82 90 28 30
        E 15 90 39 00
        E 5 90 40 00
        E 0 90 40 43
        E 56 90 28 00
        E 46 90 4a 00
        E 10 90 2d 00
        E 0 90 2d 51
        E 0 90 48 36
        E 16 90 40 00
        E 87 90 34 33
        E 0 90 40 2e
        E 71 90 40 00
        E 46 90 4a 31
        E 5 90 39 2e
        E 0 90 56 47
        E 46 90 48 00
        E 46 90 28 2b
        E 36 90 56 00
        E 5 90 41 2a
        E 0 90 48 30
        E 10 90 4a 00
        E 56 90 34 00
        E 0 90 39 00
        E 16 90 48 00
        E 5 90 41 00
        E 0 90 48 4e
        E 5 90 41 40
        E 113 90 40 3d
        E 0 90 41 00
        E 71 90 28 00
        E 21 90 40 00
        E 15 90 41 2f
        E 0 90 47 3d
        E 0 90 48 00
        E 5 90 2d 00
        E 0 90 2d 52
        E 21 90 53 37
        E 71 90 47 00
        E 5 90 41 00
        E 11 90 2d 00
        E 0 90 2d 3f
        E 5 90 34 48
        E 0 90 40 38
        E 15 90 53 00
        E 87 90 40 00
        E 5 90 28 2a
        E 5 90 34 00
        E 0 90 34 31
        E 0 90 41 4d
        E 0 90 47 3a
        E 10 90 39 45
        E 0 90 45 27
        E 72 90 28 00
        E 10 90 47 00
        E 15 90 34 00
        E 0 90 34 38
        E 0 90 39 00
        E 0 90 39 30
        E 0 90 40 47
        E 0 90 41 00
        E 41 90 45 00
        E 72 90 40 00
        E 0 90 41 57
        E 5 90 47 3b
        E 5 90 34 00
        E 0 90 34 2e
        E 5 90 28 2f
        E 66 90 28 00
        E 6 90 39 00
        E 20 90 40 5a
        E 0 90 41 00
        E 87 90 34 00
        E 11 90 2d 00
        E 0 90 2d 45
        E 5 90 31 2a
        E 5 90 40 00
        E 0 90 41 44
        E 5 90 28 2c
        E 0 90 47 00
        E 0 90 47 37
        E 77 90 28 00
        E 5 90 31 00
        E 10 90 47 00
        E 10 90 34 2e
        E 102 90 41 00
        E 0 90 41 4c
        E 5 90 2d 00
        E 0 90 2d 47
        E 0 90 39 32
        E 67 90 28 24
        E 51 90 34 00
        E 0 90 34 31
        E 0 90 40 40
        E 0 90 41 00
        E 41 90 28 00
        E 35 90 34 00
        E 31 90 40 00
        E 0 90 41 4a
        E 0 90 48 42
        E 5 90 45 27
        E 102 90 2d 00
        E 0 90 2d 45
        E 0 90 40 48
        E 0 90 41 00
        E 11 90 45 00
        E 97 90 48 00
        E 5 90 2d 00
        E 0 90 2d 52
        E 0 90 40 00
        E 0 90 41 4e
        E 0 90 4a 34
        E 46 90 39 00
        E 51 90 28 30
        E 0 90 2d 00
        E 0 90 2d 50
        E 5 90 34 2c
        E 0 90 40 38
        E 0 90 41 00
        E 15 90 4a 00
        E 51 90 28 00
        E 26 90 34 00
        E 16 90 40 00
        E 0 90 41 41
        E 5 90 2d 00
        E 0 90 2d 46
        E 0 90 39 2f
        E 0 90 45 26
        E 0 90 4a 31
        E 20 90 28 2d
        E 72 90 45 00
        E 10 90 40 39
        E 0 90 41 00
        E 5 90 34 2d
        E 67 90 28 00
        E 30 90 34 00
        E 5 90 40 00
        E 11 90 41 51
        E 5 90 4a 00
        E 0 90 4a 37
        E 20 90 28 2e
        E 61 90 4a 00
        E 0 90 4a 3d
        E 21 90 40 50
        E 0 90 41 00
        E 41 90 28 00
        E 61 90 4a 00
        E 5 90 39 00
        E 0 90 39 31
        E 0 90 4c 40
        E 5 90 40 00
        E 0 90 41 30
        E 5 90 2d 00
        E 0 90 2d 5b
        E 51 90 4c 00
        E 16 90 39 00
        E 5 90 41 00
        E 20 90 40 3f
        E 10 90 34 39
        E 113 90 40 00
        E 0 90 40 2a
        E 5 90 2d 00
        E 0 90 2d 52
        E 0 90 39 46
        E 20 90 28 2b
        E 82 90 40 00
        E 0 90 40 33
        E 5 90 2d 00
        E 0 90 2d 4f
        E 16 90 28 00
        E 82 90 40 00
        E 0 90 51 3d
        E 5 90 2d 00
        E 0 90 2d 47
        E 0 90 34 00
        E 0 90 41 41
        E 5 90 39 00
        E 0 90 39 37
        E 0 90 45 40
        E 51 90 51 00
        E 51 90 45 00
        E 0 90 45 3c
        E 5 90 40 4f
        E 0 90 41 00
        E 11 90 51 2c
        E 71 90 51 00
        E 36 90 2d 00
        E 0 90 2d 46
        E 0 90 39 00
        E 0 90 39 35
        E 0 90 40 00
        E 0 90 41 36
        E 0 90 4c 39
        E 0 90 58 41
        E 25 90 45 00
        E 41 90 4c 00
        E 26 90 40 4f
        E 0 90 41 00
        E 5 90 34 40
        E 5 90 58 00
        E 107 90 40 00
        E 0 90 41 4f
        E 0 90 4c 23
        E 11 90 39 00
        E 0 90 39 30
        E 5 90 28 2a
        E 0 90 45 31
        E 51 90 4c 00
        E 20 90 28 00
        E 26 90 40 4c
        E 0 90 41 00
        E 5 90 34 00
        E 0 90 34 31
        E 10 90 45 00
        E 97 90 39 00
        E 0 90 39 3c
        E 0 90 4c 2d
        E 5 90 40 00
        E 0 90 41 52
        E 97 90 40 3f
        E 0 90 41 00
        E 10 90 4c 00
        E 36 90 34 00
        E 57 90 39 00
        E 0 90 39 30
        E 0 90 4c 4d
        E 0 90 58 39
        E 20 90 2d 00
        E 0 90 2d 3f
        E 6 90 40 00
        E 0 90 41 44
        E 61 90 39 00
        E 20 90 40 4b
        E 0 90 41 00
        E 5 90 34 35
        E 16 90 4c 00
        E 41 90 58 00
        E 15 90 34 00
        E 15 90 2d 00
        E 16 90 40 00
        E 0 90 41 44
        E 0 90 4d 43
        E 15 90 39 44
        E 0 90 45 2b
        E 10 90 2d 48
        E 56 90 45 00
        E 36 90 40 41
        E 0 90 41 00
        E 10 90 34 2d
        E 67 90 34 00
        E 10 90 4d 00
        E 15 90 40 00
        E 10 90 4f 48
        E 11 90 40 2b
        E 0 90 4c 2f
        E 5 90 39 00
        E 0 90 39 36
        E 81 90 4c 00
        E 21 90 40 00
        E 0 90 40 38
        E 87 90 2d 00
        E 0 90 2d 52
        E 0 90 39 00
        E 0 90 39 2c
        E 0 90 4c 37
        E 5 90 40 00
        E 5 90 4a 2b
        E 15 90 58 49
        E 56 90 4c 00
        E 11 90 39 00
        E 15 90 4a 00
        E 5 90 40 39
        E 10 90 34 33
        E 21 90 28 2d
        E 15 90 4f 00
        E 57 90 34 00
        E 5 90 4a 32
        E 10 90 40 00
        E 0 90 41 44
        E 5 90 2d 00
        E 0 90 2d 4f
        E 0 90 45 34
        E 16 90 28 00
        E 0 90 58 00
        E 76 90 2d 00
        E 0 90 2d 3d
        E 0 90 34 2d
        E 0 90 40 4f
        E 0 90 41 00
        E 0 90 45 00
        E 0 90 45 30
        E 62 90 39 29
        E 15 90 45 00
        E 25 90 34 00
        E 11 90 4a 00
        E 0 90 4a 3a
        E 15 90 40 00
        E 0 90 41 49
        E 87 90 28 32
        E 10 90 40 53
        E 0 90 41 00
        E 41 90 39 00
        E 25 90 28 00
        E 46 90 40 00
        E 0 90 41 40
        E 0 90 47 47
        E 6 90 2d 00
        E 0 90 2d 54
        E 30 90 4a 00
        E 67 90 34 49
        E 0 90 40 3e
        E 0 90 41 00
        E 5 90 47 00
        E 71 90 40 00
        E 10 90 4d 2c
        E 21 90 41 56
        E 10 90 34 00
        E 0 90 34 3a
        E 0 90 47 34
        E 5 90 2d 00
        E 0 90 2d 52
        E 0 90 39 35
        E 41 90 4d 00
        E 72 90 40 2e
        E 0 90 41 00
        E 20 90 47 00
        E 51 90 40 00
        E 10 90 39 00
        E 1 90 4f 49
        E 10 90 41 4d
        E 0 90 47 37
        E 72 90 34 00
        E 35 90 39 2a
        E 5 90 40 2f
        E 0 90 41 00
        E 57 90 39 00
        E 20 90 47 00
        E 15 90 40 00
        E 16 90 2d 00
        E 0 90 2d 58
        E 5 90 41 37
        E 0 90 51 2f
        E 0 90 5d 36
        E 10 90 35 2e
        E 66 90 35 00
        E 0 90 4f 00
        E 26 90 34 3a
        E 5 90 40 33
        E 0 90 41 00
        E 26 90 5d 00
        E 61 90 40 00
        E 20 90 2d 00
        E 0 90 2d 53
        E 0 90 39 34
        E 0 90 48 39
        E 6 90 41 36
        E 5 90 51 00
        E 107 90 34 00
        E 0 90 34 37
        E 0 90 40 36
        E 0 90 41 00
        E 117 90 40 00
        E 0 90 41 4b
        E 0 90 48 00
        E 0 90 48 38
        E 26 90 39 00
        E 25 90 34 00
        E 62 90 40 41
        E 0 90 41 00
        E 56 90 48 00
        E 20 90 39 23
        E 11 90 40 00
        E 10 90 5d 39
        E 6 90 31 29
        E 0 90 41 4f
        E 10 90 2d 00
        E 0 90 2d 4e
        E 25 90 39 00
        E 41 90 31 00
        E 31 90 2d 00
        E 0 90 2d 44
        E 0 90 40 32
        E 0 90 41 00
        E 5 90 34 32
        E 20 90 5d 00
        E 41 90 34 00
        E 16 90 40 00
        E 10 90 4f 3c
        E 5 90 48 30
        E 0 90 5b 26
        E 10 90 41 3f
        E 10 90 39 35
        E 67 90 5b 00
        E 35 90 40 39
        E 0 90 41 00
        E 6 90 48 00
        E 0 90 48 38
        E 76 90 39 00
        E 15 90 40 00
        E 6 90 4d 30
        E 25 90 41 51
        E 0 90 48 00
        E 0 90 48 4b
        E 72 90 48 00
        E 0 90 48 3e
        E 0 90 4f 00
        E 15 90 4d 00
        E 20 90 40 3f
        E 0 90 41 00
        E 103 90 4c 3d
        E 5 90 58 46
        E 10 90 39 2d
        E 0 90 40 00
        E 0 90 41 34
        E 0 90 47 37
        E 0 90 48 00
        E 15 90 2d 00
        E 0 90 2d 4b
        E 77 90 47 00
        E 0 90 4c 00
        E 5 90 39 00
        E 10 90 34 36
        E 0 90 40 3a
        E 0 90 41 00
        E 26 90 28 2e
        E 87 90 40 00
        E 5 90 2d 00
        E 0 90 2d 46
        E 0 90 39 38
        E 0 90 45 2b
        E 5 90 41 47
        E 11 90 58 00
        E 92 90 40 3e
        E 0 90 41 00
        E 25 90 28 00
        E 10 90 45 00
        E 46 90 39 00
        E 26 90 47 32
        E 5 90 28 2e
        E 0 90 40 00
        E 0 90 40 3b
        E 46 90 34 00
        E 15 90 28 00
        E 46 90 40 00
        E 0 90 40 44
        E 118 90 2d 00
        E 0 90 2d 4d
        E 0 90 40 00
        E 0 90 41 54
        E 0 90 47 00
        E 0 90 47 3e
        E 81 90 47 00
        E 26 90 34 47
        E 0 90 39 2d
        E 0 90 40 43
        E 0 90 41 00
        E 112 90 40 00
        E 0 90 41 56
        E 5 90 2d 00
        E 0 90 2d 47
        E 0 90 39 00
        E 0 90 39 40
        E 103 90 34 00
        E 0 90 34 3e
        E 0 90 40 40
        E 0 90 41 00
        E 107 90 47 38
        E 6 90 40 00
        E 0 90 41 54
        E 5 90 34 00
        E 0 90 34 3b
        E 51 90 47 00
        E 56 90 40 50
        E 0 90 41 00
        E 5 90 34 00
        E 0 90 34 3c
        E 31 90 39 00
        E 61 90 34 00
        E 10 90 40 00
        E 0 90 41 48
        E 5 90 2d 00
        E 0 90 2d 49
        E 0 90 3c 4c
        E 108 90 28 34
        E 10 90 3b 3b
        E 0 90 3c 00
        E 5 90 34 30
        E 102 90 3b 00
        E 5 90 3c 55
        E 5 90 39 29
        E 0 90 41 00
        E 0 90 41 37
        E 0 90 45 3e
        E 0 90 58 4c
        E 77 90 34 00
        E 20 90 3b 3d
        E 0 90 3c 00
        E 82 90 45 00
        E 5 90 58 00
        E 16 90 39 00
        E 0 90 3b 00
        E 10 90 3c 45
        E 5 90 41 00
        E 0 90 41 4c
        E 0 90 56 46
        E 87 90 45 34
        E 10 90 3b 48
        E 0 90 3c 00
        E 36 90 56 00
        E 41 90 28 00
        E 10 90 45 00
        E 31 90 3b 00
        E 0 90 3c 49
        E 0 90 41 00
        E 0 90 41 3a
        E 10 90 2d 00
        E 0 90 2d 46
        E 0 90 51 47
        E 97 90 34 35
        E 5 90 28 38
        E 0 90 3b 3f
        E 0 90 3c 00
        E 5 90 51 00
        E 0 90 51 39
        E 92 90 51 00
        E 11 90 41 00
        E 0 90 41 4c
        E 5 90 2d 00
        E 0 90 2d 3e
        E 5 90 39 39
        E 0 90 3b 00
        E 0 90 3c 3e
        E 0 90 45 30
        E 107 90 3b 3d
        E 0 90 3c 00
        E 102 90 3b 00
        E 11 90 3c 4a
        E 0 90 41 00
        E 0 90 41 46
        E 71 90 28 00
        E 5 90 34 00
        E 15 90 39 00
        E 6 90 35 27
        E 15 90 3b 4e
        E 0 90 3c 00
        E 20 90 28 2a
        E 0 90 45 00
        E 77 90 35 00
        E 10 90 2d 00
        E 0 90 2d 4b
        E 5 90 3e 39
        E 0 90 41 00
        E 0 90 43 34
        E 31 90 3b 00
        E 15 90 28 00
        E 26 90 43 00
        E 25 90 34 35
        E 11 90 3c 49
        E 77 90 28 2a
        E 30 90 43 39
        E 6 90 3e 00
        E 0 90 3e 46
        E 10 90 39 3c
        E 5 90 21 32
        E 0 90 58 4a
        E 46 90 28 00
        E 46 90 3c 00
        E 0 90 3c 4a
        E 10 90 21 00
        E 36 90 43 00
        E 0 90 58 00
        E 41 90 34 00
        E 30 90 43 40
        E 5 90 3e 00
        E 0 90 3e 4f
        E 0 90 56 40
        E 67 90 39 00
        E 20 90 56 00
        E 10 90 3c 00
        E 0 90 3c 4c
        E 21 90 34 32
        E 66 90 34 00
        E 26 90 43 00
        E 0 90 43 45
        E 5 90 2d 00
        E 0 90 2d 52
        E 5 90 39 25
        E 5 90 3e 00
        E 0 90 3e 40
        E 5 90 5b 3f
        E 10 90 48 2b
        E 41 90 39 00
        E 41 90 34 3f
        E 5 90 48 00
        E 0 90 5b 00
        E 5 90 3c 00
        E 0 90 3c 46
        E 0 90 48 32
        E 6 90 43 00
        E 107 90 43 47
        E 5 90 39 3d
        E 0 90 3e 00
        E 0 90 3e 56
        E 5 90 2d 00
        E 0 90 2d 3f
        E 10 90 28 27
        E 83 90 3c 00
        E 0 90 3c 46
        E 40 90 28 00
        E 31 90 48 00
        E 36 90 34 00
        E 0 90 43 00
        E 0 90 43 42
        E 15 90 3e 00
        E 0 90 3e 4e
        E 0 90 59 31
        E 67 90 59 00
        E 30 90 48 2e
        E 5 90 3c 00
        E 0 90 3c 51
        E 87 90 39 00
        E 10 90 43 00
        E 6 90 41 39
        E 25 90 3c 00
        E 0 90 3c 4a
        E 0 90 58 3e
        E 5 90 3e 00
        E 10 90 48 00
        E 72 90 28 3b
        E 0 90 34 2a
        E 10 90 3b 36
        E 0 90 3c 00
        E 51 90 34 00
        E 41 90 3b 00
        E 15 90 41 00
        E 0 90 41 48
        E 5 90 3c 48
        E 6 90 39 33
        E 0 90 45 3b
        E 20 90 3e 33
        E 46 90 58 00
        E 20 90 2d 00
        E 21 90 3b 42
        E 0 90 3c 00
        E 51 90 2d 30
        E 0 90 3e 00
        E 61 90 3b 00
        E 0 90 3c 57
        E 0 90 41 00
        E 0 90 41 47
        E 5 90 28 00
        E 67 90 28 33
        E 21 90 39 00
        E 5 90 3b 49
        E 0 90 3c 00
        E 46 90 45 00
        E 66 90 41 00
        E 0 90 41 4d
        E 5 90 2d 00
        E 5 90 2d 42
        E 0 90 3b 00
        E 0 90 3c 45
        E 98 90 28 00
        E 0 90 34 31
        E 5 90 28 3d
        E 0 90 3b 40
        E 0 90 3c 00
        E 107 90 41 00
        E 0 90 41 4b
        E 5 90 39 42
        E 0 90 3b 00
        E 0 90 3c 3a
        E 5 90 45 28
        E 5 90 28 00
        E 77 90 28 3d
        E 20 90 3b 43
        E 0 90 3c 00
        E 36 90 45 00
        E 66 90 34 00
        E 11 90 3b 00
        E 0 90 3c 51
        E 5 90 41 00
        E 0 90 41 50
        E 36 90 45 2c
        E 30 90 39 00
        E 31 90 45 00
        E 10 90 3b 4b
        E 0 90 3c 00
        E 82 90 28 00
        E 15 90 41 00
        E 5 90 43 33
        E 5 90 2d 00
        E 0 90 2d 4c
        E 11 90 3e 2c
        E 56 90 3b 00
        E 15 90 43 00
        E 31 90 3c 46
        E 36 90 3e 00
        E 82 90 3e 2a
        E 25 90 45 32
        E 36 90 3e 00
        E 61 90 45 00
        E 16 90 2d 00
        E 0 90 2d 3a
        E 0 90 3e 42
        E 0 90 45 37
        E 76 90 43 31
        E 5 90 3e 00
        E 0 90 3e 3e
        E 82 90 45 00
        E 46 90 3e 00
        E 10 90 43 00
        E 97 90 3c 00
        E 133 90 2d 00
        E 116 b0 7b 00
        CCINTERP 32
        CHASE_CC_TAKEOFFS 1
        GUID {6D57FD42-2977-4C7F-B49E-1FA12412EE29}
        IGNTEMPO 0 120 4 4
        SRCCOLOR 221
      >
    >
  >
  <UINF 134
    <TRACK {EC680376-C257-454C-B45C-D88628BCD590}
      NAME "Gwyn, Lord of Cinder"
      PEAKCOL 33554431
      BEAT -1
      AUTOMODE 0
      VOLPAN 1 0 -1 -1 1
      MUTESOLO 1 0 0
      IPHASE 0
      PLAYOFFS 0 1
      ISBUS 1 1
      BUSCOMP 0 0 0 0 0
      SHOWINMIX 1 0.6667 0.5 1 0.5 -1 -1 -1
      REC 0 0 1 0 0 0 0 0
      VU 2
      TRACKHEIGHT 0 0 0 0 0 0
      INQ 0 0 0 0.5 100 0 0 100
      NCHAN 2
      FX 1
      TRACKID {EC680376-C257-454C-B45C-D88628BCD590}
      PERF 0
      UNDO_HAS_TRACKENV
      MIDIOUT -1
      MAINSEND 1 0
    >
  >
  <UINF 135
    <TRACK {8CDE9AAD-6CE0-432F-B847-21A11CDD53FE}
      NAME Original_Audio
      PEAKCOL 25132927
      BEAT -1
      AUTOMODE 0
      VOLPAN 1 0 -1 -1 1
      MUTESOLO 1 0 0
      IPHASE 0
      PLAYOFFS 0 1
      ISBUS 0 0
      BUSCOMP 0 0 0 0 0
      SHOWINMIX 1 0.6667 0.5 1 0.5 -1 -1 -1
      REC 0 0 1 0 0 0 0 0
      VU 2
      TRACKHEIGHT 0 0 0 0 0 0
      INQ 0 0 0 0.5 100 0 0 100
      NCHAN 2
      FX 1
      TRACKID {8CDE9AAD-6CE0-432F-B847-21A11CDD53FE}
      PERF 0
      UNDO_HAS_TRACKENV
      MIDIOUT -1
      MAINSEND 1 0
    >
  >
  <UINF 136
    <TRACK {AF3E723C-8BD9-455D-B7D3-14026E7EBD13}
      NAME "Nov26_02 (Preprocessed data)"
      PEAKCOL 32334866
      BEAT -1
      AUTOMODE 0
      VOLPAN 1 0 -1 -1 1
      MUTESOLO 1 0 0
      IPHASE 0
      PLAYOFFS 0 1
      ISBUS 0 0
      BUSCOMP 0 0 0 0 0
      SHOWINMIX 1 0.6667 0.5 1 0.5 -1 -1 -1
      REC 0 0 1 0 0 0 0 0
      VU 2
      TRACKHEIGHT 0 0 0 0 0 0
      INQ 0 0 0 0.5 100 0 0 100
      NCHAN 2
      FX 1
      TRACKID {AF3E723C-8BD9-455D-B7D3-14026E7EBD13}
      PERF 0
      UNDO_HAS_TRACKENV
      MIDIOUT -1
      MAINSEND 1 0
    >
  >
  <UINF 137
    WNDRECT 23 51 855 480
    SHOW 1
    LASTSEL 0
    DOCKED 0
  >
  <UINF 138
    WNDRECT 23 51 556 508
    SHOW 1
    LASTSEL 0
    DOCKED 0
    BYPASS 0 0 0
    FXID_NEXT {B6F4BCAC-42EE-4B80-8C7D-D0C946D4D4D7}
    <VST "VSTi: ReaSynth (Cockos)" reasynth.dll 0 "" 1919251321<5653547265737972656173796E746800> ""
      eXNlcu9e7f4AAAAAAgAAAAEAAAAAAAAAAgAAAAAAAABEAAAAAAAAAAAAEAA=
      776t3g3wrd6mm8Q7F7fROgAAAAAAAAAAAAAAAM5NAD/pZ4g9AAAAAAAAAD8AAIA/AACAPwAAAD8AAAAAAAAAAAAAAAA=
      AAAQAAAA
    >
    FLOATPOS 0 0 0 0
    WAK 0 0
  >
  <UINF 139
    WNDRECT 23 51 834 455
    SHOW 2
    LASTSEL 1
    DOCKED 0
    BYPASS 0 0 0
    FXID_NEXT {B6F4BCAC-42EE-4B80-8C7D-D0C946D4D4D7}
    <VST "VSTi: ReaSynth (Cockos)" reasynth.dll 0 "" 1919251321<5653547265737972656173796E746800> ""
      eXNlcu9e7f4AAAAAAgAAAAEAAAAAAAAAAgAAAAAAAABEAAAAAAAAAAAAEAA=
      776t3g3wrd6mm8Q7F7fROgAAAAAAAAAAAAAAAM5NAD/pZ4g9AAAAAAAAAD8AAIA/AACAPwAAAD8AAAAAAAAAAAAAAAA=
      AAAQAAAA
    >
    FLOATPOS 0 0 0 0
    WAK 0 0
    BYPASS 0 0 0
    FXID_NEXT {CA1062B1-7B4C-4362-B83E-E2C200664747}
    <VST "VSTi: BassMidiVsti (Falcosoft)" BassMidiVsti.dll 0 "" 1112755524<56535442534D44626173736D69646976> ""
      RE1TQu5e7f4AAAAAAgAAAAEAAAAAAAAAAgAAAAAAAAD1DAAAAQAAAAAAEAA=
      AAAAAAAAAAAAAAAAAAAAAAAAAAAAAAAAAAAAAAAAAAAAAAAAAAAAAAAAAAAAAAAAAAAAAAAAAAAAAAAAAAAAAAAAAAAAAAAAAAAAAAAAAAAAAAAAAAAAAAAAAAAAAAAAAAAAAAAAAAAAAAAAAAAAAAAAAAAAAAAAAAAAAAAAAAAAAAAAAAAAAAAAAAAAAAAAAAAAAAAAAAAAAAAAAAAAAAAAAAAAAAAAAAAAAAAAAAAAAAAAAAAAAAAAAAAAAAAAAAAAAAAAAAAAAAAAAAAAAAAA
      AAAAAAAAAAAAAAAAAAAAAAAAAAAAAAAAAAAAAAAAAAAAAAAAAAAAAAAAAAAAAAAAAAAAAAAAAAAAAAAAAAAAAAAAAAAAAAAAAAAAAAAAAAAAAAAAAAAAAAAAAAAAAAAAAAAAAAAAAAAAAAAAAAAAAAAAAAAAAAAAAAAAAAAAAAAAAAAAAAAAAAAAAAAAAAAAAAAAAAAAAAAAAAAAAAAAAAAAAAAAAAAAAAAAAAAAAAAAAAAAAAAAAAAAAAAAAAAAAAAAAAAAAAAAAAAAAAAAAAAA
      AAAAAAAAAAAAAAAAAAAAAAAAAAAAAAAAAAAAAAAAAAAAAAAAAAAAAAAAAAAAAAAAAAAAAAAAAAAAAAAAAAAAAAAAAAAAAAAAAAAAAAAAAAAAAAAAAAAAAAAAAAAAAAAAAAAAAAAAZAAAAAEAAAAAAAAAAAAAAAAAAAAAAAAAAAAAAAAAAAAAAAAAAAAAAAAAAAAAAAAAAAAAAAAAAAAAAAAAAAAAAAAAAAAAAAAAAAAAAAAAAAAAAAAAAAAAAAAAAAAAAAAAAAAAAAAAAAAAAAAA
      AAAAAAAAAAAAAAAAAAAAAAAAAAAAAAAAAAAAAAAAAAAAAAAAAAAAAAAAAAAAAAAAAAAAAAAAAAAAAAAAAAAAAAAAAAAAAAAAAAAAAAAAAAAAAAAAAAAAAAAAAAAAAAAAAAAAAAAAAAAAAAAAAAAAAAAAAAAAAAAAAAAAAAAAAAAAAAAAAAAAAAAAAAAAAAAAAAAAAAAAAAAAAAAAAAAAAAAAAAAAAAAAAAAAAAAAAAAAAAAAAAAAAAAAAAAAAAAAAAAAAAAAAAAAAAAAAAAAAAAA
      AAAAAAAAAAAAAAAAAAAAAAAAAAAAAAAAAAAAAAAAAAAAAAAAAAAAAAAAAAAAAAAAAAAAAAAAAAAAAAAAAAAAAAAAAAAAAAAAAAAAAAAAAAAAAAAAAAAAAAAAAAAAAAAAAAAAAAAAAAAAAAAAAAAAAAAAAAAAAAAAAAAAAAAAAAAAAAAAAAAAAAAAAAAAAAAAAAAAAAAAAAAAAAAAAAAAAAAAAAAAAAAAAAAAAAAAAAAAAAAAAAAAAAAAAAAAAAAAAAAAAAAAAAAAAAAAAAAAAABk
      AAEAAAAAAAAAAAAAAAAAAAAAAAAAAAAAAAAAAAAAAAAAAAAAAAAAAAAAAAAAAAAAAAAAAAAAAAAAAAAAAAAAAAAAAAAAAAAAAAAAAAAAAAAAAAAAAAAAAAAAAAAAAAAAAAAAAAAAAAAAAAAAAAAAAAAAAAAAAAAAAAAAAAAAAAAAAAAAAAAAAAAAAAAAAAAAAAAAAAAAAAAAAAAAAAAAAAAAAAAAAAAAAAAAAAAAAAAAAAAAAAAAAAAAAAAAAAAAAAAAAAAAAAAAAAAAAAAAAAAA
      AAAAAAAAAAAAAAAAAAAAAAAAAAAAAAAAAAAAAAAAAAAAAAAAAAAAAAAAAAAAAAAAAAAAAAAAAAAAAAAAAAAAAAAAAAAAAAAAAAAAAAAAAAAAAAAAAAAAAAAAAAAAAAAAAAAAAAAAAAAAAAAAAAAAAAAAAAAAAAAAAAAAAAAAAAAAAAAAAAAAAAAAAAAAAAAAAAAAAAAAAAAAAAAAAAAAAAAAAAAAAAAAAAAAAAAAAAAAAAAAAAAAAAAAAAAAAAAAAAAAAAAAAAAAAAAAAAAAAAAA
      AAAAAAAAAAAAAAAAAAAAAAAAAAAAAAAAAAAAAAAAAAAAAAAAAAAAAAAAAAAAAAAAAAAAAAAAAAAAAAAAAAAAAAAAAAAAAAAAAAAAAAAAAAAAAAAAAAAAAAAAAAAAAAAAAAAAAAAAAAAAAGQAAgAAAAAAAAAAAAAAAAAAAAAAAAAAAAAAAAAAAAAAAAAAAAAAAAAAAAAAAAAAAAAAAAAAAAAAAAAAAAAAAAAAAAAAAAAAAAAAAAAAAAAAAAAAAAAAAAAAAAAAAAAAAAAAAAAAAAAA
      AAAAAAAAAAAAAAAAAAAAAAAAAAAAAAAAAAAAAAAAAAAAAAAAAAAAAAAAAAAAAAAAAAAAAAAAAAAAAAAAAAAAAAAAAAAAAAAAAAAAAAAAAAAAAAAAAAAAAAAAAAAAAAAAAAAAAAAAAAAAAAAAAAAAAAAAAAAAAAAAAAAAAAAAAAAAAAAAAAAAAAAAAAAAAAAAAAAAAAAAAAAAAAAAAAAAAAAAAAAAAAAAAAAAAAAAAAAAAAAAAAAAAAAAAAAAAAAAAAAAAAAAAAAAAAAAAAAAAAAA
      AAAAAAAAAAAAAAAAAAAAAAAAAAAAAAAAAAAAAAAAAAAAAAAAAAAAAAAAAAAAAAAAAAAAAAAAAAAAAAAAAAAAAAAAAAAAAAAAAAAAAAAAAAAAAAAAAAAAAAAAAAAAAAAAAAAAAAAAAAAAAAAAAAAAAAAAAAAAAAAAAAAAAAAAAAAAAAAAAAAAAAAAAAAAAAAAAAAAAAAAAAAAAAAAAAAAAAAAAAAAAAAAAAAAAAAAAAAAAAAAAAAAAAAAAAAAAAAAAAAAAAAAAAAAAAAAAAAAAAAA
      AAAAZAADAAAAAAAAAAAAAAAAAAAAAAAAAAAAAAAAAAAAAAAAAAAAAAAAAAAAAAAAAAAAAAAAAAAAAAAAAAAAAAAAAAAAAAAAAAAAAAAAAAAAAAAAAAAAAAAAAAAAAAAAAAAAAAAAAAAAAAAAAAAAAAAAAAAAAAAAAAAAAAAAAAAAAAAAAAAAAAAAAAAAAAAAAAAAAAAAAAAAAAAAAAAAAAAAAAAAAAAAAAAAAAAAAAAAAAAAAAAAAAAAAAAAAAAAAAAAAAAAAAAAAAAAAAAAAAAA
      AAAAAAAAAAAAAAAAAAAAAAAAAAAAAAAAAAAAAAAAAAAAAAAAAAAAAAAAAAAAAAAAAAAAAAAAAAAAAAAAAAAAAAAAAAAAAAAAAAAAAAAAAAAAAAAAAAAAAAAAAAAAAAAAAAAAAAAAAAAAAAAAAAAAAAAAAAAAAAAAAAAAAAAAAAAAAAAAAAAAAAAAAAAAAAAAAAAAAAAAAAAAAAAAAAAAAAAAAAAAAAAAAAAAAAAAAAAAAAAAAAAAAAAAAAAAAAAAAAAAAAAAAAAAAAAAAAAAAAAA
      AAAAAAAAAAAAAAAAAAAAAAAAAAAAAAAAAAAAAAAAAAAAAAAAAAAAAAAAAAAAAAAAAAAAAAAAAAAAAAAAAAAAAAAAAAAAAAAAAAAAAAAAAAAAAAAAAAAAAAAAAAAAAAAAAAAAAAAAAAAAAAAAAABkAAQAAAAAAAAAAAAAAACAPwAAgD8AAAAAAACAQgAAAAAAAIBCAACAQwAAAAAAAAAAACAAAAAAAAAAAAAAZAAAAEAAAAAoAAAAAAAAAEAAAAAAAAAAAAAAAAAgAAAAAAAAAAAA
      AGQAAABAAAAAKAAAAAAAAABAAAAAAAAAAAAAAAAAIAAAAAAAAAAAAABkAAAAQAAAACgAAAAAAAAAQAAAAAAAAAAAAAAAACAAAAAAAAAAAAAAZAAAAEAAAAAoAAAAAAAAAEAAAAAAAAAAAAAAAAAgAAAAAAAAAAAAAGQAAABAAAAAKAAAAAAAAABAAAAAAAAAAAAAAAAAIAAAAAAAAAAAAABkAAAAQAAAACgAAAAAAAAAQAAAAAAAAAAAAAAAACAAAAAAAAAAAAAAZAAAAEAAAAAo
      AAAAAAAAAEAAAAAAAAAAAAAAAAAgAAAAAAAAAAAAAGQAAABAAAAAKAAAAAAAAABAAAAAAAAAAAAAAAAAIAAAAAAAAAAAAABkAAAAQAAAACgAAAAAAAAAQAAAAAAAAAAAAAAAACAAAAAAAAAAAAAAZAAAAEAAAAAoAAAAAAAAAEAAAAAAAAAAAAAAAAAgAAAAAAAAAAAAAGQAAABAAAAAKAAAAAAAAABAAAAAAAAAAAAAAAAAIAAAAAAAAAAAAABkAAAAQAAAACgAAAAAAAAAQAAA
      AAAAAAAAAAAAACAAAAAAAAAAAAAAZAAAAEAAAAAoAAAAAAAAAEAAAAAAAAAAAAAAAAAgAAAAAAAAAAAAAGQAAABAAAAAKAAAAAAAAABAAAAAAAAAAAAAAAAAIAAAAAAAAAAAAABkAAAAQAAAACgAAAAAAAAAQAAAAAAAAAAAAAAAACAAAAAAAAAAAAAAZAAAAEAAAAAoAAAAAAAAAEAAAAAAAAAAAAA=
      AEJhc3NNaWRpABAAAAA=
    >
    PRESETNAME BassMidi
    FLOATPOS 0 0 0 0
    WAK 0 0
  >
  <UINF 140
    UNDOSKIP
    UNDOSKIP
  >
  <UINF 141
    WNDRECT 23 51 834 455
    SHOW 2
    LASTSEL 1
    DOCKED 0
    BYPASS 1 0 0
    FXID_NEXT {B6F4BCAC-42EE-4B80-8C7D-D0C946D4D4D7}
    <VST "VSTi: ReaSynth (Cockos)" reasynth.dll 0 "" 1919251321<5653547265737972656173796E746800> ""
      eXNlcu9e7f4AAAAAAgAAAAEAAAAAAAAAAgAAAAAAAABEAAAAAAAAAAAAEAA=
      776t3g3wrd6mm8Q7F7fROgAAAAAAAAAAAAAAAM5NAD/pZ4g9AAAAAAAAAD8AAIA/AACAPwAAAD8AAAAAAAAAAAAAAAA=
      AAAQAAAA
    >
    FLOATPOS 0 0 0 0
    WAK 0 0
    BYPASS 0 0 0
    FXID_NEXT {CA1062B1-7B4C-4362-B83E-E2C200664747}
    <VST "VSTi: BassMidiVsti (Falcosoft)" BassMidiVsti.dll 0 "" 1112755524<56535442534D44626173736D69646976> ""
      RE1TQu5e7f4AAAAAAgAAAAEAAAAAAAAAAgAAAAAAAAD1DAAAAQAAAAAAEAA=
      AAAAAAAAAAAAAAAAAAAAAAAAAAAAAAAAAAAAAAAAAAAAAAAAAAAAAAAAAAAAAAAAAAAAAAAAAAAAAAAAAAAAAAAAAAAAAAAAAAAAAAAAAAAAAAAAAAAAAAAAAAAAAAAAAAAAAAAAAAAAAAAAAAAAAAAAAAAAAAAAAAAAAAAAAAAAAAAAAAAAAAAAAAAAAAAAAAAAAAAAAAAAAAAAAAAAAAAAAAAAAAAAAAAAAAAAAAAAAAAAAAAAAAAAAAAAAAAAAAAAAAAAAAAAAAAAAAAAAAAA
      AAAAAAAAAAAAAAAAAAAAAAAAAAAAAAAAAAAAAAAAAAAAAAAAAAAAAAAAAAAAAAAAAAAAAAAAAAAAAAAAAAAAAAAAAAAAAAAAAAAAAAAAAAAAAAAAAAAAAAAAAAAAAAAAAAAAAAAAAAAAAAAAAAAAAAAAAAAAAAAAAAAAAAAAAAAAAAAAAAAAAAAAAAAAAAAAAAAAAAAAAAAAAAAAAAAAAAAAAAAAAAAAAAAAAAAAAAAAAAAAAAAAAAAAAAAAAAAAAAAAAAAAAAAAAAAAAAAAAAAA
      AAAAAAAAAAAAAAAAAAAAAAAAAAAAAAAAAAAAAAAAAAAAAAAAAAAAAAAAAAAAAAAAAAAAAAAAAAAAAAAAAAAAAAAAAAAAAAAAAAAAAAAAAAAAAAAAAAAAAAAAAAAAAAAAAAAAAAAAZAAAAAEAAAAAAAAAAAAAAAAAAAAAAAAAAAAAAAAAAAAAAAAAAAAAAAAAAAAAAAAAAAAAAAAAAAAAAAAAAAAAAAAAAAAAAAAAAAAAAAAAAAAAAAAAAAAAAAAAAAAAAAAAAAAAAAAAAAAAAAAA
      AAAAAAAAAAAAAAAAAAAAAAAAAAAAAAAAAAAAAAAAAAAAAAAAAAAAAAAAAAAAAAAAAAAAAAAAAAAAAAAAAAAAAAAAAAAAAAAAAAAAAAAAAAAAAAAAAAAAAAAAAAAAAAAAAAAAAAAAAAAAAAAAAAAAAAAAAAAAAAAAAAAAAAAAAAAAAAAAAAAAAAAAAAAAAAAAAAAAAAAAAAAAAAAAAAAAAAAAAAAAAAAAAAAAAAAAAAAAAAAAAAAAAAAAAAAAAAAAAAAAAAAAAAAAAAAAAAAAAAAA
      AAAAAAAAAAAAAAAAAAAAAAAAAAAAAAAAAAAAAAAAAAAAAAAAAAAAAAAAAAAAAAAAAAAAAAAAAAAAAAAAAAAAAAAAAAAAAAAAAAAAAAAAAAAAAAAAAAAAAAAAAAAAAAAAAAAAAAAAAAAAAAAAAAAAAAAAAAAAAAAAAAAAAAAAAAAAAAAAAAAAAAAAAAAAAAAAAAAAAAAAAAAAAAAAAAAAAAAAAAAAAAAAAAAAAAAAAAAAAAAAAAAAAAAAAAAAAAAAAAAAAAAAAAAAAAAAAAAAAABk
      AAEAAAAAAAAAAAAAAAAAAAAAAAAAAAAAAAAAAAAAAAAAAAAAAAAAAAAAAAAAAAAAAAAAAAAAAAAAAAAAAAAAAAAAAAAAAAAAAAAAAAAAAAAAAAAAAAAAAAAAAAAAAAAAAAAAAAAAAAAAAAAAAAAAAAAAAAAAAAAAAAAAAAAAAAAAAAAAAAAAAAAAAAAAAAAAAAAAAAAAAAAAAAAAAAAAAAAAAAAAAAAAAAAAAAAAAAAAAAAAAAAAAAAAAAAAAAAAAAAAAAAAAAAAAAAAAAAAAAAA
      AAAAAAAAAAAAAAAAAAAAAAAAAAAAAAAAAAAAAAAAAAAAAAAAAAAAAAAAAAAAAAAAAAAAAAAAAAAAAAAAAAAAAAAAAAAAAAAAAAAAAAAAAAAAAAAAAAAAAAAAAAAAAAAAAAAAAAAAAAAAAAAAAAAAAAAAAAAAAAAAAAAAAAAAAAAAAAAAAAAAAAAAAAAAAAAAAAAAAAAAAAAAAAAAAAAAAAAAAAAAAAAAAAAAAAAAAAAAAAAAAAAAAAAAAAAAAAAAAAAAAAAAAAAAAAAAAAAAAAAA
      AAAAAAAAAAAAAAAAAAAAAAAAAAAAAAAAAAAAAAAAAAAAAAAAAAAAAAAAAAAAAAAAAAAAAAAAAAAAAAAAAAAAAAAAAAAAAAAAAAAAAAAAAAAAAAAAAAAAAAAAAAAAAAAAAAAAAAAAAAAAAGQAAgAAAAAAAAAAAAAAAAAAAAAAAAAAAAAAAAAAAAAAAAAAAAAAAAAAAAAAAAAAAAAAAAAAAAAAAAAAAAAAAAAAAAAAAAAAAAAAAAAAAAAAAAAAAAAAAAAAAAAAAAAAAAAAAAAAAAAA
      AAAAAAAAAAAAAAAAAAAAAAAAAAAAAAAAAAAAAAAAAAAAAAAAAAAAAAAAAAAAAAAAAAAAAAAAAAAAAAAAAAAAAAAAAAAAAAAAAAAAAAAAAAAAAAAAAAAAAAAAAAAAAAAAAAAAAAAAAAAAAAAAAAAAAAAAAAAAAAAAAAAAAAAAAAAAAAAAAAAAAAAAAAAAAAAAAAAAAAAAAAAAAAAAAAAAAAAAAAAAAAAAAAAAAAAAAAAAAAAAAAAAAAAAAAAAAAAAAAAAAAAAAAAAAAAAAAAAAAAA
      AAAAAAAAAAAAAAAAAAAAAAAAAAAAAAAAAAAAAAAAAAAAAAAAAAAAAAAAAAAAAAAAAAAAAAAAAAAAAAAAAAAAAAAAAAAAAAAAAAAAAAAAAAAAAAAAAAAAAAAAAAAAAAAAAAAAAAAAAAAAAAAAAAAAAAAAAAAAAAAAAAAAAAAAAAAAAAAAAAAAAAAAAAAAAAAAAAAAAAAAAAAAAAAAAAAAAAAAAAAAAAAAAAAAAAAAAAAAAAAAAAAAAAAAAAAAAAAAAAAAAAAAAAAAAAAAAAAAAAAA
      AAAAZAADAAAAAAAAAAAAAAAAAAAAAAAAAAAAAAAAAAAAAAAAAAAAAAAAAAAAAAAAAAAAAAAAAAAAAAAAAAAAAAAAAAAAAAAAAAAAAAAAAAAAAAAAAAAAAAAAAAAAAAAAAAAAAAAAAAAAAAAAAAAAAAAAAAAAAAAAAAAAAAAAAAAAAAAAAAAAAAAAAAAAAAAAAAAAAAAAAAAAAAAAAAAAAAAAAAAAAAAAAAAAAAAAAAAAAAAAAAAAAAAAAAAAAAAAAAAAAAAAAAAAAAAAAAAAAAAA
      AAAAAAAAAAAAAAAAAAAAAAAAAAAAAAAAAAAAAAAAAAAAAAAAAAAAAAAAAAAAAAAAAAAAAAAAAAAAAAAAAAAAAAAAAAAAAAAAAAAAAAAAAAAAAAAAAAAAAAAAAAAAAAAAAAAAAAAAAAAAAAAAAAAAAAAAAAAAAAAAAAAAAAAAAAAAAAAAAAAAAAAAAAAAAAAAAAAAAAAAAAAAAAAAAAAAAAAAAAAAAAAAAAAAAAAAAAAAAAAAAAAAAAAAAAAAAAAAAAAAAAAAAAAAAAAAAAAAAAAA
      AAAAAAAAAAAAAAAAAAAAAAAAAAAAAAAAAAAAAAAAAAAAAAAAAAAAAAAAAAAAAAAAAAAAAAAAAAAAAAAAAAAAAAAAAAAAAAAAAAAAAAAAAAAAAAAAAAAAAAAAAAAAAAAAAAAAAAAAAAAAAAAAAABkAAQAAAAAAAAAAAAAAACAPwAAgD8AAAAAAACAQgAAAAAAAIBCAACAQwAAAAAAAAAAACAAAAAAAAAAAAAAZAAAAEAAAAAoAAAAAAAAAEAAAAAAAAAAAAAAAAAgAAAAAAAAAAAA
      AGQAAABAAAAAKAAAAAAAAABAAAAAAAAAAAAAAAAAIAAAAAAAAAAAAABkAAAAQAAAACgAAAAAAAAAQAAAAAAAAAAAAAAAACAAAAAAAAAAAAAAZAAAAEAAAAAoAAAAAAAAAEAAAAAAAAAAAAAAAAAgAAAAAAAAAAAAAGQAAABAAAAAKAAAAAAAAABAAAAAAAAAAAAAAAAAIAAAAAAAAAAAAABkAAAAQAAAACgAAAAAAAAAQAAAAAAAAAAAAAAAACAAAAAAAAAAAAAAZAAAAEAAAAAo
      AAAAAAAAAEAAAAAAAAAAAAAAAAAgAAAAAAAAAAAAAGQAAABAAAAAKAAAAAAAAABAAAAAAAAAAAAAAAAAIAAAAAAAAAAAAABkAAAAQAAAACgAAAAAAAAAQAAAAAAAAAAAAAAAACAAAAAAAAAAAAAAZAAAAEAAAAAoAAAAAAAAAEAAAAAAAAAAAAAAAAAgAAAAAAAAAAAAAGQAAABAAAAAKAAAAAAAAABAAAAAAAAAAAAAAAAAIAAAAAAAAAAAAABkAAAAQAAAACgAAAAAAAAAQAAA
      AAAAAAAAAAAAACAAAAAAAAAAAAAAZAAAAEAAAAAoAAAAAAAAAEAAAAAAAAAAAAAAAAAgAAAAAAAAAAAAAGQAAABAAAAAKAAAAAAAAABAAAAAAAAAAAAAAAAAIAAAAAAAAAAAAABkAAAAQAAAACgAAAAAAAAAQAAAAAAAAAAAAAAAACAAAAAAAAAAAAAAZAAAAEAAAAAoAAAAAAAAAEAAAAAAAAAAAAA=
      AEJhc3NNaWRpABAAAAA=
    >
    PRESETNAME BassMidi
    FLOATPOS 0 0 0 0
    WAK 0 0
  >
  <UINF 142
    WNDRECT 23 51 834 455
    SHOW 2
    LASTSEL 1
    DOCKED 0
    BYPASS 1 0 0
    FXID_NEXT {B6F4BCAC-42EE-4B80-8C7D-D0C946D4D4D7}
    <VST "VSTi: ReaSynth (Cockos)" reasynth.dll 0 "" 1919251321<5653547265737972656173796E746800> ""
      eXNlcu9e7f4AAAAAAgAAAAEAAAAAAAAAAgAAAAAAAABEAAAAAAAAAAAAEAA=
      776t3g3wrd6mm8Q7F7fROgAAAAAAAAAAAAAAAM5NAD/pZ4g9AAAAAAAAAD8AAIA/AACAPwAAAD8AAAAAAAAAAAAAAAA=
      AAAQAAAA
    >
    FLOATPOS 0 0 0 0
    WAK 0 0
    BYPASS 0 0 0
    FXID_NEXT {CA1062B1-7B4C-4362-B83E-E2C200664747}
    <VST "VSTi: BassMidiVsti (Falcosoft)" BassMidiVsti.dll 0 "" 1112755524<56535442534D44626173736D69646976> ""
      RE1TQu5e7f4AAAAAAgAAAAEAAAAAAAAAAgAAAAAAAAD1DAAAAQAAAAAAEAA=
      RwA6AFwATQB5ACAARAByAGkAdgBlAFwATQB1AHMAaQBjACAAUAByAG8AZAB1AGMAdABpAG8AbgBcAFMAbwB1AG4AZABmAG8AbgB0AHMAXABFAHMAcwBlAG4AdABpAGEAbAAgAEsAZQB5AHMALQBzAGYAegBCAGEAbgBrAHMALQB2ADkALgA2AC4AcwBmADIAAAAAAAAAAAAAAAAAAAAAAAAAAAAAAAAAAAAAAAAAAAAAAAAAAAAAAAAAAAAAAAAAAAAAAAAAAAAAAAAAAAAAAAAA
      AAAAAAAAAAAAAAAAAAAAAAAAAAAAAAAAAAAAAAAAAAAAAAAAAAAAAAAAAAAAAAAAAAAAAAAAAAAAAAAAAAAAAAAAAAAAAAAAAAAAAAAAAAAAAAAAAAAAAAAAAAAAAAAAAAAAAAAAAAAAAAAAAAAAAAAAAAAAAAAAAAAAAAAAAAAAAAAAAAAAAAAAAAAAAAAAAAAAAAAAAAAAAAAAAAAAAAAAAAAAAAAAAAAAAAAAAAAAAAAAAAAAAAAAAAAAAAAAAAAAAAAAAAAAAAAAAAAAAAAA
      AAAAAAAAAAAAAAAAAAAAAAAAAAAAAAAAAAAAAAAAAAAAAAAAAAAAAAAAAAAAAAAAAAAAAAAAAAAAAAAAAAAAAAAAAAAAAAAAAAAAAAAAAAAAAAAAAAAAAAAAAAAAAAAAAAAAAAAAZAAAAAEAAAAAAAAAAAAAAAAAAAAAAAAAAAAAAAAAAAAAAAAAAAAAAAAAAAAAAAAAAAAAAAAAAAAAAAAAAAAAAAAAAAAAAAAAAAAAAAAAAAAAAAAAAAAAAAAAAAAAAAAAAAAAAAAAAAAAAAAA
      AAAAAAAAAAAAAAAAAAAAAAAAAAAAAAAAAAAAAAAAAAAAAAAAAAAAAAAAAAAAAAAAAAAAAAAAAAAAAAAAAAAAAAAAAAAAAAAAAAAAAAAAAAAAAAAAAAAAAAAAAAAAAAAAAAAAAAAAAAAAAAAAAAAAAAAAAAAAAAAAAAAAAAAAAAAAAAAAAAAAAAAAAAAAAAAAAAAAAAAAAAAAAAAAAAAAAAAAAAAAAAAAAAAAAAAAAAAAAAAAAAAAAAAAAAAAAAAAAAAAAAAAAAAAAAAAAAAAAAAA
      AAAAAAAAAAAAAAAAAAAAAAAAAAAAAAAAAAAAAAAAAAAAAAAAAAAAAAAAAAAAAAAAAAAAAAAAAAAAAAAAAAAAAAAAAAAAAAAAAAAAAAAAAAAAAAAAAAAAAAAAAAAAAAAAAAAAAAAAAAAAAAAAAAAAAAAAAAAAAAAAAAAAAAAAAAAAAAAAAAAAAAAAAAAAAAAAAAAAAAAAAAAAAAAAAAAAAAAAAAAAAAAAAAAAAAAAAAAAAAAAAAAAAAAAAAAAAAAAAAAAAAAAAAAAAAAAAAAAAABk
      AAEAAAAAAAAAAAAAAAAAAAAAAAAAAAAAAAAAAAAAAAAAAAAAAAAAAAAAAAAAAAAAAAAAAAAAAAAAAAAAAAAAAAAAAAAAAAAAAAAAAAAAAAAAAAAAAAAAAAAAAAAAAAAAAAAAAAAAAAAAAAAAAAAAAAAAAAAAAAAAAAAAAAAAAAAAAAAAAAAAAAAAAAAAAAAAAAAAAAAAAAAAAAAAAAAAAAAAAAAAAAAAAAAAAAAAAAAAAAAAAAAAAAAAAAAAAAAAAAAAAAAAAAAAAAAAAAAAAAAA
      AAAAAAAAAAAAAAAAAAAAAAAAAAAAAAAAAAAAAAAAAAAAAAAAAAAAAAAAAAAAAAAAAAAAAAAAAAAAAAAAAAAAAAAAAAAAAAAAAAAAAAAAAAAAAAAAAAAAAAAAAAAAAAAAAAAAAAAAAAAAAAAAAAAAAAAAAAAAAAAAAAAAAAAAAAAAAAAAAAAAAAAAAAAAAAAAAAAAAAAAAAAAAAAAAAAAAAAAAAAAAAAAAAAAAAAAAAAAAAAAAAAAAAAAAAAAAAAAAAAAAAAAAAAAAAAAAAAAAAAA
      AAAAAAAAAAAAAAAAAAAAAAAAAAAAAAAAAAAAAAAAAAAAAAAAAAAAAAAAAAAAAAAAAAAAAAAAAAAAAAAAAAAAAAAAAAAAAAAAAAAAAAAAAAAAAAAAAAAAAAAAAAAAAAAAAAAAAAAAAAAAAGQAAgAAAAAAAAAAAAAAAAAAAAAAAAAAAAAAAAAAAAAAAAAAAAAAAAAAAAAAAAAAAAAAAAAAAAAAAAAAAAAAAAAAAAAAAAAAAAAAAAAAAAAAAAAAAAAAAAAAAAAAAAAAAAAAAAAAAAAA
      AAAAAAAAAAAAAAAAAAAAAAAAAAAAAAAAAAAAAAAAAAAAAAAAAAAAAAAAAAAAAAAAAAAAAAAAAAAAAAAAAAAAAAAAAAAAAAAAAAAAAAAAAAAAAAAAAAAAAAAAAAAAAAAAAAAAAAAAAAAAAAAAAAAAAAAAAAAAAAAAAAAAAAAAAAAAAAAAAAAAAAAAAAAAAAAAAAAAAAAAAAAAAAAAAAAAAAAAAAAAAAAAAAAAAAAAAAAAAAAAAAAAAAAAAAAAAAAAAAAAAAAAAAAAAAAAAAAAAAAA
      AAAAAAAAAAAAAAAAAAAAAAAAAAAAAAAAAAAAAAAAAAAAAAAAAAAAAAAAAAAAAAAAAAAAAAAAAAAAAAAAAAAAAAAAAAAAAAAAAAAAAAAAAAAAAAAAAAAAAAAAAAAAAAAAAAAAAAAAAAAAAAAAAAAAAAAAAAAAAAAAAAAAAAAAAAAAAAAAAAAAAAAAAAAAAAAAAAAAAAAAAAAAAAAAAAAAAAAAAAAAAAAAAAAAAAAAAAAAAAAAAAAAAAAAAAAAAAAAAAAAAAAAAAAAAAAAAAAAAAAA
      AAAAZAADAAAAAAAAAAAAAAAAAAAAAAAAAAAAAAAAAAAAAAAAAAAAAAAAAAAAAAAAAAAAAAAAAAAAAAAAAAAAAAAAAAAAAAAAAAAAAAAAAAAAAAAAAAAAAAAAAAAAAAAAAAAAAAAAAAAAAAAAAAAAAAAAAAAAAAAAAAAAAAAAAAAAAAAAAAAAAAAAAAAAAAAAAAAAAAAAAAAAAAAAAAAAAAAAAAAAAAAAAAAAAAAAAAAAAAAAAAAAAAAAAAAAAAAAAAAAAAAAAAAAAAAAAAAAAAAA
      AAAAAAAAAAAAAAAAAAAAAAAAAAAAAAAAAAAAAAAAAAAAAAAAAAAAAAAAAAAAAAAAAAAAAAAAAAAAAAAAAAAAAAAAAAAAAAAAAAAAAAAAAAAAAAAAAAAAAAAAAAAAAAAAAAAAAAAAAAAAAAAAAAAAAAAAAAAAAAAAAAAAAAAAAAAAAAAAAAAAAAAAAAAAAAAAAAAAAAAAAAAAAAAAAAAAAAAAAAAAAAAAAAAAAAAAAAAAAAAAAAAAAAAAAAAAAAAAAAAAAAAAAAAAAAAAAAAAAAAA
      AAAAAAAAAAAAAAAAAAAAAAAAAAAAAAAAAAAAAAAAAAAAAAAAAAAAAAAAAAAAAAAAAAAAAAAAAAAAAAAAAAAAAAAAAAAAAAAAAAAAAAAAAAAAAAAAAAAAAAAAAAAAAAAAAAAAAAAAAAAAAAAAAABkAAQAAAAAAAAAAAAAAACAPwAAgD8AAAAAAACAQgAAAAAAAIBCAACAQwAAAAAAAAAAACAAAAAAAAAAAAAAZAAAAEAAAAAoAAAAAAAAAEAAAAAAAAAAAAAAAAAgAAAAAAAAAAAA
      AGQAAABAAAAAKAAAAAAAAABAAAAAAAAAAAAAAAAAIAAAAAAAAAAAAABkAAAAQAAAACgAAAAAAAAAQAAAAAAAAAAAAAAAACAAAAAAAAAAAAAAZAAAAEAAAAAoAAAAAAAAAEAAAAAAAAAAAAAAAAAgAAAAAAAAAAAAAGQAAABAAAAAKAAAAAAAAABAAAAAAAAAAAAAAAAAIAAAAAAAAAAAAABkAAAAQAAAACgAAAAAAAAAQAAAAAAAAAAAAAAAACAAAAAAAAAAAAAAZAAAAEAAAAAo
      AAAAAAAAAEAAAAAAAAAAAAAAAAAgAAAAAAAAAAAAAGQAAABAAAAAKAAAAAAAAABAAAAAAAAAAAAAAAAAIAAAAAAAAAAAAABkAAAAQAAAACgAAAAAAAAAQAAAAAAAAAAAAAAAACAAAAAAAAAAAAAAZAAAAEAAAAAoAAAAAAAAAEAAAAAAAAAAAAAAAAAgAAAAAAAAAAAAAGQAAABAAAAAKAAAAAAAAABAAAAAAAAAAAAAAAAAIAAAAAAAAAAAAABkAAAAQAAAACgAAAAAAAAAQAAA
      AAAAAAAAAAAAACAAAAAAAAAAAAAAZAAAAEAAAAAoAAAAAAAAAEAAAAAAAAAAAAAAAAAgAAAAAAAAAAAAAGQAAABAAAAAKAAAAAAAAABAAAAAAAAAAAAAAAAAIAAAAAAAAAAAAABkAAAAQAAAACgAAAAAAAAAQAAAAAAAAAAAAAAAACAAAAAAAAAAAAAAZAAAAEAAAAAoAAAAAAAAAEAAAAAAAAAAAAA=
      AEJhc3NNaWRpABAAAAA=
    >
    PRESETNAME BassMidi
    FLOATPOS 0 0 0 0
    WAK 0 0
  >
  <UINF 143
    WNDRECT 23 51 556 508
    SHOW 1
    LASTSEL 0
    DOCKED 0
    BYPASS 1 0 0
    FXID_NEXT {B6F4BCAC-42EE-4B80-8C7D-D0C946D4D4D7}
    <VST "VSTi: ReaSynth (Cockos)" reasynth.dll 0 "" 1919251321<5653547265737972656173796E746800> ""
      eXNlcu9e7f4AAAAAAgAAAAEAAAAAAAAAAgAAAAAAAABEAAAAAAAAAAAAEAA=
      776t3g3wrd6mm8Q7F7fROgAAAAAAAAAAAAAAAM5NAD/pZ4g9AAAAAAAAAD8AAIA/AACAPwAAAD8AAAAAAAAAAAAAAAA=
      AAAQAAAA
    >
    FLOATPOS 0 0 0 0
    WAK 0 0
  >
  <UINF 144
    WNDRECT 23 51 556 508
    SHOW 1
    LASTSEL 0
    DOCKED 0
    BYPASS 0 0 0
    FXID_NEXT {B6F4BCAC-42EE-4B80-8C7D-D0C946D4D4D7}
    <VST "VSTi: ReaSynth (Cockos)" reasynth.dll 0 "" 1919251321<5653547265737972656173796E746800> ""
      eXNlcu9e7f4AAAAAAgAAAAEAAAAAAAAAAgAAAAAAAABEAAAAAAAAAAAAEAA=
      776t3g3wrd6mm8Q7F7fROt9PDT8AAAAAAAAAAM5NAD/pZ4g9AAAAAAAAAD8AAIA/AACAPwAAAD8AAAAAAAAAAAAAAAA=
      AAAQAAAA
    >
    FLOATPOS 0 0 0 0
    WAK 0 0
  >
  <UINF 145
    WNDRECT 23 51 556 508
    SHOW 1
    LASTSEL 0
    DOCKED 0
    BYPASS 0 0 0
    FXID_NEXT {B6F4BCAC-42EE-4B80-8C7D-D0C946D4D4D7}
    <VST "VSTi: ReaSynth (Cockos)" reasynth.dll 0 "" 1919251321<5653547265737972656173796E746800> ""
      eXNlcu9e7f4AAAAAAgAAAAEAAAAAAAAAAgAAAAAAAABEAAAAAAAAAAAAEAA=
      776t3g3wrd6mm8Q7F7fROsHKAT8AAAAAAAAAAM5NAD/pZ4g9AAAAAAAAAD8AAIA/AACAPwAAAD8AAAAAAAAAAAAAAAA=
      AAAQAAAA
    >
    FLOATPOS 0 0 0 0
    WAK 0 0
  >
  <UINF 146
    WNDRECT 23 51 556 508
    SHOW 1
    LASTSEL 0
    DOCKED 0
    BYPASS 0 0 0
    FXID_NEXT {B6F4BCAC-42EE-4B80-8C7D-D0C946D4D4D7}
    <VST "VSTi: ReaSynth (Cockos)" reasynth.dll 0 "" 1919251321<5653547265737972656173796E746800> ""
      eXNlcu9e7f4AAAAAAgAAAAEAAAAAAAAAAgAAAAAAAABEAAAAAAAAAAAAEAA=
      776t3g3wrd6mm8Q7F7fROgAAAD8AAAAAAAAAAM5NAD/pZ4g9AAAAAAAAAD8AAIA/AACAPwAAAD8AAAAAAAAAAAAAAAA=
      AAAQAAAA
    >
    FLOATPOS 0 0 0 0
    WAK 0 0
  >
  <UINF 147
    WNDRECT 23 51 556 508
    SHOW 1
    LASTSEL 0
    DOCKED 0
    BYPASS 0 0 0
    FXID_NEXT {B6F4BCAC-42EE-4B80-8C7D-D0C946D4D4D7}
    <VST "VSTi: ReaSynth (Cockos)" reasynth.dll 0 "" 1919251321<5653547265737972656173796E746800> ""
      eXNlcu9e7f4AAAAAAgAAAAEAAAAAAAAAAgAAAAAAAABEAAAAAAAAAAAAEAA=
      776t3g3wrd6mm8Q7F7fROgAAAD/sUfg+AAAAAM5NAD/pZ4g9AAAAAAAAAD8AAIA/AACAPwAAAD8AAAAAAAAAAAAAAAA=
      AAAQAAAA
    >
    FLOATPOS 0 0 0 0
    WAK 0 0
  >
  <UINF 148
    WNDRECT 23 51 556 508
    SHOW 1
    LASTSEL 0
    DOCKED 0
    BYPASS 0 0 0
    FXID_NEXT {B6F4BCAC-42EE-4B80-8C7D-D0C946D4D4D7}
    <VST "VSTi: ReaSynth (Cockos)" reasynth.dll 0 "" 1919251321<5653547265737972656173796E746800> ""
      eXNlcu9e7f4AAAAAAgAAAAEAAAAAAAAAAgAAAAAAAABEAAAAAAAAAAAAEAA=
      776t3g3wrd6mm8Q7F7fROgAAAD/b+b4+AAAAAM5NAD/pZ4g9AAAAAAAAAD8AAIA/AACAPwAAAD8AAAAAAAAAAAAAAAA=
      AAAQAAAA
    >
    FLOATPOS 0 0 0 0
    WAK 0 0
  >
  <UINF 149
    WNDRECT 23 51 556 508
    SHOW 1
    LASTSEL 0
    DOCKED 0
    BYPASS 0 0 0
    FXID_NEXT {B6F4BCAC-42EE-4B80-8C7D-D0C946D4D4D7}
    <VST "VSTi: ReaSynth (Cockos)" reasynth.dll 0 "" 1919251321<5653547265737972656173796E746800> ""
      eXNlcu9e7f4AAAAAAgAAAAEAAAAAAAAAAgAAAAAAAABEAAAAAAAAAAAAEAA=
      776t3g3wrd4AAAAAF7fROgAAAD/b+b4+AAAAAM5NAD/pZ4g9AAAAAAAAAD8AAIA/AACAPwAAAD8AAAAAAAAAAAAAAAA=
      AAAQAAAA
    >
    FLOATPOS 0 0 0 0
    WAK 0 0
  >
  <UINF 150
    WNDRECT 23 51 1027 613
    SHOW 2
    LASTSEL 1
    DOCKED 0
    BYPASS 0 0 0
    FXID_NEXT {B6F4BCAC-42EE-4B80-8C7D-D0C946D4D4D7}
    <VST "VSTi: ReaSynth (Cockos)" reasynth.dll 0 "" 1919251321<5653547265737972656173796E746800> ""
      eXNlcu9e7f4AAAAAAgAAAAEAAAAAAAAAAgAAAAAAAABEAAAAAAAAAAAAEAA=
      776t3g3wrd4AAAAAF7fROgAAAD/b+b4+AAAAAM5NAD/pZ4g9AAAAAAAAAD8AAIA/AACAPwAAAD8AAAAAAAAAAAAAAAA=
      AAAQAAAA
    >
    FLOATPOS 0 0 0 0
    WAK 0 0
    BYPASS 0 0 0
    FXID_NEXT {54EB70AC-D0DF-4B50-9123-06FA2C2EC503}
    <VST "VSTi: DR-84 (Pepto Audio) (32 out)" DR-84.dll 0 "" 1146239028<56535444523834647238340000000000> ""
      NDhSRO5e7f4AAAAAIAAAAAEAAAAAAAAAAgAAAAAAAAAEAAAAAAAAAAgAAAAAAAAAEAAAAAAAAAAgAAAAAAAAAEAAAAAAAAAAgAAAAAAAAAAAAQAAAAAAAAACAAAAAAAAAAQAAAAAAAAACAAAAAAAAAAQAAAAAAAAACAAAAAAAAAAQAAAAAAAAACAAAAAAAAAAAABAAAAAAAAAAIAAAAAAAAABAAAAAAAAAAIAAAAAAAAABAAAAAAAAAAIAAAAAAAAABAAAAAAAAAAIAAAAAAAAAA
      AAEAAAAAAAAAAgAAAAAAAAAEAAAAAAAAAAgAAAAAAAAAEAAAAAAAAAAgAAAAAAAAAEAAAAAAAAAAgAAAAAArKQAAAQAAAAAAEAA=
      QzpcUHJvZ3JhbSBGaWxlc1xTdGVpbmJlcmdcVnN0UGx1Z2luc1xEUi04NFxEUi04NC5pbnN0cnVtZW50c1wwMSAtIExJTiBLSVQubXNlAESsAABErAAAAQAAAAEAAAABAAAAAQAAACAAAAAgAAAAAgAAAAAAAAAAAAAAAAAAAPf/f8AAAAAAAAAAAAEAAAABAAAAAQBAQAAAAAAAAAAA0P///wAAAAAAAAAAAQAAAAAAgD8AAAAAAQAAAAAAAAAAAIA/MzMzPwAAAD8AAAAAAAAA
      AAAAAAAAAAAAAACAPgAAAAAK1yM8AAAAPwAAAAAAAAA/AAAAPwAAAD8BAAAAmpkZPwAAgD8zMzM/AAAAAAAAAAAAAAAAAAAAAAAAAAAAAAAAAAAAAAAAAAAAAAAAAAAAAAAAAAAAAAAAAAAAAAAAAAAAAAAAAAAAAAAAAAAAAAAAAAAAAAAAAAAAAAAAAAAAAAAAAAAAAAAAAAAAAAAAAAAAAAAAAAAAAAAAAAAAAAAAAAAAAAAAAAAAAAAAAAAAAAAAAAAAAAAAAAAAAAAAAAAA
      AAAAAAAAAAAAAAAAAAAAAAAAAAAAAAAAAAAAAAAAAAAAAAAAAAAAAAAAAAAAAAAAAAAAAAAAAAAAAAAAAAAAAAAAAAAAAAAAAAAAAAAAAAAAAAAAAAAAAAAAAAAAAAAAAAAAAAAAAAAAAAAAAAAAAAAAAAAAAAAAAAAAAAAAAAAAAAAAAAAAAAAAAAAAAAAAAAAAAAAAAAAAAAAAAAAAAAAAAAAAAAAAAAAAAAAAAAAAAAAAAAAAAAAAAAAAAAAAAAAAAAAAAAAAAAAAAAAAAAAA
      AAAAAAAAAAAAAAAAAAAAAAAAAAAAAAAAAAAAAAAAAAAAAAAAAAAAAAARAAAAAAAAAAAAAAAAAAAAAAAAAAEAAAAAAAAAAAAAAAAAAAAAAAAAAAAAAAAAAEAAAAAAAACAPwAAAAB/AAAAfwAAAAAAAAAAAAAAAAAAAAAAAAAAAAAAAAAAAAAAAAABAAAAAAAAAAAAAAAAAAAAAAAAAAAAAAAAAAAAAAAAAAAAAAAAAAAAAAAAAAAAAAAAAAAAAAAAAAAAAAAAAAAAAAAAAAAAAAAA
      AAAAAAAAAAAAAAAAAAAAAAAAAAAAAAAAAAAAAAAAAAAAAAAAAAAAAAAAAAAAAAAAAAAAAAAAAAAAAAAAAAAAAAAAAAAAAAAAAAAAAAAAAAAAAAAAAAAAAAAAAAAAAAAAAAAAAAAAAAAAAAAAAAAAAAAAAAAAAAAAAAAAAAAAAAAAAAAAAAAAAAAAAAAAAAAAAAAAAAAAAAAAAAAAAAAAAAAAAAAAAAAAAAAAAAAAAAAAAAAAAAAAAAAAAAAAAAAAAAAAAAAAAAAAAAAAAAAAAAAA
      AAAAAAAAAAAAAAAAAAAAAAAAAAAAAAAAAAAAAAAAAAAAAAAAAAAAAAAAAAAAAAAAAAAAAAAAAAAAAAAAAAAAAAAAAAAAAAAAAAAAAAAAAAAAAAAAAAAAAAAAAAAAAAAAAAAAAAAAAAAAAAAAAAAAAAAAAAAAAAAAAAAAAAAAAAAAAAAAAAAAAAAAAAAAAAAAAAAAAAAAAAAAAAAAAAAAAAAAAAAAAAAAAAAAAAAAAAAAAAAAAAAAAAAAAAAAAAAAAAAAAAAAAAAAAAAAAAAAAAAA
      AAAAAAAAAAAAAAABAAAAAAAAAAAAAAAAAAAAAAAAAAAAAAAAAABAAAAAAAAAgD8AAAAAfwAAAH8AAAAAAAAAAAAAAAAAAAAAAAAAAAAAAAAAAAAAAAAAAQAAAAAAAAAAAAAAAAAAAAAAAAAAAAAAAAAAAAAAAAAAAAAAAAAAAAAAAAAAAAAAAAAAAAAAAAAAAAAAAAAAAAAAAAAAAAAAAAAAAAAAAAAAAAAAAAAAAAAAAAAAAAAAAAAAAAAAAAAAAAAAAAAAAAAAAAAAAAAAAAAA
      AAAAAAAAAAAAAAAAAAAAAAAAAAAAAAAAAAAAAAAAAAAAAAAAAAAAAAAAAAAAAAAAAAAAAAAAAAAAAAAAAAAAAAAAAAAAAAAAAAAAAAAAAAAAAAAAAAAAAAAAAAAAAAAAAAAAAAAAAAAAAAAAAAAAAAAAAAAAAAAAAAAAAAAAAAAAAAAAAAAAAAAAAAAAAAAAAAAAAAAAAAAAAAAAAAAAAAAAAAAAAAAAAAAAAAAAAAAAAAAAAAAAAAAAAAAAAAAAAAAAAAAAAAAAAAAAAAAAAAAA
      AAAAAAAAAAAAAAAAAAAAAAAAAAAAAAAAAAAAAAAAAAAAAAAAAAAAAAAAAAAAAAAAAAAAAAAAAAAAAAAAAAAAAAAAAAAAAAAAAAAAAAAAAAAAAAAAAAAAAAAAAAAAAAAAAAAAAAAAAAAAAAAAAAAAAAAAAAAAAAAAAAAAAAAAAAAAAAAAAAAAAAAAAAAAAAAAAAAAAAAAAAAAAAAAAAAAAAAAAAAAAAAAAAAAAQAAAAAAAAAAAAAAAAAAAAAAAAAAAAAAAAAAQAAAAAAAAIA/AAAA
      AH8AAAB/AAAAAAAAAAAAAAAAAAAAAAAAAAAAAAAAAAAAAAAAAAEAAAAAAAAAAAAAAAAAAAAAAAAAAAAAAAAAAAAAAAAAAAAAAAAAAAAAAAAAAAAAAAAAAAAAAAAAAAAAAAAAAAAAAAAAAAAAAAAAAAAAAAAAAAAAAAAAAAAAAAAAAAAAAAAAAAAAAAAAAAAAAAAAAAAAAAAAAAAAAAAAAAAAAAAAAAAAAAAAAAAAAAAAAAAAAAAAAAAAAAAAAAAAAAAAAAAAAAAAAAAAAAAAAAAA
      AAAAAAAAAAAAAAAAAAAAAAAAAAAAAAAAAAAAAAAAAAAAAAAAAAAAAAAAAAAAAAAAAAAAAAAAAAAAAAAAAAAAAAAAAAAAAAAAAAAAAAAAAAAAAAAAAAAAAAAAAAAAAAAAAAAAAAAAAAAAAAAAAAAAAAAAAAAAAAAAAAAAAAAAAAAAAAAAAAAAAAAAAAAAAAAAAAAAAAAAAAAAAAAAAAAAAAAAAAAAAAAAAAAAAAAAAAAAAAAAAAAAAAAAAAAAAAAAAAAAAAAAAAAAAAAAAAAAAAAA
      AAAAAAAAAAAAAAAAAAAAAAAAAAAAAAAAAAAAAAAAAAAAAAAAAAAAAAAAAAAAAAAAAAAAAAAAAAAAAAAAAAAAAAAAAAAAAAAAAAAAAAAAAAAAAAAAAAAAAAAAAAAAAAAAAAAAAAAAAAAAAAAAAAAAAAAAAAAAAAAAAAEAAAAAAAAAAAAAAAAAAAAAAAAAAAAAAAAAAEAAAAAAAACAPwAAAAB/AAAAfwAAAAAAAAAAAAAAAAAAAAAAAAAAAAAAAAAAAAAAAAABAAAAAAAAAAAAAAAA
      AAAAAAAAAAAAAAAAAAAAAAAAAAAAAAAAAAAAAAAAAAAAAAAAAAAAAAAAAAAAAAAAAAAAAAAAAAAAAAAAAAAAAAAAAAAAAAAAAAAAAAAAAAAAAAAAAAAAAAAAAAAAAAAAAAAAAAAAAAAAAAAAAAAAAAAAAAAAAAAAAAAAAAAAAAAAAAAAAAAAAAAAAAAAAAAAAAAAAAAAAAAAAAAAAAAAAAAAAAAAAAAAAAAAAAAAAAAAAAAAAAAAAAAAAAAAAAAAAAAAAAAAAAAAAAAAAAAAAAAA
      AAAAAAAAAAAAAAAAAAAAAAAAAAAAAAAAAAAAAAAAAAAAAAAAAAAAAAAAAAAAAAAAAAAAAAAAAAAAAAAAAAAAAAAAAAAAAAAAAAAAAAAAAAAAAAAAAAAAAAAAAAAAAAAAAAAAAAAAAAAAAAAAAAAAAAAAAAAAAAAAAAAAAAAAAAAAAAAAAAAAAAAAAAAAAAAAAAAAAAAAAAAAAAAAAAAAAAAAAAAAAAAAAAAAAAAAAAAAAAAAAAAAAAAAAAAAAAAAAAAAAAAAAAAAAAAAAAAAAAAA
      AAAAAAAAAAAAAAAAAAAAAAAAAAAAAAAAAAAAAAAAAAAAAAAAAAAAAAAAAAAAAAAAAAAAAAAAAAAAAAAAAAAAAAAAAAAAAAABAAAAAAAAAAAAAAAAAAAAAAAAAAAAAAAAAABAAAAAAAAAgD8AAAAAfwAAAH8AAAAAAAAAAAAAAAAAAAAAAAAAAAAAAAAAAAAAAAAAAQAAAAAAAAAAAAAAAAAAAAAAAAAAAAAAAAAAAAAAAAAAAAAAAAAAAAAAAAAAAAAAAAAAAAAAAAAAAAAAAAAA
      AAAAAAAAAAAAAAAAAAAAAAAAAAAAAAAAAAAAAAAAAAAAAAAAAAAAAAAAAAAAAAAAAAAAAAAAAAAAAAAAAAAAAAAAAAAAAAAAAAAAAAAAAAAAAAAAAAAAAAAAAAAAAAAAAAAAAAAAAAAAAAAAAAAAAAAAAAAAAAAAAAAAAAAAAAAAAAAAAAAAAAAAAAAAAAAAAAAAAAAAAAAAAAAAAAAAAAAAAAAAAAAAAAAAAAAAAAAAAAAAAAAAAAAAAAAAAAAAAAAAAAAAAAAAAAAAAAAAAAAA
      AAAAAAAAAAAAAAAAAAAAAAAAAAAAAAAAAAAAAAAAAAAAAAAAAAAAAAAAAAAAAAAAAAAAAAAAAAAAAAAAAAAAAAAAAAAAAAAAAAAAAAAAAAAAAAAAAAAAAAAAAAAAAAAAAAAAAAAAAAAAAAAAAAAAAAAAAAAAAAAAAAAAAAAAAAAAAAAAAAAAAAAAAAAAAAAAAAAAAAAAAAAAAAAAAAAAAAAAAAAAAAAAAAAAAAAAAAAAAAAAAAAAAAAAAAAAAAAAAAAAAAAAAAAAAAAAAAAAAAAA
      AAAAAAAAAAAAAAAAAAAAAAAAAAAAAQAAAAAAAAAAAAAAAAAAAAAAAAAAAAAAAAAAQAAAAAAAAIA/AAAAAH8AAAB/AAAAAAAAAAAAAAAAAAAAAACAvwAAAAAAAAAAAAAAAAEAAAAAAAAAAAAAAAAAAAAAAAAAAAAAAAAAAAAAAAAAAAAAAAAAAAAAAAAAAAAAAAAAAAAAAAAAAAAAAAAAAAAAAAAAAAAAAAAAAAAAAAAAAAAAAAAAAAAAAAAAAAAAAAAAAAAAAAAAAAAAAAAAAAAA
      AAAAAAAAAAAAAAAAAAAAAAAAAAAAAAAAAAAAAAAAAAAAAAAAAAAAAAAAAAAAAAAAAAAAAAAAAAAAAAAAAAAAAAAAAAAAAAAAAAAAAAAAAAAAAAAAAAAAAAAAAAAAAAAAAAAAAAAAAAAAAAAAAAAAAAAAAAAAAAAAAAAAAAAAAAAAAAAAAAAAAAAAAAAAAAAAAAAAAAAAAAAAAAAAAAAAAAAAAAAAAAAAAAAAAAAAAAAAAAAAAAAAAAAAAAAAAAAAAAAAAAAAAAAAAAAAAAAAAAAA
      AAAAAAAAAAAAAAAAAAAAAAAAAAAAAAAAAAAAAAAAAAAAAAAAAAAAAAAAAAAAAAAAAAAAAAAAAAAAAAAAAAAAAAAAAAAAAAAAAAAAAAAAAAAAAAAAAAAAAAAAAAAAAAAAAAAAAAAAAAAAAAAAAAAAAAAAAAAAAAAAAAAAAAAAAAAAAAAAAAAAAAAAAAAAAAAAAAAAAAAAAAAAAAAAAAAAAAAAAAAAAAAAAAAAAAAAAAAAAAAAAAEAAAAAAAAAAAAAAAAAAAAAAAAAAAAAAAAAAEAA
      AAAAAACAPwAAAAB/AAAAfwAAAAAAAAAAAAAAAAAAAAAAAAAAAAAAAAAAAAAAAAABAAAAAAAAAAAAAAAAAAAAAAAAAAAAAAAAAAAAAAAAAAAAAAAAAAAAAAAAAAAAAAAAAAAAAAAAAAAAAAAAAAAAAAAAAAAAAAAAAAAAAAAAAAAAAAAAAAAAAAAAAAAAAAAAAAAAAAAAAAAAAAAAAAAAAAAAAAAAAAAAAAAAAAAAAAAAAAAAAAAAAAAAAAAAAAAAAAAAAAAAAAAAAAAAAAAAAAAA
      AAAAAAAAAAAAAAAAAAAAAAAAAAAAAAAAAAAAAAAAAAAAAAAAAAAAAAAAAAAAAAAAAAAAAAAAAAAAAAAAAAAAAAAAAAAAAAAAAAAAAAAAAAAAAAAAAAAAAAAAAAAAAAAAAAAAAAAAAAAAAAAAAAAAAAAAAAAAAAAAAAAAAAAAAAAAAAAAAAAAAAAAAAAAAAAAAAAAAAAAAAAAAAAAAAAAAAAAAAAAAAAAAAAAAAAAAAAAAAAAAAAAAAAAAAAAAAAAAAAAAAAAAAAAAAAAAAAAAAAA
      AAAAAAAAAAAAAAAAAAAAAAAAAAAAAAAAAAAAAAAAAAAAAAAAAAAAAAAAAAAAAAAAAAAAAAAAAAAAAAAAAAAAAAAAAAAAAAAAAAAAAAAAAAAAAAAAAAAAAAAAAAAAAAAAAAAAAAAAAAAAAAAAAAAAAAAAAAAAAAAAAAAAAAAAAAAAAAABAAAAAAAAAAAAAAAAAAAAAAAAAAAAAAAAAABAAAAAAAAAAAAAAAAAfwAAAH8AAAAAAAAAAAAAAAAAAAAAAAAAAAAAAAAAAAAAAAAAAQAA
      AAAAAAAAAAAAAAAAAAAAAAAAAAAAAAAAAAAAAAAAAAAAAAAAAAAAAAAAAAAAAAAAAAAAAAAAAAAAAAAAAAAAAAAAAAAAAAAAAAAAAAAAAAAAAAAAAAAAAAAAAAAAAAAAAAAAAAAAAAAAAAAAAAAAAAAAAAAAAAAAAAAAAAAAAAAAAAAAAAAAAAAAAAAAAAAAAAAAAAAAAAAAAAAAAAAAAAAAAAAAAAAAAAAAAAAAAAAAAAAAAAAAAAAAAAAAAAAAAAAAAAAAAAAAAAAAAAAAAAAA
      AAAAAAAAAAAAAAAAAAAAAAAAAAAAAAAAAAAAAAAAAAAAAAAAAAAAAAAAAAAAAAAAAAAAAAAAAAAAAAAAAAAAAAAAAAAAAAAAAAAAAAAAAAAAAAAAAAAAAAAAAAAAAAAAAAAAAAAAAAAAAAAAAAAAAAAAAAAAAAAAAAAAAAAAAAAAAAAAAAAAAAAAAAAAAAAAAAAAAAAAAAAAAAAAAAAAAAAAAAAAAAAAAAAAAAAAAAAAAAAAAAAAAAAAAAAAAAAAAAAAAAAAAAAAAAAAAAAAAAAA
      AAAAAAAAAAAAAAAAAAAAAAAAAAAAAAAAAAAAAAAAAAAAAAAAAAAAAAAAAAAAAAAAAAAAAAAAAAAAAAAAAAAAAAAAAAAAAAAAAAAAAAAAAAAAAQAAAAAAAAAAAAAAAAAAAAAAAAAAAAAAAAAAQAAAAAAAAIA/AAAAAH8AAAB/AAAAAAAAAAAAAAAAAAAAAAAAAAAAAAAAAAAAAAAAAAEAAAAAAAAAAAAAAAAAAAAAAAAAAAAAAAAAAAAAAAAAAAAAAAAAAAAAAAAAAAAAAAAAAAAA
      AAAAAAAAAAAAAAAAAAAAAAAAAAAAAAAAAAAAAAAAAAAAAAAAAAAAAAAAAAAAAAAAAAAAAAAAAAAAAAAAAAAAAAAAAAAAAAAAAAAAAAAAAAAAAAAAAAAAAAAAAAAAAAAAAAAAAAAAAAAAAAAAAAAAAAAAAAAAAAAAAAAAAAAAAAAAAAAAAAAAAAAAAAAAAAAAAAAAAAAAAAAAAAAAAAAAAAAAAAAAAAAAAAAAAAAAAAAAAAAAAAAAAAAAAAAAAAAAAAAAAAAAAAAAAAAAAAAAAAAA
      AAAAAAAAAAAAAAAAAAAAAAAAAAAAAAAAAAAAAAAAAAAAAAAAAAAAAAAAAAAAAAAAAAAAAAAAAAAAAAAAAAAAAAAAAAAAAAAAAAAAAAAAAAAAAAAAAAAAAAAAAAAAAAAAAAAAAAAAAAAAAAAAAAAAAAAAAAAAAAAAAAAAAAAAAAAAAAAAAAAAAAAAAAAAAAAAAAAAAAAAAAAAAAAAAAAAAAAAAAAAAAAAAAAAAAAAAAAAAAAAAAAAAAAAAAAAAAAAAAAAAAAAAAAAAAAAAAAAAAAA
      AAAAAAAAAAAAAAAAAAAAAAAAAAAAAAAAAAAAAAAAAAEAAAAAAAAAAAAAAAAAAAAAAAAAAAAAAAAAAEAAAAAAAACAPwAAAAB/AAAAfwAAAAAAAAAAAAAAAAAAAAAAAAAAAAAAAAAAAAAAAAABAAAAAAAAAAAAAAAAAAAAAAAAAAAAAAAAAAAAAAAAAAAAAAAAAAAAAAAAAAAAAAAAAAAAAAAAAAAAAAAAAAAAAAAAAAAAAAAAAAAAAAAAAAAAAAAAAAAAAAAAAAAAAAAAAAAAAAAA
      AAAAAAAAAAAAAAAAAAAAAAAAAAAAAAAAAAAAAAAAAAAAAAAAAAAAAAAAAAAAAAAAAAAAAAAAAAAAAAAAAAAAAAAAAAAAAAAAAAAAAAAAAAAAAAAAAAAAAAAAAAAAAAAAAAAAAAAAAAAAAAAAAAAAAAAAAAAAAAAAAAAAAAAAAAAAAAAAAAAAAAAAAAAAAAAAAAAAAAAAAAAAAAAAAAAAAAAAAAAAAAAAAAAAAAAAAAAAAAAAAAAAAAAAAAAAAAAAAAAAAAAAAAAAAAAAAAAAAAAA
      AAAAAAAAAAAAAAAAAAAAAAAAAAAAAAAAAAAAAAAAAAAAAAAAAAAAAAAAAAAAAAAAAAAAAAAAAAAAAAAAAAAAAAAAAAAAAAAAAAAAAAAAAAAAAAAAAAAAAAAAAAAAAAAAAAAAAAAAAAAAAAAAAAAAAAAAAAAAAAAAAAAAAAAAAAAAAAAAAAAAAAAAAAAAAAAAAAAAAAAAAAAAAAAAAAAAAAAAAAAAAAAAAAAAAAAAAAAAAAAAAAAAAAAAAAAAAAABAAAAAAAAAAAAAAAAAAAAAAAA
      AAAAAAAAAABAAAAAAAAAgD8AAAAAfwAAAH8AAAAAAAAAAAAAAAAAAAAAAAAAAAAAAAAAAAAAAAAAAQAAAAAAAAAAAAAAAAAAAAAAAAAAAAAAAAAAAAAAAAAAAAAAAAAAAAAAAAAAAAAAAAAAAAAAAAAAAAAAAAAAAAAAAAAAAAAAAAAAAAAAAAAAAAAAAAAAAAAAAAAAAAAAAAAAAAAAAAAAAAAAAAAAAAAAAAAAAAAAAAAAAAAAAAAAAAAAAAAAAAAAAAAAAAAAAAAAAAAAAAAA
      AAAAAAAAAAAAAAAAAAAAAAAAAAAAAAAAAAAAAAAAAAAAAAAAAAAAAAAAAAAAAAAAAAAAAAAAAAAAAAAAAAAAAAAAAAAAAAAAAAAAAAAAAAAAAAAAAAAAAAAAAAAAAAAAAAAAAAAAAAAAAAAAAAAAAAAAAAAAAAAAAAAAAAAAAAAAAAAAAAAAAAAAAAAAAAAAAAAAAAAAAAAAAAAAAAAAAAAAAAAAAAAAAAAAAAAAAAAAAAAAAAAAAAAAAAAAAAAAAAAAAAAAAAAAAAAAAAAAAAAA
      AAAAAAAAAAAAAAAAAAAAAAAAAAAAAAAAAAAAAAAAAAAAAAAAAAAAAAAAAAAAAAAAAAAAAAAAAAAAAAAAAAAAAAAAAAAAAAAAAAAAAAAAAAAAAAAAAAAAAAAAAAAAAAAAAAAAAAAAAAAAAAAAAAAAAAAAAAAAAAAAAAAAAAAAAAAAAAAAAAAAAAAAAAAAAQAAAAAAAAAAAAAAAAAAAAAAAAAAAAAAAAAAQAAAAAAAAIA/AAAAAH8AAAB/AAAAAAAAAAAAAAAAAAAAAAAAAAAAAAAA
      AAAAAAAAAAEAAAAAAAAAAAAAAAAAAAAAAAAAAAAAAAAAAAAAAAAAAAAAAAAAAAAAAAAAAAAAAAAAAAAAAAAAAAAAAAAAAAAAAAAAAAAAAAAAAAAAAAAAAAAAAAAAAAAAAAAAAAAAAAAAAAAAAAAAAAAAAAAAAAAAAAAAAAAAAAAAAAAAAAAAAAAAAAAAAAAAAAAAAAAAAAAAAAAAAAAAAAAAAAAAAAAAAAAAAAAAAAAAAAAAAAAAAAAAAAAAAAAAAAAAAAAAAAAAAAAAAAAAAAAA
      AAAAAAAAAAAAAAAAAAAAAAAAAAAAAAAAAAAAAAAAAAAAAAAAAAAAAAAAAAAAAAAAAAAAAAAAAAAAAAAAAAAAAAAAAAAAAAAAAAAAAAAAAAAAAAAAAAAAAAAAAAAAAAAAAAAAAAAAAAAAAAAAAAAAAAAAAAAAAAAAAAAAAAAAAAAAAAAAAAAAAAAAAAAAAAAAAAAAAAAAAAAAAAAAAAAAAAAAAAAAAAAAAAAAAAAAAAAAAAAAAAAAAAAAAAAAAAAAAAAAAAAAAAAAAAAAAAAAAAAA
      AAAAAAAAAAAAAAAAAAAAAAAAAAAAAAAAAAAAAAAAAAAAAAAAAAAAAAAAAAAAAAAAAAAAAAAAAAAAAAAAAAAAAAAAAAAAAAAAAAAAAAAAAAAAAAAAAAAAAAAAAAEAAAAAAAAAAAAAAAAAAAAAAAAAAAAAAAAAAEAAAAAAAACAPwAAAAB/AAAAfwAAAAAAAAAAAAAAAAAAAAAAAAAAAAAAAAAAAAAAAAABAAAAAAAAAAAAAAAAAAAAAAAAAAAAAAAAAAAAAAAAAAAAAAAAAAAAAAAA
      AAAAAAAAAAAAAAAAAAAAAAAAAAAAAAAAAAAAAAAAAAAAAAAAAAAAAAAAAAAAAAAAAAAAAAAAAAAAAAAAAAAAAAAAAAAAAAAAAAAAAAAAAAAAAAAAAAAAAAAAAAAAAAAAAAAAAAAAAAAAAAAAAAAAAAAAAAAAAAAAAAAAAAAAAAAAAAAAAAAAAAAAAAAAAAAAAAAAAAAAAAAAAAAAAAAAAAAAAAAAAAAAAAAAAAAAAAAAAAAAAAAAAAAAAAAAAAAAAAAAAAAAAAAAAAAAAAAAAAAA
      AAAAAAAAAAAAAAAAAAAAAAAAAAAAAAAAAAAAAAAAAAAAAAAAAAAAAAAAAAAAAAAAAAAAAAAAAAAAAAAAAAAAAAAAAAAAAAAAAAAAAAAAAAAAAAAAAAAAAAAAAAAAAAAAAAAAAAAAAAAAAAAAAAAAAAAAAAAAAAAAAAAAAAAAAAAAAAAAAAAAAAAAAAAAAAAAAAAAAAAAAAAAAAAAAAAAAAAAAAAAAAAAAAAAAAAAAAAAAAAAAAAAAAAAAAAAAAAAAAAAAAAAAAAAAAAAAAAAAAAA
      AAAAAAAAAAAAAAAAAAAAAAAAAAAAAAAAAAAAAAAAAAAAAAAAAAAAAAABAAAAAAAAAAAAAAAAAAAAAAAAAAAAAAAAAABAAAAAAAAAgD8AAAAAfwAAAH8AAAAAAAAAAAAAAAAAAAAAAAAAAAAAAAAAAAAAAAAAAQAAAAAAAAAAAAAAAAAAAAAAAAAAAAAAAAAAAAAAAAAAAAAAAAAAAAAAAAAAAAAAAAAAAAAAAAAAAAAAAAAAAAAAAAAAAAAAAAAAAAAAAAAAAAAAAAAAAAAAAAAA
      AAAAAAAAAAAAAAAAAAAAAAAAAAAAAAAAAAAAAAAAAAAAAAAAAAAAAAAAAAAAAAAAAAAAAAAAAAAAAAAAAAAAAAAAAAAAAAAAAAAAAAAAAAAAAAAAAAAAAAAAAAAAAAAAAAAAAAAAAAAAAAAAAAAAAAAAAAAAAAAAAAAAAAAAAAAAAAAAAAAAAAAAAAAAAAAAAAAAAAAAAAAAAAAAAAAAAAAAAAAAAAAAAAAAAAAAAAAAAAAAAAAAAAAAAAAAAAAAAAAAAAAAAAAAAAAAAAAAAAAA
      AAAAAAAAAAAAAAAAAAAAAAAAAAAAAAAAAAAAAAAAAAAAAAAAAAAAAAAAAAAAAAAAAAAAAAAAAAAAAAAAAAAAAAAAAAAAAAAAAAAAAAAAAAAAAAAAAAAAAAAAAAAAAAAAAAAAAAAAAAAAAAAAAAAAAAAAAAAAAAAAAAAAAAAAAAAAAAAAAAAAAAAAAAAAAAAAAAAAAAAAAAAAAAAAAAAAAAAAAAAAAAAAAAAAAAAAAAAAAAAAAAAAAAAAAAAAAAAAAAAAAAAAAAAAAQAAAAAAAAAA
      AAAAAAAAAAAAAAAAAAAAAAAAQAAAAAAAAIA/AAAAAH8AAAB/AAAAAAAAAAAAAAAAAAAAAAAAAAAAAAAAAAAAAAAAAAEAAAAAAAAAAAAAAAAAAAAAAAAAAAAAAAAAAAAAAAAAAAAAAAAAAAAAAAAAAAAAAAAAAAAAAAAAAAAAAAAAAAAAAAAAAAAAAAAAAAAAAAAAAAAAAAAAAAAAAAAAAAAAAAAAAAAAAAAAAAAAAAAAAAAAAAAAAAAAAAAAAAAAAAAAAAAAAAAAAAAAAAAAAAAA
      AAAAAAAAAAAAAAAAAAAAAAAAAAAAAAAAAAAAAAAAAAAAAAAAAAAAAAAAAAAAAAAAAAAAAAAAAAAAAAAAAAAAAAAAAAAAAAAAAAAAAAAAAAAAAAAAAAAAAAAAAAAAAAAAAAAAAAAAAAAAAAAAAAAAAAAAAAAAAAAAAAAAAAAAAAAAAAAAAAAAAAAAAAAAAAAAAAAAAAAAAAAAAAAAAAAAAAAAAAAAAAAAAAAAAAAAAAAAAAAAAAAAAAAAAAAAAAAAAAAAAAAAAAAAAAAAAAAAAAAA
      AAAAAAAAAAAAAAAAAAAAAAAAAAAAAAAAAAAAAAAAAAAAAAAAAAAAAAAAAAAAAAAAAAAAAAAAAAAAAAAAAAAAAAAAAAAAAAAAAAAAAAAAAAAAAAAAAAAAAAAAAAAAAAAAAAAAAAAAAAAAAAAAAAAAAAAAAAAAAAAAAAAAAAAAAAAAAAAAAAAAAAAAAAAAAAAAAAAAAAAAAAEAAAAAAAAAAAAAAAAAAAAAAAAAAAAAAAAAAEAAAAAAAACAPwAAAAB/AAAAfwAAAAAAAAAAAAAAAAAA
      AAAAAAAAAAAAAAAAAAAAAAABAAAAAAAAAAAAAAAAAAAAAAAAAAAAAAAAAAAAAAAAAAAAAAAAAAAAAAAAAAAAAAAAAAAAAAAAAAAAAAAAAAAAAAAAAAAAAAAAAAAAAAAAAAAAAAAAAAAAAAAAAAAAAAAAAAAAAAAAAAAAAAAAAAAAAAAAAAAAAAAAAAAAAAAAAAAAAAAAAAAAAAAAAAAAAAAAAAAAAAAAAAAAAAAAAAAAAAAAAAAAAAAAAAAAAAAAAAAAAAAAAAAAAAAAAAAAAAAA
      AAAAAAAAAAAAAAAAAAAAAAAAAAAAAAAAAAAAAAAAAAAAAAAAAAAAAAAAAAAAAAAAAAAAAAAAAAAAAAAAAAAAAAAAAAAAAAAAAAAAAAAAAAAAAAAAAAAAAAAAAAAAAAAAAAAAAAAAAAAAAAAAAAAAAAAAAAAAAAAAAAAAAAAAAAAAAAAAAAAAAAAAAAAAAAAAAAAAAAAAAAAAAAAAAAAAAAAAAAAAAAAAAAAAAAAAAAAAAAAAAAAAAAAAAAAAAAAAAAAAAAAAAAAAAAAAAAAAAAAA
      AAAAAAAAAAAAAAAAAAAAAAAAAAAAAAAAAAAAAAAAAAAAAAAAAAAAAAAAAAAAAAAAAAAAAAAAAAAAAAAAAAAAAAAAAAAAAAAAAAAAAAAAAAAAAAAAAAAAAAAAAAAAAAAAAAAAAAABAAAAAAAAAAAAAAAAAAAAAAAAAAAAgD8AAIA/AACAPwAAgD8AAAAAfwAAAH8AAAAAAAAAAAAAAAAAAAAAAAAAAAAAAAAAAAAAAAAAAQAAAAAAAAAAAAAAAAAAAAAAAAAAAAAAAAAAAAAAAAAA
      AAAAAAAAAAAAAAAAAAAAAAAAAAAAAAAAAAAAAAAAAAAAAAAAAAAAAAAAAAAAAAAAAAAAAAAAAAAAAAAAAAAAAAAAAAAAAAAAAAAAAAAAAAAAAAAAAAAAAAAAAAAAAAAAAAAAAAAAAAAAAAAAAAAAAAAAAAAAAAAAAAAAAAAAAAAAAAAAAAAAAAAAAAAAAAAAAAAAAAAAAAAAAAAAAAAAAAAAAAAAAAAAAAAAAAAAAAAAAAAAAAAAAAAAAAAAAAAAAAAAAAAAAAAAAAAAAAAAAAAA
      AAAAAAAAAAAAAAAAAAAAAAAAAAAAAAAAAAAAAAAAAAAAAAAAAAAAAAAAAAAAAAAAAAAAAAAAAAAAAAAAAAAAAAAAAAAAAAAAAAAAAAAAAAAAAAAAAAAAAAAAAAAAAAAAAAAAAAAAAAAAAAAAAAAAAAAAAAAAAAAAAAAAAAAAAAAAAAAAAAAAAAAAAAAAAAAAAAAAAAAAAAAAAAAAAAAAAAAAAAAAAAAAAAAAAAAAAAAAAAAAAAAAAAAAAAAAAAAAAAAAAAAAAAAAAAAAAAAAAAAA
      AAAAAAAAAAAAAAAAAAAAAAAAAAAAAAAAAAAAAAAAAAAAAAAAAAAA
      AExJTiBLSVQAEAAAAA==
    >
    PRESETNAME "LIN KIT"
    FLOATPOS 0 0 0 0
    WAK 0 0
  >
  <UINF 151
    WNDRECT 455 327 556 508
    SHOW 1
    LASTSEL 0
    DOCKED 0
    BYPASS 0 0 0
    FXID_NEXT {B6F4BCAC-42EE-4B80-8C7D-D0C946D4D4D7}
    <VST "VSTi: ReaSynth (Cockos)" reasynth.dll 0 "" 1919251321<5653547265737972656173796E746800> ""
      eXNlcu9e7f4AAAAAAgAAAAEAAAAAAAAAAgAAAAAAAABEAAAAAAAAAAAAEAA=
      776t3g3wrd4AAAAAF7fROgAAAD/b+b4+AAAAAM5NAD/pZ4g9AAAAAAAAAD8AAIA/AACAPwAAAD8AAAAAAAAAAAAAAAA=
      AAAQAAAA
    >
    FLOATPOS 0 0 0 0
    WAK 0 0
  >
  <UINF 152
    WNDRECT -1140 407 556 508
    SHOW 1
    LASTSEL 0
    DOCKED 0
    BYPASS 0 0 0
    FXID_NEXT {B6F4BCAC-42EE-4B80-8C7D-D0C946D4D4D7}
    <VST "VSTi: ReaSynth (Cockos)" reasynth.dll 0 "" 1919251321<5653547265737972656173796E746800> ""
      eXNlcu9e7f4AAAAAAgAAAAEAAAAAAAAAAgAAAAAAAABEAAAAAAAAAAAAEAA=
      776t3g3wrd4AAAAAF7fROgAAAD/b+b4+x0u3Ps5NAD/pZ4g9AAAAAAAAAD8AAIA/AACAPwAAAD8AAAAAAAAAAAAAAAA=
      AAAQAAAA
    >
    FLOATPOS 0 0 0 0
    WAK 0 0
  >
  <UINF 153
    WNDRECT -1140 407 556 508
    SHOW 1
    LASTSEL 0
    DOCKED 0
    BYPASS 0 0 0
    FXID_NEXT {B6F4BCAC-42EE-4B80-8C7D-D0C946D4D4D7}
    <VST "VSTi: ReaSynth (Cockos)" reasynth.dll 0 "" 1919251321<5653547265737972656173796E746800> ""
      eXNlcu9e7f4AAAAAAgAAAAEAAAAAAAAAAgAAAAAAAABEAAAAAAAAAAAAEAA=
      776t3g3wrd4AAAAAF7fROgAAAD/b+b4+AACAP85NAD/pZ4g9AAAAAAAAAD8AAIA/AACAPwAAAD8AAAAAAAAAAAAAAAA=
      AAAQAAAA
    >
    FLOATPOS 0 0 0 0
    WAK 0 0
  >
  <UINF 154
    WNDRECT -1140 407 556 508
    SHOW 0
    LASTSEL 0
    DOCKED 0
    BYPASS 0 0 0
    FXID_NEXT {B6F4BCAC-42EE-4B80-8C7D-D0C946D4D4D7}
    <VST "VSTi: ReaSynth (Cockos)" reasynth.dll 0 "" 1919251321<5653547265737972656173796E746800> ""
      eXNlcu9e7f4AAAAAAgAAAAEAAAAAAAAAAgAAAAAAAABEAAAAAAAAAAAAEAA=
      776t3g3wrd4AAAAAF7fROgAAAD/b+b4+AACAP85NAD/pZ4g9AAAAAAAAAD8AAIA/AACAPwAAAD8AAAAAAAAAAAAAAAA=
      AAAQAAAA
    >
    FLOATPOS 0 0 0 0
    WAK 0 0
  >
  <UINF 155
    <TRACK {AF3E723C-8BD9-455D-B7D3-14026E7EBD13}
      NAME "Nov26_02 (Preprocessed data)"
      PEAKCOL 32334866
      BEAT -1
      AUTOMODE 0
      VOLPAN 1 0 -1 -1 1
      MUTESOLO 0 0 0
      IPHASE 0
      PLAYOFFS 0 1
      ISBUS 0 0
      BUSCOMP 0 0 0 0 0
      SHOWINMIX 1 0.6667 0.5 1 0.5 -1 -1 -1
      REC 0 0 1 0 0 0 0 0
      VU 2
      TRACKHEIGHT 0 0 0 0 0 0
      INQ 0 0 0 0.5 100 0 0 100
      NCHAN 2
      FX 1
      TRACKID {AF3E723C-8BD9-455D-B7D3-14026E7EBD13}
      PERF 0
      UNDO_HAS_TRACKENV
      MIDIOUT -1
      MAINSEND 1 0
    >
  >
  <UINF 156
    <TRACK {07837CA4-3164-4E81-BBF1-E93DB5B57D54}
      NAME "Spotify MIDI Transcription"
      PEAKCOL 16842496
      BEAT -1
      AUTOMODE 0
      VOLPAN 1 0 -1 -1 1
      MUTESOLO 1 0 0
      IPHASE 0
      PLAYOFFS 0 1
      ISBUS 0 0
      BUSCOMP 0 0 0 0 0
      SHOWINMIX 1 0.6667 0.5 1 0.5 -1 -1 -1
      REC 0 0 1 0 0 0 0 0
      VU 2
      TRACKHEIGHT 0 0 0 0 0 0
      INQ 0 0 0 0.5 100 0 0 100
      NCHAN 2
      FX 1
      TRACKID {07837CA4-3164-4E81-BBF1-E93DB5B57D54}
      PERF 0
      UNDO_HAS_TRACKENV
      MIDIOUT -1
      MAINSEND 1 0
    >
  >
  <UINF 157
    <TRACK {EC680376-C257-454C-B45C-D88628BCD590}
      NAME "Gwyn, Lord of Cinder"
      PEAKCOL 33554431
      BEAT -1
      AUTOMODE 0
      VOLPAN 1 0 -1 -1 1
      MUTESOLO 1 0 0
      IPHASE 0
      PLAYOFFS 0 1
      ISBUS 1 1
      BUSCOMP 0 0 0 0 0
      SHOWINMIX 1 0.6667 0.5 1 0.5 -1 -1 -1
      REC 0 0 1 0 0 0 0 0
      VU 2
      TRACKHEIGHT 0 0 0 0 0 0
      INQ 0 0 0 0.5 100 0 0 100
      NCHAN 2
      FX 1
      TRACKID {EC680376-C257-454C-B45C-D88628BCD590}
      PERF 0
      UNDO_HAS_TRACKENV
      MIDIOUT -1
      MAINSEND 1 0
    >
  >
  <UINF 158
    <TRACK {8CDE9AAD-6CE0-432F-B847-21A11CDD53FE}
      NAME Original_Audio
      PEAKCOL 25132927
      BEAT -1
      AUTOMODE 0
      VOLPAN 1 0 -1 -1 1
      MUTESOLO 0 0 0
      IPHASE 0
      PLAYOFFS 0 1
      ISBUS 0 0
      BUSCOMP 0 0 0 0 0
      SHOWINMIX 1 0.6667 0.5 1 0.5 -1 -1 -1
      REC 0 0 1 0 0 0 0 0
      VU 2
      TRACKHEIGHT 0 0 0 0 0 0
      INQ 0 0 0 0.5 100 0 0 100
      NCHAN 2
      FX 1
      TRACKID {8CDE9AAD-6CE0-432F-B847-21A11CDD53FE}
      PERF 0
      UNDO_HAS_TRACKENV
      MIDIOUT -1
      MAINSEND 1 0
    >
  >
  <UINF 159
    <TRACK {A5678F31-C014-4D18-8F56-99370EBED686}
      NAME wii_music
      PEAKCOL 33554431
      BEAT -1
      AUTOMODE 0
      VOLPAN 1 0 -1 -1 1
      MUTESOLO 0 0 0
      IPHASE 0
      PLAYOFFS 0 1
      ISBUS 1 1
      BUSCOMP 0 0 0 0 0
      SHOWINMIX 1 0.6667 0.5 1 0.5 -1 -1 -1
      REC 0 0 1 0 0 0 0 0
      VU 2
      TRACKHEIGHT 0 0 0 0 0 0
      INQ 0 0 0 0.5 100 0 0 100
      NCHAN 2
      FX 1
      TRACKID {A5678F31-C014-4D18-8F56-99370EBED686}
      PERF 0
      UNDO_HAS_TRACKENV
      MIDIOUT -1
      MAINSEND 1 0
    >
  >
  <UINF 160
    <TRACK {6390B51A-B19F-4B03-B559-469D91379CDD}
      NAME "Nov26_02 (Preprocessed data)"
      PEAKCOL 32334866
      BEAT -1
      AUTOMODE 0
      VOLPAN 1 0 -1 -1 1
      MUTESOLO 0 2 0
      IPHASE 0
      PLAYOFFS 0 1
      ISBUS 0 0
      BUSCOMP 0 0 0 0 0
      SHOWINMIX 1 0.6667 0.5 1 0.5 -1 -1 -1
      REC 0 0 1 0 0 0 0 0
      VU 2
      TRACKHEIGHT 0 0 0 0 0 0
      INQ 0 0 0 0.5 100 0 0 100
      NCHAN 2
      FX 1
      TRACKID {6390B51A-B19F-4B03-B559-469D91379CDD}
      PERF 0
      UNDO_HAS_TRACKENV
      MIDIOUT -1
      MAINSEND 1 0
    >
  >
  <UINF 161
    WNDRECT 23 51 855 480
    SHOW 0
    LASTSEL 0
    DOCKED 0
    BYPASS 0 0 0
    FXID_NEXT {6680346F-A7B3-419E-988B-7A84DECC9491}
    <VST "VSTi: BassMidiVsti (Falcosoft)" BassMidiVsti.dll 0 "" 1112755524<56535442534D44626173736D69646976> ""
      RE1TQu5e7f4AAAAAAgAAAAEAAAAAAAAAAgAAAAAAAAD1DAAAAQAAAAAAEAA=
      RwA6AFwATQB5ACAARAByAGkAdgBlAFwATQB1AHMAaQBjACAAUAByAG8AZAB1AGMAdABpAG8AbgBcAFMAbwB1AG4AZABmAG8AbgB0AHMAXABFAHMAcwBlAG4AdABpAGEAbAAgAEsAZQB5AHMALQBzAGYAegBCAGEAbgBrAHMALQB2ADkALgA2AC4AcwBmADIAAAAAAAAAAAAAAAAAAAAAAAAAAAAAAAAAAAAAAAAAAAAAAAAAAAAAAAAAAAAAAAAAAAAAAAAAAAAAAAAAAAAAAAAA
      AAAAAAAAAAAAAAAAAAAAAAAAAAAAAAAAAAAAAAAAAAAAAAAAAAAAAAAAAAAAAAAAAAAAAAAAAAAAAAAAAAAAAAAAAAAAAAAAAAAAAAAAAAAAAAAAAAAAAAAAAAAAAAAAAAAAAAAAAAAAAAAAAAAAAAAAAAAAAAAAAAAAAAAAAAAAAAAAAAAAAAAAAAAAAAAAAAAAAAAAAAAAAAAAAAAAAAAAAAAAAAAAAAAAAAAAAAAAAAAAAAAAAAAAAAAAAAAAAAAAAAAAAAAAAAAAAAAAAAAA
      AAAAAAAAAAAAAAAAAAAAAAAAAAAAAAAAAAAAAAAAAAAAAAAAAAAAAAAAAAAAAAAAAAAAAAAAAAAAAAAAAAAAAAAAAAAAAAAAAAAAAAAAAAAAAAAAAAAAAAAAAAAAAAAAAAAAAAAAZAAAAAEAAAAAAAAAAAAAAAAAAAAAAAAAAAAAAAAAAAAAAAAAAAAAAAAAAAAAAAAAAAAAAAAAAAAAAAAAAAAAAAAAAAAAAAAAAAAAAAAAAAAAAAAAAAAAAAAAAAAAAAAAAAAAAAAAAAAAAAAA
      AAAAAAAAAAAAAAAAAAAAAAAAAAAAAAAAAAAAAAAAAAAAAAAAAAAAAAAAAAAAAAAAAAAAAAAAAAAAAAAAAAAAAAAAAAAAAAAAAAAAAAAAAAAAAAAAAAAAAAAAAAAAAAAAAAAAAAAAAAAAAAAAAAAAAAAAAAAAAAAAAAAAAAAAAAAAAAAAAAAAAAAAAAAAAAAAAAAAAAAAAAAAAAAAAAAAAAAAAAAAAAAAAAAAAAAAAAAAAAAAAAAAAAAAAAAAAAAAAAAAAAAAAAAAAAAAAAAAAAAA
      AAAAAAAAAAAAAAAAAAAAAAAAAAAAAAAAAAAAAAAAAAAAAAAAAAAAAAAAAAAAAAAAAAAAAAAAAAAAAAAAAAAAAAAAAAAAAAAAAAAAAAAAAAAAAAAAAAAAAAAAAAAAAAAAAAAAAAAAAAAAAAAAAAAAAAAAAAAAAAAAAAAAAAAAAAAAAAAAAAAAAAAAAAAAAAAAAAAAAAAAAAAAAAAAAAAAAAAAAAAAAAAAAAAAAAAAAAAAAAAAAAAAAAAAAAAAAAAAAAAAAAAAAAAAAAAAAAAAAABk
      AAEAAAAAAAAAAAAAAAAAAAAAAAAAAAAAAAAAAAAAAAAAAAAAAAAAAAAAAAAAAAAAAAAAAAAAAAAAAAAAAAAAAAAAAAAAAAAAAAAAAAAAAAAAAAAAAAAAAAAAAAAAAAAAAAAAAAAAAAAAAAAAAAAAAAAAAAAAAAAAAAAAAAAAAAAAAAAAAAAAAAAAAAAAAAAAAAAAAAAAAAAAAAAAAAAAAAAAAAAAAAAAAAAAAAAAAAAAAAAAAAAAAAAAAAAAAAAAAAAAAAAAAAAAAAAAAAAAAAAA
      AAAAAAAAAAAAAAAAAAAAAAAAAAAAAAAAAAAAAAAAAAAAAAAAAAAAAAAAAAAAAAAAAAAAAAAAAAAAAAAAAAAAAAAAAAAAAAAAAAAAAAAAAAAAAAAAAAAAAAAAAAAAAAAAAAAAAAAAAAAAAAAAAAAAAAAAAAAAAAAAAAAAAAAAAAAAAAAAAAAAAAAAAAAAAAAAAAAAAAAAAAAAAAAAAAAAAAAAAAAAAAAAAAAAAAAAAAAAAAAAAAAAAAAAAAAAAAAAAAAAAAAAAAAAAAAAAAAAAAAA
      AAAAAAAAAAAAAAAAAAAAAAAAAAAAAAAAAAAAAAAAAAAAAAAAAAAAAAAAAAAAAAAAAAAAAAAAAAAAAAAAAAAAAAAAAAAAAAAAAAAAAAAAAAAAAAAAAAAAAAAAAAAAAAAAAAAAAAAAAAAAAGQAAgAAAAAAAAAAAAAAAAAAAAAAAAAAAAAAAAAAAAAAAAAAAAAAAAAAAAAAAAAAAAAAAAAAAAAAAAAAAAAAAAAAAAAAAAAAAAAAAAAAAAAAAAAAAAAAAAAAAAAAAAAAAAAAAAAAAAAA
      AAAAAAAAAAAAAAAAAAAAAAAAAAAAAAAAAAAAAAAAAAAAAAAAAAAAAAAAAAAAAAAAAAAAAAAAAAAAAAAAAAAAAAAAAAAAAAAAAAAAAAAAAAAAAAAAAAAAAAAAAAAAAAAAAAAAAAAAAAAAAAAAAAAAAAAAAAAAAAAAAAAAAAAAAAAAAAAAAAAAAAAAAAAAAAAAAAAAAAAAAAAAAAAAAAAAAAAAAAAAAAAAAAAAAAAAAAAAAAAAAAAAAAAAAAAAAAAAAAAAAAAAAAAAAAAAAAAAAAAA
      AAAAAAAAAAAAAAAAAAAAAAAAAAAAAAAAAAAAAAAAAAAAAAAAAAAAAAAAAAAAAAAAAAAAAAAAAAAAAAAAAAAAAAAAAAAAAAAAAAAAAAAAAAAAAAAAAAAAAAAAAAAAAAAAAAAAAAAAAAAAAAAAAAAAAAAAAAAAAAAAAAAAAAAAAAAAAAAAAAAAAAAAAAAAAAAAAAAAAAAAAAAAAAAAAAAAAAAAAAAAAAAAAAAAAAAAAAAAAAAAAAAAAAAAAAAAAAAAAAAAAAAAAAAAAAAAAAAAAAAA
      AAAAZAADAAAAAAAAAAAAAAAAAAAAAAAAAAAAAAAAAAAAAAAAAAAAAAAAAAAAAAAAAAAAAAAAAAAAAAAAAAAAAAAAAAAAAAAAAAAAAAAAAAAAAAAAAAAAAAAAAAAAAAAAAAAAAAAAAAAAAAAAAAAAAAAAAAAAAAAAAAAAAAAAAAAAAAAAAAAAAAAAAAAAAAAAAAAAAAAAAAAAAAAAAAAAAAAAAAAAAAAAAAAAAAAAAAAAAAAAAAAAAAAAAAAAAAAAAAAAAAAAAAAAAAAAAAAAAAAA
      AAAAAAAAAAAAAAAAAAAAAAAAAAAAAAAAAAAAAAAAAAAAAAAAAAAAAAAAAAAAAAAAAAAAAAAAAAAAAAAAAAAAAAAAAAAAAAAAAAAAAAAAAAAAAAAAAAAAAAAAAAAAAAAAAAAAAAAAAAAAAAAAAAAAAAAAAAAAAAAAAAAAAAAAAAAAAAAAAAAAAAAAAAAAAAAAAAAAAAAAAAAAAAAAAAAAAAAAAAAAAAAAAAAAAAAAAAAAAAAAAAAAAAAAAAAAAAAAAAAAAAAAAAAAAAAAAAAAAAAA
      AAAAAAAAAAAAAAAAAAAAAAAAAAAAAAAAAAAAAAAAAAAAAAAAAAAAAAAAAAAAAAAAAAAAAAAAAAAAAAAAAAAAAAAAAAAAAAAAAAAAAAAAAAAAAAAAAAAAAAAAAAAAAAAAAAAAAAAAAAAAAAAAAABkAAQAAAAAAAAAAAAAAACAPwAAgD8AAAAAAACAQgAAAAAAAIBCAACAQwAAAAAEAAAAACAAAAAAAAAAAAAAZAAAAEAAAAAoAAAAAAAAAEAAAAAAAAAAAAAAAAAgAAAAAAAAAAAA
      AGQAAABAAAAAKAAAAAAAAABAAAAAAAAAAAAAAAAAIAAAAAAAAAAAAABkAAAAQAAAACgAAAAAAAAAQAAAAAAAAAAAAAAAACAAAAAAAAAAAAAAZAAAAEAAAAAoAAAAAAAAAEAAAAAAAAAAAAAAAAAgAAAAAAAAAAAAAGQAAABAAAAAKAAAAAAAAABAAAAAAAAAAAAAAAAAIAAAAAAAAAAAAABkAAAAQAAAACgAAAAAAAAAQAAAAAAAAAAAAAAAACAAAAAAAAAAAAAAZAAAAEAAAAAo
      AAAAAAAAAEAAAAAAAAAAAAAAAAAgAAAAAAAAAAAAAGQAAABAAAAAKAAAAAAAAABAAAAAAAAAAAAAAAAAIAAAAAAAAAAAAABkAAAAQAAAACgAAAAAAAAAQAAAAAAAAAAAAAAAACAAAAAAAAAAAAAAZAAAAEAAAAAoAAAAAAAAAEAAAAAAAAAAAAAAAAAgAAAAAAAAAAAAAGQAAABAAAAAKAAAAAAAAABAAAAAAAAAAAAAAAAAIAAAAAAAAAAAAABkAAAAQAAAACgAAAAAAAAAQAAA
      AAAAAAAAAAAAACAAAAAAAAAAAAAAZAAAAEAAAAAoAAAAAAAAAEAAAAAAAAAAAAAAAAAgAAAAAAAAAAAAAGQAAABAAAAAKAAAAAAAAABAAAAAAAAAAAAAAAAAIAAAAAAAAAAAAABkAAAAQAAAACgAAAAAAAAAQAAAAAAAAAAAAAAAACAAAAAAAAAAAAAAZAAAAEAAAAAoAAAAAAAAAEAAAAAAAAAAAAA=
      AEJhc3NNaWRpABAAAAA=
    >
    PRESETNAME BassMidi
    FLOATPOS 0 0 0 0
    WAK 0 0
  >
  <UINF 162
    WNDRECT 23 51 556 508
    SHOW 2
    LASTSEL 1
    DOCKED 0
    BYPASS 0 0 0
    FXID_NEXT {6680346F-A7B3-419E-988B-7A84DECC9491}
    <VST "VSTi: BassMidiVsti (Falcosoft)" BassMidiVsti.dll 0 "" 1112755524<56535442534D44626173736D69646976> ""
      RE1TQu5e7f4AAAAAAgAAAAEAAAAAAAAAAgAAAAAAAAD1DAAAAQAAAAAAEAA=
      RwA6AFwATQB5ACAARAByAGkAdgBlAFwATQB1AHMAaQBjACAAUAByAG8AZAB1AGMAdABpAG8AbgBcAFMAbwB1AG4AZABmAG8AbgB0AHMAXABFAHMAcwBlAG4AdABpAGEAbAAgAEsAZQB5AHMALQBzAGYAegBCAGEAbgBrAHMALQB2ADkALgA2AC4AcwBmADIAAAAAAAAAAAAAAAAAAAAAAAAAAAAAAAAAAAAAAAAAAAAAAAAAAAAAAAAAAAAAAAAAAAAAAAAAAAAAAAAAAAAAAAAA
      AAAAAAAAAAAAAAAAAAAAAAAAAAAAAAAAAAAAAAAAAAAAAAAAAAAAAAAAAAAAAAAAAAAAAAAAAAAAAAAAAAAAAAAAAAAAAAAAAAAAAAAAAAAAAAAAAAAAAAAAAAAAAAAAAAAAAAAAAAAAAAAAAAAAAAAAAAAAAAAAAAAAAAAAAAAAAAAAAAAAAAAAAAAAAAAAAAAAAAAAAAAAAAAAAAAAAAAAAAAAAAAAAAAAAAAAAAAAAAAAAAAAAAAAAAAAAAAAAAAAAAAAAAAAAAAAAAAAAAAA
      AAAAAAAAAAAAAAAAAAAAAAAAAAAAAAAAAAAAAAAAAAAAAAAAAAAAAAAAAAAAAAAAAAAAAAAAAAAAAAAAAAAAAAAAAAAAAAAAAAAAAAAAAAAAAAAAAAAAAAAAAAAAAAAAAAAAAAAAZAAAAAEAAAAAAAAAAAAAAAAAAAAAAAAAAAAAAAAAAAAAAAAAAAAAAAAAAAAAAAAAAAAAAAAAAAAAAAAAAAAAAAAAAAAAAAAAAAAAAAAAAAAAAAAAAAAAAAAAAAAAAAAAAAAAAAAAAAAAAAAA
      AAAAAAAAAAAAAAAAAAAAAAAAAAAAAAAAAAAAAAAAAAAAAAAAAAAAAAAAAAAAAAAAAAAAAAAAAAAAAAAAAAAAAAAAAAAAAAAAAAAAAAAAAAAAAAAAAAAAAAAAAAAAAAAAAAAAAAAAAAAAAAAAAAAAAAAAAAAAAAAAAAAAAAAAAAAAAAAAAAAAAAAAAAAAAAAAAAAAAAAAAAAAAAAAAAAAAAAAAAAAAAAAAAAAAAAAAAAAAAAAAAAAAAAAAAAAAAAAAAAAAAAAAAAAAAAAAAAAAAAA
      AAAAAAAAAAAAAAAAAAAAAAAAAAAAAAAAAAAAAAAAAAAAAAAAAAAAAAAAAAAAAAAAAAAAAAAAAAAAAAAAAAAAAAAAAAAAAAAAAAAAAAAAAAAAAAAAAAAAAAAAAAAAAAAAAAAAAAAAAAAAAAAAAAAAAAAAAAAAAAAAAAAAAAAAAAAAAAAAAAAAAAAAAAAAAAAAAAAAAAAAAAAAAAAAAAAAAAAAAAAAAAAAAAAAAAAAAAAAAAAAAAAAAAAAAAAAAAAAAAAAAAAAAAAAAAAAAAAAAABk
      AAEAAAAAAAAAAAAAAAAAAAAAAAAAAAAAAAAAAAAAAAAAAAAAAAAAAAAAAAAAAAAAAAAAAAAAAAAAAAAAAAAAAAAAAAAAAAAAAAAAAAAAAAAAAAAAAAAAAAAAAAAAAAAAAAAAAAAAAAAAAAAAAAAAAAAAAAAAAAAAAAAAAAAAAAAAAAAAAAAAAAAAAAAAAAAAAAAAAAAAAAAAAAAAAAAAAAAAAAAAAAAAAAAAAAAAAAAAAAAAAAAAAAAAAAAAAAAAAAAAAAAAAAAAAAAAAAAAAAAA
      AAAAAAAAAAAAAAAAAAAAAAAAAAAAAAAAAAAAAAAAAAAAAAAAAAAAAAAAAAAAAAAAAAAAAAAAAAAAAAAAAAAAAAAAAAAAAAAAAAAAAAAAAAAAAAAAAAAAAAAAAAAAAAAAAAAAAAAAAAAAAAAAAAAAAAAAAAAAAAAAAAAAAAAAAAAAAAAAAAAAAAAAAAAAAAAAAAAAAAAAAAAAAAAAAAAAAAAAAAAAAAAAAAAAAAAAAAAAAAAAAAAAAAAAAAAAAAAAAAAAAAAAAAAAAAAAAAAAAAAA
      AAAAAAAAAAAAAAAAAAAAAAAAAAAAAAAAAAAAAAAAAAAAAAAAAAAAAAAAAAAAAAAAAAAAAAAAAAAAAAAAAAAAAAAAAAAAAAAAAAAAAAAAAAAAAAAAAAAAAAAAAAAAAAAAAAAAAAAAAAAAAGQAAgAAAAAAAAAAAAAAAAAAAAAAAAAAAAAAAAAAAAAAAAAAAAAAAAAAAAAAAAAAAAAAAAAAAAAAAAAAAAAAAAAAAAAAAAAAAAAAAAAAAAAAAAAAAAAAAAAAAAAAAAAAAAAAAAAAAAAA
      AAAAAAAAAAAAAAAAAAAAAAAAAAAAAAAAAAAAAAAAAAAAAAAAAAAAAAAAAAAAAAAAAAAAAAAAAAAAAAAAAAAAAAAAAAAAAAAAAAAAAAAAAAAAAAAAAAAAAAAAAAAAAAAAAAAAAAAAAAAAAAAAAAAAAAAAAAAAAAAAAAAAAAAAAAAAAAAAAAAAAAAAAAAAAAAAAAAAAAAAAAAAAAAAAAAAAAAAAAAAAAAAAAAAAAAAAAAAAAAAAAAAAAAAAAAAAAAAAAAAAAAAAAAAAAAAAAAAAAAA
      AAAAAAAAAAAAAAAAAAAAAAAAAAAAAAAAAAAAAAAAAAAAAAAAAAAAAAAAAAAAAAAAAAAAAAAAAAAAAAAAAAAAAAAAAAAAAAAAAAAAAAAAAAAAAAAAAAAAAAAAAAAAAAAAAAAAAAAAAAAAAAAAAAAAAAAAAAAAAAAAAAAAAAAAAAAAAAAAAAAAAAAAAAAAAAAAAAAAAAAAAAAAAAAAAAAAAAAAAAAAAAAAAAAAAAAAAAAAAAAAAAAAAAAAAAAAAAAAAAAAAAAAAAAAAAAAAAAAAAAA
      AAAAZAADAAAAAAAAAAAAAAAAAAAAAAAAAAAAAAAAAAAAAAAAAAAAAAAAAAAAAAAAAAAAAAAAAAAAAAAAAAAAAAAAAAAAAAAAAAAAAAAAAAAAAAAAAAAAAAAAAAAAAAAAAAAAAAAAAAAAAAAAAAAAAAAAAAAAAAAAAAAAAAAAAAAAAAAAAAAAAAAAAAAAAAAAAAAAAAAAAAAAAAAAAAAAAAAAAAAAAAAAAAAAAAAAAAAAAAAAAAAAAAAAAAAAAAAAAAAAAAAAAAAAAAAAAAAAAAAA
      AAAAAAAAAAAAAAAAAAAAAAAAAAAAAAAAAAAAAAAAAAAAAAAAAAAAAAAAAAAAAAAAAAAAAAAAAAAAAAAAAAAAAAAAAAAAAAAAAAAAAAAAAAAAAAAAAAAAAAAAAAAAAAAAAAAAAAAAAAAAAAAAAAAAAAAAAAAAAAAAAAAAAAAAAAAAAAAAAAAAAAAAAAAAAAAAAAAAAAAAAAAAAAAAAAAAAAAAAAAAAAAAAAAAAAAAAAAAAAAAAAAAAAAAAAAAAAAAAAAAAAAAAAAAAAAAAAAAAAAA
      AAAAAAAAAAAAAAAAAAAAAAAAAAAAAAAAAAAAAAAAAAAAAAAAAAAAAAAAAAAAAAAAAAAAAAAAAAAAAAAAAAAAAAAAAAAAAAAAAAAAAAAAAAAAAAAAAAAAAAAAAAAAAAAAAAAAAAAAAAAAAAAAAABkAAQAAAAAAAAAAAAAAACAPwAAgD8AAAAAAACAQgAAAAAAAIBCAACAQwAAAAAEAAAAACAAAAAAAAAAAAAAZAAAAEAAAAAoAAAAAAAAAEAAAAAAAAAAAAAAAAAgAAAAAAAAAAAA
      AGQAAABAAAAAKAAAAAAAAABAAAAAAAAAAAAAAAAAIAAAAAAAAAAAAABkAAAAQAAAACgAAAAAAAAAQAAAAAAAAAAAAAAAACAAAAAAAAAAAAAAZAAAAEAAAAAoAAAAAAAAAEAAAAAAAAAAAAAAAAAgAAAAAAAAAAAAAGQAAABAAAAAKAAAAAAAAABAAAAAAAAAAAAAAAAAIAAAAAAAAAAAAABkAAAAQAAAACgAAAAAAAAAQAAAAAAAAAAAAAAAACAAAAAAAAAAAAAAZAAAAEAAAAAo
      AAAAAAAAAEAAAAAAAAAAAAAAAAAgAAAAAAAAAAAAAGQAAABAAAAAKAAAAAAAAABAAAAAAAAAAAAAAAAAIAAAAAAAAAAAAABkAAAAQAAAACgAAAAAAAAAQAAAAAAAAAAAAAAAACAAAAAAAAAAAAAAZAAAAEAAAAAoAAAAAAAAAEAAAAAAAAAAAAAAAAAgAAAAAAAAAAAAAGQAAABAAAAAKAAAAAAAAABAAAAAAAAAAAAAAAAAIAAAAAAAAAAAAABkAAAAQAAAACgAAAAAAAAAQAAA
      AAAAAAAAAAAAACAAAAAAAAAAAAAAZAAAAEAAAAAoAAAAAAAAAEAAAAAAAAAAAAAAAAAgAAAAAAAAAAAAAGQAAABAAAAAKAAAAAAAAABAAAAAAAAAAAAAAAAAIAAAAAAAAAAAAABkAAAAQAAAACgAAAAAAAAAQAAAAAAAAAAAAAAAACAAAAAAAAAAAAAAZAAAAEAAAAAoAAAAAAAAAEAAAAAAAAAAAAA=
      AEJhc3NNaWRpABAAAAA=
    >
    PRESETNAME BassMidi
    FLOATPOS 0 0 0 0
    WAK 0 0
    BYPASS 0 0 0
    FXID_NEXT {067D57B1-FABC-4B7B-B6EA-13F1DB09ADD1}
    <VST "VSTi: ReaSynth (Cockos)" reasynth.dll 0 "" 1919251321<5653547265737972656173796E746800> ""
      eXNlcu9e7f4AAAAAAgAAAAEAAAAAAAAAAgAAAAAAAABEAAAAAAAAAAAAEAA=
      776t3g3wrd4AAAAAF7fROgAAAD/b+b4+AACAP85NAD/pZ4g9AAAAAAAAAD8AAIA/AACAPwAAAD8AAAAAAAAAAAAAAAA=
      AAAQAAAA
    >
    FLOATPOS 0 0 0 0
    WAK 0 0
  >
  <UINF 163
    UNDOSKIP
    UNDOSKIP
  >
  <UINF 164
    WNDRECT 23 51 556 508
    SHOW 2
    LASTSEL 1
    DOCKED 0
    BYPASS 1 0 0
    FXID_NEXT {6680346F-A7B3-419E-988B-7A84DECC9491}
    <VST "VSTi: BassMidiVsti (Falcosoft)" BassMidiVsti.dll 0 "" 1112755524<56535442534D44626173736D69646976> ""
      RE1TQu5e7f4AAAAAAgAAAAEAAAAAAAAAAgAAAAAAAAD1DAAAAQAAAAAAEAA=
      RwA6AFwATQB5ACAARAByAGkAdgBlAFwATQB1AHMAaQBjACAAUAByAG8AZAB1AGMAdABpAG8AbgBcAFMAbwB1AG4AZABmAG8AbgB0AHMAXABFAHMAcwBlAG4AdABpAGEAbAAgAEsAZQB5AHMALQBzAGYAegBCAGEAbgBrAHMALQB2ADkALgA2AC4AcwBmADIAAAAAAAAAAAAAAAAAAAAAAAAAAAAAAAAAAAAAAAAAAAAAAAAAAAAAAAAAAAAAAAAAAAAAAAAAAAAAAAAAAAAAAAAA
      AAAAAAAAAAAAAAAAAAAAAAAAAAAAAAAAAAAAAAAAAAAAAAAAAAAAAAAAAAAAAAAAAAAAAAAAAAAAAAAAAAAAAAAAAAAAAAAAAAAAAAAAAAAAAAAAAAAAAAAAAAAAAAAAAAAAAAAAAAAAAAAAAAAAAAAAAAAAAAAAAAAAAAAAAAAAAAAAAAAAAAAAAAAAAAAAAAAAAAAAAAAAAAAAAAAAAAAAAAAAAAAAAAAAAAAAAAAAAAAAAAAAAAAAAAAAAAAAAAAAAAAAAAAAAAAAAAAAAAAA
      AAAAAAAAAAAAAAAAAAAAAAAAAAAAAAAAAAAAAAAAAAAAAAAAAAAAAAAAAAAAAAAAAAAAAAAAAAAAAAAAAAAAAAAAAAAAAAAAAAAAAAAAAAAAAAAAAAAAAAAAAAAAAAAAAAAAAAAAZAAAAAEAAAAAAAAAAAAAAAAAAAAAAAAAAAAAAAAAAAAAAAAAAAAAAAAAAAAAAAAAAAAAAAAAAAAAAAAAAAAAAAAAAAAAAAAAAAAAAAAAAAAAAAAAAAAAAAAAAAAAAAAAAAAAAAAAAAAAAAAA
      AAAAAAAAAAAAAAAAAAAAAAAAAAAAAAAAAAAAAAAAAAAAAAAAAAAAAAAAAAAAAAAAAAAAAAAAAAAAAAAAAAAAAAAAAAAAAAAAAAAAAAAAAAAAAAAAAAAAAAAAAAAAAAAAAAAAAAAAAAAAAAAAAAAAAAAAAAAAAAAAAAAAAAAAAAAAAAAAAAAAAAAAAAAAAAAAAAAAAAAAAAAAAAAAAAAAAAAAAAAAAAAAAAAAAAAAAAAAAAAAAAAAAAAAAAAAAAAAAAAAAAAAAAAAAAAAAAAAAAAA
      AAAAAAAAAAAAAAAAAAAAAAAAAAAAAAAAAAAAAAAAAAAAAAAAAAAAAAAAAAAAAAAAAAAAAAAAAAAAAAAAAAAAAAAAAAAAAAAAAAAAAAAAAAAAAAAAAAAAAAAAAAAAAAAAAAAAAAAAAAAAAAAAAAAAAAAAAAAAAAAAAAAAAAAAAAAAAAAAAAAAAAAAAAAAAAAAAAAAAAAAAAAAAAAAAAAAAAAAAAAAAAAAAAAAAAAAAAAAAAAAAAAAAAAAAAAAAAAAAAAAAAAAAAAAAAAAAAAAAABk
      AAEAAAAAAAAAAAAAAAAAAAAAAAAAAAAAAAAAAAAAAAAAAAAAAAAAAAAAAAAAAAAAAAAAAAAAAAAAAAAAAAAAAAAAAAAAAAAAAAAAAAAAAAAAAAAAAAAAAAAAAAAAAAAAAAAAAAAAAAAAAAAAAAAAAAAAAAAAAAAAAAAAAAAAAAAAAAAAAAAAAAAAAAAAAAAAAAAAAAAAAAAAAAAAAAAAAAAAAAAAAAAAAAAAAAAAAAAAAAAAAAAAAAAAAAAAAAAAAAAAAAAAAAAAAAAAAAAAAAAA
      AAAAAAAAAAAAAAAAAAAAAAAAAAAAAAAAAAAAAAAAAAAAAAAAAAAAAAAAAAAAAAAAAAAAAAAAAAAAAAAAAAAAAAAAAAAAAAAAAAAAAAAAAAAAAAAAAAAAAAAAAAAAAAAAAAAAAAAAAAAAAAAAAAAAAAAAAAAAAAAAAAAAAAAAAAAAAAAAAAAAAAAAAAAAAAAAAAAAAAAAAAAAAAAAAAAAAAAAAAAAAAAAAAAAAAAAAAAAAAAAAAAAAAAAAAAAAAAAAAAAAAAAAAAAAAAAAAAAAAAA
      AAAAAAAAAAAAAAAAAAAAAAAAAAAAAAAAAAAAAAAAAAAAAAAAAAAAAAAAAAAAAAAAAAAAAAAAAAAAAAAAAAAAAAAAAAAAAAAAAAAAAAAAAAAAAAAAAAAAAAAAAAAAAAAAAAAAAAAAAAAAAGQAAgAAAAAAAAAAAAAAAAAAAAAAAAAAAAAAAAAAAAAAAAAAAAAAAAAAAAAAAAAAAAAAAAAAAAAAAAAAAAAAAAAAAAAAAAAAAAAAAAAAAAAAAAAAAAAAAAAAAAAAAAAAAAAAAAAAAAAA
      AAAAAAAAAAAAAAAAAAAAAAAAAAAAAAAAAAAAAAAAAAAAAAAAAAAAAAAAAAAAAAAAAAAAAAAAAAAAAAAAAAAAAAAAAAAAAAAAAAAAAAAAAAAAAAAAAAAAAAAAAAAAAAAAAAAAAAAAAAAAAAAAAAAAAAAAAAAAAAAAAAAAAAAAAAAAAAAAAAAAAAAAAAAAAAAAAAAAAAAAAAAAAAAAAAAAAAAAAAAAAAAAAAAAAAAAAAAAAAAAAAAAAAAAAAAAAAAAAAAAAAAAAAAAAAAAAAAAAAAA
      AAAAAAAAAAAAAAAAAAAAAAAAAAAAAAAAAAAAAAAAAAAAAAAAAAAAAAAAAAAAAAAAAAAAAAAAAAAAAAAAAAAAAAAAAAAAAAAAAAAAAAAAAAAAAAAAAAAAAAAAAAAAAAAAAAAAAAAAAAAAAAAAAAAAAAAAAAAAAAAAAAAAAAAAAAAAAAAAAAAAAAAAAAAAAAAAAAAAAAAAAAAAAAAAAAAAAAAAAAAAAAAAAAAAAAAAAAAAAAAAAAAAAAAAAAAAAAAAAAAAAAAAAAAAAAAAAAAAAAAA
      AAAAZAADAAAAAAAAAAAAAAAAAAAAAAAAAAAAAAAAAAAAAAAAAAAAAAAAAAAAAAAAAAAAAAAAAAAAAAAAAAAAAAAAAAAAAAAAAAAAAAAAAAAAAAAAAAAAAAAAAAAAAAAAAAAAAAAAAAAAAAAAAAAAAAAAAAAAAAAAAAAAAAAAAAAAAAAAAAAAAAAAAAAAAAAAAAAAAAAAAAAAAAAAAAAAAAAAAAAAAAAAAAAAAAAAAAAAAAAAAAAAAAAAAAAAAAAAAAAAAAAAAAAAAAAAAAAAAAAA
      AAAAAAAAAAAAAAAAAAAAAAAAAAAAAAAAAAAAAAAAAAAAAAAAAAAAAAAAAAAAAAAAAAAAAAAAAAAAAAAAAAAAAAAAAAAAAAAAAAAAAAAAAAAAAAAAAAAAAAAAAAAAAAAAAAAAAAAAAAAAAAAAAAAAAAAAAAAAAAAAAAAAAAAAAAAAAAAAAAAAAAAAAAAAAAAAAAAAAAAAAAAAAAAAAAAAAAAAAAAAAAAAAAAAAAAAAAAAAAAAAAAAAAAAAAAAAAAAAAAAAAAAAAAAAAAAAAAAAAAA
      AAAAAAAAAAAAAAAAAAAAAAAAAAAAAAAAAAAAAAAAAAAAAAAAAAAAAAAAAAAAAAAAAAAAAAAAAAAAAAAAAAAAAAAAAAAAAAAAAAAAAAAAAAAAAAAAAAAAAAAAAAAAAAAAAAAAAAAAAAAAAAAAAABkAAQAAAAAAAAAAAAAAACAPwAAgD8AAAAAAACAQgAAAAAAAIBCAACAQwAAAAAEAAAAACAAAAAAAAAAAAAAZAAAAEAAAAAoAAAAAAAAAEAAAAAAAAAAAAAAAAAgAAAAAAAAAAAA
      AGQAAABAAAAAKAAAAAAAAABAAAAAAAAAAAAAAAAAIAAAAAAAAAAAAABkAAAAQAAAACgAAAAAAAAAQAAAAAAAAAAAAAAAACAAAAAAAAAAAAAAZAAAAEAAAAAoAAAAAAAAAEAAAAAAAAAAAAAAAAAgAAAAAAAAAAAAAGQAAABAAAAAKAAAAAAAAABAAAAAAAAAAAAAAAAAIAAAAAAAAAAAAABkAAAAQAAAACgAAAAAAAAAQAAAAAAAAAAAAAAAACAAAAAAAAAAAAAAZAAAAEAAAAAo
      AAAAAAAAAEAAAAAAAAAAAAAAAAAgAAAAAAAAAAAAAGQAAABAAAAAKAAAAAAAAABAAAAAAAAAAAAAAAAAIAAAAAAAAAAAAABkAAAAQAAAACgAAAAAAAAAQAAAAAAAAAAAAAAAACAAAAAAAAAAAAAAZAAAAEAAAAAoAAAAAAAAAEAAAAAAAAAAAAAAAAAgAAAAAAAAAAAAAGQAAABAAAAAKAAAAAAAAABAAAAAAAAAAAAAAAAAIAAAAAAAAAAAAABkAAAAQAAAACgAAAAAAAAAQAAA
      AAAAAAAAAAAAACAAAAAAAAAAAAAAZAAAAEAAAAAoAAAAAAAAAEAAAAAAAAAAAAAAAAAgAAAAAAAAAAAAAGQAAABAAAAAKAAAAAAAAABAAAAAAAAAAAAAAAAAIAAAAAAAAAAAAABkAAAAQAAAACgAAAAAAAAAQAAAAAAAAAAAAAAAACAAAAAAAAAAAAAAZAAAAEAAAAAoAAAAAAAAAEAAAAAAAAAAAAA=
      AEJhc3NNaWRpABAAAAA=
    >
    PRESETNAME BassMidi
    FLOATPOS 0 0 0 0
    WAK 0 0
    BYPASS 0 0 0
    FXID_NEXT {067D57B1-FABC-4B7B-B6EA-13F1DB09ADD1}
    <VST "VSTi: ReaSynth (Cockos)" reasynth.dll 0 "" 1919251321<5653547265737972656173796E746800> ""
      eXNlcu9e7f4AAAAAAgAAAAEAAAAAAAAAAgAAAAAAAABEAAAAAAAAAAAAEAA=
      776t3g3wrd4AAAAAF7fROgAAAD/b+b4+AACAP85NAD/pZ4g9AAAAAAAAAD8AAIA/AACAPwAAAD8AAAAAAAAAAAAAAAA=
      AAAQAAAA
    >
    FLOATPOS 0 0 0 0
    WAK 0 0
  >
  <UINF 165
    WNDRECT 23 51 556 508
    SHOW 0
    LASTSEL 1
    DOCKED 0
    BYPASS 1 0 0
    FXID_NEXT {6680346F-A7B3-419E-988B-7A84DECC9491}
    <VST "VSTi: BassMidiVsti (Falcosoft)" BassMidiVsti.dll 0 "" 1112755524<56535442534D44626173736D69646976> ""
      RE1TQu5e7f4AAAAAAgAAAAEAAAAAAAAAAgAAAAAAAAD1DAAAAQAAAAAAEAA=
      RwA6AFwATQB5ACAARAByAGkAdgBlAFwATQB1AHMAaQBjACAAUAByAG8AZAB1AGMAdABpAG8AbgBcAFMAbwB1AG4AZABmAG8AbgB0AHMAXABFAHMAcwBlAG4AdABpAGEAbAAgAEsAZQB5AHMALQBzAGYAegBCAGEAbgBrAHMALQB2ADkALgA2AC4AcwBmADIAAAAAAAAAAAAAAAAAAAAAAAAAAAAAAAAAAAAAAAAAAAAAAAAAAAAAAAAAAAAAAAAAAAAAAAAAAAAAAAAAAAAAAAAA
      AAAAAAAAAAAAAAAAAAAAAAAAAAAAAAAAAAAAAAAAAAAAAAAAAAAAAAAAAAAAAAAAAAAAAAAAAAAAAAAAAAAAAAAAAAAAAAAAAAAAAAAAAAAAAAAAAAAAAAAAAAAAAAAAAAAAAAAAAAAAAAAAAAAAAAAAAAAAAAAAAAAAAAAAAAAAAAAAAAAAAAAAAAAAAAAAAAAAAAAAAAAAAAAAAAAAAAAAAAAAAAAAAAAAAAAAAAAAAAAAAAAAAAAAAAAAAAAAAAAAAAAAAAAAAAAAAAAAAAAA
      AAAAAAAAAAAAAAAAAAAAAAAAAAAAAAAAAAAAAAAAAAAAAAAAAAAAAAAAAAAAAAAAAAAAAAAAAAAAAAAAAAAAAAAAAAAAAAAAAAAAAAAAAAAAAAAAAAAAAAAAAAAAAAAAAAAAAAAAZAAAAAEAAAAAAAAAAAAAAAAAAAAAAAAAAAAAAAAAAAAAAAAAAAAAAAAAAAAAAAAAAAAAAAAAAAAAAAAAAAAAAAAAAAAAAAAAAAAAAAAAAAAAAAAAAAAAAAAAAAAAAAAAAAAAAAAAAAAAAAAA
      AAAAAAAAAAAAAAAAAAAAAAAAAAAAAAAAAAAAAAAAAAAAAAAAAAAAAAAAAAAAAAAAAAAAAAAAAAAAAAAAAAAAAAAAAAAAAAAAAAAAAAAAAAAAAAAAAAAAAAAAAAAAAAAAAAAAAAAAAAAAAAAAAAAAAAAAAAAAAAAAAAAAAAAAAAAAAAAAAAAAAAAAAAAAAAAAAAAAAAAAAAAAAAAAAAAAAAAAAAAAAAAAAAAAAAAAAAAAAAAAAAAAAAAAAAAAAAAAAAAAAAAAAAAAAAAAAAAAAAAA
      AAAAAAAAAAAAAAAAAAAAAAAAAAAAAAAAAAAAAAAAAAAAAAAAAAAAAAAAAAAAAAAAAAAAAAAAAAAAAAAAAAAAAAAAAAAAAAAAAAAAAAAAAAAAAAAAAAAAAAAAAAAAAAAAAAAAAAAAAAAAAAAAAAAAAAAAAAAAAAAAAAAAAAAAAAAAAAAAAAAAAAAAAAAAAAAAAAAAAAAAAAAAAAAAAAAAAAAAAAAAAAAAAAAAAAAAAAAAAAAAAAAAAAAAAAAAAAAAAAAAAAAAAAAAAAAAAAAAAABk
      AAEAAAAAAAAAAAAAAAAAAAAAAAAAAAAAAAAAAAAAAAAAAAAAAAAAAAAAAAAAAAAAAAAAAAAAAAAAAAAAAAAAAAAAAAAAAAAAAAAAAAAAAAAAAAAAAAAAAAAAAAAAAAAAAAAAAAAAAAAAAAAAAAAAAAAAAAAAAAAAAAAAAAAAAAAAAAAAAAAAAAAAAAAAAAAAAAAAAAAAAAAAAAAAAAAAAAAAAAAAAAAAAAAAAAAAAAAAAAAAAAAAAAAAAAAAAAAAAAAAAAAAAAAAAAAAAAAAAAAA
      AAAAAAAAAAAAAAAAAAAAAAAAAAAAAAAAAAAAAAAAAAAAAAAAAAAAAAAAAAAAAAAAAAAAAAAAAAAAAAAAAAAAAAAAAAAAAAAAAAAAAAAAAAAAAAAAAAAAAAAAAAAAAAAAAAAAAAAAAAAAAAAAAAAAAAAAAAAAAAAAAAAAAAAAAAAAAAAAAAAAAAAAAAAAAAAAAAAAAAAAAAAAAAAAAAAAAAAAAAAAAAAAAAAAAAAAAAAAAAAAAAAAAAAAAAAAAAAAAAAAAAAAAAAAAAAAAAAAAAAA
      AAAAAAAAAAAAAAAAAAAAAAAAAAAAAAAAAAAAAAAAAAAAAAAAAAAAAAAAAAAAAAAAAAAAAAAAAAAAAAAAAAAAAAAAAAAAAAAAAAAAAAAAAAAAAAAAAAAAAAAAAAAAAAAAAAAAAAAAAAAAAGQAAgAAAAAAAAAAAAAAAAAAAAAAAAAAAAAAAAAAAAAAAAAAAAAAAAAAAAAAAAAAAAAAAAAAAAAAAAAAAAAAAAAAAAAAAAAAAAAAAAAAAAAAAAAAAAAAAAAAAAAAAAAAAAAAAAAAAAAA
      AAAAAAAAAAAAAAAAAAAAAAAAAAAAAAAAAAAAAAAAAAAAAAAAAAAAAAAAAAAAAAAAAAAAAAAAAAAAAAAAAAAAAAAAAAAAAAAAAAAAAAAAAAAAAAAAAAAAAAAAAAAAAAAAAAAAAAAAAAAAAAAAAAAAAAAAAAAAAAAAAAAAAAAAAAAAAAAAAAAAAAAAAAAAAAAAAAAAAAAAAAAAAAAAAAAAAAAAAAAAAAAAAAAAAAAAAAAAAAAAAAAAAAAAAAAAAAAAAAAAAAAAAAAAAAAAAAAAAAAA
      AAAAAAAAAAAAAAAAAAAAAAAAAAAAAAAAAAAAAAAAAAAAAAAAAAAAAAAAAAAAAAAAAAAAAAAAAAAAAAAAAAAAAAAAAAAAAAAAAAAAAAAAAAAAAAAAAAAAAAAAAAAAAAAAAAAAAAAAAAAAAAAAAAAAAAAAAAAAAAAAAAAAAAAAAAAAAAAAAAAAAAAAAAAAAAAAAAAAAAAAAAAAAAAAAAAAAAAAAAAAAAAAAAAAAAAAAAAAAAAAAAAAAAAAAAAAAAAAAAAAAAAAAAAAAAAAAAAAAAAA
      AAAAZAADAAAAAAAAAAAAAAAAAAAAAAAAAAAAAAAAAAAAAAAAAAAAAAAAAAAAAAAAAAAAAAAAAAAAAAAAAAAAAAAAAAAAAAAAAAAAAAAAAAAAAAAAAAAAAAAAAAAAAAAAAAAAAAAAAAAAAAAAAAAAAAAAAAAAAAAAAAAAAAAAAAAAAAAAAAAAAAAAAAAAAAAAAAAAAAAAAAAAAAAAAAAAAAAAAAAAAAAAAAAAAAAAAAAAAAAAAAAAAAAAAAAAAAAAAAAAAAAAAAAAAAAAAAAAAAAA
      AAAAAAAAAAAAAAAAAAAAAAAAAAAAAAAAAAAAAAAAAAAAAAAAAAAAAAAAAAAAAAAAAAAAAAAAAAAAAAAAAAAAAAAAAAAAAAAAAAAAAAAAAAAAAAAAAAAAAAAAAAAAAAAAAAAAAAAAAAAAAAAAAAAAAAAAAAAAAAAAAAAAAAAAAAAAAAAAAAAAAAAAAAAAAAAAAAAAAAAAAAAAAAAAAAAAAAAAAAAAAAAAAAAAAAAAAAAAAAAAAAAAAAAAAAAAAAAAAAAAAAAAAAAAAAAAAAAAAAAA
      AAAAAAAAAAAAAAAAAAAAAAAAAAAAAAAAAAAAAAAAAAAAAAAAAAAAAAAAAAAAAAAAAAAAAAAAAAAAAAAAAAAAAAAAAAAAAAAAAAAAAAAAAAAAAAAAAAAAAAAAAAAAAAAAAAAAAAAAAAAAAAAAAABkAAQAAAAAAAAAAAAAAACAPwAAgD8AAAAAAACAQgAAAAAAAIBCAACAQwAAAAAEAAAAACAAAAAAAAAAAAAAZAAAAEAAAAAoAAAAAAAAAEAAAAAAAAAAAAAAAAAgAAAAAAAAAAAA
      AGQAAABAAAAAKAAAAAAAAABAAAAAAAAAAAAAAAAAIAAAAAAAAAAAAABkAAAAQAAAACgAAAAAAAAAQAAAAAAAAAAAAAAAACAAAAAAAAAAAAAAZAAAAEAAAAAoAAAAAAAAAEAAAAAAAAAAAAAAAAAgAAAAAAAAAAAAAGQAAABAAAAAKAAAAAAAAABAAAAAAAAAAAAAAAAAIAAAAAAAAAAAAABkAAAAQAAAACgAAAAAAAAAQAAAAAAAAAAAAAAAACAAAAAAAAAAAAAAZAAAAEAAAAAo
      AAAAAAAAAEAAAAAAAAAAAAAAAAAgAAAAAAAAAAAAAGQAAABAAAAAKAAAAAAAAABAAAAAAAAAAAAAAAAAIAAAAAAAAAAAAABkAAAAQAAAACgAAAAAAAAAQAAAAAAAAAAAAAAAACAAAAAAAAAAAAAAZAAAAEAAAAAoAAAAAAAAAEAAAAAAAAAAAAAAAAAgAAAAAAAAAAAAAGQAAABAAAAAKAAAAAAAAABAAAAAAAAAAAAAAAAAIAAAAAAAAAAAAABkAAAAQAAAACgAAAAAAAAAQAAA
      AAAAAAAAAAAAACAAAAAAAAAAAAAAZAAAAEAAAAAoAAAAAAAAAEAAAAAAAAAAAAAAAAAgAAAAAAAAAAAAAGQAAABAAAAAKAAAAAAAAABAAAAAAAAAAAAAAAAAIAAAAAAAAAAAAABkAAAAQAAAACgAAAAAAAAAQAAAAAAAAAAAAAAAACAAAAAAAAAAAAAAZAAAAEAAAAAoAAAAAAAAAEAAAAAAAAAAAAA=
      AEJhc3NNaWRpABAAAAA=
    >
    PRESETNAME BassMidi
    FLOATPOS 0 0 0 0
    WAK 0 0
    BYPASS 0 0 0
    FXID_NEXT {067D57B1-FABC-4B7B-B6EA-13F1DB09ADD1}
    <VST "VSTi: ReaSynth (Cockos)" reasynth.dll 0 "" 1919251321<5653547265737972656173796E746800> ""
      eXNlcu9e7f4AAAAAAgAAAAEAAAAAAAAAAgAAAAAAAABEAAAAAAAAAAAAEAA=
      776t3g3wrd4AAAAAF7fROgAAAD/b+b4+AACAP85NAD/pZ4g9AAAAAAAAAD8AAIA/AACAPwAAAD8AAAAAAAAAAAAAAAA=
      AAAQAAAA
    >
    FLOATPOS 0 0 0 0
    WAK 0 0
  >
  <UENT `` 1701105740 1 2
    TCFG 42 43 44 45 46 47 48 49 50 51 52 53 54 55 56 57 58 59 60 61 62 63 64
    ITEMCFG 3 4 3 5 6 7 8 9 3 10 3 11 12 13 14 3 3 15 3 16 17 18 3
    FREEZECFG 0 0 0 0 0 0 0 0 0 0 0 0 0 0 0 0 0 0 0 0 0 0 0
    FXCFG 0 0 19 20 21 22 23 24 25 0 26 27 28 29 30 31 32 0 0 33 34 35 36 37
    FXENVCFG 0 0 3 38 3 3 3 3 3 0 3 39 3 3 3 3 3 0 0 40 3 3 3 3
    RECFXCFG 0 0 0 0 0 0 0 0 0 0 0 0 0 0 0 0 0 0 0 0 0 0 0
    TRACKENVCFG 41 3 3 3 3 3 3 3 3 3 3 3 3 3 3 3 3 3 3 3 3 3 3 3
  >
  <UENT `Set track color` 1701105785 1 2
    TCFG 42 43 65 45 46 47 48 49 50 51 66 53 54 55 56 57 58 59 67 61 62 63 64
    ITEMCFG 3 4 3 5 6 7 8 9 3 10 3 11 12 13 14 3 3 15 3 16 17 18 3
    FREEZECFG 0 0 0 0 0 0 0 0 0 0 0 0 0 0 0 0 0 0 0 0 0 0 0
    FXCFG 0 0 19 20 21 22 23 24 25 0 26 27 28 29 30 31 32 0 0 33 34 35 36 37
    FXENVCFG 0 0 3 38 3 3 3 3 3 0 3 39 3 3 3 3 3 0 0 40 3 3 3 3
    RECFXCFG 0 0 0 0 0 0 0 0 0 0 0 0 0 0 0 0 0 0 0 0 0 0 0
    TRACKENVCFG 41 3 3 3 3 3 3 3 3 3 3 3 3 3 3 3 3 3 3 3 3 3 3 3
  >
  <UENT `Set track color` 1701105793 1 2
    TCFG 42 43 65 45 46 47 48 49 50 51 66 53 54 55 56 57 58 59 68 61 62 63 64
    ITEMCFG 3 4 3 5 6 7 8 9 3 10 3 11 12 13 14 3 3 15 3 16 17 18 3
    FREEZECFG 0 0 0 0 0 0 0 0 0 0 0 0 0 0 0 0 0 0 0 0 0 0 0
    FXCFG 0 0 19 20 21 22 23 24 25 0 26 27 28 29 30 31 32 0 0 33 34 35 36 37
    FXENVCFG 0 0 3 38 3 3 3 3 3 0 3 39 3 3 3 3 3 0 0 40 3 3 3 3
    RECFXCFG 0 0 0 0 0 0 0 0 0 0 0 0 0 0 0 0 0 0 0 0 0 0 0
    TRACKENVCFG 41 3 3 3 3 3 3 3 3 3 3 3 3 3 3 3 3 3 3 3 3 3 3 3
  >
  <UENT `Set track color` 1701105801 1 2
    TCFG 42 43 65 45 46 47 48 49 50 51 69 53 54 55 56 57 58 59 68 61 62 63 64
    ITEMCFG 3 4 3 5 6 7 8 9 3 10 3 11 12 13 14 3 3 15 3 16 17 18 3
    FREEZECFG 0 0 0 0 0 0 0 0 0 0 0 0 0 0 0 0 0 0 0 0 0 0 0
    FXCFG 0 0 19 20 21 22 23 24 25 0 26 27 28 29 30 31 32 0 0 33 34 35 36 37
    FXENVCFG 0 0 3 38 3 3 3 3 3 0 3 39 3 3 3 3 3 0 0 40 3 3 3 3
    RECFXCFG 0 0 0 0 0 0 0 0 0 0 0 0 0 0 0 0 0 0 0 0 0 0 0
    TRACKENVCFG 41 3 3 3 3 3 3 3 3 3 3 3 3 3 3 3 3 3 3 3 3 3 3 3
  >
  <UENT `Edit FX parameter: Track 19 MIDI: BassMidiVsti` 1701105859 1 2
    TCFG 42 43 65 45 46 47 48 49 50 51 69 53 54 55 56 57 58 59 68 61 62 63 64
    ITEMCFG 3 4 3 5 6 7 8 9 3 10 3 11 12 13 14 3 3 15 3 16 17 18 3
    FREEZECFG 0 0 0 0 0 0 0 0 0 0 0 0 0 0 0 0 0 0 0 0 0 0 0
    FXCFG 0 0 19 20 21 22 23 24 25 0 26 27 28 29 30 31 32 0 0 70 34 35 36 37
    FXENVCFG 0 0 3 38 3 3 3 3 3 0 3 39 3 3 3 3 3 0 0 40 3 3 3 3
    RECFXCFG 0 0 0 0 0 0 0 0 0 0 0 0 0 0 0 0 0 0 0 0 0 0 0
    TRACKENVCFG 41 3 3 3 3 3 3 3 3 3 3 3 3 3 3 3 3 3 3 3 3 3 3 3
  >
  <UENT `Edit FX parameter: Track 19 MIDI: BassMidiVsti` 1701105877 1 2
    TCFG 42 43 65 45 46 47 48 49 50 51 69 53 54 55 56 57 58 59 68 61 62 63 64
    ITEMCFG 3 4 3 5 6 7 8 9 3 10 3 11 12 13 14 3 3 15 3 16 17 18 3
    FREEZECFG 0 0 0 0 0 0 0 0 0 0 0 0 0 0 0 0 0 0 0 0 0 0 0
    FXCFG 0 0 19 20 21 22 23 24 25 0 26 27 28 29 30 31 32 0 0 71 34 35 36 37
    FXENVCFG 0 0 3 38 3 3 3 3 3 0 3 39 3 3 3 3 3 0 0 40 3 3 3 3
    RECFXCFG 0 0 0 0 0 0 0 0 0 0 0 0 0 0 0 0 0 0 0 0 0 0 0
    TRACKENVCFG 41 3 3 3 3 3 3 3 3 3 3 3 3 3 3 3 3 3 3 3 3 3 3 3
  >
  <UENT `Close FX chain: Track 19 MIDI` 1701105880 1 2
    TCFG 42 43 65 45 46 47 48 49 50 51 69 53 54 55 56 57 58 59 68 61 62 63 64
    ITEMCFG 3 4 3 5 6 7 8 9 3 10 3 11 12 13 14 3 3 15 3 16 17 18 3
    FREEZECFG 0 0 0 0 0 0 0 0 0 0 0 0 0 0 0 0 0 0 0 0 0 0 0
    FXCFG 0 0 19 20 21 22 23 24 25 0 26 27 28 29 30 31 32 0 0 72 34 35 36 37
    FXENVCFG 0 0 3 38 3 3 3 3 3 0 3 39 3 3 3 3 3 0 0 40 3 3 3 3
    RECFXCFG 0 0 0 0 0 0 0 0 0 0 0 0 0 0 0 0 0 0 0 0 0 0 0
    TRACKENVCFG 41 3 3 3 3 3 3 3 3 3 3 3 3 3 3 3 3 3 3 3 3 3 3 3
  >
  <UENT `Edit FX parameter: Track 11 MIDI: BassMidiVsti` 1701105889 1 2
    TCFG 42 43 65 45 46 47 48 49 50 51 69 53 54 55 56 57 58 59 68 61 62 63 64
    ITEMCFG 3 4 3 5 6 7 8 9 3 10 3 11 12 13 14 3 3 15 3 16 17 18 3
    FREEZECFG 0 0 0 0 0 0 0 0 0 0 0 0 0 0 0 0 0 0 0 0 0 0 0
    FXCFG 0 0 19 20 21 22 23 24 25 0 26 73 28 29 30 31 32 0 0 72 34 35 36 37
    FXENVCFG 0 0 3 38 3 3 3 3 3 0 3 39 3 3 3 3 3 0 0 40 3 3 3 3
    RECFXCFG 0 0 0 0 0 0 0 0 0 0 0 0 0 0 0 0 0 0 0 0 0 0 0
    TRACKENVCFG 41 3 3 3 3 3 3 3 3 3 3 3 3 3 3 3 3 3 3 3 3 3 3 3
  >
  <UENT `Close FX chain: Track 11 MIDI` 1701105894 1 2
    TCFG 42 43 65 45 46 47 48 49 50 51 69 53 54 55 56 57 58 59 68 61 62 63 64
    ITEMCFG 3 4 3 5 6 7 8 9 3 10 3 11 12 13 14 3 3 15 3 16 17 18 3
    FREEZECFG 0 0 0 0 0 0 0 0 0 0 0 0 0 0 0 0 0 0 0 0 0 0 0
    FXCFG 0 0 19 20 21 22 23 24 25 0 26 74 28 29 30 31 32 0 0 72 34 35 36 37
    FXENVCFG 0 0 3 38 3 3 3 3 3 0 3 39 3 3 3 3 3 0 0 40 3 3 3 3
    RECFXCFG 0 0 0 0 0 0 0 0 0 0 0 0 0 0 0 0 0 0 0 0 0 0 0
    TRACKENVCFG 41 3 3 3 3 3 3 3 3 3 3 3 3 3 3 3 3 3 3 3 3 3 3 3
  >
  <UENT `Edit FX parameter: Track 3 MIDI: BassMidiVsti` 1701105901 1 2
    TCFG 42 43 65 45 46 47 48 49 50 51 69 53 54 55 56 57 58 59 68 61 62 63 64
    ITEMCFG 3 4 3 5 6 7 8 9 3 10 3 11 12 13 14 3 3 15 3 16 17 18 3
    FREEZECFG 0 0 0 0 0 0 0 0 0 0 0 0 0 0 0 0 0 0 0 0 0 0 0
    FXCFG 0 0 19 75 21 22 23 24 25 0 26 74 28 29 30 31 32 0 0 72 34 35 36 37
    FXENVCFG 0 0 3 38 3 3 3 3 3 0 3 39 3 3 3 3 3 0 0 40 3 3 3 3
    RECFXCFG 0 0 0 0 0 0 0 0 0 0 0 0 0 0 0 0 0 0 0 0 0 0 0
    TRACKENVCFG 41 3 3 3 3 3 3 3 3 3 3 3 3 3 3 3 3 3 3 3 3 3 3 3
  >
  <UENT `Close FX chain: Track 3 MIDI` 1701105904 1 2
    TCFG 42 43 65 45 46 47 48 49 50 51 69 53 54 55 56 57 58 59 68 61 62 63 64
    ITEMCFG 3 4 3 5 6 7 8 9 3 10 3 11 12 13 14 3 3 15 3 16 17 18 3
    FREEZECFG 0 0 0 0 0 0 0 0 0 0 0 0 0 0 0 0 0 0 0 0 0 0 0
    FXCFG 0 0 19 76 21 22 23 24 25 0 26 74 28 29 30 31 32 0 0 72 34 35 36 37
    FXENVCFG 0 0 3 38 3 3 3 3 3 0 3 39 3 3 3 3 3 0 0 40 3 3 3 3
    RECFXCFG 0 0 0 0 0 0 0 0 0 0 0 0 0 0 0 0 0 0 0 0 0 0 0
    TRACKENVCFG 41 3 3 3 3 3 3 3 3 3 3 3 3 3 3 3 3 3 3 3 3 3 3 3
  >
  <UENT `Toggle track mute` 1701105907 1 2
    TCFG 77 43 65 45 46 47 48 49 50 51 69 53 54 55 56 57 58 59 68 61 62 63 64
    ITEMCFG 3 4 3 5 6 7 8 9 3 10 3 11 12 13 14 3 3 15 3 16 17 18 3
    FREEZECFG 0 0 0 0 0 0 0 0 0 0 0 0 0 0 0 0 0 0 0 0 0 0 0
    FXCFG 0 0 19 76 21 22 23 24 25 0 26 74 28 29 30 31 32 0 0 72 34 35 36 37
    FXENVCFG 0 0 3 38 3 3 3 3 3 0 3 39 3 3 3 3 3 0 0 40 3 3 3 3
    RECFXCFG 0 0 0 0 0 0 0 0 0 0 0 0 0 0 0 0 0 0 0 0 0 0 0
    TRACKENVCFG 41 3 3 3 3 3 3 3 3 3 3 3 3 3 3 3 3 3 3 3 3 3 3 3
  >
  <UENT `Toggle track solo` 1701105909 1 2
    TCFG 77 43 65 45 46 47 78 49 50 51 69 53 54 55 56 57 58 59 68 61 62 63 64
    ITEMCFG 3 4 3 5 6 7 8 9 3 10 3 11 12 13 14 3 3 15 3 16 17 18 3
    FREEZECFG 0 0 0 0 0 0 0 0 0 0 0 0 0 0 0 0 0 0 0 0 0 0 0
    FXCFG 0 0 19 76 21 22 23 24 25 0 26 74 28 29 30 31 32 0 0 72 34 35 36 37
    FXENVCFG 0 0 3 38 3 3 3 3 3 0 3 39 3 3 3 3 3 0 0 40 3 3 3 3
    RECFXCFG 0 0 0 0 0 0 0 0 0 0 0 0 0 0 0 0 0 0 0 0 0 0 0
    TRACKENVCFG 41 3 3 3 3 3 3 3 3 3 3 3 3 3 3 3 3 3 3 3 3 3 3 3
  >
  <UENT `Toggle track solo` 1701105920 1 2
    TCFG 77 43 65 45 46 47 48 49 50 51 69 53 54 55 56 57 58 59 68 61 62 63 64
    ITEMCFG 3 4 3 5 6 7 8 9 3 10 3 11 12 13 14 3 3 15 3 16 17 18 3
    FREEZECFG 0 0 0 0 0 0 0 0 0 0 0 0 0 0 0 0 0 0 0 0 0 0 0
    FXCFG 0 0 19 76 21 22 23 24 25 0 26 74 28 29 30 31 32 0 0 72 34 35 36 37
    FXENVCFG 0 0 3 38 3 3 3 3 3 0 3 39 3 3 3 3 3 0 0 40 3 3 3 3
    RECFXCFG 0 0 0 0 0 0 0 0 0 0 0 0 0 0 0 0 0 0 0 0 0 0 0
    TRACKENVCFG 41 3 3 3 3 3 3 3 3 3 3 3 3 3 3 3 3 3 3 3 3 3 3 3
  >
  <UENT `Toggle track mute` 1701105921 1 2
    TCFG 42 43 65 45 46 47 48 49 50 51 69 53 54 55 56 57 58 59 68 61 62 63 64
    ITEMCFG 3 4 3 5 6 7 8 9 3 10 3 11 12 13 14 3 3 15 3 16 17 18 3
    FREEZECFG 0 0 0 0 0 0 0 0 0 0 0 0 0 0 0 0 0 0 0 0 0 0 0
    FXCFG 0 0 19 76 21 22 23 24 25 0 26 74 28 29 30 31 32 0 0 72 34 35 36 37
    FXENVCFG 0 0 3 38 3 3 3 3 3 0 3 39 3 3 3 3 3 0 0 40 3 3 3 3
    RECFXCFG 0 0 0 0 0 0 0 0 0 0 0 0 0 0 0 0 0 0 0 0 0 0 0
    TRACKENVCFG 41 3 3 3 3 3 3 3 3 3 3 3 3 3 3 3 3 3 3 3 3 3 3 3
  >
  <UENT `Insert media items` 1701107066 1 2
    TCFG 42 43 65 45 46 47 48 49 50 51 69 53 54 55 56 57 58 59 68 61 62 63 64
    ITEMCFG 3 4 3 5 6 7 8 9 3 10 3 11 12 13 14 79 3 15 3 16 17 18 3
    FREEZECFG 0 0 0 0 0 0 0 0 0 0 0 0 0 0 0 0 0 0 0 0 0 0 0
    FXCFG 0 0 19 76 21 22 23 24 25 0 26 74 28 29 30 31 32 0 0 72 34 35 36 37
    FXENVCFG 0 0 3 38 3 3 3 3 3 0 3 39 3 3 3 3 3 0 0 40 3 3 3 3
    RECFXCFG 0 0 0 0 0 0 0 0 0 0 0 0 0 0 0 0 0 0 0 0 0 0 0
    TRACKENVCFG 41 3 3 3 3 3 3 3 3 3 3 3 3 3 3 3 3 3 3 3 3 3 3 3
  >
  <UENT `Update media via drag and drop` 1701107088 1 2
    TCFG 42 43 65 45 46 47 48 49 50 51 69 53 54 55 56 57 58 59 68 61 62 63 64
    ITEMCFG 3 4 3 5 6 7 8 9 3 10 3 11 12 13 14 80 3 15 3 16 17 18 3
    FREEZECFG 0 0 0 0 0 0 0 0 0 0 0 0 0 0 0 0 0 0 0 0 0 0 0
    FXCFG 0 0 19 76 21 22 23 24 25 0 26 74 28 29 30 31 32 0 0 72 34 35 36 37
    FXENVCFG 0 0 3 38 3 3 3 3 3 0 3 39 3 3 3 3 3 0 0 40 3 3 3 3
    RECFXCFG 0 0 0 0 0 0 0 0 0 0 0 0 0 0 0 0 0 0 0 0 0 0 0
    TRACKENVCFG 41 3 3 3 3 3 3 3 3 3 3 3 3 3 3 3 3 3 3 3 3 3 3 3
  >
  <UENT `Delete items` 1701107091 1 2
    TCFG 42 43 65 45 46 47 48 49 50 51 69 53 54 55 56 57 58 59 68 61 62 63 64
    ITEMCFG 3 4 3 5 6 7 8 9 3 10 3 11 12 13 14 3 3 15 3 16 17 18 3
    FREEZECFG 0 0 0 0 0 0 0 0 0 0 0 0 0 0 0 0 0 0 0 0 0 0 0
    FXCFG 0 0 19 76 21 22 23 24 25 0 26 74 28 29 30 31 32 0 0 72 34 35 36 37
    FXENVCFG 0 0 3 38 3 3 3 3 3 0 3 39 3 3 3 3 3 0 0 40 3 3 3 3
    RECFXCFG 0 0 0 0 0 0 0 0 0 0 0 0 0 0 0 0 0 0 0 0 0 0 0
    TRACKENVCFG 41 3 3 3 3 3 3 3 3 3 3 3 3 3 3 3 3 3 3 3 3 3 3 3
  >
  <UENT `Insert media items` 1701107117 1 2
    TCFG 42 43 65 45 46 47 48 49 50 51 69 53 54 55 56 57 58 59 68 61 62 63 64
    ITEMCFG 3 4 3 5 6 7 8 9 3 10 3 11 12 13 14 81 3 15 3 16 17 18 3
    FREEZECFG 0 0 0 0 0 0 0 0 0 0 0 0 0 0 0 0 0 0 0 0 0 0 0
    FXCFG 0 0 19 76 21 22 23 24 25 0 26 74 28 29 30 31 32 0 0 72 34 35 36 37
    FXENVCFG 0 0 3 38 3 3 3 3 3 0 3 39 3 3 3 3 3 0 0 40 3 3 3 3
    RECFXCFG 0 0 0 0 0 0 0 0 0 0 0 0 0 0 0 0 0 0 0 0 0 0 0
    TRACKENVCFG 41 3 3 3 3 3 3 3 3 3 3 3 3 3 3 3 3 3 3 3 3 3 3 3
  >
  <UENT `Toggle track solo` 1701107119 1 2
    TCFG 42 43 65 45 46 47 48 49 50 51 69 53 54 55 56 82 58 59 68 61 62 63 64
    ITEMCFG 3 4 3 5 6 7 8 9 3 10 3 11 12 13 14 81 3 15 3 16 17 18 3
    FREEZECFG 0 0 0 0 0 0 0 0 0 0 0 0 0 0 0 0 0 0 0 0 0 0 0
    FXCFG 0 0 19 76 21 22 23 24 25 0 26 74 28 29 30 31 32 0 0 72 34 35 36 37
    FXENVCFG 0 0 3 38 3 3 3 3 3 0 3 39 3 3 3 3 3 0 0 40 3 3 3 3
    RECFXCFG 0 0 0 0 0 0 0 0 0 0 0 0 0 0 0 0 0 0 0 0 0 0 0
    TRACKENVCFG 41 3 3 3 3 3 3 3 3 3 3 3 3 3 3 3 3 3 3 3 3 3 3 3
  >
  <UENT `Toggle track mute` 1701107120 1 2
    TCFG 42 43 65 45 46 47 48 49 83 51 69 53 54 55 56 82 58 59 68 61 62 63 64
    ITEMCFG 3 4 3 5 6 7 8 9 3 10 3 11 12 13 14 81 3 15 3 16 17 18 3
    FREEZECFG 0 0 0 0 0 0 0 0 0 0 0 0 0 0 0 0 0 0 0 0 0 0 0
    FXCFG 0 0 19 76 21 22 23 24 25 0 26 74 28 29 30 31 32 0 0 72 34 35 36 37
    FXENVCFG 0 0 3 38 3 3 3 3 3 0 3 39 3 3 3 3 3 0 0 40 3 3 3 3
    RECFXCFG 0 0 0 0 0 0 0 0 0 0 0 0 0 0 0 0 0 0 0 0 0 0 0
    TRACKENVCFG 41 3 3 3 3 3 3 3 3 3 3 3 3 3 3 3 3 3 3 3 3 3 3 3
  >
  <UENT `Toggle track solo` 1701107160 1 2
    TCFG 42 43 65 45 46 47 48 49 83 51 69 53 54 55 84 82 58 59 68 61 62 63 64
    ITEMCFG 3 4 3 5 6 7 8 9 3 10 3 11 12 13 14 81 3 15 3 16 17 18 3
    FREEZECFG 0 0 0 0 0 0 0 0 0 0 0 0 0 0 0 0 0 0 0 0 0 0 0
    FXCFG 0 0 19 76 21 22 23 24 25 0 26 74 28 29 30 31 32 0 0 72 34 35 36 37
    FXENVCFG 0 0 3 38 3 3 3 3 3 0 3 39 3 3 3 3 3 0 0 40 3 3 3 3
    RECFXCFG 0 0 0 0 0 0 0 0 0 0 0 0 0 0 0 0 0 0 0 0 0 0 0
    TRACKENVCFG 41 3 3 3 3 3 3 3 3 3 3 3 3 3 3 3 3 3 3 3 3 3 3 3
  >
  <UENT `Toggle track solo` 1701107160 1 2
    TCFG 42 43 65 45 46 47 48 49 83 51 69 53 54 55 84 57 58 59 68 61 62 63 64
    ITEMCFG 3 4 3 5 6 7 8 9 3 10 3 11 12 13 14 81 3 15 3 16 17 18 3
    FREEZECFG 0 0 0 0 0 0 0 0 0 0 0 0 0 0 0 0 0 0 0 0 0 0 0
    FXCFG 0 0 19 76 21 22 23 24 25 0 26 74 28 29 30 31 32 0 0 72 34 35 36 37
    FXENVCFG 0 0 3 38 3 3 3 3 3 0 3 39 3 3 3 3 3 0 0 40 3 3 3 3
    RECFXCFG 0 0 0 0 0 0 0 0 0 0 0 0 0 0 0 0 0 0 0 0 0 0 0
    TRACKENVCFG 41 3 3 3 3 3 3 3 3 3 3 3 3 3 3 3 3 3 3 3 3 3 3 3
  >
  <UENT `Toggle track solo` 1701107166 1 2
    TCFG 42 43 65 45 46 47 48 49 83 51 69 53 54 55 84 82 58 59 68 61 62 63 64
    ITEMCFG 3 4 3 5 6 7 8 9 3 10 3 11 12 13 14 81 3 15 3 16 17 18 3
    FREEZECFG 0 0 0 0 0 0 0 0 0 0 0 0 0 0 0 0 0 0 0 0 0 0 0
    FXCFG 0 0 19 76 21 22 23 24 25 0 26 74 28 29 30 31 32 0 0 72 34 35 36 37
    FXENVCFG 0 0 3 38 3 3 3 3 3 0 3 39 3 3 3 3 3 0 0 40 3 3 3 3
    RECFXCFG 0 0 0 0 0 0 0 0 0 0 0 0 0 0 0 0 0 0 0 0 0 0 0
    TRACKENVCFG 41 3 3 3 3 3 3 3 3 3 3 3 3 3 3 3 3 3 3 3 3 3 3 3
  >
  <UENT `Toggle track solo` 1701107166 1 2
    TCFG 42 43 65 45 46 47 48 49 83 51 69 53 54 55 56 82 58 59 68 61 62 63 64
    ITEMCFG 3 4 3 5 6 7 8 9 3 10 3 11 12 13 14 81 3 15 3 16 17 18 3
    FREEZECFG 0 0 0 0 0 0 0 0 0 0 0 0 0 0 0 0 0 0 0 0 0 0 0
    FXCFG 0 0 19 76 21 22 23 24 25 0 26 74 28 29 30 31 32 0 0 72 34 35 36 37
    FXENVCFG 0 0 3 38 3 3 3 3 3 0 3 39 3 3 3 3 3 0 0 40 3 3 3 3
    RECFXCFG 0 0 0 0 0 0 0 0 0 0 0 0 0 0 0 0 0 0 0 0 0 0 0
    TRACKENVCFG 41 3 3 3 3 3 3 3 3 3 3 3 3 3 3 3 3 3 3 3 3 3 3 3
  >
  <UENT `Toggle track solo` 1701107167 1 2
    TCFG 42 43 65 45 46 47 48 49 83 51 69 53 54 55 56 57 58 59 68 61 62 63 64
    ITEMCFG 3 4 3 5 6 7 8 9 3 10 3 11 12 13 14 81 3 15 3 16 17 18 3
    FREEZECFG 0 0 0 0 0 0 0 0 0 0 0 0 0 0 0 0 0 0 0 0 0 0 0
    FXCFG 0 0 19 76 21 22 23 24 25 0 26 74 28 29 30 31 32 0 0 72 34 35 36 37
    FXENVCFG 0 0 3 38 3 3 3 3 3 0 3 39 3 3 3 3 3 0 0 40 3 3 3 3
    RECFXCFG 0 0 0 0 0 0 0 0 0 0 0 0 0 0 0 0 0 0 0 0 0 0 0
    TRACKENVCFG 41 3 3 3 3 3 3 3 3 3 3 3 3 3 3 3 3 3 3 3 3 3 3 3
  >
  <UENT `Delete items` 1701107168 1 2
    TCFG 42 43 65 45 46 47 48 49 83 51 69 53 54 55 56 57 58 59 68 61 62 63 64
    ITEMCFG 3 4 3 5 6 7 8 9 3 10 3 11 12 13 14 3 3 15 3 16 17 18 3
    FREEZECFG 0 0 0 0 0 0 0 0 0 0 0 0 0 0 0 0 0 0 0 0 0 0 0
    FXCFG 0 0 19 76 21 22 23 24 25 0 26 74 28 29 30 31 32 0 0 72 34 35 36 37
    FXENVCFG 0 0 3 38 3 3 3 3 3 0 3 39 3 3 3 3 3 0 0 40 3 3 3 3
    RECFXCFG 0 0 0 0 0 0 0 0 0 0 0 0 0 0 0 0 0 0 0 0 0 0 0
    TRACKENVCFG 41 3 3 3 3 3 3 3 3 3 3 3 3 3 3 3 3 3 3 3 3 3 3 3
  >
  <UENT `Change track name` 1701107177 1 2
    TCFG 42 43 65 45 46 47 48 49 83 51 69 53 54 55 85 57 58 59 68 61 62 63 64
    ITEMCFG 3 4 3 5 6 7 8 9 3 10 3 11 12 13 14 3 3 15 3 16 17 18 3
    FREEZECFG 0 0 0 0 0 0 0 0 0 0 0 0 0 0 0 0 0 0 0 0 0 0 0
    FXCFG 0 0 19 76 21 22 23 24 25 0 26 74 28 29 30 31 32 0 0 72 34 35 36 37
    FXENVCFG 0 0 3 38 3 3 3 3 3 0 3 39 3 3 3 3 3 0 0 40 3 3 3 3
    RECFXCFG 0 0 0 0 0 0 0 0 0 0 0 0 0 0 0 0 0 0 0 0 0 0 0
    TRACKENVCFG 41 3 3 3 3 3 3 3 3 3 3 3 3 3 3 3 3 3 3 3 3 3 3 3
  >
  <UENT `Change track name` 1701107190 1 2
    TCFG 42 43 65 45 46 47 86 49 83 51 69 53 54 55 85 57 58 59 68 61 62 63 64
    ITEMCFG 3 4 3 5 6 7 8 9 3 10 3 11 12 13 14 3 3 15 3 16 17 18 3
    FREEZECFG 0 0 0 0 0 0 0 0 0 0 0 0 0 0 0 0 0 0 0 0 0 0 0
    FXCFG 0 0 19 76 21 22 23 24 25 0 26 74 28 29 30 31 32 0 0 72 34 35 36 37
    FXENVCFG 0 0 3 38 3 3 3 3 3 0 3 39 3 3 3 3 3 0 0 40 3 3 3 3
    RECFXCFG 0 0 0 0 0 0 0 0 0 0 0 0 0 0 0 0 0 0 0 0 0 0 0
    TRACKENVCFG 41 3 3 3 3 3 3 3 3 3 3 3 3 3 3 3 3 3 3 3 3 3 3 3
  >
  <UENT `Change track name` 1701107195 1 2
    TCFG 42 43 65 45 46 47 86 49 83 51 69 53 54 55 85 57 58 59 68 61 62 87 64
    ITEMCFG 3 4 3 5 6 7 8 9 3 10 3 11 12 13 14 3 3 15 3 16 17 18 3
    FREEZECFG 0 0 0 0 0 0 0 0 0 0 0 0 0 0 0 0 0 0 0 0 0 0 0
    FXCFG 0 0 19 76 21 22 23 24 25 0 26 74 28 29 30 31 32 0 0 72 34 35 36 37
    FXENVCFG 0 0 3 38 3 3 3 3 3 0 3 39 3 3 3 3 3 0 0 40 3 3 3 3
    RECFXCFG 0 0 0 0 0 0 0 0 0 0 0 0 0 0 0 0 0 0 0 0 0 0 0
    TRACKENVCFG 41 3 3 3 3 3 3 3 3 3 3 3 3 3 3 3 3 3 3 3 3 3 3 3
  >
  <UENT `Duplicate tracks` 1701111834 88 2
    TCFG 42 43 65 45 46 47 86 49 83 51 69 53 54 55 85 57 95 96 97 98 99 100 101 102 58 59 68 61 62 87 64
    ITEMCFG 3 4 3 5 6 7 8 9 3 10 3 11 12 13 14 3 3 89 3 90 91 92 93 3 3 15 3 16 17 18 3
    FREEZECFG 0 0 0 0 0 0 0 0 0 0 0 0 0 0 0 0 0 0 0 0 0 0 0 0 0 0 0 0 0 0 0
    FXCFG 0 0 19 76 21 22 23 24 25 0 26 74 28 29 30 31 32 0 26 94 34 35 32 32 32 0 0 72 34 35 36 37
    FXENVCFG 0 0 3 38 3 3 3 3 3 0 3 39 3 3 3 3 3 0 3 40 3 3 3 3 3 0 0 40 3 3 3 3
    RECFXCFG 0 0 0 0 0 0 0 0 0 0 0 0 0 0 0 0 0 0 0 0 0 0 0 0 0 0 0 0 0 0 0
    TRACKENVCFG 41 3 3 3 3 3 3 3 3 3 3 3 3 3 3 3 3 3 3 3 3 3 3 3 3 3 3 3 3 3 3 3
  >
  <UENT `Change track name` 1701111840 88 2
    TCFG 42 43 65 45 46 47 86 49 83 51 69 53 54 55 85 57 103 96 97 98 99 100 101 102 58 59 68 61 62 87 64
    ITEMCFG 3 4 3 5 6 7 8 9 3 10 3 11 12 13 14 3 3 89 3 90 91 92 93 3 3 15 3 16 17 18 3
    FREEZECFG 0 0 0 0 0 0 0 0 0 0 0 0 0 0 0 0 0 0 0 0 0 0 0 0 0 0 0 0 0 0 0
    FXCFG 0 0 19 76 21 22 23 24 25 0 26 74 28 29 30 31 32 0 26 94 34 35 32 32 32 0 0 72 34 35 36 37
    FXENVCFG 0 0 3 38 3 3 3 3 3 0 3 39 3 3 3 3 3 0 3 40 3 3 3 3 3 0 0 40 3 3 3 3
    RECFXCFG 0 0 0 0 0 0 0 0 0 0 0 0 0 0 0 0 0 0 0 0 0 0 0 0 0 0 0 0 0 0 0
    TRACKENVCFG 41 3 3 3 3 3 3 3 3 3 3 3 3 3 3 3 3 3 3 3 3 3 3 3 3 3 3 3 3 3 3 3
  >
  <UENT `Change media item selection` 1701111869 88 2
    TCFG 42 43 65 45 46 47 86 49 83 51 69 53 54 55 85 57 103 96 97 98 99 100 101 102 58 59 68 61 62 87 64
    ITEMCFG 3 4 3 5 6 7 8 9 3 10 3 11 12 13 14 3 3 104 3 90 91 92 93 3 3 15 3 16 17 18 3
    FREEZECFG 0 0 0 0 0 0 0 0 0 0 0 0 0 0 0 0 0 0 0 0 0 0 0 0 0 0 0 0 0 0 0
    FXCFG 0 0 19 76 21 22 23 24 25 0 26 74 28 29 30 31 32 0 26 94 34 35 32 32 32 0 0 72 34 35 36 37
    FXENVCFG 0 0 3 38 3 3 3 3 3 0 3 39 3 3 3 3 3 0 3 40 3 3 3 3 3 0 0 40 3 3 3 3
    RECFXCFG 0 0 0 0 0 0 0 0 0 0 0 0 0 0 0 0 0 0 0 0 0 0 0 0 0 0 0 0 0 0 0
    TRACKENVCFG 41 3 3 3 3 3 3 3 3 3 3 3 3 3 3 3 3 3 3 3 3 3 3 3 3 3 3 3 3 3 3 3
  >
  <UENT `Delete items` 1701111872 88 2
    TCFG 42 43 65 45 46 47 86 49 83 51 69 53 54 55 85 57 103 96 97 98 99 100 101 102 58 59 68 61 62 87 64
    ITEMCFG 3 4 3 5 6 7 8 9 3 10 3 11 12 13 14 3 3 3 3 90 91 92 93 3 3 15 3 16 17 18 3
    FREEZECFG 0 0 0 0 0 0 0 0 0 0 0 0 0 0 0 0 0 0 0 0 0 0 0 0 0 0 0 0 0 0 0
    FXCFG 0 0 19 76 21 22 23 24 25 0 26 74 28 29 30 31 32 0 26 94 34 35 32 32 32 0 0 72 34 35 36 37
    FXENVCFG 0 0 3 38 3 3 3 3 3 0 3 39 3 3 3 3 3 0 3 40 3 3 3 3 3 0 0 40 3 3 3 3
    RECFXCFG 0 0 0 0 0 0 0 0 0 0 0 0 0 0 0 0 0 0 0 0 0 0 0 0 0 0 0 0 0 0 0
    TRACKENVCFG 41 3 3 3 3 3 3 3 3 3 3 3 3 3 3 3 3 3 3 3 3 3 3 3 3 3 3 3 3 3 3 3
  >
  <UENT `Insert media items` 1701111877 88 2
    TCFG 42 43 65 45 46 47 86 49 83 51 69 53 54 55 85 57 103 96 97 98 99 100 101 102 58 59 68 61 62 87 64
    ITEMCFG 3 4 3 5 6 7 8 9 3 10 3 11 12 13 14 3 3 105 3 90 91 92 93 3 3 15 3 16 17 18 3
    FREEZECFG 0 0 0 0 0 0 0 0 0 0 0 0 0 0 0 0 0 0 0 0 0 0 0 0 0 0 0 0 0 0 0
    FXCFG 0 0 19 76 21 22 23 24 25 0 26 74 28 29 30 31 32 0 26 94 34 35 32 32 32 0 0 72 34 35 36 37
    FXENVCFG 0 0 3 38 3 3 3 3 3 0 3 39 3 3 3 3 3 0 3 40 3 3 3 3 3 0 0 40 3 3 3 3
    RECFXCFG 0 0 0 0 0 0 0 0 0 0 0 0 0 0 0 0 0 0 0 0 0 0 0 0 0 0 0 0 0 0 0
    TRACKENVCFG 41 3 3 3 3 3 3 3 3 3 3 3 3 3 3 3 3 3 3 3 3 3 3 3 3 3 3 3 3 3 3 3
  >
  <UENT `Change media item selection` 1701111880 88 2
    TCFG 42 43 65 45 46 47 86 49 83 51 69 53 54 55 85 57 103 96 97 98 99 100 101 102 58 59 68 61 62 87 64
    ITEMCFG 3 4 3 5 6 7 8 9 3 10 3 11 12 13 14 3 3 106 3 90 91 92 107 3 3 15 3 16 17 18 3
    FREEZECFG 0 0 0 0 0 0 0 0 0 0 0 0 0 0 0 0 0 0 0 0 0 0 0 0 0 0 0 0 0 0 0
    FXCFG 0 0 19 76 21 22 23 24 25 0 26 74 28 29 30 31 32 0 26 94 34 35 32 32 32 0 0 72 34 35 36 37
    FXENVCFG 0 0 3 38 3 3 3 3 3 0 3 39 3 3 3 3 3 0 3 40 3 3 3 3 3 0 0 40 3 3 3 3
    RECFXCFG 0 0 0 0 0 0 0 0 0 0 0 0 0 0 0 0 0 0 0 0 0 0 0 0 0 0 0 0 0 0 0
    TRACKENVCFG 41 3 3 3 3 3 3 3 3 3 3 3 3 3 3 3 3 3 3 3 3 3 3 3 3 3 3 3 3 3 3 3
  >
  <UENT `Delete items` 1701111881 88 2
    TCFG 42 43 65 45 46 47 86 49 83 51 69 53 54 55 85 57 103 96 97 98 99 100 101 102 58 59 68 61 62 87 64
    ITEMCFG 3 4 3 5 6 7 8 9 3 10 3 11 12 13 14 3 3 106 3 90 91 92 3 3 3 15 3 16 17 18 3
    FREEZECFG 0 0 0 0 0 0 0 0 0 0 0 0 0 0 0 0 0 0 0 0 0 0 0 0 0 0 0 0 0 0 0
    FXCFG 0 0 19 76 21 22 23 24 25 0 26 74 28 29 30 31 32 0 26 94 34 35 32 32 32 0 0 72 34 35 36 37
    FXENVCFG 0 0 3 38 3 3 3 3 3 0 3 39 3 3 3 3 3 0 3 40 3 3 3 3 3 0 0 40 3 3 3 3
    RECFXCFG 0 0 0 0 0 0 0 0 0 0 0 0 0 0 0 0 0 0 0 0 0 0 0 0 0 0 0 0 0 0 0
    TRACKENVCFG 41 3 3 3 3 3 3 3 3 3 3 3 3 3 3 3 3 3 3 3 3 3 3 3 3 3 3 3 3 3 3 3
  >
  <UENT `Change media item selection` 1701111882 88 2
    TCFG 42 43 65 45 46 47 86 49 83 51 69 53 54 55 85 57 103 96 97 98 99 100 101 102 58 59 68 61 62 87 64
    ITEMCFG 3 4 3 5 6 7 8 9 3 10 3 11 12 13 14 3 3 106 3 90 91 108 3 3 3 15 3 16 17 18 3
    FREEZECFG 0 0 0 0 0 0 0 0 0 0 0 0 0 0 0 0 0 0 0 0 0 0 0 0 0 0 0 0 0 0 0
    FXCFG 0 0 19 76 21 22 23 24 25 0 26 74 28 29 30 31 32 0 26 94 34 35 32 32 32 0 0 72 34 35 36 37
    FXENVCFG 0 0 3 38 3 3 3 3 3 0 3 39 3 3 3 3 3 0 3 40 3 3 3 3 3 0 0 40 3 3 3 3
    RECFXCFG 0 0 0 0 0 0 0 0 0 0 0 0 0 0 0 0 0 0 0 0 0 0 0 0 0 0 0 0 0 0 0
    TRACKENVCFG 41 3 3 3 3 3 3 3 3 3 3 3 3 3 3 3 3 3 3 3 3 3 3 3 3 3 3 3 3 3 3 3
  >
  <UENT `Delete items` 1701111883 88 2
    TCFG 42 43 65 45 46 47 86 49 83 51 69 53 54 55 85 57 103 96 97 98 99 100 101 102 58 59 68 61 62 87 64
    ITEMCFG 3 4 3 5 6 7 8 9 3 10 3 11 12 13 14 3 3 106 3 90 91 3 3 3 3 15 3 16 17 18 3
    FREEZECFG 0 0 0 0 0 0 0 0 0 0 0 0 0 0 0 0 0 0 0 0 0 0 0 0 0 0 0 0 0 0 0
    FXCFG 0 0 19 76 21 22 23 24 25 0 26 74 28 29 30 31 32 0 26 94 34 35 32 32 32 0 0 72 34 35 36 37
    FXENVCFG 0 0 3 38 3 3 3 3 3 0 3 39 3 3 3 3 3 0 3 40 3 3 3 3 3 0 0 40 3 3 3 3
    RECFXCFG 0 0 0 0 0 0 0 0 0 0 0 0 0 0 0 0 0 0 0 0 0 0 0 0 0 0 0 0 0 0 0
    TRACKENVCFG 41 3 3 3 3 3 3 3 3 3 3 3 3 3 3 3 3 3 3 3 3 3 3 3 3 3 3 3 3 3 3 3
  >
  <UENT `Change media item selection` 1701111883 88 2
    TCFG 42 43 65 45 46 47 86 49 83 51 69 53 54 55 85 57 103 96 97 98 99 100 101 102 58 59 68 61 62 87 64
    ITEMCFG 3 4 3 5 6 7 8 9 3 10 3 11 12 13 14 3 3 106 3 90 109 3 3 3 3 15 3 16 17 18 3
    FREEZECFG 0 0 0 0 0 0 0 0 0 0 0 0 0 0 0 0 0 0 0 0 0 0 0 0 0 0 0 0 0 0 0
    FXCFG 0 0 19 76 21 22 23 24 25 0 26 74 28 29 30 31 32 0 26 94 34 35 32 32 32 0 0 72 34 35 36 37
    FXENVCFG 0 0 3 38 3 3 3 3 3 0 3 39 3 3 3 3 3 0 3 40 3 3 3 3 3 0 0 40 3 3 3 3
    RECFXCFG 0 0 0 0 0 0 0 0 0 0 0 0 0 0 0 0 0 0 0 0 0 0 0 0 0 0 0 0 0 0 0
    TRACKENVCFG 41 3 3 3 3 3 3 3 3 3 3 3 3 3 3 3 3 3 3 3 3 3 3 3 3 3 3 3 3 3 3 3
  >
  <UENT `Delete items` 1701111883 88 2
    TCFG 42 43 65 45 46 47 86 49 83 51 69 53 54 55 85 57 103 96 97 98 99 100 101 102 58 59 68 61 62 87 64
    ITEMCFG 3 4 3 5 6 7 8 9 3 10 3 11 12 13 14 3 3 106 3 90 3 3 3 3 3 15 3 16 17 18 3
    FREEZECFG 0 0 0 0 0 0 0 0 0 0 0 0 0 0 0 0 0 0 0 0 0 0 0 0 0 0 0 0 0 0 0
    FXCFG 0 0 19 76 21 22 23 24 25 0 26 74 28 29 30 31 32 0 26 94 34 35 32 32 32 0 0 72 34 35 36 37
    FXENVCFG 0 0 3 38 3 3 3 3 3 0 3 39 3 3 3 3 3 0 3 40 3 3 3 3 3 0 0 40 3 3 3 3
    RECFXCFG 0 0 0 0 0 0 0 0 0 0 0 0 0 0 0 0 0 0 0 0 0 0 0 0 0 0 0 0 0 0 0
    TRACKENVCFG 41 3 3 3 3 3 3 3 3 3 3 3 3 3 3 3 3 3 3 3 3 3 3 3 3 3 3 3 3 3 3 3
  >
  <UENT `Change media item selection` 1701111885 88 2
    TCFG 42 43 65 45 46 47 86 49 83 51 69 53 54 55 85 57 103 96 97 98 99 100 101 102 58 59 68 61 62 87 64
    ITEMCFG 3 4 3 5 6 7 8 9 3 10 3 11 12 13 14 3 3 106 3 110 3 3 3 3 3 15 3 16 17 18 3
    FREEZECFG 0 0 0 0 0 0 0 0 0 0 0 0 0 0 0 0 0 0 0 0 0 0 0 0 0 0 0 0 0 0 0
    FXCFG 0 0 19 76 21 22 23 24 25 0 26 74 28 29 30 31 32 0 26 94 34 35 32 32 32 0 0 72 34 35 36 37
    FXENVCFG 0 0 3 38 3 3 3 3 3 0 3 39 3 3 3 3 3 0 3 40 3 3 3 3 3 0 0 40 3 3 3 3
    RECFXCFG 0 0 0 0 0 0 0 0 0 0 0 0 0 0 0 0 0 0 0 0 0 0 0 0 0 0 0 0 0 0 0
    TRACKENVCFG 41 3 3 3 3 3 3 3 3 3 3 3 3 3 3 3 3 3 3 3 3 3 3 3 3 3 3 3 3 3 3 3
  >
  <UENT `Delete items` 1701111885 88 2
    TCFG 42 43 65 45 46 47 86 49 83 51 69 53 54 55 85 57 103 96 97 98 99 100 101 102 58 59 68 61 62 87 64
    ITEMCFG 3 4 3 5 6 7 8 9 3 10 3 11 12 13 14 3 3 106 3 3 3 3 3 3 3 15 3 16 17 18 3
    FREEZECFG 0 0 0 0 0 0 0 0 0 0 0 0 0 0 0 0 0 0 0 0 0 0 0 0 0 0 0 0 0 0 0
    FXCFG 0 0 19 76 21 22 23 24 25 0 26 74 28 29 30 31 32 0 26 94 34 35 32 32 32 0 0 72 34 35 36 37
    FXENVCFG 0 0 3 38 3 3 3 3 3 0 3 39 3 3 3 3 3 0 3 40 3 3 3 3 3 0 0 40 3 3 3 3
    RECFXCFG 0 0 0 0 0 0 0 0 0 0 0 0 0 0 0 0 0 0 0 0 0 0 0 0 0 0 0 0 0 0 0
    TRACKENVCFG 41 3 3 3 3 3 3 3 3 3 3 3 3 3 3 3 3 3 3 3 3 3 3 3 3 3 3 3 3 3 3 3
  >
  <UENT `Toggle track mute` 1701112062 88 2
    TCFG 42 43 65 45 46 47 86 49 83 51 69 53 54 55 85 57 103 96 97 98 99 100 101 102 111 59 68 61 62 87 64
    ITEMCFG 3 4 3 5 6 7 8 9 3 10 3 11 12 13 14 3 3 106 3 3 3 3 3 3 3 15 3 16 17 18 3
    FREEZECFG 0 0 0 0 0 0 0 0 0 0 0 0 0 0 0 0 0 0 0 0 0 0 0 0 0 0 0 0 0 0 0
    FXCFG 0 0 19 76 21 22 23 24 25 0 26 74 28 29 30 31 32 0 26 94 34 35 32 32 32 0 0 72 34 35 36 37
    FXENVCFG 0 0 3 38 3 3 3 3 3 0 3 39 3 3 3 3 3 0 3 40 3 3 3 3 3 0 0 40 3 3 3 3
    RECFXCFG 0 0 0 0 0 0 0 0 0 0 0 0 0 0 0 0 0 0 0 0 0 0 0 0 0 0 0 0 0 0 0
    TRACKENVCFG 41 3 3 3 3 3 3 3 3 3 3 3 3 3 3 3 3 3 3 3 3 3 3 3 3 3 3 3 3 3 3 3
  >
  <UENT `Change media item selection` 1701112122 88 2
    TCFG 42 43 65 45 46 47 86 49 83 51 69 53 54 55 85 57 103 96 97 98 99 100 101 102 111 59 68 61 62 87 64
    ITEMCFG 3 4 3 5 6 7 8 9 3 10 3 11 12 13 14 3 3 106 3 3 3 3 3 3 3 112 3 16 17 18 3
    FREEZECFG 0 0 0 0 0 0 0 0 0 0 0 0 0 0 0 0 0 0 0 0 0 0 0 0 0 0 0 0 0 0 0
    FXCFG 0 0 19 76 21 22 23 24 25 0 26 74 28 29 30 31 32 0 26 94 34 35 32 32 32 0 0 72 34 35 36 37
    FXENVCFG 0 0 3 38 3 3 3 3 3 0 3 39 3 3 3 3 3 0 3 40 3 3 3 3 3 0 0 40 3 3 3 3
    RECFXCFG 0 0 0 0 0 0 0 0 0 0 0 0 0 0 0 0 0 0 0 0 0 0 0 0 0 0 0 0 0 0 0
    TRACKENVCFG 41 3 3 3 3 3 3 3 3 3 3 3 3 3 3 3 3 3 3 3 3 3 3 3 3 3 3 3 3 3 3 3
  >
  <UENT `Delete items` 1701112127 88 2
    TCFG 42 43 65 45 46 47 86 49 83 51 69 53 54 55 85 57 103 96 97 98 99 100 101 102 111 59 68 61 62 87 64
    ITEMCFG 3 4 3 5 6 7 8 9 3 10 3 11 12 13 14 3 3 106 3 3 3 3 3 3 3 3 3 16 17 18 3
    FREEZECFG 0 0 0 0 0 0 0 0 0 0 0 0 0 0 0 0 0 0 0 0 0 0 0 0 0 0 0 0 0 0 0
    FXCFG 0 0 19 76 21 22 23 24 25 0 26 74 28 29 30 31 32 0 26 94 34 35 32 32 32 0 0 72 34 35 36 37
    FXENVCFG 0 0 3 38 3 3 3 3 3 0 3 39 3 3 3 3 3 0 3 40 3 3 3 3 3 0 0 40 3 3 3 3
    RECFXCFG 0 0 0 0 0 0 0 0 0 0 0 0 0 0 0 0 0 0 0 0 0 0 0 0 0 0 0 0 0 0 0
    TRACKENVCFG 41 3 3 3 3 3 3 3 3 3 3 3 3 3 3 3 3 3 3 3 3 3 3 3 3 3 3 3 3 3 3 3
  >
  <UENT `Change media item selection` 1701112127 88 2
    TCFG 42 43 65 45 46 47 86 49 83 51 69 53 54 55 85 57 103 96 97 98 99 100 101 102 111 59 68 61 62 87 64
    ITEMCFG 3 4 3 5 6 7 8 9 3 10 3 11 12 13 14 3 3 106 3 3 3 3 3 3 3 3 3 113 17 18 3
    FREEZECFG 0 0 0 0 0 0 0 0 0 0 0 0 0 0 0 0 0 0 0 0 0 0 0 0 0 0 0 0 0 0 0
    FXCFG 0 0 19 76 21 22 23 24 25 0 26 74 28 29 30 31 32 0 26 94 34 35 32 32 32 0 0 72 34 35 36 37
    FXENVCFG 0 0 3 38 3 3 3 3 3 0 3 39 3 3 3 3 3 0 3 40 3 3 3 3 3 0 0 40 3 3 3 3
    RECFXCFG 0 0 0 0 0 0 0 0 0 0 0 0 0 0 0 0 0 0 0 0 0 0 0 0 0 0 0 0 0 0 0
    TRACKENVCFG 41 3 3 3 3 3 3 3 3 3 3 3 3 3 3 3 3 3 3 3 3 3 3 3 3 3 3 3 3 3 3 3
  >
  <UENT `Delete items` 1701112128 88 2
    TCFG 42 43 65 45 46 47 86 49 83 51 69 53 54 55 85 57 103 96 97 98 99 100 101 102 111 59 68 61 62 87 64
    ITEMCFG 3 4 3 5 6 7 8 9 3 10 3 11 12 13 14 3 3 106 3 3 3 3 3 3 3 3 3 3 17 18 3
    FREEZECFG 0 0 0 0 0 0 0 0 0 0 0 0 0 0 0 0 0 0 0 0 0 0 0 0 0 0 0 0 0 0 0
    FXCFG 0 0 19 76 21 22 23 24 25 0 26 74 28 29 30 31 32 0 26 94 34 35 32 32 32 0 0 72 34 35 36 37
    FXENVCFG 0 0 3 38 3 3 3 3 3 0 3 39 3 3 3 3 3 0 3 40 3 3 3 3 3 0 0 40 3 3 3 3
    RECFXCFG 0 0 0 0 0 0 0 0 0 0 0 0 0 0 0 0 0 0 0 0 0 0 0 0 0 0 0 0 0 0 0
    TRACKENVCFG 41 3 3 3 3 3 3 3 3 3 3 3 3 3 3 3 3 3 3 3 3 3 3 3 3 3 3 3 3 3 3 3
  >
  <UENT `Change media item selection` 1701112129 88 2
    TCFG 42 43 65 45 46 47 86 49 83 51 69 53 54 55 85 57 103 96 97 98 99 100 101 102 111 59 68 61 62 87 64
    ITEMCFG 3 4 3 5 6 7 8 9 3 10 3 11 12 13 14 3 3 106 3 3 3 3 3 3 3 3 3 3 17 114 3
    FREEZECFG 0 0 0 0 0 0 0 0 0 0 0 0 0 0 0 0 0 0 0 0 0 0 0 0 0 0 0 0 0 0 0
    FXCFG 0 0 19 76 21 22 23 24 25 0 26 74 28 29 30 31 32 0 26 94 34 35 32 32 32 0 0 72 34 35 36 37
    FXENVCFG 0 0 3 38 3 3 3 3 3 0 3 39 3 3 3 3 3 0 3 40 3 3 3 3 3 0 0 40 3 3 3 3
    RECFXCFG 0 0 0 0 0 0 0 0 0 0 0 0 0 0 0 0 0 0 0 0 0 0 0 0 0 0 0 0 0 0 0
    TRACKENVCFG 41 3 3 3 3 3 3 3 3 3 3 3 3 3 3 3 3 3 3 3 3 3 3 3 3 3 3 3 3 3 3 3
  >
  <UENT `Delete items` 1701112129 88 2
    TCFG 42 43 65 45 46 47 86 49 83 51 69 53 54 55 85 57 103 96 97 98 99 100 101 102 111 59 68 61 62 87 64
    ITEMCFG 3 4 3 5 6 7 8 9 3 10 3 11 12 13 14 3 3 106 3 3 3 3 3 3 3 3 3 3 17 3 3
    FREEZECFG 0 0 0 0 0 0 0 0 0 0 0 0 0 0 0 0 0 0 0 0 0 0 0 0 0 0 0 0 0 0 0
    FXCFG 0 0 19 76 21 22 23 24 25 0 26 74 28 29 30 31 32 0 26 94 34 35 32 32 32 0 0 72 34 35 36 37
    FXENVCFG 0 0 3 38 3 3 3 3 3 0 3 39 3 3 3 3 3 0 3 40 3 3 3 3 3 0 0 40 3 3 3 3
    RECFXCFG 0 0 0 0 0 0 0 0 0 0 0 0 0 0 0 0 0 0 0 0 0 0 0 0 0 0 0 0 0 0 0
    TRACKENVCFG 41 3 3 3 3 3 3 3 3 3 3 3 3 3 3 3 3 3 3 3 3 3 3 3 3 3 3 3 3 3 3 3
  >
  <UENT `Change media item selection` 1701112130 88 2
    TCFG 42 43 65 45 46 47 86 49 83 51 69 53 54 55 85 57 103 96 97 98 99 100 101 102 111 59 68 61 62 87 64
    ITEMCFG 3 4 3 5 6 7 8 9 3 10 3 11 12 13 14 3 3 106 3 3 3 3 3 3 3 3 3 3 115 3 3
    FREEZECFG 0 0 0 0 0 0 0 0 0 0 0 0 0 0 0 0 0 0 0 0 0 0 0 0 0 0 0 0 0 0 0
    FXCFG 0 0 19 76 21 22 23 24 25 0 26 74 28 29 30 31 32 0 26 94 34 35 32 32 32 0 0 72 34 35 36 37
    FXENVCFG 0 0 3 38 3 3 3 3 3 0 3 39 3 3 3 3 3 0 3 40 3 3 3 3 3 0 0 40 3 3 3 3
    RECFXCFG 0 0 0 0 0 0 0 0 0 0 0 0 0 0 0 0 0 0 0 0 0 0 0 0 0 0 0 0 0 0 0
    TRACKENVCFG 41 3 3 3 3 3 3 3 3 3 3 3 3 3 3 3 3 3 3 3 3 3 3 3 3 3 3 3 3 3 3 3
  >
  <UENT `Delete items` 1701112130 88 2
    TCFG 42 43 65 45 46 47 86 49 83 51 69 53 54 55 85 57 103 96 97 98 99 100 101 102 111 59 68 61 62 87 64
    ITEMCFG 3 4 3 5 6 7 8 9 3 10 3 11 12 13 14 3 3 106 3 3 3 3 3 3 3 3 3 3 3 3 3
    FREEZECFG 0 0 0 0 0 0 0 0 0 0 0 0 0 0 0 0 0 0 0 0 0 0 0 0 0 0 0 0 0 0 0
    FXCFG 0 0 19 76 21 22 23 24 25 0 26 74 28 29 30 31 32 0 26 94 34 35 32 32 32 0 0 72 34 35 36 37
    FXENVCFG 0 0 3 38 3 3 3 3 3 0 3 39 3 3 3 3 3 0 3 40 3 3 3 3 3 0 0 40 3 3 3 3
    RECFXCFG 0 0 0 0 0 0 0 0 0 0 0 0 0 0 0 0 0 0 0 0 0 0 0 0 0 0 0 0 0 0 0
    TRACKENVCFG 41 3 3 3 3 3 3 3 3 3 3 3 3 3 3 3 3 3 3 3 3 3 3 3 3 3 3 3 3 3 3 3
  >
  <UENT `Insert media items` 1701112159 88 2
    TCFG 42 43 65 45 46 47 86 49 83 51 69 53 54 55 85 57 103 96 97 98 99 100 101 102 111 59 68 61 62 87 64
    ITEMCFG 3 4 3 5 6 7 8 9 3 10 3 11 12 13 14 3 3 106 3 3 3 3 3 3 3 3 3 116 3 3 3
    FREEZECFG 0 0 0 0 0 0 0 0 0 0 0 0 0 0 0 0 0 0 0 0 0 0 0 0 0 0 0 0 0 0 0
    FXCFG 0 0 19 76 21 22 23 24 25 0 26 74 28 29 30 31 32 0 26 94 34 35 32 32 32 0 0 72 34 35 36 37
    FXENVCFG 0 0 3 38 3 3 3 3 3 0 3 39 3 3 3 3 3 0 3 40 3 3 3 3 3 0 0 40 3 3 3 3
    RECFXCFG 0 0 0 0 0 0 0 0 0 0 0 0 0 0 0 0 0 0 0 0 0 0 0 0 0 0 0 0 0 0 0
    TRACKENVCFG 41 3 3 3 3 3 3 3 3 3 3 3 3 3 3 3 3 3 3 3 3 3 3 3 3 3 3 3 3 3 3 3
  >
  <UENT `Insert media items` 1701112173 88 2
    TCFG 42 43 65 45 46 47 86 49 83 51 69 53 54 55 85 57 103 96 97 98 99 100 101 102 111 59 68 61 62 87 64
    ITEMCFG 3 4 3 5 6 7 8 9 3 10 3 11 12 13 14 3 3 106 3 117 3 3 3 3 3 3 3 118 3 3 3
    FREEZECFG 0 0 0 0 0 0 0 0 0 0 0 0 0 0 0 0 0 0 0 0 0 0 0 0 0 0 0 0 0 0 0
    FXCFG 0 0 19 76 21 22 23 24 25 0 26 74 28 29 30 31 32 0 26 94 34 35 32 32 32 0 0 72 34 35 36 37
    FXENVCFG 0 0 3 38 3 3 3 3 3 0 3 39 3 3 3 3 3 0 3 40 3 3 3 3 3 0 0 40 3 3 3 3
    RECFXCFG 0 0 0 0 0 0 0 0 0 0 0 0 0 0 0 0 0 0 0 0 0 0 0 0 0 0 0 0 0 0 0
    TRACKENVCFG 41 3 3 3 3 3 3 3 3 3 3 3 3 3 3 3 3 3 3 3 3 3 3 3 3 3 3 3 3 3 3 3
  >
  <UENT `Insert media items` 1701112198 88 2
    TCFG 42 43 65 45 46 47 86 49 83 51 69 53 54 55 85 57 103 96 97 98 99 100 101 102 111 59 68 61 62 87 64
    ITEMCFG 3 4 3 5 6 7 8 9 3 10 3 11 12 13 14 3 3 106 3 119 3 3 3 3 3 120 3 118 3 3 3
    FREEZECFG 0 0 0 0 0 0 0 0 0 0 0 0 0 0 0 0 0 0 0 0 0 0 0 0 0 0 0 0 0 0 0
    FXCFG 0 0 19 76 21 22 23 24 25 0 26 74 28 29 30 31 32 0 26 94 34 35 32 32 32 0 0 72 34 35 36 37
    FXENVCFG 0 0 3 38 3 3 3 3 3 0 3 39 3 3 3 3 3 0 3 40 3 3 3 3 3 0 0 40 3 3 3 3
    RECFXCFG 0 0 0 0 0 0 0 0 0 0 0 0 0 0 0 0 0 0 0 0 0 0 0 0 0 0 0 0 0 0 0
    TRACKENVCFG 41 3 3 3 3 3 3 3 3 3 3 3 3 3 3 3 3 3 3 3 3 3 3 3 3 3 3 3 3 3 3 3
  >
  <UENT `Insert media items` 1701112219 88 2
    TCFG 42 43 65 45 46 47 86 49 83 51 69 53 54 55 85 57 103 96 97 98 99 100 101 102 111 59 68 61 62 87 64
    ITEMCFG 3 4 3 5 6 7 8 9 3 10 3 11 12 13 14 3 3 106 3 119 3 3 3 3 3 121 3 118 3 122 3
    FREEZECFG 0 0 0 0 0 0 0 0 0 0 0 0 0 0 0 0 0 0 0 0 0 0 0 0 0 0 0 0 0 0 0
    FXCFG 0 0 19 76 21 22 23 24 25 0 26 74 28 29 30 31 32 0 26 94 34 35 32 32 32 0 0 72 34 35 36 37
    FXENVCFG 0 0 3 38 3 3 3 3 3 0 3 39 3 3 3 3 3 0 3 40 3 3 3 3 3 0 0 40 3 3 3 3
    RECFXCFG 0 0 0 0 0 0 0 0 0 0 0 0 0 0 0 0 0 0 0 0 0 0 0 0 0 0 0 0 0 0 0
    TRACKENVCFG 41 3 3 3 3 3 3 3 3 3 3 3 3 3 3 3 3 3 3 3 3 3 3 3 3 3 3 3 3 3 3 3
  >
  <UENT `Insert media items` 1701112227 88 2
    TCFG 42 43 65 45 46 47 86 49 83 51 69 53 54 55 85 57 103 96 97 98 99 100 101 102 111 59 68 61 62 87 64
    ITEMCFG 3 4 3 5 6 7 8 9 3 10 3 11 12 13 14 3 3 106 3 119 3 3 123 3 3 121 3 118 3 124 3
    FREEZECFG 0 0 0 0 0 0 0 0 0 0 0 0 0 0 0 0 0 0 0 0 0 0 0 0 0 0 0 0 0 0 0
    FXCFG 0 0 19 76 21 22 23 24 25 0 26 74 28 29 30 31 32 0 26 94 34 35 32 32 32 0 0 72 34 35 36 37
    FXENVCFG 0 0 3 38 3 3 3 3 3 0 3 39 3 3 3 3 3 0 3 40 3 3 3 3 3 0 0 40 3 3 3 3
    RECFXCFG 0 0 0 0 0 0 0 0 0 0 0 0 0 0 0 0 0 0 0 0 0 0 0 0 0 0 0 0 0 0 0
    TRACKENVCFG 41 3 3 3 3 3 3 3 3 3 3 3 3 3 3 3 3 3 3 3 3 3 3 3 3 3 3 3 3 3 3 3
  >
  <UENT `Toggle track solo` 1701112230 88 2
    TCFG 42 43 65 45 46 47 86 49 83 51 69 53 54 55 85 57 103 96 97 98 99 100 125 102 111 59 68 61 62 87 64
    ITEMCFG 3 4 3 5 6 7 8 9 3 10 3 11 12 13 14 3 3 106 3 119 3 3 123 3 3 121 3 118 3 124 3
    FREEZECFG 0 0 0 0 0 0 0 0 0 0 0 0 0 0 0 0 0 0 0 0 0 0 0 0 0 0 0 0 0 0 0
    FXCFG 0 0 19 76 21 22 23 24 25 0 26 74 28 29 30 31 32 0 26 94 34 35 32 32 32 0 0 72 34 35 36 37
    FXENVCFG 0 0 3 38 3 3 3 3 3 0 3 39 3 3 3 3 3 0 3 40 3 3 3 3 3 0 0 40 3 3 3 3
    RECFXCFG 0 0 0 0 0 0 0 0 0 0 0 0 0 0 0 0 0 0 0 0 0 0 0 0 0 0 0 0 0 0 0
    TRACKENVCFG 41 3 3 3 3 3 3 3 3 3 3 3 3 3 3 3 3 3 3 3 3 3 3 3 3 3 3 3 3 3 3 3
  >
  <UENT `Toggle track mute` 1701112245 88 2
    TCFG 126 43 65 45 46 47 86 49 83 51 69 53 54 55 85 57 103 96 97 98 99 100 125 102 111 59 68 61 62 87 64
    ITEMCFG 3 4 3 5 6 7 8 9 3 10 3 11 12 13 14 3 3 106 3 119 3 3 123 3 3 121 3 118 3 124 3
    FREEZECFG 0 0 0 0 0 0 0 0 0 0 0 0 0 0 0 0 0 0 0 0 0 0 0 0 0 0 0 0 0 0 0
    FXCFG 0 0 19 76 21 22 23 24 25 0 26 74 28 29 30 31 32 0 26 94 34 35 32 32 32 0 0 72 34 35 36 37
    FXENVCFG 0 0 3 38 3 3 3 3 3 0 3 39 3 3 3 3 3 0 3 40 3 3 3 3 3 0 0 40 3 3 3 3
    RECFXCFG 0 0 0 0 0 0 0 0 0 0 0 0 0 0 0 0 0 0 0 0 0 0 0 0 0 0 0 0 0 0 0
    TRACKENVCFG 41 3 3 3 3 3 3 3 3 3 3 3 3 3 3 3 3 3 3 3 3 3 3 3 3 3 3 3 3 3 3 3
  >
  <UENT `Toggle track mute` 1701112246 88 2
    TCFG 42 43 65 45 46 47 86 49 83 51 69 53 54 55 85 57 103 96 97 98 99 100 125 102 111 59 68 61 62 87 64
    ITEMCFG 3 4 3 5 6 7 8 9 3 10 3 11 12 13 14 3 3 106 3 119 3 3 123 3 3 121 3 118 3 124 3
    FREEZECFG 0 0 0 0 0 0 0 0 0 0 0 0 0 0 0 0 0 0 0 0 0 0 0 0 0 0 0 0 0 0 0
    FXCFG 0 0 19 76 21 22 23 24 25 0 26 74 28 29 30 31 32 0 26 94 34 35 32 32 32 0 0 72 34 35 36 37
    FXENVCFG 0 0 3 38 3 3 3 3 3 0 3 39 3 3 3 3 3 0 3 40 3 3 3 3 3 0 0 40 3 3 3 3
    RECFXCFG 0 0 0 0 0 0 0 0 0 0 0 0 0 0 0 0 0 0 0 0 0 0 0 0 0 0 0 0 0 0 0
    TRACKENVCFG 41 3 3 3 3 3 3 3 3 3 3 3 3 3 3 3 3 3 3 3 3 3 3 3 3 3 3 3 3 3 3 3
  >
  <UENT `Toggle track mute` 1701112247 88 2
    TCFG 42 43 65 45 46 47 86 49 127 51 69 53 54 55 85 57 103 96 97 98 99 100 125 102 111 59 68 61 62 87 64
    ITEMCFG 3 4 3 5 6 7 8 9 3 10 3 11 12 13 14 3 3 106 3 119 3 3 123 3 3 121 3 118 3 124 3
    FREEZECFG 0 0 0 0 0 0 0 0 0 0 0 0 0 0 0 0 0 0 0 0 0 0 0 0 0 0 0 0 0 0 0
    FXCFG 0 0 19 76 21 22 23 24 25 0 26 74 28 29 30 31 32 0 26 94 34 35 32 32 32 0 0 72 34 35 36 37
    FXENVCFG 0 0 3 38 3 3 3 3 3 0 3 39 3 3 3 3 3 0 3 40 3 3 3 3 3 0 0 40 3 3 3 3
    RECFXCFG 0 0 0 0 0 0 0 0 0 0 0 0 0 0 0 0 0 0 0 0 0 0 0 0 0 0 0 0 0 0 0
    TRACKENVCFG 41 3 3 3 3 3 3 3 3 3 3 3 3 3 3 3 3 3 3 3 3 3 3 3 3 3 3 3 3 3 3 3
  >
  <UENT `Toggle track mute` 1701112250 88 2
    TCFG 42 43 65 45 46 47 86 49 127 51 69 53 54 55 85 57 103 96 97 98 99 100 125 102 128 59 68 61 62 87 64
    ITEMCFG 3 4 3 5 6 7 8 9 3 10 3 11 12 13 14 3 3 106 3 119 3 3 123 3 3 121 3 118 3 124 3
    FREEZECFG 0 0 0 0 0 0 0 0 0 0 0 0 0 0 0 0 0 0 0 0 0 0 0 0 0 0 0 0 0 0 0
    FXCFG 0 0 19 76 21 22 23 24 25 0 26 74 28 29 30 31 32 0 26 94 34 35 32 32 32 0 0 72 34 35 36 37
    FXENVCFG 0 0 3 38 3 3 3 3 3 0 3 39 3 3 3 3 3 0 3 40 3 3 3 3 3 0 0 40 3 3 3 3
    RECFXCFG 0 0 0 0 0 0 0 0 0 0 0 0 0 0 0 0 0 0 0 0 0 0 0 0 0 0 0 0 0 0 0
    TRACKENVCFG 41 3 3 3 3 3 3 3 3 3 3 3 3 3 3 3 3 3 3 3 3 3 3 3 3 3 3 3 3 3 3 3
  >
  <UENT `Close FX chain: Track 19 MIDI` 1701112263 88 2
    TCFG 42 43 65 45 46 47 86 49 127 51 69 53 54 55 85 57 103 96 97 98 99 100 125 102 128 59 68 61 62 87 64
    ITEMCFG 3 4 3 5 6 7 8 9 3 10 3 11 12 13 14 3 3 106 3 119 3 3 123 3 3 121 3 118 3 124 3
    FREEZECFG 0 0 0 0 0 0 0 0 0 0 0 0 0 0 0 0 0 0 0 0 0 0 0 0 0 0 0 0 0 0 0
    FXCFG 0 0 19 76 21 22 23 24 25 0 26 74 28 29 30 31 32 0 26 129 34 35 32 32 32 0 0 72 34 35 36 37
    FXENVCFG 0 0 3 38 3 3 3 3 3 0 3 39 3 3 3 3 3 0 3 40 3 3 3 3 3 0 0 40 3 3 3 3
    RECFXCFG 0 0 0 0 0 0 0 0 0 0 0 0 0 0 0 0 0 0 0 0 0 0 0 0 0 0 0 0 0 0 0
    TRACKENVCFG 41 3 3 3 3 3 3 3 3 3 3 3 3 3 3 3 3 3 3 3 3 3 3 3 3 3 3 3 3 3 3 3
  >
  <UENT `Toggle track solo` 1701112266 88 2
    TCFG 42 43 65 45 46 47 86 49 127 51 69 53 54 55 85 57 103 96 97 98 99 100 101 102 128 59 68 61 62 87 64
    ITEMCFG 3 4 3 5 6 7 8 9 3 10 3 11 12 13 14 3 3 106 3 119 3 3 123 3 3 121 3 118 3 124 3
    FREEZECFG 0 0 0 0 0 0 0 0 0 0 0 0 0 0 0 0 0 0 0 0 0 0 0 0 0 0 0 0 0 0 0
    FXCFG 0 0 19 76 21 22 23 24 25 0 26 74 28 29 30 31 32 0 26 129 34 35 32 32 32 0 0 72 34 35 36 37
    FXENVCFG 0 0 3 38 3 3 3 3 3 0 3 39 3 3 3 3 3 0 3 40 3 3 3 3 3 0 0 40 3 3 3 3
    RECFXCFG 0 0 0 0 0 0 0 0 0 0 0 0 0 0 0 0 0 0 0 0 0 0 0 0 0 0 0 0 0 0 0
    TRACKENVCFG 41 3 3 3 3 3 3 3 3 3 3 3 3 3 3 3 3 3 3 3 3 3 3 3 3 3 3 3 3 3 3 3
  >
  <UENT `Toggle track solo` 1701112266 88 2
    TCFG 42 43 65 45 46 47 86 49 127 51 69 53 54 55 85 57 103 96 97 98 99 100 125 102 128 59 68 61 62 87 64
    ITEMCFG 3 4 3 5 6 7 8 9 3 10 3 11 12 13 14 3 3 106 3 119 3 3 123 3 3 121 3 118 3 124 3
    FREEZECFG 0 0 0 0 0 0 0 0 0 0 0 0 0 0 0 0 0 0 0 0 0 0 0 0 0 0 0 0 0 0 0
    FXCFG 0 0 19 76 21 22 23 24 25 0 26 74 28 29 30 31 32 0 26 129 34 35 32 32 32 0 0 72 34 35 36 37
    FXENVCFG 0 0 3 38 3 3 3 3 3 0 3 39 3 3 3 3 3 0 3 40 3 3 3 3 3 0 0 40 3 3 3 3
    RECFXCFG 0 0 0 0 0 0 0 0 0 0 0 0 0 0 0 0 0 0 0 0 0 0 0 0 0 0 0 0 0 0 0
    TRACKENVCFG 41 3 3 3 3 3 3 3 3 3 3 3 3 3 3 3 3 3 3 3 3 3 3 3 3 3 3 3 3 3 3 3
  >
  <UENT `Toggle track solo` 1701112272 88 2
    TCFG 42 43 65 45 46 47 86 49 127 51 69 53 54 55 85 57 103 96 97 98 99 100 101 102 128 59 68 61 62 87 64
    ITEMCFG 3 4 3 5 6 7 8 9 3 10 3 11 12 13 14 3 3 106 3 119 3 3 123 3 3 121 3 118 3 124 3
    FREEZECFG 0 0 0 0 0 0 0 0 0 0 0 0 0 0 0 0 0 0 0 0 0 0 0 0 0 0 0 0 0 0 0
    FXCFG 0 0 19 76 21 22 23 24 25 0 26 74 28 29 30 31 32 0 26 129 34 35 32 32 32 0 0 72 34 35 36 37
    FXENVCFG 0 0 3 38 3 3 3 3 3 0 3 39 3 3 3 3 3 0 3 40 3 3 3 3 3 0 0 40 3 3 3 3
    RECFXCFG 0 0 0 0 0 0 0 0 0 0 0 0 0 0 0 0 0 0 0 0 0 0 0 0 0 0 0 0 0 0 0
    TRACKENVCFG 41 3 3 3 3 3 3 3 3 3 3 3 3 3 3 3 3 3 3 3 3 3 3 3 3 3 3 3 3 3 3 3
  >
  <UENT `Toggle track solo` 1701112272 88 2
    TCFG 42 43 65 45 46 47 86 49 127 51 69 53 54 55 85 57 103 96 97 130 99 100 101 102 128 59 68 61 62 87 64
    ITEMCFG 3 4 3 5 6 7 8 9 3 10 3 11 12 13 14 3 3 106 3 119 3 3 123 3 3 121 3 118 3 124 3
    FREEZECFG 0 0 0 0 0 0 0 0 0 0 0 0 0 0 0 0 0 0 0 0 0 0 0 0 0 0 0 0 0 0 0
    FXCFG 0 0 19 76 21 22 23 24 25 0 26 74 28 29 30 31 32 0 26 129 34 35 32 32 32 0 0 72 34 35 36 37
    FXENVCFG 0 0 3 38 3 3 3 3 3 0 3 39 3 3 3 3 3 0 3 40 3 3 3 3 3 0 0 40 3 3 3 3
    RECFXCFG 0 0 0 0 0 0 0 0 0 0 0 0 0 0 0 0 0 0 0 0 0 0 0 0 0 0 0 0 0 0 0
    TRACKENVCFG 41 3 3 3 3 3 3 3 3 3 3 3 3 3 3 3 3 3 3 3 3 3 3 3 3 3 3 3 3 3 3 3
  >
  <UENT `Toggle track solo` 1701112286 88 2
    TCFG 42 43 65 45 46 47 86 49 127 51 69 53 54 55 85 57 103 96 131 130 99 100 101 102 128 59 68 61 62 87 64
    ITEMCFG 3 4 3 5 6 7 8 9 3 10 3 11 12 13 14 3 3 106 3 119 3 3 123 3 3 121 3 118 3 124 3
    FREEZECFG 0 0 0 0 0 0 0 0 0 0 0 0 0 0 0 0 0 0 0 0 0 0 0 0 0 0 0 0 0 0 0
    FXCFG 0 0 19 76 21 22 23 24 25 0 26 74 28 29 30 31 32 0 26 129 34 35 32 32 32 0 0 72 34 35 36 37
    FXENVCFG 0 0 3 38 3 3 3 3 3 0 3 39 3 3 3 3 3 0 3 40 3 3 3 3 3 0 0 40 3 3 3 3
    RECFXCFG 0 0 0 0 0 0 0 0 0 0 0 0 0 0 0 0 0 0 0 0 0 0 0 0 0 0 0 0 0 0 0
    TRACKENVCFG 41 3 3 3 3 3 3 3 3 3 3 3 3 3 3 3 3 3 3 3 3 3 3 3 3 3 3 3 3 3 3 3
  >
  <UENT `Toggle track solo` 1701112289 88 2
    TCFG 42 43 65 45 46 47 86 49 127 51 69 53 54 55 85 57 103 96 131 98 99 100 101 102 128 59 68 61 62 87 64
    ITEMCFG 3 4 3 5 6 7 8 9 3 10 3 11 12 13 14 3 3 106 3 119 3 3 123 3 3 121 3 118 3 124 3
    FREEZECFG 0 0 0 0 0 0 0 0 0 0 0 0 0 0 0 0 0 0 0 0 0 0 0 0 0 0 0 0 0 0 0
    FXCFG 0 0 19 76 21 22 23 24 25 0 26 74 28 29 30 31 32 0 26 129 34 35 32 32 32 0 0 72 34 35 36 37
    FXENVCFG 0 0 3 38 3 3 3 3 3 0 3 39 3 3 3 3 3 0 3 40 3 3 3 3 3 0 0 40 3 3 3 3
    RECFXCFG 0 0 0 0 0 0 0 0 0 0 0 0 0 0 0 0 0 0 0 0 0 0 0 0 0 0 0 0 0 0 0
    TRACKENVCFG 41 3 3 3 3 3 3 3 3 3 3 3 3 3 3 3 3 3 3 3 3 3 3 3 3 3 3 3 3 3 3 3
  >
  <UENT `Change media item selection` 1701112289 88 2
    TCFG 42 43 65 45 46 47 86 49 127 51 69 53 54 55 85 57 103 96 131 98 99 100 101 102 128 59 68 61 62 87 64
    ITEMCFG 3 4 3 5 6 7 8 9 3 10 3 11 12 13 14 3 3 106 3 117 3 3 132 3 3 121 3 118 3 124 3
    FREEZECFG 0 0 0 0 0 0 0 0 0 0 0 0 0 0 0 0 0 0 0 0 0 0 0 0 0 0 0 0 0 0 0
    FXCFG 0 0 19 76 21 22 23 24 25 0 26 74 28 29 30 31 32 0 26 129 34 35 32 32 32 0 0 72 34 35 36 37
    FXENVCFG 0 0 3 38 3 3 3 3 3 0 3 39 3 3 3 3 3 0 3 40 3 3 3 3 3 0 0 40 3 3 3 3
    RECFXCFG 0 0 0 0 0 0 0 0 0 0 0 0 0 0 0 0 0 0 0 0 0 0 0 0 0 0 0 0 0 0 0
    TRACKENVCFG 41 3 3 3 3 3 3 3 3 3 3 3 3 3 3 3 3 3 3 3 3 3 3 3 3 3 3 3 3 3 3 3
  >
  <UENT `Move media items` 1701112290 88 2
    TCFG 42 43 65 45 46 47 86 49 127 51 69 53 54 55 85 57 103 96 131 98 99 100 101 102 128 59 68 61 62 87 64
    ITEMCFG 3 4 3 5 6 7 8 9 3 10 3 11 12 13 14 3 3 106 133 3 3 3 132 3 3 121 3 118 3 124 3
    FREEZECFG 0 0 0 0 0 0 0 0 0 0 0 0 0 0 0 0 0 0 0 0 0 0 0 0 0 0 0 0 0 0 0
    FXCFG 0 0 19 76 21 22 23 24 25 0 26 74 28 29 30 31 32 0 26 129 34 35 32 32 32 0 0 72 34 35 36 37
    FXENVCFG 0 0 3 38 3 3 3 3 3 0 3 39 3 3 3 3 3 0 3 40 3 3 3 3 3 0 0 40 3 3 3 3
    RECFXCFG 0 0 0 0 0 0 0 0 0 0 0 0 0 0 0 0 0 0 0 0 0 0 0 0 0 0 0 0 0 0 0
    TRACKENVCFG 41 3 3 3 3 3 3 3 3 3 3 3 3 3 3 3 3 3 3 3 3 3 3 3 3 3 3 3 3 3 3 3
  >
  <UENT `Toggle track solo` 1701112299 88 2
    TCFG 42 43 65 45 46 47 86 49 127 51 69 53 54 55 85 57 103 96 97 98 99 100 101 102 128 59 68 61 62 87 64
    ITEMCFG 3 4 3 5 6 7 8 9 3 10 3 11 12 13 14 3 3 106 133 3 3 3 132 3 3 121 3 118 3 124 3
    FREEZECFG 0 0 0 0 0 0 0 0 0 0 0 0 0 0 0 0 0 0 0 0 0 0 0 0 0 0 0 0 0 0 0
    FXCFG 0 0 19 76 21 22 23 24 25 0 26 74 28 29 30 31 32 0 26 129 34 35 32 32 32 0 0 72 34 35 36 37
    FXENVCFG 0 0 3 38 3 3 3 3 3 0 3 39 3 3 3 3 3 0 3 40 3 3 3 3 3 0 0 40 3 3 3 3
    RECFXCFG 0 0 0 0 0 0 0 0 0 0 0 0 0 0 0 0 0 0 0 0 0 0 0 0 0 0 0 0 0 0 0
    TRACKENVCFG 41 3 3 3 3 3 3 3 3 3 3 3 3 3 3 3 3 3 3 3 3 3 3 3 3 3 3 3 3 3 3 3
  >
  <UENT `Move media items` 1701112301 88 2
    TCFG 42 43 65 45 46 47 86 49 127 51 69 53 54 55 85 57 103 96 97 98 99 100 101 102 128 59 68 61 62 87 64
    ITEMCFG 3 4 3 5 6 7 8 9 3 10 3 11 12 13 14 3 3 106 3 117 3 3 132 3 3 121 3 118 3 124 3
    FREEZECFG 0 0 0 0 0 0 0 0 0 0 0 0 0 0 0 0 0 0 0 0 0 0 0 0 0 0 0 0 0 0 0
    FXCFG 0 0 19 76 21 22 23 24 25 0 26 74 28 29 30 31 32 0 26 129 34 35 32 32 32 0 0 72 34 35 36 37
    FXENVCFG 0 0 3 38 3 3 3 3 3 0 3 39 3 3 3 3 3 0 3 40 3 3 3 3 3 0 0 40 3 3 3 3
    RECFXCFG 0 0 0 0 0 0 0 0 0 0 0 0 0 0 0 0 0 0 0 0 0 0 0 0 0 0 0 0 0 0 0
    TRACKENVCFG 41 3 3 3 3 3 3 3 3 3 3 3 3 3 3 3 3 3 3 3 3 3 3 3 3 3 3 3 3 3 3 3
  >
  <UENT `Toggle track mute` 1701112304 88 2
    TCFG 42 43 65 45 46 47 86 49 127 51 69 53 54 55 85 57 103 96 97 98 99 100 101 102 111 59 68 61 62 87 64
    ITEMCFG 3 4 3 5 6 7 8 9 3 10 3 11 12 13 14 3 3 106 3 117 3 3 132 3 3 121 3 118 3 124 3
    FREEZECFG 0 0 0 0 0 0 0 0 0 0 0 0 0 0 0 0 0 0 0 0 0 0 0 0 0 0 0 0 0 0 0
    FXCFG 0 0 19 76 21 22 23 24 25 0 26 74 28 29 30 31 32 0 26 129 34 35 32 32 32 0 0 72 34 35 36 37
    FXENVCFG 0 0 3 38 3 3 3 3 3 0 3 39 3 3 3 3 3 0 3 40 3 3 3 3 3 0 0 40 3 3 3 3
    RECFXCFG 0 0 0 0 0 0 0 0 0 0 0 0 0 0 0 0 0 0 0 0 0 0 0 0 0 0 0 0 0 0 0
    TRACKENVCFG 41 3 3 3 3 3 3 3 3 3 3 3 3 3 3 3 3 3 3 3 3 3 3 3 3 3 3 3 3 3 3 3
  >
  <UENT `Toggle track mute` 1701112305 88 2
    TCFG 42 43 65 45 46 47 86 49 127 51 69 53 54 55 85 57 103 96 97 98 99 100 101 102 128 59 68 61 62 87 64
    ITEMCFG 3 4 3 5 6 7 8 9 3 10 3 11 12 13 14 3 3 106 3 117 3 3 132 3 3 121 3 118 3 124 3
    FREEZECFG 0 0 0 0 0 0 0 0 0 0 0 0 0 0 0 0 0 0 0 0 0 0 0 0 0 0 0 0 0 0 0
    FXCFG 0 0 19 76 21 22 23 24 25 0 26 74 28 29 30 31 32 0 26 129 34 35 32 32 32 0 0 72 34 35 36 37
    FXENVCFG 0 0 3 38 3 3 3 3 3 0 3 39 3 3 3 3 3 0 3 40 3 3 3 3 3 0 0 40 3 3 3 3
    RECFXCFG 0 0 0 0 0 0 0 0 0 0 0 0 0 0 0 0 0 0 0 0 0 0 0 0 0 0 0 0 0 0 0
    TRACKENVCFG 41 3 3 3 3 3 3 3 3 3 3 3 3 3 3 3 3 3 3 3 3 3 3 3 3 3 3 3 3 3 3 3
  >
  <UENT `Toggle track mute` 1701112307 88 2
    TCFG 42 43 65 45 46 47 86 49 127 51 69 53 54 55 85 57 134 96 97 98 99 100 101 102 128 59 68 61 62 87 64
    ITEMCFG 3 4 3 5 6 7 8 9 3 10 3 11 12 13 14 3 3 106 3 117 3 3 132 3 3 121 3 118 3 124 3
    FREEZECFG 0 0 0 0 0 0 0 0 0 0 0 0 0 0 0 0 0 0 0 0 0 0 0 0 0 0 0 0 0 0 0
    FXCFG 0 0 19 76 21 22 23 24 25 0 26 74 28 29 30 31 32 0 26 129 34 35 32 32 32 0 0 72 34 35 36 37
    FXENVCFG 0 0 3 38 3 3 3 3 3 0 3 39 3 3 3 3 3 0 3 40 3 3 3 3 3 0 0 40 3 3 3 3
    RECFXCFG 0 0 0 0 0 0 0 0 0 0 0 0 0 0 0 0 0 0 0 0 0 0 0 0 0 0 0 0 0 0 0
    TRACKENVCFG 41 3 3 3 3 3 3 3 3 3 3 3 3 3 3 3 3 3 3 3 3 3 3 3 3 3 3 3 3 3 3 3
  >
  <UENT `Toggle track mute` 1701112308 88 2
    TCFG 42 43 65 45 46 47 86 49 127 51 69 53 54 55 85 57 103 96 97 98 99 100 101 102 128 59 68 61 62 87 64
    ITEMCFG 3 4 3 5 6 7 8 9 3 10 3 11 12 13 14 3 3 106 3 117 3 3 132 3 3 121 3 118 3 124 3
    FREEZECFG 0 0 0 0 0 0 0 0 0 0 0 0 0 0 0 0 0 0 0 0 0 0 0 0 0 0 0 0 0 0 0
    FXCFG 0 0 19 76 21 22 23 24 25 0 26 74 28 29 30 31 32 0 26 129 34 35 32 32 32 0 0 72 34 35 36 37
    FXENVCFG 0 0 3 38 3 3 3 3 3 0 3 39 3 3 3 3 3 0 3 40 3 3 3 3 3 0 0 40 3 3 3 3
    RECFXCFG 0 0 0 0 0 0 0 0 0 0 0 0 0 0 0 0 0 0 0 0 0 0 0 0 0 0 0 0 0 0 0
    TRACKENVCFG 41 3 3 3 3 3 3 3 3 3 3 3 3 3 3 3 3 3 3 3 3 3 3 3 3 3 3 3 3 3 3 3
  >
  <UENT `Toggle track mute` 1701112313 88 2
    TCFG 42 43 65 45 46 47 86 49 127 51 69 53 54 55 85 57 103 135 97 98 99 100 101 102 128 59 68 61 62 87 64
    ITEMCFG 3 4 3 5 6 7 8 9 3 10 3 11 12 13 14 3 3 106 3 117 3 3 132 3 3 121 3 118 3 124 3
    FREEZECFG 0 0 0 0 0 0 0 0 0 0 0 0 0 0 0 0 0 0 0 0 0 0 0 0 0 0 0 0 0 0 0
    FXCFG 0 0 19 76 21 22 23 24 25 0 26 74 28 29 30 31 32 0 26 129 34 35 32 32 32 0 0 72 34 35 36 37
    FXENVCFG 0 0 3 38 3 3 3 3 3 0 3 39 3 3 3 3 3 0 3 40 3 3 3 3 3 0 0 40 3 3 3 3
    RECFXCFG 0 0 0 0 0 0 0 0 0 0 0 0 0 0 0 0 0 0 0 0 0 0 0 0 0 0 0 0 0 0 0
    TRACKENVCFG 41 3 3 3 3 3 3 3 3 3 3 3 3 3 3 3 3 3 3 3 3 3 3 3 3 3 3 3 3 3 3 3
  >
  <UENT `Toggle track mute` 1701112320 88 2
    TCFG 42 43 65 45 46 47 86 49 127 51 69 53 54 55 85 57 103 135 97 98 99 100 136 102 128 59 68 61 62 87 64
    ITEMCFG 3 4 3 5 6 7 8 9 3 10 3 11 12 13 14 3 3 106 3 117 3 3 132 3 3 121 3 118 3 124 3
    FREEZECFG 0 0 0 0 0 0 0 0 0 0 0 0 0 0 0 0 0 0 0 0 0 0 0 0 0 0 0 0 0 0 0
    FXCFG 0 0 19 76 21 22 23 24 25 0 26 74 28 29 30 31 32 0 26 129 34 35 32 32 32 0 0 72 34 35 36 37
    FXENVCFG 0 0 3 38 3 3 3 3 3 0 3 39 3 3 3 3 3 0 3 40 3 3 3 3 3 0 0 40 3 3 3 3
    RECFXCFG 0 0 0 0 0 0 0 0 0 0 0 0 0 0 0 0 0 0 0 0 0 0 0 0 0 0 0 0 0 0 0
    TRACKENVCFG 41 3 3 3 3 3 3 3 3 3 3 3 3 3 3 3 3 3 3 3 3 3 3 3 3 3 3 3 3 3 3 3
  >
  <UENT `Remove FX: Track 19 MIDI: BassMidiVsti` 1701112327 88 2
    TCFG 42 43 65 45 46 47 86 49 127 51 69 53 54 55 85 57 103 135 97 98 99 100 136 102 128 59 68 61 62 87 64
    ITEMCFG 3 4 3 5 6 7 8 9 3 10 3 11 12 13 14 3 3 106 3 117 3 3 132 3 3 121 3 118 3 124 3
    FREEZECFG 0 0 0 0 0 0 0 0 0 0 0 0 0 0 0 0 0 0 0 0 0 0 0 0 0 0 0 0 0 0 0
    FXCFG 0 0 19 76 21 22 23 24 25 0 26 74 28 29 30 31 32 0 26 137 34 35 32 32 32 0 0 72 34 35 36 37
    FXENVCFG 0 0 3 38 3 3 3 3 3 0 3 39 3 3 3 3 3 0 3 3 3 3 3 3 3 0 0 40 3 3 3 3
    RECFXCFG 0 0 0 0 0 0 0 0 0 0 0 0 0 0 0 0 0 0 0 0 0 0 0 0 0 0 0 0 0 0 0
    TRACKENVCFG 41 3 3 3 3 3 3 3 3 3 3 3 3 3 3 3 3 3 3 3 3 3 3 3 3 3 3 3 3 3 3 3
  >
  <UENT `Add FX: Track 19 MIDI: ReaSynth` 1701112340 88 2
    TCFG 42 43 65 45 46 47 86 49 127 51 69 53 54 55 85 57 103 135 97 98 99 100 136 102 128 59 68 61 62 87 64
    ITEMCFG 3 4 3 5 6 7 8 9 3 10 3 11 12 13 14 3 3 106 3 117 3 3 132 3 3 121 3 118 3 124 3
    FREEZECFG 0 0 0 0 0 0 0 0 0 0 0 0 0 0 0 0 0 0 0 0 0 0 0 0 0 0 0 0 0 0 0
    FXCFG 0 0 19 76 21 22 23 24 25 0 26 74 28 29 30 31 32 0 26 138 34 35 32 32 32 0 0 72 34 35 36 37
    FXENVCFG 0 0 3 38 3 3 3 3 3 0 3 39 3 3 3 3 3 0 3 40 3 3 3 3 3 0 0 40 3 3 3 3
    RECFXCFG 0 0 0 0 0 0 0 0 0 0 0 0 0 0 0 0 0 0 0 0 0 0 0 0 0 0 0 0 0 0 0
    TRACKENVCFG 41 3 3 3 3 3 3 3 3 3 3 3 3 3 3 3 3 3 3 3 3 3 3 3 3 3 3 3 3 3 3 3
  >
  <UENT `Add FX: Track 19 MIDI: BassMidiVsti` 1701112349 88 2
    TCFG 42 43 65 45 46 47 86 49 127 51 69 53 54 55 85 57 103 135 97 98 99 100 136 102 128 59 68 61 62 87 64
    ITEMCFG 3 4 3 5 6 7 8 9 3 10 3 11 12 13 14 3 3 106 3 117 3 3 132 3 3 121 3 118 3 124 3
    FREEZECFG 0 0 0 0 0 0 0 0 0 0 0 0 0 0 0 0 0 0 0 0 0 0 0 0 0 0 0 0 0 0 0
    FXCFG 0 0 19 76 21 22 23 24 25 0 26 74 28 29 30 31 32 0 26 139 34 35 32 32 32 0 0 72 34 35 36 37
    FXENVCFG 0 0 3 38 3 3 3 3 3 0 3 39 3 3 3 3 3 0 3 140 3 3 3 3 3 0 0 40 3 3 3 3
    RECFXCFG 0 0 0 0 0 0 0 0 0 0 0 0 0 0 0 0 0 0 0 0 0 0 0 0 0 0 0 0 0 0 0
    TRACKENVCFG 41 3 3 3 3 3 3 3 3 3 3 3 3 3 3 3 3 3 3 3 3 3 3 3 3 3 3 3 3 3 3 3
  >
  <UENT `FX bypass toggle: Track 19 MIDI: ReaSynth` 1701112351 88 2
    TCFG 42 43 65 45 46 47 86 49 127 51 69 53 54 55 85 57 103 135 97 98 99 100 136 102 128 59 68 61 62 87 64
    ITEMCFG 3 4 3 5 6 7 8 9 3 10 3 11 12 13 14 3 3 106 3 117 3 3 132 3 3 121 3 118 3 124 3
    FREEZECFG 0 0 0 0 0 0 0 0 0 0 0 0 0 0 0 0 0 0 0 0 0 0 0 0 0 0 0 0 0 0 0
    FXCFG 0 0 19 76 21 22 23 24 25 0 26 74 28 29 30 31 32 0 26 141 34 35 32 32 32 0 0 72 34 35 36 37
    FXENVCFG 0 0 3 38 3 3 3 3 3 0 3 39 3 3 3 3 3 0 3 140 3 3 3 3 3 0 0 40 3 3 3 3
    RECFXCFG 0 0 0 0 0 0 0 0 0 0 0 0 0 0 0 0 0 0 0 0 0 0 0 0 0 0 0 0 0 0 0
    TRACKENVCFG 41 3 3 3 3 3 3 3 3 3 3 3 3 3 3 3 3 3 3 3 3 3 3 3 3 3 3 3 3 3 3 3
  >
  <UENT `Edit FX parameter: Track 19 MIDI: BassMidiVsti` 1701112357 88 2
    TCFG 42 43 65 45 46 47 86 49 127 51 69 53 54 55 85 57 103 135 97 98 99 100 136 102 128 59 68 61 62 87 64
    ITEMCFG 3 4 3 5 6 7 8 9 3 10 3 11 12 13 14 3 3 106 3 117 3 3 132 3 3 121 3 118 3 124 3
    FREEZECFG 0 0 0 0 0 0 0 0 0 0 0 0 0 0 0 0 0 0 0 0 0 0 0 0 0 0 0 0 0 0 0
    FXCFG 0 0 19 76 21 22 23 24 25 0 26 74 28 29 30 31 32 0 26 142 34 35 32 32 32 0 0 72 34 35 36 37
    FXENVCFG 0 0 3 38 3 3 3 3 3 0 3 39 3 3 3 3 3 0 3 140 3 3 3 3 3 0 0 40 3 3 3 3
    RECFXCFG 0 0 0 0 0 0 0 0 0 0 0 0 0 0 0 0 0 0 0 0 0 0 0 0 0 0 0 0 0 0 0
    TRACKENVCFG 41 3 3 3 3 3 3 3 3 3 3 3 3 3 3 3 3 3 3 3 3 3 3 3 3 3 3 3 3 3 3 3
  >
  <UENT `Remove FX: Track 19 MIDI: BassMidiVsti` 1701112372 88 2
    TCFG 42 43 65 45 46 47 86 49 127 51 69 53 54 55 85 57 103 135 97 98 99 100 136 102 128 59 68 61 62 87 64
    ITEMCFG 3 4 3 5 6 7 8 9 3 10 3 11 12 13 14 3 3 106 3 117 3 3 132 3 3 121 3 118 3 124 3
    FREEZECFG 0 0 0 0 0 0 0 0 0 0 0 0 0 0 0 0 0 0 0 0 0 0 0 0 0 0 0 0 0 0 0
    FXCFG 0 0 19 76 21 22 23 24 25 0 26 74 28 29 30 31 32 0 26 143 34 35 32 32 32 0 0 72 34 35 36 37
    FXENVCFG 0 0 3 38 3 3 3 3 3 0 3 39 3 3 3 3 3 0 3 40 3 3 3 3 3 0 0 40 3 3 3 3
    RECFXCFG 0 0 0 0 0 0 0 0 0 0 0 0 0 0 0 0 0 0 0 0 0 0 0 0 0 0 0 0 0 0 0
    TRACKENVCFG 41 3 3 3 3 3 3 3 3 3 3 3 3 3 3 3 3 3 3 3 3 3 3 3 3 3 3 3 3 3 3 3
  >
  <UENT `FX bypass toggle: Track 19 MIDI: ReaSynth` 1701112373 88 2
    TCFG 42 43 65 45 46 47 86 49 127 51 69 53 54 55 85 57 103 135 97 98 99 100 136 102 128 59 68 61 62 87 64
    ITEMCFG 3 4 3 5 6 7 8 9 3 10 3 11 12 13 14 3 3 106 3 117 3 3 132 3 3 121 3 118 3 124 3
    FREEZECFG 0 0 0 0 0 0 0 0 0 0 0 0 0 0 0 0 0 0 0 0 0 0 0 0 0 0 0 0 0 0 0
    FXCFG 0 0 19 76 21 22 23 24 25 0 26 74 28 29 30 31 32 0 26 138 34 35 32 32 32 0 0 72 34 35 36 37
    FXENVCFG 0 0 3 38 3 3 3 3 3 0 3 39 3 3 3 3 3 0 3 40 3 3 3 3 3 0 0 40 3 3 3 3
    RECFXCFG 0 0 0 0 0 0 0 0 0 0 0 0 0 0 0 0 0 0 0 0 0 0 0 0 0 0 0 0 0 0 0
    TRACKENVCFG 41 3 3 3 3 3 3 3 3 3 3 3 3 3 3 3 3 3 3 3 3 3 3 3 3 3 3 3 3 3 3 3
  >
  <UENT `Edit FX parameter: Track 19 MIDI: ReaSynth` 1701112390 88 2
    TCFG 42 43 65 45 46 47 86 49 127 51 69 53 54 55 85 57 103 135 97 98 99 100 136 102 128 59 68 61 62 87 64
    ITEMCFG 3 4 3 5 6 7 8 9 3 10 3 11 12 13 14 3 3 106 3 117 3 3 132 3 3 121 3 118 3 124 3
    FREEZECFG 0 0 0 0 0 0 0 0 0 0 0 0 0 0 0 0 0 0 0 0 0 0 0 0 0 0 0 0 0 0 0
    FXCFG 0 0 19 76 21 22 23 24 25 0 26 74 28 29 30 31 32 0 26 144 34 35 32 32 32 0 0 72 34 35 36 37
    FXENVCFG 0 0 3 38 3 3 3 3 3 0 3 39 3 3 3 3 3 0 3 40 3 3 3 3 3 0 0 40 3 3 3 3
    RECFXCFG 0 0 0 0 0 0 0 0 0 0 0 0 0 0 0 0 0 0 0 0 0 0 0 0 0 0 0 0 0 0 0
    TRACKENVCFG 41 3 3 3 3 3 3 3 3 3 3 3 3 3 3 3 3 3 3 3 3 3 3 3 3 3 3 3 3 3 3 3
  >
  <UENT `Edit FX parameter: Track 19 MIDI: ReaSynth` 1701112392 88 2
    TCFG 42 43 65 45 46 47 86 49 127 51 69 53 54 55 85 57 103 135 97 98 99 100 136 102 128 59 68 61 62 87 64
    ITEMCFG 3 4 3 5 6 7 8 9 3 10 3 11 12 13 14 3 3 106 3 117 3 3 132 3 3 121 3 118 3 124 3
    FREEZECFG 0 0 0 0 0 0 0 0 0 0 0 0 0 0 0 0 0 0 0 0 0 0 0 0 0 0 0 0 0 0 0
    FXCFG 0 0 19 76 21 22 23 24 25 0 26 74 28 29 30 31 32 0 26 145 34 35 32 32 32 0 0 72 34 35 36 37
    FXENVCFG 0 0 3 38 3 3 3 3 3 0 3 39 3 3 3 3 3 0 3 40 3 3 3 3 3 0 0 40 3 3 3 3
    RECFXCFG 0 0 0 0 0 0 0 0 0 0 0 0 0 0 0 0 0 0 0 0 0 0 0 0 0 0 0 0 0 0 0
    TRACKENVCFG 41 3 3 3 3 3 3 3 3 3 3 3 3 3 3 3 3 3 3 3 3 3 3 3 3 3 3 3 3 3 3 3
  >
  <UENT `Edit FX parameter: Track 19 MIDI: ReaSynth` 1701112392 88 2
    TCFG 42 43 65 45 46 47 86 49 127 51 69 53 54 55 85 57 103 135 97 98 99 100 136 102 128 59 68 61 62 87 64
    ITEMCFG 3 4 3 5 6 7 8 9 3 10 3 11 12 13 14 3 3 106 3 117 3 3 132 3 3 121 3 118 3 124 3
    FREEZECFG 0 0 0 0 0 0 0 0 0 0 0 0 0 0 0 0 0 0 0 0 0 0 0 0 0 0 0 0 0 0 0
    FXCFG 0 0 19 76 21 22 23 24 25 0 26 74 28 29 30 31 32 0 26 146 34 35 32 32 32 0 0 72 34 35 36 37
    FXENVCFG 0 0 3 38 3 3 3 3 3 0 3 39 3 3 3 3 3 0 3 40 3 3 3 3 3 0 0 40 3 3 3 3
    RECFXCFG 0 0 0 0 0 0 0 0 0 0 0 0 0 0 0 0 0 0 0 0 0 0 0 0 0 0 0 0 0 0 0
    TRACKENVCFG 41 3 3 3 3 3 3 3 3 3 3 3 3 3 3 3 3 3 3 3 3 3 3 3 3 3 3 3 3 3 3 3
  >
  <UENT `Edit FX parameter: Track 19 MIDI: ReaSynth` 1701112397 88 2
    TCFG 42 43 65 45 46 47 86 49 127 51 69 53 54 55 85 57 103 135 97 98 99 100 136 102 128 59 68 61 62 87 64
    ITEMCFG 3 4 3 5 6 7 8 9 3 10 3 11 12 13 14 3 3 106 3 117 3 3 132 3 3 121 3 118 3 124 3
    FREEZECFG 0 0 0 0 0 0 0 0 0 0 0 0 0 0 0 0 0 0 0 0 0 0 0 0 0 0 0 0 0 0 0
    FXCFG 0 0 19 76 21 22 23 24 25 0 26 74 28 29 30 31 32 0 26 147 34 35 32 32 32 0 0 72 34 35 36 37
    FXENVCFG 0 0 3 38 3 3 3 3 3 0 3 39 3 3 3 3 3 0 3 40 3 3 3 3 3 0 0 40 3 3 3 3
    RECFXCFG 0 0 0 0 0 0 0 0 0 0 0 0 0 0 0 0 0 0 0 0 0 0 0 0 0 0 0 0 0 0 0
    TRACKENVCFG 41 3 3 3 3 3 3 3 3 3 3 3 3 3 3 3 3 3 3 3 3 3 3 3 3 3 3 3 3 3 3 3
  >
  <UENT `Edit FX parameter: Track 19 MIDI: ReaSynth` 1701112398 88 2
    TCFG 42 43 65 45 46 47 86 49 127 51 69 53 54 55 85 57 103 135 97 98 99 100 136 102 128 59 68 61 62 87 64
    ITEMCFG 3 4 3 5 6 7 8 9 3 10 3 11 12 13 14 3 3 106 3 117 3 3 132 3 3 121 3 118 3 124 3
    FREEZECFG 0 0 0 0 0 0 0 0 0 0 0 0 0 0 0 0 0 0 0 0 0 0 0 0 0 0 0 0 0 0 0
    FXCFG 0 0 19 76 21 22 23 24 25 0 26 74 28 29 30 31 32 0 26 148 34 35 32 32 32 0 0 72 34 35 36 37
    FXENVCFG 0 0 3 38 3 3 3 3 3 0 3 39 3 3 3 3 3 0 3 40 3 3 3 3 3 0 0 40 3 3 3 3
    RECFXCFG 0 0 0 0 0 0 0 0 0 0 0 0 0 0 0 0 0 0 0 0 0 0 0 0 0 0 0 0 0 0 0
    TRACKENVCFG 41 3 3 3 3 3 3 3 3 3 3 3 3 3 3 3 3 3 3 3 3 3 3 3 3 3 3 3 3 3 3 3
  >
  <UENT `Edit FX parameter: Track 19 MIDI: ReaSynth` 1701112410 88 2
    TCFG 42 43 65 45 46 47 86 49 127 51 69 53 54 55 85 57 103 135 97 98 99 100 136 102 128 59 68 61 62 87 64
    ITEMCFG 3 4 3 5 6 7 8 9 3 10 3 11 12 13 14 3 3 106 3 117 3 3 132 3 3 121 3 118 3 124 3
    FREEZECFG 0 0 0 0 0 0 0 0 0 0 0 0 0 0 0 0 0 0 0 0 0 0 0 0 0 0 0 0 0 0 0
    FXCFG 0 0 19 76 21 22 23 24 25 0 26 74 28 29 30 31 32 0 26 149 34 35 32 32 32 0 0 72 34 35 36 37
    FXENVCFG 0 0 3 38 3 3 3 3 3 0 3 39 3 3 3 3 3 0 3 40 3 3 3 3 3 0 0 40 3 3 3 3
    RECFXCFG 0 0 0 0 0 0 0 0 0 0 0 0 0 0 0 0 0 0 0 0 0 0 0 0 0 0 0 0 0 0 0
    TRACKENVCFG 41 3 3 3 3 3 3 3 3 3 3 3 3 3 3 3 3 3 3 3 3 3 3 3 3 3 3 3 3 3 3 3
  >
  <UENT `Add FX: Track 19 MIDI: DR-84` 1701112428 88 2
    TCFG 42 43 65 45 46 47 86 49 127 51 69 53 54 55 85 57 103 135 97 98 99 100 136 102 128 59 68 61 62 87 64
    ITEMCFG 3 4 3 5 6 7 8 9 3 10 3 11 12 13 14 3 3 106 3 117 3 3 132 3 3 121 3 118 3 124 3
    FREEZECFG 0 0 0 0 0 0 0 0 0 0 0 0 0 0 0 0 0 0 0 0 0 0 0 0 0 0 0 0 0 0 0
    FXCFG 0 0 19 76 21 22 23 24 25 0 26 74 28 29 30 31 32 0 26 150 34 35 32 32 32 0 0 72 34 35 36 37
    FXENVCFG 0 0 3 38 3 3 3 3 3 0 3 39 3 3 3 3 3 0 3 140 3 3 3 3 3 0 0 40 3 3 3 3
    RECFXCFG 0 0 0 0 0 0 0 0 0 0 0 0 0 0 0 0 0 0 0 0 0 0 0 0 0 0 0 0 0 0 0
    TRACKENVCFG 41 3 3 3 3 3 3 3 3 3 3 3 3 3 3 3 3 3 3 3 3 3 3 3 3 3 3 3 3 3 3 3
  >
  <UENT `Remove FX: Track 19 MIDI: DR-84` 1701112436 88 2
    TCFG 42 43 65 45 46 47 86 49 127 51 69 53 54 55 85 57 103 135 97 98 99 100 136 102 128 59 68 61 62 87 64
    ITEMCFG 3 4 3 5 6 7 8 9 3 10 3 11 12 13 14 3 3 106 3 117 3 3 132 3 3 121 3 118 3 124 3
    FREEZECFG 0 0 0 0 0 0 0 0 0 0 0 0 0 0 0 0 0 0 0 0 0 0 0 0 0 0 0 0 0 0 0
    FXCFG 0 0 19 76 21 22 23 24 25 0 26 74 28 29 30 31 32 0 26 151 34 35 32 32 32 0 0 72 34 35 36 37
    FXENVCFG 0 0 3 38 3 3 3 3 3 0 3 39 3 3 3 3 3 0 3 40 3 3 3 3 3 0 0 40 3 3 3 3
    RECFXCFG 0 0 0 0 0 0 0 0 0 0 0 0 0 0 0 0 0 0 0 0 0 0 0 0 0 0 0 0 0 0 0
    TRACKENVCFG 41 3 3 3 3 3 3 3 3 3 3 3 3 3 3 3 3 3 3 3 3 3 3 3 3 3 3 3 3 3 3 3
  >
  <UENT `Edit FX parameter: Track 19 MIDI: ReaSynth` 1701112478 88 2
    TCFG 42 43 65 45 46 47 86 49 127 51 69 53 54 55 85 57 103 135 97 98 99 100 136 102 128 59 68 61 62 87 64
    ITEMCFG 3 4 3 5 6 7 8 9 3 10 3 11 12 13 14 3 3 106 3 117 3 3 132 3 3 121 3 118 3 124 3
    FREEZECFG 0 0 0 0 0 0 0 0 0 0 0 0 0 0 0 0 0 0 0 0 0 0 0 0 0 0 0 0 0 0 0
    FXCFG 0 0 19 76 21 22 23 24 25 0 26 74 28 29 30 31 32 0 26 152 34 35 32 32 32 0 0 72 34 35 36 37
    FXENVCFG 0 0 3 38 3 3 3 3 3 0 3 39 3 3 3 3 3 0 3 40 3 3 3 3 3 0 0 40 3 3 3 3
    RECFXCFG 0 0 0 0 0 0 0 0 0 0 0 0 0 0 0 0 0 0 0 0 0 0 0 0 0 0 0 0 0 0 0
    TRACKENVCFG 41 3 3 3 3 3 3 3 3 3 3 3 3 3 3 3 3 3 3 3 3 3 3 3 3 3 3 3 3 3 3 3
  >
  <UENT `Edit FX parameter: Track 19 MIDI: ReaSynth` 1701112479 88 2
    TCFG 42 43 65 45 46 47 86 49 127 51 69 53 54 55 85 57 103 135 97 98 99 100 136 102 128 59 68 61 62 87 64
    ITEMCFG 3 4 3 5 6 7 8 9 3 10 3 11 12 13 14 3 3 106 3 117 3 3 132 3 3 121 3 118 3 124 3
    FREEZECFG 0 0 0 0 0 0 0 0 0 0 0 0 0 0 0 0 0 0 0 0 0 0 0 0 0 0 0 0 0 0 0
    FXCFG 0 0 19 76 21 22 23 24 25 0 26 74 28 29 30 31 32 0 26 153 34 35 32 32 32 0 0 72 34 35 36 37
    FXENVCFG 0 0 3 38 3 3 3 3 3 0 3 39 3 3 3 3 3 0 3 40 3 3 3 3 3 0 0 40 3 3 3 3
    RECFXCFG 0 0 0 0 0 0 0 0 0 0 0 0 0 0 0 0 0 0 0 0 0 0 0 0 0 0 0 0 0 0 0
    TRACKENVCFG 41 3 3 3 3 3 3 3 3 3 3 3 3 3 3 3 3 3 3 3 3 3 3 3 3 3 3 3 3 3 3 3
  >
  <UENT `Close FX chain: Track 19 MIDI` 1701112487 88 2
    TCFG 42 43 65 45 46 47 86 49 127 51 69 53 54 55 85 57 103 135 97 98 99 100 136 102 128 59 68 61 62 87 64
    ITEMCFG 3 4 3 5 6 7 8 9 3 10 3 11 12 13 14 3 3 106 3 117 3 3 132 3 3 121 3 118 3 124 3
    FREEZECFG 0 0 0 0 0 0 0 0 0 0 0 0 0 0 0 0 0 0 0 0 0 0 0 0 0 0 0 0 0 0 0
    FXCFG 0 0 19 76 21 22 23 24 25 0 26 74 28 29 30 31 32 0 26 154 34 35 32 32 32 0 0 72 34 35 36 37
    FXENVCFG 0 0 3 38 3 3 3 3 3 0 3 39 3 3 3 3 3 0 3 40 3 3 3 3 3 0 0 40 3 3 3 3
    RECFXCFG 0 0 0 0 0 0 0 0 0 0 0 0 0 0 0 0 0 0 0 0 0 0 0 0 0 0 0 0 0 0 0
    TRACKENVCFG 41 3 3 3 3 3 3 3 3 3 3 3 3 3 3 3 3 3 3 3 3 3 3 3 3 3 3 3 3 3 3 3
  >
  <UENT `Toggle track mute` 1701112489 88 2
    TCFG 42 43 65 45 46 47 86 49 127 51 69 53 54 55 85 57 103 135 97 98 99 100 155 102 128 59 68 61 62 87 64
    ITEMCFG 3 4 3 5 6 7 8 9 3 10 3 11 12 13 14 3 3 106 3 117 3 3 132 3 3 121 3 118 3 124 3
    FREEZECFG 0 0 0 0 0 0 0 0 0 0 0 0 0 0 0 0 0 0 0 0 0 0 0 0 0 0 0 0 0 0 0
    FXCFG 0 0 19 76 21 22 23 24 25 0 26 74 28 29 30 31 32 0 26 154 34 35 32 32 32 0 0 72 34 35 36 37
    FXENVCFG 0 0 3 38 3 3 3 3 3 0 3 39 3 3 3 3 3 0 3 40 3 3 3 3 3 0 0 40 3 3 3 3
    RECFXCFG 0 0 0 0 0 0 0 0 0 0 0 0 0 0 0 0 0 0 0 0 0 0 0 0 0 0 0 0 0 0 0
    TRACKENVCFG 41 3 3 3 3 3 3 3 3 3 3 3 3 3 3 3 3 3 3 3 3 3 3 3 3 3 3 3 3 3 3 3
  >
  <UENT `Toggle track mute` 1701112490 88 2
    TCFG 42 43 65 45 46 47 86 49 127 51 69 53 54 55 85 57 103 135 97 156 99 100 155 102 128 59 68 61 62 87 64
    ITEMCFG 3 4 3 5 6 7 8 9 3 10 3 11 12 13 14 3 3 106 3 117 3 3 132 3 3 121 3 118 3 124 3
    FREEZECFG 0 0 0 0 0 0 0 0 0 0 0 0 0 0 0 0 0 0 0 0 0 0 0 0 0 0 0 0 0 0 0
    FXCFG 0 0 19 76 21 22 23 24 25 0 26 74 28 29 30 31 32 0 26 154 34 35 32 32 32 0 0 72 34 35 36 37
    FXENVCFG 0 0 3 38 3 3 3 3 3 0 3 39 3 3 3 3 3 0 3 40 3 3 3 3 3 0 0 40 3 3 3 3
    RECFXCFG 0 0 0 0 0 0 0 0 0 0 0 0 0 0 0 0 0 0 0 0 0 0 0 0 0 0 0 0 0 0 0
    TRACKENVCFG 41 3 3 3 3 3 3 3 3 3 3 3 3 3 3 3 3 3 3 3 3 3 3 3 3 3 3 3 3 3 3 3
  >
  <UENT `Toggle track mute` 1701112528 88 2
    TCFG 42 43 65 45 46 47 86 49 127 51 69 53 54 55 85 57 157 135 97 156 99 100 155 102 128 59 68 61 62 87 64
    ITEMCFG 3 4 3 5 6 7 8 9 3 10 3 11 12 13 14 3 3 106 3 117 3 3 132 3 3 121 3 118 3 124 3
    FREEZECFG 0 0 0 0 0 0 0 0 0 0 0 0 0 0 0 0 0 0 0 0 0 0 0 0 0 0 0 0 0 0 0
    FXCFG 0 0 19 76 21 22 23 24 25 0 26 74 28 29 30 31 32 0 26 154 34 35 32 32 32 0 0 72 34 35 36 37
    FXENVCFG 0 0 3 38 3 3 3 3 3 0 3 39 3 3 3 3 3 0 3 40 3 3 3 3 3 0 0 40 3 3 3 3
    RECFXCFG 0 0 0 0 0 0 0 0 0 0 0 0 0 0 0 0 0 0 0 0 0 0 0 0 0 0 0 0 0 0 0
    TRACKENVCFG 41 3 3 3 3 3 3 3 3 3 3 3 3 3 3 3 3 3 3 3 3 3 3 3 3 3 3 3 3 3 3 3
  >
  <UENT `Toggle track mute` 1701112528 88 2
    TCFG 42 43 65 45 46 47 86 49 127 51 69 53 54 55 85 57 157 158 97 156 99 100 155 102 128 59 68 61 62 87 64
    ITEMCFG 3 4 3 5 6 7 8 9 3 10 3 11 12 13 14 3 3 106 3 117 3 3 132 3 3 121 3 118 3 124 3
    FREEZECFG 0 0 0 0 0 0 0 0 0 0 0 0 0 0 0 0 0 0 0 0 0 0 0 0 0 0 0 0 0 0 0
    FXCFG 0 0 19 76 21 22 23 24 25 0 26 74 28 29 30 31 32 0 26 154 34 35 32 32 32 0 0 72 34 35 36 37
    FXENVCFG 0 0 3 38 3 3 3 3 3 0 3 39 3 3 3 3 3 0 3 40 3 3 3 3 3 0 0 40 3 3 3 3
    RECFXCFG 0 0 0 0 0 0 0 0 0 0 0 0 0 0 0 0 0 0 0 0 0 0 0 0 0 0 0 0 0 0 0
    TRACKENVCFG 41 3 3 3 3 3 3 3 3 3 3 3 3 3 3 3 3 3 3 3 3 3 3 3 3 3 3 3 3 3 3 3
  >
  <UENT `Toggle track mute` 1701112529 88 2
    TCFG 42 43 65 45 46 47 86 49 127 51 69 53 54 55 85 57 157 158 97 98 99 100 155 102 128 59 68 61 62 87 64
    ITEMCFG 3 4 3 5 6 7 8 9 3 10 3 11 12 13 14 3 3 106 3 117 3 3 132 3 3 121 3 118 3 124 3
    FREEZECFG 0 0 0 0 0 0 0 0 0 0 0 0 0 0 0 0 0 0 0 0 0 0 0 0 0 0 0 0 0 0 0
    FXCFG 0 0 19 76 21 22 23 24 25 0 26 74 28 29 30 31 32 0 26 154 34 35 32 32 32 0 0 72 34 35 36 37
    FXENVCFG 0 0 3 38 3 3 3 3 3 0 3 39 3 3 3 3 3 0 3 40 3 3 3 3 3 0 0 40 3 3 3 3
    RECFXCFG 0 0 0 0 0 0 0 0 0 0 0 0 0 0 0 0 0 0 0 0 0 0 0 0 0 0 0 0 0 0 0
    TRACKENVCFG 41 3 3 3 3 3 3 3 3 3 3 3 3 3 3 3 3 3 3 3 3 3 3 3 3 3 3 3 3 3 3 3
  >
  <UENT `Toggle track mute` 1701112530 88 2
    TCFG 42 43 65 45 46 47 86 49 159 51 69 53 54 55 85 57 157 158 97 98 99 100 155 102 128 59 68 61 62 87 64
    ITEMCFG 3 4 3 5 6 7 8 9 3 10 3 11 12 13 14 3 3 106 3 117 3 3 132 3 3 121 3 118 3 124 3
    FREEZECFG 0 0 0 0 0 0 0 0 0 0 0 0 0 0 0 0 0 0 0 0 0 0 0 0 0 0 0 0 0 0 0
    FXCFG 0 0 19 76 21 22 23 24 25 0 26 74 28 29 30 31 32 0 26 154 34 35 32 32 32 0 0 72 34 35 36 37
    FXENVCFG 0 0 3 38 3 3 3 3 3 0 3 39 3 3 3 3 3 0 3 40 3 3 3 3 3 0 0 40 3 3 3 3
    RECFXCFG 0 0 0 0 0 0 0 0 0 0 0 0 0 0 0 0 0 0 0 0 0 0 0 0 0 0 0 0 0 0 0
    TRACKENVCFG 41 3 3 3 3 3 3 3 3 3 3 3 3 3 3 3 3 3 3 3 3 3 3 3 3 3 3 3 3 3 3 3
  >
  <UENT `Toggle track solo` 1701112533 88 2
    TCFG 42 43 65 45 46 47 86 49 159 51 69 53 54 55 160 57 157 158 97 98 99 100 155 102 128 59 68 61 62 87 64
    ITEMCFG 3 4 3 5 6 7 8 9 3 10 3 11 12 13 14 3 3 106 3 117 3 3 132 3 3 121 3 118 3 124 3
    FREEZECFG 0 0 0 0 0 0 0 0 0 0 0 0 0 0 0 0 0 0 0 0 0 0 0 0 0 0 0 0 0 0 0
    FXCFG 0 0 19 76 21 22 23 24 25 0 26 74 28 29 30 31 32 0 26 154 34 35 32 32 32 0 0 72 34 35 36 37
    FXENVCFG 0 0 3 38 3 3 3 3 3 0 3 39 3 3 3 3 3 0 3 40 3 3 3 3 3 0 0 40 3 3 3 3
    RECFXCFG 0 0 0 0 0 0 0 0 0 0 0 0 0 0 0 0 0 0 0 0 0 0 0 0 0 0 0 0 0 0 0
    TRACKENVCFG 41 3 3 3 3 3 3 3 3 3 3 3 3 3 3 3 3 3 3 3 3 3 3 3 3 3 3 3 3 3 3 3
  >
  <UENT `Toggle track solo` 1701112535 88 2
    TCFG 42 43 65 45 46 47 86 49 159 51 69 53 54 55 85 57 157 158 97 98 99 100 155 102 128 59 68 61 62 87 64
    ITEMCFG 3 4 3 5 6 7 8 9 3 10 3 11 12 13 14 3 3 106 3 117 3 3 132 3 3 121 3 118 3 124 3
    FREEZECFG 0 0 0 0 0 0 0 0 0 0 0 0 0 0 0 0 0 0 0 0 0 0 0 0 0 0 0 0 0 0 0
    FXCFG 0 0 19 76 21 22 23 24 25 0 26 74 28 29 30 31 32 0 26 154 34 35 32 32 32 0 0 72 34 35 36 37
    FXENVCFG 0 0 3 38 3 3 3 3 3 0 3 39 3 3 3 3 3 0 3 40 3 3 3 3 3 0 0 40 3 3 3 3
    RECFXCFG 0 0 0 0 0 0 0 0 0 0 0 0 0 0 0 0 0 0 0 0 0 0 0 0 0 0 0 0 0 0 0
    TRACKENVCFG 41 3 3 3 3 3 3 3 3 3 3 3 3 3 3 3 3 3 3 3 3 3 3 3 3 3 3 3 3 3 3 3
  >
  <UENT `Close FX chain: Track 11 MIDI` 1701112559 88 2
    TCFG 42 43 65 45 46 47 86 49 159 51 69 53 54 55 85 57 157 158 97 98 99 100 155 102 128 59 68 61 62 87 64
    ITEMCFG 3 4 3 5 6 7 8 9 3 10 3 11 12 13 14 3 3 106 3 117 3 3 132 3 3 121 3 118 3 124 3
    FREEZECFG 0 0 0 0 0 0 0 0 0 0 0 0 0 0 0 0 0 0 0 0 0 0 0 0 0 0 0 0 0 0 0
    FXCFG 0 0 19 76 21 22 23 24 25 0 26 161 28 29 30 31 32 0 26 154 34 35 32 32 32 0 0 72 34 35 36 37
    FXENVCFG 0 0 3 38 3 3 3 3 3 0 3 39 3 3 3 3 3 0 3 40 3 3 3 3 3 0 0 40 3 3 3 3
    RECFXCFG 0 0 0 0 0 0 0 0 0 0 0 0 0 0 0 0 0 0 0 0 0 0 0 0 0 0 0 0 0 0 0
    TRACKENVCFG 41 3 3 3 3 3 3 3 3 3 3 3 3 3 3 3 3 3 3 3 3 3 3 3 3 3 3 3 3 3 3 3
  >
  <UENT `Paste FX: Track 11 MIDI: ReaSynth` 1701112563 88 2
    TCFG 42 43 65 45 46 47 86 49 159 51 69 53 54 55 85 57 157 158 97 98 99 100 155 102 128 59 68 61 62 87 64
    ITEMCFG 3 4 3 5 6 7 8 9 3 10 3 11 12 13 14 3 3 106 3 117 3 3 132 3 3 121 3 118 3 124 3
    FREEZECFG 0 0 0 0 0 0 0 0 0 0 0 0 0 0 0 0 0 0 0 0 0 0 0 0 0 0 0 0 0 0 0
    FXCFG 0 0 19 76 21 22 23 24 25 0 26 162 28 29 30 31 32 0 26 154 34 35 32 32 32 0 0 72 34 35 36 37
    FXENVCFG 0 0 3 38 3 3 3 3 3 0 3 163 3 3 3 3 3 0 3 40 3 3 3 3 3 0 0 40 3 3 3 3
    RECFXCFG 0 0 0 0 0 0 0 0 0 0 0 0 0 0 0 0 0 0 0 0 0 0 0 0 0 0 0 0 0 0 0
    TRACKENVCFG 41 3 3 3 3 3 3 3 3 3 3 3 3 3 3 3 3 3 3 3 3 3 3 3 3 3 3 3 3 3 3 3
  >
  <UENT `FX bypass toggle: Track 11 MIDI: BassMidiVsti` 1701112564 88 2
    TCFG 42 43 65 45 46 47 86 49 159 51 69 53 54 55 85 57 157 158 97 98 99 100 155 102 128 59 68 61 62 87 64
    ITEMCFG 3 4 3 5 6 7 8 9 3 10 3 11 12 13 14 3 3 106 3 117 3 3 132 3 3 121 3 118 3 124 3
    FREEZECFG 0 0 0 0 0 0 0 0 0 0 0 0 0 0 0 0 0 0 0 0 0 0 0 0 0 0 0 0 0 0 0
    FXCFG 0 0 19 76 21 22 23 24 25 0 26 164 28 29 30 31 32 0 26 154 34 35 32 32 32 0 0 72 34 35 36 37
    FXENVCFG 0 0 3 38 3 3 3 3 3 0 3 163 3 3 3 3 3 0 3 40 3 3 3 3 3 0 0 40 3 3 3 3
    RECFXCFG 0 0 0 0 0 0 0 0 0 0 0 0 0 0 0 0 0 0 0 0 0 0 0 0 0 0 0 0 0 0 0
    TRACKENVCFG 41 3 3 3 3 3 3 3 3 3 3 3 3 3 3 3 3 3 3 3 3 3 3 3 3 3 3 3 3 3 3 3
  >
  <UENT `Close FX chain: Track 11 MIDI` 1701112565 88 2
    TCFG 42 43 65 45 46 47 86 49 159 51 69 53 54 55 85 57 157 158 97 98 99 100 155 102 128 59 68 61 62 87 64
    ITEMCFG 3 4 3 5 6 7 8 9 3 10 3 11 12 13 14 3 3 106 3 117 3 3 132 3 3 121 3 118 3 124 3
    FREEZECFG 0 0 0 0 0 0 0 0 0 0 0 0 0 0 0 0 0 0 0 0 0 0 0 0 0 0 0 0 0 0 0
    FXCFG 0 0 19 76 21 22 23 24 25 0 26 165 28 29 30 31 32 0 26 154 34 35 32 32 32 0 0 72 34 35 36 37
    FXENVCFG 0 0 3 38 3 3 3 3 3 0 3 163 3 3 3 3 3 0 3 40 3 3 3 3 3 0 0 40 3 3 3 3
    RECFXCFG 0 0 0 0 0 0 0 0 0 0 0 0 0 0 0 0 0 0 0 0 0 0 0 0 0 0 0 0 0 0 0
    TRACKENVCFG 41 3 3 3 3 3 3 3 3 3 3 3 3 3 3 3 3 3 3 3 3 3 3 3 3 3 3 3 3 3 3 3
  >
  <UENT `Toggle track solo` 1701112569 88 2
    TCFG 42 43 65 45 46 47 86 49 159 51 69 53 54 55 160 57 157 158 97 98 99 100 155 102 128 59 68 61 62 87 64
    ITEMCFG 3 4 3 5 6 7 8 9 3 10 3 11 12 13 14 3 3 106 3 117 3 3 132 3 3 121 3 118 3 124 3
    FREEZECFG 0 0 0 0 0 0 0 0 0 0 0 0 0 0 0 0 0 0 0 0 0 0 0 0 0 0 0 0 0 0 0
    FXCFG 0 0 19 76 21 22 23 24 25 0 26 165 28 29 30 31 32 0 26 154 34 35 32 32 32 0 0 72 34 35 36 37
    FXENVCFG 0 0 3 38 3 3 3 3 3 0 3 163 3 3 3 3 3 0 3 40 3 3 3 3 3 0 0 40 3 3 3 3
    RECFXCFG 0 0 0 0 0 0 0 0 0 0 0 0 0 0 0 0 0 0 0 0 0 0 0 0 0 0 0 0 0 0 0
    TRACKENVCFG 41 3 3 3 3 3 3 3 3 3 3 3 3 3 3 3 3 3 3 3 3 3 3 3 3 3 3 3 3 3 3 3
  >
>
